%TF.GenerationSoftware,KiCad,Pcbnew,(6.0.7-1)-1*%
%TF.CreationDate,2022-12-23T14:46:04-05:00*%
%TF.ProjectId,atmega328,61746d65-6761-4333-9238-2e6b69636164,rev?*%
%TF.SameCoordinates,Original*%
%TF.FileFunction,Copper,L1,Top*%
%TF.FilePolarity,Positive*%
%FSLAX46Y46*%
G04 Gerber Fmt 4.6, Leading zero omitted, Abs format (unit mm)*
G04 Created by KiCad (PCBNEW (6.0.7-1)-1) date 2022-12-23 14:46:04*
%MOMM*%
%LPD*%
G01*
G04 APERTURE LIST*
G04 Aperture macros list*
%AMRoundRect*
0 Rectangle with rounded corners*
0 $1 Rounding radius*
0 $2 $3 $4 $5 $6 $7 $8 $9 X,Y pos of 4 corners*
0 Add a 4 corners polygon primitive as box body*
4,1,4,$2,$3,$4,$5,$6,$7,$8,$9,$2,$3,0*
0 Add four circle primitives for the rounded corners*
1,1,$1+$1,$2,$3*
1,1,$1+$1,$4,$5*
1,1,$1+$1,$6,$7*
1,1,$1+$1,$8,$9*
0 Add four rect primitives between the rounded corners*
20,1,$1+$1,$2,$3,$4,$5,0*
20,1,$1+$1,$4,$5,$6,$7,0*
20,1,$1+$1,$6,$7,$8,$9,0*
20,1,$1+$1,$8,$9,$2,$3,0*%
%AMRotRect*
0 Rectangle, with rotation*
0 The origin of the aperture is its center*
0 $1 length*
0 $2 width*
0 $3 Rotation angle, in degrees counterclockwise*
0 Add horizontal line*
21,1,$1,$2,0,0,$3*%
G04 Aperture macros list end*
%TA.AperFunction,SMDPad,CuDef*%
%ADD10RoundRect,0.250000X-0.450000X-0.425000X0.450000X-0.425000X0.450000X0.425000X-0.450000X0.425000X0*%
%TD*%
%TA.AperFunction,SMDPad,CuDef*%
%ADD11RoundRect,0.225000X-0.225000X-0.250000X0.225000X-0.250000X0.225000X0.250000X-0.225000X0.250000X0*%
%TD*%
%TA.AperFunction,SMDPad,CuDef*%
%ADD12RoundRect,0.140000X0.170000X-0.140000X0.170000X0.140000X-0.170000X0.140000X-0.170000X-0.140000X0*%
%TD*%
%TA.AperFunction,SMDPad,CuDef*%
%ADD13RoundRect,0.140000X-0.170000X0.140000X-0.170000X-0.140000X0.170000X-0.140000X0.170000X0.140000X0*%
%TD*%
%TA.AperFunction,SMDPad,CuDef*%
%ADD14RoundRect,0.140000X0.140000X0.170000X-0.140000X0.170000X-0.140000X-0.170000X0.140000X-0.170000X0*%
%TD*%
%TA.AperFunction,SMDPad,CuDef*%
%ADD15RoundRect,0.200000X-0.200000X-0.275000X0.200000X-0.275000X0.200000X0.275000X-0.200000X0.275000X0*%
%TD*%
%TA.AperFunction,ComponentPad*%
%ADD16R,1.700000X1.700000*%
%TD*%
%TA.AperFunction,ComponentPad*%
%ADD17O,1.700000X1.700000*%
%TD*%
%TA.AperFunction,SMDPad,CuDef*%
%ADD18RoundRect,0.200000X-0.275000X0.200000X-0.275000X-0.200000X0.275000X-0.200000X0.275000X0.200000X0*%
%TD*%
%TA.AperFunction,SMDPad,CuDef*%
%ADD19R,1.000000X1.500000*%
%TD*%
%TA.AperFunction,SMDPad,CuDef*%
%ADD20R,1.600000X0.550000*%
%TD*%
%TA.AperFunction,SMDPad,CuDef*%
%ADD21R,0.550000X1.600000*%
%TD*%
%TA.AperFunction,SMDPad,CuDef*%
%ADD22R,2.400000X2.000000*%
%TD*%
%TA.AperFunction,SMDPad,CuDef*%
%ADD23RoundRect,0.218750X0.256250X-0.218750X0.256250X0.218750X-0.256250X0.218750X-0.256250X-0.218750X0*%
%TD*%
%TA.AperFunction,SMDPad,CuDef*%
%ADD24RotRect,1.300000X1.700000X45.000000*%
%TD*%
%TA.AperFunction,SMDPad,CuDef*%
%ADD25RoundRect,0.150000X-0.150000X0.587500X-0.150000X-0.587500X0.150000X-0.587500X0.150000X0.587500X0*%
%TD*%
%TA.AperFunction,ViaPad*%
%ADD26C,0.800000*%
%TD*%
%TA.AperFunction,Conductor*%
%ADD27C,0.800000*%
%TD*%
%TA.AperFunction,Conductor*%
%ADD28C,0.250000*%
%TD*%
G04 APERTURE END LIST*
D10*
%TO.P,C2,1*%
%TO.N,Vcc*%
X155210000Y-95270000D03*
%TO.P,C2,2*%
%TO.N,GND*%
X157910000Y-95270000D03*
%TD*%
D11*
%TO.P,C1,1*%
%TO.N,Vcc*%
X158395000Y-92660000D03*
%TO.P,C1,2*%
%TO.N,GND*%
X159945000Y-92660000D03*
%TD*%
D12*
%TO.P,C6,1*%
%TO.N,XTAL1*%
X132310000Y-99100000D03*
%TO.P,C6,2*%
%TO.N,GND*%
X132310000Y-98140000D03*
%TD*%
D13*
%TO.P,C8,1*%
%TO.N,+5V*%
X140340000Y-104610000D03*
%TO.P,C8,2*%
%TO.N,GND*%
X140340000Y-105570000D03*
%TD*%
D14*
%TO.P,C3,1*%
%TO.N,+5V*%
X136520000Y-94930000D03*
%TO.P,C3,2*%
%TO.N,GND*%
X135560000Y-94930000D03*
%TD*%
D15*
%TO.P,R1,1*%
%TO.N,Net-(D1-Pad2)*%
X158360000Y-90860000D03*
%TO.P,R1,2*%
%TO.N,GND*%
X160010000Y-90860000D03*
%TD*%
D16*
%TO.P,ISP1,1,Pin_1*%
%TO.N,MISO*%
X157230000Y-103520000D03*
D17*
%TO.P,ISP1,2,Pin_2*%
%TO.N,3.3V*%
X157230000Y-106060000D03*
%TO.P,ISP1,3,Pin_3*%
%TO.N,SCK*%
X154690000Y-103520000D03*
%TO.P,ISP1,4,Pin_4*%
%TO.N,MOSI*%
X154690000Y-106060000D03*
%TO.P,ISP1,5,Pin_5*%
%TO.N,RESET*%
X152150000Y-103520000D03*
%TO.P,ISP1,6,Pin_6*%
%TO.N,GND*%
X152150000Y-106060000D03*
%TD*%
D14*
%TO.P,C4,1*%
%TO.N,+5V*%
X136540000Y-96530000D03*
%TO.P,C4,2*%
%TO.N,GND*%
X135580000Y-96530000D03*
%TD*%
D18*
%TO.P,R3,1*%
%TO.N,GND*%
X132320000Y-106595000D03*
%TO.P,R3,2*%
%TO.N,Net-(D2-Pad1)*%
X132320000Y-108245000D03*
%TD*%
D13*
%TO.P,C5,1*%
%TO.N,+5V*%
X148590000Y-97310000D03*
%TO.P,C5,2*%
%TO.N,GND*%
X148590000Y-98270000D03*
%TD*%
D19*
%TO.P,JP1,1,A*%
%TO.N,GND*%
X159930000Y-113790000D03*
%TO.P,JP1,2,B*%
%TO.N,TRM2*%
X158630000Y-113790000D03*
%TD*%
D20*
%TO.P,U1,1,PD3*%
%TO.N,unconnected-(U1-Pad1)*%
X138420000Y-92460000D03*
%TO.P,U1,2,PD4*%
%TO.N,unconnected-(U1-Pad2)*%
X138420000Y-93260000D03*
%TO.P,U1,3,GND*%
%TO.N,GND*%
X138420000Y-94060000D03*
%TO.P,U1,4,VCC*%
%TO.N,+5V*%
X138420000Y-94860000D03*
%TO.P,U1,5,GND*%
%TO.N,GND*%
X138420000Y-95660000D03*
%TO.P,U1,6,VCC*%
%TO.N,+5V*%
X138420000Y-96460000D03*
%TO.P,U1,7,XTAL1/PB6*%
%TO.N,XTAL1*%
X138420000Y-97260000D03*
%TO.P,U1,8,XTAL2/PB7*%
%TO.N,XTAL2*%
X138420000Y-98060000D03*
D21*
%TO.P,U1,9,PD5*%
%TO.N,Net-(U1-Pad9)*%
X139870000Y-99510000D03*
%TO.P,U1,10,PD6*%
%TO.N,Net-(U1-Pad10)*%
X140670000Y-99510000D03*
%TO.P,U1,11,PD7*%
%TO.N,Net-(U1-Pad11)*%
X141470000Y-99510000D03*
%TO.P,U1,12,PB0*%
%TO.N,unconnected-(U1-Pad12)*%
X142270000Y-99510000D03*
%TO.P,U1,13,PB1*%
%TO.N,CS*%
X143070000Y-99510000D03*
%TO.P,U1,14,PB2*%
%TO.N,SND*%
X143870000Y-99510000D03*
%TO.P,U1,15,PB3*%
%TO.N,MOSI*%
X144670000Y-99510000D03*
%TO.P,U1,16,PB4*%
%TO.N,MISO*%
X145470000Y-99510000D03*
D20*
%TO.P,U1,17,PB5*%
%TO.N,SCK*%
X146920000Y-98060000D03*
%TO.P,U1,18,AVCC*%
%TO.N,+5V*%
X146920000Y-97260000D03*
%TO.P,U1,19,ADC6*%
%TO.N,unconnected-(U1-Pad19)*%
X146920000Y-96460000D03*
%TO.P,U1,20,AREF*%
%TO.N,unconnected-(U1-Pad20)*%
X146920000Y-95660000D03*
%TO.P,U1,21,GND*%
%TO.N,GND*%
X146920000Y-94860000D03*
%TO.P,U1,22,ADC7*%
%TO.N,unconnected-(U1-Pad22)*%
X146920000Y-94060000D03*
%TO.P,U1,23,PC0*%
%TO.N,W*%
X146920000Y-93260000D03*
%TO.P,U1,24,PC1*%
%TO.N,V*%
X146920000Y-92460000D03*
D21*
%TO.P,U1,25,PC2*%
%TO.N,U*%
X145470000Y-91010000D03*
%TO.P,U1,26,PC3*%
%TO.N,unconnected-(U1-Pad26)*%
X144670000Y-91010000D03*
%TO.P,U1,27,PC4*%
%TO.N,unconnected-(U1-Pad27)*%
X143870000Y-91010000D03*
%TO.P,U1,28,PC5*%
%TO.N,unconnected-(U1-Pad28)*%
X143070000Y-91010000D03*
%TO.P,U1,29,~{RESET}/PC6*%
%TO.N,RESET*%
X142270000Y-91010000D03*
%TO.P,U1,30,PD0*%
%TO.N,RX*%
X141470000Y-91010000D03*
%TO.P,U1,31,PD1*%
%TO.N,TX*%
X140670000Y-91010000D03*
%TO.P,U1,32,PD2*%
%TO.N,unconnected-(U1-Pad32)*%
X139870000Y-91010000D03*
%TD*%
D16*
%TO.P,J3,1,Pin_1*%
%TO.N,TRM1*%
X154750000Y-111390000D03*
D17*
%TO.P,J3,2,Pin_2*%
%TO.N,TRM2*%
X154750000Y-113930000D03*
%TD*%
D16*
%TO.P,J5,1,Pin_1*%
%TO.N,+5V*%
X145800000Y-113700000D03*
D17*
%TO.P,J5,2,Pin_2*%
%TO.N,GND*%
X148340000Y-113700000D03*
%TD*%
D22*
%TO.P,Y1,1,1*%
%TO.N,XTAL1*%
X135060000Y-99040000D03*
%TO.P,Y1,2,2*%
%TO.N,XTAL2*%
X135060000Y-102740000D03*
%TD*%
D12*
%TO.P,C7,1*%
%TO.N,XTAL2*%
X132260000Y-102800000D03*
%TO.P,C7,2*%
%TO.N,GND*%
X132260000Y-101840000D03*
%TD*%
D16*
%TO.P,J2,1,Pin_1*%
%TO.N,GND*%
X141040000Y-87005000D03*
D17*
%TO.P,J2,2,Pin_2*%
%TO.N,TX*%
X143580000Y-87005000D03*
%TO.P,J2,3,Pin_3*%
%TO.N,RX*%
X146120000Y-87005000D03*
%TO.P,J2,4,Pin_4*%
%TO.N,+5V*%
X148660000Y-87005000D03*
%TD*%
D23*
%TO.P,D2,1,K*%
%TO.N,Net-(D2-Pad1)*%
X130300000Y-108167500D03*
%TO.P,D2,2,A*%
%TO.N,+5V*%
X130300000Y-106592500D03*
%TD*%
D16*
%TO.P,J4,1,Pin_1*%
%TO.N,Net-(U1-Pad9)*%
X136500000Y-107700000D03*
D17*
%TO.P,J4,2,Pin_2*%
%TO.N,Net-(U1-Pad10)*%
X136500000Y-110240000D03*
%TO.P,J4,3,Pin_3*%
%TO.N,Net-(U1-Pad11)*%
X136500000Y-112780000D03*
%TD*%
D24*
%TO.P,D1,1,K*%
%TO.N,+5V*%
X151002563Y-90527437D03*
%TO.P,D1,2,A*%
%TO.N,Net-(D1-Pad2)*%
X153477437Y-88052563D03*
%TD*%
D25*
%TO.P,Q1,1,G*%
%TO.N,Net-(D1-Pad2)*%
X156102500Y-91022500D03*
%TO.P,Q1,2,S*%
%TO.N,+5V*%
X154202500Y-91022500D03*
%TO.P,Q1,3,D*%
%TO.N,Vcc*%
X155152500Y-92897500D03*
%TD*%
D16*
%TO.P,J1,1,Pin_1*%
%TO.N,Vcc*%
X163555000Y-96835000D03*
D17*
%TO.P,J1,2,Pin_2*%
%TO.N,TRM1*%
X163555000Y-99375000D03*
%TO.P,J1,3,Pin_3*%
%TO.N,U*%
X163555000Y-101915000D03*
%TO.P,J1,4,Pin_4*%
%TO.N,V*%
X163555000Y-104455000D03*
%TO.P,J1,5,Pin_5*%
%TO.N,W*%
X163555000Y-106995000D03*
%TO.P,J1,6,Pin_6*%
%TO.N,GND*%
X163555000Y-109535000D03*
%TO.P,J1,7,Pin_7*%
%TO.N,TRM2*%
X163555000Y-112075000D03*
%TD*%
D15*
%TO.P,R2,1*%
%TO.N,RESET*%
X150750000Y-99190000D03*
%TO.P,R2,2*%
%TO.N,+5V*%
X152400000Y-99190000D03*
%TD*%
D12*
%TO.P,C9,1*%
%TO.N,+3.3v*%
X140340000Y-103480000D03*
%TO.P,C9,2*%
%TO.N,GND*%
X140340000Y-102520000D03*
%TD*%
D26*
%TO.N,GND*%
X132300000Y-101100000D03*
X161610000Y-92830000D03*
X139800000Y-94100000D03*
X145540000Y-94930000D03*
X134900000Y-96500000D03*
X139800000Y-95700000D03*
X140400000Y-101600000D03*
X133800000Y-106700000D03*
X132400000Y-97300000D03*
X134800000Y-94900000D03*
X148600000Y-99100000D03*
X159830000Y-96120000D03*
X140200000Y-106600000D03*
X160000000Y-112100000D03*
%TO.N,+3.3v*%
X139460000Y-103510000D03*
%TO.N,MISO*%
X145980000Y-100940000D03*
X149480000Y-104160500D03*
%TO.N,SCK*%
X147350000Y-98970000D03*
%TO.N,MOSI*%
X145240000Y-102170000D03*
%TO.N,RESET*%
X142610000Y-92390000D03*
X148370000Y-94630000D03*
%TO.N,U*%
X154940000Y-97050000D03*
%TO.N,V*%
X155860000Y-97794500D03*
%TO.N,W*%
X156800000Y-98519000D03*
%TO.N,TRM2*%
X157260000Y-113600000D03*
%TO.N,CS*%
X143090000Y-98300000D03*
%TO.N,+5V*%
X143240000Y-104610000D03*
%TO.N,Net-(U1-Pad11)*%
X141500000Y-98000000D03*
%TD*%
D27*
%TO.N,Vcc*%
X158395000Y-92660000D02*
X155390000Y-92660000D01*
X163555000Y-96835000D02*
X162478274Y-96835000D01*
X155152500Y-92897500D02*
X155152500Y-95212500D01*
X162478274Y-96835000D02*
X158395000Y-92751726D01*
X155152500Y-95212500D02*
X155210000Y-95270000D01*
X158395000Y-92751726D02*
X158395000Y-92660000D01*
X155390000Y-92660000D02*
X155152500Y-92897500D01*
D28*
%TO.N,GND*%
X146920000Y-94860000D02*
X145610000Y-94860000D01*
X138420000Y-95660000D02*
X139760000Y-95660000D01*
X132310000Y-98140000D02*
X132310000Y-97390000D01*
X159930000Y-113790000D02*
X159930000Y-112170000D01*
X134830000Y-94930000D02*
X134800000Y-94900000D01*
D27*
X161440000Y-92660000D02*
X161610000Y-92830000D01*
D28*
X140340000Y-101660000D02*
X140400000Y-101600000D01*
X145610000Y-94860000D02*
X145540000Y-94930000D01*
X138420000Y-94060000D02*
X139760000Y-94060000D01*
X134930000Y-96530000D02*
X134900000Y-96500000D01*
X132260000Y-101140000D02*
X132300000Y-101100000D01*
X159930000Y-112170000D02*
X160000000Y-112100000D01*
X133695000Y-106595000D02*
X133800000Y-106700000D01*
X140340000Y-106460000D02*
X140200000Y-106600000D01*
X132310000Y-97390000D02*
X132400000Y-97300000D01*
X132320000Y-106595000D02*
X133695000Y-106595000D01*
D27*
X159830000Y-96120000D02*
X158760000Y-96120000D01*
X158760000Y-96120000D02*
X157910000Y-95270000D01*
D28*
X139760000Y-95660000D02*
X139800000Y-95700000D01*
X148590000Y-99090000D02*
X148600000Y-99100000D01*
X140340000Y-102520000D02*
X140340000Y-101660000D01*
X148590000Y-98270000D02*
X148590000Y-99090000D01*
X135580000Y-96530000D02*
X134930000Y-96530000D01*
X132260000Y-101840000D02*
X132260000Y-101140000D01*
X140340000Y-105570000D02*
X140340000Y-106460000D01*
D27*
X160010000Y-90860000D02*
X160010000Y-92595000D01*
D28*
X139760000Y-94060000D02*
X139800000Y-94100000D01*
D27*
X159945000Y-92660000D02*
X161440000Y-92660000D01*
D28*
X135560000Y-94930000D02*
X134830000Y-94930000D01*
D27*
X160010000Y-92595000D02*
X159945000Y-92660000D01*
D28*
%TO.N,XTAL1*%
X136840000Y-97260000D02*
X135060000Y-99040000D01*
X138420000Y-97260000D02*
X136840000Y-97260000D01*
X132370000Y-99040000D02*
X132310000Y-99100000D01*
X135060000Y-99040000D02*
X132370000Y-99040000D01*
%TO.N,XTAL2*%
X132320000Y-102740000D02*
X132260000Y-102800000D01*
X138420000Y-98060000D02*
X138420000Y-99380000D01*
X135060000Y-102740000D02*
X132320000Y-102740000D01*
X138420000Y-99380000D02*
X135060000Y-102740000D01*
%TO.N,+3.3v*%
X139460000Y-103510000D02*
X140310000Y-103510000D01*
X140310000Y-103510000D02*
X140340000Y-103480000D01*
D27*
%TO.N,Net-(D1-Pad2)*%
X156102500Y-91022500D02*
X156102500Y-90677626D01*
X158360000Y-90860000D02*
X156265000Y-90860000D01*
X156102500Y-90677626D02*
X153477437Y-88052563D01*
X156265000Y-90860000D02*
X156102500Y-91022500D01*
D28*
%TO.N,Net-(D2-Pad1)*%
X132320000Y-108245000D02*
X130377500Y-108245000D01*
X130377500Y-108245000D02*
X130300000Y-108167500D01*
%TO.N,MISO*%
X150014500Y-104695000D02*
X149480000Y-104160500D01*
X157230000Y-103520000D02*
X156055000Y-104695000D01*
X145980000Y-100940000D02*
X145980000Y-100020000D01*
X156055000Y-104695000D02*
X150014500Y-104695000D01*
X145980000Y-100020000D02*
X145470000Y-99510000D01*
%TO.N,SCK*%
X147350000Y-98970000D02*
X147350000Y-98490000D01*
X147350000Y-98490000D02*
X146920000Y-98060000D01*
%TO.N,MOSI*%
X145240000Y-101190000D02*
X144670000Y-100620000D01*
X144670000Y-100620000D02*
X144670000Y-99510000D01*
X145240000Y-102170000D02*
X145240000Y-101190000D01*
%TO.N,RESET*%
X142270000Y-92050000D02*
X142270000Y-91010000D01*
X150750000Y-102120000D02*
X150750000Y-99190000D01*
X142610000Y-92390000D02*
X142270000Y-92050000D01*
X150750000Y-99190000D02*
X150750000Y-96000000D01*
X150750000Y-96000000D02*
X150580000Y-95830000D01*
X150580000Y-95830000D02*
X149380000Y-94630000D01*
X149380000Y-94630000D02*
X148370000Y-94630000D01*
X152150000Y-103520000D02*
X150750000Y-102120000D01*
%TO.N,TRM1*%
X163555000Y-99375000D02*
X164730000Y-100550000D01*
X155240000Y-110900000D02*
X164200000Y-110900000D01*
X154750000Y-111390000D02*
X155240000Y-110900000D01*
X164730000Y-110370000D02*
X164200000Y-110900000D01*
X164730000Y-100550000D02*
X164730000Y-110370000D01*
%TO.N,U*%
X153914695Y-97050000D02*
X154940000Y-97050000D01*
X145470000Y-91010000D02*
X147874695Y-91010000D01*
X147874695Y-91010000D02*
X153914695Y-97050000D01*
%TO.N,V*%
X148688299Y-92460000D02*
X146920000Y-92460000D01*
X153914500Y-97794500D02*
X153660000Y-97540000D01*
X153660000Y-97431701D02*
X148688299Y-92460000D01*
X155860000Y-97794500D02*
X153914500Y-97794500D01*
X153660000Y-97540000D02*
X153660000Y-97431701D01*
%TO.N,W*%
X154002604Y-98519000D02*
X148743604Y-93260000D01*
X148743604Y-93260000D02*
X146920000Y-93260000D01*
X156800000Y-98519000D02*
X154002604Y-98519000D01*
%TO.N,TRM2*%
X157260000Y-113600000D02*
X158440000Y-113600000D01*
X158440000Y-113600000D02*
X158630000Y-113790000D01*
%TO.N,TX*%
X140670000Y-89915000D02*
X140670000Y-91010000D01*
X143580000Y-87005000D02*
X140670000Y-89915000D01*
%TO.N,RX*%
X141470000Y-89960000D02*
X143250000Y-88180000D01*
X143250000Y-88180000D02*
X144945000Y-88180000D01*
X144945000Y-88180000D02*
X146120000Y-87005000D01*
X141470000Y-91010000D02*
X141470000Y-89960000D01*
%TO.N,CS*%
X143090000Y-98300000D02*
X143090000Y-99490000D01*
X143090000Y-99490000D02*
X143070000Y-99510000D01*
%TO.N,+5V*%
X138420000Y-94860000D02*
X136590000Y-94860000D01*
D27*
X151497626Y-91022500D02*
X151002563Y-90527437D01*
D28*
X136590000Y-94860000D02*
X136520000Y-94930000D01*
D27*
X151002563Y-90527437D02*
X151002563Y-90547437D01*
D28*
X143240000Y-104610000D02*
X140340000Y-104610000D01*
D27*
X151002563Y-90547437D02*
X150130000Y-91420000D01*
X154202500Y-91022500D02*
X151497626Y-91022500D01*
D28*
%TO.N,Net-(U1-Pad9)*%
X138926396Y-99510000D02*
X139870000Y-99510000D01*
X137200000Y-101236396D02*
X138926396Y-99510000D01*
X136500000Y-107700000D02*
X137200000Y-107000000D01*
X137200000Y-107000000D02*
X137200000Y-101236396D01*
%TO.N,Net-(U1-Pad10)*%
X137650000Y-101500000D02*
X137675000Y-101525000D01*
X137675000Y-101525000D02*
X137675000Y-109065000D01*
X140670000Y-100560000D02*
X140430000Y-100800000D01*
X140670000Y-99510000D02*
X140670000Y-100560000D01*
X137675000Y-109065000D02*
X136500000Y-110240000D01*
X138350000Y-100800000D02*
X137650000Y-101500000D01*
X140430000Y-100800000D02*
X138350000Y-100800000D01*
%TO.N,Net-(U1-Pad11)*%
X141470000Y-98030000D02*
X141500000Y-98000000D01*
X141470000Y-99510000D02*
X141470000Y-98030000D01*
%TD*%
%TA.AperFunction,Conductor*%
%TO.N,+5V*%
G36*
X140052250Y-85916955D02*
G01*
X140070556Y-85961149D01*
X140052250Y-86005343D01*
X140050562Y-86007031D01*
X140045448Y-86010448D01*
X140001133Y-86076769D01*
X139999933Y-86082803D01*
X139999932Y-86082805D01*
X139990568Y-86129882D01*
X139989500Y-86135252D01*
X139989500Y-87874748D01*
X139990099Y-87877758D01*
X139990099Y-87877761D01*
X139993779Y-87896258D01*
X140001133Y-87933231D01*
X140045448Y-87999552D01*
X140050562Y-88002969D01*
X140106653Y-88040449D01*
X140106655Y-88040450D01*
X140111769Y-88043867D01*
X140117803Y-88045067D01*
X140117805Y-88045068D01*
X140167239Y-88054901D01*
X140167242Y-88054901D01*
X140170252Y-88055500D01*
X141909748Y-88055500D01*
X141912764Y-88054900D01*
X141913090Y-88054868D01*
X141958866Y-88068753D01*
X141981417Y-88110939D01*
X141967532Y-88156715D01*
X141963412Y-88161261D01*
X140451820Y-89672854D01*
X140447800Y-89676538D01*
X140416806Y-89702545D01*
X140414073Y-89707279D01*
X140396580Y-89737579D01*
X140393650Y-89742178D01*
X140370446Y-89775316D01*
X140369032Y-89780593D01*
X140369031Y-89780595D01*
X140368812Y-89781414D01*
X140362568Y-89796487D01*
X140362147Y-89797216D01*
X140362145Y-89797221D01*
X140359412Y-89801955D01*
X140358463Y-89807338D01*
X140352388Y-89841793D01*
X140351207Y-89847117D01*
X140340736Y-89886193D01*
X140344118Y-89924847D01*
X140344262Y-89926494D01*
X140344500Y-89931941D01*
X140344500Y-89969197D01*
X140326194Y-90013391D01*
X140316723Y-90021164D01*
X140304723Y-90029182D01*
X140257806Y-90038514D01*
X140235277Y-90029182D01*
X140228349Y-90024553D01*
X140228350Y-90024553D01*
X140223231Y-90021133D01*
X140217195Y-90019932D01*
X140217194Y-90019932D01*
X140167761Y-90010099D01*
X140167758Y-90010099D01*
X140164748Y-90009500D01*
X139575252Y-90009500D01*
X139572242Y-90010099D01*
X139572239Y-90010099D01*
X139522805Y-90019932D01*
X139522803Y-90019933D01*
X139516769Y-90021133D01*
X139511655Y-90024550D01*
X139511653Y-90024551D01*
X139490757Y-90038514D01*
X139450448Y-90065448D01*
X139447031Y-90070562D01*
X139418700Y-90112962D01*
X139406133Y-90131769D01*
X139404933Y-90137803D01*
X139404932Y-90137805D01*
X139395567Y-90184886D01*
X139394500Y-90190252D01*
X139394500Y-91829748D01*
X139406133Y-91888231D01*
X139409550Y-91893345D01*
X139409551Y-91893347D01*
X139448847Y-91952156D01*
X139449355Y-91954708D01*
X139452844Y-91956153D01*
X139511653Y-91995449D01*
X139511655Y-91995450D01*
X139516769Y-91998867D01*
X139522803Y-92000067D01*
X139522805Y-92000068D01*
X139572239Y-92009901D01*
X139572242Y-92009901D01*
X139575252Y-92010500D01*
X140164748Y-92010500D01*
X140167758Y-92009901D01*
X140167761Y-92009901D01*
X140217194Y-92000068D01*
X140217195Y-92000068D01*
X140223231Y-91998867D01*
X140235277Y-91990818D01*
X140282194Y-91981486D01*
X140304723Y-91990818D01*
X140316769Y-91998867D01*
X140322805Y-92000068D01*
X140322806Y-92000068D01*
X140372239Y-92009901D01*
X140372242Y-92009901D01*
X140375252Y-92010500D01*
X140964748Y-92010500D01*
X140967758Y-92009901D01*
X140967761Y-92009901D01*
X141017194Y-92000068D01*
X141017195Y-92000068D01*
X141023231Y-91998867D01*
X141035277Y-91990818D01*
X141082194Y-91981486D01*
X141104723Y-91990818D01*
X141116769Y-91998867D01*
X141122805Y-92000068D01*
X141122806Y-92000068D01*
X141172239Y-92009901D01*
X141172242Y-92009901D01*
X141175252Y-92010500D01*
X141764748Y-92010500D01*
X141767758Y-92009901D01*
X141767761Y-92009901D01*
X141817194Y-92000068D01*
X141817195Y-92000068D01*
X141823231Y-91998867D01*
X141835277Y-91990818D01*
X141882194Y-91981486D01*
X141904723Y-91990818D01*
X141915256Y-91997856D01*
X141941832Y-92037630D01*
X141942795Y-92055270D01*
X141942472Y-92058965D01*
X141940736Y-92078807D01*
X141942151Y-92084087D01*
X141942151Y-92084089D01*
X141951207Y-92117883D01*
X141952387Y-92123204D01*
X141959412Y-92163045D01*
X141962145Y-92167779D01*
X141962147Y-92167784D01*
X141962568Y-92168513D01*
X141968812Y-92183586D01*
X141970446Y-92189684D01*
X141973580Y-92194159D01*
X141973580Y-92194160D01*
X141993650Y-92222822D01*
X141996575Y-92227414D01*
X142009703Y-92250152D01*
X142017541Y-92289559D01*
X142004318Y-92390000D01*
X142024956Y-92546762D01*
X142026524Y-92550547D01*
X142026524Y-92550548D01*
X142075776Y-92669452D01*
X142085464Y-92692841D01*
X142181718Y-92818282D01*
X142307159Y-92914536D01*
X142310942Y-92916103D01*
X142449452Y-92973476D01*
X142449453Y-92973476D01*
X142453238Y-92975044D01*
X142457300Y-92975579D01*
X142457301Y-92975579D01*
X142605936Y-92995147D01*
X142610000Y-92995682D01*
X142614064Y-92995147D01*
X142762699Y-92975579D01*
X142762700Y-92975579D01*
X142766762Y-92975044D01*
X142770547Y-92973476D01*
X142770548Y-92973476D01*
X142909058Y-92916103D01*
X142912841Y-92914536D01*
X143038282Y-92818282D01*
X143134536Y-92692841D01*
X143144224Y-92669452D01*
X143193476Y-92550548D01*
X143193476Y-92550547D01*
X143195044Y-92546762D01*
X143215682Y-92390000D01*
X143215147Y-92385936D01*
X143195579Y-92237301D01*
X143195579Y-92237300D01*
X143195044Y-92233238D01*
X143138578Y-92096917D01*
X143138577Y-92049082D01*
X143172402Y-92015258D01*
X143196320Y-92010500D01*
X143364748Y-92010500D01*
X143367758Y-92009901D01*
X143367761Y-92009901D01*
X143417194Y-92000068D01*
X143417195Y-92000068D01*
X143423231Y-91998867D01*
X143435277Y-91990818D01*
X143482194Y-91981486D01*
X143504723Y-91990818D01*
X143516769Y-91998867D01*
X143522805Y-92000068D01*
X143522806Y-92000068D01*
X143572239Y-92009901D01*
X143572242Y-92009901D01*
X143575252Y-92010500D01*
X144164748Y-92010500D01*
X144167758Y-92009901D01*
X144167761Y-92009901D01*
X144217194Y-92000068D01*
X144217195Y-92000068D01*
X144223231Y-91998867D01*
X144235277Y-91990818D01*
X144282194Y-91981486D01*
X144304723Y-91990818D01*
X144316769Y-91998867D01*
X144322805Y-92000068D01*
X144322806Y-92000068D01*
X144372239Y-92009901D01*
X144372242Y-92009901D01*
X144375252Y-92010500D01*
X144964748Y-92010500D01*
X144967758Y-92009901D01*
X144967761Y-92009901D01*
X145017194Y-92000068D01*
X145017195Y-92000068D01*
X145023231Y-91998867D01*
X145035277Y-91990818D01*
X145082194Y-91981486D01*
X145104723Y-91990818D01*
X145116769Y-91998867D01*
X145122805Y-92000068D01*
X145122806Y-92000068D01*
X145172239Y-92009901D01*
X145172242Y-92009901D01*
X145175252Y-92010500D01*
X145764748Y-92010500D01*
X145767758Y-92009901D01*
X145767761Y-92009901D01*
X145817195Y-92000068D01*
X145817197Y-92000067D01*
X145823231Y-91998867D01*
X145828345Y-91995450D01*
X145828347Y-91995449D01*
X145887156Y-91956153D01*
X145889708Y-91955645D01*
X145891153Y-91952156D01*
X145930449Y-91893347D01*
X145930450Y-91893345D01*
X145933867Y-91888231D01*
X145945500Y-91829748D01*
X145945500Y-91398000D01*
X145963806Y-91353806D01*
X146008000Y-91335500D01*
X147713981Y-91335500D01*
X147758175Y-91353806D01*
X148432175Y-92027806D01*
X148450481Y-92072000D01*
X148432175Y-92116194D01*
X148387981Y-92134500D01*
X147960804Y-92134500D01*
X147916610Y-92116194D01*
X147908837Y-92106724D01*
X147867969Y-92045562D01*
X147864552Y-92040448D01*
X147826853Y-92015258D01*
X147803347Y-91999551D01*
X147803345Y-91999550D01*
X147798231Y-91996133D01*
X147792197Y-91994933D01*
X147792195Y-91994932D01*
X147742761Y-91985099D01*
X147742758Y-91985099D01*
X147739748Y-91984500D01*
X146100252Y-91984500D01*
X146097242Y-91985099D01*
X146097239Y-91985099D01*
X146047805Y-91994932D01*
X146047803Y-91994933D01*
X146041769Y-91996133D01*
X146036655Y-91999550D01*
X146036653Y-91999551D01*
X145977844Y-92038847D01*
X145975292Y-92039355D01*
X145973847Y-92042844D01*
X145946288Y-92084089D01*
X145931133Y-92106769D01*
X145929933Y-92112803D01*
X145929932Y-92112805D01*
X145920313Y-92161163D01*
X145919500Y-92165252D01*
X145919500Y-92754748D01*
X145931133Y-92813231D01*
X145934553Y-92818349D01*
X145939182Y-92825277D01*
X145948514Y-92872194D01*
X145939182Y-92894723D01*
X145931133Y-92906769D01*
X145929932Y-92912805D01*
X145929932Y-92912806D01*
X145925956Y-92932797D01*
X145919500Y-92965252D01*
X145919500Y-93554748D01*
X145920099Y-93557758D01*
X145920099Y-93557761D01*
X145924116Y-93577955D01*
X145931133Y-93613231D01*
X145934553Y-93618349D01*
X145939182Y-93625277D01*
X145948514Y-93672194D01*
X145939182Y-93694723D01*
X145931133Y-93706769D01*
X145919500Y-93765252D01*
X145919500Y-94343680D01*
X145901194Y-94387874D01*
X145857000Y-94406180D01*
X145833083Y-94401422D01*
X145727676Y-94357761D01*
X145700548Y-94346524D01*
X145700547Y-94346524D01*
X145696762Y-94344956D01*
X145692700Y-94344421D01*
X145692699Y-94344421D01*
X145544064Y-94324853D01*
X145540000Y-94324318D01*
X145535936Y-94324853D01*
X145387301Y-94344421D01*
X145387300Y-94344421D01*
X145383238Y-94344956D01*
X145379453Y-94346524D01*
X145379452Y-94346524D01*
X145246917Y-94401422D01*
X145237159Y-94405464D01*
X145111718Y-94501718D01*
X145015464Y-94627159D01*
X145013897Y-94630942D01*
X144968951Y-94739452D01*
X144954956Y-94773238D01*
X144954421Y-94777300D01*
X144954421Y-94777301D01*
X144937689Y-94904397D01*
X144934318Y-94930000D01*
X144934853Y-94934064D01*
X144951535Y-95060773D01*
X144954956Y-95086762D01*
X144956524Y-95090547D01*
X144956524Y-95090548D01*
X145000259Y-95196133D01*
X145015464Y-95232841D01*
X145111718Y-95358282D01*
X145114963Y-95360772D01*
X145124804Y-95368323D01*
X145237159Y-95454536D01*
X145240942Y-95456103D01*
X145379452Y-95513476D01*
X145379453Y-95513476D01*
X145383238Y-95515044D01*
X145387300Y-95515579D01*
X145387301Y-95515579D01*
X145535936Y-95535147D01*
X145540000Y-95535682D01*
X145544064Y-95535147D01*
X145692699Y-95515579D01*
X145692700Y-95515579D01*
X145696762Y-95515044D01*
X145700547Y-95513476D01*
X145700548Y-95513476D01*
X145772974Y-95483476D01*
X145833083Y-95458578D01*
X145880918Y-95458577D01*
X145914742Y-95492402D01*
X145919500Y-95516320D01*
X145919500Y-95954748D01*
X145920099Y-95957758D01*
X145920099Y-95957761D01*
X145924116Y-95977955D01*
X145931133Y-96013231D01*
X145934552Y-96018347D01*
X145934553Y-96018349D01*
X145939182Y-96025277D01*
X145948514Y-96072194D01*
X145939182Y-96094723D01*
X145931133Y-96106769D01*
X145929932Y-96112805D01*
X145929932Y-96112806D01*
X145920210Y-96161684D01*
X145919500Y-96165252D01*
X145919500Y-96754748D01*
X145920099Y-96757758D01*
X145920099Y-96757761D01*
X145928314Y-96799058D01*
X145931133Y-96813231D01*
X145975448Y-96879552D01*
X145980562Y-96882969D01*
X146036653Y-96920449D01*
X146036655Y-96920450D01*
X146041769Y-96923867D01*
X146047803Y-96925067D01*
X146047805Y-96925068D01*
X146097239Y-96934901D01*
X146097242Y-96934901D01*
X146100252Y-96935500D01*
X147739748Y-96935500D01*
X147742758Y-96934901D01*
X147742761Y-96934901D01*
X147792195Y-96925068D01*
X147792197Y-96925067D01*
X147798231Y-96923867D01*
X147803345Y-96920450D01*
X147803347Y-96920449D01*
X147859438Y-96882969D01*
X147864552Y-96879552D01*
X147908867Y-96813231D01*
X147911687Y-96799058D01*
X147919901Y-96757761D01*
X147919901Y-96757758D01*
X147920500Y-96754748D01*
X147920500Y-96165252D01*
X147919791Y-96161684D01*
X147910068Y-96112806D01*
X147910068Y-96112805D01*
X147908867Y-96106769D01*
X147900818Y-96094723D01*
X147891486Y-96047806D01*
X147900818Y-96025277D01*
X147905447Y-96018349D01*
X147905448Y-96018347D01*
X147908867Y-96013231D01*
X147915884Y-95977955D01*
X147919901Y-95957761D01*
X147919901Y-95957758D01*
X147920500Y-95954748D01*
X147920500Y-95365252D01*
X147913642Y-95330772D01*
X147910068Y-95312806D01*
X147910068Y-95312805D01*
X147908867Y-95306769D01*
X147900818Y-95294723D01*
X147891486Y-95247806D01*
X147900818Y-95225277D01*
X147905447Y-95218349D01*
X147908867Y-95213231D01*
X147914582Y-95184500D01*
X147920349Y-95155508D01*
X147946925Y-95115734D01*
X147993841Y-95106402D01*
X148019696Y-95118117D01*
X148063908Y-95152042D01*
X148063911Y-95152044D01*
X148067159Y-95154536D01*
X148070942Y-95156103D01*
X148209452Y-95213476D01*
X148209453Y-95213476D01*
X148213238Y-95215044D01*
X148217300Y-95215579D01*
X148217301Y-95215579D01*
X148365936Y-95235147D01*
X148370000Y-95235682D01*
X148374064Y-95235147D01*
X148522699Y-95215579D01*
X148522700Y-95215579D01*
X148526762Y-95215044D01*
X148530547Y-95213476D01*
X148530548Y-95213476D01*
X148669058Y-95156103D01*
X148672841Y-95154536D01*
X148798282Y-95058282D01*
X148858387Y-94979952D01*
X148899813Y-94956035D01*
X148907971Y-94955500D01*
X149219286Y-94955500D01*
X149263480Y-94973806D01*
X150369971Y-96080298D01*
X150369973Y-96080299D01*
X150406194Y-96116520D01*
X150424500Y-96160714D01*
X150424500Y-98491154D01*
X150406194Y-98535348D01*
X150390377Y-98546841D01*
X150311658Y-98586950D01*
X150221950Y-98676658D01*
X150164354Y-98789696D01*
X150163172Y-98797159D01*
X150150589Y-98876608D01*
X150149500Y-98883481D01*
X150149501Y-99496518D01*
X150164354Y-99590304D01*
X150221950Y-99703342D01*
X150311658Y-99793050D01*
X150390376Y-99833159D01*
X150421441Y-99869533D01*
X150424500Y-99888846D01*
X150424500Y-102103059D01*
X150424262Y-102108506D01*
X150420736Y-102148807D01*
X150422151Y-102154087D01*
X150422151Y-102154089D01*
X150431207Y-102187883D01*
X150432387Y-102193204D01*
X150439412Y-102233045D01*
X150442145Y-102237779D01*
X150442147Y-102237784D01*
X150442568Y-102238513D01*
X150448812Y-102253586D01*
X150450446Y-102259684D01*
X150453580Y-102264159D01*
X150453580Y-102264160D01*
X150473650Y-102292822D01*
X150476575Y-102297414D01*
X150496806Y-102332455D01*
X150500995Y-102335970D01*
X150527802Y-102358464D01*
X150531822Y-102362148D01*
X151179961Y-103010287D01*
X151198267Y-103054481D01*
X151190537Y-103084588D01*
X151179776Y-103104162D01*
X151117484Y-103300532D01*
X151117143Y-103303570D01*
X151117143Y-103303571D01*
X151106354Y-103399762D01*
X151094520Y-103505262D01*
X151095758Y-103520000D01*
X151108400Y-103670548D01*
X151111759Y-103710553D01*
X151112601Y-103713489D01*
X151149256Y-103841319D01*
X151168544Y-103908586D01*
X151262712Y-104091818D01*
X151264603Y-104094204D01*
X151264605Y-104094207D01*
X151347109Y-104198300D01*
X151390677Y-104253270D01*
X151396691Y-104258388D01*
X151397886Y-104259405D01*
X151419676Y-104301989D01*
X151404972Y-104347509D01*
X151362388Y-104369299D01*
X151357377Y-104369500D01*
X150175214Y-104369500D01*
X150131020Y-104351194D01*
X150090566Y-104310740D01*
X150072260Y-104266546D01*
X150072795Y-104258388D01*
X150085147Y-104164564D01*
X150085682Y-104160500D01*
X150081467Y-104128480D01*
X150065579Y-104007801D01*
X150065579Y-104007800D01*
X150065044Y-104003738D01*
X150061742Y-103995765D01*
X150006103Y-103861442D01*
X150004536Y-103857659D01*
X149908282Y-103732218D01*
X149782841Y-103635964D01*
X149652155Y-103581832D01*
X149640548Y-103577024D01*
X149640547Y-103577024D01*
X149636762Y-103575456D01*
X149632700Y-103574921D01*
X149632699Y-103574921D01*
X149484064Y-103555353D01*
X149480000Y-103554818D01*
X149475936Y-103555353D01*
X149327301Y-103574921D01*
X149327300Y-103574921D01*
X149323238Y-103575456D01*
X149319453Y-103577024D01*
X149319452Y-103577024D01*
X149307845Y-103581832D01*
X149177159Y-103635964D01*
X149051718Y-103732218D01*
X148955464Y-103857659D01*
X148953897Y-103861442D01*
X148898259Y-103995765D01*
X148894956Y-104003738D01*
X148894421Y-104007800D01*
X148894421Y-104007801D01*
X148878533Y-104128480D01*
X148874318Y-104160500D01*
X148894956Y-104317262D01*
X148955464Y-104463341D01*
X149051718Y-104588782D01*
X149177159Y-104685036D01*
X149180942Y-104686603D01*
X149319452Y-104743976D01*
X149319453Y-104743976D01*
X149323238Y-104745544D01*
X149327300Y-104746079D01*
X149327301Y-104746079D01*
X149475936Y-104765647D01*
X149480000Y-104766182D01*
X149577888Y-104753295D01*
X149624094Y-104765675D01*
X149630240Y-104771066D01*
X149772354Y-104913180D01*
X149776036Y-104917198D01*
X149802045Y-104948194D01*
X149837086Y-104968425D01*
X149841678Y-104971350D01*
X149874816Y-104994554D01*
X149880098Y-104995969D01*
X149880099Y-104995970D01*
X149880919Y-104996190D01*
X149895984Y-105002430D01*
X149896717Y-105002853D01*
X149901455Y-105005588D01*
X149941291Y-105012613D01*
X149946609Y-105013791D01*
X149980415Y-105022849D01*
X149980416Y-105022849D01*
X149985693Y-105024263D01*
X149991136Y-105023787D01*
X149991138Y-105023787D01*
X150025986Y-105020738D01*
X150031433Y-105020500D01*
X151616379Y-105020500D01*
X151660573Y-105038806D01*
X151678879Y-105083000D01*
X151660573Y-105127194D01*
X151645335Y-105138388D01*
X151622204Y-105150481D01*
X151572002Y-105176726D01*
X151411447Y-105305815D01*
X151279024Y-105463630D01*
X151179776Y-105644162D01*
X151117484Y-105840532D01*
X151117143Y-105843570D01*
X151117143Y-105843571D01*
X151100171Y-105994886D01*
X151094520Y-106045262D01*
X151095758Y-106060000D01*
X151105663Y-106177955D01*
X151111759Y-106250553D01*
X151168544Y-106448586D01*
X151262712Y-106631818D01*
X151264603Y-106634204D01*
X151264605Y-106634207D01*
X151347109Y-106738300D01*
X151390677Y-106793270D01*
X151393007Y-106795253D01*
X151469729Y-106860548D01*
X151547564Y-106926791D01*
X151727398Y-107027297D01*
X151730302Y-107028241D01*
X151730303Y-107028241D01*
X151920416Y-107090013D01*
X151920421Y-107090014D01*
X151923329Y-107090959D01*
X151926370Y-107091322D01*
X151926372Y-107091322D01*
X151988442Y-107098723D01*
X152127894Y-107115351D01*
X152130936Y-107115117D01*
X152130939Y-107115117D01*
X152330249Y-107099781D01*
X152330251Y-107099781D01*
X152333300Y-107099546D01*
X152531725Y-107044145D01*
X152534448Y-107042770D01*
X152534452Y-107042768D01*
X152712890Y-106952632D01*
X152715610Y-106951258D01*
X152718008Y-106949385D01*
X152718012Y-106949382D01*
X152841760Y-106852699D01*
X152877951Y-106824424D01*
X152906910Y-106790875D01*
X152981842Y-106704064D01*
X153012564Y-106668472D01*
X153114323Y-106489344D01*
X153179351Y-106293863D01*
X153181791Y-106274553D01*
X153204951Y-106091216D01*
X153204951Y-106091215D01*
X153205171Y-106089474D01*
X153205438Y-106070427D01*
X153205559Y-106061739D01*
X153205559Y-106061733D01*
X153205583Y-106060000D01*
X153205414Y-106058280D01*
X153205414Y-106058271D01*
X153185778Y-105858010D01*
X153185480Y-105854970D01*
X153125935Y-105657749D01*
X153047563Y-105510351D01*
X153030653Y-105478547D01*
X153030651Y-105478544D01*
X153029218Y-105475849D01*
X152899011Y-105316200D01*
X152740275Y-105184882D01*
X152653527Y-105137977D01*
X152623359Y-105100855D01*
X152628276Y-105053273D01*
X152665399Y-105023105D01*
X152683254Y-105020500D01*
X154156379Y-105020500D01*
X154200573Y-105038806D01*
X154218879Y-105083000D01*
X154200573Y-105127194D01*
X154185335Y-105138388D01*
X154162204Y-105150481D01*
X154112002Y-105176726D01*
X153951447Y-105305815D01*
X153819024Y-105463630D01*
X153719776Y-105644162D01*
X153657484Y-105840532D01*
X153657143Y-105843570D01*
X153657143Y-105843571D01*
X153640171Y-105994886D01*
X153634520Y-106045262D01*
X153635758Y-106060000D01*
X153645663Y-106177955D01*
X153651759Y-106250553D01*
X153708544Y-106448586D01*
X153802712Y-106631818D01*
X153804603Y-106634204D01*
X153804605Y-106634207D01*
X153887109Y-106738300D01*
X153930677Y-106793270D01*
X153933007Y-106795253D01*
X154009729Y-106860548D01*
X154087564Y-106926791D01*
X154267398Y-107027297D01*
X154270302Y-107028241D01*
X154270303Y-107028241D01*
X154460416Y-107090013D01*
X154460421Y-107090014D01*
X154463329Y-107090959D01*
X154466370Y-107091322D01*
X154466372Y-107091322D01*
X154528442Y-107098723D01*
X154667894Y-107115351D01*
X154670936Y-107115117D01*
X154670939Y-107115117D01*
X154870249Y-107099781D01*
X154870251Y-107099781D01*
X154873300Y-107099546D01*
X155071725Y-107044145D01*
X155074448Y-107042770D01*
X155074452Y-107042768D01*
X155252890Y-106952632D01*
X155255610Y-106951258D01*
X155258008Y-106949385D01*
X155258012Y-106949382D01*
X155381760Y-106852699D01*
X155417951Y-106824424D01*
X155446910Y-106790875D01*
X155521842Y-106704064D01*
X155552564Y-106668472D01*
X155654323Y-106489344D01*
X155719351Y-106293863D01*
X155721791Y-106274553D01*
X155744951Y-106091216D01*
X155744951Y-106091215D01*
X155745171Y-106089474D01*
X155745438Y-106070427D01*
X155745559Y-106061739D01*
X155745559Y-106061733D01*
X155745583Y-106060000D01*
X155745414Y-106058280D01*
X155745414Y-106058271D01*
X155744138Y-106045262D01*
X156174520Y-106045262D01*
X156175758Y-106060000D01*
X156185663Y-106177955D01*
X156191759Y-106250553D01*
X156248544Y-106448586D01*
X156342712Y-106631818D01*
X156344603Y-106634204D01*
X156344605Y-106634207D01*
X156427109Y-106738300D01*
X156470677Y-106793270D01*
X156473007Y-106795253D01*
X156549729Y-106860548D01*
X156627564Y-106926791D01*
X156807398Y-107027297D01*
X156810302Y-107028241D01*
X156810303Y-107028241D01*
X157000416Y-107090013D01*
X157000421Y-107090014D01*
X157003329Y-107090959D01*
X157006370Y-107091322D01*
X157006372Y-107091322D01*
X157068442Y-107098723D01*
X157207894Y-107115351D01*
X157210936Y-107115117D01*
X157210939Y-107115117D01*
X157410249Y-107099781D01*
X157410251Y-107099781D01*
X157413300Y-107099546D01*
X157611725Y-107044145D01*
X157614448Y-107042770D01*
X157614452Y-107042768D01*
X157792890Y-106952632D01*
X157795610Y-106951258D01*
X157798008Y-106949385D01*
X157798012Y-106949382D01*
X157921760Y-106852699D01*
X157957951Y-106824424D01*
X157986910Y-106790875D01*
X158061842Y-106704064D01*
X158092564Y-106668472D01*
X158194323Y-106489344D01*
X158259351Y-106293863D01*
X158261791Y-106274553D01*
X158284951Y-106091216D01*
X158284951Y-106091215D01*
X158285171Y-106089474D01*
X158285438Y-106070427D01*
X158285559Y-106061739D01*
X158285559Y-106061733D01*
X158285583Y-106060000D01*
X158285414Y-106058280D01*
X158285414Y-106058271D01*
X158265778Y-105858010D01*
X158265480Y-105854970D01*
X158205935Y-105657749D01*
X158127563Y-105510351D01*
X158110653Y-105478547D01*
X158110651Y-105478544D01*
X158109218Y-105475849D01*
X157979011Y-105316200D01*
X157820275Y-105184882D01*
X157639055Y-105086897D01*
X157584143Y-105069899D01*
X157445169Y-105026879D01*
X157445166Y-105026878D01*
X157442254Y-105025977D01*
X157439221Y-105025658D01*
X157439220Y-105025658D01*
X157386660Y-105020134D01*
X157237369Y-105004443D01*
X157234336Y-105004719D01*
X157234332Y-105004719D01*
X157121436Y-105014993D01*
X157032203Y-105023114D01*
X157029270Y-105023977D01*
X157029266Y-105023978D01*
X156879005Y-105068203D01*
X156834572Y-105081280D01*
X156652002Y-105176726D01*
X156491447Y-105305815D01*
X156359024Y-105463630D01*
X156259776Y-105644162D01*
X156197484Y-105840532D01*
X156197143Y-105843570D01*
X156197143Y-105843571D01*
X156180171Y-105994886D01*
X156174520Y-106045262D01*
X155744138Y-106045262D01*
X155725778Y-105858010D01*
X155725480Y-105854970D01*
X155665935Y-105657749D01*
X155587563Y-105510351D01*
X155570653Y-105478547D01*
X155570651Y-105478544D01*
X155569218Y-105475849D01*
X155439011Y-105316200D01*
X155280275Y-105184882D01*
X155193527Y-105137977D01*
X155163359Y-105100855D01*
X155168276Y-105053273D01*
X155205399Y-105023105D01*
X155223254Y-105020500D01*
X156038059Y-105020500D01*
X156043506Y-105020738D01*
X156083807Y-105024264D01*
X156089087Y-105022849D01*
X156089089Y-105022849D01*
X156122883Y-105013793D01*
X156128204Y-105012613D01*
X156168045Y-105005588D01*
X156172779Y-105002855D01*
X156172784Y-105002853D01*
X156173513Y-105002432D01*
X156188586Y-104996188D01*
X156189405Y-104995969D01*
X156189407Y-104995968D01*
X156194684Y-104994554D01*
X156227822Y-104971350D01*
X156232414Y-104968425D01*
X156267455Y-104948194D01*
X156293464Y-104917198D01*
X156297148Y-104913178D01*
X156621520Y-104588806D01*
X156665714Y-104570500D01*
X158099748Y-104570500D01*
X158102758Y-104569901D01*
X158102761Y-104569901D01*
X158152195Y-104560068D01*
X158152197Y-104560067D01*
X158158231Y-104558867D01*
X158163345Y-104555450D01*
X158163347Y-104555449D01*
X158219438Y-104517969D01*
X158224552Y-104514552D01*
X158258771Y-104463341D01*
X158265449Y-104453347D01*
X158265450Y-104453345D01*
X158268867Y-104448231D01*
X158271058Y-104437220D01*
X158279901Y-104392761D01*
X158279901Y-104392758D01*
X158280500Y-104389748D01*
X158280500Y-102650252D01*
X158279820Y-102646832D01*
X158270068Y-102597805D01*
X158270067Y-102597803D01*
X158268867Y-102591769D01*
X158224552Y-102525448D01*
X158207680Y-102514174D01*
X158163347Y-102484551D01*
X158163345Y-102484550D01*
X158158231Y-102481133D01*
X158152197Y-102479933D01*
X158152195Y-102479932D01*
X158102761Y-102470099D01*
X158102758Y-102470099D01*
X158099748Y-102469500D01*
X156360252Y-102469500D01*
X156357242Y-102470099D01*
X156357239Y-102470099D01*
X156307805Y-102479932D01*
X156307803Y-102479933D01*
X156301769Y-102481133D01*
X156296655Y-102484550D01*
X156296653Y-102484551D01*
X156252320Y-102514174D01*
X156235448Y-102525448D01*
X156191133Y-102591769D01*
X156189933Y-102597803D01*
X156189932Y-102597805D01*
X156180180Y-102646832D01*
X156179500Y-102650252D01*
X156179500Y-104084286D01*
X156161194Y-104128480D01*
X155938480Y-104351194D01*
X155894286Y-104369500D01*
X155481027Y-104369500D01*
X155436833Y-104351194D01*
X155418527Y-104307000D01*
X155433715Y-104266161D01*
X155463368Y-104231807D01*
X155552564Y-104128472D01*
X155648137Y-103960233D01*
X155652811Y-103952006D01*
X155652812Y-103952004D01*
X155654323Y-103949344D01*
X155719351Y-103753863D01*
X155721676Y-103735463D01*
X155744951Y-103551216D01*
X155744951Y-103551215D01*
X155745171Y-103549474D01*
X155745252Y-103543743D01*
X155745559Y-103521739D01*
X155745559Y-103521733D01*
X155745583Y-103520000D01*
X155745414Y-103518280D01*
X155745414Y-103518271D01*
X155725778Y-103318010D01*
X155725480Y-103314970D01*
X155665935Y-103117749D01*
X155608797Y-103010287D01*
X155570653Y-102938547D01*
X155570651Y-102938544D01*
X155569218Y-102935849D01*
X155439011Y-102776200D01*
X155280275Y-102644882D01*
X155099055Y-102546897D01*
X155018726Y-102522031D01*
X154905169Y-102486879D01*
X154905166Y-102486878D01*
X154902254Y-102485977D01*
X154899221Y-102485658D01*
X154899220Y-102485658D01*
X154844739Y-102479932D01*
X154697369Y-102464443D01*
X154694336Y-102464719D01*
X154694332Y-102464719D01*
X154581436Y-102474993D01*
X154492203Y-102483114D01*
X154489270Y-102483977D01*
X154489266Y-102483978D01*
X154359974Y-102522031D01*
X154294572Y-102541280D01*
X154112002Y-102636726D01*
X153951447Y-102765815D01*
X153819024Y-102923630D01*
X153771384Y-103010287D01*
X153730331Y-103084963D01*
X153719776Y-103104162D01*
X153657484Y-103300532D01*
X153657143Y-103303570D01*
X153657143Y-103303571D01*
X153646354Y-103399762D01*
X153634520Y-103505262D01*
X153635758Y-103520000D01*
X153648400Y-103670548D01*
X153651759Y-103710553D01*
X153652601Y-103713489D01*
X153689256Y-103841319D01*
X153708544Y-103908586D01*
X153802712Y-104091818D01*
X153804603Y-104094204D01*
X153804605Y-104094207D01*
X153887109Y-104198300D01*
X153930677Y-104253270D01*
X153936691Y-104258388D01*
X153937886Y-104259405D01*
X153959676Y-104301989D01*
X153944972Y-104347509D01*
X153902388Y-104369299D01*
X153897377Y-104369500D01*
X152941027Y-104369500D01*
X152896833Y-104351194D01*
X152878527Y-104307000D01*
X152893715Y-104266161D01*
X152923368Y-104231807D01*
X153012564Y-104128472D01*
X153108137Y-103960233D01*
X153112811Y-103952006D01*
X153112812Y-103952004D01*
X153114323Y-103949344D01*
X153179351Y-103753863D01*
X153181676Y-103735463D01*
X153204951Y-103551216D01*
X153204951Y-103551215D01*
X153205171Y-103549474D01*
X153205252Y-103543743D01*
X153205559Y-103521739D01*
X153205559Y-103521733D01*
X153205583Y-103520000D01*
X153205414Y-103518280D01*
X153205414Y-103518271D01*
X153185778Y-103318010D01*
X153185480Y-103314970D01*
X153125935Y-103117749D01*
X153068797Y-103010287D01*
X153030653Y-102938547D01*
X153030651Y-102938544D01*
X153029218Y-102935849D01*
X152899011Y-102776200D01*
X152740275Y-102644882D01*
X152559055Y-102546897D01*
X152478726Y-102522031D01*
X152365169Y-102486879D01*
X152365166Y-102486878D01*
X152362254Y-102485977D01*
X152359221Y-102485658D01*
X152359220Y-102485658D01*
X152304739Y-102479932D01*
X152157369Y-102464443D01*
X152154336Y-102464719D01*
X152154332Y-102464719D01*
X152041436Y-102474993D01*
X151952203Y-102483114D01*
X151949270Y-102483977D01*
X151949266Y-102483978D01*
X151757506Y-102540416D01*
X151757502Y-102540418D01*
X151754572Y-102541280D01*
X151714507Y-102562226D01*
X151666862Y-102566478D01*
X151641358Y-102551032D01*
X151093806Y-102003480D01*
X151075500Y-101959286D01*
X151075500Y-99888846D01*
X151093806Y-99844652D01*
X151109623Y-99833159D01*
X151188342Y-99793050D01*
X151278050Y-99703342D01*
X151335646Y-99590304D01*
X151345983Y-99525037D01*
X151350116Y-99498946D01*
X151350116Y-99498941D01*
X151350500Y-99496519D01*
X151350499Y-98883482D01*
X151335646Y-98789696D01*
X151278050Y-98676658D01*
X151188342Y-98586950D01*
X151109624Y-98546841D01*
X151078559Y-98510467D01*
X151075500Y-98491154D01*
X151075500Y-96203110D01*
X151093806Y-96158916D01*
X151138000Y-96140610D01*
X151182194Y-96158916D01*
X153760458Y-98737180D01*
X153764142Y-98741200D01*
X153790149Y-98772194D01*
X153825190Y-98792425D01*
X153829782Y-98795350D01*
X153837768Y-98800942D01*
X153862920Y-98818554D01*
X153868202Y-98819969D01*
X153868203Y-98819970D01*
X153869023Y-98820190D01*
X153884088Y-98826430D01*
X153884821Y-98826853D01*
X153889559Y-98829588D01*
X153929395Y-98836613D01*
X153934710Y-98837790D01*
X153950316Y-98841972D01*
X153968519Y-98846849D01*
X153968520Y-98846849D01*
X153973797Y-98848263D01*
X153979240Y-98847787D01*
X153979242Y-98847787D01*
X154014090Y-98844738D01*
X154019537Y-98844500D01*
X156262029Y-98844500D01*
X156306223Y-98862806D01*
X156311611Y-98868948D01*
X156371718Y-98947282D01*
X156374963Y-98949772D01*
X156374964Y-98949773D01*
X156404907Y-98972749D01*
X156497159Y-99043536D01*
X156500942Y-99045103D01*
X156639452Y-99102476D01*
X156639453Y-99102476D01*
X156643238Y-99104044D01*
X156647300Y-99104579D01*
X156647301Y-99104579D01*
X156795936Y-99124147D01*
X156800000Y-99124682D01*
X156804064Y-99124147D01*
X156952699Y-99104579D01*
X156952700Y-99104579D01*
X156956762Y-99104044D01*
X156960547Y-99102476D01*
X156960548Y-99102476D01*
X157099058Y-99045103D01*
X157102841Y-99043536D01*
X157228282Y-98947282D01*
X157324536Y-98821841D01*
X157327196Y-98815419D01*
X157383476Y-98679548D01*
X157383476Y-98679547D01*
X157385044Y-98675762D01*
X157385925Y-98669074D01*
X157405147Y-98523064D01*
X157405682Y-98519000D01*
X157403422Y-98501832D01*
X157385579Y-98366301D01*
X157385579Y-98366300D01*
X157385044Y-98362238D01*
X157380670Y-98351677D01*
X157326103Y-98219942D01*
X157324536Y-98216159D01*
X157228282Y-98090718D01*
X157102841Y-97994464D01*
X157024819Y-97962146D01*
X156960548Y-97935524D01*
X156960547Y-97935524D01*
X156956762Y-97933956D01*
X156952700Y-97933421D01*
X156952699Y-97933421D01*
X156804064Y-97913853D01*
X156800000Y-97913318D01*
X156795936Y-97913853D01*
X156647301Y-97933421D01*
X156647300Y-97933421D01*
X156643238Y-97933956D01*
X156639453Y-97935524D01*
X156639452Y-97935524D01*
X156536035Y-97978361D01*
X156488199Y-97978361D01*
X156454375Y-97944537D01*
X156450152Y-97912461D01*
X156450409Y-97910513D01*
X156465682Y-97794500D01*
X156456537Y-97725036D01*
X156445579Y-97641801D01*
X156445579Y-97641800D01*
X156445044Y-97637738D01*
X156439883Y-97625277D01*
X156386103Y-97495442D01*
X156384536Y-97491659D01*
X156288282Y-97366218D01*
X156162841Y-97269964D01*
X156105598Y-97246253D01*
X156020548Y-97211024D01*
X156020547Y-97211024D01*
X156016762Y-97209456D01*
X156012700Y-97208921D01*
X156012699Y-97208921D01*
X155864064Y-97189353D01*
X155860000Y-97188818D01*
X155855936Y-97189353D01*
X155707301Y-97208921D01*
X155707300Y-97208921D01*
X155703238Y-97209456D01*
X155614402Y-97246253D01*
X155566568Y-97246252D01*
X155532743Y-97212428D01*
X155528521Y-97180352D01*
X155545147Y-97054064D01*
X155545682Y-97050000D01*
X155532855Y-96952570D01*
X155525579Y-96897301D01*
X155525579Y-96897300D01*
X155525044Y-96893238D01*
X155520791Y-96882969D01*
X155466103Y-96750942D01*
X155464536Y-96747159D01*
X155368282Y-96621718D01*
X155242841Y-96525464D01*
X155181366Y-96500000D01*
X155100548Y-96466524D01*
X155100547Y-96466524D01*
X155096762Y-96464956D01*
X155092700Y-96464421D01*
X155092699Y-96464421D01*
X154944064Y-96444853D01*
X154940000Y-96444318D01*
X154935936Y-96444853D01*
X154787301Y-96464421D01*
X154787300Y-96464421D01*
X154783238Y-96464956D01*
X154779453Y-96466524D01*
X154779452Y-96466524D01*
X154698634Y-96500000D01*
X154637159Y-96525464D01*
X154511718Y-96621718D01*
X154455600Y-96694853D01*
X154451614Y-96700048D01*
X154410187Y-96723965D01*
X154402029Y-96724500D01*
X154075409Y-96724500D01*
X154031215Y-96706194D01*
X148116841Y-90791820D01*
X148113157Y-90787800D01*
X148090665Y-90760995D01*
X148087150Y-90756806D01*
X148052109Y-90736575D01*
X148047517Y-90733650D01*
X148018855Y-90713580D01*
X148018854Y-90713580D01*
X148014379Y-90710446D01*
X148009102Y-90709032D01*
X148009100Y-90709031D01*
X148008281Y-90708812D01*
X147993208Y-90702568D01*
X147992479Y-90702147D01*
X147992474Y-90702145D01*
X147987740Y-90699412D01*
X147947899Y-90692387D01*
X147942578Y-90691207D01*
X147908784Y-90682151D01*
X147908782Y-90682151D01*
X147903502Y-90680736D01*
X147865244Y-90684083D01*
X147863201Y-90684262D01*
X147857754Y-90684500D01*
X146008000Y-90684500D01*
X145963806Y-90666194D01*
X145945500Y-90622000D01*
X145945500Y-90440000D01*
X149610000Y-90440000D01*
X149618772Y-90448828D01*
X149618772Y-90448829D01*
X150149657Y-90983139D01*
X151160000Y-92000000D01*
X151182858Y-91976703D01*
X151507843Y-91645468D01*
X151661625Y-91488729D01*
X151706237Y-91470000D01*
X153543170Y-91470000D01*
X153587364Y-91488306D01*
X153605388Y-91526574D01*
X153634549Y-91832761D01*
X153640000Y-91890000D01*
X154700000Y-91890000D01*
X154700000Y-90275249D01*
X154718306Y-90231055D01*
X154762500Y-90212749D01*
X154806694Y-90231055D01*
X155483694Y-90908055D01*
X155502000Y-90952249D01*
X155502000Y-90979045D01*
X155501465Y-90987202D01*
X155496818Y-91022500D01*
X155497353Y-91026564D01*
X155502000Y-91061861D01*
X155515455Y-91164059D01*
X155517456Y-91179262D01*
X155519024Y-91183047D01*
X155519024Y-91183048D01*
X155576394Y-91321552D01*
X155576396Y-91321555D01*
X155577964Y-91325341D01*
X155580460Y-91328593D01*
X155580460Y-91328594D01*
X155589085Y-91339834D01*
X155602000Y-91377881D01*
X155602000Y-91643218D01*
X155612142Y-91712112D01*
X155663568Y-91816855D01*
X155667220Y-91820501D01*
X155667221Y-91820502D01*
X155742495Y-91895645D01*
X155742497Y-91895647D01*
X155746150Y-91899293D01*
X155828385Y-91939490D01*
X155831165Y-91940849D01*
X155862831Y-91976703D01*
X155859869Y-92024447D01*
X155824015Y-92056113D01*
X155803718Y-92059500D01*
X155573567Y-92059500D01*
X155529412Y-92041233D01*
X155512871Y-92024721D01*
X155508850Y-92020707D01*
X155504209Y-92018438D01*
X155504207Y-92018437D01*
X155408378Y-91971595D01*
X155408377Y-91971595D01*
X155404018Y-91969464D01*
X155399215Y-91968763D01*
X155399214Y-91968763D01*
X155379252Y-91965851D01*
X155335718Y-91959500D01*
X154969282Y-91959500D01*
X154967035Y-91959831D01*
X154967032Y-91959831D01*
X154942838Y-91963393D01*
X154900388Y-91969642D01*
X154795645Y-92021068D01*
X154791999Y-92024720D01*
X154791998Y-92024721D01*
X154716855Y-92099995D01*
X154716853Y-92099997D01*
X154713207Y-92103650D01*
X154710939Y-92108290D01*
X154671153Y-92189684D01*
X154661964Y-92208482D01*
X154652000Y-92276782D01*
X154652000Y-92542119D01*
X154639085Y-92580166D01*
X154627964Y-92594659D01*
X154626396Y-92598445D01*
X154626394Y-92598448D01*
X154570495Y-92733401D01*
X154567456Y-92740738D01*
X154566921Y-92744800D01*
X154566921Y-92744801D01*
X154555993Y-92827806D01*
X154546818Y-92897500D01*
X154547353Y-92901564D01*
X154551465Y-92932797D01*
X154552000Y-92940955D01*
X154552000Y-94407000D01*
X154533694Y-94451194D01*
X154526633Y-94457273D01*
X154443769Y-94518478D01*
X154437850Y-94522850D01*
X154357366Y-94631816D01*
X154312481Y-94759631D01*
X154309500Y-94791166D01*
X154309500Y-95748834D01*
X154312481Y-95780369D01*
X154313743Y-95783962D01*
X154352685Y-95894853D01*
X154357366Y-95908184D01*
X154437850Y-96017150D01*
X154546816Y-96097634D01*
X154551224Y-96099182D01*
X154551226Y-96099183D01*
X154610506Y-96120000D01*
X154674631Y-96142519D01*
X154691058Y-96144072D01*
X154704702Y-96145362D01*
X154704710Y-96145362D01*
X154706166Y-96145500D01*
X155713834Y-96145500D01*
X155715290Y-96145362D01*
X155715298Y-96145362D01*
X155728942Y-96144072D01*
X155745369Y-96142519D01*
X155809494Y-96120000D01*
X155868774Y-96099183D01*
X155868776Y-96099182D01*
X155873184Y-96097634D01*
X155982150Y-96017150D01*
X156062634Y-95908184D01*
X156067316Y-95894853D01*
X156106257Y-95783962D01*
X156107519Y-95780369D01*
X156110500Y-95748834D01*
X157009500Y-95748834D01*
X157012481Y-95780369D01*
X157013743Y-95783962D01*
X157052685Y-95894853D01*
X157057366Y-95908184D01*
X157137850Y-96017150D01*
X157246816Y-96097634D01*
X157251224Y-96099182D01*
X157251226Y-96099183D01*
X157310506Y-96120000D01*
X157374631Y-96142519D01*
X157391058Y-96144072D01*
X157404702Y-96145362D01*
X157404710Y-96145362D01*
X157406166Y-96145500D01*
X157910377Y-96145500D01*
X157954571Y-96163806D01*
X158304647Y-96513882D01*
X158310038Y-96520028D01*
X158331718Y-96548282D01*
X158408817Y-96607442D01*
X158457159Y-96644536D01*
X158460942Y-96646103D01*
X158599452Y-96703476D01*
X158599453Y-96703476D01*
X158603238Y-96705044D01*
X158607300Y-96705579D01*
X158607301Y-96705579D01*
X158755936Y-96725148D01*
X158760000Y-96725683D01*
X158795304Y-96721035D01*
X158803461Y-96720500D01*
X159786545Y-96720500D01*
X159794702Y-96721035D01*
X159830000Y-96725682D01*
X159869361Y-96720500D01*
X159948905Y-96710028D01*
X159982699Y-96705579D01*
X159982700Y-96705579D01*
X159986762Y-96705044D01*
X159990547Y-96703476D01*
X159990548Y-96703476D01*
X160129058Y-96646103D01*
X160132841Y-96644536D01*
X160258282Y-96548282D01*
X160354536Y-96422841D01*
X160389077Y-96339452D01*
X160413476Y-96280548D01*
X160413476Y-96280547D01*
X160415044Y-96276762D01*
X160429725Y-96165252D01*
X160435147Y-96124064D01*
X160435682Y-96120000D01*
X160432941Y-96099183D01*
X160415579Y-95967301D01*
X160415579Y-95967300D01*
X160415044Y-95963238D01*
X160412776Y-95957761D01*
X160356103Y-95820942D01*
X160354536Y-95817159D01*
X160258282Y-95691718D01*
X160132841Y-95595464D01*
X160129058Y-95593897D01*
X159990548Y-95536524D01*
X159990547Y-95536524D01*
X159986762Y-95534956D01*
X159982700Y-95534421D01*
X159982699Y-95534421D01*
X159834064Y-95514853D01*
X159830000Y-95514318D01*
X159825936Y-95514853D01*
X159794703Y-95518965D01*
X159786545Y-95519500D01*
X159034623Y-95519500D01*
X158990429Y-95501194D01*
X158828806Y-95339571D01*
X158810500Y-95295377D01*
X158810500Y-94791166D01*
X158807519Y-94759631D01*
X158762634Y-94631816D01*
X158682150Y-94522850D01*
X158573184Y-94442366D01*
X158568776Y-94440818D01*
X158568774Y-94440817D01*
X158475195Y-94407955D01*
X158445369Y-94397481D01*
X158428942Y-94395928D01*
X158415298Y-94394638D01*
X158415290Y-94394638D01*
X158413834Y-94394500D01*
X157406166Y-94394500D01*
X157404710Y-94394638D01*
X157404702Y-94394638D01*
X157391058Y-94395928D01*
X157374631Y-94397481D01*
X157344805Y-94407955D01*
X157251226Y-94440817D01*
X157251224Y-94440818D01*
X157246816Y-94442366D01*
X157137850Y-94522850D01*
X157057366Y-94631816D01*
X157012481Y-94759631D01*
X157009500Y-94791166D01*
X157009500Y-95748834D01*
X156110500Y-95748834D01*
X156110500Y-94791166D01*
X156107519Y-94759631D01*
X156062634Y-94631816D01*
X155982150Y-94522850D01*
X155873184Y-94442366D01*
X155868776Y-94440818D01*
X155868774Y-94440817D01*
X155794792Y-94414837D01*
X155759159Y-94382922D01*
X155753000Y-94355867D01*
X155753000Y-93323000D01*
X155771306Y-93278806D01*
X155815500Y-93260500D01*
X157905645Y-93260500D01*
X157934019Y-93267312D01*
X158032489Y-93317485D01*
X158032490Y-93317485D01*
X158036874Y-93319719D01*
X158041731Y-93320488D01*
X158041733Y-93320489D01*
X158075154Y-93325782D01*
X158108171Y-93331011D01*
X158142587Y-93348548D01*
X162022924Y-97228886D01*
X162028315Y-97235032D01*
X162049992Y-97263282D01*
X162081487Y-97287449D01*
X162081488Y-97287450D01*
X162175433Y-97359536D01*
X162179217Y-97361103D01*
X162179218Y-97361104D01*
X162317726Y-97418476D01*
X162317727Y-97418476D01*
X162321512Y-97420044D01*
X162325572Y-97420579D01*
X162325574Y-97420579D01*
X162366097Y-97425914D01*
X162450159Y-97436981D01*
X162491584Y-97460897D01*
X162504500Y-97498945D01*
X162504500Y-97704748D01*
X162505099Y-97707758D01*
X162505099Y-97707761D01*
X162508536Y-97725036D01*
X162516133Y-97763231D01*
X162519550Y-97768345D01*
X162519551Y-97768347D01*
X162539242Y-97797816D01*
X162560448Y-97829552D01*
X162565562Y-97832969D01*
X162621653Y-97870449D01*
X162621655Y-97870450D01*
X162626769Y-97873867D01*
X162632803Y-97875067D01*
X162632805Y-97875068D01*
X162682239Y-97884901D01*
X162682242Y-97884901D01*
X162685252Y-97885500D01*
X164424748Y-97885500D01*
X164427758Y-97884901D01*
X164427761Y-97884901D01*
X164477195Y-97875068D01*
X164477197Y-97875067D01*
X164483231Y-97873867D01*
X164488345Y-97870450D01*
X164488347Y-97870449D01*
X164544438Y-97832969D01*
X164549552Y-97829552D01*
X164570758Y-97797816D01*
X164590449Y-97768347D01*
X164590450Y-97768345D01*
X164593867Y-97763231D01*
X164601465Y-97725036D01*
X164604901Y-97707761D01*
X164604901Y-97707758D01*
X164605500Y-97704748D01*
X164605500Y-95965252D01*
X164604901Y-95962239D01*
X164595068Y-95912805D01*
X164595067Y-95912803D01*
X164593867Y-95906769D01*
X164585548Y-95894318D01*
X164552969Y-95845562D01*
X164549552Y-95840448D01*
X164514698Y-95817159D01*
X164488347Y-95799551D01*
X164488345Y-95799550D01*
X164483231Y-95796133D01*
X164477197Y-95794933D01*
X164477195Y-95794932D01*
X164427761Y-95785099D01*
X164427758Y-95785099D01*
X164424748Y-95784500D01*
X162685252Y-95784500D01*
X162682242Y-95785099D01*
X162682239Y-95785099D01*
X162632805Y-95794932D01*
X162632803Y-95794933D01*
X162626769Y-95796133D01*
X162621655Y-95799550D01*
X162621653Y-95799551D01*
X162595302Y-95817159D01*
X162560448Y-95840448D01*
X162557031Y-95845562D01*
X162524453Y-95894318D01*
X162516133Y-95906769D01*
X162515904Y-95906616D01*
X162484798Y-95937723D01*
X162436963Y-95937724D01*
X162416685Y-95924175D01*
X161175986Y-94683476D01*
X159934703Y-93442194D01*
X159916397Y-93398000D01*
X159934703Y-93353806D01*
X159978897Y-93335500D01*
X160203488Y-93335500D01*
X160205910Y-93335116D01*
X160205915Y-93335116D01*
X160298267Y-93320489D01*
X160298269Y-93320488D01*
X160303126Y-93319719D01*
X160307510Y-93317485D01*
X160307511Y-93317485D01*
X160405981Y-93267312D01*
X160434355Y-93260500D01*
X161163392Y-93260500D01*
X161201440Y-93273415D01*
X161269686Y-93325782D01*
X161307159Y-93354536D01*
X161310942Y-93356103D01*
X161449452Y-93413476D01*
X161449453Y-93413476D01*
X161453238Y-93415044D01*
X161457300Y-93415579D01*
X161457301Y-93415579D01*
X161605936Y-93435147D01*
X161610000Y-93435682D01*
X161614064Y-93435147D01*
X161762699Y-93415579D01*
X161762700Y-93415579D01*
X161766762Y-93415044D01*
X161770547Y-93413476D01*
X161770548Y-93413476D01*
X161909058Y-93356103D01*
X161912841Y-93354536D01*
X162038282Y-93258282D01*
X162134536Y-93132841D01*
X162195044Y-92986762D01*
X162198273Y-92962239D01*
X162215147Y-92834064D01*
X162215682Y-92830000D01*
X162209982Y-92786701D01*
X162195579Y-92677301D01*
X162195579Y-92677300D01*
X162195044Y-92673238D01*
X162185876Y-92651103D01*
X162136103Y-92530942D01*
X162134536Y-92527159D01*
X162038282Y-92401718D01*
X162010028Y-92380038D01*
X162003882Y-92374647D01*
X161895348Y-92266113D01*
X161889957Y-92259966D01*
X161870774Y-92234966D01*
X161868282Y-92231718D01*
X161859598Y-92225054D01*
X161784961Y-92167784D01*
X161742841Y-92135464D01*
X161696319Y-92116194D01*
X161600548Y-92076524D01*
X161600547Y-92076524D01*
X161596762Y-92074956D01*
X161592700Y-92074421D01*
X161592699Y-92074421D01*
X161479361Y-92059500D01*
X161444064Y-92054853D01*
X161440000Y-92054318D01*
X161435936Y-92054853D01*
X161404703Y-92058965D01*
X161396545Y-92059500D01*
X160673000Y-92059500D01*
X160628806Y-92041194D01*
X160610500Y-91997000D01*
X160610500Y-90820639D01*
X160610499Y-90820635D01*
X160610499Y-90553482D01*
X160595646Y-90459696D01*
X160538050Y-90346658D01*
X160448342Y-90256950D01*
X160335304Y-90199354D01*
X160295513Y-90193052D01*
X160243946Y-90184884D01*
X160243941Y-90184884D01*
X160241519Y-90184500D01*
X160239059Y-90184500D01*
X160010001Y-90184501D01*
X159778482Y-90184501D01*
X159684696Y-90199354D01*
X159571658Y-90256950D01*
X159481950Y-90346658D01*
X159424354Y-90459696D01*
X159409500Y-90553481D01*
X159409500Y-92092864D01*
X159391194Y-92137058D01*
X159371472Y-92156780D01*
X159342681Y-92213286D01*
X159317241Y-92263215D01*
X159310281Y-92276874D01*
X159309512Y-92281731D01*
X159309511Y-92281733D01*
X159294884Y-92374085D01*
X159294500Y-92376512D01*
X159294500Y-92651103D01*
X159276194Y-92695297D01*
X159232000Y-92713603D01*
X159187806Y-92695297D01*
X159063806Y-92571297D01*
X159045500Y-92527103D01*
X159045500Y-92376512D01*
X159045116Y-92374085D01*
X159030489Y-92281733D01*
X159030488Y-92281731D01*
X159029719Y-92276874D01*
X159022760Y-92263215D01*
X158997319Y-92213286D01*
X158968528Y-92156780D01*
X158873220Y-92061472D01*
X158801092Y-92024721D01*
X158757511Y-92002515D01*
X158757510Y-92002515D01*
X158753126Y-92000281D01*
X158748269Y-91999512D01*
X158748267Y-91999511D01*
X158655915Y-91984884D01*
X158655910Y-91984884D01*
X158653488Y-91984500D01*
X158136512Y-91984500D01*
X158134090Y-91984884D01*
X158134085Y-91984884D01*
X158041733Y-91999511D01*
X158041731Y-91999512D01*
X158036874Y-92000281D01*
X158032490Y-92002515D01*
X158032489Y-92002515D01*
X157934019Y-92052688D01*
X157905645Y-92059500D01*
X156401427Y-92059500D01*
X156357233Y-92041194D01*
X156338927Y-91997000D01*
X156357233Y-91952806D01*
X156373882Y-91940897D01*
X156379832Y-91937976D01*
X156459355Y-91898932D01*
X156463002Y-91895279D01*
X156538145Y-91820005D01*
X156538147Y-91820003D01*
X156541793Y-91816350D01*
X156556958Y-91785325D01*
X156590905Y-91715878D01*
X156590905Y-91715877D01*
X156593036Y-91711518D01*
X156603000Y-91643218D01*
X156603000Y-91523000D01*
X156621306Y-91478806D01*
X156665500Y-91460500D01*
X157901648Y-91460500D01*
X157930022Y-91467312D01*
X158034696Y-91520646D01*
X158072124Y-91526574D01*
X158126054Y-91535116D01*
X158126059Y-91535116D01*
X158128481Y-91535500D01*
X158360000Y-91535500D01*
X158591518Y-91535499D01*
X158685304Y-91520646D01*
X158798342Y-91463050D01*
X158888050Y-91373342D01*
X158945646Y-91260304D01*
X158958617Y-91178411D01*
X158960116Y-91168946D01*
X158960116Y-91168941D01*
X158960500Y-91166519D01*
X158960500Y-90903458D01*
X158961035Y-90895301D01*
X158965147Y-90864064D01*
X158965682Y-90860000D01*
X158961034Y-90824697D01*
X158960499Y-90816539D01*
X158960499Y-90553482D01*
X158945646Y-90459696D01*
X158888050Y-90346658D01*
X158798342Y-90256950D01*
X158685304Y-90199354D01*
X158645513Y-90193052D01*
X158593946Y-90184884D01*
X158593941Y-90184884D01*
X158591519Y-90184500D01*
X158589059Y-90184500D01*
X158360001Y-90184501D01*
X158128482Y-90184501D01*
X158034696Y-90199354D01*
X157978191Y-90228145D01*
X157930023Y-90252688D01*
X157901648Y-90259500D01*
X156594957Y-90259500D01*
X156550763Y-90241194D01*
X156544136Y-90233380D01*
X156543710Y-90232785D01*
X156541432Y-90228145D01*
X156537776Y-90224495D01*
X156462505Y-90149355D01*
X156462503Y-90149353D01*
X156458850Y-90145707D01*
X156391862Y-90112962D01*
X156375114Y-90101005D01*
X154689064Y-88414955D01*
X154670758Y-88370761D01*
X154689064Y-88326567D01*
X154693836Y-88321795D01*
X154726964Y-88272216D01*
X154742525Y-88193984D01*
X154726964Y-88115753D01*
X154693836Y-88066173D01*
X153463827Y-86836164D01*
X153414247Y-86803036D01*
X153336016Y-86787475D01*
X153257784Y-86803036D01*
X153252667Y-86806455D01*
X153252665Y-86806456D01*
X153252664Y-86806457D01*
X153208205Y-86836164D01*
X152261038Y-87783331D01*
X152227910Y-87832910D01*
X152212349Y-87911142D01*
X152227910Y-87989373D01*
X152261038Y-88038953D01*
X153491047Y-89268962D01*
X153540627Y-89302090D01*
X153618858Y-89317651D01*
X153697090Y-89302090D01*
X153702207Y-89298671D01*
X153702209Y-89298670D01*
X153720996Y-89286117D01*
X153746669Y-89268962D01*
X153751441Y-89264190D01*
X153795635Y-89245884D01*
X153839829Y-89264190D01*
X154518945Y-89943306D01*
X154537251Y-89987500D01*
X154518945Y-90031694D01*
X154474751Y-90050000D01*
X153640000Y-90050000D01*
X153640000Y-90427500D01*
X153621694Y-90471694D01*
X153577500Y-90490000D01*
X152185746Y-90490000D01*
X152141723Y-90471864D01*
X152141552Y-90471694D01*
X150860000Y-89200000D01*
X149610000Y-90440000D01*
X145945500Y-90440000D01*
X145945500Y-90190252D01*
X145944433Y-90184886D01*
X145935068Y-90137805D01*
X145935067Y-90137803D01*
X145933867Y-90131769D01*
X145921301Y-90112962D01*
X145892969Y-90070562D01*
X145889552Y-90065448D01*
X145849243Y-90038514D01*
X145828347Y-90024551D01*
X145828345Y-90024550D01*
X145823231Y-90021133D01*
X145817197Y-90019933D01*
X145817195Y-90019932D01*
X145767761Y-90010099D01*
X145767758Y-90010099D01*
X145764748Y-90009500D01*
X145175252Y-90009500D01*
X145172242Y-90010099D01*
X145172239Y-90010099D01*
X145122806Y-90019932D01*
X145122805Y-90019932D01*
X145116769Y-90021133D01*
X145111650Y-90024553D01*
X145111651Y-90024553D01*
X145104723Y-90029182D01*
X145057806Y-90038514D01*
X145035277Y-90029182D01*
X145028349Y-90024553D01*
X145028350Y-90024553D01*
X145023231Y-90021133D01*
X145017195Y-90019932D01*
X145017194Y-90019932D01*
X144967761Y-90010099D01*
X144967758Y-90010099D01*
X144964748Y-90009500D01*
X144375252Y-90009500D01*
X144372242Y-90010099D01*
X144372239Y-90010099D01*
X144322806Y-90019932D01*
X144322805Y-90019932D01*
X144316769Y-90021133D01*
X144311650Y-90024553D01*
X144311651Y-90024553D01*
X144304723Y-90029182D01*
X144257806Y-90038514D01*
X144235277Y-90029182D01*
X144228349Y-90024553D01*
X144228350Y-90024553D01*
X144223231Y-90021133D01*
X144217195Y-90019932D01*
X144217194Y-90019932D01*
X144167761Y-90010099D01*
X144167758Y-90010099D01*
X144164748Y-90009500D01*
X143575252Y-90009500D01*
X143572242Y-90010099D01*
X143572239Y-90010099D01*
X143522806Y-90019932D01*
X143522805Y-90019932D01*
X143516769Y-90021133D01*
X143511650Y-90024553D01*
X143511651Y-90024553D01*
X143504723Y-90029182D01*
X143457806Y-90038514D01*
X143435277Y-90029182D01*
X143428349Y-90024553D01*
X143428350Y-90024553D01*
X143423231Y-90021133D01*
X143417195Y-90019932D01*
X143417194Y-90019932D01*
X143367761Y-90010099D01*
X143367758Y-90010099D01*
X143364748Y-90009500D01*
X142775252Y-90009500D01*
X142772242Y-90010099D01*
X142772239Y-90010099D01*
X142722806Y-90019932D01*
X142722805Y-90019932D01*
X142716769Y-90021133D01*
X142711650Y-90024553D01*
X142711651Y-90024553D01*
X142704723Y-90029182D01*
X142657806Y-90038514D01*
X142635277Y-90029182D01*
X142628349Y-90024553D01*
X142628350Y-90024553D01*
X142623231Y-90021133D01*
X142617195Y-90019932D01*
X142617194Y-90019932D01*
X142567761Y-90010099D01*
X142567758Y-90010099D01*
X142564748Y-90009500D01*
X142031714Y-90009500D01*
X141987520Y-89991194D01*
X141969214Y-89947000D01*
X141987520Y-89902806D01*
X143366520Y-88523806D01*
X143410714Y-88505500D01*
X144928059Y-88505500D01*
X144933506Y-88505738D01*
X144973807Y-88509264D01*
X144979087Y-88507849D01*
X144979089Y-88507849D01*
X145012883Y-88498793D01*
X145018204Y-88497613D01*
X145058045Y-88490588D01*
X145062779Y-88487855D01*
X145062784Y-88487853D01*
X145063513Y-88487432D01*
X145078586Y-88481188D01*
X145079405Y-88480969D01*
X145079407Y-88480968D01*
X145084684Y-88479554D01*
X145117822Y-88456350D01*
X145122414Y-88453425D01*
X145157455Y-88433194D01*
X145183464Y-88402198D01*
X145187148Y-88398178D01*
X145609853Y-87975473D01*
X145654047Y-87957167D01*
X145684539Y-87965110D01*
X145694726Y-87970804D01*
X145694729Y-87970805D01*
X145697398Y-87972297D01*
X145745013Y-87987768D01*
X145890416Y-88035013D01*
X145890421Y-88035014D01*
X145893329Y-88035959D01*
X145896370Y-88036322D01*
X145896372Y-88036322D01*
X145965344Y-88044546D01*
X146097894Y-88060351D01*
X146100936Y-88060117D01*
X146100939Y-88060117D01*
X146300249Y-88044781D01*
X146300251Y-88044781D01*
X146303300Y-88044546D01*
X146501725Y-87989145D01*
X146504448Y-87987770D01*
X146504452Y-87987768D01*
X146682890Y-87897632D01*
X146685610Y-87896258D01*
X146688008Y-87894385D01*
X146688012Y-87894382D01*
X146773244Y-87827791D01*
X146847951Y-87769424D01*
X146851153Y-87765715D01*
X146912832Y-87694258D01*
X146982564Y-87613472D01*
X147053687Y-87488273D01*
X147082811Y-87437006D01*
X147082812Y-87437004D01*
X147084323Y-87434344D01*
X147149351Y-87238863D01*
X147154452Y-87198489D01*
X147174951Y-87036216D01*
X147174951Y-87036215D01*
X147175171Y-87034474D01*
X147175583Y-87005000D01*
X147175414Y-87003280D01*
X147175414Y-87003271D01*
X147155778Y-86803010D01*
X147155480Y-86799970D01*
X147095935Y-86602749D01*
X146999218Y-86420849D01*
X146869011Y-86261200D01*
X146710275Y-86129882D01*
X146529055Y-86031897D01*
X146493381Y-86020854D01*
X146456577Y-85990298D01*
X146452158Y-85942667D01*
X146482714Y-85905863D01*
X146511863Y-85898649D01*
X151846071Y-85898649D01*
X151869283Y-85903119D01*
X161838560Y-89890830D01*
X161868941Y-89916704D01*
X164854965Y-94893411D01*
X164860177Y-94904397D01*
X165754413Y-97388385D01*
X165758108Y-97409555D01*
X165758108Y-113956358D01*
X165739802Y-114000552D01*
X165717137Y-114015033D01*
X157889838Y-116887007D01*
X157868533Y-116894824D01*
X157847004Y-116898649D01*
X136378136Y-116898649D01*
X136341809Y-116887007D01*
X133656212Y-114968723D01*
X130571366Y-112765262D01*
X135444520Y-112765262D01*
X135445758Y-112780000D01*
X135461241Y-112964382D01*
X135461759Y-112970553D01*
X135518544Y-113168586D01*
X135612712Y-113351818D01*
X135614603Y-113354204D01*
X135614605Y-113354207D01*
X135643598Y-113390787D01*
X135740677Y-113513270D01*
X135897564Y-113646791D01*
X136077398Y-113747297D01*
X136080302Y-113748241D01*
X136080303Y-113748241D01*
X136270416Y-113810013D01*
X136270421Y-113810014D01*
X136273329Y-113810959D01*
X136276370Y-113811322D01*
X136276372Y-113811322D01*
X136338442Y-113818723D01*
X136477894Y-113835351D01*
X136480936Y-113835117D01*
X136480939Y-113835117D01*
X136680249Y-113819781D01*
X136680251Y-113819781D01*
X136683300Y-113819546D01*
X136881725Y-113764145D01*
X136884448Y-113762770D01*
X136884452Y-113762768D01*
X137037887Y-113685262D01*
X147284520Y-113685262D01*
X147285758Y-113700000D01*
X147301203Y-113883931D01*
X147301759Y-113890553D01*
X147358544Y-114088586D01*
X147452712Y-114271818D01*
X147454603Y-114274204D01*
X147454605Y-114274207D01*
X147491931Y-114321300D01*
X147580677Y-114433270D01*
X147737564Y-114566791D01*
X147917398Y-114667297D01*
X147920302Y-114668241D01*
X147920303Y-114668241D01*
X148110416Y-114730013D01*
X148110421Y-114730014D01*
X148113329Y-114730959D01*
X148116370Y-114731322D01*
X148116372Y-114731322D01*
X148193345Y-114740500D01*
X148317894Y-114755351D01*
X148320936Y-114755117D01*
X148320939Y-114755117D01*
X148520249Y-114739781D01*
X148520251Y-114739781D01*
X148523300Y-114739546D01*
X148721725Y-114684145D01*
X148724448Y-114682770D01*
X148724452Y-114682768D01*
X148902890Y-114592632D01*
X148905610Y-114591258D01*
X148908008Y-114589385D01*
X148908012Y-114589382D01*
X149017031Y-114504207D01*
X149067951Y-114464424D01*
X149096910Y-114430875D01*
X149156355Y-114362006D01*
X149202564Y-114308472D01*
X149283069Y-114166758D01*
X149302811Y-114132006D01*
X149302812Y-114132004D01*
X149304323Y-114129344D01*
X149369351Y-113933863D01*
X149370058Y-113928271D01*
X149371701Y-113915262D01*
X153694520Y-113915262D01*
X153695758Y-113930000D01*
X153709303Y-114091300D01*
X153711759Y-114120553D01*
X153730405Y-114185579D01*
X153764881Y-114305810D01*
X153768544Y-114318586D01*
X153862712Y-114501818D01*
X153864603Y-114504204D01*
X153864605Y-114504207D01*
X153911015Y-114562761D01*
X153990677Y-114663270D01*
X153993007Y-114665253D01*
X154069165Y-114730068D01*
X154147564Y-114796791D01*
X154327398Y-114897297D01*
X154330302Y-114898241D01*
X154330303Y-114898241D01*
X154520416Y-114960013D01*
X154520421Y-114960014D01*
X154523329Y-114960959D01*
X154526370Y-114961322D01*
X154526372Y-114961322D01*
X154588442Y-114968723D01*
X154727894Y-114985351D01*
X154730936Y-114985117D01*
X154730939Y-114985117D01*
X154930249Y-114969781D01*
X154930251Y-114969781D01*
X154933300Y-114969546D01*
X155131725Y-114914145D01*
X155134448Y-114912770D01*
X155134452Y-114912768D01*
X155312890Y-114822632D01*
X155315610Y-114821258D01*
X155318008Y-114819385D01*
X155318012Y-114819382D01*
X155420197Y-114739546D01*
X155477951Y-114694424D01*
X155486473Y-114684552D01*
X155543718Y-114618231D01*
X155612564Y-114538472D01*
X155714323Y-114359344D01*
X155779351Y-114163863D01*
X155783376Y-114132006D01*
X155804951Y-113961216D01*
X155804951Y-113961215D01*
X155805171Y-113959474D01*
X155805305Y-113949952D01*
X155805559Y-113931739D01*
X155805559Y-113931733D01*
X155805583Y-113930000D01*
X155805414Y-113928280D01*
X155805414Y-113928271D01*
X155785778Y-113728010D01*
X155785480Y-113724970D01*
X155747749Y-113600000D01*
X156654318Y-113600000D01*
X156654853Y-113604064D01*
X156670771Y-113724970D01*
X156674956Y-113756762D01*
X156676524Y-113760547D01*
X156676524Y-113760548D01*
X156707412Y-113835117D01*
X156735464Y-113902841D01*
X156831718Y-114028282D01*
X156957159Y-114124536D01*
X156960942Y-114126103D01*
X157099452Y-114183476D01*
X157099453Y-114183476D01*
X157103238Y-114185044D01*
X157107300Y-114185579D01*
X157107301Y-114185579D01*
X157255936Y-114205147D01*
X157260000Y-114205682D01*
X157264064Y-114205147D01*
X157412699Y-114185579D01*
X157412700Y-114185579D01*
X157416762Y-114185044D01*
X157420547Y-114183476D01*
X157420548Y-114183476D01*
X157559058Y-114126103D01*
X157562841Y-114124536D01*
X157688282Y-114028282D01*
X157748387Y-113949952D01*
X157789813Y-113926035D01*
X157797971Y-113925500D01*
X157867000Y-113925500D01*
X157911194Y-113943806D01*
X157929500Y-113988000D01*
X157929500Y-114559748D01*
X157930099Y-114562758D01*
X157930099Y-114562761D01*
X157935768Y-114591258D01*
X157941133Y-114618231D01*
X157985448Y-114684552D01*
X157990562Y-114687969D01*
X158046653Y-114725449D01*
X158046655Y-114725450D01*
X158051769Y-114728867D01*
X158057803Y-114730067D01*
X158057805Y-114730068D01*
X158107239Y-114739901D01*
X158107242Y-114739901D01*
X158110252Y-114740500D01*
X159149748Y-114740500D01*
X159152758Y-114739901D01*
X159152761Y-114739901D01*
X159202195Y-114730068D01*
X159202197Y-114730067D01*
X159208231Y-114728867D01*
X159213348Y-114725448D01*
X159213350Y-114725447D01*
X159245277Y-114704114D01*
X159292193Y-114694782D01*
X159314723Y-114704114D01*
X159346650Y-114725447D01*
X159346652Y-114725448D01*
X159351769Y-114728867D01*
X159357803Y-114730067D01*
X159357805Y-114730068D01*
X159407239Y-114739901D01*
X159407242Y-114739901D01*
X159410252Y-114740500D01*
X160449748Y-114740500D01*
X160452758Y-114739901D01*
X160452761Y-114739901D01*
X160502195Y-114730068D01*
X160502197Y-114730067D01*
X160508231Y-114728867D01*
X160513345Y-114725450D01*
X160513347Y-114725449D01*
X160569438Y-114687969D01*
X160574552Y-114684552D01*
X160618867Y-114618231D01*
X160624233Y-114591258D01*
X160629901Y-114562761D01*
X160629901Y-114562758D01*
X160630500Y-114559748D01*
X160630500Y-113020252D01*
X160629805Y-113016758D01*
X160620068Y-112967805D01*
X160620067Y-112967803D01*
X160618867Y-112961769D01*
X160612806Y-112952697D01*
X160577969Y-112900562D01*
X160574552Y-112895448D01*
X160543594Y-112874762D01*
X160513347Y-112854551D01*
X160513345Y-112854550D01*
X160508231Y-112851133D01*
X160502197Y-112849933D01*
X160502195Y-112849932D01*
X160452761Y-112840099D01*
X160452758Y-112840099D01*
X160449748Y-112839500D01*
X160318000Y-112839500D01*
X160273806Y-112821194D01*
X160255500Y-112777000D01*
X160255500Y-112685907D01*
X160273806Y-112641713D01*
X160294080Y-112628165D01*
X160299063Y-112626101D01*
X160299064Y-112626101D01*
X160302841Y-112624536D01*
X160428282Y-112528282D01*
X160524536Y-112402841D01*
X160534230Y-112379438D01*
X160583476Y-112260548D01*
X160583476Y-112260547D01*
X160585044Y-112256762D01*
X160605682Y-112100000D01*
X160600050Y-112057220D01*
X160585579Y-111947301D01*
X160585579Y-111947300D01*
X160585044Y-111943238D01*
X160574319Y-111917344D01*
X160526103Y-111800942D01*
X160524536Y-111797159D01*
X160428282Y-111671718D01*
X160302841Y-111575464D01*
X160299058Y-111573897D01*
X160160548Y-111516524D01*
X160160547Y-111516524D01*
X160156762Y-111514956D01*
X160152700Y-111514421D01*
X160152699Y-111514421D01*
X160004064Y-111494853D01*
X160000000Y-111494318D01*
X159995936Y-111494853D01*
X159847301Y-111514421D01*
X159847300Y-111514421D01*
X159843238Y-111514956D01*
X159839453Y-111516524D01*
X159839452Y-111516524D01*
X159700942Y-111573897D01*
X159697159Y-111575464D01*
X159571718Y-111671718D01*
X159475464Y-111797159D01*
X159473897Y-111800942D01*
X159425682Y-111917344D01*
X159414956Y-111943238D01*
X159414421Y-111947300D01*
X159414421Y-111947301D01*
X159399950Y-112057220D01*
X159394318Y-112100000D01*
X159414956Y-112256762D01*
X159416524Y-112260547D01*
X159416524Y-112260548D01*
X159465770Y-112379438D01*
X159475464Y-112402841D01*
X159571718Y-112528282D01*
X159574966Y-112530774D01*
X159580047Y-112534673D01*
X159603965Y-112576100D01*
X159604500Y-112584258D01*
X159604500Y-112777000D01*
X159586194Y-112821194D01*
X159542000Y-112839500D01*
X159410252Y-112839500D01*
X159407242Y-112840099D01*
X159407239Y-112840099D01*
X159357805Y-112849932D01*
X159357803Y-112849933D01*
X159351769Y-112851133D01*
X159346652Y-112854552D01*
X159346650Y-112854553D01*
X159314723Y-112875886D01*
X159267807Y-112885218D01*
X159245277Y-112875886D01*
X159213350Y-112854553D01*
X159213348Y-112854552D01*
X159208231Y-112851133D01*
X159202197Y-112849933D01*
X159202195Y-112849932D01*
X159152761Y-112840099D01*
X159152758Y-112840099D01*
X159149748Y-112839500D01*
X158110252Y-112839500D01*
X158107242Y-112840099D01*
X158107239Y-112840099D01*
X158057805Y-112849932D01*
X158057803Y-112849933D01*
X158051769Y-112851133D01*
X158046655Y-112854550D01*
X158046653Y-112854551D01*
X158016406Y-112874762D01*
X157985448Y-112895448D01*
X157982031Y-112900562D01*
X157947195Y-112952697D01*
X157941133Y-112961769D01*
X157939933Y-112967803D01*
X157939932Y-112967805D01*
X157930195Y-113016758D01*
X157929500Y-113020252D01*
X157929500Y-113212000D01*
X157911194Y-113256194D01*
X157867000Y-113274500D01*
X157797971Y-113274500D01*
X157753777Y-113256194D01*
X157748386Y-113250048D01*
X157688282Y-113171718D01*
X157684201Y-113168586D01*
X157603056Y-113106322D01*
X157562841Y-113075464D01*
X157520119Y-113057768D01*
X157420548Y-113016524D01*
X157420547Y-113016524D01*
X157416762Y-113014956D01*
X157412700Y-113014421D01*
X157412699Y-113014421D01*
X157264064Y-112994853D01*
X157260000Y-112994318D01*
X157255936Y-112994853D01*
X157107301Y-113014421D01*
X157107300Y-113014421D01*
X157103238Y-113014956D01*
X157099453Y-113016524D01*
X157099452Y-113016524D01*
X156999881Y-113057768D01*
X156957159Y-113075464D01*
X156831718Y-113171718D01*
X156735464Y-113297159D01*
X156733897Y-113300942D01*
X156713946Y-113349109D01*
X156674956Y-113443238D01*
X156674421Y-113447300D01*
X156674421Y-113447301D01*
X156665736Y-113513270D01*
X156654318Y-113600000D01*
X155747749Y-113600000D01*
X155725935Y-113527749D01*
X155651881Y-113388472D01*
X155630653Y-113348547D01*
X155630651Y-113348544D01*
X155629218Y-113345849D01*
X155499011Y-113186200D01*
X155340275Y-113054882D01*
X155159055Y-112956897D01*
X155068414Y-112928839D01*
X154965169Y-112896879D01*
X154965166Y-112896878D01*
X154962254Y-112895977D01*
X154959221Y-112895658D01*
X154959220Y-112895658D01*
X154906660Y-112890134D01*
X154757369Y-112874443D01*
X154754336Y-112874719D01*
X154754332Y-112874719D01*
X154641436Y-112884993D01*
X154552203Y-112893114D01*
X154549270Y-112893977D01*
X154549266Y-112893978D01*
X154430820Y-112928839D01*
X154354572Y-112951280D01*
X154172002Y-113046726D01*
X154011447Y-113175815D01*
X153879024Y-113333630D01*
X153847602Y-113390787D01*
X153788656Y-113498010D01*
X153779776Y-113514162D01*
X153717484Y-113710532D01*
X153717143Y-113713570D01*
X153717143Y-113713571D01*
X153696338Y-113899058D01*
X153694520Y-113915262D01*
X149371701Y-113915262D01*
X149394951Y-113731216D01*
X149394951Y-113731215D01*
X149395171Y-113729474D01*
X149395394Y-113713571D01*
X149395559Y-113701739D01*
X149395559Y-113701733D01*
X149395583Y-113700000D01*
X149395414Y-113698280D01*
X149395414Y-113698271D01*
X149375778Y-113498010D01*
X149375480Y-113494970D01*
X149315935Y-113297749D01*
X149247600Y-113169228D01*
X149220653Y-113118547D01*
X149220651Y-113118544D01*
X149219218Y-113115849D01*
X149089011Y-112956200D01*
X148930275Y-112824882D01*
X148749055Y-112726897D01*
X148616250Y-112685787D01*
X148555169Y-112666879D01*
X148555166Y-112666878D01*
X148552254Y-112665977D01*
X148549221Y-112665658D01*
X148549220Y-112665658D01*
X148496660Y-112660134D01*
X148347369Y-112644443D01*
X148344336Y-112644719D01*
X148344332Y-112644719D01*
X148231436Y-112654993D01*
X148142203Y-112663114D01*
X148139270Y-112663977D01*
X148139266Y-112663978D01*
X147989005Y-112708203D01*
X147944572Y-112721280D01*
X147762002Y-112816726D01*
X147601447Y-112945815D01*
X147469024Y-113103630D01*
X147423631Y-113186200D01*
X147375088Y-113274500D01*
X147369776Y-113284162D01*
X147307484Y-113480532D01*
X147307143Y-113483570D01*
X147307143Y-113483571D01*
X147285937Y-113672632D01*
X147284520Y-113685262D01*
X137037887Y-113685262D01*
X137062890Y-113672632D01*
X137065610Y-113671258D01*
X137068008Y-113669385D01*
X137068012Y-113669382D01*
X137162018Y-113595936D01*
X137227951Y-113544424D01*
X137242345Y-113527749D01*
X137285617Y-113477617D01*
X137362564Y-113388472D01*
X137427309Y-113274500D01*
X137462811Y-113212006D01*
X137462814Y-113212000D01*
X137464323Y-113209344D01*
X137529351Y-113013863D01*
X137531753Y-112994853D01*
X137554951Y-112811216D01*
X137554951Y-112811215D01*
X137555171Y-112809474D01*
X137555222Y-112805875D01*
X137555559Y-112781739D01*
X137555559Y-112781733D01*
X137555583Y-112780000D01*
X137555414Y-112778280D01*
X137555414Y-112778271D01*
X137535778Y-112578010D01*
X137535480Y-112574970D01*
X137475935Y-112377749D01*
X137416280Y-112265553D01*
X137413193Y-112259748D01*
X153699500Y-112259748D01*
X153700099Y-112262758D01*
X153700099Y-112262761D01*
X153709270Y-112308863D01*
X153711133Y-112318231D01*
X153755448Y-112384552D01*
X153760562Y-112387969D01*
X153816653Y-112425449D01*
X153816655Y-112425450D01*
X153821769Y-112428867D01*
X153827803Y-112430067D01*
X153827805Y-112430068D01*
X153877239Y-112439901D01*
X153877242Y-112439901D01*
X153880252Y-112440500D01*
X155619748Y-112440500D01*
X155622758Y-112439901D01*
X155622761Y-112439901D01*
X155672195Y-112430068D01*
X155672197Y-112430067D01*
X155678231Y-112428867D01*
X155683345Y-112425450D01*
X155683347Y-112425449D01*
X155739438Y-112387969D01*
X155744552Y-112384552D01*
X155788867Y-112318231D01*
X155790731Y-112308863D01*
X155799901Y-112262761D01*
X155799901Y-112262758D01*
X155800500Y-112259748D01*
X155800500Y-111288000D01*
X155818806Y-111243806D01*
X155863000Y-111225500D01*
X162762394Y-111225500D01*
X162806588Y-111243806D01*
X162824894Y-111288000D01*
X162810272Y-111328174D01*
X162684024Y-111478630D01*
X162584776Y-111659162D01*
X162522484Y-111855532D01*
X162522143Y-111858570D01*
X162522143Y-111858571D01*
X162502438Y-112034251D01*
X162499520Y-112060262D01*
X162500758Y-112075000D01*
X162516339Y-112260548D01*
X162516759Y-112265553D01*
X162573544Y-112463586D01*
X162667712Y-112646818D01*
X162669603Y-112649204D01*
X162669605Y-112649207D01*
X162698598Y-112685787D01*
X162795677Y-112808270D01*
X162798007Y-112810253D01*
X162895369Y-112893114D01*
X162952564Y-112941791D01*
X163132398Y-113042297D01*
X163135302Y-113043241D01*
X163135303Y-113043241D01*
X163325416Y-113105013D01*
X163325421Y-113105014D01*
X163328329Y-113105959D01*
X163331370Y-113106322D01*
X163331372Y-113106322D01*
X163393442Y-113113723D01*
X163532894Y-113130351D01*
X163535936Y-113130117D01*
X163535939Y-113130117D01*
X163735249Y-113114781D01*
X163735251Y-113114781D01*
X163738300Y-113114546D01*
X163936725Y-113059145D01*
X163939448Y-113057770D01*
X163939452Y-113057768D01*
X164117890Y-112967632D01*
X164120610Y-112966258D01*
X164123008Y-112964385D01*
X164123012Y-112964382D01*
X164224337Y-112885218D01*
X164282951Y-112839424D01*
X164295504Y-112824882D01*
X164378823Y-112728354D01*
X164417564Y-112683472D01*
X164519323Y-112504344D01*
X164584351Y-112308863D01*
X164589452Y-112268489D01*
X164609951Y-112106216D01*
X164609951Y-112106215D01*
X164610171Y-112104474D01*
X164610291Y-112095936D01*
X164610559Y-112076739D01*
X164610559Y-112076733D01*
X164610583Y-112075000D01*
X164610414Y-112073280D01*
X164610414Y-112073271D01*
X164590778Y-111873010D01*
X164590480Y-111869970D01*
X164530935Y-111672749D01*
X164447036Y-111514956D01*
X164435653Y-111493547D01*
X164435651Y-111493544D01*
X164434218Y-111490849D01*
X164304011Y-111331200D01*
X164288761Y-111318584D01*
X164266377Y-111276309D01*
X164280443Y-111230588D01*
X164307225Y-111211696D01*
X164307661Y-111211537D01*
X164313045Y-111210588D01*
X164317776Y-111207857D01*
X164317783Y-111207854D01*
X164318513Y-111207432D01*
X164333586Y-111201188D01*
X164334405Y-111200969D01*
X164334407Y-111200968D01*
X164339684Y-111199554D01*
X164372822Y-111176350D01*
X164377414Y-111173425D01*
X164412455Y-111153194D01*
X164438463Y-111122199D01*
X164442147Y-111118179D01*
X164948186Y-110612141D01*
X164952206Y-110608457D01*
X164979004Y-110585971D01*
X164979005Y-110585970D01*
X164983194Y-110582455D01*
X165003422Y-110547419D01*
X165006344Y-110542832D01*
X165029554Y-110509684D01*
X165030967Y-110504409D01*
X165030970Y-110504404D01*
X165031190Y-110503581D01*
X165037430Y-110488516D01*
X165037853Y-110487783D01*
X165037853Y-110487782D01*
X165040588Y-110483045D01*
X165047613Y-110443209D01*
X165048791Y-110437891D01*
X165049971Y-110433489D01*
X165059263Y-110398807D01*
X165058671Y-110392031D01*
X165055738Y-110358514D01*
X165055500Y-110353067D01*
X165055500Y-100566941D01*
X165055738Y-100561494D01*
X165056673Y-100550803D01*
X165059264Y-100521193D01*
X165057450Y-100514421D01*
X165048793Y-100482117D01*
X165047612Y-100476793D01*
X165041537Y-100442338D01*
X165040588Y-100436955D01*
X165037855Y-100432221D01*
X165037853Y-100432216D01*
X165037432Y-100431487D01*
X165031188Y-100416414D01*
X165030969Y-100415595D01*
X165030968Y-100415593D01*
X165029554Y-100410316D01*
X165006350Y-100377178D01*
X165003420Y-100372579D01*
X165000665Y-100367806D01*
X164983194Y-100337545D01*
X164952198Y-100311536D01*
X164948178Y-100307852D01*
X164525945Y-99885619D01*
X164507639Y-99841425D01*
X164515793Y-99810559D01*
X164517810Y-99807008D01*
X164517811Y-99807005D01*
X164519323Y-99804344D01*
X164584351Y-99608863D01*
X164586143Y-99594684D01*
X164609951Y-99406216D01*
X164609951Y-99406215D01*
X164610171Y-99404474D01*
X164610212Y-99401586D01*
X164610559Y-99376739D01*
X164610559Y-99376733D01*
X164610583Y-99375000D01*
X164610414Y-99373280D01*
X164610414Y-99373271D01*
X164592777Y-99193393D01*
X164590480Y-99169970D01*
X164530935Y-98972749D01*
X164479816Y-98876607D01*
X164435653Y-98793547D01*
X164435651Y-98793544D01*
X164434218Y-98790849D01*
X164304011Y-98631200D01*
X164145275Y-98499882D01*
X163964055Y-98401897D01*
X163844043Y-98364747D01*
X163770169Y-98341879D01*
X163770166Y-98341878D01*
X163767254Y-98340977D01*
X163764221Y-98340658D01*
X163764220Y-98340658D01*
X163711660Y-98335134D01*
X163562369Y-98319443D01*
X163559336Y-98319719D01*
X163559332Y-98319719D01*
X163446436Y-98329993D01*
X163357203Y-98338114D01*
X163354270Y-98338977D01*
X163354266Y-98338978D01*
X163235884Y-98373820D01*
X163159572Y-98396280D01*
X162977002Y-98491726D01*
X162816447Y-98620815D01*
X162684024Y-98778630D01*
X162646005Y-98847787D01*
X162589938Y-98949773D01*
X162584776Y-98959162D01*
X162522484Y-99155532D01*
X162522143Y-99158570D01*
X162522143Y-99158571D01*
X162503504Y-99324747D01*
X162499520Y-99360262D01*
X162500758Y-99375000D01*
X162515877Y-99555044D01*
X162516759Y-99565553D01*
X162573544Y-99763586D01*
X162667712Y-99946818D01*
X162669603Y-99949204D01*
X162669605Y-99949207D01*
X162702883Y-99991193D01*
X162795677Y-100108270D01*
X162952564Y-100241791D01*
X163132398Y-100342297D01*
X163135302Y-100343241D01*
X163135303Y-100343241D01*
X163325416Y-100405013D01*
X163325421Y-100405014D01*
X163328329Y-100405959D01*
X163331370Y-100406322D01*
X163331372Y-100406322D01*
X163416010Y-100416414D01*
X163532894Y-100430351D01*
X163535936Y-100430117D01*
X163535939Y-100430117D01*
X163735249Y-100414781D01*
X163735251Y-100414781D01*
X163738300Y-100414546D01*
X163936725Y-100359145D01*
X163939451Y-100357768D01*
X163939456Y-100357766D01*
X163990750Y-100331856D01*
X164038450Y-100328270D01*
X164063123Y-100343449D01*
X164386194Y-100666520D01*
X164404500Y-100710714D01*
X164404500Y-101121513D01*
X164386194Y-101165707D01*
X164342000Y-101184013D01*
X164302162Y-101169670D01*
X164145275Y-101039882D01*
X163964055Y-100941897D01*
X163909143Y-100924899D01*
X163770169Y-100881879D01*
X163770166Y-100881878D01*
X163767254Y-100880977D01*
X163764221Y-100880658D01*
X163764220Y-100880658D01*
X163711660Y-100875134D01*
X163562369Y-100859443D01*
X163559336Y-100859719D01*
X163559332Y-100859719D01*
X163446436Y-100869993D01*
X163357203Y-100878114D01*
X163354270Y-100878977D01*
X163354266Y-100878978D01*
X163204005Y-100923203D01*
X163159572Y-100936280D01*
X162977002Y-101031726D01*
X162816447Y-101160815D01*
X162684024Y-101318630D01*
X162584776Y-101499162D01*
X162522484Y-101695532D01*
X162522143Y-101698570D01*
X162522143Y-101698571D01*
X162510786Y-101799826D01*
X162499520Y-101900262D01*
X162499776Y-101903309D01*
X162513951Y-102072112D01*
X162516759Y-102105553D01*
X162532515Y-102160500D01*
X162571155Y-102295253D01*
X162573544Y-102303586D01*
X162667712Y-102486818D01*
X162669603Y-102489204D01*
X162669605Y-102489207D01*
X162734048Y-102570513D01*
X162795677Y-102648270D01*
X162851881Y-102696103D01*
X162945995Y-102776200D01*
X162952564Y-102781791D01*
X163132398Y-102882297D01*
X163135302Y-102883241D01*
X163135303Y-102883241D01*
X163325416Y-102945013D01*
X163325421Y-102945014D01*
X163328329Y-102945959D01*
X163331370Y-102946322D01*
X163331372Y-102946322D01*
X163393442Y-102953723D01*
X163532894Y-102970351D01*
X163535936Y-102970117D01*
X163535939Y-102970117D01*
X163735249Y-102954781D01*
X163735251Y-102954781D01*
X163738300Y-102954546D01*
X163936725Y-102899145D01*
X163939448Y-102897770D01*
X163939452Y-102897768D01*
X164117890Y-102807632D01*
X164120610Y-102806258D01*
X164123008Y-102804385D01*
X164123012Y-102804382D01*
X164248084Y-102706665D01*
X164282951Y-102679424D01*
X164294688Y-102665827D01*
X164337421Y-102644333D01*
X164382838Y-102659352D01*
X164404500Y-102706665D01*
X164404500Y-103661513D01*
X164386194Y-103705707D01*
X164342000Y-103724013D01*
X164302162Y-103709670D01*
X164145275Y-103579882D01*
X163964055Y-103481897D01*
X163909143Y-103464899D01*
X163770169Y-103421879D01*
X163770166Y-103421878D01*
X163767254Y-103420977D01*
X163764221Y-103420658D01*
X163764220Y-103420658D01*
X163711660Y-103415134D01*
X163562369Y-103399443D01*
X163559336Y-103399719D01*
X163559332Y-103399719D01*
X163446436Y-103409993D01*
X163357203Y-103418114D01*
X163354270Y-103418977D01*
X163354266Y-103418978D01*
X163204005Y-103463203D01*
X163159572Y-103476280D01*
X162977002Y-103571726D01*
X162816447Y-103700815D01*
X162684024Y-103858630D01*
X162631266Y-103954596D01*
X162586458Y-104036103D01*
X162584776Y-104039162D01*
X162522484Y-104235532D01*
X162522143Y-104238570D01*
X162522143Y-104238571D01*
X162509511Y-104351194D01*
X162499520Y-104440262D01*
X162499776Y-104443309D01*
X162511994Y-104588806D01*
X162516759Y-104645553D01*
X162573544Y-104843586D01*
X162667712Y-105026818D01*
X162669603Y-105029204D01*
X162669605Y-105029207D01*
X162722072Y-105095404D01*
X162795677Y-105188270D01*
X162798007Y-105190253D01*
X162945995Y-105316200D01*
X162952564Y-105321791D01*
X163132398Y-105422297D01*
X163135302Y-105423241D01*
X163135303Y-105423241D01*
X163325416Y-105485013D01*
X163325421Y-105485014D01*
X163328329Y-105485959D01*
X163331370Y-105486322D01*
X163331372Y-105486322D01*
X163393442Y-105493723D01*
X163532894Y-105510351D01*
X163535936Y-105510117D01*
X163535939Y-105510117D01*
X163735249Y-105494781D01*
X163735251Y-105494781D01*
X163738300Y-105494546D01*
X163936725Y-105439145D01*
X163939448Y-105437770D01*
X163939452Y-105437768D01*
X164117890Y-105347632D01*
X164120610Y-105346258D01*
X164123008Y-105344385D01*
X164123012Y-105344382D01*
X164260914Y-105236641D01*
X164282951Y-105219424D01*
X164294688Y-105205827D01*
X164337421Y-105184333D01*
X164382838Y-105199352D01*
X164404500Y-105246665D01*
X164404500Y-106201513D01*
X164386194Y-106245707D01*
X164342000Y-106264013D01*
X164302162Y-106249670D01*
X164145275Y-106119882D01*
X163964055Y-106021897D01*
X163899869Y-106002028D01*
X163770169Y-105961879D01*
X163770166Y-105961878D01*
X163767254Y-105960977D01*
X163764221Y-105960658D01*
X163764220Y-105960658D01*
X163711660Y-105955134D01*
X163562369Y-105939443D01*
X163559336Y-105939719D01*
X163559332Y-105939719D01*
X163446436Y-105949993D01*
X163357203Y-105958114D01*
X163354270Y-105958977D01*
X163354266Y-105958978D01*
X163230057Y-105995535D01*
X163159572Y-106016280D01*
X162977002Y-106111726D01*
X162816447Y-106240815D01*
X162684024Y-106398630D01*
X162661582Y-106439452D01*
X162602292Y-106547301D01*
X162584776Y-106579162D01*
X162522484Y-106775532D01*
X162522143Y-106778570D01*
X162522143Y-106778571D01*
X162501896Y-106959082D01*
X162499520Y-106980262D01*
X162499776Y-106983309D01*
X162516412Y-107181415D01*
X162516759Y-107185553D01*
X162573544Y-107383586D01*
X162667712Y-107566818D01*
X162669603Y-107569204D01*
X162669605Y-107569207D01*
X162708759Y-107618607D01*
X162795677Y-107728270D01*
X162952564Y-107861791D01*
X163132398Y-107962297D01*
X163135302Y-107963241D01*
X163135303Y-107963241D01*
X163325416Y-108025013D01*
X163325421Y-108025014D01*
X163328329Y-108025959D01*
X163331370Y-108026322D01*
X163331372Y-108026322D01*
X163393442Y-108033723D01*
X163532894Y-108050351D01*
X163535936Y-108050117D01*
X163535939Y-108050117D01*
X163735249Y-108034781D01*
X163735251Y-108034781D01*
X163738300Y-108034546D01*
X163936725Y-107979145D01*
X163939448Y-107977770D01*
X163939452Y-107977768D01*
X164117890Y-107887632D01*
X164120610Y-107886258D01*
X164123008Y-107884385D01*
X164123012Y-107884382D01*
X164226944Y-107803181D01*
X164282951Y-107759424D01*
X164294688Y-107745827D01*
X164337421Y-107724333D01*
X164382838Y-107739352D01*
X164404500Y-107786665D01*
X164404500Y-108741513D01*
X164386194Y-108785707D01*
X164342000Y-108804013D01*
X164302162Y-108789670D01*
X164145275Y-108659882D01*
X163964055Y-108561897D01*
X163834529Y-108521802D01*
X163770169Y-108501879D01*
X163770166Y-108501878D01*
X163767254Y-108500977D01*
X163764221Y-108500658D01*
X163764220Y-108500658D01*
X163711660Y-108495134D01*
X163562369Y-108479443D01*
X163559336Y-108479719D01*
X163559332Y-108479719D01*
X163446436Y-108489993D01*
X163357203Y-108498114D01*
X163354270Y-108498977D01*
X163354266Y-108498978D01*
X163204005Y-108543203D01*
X163159572Y-108556280D01*
X162977002Y-108651726D01*
X162816447Y-108780815D01*
X162684024Y-108938630D01*
X162584776Y-109119162D01*
X162522484Y-109315532D01*
X162522143Y-109318570D01*
X162522143Y-109318571D01*
X162503599Y-109483900D01*
X162499520Y-109520262D01*
X162499776Y-109523309D01*
X162509880Y-109643630D01*
X162516759Y-109725553D01*
X162573544Y-109923586D01*
X162667712Y-110106818D01*
X162795677Y-110268270D01*
X162798007Y-110270253D01*
X162901714Y-110358514D01*
X162952564Y-110401791D01*
X163050728Y-110456653D01*
X163052140Y-110457442D01*
X163081788Y-110494982D01*
X163076207Y-110542491D01*
X163038667Y-110572139D01*
X163021649Y-110574500D01*
X155862187Y-110574500D01*
X155817993Y-110556194D01*
X155800952Y-110520162D01*
X155800500Y-110520252D01*
X155800141Y-110518448D01*
X155795604Y-110495638D01*
X155790068Y-110467805D01*
X155790067Y-110467803D01*
X155788867Y-110461769D01*
X155776468Y-110443212D01*
X155747969Y-110400562D01*
X155744552Y-110395448D01*
X155727680Y-110384174D01*
X155683347Y-110354551D01*
X155683345Y-110354550D01*
X155678231Y-110351133D01*
X155672197Y-110349933D01*
X155672195Y-110349932D01*
X155622761Y-110340099D01*
X155622758Y-110340099D01*
X155619748Y-110339500D01*
X153880252Y-110339500D01*
X153877242Y-110340099D01*
X153877239Y-110340099D01*
X153827805Y-110349932D01*
X153827803Y-110349933D01*
X153821769Y-110351133D01*
X153816655Y-110354550D01*
X153816653Y-110354551D01*
X153772320Y-110384174D01*
X153755448Y-110395448D01*
X153752031Y-110400562D01*
X153723533Y-110443212D01*
X153711133Y-110461769D01*
X153709933Y-110467803D01*
X153709932Y-110467805D01*
X153704396Y-110495638D01*
X153699500Y-110520252D01*
X153699500Y-112259748D01*
X137413193Y-112259748D01*
X137380653Y-112198547D01*
X137380651Y-112198544D01*
X137379218Y-112195849D01*
X137249011Y-112036200D01*
X137090275Y-111904882D01*
X136909055Y-111806897D01*
X136854143Y-111789899D01*
X136715169Y-111746879D01*
X136715166Y-111746878D01*
X136712254Y-111745977D01*
X136709221Y-111745658D01*
X136709220Y-111745658D01*
X136656660Y-111740134D01*
X136507369Y-111724443D01*
X136504336Y-111724719D01*
X136504332Y-111724719D01*
X136391436Y-111734993D01*
X136302203Y-111743114D01*
X136299270Y-111743977D01*
X136299266Y-111743978D01*
X136149005Y-111788203D01*
X136104572Y-111801280D01*
X135922002Y-111896726D01*
X135761447Y-112025815D01*
X135629024Y-112183630D01*
X135529776Y-112364162D01*
X135467484Y-112560532D01*
X135467143Y-112563570D01*
X135467143Y-112563571D01*
X135455657Y-112665977D01*
X135444520Y-112765262D01*
X130571366Y-112765262D01*
X129384281Y-111917344D01*
X129358958Y-111876761D01*
X129358108Y-111866486D01*
X129358108Y-108419246D01*
X129624500Y-108419246D01*
X129640049Y-108517420D01*
X129700342Y-108635751D01*
X129794249Y-108729658D01*
X129912580Y-108789951D01*
X129953750Y-108796472D01*
X130008327Y-108805116D01*
X130008332Y-108805116D01*
X130010754Y-108805500D01*
X130589246Y-108805500D01*
X130591668Y-108805116D01*
X130591673Y-108805116D01*
X130646250Y-108796472D01*
X130687420Y-108789951D01*
X130805751Y-108729658D01*
X130899658Y-108635751D01*
X130915517Y-108604626D01*
X130951891Y-108573559D01*
X130971205Y-108570500D01*
X131621154Y-108570500D01*
X131665348Y-108588806D01*
X131676841Y-108604623D01*
X131716950Y-108683342D01*
X131806658Y-108773050D01*
X131919696Y-108830646D01*
X131959487Y-108836948D01*
X132011054Y-108845116D01*
X132011059Y-108845116D01*
X132013481Y-108845500D01*
X132320000Y-108845500D01*
X132626518Y-108845499D01*
X132720304Y-108830646D01*
X132833342Y-108773050D01*
X132923050Y-108683342D01*
X132980646Y-108570304D01*
X132989791Y-108512563D01*
X132995116Y-108478946D01*
X132995116Y-108478941D01*
X132995500Y-108476519D01*
X132995499Y-108013482D01*
X132980646Y-107919696D01*
X132923050Y-107806658D01*
X132833342Y-107716950D01*
X132720304Y-107659354D01*
X132680513Y-107653052D01*
X132628946Y-107644884D01*
X132628941Y-107644884D01*
X132626519Y-107644500D01*
X132624059Y-107644500D01*
X132320001Y-107644501D01*
X132013482Y-107644501D01*
X131919696Y-107659354D01*
X131806658Y-107716950D01*
X131716950Y-107806658D01*
X131686318Y-107866777D01*
X131676842Y-107885375D01*
X131640467Y-107916441D01*
X131621154Y-107919500D01*
X131029474Y-107919500D01*
X130985280Y-107901194D01*
X130967743Y-107866777D01*
X130960720Y-107822437D01*
X130959951Y-107817580D01*
X130899658Y-107699249D01*
X130805751Y-107605342D01*
X130687420Y-107545049D01*
X130646250Y-107538528D01*
X130591673Y-107529884D01*
X130591668Y-107529884D01*
X130589246Y-107529500D01*
X130010754Y-107529500D01*
X130008332Y-107529884D01*
X130008327Y-107529884D01*
X129953750Y-107538528D01*
X129912580Y-107545049D01*
X129794249Y-107605342D01*
X129700342Y-107699249D01*
X129640049Y-107817580D01*
X129639280Y-107822437D01*
X129627127Y-107899169D01*
X129624500Y-107915754D01*
X129624500Y-108419246D01*
X129358108Y-108419246D01*
X129358108Y-106363481D01*
X131644500Y-106363481D01*
X131644501Y-106826518D01*
X131659354Y-106920304D01*
X131716950Y-107033342D01*
X131806658Y-107123050D01*
X131919696Y-107180646D01*
X131950678Y-107185553D01*
X132011054Y-107195116D01*
X132011059Y-107195116D01*
X132013481Y-107195500D01*
X132320000Y-107195500D01*
X132626518Y-107195499D01*
X132720304Y-107180646D01*
X132833342Y-107123050D01*
X132923050Y-107033342D01*
X132963159Y-106954624D01*
X132999533Y-106923559D01*
X133018846Y-106920500D01*
X133199596Y-106920500D01*
X133243790Y-106938806D01*
X133257338Y-106959082D01*
X133273897Y-106999058D01*
X133275464Y-107002841D01*
X133371718Y-107128282D01*
X133497159Y-107224536D01*
X133500942Y-107226103D01*
X133639452Y-107283476D01*
X133639453Y-107283476D01*
X133643238Y-107285044D01*
X133647300Y-107285579D01*
X133647301Y-107285579D01*
X133795936Y-107305147D01*
X133800000Y-107305682D01*
X133804064Y-107305147D01*
X133952699Y-107285579D01*
X133952700Y-107285579D01*
X133956762Y-107285044D01*
X133960547Y-107283476D01*
X133960548Y-107283476D01*
X134099058Y-107226103D01*
X134102841Y-107224536D01*
X134228282Y-107128282D01*
X134324536Y-107002841D01*
X134345333Y-106952632D01*
X134383476Y-106860548D01*
X134383476Y-106860547D01*
X134385044Y-106856762D01*
X134396234Y-106771769D01*
X134405147Y-106704064D01*
X134405682Y-106700000D01*
X134390805Y-106587000D01*
X134385579Y-106547301D01*
X134385579Y-106547300D01*
X134385044Y-106543238D01*
X134324536Y-106397159D01*
X134228282Y-106271718D01*
X134102841Y-106175464D01*
X134068011Y-106161037D01*
X133960548Y-106116524D01*
X133960547Y-106116524D01*
X133956762Y-106114956D01*
X133952700Y-106114421D01*
X133952699Y-106114421D01*
X133804064Y-106094853D01*
X133800000Y-106094318D01*
X133795936Y-106094853D01*
X133647301Y-106114421D01*
X133647300Y-106114421D01*
X133643238Y-106114956D01*
X133639453Y-106116524D01*
X133639452Y-106116524D01*
X133531989Y-106161037D01*
X133497159Y-106175464D01*
X133438829Y-106220222D01*
X133391440Y-106256585D01*
X133353392Y-106269500D01*
X133018846Y-106269500D01*
X132974652Y-106251194D01*
X132963158Y-106235375D01*
X132923050Y-106156658D01*
X132833342Y-106066950D01*
X132720304Y-106009354D01*
X132680513Y-106003052D01*
X132628946Y-105994884D01*
X132628941Y-105994884D01*
X132626519Y-105994500D01*
X132624059Y-105994500D01*
X132320001Y-105994501D01*
X132013482Y-105994501D01*
X131919696Y-106009354D01*
X131806658Y-106066950D01*
X131716950Y-106156658D01*
X131659354Y-106269696D01*
X131644500Y-106363481D01*
X129358108Y-106363481D01*
X129358108Y-101100000D01*
X131694318Y-101100000D01*
X131714956Y-101256762D01*
X131716524Y-101260547D01*
X131716524Y-101260548D01*
X131765529Y-101378857D01*
X131775464Y-101402841D01*
X131777955Y-101406087D01*
X131777958Y-101406092D01*
X131800732Y-101435772D01*
X131813113Y-101481978D01*
X131805650Y-101501159D01*
X131806776Y-101501684D01*
X131756028Y-101610513D01*
X131755404Y-101615254D01*
X131749954Y-101656653D01*
X131749500Y-101660099D01*
X131749501Y-102019900D01*
X131756028Y-102069487D01*
X131758049Y-102073820D01*
X131758049Y-102073821D01*
X131804464Y-102173359D01*
X131804466Y-102173361D01*
X131806776Y-102178316D01*
X131891684Y-102263224D01*
X131896641Y-102265536D01*
X131901119Y-102268671D01*
X131899265Y-102271319D01*
X131924286Y-102298630D01*
X131922195Y-102346419D01*
X131899540Y-102369074D01*
X131901119Y-102371329D01*
X131896641Y-102374464D01*
X131891684Y-102376776D01*
X131806776Y-102461684D01*
X131804466Y-102466639D01*
X131804464Y-102466641D01*
X131780718Y-102517566D01*
X131756028Y-102570513D01*
X131749500Y-102620099D01*
X131749501Y-102979900D01*
X131749766Y-102981912D01*
X131749766Y-102981915D01*
X131755404Y-103024747D01*
X131756028Y-103029487D01*
X131758049Y-103033821D01*
X131804464Y-103133359D01*
X131804466Y-103133361D01*
X131806776Y-103138316D01*
X131891684Y-103223224D01*
X131896639Y-103225534D01*
X131896641Y-103225536D01*
X131940911Y-103246179D01*
X132000513Y-103273972D01*
X132017512Y-103276210D01*
X132048068Y-103280233D01*
X132048074Y-103280233D01*
X132050099Y-103280500D01*
X132052146Y-103280500D01*
X132260565Y-103280499D01*
X132469900Y-103280499D01*
X132471912Y-103280234D01*
X132471915Y-103280234D01*
X132514747Y-103274596D01*
X132514748Y-103274596D01*
X132519487Y-103273972D01*
X132569795Y-103250513D01*
X132623359Y-103225536D01*
X132623361Y-103225534D01*
X132628316Y-103223224D01*
X132713224Y-103138316D01*
X132715536Y-103133358D01*
X132730352Y-103101586D01*
X132765620Y-103069269D01*
X132786996Y-103065500D01*
X133597000Y-103065500D01*
X133641194Y-103083806D01*
X133659500Y-103128000D01*
X133659500Y-103759748D01*
X133671133Y-103818231D01*
X133674550Y-103823345D01*
X133674551Y-103823347D01*
X133697478Y-103857659D01*
X133715448Y-103884552D01*
X133720562Y-103887969D01*
X133776653Y-103925449D01*
X133776655Y-103925450D01*
X133781769Y-103928867D01*
X133787803Y-103930067D01*
X133787805Y-103930068D01*
X133837239Y-103939901D01*
X133837242Y-103939901D01*
X133840252Y-103940500D01*
X136279748Y-103940500D01*
X136282758Y-103939901D01*
X136282761Y-103939901D01*
X136332195Y-103930068D01*
X136332197Y-103930067D01*
X136338231Y-103928867D01*
X136343345Y-103925450D01*
X136343347Y-103925449D01*
X136399438Y-103887969D01*
X136404552Y-103884552D01*
X136422522Y-103857659D01*
X136445449Y-103823347D01*
X136445450Y-103823345D01*
X136448867Y-103818231D01*
X136460500Y-103759748D01*
X136460500Y-101825714D01*
X136478806Y-101781520D01*
X136767806Y-101492520D01*
X136812000Y-101474214D01*
X136856194Y-101492520D01*
X136874500Y-101536714D01*
X136874500Y-106587000D01*
X136856194Y-106631194D01*
X136812000Y-106649500D01*
X135630252Y-106649500D01*
X135627242Y-106650099D01*
X135627239Y-106650099D01*
X135577805Y-106659932D01*
X135577803Y-106659933D01*
X135571769Y-106661133D01*
X135566655Y-106664550D01*
X135566653Y-106664551D01*
X135522320Y-106694174D01*
X135505448Y-106705448D01*
X135502031Y-106710562D01*
X135468631Y-106760548D01*
X135461133Y-106771769D01*
X135459933Y-106777803D01*
X135459932Y-106777805D01*
X135450099Y-106827239D01*
X135449500Y-106830252D01*
X135449500Y-108569748D01*
X135450099Y-108572758D01*
X135450099Y-108572761D01*
X135456438Y-108604626D01*
X135461133Y-108628231D01*
X135464550Y-108633345D01*
X135464551Y-108633347D01*
X135482282Y-108659882D01*
X135505448Y-108694552D01*
X135510562Y-108697969D01*
X135566653Y-108735449D01*
X135566655Y-108735450D01*
X135571769Y-108738867D01*
X135577803Y-108740067D01*
X135577805Y-108740068D01*
X135627239Y-108749901D01*
X135627242Y-108749901D01*
X135630252Y-108750500D01*
X137287000Y-108750500D01*
X137331194Y-108768806D01*
X137349500Y-108813000D01*
X137349500Y-108904286D01*
X137331194Y-108948480D01*
X137009318Y-109270356D01*
X136965124Y-109288662D01*
X136935401Y-109281142D01*
X136909055Y-109266897D01*
X136815129Y-109237822D01*
X136715169Y-109206879D01*
X136715166Y-109206878D01*
X136712254Y-109205977D01*
X136709221Y-109205658D01*
X136709220Y-109205658D01*
X136641932Y-109198586D01*
X136507369Y-109184443D01*
X136504336Y-109184719D01*
X136504332Y-109184719D01*
X136391436Y-109194993D01*
X136302203Y-109203114D01*
X136299270Y-109203977D01*
X136299266Y-109203978D01*
X136168649Y-109242421D01*
X136104572Y-109261280D01*
X135922002Y-109356726D01*
X135761447Y-109485815D01*
X135629024Y-109643630D01*
X135583987Y-109725553D01*
X135540545Y-109804574D01*
X135529776Y-109824162D01*
X135467484Y-110020532D01*
X135467143Y-110023570D01*
X135467143Y-110023571D01*
X135451997Y-110158607D01*
X135444520Y-110225262D01*
X135445758Y-110240000D01*
X135459469Y-110403281D01*
X135461759Y-110430553D01*
X135518544Y-110628586D01*
X135612712Y-110811818D01*
X135614603Y-110814204D01*
X135614605Y-110814207D01*
X135643598Y-110850787D01*
X135740677Y-110973270D01*
X135743007Y-110975253D01*
X135827222Y-111046925D01*
X135897564Y-111106791D01*
X136077398Y-111207297D01*
X136080302Y-111208241D01*
X136080303Y-111208241D01*
X136270416Y-111270013D01*
X136270421Y-111270014D01*
X136273329Y-111270959D01*
X136276370Y-111271322D01*
X136276372Y-111271322D01*
X136338442Y-111278723D01*
X136477894Y-111295351D01*
X136480936Y-111295117D01*
X136480939Y-111295117D01*
X136680249Y-111279781D01*
X136680251Y-111279781D01*
X136683300Y-111279546D01*
X136881725Y-111224145D01*
X136884448Y-111222770D01*
X136884452Y-111222768D01*
X137062890Y-111132632D01*
X137065610Y-111131258D01*
X137068008Y-111129385D01*
X137068012Y-111129382D01*
X137173552Y-111046925D01*
X137227951Y-111004424D01*
X137243652Y-110986235D01*
X137313427Y-110905398D01*
X137362564Y-110848472D01*
X137464323Y-110669344D01*
X137529351Y-110473863D01*
X137530117Y-110467805D01*
X137554951Y-110271216D01*
X137554951Y-110271215D01*
X137555171Y-110269474D01*
X137555222Y-110265875D01*
X137555559Y-110241739D01*
X137555559Y-110241733D01*
X137555583Y-110240000D01*
X137555414Y-110238280D01*
X137555414Y-110238271D01*
X137535778Y-110038010D01*
X137535480Y-110034970D01*
X137475935Y-109837749D01*
X137458296Y-109804574D01*
X137453712Y-109756958D01*
X137469287Y-109731039D01*
X137893180Y-109307146D01*
X137897200Y-109303462D01*
X137924005Y-109280970D01*
X137928194Y-109277455D01*
X137948425Y-109242414D01*
X137951350Y-109237822D01*
X137971420Y-109209160D01*
X137971420Y-109209159D01*
X137974554Y-109204684D01*
X137976188Y-109198586D01*
X137982432Y-109183513D01*
X137982853Y-109182784D01*
X137982855Y-109182779D01*
X137985588Y-109178045D01*
X137992613Y-109138204D01*
X137993793Y-109132883D01*
X138002849Y-109099089D01*
X138002849Y-109099087D01*
X138004264Y-109093807D01*
X138000738Y-109053506D01*
X138000500Y-109048059D01*
X138000500Y-106600000D01*
X139594318Y-106600000D01*
X139594853Y-106604064D01*
X139607751Y-106702031D01*
X139614956Y-106756762D01*
X139616524Y-106760547D01*
X139616524Y-106760548D01*
X139646669Y-106833323D01*
X139675464Y-106902841D01*
X139771718Y-107028282D01*
X139897159Y-107124536D01*
X139900942Y-107126103D01*
X140039452Y-107183476D01*
X140039453Y-107183476D01*
X140043238Y-107185044D01*
X140047300Y-107185579D01*
X140047301Y-107185579D01*
X140195936Y-107205147D01*
X140200000Y-107205682D01*
X140204064Y-107205147D01*
X140352699Y-107185579D01*
X140352700Y-107185579D01*
X140356762Y-107185044D01*
X140360547Y-107183476D01*
X140360548Y-107183476D01*
X140499058Y-107126103D01*
X140502841Y-107124536D01*
X140628282Y-107028282D01*
X140724536Y-106902841D01*
X140753331Y-106833323D01*
X140783476Y-106760548D01*
X140783476Y-106760547D01*
X140785044Y-106756762D01*
X140792250Y-106702031D01*
X140805147Y-106604064D01*
X140805682Y-106600000D01*
X140785044Y-106443238D01*
X140767679Y-106401314D01*
X140726103Y-106300942D01*
X140724536Y-106297159D01*
X140685055Y-106245707D01*
X140678415Y-106237053D01*
X140665500Y-106199005D01*
X140665500Y-106053006D01*
X140683806Y-106008812D01*
X140701586Y-105996362D01*
X140708316Y-105993224D01*
X140793224Y-105908316D01*
X140795534Y-105903361D01*
X140795536Y-105903359D01*
X140824832Y-105840532D01*
X140843972Y-105799487D01*
X140850500Y-105749901D01*
X140850499Y-105390100D01*
X140843972Y-105340513D01*
X140800210Y-105246665D01*
X140795536Y-105236641D01*
X140795534Y-105236639D01*
X140793224Y-105231684D01*
X140708316Y-105146776D01*
X140703361Y-105144466D01*
X140703359Y-105144464D01*
X140609838Y-105100855D01*
X140599487Y-105096028D01*
X140582488Y-105093790D01*
X140551932Y-105089767D01*
X140551926Y-105089767D01*
X140549901Y-105089500D01*
X140547854Y-105089500D01*
X140339435Y-105089501D01*
X140130100Y-105089501D01*
X140128088Y-105089766D01*
X140128085Y-105089766D01*
X140085253Y-105095404D01*
X140085252Y-105095404D01*
X140080513Y-105096028D01*
X140076179Y-105098049D01*
X139976641Y-105144464D01*
X139976639Y-105144466D01*
X139971684Y-105146776D01*
X139886776Y-105231684D01*
X139884466Y-105236639D01*
X139884464Y-105236641D01*
X139879790Y-105246665D01*
X139836028Y-105340513D01*
X139829500Y-105390099D01*
X139829501Y-105749900D01*
X139836028Y-105799487D01*
X139838049Y-105803820D01*
X139838049Y-105803821D01*
X139884464Y-105903359D01*
X139884466Y-105903361D01*
X139886776Y-105908316D01*
X139941867Y-105963407D01*
X139960173Y-106007601D01*
X139941867Y-106051795D01*
X139921591Y-106065344D01*
X139897159Y-106075464D01*
X139893910Y-106077957D01*
X139846389Y-106114421D01*
X139771718Y-106171718D01*
X139675464Y-106297159D01*
X139673897Y-106300942D01*
X139632322Y-106401314D01*
X139614956Y-106443238D01*
X139594318Y-106600000D01*
X138000500Y-106600000D01*
X138000500Y-105040000D01*
X140890000Y-105040000D01*
X140897495Y-105038280D01*
X141492863Y-104901638D01*
X141507321Y-104900056D01*
X142781165Y-104909780D01*
X142825218Y-104928422D01*
X142828545Y-104932078D01*
X143001846Y-105138388D01*
X143020000Y-105160000D01*
X143560000Y-105160000D01*
X143820000Y-104690000D01*
X143817345Y-104570500D01*
X143811489Y-104307000D01*
X143810000Y-104240000D01*
X143785585Y-104223937D01*
X143643996Y-104130787D01*
X143430000Y-103990000D01*
X143419547Y-103990871D01*
X143077905Y-104019341D01*
X143077904Y-104019341D01*
X143070000Y-104020000D01*
X142756059Y-104229294D01*
X142720700Y-104239787D01*
X141956356Y-104231341D01*
X140942431Y-104220137D01*
X140942430Y-104220137D01*
X140930000Y-104220000D01*
X140929424Y-104231807D01*
X140929259Y-104235184D01*
X140890000Y-105040000D01*
X138000500Y-105040000D01*
X138000500Y-101635714D01*
X138018806Y-101591520D01*
X138466521Y-101143806D01*
X138510715Y-101125500D01*
X139880444Y-101125500D01*
X139924638Y-101143806D01*
X139942944Y-101188000D01*
X139930029Y-101226047D01*
X139877957Y-101293909D01*
X139877955Y-101293913D01*
X139875464Y-101297159D01*
X139873897Y-101300942D01*
X139818049Y-101435772D01*
X139814956Y-101443238D01*
X139814421Y-101447300D01*
X139814421Y-101447301D01*
X139800751Y-101551133D01*
X139794318Y-101600000D01*
X139814956Y-101756762D01*
X139816524Y-101760547D01*
X139816524Y-101760548D01*
X139843517Y-101825714D01*
X139875464Y-101902841D01*
X139968075Y-102023534D01*
X139980455Y-102069740D01*
X139962684Y-102105776D01*
X139886776Y-102181684D01*
X139884466Y-102186639D01*
X139884464Y-102186641D01*
X139865336Y-102227662D01*
X139836028Y-102290513D01*
X139834307Y-102303586D01*
X139830044Y-102335970D01*
X139829500Y-102340099D01*
X139829501Y-102699900D01*
X139836028Y-102749487D01*
X139838049Y-102753820D01*
X139838049Y-102753821D01*
X139884464Y-102853359D01*
X139884466Y-102853361D01*
X139886776Y-102858316D01*
X139971684Y-102943224D01*
X139976641Y-102945536D01*
X139981119Y-102948671D01*
X139979265Y-102951319D01*
X140004286Y-102978630D01*
X140002195Y-103026419D01*
X139979540Y-103049074D01*
X139981119Y-103051329D01*
X139976641Y-103054464D01*
X139971684Y-103056776D01*
X139960118Y-103068342D01*
X139915924Y-103086648D01*
X139877877Y-103073733D01*
X139766091Y-102987957D01*
X139766087Y-102987955D01*
X139762841Y-102985464D01*
X139688766Y-102954781D01*
X139620548Y-102926524D01*
X139620547Y-102926524D01*
X139616762Y-102924956D01*
X139612700Y-102924421D01*
X139612699Y-102924421D01*
X139464064Y-102904853D01*
X139460000Y-102904318D01*
X139455936Y-102904853D01*
X139307301Y-102924421D01*
X139307300Y-102924421D01*
X139303238Y-102924956D01*
X139299453Y-102926524D01*
X139299452Y-102926524D01*
X139231234Y-102954781D01*
X139157159Y-102985464D01*
X139031718Y-103081718D01*
X138935464Y-103207159D01*
X138933897Y-103210942D01*
X138896788Y-103300532D01*
X138874956Y-103353238D01*
X138854318Y-103510000D01*
X138854853Y-103514064D01*
X138863327Y-103578427D01*
X138874956Y-103666762D01*
X138876524Y-103670547D01*
X138876524Y-103670548D01*
X138891834Y-103707510D01*
X138935464Y-103812841D01*
X139031718Y-103938282D01*
X139157159Y-104034536D01*
X139160942Y-104036103D01*
X139299452Y-104093476D01*
X139299453Y-104093476D01*
X139303238Y-104095044D01*
X139307300Y-104095579D01*
X139307301Y-104095579D01*
X139455936Y-104115147D01*
X139460000Y-104115682D01*
X139464064Y-104115147D01*
X139612699Y-104095579D01*
X139612700Y-104095579D01*
X139616762Y-104095044D01*
X139620547Y-104093476D01*
X139620548Y-104093476D01*
X139759058Y-104036103D01*
X139762841Y-104034536D01*
X139867021Y-103954596D01*
X139885036Y-103940773D01*
X139885037Y-103940772D01*
X139888282Y-103938282D01*
X139899535Y-103923616D01*
X139940960Y-103899698D01*
X139975533Y-103905019D01*
X140080513Y-103953972D01*
X140097512Y-103956210D01*
X140128068Y-103960233D01*
X140128074Y-103960233D01*
X140130099Y-103960500D01*
X140132146Y-103960500D01*
X140340565Y-103960499D01*
X140549900Y-103960499D01*
X140551912Y-103960234D01*
X140551915Y-103960234D01*
X140594747Y-103954596D01*
X140594748Y-103954596D01*
X140599487Y-103953972D01*
X140627792Y-103940773D01*
X140703359Y-103905536D01*
X140703361Y-103905534D01*
X140708316Y-103903224D01*
X140793224Y-103818316D01*
X140795534Y-103813361D01*
X140795536Y-103813359D01*
X140841951Y-103713820D01*
X140843972Y-103709487D01*
X140846210Y-103692488D01*
X140850233Y-103661932D01*
X140850233Y-103661926D01*
X140850500Y-103659901D01*
X140850499Y-103300100D01*
X140843972Y-103250513D01*
X140822242Y-103203913D01*
X140795536Y-103146641D01*
X140795534Y-103146639D01*
X140793224Y-103141684D01*
X140708316Y-103056776D01*
X140703359Y-103054464D01*
X140698881Y-103051329D01*
X140700735Y-103048681D01*
X140675714Y-103021370D01*
X140677805Y-102973581D01*
X140700460Y-102950926D01*
X140698881Y-102948671D01*
X140703359Y-102945536D01*
X140708316Y-102943224D01*
X140793224Y-102858316D01*
X140795534Y-102853361D01*
X140795536Y-102853359D01*
X140819282Y-102802434D01*
X140843972Y-102749487D01*
X140850500Y-102699901D01*
X140850499Y-102340100D01*
X140849956Y-102335970D01*
X140844596Y-102295253D01*
X140844596Y-102295252D01*
X140843972Y-102290513D01*
X140829443Y-102259356D01*
X140795536Y-102186641D01*
X140795534Y-102186639D01*
X140793224Y-102181684D01*
X140772040Y-102160500D01*
X140753734Y-102116306D01*
X140772040Y-102072112D01*
X140778187Y-102066721D01*
X140825034Y-102030774D01*
X140828282Y-102028282D01*
X140831926Y-102023534D01*
X140922045Y-101906087D01*
X140924536Y-101902841D01*
X140956483Y-101825714D01*
X140983476Y-101760548D01*
X140983476Y-101760547D01*
X140985044Y-101756762D01*
X141005682Y-101600000D01*
X140999249Y-101551133D01*
X140985579Y-101447301D01*
X140985579Y-101447300D01*
X140985044Y-101443238D01*
X140981952Y-101435772D01*
X140926103Y-101300942D01*
X140924536Y-101297159D01*
X140828282Y-101171718D01*
X140825037Y-101169228D01*
X140825034Y-101169225D01*
X140709601Y-101080651D01*
X140685683Y-101039224D01*
X140698063Y-100993019D01*
X140703454Y-100986872D01*
X140888186Y-100802141D01*
X140892206Y-100798457D01*
X140919004Y-100775971D01*
X140919005Y-100775970D01*
X140923194Y-100772455D01*
X140943422Y-100737419D01*
X140946344Y-100732832D01*
X140969554Y-100699684D01*
X140970967Y-100694409D01*
X140970970Y-100694404D01*
X140971190Y-100693581D01*
X140977430Y-100678516D01*
X140977853Y-100677783D01*
X140977853Y-100677782D01*
X140980588Y-100673045D01*
X140987613Y-100633209D01*
X140988791Y-100627891D01*
X140997849Y-100594085D01*
X140997849Y-100594084D01*
X140999263Y-100588807D01*
X140996377Y-100555823D01*
X141010761Y-100510202D01*
X141023916Y-100498409D01*
X141035277Y-100490818D01*
X141082194Y-100481486D01*
X141104723Y-100490818D01*
X141116769Y-100498867D01*
X141122805Y-100500068D01*
X141122806Y-100500068D01*
X141172239Y-100509901D01*
X141172242Y-100509901D01*
X141175252Y-100510500D01*
X141764748Y-100510500D01*
X141767758Y-100509901D01*
X141767761Y-100509901D01*
X141817194Y-100500068D01*
X141817195Y-100500068D01*
X141823231Y-100498867D01*
X141835277Y-100490818D01*
X141882194Y-100481486D01*
X141904723Y-100490818D01*
X141916769Y-100498867D01*
X141922805Y-100500068D01*
X141922806Y-100500068D01*
X141972239Y-100509901D01*
X141972242Y-100509901D01*
X141975252Y-100510500D01*
X142564748Y-100510500D01*
X142567758Y-100509901D01*
X142567761Y-100509901D01*
X142617194Y-100500068D01*
X142617195Y-100500068D01*
X142623231Y-100498867D01*
X142635277Y-100490818D01*
X142682194Y-100481486D01*
X142704723Y-100490818D01*
X142716769Y-100498867D01*
X142722805Y-100500068D01*
X142722806Y-100500068D01*
X142772239Y-100509901D01*
X142772242Y-100509901D01*
X142775252Y-100510500D01*
X143364748Y-100510500D01*
X143367758Y-100509901D01*
X143367761Y-100509901D01*
X143417194Y-100500068D01*
X143417195Y-100500068D01*
X143423231Y-100498867D01*
X143435277Y-100490818D01*
X143482194Y-100481486D01*
X143504723Y-100490818D01*
X143516769Y-100498867D01*
X143522805Y-100500068D01*
X143522806Y-100500068D01*
X143572239Y-100509901D01*
X143572242Y-100509901D01*
X143575252Y-100510500D01*
X144164748Y-100510500D01*
X144167758Y-100509901D01*
X144167761Y-100509901D01*
X144217194Y-100500068D01*
X144217195Y-100500068D01*
X144223231Y-100498867D01*
X144235277Y-100490818D01*
X144282194Y-100481486D01*
X144304723Y-100490818D01*
X144316723Y-100498836D01*
X144343299Y-100538609D01*
X144344500Y-100550803D01*
X144344500Y-100603059D01*
X144344262Y-100608506D01*
X144340736Y-100648807D01*
X144342151Y-100654087D01*
X144342151Y-100654089D01*
X144351207Y-100687883D01*
X144352387Y-100693204D01*
X144359412Y-100733045D01*
X144362145Y-100737779D01*
X144362147Y-100737784D01*
X144362568Y-100738513D01*
X144368812Y-100753586D01*
X144370446Y-100759684D01*
X144373580Y-100764159D01*
X144373580Y-100764160D01*
X144393650Y-100792822D01*
X144396575Y-100797414D01*
X144416806Y-100832455D01*
X144420995Y-100835970D01*
X144447802Y-100858464D01*
X144451822Y-100862148D01*
X144896194Y-101306520D01*
X144914500Y-101350714D01*
X144914500Y-101632029D01*
X144896194Y-101676223D01*
X144890052Y-101681611D01*
X144811718Y-101741718D01*
X144715464Y-101867159D01*
X144713897Y-101870942D01*
X144666581Y-101985174D01*
X144654956Y-102013238D01*
X144654421Y-102017300D01*
X144654421Y-102017301D01*
X144648175Y-102064746D01*
X144634318Y-102170000D01*
X144634853Y-102174064D01*
X144650782Y-102295054D01*
X144654956Y-102326762D01*
X144656524Y-102330547D01*
X144656524Y-102330548D01*
X144677275Y-102380644D01*
X144715464Y-102472841D01*
X144811718Y-102598282D01*
X144937159Y-102694536D01*
X144940942Y-102696103D01*
X145079452Y-102753476D01*
X145079453Y-102753476D01*
X145083238Y-102755044D01*
X145087300Y-102755579D01*
X145087301Y-102755579D01*
X145235936Y-102775147D01*
X145240000Y-102775682D01*
X145244064Y-102775147D01*
X145392699Y-102755579D01*
X145392700Y-102755579D01*
X145396762Y-102755044D01*
X145400547Y-102753476D01*
X145400548Y-102753476D01*
X145539058Y-102696103D01*
X145542841Y-102694536D01*
X145668282Y-102598282D01*
X145764536Y-102472841D01*
X145802725Y-102380644D01*
X145823476Y-102330548D01*
X145823476Y-102330547D01*
X145825044Y-102326762D01*
X145829219Y-102295054D01*
X145845147Y-102174064D01*
X145845682Y-102170000D01*
X145831825Y-102064746D01*
X145825579Y-102017301D01*
X145825579Y-102017300D01*
X145825044Y-102013238D01*
X145813420Y-101985174D01*
X145766103Y-101870942D01*
X145764536Y-101867159D01*
X145668282Y-101741718D01*
X145589952Y-101681613D01*
X145566035Y-101640187D01*
X145565500Y-101632029D01*
X145565500Y-101505595D01*
X145583806Y-101461401D01*
X145628000Y-101443095D01*
X145666048Y-101456011D01*
X145673908Y-101462042D01*
X145673911Y-101462044D01*
X145677159Y-101464536D01*
X145680942Y-101466103D01*
X145819452Y-101523476D01*
X145819453Y-101523476D01*
X145823238Y-101525044D01*
X145827300Y-101525579D01*
X145827301Y-101525579D01*
X145975936Y-101545147D01*
X145980000Y-101545682D01*
X145984064Y-101545147D01*
X146132699Y-101525579D01*
X146132700Y-101525579D01*
X146136762Y-101525044D01*
X146140547Y-101523476D01*
X146140548Y-101523476D01*
X146279058Y-101466103D01*
X146282841Y-101464536D01*
X146408282Y-101368282D01*
X146504536Y-101242841D01*
X146534211Y-101171200D01*
X146563476Y-101100548D01*
X146563476Y-101100547D01*
X146565044Y-101096762D01*
X146585682Y-100940000D01*
X146577498Y-100877837D01*
X146565579Y-100787301D01*
X146565579Y-100787300D01*
X146565044Y-100783238D01*
X146519401Y-100673045D01*
X146506103Y-100640942D01*
X146504536Y-100637159D01*
X146450656Y-100566941D01*
X146410773Y-100514964D01*
X146410772Y-100514963D01*
X146408282Y-100511718D01*
X146329952Y-100451613D01*
X146306035Y-100410187D01*
X146305500Y-100402029D01*
X146305500Y-100036941D01*
X146305738Y-100031494D01*
X146308787Y-99996640D01*
X146309264Y-99991193D01*
X146298793Y-99952117D01*
X146297612Y-99946793D01*
X146291537Y-99912338D01*
X146290588Y-99906955D01*
X146287855Y-99902221D01*
X146287853Y-99902216D01*
X146287432Y-99901487D01*
X146281188Y-99886414D01*
X146280969Y-99885595D01*
X146280968Y-99885593D01*
X146279554Y-99880316D01*
X146272004Y-99869533D01*
X146256350Y-99847178D01*
X146253420Y-99842579D01*
X146235927Y-99812279D01*
X146233194Y-99807545D01*
X146202198Y-99781536D01*
X146198178Y-99777852D01*
X145963806Y-99543480D01*
X145945500Y-99499286D01*
X145945500Y-98690252D01*
X145943371Y-98679548D01*
X145935068Y-98637805D01*
X145935067Y-98637803D01*
X145933867Y-98631769D01*
X145928114Y-98623158D01*
X145891153Y-98567844D01*
X145890645Y-98565292D01*
X145887156Y-98563847D01*
X145828347Y-98524551D01*
X145828345Y-98524550D01*
X145823231Y-98521133D01*
X145817197Y-98519933D01*
X145817195Y-98519932D01*
X145767761Y-98510099D01*
X145767758Y-98510099D01*
X145764748Y-98509500D01*
X145175252Y-98509500D01*
X145172242Y-98510099D01*
X145172239Y-98510099D01*
X145122806Y-98519932D01*
X145122805Y-98519932D01*
X145116769Y-98521133D01*
X145111650Y-98524553D01*
X145111651Y-98524553D01*
X145104723Y-98529182D01*
X145057806Y-98538514D01*
X145035277Y-98529182D01*
X145028349Y-98524553D01*
X145028350Y-98524553D01*
X145023231Y-98521133D01*
X145017195Y-98519932D01*
X145017194Y-98519932D01*
X144967761Y-98510099D01*
X144967758Y-98510099D01*
X144964748Y-98509500D01*
X144375252Y-98509500D01*
X144372242Y-98510099D01*
X144372239Y-98510099D01*
X144322806Y-98519932D01*
X144322805Y-98519932D01*
X144316769Y-98521133D01*
X144311650Y-98524553D01*
X144311651Y-98524553D01*
X144304723Y-98529182D01*
X144257806Y-98538514D01*
X144235277Y-98529182D01*
X144228349Y-98524553D01*
X144228350Y-98524553D01*
X144223231Y-98521133D01*
X144217195Y-98519932D01*
X144217194Y-98519932D01*
X144167761Y-98510099D01*
X144167758Y-98510099D01*
X144164748Y-98509500D01*
X143739368Y-98509500D01*
X143695174Y-98491194D01*
X143676868Y-98447000D01*
X143677403Y-98438842D01*
X143681570Y-98407195D01*
X143688475Y-98354748D01*
X145919500Y-98354748D01*
X145920099Y-98357758D01*
X145920099Y-98357761D01*
X145928879Y-98401897D01*
X145931133Y-98413231D01*
X145934550Y-98418345D01*
X145934551Y-98418347D01*
X145973847Y-98477156D01*
X145974355Y-98479708D01*
X145977844Y-98481153D01*
X146036653Y-98520449D01*
X146036655Y-98520450D01*
X146041769Y-98523867D01*
X146047803Y-98525067D01*
X146047805Y-98525068D01*
X146097239Y-98534901D01*
X146097242Y-98534901D01*
X146100252Y-98535500D01*
X146799751Y-98535500D01*
X146843945Y-98553806D01*
X146862251Y-98598000D01*
X146849336Y-98636047D01*
X146827957Y-98663909D01*
X146827955Y-98663913D01*
X146825464Y-98667159D01*
X146823897Y-98670942D01*
X146770052Y-98800936D01*
X146764956Y-98813238D01*
X146764421Y-98817300D01*
X146764421Y-98817301D01*
X146755384Y-98885942D01*
X146744318Y-98970000D01*
X146744853Y-98974064D01*
X146762036Y-99104579D01*
X146764956Y-99126762D01*
X146766524Y-99130547D01*
X146766524Y-99130548D01*
X146794647Y-99198442D01*
X146825464Y-99272841D01*
X146921718Y-99398282D01*
X147047159Y-99494536D01*
X147050942Y-99496103D01*
X147189452Y-99553476D01*
X147189453Y-99553476D01*
X147193238Y-99555044D01*
X147197300Y-99555579D01*
X147197301Y-99555579D01*
X147345936Y-99575147D01*
X147350000Y-99575682D01*
X147354064Y-99575147D01*
X147502699Y-99555579D01*
X147502700Y-99555579D01*
X147506762Y-99555044D01*
X147510547Y-99553476D01*
X147510548Y-99553476D01*
X147649058Y-99496103D01*
X147652841Y-99494536D01*
X147778282Y-99398282D01*
X147874536Y-99272841D01*
X147893435Y-99227215D01*
X147927258Y-99193393D01*
X147975094Y-99193392D01*
X148008918Y-99227217D01*
X148013141Y-99242976D01*
X148014956Y-99256762D01*
X148016524Y-99260547D01*
X148016524Y-99260548D01*
X148023697Y-99277864D01*
X148075464Y-99402841D01*
X148171718Y-99528282D01*
X148297159Y-99624536D01*
X148300942Y-99626103D01*
X148439452Y-99683476D01*
X148439453Y-99683476D01*
X148443238Y-99685044D01*
X148447300Y-99685579D01*
X148447301Y-99685579D01*
X148595936Y-99705147D01*
X148600000Y-99705682D01*
X148604064Y-99705147D01*
X148752699Y-99685579D01*
X148752700Y-99685579D01*
X148756762Y-99685044D01*
X148760547Y-99683476D01*
X148760548Y-99683476D01*
X148899058Y-99626103D01*
X148902841Y-99624536D01*
X149028282Y-99528282D01*
X149124536Y-99402841D01*
X149176303Y-99277864D01*
X149183476Y-99260548D01*
X149183476Y-99260547D01*
X149185044Y-99256762D01*
X149193675Y-99191207D01*
X149205147Y-99104064D01*
X149205682Y-99100000D01*
X149198248Y-99043536D01*
X149185579Y-98947301D01*
X149185579Y-98947300D01*
X149185044Y-98943238D01*
X149176308Y-98922146D01*
X149126103Y-98800942D01*
X149126100Y-98800936D01*
X149124536Y-98797159D01*
X149122045Y-98793913D01*
X149122043Y-98793909D01*
X149040174Y-98687214D01*
X149027794Y-98641009D01*
X149038562Y-98613318D01*
X149039356Y-98612184D01*
X149043224Y-98608316D01*
X149045534Y-98603361D01*
X149045536Y-98603359D01*
X149085053Y-98518613D01*
X149093972Y-98499487D01*
X149100500Y-98449901D01*
X149100499Y-98090100D01*
X149098277Y-98073214D01*
X149094596Y-98045253D01*
X149094596Y-98045252D01*
X149093972Y-98040513D01*
X149083119Y-98017239D01*
X149045536Y-97936641D01*
X149045534Y-97936639D01*
X149043224Y-97931684D01*
X148958316Y-97846776D01*
X148953361Y-97844466D01*
X148953359Y-97844464D01*
X148902434Y-97820718D01*
X148849487Y-97796028D01*
X148832488Y-97793790D01*
X148801932Y-97789767D01*
X148801926Y-97789767D01*
X148799901Y-97789500D01*
X148797854Y-97789500D01*
X148589435Y-97789501D01*
X148380100Y-97789501D01*
X148378088Y-97789766D01*
X148378085Y-97789766D01*
X148335253Y-97795404D01*
X148335252Y-97795404D01*
X148330513Y-97796028D01*
X148326179Y-97798049D01*
X148226641Y-97844464D01*
X148226639Y-97844466D01*
X148221684Y-97846776D01*
X148136776Y-97931684D01*
X148134466Y-97936639D01*
X148134464Y-97936641D01*
X148124473Y-97958068D01*
X148086028Y-98040513D01*
X148079500Y-98090099D01*
X148079501Y-98449900D01*
X148079766Y-98451912D01*
X148079766Y-98451915D01*
X148083548Y-98480645D01*
X148086028Y-98499487D01*
X148088049Y-98503820D01*
X148088049Y-98503821D01*
X148134464Y-98603359D01*
X148134466Y-98603361D01*
X148136776Y-98608316D01*
X148145317Y-98616857D01*
X148163623Y-98661051D01*
X148150708Y-98699099D01*
X148075464Y-98797159D01*
X148056565Y-98842785D01*
X148022742Y-98876607D01*
X147974906Y-98876608D01*
X147941082Y-98842783D01*
X147936859Y-98827024D01*
X147935579Y-98817300D01*
X147935579Y-98817298D01*
X147935044Y-98813238D01*
X147929949Y-98800936D01*
X147876103Y-98670942D01*
X147874536Y-98667159D01*
X147872045Y-98663913D01*
X147872043Y-98663909D01*
X147816612Y-98591669D01*
X147804232Y-98545464D01*
X147831474Y-98501655D01*
X147859436Y-98482971D01*
X147859438Y-98482969D01*
X147864552Y-98479552D01*
X147879780Y-98456762D01*
X147905449Y-98418347D01*
X147905450Y-98418345D01*
X147908867Y-98413231D01*
X147911122Y-98401897D01*
X147919901Y-98357761D01*
X147919901Y-98357758D01*
X147920500Y-98354748D01*
X147920500Y-97765252D01*
X147919901Y-97762239D01*
X147910068Y-97712805D01*
X147910067Y-97712803D01*
X147908867Y-97706769D01*
X147905448Y-97701651D01*
X147875826Y-97657320D01*
X147864552Y-97640448D01*
X147831479Y-97618349D01*
X147803347Y-97599551D01*
X147803345Y-97599550D01*
X147798231Y-97596133D01*
X147792197Y-97594933D01*
X147792195Y-97594932D01*
X147742761Y-97585099D01*
X147742758Y-97585099D01*
X147739748Y-97584500D01*
X146100252Y-97584500D01*
X146097242Y-97585099D01*
X146097239Y-97585099D01*
X146047805Y-97594932D01*
X146047803Y-97594933D01*
X146041769Y-97596133D01*
X146036655Y-97599550D01*
X146036653Y-97599551D01*
X146008521Y-97618349D01*
X145975448Y-97640448D01*
X145964174Y-97657320D01*
X145934553Y-97701651D01*
X145931133Y-97706769D01*
X145929933Y-97712803D01*
X145929932Y-97712805D01*
X145920099Y-97762239D01*
X145919500Y-97765252D01*
X145919500Y-98354748D01*
X143688475Y-98354748D01*
X143695682Y-98300000D01*
X143677323Y-98160548D01*
X143675579Y-98147301D01*
X143675579Y-98147300D01*
X143675044Y-98143238D01*
X143667786Y-98125714D01*
X143616103Y-98000942D01*
X143614536Y-97997159D01*
X143518282Y-97871718D01*
X143392841Y-97775464D01*
X143348736Y-97757195D01*
X143250548Y-97716524D01*
X143250547Y-97716524D01*
X143246762Y-97714956D01*
X143242700Y-97714421D01*
X143242699Y-97714421D01*
X143094064Y-97694853D01*
X143090000Y-97694318D01*
X143085936Y-97694853D01*
X142937301Y-97714421D01*
X142937300Y-97714421D01*
X142933238Y-97714956D01*
X142929453Y-97716524D01*
X142929452Y-97716524D01*
X142831264Y-97757195D01*
X142787159Y-97775464D01*
X142661718Y-97871718D01*
X142565464Y-97997159D01*
X142563897Y-98000942D01*
X142512215Y-98125714D01*
X142504956Y-98143238D01*
X142504421Y-98147300D01*
X142504421Y-98147301D01*
X142502677Y-98160548D01*
X142484318Y-98300000D01*
X142498431Y-98407195D01*
X142502597Y-98438842D01*
X142490217Y-98485048D01*
X142448790Y-98508965D01*
X142440632Y-98509500D01*
X141992699Y-98509500D01*
X141948505Y-98491194D01*
X141930199Y-98447000D01*
X141943114Y-98408952D01*
X141944463Y-98407195D01*
X142024536Y-98302841D01*
X142060441Y-98216159D01*
X142083476Y-98160548D01*
X142083476Y-98160547D01*
X142085044Y-98156762D01*
X142086825Y-98143238D01*
X142105147Y-98004064D01*
X142105682Y-98000000D01*
X142102833Y-97978361D01*
X142085579Y-97847301D01*
X142085579Y-97847300D01*
X142085044Y-97843238D01*
X142080791Y-97832969D01*
X142026103Y-97700942D01*
X142024536Y-97697159D01*
X141928282Y-97571718D01*
X141802841Y-97475464D01*
X141766831Y-97460548D01*
X141660548Y-97416524D01*
X141660547Y-97416524D01*
X141656762Y-97414956D01*
X141652700Y-97414421D01*
X141652699Y-97414421D01*
X141504064Y-97394853D01*
X141500000Y-97394318D01*
X141495936Y-97394853D01*
X141347301Y-97414421D01*
X141347300Y-97414421D01*
X141343238Y-97414956D01*
X141339453Y-97416524D01*
X141339452Y-97416524D01*
X141233169Y-97460548D01*
X141197159Y-97475464D01*
X141071718Y-97571718D01*
X140975464Y-97697159D01*
X140973897Y-97700942D01*
X140919210Y-97832969D01*
X140914956Y-97843238D01*
X140914421Y-97847300D01*
X140914421Y-97847301D01*
X140897167Y-97978361D01*
X140894318Y-98000000D01*
X140894853Y-98004064D01*
X140913176Y-98143238D01*
X140914956Y-98156762D01*
X140916524Y-98160547D01*
X140916524Y-98160548D01*
X140939559Y-98216159D01*
X140975464Y-98302841D01*
X141055538Y-98407195D01*
X141063442Y-98417496D01*
X141075822Y-98463702D01*
X141051905Y-98505129D01*
X141001664Y-98516843D01*
X140967761Y-98510099D01*
X140967758Y-98510099D01*
X140964748Y-98509500D01*
X140375252Y-98509500D01*
X140372242Y-98510099D01*
X140372239Y-98510099D01*
X140322806Y-98519932D01*
X140322805Y-98519932D01*
X140316769Y-98521133D01*
X140311650Y-98524553D01*
X140311651Y-98524553D01*
X140304723Y-98529182D01*
X140257806Y-98538514D01*
X140235277Y-98529182D01*
X140228349Y-98524553D01*
X140228350Y-98524553D01*
X140223231Y-98521133D01*
X140217195Y-98519932D01*
X140217194Y-98519932D01*
X140167761Y-98510099D01*
X140167758Y-98510099D01*
X140164748Y-98509500D01*
X139575252Y-98509500D01*
X139572242Y-98510099D01*
X139572239Y-98510099D01*
X139522805Y-98519932D01*
X139522803Y-98519933D01*
X139516769Y-98521133D01*
X139511655Y-98524550D01*
X139511653Y-98524551D01*
X139452844Y-98563847D01*
X139450292Y-98564355D01*
X139448847Y-98567844D01*
X139411887Y-98623158D01*
X139406133Y-98631769D01*
X139404933Y-98637803D01*
X139404932Y-98637805D01*
X139396629Y-98679548D01*
X139394500Y-98690252D01*
X139394500Y-99122000D01*
X139376194Y-99166194D01*
X139332000Y-99184500D01*
X138943337Y-99184500D01*
X138937890Y-99184262D01*
X138935847Y-99184083D01*
X138897589Y-99180736D01*
X138892309Y-99182151D01*
X138892307Y-99182151D01*
X138858513Y-99191207D01*
X138853187Y-99192388D01*
X138818852Y-99198442D01*
X138772151Y-99188088D01*
X138746449Y-99147743D01*
X138745500Y-99136891D01*
X138745500Y-98598000D01*
X138763806Y-98553806D01*
X138808000Y-98535500D01*
X139239748Y-98535500D01*
X139242758Y-98534901D01*
X139242761Y-98534901D01*
X139292195Y-98525068D01*
X139292197Y-98525067D01*
X139298231Y-98523867D01*
X139303345Y-98520450D01*
X139303347Y-98520449D01*
X139362156Y-98481153D01*
X139364708Y-98480645D01*
X139366153Y-98477156D01*
X139405449Y-98418347D01*
X139405450Y-98418345D01*
X139408867Y-98413231D01*
X139411122Y-98401897D01*
X139419901Y-98357761D01*
X139419901Y-98357758D01*
X139420500Y-98354748D01*
X139420500Y-97765252D01*
X139418898Y-97757195D01*
X139410068Y-97712806D01*
X139410068Y-97712805D01*
X139408867Y-97706769D01*
X139400818Y-97694723D01*
X139391486Y-97647806D01*
X139400818Y-97625277D01*
X139405447Y-97618349D01*
X139408867Y-97613231D01*
X139410068Y-97607194D01*
X139419901Y-97557761D01*
X139419901Y-97557758D01*
X139420500Y-97554748D01*
X139420500Y-96965252D01*
X139419544Y-96960446D01*
X139410068Y-96912805D01*
X139410067Y-96912803D01*
X139408867Y-96906769D01*
X139383783Y-96869228D01*
X139367969Y-96845562D01*
X139364552Y-96840448D01*
X139320834Y-96811236D01*
X139303347Y-96799551D01*
X139303345Y-96799550D01*
X139298231Y-96796133D01*
X139292197Y-96794933D01*
X139292195Y-96794932D01*
X139242761Y-96785099D01*
X139242758Y-96785099D01*
X139239748Y-96784500D01*
X137600252Y-96784500D01*
X137597242Y-96785099D01*
X137597239Y-96785099D01*
X137547805Y-96794932D01*
X137547803Y-96794933D01*
X137541769Y-96796133D01*
X137536655Y-96799550D01*
X137536653Y-96799551D01*
X137519166Y-96811236D01*
X137475448Y-96840448D01*
X137472031Y-96845562D01*
X137431163Y-96906724D01*
X137391389Y-96933299D01*
X137379196Y-96934500D01*
X136856933Y-96934500D01*
X136851486Y-96934262D01*
X136816638Y-96931213D01*
X136816636Y-96931213D01*
X136811193Y-96930737D01*
X136805916Y-96932151D01*
X136805915Y-96932151D01*
X136772109Y-96941209D01*
X136766791Y-96942387D01*
X136726955Y-96949412D01*
X136722218Y-96952147D01*
X136722217Y-96952147D01*
X136721484Y-96952570D01*
X136706419Y-96958810D01*
X136705599Y-96959030D01*
X136705598Y-96959031D01*
X136700316Y-96960446D01*
X136695839Y-96963581D01*
X136667178Y-96983650D01*
X136662586Y-96986575D01*
X136627545Y-97006806D01*
X136624030Y-97010995D01*
X136601536Y-97037802D01*
X136597852Y-97041822D01*
X135818480Y-97821194D01*
X135774286Y-97839500D01*
X133840252Y-97839500D01*
X133837242Y-97840099D01*
X133837239Y-97840099D01*
X133787805Y-97849932D01*
X133787803Y-97849933D01*
X133781769Y-97851133D01*
X133776655Y-97854550D01*
X133776653Y-97854551D01*
X133746105Y-97874963D01*
X133715448Y-97895448D01*
X133712031Y-97900562D01*
X133678154Y-97951262D01*
X133671133Y-97961769D01*
X133669933Y-97967803D01*
X133669932Y-97967805D01*
X133664134Y-97996955D01*
X133659500Y-98020252D01*
X133659500Y-98652000D01*
X133641194Y-98696194D01*
X133597000Y-98714500D01*
X132741928Y-98714500D01*
X132697734Y-98696194D01*
X132678316Y-98676776D01*
X132673359Y-98674464D01*
X132668881Y-98671329D01*
X132670735Y-98668681D01*
X132645714Y-98641370D01*
X132647805Y-98593581D01*
X132670460Y-98570926D01*
X132668881Y-98568671D01*
X132673359Y-98565536D01*
X132678316Y-98563224D01*
X132763224Y-98478316D01*
X132765534Y-98473361D01*
X132765536Y-98473359D01*
X132811951Y-98373820D01*
X132813972Y-98369487D01*
X132820500Y-98319901D01*
X132820499Y-97960100D01*
X132820046Y-97956653D01*
X132814596Y-97915253D01*
X132814596Y-97915252D01*
X132813972Y-97910513D01*
X132776359Y-97829852D01*
X132774272Y-97782063D01*
X132794955Y-97753855D01*
X132825034Y-97730774D01*
X132828282Y-97728282D01*
X132838508Y-97714956D01*
X132922045Y-97606087D01*
X132924536Y-97602841D01*
X132934745Y-97578194D01*
X132983476Y-97460548D01*
X132983476Y-97460547D01*
X132985044Y-97456762D01*
X132990085Y-97418476D01*
X133005147Y-97304064D01*
X133005682Y-97300000D01*
X132985044Y-97143238D01*
X132946424Y-97050000D01*
X132926103Y-97000942D01*
X132924536Y-96997159D01*
X132828282Y-96871718D01*
X132702841Y-96775464D01*
X132634507Y-96747159D01*
X132560548Y-96716524D01*
X132560547Y-96716524D01*
X132556762Y-96714956D01*
X132552700Y-96714421D01*
X132552699Y-96714421D01*
X132404064Y-96694853D01*
X132400000Y-96694318D01*
X132395936Y-96694853D01*
X132247301Y-96714421D01*
X132247300Y-96714421D01*
X132243238Y-96714956D01*
X132239453Y-96716524D01*
X132239452Y-96716524D01*
X132165493Y-96747159D01*
X132097159Y-96775464D01*
X131971718Y-96871718D01*
X131875464Y-96997159D01*
X131873897Y-97000942D01*
X131853577Y-97050000D01*
X131814956Y-97143238D01*
X131794318Y-97300000D01*
X131794853Y-97304064D01*
X131809916Y-97418476D01*
X131814956Y-97456762D01*
X131816524Y-97460547D01*
X131816524Y-97460548D01*
X131865255Y-97578194D01*
X131875464Y-97602841D01*
X131877955Y-97606087D01*
X131877957Y-97606090D01*
X131920316Y-97661294D01*
X131932696Y-97707499D01*
X131914925Y-97743535D01*
X131856776Y-97801684D01*
X131854466Y-97806639D01*
X131854464Y-97806641D01*
X131839164Y-97839452D01*
X131806028Y-97910513D01*
X131805404Y-97915253D01*
X131805404Y-97915254D01*
X131799954Y-97956653D01*
X131799500Y-97960099D01*
X131799501Y-98319900D01*
X131799766Y-98321912D01*
X131799766Y-98321915D01*
X131804575Y-98358452D01*
X131806028Y-98369487D01*
X131808049Y-98373820D01*
X131808049Y-98373821D01*
X131854464Y-98473359D01*
X131854466Y-98473361D01*
X131856776Y-98478316D01*
X131941684Y-98563224D01*
X131946641Y-98565536D01*
X131951119Y-98568671D01*
X131949265Y-98571319D01*
X131974286Y-98598630D01*
X131972195Y-98646419D01*
X131949540Y-98669074D01*
X131951119Y-98671329D01*
X131946641Y-98674464D01*
X131941684Y-98676776D01*
X131856776Y-98761684D01*
X131854466Y-98766639D01*
X131854464Y-98766641D01*
X131834501Y-98809452D01*
X131806028Y-98870513D01*
X131799500Y-98920099D01*
X131799500Y-98922146D01*
X131799501Y-99100484D01*
X131799501Y-99279900D01*
X131806028Y-99329487D01*
X131808049Y-99333821D01*
X131854464Y-99433359D01*
X131854466Y-99433361D01*
X131856776Y-99438316D01*
X131941684Y-99523224D01*
X131946639Y-99525534D01*
X131946641Y-99525536D01*
X131985123Y-99543480D01*
X132050513Y-99573972D01*
X132063502Y-99575682D01*
X132098068Y-99580233D01*
X132098074Y-99580233D01*
X132100099Y-99580500D01*
X132102146Y-99580500D01*
X132310565Y-99580499D01*
X132519900Y-99580499D01*
X132521912Y-99580234D01*
X132521915Y-99580234D01*
X132564747Y-99574596D01*
X132564748Y-99574596D01*
X132569487Y-99573972D01*
X132628356Y-99546521D01*
X132673359Y-99525536D01*
X132673361Y-99525534D01*
X132678316Y-99523224D01*
X132763224Y-99438316D01*
X132765536Y-99433358D01*
X132780352Y-99401586D01*
X132815620Y-99369269D01*
X132836996Y-99365500D01*
X133597000Y-99365500D01*
X133641194Y-99383806D01*
X133659500Y-99428000D01*
X133659500Y-100059748D01*
X133660099Y-100062758D01*
X133660099Y-100062761D01*
X133669152Y-100108270D01*
X133671133Y-100118231D01*
X133715448Y-100184552D01*
X133720562Y-100187969D01*
X133776653Y-100225449D01*
X133776655Y-100225450D01*
X133781769Y-100228867D01*
X133787803Y-100230067D01*
X133787805Y-100230068D01*
X133837239Y-100239901D01*
X133837242Y-100239901D01*
X133840252Y-100240500D01*
X136279748Y-100240500D01*
X136282758Y-100239901D01*
X136282761Y-100239901D01*
X136332195Y-100230068D01*
X136332197Y-100230067D01*
X136338231Y-100228867D01*
X136343345Y-100225450D01*
X136343347Y-100225449D01*
X136399438Y-100187969D01*
X136404552Y-100184552D01*
X136448867Y-100118231D01*
X136450849Y-100108270D01*
X136459901Y-100062761D01*
X136459901Y-100062758D01*
X136460500Y-100059748D01*
X136460500Y-98125714D01*
X136478806Y-98081520D01*
X136956520Y-97603806D01*
X137000714Y-97585500D01*
X137379197Y-97585500D01*
X137423391Y-97603806D01*
X137431164Y-97613277D01*
X137439182Y-97625277D01*
X137448514Y-97672194D01*
X137439182Y-97694723D01*
X137431133Y-97706769D01*
X137429932Y-97712805D01*
X137429932Y-97712806D01*
X137421103Y-97757195D01*
X137419500Y-97765252D01*
X137419500Y-98354748D01*
X137420099Y-98357758D01*
X137420099Y-98357761D01*
X137428879Y-98401897D01*
X137431133Y-98413231D01*
X137434550Y-98418345D01*
X137434551Y-98418347D01*
X137460220Y-98456762D01*
X137475448Y-98479552D01*
X137480562Y-98482969D01*
X137536653Y-98520449D01*
X137536655Y-98520450D01*
X137541769Y-98523867D01*
X137547803Y-98525067D01*
X137547805Y-98525068D01*
X137597239Y-98534901D01*
X137597242Y-98534901D01*
X137600252Y-98535500D01*
X138032000Y-98535500D01*
X138076194Y-98553806D01*
X138094500Y-98598000D01*
X138094500Y-99219286D01*
X138076194Y-99263480D01*
X135818480Y-101521194D01*
X135774286Y-101539500D01*
X133840252Y-101539500D01*
X133837242Y-101540099D01*
X133837239Y-101540099D01*
X133787805Y-101549932D01*
X133787803Y-101549933D01*
X133781769Y-101551133D01*
X133776655Y-101554550D01*
X133776653Y-101554551D01*
X133761303Y-101564808D01*
X133715448Y-101595448D01*
X133712031Y-101600562D01*
X133688543Y-101635714D01*
X133671133Y-101661769D01*
X133669933Y-101667803D01*
X133669932Y-101667805D01*
X133660099Y-101717239D01*
X133659500Y-101720252D01*
X133659500Y-102352000D01*
X133641194Y-102396194D01*
X133597000Y-102414500D01*
X132691928Y-102414500D01*
X132647734Y-102396194D01*
X132628316Y-102376776D01*
X132623359Y-102374464D01*
X132618881Y-102371329D01*
X132620735Y-102368681D01*
X132595714Y-102341370D01*
X132597805Y-102293581D01*
X132620460Y-102270926D01*
X132618881Y-102268671D01*
X132623359Y-102265536D01*
X132628316Y-102263224D01*
X132713224Y-102178316D01*
X132715534Y-102173361D01*
X132715536Y-102173359D01*
X132761951Y-102073820D01*
X132763972Y-102069487D01*
X132770500Y-102019901D01*
X132770499Y-101660100D01*
X132763972Y-101610513D01*
X132742659Y-101564806D01*
X132740572Y-101517018D01*
X132749718Y-101500346D01*
X132822045Y-101406087D01*
X132824536Y-101402841D01*
X132834471Y-101378857D01*
X132883476Y-101260548D01*
X132883476Y-101260547D01*
X132885044Y-101256762D01*
X132905682Y-101100000D01*
X132896694Y-101031726D01*
X132885579Y-100947301D01*
X132885579Y-100947300D01*
X132885044Y-100943238D01*
X132882020Y-100935936D01*
X132826103Y-100800942D01*
X132824536Y-100797159D01*
X132728282Y-100671718D01*
X132602841Y-100575464D01*
X132575681Y-100564214D01*
X132460548Y-100516524D01*
X132460547Y-100516524D01*
X132456762Y-100514956D01*
X132452700Y-100514421D01*
X132452699Y-100514421D01*
X132304064Y-100494853D01*
X132300000Y-100494318D01*
X132295936Y-100494853D01*
X132147301Y-100514421D01*
X132147300Y-100514421D01*
X132143238Y-100514956D01*
X132139453Y-100516524D01*
X132139452Y-100516524D01*
X132024319Y-100564214D01*
X131997159Y-100575464D01*
X131871718Y-100671718D01*
X131775464Y-100797159D01*
X131773897Y-100800942D01*
X131717981Y-100935936D01*
X131714956Y-100943238D01*
X131714421Y-100947300D01*
X131714421Y-100947301D01*
X131703306Y-101031726D01*
X131694318Y-101100000D01*
X129358108Y-101100000D01*
X129358108Y-99918677D01*
X129369750Y-99882350D01*
X129427542Y-99801442D01*
X131785715Y-96500000D01*
X134294318Y-96500000D01*
X134294853Y-96504064D01*
X134310015Y-96619228D01*
X134314956Y-96656762D01*
X134316524Y-96660547D01*
X134316524Y-96660548D01*
X134338839Y-96714421D01*
X134375464Y-96802841D01*
X134471718Y-96928282D01*
X134597159Y-97024536D01*
X134600942Y-97026103D01*
X134739452Y-97083476D01*
X134739453Y-97083476D01*
X134743238Y-97085044D01*
X134747300Y-97085579D01*
X134747301Y-97085579D01*
X134895936Y-97105147D01*
X134900000Y-97105682D01*
X134904064Y-97105147D01*
X135052699Y-97085579D01*
X135052700Y-97085579D01*
X135056762Y-97085044D01*
X135060547Y-97083476D01*
X135060548Y-97083476D01*
X135199056Y-97026104D01*
X135199057Y-97026103D01*
X135202841Y-97024536D01*
X135206087Y-97022045D01*
X135206091Y-97022043D01*
X135220924Y-97010661D01*
X135267130Y-96998281D01*
X135285383Y-97003601D01*
X135350513Y-97033972D01*
X135367512Y-97036210D01*
X135398068Y-97040233D01*
X135398074Y-97040233D01*
X135400099Y-97040500D01*
X135402146Y-97040500D01*
X135580484Y-97040499D01*
X135759900Y-97040499D01*
X135761912Y-97040234D01*
X135761915Y-97040234D01*
X135804747Y-97034596D01*
X135804748Y-97034596D01*
X135809487Y-97033972D01*
X135826362Y-97026103D01*
X135913359Y-96985536D01*
X135913361Y-96985534D01*
X135918316Y-96983224D01*
X136003224Y-96898316D01*
X136005534Y-96893361D01*
X136005536Y-96893359D01*
X136043830Y-96811236D01*
X136053972Y-96789487D01*
X136058149Y-96757761D01*
X136060233Y-96741932D01*
X136060233Y-96741926D01*
X136060500Y-96739901D01*
X136060499Y-96320100D01*
X136053972Y-96270513D01*
X136033263Y-96226103D01*
X136005536Y-96166641D01*
X136005534Y-96166639D01*
X136003224Y-96161684D01*
X135918316Y-96076776D01*
X135913361Y-96074466D01*
X135913359Y-96074464D01*
X135856190Y-96047806D01*
X135809487Y-96026028D01*
X135792488Y-96023790D01*
X135761932Y-96019767D01*
X135761926Y-96019767D01*
X135759901Y-96019500D01*
X135757854Y-96019500D01*
X135579516Y-96019501D01*
X135400100Y-96019501D01*
X135398088Y-96019766D01*
X135398085Y-96019766D01*
X135355253Y-96025404D01*
X135355252Y-96025404D01*
X135350513Y-96026028D01*
X135346178Y-96028049D01*
X135346176Y-96028050D01*
X135334022Y-96033718D01*
X135286233Y-96035806D01*
X135269559Y-96026659D01*
X135267924Y-96025404D01*
X135202841Y-95975464D01*
X135199055Y-95973896D01*
X135199052Y-95973894D01*
X135152829Y-95954748D01*
X137419500Y-95954748D01*
X137420099Y-95957758D01*
X137420099Y-95957761D01*
X137428314Y-95999058D01*
X137431133Y-96013231D01*
X137434550Y-96018345D01*
X137434551Y-96018347D01*
X137457186Y-96052222D01*
X137475448Y-96079552D01*
X137480562Y-96082969D01*
X137536653Y-96120449D01*
X137536655Y-96120450D01*
X137541769Y-96123867D01*
X137547803Y-96125067D01*
X137547805Y-96125068D01*
X137597239Y-96134901D01*
X137597242Y-96134901D01*
X137600252Y-96135500D01*
X139239748Y-96135500D01*
X139242758Y-96134901D01*
X139242761Y-96134901D01*
X139292194Y-96125068D01*
X139292195Y-96125068D01*
X139298231Y-96123867D01*
X139303347Y-96120449D01*
X139308107Y-96118477D01*
X139355942Y-96118478D01*
X139371344Y-96128770D01*
X139371718Y-96128282D01*
X139497159Y-96224536D01*
X139500942Y-96226103D01*
X139639452Y-96283476D01*
X139639453Y-96283476D01*
X139643238Y-96285044D01*
X139647300Y-96285579D01*
X139647301Y-96285579D01*
X139795936Y-96305147D01*
X139800000Y-96305682D01*
X139804064Y-96305147D01*
X139952699Y-96285579D01*
X139952700Y-96285579D01*
X139956762Y-96285044D01*
X139960547Y-96283476D01*
X139960548Y-96283476D01*
X140099058Y-96226103D01*
X140102841Y-96224536D01*
X140228282Y-96128282D01*
X140324536Y-96002841D01*
X140363744Y-95908184D01*
X140383476Y-95860548D01*
X140383476Y-95860547D01*
X140385044Y-95856762D01*
X140405682Y-95700000D01*
X140391713Y-95593897D01*
X140385579Y-95547301D01*
X140385579Y-95547300D01*
X140385044Y-95543238D01*
X140381614Y-95534956D01*
X140326103Y-95400942D01*
X140324536Y-95397159D01*
X140228282Y-95271718D01*
X140102841Y-95175464D01*
X140099056Y-95173896D01*
X139960548Y-95116524D01*
X139960547Y-95116524D01*
X139956762Y-95114956D01*
X139952700Y-95114421D01*
X139952699Y-95114421D01*
X139804064Y-95094853D01*
X139800000Y-95094318D01*
X139795936Y-95094853D01*
X139647301Y-95114421D01*
X139647300Y-95114421D01*
X139643238Y-95114956D01*
X139639453Y-95116524D01*
X139639452Y-95116524D01*
X139500944Y-95173896D01*
X139497159Y-95175464D01*
X139493913Y-95177955D01*
X139493910Y-95177957D01*
X139425697Y-95230298D01*
X139379492Y-95242678D01*
X139352926Y-95232679D01*
X139303351Y-95199553D01*
X139303347Y-95199551D01*
X139298231Y-95196133D01*
X139292197Y-95194933D01*
X139292195Y-95194932D01*
X139242761Y-95185099D01*
X139242758Y-95185099D01*
X139239748Y-95184500D01*
X137600252Y-95184500D01*
X137597242Y-95185099D01*
X137597239Y-95185099D01*
X137547805Y-95194932D01*
X137547803Y-95194933D01*
X137541769Y-95196133D01*
X137536655Y-95199550D01*
X137536653Y-95199551D01*
X137513467Y-95215044D01*
X137475448Y-95240448D01*
X137464174Y-95257320D01*
X137434553Y-95301651D01*
X137431133Y-95306769D01*
X137429933Y-95312803D01*
X137429932Y-95312805D01*
X137424608Y-95339571D01*
X137419500Y-95365252D01*
X137419500Y-95954748D01*
X135152829Y-95954748D01*
X135060548Y-95916524D01*
X135060547Y-95916524D01*
X135056762Y-95914956D01*
X135052700Y-95914421D01*
X135052699Y-95914421D01*
X134904064Y-95894853D01*
X134900000Y-95894318D01*
X134895936Y-95894853D01*
X134747301Y-95914421D01*
X134747300Y-95914421D01*
X134743238Y-95914956D01*
X134739453Y-95916524D01*
X134739452Y-95916524D01*
X134688271Y-95937724D01*
X134597159Y-95975464D01*
X134471718Y-96071718D01*
X134469228Y-96074963D01*
X134464869Y-96080644D01*
X134375464Y-96197159D01*
X134314956Y-96343238D01*
X134294318Y-96500000D01*
X131785715Y-96500000D01*
X132928572Y-94900000D01*
X134194318Y-94900000D01*
X134194853Y-94904064D01*
X134197733Y-94925936D01*
X134214956Y-95056762D01*
X134216524Y-95060547D01*
X134216524Y-95060548D01*
X134255455Y-95154536D01*
X134275464Y-95202841D01*
X134371718Y-95328282D01*
X134497159Y-95424536D01*
X134500942Y-95426103D01*
X134639452Y-95483476D01*
X134639453Y-95483476D01*
X134643238Y-95485044D01*
X134647300Y-95485579D01*
X134647301Y-95485579D01*
X134795936Y-95505147D01*
X134800000Y-95505682D01*
X134804064Y-95505147D01*
X134952699Y-95485579D01*
X134952700Y-95485579D01*
X134956762Y-95485044D01*
X134960547Y-95483476D01*
X134960548Y-95483476D01*
X135099058Y-95426103D01*
X135102841Y-95424536D01*
X135152129Y-95386716D01*
X135198335Y-95374336D01*
X135221608Y-95383388D01*
X135221684Y-95383224D01*
X135330513Y-95433972D01*
X135347512Y-95436210D01*
X135378068Y-95440233D01*
X135378074Y-95440233D01*
X135380099Y-95440500D01*
X135382146Y-95440500D01*
X135560484Y-95440499D01*
X135739900Y-95440499D01*
X135741912Y-95440234D01*
X135741915Y-95440234D01*
X135784747Y-95434596D01*
X135784748Y-95434596D01*
X135789487Y-95433972D01*
X135806362Y-95426103D01*
X135893359Y-95385536D01*
X135893361Y-95385534D01*
X135898316Y-95383224D01*
X135983224Y-95298316D01*
X135985534Y-95293361D01*
X135985536Y-95293359D01*
X136021805Y-95215579D01*
X136033972Y-95189487D01*
X136038367Y-95156103D01*
X136040233Y-95141932D01*
X136040233Y-95141926D01*
X136040500Y-95139901D01*
X136040500Y-94930000D01*
X136040499Y-94722136D01*
X136040499Y-94720100D01*
X136033972Y-94670513D01*
X136013263Y-94626103D01*
X135985536Y-94566641D01*
X135985534Y-94566639D01*
X135983224Y-94561684D01*
X135898316Y-94476776D01*
X135893361Y-94474466D01*
X135893359Y-94474464D01*
X135830481Y-94445144D01*
X135789487Y-94426028D01*
X135772488Y-94423790D01*
X135741932Y-94419767D01*
X135741926Y-94419767D01*
X135739901Y-94419500D01*
X135737854Y-94419500D01*
X135559516Y-94419501D01*
X135380100Y-94419501D01*
X135378088Y-94419766D01*
X135378085Y-94419766D01*
X135335253Y-94425404D01*
X135335252Y-94425404D01*
X135330513Y-94426028D01*
X135264261Y-94456922D01*
X135216472Y-94459009D01*
X135199800Y-94449863D01*
X135144194Y-94407195D01*
X135102841Y-94375464D01*
X135052828Y-94354748D01*
X137419500Y-94354748D01*
X137420099Y-94357758D01*
X137420099Y-94357761D01*
X137429894Y-94407000D01*
X137431133Y-94413231D01*
X137434550Y-94418345D01*
X137434551Y-94418347D01*
X137452457Y-94445144D01*
X137475448Y-94479552D01*
X137480562Y-94482969D01*
X137536653Y-94520449D01*
X137536655Y-94520450D01*
X137541769Y-94523867D01*
X137547803Y-94525067D01*
X137547805Y-94525068D01*
X137597239Y-94534901D01*
X137597242Y-94534901D01*
X137600252Y-94535500D01*
X139239748Y-94535500D01*
X139242758Y-94534901D01*
X139242761Y-94534901D01*
X139292194Y-94525068D01*
X139292195Y-94525068D01*
X139298231Y-94523867D01*
X139303347Y-94520449D01*
X139308107Y-94518477D01*
X139355942Y-94518478D01*
X139371344Y-94528770D01*
X139371718Y-94528282D01*
X139497159Y-94624536D01*
X139500942Y-94626103D01*
X139639452Y-94683476D01*
X139639453Y-94683476D01*
X139643238Y-94685044D01*
X139647300Y-94685579D01*
X139647301Y-94685579D01*
X139795936Y-94705147D01*
X139800000Y-94705682D01*
X139804064Y-94705147D01*
X139952699Y-94685579D01*
X139952700Y-94685579D01*
X139956762Y-94685044D01*
X139960547Y-94683476D01*
X139960548Y-94683476D01*
X140099058Y-94626103D01*
X140102841Y-94624536D01*
X140228282Y-94528282D01*
X140324536Y-94402841D01*
X140326756Y-94397481D01*
X140383476Y-94260548D01*
X140383476Y-94260547D01*
X140385044Y-94256762D01*
X140386988Y-94242000D01*
X140405147Y-94104064D01*
X140405682Y-94100000D01*
X140405147Y-94095936D01*
X140385579Y-93947301D01*
X140385579Y-93947300D01*
X140385044Y-93943238D01*
X140324536Y-93797159D01*
X140228282Y-93671718D01*
X140102841Y-93575464D01*
X140011425Y-93537598D01*
X139960548Y-93516524D01*
X139960547Y-93516524D01*
X139956762Y-93514956D01*
X139952700Y-93514421D01*
X139952699Y-93514421D01*
X139804064Y-93494853D01*
X139800000Y-93494318D01*
X139795936Y-93494853D01*
X139647301Y-93514421D01*
X139647300Y-93514421D01*
X139643238Y-93514956D01*
X139639453Y-93516524D01*
X139639452Y-93516524D01*
X139588575Y-93537598D01*
X139506917Y-93571422D01*
X139459082Y-93571423D01*
X139425258Y-93537598D01*
X139420500Y-93513680D01*
X139420500Y-92965252D01*
X139414045Y-92932797D01*
X139410068Y-92912806D01*
X139410068Y-92912805D01*
X139408867Y-92906769D01*
X139400818Y-92894723D01*
X139391486Y-92847806D01*
X139400818Y-92825277D01*
X139405447Y-92818349D01*
X139408867Y-92813231D01*
X139420500Y-92754748D01*
X139420500Y-92165252D01*
X139419687Y-92161163D01*
X139410068Y-92112805D01*
X139410067Y-92112803D01*
X139408867Y-92106769D01*
X139393713Y-92084089D01*
X139366153Y-92042844D01*
X139365645Y-92040292D01*
X139362156Y-92038847D01*
X139303347Y-91999551D01*
X139303345Y-91999550D01*
X139298231Y-91996133D01*
X139292197Y-91994933D01*
X139292195Y-91994932D01*
X139242761Y-91985099D01*
X139242758Y-91985099D01*
X139239748Y-91984500D01*
X137600252Y-91984500D01*
X137597242Y-91985099D01*
X137597239Y-91985099D01*
X137547805Y-91994932D01*
X137547803Y-91994933D01*
X137541769Y-91996133D01*
X137536655Y-91999550D01*
X137536653Y-91999551D01*
X137513147Y-92015258D01*
X137475448Y-92040448D01*
X137472031Y-92045562D01*
X137446288Y-92084089D01*
X137431133Y-92106769D01*
X137429933Y-92112803D01*
X137429932Y-92112805D01*
X137420313Y-92161163D01*
X137419500Y-92165252D01*
X137419500Y-92754748D01*
X137431133Y-92813231D01*
X137434553Y-92818349D01*
X137439182Y-92825277D01*
X137448514Y-92872194D01*
X137439182Y-92894723D01*
X137431133Y-92906769D01*
X137429932Y-92912805D01*
X137429932Y-92912806D01*
X137425956Y-92932797D01*
X137419500Y-92965252D01*
X137419500Y-93554748D01*
X137420099Y-93557758D01*
X137420099Y-93557761D01*
X137424116Y-93577955D01*
X137431133Y-93613231D01*
X137434553Y-93618349D01*
X137439182Y-93625277D01*
X137448514Y-93672194D01*
X137439182Y-93694723D01*
X137431133Y-93706769D01*
X137419500Y-93765252D01*
X137419500Y-94354748D01*
X135052828Y-94354748D01*
X135032974Y-94346524D01*
X134960548Y-94316524D01*
X134960547Y-94316524D01*
X134956762Y-94314956D01*
X134952700Y-94314421D01*
X134952699Y-94314421D01*
X134804064Y-94294853D01*
X134800000Y-94294318D01*
X134795936Y-94294853D01*
X134647301Y-94314421D01*
X134647300Y-94314421D01*
X134643238Y-94314956D01*
X134639453Y-94316524D01*
X134639452Y-94316524D01*
X134567026Y-94346524D01*
X134497159Y-94375464D01*
X134371718Y-94471718D01*
X134275464Y-94597159D01*
X134214956Y-94743238D01*
X134214421Y-94747300D01*
X134214421Y-94747301D01*
X134208839Y-94789702D01*
X134194318Y-94900000D01*
X132928572Y-94900000D01*
X139339413Y-85924822D01*
X139379996Y-85899499D01*
X139390271Y-85898649D01*
X140008056Y-85898649D01*
X140052250Y-85916955D01*
G37*
%TD.AperFunction*%
%TD*%
M02*
