%TF.GenerationSoftware,KiCad,Pcbnew,(6.0.7-1)-1*%
%TF.CreationDate,2022-12-23T14:46:04-05:00*%
%TF.ProjectId,atmega328,61746d65-6761-4333-9238-2e6b69636164,rev?*%
%TF.SameCoordinates,Original*%
%TF.FileFunction,Paste,Top*%
%TF.FilePolarity,Positive*%
%FSLAX46Y46*%
G04 Gerber Fmt 4.6, Leading zero omitted, Abs format (unit mm)*
G04 Created by KiCad (PCBNEW (6.0.7-1)-1) date 2022-12-23 14:46:04*
%MOMM*%
%LPD*%
G01*
G04 APERTURE LIST*
G04 Aperture macros list*
%AMRoundRect*
0 Rectangle with rounded corners*
0 $1 Rounding radius*
0 $2 $3 $4 $5 $6 $7 $8 $9 X,Y pos of 4 corners*
0 Add a 4 corners polygon primitive as box body*
4,1,4,$2,$3,$4,$5,$6,$7,$8,$9,$2,$3,0*
0 Add four circle primitives for the rounded corners*
1,1,$1+$1,$2,$3*
1,1,$1+$1,$4,$5*
1,1,$1+$1,$6,$7*
1,1,$1+$1,$8,$9*
0 Add four rect primitives between the rounded corners*
20,1,$1+$1,$2,$3,$4,$5,0*
20,1,$1+$1,$4,$5,$6,$7,0*
20,1,$1+$1,$6,$7,$8,$9,0*
20,1,$1+$1,$8,$9,$2,$3,0*%
%AMRotRect*
0 Rectangle, with rotation*
0 The origin of the aperture is its center*
0 $1 length*
0 $2 width*
0 $3 Rotation angle, in degrees counterclockwise*
0 Add horizontal line*
21,1,$1,$2,0,0,$3*%
G04 Aperture macros list end*
%ADD10RoundRect,0.250000X-0.450000X-0.425000X0.450000X-0.425000X0.450000X0.425000X-0.450000X0.425000X0*%
%ADD11RoundRect,0.225000X-0.225000X-0.250000X0.225000X-0.250000X0.225000X0.250000X-0.225000X0.250000X0*%
%ADD12RoundRect,0.140000X0.170000X-0.140000X0.170000X0.140000X-0.170000X0.140000X-0.170000X-0.140000X0*%
%ADD13RoundRect,0.140000X-0.170000X0.140000X-0.170000X-0.140000X0.170000X-0.140000X0.170000X0.140000X0*%
%ADD14RoundRect,0.140000X0.140000X0.170000X-0.140000X0.170000X-0.140000X-0.170000X0.140000X-0.170000X0*%
%ADD15RoundRect,0.200000X-0.200000X-0.275000X0.200000X-0.275000X0.200000X0.275000X-0.200000X0.275000X0*%
%ADD16RoundRect,0.200000X-0.275000X0.200000X-0.275000X-0.200000X0.275000X-0.200000X0.275000X0.200000X0*%
%ADD17R,1.600000X0.550000*%
%ADD18R,0.550000X1.600000*%
%ADD19R,2.400000X2.000000*%
%ADD20RoundRect,0.218750X0.256250X-0.218750X0.256250X0.218750X-0.256250X0.218750X-0.256250X-0.218750X0*%
%ADD21RotRect,1.300000X1.700000X45.000000*%
%ADD22RoundRect,0.150000X-0.150000X0.587500X-0.150000X-0.587500X0.150000X-0.587500X0.150000X0.587500X0*%
G04 APERTURE END LIST*
D10*
%TO.C,C2*%
X155210000Y-95270000D03*
X157910000Y-95270000D03*
%TD*%
D11*
%TO.C,C1*%
X158395000Y-92660000D03*
X159945000Y-92660000D03*
%TD*%
D12*
%TO.C,C6*%
X132310000Y-99100000D03*
X132310000Y-98140000D03*
%TD*%
D13*
%TO.C,C8*%
X140340000Y-104610000D03*
X140340000Y-105570000D03*
%TD*%
D14*
%TO.C,C3*%
X136520000Y-94930000D03*
X135560000Y-94930000D03*
%TD*%
D15*
%TO.C,R1*%
X158360000Y-90860000D03*
X160010000Y-90860000D03*
%TD*%
D14*
%TO.C,C4*%
X136540000Y-96530000D03*
X135580000Y-96530000D03*
%TD*%
D16*
%TO.C,R3*%
X132320000Y-106595000D03*
X132320000Y-108245000D03*
%TD*%
D13*
%TO.C,C5*%
X148590000Y-97310000D03*
X148590000Y-98270000D03*
%TD*%
D17*
%TO.C,U1*%
X138420000Y-92460000D03*
X138420000Y-93260000D03*
X138420000Y-94060000D03*
X138420000Y-94860000D03*
X138420000Y-95660000D03*
X138420000Y-96460000D03*
X138420000Y-97260000D03*
X138420000Y-98060000D03*
D18*
X139870000Y-99510000D03*
X140670000Y-99510000D03*
X141470000Y-99510000D03*
X142270000Y-99510000D03*
X143070000Y-99510000D03*
X143870000Y-99510000D03*
X144670000Y-99510000D03*
X145470000Y-99510000D03*
D17*
X146920000Y-98060000D03*
X146920000Y-97260000D03*
X146920000Y-96460000D03*
X146920000Y-95660000D03*
X146920000Y-94860000D03*
X146920000Y-94060000D03*
X146920000Y-93260000D03*
X146920000Y-92460000D03*
D18*
X145470000Y-91010000D03*
X144670000Y-91010000D03*
X143870000Y-91010000D03*
X143070000Y-91010000D03*
X142270000Y-91010000D03*
X141470000Y-91010000D03*
X140670000Y-91010000D03*
X139870000Y-91010000D03*
%TD*%
D19*
%TO.C,Y1*%
X135060000Y-99040000D03*
X135060000Y-102740000D03*
%TD*%
D12*
%TO.C,C7*%
X132260000Y-102800000D03*
X132260000Y-101840000D03*
%TD*%
D20*
%TO.C,D2*%
X130300000Y-108167500D03*
X130300000Y-106592500D03*
%TD*%
D21*
%TO.C,D1*%
X151002563Y-90527437D03*
X153477437Y-88052563D03*
%TD*%
D22*
%TO.C,Q1*%
X156102500Y-91022500D03*
X154202500Y-91022500D03*
X155152500Y-92897500D03*
%TD*%
D15*
%TO.C,R2*%
X150750000Y-99190000D03*
X152400000Y-99190000D03*
%TD*%
D12*
%TO.C,C9*%
X140340000Y-103480000D03*
X140340000Y-102520000D03*
%TD*%
M02*
