M48
; DRILL file {KiCad (6.0.7-1)-1} date Friday, December 23, 2022 at 02:46:00 PM
; FORMAT={-:-/ absolute / metric / decimal}
; #@! TF.CreationDate,2022-12-23T14:46:00-05:00
; #@! TF.GenerationSoftware,Kicad,Pcbnew,(6.0.7-1)-1
; #@! TF.FileFunction,Plated,1,2,PTH
FMAT,2
METRIC
; #@! TA.AperFunction,Plated,PTH,ViaDrill
T1C0.400
; #@! TA.AperFunction,Plated,PTH,ComponentDrill
T2C1.000
%
G90
G05
T1
X132.3Y-101.1
X132.4Y-97.3
X133.8Y-106.7
X134.8Y-94.9
X134.9Y-96.5
X139.46Y-103.51
X139.8Y-94.1
X139.8Y-95.7
X140.2Y-106.6
X140.4Y-101.6
X141.5Y-98.0
X142.61Y-92.39
X143.09Y-98.3
X143.24Y-104.61
X145.24Y-102.17
X145.54Y-94.93
X145.98Y-100.94
X147.35Y-98.97
X148.37Y-94.63
X148.6Y-99.1
X149.48Y-104.16
X154.94Y-97.05
X155.86Y-97.794
X156.8Y-98.519
X157.26Y-113.6
X159.83Y-96.12
X160.0Y-112.1
X161.61Y-92.83
T2
X136.5Y-107.7
X136.5Y-110.24
X136.5Y-112.78
X141.04Y-87.005
X143.58Y-87.005
X145.8Y-113.7
X146.12Y-87.005
X148.34Y-113.7
X148.66Y-87.005
X152.15Y-103.52
X152.15Y-106.06
X154.69Y-103.52
X154.69Y-106.06
X154.75Y-111.39
X154.75Y-113.93
X157.23Y-103.52
X157.23Y-106.06
X163.555Y-96.835
X163.555Y-99.375
X163.555Y-101.915
X163.555Y-104.455
X163.555Y-106.995
X163.555Y-109.535
X163.555Y-112.075
T0
M30
