%TF.GenerationSoftware,KiCad,Pcbnew,(6.0.7-1)-1*%
%TF.CreationDate,2022-12-23T14:46:04-05:00*%
%TF.ProjectId,atmega328,61746d65-6761-4333-9238-2e6b69636164,rev?*%
%TF.SameCoordinates,Original*%
%TF.FileFunction,Copper,L2,Bot*%
%TF.FilePolarity,Positive*%
%FSLAX46Y46*%
G04 Gerber Fmt 4.6, Leading zero omitted, Abs format (unit mm)*
G04 Created by KiCad (PCBNEW (6.0.7-1)-1) date 2022-12-23 14:46:04*
%MOMM*%
%LPD*%
G01*
G04 APERTURE LIST*
G04 Aperture macros list*
%AMRoundRect*
0 Rectangle with rounded corners*
0 $1 Rounding radius*
0 $2 $3 $4 $5 $6 $7 $8 $9 X,Y pos of 4 corners*
0 Add a 4 corners polygon primitive as box body*
4,1,4,$2,$3,$4,$5,$6,$7,$8,$9,$2,$3,0*
0 Add four circle primitives for the rounded corners*
1,1,$1+$1,$2,$3*
1,1,$1+$1,$4,$5*
1,1,$1+$1,$6,$7*
1,1,$1+$1,$8,$9*
0 Add four rect primitives between the rounded corners*
20,1,$1+$1,$2,$3,$4,$5,0*
20,1,$1+$1,$4,$5,$6,$7,0*
20,1,$1+$1,$6,$7,$8,$9,0*
20,1,$1+$1,$8,$9,$2,$3,0*%
G04 Aperture macros list end*
%TA.AperFunction,ComponentPad*%
%ADD10R,1.700000X1.700000*%
%TD*%
%TA.AperFunction,ComponentPad*%
%ADD11O,1.700000X1.700000*%
%TD*%
%TA.AperFunction,SMDPad,CuDef*%
%ADD12RoundRect,0.100000X0.637500X0.100000X-0.637500X0.100000X-0.637500X-0.100000X0.637500X-0.100000X0*%
%TD*%
%TA.AperFunction,ViaPad*%
%ADD13C,0.800000*%
%TD*%
%TA.AperFunction,Conductor*%
%ADD14C,0.250000*%
%TD*%
G04 APERTURE END LIST*
D10*
%TO.P,ISP1,1,Pin_1*%
%TO.N,MISO*%
X157230000Y-103520000D03*
D11*
%TO.P,ISP1,2,Pin_2*%
%TO.N,3.3V*%
X157230000Y-106060000D03*
%TO.P,ISP1,3,Pin_3*%
%TO.N,SCK*%
X154690000Y-103520000D03*
%TO.P,ISP1,4,Pin_4*%
%TO.N,MOSI*%
X154690000Y-106060000D03*
%TO.P,ISP1,5,Pin_5*%
%TO.N,RESET*%
X152150000Y-103520000D03*
%TO.P,ISP1,6,Pin_6*%
%TO.N,GND*%
X152150000Y-106060000D03*
%TD*%
D10*
%TO.P,J3,1,Pin_1*%
%TO.N,TRM1*%
X154750000Y-111390000D03*
D11*
%TO.P,J3,2,Pin_2*%
%TO.N,TRM2*%
X154750000Y-113930000D03*
%TD*%
D10*
%TO.P,J5,1,Pin_1*%
%TO.N,+5V*%
X145800000Y-113700000D03*
D11*
%TO.P,J5,2,Pin_2*%
%TO.N,GND*%
X148340000Y-113700000D03*
%TD*%
D10*
%TO.P,J2,1,Pin_1*%
%TO.N,GND*%
X141040000Y-87005000D03*
D11*
%TO.P,J2,2,Pin_2*%
%TO.N,TX*%
X143580000Y-87005000D03*
%TO.P,J2,3,Pin_3*%
%TO.N,RX*%
X146120000Y-87005000D03*
%TO.P,J2,4,Pin_4*%
%TO.N,+5V*%
X148660000Y-87005000D03*
%TD*%
D10*
%TO.P,J4,1,Pin_1*%
%TO.N,Net-(U1-Pad9)*%
X136500000Y-107700000D03*
D11*
%TO.P,J4,2,Pin_2*%
%TO.N,Net-(U1-Pad10)*%
X136500000Y-110240000D03*
%TO.P,J4,3,Pin_3*%
%TO.N,Net-(U1-Pad11)*%
X136500000Y-112780000D03*
%TD*%
D10*
%TO.P,J1,1,Pin_1*%
%TO.N,Vcc*%
X163555000Y-96835000D03*
D11*
%TO.P,J1,2,Pin_2*%
%TO.N,TRM1*%
X163555000Y-99375000D03*
%TO.P,J1,3,Pin_3*%
%TO.N,U*%
X163555000Y-101915000D03*
%TO.P,J1,4,Pin_4*%
%TO.N,V*%
X163555000Y-104455000D03*
%TO.P,J1,5,Pin_5*%
%TO.N,W*%
X163555000Y-106995000D03*
%TO.P,J1,6,Pin_6*%
%TO.N,GND*%
X163555000Y-109535000D03*
%TO.P,J1,7,Pin_7*%
%TO.N,TRM2*%
X163555000Y-112075000D03*
%TD*%
D12*
%TO.P,U2,1,~{CSn}*%
%TO.N,CS*%
X147712500Y-102630000D03*
%TO.P,U2,2,CLK*%
%TO.N,SCK*%
X147712500Y-103280000D03*
%TO.P,U2,3,MISO*%
%TO.N,MISO*%
X147712500Y-103930000D03*
%TO.P,U2,4,MOSI*%
%TO.N,MOSI*%
X147712500Y-104580000D03*
%TO.P,U2,5,TEST*%
%TO.N,unconnected-(U2-Pad5)*%
X147712500Y-105230000D03*
%TO.P,U2,6,TEST*%
%TO.N,unconnected-(U2-Pad6)*%
X147712500Y-105880000D03*
%TO.P,U2,7,TEST*%
%TO.N,unconnected-(U2-Pad7)*%
X147712500Y-106530000D03*
%TO.P,U2,8,TEST*%
%TO.N,unconnected-(U2-Pad8)*%
X141987500Y-106530000D03*
%TO.P,U2,9,TEST*%
%TO.N,unconnected-(U2-Pad9)*%
X141987500Y-105880000D03*
%TO.P,U2,10,TEST*%
%TO.N,unconnected-(U2-Pad10)*%
X141987500Y-105230000D03*
%TO.P,U2,11,VDD5V*%
%TO.N,+5V*%
X141987500Y-104580000D03*
%TO.P,U2,12,VDD3V*%
%TO.N,+3.3v*%
X141987500Y-103930000D03*
%TO.P,U2,13,GND*%
%TO.N,GND*%
X141987500Y-103280000D03*
%TO.P,U2,14,PWM*%
%TO.N,unconnected-(U2-Pad14)*%
X141987500Y-102630000D03*
%TD*%
D13*
%TO.N,GND*%
X132300000Y-101100000D03*
X161610000Y-92830000D03*
X139800000Y-94100000D03*
X145540000Y-94930000D03*
X134900000Y-96500000D03*
X139800000Y-95700000D03*
X140400000Y-101600000D03*
X133800000Y-106700000D03*
X132400000Y-97300000D03*
X134800000Y-94900000D03*
X148600000Y-99100000D03*
X159830000Y-96120000D03*
X140200000Y-106600000D03*
X160000000Y-112100000D03*
%TO.N,+3.3v*%
X139460000Y-103510000D03*
%TO.N,MISO*%
X145980000Y-100940000D03*
X149480000Y-104160500D03*
%TO.N,SCK*%
X147350000Y-98970000D03*
%TO.N,MOSI*%
X145240000Y-102170000D03*
%TO.N,RESET*%
X142610000Y-92390000D03*
X148370000Y-94630000D03*
%TO.N,U*%
X154940000Y-97050000D03*
%TO.N,V*%
X155860000Y-97794500D03*
%TO.N,W*%
X156800000Y-98519000D03*
%TO.N,TRM2*%
X157260000Y-113600000D03*
%TO.N,CS*%
X143090000Y-98300000D03*
%TO.N,+5V*%
X143240000Y-104610000D03*
%TO.N,Net-(U1-Pad11)*%
X141500000Y-98000000D03*
%TD*%
D14*
%TO.N,+3.3v*%
X141987500Y-103930000D02*
X139880000Y-103930000D01*
X139880000Y-103930000D02*
X139460000Y-103510000D01*
%TO.N,MISO*%
X147712500Y-103930000D02*
X146920000Y-103930000D01*
X149480000Y-104160500D02*
X149249500Y-103930000D01*
X145980000Y-102990000D02*
X145980000Y-100940000D01*
X146920000Y-103930000D02*
X145980000Y-102990000D01*
X149249500Y-103930000D02*
X147712500Y-103930000D01*
%TO.N,SCK*%
X149230000Y-101700000D02*
X149230000Y-100410000D01*
X149230000Y-100410000D02*
X148900000Y-100080000D01*
X147444695Y-98970000D02*
X147350000Y-98970000D01*
X154690000Y-103520000D02*
X153514278Y-102344278D01*
X147712500Y-103280000D02*
X148401041Y-103280000D01*
X150794278Y-102344278D02*
X149858556Y-103280000D01*
X153514278Y-102344278D02*
X150794278Y-102344278D01*
X148401041Y-103280000D02*
X149230000Y-102451041D01*
X149230000Y-102451041D02*
X149230000Y-101700000D01*
X148900000Y-100080000D02*
X148554695Y-100080000D01*
X149858556Y-103280000D02*
X147712500Y-103280000D01*
X148554695Y-100080000D02*
X147444695Y-98970000D01*
%TO.N,MOSI*%
X145240000Y-102886396D02*
X145240000Y-102170000D01*
X146933604Y-104580000D02*
X145240000Y-102886396D01*
X148401041Y-104580000D02*
X147712500Y-104580000D01*
X153515000Y-104885000D02*
X148706041Y-104885000D01*
X148706041Y-104885000D02*
X148401041Y-104580000D01*
X154690000Y-106060000D02*
X153515000Y-104885000D01*
X147712500Y-104580000D02*
X146933604Y-104580000D01*
%TO.N,RESET*%
X146130000Y-92390000D02*
X142610000Y-92390000D01*
X148370000Y-94630000D02*
X146130000Y-92390000D01*
%TO.N,U*%
X154960000Y-97070000D02*
X154940000Y-97050000D01*
X163555000Y-101915000D02*
X158710000Y-97070000D01*
X158710000Y-97070000D02*
X154960000Y-97070000D01*
%TO.N,V*%
X162166802Y-103066802D02*
X162166802Y-101163198D01*
X163555000Y-104455000D02*
X162166802Y-103066802D01*
X162166802Y-101163198D02*
X158798104Y-97794500D01*
X158798104Y-97794500D02*
X155860000Y-97794500D01*
%TO.N,W*%
X158865802Y-98519000D02*
X156800000Y-98519000D01*
X163555000Y-106995000D02*
X161716802Y-105156802D01*
X161716802Y-101370000D02*
X158865802Y-98519000D01*
X161716802Y-105156802D02*
X161716802Y-101370000D01*
%TO.N,TRM2*%
X156930000Y-113930000D02*
X154750000Y-113930000D01*
X157260000Y-113600000D02*
X156930000Y-113930000D01*
X157520000Y-113340000D02*
X157260000Y-113600000D01*
X162290000Y-113340000D02*
X157520000Y-113340000D01*
X163555000Y-112075000D02*
X162290000Y-113340000D01*
%TO.N,CS*%
X145980000Y-99490000D02*
X144110000Y-99490000D01*
X147712500Y-102630000D02*
X147712500Y-101222500D01*
X143090000Y-98470000D02*
X143090000Y-98300000D01*
X144110000Y-99490000D02*
X143090000Y-98470000D01*
X147712500Y-101222500D02*
X146210000Y-99720000D01*
X146210000Y-99720000D02*
X145980000Y-99490000D01*
%TO.N,+5V*%
X143210000Y-104580000D02*
X143240000Y-104610000D01*
X141987500Y-104580000D02*
X143210000Y-104580000D01*
%TO.N,Net-(U1-Pad11)*%
X137700000Y-101000000D02*
X140700000Y-98000000D01*
X137700000Y-104000000D02*
X137700000Y-101000000D01*
X135325000Y-111605000D02*
X135325000Y-106375000D01*
X135325000Y-106375000D02*
X137700000Y-104000000D01*
X136500000Y-112780000D02*
X135325000Y-111605000D01*
X140700000Y-98000000D02*
X141500000Y-98000000D01*
%TD*%
%TA.AperFunction,Conductor*%
%TO.N,GND*%
G36*
X151511175Y-85504470D02*
G01*
X161480452Y-89492181D01*
X161510833Y-89518055D01*
X164481672Y-94469452D01*
X164499017Y-94498361D01*
X164500870Y-94501673D01*
X165742515Y-96889452D01*
X165792951Y-96986444D01*
X165800000Y-97015279D01*
X165800000Y-113456133D01*
X165781694Y-113500327D01*
X165758745Y-113514911D01*
X157510298Y-116496278D01*
X157489053Y-116500000D01*
X136020028Y-116500000D01*
X135983701Y-116488358D01*
X133878985Y-114984989D01*
X133297648Y-114569748D01*
X144749500Y-114569748D01*
X144761133Y-114628231D01*
X144805448Y-114694552D01*
X144810562Y-114697969D01*
X144866653Y-114735449D01*
X144866655Y-114735450D01*
X144871769Y-114738867D01*
X144877803Y-114740067D01*
X144877805Y-114740068D01*
X144927239Y-114749901D01*
X144927242Y-114749901D01*
X144930252Y-114750500D01*
X146669748Y-114750500D01*
X146672758Y-114749901D01*
X146672761Y-114749901D01*
X146722195Y-114740068D01*
X146722197Y-114740067D01*
X146728231Y-114738867D01*
X146733345Y-114735450D01*
X146733347Y-114735449D01*
X146789438Y-114697969D01*
X146794552Y-114694552D01*
X146838867Y-114628231D01*
X146850500Y-114569748D01*
X146850500Y-113915262D01*
X153694520Y-113915262D01*
X153694776Y-113918309D01*
X153704011Y-114028282D01*
X153711759Y-114120553D01*
X153730405Y-114185579D01*
X153743015Y-114229554D01*
X153768544Y-114318586D01*
X153862712Y-114501818D01*
X153864603Y-114504204D01*
X153864605Y-114504207D01*
X153947109Y-114608300D01*
X153990677Y-114663270D01*
X153993007Y-114665253D01*
X154080915Y-114740068D01*
X154147564Y-114796791D01*
X154327398Y-114897297D01*
X154330302Y-114898241D01*
X154330303Y-114898241D01*
X154520416Y-114960013D01*
X154520421Y-114960014D01*
X154523329Y-114960959D01*
X154526370Y-114961322D01*
X154526372Y-114961322D01*
X154588442Y-114968723D01*
X154727894Y-114985351D01*
X154730936Y-114985117D01*
X154730939Y-114985117D01*
X154930249Y-114969781D01*
X154930251Y-114969781D01*
X154933300Y-114969546D01*
X155131725Y-114914145D01*
X155134448Y-114912770D01*
X155134452Y-114912768D01*
X155312890Y-114822632D01*
X155315610Y-114821258D01*
X155318008Y-114819385D01*
X155318012Y-114819382D01*
X155425441Y-114735449D01*
X155477951Y-114694424D01*
X155506910Y-114660875D01*
X155540297Y-114622195D01*
X155612564Y-114538472D01*
X155714323Y-114359344D01*
X155734639Y-114298272D01*
X155765959Y-114262115D01*
X155793944Y-114255500D01*
X156913059Y-114255500D01*
X156918506Y-114255738D01*
X156958807Y-114259264D01*
X156964087Y-114257849D01*
X156964089Y-114257849D01*
X156997883Y-114248793D01*
X157003204Y-114247613D01*
X157043045Y-114240588D01*
X157047779Y-114237855D01*
X157047784Y-114237853D01*
X157048513Y-114237432D01*
X157063586Y-114231188D01*
X157064405Y-114230969D01*
X157064407Y-114230968D01*
X157069684Y-114229554D01*
X157102822Y-114206350D01*
X157107422Y-114203420D01*
X157114191Y-114199512D01*
X157153598Y-114191674D01*
X157260000Y-114205682D01*
X157264064Y-114205147D01*
X157412699Y-114185579D01*
X157412700Y-114185579D01*
X157416762Y-114185044D01*
X157420547Y-114183476D01*
X157420548Y-114183476D01*
X157559058Y-114126103D01*
X157562841Y-114124536D01*
X157688282Y-114028282D01*
X157784536Y-113902841D01*
X157812588Y-113835117D01*
X157843476Y-113760548D01*
X157843476Y-113760547D01*
X157845044Y-113756762D01*
X157849905Y-113719841D01*
X157873823Y-113678415D01*
X157911870Y-113665500D01*
X162273059Y-113665500D01*
X162278506Y-113665738D01*
X162318807Y-113669264D01*
X162324087Y-113667849D01*
X162324089Y-113667849D01*
X162357883Y-113658793D01*
X162363204Y-113657613D01*
X162403045Y-113650588D01*
X162407779Y-113647855D01*
X162407784Y-113647853D01*
X162408513Y-113647432D01*
X162423586Y-113641188D01*
X162424405Y-113640969D01*
X162424407Y-113640968D01*
X162429684Y-113639554D01*
X162462822Y-113616350D01*
X162467414Y-113613425D01*
X162502455Y-113593194D01*
X162528464Y-113562199D01*
X162532146Y-113558181D01*
X163044853Y-113045474D01*
X163089047Y-113027168D01*
X163119539Y-113035110D01*
X163132398Y-113042297D01*
X163135302Y-113043241D01*
X163135303Y-113043241D01*
X163325416Y-113105013D01*
X163325421Y-113105014D01*
X163328329Y-113105959D01*
X163331370Y-113106322D01*
X163331372Y-113106322D01*
X163393442Y-113113723D01*
X163532894Y-113130351D01*
X163535936Y-113130117D01*
X163535939Y-113130117D01*
X163735249Y-113114781D01*
X163735251Y-113114781D01*
X163738300Y-113114546D01*
X163936725Y-113059145D01*
X163939448Y-113057770D01*
X163939452Y-113057768D01*
X164117890Y-112967632D01*
X164120610Y-112966258D01*
X164123008Y-112964385D01*
X164123012Y-112964382D01*
X164244848Y-112869193D01*
X164282951Y-112839424D01*
X164288218Y-112833323D01*
X164349591Y-112762220D01*
X164417564Y-112683472D01*
X164519323Y-112504344D01*
X164584351Y-112308863D01*
X164589225Y-112270287D01*
X164609951Y-112106216D01*
X164609951Y-112106215D01*
X164610171Y-112104474D01*
X164610583Y-112075000D01*
X164610414Y-112073280D01*
X164610414Y-112073271D01*
X164590778Y-111873010D01*
X164590480Y-111869970D01*
X164530935Y-111672749D01*
X164434218Y-111490849D01*
X164426442Y-111481314D01*
X164305943Y-111333569D01*
X164304011Y-111331200D01*
X164145275Y-111199882D01*
X163964055Y-111101897D01*
X163909143Y-111084899D01*
X163770169Y-111041879D01*
X163770166Y-111041878D01*
X163767254Y-111040977D01*
X163764221Y-111040658D01*
X163764220Y-111040658D01*
X163711660Y-111035134D01*
X163562369Y-111019443D01*
X163559336Y-111019719D01*
X163559332Y-111019719D01*
X163446436Y-111029993D01*
X163357203Y-111038114D01*
X163354270Y-111038977D01*
X163354266Y-111038978D01*
X163204005Y-111083203D01*
X163159572Y-111096280D01*
X162977002Y-111191726D01*
X162816447Y-111320815D01*
X162684024Y-111478630D01*
X162584776Y-111659162D01*
X162522484Y-111855532D01*
X162522143Y-111858570D01*
X162522143Y-111858571D01*
X162502438Y-112034251D01*
X162499520Y-112060262D01*
X162500758Y-112075000D01*
X162516272Y-112259748D01*
X162516759Y-112265553D01*
X162573544Y-112463586D01*
X162574939Y-112466300D01*
X162574942Y-112466308D01*
X162597705Y-112510599D01*
X162601625Y-112558273D01*
X162586311Y-112583362D01*
X162173480Y-112996194D01*
X162129286Y-113014500D01*
X157536942Y-113014500D01*
X157531495Y-113014262D01*
X157526934Y-113013863D01*
X157491194Y-113010736D01*
X157460304Y-113019013D01*
X157424745Y-113016681D01*
X157424503Y-113017584D01*
X157420548Y-113016524D01*
X157416762Y-113014956D01*
X157412700Y-113014421D01*
X157412699Y-113014421D01*
X157264064Y-112994853D01*
X157260000Y-112994318D01*
X157255936Y-112994853D01*
X157107301Y-113014421D01*
X157107300Y-113014421D01*
X157103238Y-113014956D01*
X157099453Y-113016524D01*
X157099452Y-113016524D01*
X156999881Y-113057768D01*
X156957159Y-113075464D01*
X156831718Y-113171718D01*
X156735464Y-113297159D01*
X156733897Y-113300942D01*
X156713946Y-113349109D01*
X156674956Y-113443238D01*
X156663445Y-113530677D01*
X156660880Y-113550158D01*
X156636963Y-113591584D01*
X156598915Y-113604500D01*
X155795524Y-113604500D01*
X155751330Y-113586194D01*
X155735692Y-113560065D01*
X155726819Y-113530677D01*
X155725935Y-113527749D01*
X155651881Y-113388472D01*
X155630653Y-113348547D01*
X155630651Y-113348544D01*
X155629218Y-113345849D01*
X155499011Y-113186200D01*
X155340275Y-113054882D01*
X155159055Y-112956897D01*
X155068414Y-112928839D01*
X154965169Y-112896879D01*
X154965166Y-112896878D01*
X154962254Y-112895977D01*
X154959221Y-112895658D01*
X154959220Y-112895658D01*
X154906660Y-112890134D01*
X154757369Y-112874443D01*
X154754336Y-112874719D01*
X154754332Y-112874719D01*
X154641436Y-112884993D01*
X154552203Y-112893114D01*
X154549270Y-112893977D01*
X154549266Y-112893978D01*
X154430820Y-112928839D01*
X154354572Y-112951280D01*
X154172002Y-113046726D01*
X154011447Y-113175815D01*
X153879024Y-113333630D01*
X153779776Y-113514162D01*
X153717484Y-113710532D01*
X153717143Y-113713570D01*
X153717143Y-113713571D01*
X153696338Y-113899058D01*
X153694520Y-113915262D01*
X146850500Y-113915262D01*
X146850500Y-112830252D01*
X146846367Y-112809474D01*
X146840068Y-112777805D01*
X146840067Y-112777803D01*
X146838867Y-112771769D01*
X146834520Y-112765262D01*
X146797969Y-112710562D01*
X146794552Y-112705448D01*
X146761663Y-112683472D01*
X146733347Y-112664551D01*
X146733345Y-112664550D01*
X146728231Y-112661133D01*
X146722197Y-112659933D01*
X146722195Y-112659932D01*
X146672761Y-112650099D01*
X146672758Y-112650099D01*
X146669748Y-112649500D01*
X144930252Y-112649500D01*
X144927242Y-112650099D01*
X144927239Y-112650099D01*
X144877805Y-112659932D01*
X144877803Y-112659933D01*
X144871769Y-112661133D01*
X144866655Y-112664550D01*
X144866653Y-112664551D01*
X144838337Y-112683472D01*
X144805448Y-112705448D01*
X144802031Y-112710562D01*
X144765481Y-112765262D01*
X144761133Y-112771769D01*
X144759933Y-112777803D01*
X144759932Y-112777805D01*
X144753633Y-112809474D01*
X144749500Y-112830252D01*
X144749500Y-114569748D01*
X133297648Y-114569748D01*
X129187330Y-111633807D01*
X134995736Y-111633807D01*
X134997151Y-111639087D01*
X134997151Y-111639089D01*
X135006207Y-111672883D01*
X135007387Y-111678204D01*
X135014412Y-111718045D01*
X135017145Y-111722779D01*
X135017147Y-111722784D01*
X135017568Y-111723513D01*
X135023812Y-111738586D01*
X135025446Y-111744684D01*
X135028580Y-111749159D01*
X135028580Y-111749160D01*
X135048650Y-111777822D01*
X135051575Y-111782414D01*
X135071806Y-111817455D01*
X135075995Y-111820970D01*
X135102802Y-111843464D01*
X135106822Y-111847148D01*
X135529961Y-112270287D01*
X135548267Y-112314481D01*
X135540537Y-112344588D01*
X135529776Y-112364162D01*
X135467484Y-112560532D01*
X135467143Y-112563570D01*
X135467143Y-112563571D01*
X135450656Y-112710562D01*
X135444520Y-112765262D01*
X135445758Y-112780000D01*
X135461241Y-112964382D01*
X135461759Y-112970553D01*
X135518544Y-113168586D01*
X135612712Y-113351818D01*
X135614603Y-113354204D01*
X135614605Y-113354207D01*
X135643598Y-113390787D01*
X135740677Y-113513270D01*
X135743007Y-113515253D01*
X135889061Y-113639554D01*
X135897564Y-113646791D01*
X136077398Y-113747297D01*
X136080302Y-113748241D01*
X136080303Y-113748241D01*
X136270416Y-113810013D01*
X136270421Y-113810014D01*
X136273329Y-113810959D01*
X136276370Y-113811322D01*
X136276372Y-113811322D01*
X136338442Y-113818723D01*
X136477894Y-113835351D01*
X136480936Y-113835117D01*
X136480939Y-113835117D01*
X136680249Y-113819781D01*
X136680251Y-113819781D01*
X136683300Y-113819546D01*
X136881725Y-113764145D01*
X136884448Y-113762770D01*
X136884452Y-113762768D01*
X137062890Y-113672632D01*
X137065610Y-113671258D01*
X137068008Y-113669385D01*
X137068012Y-113669382D01*
X137165528Y-113593194D01*
X137227951Y-113544424D01*
X137242345Y-113527749D01*
X137311785Y-113447300D01*
X137362564Y-113388472D01*
X137464323Y-113209344D01*
X137529351Y-113013863D01*
X137531753Y-112994853D01*
X137554951Y-112811216D01*
X137554951Y-112811215D01*
X137555171Y-112809474D01*
X137555583Y-112780000D01*
X137555414Y-112778280D01*
X137555414Y-112778271D01*
X137535778Y-112578010D01*
X137535480Y-112574970D01*
X137475935Y-112377749D01*
X137416280Y-112265553D01*
X137413193Y-112259748D01*
X153699500Y-112259748D01*
X153700099Y-112262758D01*
X153700099Y-112262761D01*
X153709270Y-112308863D01*
X153711133Y-112318231D01*
X153755448Y-112384552D01*
X153760562Y-112387969D01*
X153816653Y-112425449D01*
X153816655Y-112425450D01*
X153821769Y-112428867D01*
X153827803Y-112430067D01*
X153827805Y-112430068D01*
X153877239Y-112439901D01*
X153877242Y-112439901D01*
X153880252Y-112440500D01*
X155619748Y-112440500D01*
X155622758Y-112439901D01*
X155622761Y-112439901D01*
X155672195Y-112430068D01*
X155672197Y-112430067D01*
X155678231Y-112428867D01*
X155683345Y-112425450D01*
X155683347Y-112425449D01*
X155739438Y-112387969D01*
X155744552Y-112384552D01*
X155788867Y-112318231D01*
X155790731Y-112308863D01*
X155799901Y-112262761D01*
X155799901Y-112262758D01*
X155800500Y-112259748D01*
X155800500Y-110520252D01*
X155799901Y-110517239D01*
X155790068Y-110467805D01*
X155790067Y-110467803D01*
X155788867Y-110461769D01*
X155744552Y-110395448D01*
X155727680Y-110384174D01*
X155683347Y-110354551D01*
X155683345Y-110354550D01*
X155678231Y-110351133D01*
X155672197Y-110349933D01*
X155672195Y-110349932D01*
X155622761Y-110340099D01*
X155622758Y-110340099D01*
X155619748Y-110339500D01*
X153880252Y-110339500D01*
X153877242Y-110340099D01*
X153877239Y-110340099D01*
X153827805Y-110349932D01*
X153827803Y-110349933D01*
X153821769Y-110351133D01*
X153816655Y-110354550D01*
X153816653Y-110354551D01*
X153772320Y-110384174D01*
X153755448Y-110395448D01*
X153711133Y-110461769D01*
X153709933Y-110467803D01*
X153709932Y-110467805D01*
X153700099Y-110517239D01*
X153699500Y-110520252D01*
X153699500Y-112259748D01*
X137413193Y-112259748D01*
X137380653Y-112198547D01*
X137380651Y-112198544D01*
X137379218Y-112195849D01*
X137249011Y-112036200D01*
X137090275Y-111904882D01*
X136909055Y-111806897D01*
X136815129Y-111777822D01*
X136715169Y-111746879D01*
X136715166Y-111746878D01*
X136712254Y-111745977D01*
X136709221Y-111745658D01*
X136709220Y-111745658D01*
X136641932Y-111738586D01*
X136507369Y-111724443D01*
X136504336Y-111724719D01*
X136504332Y-111724719D01*
X136391436Y-111734993D01*
X136302203Y-111743114D01*
X136299270Y-111743977D01*
X136299266Y-111743978D01*
X136107506Y-111800416D01*
X136107502Y-111800418D01*
X136104572Y-111801280D01*
X136064507Y-111822226D01*
X136016862Y-111826478D01*
X135991358Y-111811032D01*
X135668806Y-111488480D01*
X135650500Y-111444286D01*
X135650500Y-111031785D01*
X135668806Y-110987591D01*
X135713000Y-110969285D01*
X135753507Y-110984189D01*
X135827222Y-111046925D01*
X135893526Y-111103354D01*
X135897564Y-111106791D01*
X136077398Y-111207297D01*
X136080302Y-111208241D01*
X136080303Y-111208241D01*
X136270416Y-111270013D01*
X136270421Y-111270014D01*
X136273329Y-111270959D01*
X136276370Y-111271322D01*
X136276372Y-111271322D01*
X136338442Y-111278723D01*
X136477894Y-111295351D01*
X136480936Y-111295117D01*
X136480939Y-111295117D01*
X136680249Y-111279781D01*
X136680251Y-111279781D01*
X136683300Y-111279546D01*
X136881725Y-111224145D01*
X136884448Y-111222770D01*
X136884452Y-111222768D01*
X137062890Y-111132632D01*
X137065610Y-111131258D01*
X137068008Y-111129385D01*
X137068012Y-111129382D01*
X137173552Y-111046925D01*
X137227951Y-111004424D01*
X137243652Y-110986235D01*
X137353049Y-110859495D01*
X137362564Y-110848472D01*
X137464323Y-110669344D01*
X137529351Y-110473863D01*
X137530117Y-110467805D01*
X137554951Y-110271216D01*
X137554951Y-110271215D01*
X137555171Y-110269474D01*
X137555583Y-110240000D01*
X137555414Y-110238280D01*
X137555414Y-110238271D01*
X137535778Y-110038010D01*
X137535480Y-110034970D01*
X137475935Y-109837749D01*
X137379218Y-109655849D01*
X137249011Y-109496200D01*
X137090275Y-109364882D01*
X136909055Y-109266897D01*
X136854143Y-109249899D01*
X136715169Y-109206879D01*
X136715166Y-109206878D01*
X136712254Y-109205977D01*
X136709221Y-109205658D01*
X136709220Y-109205658D01*
X136656660Y-109200134D01*
X136507369Y-109184443D01*
X136504336Y-109184719D01*
X136504332Y-109184719D01*
X136391436Y-109194993D01*
X136302203Y-109203114D01*
X136299270Y-109203977D01*
X136299266Y-109203978D01*
X136149005Y-109248203D01*
X136104572Y-109261280D01*
X135922002Y-109356726D01*
X135761447Y-109485815D01*
X135759480Y-109488159D01*
X135757300Y-109490294D01*
X135756044Y-109489011D01*
X135718442Y-109508582D01*
X135672822Y-109494194D01*
X135650737Y-109451761D01*
X135650500Y-109446319D01*
X135650500Y-108813000D01*
X135668806Y-108768806D01*
X135713000Y-108750500D01*
X137369748Y-108750500D01*
X137372758Y-108749901D01*
X137372761Y-108749901D01*
X137422195Y-108740068D01*
X137422197Y-108740067D01*
X137428231Y-108738867D01*
X137433345Y-108735450D01*
X137433347Y-108735449D01*
X137489438Y-108697969D01*
X137494552Y-108694552D01*
X137538867Y-108628231D01*
X137550500Y-108569748D01*
X137550500Y-106830252D01*
X137548881Y-106822111D01*
X137540068Y-106777805D01*
X137540067Y-106777803D01*
X137538867Y-106771769D01*
X137494552Y-106705448D01*
X137451198Y-106676479D01*
X137433347Y-106664551D01*
X137433345Y-106664550D01*
X137428231Y-106661133D01*
X137422197Y-106659933D01*
X137422195Y-106659932D01*
X137372761Y-106650099D01*
X137372758Y-106650099D01*
X137369748Y-106649500D01*
X135713000Y-106649500D01*
X135668806Y-106631194D01*
X135650500Y-106587000D01*
X135650500Y-106535714D01*
X135668806Y-106491520D01*
X136785681Y-105374646D01*
X137918186Y-104242141D01*
X137922206Y-104238457D01*
X137949004Y-104215971D01*
X137949005Y-104215970D01*
X137953194Y-104212455D01*
X137973422Y-104177419D01*
X137976344Y-104172832D01*
X137999554Y-104139684D01*
X138000967Y-104134409D01*
X138000970Y-104134404D01*
X138001190Y-104133581D01*
X138007430Y-104118516D01*
X138007853Y-104117783D01*
X138007853Y-104117782D01*
X138010588Y-104113045D01*
X138012396Y-104102795D01*
X138017612Y-104073212D01*
X138018791Y-104067891D01*
X138027849Y-104034085D01*
X138027849Y-104034084D01*
X138029263Y-104028807D01*
X138028552Y-104020674D01*
X138025738Y-103988514D01*
X138025500Y-103983067D01*
X138025500Y-103510000D01*
X138854318Y-103510000D01*
X138854853Y-103514064D01*
X138865915Y-103598085D01*
X138874956Y-103666762D01*
X138876524Y-103670547D01*
X138876524Y-103670548D01*
X138893095Y-103710553D01*
X138935464Y-103812841D01*
X139031718Y-103938282D01*
X139157159Y-104034536D01*
X139160942Y-104036103D01*
X139299452Y-104093476D01*
X139299453Y-104093476D01*
X139303238Y-104095044D01*
X139307300Y-104095579D01*
X139307301Y-104095579D01*
X139455936Y-104115147D01*
X139460000Y-104115682D01*
X139557888Y-104102795D01*
X139604094Y-104115175D01*
X139610240Y-104120566D01*
X139637854Y-104148180D01*
X139641538Y-104152200D01*
X139667545Y-104183194D01*
X139702586Y-104203425D01*
X139707178Y-104206350D01*
X139740316Y-104229554D01*
X139745593Y-104230968D01*
X139745595Y-104230969D01*
X139746414Y-104231188D01*
X139761487Y-104237432D01*
X139762216Y-104237853D01*
X139762221Y-104237855D01*
X139766955Y-104240588D01*
X139806796Y-104247613D01*
X139812117Y-104248793D01*
X139845911Y-104257849D01*
X139845913Y-104257849D01*
X139851193Y-104259264D01*
X139891497Y-104255738D01*
X139896945Y-104255500D01*
X141024687Y-104255500D01*
X141068881Y-104273806D01*
X141087187Y-104318000D01*
X141081850Y-104343272D01*
X141062661Y-104386677D01*
X141052494Y-104409673D01*
X141049500Y-104435354D01*
X141049500Y-104724646D01*
X141052618Y-104750846D01*
X141054520Y-104755128D01*
X141093812Y-104843586D01*
X141098061Y-104853153D01*
X141105745Y-104860824D01*
X141124088Y-104905002D01*
X141105820Y-104949211D01*
X141101837Y-104953201D01*
X141101835Y-104953204D01*
X141097759Y-104957287D01*
X141095427Y-104962561D01*
X141095426Y-104962563D01*
X141060850Y-105040772D01*
X141052494Y-105059673D01*
X141051950Y-105064339D01*
X141049810Y-105082697D01*
X141049500Y-105085354D01*
X141049500Y-105374646D01*
X141052618Y-105400846D01*
X141054520Y-105405128D01*
X141090424Y-105485959D01*
X141098061Y-105503153D01*
X141105745Y-105510824D01*
X141124088Y-105555002D01*
X141105820Y-105599211D01*
X141101837Y-105603201D01*
X141101835Y-105603204D01*
X141097759Y-105607287D01*
X141095427Y-105612561D01*
X141095426Y-105612563D01*
X141054393Y-105705377D01*
X141052494Y-105709673D01*
X141051950Y-105714339D01*
X141049714Y-105733521D01*
X141049500Y-105735354D01*
X141049500Y-106024646D01*
X141052618Y-106050846D01*
X141054520Y-106055128D01*
X141089903Y-106134786D01*
X141098061Y-106153153D01*
X141105745Y-106160824D01*
X141124088Y-106205002D01*
X141105820Y-106249211D01*
X141101837Y-106253201D01*
X141101835Y-106253204D01*
X141097759Y-106257287D01*
X141095427Y-106262561D01*
X141095426Y-106262563D01*
X141054393Y-106355377D01*
X141052494Y-106359673D01*
X141051950Y-106364339D01*
X141049714Y-106383521D01*
X141049500Y-106385354D01*
X141049500Y-106674646D01*
X141052618Y-106700846D01*
X141098061Y-106803153D01*
X141102144Y-106807229D01*
X141173204Y-106878166D01*
X141173207Y-106878168D01*
X141177287Y-106882241D01*
X141182561Y-106884573D01*
X141182563Y-106884574D01*
X141275377Y-106925607D01*
X141275379Y-106925607D01*
X141279673Y-106927506D01*
X141284339Y-106928050D01*
X141303558Y-106930291D01*
X141303565Y-106930291D01*
X141305354Y-106930500D01*
X142669646Y-106930500D01*
X142671477Y-106930282D01*
X142671479Y-106930282D01*
X142691192Y-106927936D01*
X142691193Y-106927936D01*
X142695846Y-106927382D01*
X142798153Y-106881939D01*
X142815492Y-106864570D01*
X142873166Y-106806796D01*
X142873168Y-106806793D01*
X142877241Y-106802713D01*
X142880540Y-106795253D01*
X142920607Y-106704623D01*
X142920607Y-106704621D01*
X142922506Y-106700327D01*
X142923050Y-106695661D01*
X142925291Y-106676442D01*
X142925291Y-106676435D01*
X142925500Y-106674646D01*
X142925500Y-106385354D01*
X142922382Y-106359154D01*
X142893381Y-106293863D01*
X142879281Y-106262119D01*
X142879280Y-106262118D01*
X142876939Y-106256847D01*
X142869255Y-106249176D01*
X142850912Y-106204998D01*
X142869180Y-106160789D01*
X142873163Y-106156799D01*
X142873165Y-106156796D01*
X142877241Y-106152713D01*
X142918895Y-106058496D01*
X142920607Y-106054623D01*
X142920607Y-106054621D01*
X142922506Y-106050327D01*
X142923050Y-106045661D01*
X142925291Y-106026442D01*
X142925291Y-106026435D01*
X142925500Y-106024646D01*
X142925500Y-105735354D01*
X142922382Y-105709154D01*
X142899549Y-105657749D01*
X142879281Y-105612119D01*
X142879280Y-105612118D01*
X142876939Y-105606847D01*
X142869255Y-105599176D01*
X142850912Y-105554998D01*
X142869180Y-105510789D01*
X142873163Y-105506799D01*
X142873165Y-105506796D01*
X142877241Y-105502713D01*
X142881216Y-105493723D01*
X142920607Y-105404623D01*
X142920607Y-105404621D01*
X142922506Y-105400327D01*
X142923096Y-105395266D01*
X142925291Y-105376442D01*
X142925291Y-105376435D01*
X142925500Y-105374646D01*
X142925500Y-105223244D01*
X142943806Y-105179050D01*
X142988000Y-105160744D01*
X143011917Y-105165502D01*
X143044625Y-105179050D01*
X143079452Y-105193476D01*
X143079453Y-105193476D01*
X143083238Y-105195044D01*
X143087300Y-105195579D01*
X143087301Y-105195579D01*
X143235936Y-105215147D01*
X143240000Y-105215682D01*
X143244064Y-105215147D01*
X143392699Y-105195579D01*
X143392700Y-105195579D01*
X143396762Y-105195044D01*
X143400547Y-105193476D01*
X143400548Y-105193476D01*
X143539058Y-105136103D01*
X143542841Y-105134536D01*
X143668282Y-105038282D01*
X143764536Y-104912841D01*
X143792098Y-104846300D01*
X143823476Y-104770548D01*
X143823476Y-104770547D01*
X143825044Y-104766762D01*
X143845682Y-104610000D01*
X143829156Y-104484474D01*
X143825579Y-104457301D01*
X143825579Y-104457300D01*
X143825044Y-104453238D01*
X143808932Y-104414339D01*
X143766103Y-104310942D01*
X143764536Y-104307159D01*
X143668282Y-104181718D01*
X143542841Y-104085464D01*
X143438101Y-104042079D01*
X143400548Y-104026524D01*
X143400547Y-104026524D01*
X143396762Y-104024956D01*
X143392700Y-104024421D01*
X143392699Y-104024421D01*
X143244064Y-104004853D01*
X143240000Y-104004318D01*
X143235936Y-104004853D01*
X143087301Y-104024421D01*
X143087300Y-104024421D01*
X143083238Y-104024956D01*
X143079453Y-104026524D01*
X143079452Y-104026524D01*
X143060110Y-104034536D01*
X143011917Y-104054498D01*
X142964082Y-104054499D01*
X142930258Y-104020674D01*
X142925500Y-103996756D01*
X142925500Y-103785354D01*
X142922382Y-103759154D01*
X142876939Y-103656847D01*
X142846491Y-103626452D01*
X142801796Y-103581834D01*
X142801793Y-103581832D01*
X142797713Y-103577759D01*
X142792439Y-103575427D01*
X142792437Y-103575426D01*
X142699623Y-103534393D01*
X142699621Y-103534393D01*
X142695327Y-103532494D01*
X142690661Y-103531950D01*
X142671442Y-103529709D01*
X142671435Y-103529709D01*
X142669646Y-103529500D01*
X141305354Y-103529500D01*
X141303523Y-103529718D01*
X141303521Y-103529718D01*
X141283808Y-103532064D01*
X141283807Y-103532064D01*
X141279154Y-103532618D01*
X141176847Y-103578061D01*
X141172772Y-103582144D01*
X141172768Y-103582146D01*
X141168765Y-103586156D01*
X141124533Y-103604500D01*
X140124508Y-103604500D01*
X140080314Y-103586194D01*
X140062008Y-103542000D01*
X140062543Y-103533842D01*
X140062721Y-103532494D01*
X140065682Y-103510000D01*
X140045044Y-103353238D01*
X140023213Y-103300532D01*
X139986103Y-103210942D01*
X139984536Y-103207159D01*
X139888282Y-103081718D01*
X139762841Y-102985464D01*
X139693932Y-102956921D01*
X139620548Y-102926524D01*
X139620547Y-102926524D01*
X139616762Y-102924956D01*
X139612700Y-102924421D01*
X139612699Y-102924421D01*
X139464064Y-102904853D01*
X139460000Y-102904318D01*
X139455936Y-102904853D01*
X139307301Y-102924421D01*
X139307300Y-102924421D01*
X139303238Y-102924956D01*
X139299453Y-102926524D01*
X139299452Y-102926524D01*
X139226068Y-102956921D01*
X139157159Y-102985464D01*
X139031718Y-103081718D01*
X138935464Y-103207159D01*
X138933897Y-103210942D01*
X138896788Y-103300532D01*
X138874956Y-103353238D01*
X138854318Y-103510000D01*
X138025500Y-103510000D01*
X138025500Y-102774646D01*
X141049500Y-102774646D01*
X141049718Y-102776477D01*
X141049718Y-102776479D01*
X141052001Y-102795661D01*
X141052618Y-102800846D01*
X141098061Y-102903153D01*
X141102144Y-102907229D01*
X141173204Y-102978166D01*
X141173207Y-102978168D01*
X141177287Y-102982241D01*
X141182561Y-102984573D01*
X141182563Y-102984574D01*
X141275377Y-103025607D01*
X141275379Y-103025607D01*
X141279673Y-103027506D01*
X141284339Y-103028050D01*
X141303558Y-103030291D01*
X141303565Y-103030291D01*
X141305354Y-103030500D01*
X142669646Y-103030500D01*
X142671477Y-103030282D01*
X142671479Y-103030282D01*
X142691192Y-103027936D01*
X142691193Y-103027936D01*
X142695846Y-103027382D01*
X142798153Y-102981939D01*
X142809721Y-102970351D01*
X142873166Y-102906796D01*
X142873168Y-102906793D01*
X142877241Y-102902713D01*
X142881978Y-102892000D01*
X142920607Y-102804623D01*
X142920607Y-102804621D01*
X142922506Y-102800327D01*
X142923050Y-102795661D01*
X142925291Y-102776442D01*
X142925291Y-102776435D01*
X142925500Y-102774646D01*
X142925500Y-102485354D01*
X142925234Y-102483114D01*
X142922936Y-102463808D01*
X142922936Y-102463807D01*
X142922382Y-102459154D01*
X142876939Y-102356847D01*
X142846802Y-102326762D01*
X142801796Y-102281834D01*
X142801793Y-102281832D01*
X142797713Y-102277759D01*
X142792439Y-102275427D01*
X142792437Y-102275426D01*
X142699623Y-102234393D01*
X142699621Y-102234393D01*
X142695327Y-102232494D01*
X142690661Y-102231950D01*
X142671442Y-102229709D01*
X142671435Y-102229709D01*
X142669646Y-102229500D01*
X141305354Y-102229500D01*
X141303523Y-102229718D01*
X141303521Y-102229718D01*
X141283808Y-102232064D01*
X141283807Y-102232064D01*
X141279154Y-102232618D01*
X141176847Y-102278061D01*
X141172771Y-102282144D01*
X141101834Y-102353204D01*
X141101832Y-102353207D01*
X141097759Y-102357287D01*
X141095427Y-102362561D01*
X141095426Y-102362563D01*
X141054547Y-102455029D01*
X141052494Y-102459673D01*
X141051950Y-102464339D01*
X141049714Y-102483521D01*
X141049500Y-102485354D01*
X141049500Y-102774646D01*
X138025500Y-102774646D01*
X138025500Y-101160714D01*
X138043806Y-101116520D01*
X140816520Y-98343806D01*
X140860714Y-98325500D01*
X140962029Y-98325500D01*
X141006223Y-98343806D01*
X141011611Y-98349948D01*
X141071718Y-98428282D01*
X141197159Y-98524536D01*
X141200942Y-98526103D01*
X141339452Y-98583476D01*
X141339453Y-98583476D01*
X141343238Y-98585044D01*
X141347300Y-98585579D01*
X141347301Y-98585579D01*
X141495936Y-98605147D01*
X141500000Y-98605682D01*
X141504064Y-98605147D01*
X141652699Y-98585579D01*
X141652700Y-98585579D01*
X141656762Y-98585044D01*
X141660547Y-98583476D01*
X141660548Y-98583476D01*
X141799058Y-98526103D01*
X141802841Y-98524536D01*
X141928282Y-98428282D01*
X142024536Y-98302841D01*
X142025713Y-98300000D01*
X142484318Y-98300000D01*
X142484853Y-98304064D01*
X142503797Y-98447955D01*
X142504956Y-98456762D01*
X142506523Y-98460546D01*
X142506524Y-98460548D01*
X142540146Y-98541718D01*
X142565464Y-98602841D01*
X142661718Y-98728282D01*
X142787159Y-98824536D01*
X142790942Y-98826103D01*
X142929452Y-98883476D01*
X142929453Y-98883476D01*
X142933238Y-98885044D01*
X142937300Y-98885579D01*
X142937301Y-98885579D01*
X143040586Y-98899177D01*
X143076622Y-98916948D01*
X143867854Y-99708180D01*
X143871538Y-99712200D01*
X143897545Y-99743194D01*
X143932586Y-99763425D01*
X143937178Y-99766350D01*
X143964471Y-99785461D01*
X143970316Y-99789554D01*
X143975593Y-99790968D01*
X143975595Y-99790969D01*
X143976414Y-99791188D01*
X143991487Y-99797432D01*
X143992216Y-99797853D01*
X143992221Y-99797855D01*
X143996955Y-99800588D01*
X144036796Y-99807613D01*
X144042117Y-99808793D01*
X144075911Y-99817849D01*
X144075913Y-99817849D01*
X144081193Y-99819264D01*
X144121497Y-99815738D01*
X144126945Y-99815500D01*
X145819286Y-99815500D01*
X145863480Y-99833806D01*
X146337721Y-100308047D01*
X146356027Y-100352241D01*
X146337721Y-100396435D01*
X146293527Y-100414741D01*
X146269609Y-100409983D01*
X146140548Y-100356524D01*
X146140547Y-100356524D01*
X146136762Y-100354956D01*
X146132700Y-100354421D01*
X146132699Y-100354421D01*
X145984064Y-100334853D01*
X145980000Y-100334318D01*
X145975936Y-100334853D01*
X145827301Y-100354421D01*
X145827300Y-100354421D01*
X145823238Y-100354956D01*
X145819453Y-100356524D01*
X145819452Y-100356524D01*
X145700106Y-100405959D01*
X145677159Y-100415464D01*
X145551718Y-100511718D01*
X145455464Y-100637159D01*
X145394956Y-100783238D01*
X145394421Y-100787300D01*
X145394421Y-100787301D01*
X145384006Y-100866414D01*
X145374318Y-100940000D01*
X145374853Y-100944064D01*
X145383540Y-101010045D01*
X145394956Y-101096762D01*
X145396524Y-101100547D01*
X145396524Y-101100548D01*
X145432918Y-101188411D01*
X145455464Y-101242841D01*
X145457955Y-101246087D01*
X145529265Y-101339020D01*
X145551718Y-101368282D01*
X145630048Y-101428387D01*
X145653965Y-101469813D01*
X145654500Y-101477971D01*
X145654500Y-101604405D01*
X145636194Y-101648599D01*
X145592000Y-101666905D01*
X145553952Y-101653989D01*
X145546092Y-101647958D01*
X145546087Y-101647955D01*
X145542841Y-101645464D01*
X145443716Y-101604405D01*
X145400548Y-101586524D01*
X145400547Y-101586524D01*
X145396762Y-101584956D01*
X145392700Y-101584421D01*
X145392699Y-101584421D01*
X145244064Y-101564853D01*
X145240000Y-101564318D01*
X145235936Y-101564853D01*
X145087301Y-101584421D01*
X145087300Y-101584421D01*
X145083238Y-101584956D01*
X145079453Y-101586524D01*
X145079452Y-101586524D01*
X145036284Y-101604405D01*
X144937159Y-101645464D01*
X144811718Y-101741718D01*
X144715464Y-101867159D01*
X144713897Y-101870942D01*
X144695648Y-101915000D01*
X144654956Y-102013238D01*
X144654421Y-102017300D01*
X144654421Y-102017301D01*
X144637499Y-102145834D01*
X144634318Y-102170000D01*
X144634853Y-102174064D01*
X144648198Y-102275426D01*
X144654956Y-102326762D01*
X144656524Y-102330547D01*
X144656524Y-102330548D01*
X144667600Y-102357287D01*
X144715464Y-102472841D01*
X144750825Y-102518924D01*
X144801869Y-102585446D01*
X144811718Y-102598282D01*
X144890048Y-102658387D01*
X144913965Y-102699813D01*
X144914500Y-102707971D01*
X144914500Y-102869455D01*
X144914262Y-102874902D01*
X144910736Y-102915203D01*
X144912151Y-102920483D01*
X144912151Y-102920485D01*
X144921207Y-102954279D01*
X144922387Y-102959600D01*
X144929412Y-102999441D01*
X144932145Y-103004175D01*
X144932147Y-103004180D01*
X144932568Y-103004909D01*
X144938812Y-103019982D01*
X144940446Y-103026080D01*
X144943580Y-103030555D01*
X144943580Y-103030556D01*
X144963650Y-103059218D01*
X144966575Y-103063810D01*
X144986806Y-103098851D01*
X144990995Y-103102366D01*
X145017802Y-103124860D01*
X145021822Y-103128544D01*
X146691458Y-104798180D01*
X146695142Y-104802200D01*
X146721149Y-104833194D01*
X146756190Y-104853425D01*
X146760782Y-104856350D01*
X146762035Y-104857227D01*
X146792228Y-104878369D01*
X146793920Y-104879554D01*
X146793657Y-104879929D01*
X146823503Y-104912498D01*
X146821936Y-104959148D01*
X146788386Y-105035037D01*
X146777494Y-105059673D01*
X146776950Y-105064339D01*
X146774810Y-105082697D01*
X146774500Y-105085354D01*
X146774500Y-105374646D01*
X146777618Y-105400846D01*
X146779520Y-105405128D01*
X146815424Y-105485959D01*
X146823061Y-105503153D01*
X146830745Y-105510824D01*
X146849088Y-105555002D01*
X146830820Y-105599211D01*
X146826837Y-105603201D01*
X146826835Y-105603204D01*
X146822759Y-105607287D01*
X146820427Y-105612561D01*
X146820426Y-105612563D01*
X146779393Y-105705377D01*
X146777494Y-105709673D01*
X146776950Y-105714339D01*
X146774714Y-105733521D01*
X146774500Y-105735354D01*
X146774500Y-106024646D01*
X146777618Y-106050846D01*
X146779520Y-106055128D01*
X146814903Y-106134786D01*
X146823061Y-106153153D01*
X146830745Y-106160824D01*
X146849088Y-106205002D01*
X146830820Y-106249211D01*
X146826837Y-106253201D01*
X146826835Y-106253204D01*
X146822759Y-106257287D01*
X146820427Y-106262561D01*
X146820426Y-106262563D01*
X146779393Y-106355377D01*
X146777494Y-106359673D01*
X146776950Y-106364339D01*
X146774714Y-106383521D01*
X146774500Y-106385354D01*
X146774500Y-106674646D01*
X146777618Y-106700846D01*
X146823061Y-106803153D01*
X146827144Y-106807229D01*
X146898204Y-106878166D01*
X146898207Y-106878168D01*
X146902287Y-106882241D01*
X146907561Y-106884573D01*
X146907563Y-106884574D01*
X147000377Y-106925607D01*
X147000379Y-106925607D01*
X147004673Y-106927506D01*
X147009339Y-106928050D01*
X147028558Y-106930291D01*
X147028565Y-106930291D01*
X147030354Y-106930500D01*
X148394646Y-106930500D01*
X148396477Y-106930282D01*
X148396479Y-106930282D01*
X148416192Y-106927936D01*
X148416193Y-106927936D01*
X148420846Y-106927382D01*
X148523153Y-106881939D01*
X148540492Y-106864570D01*
X148598166Y-106806796D01*
X148598168Y-106806793D01*
X148602241Y-106802713D01*
X148605540Y-106795253D01*
X148645607Y-106704623D01*
X148645607Y-106704621D01*
X148647506Y-106700327D01*
X148648050Y-106695661D01*
X148650291Y-106676442D01*
X148650291Y-106676435D01*
X148650500Y-106674646D01*
X148650500Y-106385354D01*
X148647382Y-106359154D01*
X148618381Y-106293863D01*
X148604281Y-106262119D01*
X148604280Y-106262118D01*
X148601939Y-106256847D01*
X148594255Y-106249176D01*
X148575912Y-106204998D01*
X148594180Y-106160789D01*
X148598163Y-106156799D01*
X148598165Y-106156796D01*
X148602241Y-106152713D01*
X148643895Y-106058496D01*
X148645607Y-106054623D01*
X148645607Y-106054621D01*
X148647506Y-106050327D01*
X148648050Y-106045661D01*
X148650291Y-106026442D01*
X148650291Y-106026435D01*
X148650500Y-106024646D01*
X148650500Y-105735354D01*
X148647382Y-105709154D01*
X148624549Y-105657749D01*
X148604281Y-105612119D01*
X148604280Y-105612118D01*
X148601939Y-105606847D01*
X148594255Y-105599176D01*
X148575912Y-105554998D01*
X148594180Y-105510789D01*
X148598163Y-105506799D01*
X148598165Y-105506796D01*
X148602241Y-105502713D01*
X148606216Y-105493723D01*
X148645607Y-105404623D01*
X148645607Y-105404621D01*
X148647506Y-105400327D01*
X148648096Y-105395266D01*
X148650291Y-105376442D01*
X148650291Y-105376435D01*
X148650500Y-105374646D01*
X148650500Y-105273873D01*
X148668806Y-105229679D01*
X148707550Y-105211611D01*
X148712284Y-105211197D01*
X148717529Y-105210738D01*
X148722974Y-105210500D01*
X153354286Y-105210500D01*
X153398480Y-105228806D01*
X153719961Y-105550287D01*
X153738267Y-105594481D01*
X153730537Y-105624588D01*
X153719776Y-105644162D01*
X153657484Y-105840532D01*
X153657143Y-105843570D01*
X153657143Y-105843571D01*
X153637036Y-106022834D01*
X153634520Y-106045262D01*
X153635631Y-106058496D01*
X153650992Y-106241414D01*
X153651759Y-106250553D01*
X153677669Y-106340911D01*
X153690413Y-106385354D01*
X153708544Y-106448586D01*
X153802712Y-106631818D01*
X153804603Y-106634204D01*
X153804605Y-106634207D01*
X153887109Y-106738300D01*
X153930677Y-106793270D01*
X153933007Y-106795253D01*
X153970591Y-106827239D01*
X154087564Y-106926791D01*
X154267398Y-107027297D01*
X154270302Y-107028241D01*
X154270303Y-107028241D01*
X154460416Y-107090013D01*
X154460421Y-107090014D01*
X154463329Y-107090959D01*
X154466370Y-107091322D01*
X154466372Y-107091322D01*
X154528442Y-107098723D01*
X154667894Y-107115351D01*
X154670936Y-107115117D01*
X154670939Y-107115117D01*
X154870249Y-107099781D01*
X154870251Y-107099781D01*
X154873300Y-107099546D01*
X155071725Y-107044145D01*
X155074448Y-107042770D01*
X155074452Y-107042768D01*
X155252890Y-106952632D01*
X155255610Y-106951258D01*
X155258008Y-106949385D01*
X155258012Y-106949382D01*
X155366566Y-106864570D01*
X155417951Y-106824424D01*
X155432794Y-106807229D01*
X155520647Y-106705448D01*
X155552564Y-106668472D01*
X155654323Y-106489344D01*
X155719351Y-106293863D01*
X155724442Y-106253569D01*
X155744951Y-106091216D01*
X155744951Y-106091215D01*
X155745171Y-106089474D01*
X155745583Y-106060000D01*
X155745414Y-106058280D01*
X155745414Y-106058271D01*
X155744138Y-106045262D01*
X156174520Y-106045262D01*
X156175631Y-106058496D01*
X156190992Y-106241414D01*
X156191759Y-106250553D01*
X156217669Y-106340911D01*
X156230413Y-106385354D01*
X156248544Y-106448586D01*
X156342712Y-106631818D01*
X156344603Y-106634204D01*
X156344605Y-106634207D01*
X156427109Y-106738300D01*
X156470677Y-106793270D01*
X156473007Y-106795253D01*
X156510591Y-106827239D01*
X156627564Y-106926791D01*
X156807398Y-107027297D01*
X156810302Y-107028241D01*
X156810303Y-107028241D01*
X157000416Y-107090013D01*
X157000421Y-107090014D01*
X157003329Y-107090959D01*
X157006370Y-107091322D01*
X157006372Y-107091322D01*
X157068442Y-107098723D01*
X157207894Y-107115351D01*
X157210936Y-107115117D01*
X157210939Y-107115117D01*
X157410249Y-107099781D01*
X157410251Y-107099781D01*
X157413300Y-107099546D01*
X157611725Y-107044145D01*
X157614448Y-107042770D01*
X157614452Y-107042768D01*
X157792890Y-106952632D01*
X157795610Y-106951258D01*
X157798008Y-106949385D01*
X157798012Y-106949382D01*
X157906566Y-106864570D01*
X157957951Y-106824424D01*
X157972794Y-106807229D01*
X158060647Y-106705448D01*
X158092564Y-106668472D01*
X158194323Y-106489344D01*
X158259351Y-106293863D01*
X158264442Y-106253569D01*
X158284951Y-106091216D01*
X158284951Y-106091215D01*
X158285171Y-106089474D01*
X158285583Y-106060000D01*
X158285414Y-106058280D01*
X158285414Y-106058271D01*
X158265778Y-105858010D01*
X158265480Y-105854970D01*
X158205935Y-105657749D01*
X158127563Y-105510351D01*
X158110653Y-105478547D01*
X158110651Y-105478544D01*
X158109218Y-105475849D01*
X157979011Y-105316200D01*
X157820275Y-105184882D01*
X157639055Y-105086897D01*
X157563381Y-105063472D01*
X157445169Y-105026879D01*
X157445166Y-105026878D01*
X157442254Y-105025977D01*
X157439221Y-105025658D01*
X157439220Y-105025658D01*
X157386660Y-105020134D01*
X157237369Y-105004443D01*
X157234336Y-105004719D01*
X157234332Y-105004719D01*
X157121436Y-105014993D01*
X157032203Y-105023114D01*
X157029270Y-105023977D01*
X157029266Y-105023978D01*
X156887213Y-105065787D01*
X156834572Y-105081280D01*
X156652002Y-105176726D01*
X156491447Y-105305815D01*
X156359024Y-105463630D01*
X156333080Y-105510823D01*
X156277148Y-105612563D01*
X156259776Y-105644162D01*
X156197484Y-105840532D01*
X156197143Y-105843570D01*
X156197143Y-105843571D01*
X156177036Y-106022834D01*
X156174520Y-106045262D01*
X155744138Y-106045262D01*
X155725778Y-105858010D01*
X155725480Y-105854970D01*
X155665935Y-105657749D01*
X155587563Y-105510351D01*
X155570653Y-105478547D01*
X155570651Y-105478544D01*
X155569218Y-105475849D01*
X155439011Y-105316200D01*
X155280275Y-105184882D01*
X155099055Y-105086897D01*
X155023381Y-105063472D01*
X154905169Y-105026879D01*
X154905166Y-105026878D01*
X154902254Y-105025977D01*
X154899221Y-105025658D01*
X154899220Y-105025658D01*
X154846660Y-105020134D01*
X154697369Y-105004443D01*
X154694336Y-105004719D01*
X154694332Y-105004719D01*
X154581436Y-105014993D01*
X154492203Y-105023114D01*
X154489270Y-105023977D01*
X154489266Y-105023978D01*
X154297506Y-105080416D01*
X154297502Y-105080418D01*
X154294572Y-105081280D01*
X154254507Y-105102226D01*
X154206862Y-105106478D01*
X154181358Y-105091032D01*
X153757146Y-104666820D01*
X153753462Y-104662800D01*
X153730970Y-104635995D01*
X153727455Y-104631806D01*
X153692414Y-104611575D01*
X153687822Y-104608650D01*
X153659160Y-104588580D01*
X153659159Y-104588580D01*
X153654684Y-104585446D01*
X153649407Y-104584032D01*
X153649405Y-104584031D01*
X153648586Y-104583812D01*
X153633513Y-104577568D01*
X153632784Y-104577147D01*
X153632779Y-104577145D01*
X153628045Y-104574412D01*
X153588204Y-104567387D01*
X153582883Y-104566207D01*
X153549089Y-104557151D01*
X153549087Y-104557151D01*
X153543807Y-104555736D01*
X153509667Y-104558723D01*
X153503506Y-104559262D01*
X153498059Y-104559500D01*
X152684489Y-104559500D01*
X152640295Y-104541194D01*
X152621989Y-104497000D01*
X152640295Y-104452806D01*
X152656309Y-104441213D01*
X152671464Y-104433558D01*
X152715610Y-104411258D01*
X152718008Y-104409385D01*
X152718012Y-104409382D01*
X152844009Y-104310942D01*
X152877951Y-104284424D01*
X152887117Y-104273806D01*
X152930980Y-104222989D01*
X153012564Y-104128472D01*
X153081115Y-104007801D01*
X153112811Y-103952006D01*
X153112812Y-103952004D01*
X153114323Y-103949344D01*
X153179351Y-103753863D01*
X153181676Y-103735463D01*
X153204951Y-103551216D01*
X153204951Y-103551215D01*
X153205171Y-103549474D01*
X153205252Y-103543743D01*
X153205559Y-103521739D01*
X153205559Y-103521733D01*
X153205583Y-103520000D01*
X153205414Y-103518280D01*
X153205414Y-103518271D01*
X153185778Y-103318010D01*
X153185480Y-103314970D01*
X153125935Y-103117749D01*
X153077952Y-103027506D01*
X153030653Y-102938547D01*
X153030651Y-102938544D01*
X153029218Y-102935849D01*
X152899011Y-102776200D01*
X152898479Y-102775760D01*
X152880556Y-102732058D01*
X152899018Y-102687929D01*
X152943056Y-102669778D01*
X153353564Y-102669778D01*
X153397758Y-102688084D01*
X153719961Y-103010287D01*
X153738267Y-103054481D01*
X153730537Y-103084588D01*
X153719776Y-103104162D01*
X153657484Y-103300532D01*
X153657143Y-103303570D01*
X153657143Y-103303571D01*
X153634864Y-103502198D01*
X153634520Y-103505262D01*
X153635631Y-103518495D01*
X153648577Y-103672657D01*
X153651759Y-103710553D01*
X153657256Y-103729724D01*
X153696096Y-103865173D01*
X153708544Y-103908586D01*
X153802712Y-104091818D01*
X153804603Y-104094204D01*
X153804605Y-104094207D01*
X153876538Y-104184963D01*
X153930677Y-104253270D01*
X153933007Y-104255253D01*
X154058663Y-104362194D01*
X154087564Y-104386791D01*
X154267398Y-104487297D01*
X154270302Y-104488241D01*
X154270303Y-104488241D01*
X154460416Y-104550013D01*
X154460421Y-104550014D01*
X154463329Y-104550959D01*
X154466370Y-104551322D01*
X154466372Y-104551322D01*
X154582614Y-104565182D01*
X154667894Y-104575351D01*
X154670936Y-104575117D01*
X154670939Y-104575117D01*
X154870249Y-104559781D01*
X154870251Y-104559781D01*
X154873300Y-104559546D01*
X155071725Y-104504145D01*
X155074448Y-104502770D01*
X155074452Y-104502768D01*
X155252890Y-104412632D01*
X155255610Y-104411258D01*
X155258008Y-104409385D01*
X155258012Y-104409382D01*
X155283142Y-104389748D01*
X156179500Y-104389748D01*
X156180099Y-104392758D01*
X156180099Y-104392761D01*
X156188943Y-104437220D01*
X156191133Y-104448231D01*
X156194550Y-104453345D01*
X156194551Y-104453347D01*
X156201229Y-104463341D01*
X156235448Y-104514552D01*
X156240562Y-104517969D01*
X156296653Y-104555449D01*
X156296655Y-104555450D01*
X156301769Y-104558867D01*
X156307803Y-104560067D01*
X156307805Y-104560068D01*
X156357239Y-104569901D01*
X156357242Y-104569901D01*
X156360252Y-104570500D01*
X158099748Y-104570500D01*
X158102758Y-104569901D01*
X158102761Y-104569901D01*
X158152195Y-104560068D01*
X158152197Y-104560067D01*
X158158231Y-104558867D01*
X158163345Y-104555450D01*
X158163347Y-104555449D01*
X158219438Y-104517969D01*
X158224552Y-104514552D01*
X158258771Y-104463341D01*
X158265449Y-104453347D01*
X158265450Y-104453345D01*
X158268867Y-104448231D01*
X158271058Y-104437220D01*
X158279901Y-104392761D01*
X158279901Y-104392758D01*
X158280500Y-104389748D01*
X158280500Y-102650252D01*
X158279820Y-102646832D01*
X158270068Y-102597805D01*
X158270067Y-102597803D01*
X158268867Y-102591769D01*
X158258784Y-102576678D01*
X158227969Y-102530562D01*
X158224552Y-102525448D01*
X158174731Y-102492158D01*
X158163347Y-102484551D01*
X158163345Y-102484550D01*
X158158231Y-102481133D01*
X158152197Y-102479933D01*
X158152195Y-102479932D01*
X158102761Y-102470099D01*
X158102758Y-102470099D01*
X158099748Y-102469500D01*
X156360252Y-102469500D01*
X156357242Y-102470099D01*
X156357239Y-102470099D01*
X156307805Y-102479932D01*
X156307803Y-102479933D01*
X156301769Y-102481133D01*
X156296655Y-102484550D01*
X156296653Y-102484551D01*
X156285269Y-102492158D01*
X156235448Y-102525448D01*
X156232031Y-102530562D01*
X156201217Y-102576678D01*
X156191133Y-102591769D01*
X156189933Y-102597803D01*
X156189932Y-102597805D01*
X156180180Y-102646832D01*
X156179500Y-102650252D01*
X156179500Y-104389748D01*
X155283142Y-104389748D01*
X155384009Y-104310942D01*
X155417951Y-104284424D01*
X155427117Y-104273806D01*
X155470980Y-104222989D01*
X155552564Y-104128472D01*
X155621115Y-104007801D01*
X155652811Y-103952006D01*
X155652812Y-103952004D01*
X155654323Y-103949344D01*
X155719351Y-103753863D01*
X155721676Y-103735463D01*
X155744951Y-103551216D01*
X155744951Y-103551215D01*
X155745171Y-103549474D01*
X155745252Y-103543743D01*
X155745559Y-103521739D01*
X155745559Y-103521733D01*
X155745583Y-103520000D01*
X155745414Y-103518280D01*
X155745414Y-103518271D01*
X155725778Y-103318010D01*
X155725480Y-103314970D01*
X155665935Y-103117749D01*
X155617952Y-103027506D01*
X155570653Y-102938547D01*
X155570651Y-102938544D01*
X155569218Y-102935849D01*
X155439011Y-102776200D01*
X155280275Y-102644882D01*
X155099055Y-102546897D01*
X155017224Y-102521566D01*
X154905169Y-102486879D01*
X154905166Y-102486878D01*
X154902254Y-102485977D01*
X154899221Y-102485658D01*
X154899220Y-102485658D01*
X154843940Y-102479848D01*
X154697369Y-102464443D01*
X154694336Y-102464719D01*
X154694332Y-102464719D01*
X154581436Y-102474993D01*
X154492203Y-102483114D01*
X154489270Y-102483977D01*
X154489266Y-102483978D01*
X154297506Y-102540416D01*
X154297502Y-102540418D01*
X154294572Y-102541280D01*
X154254507Y-102562226D01*
X154206862Y-102566478D01*
X154181358Y-102551032D01*
X153756424Y-102126098D01*
X153752740Y-102122078D01*
X153730248Y-102095273D01*
X153726733Y-102091084D01*
X153691692Y-102070853D01*
X153687100Y-102067928D01*
X153658438Y-102047858D01*
X153658437Y-102047858D01*
X153653962Y-102044724D01*
X153648685Y-102043310D01*
X153648683Y-102043309D01*
X153647864Y-102043090D01*
X153632791Y-102036846D01*
X153632062Y-102036425D01*
X153632057Y-102036423D01*
X153627323Y-102033690D01*
X153587482Y-102026665D01*
X153582161Y-102025485D01*
X153548367Y-102016429D01*
X153548365Y-102016429D01*
X153543085Y-102015014D01*
X153504827Y-102018361D01*
X153502784Y-102018540D01*
X153497337Y-102018778D01*
X150811219Y-102018778D01*
X150805772Y-102018540D01*
X150803729Y-102018361D01*
X150765471Y-102015014D01*
X150760191Y-102016429D01*
X150760189Y-102016429D01*
X150726395Y-102025485D01*
X150721074Y-102026665D01*
X150681233Y-102033690D01*
X150676499Y-102036423D01*
X150676494Y-102036425D01*
X150675765Y-102036846D01*
X150660692Y-102043090D01*
X150659873Y-102043309D01*
X150659871Y-102043310D01*
X150654594Y-102044724D01*
X150650119Y-102047858D01*
X150650118Y-102047858D01*
X150621456Y-102067928D01*
X150616864Y-102070853D01*
X150581823Y-102091084D01*
X150578308Y-102095273D01*
X150555814Y-102122080D01*
X150552130Y-102126100D01*
X149742036Y-102936194D01*
X149697842Y-102954500D01*
X149337755Y-102954500D01*
X149293561Y-102936194D01*
X149275255Y-102892000D01*
X149293561Y-102847806D01*
X149448180Y-102693187D01*
X149452200Y-102689503D01*
X149479005Y-102667011D01*
X149483194Y-102663496D01*
X149503425Y-102628455D01*
X149506350Y-102623863D01*
X149526420Y-102595201D01*
X149526420Y-102595200D01*
X149529554Y-102590725D01*
X149531188Y-102584627D01*
X149537432Y-102569554D01*
X149537853Y-102568825D01*
X149537855Y-102568820D01*
X149540588Y-102564086D01*
X149547613Y-102524245D01*
X149548793Y-102518924D01*
X149557849Y-102485130D01*
X149557849Y-102485128D01*
X149559264Y-102479848D01*
X149555738Y-102439547D01*
X149555500Y-102434100D01*
X149555500Y-100426930D01*
X149555738Y-100421483D01*
X149558786Y-100386641D01*
X149559263Y-100381193D01*
X149548791Y-100342114D01*
X149547614Y-100336805D01*
X149546978Y-100333194D01*
X149540588Y-100296955D01*
X149537427Y-100291479D01*
X149531188Y-100276417D01*
X149530969Y-100275598D01*
X149530968Y-100275595D01*
X149529553Y-100270316D01*
X149506342Y-100237166D01*
X149503427Y-100232590D01*
X149485929Y-100202281D01*
X149485927Y-100202278D01*
X149483194Y-100197545D01*
X149452204Y-100171541D01*
X149448184Y-100167857D01*
X149142145Y-99861819D01*
X149138461Y-99857799D01*
X149115970Y-99830995D01*
X149112455Y-99826806D01*
X149077414Y-99806575D01*
X149072822Y-99803650D01*
X149044160Y-99783580D01*
X149044159Y-99783580D01*
X149039684Y-99780446D01*
X149034407Y-99779032D01*
X149034405Y-99779031D01*
X149033586Y-99778812D01*
X149018513Y-99772568D01*
X149017784Y-99772147D01*
X149017779Y-99772145D01*
X149013045Y-99769412D01*
X148973204Y-99762387D01*
X148967883Y-99761207D01*
X148934089Y-99752151D01*
X148934087Y-99752151D01*
X148928807Y-99750736D01*
X148890549Y-99754083D01*
X148888506Y-99754262D01*
X148883059Y-99754500D01*
X148715409Y-99754500D01*
X148671215Y-99736194D01*
X147971582Y-99036561D01*
X147953276Y-98992367D01*
X147953811Y-98984208D01*
X147954935Y-98975677D01*
X147955682Y-98970000D01*
X147936531Y-98824536D01*
X147935579Y-98817301D01*
X147935579Y-98817300D01*
X147935044Y-98813238D01*
X147900886Y-98730772D01*
X147876103Y-98670942D01*
X147874536Y-98667159D01*
X147778282Y-98541718D01*
X147652841Y-98445464D01*
X147617374Y-98430773D01*
X147510548Y-98386524D01*
X147510547Y-98386524D01*
X147506762Y-98384956D01*
X147502700Y-98384421D01*
X147502699Y-98384421D01*
X147354064Y-98364853D01*
X147350000Y-98364318D01*
X147345936Y-98364853D01*
X147197301Y-98384421D01*
X147197300Y-98384421D01*
X147193238Y-98384956D01*
X147189453Y-98386524D01*
X147189452Y-98386524D01*
X147082626Y-98430773D01*
X147047159Y-98445464D01*
X146921718Y-98541718D01*
X146825464Y-98667159D01*
X146823897Y-98670942D01*
X146799115Y-98730772D01*
X146764956Y-98813238D01*
X146764421Y-98817300D01*
X146764421Y-98817301D01*
X146763469Y-98824536D01*
X146744318Y-98970000D01*
X146744853Y-98974062D01*
X146744853Y-98974064D01*
X146762036Y-99104579D01*
X146764956Y-99126762D01*
X146766524Y-99130547D01*
X146766524Y-99130548D01*
X146789776Y-99186682D01*
X146825464Y-99272841D01*
X146921718Y-99398282D01*
X147047159Y-99494536D01*
X147050942Y-99496103D01*
X147189452Y-99553476D01*
X147189453Y-99553476D01*
X147193238Y-99555044D01*
X147197300Y-99555579D01*
X147197301Y-99555579D01*
X147345936Y-99575147D01*
X147350000Y-99575682D01*
X147354064Y-99575147D01*
X147502702Y-99555579D01*
X147502706Y-99555578D01*
X147506762Y-99555044D01*
X147510543Y-99553478D01*
X147510546Y-99553477D01*
X147512480Y-99552676D01*
X147513537Y-99552676D01*
X147514507Y-99552416D01*
X147514577Y-99552676D01*
X147560316Y-99552675D01*
X147580593Y-99566224D01*
X148312549Y-100298180D01*
X148316233Y-100302200D01*
X148342240Y-100333194D01*
X148377281Y-100353425D01*
X148381873Y-100356350D01*
X148387039Y-100359967D01*
X148415011Y-100379554D01*
X148420288Y-100380968D01*
X148420290Y-100380969D01*
X148421109Y-100381188D01*
X148436182Y-100387432D01*
X148436911Y-100387853D01*
X148436916Y-100387855D01*
X148441650Y-100390588D01*
X148481491Y-100397613D01*
X148486812Y-100398793D01*
X148520606Y-100407849D01*
X148520608Y-100407849D01*
X148525888Y-100409264D01*
X148566189Y-100405738D01*
X148571636Y-100405500D01*
X148739286Y-100405500D01*
X148783480Y-100423806D01*
X148886194Y-100526521D01*
X148904500Y-100570715D01*
X148904500Y-102290327D01*
X148886194Y-102334521D01*
X148746863Y-102473852D01*
X148702669Y-102492158D01*
X148658475Y-102473852D01*
X148645550Y-102455029D01*
X148604281Y-102362120D01*
X148601939Y-102356847D01*
X148571802Y-102326762D01*
X148526796Y-102281834D01*
X148526793Y-102281832D01*
X148522713Y-102277759D01*
X148517439Y-102275427D01*
X148517437Y-102275426D01*
X148424623Y-102234393D01*
X148424621Y-102234393D01*
X148420327Y-102232494D01*
X148415661Y-102231950D01*
X148396442Y-102229709D01*
X148396435Y-102229709D01*
X148394646Y-102229500D01*
X148100500Y-102229500D01*
X148056306Y-102211194D01*
X148038000Y-102167000D01*
X148038000Y-101239441D01*
X148038238Y-101233994D01*
X148041287Y-101199140D01*
X148041764Y-101193693D01*
X148036372Y-101173569D01*
X148031293Y-101154617D01*
X148030112Y-101149293D01*
X148024037Y-101114838D01*
X148023088Y-101109455D01*
X148020355Y-101104721D01*
X148020353Y-101104716D01*
X148019932Y-101103987D01*
X148013688Y-101088914D01*
X148013469Y-101088095D01*
X148013468Y-101088093D01*
X148012054Y-101082816D01*
X147988850Y-101049678D01*
X147985920Y-101045079D01*
X147984046Y-101041832D01*
X147965694Y-101010045D01*
X147934698Y-100984036D01*
X147930678Y-100980352D01*
X146222146Y-99271820D01*
X146218462Y-99267800D01*
X146195970Y-99240995D01*
X146192455Y-99236806D01*
X146157414Y-99216575D01*
X146152822Y-99213650D01*
X146124160Y-99193580D01*
X146124159Y-99193580D01*
X146119684Y-99190446D01*
X146114407Y-99189032D01*
X146114405Y-99189031D01*
X146113586Y-99188812D01*
X146098513Y-99182568D01*
X146097784Y-99182147D01*
X146097779Y-99182145D01*
X146093045Y-99179412D01*
X146053204Y-99172387D01*
X146047883Y-99171207D01*
X146014089Y-99162151D01*
X146014087Y-99162151D01*
X146008807Y-99160736D01*
X145970549Y-99164083D01*
X145968506Y-99164262D01*
X145963059Y-99164500D01*
X144270714Y-99164500D01*
X144226520Y-99146194D01*
X143664168Y-98583842D01*
X143645862Y-98539648D01*
X143650619Y-98515731D01*
X143673477Y-98460546D01*
X143673478Y-98460544D01*
X143675044Y-98456762D01*
X143676204Y-98447955D01*
X143695147Y-98304064D01*
X143695682Y-98300000D01*
X143677323Y-98160548D01*
X143675579Y-98147301D01*
X143675579Y-98147300D01*
X143675044Y-98143238D01*
X143665419Y-98120000D01*
X143616103Y-98000942D01*
X143614536Y-97997159D01*
X143518282Y-97871718D01*
X143392841Y-97775464D01*
X143271525Y-97725213D01*
X143250548Y-97716524D01*
X143250547Y-97716524D01*
X143246762Y-97714956D01*
X143242700Y-97714421D01*
X143242699Y-97714421D01*
X143094064Y-97694853D01*
X143090000Y-97694318D01*
X143085936Y-97694853D01*
X142937301Y-97714421D01*
X142937300Y-97714421D01*
X142933238Y-97714956D01*
X142929453Y-97716524D01*
X142929452Y-97716524D01*
X142908475Y-97725213D01*
X142787159Y-97775464D01*
X142661718Y-97871718D01*
X142565464Y-97997159D01*
X142563897Y-98000942D01*
X142514582Y-98120000D01*
X142504956Y-98143238D01*
X142504421Y-98147300D01*
X142504421Y-98147301D01*
X142502677Y-98160548D01*
X142484318Y-98300000D01*
X142025713Y-98300000D01*
X142085044Y-98156762D01*
X142086825Y-98143238D01*
X142105147Y-98004064D01*
X142105682Y-98000000D01*
X142090529Y-97884901D01*
X142085579Y-97847301D01*
X142085579Y-97847300D01*
X142085044Y-97843238D01*
X142080791Y-97832969D01*
X142026103Y-97700942D01*
X142024536Y-97697159D01*
X141928282Y-97571718D01*
X141802841Y-97475464D01*
X141787236Y-97469000D01*
X141660548Y-97416524D01*
X141660547Y-97416524D01*
X141656762Y-97414956D01*
X141652700Y-97414421D01*
X141652699Y-97414421D01*
X141504064Y-97394853D01*
X141500000Y-97394318D01*
X141495936Y-97394853D01*
X141347301Y-97414421D01*
X141347300Y-97414421D01*
X141343238Y-97414956D01*
X141339453Y-97416524D01*
X141339452Y-97416524D01*
X141212764Y-97469000D01*
X141197159Y-97475464D01*
X141071718Y-97571718D01*
X141011614Y-97650048D01*
X140970187Y-97673965D01*
X140962029Y-97674500D01*
X140716941Y-97674500D01*
X140711494Y-97674262D01*
X140708099Y-97673965D01*
X140671193Y-97670736D01*
X140665913Y-97672151D01*
X140665911Y-97672151D01*
X140632117Y-97681207D01*
X140626796Y-97682387D01*
X140586955Y-97689412D01*
X140582221Y-97692145D01*
X140582216Y-97692147D01*
X140581487Y-97692568D01*
X140566414Y-97698812D01*
X140565595Y-97699031D01*
X140565593Y-97699032D01*
X140560316Y-97700446D01*
X140555841Y-97703580D01*
X140555840Y-97703580D01*
X140527178Y-97723650D01*
X140522586Y-97726575D01*
X140487545Y-97746806D01*
X140484030Y-97750995D01*
X140461536Y-97777802D01*
X140457852Y-97781822D01*
X137481820Y-100757854D01*
X137477800Y-100761538D01*
X137446806Y-100787545D01*
X137444073Y-100792279D01*
X137426580Y-100822579D01*
X137423650Y-100827178D01*
X137400446Y-100860316D01*
X137399032Y-100865593D01*
X137399031Y-100865595D01*
X137398812Y-100866414D01*
X137392568Y-100881487D01*
X137392147Y-100882216D01*
X137392145Y-100882221D01*
X137389412Y-100886955D01*
X137388463Y-100892338D01*
X137382388Y-100926793D01*
X137381207Y-100932117D01*
X137374479Y-100957226D01*
X137370736Y-100971193D01*
X137371860Y-100984036D01*
X137374262Y-101011494D01*
X137374500Y-101016941D01*
X137374500Y-103839285D01*
X137356194Y-103883479D01*
X135106820Y-106132854D01*
X135102800Y-106136538D01*
X135071806Y-106162545D01*
X135069073Y-106167279D01*
X135051580Y-106197579D01*
X135048650Y-106202178D01*
X135025446Y-106235316D01*
X135024032Y-106240593D01*
X135024031Y-106240595D01*
X135023812Y-106241414D01*
X135017568Y-106256487D01*
X135017147Y-106257216D01*
X135017145Y-106257221D01*
X135014412Y-106261955D01*
X135013463Y-106267338D01*
X135007388Y-106301793D01*
X135006207Y-106307117D01*
X134995736Y-106346193D01*
X134997277Y-106363808D01*
X134999262Y-106386494D01*
X134999500Y-106391941D01*
X134999500Y-111588059D01*
X134999262Y-111593506D01*
X134995736Y-111633807D01*
X129187330Y-111633807D01*
X129026173Y-111518695D01*
X129000850Y-111478112D01*
X129000000Y-111467837D01*
X129000000Y-99520028D01*
X129011642Y-99483701D01*
X129066989Y-99406216D01*
X130750000Y-97050000D01*
X154334318Y-97050000D01*
X154354956Y-97206762D01*
X154415464Y-97352841D01*
X154511718Y-97478282D01*
X154637159Y-97574536D01*
X154640942Y-97576103D01*
X154779452Y-97633476D01*
X154779453Y-97633476D01*
X154783238Y-97635044D01*
X154787300Y-97635579D01*
X154787301Y-97635579D01*
X154935936Y-97655147D01*
X154940000Y-97655682D01*
X154944064Y-97655147D01*
X155092699Y-97635579D01*
X155092700Y-97635579D01*
X155096762Y-97635044D01*
X155185598Y-97598247D01*
X155233432Y-97598248D01*
X155267257Y-97632072D01*
X155271479Y-97664148D01*
X155259229Y-97757195D01*
X155254318Y-97794500D01*
X155254853Y-97798564D01*
X155259383Y-97832969D01*
X155274956Y-97951262D01*
X155276524Y-97955047D01*
X155276524Y-97955048D01*
X155293967Y-97997159D01*
X155335464Y-98097341D01*
X155431718Y-98222782D01*
X155557159Y-98319036D01*
X155560942Y-98320603D01*
X155699452Y-98377976D01*
X155699453Y-98377976D01*
X155703238Y-98379544D01*
X155707300Y-98380079D01*
X155707301Y-98380079D01*
X155855936Y-98399647D01*
X155860000Y-98400182D01*
X155864064Y-98399647D01*
X156012699Y-98380079D01*
X156012700Y-98380079D01*
X156016762Y-98379544D01*
X156020547Y-98377976D01*
X156020548Y-98377976D01*
X156123965Y-98335139D01*
X156171801Y-98335139D01*
X156205625Y-98368963D01*
X156209848Y-98401038D01*
X156194318Y-98519000D01*
X156214956Y-98675762D01*
X156216524Y-98679547D01*
X156216524Y-98679548D01*
X156273583Y-98817301D01*
X156275464Y-98821841D01*
X156371718Y-98947282D01*
X156497159Y-99043536D01*
X156500942Y-99045103D01*
X156639452Y-99102476D01*
X156639453Y-99102476D01*
X156643238Y-99104044D01*
X156647300Y-99104579D01*
X156647301Y-99104579D01*
X156795936Y-99124147D01*
X156800000Y-99124682D01*
X156804064Y-99124147D01*
X156952699Y-99104579D01*
X156952700Y-99104579D01*
X156956762Y-99104044D01*
X156960547Y-99102476D01*
X156960548Y-99102476D01*
X157099058Y-99045103D01*
X157102841Y-99043536D01*
X157195093Y-98972749D01*
X157225036Y-98949773D01*
X157225037Y-98949772D01*
X157228282Y-98947282D01*
X157288387Y-98868952D01*
X157329813Y-98845035D01*
X157337971Y-98844500D01*
X158705088Y-98844500D01*
X158749282Y-98862806D01*
X161372996Y-101486520D01*
X161391302Y-101530714D01*
X161391302Y-105139861D01*
X161391064Y-105145308D01*
X161387538Y-105185609D01*
X161388953Y-105190889D01*
X161388953Y-105190891D01*
X161398009Y-105224685D01*
X161399189Y-105230006D01*
X161406214Y-105269847D01*
X161408947Y-105274581D01*
X161408949Y-105274586D01*
X161409370Y-105275315D01*
X161415614Y-105290388D01*
X161417248Y-105296486D01*
X161420382Y-105300961D01*
X161420382Y-105300962D01*
X161440452Y-105329624D01*
X161443377Y-105334216D01*
X161463608Y-105369257D01*
X161467797Y-105372772D01*
X161494604Y-105395266D01*
X161498624Y-105398950D01*
X162584961Y-106485287D01*
X162603267Y-106529481D01*
X162595537Y-106559588D01*
X162584776Y-106579162D01*
X162522484Y-106775532D01*
X162522143Y-106778570D01*
X162522143Y-106778571D01*
X162505102Y-106930500D01*
X162499520Y-106980262D01*
X162500758Y-106995000D01*
X162509537Y-107099546D01*
X162516759Y-107185553D01*
X162573544Y-107383586D01*
X162667712Y-107566818D01*
X162669603Y-107569204D01*
X162669605Y-107569207D01*
X162698598Y-107605787D01*
X162795677Y-107728270D01*
X162952564Y-107861791D01*
X163132398Y-107962297D01*
X163135302Y-107963241D01*
X163135303Y-107963241D01*
X163325416Y-108025013D01*
X163325421Y-108025014D01*
X163328329Y-108025959D01*
X163331370Y-108026322D01*
X163331372Y-108026322D01*
X163393442Y-108033723D01*
X163532894Y-108050351D01*
X163535936Y-108050117D01*
X163535939Y-108050117D01*
X163735249Y-108034781D01*
X163735251Y-108034781D01*
X163738300Y-108034546D01*
X163936725Y-107979145D01*
X163939448Y-107977770D01*
X163939452Y-107977768D01*
X164117890Y-107887632D01*
X164120610Y-107886258D01*
X164123008Y-107884385D01*
X164123012Y-107884382D01*
X164208014Y-107817971D01*
X164282951Y-107759424D01*
X164311910Y-107725875D01*
X164335980Y-107697989D01*
X164417564Y-107603472D01*
X164519323Y-107424344D01*
X164584351Y-107228863D01*
X164589452Y-107188489D01*
X164609951Y-107026216D01*
X164609951Y-107026215D01*
X164610171Y-107024474D01*
X164610400Y-107008129D01*
X164610559Y-106996739D01*
X164610559Y-106996733D01*
X164610583Y-106995000D01*
X164610414Y-106993280D01*
X164610414Y-106993271D01*
X164590998Y-106795253D01*
X164590480Y-106789970D01*
X164530935Y-106592749D01*
X164434218Y-106410849D01*
X164304011Y-106251200D01*
X164145275Y-106119882D01*
X163964055Y-106021897D01*
X163899869Y-106002028D01*
X163770169Y-105961879D01*
X163770166Y-105961878D01*
X163767254Y-105960977D01*
X163764221Y-105960658D01*
X163764220Y-105960658D01*
X163711660Y-105955134D01*
X163562369Y-105939443D01*
X163559336Y-105939719D01*
X163559332Y-105939719D01*
X163446436Y-105949993D01*
X163357203Y-105958114D01*
X163354270Y-105958977D01*
X163354266Y-105958978D01*
X163162506Y-106015416D01*
X163162502Y-106015418D01*
X163159572Y-106016280D01*
X163119507Y-106037226D01*
X163071862Y-106041478D01*
X163046358Y-106026032D01*
X162060608Y-105040282D01*
X162042302Y-104996088D01*
X162042302Y-103553516D01*
X162060608Y-103509322D01*
X162104802Y-103491016D01*
X162148996Y-103509322D01*
X162369397Y-103729724D01*
X162584960Y-103945287D01*
X162603266Y-103989481D01*
X162595536Y-104019589D01*
X162584776Y-104039162D01*
X162522484Y-104235532D01*
X162522143Y-104238570D01*
X162522143Y-104238571D01*
X162500071Y-104435354D01*
X162499520Y-104440262D01*
X162500619Y-104453347D01*
X162515605Y-104631806D01*
X162516759Y-104645553D01*
X162573544Y-104843586D01*
X162667712Y-105026818D01*
X162669603Y-105029204D01*
X162669605Y-105029207D01*
X162744338Y-105123496D01*
X162795677Y-105188270D01*
X162798007Y-105190253D01*
X162945995Y-105316200D01*
X162952564Y-105321791D01*
X163132398Y-105422297D01*
X163135302Y-105423241D01*
X163135303Y-105423241D01*
X163325416Y-105485013D01*
X163325421Y-105485014D01*
X163328329Y-105485959D01*
X163331370Y-105486322D01*
X163331372Y-105486322D01*
X163447614Y-105500182D01*
X163532894Y-105510351D01*
X163535936Y-105510117D01*
X163535939Y-105510117D01*
X163735249Y-105494781D01*
X163735251Y-105494781D01*
X163738300Y-105494546D01*
X163936725Y-105439145D01*
X163939448Y-105437770D01*
X163939452Y-105437768D01*
X164117890Y-105347632D01*
X164120610Y-105346258D01*
X164123008Y-105344385D01*
X164123012Y-105344382D01*
X164225302Y-105264464D01*
X164282951Y-105219424D01*
X164290449Y-105210738D01*
X164358374Y-105132045D01*
X164417564Y-105063472D01*
X164482473Y-104949211D01*
X164517811Y-104887006D01*
X164517812Y-104887004D01*
X164519323Y-104884344D01*
X164584351Y-104688863D01*
X164587644Y-104662800D01*
X164609951Y-104486216D01*
X164609951Y-104486215D01*
X164610171Y-104484474D01*
X164610467Y-104463341D01*
X164610559Y-104456739D01*
X164610559Y-104456733D01*
X164610583Y-104455000D01*
X164610414Y-104453280D01*
X164610414Y-104453271D01*
X164591344Y-104258787D01*
X164590480Y-104249970D01*
X164530935Y-104052749D01*
X164471396Y-103940772D01*
X164435653Y-103873547D01*
X164435651Y-103873544D01*
X164434218Y-103870849D01*
X164304011Y-103711200D01*
X164145275Y-103579882D01*
X163964055Y-103481897D01*
X163909143Y-103464899D01*
X163770169Y-103421879D01*
X163770166Y-103421878D01*
X163767254Y-103420977D01*
X163764221Y-103420658D01*
X163764220Y-103420658D01*
X163711660Y-103415134D01*
X163562369Y-103399443D01*
X163559336Y-103399719D01*
X163559332Y-103399719D01*
X163446436Y-103409993D01*
X163357203Y-103418114D01*
X163354270Y-103418977D01*
X163354266Y-103418978D01*
X163204005Y-103463203D01*
X163159572Y-103476280D01*
X163156862Y-103477697D01*
X163119508Y-103497225D01*
X163071862Y-103501477D01*
X163046358Y-103486031D01*
X162510608Y-102950282D01*
X162492302Y-102906088D01*
X162492302Y-102403852D01*
X162510608Y-102359658D01*
X162554802Y-102341352D01*
X162598996Y-102359658D01*
X162610391Y-102375283D01*
X162667712Y-102486818D01*
X162669603Y-102489204D01*
X162669605Y-102489207D01*
X162738934Y-102576678D01*
X162795677Y-102648270D01*
X162798006Y-102650252D01*
X162945995Y-102776200D01*
X162952564Y-102781791D01*
X163132398Y-102882297D01*
X163135302Y-102883241D01*
X163135303Y-102883241D01*
X163325416Y-102945013D01*
X163325421Y-102945014D01*
X163328329Y-102945959D01*
X163331370Y-102946322D01*
X163331372Y-102946322D01*
X163420262Y-102956921D01*
X163532894Y-102970351D01*
X163535936Y-102970117D01*
X163535939Y-102970117D01*
X163735249Y-102954781D01*
X163735251Y-102954781D01*
X163738300Y-102954546D01*
X163936725Y-102899145D01*
X163939448Y-102897770D01*
X163939452Y-102897768D01*
X164117890Y-102807632D01*
X164120610Y-102806258D01*
X164123008Y-102804385D01*
X164123012Y-102804382D01*
X164265335Y-102693187D01*
X164282951Y-102679424D01*
X164291278Y-102669778D01*
X164371638Y-102576678D01*
X164417564Y-102523472D01*
X164509225Y-102362120D01*
X164517811Y-102347006D01*
X164517812Y-102347004D01*
X164519323Y-102344344D01*
X164584351Y-102148863D01*
X164587735Y-102122080D01*
X164609951Y-101946216D01*
X164609951Y-101946215D01*
X164610171Y-101944474D01*
X164610583Y-101915000D01*
X164610414Y-101913280D01*
X164610414Y-101913271D01*
X164590778Y-101713010D01*
X164590480Y-101709970D01*
X164530935Y-101512749D01*
X164455445Y-101370771D01*
X164435653Y-101333547D01*
X164435651Y-101333544D01*
X164434218Y-101330849D01*
X164304011Y-101171200D01*
X164145275Y-101039882D01*
X163964055Y-100941897D01*
X163803956Y-100892338D01*
X163770169Y-100881879D01*
X163770166Y-100881878D01*
X163767254Y-100880977D01*
X163764221Y-100880658D01*
X163764220Y-100880658D01*
X163704325Y-100874363D01*
X163562369Y-100859443D01*
X163559336Y-100859719D01*
X163559332Y-100859719D01*
X163446436Y-100869993D01*
X163357203Y-100878114D01*
X163354270Y-100878977D01*
X163354266Y-100878978D01*
X163162506Y-100935416D01*
X163162502Y-100935418D01*
X163159572Y-100936280D01*
X163119507Y-100957226D01*
X163071862Y-100961478D01*
X163046358Y-100946032D01*
X161460588Y-99360262D01*
X162499520Y-99360262D01*
X162500758Y-99375000D01*
X162515877Y-99555044D01*
X162516759Y-99565553D01*
X162528309Y-99605834D01*
X162566496Y-99739005D01*
X162573544Y-99763586D01*
X162667712Y-99946818D01*
X162669603Y-99949204D01*
X162669605Y-99949207D01*
X162698598Y-99985787D01*
X162795677Y-100108270D01*
X162952564Y-100241791D01*
X163132398Y-100342297D01*
X163135302Y-100343241D01*
X163135303Y-100343241D01*
X163325416Y-100405013D01*
X163325421Y-100405014D01*
X163328329Y-100405959D01*
X163331370Y-100406322D01*
X163331372Y-100406322D01*
X163402315Y-100414781D01*
X163532894Y-100430351D01*
X163535936Y-100430117D01*
X163535939Y-100430117D01*
X163735249Y-100414781D01*
X163735251Y-100414781D01*
X163738300Y-100414546D01*
X163936725Y-100359145D01*
X163939448Y-100357770D01*
X163939452Y-100357768D01*
X164117890Y-100267632D01*
X164120610Y-100266258D01*
X164123008Y-100264385D01*
X164123012Y-100264382D01*
X164246558Y-100167857D01*
X164282951Y-100139424D01*
X164311910Y-100105875D01*
X164335980Y-100077989D01*
X164417564Y-99983472D01*
X164511651Y-99817849D01*
X164517811Y-99807006D01*
X164517812Y-99807004D01*
X164519323Y-99804344D01*
X164584351Y-99608863D01*
X164588611Y-99575147D01*
X164609951Y-99406216D01*
X164609951Y-99406215D01*
X164610171Y-99404474D01*
X164610583Y-99375000D01*
X164610414Y-99373280D01*
X164610414Y-99373271D01*
X164590778Y-99173010D01*
X164590480Y-99169970D01*
X164588829Y-99164500D01*
X164531819Y-98975677D01*
X164530935Y-98972749D01*
X164463029Y-98845035D01*
X164435653Y-98793547D01*
X164435651Y-98793544D01*
X164434218Y-98790849D01*
X164304011Y-98631200D01*
X164145275Y-98499882D01*
X163964055Y-98401897D01*
X163886779Y-98377976D01*
X163770169Y-98341879D01*
X163770166Y-98341878D01*
X163767254Y-98340977D01*
X163764221Y-98340658D01*
X163764220Y-98340658D01*
X163711660Y-98335134D01*
X163562369Y-98319443D01*
X163559336Y-98319719D01*
X163559332Y-98319719D01*
X163446436Y-98329993D01*
X163357203Y-98338114D01*
X163354270Y-98338977D01*
X163354266Y-98338978D01*
X163216436Y-98379544D01*
X163159572Y-98396280D01*
X162977002Y-98491726D01*
X162816447Y-98620815D01*
X162684024Y-98778630D01*
X162658787Y-98824536D01*
X162589938Y-98949773D01*
X162584776Y-98959162D01*
X162522484Y-99155532D01*
X162522143Y-99158570D01*
X162522143Y-99158571D01*
X162518727Y-99189031D01*
X162499520Y-99360262D01*
X161460588Y-99360262D01*
X159805074Y-97704748D01*
X162504500Y-97704748D01*
X162505099Y-97707758D01*
X162505099Y-97707761D01*
X162508843Y-97726580D01*
X162516133Y-97763231D01*
X162519550Y-97768345D01*
X162519551Y-97768347D01*
X162539742Y-97798564D01*
X162560448Y-97829552D01*
X162565562Y-97832969D01*
X162621653Y-97870449D01*
X162621655Y-97870450D01*
X162626769Y-97873867D01*
X162632803Y-97875067D01*
X162632805Y-97875068D01*
X162682239Y-97884901D01*
X162682242Y-97884901D01*
X162685252Y-97885500D01*
X164424748Y-97885500D01*
X164427758Y-97884901D01*
X164427761Y-97884901D01*
X164477195Y-97875068D01*
X164477197Y-97875067D01*
X164483231Y-97873867D01*
X164488345Y-97870450D01*
X164488347Y-97870449D01*
X164544438Y-97832969D01*
X164549552Y-97829552D01*
X164570258Y-97798564D01*
X164590449Y-97768347D01*
X164590450Y-97768345D01*
X164593867Y-97763231D01*
X164601158Y-97726580D01*
X164604901Y-97707761D01*
X164604901Y-97707758D01*
X164605500Y-97704748D01*
X164605500Y-95965252D01*
X164593867Y-95906769D01*
X164549552Y-95840448D01*
X164532680Y-95829174D01*
X164488347Y-95799551D01*
X164488345Y-95799550D01*
X164483231Y-95796133D01*
X164477197Y-95794933D01*
X164477195Y-95794932D01*
X164427761Y-95785099D01*
X164427758Y-95785099D01*
X164424748Y-95784500D01*
X162685252Y-95784500D01*
X162682242Y-95785099D01*
X162682239Y-95785099D01*
X162632805Y-95794932D01*
X162632803Y-95794933D01*
X162626769Y-95796133D01*
X162621655Y-95799550D01*
X162621653Y-95799551D01*
X162577320Y-95829174D01*
X162560448Y-95840448D01*
X162516133Y-95906769D01*
X162504500Y-95965252D01*
X162504500Y-97704748D01*
X159805074Y-97704748D01*
X158952146Y-96851820D01*
X158948462Y-96847800D01*
X158925970Y-96820995D01*
X158922455Y-96816806D01*
X158887414Y-96796575D01*
X158882822Y-96793650D01*
X158854160Y-96773580D01*
X158854159Y-96773580D01*
X158849684Y-96770446D01*
X158844407Y-96769032D01*
X158844405Y-96769031D01*
X158843586Y-96768812D01*
X158828513Y-96762568D01*
X158827784Y-96762147D01*
X158827779Y-96762145D01*
X158823045Y-96759412D01*
X158783204Y-96752387D01*
X158777883Y-96751207D01*
X158744089Y-96742151D01*
X158744087Y-96742151D01*
X158738807Y-96740736D01*
X158702495Y-96743913D01*
X158698506Y-96744262D01*
X158693059Y-96744500D01*
X155493318Y-96744500D01*
X155449124Y-96726194D01*
X155443733Y-96720048D01*
X155370772Y-96624963D01*
X155368282Y-96621718D01*
X155242841Y-96525464D01*
X155239058Y-96523897D01*
X155100548Y-96466524D01*
X155100547Y-96466524D01*
X155096762Y-96464956D01*
X155092700Y-96464421D01*
X155092699Y-96464421D01*
X154944064Y-96444853D01*
X154940000Y-96444318D01*
X154935936Y-96444853D01*
X154787301Y-96464421D01*
X154787300Y-96464421D01*
X154783238Y-96464956D01*
X154779453Y-96466524D01*
X154779452Y-96466524D01*
X154640942Y-96523897D01*
X154637159Y-96525464D01*
X154511718Y-96621718D01*
X154415464Y-96747159D01*
X154354956Y-96893238D01*
X154334318Y-97050000D01*
X130750000Y-97050000D01*
X134078572Y-92390000D01*
X142004318Y-92390000D01*
X142024956Y-92546762D01*
X142085464Y-92692841D01*
X142181718Y-92818282D01*
X142307159Y-92914536D01*
X142310942Y-92916103D01*
X142449452Y-92973476D01*
X142449453Y-92973476D01*
X142453238Y-92975044D01*
X142457300Y-92975579D01*
X142457301Y-92975579D01*
X142605936Y-92995147D01*
X142610000Y-92995682D01*
X142614064Y-92995147D01*
X142762699Y-92975579D01*
X142762700Y-92975579D01*
X142766762Y-92975044D01*
X142770547Y-92973476D01*
X142770548Y-92973476D01*
X142909058Y-92916103D01*
X142912841Y-92914536D01*
X142975561Y-92866409D01*
X143035036Y-92820773D01*
X143035037Y-92820772D01*
X143038282Y-92818282D01*
X143098387Y-92739952D01*
X143139813Y-92716035D01*
X143147971Y-92715500D01*
X145969286Y-92715500D01*
X146013480Y-92733806D01*
X147759434Y-94479761D01*
X147777740Y-94523955D01*
X147777205Y-94532113D01*
X147767463Y-94606115D01*
X147764318Y-94630000D01*
X147784956Y-94786762D01*
X147845464Y-94932841D01*
X147941718Y-95058282D01*
X148067159Y-95154536D01*
X148070942Y-95156103D01*
X148209452Y-95213476D01*
X148209453Y-95213476D01*
X148213238Y-95215044D01*
X148217300Y-95215579D01*
X148217301Y-95215579D01*
X148365936Y-95235147D01*
X148370000Y-95235682D01*
X148374064Y-95235147D01*
X148522699Y-95215579D01*
X148522700Y-95215579D01*
X148526762Y-95215044D01*
X148530547Y-95213476D01*
X148530548Y-95213476D01*
X148669058Y-95156103D01*
X148672841Y-95154536D01*
X148798282Y-95058282D01*
X148894536Y-94932841D01*
X148955044Y-94786762D01*
X148975682Y-94630000D01*
X148975147Y-94625936D01*
X148955579Y-94477301D01*
X148955579Y-94477300D01*
X148955044Y-94473238D01*
X148894536Y-94327159D01*
X148798282Y-94201718D01*
X148672841Y-94105464D01*
X148669058Y-94103897D01*
X148530548Y-94046524D01*
X148530547Y-94046524D01*
X148526762Y-94044956D01*
X148522700Y-94044421D01*
X148522699Y-94044421D01*
X148374064Y-94024853D01*
X148370000Y-94024318D01*
X148272113Y-94037205D01*
X148225907Y-94024825D01*
X148219761Y-94019434D01*
X146372146Y-92171820D01*
X146368462Y-92167800D01*
X146345970Y-92140995D01*
X146342455Y-92136806D01*
X146307414Y-92116575D01*
X146302822Y-92113650D01*
X146274160Y-92093580D01*
X146274159Y-92093580D01*
X146269684Y-92090446D01*
X146264407Y-92089032D01*
X146264405Y-92089031D01*
X146263586Y-92088812D01*
X146248513Y-92082568D01*
X146247784Y-92082147D01*
X146247779Y-92082145D01*
X146243045Y-92079412D01*
X146203204Y-92072387D01*
X146197883Y-92071207D01*
X146164089Y-92062151D01*
X146164087Y-92062151D01*
X146158807Y-92060736D01*
X146120549Y-92064083D01*
X146118506Y-92064262D01*
X146113059Y-92064500D01*
X143147971Y-92064500D01*
X143103777Y-92046194D01*
X143098386Y-92040048D01*
X143038282Y-91961718D01*
X142912841Y-91865464D01*
X142803690Y-91820252D01*
X142770548Y-91806524D01*
X142770547Y-91806524D01*
X142766762Y-91804956D01*
X142762700Y-91804421D01*
X142762699Y-91804421D01*
X142614064Y-91784853D01*
X142610000Y-91784318D01*
X142605936Y-91784853D01*
X142457301Y-91804421D01*
X142457300Y-91804421D01*
X142453238Y-91804956D01*
X142449453Y-91806524D01*
X142449452Y-91806524D01*
X142416310Y-91820252D01*
X142307159Y-91865464D01*
X142181718Y-91961718D01*
X142085464Y-92087159D01*
X142083897Y-92090942D01*
X142064900Y-92136806D01*
X142024956Y-92233238D01*
X142004318Y-92390000D01*
X134078572Y-92390000D01*
X137935527Y-86990262D01*
X142524520Y-86990262D01*
X142541759Y-87195553D01*
X142598544Y-87393586D01*
X142692712Y-87576818D01*
X142694603Y-87579204D01*
X142694605Y-87579207D01*
X142723598Y-87615787D01*
X142820677Y-87738270D01*
X142977564Y-87871791D01*
X143157398Y-87972297D01*
X143160302Y-87973241D01*
X143160303Y-87973241D01*
X143350416Y-88035013D01*
X143350421Y-88035014D01*
X143353329Y-88035959D01*
X143356370Y-88036322D01*
X143356372Y-88036322D01*
X143418442Y-88043723D01*
X143557894Y-88060351D01*
X143560936Y-88060117D01*
X143560939Y-88060117D01*
X143760249Y-88044781D01*
X143760251Y-88044781D01*
X143763300Y-88044546D01*
X143961725Y-87989145D01*
X143964448Y-87987770D01*
X143964452Y-87987768D01*
X144142890Y-87897632D01*
X144145610Y-87896258D01*
X144148008Y-87894385D01*
X144148012Y-87894382D01*
X144233014Y-87827971D01*
X144307951Y-87769424D01*
X144311153Y-87765715D01*
X144372832Y-87694258D01*
X144442564Y-87613472D01*
X144544323Y-87434344D01*
X144609351Y-87238863D01*
X144614452Y-87198489D01*
X144634951Y-87036216D01*
X144634951Y-87036215D01*
X144635171Y-87034474D01*
X144635583Y-87005000D01*
X144635414Y-87003280D01*
X144635414Y-87003271D01*
X144634138Y-86990262D01*
X145064520Y-86990262D01*
X145081759Y-87195553D01*
X145138544Y-87393586D01*
X145232712Y-87576818D01*
X145234603Y-87579204D01*
X145234605Y-87579207D01*
X145263598Y-87615787D01*
X145360677Y-87738270D01*
X145517564Y-87871791D01*
X145697398Y-87972297D01*
X145700302Y-87973241D01*
X145700303Y-87973241D01*
X145890416Y-88035013D01*
X145890421Y-88035014D01*
X145893329Y-88035959D01*
X145896370Y-88036322D01*
X145896372Y-88036322D01*
X145958442Y-88043723D01*
X146097894Y-88060351D01*
X146100936Y-88060117D01*
X146100939Y-88060117D01*
X146300249Y-88044781D01*
X146300251Y-88044781D01*
X146303300Y-88044546D01*
X146501725Y-87989145D01*
X146504448Y-87987770D01*
X146504452Y-87987768D01*
X146682890Y-87897632D01*
X146685610Y-87896258D01*
X146688008Y-87894385D01*
X146688012Y-87894382D01*
X146773014Y-87827971D01*
X146847951Y-87769424D01*
X146851153Y-87765715D01*
X146912832Y-87694258D01*
X146982564Y-87613472D01*
X147084323Y-87434344D01*
X147149351Y-87238863D01*
X147154452Y-87198489D01*
X147174951Y-87036216D01*
X147174951Y-87036215D01*
X147175171Y-87034474D01*
X147175583Y-87005000D01*
X147175414Y-87003280D01*
X147175414Y-87003271D01*
X147174138Y-86990262D01*
X147604520Y-86990262D01*
X147621759Y-87195553D01*
X147678544Y-87393586D01*
X147772712Y-87576818D01*
X147774603Y-87579204D01*
X147774605Y-87579207D01*
X147803598Y-87615787D01*
X147900677Y-87738270D01*
X148057564Y-87871791D01*
X148237398Y-87972297D01*
X148240302Y-87973241D01*
X148240303Y-87973241D01*
X148430416Y-88035013D01*
X148430421Y-88035014D01*
X148433329Y-88035959D01*
X148436370Y-88036322D01*
X148436372Y-88036322D01*
X148498442Y-88043723D01*
X148637894Y-88060351D01*
X148640936Y-88060117D01*
X148640939Y-88060117D01*
X148840249Y-88044781D01*
X148840251Y-88044781D01*
X148843300Y-88044546D01*
X149041725Y-87989145D01*
X149044448Y-87987770D01*
X149044452Y-87987768D01*
X149222890Y-87897632D01*
X149225610Y-87896258D01*
X149228008Y-87894385D01*
X149228012Y-87894382D01*
X149313014Y-87827971D01*
X149387951Y-87769424D01*
X149391153Y-87765715D01*
X149452832Y-87694258D01*
X149522564Y-87613472D01*
X149624323Y-87434344D01*
X149689351Y-87238863D01*
X149694452Y-87198489D01*
X149714951Y-87036216D01*
X149714951Y-87036215D01*
X149715171Y-87034474D01*
X149715583Y-87005000D01*
X149715414Y-87003280D01*
X149715414Y-87003271D01*
X149695778Y-86803010D01*
X149695480Y-86799970D01*
X149635935Y-86602749D01*
X149539218Y-86420849D01*
X149409011Y-86261200D01*
X149250275Y-86129882D01*
X149069055Y-86031897D01*
X149014143Y-86014899D01*
X148875169Y-85971879D01*
X148875166Y-85971878D01*
X148872254Y-85970977D01*
X148869221Y-85970658D01*
X148869220Y-85970658D01*
X148816660Y-85965134D01*
X148667369Y-85949443D01*
X148664336Y-85949719D01*
X148664332Y-85949719D01*
X148551436Y-85959993D01*
X148462203Y-85968114D01*
X148459270Y-85968977D01*
X148459266Y-85968978D01*
X148309005Y-86013203D01*
X148264572Y-86026280D01*
X148082002Y-86121726D01*
X147921447Y-86250815D01*
X147789024Y-86408630D01*
X147689776Y-86589162D01*
X147627484Y-86785532D01*
X147627143Y-86788570D01*
X147627143Y-86788571D01*
X147613663Y-86908754D01*
X147604520Y-86990262D01*
X147174138Y-86990262D01*
X147155778Y-86803010D01*
X147155480Y-86799970D01*
X147095935Y-86602749D01*
X146999218Y-86420849D01*
X146869011Y-86261200D01*
X146710275Y-86129882D01*
X146529055Y-86031897D01*
X146474143Y-86014899D01*
X146335169Y-85971879D01*
X146335166Y-85971878D01*
X146332254Y-85970977D01*
X146329221Y-85970658D01*
X146329220Y-85970658D01*
X146276660Y-85965134D01*
X146127369Y-85949443D01*
X146124336Y-85949719D01*
X146124332Y-85949719D01*
X146011436Y-85959993D01*
X145922203Y-85968114D01*
X145919270Y-85968977D01*
X145919266Y-85968978D01*
X145769005Y-86013203D01*
X145724572Y-86026280D01*
X145542002Y-86121726D01*
X145381447Y-86250815D01*
X145249024Y-86408630D01*
X145149776Y-86589162D01*
X145087484Y-86785532D01*
X145087143Y-86788570D01*
X145087143Y-86788571D01*
X145073663Y-86908754D01*
X145064520Y-86990262D01*
X144634138Y-86990262D01*
X144615778Y-86803010D01*
X144615480Y-86799970D01*
X144555935Y-86602749D01*
X144459218Y-86420849D01*
X144329011Y-86261200D01*
X144170275Y-86129882D01*
X143989055Y-86031897D01*
X143934143Y-86014899D01*
X143795169Y-85971879D01*
X143795166Y-85971878D01*
X143792254Y-85970977D01*
X143789221Y-85970658D01*
X143789220Y-85970658D01*
X143736660Y-85965134D01*
X143587369Y-85949443D01*
X143584336Y-85949719D01*
X143584332Y-85949719D01*
X143471436Y-85959993D01*
X143382203Y-85968114D01*
X143379270Y-85968977D01*
X143379266Y-85968978D01*
X143229005Y-86013203D01*
X143184572Y-86026280D01*
X143002002Y-86121726D01*
X142841447Y-86250815D01*
X142709024Y-86408630D01*
X142609776Y-86589162D01*
X142547484Y-86785532D01*
X142547143Y-86788570D01*
X142547143Y-86788571D01*
X142533663Y-86908754D01*
X142524520Y-86990262D01*
X137935527Y-86990262D01*
X138981305Y-85526173D01*
X139021888Y-85500850D01*
X139032163Y-85500000D01*
X151487963Y-85500000D01*
X151511175Y-85504470D01*
G37*
%TD.AperFunction*%
%TD*%
M02*
