%TF.GenerationSoftware,KiCad,Pcbnew,(6.0.7-1)-1*%
%TF.CreationDate,2023-01-06T18:56:56-05:00*%
%TF.ProjectId,atmega328,61746d65-6761-4333-9238-2e6b69636164,rev?*%
%TF.SameCoordinates,Original*%
%TF.FileFunction,Copper,L2,Bot*%
%TF.FilePolarity,Positive*%
%FSLAX46Y46*%
G04 Gerber Fmt 4.6, Leading zero omitted, Abs format (unit mm)*
G04 Created by KiCad (PCBNEW (6.0.7-1)-1) date 2023-01-06 18:56:56*
%MOMM*%
%LPD*%
G01*
G04 APERTURE LIST*
G04 Aperture macros list*
%AMRoundRect*
0 Rectangle with rounded corners*
0 $1 Rounding radius*
0 $2 $3 $4 $5 $6 $7 $8 $9 X,Y pos of 4 corners*
0 Add a 4 corners polygon primitive as box body*
4,1,4,$2,$3,$4,$5,$6,$7,$8,$9,$2,$3,0*
0 Add four circle primitives for the rounded corners*
1,1,$1+$1,$2,$3*
1,1,$1+$1,$4,$5*
1,1,$1+$1,$6,$7*
1,1,$1+$1,$8,$9*
0 Add four rect primitives between the rounded corners*
20,1,$1+$1,$2,$3,$4,$5,0*
20,1,$1+$1,$4,$5,$6,$7,0*
20,1,$1+$1,$6,$7,$8,$9,0*
20,1,$1+$1,$8,$9,$2,$3,0*%
G04 Aperture macros list end*
%TA.AperFunction,SMDPad,CuDef*%
%ADD10RoundRect,0.100000X0.637500X0.100000X-0.637500X0.100000X-0.637500X-0.100000X0.637500X-0.100000X0*%
%TD*%
%TA.AperFunction,ComponentPad*%
%ADD11R,1.700000X1.700000*%
%TD*%
%TA.AperFunction,ComponentPad*%
%ADD12O,1.700000X1.700000*%
%TD*%
%TA.AperFunction,ComponentPad*%
%ADD13C,1.700000*%
%TD*%
%TA.AperFunction,ViaPad*%
%ADD14C,0.800000*%
%TD*%
%TA.AperFunction,Conductor*%
%ADD15C,0.250000*%
%TD*%
G04 APERTURE END LIST*
D10*
%TO.P,U2,1,~{CSn}*%
%TO.N,CS*%
X147725000Y-102625000D03*
%TO.P,U2,2,CLK*%
%TO.N,SCK*%
X147725000Y-103275000D03*
%TO.P,U2,3,MISO*%
%TO.N,MISO*%
X147725000Y-103925000D03*
%TO.P,U2,4,MOSI*%
%TO.N,MOSI*%
X147725000Y-104575000D03*
%TO.P,U2,5,TEST*%
%TO.N,unconnected-(U2-Pad5)*%
X147725000Y-105225000D03*
%TO.P,U2,6,TEST*%
%TO.N,unconnected-(U2-Pad6)*%
X147725000Y-105875000D03*
%TO.P,U2,7,TEST*%
%TO.N,unconnected-(U2-Pad7)*%
X147725000Y-106525000D03*
%TO.P,U2,8,TEST*%
%TO.N,unconnected-(U2-Pad8)*%
X142000000Y-106525000D03*
%TO.P,U2,9,TEST*%
%TO.N,unconnected-(U2-Pad9)*%
X142000000Y-105875000D03*
%TO.P,U2,10,TEST*%
%TO.N,unconnected-(U2-Pad10)*%
X142000000Y-105225000D03*
%TO.P,U2,11,VDD5V*%
%TO.N,+5V*%
X142000000Y-104575000D03*
%TO.P,U2,12,VDD3V*%
%TO.N,+3V3*%
X142000000Y-103925000D03*
%TO.P,U2,13,GND*%
%TO.N,GND*%
X142000000Y-103275000D03*
%TO.P,U2,14,PWM*%
%TO.N,PWM*%
X142000000Y-102625000D03*
%TD*%
D11*
%TO.P,J3,1,Pin_1*%
%TO.N,TRM1*%
X152525000Y-115600000D03*
D12*
%TO.P,J3,2,Pin_2*%
%TO.N,TRM2*%
X155065000Y-115600000D03*
%TD*%
%TO.P,J6,2,Pin_2*%
%TO.N,ISP_5V*%
X152215000Y-110300000D03*
D11*
%TO.P,J6,1,Pin_1*%
%TO.N,+5V*%
X149675000Y-110300000D03*
%TD*%
D13*
%TO.P,J2,1,Pin_1*%
%TO.N,+5V*%
X143730000Y-114300000D03*
D12*
%TO.P,J2,2,Pin_2*%
%TO.N,GND*%
X146270000Y-114300000D03*
%TD*%
D11*
%TO.P,J1,1,Pin_1*%
%TO.N,GND*%
X141050000Y-87000000D03*
D12*
%TO.P,J1,2,Pin_2*%
%TO.N,TX*%
X143590000Y-87000000D03*
%TO.P,J1,3,Pin_3*%
%TO.N,RX*%
X146130000Y-87000000D03*
%TO.P,J1,4,Pin_4*%
%TO.N,+5V*%
X148670000Y-87000000D03*
%TD*%
D11*
%TO.P,J5,1,Pin_1*%
%TO.N,Vcc*%
X161867860Y-95778570D03*
D12*
%TO.P,J5,2,Pin_2*%
%TO.N,TRM1*%
X161867860Y-98318570D03*
%TO.P,J5,3,Pin_3*%
%TO.N,U*%
X161867860Y-100858570D03*
%TO.P,J5,4,Pin_4*%
%TO.N,V*%
X161867860Y-103398570D03*
%TO.P,J5,5,Pin_5*%
%TO.N,W*%
X161867860Y-105938570D03*
%TO.P,J5,6,Pin_6*%
%TO.N,GND*%
X161867860Y-108478570D03*
%TO.P,J5,7,Pin_7*%
%TO.N,TRM2*%
X161867860Y-111018570D03*
%TO.P,J5,8,Pin_8*%
%TO.N,PWM*%
X161867860Y-113558570D03*
%TD*%
D11*
%TO.P,ISP1,1,Pin_1*%
%TO.N,MISO*%
X157235800Y-103434000D03*
D12*
%TO.P,ISP1,2,Pin_2*%
%TO.N,ISP_5V*%
X157235800Y-105974000D03*
%TO.P,ISP1,3,Pin_3*%
%TO.N,SCK*%
X154695800Y-103434000D03*
%TO.P,ISP1,4,Pin_4*%
%TO.N,MOSI*%
X154695800Y-105974000D03*
%TO.P,ISP1,5,Pin_5*%
%TO.N,RESET*%
X152155800Y-103434000D03*
%TO.P,ISP1,6,Pin_6*%
%TO.N,GND*%
X152155800Y-105974000D03*
%TD*%
D11*
%TO.P,J4,1,Pin_1*%
%TO.N,PD5*%
X136524400Y-107660000D03*
D12*
%TO.P,J4,2,Pin_2*%
%TO.N,PD6*%
X136524400Y-110200000D03*
%TO.P,J4,3,Pin_3*%
%TO.N,PD7*%
X136524400Y-112740000D03*
%TD*%
D14*
%TO.N,U*%
X154299500Y-99325000D03*
%TO.N,V*%
X154150620Y-100400826D03*
%TO.N,W*%
X154125000Y-101400000D03*
%TO.N,CS*%
X143075000Y-98225000D03*
%TO.N,GND*%
X161500000Y-117100000D03*
%TO.N,PWM*%
X146600000Y-107600000D03*
%TO.N,GND*%
X140200000Y-106600000D03*
X132300000Y-101100000D03*
X139800000Y-95700000D03*
X134800000Y-94900000D03*
X145540000Y-94930000D03*
X161440000Y-92660000D03*
X133800000Y-106700000D03*
X139800000Y-94100000D03*
X140400000Y-101600000D03*
X132375000Y-97325000D03*
X148590000Y-99090000D03*
X134900000Y-96500000D03*
X159830000Y-96120000D03*
%TO.N,+5V*%
X143240000Y-104610000D03*
%TO.N,+3V3*%
X139460000Y-103510000D03*
%TO.N,MISO*%
X149480000Y-104160500D03*
X145980000Y-100940000D03*
%TO.N,SCK*%
X147350000Y-98970000D03*
%TO.N,MOSI*%
X145240000Y-102170000D03*
%TO.N,RESET*%
X148370000Y-94630000D03*
X142610000Y-92390000D03*
%TO.N,PD7*%
X141500000Y-98000000D03*
%TD*%
D15*
%TO.N,W*%
X161867860Y-105067860D02*
X160441447Y-103641447D01*
X160441447Y-103641447D02*
X160441447Y-102608553D01*
X160441447Y-102608553D02*
X158683720Y-100850826D01*
X155000000Y-100850826D02*
X155000000Y-100900000D01*
X158683720Y-100850826D02*
X155000000Y-100850826D01*
X161867860Y-105938570D02*
X161867860Y-105067860D01*
X155000000Y-100900000D02*
X154500000Y-101400000D01*
X154500000Y-101400000D02*
X154125000Y-101400000D01*
%TO.N,U*%
X154350000Y-99325000D02*
X154925000Y-99900000D01*
X154299500Y-99325000D02*
X154350000Y-99325000D01*
X154925000Y-99900000D02*
X159005686Y-99900000D01*
X159005686Y-99900000D02*
X159964256Y-100858570D01*
X159964256Y-100858570D02*
X161867860Y-100858570D01*
%TO.N,V*%
X154150620Y-100400826D02*
X158870116Y-100400826D01*
X158870116Y-100400826D02*
X161867860Y-103398570D01*
%TO.N,TRM1*%
X152525000Y-115600000D02*
X153700000Y-116775000D01*
X158850000Y-116775000D02*
X159675000Y-115950000D01*
X159675000Y-115950000D02*
X161678571Y-115950000D01*
X161678571Y-115950000D02*
X163175000Y-114453571D01*
X153700000Y-116775000D02*
X158850000Y-116775000D01*
X163175000Y-114453571D02*
X163175000Y-99625710D01*
X163175000Y-99625710D02*
X161867860Y-98318570D01*
%TO.N,TRM2*%
X161867860Y-111018570D02*
X159850000Y-113036430D01*
X159850000Y-113036430D02*
X159850000Y-114325000D01*
X159850000Y-114325000D02*
X158975000Y-115200000D01*
X155465000Y-115200000D02*
X155065000Y-115600000D01*
X158975000Y-115200000D02*
X155465000Y-115200000D01*
%TO.N,SCK*%
X149850000Y-103275000D02*
X149225000Y-102650000D01*
X149230000Y-102295000D02*
X149230000Y-100410000D01*
X149863560Y-103275000D02*
X149850000Y-103275000D01*
X149225000Y-102650000D02*
X149225000Y-102300000D01*
X149225000Y-102300000D02*
X149230000Y-102295000D01*
X147725000Y-103275000D02*
X149863560Y-103275000D01*
X149863560Y-103275000D02*
X150913560Y-102225000D01*
X154690000Y-103520000D02*
X153514280Y-102344280D01*
X153514280Y-102344280D02*
X152994280Y-102344280D01*
X152994280Y-102344280D02*
X152875000Y-102225000D01*
X152875000Y-102225000D02*
X150913560Y-102225000D01*
%TO.N,MOSI*%
X153405000Y-104775000D02*
X150200000Y-104775000D01*
X153405000Y-104775000D02*
X154690000Y-106060000D01*
X150089500Y-104885500D02*
X148724041Y-104885500D01*
X150200000Y-104775000D02*
X150089500Y-104885500D01*
X148724041Y-104885500D02*
X148413541Y-104575000D01*
X147725000Y-104575000D02*
X148413541Y-104575000D01*
%TO.N,CS*%
X147725000Y-102625000D02*
X146800000Y-101700000D01*
X144300000Y-98225000D02*
X143075000Y-98225000D01*
X146800000Y-101700000D02*
X146800000Y-100725000D01*
X146800000Y-100725000D02*
X144300000Y-98225000D01*
%TO.N,+5V*%
X143210000Y-104580000D02*
X143240000Y-104610000D01*
X141987500Y-104580000D02*
X143210000Y-104580000D01*
%TO.N,+3V3*%
X139880000Y-103930000D02*
X139460000Y-103510000D01*
X141987500Y-103930000D02*
X139880000Y-103930000D01*
%TO.N,MISO*%
X149480000Y-104160500D02*
X149060500Y-104160500D01*
X147712500Y-103930000D02*
X146920000Y-103930000D01*
X145980000Y-102990000D02*
X145980000Y-100940000D01*
X149060500Y-104160500D02*
X148825000Y-103925000D01*
X148825000Y-103925000D02*
X147725000Y-103925000D01*
X146920000Y-103930000D02*
X145980000Y-102990000D01*
%TO.N,SCK*%
X147444700Y-98970000D02*
X147350000Y-98970000D01*
X149230000Y-100410000D02*
X148900000Y-100080000D01*
X148554700Y-100080000D02*
X147444700Y-98970000D01*
X148900000Y-100080000D02*
X148554700Y-100080000D01*
%TO.N,MOSI*%
X146933600Y-104580000D02*
X145240000Y-102886400D01*
X147712500Y-104580000D02*
X146933600Y-104580000D01*
X145240000Y-102886400D02*
X145240000Y-102170000D01*
%TO.N,RESET*%
X148370000Y-94630000D02*
X146140000Y-92400000D01*
X146140000Y-92400000D02*
X142620000Y-92400000D01*
X142620000Y-92400000D02*
X142610000Y-92390000D01*
%TO.N,PD7*%
X137700000Y-101000000D02*
X140700000Y-98000000D01*
X137700000Y-104000000D02*
X137700000Y-101000000D01*
X140700000Y-98000000D02*
X141500000Y-98000000D01*
X135325000Y-111605000D02*
X135325000Y-106375000D01*
X135325000Y-106375000D02*
X137700000Y-104000000D01*
X136500000Y-112780000D02*
X135325000Y-111605000D01*
%TO.N,PWM*%
X142000000Y-102625000D02*
X144342204Y-102625000D01*
X146650000Y-104932796D02*
X146650000Y-107600000D01*
X144342204Y-102625000D02*
X146650000Y-104932796D01*
%TD*%
%TA.AperFunction,Conductor*%
%TO.N,GND*%
G36*
X150518168Y-85107413D02*
G01*
X160996338Y-89338981D01*
X161038990Y-89372084D01*
X165380459Y-95269071D01*
X165399730Y-95328794D01*
X165213065Y-113262675D01*
X165212483Y-113318599D01*
X165197233Y-113370368D01*
X163813416Y-115565194D01*
X161932548Y-118548376D01*
X161885519Y-118587516D01*
X161839255Y-118594114D01*
X139915135Y-116469748D01*
X151474500Y-116469748D01*
X151486133Y-116528231D01*
X151530448Y-116594552D01*
X151596769Y-116638867D01*
X151606332Y-116640769D01*
X151606334Y-116640770D01*
X151629005Y-116645279D01*
X151655252Y-116650500D01*
X153074166Y-116650500D01*
X153132357Y-116669407D01*
X153144170Y-116679496D01*
X153456731Y-116992057D01*
X153462565Y-116998424D01*
X153487545Y-117028194D01*
X153521205Y-117047627D01*
X153528489Y-117052268D01*
X153560316Y-117074554D01*
X153568684Y-117076796D01*
X153573971Y-117079262D01*
X153579456Y-117081258D01*
X153586955Y-117085588D01*
X153595481Y-117087091D01*
X153595483Y-117087092D01*
X153625216Y-117092334D01*
X153633650Y-117094204D01*
X153671193Y-117104264D01*
X153679822Y-117103509D01*
X153709905Y-117100877D01*
X153718534Y-117100500D01*
X158831466Y-117100500D01*
X158840095Y-117100877D01*
X158878807Y-117104264D01*
X158916350Y-117094204D01*
X158924784Y-117092334D01*
X158954517Y-117087092D01*
X158954519Y-117087091D01*
X158963045Y-117085588D01*
X158970544Y-117081258D01*
X158976029Y-117079262D01*
X158981316Y-117076796D01*
X158989684Y-117074554D01*
X159021511Y-117052268D01*
X159028795Y-117047627D01*
X159062455Y-117028194D01*
X159087430Y-116998430D01*
X159093264Y-116992062D01*
X159780831Y-116304496D01*
X159835348Y-116276719D01*
X159850835Y-116275500D01*
X161660037Y-116275500D01*
X161668666Y-116275877D01*
X161707378Y-116279264D01*
X161716876Y-116276719D01*
X161744920Y-116269204D01*
X161753355Y-116267334D01*
X161783088Y-116262092D01*
X161783090Y-116262091D01*
X161791616Y-116260588D01*
X161799115Y-116256258D01*
X161804600Y-116254262D01*
X161809887Y-116251796D01*
X161818255Y-116249554D01*
X161850082Y-116227268D01*
X161857366Y-116222627D01*
X161863354Y-116219170D01*
X161891026Y-116203194D01*
X161916002Y-116173429D01*
X161921836Y-116167061D01*
X163392069Y-114696829D01*
X163398424Y-114691006D01*
X163428194Y-114666026D01*
X163447636Y-114632352D01*
X163452261Y-114625093D01*
X163453363Y-114623520D01*
X163474554Y-114593255D01*
X163476795Y-114584893D01*
X163479258Y-114579611D01*
X163481257Y-114574117D01*
X163485588Y-114566616D01*
X163492337Y-114528342D01*
X163494206Y-114519915D01*
X163502022Y-114490744D01*
X163502022Y-114490741D01*
X163504263Y-114482378D01*
X163500877Y-114443674D01*
X163500500Y-114435046D01*
X163500500Y-99644236D01*
X163500877Y-99635608D01*
X163503508Y-99605530D01*
X163504263Y-99596903D01*
X163502022Y-99588540D01*
X163502022Y-99588537D01*
X163494206Y-99559366D01*
X163492337Y-99550938D01*
X163487092Y-99521195D01*
X163485588Y-99512665D01*
X163481257Y-99505162D01*
X163479258Y-99499671D01*
X163476796Y-99494391D01*
X163474554Y-99486026D01*
X163452268Y-99454199D01*
X163447627Y-99446915D01*
X163432523Y-99420754D01*
X163428194Y-99413255D01*
X163398429Y-99388279D01*
X163392061Y-99382445D01*
X162856783Y-98847167D01*
X162829006Y-98792650D01*
X162832848Y-98745914D01*
X162832958Y-98745585D01*
X162889953Y-98574251D01*
X162895684Y-98557024D01*
X162895684Y-98557022D01*
X162897211Y-98552433D01*
X162900422Y-98527019D01*
X162918771Y-98381762D01*
X162923031Y-98348044D01*
X162923443Y-98318570D01*
X162921313Y-98296846D01*
X162903812Y-98118350D01*
X162903811Y-98118346D01*
X162903340Y-98113540D01*
X162889663Y-98068238D01*
X162847368Y-97928154D01*
X162843795Y-97916319D01*
X162747078Y-97734419D01*
X162616871Y-97574770D01*
X162600650Y-97561351D01*
X162461862Y-97446535D01*
X162461860Y-97446534D01*
X162458135Y-97443452D01*
X162276915Y-97345467D01*
X162213715Y-97325903D01*
X162084735Y-97285977D01*
X162084731Y-97285976D01*
X162080114Y-97284547D01*
X162075306Y-97284042D01*
X162075303Y-97284041D01*
X161880045Y-97263519D01*
X161880043Y-97263519D01*
X161875229Y-97263013D01*
X161815214Y-97268475D01*
X161674882Y-97281245D01*
X161674877Y-97281246D01*
X161670063Y-97281684D01*
X161472432Y-97339850D01*
X161468148Y-97342089D01*
X161468147Y-97342090D01*
X161457288Y-97347767D01*
X161289862Y-97435296D01*
X161286091Y-97438328D01*
X161133080Y-97561351D01*
X161133077Y-97561353D01*
X161129307Y-97564385D01*
X161126193Y-97568096D01*
X161126192Y-97568097D01*
X161012866Y-97703154D01*
X160996884Y-97722200D01*
X160994549Y-97726448D01*
X160994548Y-97726449D01*
X160987815Y-97738696D01*
X160897636Y-97902732D01*
X160896173Y-97907345D01*
X160896171Y-97907349D01*
X160873620Y-97978440D01*
X160835344Y-98099102D01*
X160834804Y-98103914D01*
X160834804Y-98103915D01*
X160813164Y-98296846D01*
X160812380Y-98303832D01*
X160817452Y-98364233D01*
X160823163Y-98432236D01*
X160829619Y-98509123D01*
X160830952Y-98513771D01*
X160830952Y-98513772D01*
X160873459Y-98662010D01*
X160886404Y-98707156D01*
X160980572Y-98890388D01*
X161108537Y-99051840D01*
X161265424Y-99185361D01*
X161269647Y-99187721D01*
X161269651Y-99187724D01*
X161386562Y-99253063D01*
X161445258Y-99285867D01*
X161449856Y-99287361D01*
X161636584Y-99348033D01*
X161636586Y-99348034D01*
X161641189Y-99349529D01*
X161845754Y-99373921D01*
X161850576Y-99373550D01*
X161850579Y-99373550D01*
X161918401Y-99368331D01*
X162051160Y-99358116D01*
X162249585Y-99302715D01*
X162280024Y-99287339D01*
X162340489Y-99277978D01*
X162394665Y-99305701D01*
X162820504Y-99731540D01*
X162848281Y-99786057D01*
X162849500Y-99801544D01*
X162849500Y-100121977D01*
X162830593Y-100180168D01*
X162781093Y-100216132D01*
X162719907Y-100216132D01*
X162673781Y-100184548D01*
X162619931Y-100118522D01*
X162616871Y-100114770D01*
X162600650Y-100101351D01*
X162461862Y-99986535D01*
X162461860Y-99986534D01*
X162458135Y-99983452D01*
X162276915Y-99885467D01*
X162194279Y-99859887D01*
X162084735Y-99825977D01*
X162084731Y-99825976D01*
X162080114Y-99824547D01*
X162075306Y-99824042D01*
X162075303Y-99824041D01*
X161880045Y-99803519D01*
X161880043Y-99803519D01*
X161875229Y-99803013D01*
X161815214Y-99808475D01*
X161674882Y-99821245D01*
X161674877Y-99821246D01*
X161670063Y-99821684D01*
X161472432Y-99879850D01*
X161468148Y-99882089D01*
X161468147Y-99882090D01*
X161457288Y-99887767D01*
X161289862Y-99975296D01*
X161286091Y-99978328D01*
X161133080Y-100101351D01*
X161133077Y-100101353D01*
X161129307Y-100104385D01*
X161126193Y-100108096D01*
X161126192Y-100108097D01*
X161006702Y-100250500D01*
X160996884Y-100262200D01*
X160994549Y-100266448D01*
X160994548Y-100266449D01*
X160984914Y-100283973D01*
X160897636Y-100442732D01*
X160896173Y-100447344D01*
X160896170Y-100447351D01*
X160890888Y-100464004D01*
X160855271Y-100513754D01*
X160796522Y-100533070D01*
X160140090Y-100533070D01*
X160081899Y-100514163D01*
X160070086Y-100504074D01*
X159248955Y-99682943D01*
X159243120Y-99676575D01*
X159218141Y-99646806D01*
X159184478Y-99627371D01*
X159177197Y-99622732D01*
X159174742Y-99621013D01*
X159145370Y-99600446D01*
X159137002Y-99598204D01*
X159131715Y-99595738D01*
X159126230Y-99593742D01*
X159118731Y-99589412D01*
X159110205Y-99587909D01*
X159110203Y-99587908D01*
X159080470Y-99582666D01*
X159072035Y-99580796D01*
X159042860Y-99572978D01*
X159034493Y-99570736D01*
X159025864Y-99571491D01*
X158995781Y-99574123D01*
X158987152Y-99574500D01*
X155100834Y-99574500D01*
X155042643Y-99555593D01*
X155030830Y-99545504D01*
X154928668Y-99443342D01*
X154900891Y-99388825D01*
X154900519Y-99360419D01*
X154905182Y-99325000D01*
X154884544Y-99168238D01*
X154824036Y-99022159D01*
X154727782Y-98896718D01*
X154602341Y-98800464D01*
X154456262Y-98739956D01*
X154299500Y-98719318D01*
X154142738Y-98739956D01*
X153996659Y-98800464D01*
X153871218Y-98896718D01*
X153774964Y-99022159D01*
X153714456Y-99168238D01*
X153693818Y-99325000D01*
X153714456Y-99481762D01*
X153774964Y-99627841D01*
X153778915Y-99632990D01*
X153861673Y-99740843D01*
X153882097Y-99798519D01*
X153864719Y-99857184D01*
X153843399Y-99879651D01*
X153722338Y-99972544D01*
X153626084Y-100097985D01*
X153565576Y-100244064D01*
X153544938Y-100400826D01*
X153565576Y-100557588D01*
X153626084Y-100703667D01*
X153719145Y-100824946D01*
X153721452Y-100827953D01*
X153741876Y-100885628D01*
X153724498Y-100944294D01*
X153703177Y-100966762D01*
X153696718Y-100971718D01*
X153600464Y-101097159D01*
X153539956Y-101243238D01*
X153519318Y-101400000D01*
X153539956Y-101556762D01*
X153600464Y-101702841D01*
X153696718Y-101828282D01*
X153755197Y-101873154D01*
X153770339Y-101884773D01*
X153796017Y-101922134D01*
X153800369Y-101921049D01*
X153831352Y-101928344D01*
X153936279Y-101971806D01*
X153968238Y-101985044D01*
X154125000Y-102005682D01*
X154281762Y-101985044D01*
X154427841Y-101924536D01*
X154553282Y-101828282D01*
X154649536Y-101702841D01*
X154649901Y-101703121D01*
X154682578Y-101670443D01*
X154712455Y-101653194D01*
X154737431Y-101623429D01*
X154743265Y-101617061D01*
X155155004Y-101205322D01*
X155209521Y-101177545D01*
X155225008Y-101176326D01*
X158507886Y-101176326D01*
X158566077Y-101195233D01*
X158577890Y-101205322D01*
X160086951Y-102714384D01*
X160114728Y-102768901D01*
X160115947Y-102784388D01*
X160115947Y-103622913D01*
X160115570Y-103631542D01*
X160112183Y-103670254D01*
X160114425Y-103678621D01*
X160122243Y-103707796D01*
X160124113Y-103716230D01*
X160130859Y-103754492D01*
X160135189Y-103761991D01*
X160137185Y-103767476D01*
X160139651Y-103772763D01*
X160141893Y-103781131D01*
X160159899Y-103806846D01*
X160164179Y-103812958D01*
X160168818Y-103820239D01*
X160188253Y-103853902D01*
X160204518Y-103867550D01*
X160218018Y-103878878D01*
X160224386Y-103884712D01*
X161270104Y-104930430D01*
X161297881Y-104984947D01*
X161288310Y-105045379D01*
X161262134Y-105077588D01*
X161133086Y-105181345D01*
X161133077Y-105181354D01*
X161129307Y-105184385D01*
X161126193Y-105188096D01*
X161126192Y-105188097D01*
X161046519Y-105283048D01*
X160996884Y-105342200D01*
X160994549Y-105346448D01*
X160994548Y-105346449D01*
X160983406Y-105366716D01*
X160897636Y-105522732D01*
X160896173Y-105527345D01*
X160896171Y-105527349D01*
X160886859Y-105556704D01*
X160835344Y-105719102D01*
X160834804Y-105723914D01*
X160834804Y-105723915D01*
X160817993Y-105873795D01*
X160812380Y-105923832D01*
X160829619Y-106129123D01*
X160830952Y-106133771D01*
X160830952Y-106133772D01*
X160881098Y-106308651D01*
X160886404Y-106327156D01*
X160980572Y-106510388D01*
X161108537Y-106671840D01*
X161112217Y-106674972D01*
X161112219Y-106674974D01*
X161169425Y-106723660D01*
X161265424Y-106805361D01*
X161269647Y-106807721D01*
X161269651Y-106807724D01*
X161328818Y-106840791D01*
X161445258Y-106905867D01*
X161449856Y-106907361D01*
X161636584Y-106968033D01*
X161636586Y-106968034D01*
X161641189Y-106969529D01*
X161845754Y-106993921D01*
X161850576Y-106993550D01*
X161850579Y-106993550D01*
X161918401Y-106988331D01*
X162051160Y-106978116D01*
X162249585Y-106922715D01*
X162253898Y-106920536D01*
X162253904Y-106920534D01*
X162429149Y-106832011D01*
X162429151Y-106832010D01*
X162433470Y-106829828D01*
X162464787Y-106805361D01*
X162591995Y-106705976D01*
X162591999Y-106705972D01*
X162595811Y-106702994D01*
X162608812Y-106687933D01*
X162675557Y-106610607D01*
X162727893Y-106578911D01*
X162788864Y-106584030D01*
X162835181Y-106624010D01*
X162849500Y-106675295D01*
X162849500Y-110281977D01*
X162830593Y-110340168D01*
X162781093Y-110376132D01*
X162719907Y-110376132D01*
X162673781Y-110344548D01*
X162619931Y-110278522D01*
X162616871Y-110274770D01*
X162558763Y-110226699D01*
X162461862Y-110146535D01*
X162461860Y-110146534D01*
X162458135Y-110143452D01*
X162276915Y-110045467D01*
X162213715Y-110025903D01*
X162084735Y-109985977D01*
X162084731Y-109985976D01*
X162080114Y-109984547D01*
X162075306Y-109984042D01*
X162075303Y-109984041D01*
X161880045Y-109963519D01*
X161880043Y-109963519D01*
X161875229Y-109963013D01*
X161815214Y-109968475D01*
X161674882Y-109981245D01*
X161674877Y-109981246D01*
X161670063Y-109981684D01*
X161472432Y-110039850D01*
X161468148Y-110042089D01*
X161468147Y-110042090D01*
X161457288Y-110047767D01*
X161289862Y-110135296D01*
X161286091Y-110138328D01*
X161133080Y-110261351D01*
X161133077Y-110261353D01*
X161129307Y-110264385D01*
X161126193Y-110268096D01*
X161126192Y-110268097D01*
X161072380Y-110332228D01*
X160996884Y-110422200D01*
X160994549Y-110426448D01*
X160994548Y-110426449D01*
X160987948Y-110438454D01*
X160897636Y-110602732D01*
X160896173Y-110607345D01*
X160896171Y-110607349D01*
X160869034Y-110692896D01*
X160835344Y-110799102D01*
X160834804Y-110803914D01*
X160834804Y-110803915D01*
X160815657Y-110974621D01*
X160812380Y-111003832D01*
X160812785Y-111008652D01*
X160827631Y-111185446D01*
X160829619Y-111209123D01*
X160886404Y-111407156D01*
X160888618Y-111411464D01*
X160898400Y-111430498D01*
X160908181Y-111490897D01*
X160880351Y-111545753D01*
X159632943Y-112793161D01*
X159626576Y-112798995D01*
X159596806Y-112823975D01*
X159592477Y-112831474D01*
X159577373Y-112857635D01*
X159572732Y-112864919D01*
X159550446Y-112896746D01*
X159548204Y-112905114D01*
X159545738Y-112910401D01*
X159543742Y-112915886D01*
X159539412Y-112923385D01*
X159537909Y-112931911D01*
X159537908Y-112931913D01*
X159532666Y-112961646D01*
X159530796Y-112970080D01*
X159520736Y-113007623D01*
X159521491Y-113016252D01*
X159524123Y-113046335D01*
X159524500Y-113054964D01*
X159524500Y-114149166D01*
X159505593Y-114207357D01*
X159495504Y-114219170D01*
X158869170Y-114845504D01*
X158814653Y-114873281D01*
X158799166Y-114874500D01*
X155871774Y-114874500D01*
X155813583Y-114855593D01*
X155808669Y-114851781D01*
X155805945Y-114849527D01*
X155655275Y-114724882D01*
X155474055Y-114626897D01*
X155388292Y-114600349D01*
X155281875Y-114567407D01*
X155281871Y-114567406D01*
X155277254Y-114565977D01*
X155272446Y-114565472D01*
X155272443Y-114565471D01*
X155077185Y-114544949D01*
X155077183Y-114544949D01*
X155072369Y-114544443D01*
X155016800Y-114549500D01*
X154872022Y-114562675D01*
X154872017Y-114562676D01*
X154867203Y-114563114D01*
X154669572Y-114621280D01*
X154665288Y-114623519D01*
X154665287Y-114623520D01*
X154598329Y-114658525D01*
X154487002Y-114716726D01*
X154483231Y-114719758D01*
X154330220Y-114842781D01*
X154330217Y-114842783D01*
X154326447Y-114845815D01*
X154323333Y-114849526D01*
X154323332Y-114849527D01*
X154277406Y-114904260D01*
X154194024Y-115003630D01*
X154094776Y-115184162D01*
X154093313Y-115188775D01*
X154093311Y-115188779D01*
X154062647Y-115285446D01*
X154032484Y-115380532D01*
X154031944Y-115385344D01*
X154031944Y-115385345D01*
X154016053Y-115527022D01*
X154009520Y-115585262D01*
X154013941Y-115637908D01*
X154023970Y-115757335D01*
X154026759Y-115790553D01*
X154083544Y-115988586D01*
X154177712Y-116171818D01*
X154262873Y-116279264D01*
X154270594Y-116289006D01*
X154291921Y-116346354D01*
X154275467Y-116405286D01*
X154227517Y-116443291D01*
X154193008Y-116449500D01*
X153875834Y-116449500D01*
X153817643Y-116430593D01*
X153805830Y-116420504D01*
X153604496Y-116219170D01*
X153576719Y-116164653D01*
X153575500Y-116149166D01*
X153575500Y-114730252D01*
X153568245Y-114693780D01*
X153565770Y-114681334D01*
X153565769Y-114681332D01*
X153563867Y-114671769D01*
X153519552Y-114605448D01*
X153453231Y-114561133D01*
X153443668Y-114559231D01*
X153443666Y-114559230D01*
X153420995Y-114554721D01*
X153394748Y-114549500D01*
X151655252Y-114549500D01*
X151629005Y-114554721D01*
X151606334Y-114559230D01*
X151606332Y-114559231D01*
X151596769Y-114561133D01*
X151530448Y-114605448D01*
X151486133Y-114671769D01*
X151484231Y-114681332D01*
X151484230Y-114681334D01*
X151481755Y-114693780D01*
X151474500Y-114730252D01*
X151474500Y-116469748D01*
X139915135Y-116469748D01*
X136131936Y-116103170D01*
X136075952Y-116078838D01*
X134044991Y-114285262D01*
X142674520Y-114285262D01*
X142678000Y-114326699D01*
X142691073Y-114482378D01*
X142691759Y-114490553D01*
X142693092Y-114495201D01*
X142693092Y-114495202D01*
X142746465Y-114681334D01*
X142748544Y-114688586D01*
X142842712Y-114871818D01*
X142970677Y-115033270D01*
X142974357Y-115036402D01*
X142974359Y-115036404D01*
X143087017Y-115132283D01*
X143127564Y-115166791D01*
X143131787Y-115169151D01*
X143131791Y-115169154D01*
X143171342Y-115191258D01*
X143307398Y-115267297D01*
X143311996Y-115268791D01*
X143498724Y-115329463D01*
X143498726Y-115329464D01*
X143503329Y-115330959D01*
X143707894Y-115355351D01*
X143712716Y-115354980D01*
X143712719Y-115354980D01*
X143780541Y-115349761D01*
X143913300Y-115339546D01*
X144111725Y-115284145D01*
X144116038Y-115281966D01*
X144116044Y-115281964D01*
X144291289Y-115193441D01*
X144291291Y-115193440D01*
X144295610Y-115191258D01*
X144304693Y-115184162D01*
X144454135Y-115067406D01*
X144454139Y-115067402D01*
X144457951Y-115064424D01*
X144592564Y-114908472D01*
X144611863Y-114874500D01*
X144691934Y-114733550D01*
X144691935Y-114733547D01*
X144694323Y-114729344D01*
X144698521Y-114716726D01*
X144757824Y-114538454D01*
X144757824Y-114538452D01*
X144759351Y-114533863D01*
X144760049Y-114528343D01*
X144784823Y-114332228D01*
X144785171Y-114329474D01*
X144785583Y-114300000D01*
X144777658Y-114219170D01*
X144765952Y-114099780D01*
X144765951Y-114099776D01*
X144765480Y-114094970D01*
X144705935Y-113897749D01*
X144609218Y-113715849D01*
X144479011Y-113556200D01*
X144416425Y-113504424D01*
X144324002Y-113427965D01*
X144324000Y-113427964D01*
X144320275Y-113424882D01*
X144161628Y-113339102D01*
X144143309Y-113329197D01*
X144143308Y-113329197D01*
X144139055Y-113326897D01*
X144075855Y-113307333D01*
X143946875Y-113267407D01*
X143946871Y-113267406D01*
X143942254Y-113265977D01*
X143937446Y-113265472D01*
X143937443Y-113265471D01*
X143742185Y-113244949D01*
X143742183Y-113244949D01*
X143737369Y-113244443D01*
X143677354Y-113249905D01*
X143537022Y-113262675D01*
X143537017Y-113262676D01*
X143532203Y-113263114D01*
X143334572Y-113321280D01*
X143330288Y-113323519D01*
X143330287Y-113323520D01*
X143262528Y-113358944D01*
X143152002Y-113416726D01*
X143148231Y-113419758D01*
X142995220Y-113542781D01*
X142995217Y-113542783D01*
X142991447Y-113545815D01*
X142988333Y-113549526D01*
X142988332Y-113549527D01*
X142919752Y-113631258D01*
X142859024Y-113703630D01*
X142856689Y-113707878D01*
X142856688Y-113707879D01*
X142849955Y-113720126D01*
X142759776Y-113884162D01*
X142697484Y-114080532D01*
X142696944Y-114085344D01*
X142696944Y-114085345D01*
X142689786Y-114149166D01*
X142674520Y-114285262D01*
X134044991Y-114285262D01*
X131042608Y-111633807D01*
X134995736Y-111633807D01*
X134997978Y-111642174D01*
X135005796Y-111671349D01*
X135007666Y-111679783D01*
X135014412Y-111718045D01*
X135018742Y-111725544D01*
X135020738Y-111731029D01*
X135023204Y-111736316D01*
X135025446Y-111744684D01*
X135040000Y-111765468D01*
X135047732Y-111776511D01*
X135052371Y-111783792D01*
X135071806Y-111817455D01*
X135081519Y-111825605D01*
X135101571Y-111842431D01*
X135107939Y-111848265D01*
X135518756Y-112259082D01*
X135546533Y-112313599D01*
X135543118Y-112359020D01*
X135491884Y-112520532D01*
X135491344Y-112525344D01*
X135491344Y-112525345D01*
X135473610Y-112683452D01*
X135468920Y-112725262D01*
X135469325Y-112730082D01*
X135484500Y-112910793D01*
X135486159Y-112930553D01*
X135487492Y-112935201D01*
X135487492Y-112935202D01*
X135520595Y-113050644D01*
X135542944Y-113128586D01*
X135637112Y-113311818D01*
X135765077Y-113473270D01*
X135768757Y-113476402D01*
X135768759Y-113476404D01*
X135842338Y-113539024D01*
X135921964Y-113606791D01*
X135926187Y-113609151D01*
X135926191Y-113609154D01*
X135965742Y-113631258D01*
X136101798Y-113707297D01*
X136106396Y-113708791D01*
X136293124Y-113769463D01*
X136293126Y-113769464D01*
X136297729Y-113770959D01*
X136502294Y-113795351D01*
X136507116Y-113794980D01*
X136507119Y-113794980D01*
X136574941Y-113789761D01*
X136707700Y-113779546D01*
X136906125Y-113724145D01*
X136910438Y-113721966D01*
X136910444Y-113721964D01*
X137085689Y-113633441D01*
X137085691Y-113633440D01*
X137090010Y-113631258D01*
X137125343Y-113603653D01*
X137248535Y-113507406D01*
X137248539Y-113507402D01*
X137252351Y-113504424D01*
X137386964Y-113348472D01*
X137397914Y-113329197D01*
X137486334Y-113173550D01*
X137486335Y-113173547D01*
X137488723Y-113169344D01*
X137498989Y-113138485D01*
X137552224Y-112978454D01*
X137552224Y-112978452D01*
X137553751Y-112973863D01*
X137554757Y-112965905D01*
X137579223Y-112772228D01*
X137579571Y-112769474D01*
X137579983Y-112740000D01*
X137565057Y-112587767D01*
X137560352Y-112539780D01*
X137560351Y-112539776D01*
X137559880Y-112534970D01*
X137556581Y-112524041D01*
X137501733Y-112342380D01*
X137500335Y-112337749D01*
X137403618Y-112155849D01*
X137273411Y-111996200D01*
X137269682Y-111993115D01*
X137118402Y-111867965D01*
X137118400Y-111867964D01*
X137114675Y-111864882D01*
X136963226Y-111782994D01*
X136937709Y-111769197D01*
X136937708Y-111769197D01*
X136933455Y-111766897D01*
X136861696Y-111744684D01*
X136741275Y-111707407D01*
X136741271Y-111707406D01*
X136736654Y-111705977D01*
X136731846Y-111705472D01*
X136731843Y-111705471D01*
X136536585Y-111684949D01*
X136536583Y-111684949D01*
X136531769Y-111684443D01*
X136471754Y-111689905D01*
X136331422Y-111702675D01*
X136331417Y-111702676D01*
X136326603Y-111703114D01*
X136128972Y-111761280D01*
X136124688Y-111763519D01*
X136124687Y-111763520D01*
X136070379Y-111791912D01*
X136010050Y-111802116D01*
X135954508Y-111774182D01*
X135679496Y-111499170D01*
X135651719Y-111444653D01*
X135650500Y-111429166D01*
X135650500Y-111050013D01*
X135669407Y-110991822D01*
X135718907Y-110955858D01*
X135780093Y-110955858D01*
X135813664Y-110974621D01*
X135918276Y-111063653D01*
X135918281Y-111063656D01*
X135921964Y-111066791D01*
X135926187Y-111069151D01*
X135926191Y-111069154D01*
X135965742Y-111091258D01*
X136101798Y-111167297D01*
X136106396Y-111168791D01*
X136293124Y-111229463D01*
X136293126Y-111229464D01*
X136297729Y-111230959D01*
X136502294Y-111255351D01*
X136507116Y-111254980D01*
X136507119Y-111254980D01*
X136574941Y-111249761D01*
X136707700Y-111239546D01*
X136906125Y-111184145D01*
X136910438Y-111181966D01*
X136910444Y-111181964D01*
X136934627Y-111169748D01*
X148624500Y-111169748D01*
X148628779Y-111191258D01*
X148631374Y-111204304D01*
X148636133Y-111228231D01*
X148680448Y-111294552D01*
X148746769Y-111338867D01*
X148756332Y-111340769D01*
X148756334Y-111340770D01*
X148779005Y-111345279D01*
X148805252Y-111350500D01*
X150544748Y-111350500D01*
X150570995Y-111345279D01*
X150593666Y-111340770D01*
X150593668Y-111340769D01*
X150603231Y-111338867D01*
X150669552Y-111294552D01*
X150713867Y-111228231D01*
X150718627Y-111204304D01*
X150721221Y-111191258D01*
X150725500Y-111169748D01*
X150725500Y-110285262D01*
X151159520Y-110285262D01*
X151166949Y-110373735D01*
X151171999Y-110433863D01*
X151176759Y-110490553D01*
X151178092Y-110495201D01*
X151178092Y-110495202D01*
X151217763Y-110633550D01*
X151233544Y-110688586D01*
X151327712Y-110871818D01*
X151455677Y-111033270D01*
X151459357Y-111036402D01*
X151459359Y-111036404D01*
X151520309Y-111088276D01*
X151612564Y-111166791D01*
X151616787Y-111169151D01*
X151616791Y-111169154D01*
X151656342Y-111191258D01*
X151792398Y-111267297D01*
X151796996Y-111268791D01*
X151983724Y-111329463D01*
X151983726Y-111329464D01*
X151988329Y-111330959D01*
X152192894Y-111355351D01*
X152197716Y-111354980D01*
X152197719Y-111354980D01*
X152268259Y-111349552D01*
X152398300Y-111339546D01*
X152596725Y-111284145D01*
X152601038Y-111281966D01*
X152601044Y-111281964D01*
X152776289Y-111193441D01*
X152776291Y-111193440D01*
X152780610Y-111191258D01*
X152905811Y-111093441D01*
X152939135Y-111067406D01*
X152939139Y-111067402D01*
X152942951Y-111064424D01*
X152955391Y-111050013D01*
X153056159Y-110933270D01*
X153077564Y-110908472D01*
X153096231Y-110875613D01*
X153176934Y-110733550D01*
X153176935Y-110733547D01*
X153179323Y-110729344D01*
X153192882Y-110688586D01*
X153242824Y-110538454D01*
X153242824Y-110538452D01*
X153244351Y-110533863D01*
X153270171Y-110329474D01*
X153270583Y-110300000D01*
X153263396Y-110226699D01*
X153250952Y-110099780D01*
X153250951Y-110099776D01*
X153250480Y-110094970D01*
X153236229Y-110047767D01*
X153210772Y-109963452D01*
X153190935Y-109897749D01*
X153094218Y-109715849D01*
X152964011Y-109556200D01*
X152947790Y-109542781D01*
X152809002Y-109427965D01*
X152809000Y-109427964D01*
X152805275Y-109424882D01*
X152663097Y-109348007D01*
X152628309Y-109329197D01*
X152628308Y-109329197D01*
X152624055Y-109326897D01*
X152554764Y-109305448D01*
X152431875Y-109267407D01*
X152431871Y-109267406D01*
X152427254Y-109265977D01*
X152422446Y-109265472D01*
X152422443Y-109265471D01*
X152227185Y-109244949D01*
X152227183Y-109244949D01*
X152222369Y-109244443D01*
X152166800Y-109249500D01*
X152022022Y-109262675D01*
X152022017Y-109262676D01*
X152017203Y-109263114D01*
X151819572Y-109321280D01*
X151815288Y-109323519D01*
X151815287Y-109323520D01*
X151806785Y-109327965D01*
X151637002Y-109416726D01*
X151633231Y-109419758D01*
X151480220Y-109542781D01*
X151480217Y-109542783D01*
X151476447Y-109545815D01*
X151473333Y-109549526D01*
X151473332Y-109549527D01*
X151464585Y-109559952D01*
X151344024Y-109703630D01*
X151341689Y-109707878D01*
X151341688Y-109707879D01*
X151334955Y-109720126D01*
X151244776Y-109884162D01*
X151243313Y-109888775D01*
X151243311Y-109888779D01*
X151212184Y-109986904D01*
X151182484Y-110080532D01*
X151181944Y-110085344D01*
X151181944Y-110085345D01*
X151161862Y-110264385D01*
X151159520Y-110285262D01*
X150725500Y-110285262D01*
X150725500Y-109430252D01*
X150720279Y-109404005D01*
X150715770Y-109381334D01*
X150715769Y-109381332D01*
X150713867Y-109371769D01*
X150669552Y-109305448D01*
X150603231Y-109261133D01*
X150593668Y-109259231D01*
X150593666Y-109259230D01*
X150570995Y-109254721D01*
X150544748Y-109249500D01*
X148805252Y-109249500D01*
X148779005Y-109254721D01*
X148756334Y-109259230D01*
X148756332Y-109259231D01*
X148746769Y-109261133D01*
X148680448Y-109305448D01*
X148636133Y-109371769D01*
X148634231Y-109381332D01*
X148634230Y-109381334D01*
X148629721Y-109404005D01*
X148624500Y-109430252D01*
X148624500Y-111169748D01*
X136934627Y-111169748D01*
X137085689Y-111093441D01*
X137085691Y-111093440D01*
X137090010Y-111091258D01*
X137118302Y-111069154D01*
X137248535Y-110967406D01*
X137248539Y-110967402D01*
X137252351Y-110964424D01*
X137386964Y-110808472D01*
X137434522Y-110724755D01*
X137486334Y-110633550D01*
X137486335Y-110633547D01*
X137488723Y-110629344D01*
X137498989Y-110598485D01*
X137552224Y-110438454D01*
X137552224Y-110438452D01*
X137553751Y-110433863D01*
X137555225Y-110422200D01*
X137579223Y-110232228D01*
X137579571Y-110229474D01*
X137579983Y-110200000D01*
X137568741Y-110085345D01*
X137560352Y-109999780D01*
X137560351Y-109999776D01*
X137559880Y-109994970D01*
X137556581Y-109984041D01*
X137501733Y-109802380D01*
X137500335Y-109797749D01*
X137403618Y-109615849D01*
X137273411Y-109456200D01*
X137222985Y-109414484D01*
X137118402Y-109327965D01*
X137118400Y-109327964D01*
X137114675Y-109324882D01*
X136977012Y-109250448D01*
X136937709Y-109229197D01*
X136937708Y-109229197D01*
X136933455Y-109226897D01*
X136870255Y-109207333D01*
X136741275Y-109167407D01*
X136741271Y-109167406D01*
X136736654Y-109165977D01*
X136731846Y-109165472D01*
X136731843Y-109165471D01*
X136536585Y-109144949D01*
X136536583Y-109144949D01*
X136531769Y-109144443D01*
X136471754Y-109149905D01*
X136331422Y-109162675D01*
X136331417Y-109162676D01*
X136326603Y-109163114D01*
X136128972Y-109221280D01*
X136124688Y-109223519D01*
X136124687Y-109223520D01*
X136073179Y-109250448D01*
X135946402Y-109316726D01*
X135942631Y-109319758D01*
X135811534Y-109425162D01*
X135754336Y-109446889D01*
X135695291Y-109430847D01*
X135656952Y-109383162D01*
X135650500Y-109348007D01*
X135650500Y-108809500D01*
X135669407Y-108751309D01*
X135718907Y-108715345D01*
X135749500Y-108710500D01*
X137394148Y-108710500D01*
X137420395Y-108705279D01*
X137443066Y-108700770D01*
X137443068Y-108700769D01*
X137452631Y-108698867D01*
X137518952Y-108654552D01*
X137563267Y-108588231D01*
X137574900Y-108529748D01*
X137574900Y-106790252D01*
X137563267Y-106731769D01*
X137518952Y-106665448D01*
X137452631Y-106621133D01*
X137443068Y-106619231D01*
X137443066Y-106619230D01*
X137420395Y-106614721D01*
X137394148Y-106609500D01*
X135789834Y-106609500D01*
X135731643Y-106590593D01*
X135695679Y-106541093D01*
X135695679Y-106479907D01*
X135719830Y-106440496D01*
X136786412Y-105373915D01*
X137917069Y-104243258D01*
X137923424Y-104237435D01*
X137953194Y-104212455D01*
X137972636Y-104178781D01*
X137977261Y-104171522D01*
X137994587Y-104146778D01*
X137994587Y-104146777D01*
X137999554Y-104139684D01*
X138001795Y-104131322D01*
X138004258Y-104126040D01*
X138006257Y-104120546D01*
X138010588Y-104113045D01*
X138017337Y-104074771D01*
X138019206Y-104066344D01*
X138027022Y-104037173D01*
X138027022Y-104037170D01*
X138029263Y-104028807D01*
X138025877Y-103990103D01*
X138025500Y-103981475D01*
X138025500Y-103510000D01*
X138854318Y-103510000D01*
X138855165Y-103516434D01*
X138857283Y-103532523D01*
X138874956Y-103666762D01*
X138935464Y-103812841D01*
X139031718Y-103938282D01*
X139157159Y-104034536D01*
X139303238Y-104095044D01*
X139460000Y-104115682D01*
X139540042Y-104105144D01*
X139600201Y-104116294D01*
X139622967Y-104133293D01*
X139636731Y-104147057D01*
X139642565Y-104153424D01*
X139667545Y-104183194D01*
X139687577Y-104194759D01*
X139701205Y-104202627D01*
X139708489Y-104207268D01*
X139740316Y-104229554D01*
X139748684Y-104231796D01*
X139753971Y-104234262D01*
X139759456Y-104236258D01*
X139766955Y-104240588D01*
X139775481Y-104242091D01*
X139775483Y-104242092D01*
X139805216Y-104247334D01*
X139813650Y-104249204D01*
X139851193Y-104259264D01*
X139889908Y-104255877D01*
X139898537Y-104255500D01*
X140978932Y-104255500D01*
X141037123Y-104274407D01*
X141073087Y-104323907D01*
X141073087Y-104385093D01*
X141069481Y-104394524D01*
X141064994Y-104404673D01*
X141062000Y-104430354D01*
X141062000Y-104719646D01*
X141065118Y-104745846D01*
X141110561Y-104848153D01*
X141111101Y-104848692D01*
X141127068Y-104902598D01*
X141111311Y-104951233D01*
X141110259Y-104952287D01*
X141106564Y-104960644D01*
X141106563Y-104960646D01*
X141073550Y-105035319D01*
X141064994Y-105054673D01*
X141062000Y-105080354D01*
X141062000Y-105369646D01*
X141065118Y-105395846D01*
X141110561Y-105498153D01*
X141111101Y-105498692D01*
X141127068Y-105552598D01*
X141111311Y-105601233D01*
X141110259Y-105602287D01*
X141106564Y-105610644D01*
X141106563Y-105610646D01*
X141068225Y-105697365D01*
X141064994Y-105704673D01*
X141062000Y-105730354D01*
X141062000Y-106019646D01*
X141065118Y-106045846D01*
X141110561Y-106148153D01*
X141111101Y-106148692D01*
X141127068Y-106202598D01*
X141111311Y-106251233D01*
X141110259Y-106252287D01*
X141106564Y-106260644D01*
X141106563Y-106260646D01*
X141077159Y-106327156D01*
X141064994Y-106354673D01*
X141062000Y-106380354D01*
X141062000Y-106669646D01*
X141065118Y-106695846D01*
X141110561Y-106798153D01*
X141117029Y-106804610D01*
X141117030Y-106804611D01*
X141139304Y-106826846D01*
X141189787Y-106877241D01*
X141198145Y-106880936D01*
X141285364Y-106919496D01*
X141285366Y-106919496D01*
X141292173Y-106922506D01*
X141299567Y-106923368D01*
X141314878Y-106925153D01*
X141317854Y-106925500D01*
X142682146Y-106925500D01*
X142700061Y-106923368D01*
X142700969Y-106923260D01*
X142700970Y-106923260D01*
X142708346Y-106922382D01*
X142810653Y-106876939D01*
X142820135Y-106867441D01*
X142883286Y-106804179D01*
X142889741Y-106797713D01*
X142902616Y-106768591D01*
X142931996Y-106702136D01*
X142931996Y-106702134D01*
X142935006Y-106695327D01*
X142938000Y-106669646D01*
X142938000Y-106380354D01*
X142936048Y-106363951D01*
X142935760Y-106361531D01*
X142935760Y-106361530D01*
X142934882Y-106354154D01*
X142889439Y-106251847D01*
X142888899Y-106251308D01*
X142872932Y-106197402D01*
X142888689Y-106148767D01*
X142889741Y-106147713D01*
X142895457Y-106134786D01*
X142931996Y-106052136D01*
X142931996Y-106052134D01*
X142935006Y-106045327D01*
X142938000Y-106019646D01*
X142938000Y-105730354D01*
X142934882Y-105704154D01*
X142889439Y-105601847D01*
X142888899Y-105601308D01*
X142872932Y-105547402D01*
X142888689Y-105498767D01*
X142889741Y-105497713D01*
X142935006Y-105395327D01*
X142938000Y-105369646D01*
X142938000Y-105283048D01*
X142956907Y-105224857D01*
X143006407Y-105188893D01*
X143067593Y-105188893D01*
X143074887Y-105191585D01*
X143083238Y-105195044D01*
X143240000Y-105215682D01*
X143396762Y-105195044D01*
X143542841Y-105134536D01*
X143668282Y-105038282D01*
X143764536Y-104912841D01*
X143825044Y-104766762D01*
X143845682Y-104610000D01*
X143825044Y-104453238D01*
X143764536Y-104307159D01*
X143668282Y-104181718D01*
X143542841Y-104085464D01*
X143396762Y-104024956D01*
X143240000Y-104004318D01*
X143083238Y-104024956D01*
X143077241Y-104027440D01*
X143074890Y-104028414D01*
X143073072Y-104028557D01*
X143070975Y-104029119D01*
X143070871Y-104028731D01*
X143013894Y-104033218D01*
X142961723Y-104001251D01*
X142938306Y-103944724D01*
X142938000Y-103936952D01*
X142938000Y-103780354D01*
X142934882Y-103754154D01*
X142889439Y-103651847D01*
X142866755Y-103629202D01*
X142840775Y-103603268D01*
X142810213Y-103572759D01*
X142758252Y-103549787D01*
X142714636Y-103530504D01*
X142714634Y-103530504D01*
X142707827Y-103527494D01*
X142693822Y-103525861D01*
X142684994Y-103524832D01*
X142684993Y-103524832D01*
X142682146Y-103524500D01*
X141317854Y-103524500D01*
X141301451Y-103526452D01*
X141299031Y-103526740D01*
X141299030Y-103526740D01*
X141291654Y-103527618D01*
X141189347Y-103573061D01*
X141182891Y-103579529D01*
X141175356Y-103584707D01*
X141173660Y-103582239D01*
X141132474Y-103603268D01*
X141116905Y-103604500D01*
X140163835Y-103604500D01*
X140105644Y-103585593D01*
X140069680Y-103536093D01*
X140065621Y-103510463D01*
X140065682Y-103510000D01*
X140045044Y-103353238D01*
X139984536Y-103207159D01*
X139888282Y-103081718D01*
X139762841Y-102985464D01*
X139616762Y-102924956D01*
X139460000Y-102904318D01*
X139303238Y-102924956D01*
X139157159Y-102985464D01*
X139031718Y-103081718D01*
X138935464Y-103207159D01*
X138874956Y-103353238D01*
X138854318Y-103510000D01*
X138025500Y-103510000D01*
X138025500Y-102769646D01*
X141062000Y-102769646D01*
X141065118Y-102795846D01*
X141110561Y-102898153D01*
X141189787Y-102977241D01*
X141208387Y-102985464D01*
X141285364Y-103019496D01*
X141285366Y-103019496D01*
X141292173Y-103022506D01*
X141299567Y-103023368D01*
X141314878Y-103025153D01*
X141317854Y-103025500D01*
X142682146Y-103025500D01*
X142700061Y-103023368D01*
X142700969Y-103023260D01*
X142700970Y-103023260D01*
X142708346Y-103022382D01*
X142776546Y-102992089D01*
X142802301Y-102980649D01*
X142802302Y-102980648D01*
X142810653Y-102976939D01*
X142817109Y-102970472D01*
X142820835Y-102967911D01*
X142876908Y-102950500D01*
X144166370Y-102950500D01*
X144224561Y-102969407D01*
X144236374Y-102979496D01*
X146295504Y-105038627D01*
X146323281Y-105093144D01*
X146324500Y-105108631D01*
X146324500Y-107005663D01*
X146305593Y-107063854D01*
X146285767Y-107084205D01*
X146171718Y-107171718D01*
X146075464Y-107297159D01*
X146014956Y-107443238D01*
X145994318Y-107600000D01*
X146014956Y-107756762D01*
X146075464Y-107902841D01*
X146171718Y-108028282D01*
X146297159Y-108124536D01*
X146443238Y-108185044D01*
X146600000Y-108205682D01*
X146756762Y-108185044D01*
X146902841Y-108124536D01*
X147028282Y-108028282D01*
X147124536Y-107902841D01*
X147185044Y-107756762D01*
X147205682Y-107600000D01*
X147185044Y-107443238D01*
X147124536Y-107297159D01*
X147028282Y-107171718D01*
X147014233Y-107160938D01*
X146979577Y-107110514D01*
X146975500Y-107082396D01*
X146975500Y-107024500D01*
X146994407Y-106966309D01*
X147043907Y-106930345D01*
X147074500Y-106925500D01*
X148407146Y-106925500D01*
X148425061Y-106923368D01*
X148425969Y-106923260D01*
X148425970Y-106923260D01*
X148433346Y-106922382D01*
X148535653Y-106876939D01*
X148545135Y-106867441D01*
X148608286Y-106804179D01*
X148614741Y-106797713D01*
X148627616Y-106768591D01*
X148656996Y-106702136D01*
X148656996Y-106702134D01*
X148660006Y-106695327D01*
X148663000Y-106669646D01*
X148663000Y-106380354D01*
X148661048Y-106363951D01*
X148660760Y-106361531D01*
X148660760Y-106361530D01*
X148659882Y-106354154D01*
X148614439Y-106251847D01*
X148613899Y-106251308D01*
X148597932Y-106197402D01*
X148613689Y-106148767D01*
X148614741Y-106147713D01*
X148620457Y-106134786D01*
X148656996Y-106052136D01*
X148656996Y-106052134D01*
X148660006Y-106045327D01*
X148663000Y-106019646D01*
X148663000Y-105730354D01*
X148659882Y-105704154D01*
X148614439Y-105601847D01*
X148613899Y-105601308D01*
X148597932Y-105547402D01*
X148613689Y-105498767D01*
X148614741Y-105497713D01*
X148660006Y-105395327D01*
X148663000Y-105369646D01*
X148663000Y-105310000D01*
X148681907Y-105251809D01*
X148731407Y-105215845D01*
X148762000Y-105211000D01*
X150070966Y-105211000D01*
X150079595Y-105211377D01*
X150118307Y-105214764D01*
X150155850Y-105204704D01*
X150164284Y-105202834D01*
X150194017Y-105197592D01*
X150194019Y-105197591D01*
X150202545Y-105196088D01*
X150210044Y-105191758D01*
X150215529Y-105189762D01*
X150220816Y-105187296D01*
X150229184Y-105185054D01*
X150261011Y-105162768D01*
X150268295Y-105158127D01*
X150301955Y-105138694D01*
X150307522Y-105132059D01*
X150314157Y-105126492D01*
X150315935Y-105128611D01*
X150356225Y-105103439D01*
X150380168Y-105100500D01*
X153229166Y-105100500D01*
X153287357Y-105119407D01*
X153299170Y-105129496D01*
X153683558Y-105513884D01*
X153711335Y-105568401D01*
X153707920Y-105613820D01*
X153663284Y-105754532D01*
X153662744Y-105759344D01*
X153662744Y-105759345D01*
X153649907Y-105873795D01*
X153640320Y-105959262D01*
X153657559Y-106164553D01*
X153658892Y-106169201D01*
X153658892Y-106169202D01*
X153712118Y-106354822D01*
X153714344Y-106362586D01*
X153808512Y-106545818D01*
X153936477Y-106707270D01*
X153940157Y-106710402D01*
X153940159Y-106710404D01*
X154028383Y-106785488D01*
X154093364Y-106840791D01*
X154097587Y-106843151D01*
X154097591Y-106843154D01*
X154185766Y-106892433D01*
X154273198Y-106941297D01*
X154277796Y-106942791D01*
X154464524Y-107003463D01*
X154464526Y-107003464D01*
X154469129Y-107004959D01*
X154673694Y-107029351D01*
X154678516Y-107028980D01*
X154678519Y-107028980D01*
X154746341Y-107023761D01*
X154879100Y-107013546D01*
X155077525Y-106958145D01*
X155081838Y-106955966D01*
X155081844Y-106955964D01*
X155257089Y-106867441D01*
X155257091Y-106867440D01*
X155261410Y-106865258D01*
X155296743Y-106837653D01*
X155419935Y-106741406D01*
X155419939Y-106741402D01*
X155423751Y-106738424D01*
X155429496Y-106731769D01*
X155520315Y-106626552D01*
X155558364Y-106582472D01*
X155578491Y-106547042D01*
X155657734Y-106407550D01*
X155657735Y-106407547D01*
X155660123Y-106403344D01*
X155663387Y-106393534D01*
X155723624Y-106212454D01*
X155723624Y-106212452D01*
X155725151Y-106207863D01*
X155733750Y-106139798D01*
X155750623Y-106006228D01*
X155750971Y-106003474D01*
X155751383Y-105974000D01*
X155749938Y-105959262D01*
X156180320Y-105959262D01*
X156197559Y-106164553D01*
X156198892Y-106169201D01*
X156198892Y-106169202D01*
X156252118Y-106354822D01*
X156254344Y-106362586D01*
X156348512Y-106545818D01*
X156476477Y-106707270D01*
X156480157Y-106710402D01*
X156480159Y-106710404D01*
X156568383Y-106785488D01*
X156633364Y-106840791D01*
X156637587Y-106843151D01*
X156637591Y-106843154D01*
X156725766Y-106892433D01*
X156813198Y-106941297D01*
X156817796Y-106942791D01*
X157004524Y-107003463D01*
X157004526Y-107003464D01*
X157009129Y-107004959D01*
X157213694Y-107029351D01*
X157218516Y-107028980D01*
X157218519Y-107028980D01*
X157286341Y-107023761D01*
X157419100Y-107013546D01*
X157617525Y-106958145D01*
X157621838Y-106955966D01*
X157621844Y-106955964D01*
X157797089Y-106867441D01*
X157797091Y-106867440D01*
X157801410Y-106865258D01*
X157836743Y-106837653D01*
X157959935Y-106741406D01*
X157959939Y-106741402D01*
X157963751Y-106738424D01*
X157969496Y-106731769D01*
X158060315Y-106626552D01*
X158098364Y-106582472D01*
X158118491Y-106547042D01*
X158197734Y-106407550D01*
X158197735Y-106407547D01*
X158200123Y-106403344D01*
X158203387Y-106393534D01*
X158263624Y-106212454D01*
X158263624Y-106212452D01*
X158265151Y-106207863D01*
X158273750Y-106139798D01*
X158290623Y-106006228D01*
X158290971Y-106003474D01*
X158291383Y-105974000D01*
X158271280Y-105768970D01*
X158254831Y-105714487D01*
X158223345Y-105610202D01*
X158211735Y-105571749D01*
X158115018Y-105389849D01*
X157984811Y-105230200D01*
X157981082Y-105227115D01*
X157829802Y-105101965D01*
X157829800Y-105101964D01*
X157826075Y-105098882D01*
X157644855Y-105000897D01*
X157581655Y-104981333D01*
X157452675Y-104941407D01*
X157452671Y-104941406D01*
X157448054Y-104939977D01*
X157443246Y-104939472D01*
X157443243Y-104939471D01*
X157247985Y-104918949D01*
X157247983Y-104918949D01*
X157243169Y-104918443D01*
X157183154Y-104923905D01*
X157042822Y-104936675D01*
X157042817Y-104936676D01*
X157038003Y-104937114D01*
X156840372Y-104995280D01*
X156836088Y-104997519D01*
X156836087Y-104997520D01*
X156768328Y-105032944D01*
X156657802Y-105090726D01*
X156654031Y-105093758D01*
X156501020Y-105216781D01*
X156501017Y-105216783D01*
X156497247Y-105219815D01*
X156494133Y-105223526D01*
X156494132Y-105223527D01*
X156369134Y-105372494D01*
X156364824Y-105377630D01*
X156362489Y-105381878D01*
X156362488Y-105381879D01*
X156355755Y-105394126D01*
X156265576Y-105558162D01*
X156264113Y-105562775D01*
X156264111Y-105562779D01*
X156250420Y-105605940D01*
X156203284Y-105754532D01*
X156202744Y-105759344D01*
X156202744Y-105759345D01*
X156189907Y-105873795D01*
X156180320Y-105959262D01*
X155749938Y-105959262D01*
X155731280Y-105768970D01*
X155714831Y-105714487D01*
X155683345Y-105610202D01*
X155671735Y-105571749D01*
X155575018Y-105389849D01*
X155444811Y-105230200D01*
X155441082Y-105227115D01*
X155289802Y-105101965D01*
X155289800Y-105101964D01*
X155286075Y-105098882D01*
X155104855Y-105000897D01*
X155041655Y-104981333D01*
X154912675Y-104941407D01*
X154912671Y-104941406D01*
X154908054Y-104939977D01*
X154903246Y-104939472D01*
X154903243Y-104939471D01*
X154707985Y-104918949D01*
X154707983Y-104918949D01*
X154703169Y-104918443D01*
X154643154Y-104923905D01*
X154502822Y-104936675D01*
X154502817Y-104936676D01*
X154498003Y-104937114D01*
X154483417Y-104941407D01*
X154305019Y-104993912D01*
X154305016Y-104993913D01*
X154300372Y-104995280D01*
X154223784Y-105035319D01*
X154163457Y-105045523D01*
X154107917Y-105017590D01*
X153648269Y-104557943D01*
X153642434Y-104551575D01*
X153617455Y-104521806D01*
X153583792Y-104502371D01*
X153576511Y-104497732D01*
X153574056Y-104496013D01*
X153544684Y-104475446D01*
X153536316Y-104473204D01*
X153531029Y-104470738D01*
X153525544Y-104468742D01*
X153518045Y-104464412D01*
X153509519Y-104462909D01*
X153509517Y-104462908D01*
X153479784Y-104457666D01*
X153471349Y-104455796D01*
X153442174Y-104447978D01*
X153433807Y-104445736D01*
X153408182Y-104447978D01*
X153395095Y-104449123D01*
X153386466Y-104449500D01*
X152849904Y-104449500D01*
X152791713Y-104430593D01*
X152755749Y-104381093D01*
X152755749Y-104319907D01*
X152788954Y-104272487D01*
X152879935Y-104201406D01*
X152879939Y-104201402D01*
X152883751Y-104198424D01*
X152893161Y-104187523D01*
X152955902Y-104114835D01*
X153018364Y-104042472D01*
X153020757Y-104038260D01*
X153117734Y-103867550D01*
X153117735Y-103867547D01*
X153120123Y-103863344D01*
X153122015Y-103857659D01*
X153183624Y-103672454D01*
X153183624Y-103672452D01*
X153185151Y-103667863D01*
X153189740Y-103631542D01*
X153206974Y-103495111D01*
X153210971Y-103463474D01*
X153211383Y-103434000D01*
X153206464Y-103383832D01*
X153191752Y-103233780D01*
X153191751Y-103233776D01*
X153191280Y-103228970D01*
X153131735Y-103031749D01*
X153035018Y-102849849D01*
X153019930Y-102831349D01*
X152997804Y-102774308D01*
X153013433Y-102715152D01*
X153060848Y-102676480D01*
X153096650Y-102669780D01*
X153338446Y-102669780D01*
X153396637Y-102688687D01*
X153408450Y-102698776D01*
X153683558Y-102973884D01*
X153711335Y-103028401D01*
X153707920Y-103073820D01*
X153663284Y-103214532D01*
X153662744Y-103219344D01*
X153662744Y-103219345D01*
X153647726Y-103353238D01*
X153640320Y-103419262D01*
X153640725Y-103424082D01*
X153655772Y-103603268D01*
X153657559Y-103624553D01*
X153658892Y-103629201D01*
X153658892Y-103629202D01*
X153711550Y-103812841D01*
X153714344Y-103822586D01*
X153808512Y-104005818D01*
X153936477Y-104167270D01*
X153940157Y-104170402D01*
X153940159Y-104170404D01*
X154032749Y-104249204D01*
X154093364Y-104300791D01*
X154097587Y-104303151D01*
X154097591Y-104303154D01*
X154141048Y-104327441D01*
X154273198Y-104401297D01*
X154277796Y-104402791D01*
X154464524Y-104463463D01*
X154464526Y-104463464D01*
X154469129Y-104464959D01*
X154673694Y-104489351D01*
X154678516Y-104488980D01*
X154678519Y-104488980D01*
X154749059Y-104483552D01*
X154879100Y-104473546D01*
X155077525Y-104418145D01*
X155081838Y-104415966D01*
X155081844Y-104415964D01*
X155257089Y-104327441D01*
X155257091Y-104327440D01*
X155261410Y-104325258D01*
X155265227Y-104322276D01*
X155288942Y-104303748D01*
X156185300Y-104303748D01*
X156196933Y-104362231D01*
X156241248Y-104428552D01*
X156307569Y-104472867D01*
X156317132Y-104474769D01*
X156317134Y-104474770D01*
X156339805Y-104479279D01*
X156366052Y-104484500D01*
X158105548Y-104484500D01*
X158131795Y-104479279D01*
X158154466Y-104474770D01*
X158154468Y-104474769D01*
X158164031Y-104472867D01*
X158230352Y-104428552D01*
X158274667Y-104362231D01*
X158286300Y-104303748D01*
X158286300Y-102564252D01*
X158278798Y-102526535D01*
X158276570Y-102515334D01*
X158276569Y-102515332D01*
X158274667Y-102505769D01*
X158230352Y-102439448D01*
X158164031Y-102395133D01*
X158154468Y-102393231D01*
X158154466Y-102393230D01*
X158131795Y-102388721D01*
X158105548Y-102383500D01*
X156366052Y-102383500D01*
X156339805Y-102388721D01*
X156317134Y-102393230D01*
X156317132Y-102393231D01*
X156307569Y-102395133D01*
X156241248Y-102439448D01*
X156196933Y-102505769D01*
X156195031Y-102515332D01*
X156195030Y-102515334D01*
X156192802Y-102526535D01*
X156185300Y-102564252D01*
X156185300Y-104303748D01*
X155288942Y-104303748D01*
X155419935Y-104201406D01*
X155419939Y-104201402D01*
X155423751Y-104198424D01*
X155433161Y-104187523D01*
X155495902Y-104114835D01*
X155558364Y-104042472D01*
X155560757Y-104038260D01*
X155657734Y-103867550D01*
X155657735Y-103867547D01*
X155660123Y-103863344D01*
X155662015Y-103857659D01*
X155723624Y-103672454D01*
X155723624Y-103672452D01*
X155725151Y-103667863D01*
X155729740Y-103631542D01*
X155746974Y-103495111D01*
X155750971Y-103463474D01*
X155751383Y-103434000D01*
X155746464Y-103383832D01*
X155731752Y-103233780D01*
X155731751Y-103233776D01*
X155731280Y-103228970D01*
X155671735Y-103031749D01*
X155575018Y-102849849D01*
X155444811Y-102690200D01*
X155429035Y-102677149D01*
X155289802Y-102561965D01*
X155289800Y-102561964D01*
X155286075Y-102558882D01*
X155146259Y-102483284D01*
X155109109Y-102463197D01*
X155109108Y-102463197D01*
X155104855Y-102460897D01*
X155032751Y-102438577D01*
X154912675Y-102401407D01*
X154912671Y-102401406D01*
X154908054Y-102399977D01*
X154903246Y-102399472D01*
X154903243Y-102399471D01*
X154707985Y-102378949D01*
X154707983Y-102378949D01*
X154703169Y-102378443D01*
X154647600Y-102383500D01*
X154502822Y-102396675D01*
X154502817Y-102396676D01*
X154498003Y-102397114D01*
X154425401Y-102418482D01*
X154305019Y-102453912D01*
X154305016Y-102453913D01*
X154300372Y-102455280D01*
X154223784Y-102495319D01*
X154163457Y-102505523D01*
X154107916Y-102477589D01*
X153757556Y-102127230D01*
X153751721Y-102120862D01*
X153732306Y-102097724D01*
X153732302Y-102097721D01*
X153727702Y-102092239D01*
X153727698Y-102092232D01*
X153726736Y-102091086D01*
X153726897Y-102090951D01*
X153708747Y-102061906D01*
X153707481Y-102062281D01*
X153668233Y-102053039D01*
X153661057Y-102049693D01*
X153653964Y-102044726D01*
X153645599Y-102042485D01*
X153640314Y-102040020D01*
X153634825Y-102038022D01*
X153627325Y-102033692D01*
X153618799Y-102032189D01*
X153618797Y-102032188D01*
X153589064Y-102026946D01*
X153580629Y-102025076D01*
X153551454Y-102017258D01*
X153543087Y-102015016D01*
X153534458Y-102015771D01*
X153504375Y-102018403D01*
X153495746Y-102018780D01*
X153173036Y-102018780D01*
X153114845Y-101999873D01*
X153097198Y-101983416D01*
X153093025Y-101978443D01*
X153093022Y-101978440D01*
X153087455Y-101971806D01*
X153053792Y-101952371D01*
X153046511Y-101947732D01*
X153035777Y-101940216D01*
X153014684Y-101925446D01*
X153006316Y-101923204D01*
X153001029Y-101920738D01*
X152995544Y-101918742D01*
X152988045Y-101914412D01*
X152979519Y-101912909D01*
X152979517Y-101912908D01*
X152949784Y-101907666D01*
X152941349Y-101905796D01*
X152912174Y-101897978D01*
X152903807Y-101895736D01*
X152891486Y-101896814D01*
X152865095Y-101899123D01*
X152856466Y-101899500D01*
X150932086Y-101899500D01*
X150923458Y-101899123D01*
X150920136Y-101898832D01*
X150884753Y-101895737D01*
X150876390Y-101897978D01*
X150876387Y-101897978D01*
X150847216Y-101905794D01*
X150838789Y-101907663D01*
X150800515Y-101914412D01*
X150793014Y-101918743D01*
X150787520Y-101920742D01*
X150782238Y-101923205D01*
X150773876Y-101925446D01*
X150748428Y-101943265D01*
X150742038Y-101947739D01*
X150734779Y-101952364D01*
X150701105Y-101971806D01*
X150695536Y-101978443D01*
X150695535Y-101978444D01*
X150676134Y-102001565D01*
X150670300Y-102007933D01*
X150267591Y-102410643D01*
X149926784Y-102751450D01*
X149872267Y-102779227D01*
X149811835Y-102769656D01*
X149786776Y-102751450D01*
X149579496Y-102544170D01*
X149551719Y-102489653D01*
X149550500Y-102474166D01*
X149550500Y-102369550D01*
X149553873Y-102343926D01*
X149555458Y-102338010D01*
X149559264Y-102323807D01*
X149555877Y-102285095D01*
X149555500Y-102276466D01*
X149555500Y-100428522D01*
X149555877Y-100419893D01*
X149558508Y-100389822D01*
X149559263Y-100381193D01*
X149549205Y-100343657D01*
X149547337Y-100335231D01*
X149545050Y-100322260D01*
X149540588Y-100296955D01*
X149536255Y-100289450D01*
X149534262Y-100283973D01*
X149531795Y-100278682D01*
X149529553Y-100270316D01*
X149507264Y-100238484D01*
X149502628Y-100231206D01*
X149487524Y-100205044D01*
X149487523Y-100205042D01*
X149483194Y-100197545D01*
X149453429Y-100172569D01*
X149447062Y-100166735D01*
X149143275Y-99862949D01*
X149137439Y-99856581D01*
X149125800Y-99842710D01*
X149112455Y-99826806D01*
X149078792Y-99807371D01*
X149071511Y-99802732D01*
X149065494Y-99798519D01*
X149039684Y-99780446D01*
X149031316Y-99778204D01*
X149026029Y-99775738D01*
X149020544Y-99773742D01*
X149013045Y-99769412D01*
X149004519Y-99767909D01*
X149004517Y-99767908D01*
X148974784Y-99762666D01*
X148966349Y-99760796D01*
X148937174Y-99752978D01*
X148928807Y-99750736D01*
X148920178Y-99751491D01*
X148890095Y-99754123D01*
X148881466Y-99754500D01*
X148730534Y-99754500D01*
X148672343Y-99735593D01*
X148660530Y-99725504D01*
X147983831Y-99048805D01*
X147956054Y-98994288D01*
X147954835Y-98978801D01*
X147954835Y-98976434D01*
X147955682Y-98970000D01*
X147935044Y-98813238D01*
X147874536Y-98667159D01*
X147778282Y-98541718D01*
X147652841Y-98445464D01*
X147506762Y-98384956D01*
X147350000Y-98364318D01*
X147193238Y-98384956D01*
X147047159Y-98445464D01*
X146921718Y-98541718D01*
X146825464Y-98667159D01*
X146764956Y-98813238D01*
X146744318Y-98970000D01*
X146764956Y-99126762D01*
X146825464Y-99272841D01*
X146921718Y-99398282D01*
X147047159Y-99494536D01*
X147193238Y-99555044D01*
X147312431Y-99570736D01*
X147341022Y-99574500D01*
X147350000Y-99575682D01*
X147358979Y-99574500D01*
X147506762Y-99555044D01*
X147506921Y-99556253D01*
X147561377Y-99559108D01*
X147595902Y-99581528D01*
X148311431Y-100297057D01*
X148317265Y-100303424D01*
X148342245Y-100333194D01*
X148375905Y-100352627D01*
X148383189Y-100357268D01*
X148415016Y-100379554D01*
X148423384Y-100381796D01*
X148428671Y-100384262D01*
X148434156Y-100386258D01*
X148441655Y-100390588D01*
X148450181Y-100392091D01*
X148450183Y-100392092D01*
X148479916Y-100397334D01*
X148488350Y-100399204D01*
X148525893Y-100409264D01*
X148534522Y-100408509D01*
X148564605Y-100405877D01*
X148573234Y-100405500D01*
X148724167Y-100405500D01*
X148782358Y-100424407D01*
X148794171Y-100434497D01*
X148875504Y-100515831D01*
X148903281Y-100570348D01*
X148904500Y-100585834D01*
X148904500Y-102225450D01*
X148901127Y-102251074D01*
X148895736Y-102271193D01*
X148898861Y-102306915D01*
X148899123Y-102309905D01*
X148899500Y-102318534D01*
X148899500Y-102631466D01*
X148899123Y-102640095D01*
X148895736Y-102678807D01*
X148897978Y-102687174D01*
X148905796Y-102716349D01*
X148907666Y-102724784D01*
X148912368Y-102751450D01*
X148914412Y-102763045D01*
X148918742Y-102770544D01*
X148920738Y-102776029D01*
X148923204Y-102781317D01*
X148925446Y-102789684D01*
X148930415Y-102796780D01*
X148934075Y-102804629D01*
X148931913Y-102805637D01*
X148946159Y-102852220D01*
X148926244Y-102910074D01*
X148876126Y-102945172D01*
X148847174Y-102949500D01*
X148743857Y-102949500D01*
X148685666Y-102930593D01*
X148649702Y-102881093D01*
X148649702Y-102819907D01*
X148653312Y-102810468D01*
X148656996Y-102802136D01*
X148656996Y-102802134D01*
X148660006Y-102795327D01*
X148662302Y-102775637D01*
X148662668Y-102772494D01*
X148662668Y-102772493D01*
X148663000Y-102769646D01*
X148663000Y-102480354D01*
X148660824Y-102462067D01*
X148660760Y-102461531D01*
X148660760Y-102461530D01*
X148659882Y-102454154D01*
X148614439Y-102351847D01*
X148606097Y-102343519D01*
X148558230Y-102295736D01*
X148535213Y-102272759D01*
X148486163Y-102251074D01*
X148439636Y-102230504D01*
X148439634Y-102230504D01*
X148432827Y-102227494D01*
X148415295Y-102225450D01*
X148409994Y-102224832D01*
X148409993Y-102224832D01*
X148407146Y-102224500D01*
X147825834Y-102224500D01*
X147767643Y-102205593D01*
X147755830Y-102195504D01*
X147154496Y-101594170D01*
X147126719Y-101539653D01*
X147125500Y-101524166D01*
X147125500Y-100743534D01*
X147125877Y-100734905D01*
X147128509Y-100704822D01*
X147129264Y-100696193D01*
X147119204Y-100658650D01*
X147117334Y-100650216D01*
X147112092Y-100620483D01*
X147112091Y-100620481D01*
X147110588Y-100611955D01*
X147106258Y-100604456D01*
X147104262Y-100598971D01*
X147101796Y-100593684D01*
X147099554Y-100585316D01*
X147077268Y-100553489D01*
X147072627Y-100546205D01*
X147053194Y-100512545D01*
X147023429Y-100487569D01*
X147017061Y-100481735D01*
X144543269Y-98007943D01*
X144537434Y-98001575D01*
X144530714Y-97993566D01*
X144512455Y-97971806D01*
X144478792Y-97952371D01*
X144471511Y-97947732D01*
X144469056Y-97946013D01*
X144439684Y-97925446D01*
X144431316Y-97923204D01*
X144426029Y-97920738D01*
X144420544Y-97918742D01*
X144413045Y-97914412D01*
X144404519Y-97912909D01*
X144404517Y-97912908D01*
X144374784Y-97907666D01*
X144366349Y-97905796D01*
X144337174Y-97897978D01*
X144328807Y-97895736D01*
X144320178Y-97896491D01*
X144290095Y-97899123D01*
X144281466Y-97899500D01*
X143630970Y-97899500D01*
X143572779Y-97880593D01*
X143552428Y-97860767D01*
X143507236Y-97801871D01*
X143503282Y-97796718D01*
X143377841Y-97700464D01*
X143231762Y-97639956D01*
X143075000Y-97619318D01*
X142918238Y-97639956D01*
X142772159Y-97700464D01*
X142646718Y-97796718D01*
X142550464Y-97922159D01*
X142489956Y-98068238D01*
X142469318Y-98225000D01*
X142489956Y-98381762D01*
X142550464Y-98527841D01*
X142646718Y-98653282D01*
X142772159Y-98749536D01*
X142918238Y-98810044D01*
X143075000Y-98830682D01*
X143231762Y-98810044D01*
X143377841Y-98749536D01*
X143503282Y-98653282D01*
X143552429Y-98589233D01*
X143602852Y-98554577D01*
X143630970Y-98550500D01*
X144124166Y-98550500D01*
X144182357Y-98569407D01*
X144194170Y-98579496D01*
X145821985Y-100207311D01*
X145849762Y-100261828D01*
X145840191Y-100322260D01*
X145796926Y-100365525D01*
X145789872Y-100368776D01*
X145677159Y-100415464D01*
X145551718Y-100511718D01*
X145455464Y-100637159D01*
X145394956Y-100783238D01*
X145374318Y-100940000D01*
X145394956Y-101096762D01*
X145455464Y-101242841D01*
X145551718Y-101368282D01*
X145556871Y-101372236D01*
X145615767Y-101417428D01*
X145650423Y-101467852D01*
X145654500Y-101495970D01*
X145654500Y-101543551D01*
X145635593Y-101601742D01*
X145586093Y-101637706D01*
X145524907Y-101637706D01*
X145517622Y-101635018D01*
X145396762Y-101584956D01*
X145240000Y-101564318D01*
X145083238Y-101584956D01*
X144937159Y-101645464D01*
X144811718Y-101741718D01*
X144715464Y-101867159D01*
X144654956Y-102013238D01*
X144634318Y-102170000D01*
X144642284Y-102230504D01*
X144642972Y-102235732D01*
X144631822Y-102295892D01*
X144587440Y-102338010D01*
X144526778Y-102345996D01*
X144497081Y-102333544D01*
X144496833Y-102334075D01*
X144488984Y-102330415D01*
X144481888Y-102325446D01*
X144473521Y-102323204D01*
X144468233Y-102320738D01*
X144462748Y-102318742D01*
X144455249Y-102314412D01*
X144446723Y-102312909D01*
X144446721Y-102312908D01*
X144416988Y-102307666D01*
X144408553Y-102305796D01*
X144379378Y-102297978D01*
X144371011Y-102295736D01*
X144362382Y-102296491D01*
X144332299Y-102299123D01*
X144323670Y-102299500D01*
X142876951Y-102299500D01*
X142821020Y-102282187D01*
X142816682Y-102279217D01*
X142810213Y-102272759D01*
X142801854Y-102269064D01*
X142801852Y-102269062D01*
X142714636Y-102230504D01*
X142714634Y-102230504D01*
X142707827Y-102227494D01*
X142690295Y-102225450D01*
X142684994Y-102224832D01*
X142684993Y-102224832D01*
X142682146Y-102224500D01*
X141317854Y-102224500D01*
X141301451Y-102226452D01*
X141299031Y-102226740D01*
X141299030Y-102226740D01*
X141291654Y-102227618D01*
X141189347Y-102273061D01*
X141110259Y-102352287D01*
X141106564Y-102360645D01*
X141068140Y-102447558D01*
X141064994Y-102454673D01*
X141062000Y-102480354D01*
X141062000Y-102769646D01*
X138025500Y-102769646D01*
X138025500Y-101175834D01*
X138044407Y-101117643D01*
X138054496Y-101105830D01*
X140805830Y-98354496D01*
X140860347Y-98326719D01*
X140875834Y-98325500D01*
X140944030Y-98325500D01*
X141002221Y-98344407D01*
X141022571Y-98364232D01*
X141071718Y-98428282D01*
X141197159Y-98524536D01*
X141343238Y-98585044D01*
X141500000Y-98605682D01*
X141656762Y-98585044D01*
X141802841Y-98524536D01*
X141928282Y-98428282D01*
X142024536Y-98302841D01*
X142085044Y-98156762D01*
X142105682Y-98000000D01*
X142085044Y-97843238D01*
X142024536Y-97697159D01*
X141928282Y-97571718D01*
X141802841Y-97475464D01*
X141656762Y-97414956D01*
X141500000Y-97394318D01*
X141343238Y-97414956D01*
X141197159Y-97475464D01*
X141071718Y-97571718D01*
X141034544Y-97620165D01*
X141022572Y-97635767D01*
X140972148Y-97670423D01*
X140944030Y-97674500D01*
X140718534Y-97674500D01*
X140709905Y-97674123D01*
X140679822Y-97671491D01*
X140671193Y-97670736D01*
X140662826Y-97672978D01*
X140633651Y-97680796D01*
X140625216Y-97682666D01*
X140595483Y-97687908D01*
X140595481Y-97687909D01*
X140586955Y-97689412D01*
X140579456Y-97693742D01*
X140573971Y-97695738D01*
X140568684Y-97698204D01*
X140560316Y-97700446D01*
X140530944Y-97721013D01*
X140528489Y-97722732D01*
X140521208Y-97727371D01*
X140487545Y-97746806D01*
X140481978Y-97753441D01*
X140462569Y-97776571D01*
X140456735Y-97782939D01*
X137482943Y-100756731D01*
X137476576Y-100762565D01*
X137446806Y-100787545D01*
X137442477Y-100795044D01*
X137427373Y-100821205D01*
X137422732Y-100828489D01*
X137400446Y-100860316D01*
X137398204Y-100868684D01*
X137395738Y-100873971D01*
X137393742Y-100879456D01*
X137389412Y-100886955D01*
X137387909Y-100895481D01*
X137387908Y-100895483D01*
X137382666Y-100925216D01*
X137380796Y-100933650D01*
X137370736Y-100971193D01*
X137371491Y-100979822D01*
X137374123Y-101009905D01*
X137374500Y-101018534D01*
X137374500Y-103824165D01*
X137355593Y-103882356D01*
X137345504Y-103894169D01*
X135107943Y-106131731D01*
X135101576Y-106137565D01*
X135071806Y-106162545D01*
X135067477Y-106170044D01*
X135052373Y-106196205D01*
X135047732Y-106203489D01*
X135025446Y-106235316D01*
X135023204Y-106243684D01*
X135020738Y-106248971D01*
X135018742Y-106254456D01*
X135014412Y-106261955D01*
X135012909Y-106270481D01*
X135012908Y-106270483D01*
X135007666Y-106300216D01*
X135005796Y-106308650D01*
X134995736Y-106346193D01*
X134996491Y-106354822D01*
X134999123Y-106384905D01*
X134999500Y-106393534D01*
X134999500Y-111586466D01*
X134999123Y-111595095D01*
X134995736Y-111633807D01*
X131042608Y-111633807D01*
X128433468Y-109329632D01*
X128402366Y-109276941D01*
X128400000Y-109255426D01*
X128400000Y-102227667D01*
X128414270Y-102176463D01*
X131755020Y-96648318D01*
X160817360Y-96648318D01*
X160828993Y-96706801D01*
X160873308Y-96773122D01*
X160939629Y-96817437D01*
X160949192Y-96819339D01*
X160949194Y-96819340D01*
X160971865Y-96823849D01*
X160998112Y-96829070D01*
X162737608Y-96829070D01*
X162763855Y-96823849D01*
X162786526Y-96819340D01*
X162786528Y-96819339D01*
X162796091Y-96817437D01*
X162862412Y-96773122D01*
X162906727Y-96706801D01*
X162918360Y-96648318D01*
X162918360Y-94908822D01*
X162906727Y-94850339D01*
X162862412Y-94784018D01*
X162796091Y-94739703D01*
X162786528Y-94737801D01*
X162786526Y-94737800D01*
X162763855Y-94733291D01*
X162737608Y-94728070D01*
X160998112Y-94728070D01*
X160971865Y-94733291D01*
X160949194Y-94737800D01*
X160949192Y-94737801D01*
X160939629Y-94739703D01*
X160873308Y-94784018D01*
X160828993Y-94850339D01*
X160817360Y-94908822D01*
X160817360Y-96648318D01*
X131755020Y-96648318D01*
X134328393Y-92390000D01*
X142004318Y-92390000D01*
X142024956Y-92546762D01*
X142085464Y-92692841D01*
X142181718Y-92818282D01*
X142307159Y-92914536D01*
X142453238Y-92975044D01*
X142610000Y-92995682D01*
X142766762Y-92975044D01*
X142912841Y-92914536D01*
X143038282Y-92818282D01*
X143079755Y-92764233D01*
X143130179Y-92729577D01*
X143158297Y-92725500D01*
X145964166Y-92725500D01*
X146022357Y-92744407D01*
X146034170Y-92754496D01*
X147746706Y-94467033D01*
X147774483Y-94521550D01*
X147774855Y-94549958D01*
X147770907Y-94579951D01*
X147764318Y-94630000D01*
X147784956Y-94786762D01*
X147845464Y-94932841D01*
X147941718Y-95058282D01*
X148067159Y-95154536D01*
X148213238Y-95215044D01*
X148370000Y-95235682D01*
X148526762Y-95215044D01*
X148672841Y-95154536D01*
X148798282Y-95058282D01*
X148894536Y-94932841D01*
X148955044Y-94786762D01*
X148975682Y-94630000D01*
X148955044Y-94473238D01*
X148894536Y-94327159D01*
X148798282Y-94201718D01*
X148672841Y-94105464D01*
X148526762Y-94044956D01*
X148370000Y-94024318D01*
X148363566Y-94025165D01*
X148363565Y-94025165D01*
X148289958Y-94034855D01*
X148229798Y-94023705D01*
X148207033Y-94006706D01*
X146383269Y-92182943D01*
X146377434Y-92176575D01*
X146352455Y-92146806D01*
X146318792Y-92127371D01*
X146311511Y-92122732D01*
X146309056Y-92121013D01*
X146279684Y-92100446D01*
X146271316Y-92098204D01*
X146266029Y-92095738D01*
X146260544Y-92093742D01*
X146253045Y-92089412D01*
X146244519Y-92087909D01*
X146244517Y-92087908D01*
X146214784Y-92082666D01*
X146206349Y-92080796D01*
X146177174Y-92072978D01*
X146168807Y-92070736D01*
X146160178Y-92071491D01*
X146130095Y-92074123D01*
X146121466Y-92074500D01*
X143173643Y-92074500D01*
X143115452Y-92055593D01*
X143095101Y-92035767D01*
X143042236Y-91966871D01*
X143038282Y-91961718D01*
X142912841Y-91865464D01*
X142766762Y-91804956D01*
X142610000Y-91784318D01*
X142453238Y-91804956D01*
X142307159Y-91865464D01*
X142181718Y-91961718D01*
X142085464Y-92087159D01*
X142024956Y-92233238D01*
X142004318Y-92390000D01*
X134328393Y-92390000D01*
X137594567Y-86985262D01*
X142534520Y-86985262D01*
X142551759Y-87190553D01*
X142608544Y-87388586D01*
X142702712Y-87571818D01*
X142830677Y-87733270D01*
X142834357Y-87736402D01*
X142834359Y-87736404D01*
X142947017Y-87832283D01*
X142987564Y-87866791D01*
X142991787Y-87869151D01*
X142991791Y-87869154D01*
X143031342Y-87891258D01*
X143167398Y-87967297D01*
X143171996Y-87968791D01*
X143358724Y-88029463D01*
X143358726Y-88029464D01*
X143363329Y-88030959D01*
X143567894Y-88055351D01*
X143572716Y-88054980D01*
X143572719Y-88054980D01*
X143640541Y-88049761D01*
X143773300Y-88039546D01*
X143971725Y-87984145D01*
X143976038Y-87981966D01*
X143976044Y-87981964D01*
X144151289Y-87893441D01*
X144151291Y-87893440D01*
X144155610Y-87891258D01*
X144190943Y-87863653D01*
X144314135Y-87767406D01*
X144314139Y-87767402D01*
X144317951Y-87764424D01*
X144452564Y-87608472D01*
X144471231Y-87575613D01*
X144551934Y-87433550D01*
X144551935Y-87433547D01*
X144554323Y-87429344D01*
X144567882Y-87388586D01*
X144617824Y-87238454D01*
X144617824Y-87238452D01*
X144619351Y-87233863D01*
X144645171Y-87029474D01*
X144645583Y-87000000D01*
X144644138Y-86985262D01*
X145074520Y-86985262D01*
X145091759Y-87190553D01*
X145148544Y-87388586D01*
X145242712Y-87571818D01*
X145370677Y-87733270D01*
X145374357Y-87736402D01*
X145374359Y-87736404D01*
X145487017Y-87832283D01*
X145527564Y-87866791D01*
X145531787Y-87869151D01*
X145531791Y-87869154D01*
X145571342Y-87891258D01*
X145707398Y-87967297D01*
X145711996Y-87968791D01*
X145898724Y-88029463D01*
X145898726Y-88029464D01*
X145903329Y-88030959D01*
X146107894Y-88055351D01*
X146112716Y-88054980D01*
X146112719Y-88054980D01*
X146180541Y-88049761D01*
X146313300Y-88039546D01*
X146511725Y-87984145D01*
X146516038Y-87981966D01*
X146516044Y-87981964D01*
X146691289Y-87893441D01*
X146691291Y-87893440D01*
X146695610Y-87891258D01*
X146730943Y-87863653D01*
X146854135Y-87767406D01*
X146854139Y-87767402D01*
X146857951Y-87764424D01*
X146992564Y-87608472D01*
X147011231Y-87575613D01*
X147091934Y-87433550D01*
X147091935Y-87433547D01*
X147094323Y-87429344D01*
X147107882Y-87388586D01*
X147157824Y-87238454D01*
X147157824Y-87238452D01*
X147159351Y-87233863D01*
X147185171Y-87029474D01*
X147185583Y-87000000D01*
X147184138Y-86985262D01*
X147614520Y-86985262D01*
X147631759Y-87190553D01*
X147688544Y-87388586D01*
X147782712Y-87571818D01*
X147910677Y-87733270D01*
X147914357Y-87736402D01*
X147914359Y-87736404D01*
X148027017Y-87832283D01*
X148067564Y-87866791D01*
X148071787Y-87869151D01*
X148071791Y-87869154D01*
X148111342Y-87891258D01*
X148247398Y-87967297D01*
X148251996Y-87968791D01*
X148438724Y-88029463D01*
X148438726Y-88029464D01*
X148443329Y-88030959D01*
X148647894Y-88055351D01*
X148652716Y-88054980D01*
X148652719Y-88054980D01*
X148720541Y-88049761D01*
X148853300Y-88039546D01*
X149051725Y-87984145D01*
X149056038Y-87981966D01*
X149056044Y-87981964D01*
X149231289Y-87893441D01*
X149231291Y-87893440D01*
X149235610Y-87891258D01*
X149270943Y-87863653D01*
X149394135Y-87767406D01*
X149394139Y-87767402D01*
X149397951Y-87764424D01*
X149532564Y-87608472D01*
X149551231Y-87575613D01*
X149631934Y-87433550D01*
X149631935Y-87433547D01*
X149634323Y-87429344D01*
X149647882Y-87388586D01*
X149697824Y-87238454D01*
X149697824Y-87238452D01*
X149699351Y-87233863D01*
X149725171Y-87029474D01*
X149725583Y-87000000D01*
X149705480Y-86794970D01*
X149645935Y-86597749D01*
X149549218Y-86415849D01*
X149419011Y-86256200D01*
X149402790Y-86242781D01*
X149264002Y-86127965D01*
X149264000Y-86127964D01*
X149260275Y-86124882D01*
X149079055Y-86026897D01*
X149015855Y-86007333D01*
X148886875Y-85967407D01*
X148886871Y-85967406D01*
X148882254Y-85965977D01*
X148877446Y-85965472D01*
X148877443Y-85965471D01*
X148682185Y-85944949D01*
X148682183Y-85944949D01*
X148677369Y-85944443D01*
X148617354Y-85949905D01*
X148477022Y-85962675D01*
X148477017Y-85962676D01*
X148472203Y-85963114D01*
X148274572Y-86021280D01*
X148270288Y-86023519D01*
X148270287Y-86023520D01*
X148259428Y-86029197D01*
X148092002Y-86116726D01*
X148088231Y-86119758D01*
X147935220Y-86242781D01*
X147935217Y-86242783D01*
X147931447Y-86245815D01*
X147928333Y-86249526D01*
X147928332Y-86249527D01*
X147919585Y-86259952D01*
X147799024Y-86403630D01*
X147796689Y-86407878D01*
X147796688Y-86407879D01*
X147789955Y-86420126D01*
X147699776Y-86584162D01*
X147637484Y-86780532D01*
X147636944Y-86785344D01*
X147636944Y-86785345D01*
X147635865Y-86794970D01*
X147614520Y-86985262D01*
X147184138Y-86985262D01*
X147165480Y-86794970D01*
X147105935Y-86597749D01*
X147009218Y-86415849D01*
X146879011Y-86256200D01*
X146862790Y-86242781D01*
X146724002Y-86127965D01*
X146724000Y-86127964D01*
X146720275Y-86124882D01*
X146539055Y-86026897D01*
X146475855Y-86007333D01*
X146346875Y-85967407D01*
X146346871Y-85967406D01*
X146342254Y-85965977D01*
X146337446Y-85965472D01*
X146337443Y-85965471D01*
X146142185Y-85944949D01*
X146142183Y-85944949D01*
X146137369Y-85944443D01*
X146077354Y-85949905D01*
X145937022Y-85962675D01*
X145937017Y-85962676D01*
X145932203Y-85963114D01*
X145734572Y-86021280D01*
X145730288Y-86023519D01*
X145730287Y-86023520D01*
X145719428Y-86029197D01*
X145552002Y-86116726D01*
X145548231Y-86119758D01*
X145395220Y-86242781D01*
X145395217Y-86242783D01*
X145391447Y-86245815D01*
X145388333Y-86249526D01*
X145388332Y-86249527D01*
X145379585Y-86259952D01*
X145259024Y-86403630D01*
X145256689Y-86407878D01*
X145256688Y-86407879D01*
X145249955Y-86420126D01*
X145159776Y-86584162D01*
X145097484Y-86780532D01*
X145096944Y-86785344D01*
X145096944Y-86785345D01*
X145095865Y-86794970D01*
X145074520Y-86985262D01*
X144644138Y-86985262D01*
X144625480Y-86794970D01*
X144565935Y-86597749D01*
X144469218Y-86415849D01*
X144339011Y-86256200D01*
X144322790Y-86242781D01*
X144184002Y-86127965D01*
X144184000Y-86127964D01*
X144180275Y-86124882D01*
X143999055Y-86026897D01*
X143935855Y-86007333D01*
X143806875Y-85967407D01*
X143806871Y-85967406D01*
X143802254Y-85965977D01*
X143797446Y-85965472D01*
X143797443Y-85965471D01*
X143602185Y-85944949D01*
X143602183Y-85944949D01*
X143597369Y-85944443D01*
X143537354Y-85949905D01*
X143397022Y-85962675D01*
X143397017Y-85962676D01*
X143392203Y-85963114D01*
X143194572Y-86021280D01*
X143190288Y-86023519D01*
X143190287Y-86023520D01*
X143179428Y-86029197D01*
X143012002Y-86116726D01*
X143008231Y-86119758D01*
X142855220Y-86242781D01*
X142855217Y-86242783D01*
X142851447Y-86245815D01*
X142848333Y-86249526D01*
X142848332Y-86249527D01*
X142839585Y-86259952D01*
X142719024Y-86403630D01*
X142716689Y-86407878D01*
X142716688Y-86407879D01*
X142709955Y-86420126D01*
X142619776Y-86584162D01*
X142557484Y-86780532D01*
X142556944Y-86785344D01*
X142556944Y-86785345D01*
X142555865Y-86794970D01*
X142534520Y-86985262D01*
X137594567Y-86985262D01*
X138655556Y-85229578D01*
X138701835Y-85189554D01*
X138739597Y-85181784D01*
X150480409Y-85100212D01*
X150518168Y-85107413D01*
G37*
%TD.AperFunction*%
%TD*%
M02*
