%TF.GenerationSoftware,KiCad,Pcbnew,(6.0.7-1)-1*%
%TF.CreationDate,2023-01-06T18:56:56-05:00*%
%TF.ProjectId,atmega328,61746d65-6761-4333-9238-2e6b69636164,rev?*%
%TF.SameCoordinates,Original*%
%TF.FileFunction,Paste,Top*%
%TF.FilePolarity,Positive*%
%FSLAX46Y46*%
G04 Gerber Fmt 4.6, Leading zero omitted, Abs format (unit mm)*
G04 Created by KiCad (PCBNEW (6.0.7-1)-1) date 2023-01-06 18:56:56*
%MOMM*%
%LPD*%
G01*
G04 APERTURE LIST*
G04 Aperture macros list*
%AMRoundRect*
0 Rectangle with rounded corners*
0 $1 Rounding radius*
0 $2 $3 $4 $5 $6 $7 $8 $9 X,Y pos of 4 corners*
0 Add a 4 corners polygon primitive as box body*
4,1,4,$2,$3,$4,$5,$6,$7,$8,$9,$2,$3,0*
0 Add four circle primitives for the rounded corners*
1,1,$1+$1,$2,$3*
1,1,$1+$1,$4,$5*
1,1,$1+$1,$6,$7*
1,1,$1+$1,$8,$9*
0 Add four rect primitives between the rounded corners*
20,1,$1+$1,$2,$3,$4,$5,0*
20,1,$1+$1,$4,$5,$6,$7,0*
20,1,$1+$1,$6,$7,$8,$9,0*
20,1,$1+$1,$8,$9,$2,$3,0*%
G04 Aperture macros list end*
%ADD10RoundRect,0.140000X0.170000X-0.140000X0.170000X0.140000X-0.170000X0.140000X-0.170000X-0.140000X0*%
%ADD11R,2.400000X2.000000*%
%ADD12RoundRect,0.218750X0.256250X-0.218750X0.256250X0.218750X-0.256250X0.218750X-0.256250X-0.218750X0*%
%ADD13RoundRect,0.200000X-0.200000X-0.275000X0.200000X-0.275000X0.200000X0.275000X-0.200000X0.275000X0*%
%ADD14R,0.550000X1.600000*%
%ADD15R,1.600000X0.550000*%
%ADD16RoundRect,0.140000X0.140000X0.170000X-0.140000X0.170000X-0.140000X-0.170000X0.140000X-0.170000X0*%
%ADD17RoundRect,0.140000X-0.170000X0.140000X-0.170000X-0.140000X0.170000X-0.140000X0.170000X0.140000X0*%
%ADD18RoundRect,0.225000X-0.225000X-0.250000X0.225000X-0.250000X0.225000X0.250000X-0.225000X0.250000X0*%
%ADD19RoundRect,0.250000X-0.450000X-0.425000X0.450000X-0.425000X0.450000X0.425000X-0.450000X0.425000X0*%
%ADD20RoundRect,0.200000X-0.275000X0.200000X-0.275000X-0.200000X0.275000X-0.200000X0.275000X0.200000X0*%
%ADD21RoundRect,0.150000X-0.150000X0.587500X-0.150000X-0.587500X0.150000X-0.587500X0.150000X0.587500X0*%
%ADD22R,1.700000X1.300000*%
G04 APERTURE END LIST*
D10*
%TO.C,C9*%
X140350000Y-103480000D03*
X140350000Y-102520000D03*
%TD*%
D11*
%TO.C,Y1*%
X135084800Y-99014400D03*
X135084800Y-102714400D03*
%TD*%
D12*
%TO.C,D2*%
X130326800Y-108127700D03*
X130326800Y-106552700D03*
%TD*%
D13*
%TO.C,R1*%
X158384800Y-90834400D03*
X160034800Y-90834400D03*
%TD*%
D14*
%TO.C,U1*%
X139870000Y-91010000D03*
X140670000Y-91010000D03*
X141470000Y-91010000D03*
X142270000Y-91010000D03*
X143070000Y-91010000D03*
X143870000Y-91010000D03*
X144670000Y-91010000D03*
X145470000Y-91010000D03*
D15*
X146920000Y-92460000D03*
X146920000Y-93260000D03*
X146920000Y-94060000D03*
X146920000Y-94860000D03*
X146920000Y-95660000D03*
X146920000Y-96460000D03*
X146920000Y-97260000D03*
X146920000Y-98060000D03*
D14*
X145470000Y-99510000D03*
X144670000Y-99510000D03*
X143870000Y-99510000D03*
X143070000Y-99510000D03*
X142270000Y-99510000D03*
X141470000Y-99510000D03*
X140670000Y-99510000D03*
X139870000Y-99510000D03*
D15*
X138420000Y-98060000D03*
X138420000Y-97260000D03*
X138420000Y-96460000D03*
X138420000Y-95660000D03*
X138420000Y-94860000D03*
X138420000Y-94060000D03*
X138420000Y-93260000D03*
X138420000Y-92460000D03*
%TD*%
D16*
%TO.C,C5*%
X136530000Y-96525000D03*
X135570000Y-96525000D03*
%TD*%
D17*
%TO.C,C3*%
X148590000Y-97310000D03*
X148590000Y-98270000D03*
%TD*%
D18*
%TO.C,C1*%
X158424800Y-92624400D03*
X159974800Y-92624400D03*
%TD*%
D10*
%TO.C,C6*%
X132334800Y-99079400D03*
X132334800Y-98119400D03*
%TD*%
D19*
%TO.C,C2*%
X155224800Y-95249400D03*
X157924800Y-95249400D03*
%TD*%
D13*
%TO.C,R2*%
X150750000Y-99200000D03*
X152400000Y-99200000D03*
%TD*%
D10*
%TO.C,C7*%
X132260000Y-102780000D03*
X132260000Y-101820000D03*
%TD*%
D20*
%TO.C,R3*%
X132349800Y-106574400D03*
X132349800Y-108224400D03*
%TD*%
D16*
%TO.C,C4*%
X136520000Y-94930000D03*
X135560000Y-94930000D03*
%TD*%
D17*
%TO.C,C8*%
X140350000Y-104620000D03*
X140350000Y-105580000D03*
%TD*%
D21*
%TO.C,Q1*%
X156124800Y-90996900D03*
X154224800Y-90996900D03*
X155174800Y-92871900D03*
%TD*%
D22*
%TO.C,D1*%
X152250000Y-92400000D03*
X152250000Y-88900000D03*
%TD*%
M02*
