%TF.GenerationSoftware,KiCad,Pcbnew,(6.0.8-1)-1*%
%TF.CreationDate,2022-11-22T09:59:05-05:00*%
%TF.ProjectId,encoder_driver,656e636f-6465-4725-9f64-72697665722e,rev?*%
%TF.SameCoordinates,Original*%
%TF.FileFunction,Legend,Bot*%
%TF.FilePolarity,Positive*%
%FSLAX46Y46*%
G04 Gerber Fmt 4.6, Leading zero omitted, Abs format (unit mm)*
G04 Created by KiCad (PCBNEW (6.0.8-1)-1) date 2022-11-22 09:59:05*
%MOMM*%
%LPD*%
G01*
G04 APERTURE LIST*
%ADD10C,0.150000*%
%ADD11C,0.100000*%
%ADD12C,0.120000*%
G04 APERTURE END LIST*
D10*
X109728000Y-78867000D02*
G75*
G03*
X109728000Y-78867000I-381000J0D01*
G01*
D11*
X153185714Y-75871428D02*
X152985714Y-76471428D01*
X152785714Y-75871428D01*
X152728571Y-76528571D02*
X152271428Y-76528571D01*
X152128571Y-76471428D02*
X152128571Y-75871428D01*
X151842857Y-76471428D02*
X151842857Y-75871428D01*
X151500000Y-76471428D01*
X151500000Y-75871428D01*
D10*
X141461904Y-89622380D02*
X141128571Y-90622380D01*
X140795238Y-89622380D01*
X140271428Y-89622380D02*
X140080952Y-89622380D01*
X139985714Y-89670000D01*
X139890476Y-89765238D01*
X139842857Y-89955714D01*
X139842857Y-90289047D01*
X139890476Y-90479523D01*
X139985714Y-90574761D01*
X140080952Y-90622380D01*
X140271428Y-90622380D01*
X140366666Y-90574761D01*
X140461904Y-90479523D01*
X140509523Y-90289047D01*
X140509523Y-89955714D01*
X140461904Y-89765238D01*
X140366666Y-89670000D01*
X140271428Y-89622380D01*
X139414285Y-89622380D02*
X139414285Y-90431904D01*
X139366666Y-90527142D01*
X139319047Y-90574761D01*
X139223809Y-90622380D01*
X139033333Y-90622380D01*
X138938095Y-90574761D01*
X138890476Y-90527142D01*
X138842857Y-90431904D01*
X138842857Y-89622380D01*
X138509523Y-89622380D02*
X137938095Y-89622380D01*
X138223809Y-90622380D02*
X138223809Y-89622380D01*
D11*
X152757142Y-82764285D02*
X152785714Y-82792857D01*
X152871428Y-82821428D01*
X152928571Y-82821428D01*
X153014285Y-82792857D01*
X153071428Y-82735714D01*
X153100000Y-82678571D01*
X153128571Y-82564285D01*
X153128571Y-82478571D01*
X153100000Y-82364285D01*
X153071428Y-82307142D01*
X153014285Y-82250000D01*
X152928571Y-82221428D01*
X152871428Y-82221428D01*
X152785714Y-82250000D01*
X152757142Y-82278571D01*
X152214285Y-82821428D02*
X152500000Y-82821428D01*
X152500000Y-82221428D01*
X152014285Y-82821428D02*
X152014285Y-82221428D01*
X151671428Y-82821428D02*
X151928571Y-82478571D01*
X151671428Y-82221428D02*
X152014285Y-82564285D01*
X153099999Y-84726428D02*
X153099999Y-84126428D01*
X152899999Y-84555000D01*
X152699999Y-84126428D01*
X152699999Y-84726428D01*
X152414284Y-84726428D02*
X152414284Y-84126428D01*
X152157142Y-84697857D02*
X152071427Y-84726428D01*
X151928570Y-84726428D01*
X151871427Y-84697857D01*
X151842856Y-84669285D01*
X151814284Y-84612142D01*
X151814284Y-84555000D01*
X151842856Y-84497857D01*
X151871427Y-84469285D01*
X151928570Y-84440714D01*
X152042856Y-84412142D01*
X152099999Y-84383571D01*
X152128570Y-84355000D01*
X152157142Y-84297857D01*
X152157142Y-84240714D01*
X152128570Y-84183571D01*
X152099999Y-84155000D01*
X152042856Y-84126428D01*
X151899999Y-84126428D01*
X151814284Y-84155000D01*
X151442856Y-84126428D02*
X151328570Y-84126428D01*
X151271427Y-84155000D01*
X151214284Y-84212142D01*
X151185713Y-84326428D01*
X151185713Y-84526428D01*
X151214284Y-84640714D01*
X151271427Y-84697857D01*
X151328570Y-84726428D01*
X151442856Y-84726428D01*
X151499999Y-84697857D01*
X151557142Y-84640714D01*
X151585713Y-84526428D01*
X151585713Y-84326428D01*
X151557142Y-84212142D01*
X151499999Y-84155000D01*
X151442856Y-84126428D01*
X153185714Y-77776428D02*
X152842857Y-77776428D01*
X153014285Y-78376428D02*
X153014285Y-77776428D01*
X152642857Y-78062142D02*
X152442857Y-78062142D01*
X152357142Y-78376428D02*
X152642857Y-78376428D01*
X152642857Y-77776428D01*
X152357142Y-77776428D01*
X152100000Y-78376428D02*
X152100000Y-77776428D01*
X151900000Y-78205000D01*
X151700000Y-77776428D01*
X151700000Y-78376428D01*
X151414285Y-78376428D02*
X151414285Y-77776428D01*
X151185714Y-77776428D01*
X151128571Y-77805000D01*
X151100000Y-77833571D01*
X151071428Y-77890714D01*
X151071428Y-77976428D01*
X151100000Y-78033571D01*
X151128571Y-78062142D01*
X151185714Y-78090714D01*
X151414285Y-78090714D01*
X152785713Y-87965000D02*
X152842856Y-87936428D01*
X152928571Y-87936428D01*
X153014285Y-87965000D01*
X153071428Y-88022142D01*
X153099999Y-88079285D01*
X153128571Y-88193571D01*
X153128571Y-88279285D01*
X153099999Y-88393571D01*
X153071428Y-88450714D01*
X153014285Y-88507857D01*
X152928571Y-88536428D01*
X152871428Y-88536428D01*
X152785713Y-88507857D01*
X152757142Y-88479285D01*
X152757142Y-88279285D01*
X152871428Y-88279285D01*
X152499999Y-88536428D02*
X152499999Y-87936428D01*
X152157142Y-88536428D01*
X152157142Y-87936428D01*
X151871428Y-88536428D02*
X151871428Y-87936428D01*
X151728571Y-87936428D01*
X151642856Y-87965000D01*
X151585713Y-88022142D01*
X151557142Y-88079285D01*
X151528571Y-88193571D01*
X151528571Y-88279285D01*
X151557142Y-88393571D01*
X151585713Y-88450714D01*
X151642856Y-88507857D01*
X151728571Y-88536428D01*
X151871428Y-88536428D01*
D10*
X140160237Y-87130000D02*
X140255475Y-87082380D01*
X140398333Y-87082380D01*
X140541190Y-87130000D01*
X140636428Y-87225238D01*
X140684047Y-87320476D01*
X140731666Y-87510952D01*
X140731666Y-87653809D01*
X140684047Y-87844285D01*
X140636428Y-87939523D01*
X140541190Y-88034761D01*
X140398333Y-88082380D01*
X140303094Y-88082380D01*
X140160237Y-88034761D01*
X140112618Y-87987142D01*
X140112618Y-87653809D01*
X140303094Y-87653809D01*
X139684047Y-88082380D02*
X139684047Y-87082380D01*
X139112618Y-88082380D01*
X139112618Y-87082380D01*
X138636428Y-88082380D02*
X138636428Y-87082380D01*
X138398333Y-87082380D01*
X138255475Y-87130000D01*
X138160237Y-87225238D01*
X138112618Y-87320476D01*
X138064999Y-87510952D01*
X138064999Y-87653809D01*
X138112618Y-87844285D01*
X138160237Y-87939523D01*
X138255475Y-88034761D01*
X138398333Y-88082380D01*
X138636428Y-88082380D01*
X141255476Y-80462380D02*
X141255476Y-79462380D01*
X140922143Y-80176666D01*
X140588809Y-79462380D01*
X140588809Y-80462380D01*
X140112619Y-80462380D02*
X140112619Y-79462380D01*
X139684048Y-80414761D02*
X139541190Y-80462380D01*
X139303095Y-80462380D01*
X139207857Y-80414761D01*
X139160238Y-80367142D01*
X139112619Y-80271904D01*
X139112619Y-80176666D01*
X139160238Y-80081428D01*
X139207857Y-80033809D01*
X139303095Y-79986190D01*
X139493571Y-79938571D01*
X139588809Y-79890952D01*
X139636428Y-79843333D01*
X139684048Y-79748095D01*
X139684048Y-79652857D01*
X139636428Y-79557619D01*
X139588809Y-79510000D01*
X139493571Y-79462380D01*
X139255476Y-79462380D01*
X139112619Y-79510000D01*
X138493571Y-79462380D02*
X138303095Y-79462380D01*
X138207857Y-79510000D01*
X138112619Y-79605238D01*
X138065000Y-79795714D01*
X138065000Y-80129047D01*
X138112619Y-80319523D01*
X138207857Y-80414761D01*
X138303095Y-80462380D01*
X138493571Y-80462380D01*
X138588809Y-80414761D01*
X138684048Y-80319523D01*
X138731667Y-80129047D01*
X138731667Y-79795714D01*
X138684048Y-79605238D01*
X138588809Y-79510000D01*
X138493571Y-79462380D01*
X141255476Y-77922380D02*
X141255476Y-76922380D01*
X140922143Y-77636666D01*
X140588809Y-76922380D01*
X140588809Y-77922380D01*
X139922143Y-76922380D02*
X139731667Y-76922380D01*
X139636428Y-76970000D01*
X139541190Y-77065238D01*
X139493571Y-77255714D01*
X139493571Y-77589047D01*
X139541190Y-77779523D01*
X139636428Y-77874761D01*
X139731667Y-77922380D01*
X139922143Y-77922380D01*
X140017381Y-77874761D01*
X140112619Y-77779523D01*
X140160238Y-77589047D01*
X140160238Y-77255714D01*
X140112619Y-77065238D01*
X140017381Y-76970000D01*
X139922143Y-76922380D01*
X139112619Y-77874761D02*
X138969762Y-77922380D01*
X138731667Y-77922380D01*
X138636428Y-77874761D01*
X138588809Y-77827142D01*
X138541190Y-77731904D01*
X138541190Y-77636666D01*
X138588809Y-77541428D01*
X138636428Y-77493809D01*
X138731667Y-77446190D01*
X138922143Y-77398571D01*
X139017381Y-77350952D01*
X139065000Y-77303333D01*
X139112619Y-77208095D01*
X139112619Y-77112857D01*
X139065000Y-77017619D01*
X139017381Y-76970000D01*
X138922143Y-76922380D01*
X138684048Y-76922380D01*
X138541190Y-76970000D01*
X138112619Y-77922380D02*
X138112619Y-76922380D01*
X140065000Y-75287142D02*
X140112619Y-75334761D01*
X140255476Y-75382380D01*
X140350714Y-75382380D01*
X140493571Y-75334761D01*
X140588809Y-75239523D01*
X140636428Y-75144285D01*
X140684047Y-74953809D01*
X140684047Y-74810952D01*
X140636428Y-74620476D01*
X140588809Y-74525238D01*
X140493571Y-74430000D01*
X140350714Y-74382380D01*
X140255476Y-74382380D01*
X140112619Y-74430000D01*
X140065000Y-74477619D01*
X139684047Y-75334761D02*
X139541190Y-75382380D01*
X139303095Y-75382380D01*
X139207857Y-75334761D01*
X139160238Y-75287142D01*
X139112619Y-75191904D01*
X139112619Y-75096666D01*
X139160238Y-75001428D01*
X139207857Y-74953809D01*
X139303095Y-74906190D01*
X139493571Y-74858571D01*
X139588809Y-74810952D01*
X139636428Y-74763333D01*
X139684047Y-74668095D01*
X139684047Y-74572857D01*
X139636428Y-74477619D01*
X139588809Y-74430000D01*
X139493571Y-74382380D01*
X139255476Y-74382380D01*
X139112619Y-74430000D01*
X138017381Y-75477619D02*
X138112619Y-75430000D01*
X138207857Y-75334761D01*
X138350714Y-75191904D01*
X138445952Y-75144285D01*
X138541190Y-75144285D01*
X138493571Y-75382380D02*
X138588809Y-75334761D01*
X138684047Y-75239523D01*
X138731666Y-75049047D01*
X138731666Y-74715714D01*
X138684047Y-74525238D01*
X138588809Y-74430000D01*
X138493571Y-74382380D01*
X138303095Y-74382380D01*
X138207857Y-74430000D01*
X138112619Y-74525238D01*
X138065000Y-74715714D01*
X138065000Y-75049047D01*
X138112619Y-75239523D01*
X138207857Y-75334761D01*
X138303095Y-75382380D01*
X138493571Y-75382380D01*
D11*
X153099999Y-86631428D02*
X153099999Y-86031428D01*
X152899999Y-86460000D01*
X152699999Y-86031428D01*
X152699999Y-86631428D01*
X152299999Y-86031428D02*
X152185713Y-86031428D01*
X152128570Y-86060000D01*
X152071427Y-86117142D01*
X152042856Y-86231428D01*
X152042856Y-86431428D01*
X152071427Y-86545714D01*
X152128570Y-86602857D01*
X152185713Y-86631428D01*
X152299999Y-86631428D01*
X152357142Y-86602857D01*
X152414284Y-86545714D01*
X152442856Y-86431428D01*
X152442856Y-86231428D01*
X152414284Y-86117142D01*
X152357142Y-86060000D01*
X152299999Y-86031428D01*
X151814284Y-86602857D02*
X151728570Y-86631428D01*
X151585713Y-86631428D01*
X151528570Y-86602857D01*
X151499999Y-86574285D01*
X151471427Y-86517142D01*
X151471427Y-86460000D01*
X151499999Y-86402857D01*
X151528570Y-86374285D01*
X151585713Y-86345714D01*
X151699999Y-86317142D01*
X151757142Y-86288571D01*
X151785713Y-86260000D01*
X151814284Y-86202857D01*
X151814284Y-86145714D01*
X151785713Y-86088571D01*
X151757142Y-86060000D01*
X151699999Y-86031428D01*
X151557142Y-86031428D01*
X151471427Y-86060000D01*
X151214284Y-86631428D02*
X151214284Y-86031428D01*
D10*
X141636428Y-84542380D02*
X141064999Y-84542380D01*
X141350714Y-85542380D02*
X141350714Y-84542380D01*
X140160237Y-85542380D02*
X140493571Y-85066190D01*
X140731666Y-85542380D02*
X140731666Y-84542380D01*
X140350714Y-84542380D01*
X140255475Y-84590000D01*
X140207856Y-84637619D01*
X140160237Y-84732857D01*
X140160237Y-84875714D01*
X140207856Y-84970952D01*
X140255475Y-85018571D01*
X140350714Y-85066190D01*
X140731666Y-85066190D01*
X139731666Y-85542380D02*
X139731666Y-84542380D01*
X139398333Y-85256666D01*
X139064999Y-84542380D01*
X139064999Y-85542380D01*
X138636428Y-84637619D02*
X138588809Y-84590000D01*
X138493571Y-84542380D01*
X138255475Y-84542380D01*
X138160237Y-84590000D01*
X138112618Y-84637619D01*
X138064999Y-84732857D01*
X138064999Y-84828095D01*
X138112618Y-84970952D01*
X138684047Y-85542380D01*
X138064999Y-85542380D01*
X146952761Y-80380000D02*
X147000380Y-80522857D01*
X147000380Y-80760952D01*
X146952761Y-80856190D01*
X146905142Y-80903809D01*
X146809904Y-80951428D01*
X146714666Y-80951428D01*
X146619428Y-80903809D01*
X146571809Y-80856190D01*
X146524190Y-80760952D01*
X146476571Y-80570476D01*
X146428952Y-80475238D01*
X146381333Y-80427619D01*
X146286095Y-80380000D01*
X146190857Y-80380000D01*
X146095619Y-80427619D01*
X146048000Y-80475238D01*
X146000380Y-80570476D01*
X146000380Y-80808571D01*
X146048000Y-80951428D01*
X146952761Y-81332380D02*
X147000380Y-81475238D01*
X147000380Y-81713333D01*
X146952761Y-81808571D01*
X146905142Y-81856190D01*
X146809904Y-81903809D01*
X146714666Y-81903809D01*
X146619428Y-81856190D01*
X146571809Y-81808571D01*
X146524190Y-81713333D01*
X146476571Y-81522857D01*
X146428952Y-81427619D01*
X146381333Y-81380000D01*
X146286095Y-81332380D01*
X146190857Y-81332380D01*
X146095619Y-81380000D01*
X146048000Y-81427619D01*
X146000380Y-81522857D01*
X146000380Y-81760952D01*
X146048000Y-81903809D01*
X146905142Y-82903809D02*
X146952761Y-82856190D01*
X147000380Y-82713333D01*
X147000380Y-82618095D01*
X146952761Y-82475238D01*
X146857523Y-82380000D01*
X146762285Y-82332380D01*
X146571809Y-82284761D01*
X146428952Y-82284761D01*
X146238476Y-82332380D01*
X146143238Y-82380000D01*
X146048000Y-82475238D01*
X146000380Y-82618095D01*
X146000380Y-82713333D01*
X146048000Y-82856190D01*
X146095619Y-82903809D01*
X147000380Y-84094285D02*
X146000380Y-84094285D01*
X146952761Y-84522857D02*
X147000380Y-84618095D01*
X147000380Y-84808571D01*
X146952761Y-84903809D01*
X146857523Y-84951428D01*
X146809904Y-84951428D01*
X146714666Y-84903809D01*
X146667047Y-84808571D01*
X146667047Y-84665714D01*
X146619428Y-84570476D01*
X146524190Y-84522857D01*
X146476571Y-84522857D01*
X146381333Y-84570476D01*
X146333714Y-84665714D01*
X146333714Y-84808571D01*
X146381333Y-84903809D01*
X147000380Y-85522857D02*
X146952761Y-85427619D01*
X146905142Y-85380000D01*
X146809904Y-85332380D01*
X146524190Y-85332380D01*
X146428952Y-85380000D01*
X146381333Y-85427619D01*
X146333714Y-85522857D01*
X146333714Y-85665714D01*
X146381333Y-85760952D01*
X146428952Y-85808571D01*
X146524190Y-85856190D01*
X146809904Y-85856190D01*
X146905142Y-85808571D01*
X146952761Y-85760952D01*
X147000380Y-85665714D01*
X147000380Y-85522857D01*
X147000380Y-86427619D02*
X146952761Y-86332380D01*
X146857523Y-86284761D01*
X146000380Y-86284761D01*
X147000380Y-87237142D02*
X146476571Y-87237142D01*
X146381333Y-87189523D01*
X146333714Y-87094285D01*
X146333714Y-86903809D01*
X146381333Y-86808571D01*
X146952761Y-87237142D02*
X147000380Y-87141904D01*
X147000380Y-86903809D01*
X146952761Y-86808571D01*
X146857523Y-86760952D01*
X146762285Y-86760952D01*
X146667047Y-86808571D01*
X146619428Y-86903809D01*
X146619428Y-87141904D01*
X146571809Y-87237142D01*
X146333714Y-87570476D02*
X146333714Y-87951428D01*
X146000380Y-87713333D02*
X146857523Y-87713333D01*
X146952761Y-87760952D01*
X147000380Y-87856190D01*
X147000380Y-87951428D01*
X147000380Y-88427619D02*
X146952761Y-88332380D01*
X146905142Y-88284761D01*
X146809904Y-88237142D01*
X146524190Y-88237142D01*
X146428952Y-88284761D01*
X146381333Y-88332380D01*
X146333714Y-88427619D01*
X146333714Y-88570476D01*
X146381333Y-88665714D01*
X146428952Y-88713333D01*
X146524190Y-88760952D01*
X146809904Y-88760952D01*
X146905142Y-88713333D01*
X146952761Y-88665714D01*
X147000380Y-88570476D01*
X147000380Y-88427619D01*
X147000380Y-89189523D02*
X146333714Y-89189523D01*
X146524190Y-89189523D02*
X146428952Y-89237142D01*
X146381333Y-89284761D01*
X146333714Y-89380000D01*
X146333714Y-89475238D01*
X146000380Y-90427619D02*
X147000380Y-90760952D01*
X146000380Y-91094285D01*
X147000380Y-91951428D02*
X147000380Y-91380000D01*
X147000380Y-91665714D02*
X146000380Y-91665714D01*
X146143238Y-91570476D01*
X146238476Y-91475238D01*
X146286095Y-91380000D01*
X146905142Y-92380000D02*
X146952761Y-92427619D01*
X147000380Y-92380000D01*
X146952761Y-92332380D01*
X146905142Y-92380000D01*
X147000380Y-92380000D01*
X146000380Y-93046666D02*
X146000380Y-93141904D01*
X146048000Y-93237142D01*
X146095619Y-93284761D01*
X146190857Y-93332380D01*
X146381333Y-93380000D01*
X146619428Y-93380000D01*
X146809904Y-93332380D01*
X146905142Y-93284761D01*
X146952761Y-93237142D01*
X147000380Y-93141904D01*
X147000380Y-93046666D01*
X146952761Y-92951428D01*
X146905142Y-92903809D01*
X146809904Y-92856190D01*
X146619428Y-92808571D01*
X146381333Y-92808571D01*
X146190857Y-92856190D01*
X146095619Y-92903809D01*
X146048000Y-92951428D01*
X146000380Y-93046666D01*
X141636428Y-82002380D02*
X141064999Y-82002380D01*
X141350714Y-83002380D02*
X141350714Y-82002380D01*
X140160237Y-83002380D02*
X140493571Y-82526190D01*
X140731666Y-83002380D02*
X140731666Y-82002380D01*
X140350714Y-82002380D01*
X140255475Y-82050000D01*
X140207856Y-82097619D01*
X140160237Y-82192857D01*
X140160237Y-82335714D01*
X140207856Y-82430952D01*
X140255475Y-82478571D01*
X140350714Y-82526190D01*
X140731666Y-82526190D01*
X139731666Y-83002380D02*
X139731666Y-82002380D01*
X139398333Y-82716666D01*
X139064999Y-82002380D01*
X139064999Y-83002380D01*
X138064999Y-83002380D02*
X138636428Y-83002380D01*
X138350714Y-83002380D02*
X138350714Y-82002380D01*
X138445952Y-82145238D01*
X138541190Y-82240476D01*
X138636428Y-82288095D01*
X140636428Y-73314761D02*
X140493571Y-73362380D01*
X140255475Y-73362380D01*
X140160237Y-73314761D01*
X140112618Y-73267142D01*
X140064999Y-73171904D01*
X140064999Y-73076666D01*
X140112618Y-72981428D01*
X140160237Y-72933809D01*
X140255475Y-72886190D01*
X140445952Y-72838571D01*
X140541190Y-72790952D01*
X140588809Y-72743333D01*
X140636428Y-72648095D01*
X140636428Y-72552857D01*
X140588809Y-72457619D01*
X140541190Y-72410000D01*
X140445952Y-72362380D01*
X140207856Y-72362380D01*
X140064999Y-72410000D01*
X139064999Y-73267142D02*
X139112618Y-73314761D01*
X139255475Y-73362380D01*
X139350714Y-73362380D01*
X139493571Y-73314761D01*
X139588809Y-73219523D01*
X139636428Y-73124285D01*
X139684047Y-72933809D01*
X139684047Y-72790952D01*
X139636428Y-72600476D01*
X139588809Y-72505238D01*
X139493571Y-72410000D01*
X139350714Y-72362380D01*
X139255475Y-72362380D01*
X139112618Y-72410000D01*
X139064999Y-72457619D01*
X138636428Y-73362380D02*
X138636428Y-72362380D01*
X138064999Y-73362380D02*
X138493571Y-72790952D01*
X138064999Y-72362380D02*
X138636428Y-72933809D01*
D11*
X152757142Y-80859285D02*
X152785714Y-80887857D01*
X152871428Y-80916428D01*
X152928571Y-80916428D01*
X153014285Y-80887857D01*
X153071428Y-80830714D01*
X153099999Y-80773571D01*
X153128571Y-80659285D01*
X153128571Y-80573571D01*
X153099999Y-80459285D01*
X153071428Y-80402142D01*
X153014285Y-80345000D01*
X152928571Y-80316428D01*
X152871428Y-80316428D01*
X152785714Y-80345000D01*
X152757142Y-80373571D01*
X152528571Y-80887857D02*
X152442857Y-80916428D01*
X152299999Y-80916428D01*
X152242857Y-80887857D01*
X152214285Y-80859285D01*
X152185714Y-80802142D01*
X152185714Y-80745000D01*
X152214285Y-80687857D01*
X152242857Y-80659285D01*
X152299999Y-80630714D01*
X152414285Y-80602142D01*
X152471428Y-80573571D01*
X152499999Y-80545000D01*
X152528571Y-80487857D01*
X152528571Y-80430714D01*
X152499999Y-80373571D01*
X152471428Y-80345000D01*
X152414285Y-80316428D01*
X152271428Y-80316428D01*
X152185714Y-80345000D01*
X151528571Y-80973571D02*
X151585714Y-80945000D01*
X151642857Y-80887857D01*
X151728571Y-80802142D01*
X151785714Y-80773571D01*
X151842857Y-80773571D01*
X151814285Y-80916428D02*
X151871428Y-80887857D01*
X151928571Y-80830714D01*
X151957142Y-80716428D01*
X151957142Y-80516428D01*
X151928571Y-80402142D01*
X151871428Y-80345000D01*
X151814285Y-80316428D01*
X151699999Y-80316428D01*
X151642857Y-80345000D01*
X151585714Y-80402142D01*
X151557142Y-80516428D01*
X151557142Y-80716428D01*
X151585714Y-80830714D01*
X151642857Y-80887857D01*
X151699999Y-80916428D01*
X151814285Y-80916428D01*
D10*
%TO.C,U1*%
X106161904Y-77852380D02*
X106161904Y-78661904D01*
X106114285Y-78757142D01*
X106066666Y-78804761D01*
X105971428Y-78852380D01*
X105780952Y-78852380D01*
X105685714Y-78804761D01*
X105638095Y-78757142D01*
X105590476Y-78661904D01*
X105590476Y-77852380D01*
X104590476Y-78852380D02*
X105161904Y-78852380D01*
X104876190Y-78852380D02*
X104876190Y-77852380D01*
X104971428Y-77995238D01*
X105066666Y-78090476D01*
X105161904Y-78138095D01*
D12*
X105400000Y-79240000D02*
X108850000Y-79240000D01*
X105400000Y-84360000D02*
X107350000Y-84360000D01*
X105400000Y-79240000D02*
X103450000Y-79240000D01*
X105400000Y-84360000D02*
X103450000Y-84360000D01*
%TD*%
M02*
