M48
; DRILL file {KiCad (5.1.9-0-10_14)} date Sunday, July 10, 2022 at 01:29:50 PM
; FORMAT={-:-/ absolute / inch / decimal}
; #@! TF.CreationDate,2022-07-10T13:29:50-04:00
; #@! TF.GenerationSoftware,Kicad,Pcbnew,(5.1.9-0-10_14)
; #@! TF.FileFunction,Plated,1,2,PTH
FMAT,2
INCH
T1C0.0157
T2C0.0315
T3C0.0394
T4C0.1063
%
G90
G05
T1
X3.5236Y-3.1496
X3.594Y-3.2941
X4.0622Y-3.3591
X4.1417Y-3.1339
X4.1535Y-2.9921
X4.2441Y-3.2835
X4.3094Y-3.148
X4.311Y-3.4961
X4.3209Y-2.9823
X4.5768Y-3.5531
X4.6127Y-3.3095
X4.6322Y-3.0219
X4.6457Y-3.2382
X4.6575Y-2.8228
X4.6949Y-3.2283
X4.7125Y-3.0211
X4.752Y-3.2205
X4.7776Y-3.5807
X4.7896Y-3.023
X4.8071Y-3.2205
X4.813Y-3.4252
X4.8228Y-3.2776
X4.8507Y-3.0263
X4.9705Y-3.4843
X4.9803Y-3.3858
X4.9882Y-2.8031
X5.0551Y-3.2283
X5.1383Y-2.8548
X5.1673Y-3.5827
X5.2165Y-3.5433
X5.2165Y-3.6417
X5.4035Y-3.6122
X5.6Y-2.8
X5.748Y-3.4055
T2
X3.5778Y-2.7205
X3.8238Y-2.7205
T3
X3.387Y-3.133
X3.387Y-3.233
X3.615Y-3.579
X3.8898Y-3.5079
X3.8898Y-3.6079
X3.9898Y-3.5079
X3.9898Y-3.6079
X4.0898Y-3.5079
X4.0898Y-3.6079
X4.139Y-2.796
X4.239Y-2.796
X4.339Y-2.796
X4.439Y-2.796
X4.5433Y-2.937
X4.6433Y-2.937
X5.959Y-3.095
X5.959Y-3.195
X5.959Y-3.295
X5.959Y-3.395
T4
X3.379Y-3.612
X3.381Y-2.839
X5.948Y-3.612
X5.95Y-2.839
T0
M30
