%TF.GenerationSoftware,KiCad,Pcbnew,(5.1.9-0-10_14)*%
%TF.CreationDate,2022-07-10T13:30:40-04:00*%
%TF.ProjectId,raygun,72617967-756e-42e6-9b69-6361645f7063,rev?*%
%TF.SameCoordinates,Original*%
%TF.FileFunction,Legend,Top*%
%TF.FilePolarity,Positive*%
%FSLAX46Y46*%
G04 Gerber Fmt 4.6, Leading zero omitted, Abs format (unit mm)*
G04 Created by KiCad (PCBNEW (5.1.9-0-10_14)) date 2022-07-10 13:30:40*
%MOMM*%
%LPD*%
G01*
G04 APERTURE LIST*
%ADD10C,0.150000*%
%ADD11C,0.120000*%
%ADD12C,0.060000*%
%ADD13C,0.200000*%
%ADD14C,0.127000*%
G04 APERTURE END LIST*
D10*
X106515476Y-87802380D02*
X106325000Y-87802380D01*
X106229761Y-87850000D01*
X106182142Y-87897619D01*
X106086904Y-88040476D01*
X106039285Y-88230952D01*
X106039285Y-88611904D01*
X106086904Y-88707142D01*
X106134523Y-88754761D01*
X106229761Y-88802380D01*
X106420238Y-88802380D01*
X106515476Y-88754761D01*
X106563095Y-88707142D01*
X106610714Y-88611904D01*
X106610714Y-88373809D01*
X106563095Y-88278571D01*
X106515476Y-88230952D01*
X106420238Y-88183333D01*
X106229761Y-88183333D01*
X106134523Y-88230952D01*
X106086904Y-88278571D01*
X106039285Y-88373809D01*
X96760714Y-92602380D02*
X96189285Y-92602380D01*
X96475000Y-92602380D02*
X96475000Y-91602380D01*
X96379761Y-91745238D01*
X96284523Y-91840476D01*
X96189285Y-91888095D01*
D11*
X122650000Y-81250000D02*
X122325000Y-82025000D01*
D12*
X120450000Y-82696428D02*
X120450000Y-82096428D01*
X120678571Y-82096428D01*
X120735714Y-82125000D01*
X120764285Y-82153571D01*
X120792857Y-82210714D01*
X120792857Y-82296428D01*
X120764285Y-82353571D01*
X120735714Y-82382142D01*
X120678571Y-82410714D01*
X120450000Y-82410714D01*
X121050000Y-82696428D02*
X121050000Y-82096428D01*
X121335714Y-82696428D02*
X121335714Y-82096428D01*
X121678571Y-82696428D01*
X121678571Y-82096428D01*
X122278571Y-82696428D02*
X121935714Y-82696428D01*
X122107142Y-82696428D02*
X122107142Y-82096428D01*
X122050000Y-82182142D01*
X121992857Y-82239285D01*
X121935714Y-82267857D01*
D10*
X83453571Y-81863095D02*
X83501190Y-81720238D01*
X83548809Y-81672619D01*
X83644047Y-81625000D01*
X83786904Y-81625000D01*
X83882142Y-81672619D01*
X83929761Y-81720238D01*
X83977380Y-81815476D01*
X83977380Y-82196428D01*
X82977380Y-82196428D01*
X82977380Y-81863095D01*
X83025000Y-81767857D01*
X83072619Y-81720238D01*
X83167857Y-81672619D01*
X83263095Y-81672619D01*
X83358333Y-81720238D01*
X83405952Y-81767857D01*
X83453571Y-81863095D01*
X83453571Y-82196428D01*
X83691666Y-81244047D02*
X83691666Y-80767857D01*
X83977380Y-81339285D02*
X82977380Y-81005952D01*
X83977380Y-80672619D01*
X82977380Y-80482142D02*
X82977380Y-79910714D01*
X83977380Y-80196428D02*
X82977380Y-80196428D01*
D11*
X124824264Y-80100000D02*
G75*
G03*
X124824264Y-80100000I-424264J0D01*
G01*
D10*
X154152380Y-83042857D02*
X154152380Y-83519047D01*
X153152380Y-83519047D01*
X153628571Y-82709523D02*
X153628571Y-82376190D01*
X154152380Y-82233333D02*
X154152380Y-82709523D01*
X153152380Y-82709523D01*
X153152380Y-82233333D01*
X154152380Y-81804761D02*
X153152380Y-81804761D01*
X153152380Y-81566666D01*
X153200000Y-81423809D01*
X153295238Y-81328571D01*
X153390476Y-81280952D01*
X153580952Y-81233333D01*
X153723809Y-81233333D01*
X153914285Y-81280952D01*
X154009523Y-81328571D01*
X154104761Y-81423809D01*
X154152380Y-81566666D01*
X154152380Y-81804761D01*
X90371428Y-88052380D02*
X90990476Y-88052380D01*
X90657142Y-88433333D01*
X90800000Y-88433333D01*
X90895238Y-88480952D01*
X90942857Y-88528571D01*
X90990476Y-88623809D01*
X90990476Y-88861904D01*
X90942857Y-88957142D01*
X90895238Y-89004761D01*
X90800000Y-89052380D01*
X90514285Y-89052380D01*
X90419047Y-89004761D01*
X90371428Y-88957142D01*
X91419047Y-88957142D02*
X91466666Y-89004761D01*
X91419047Y-89052380D01*
X91371428Y-89004761D01*
X91419047Y-88957142D01*
X91419047Y-89052380D01*
X91800000Y-88052380D02*
X92419047Y-88052380D01*
X92085714Y-88433333D01*
X92228571Y-88433333D01*
X92323809Y-88480952D01*
X92371428Y-88528571D01*
X92419047Y-88623809D01*
X92419047Y-88861904D01*
X92371428Y-88957142D01*
X92323809Y-89004761D01*
X92228571Y-89052380D01*
X91942857Y-89052380D01*
X91847619Y-89004761D01*
X91800000Y-88957142D01*
X92752380Y-88385714D02*
X92990476Y-89052380D01*
X93228571Y-88385714D01*
X121866666Y-73028571D02*
X122009523Y-73076190D01*
X122057142Y-73123809D01*
X122104761Y-73219047D01*
X122104761Y-73361904D01*
X122057142Y-73457142D01*
X122009523Y-73504761D01*
X121914285Y-73552380D01*
X121533333Y-73552380D01*
X121533333Y-72552380D01*
X121866666Y-72552380D01*
X121961904Y-72600000D01*
X122009523Y-72647619D01*
X122057142Y-72742857D01*
X122057142Y-72838095D01*
X122009523Y-72933333D01*
X121961904Y-72980952D01*
X121866666Y-73028571D01*
X121533333Y-73028571D01*
X122390476Y-72552380D02*
X122961904Y-72552380D01*
X122676190Y-73552380D02*
X122676190Y-72552380D01*
X123295238Y-73552380D02*
X123295238Y-72552380D01*
X123866666Y-73552380D01*
X123866666Y-72552380D01*
X115128571Y-72303571D02*
X115461904Y-72303571D01*
X115604761Y-72827380D02*
X115128571Y-72827380D01*
X115128571Y-71827380D01*
X115604761Y-71827380D01*
X115938095Y-71827380D02*
X116604761Y-72827380D01*
X116604761Y-71827380D02*
X115938095Y-72827380D01*
X116842857Y-71827380D02*
X117414285Y-71827380D01*
X117128571Y-72827380D02*
X117128571Y-71827380D01*
D11*
X97741228Y-93966227D02*
G75*
G03*
X97741228Y-93966227I-316228J0D01*
G01*
D13*
X84909523Y-86083333D02*
X84847619Y-86021428D01*
X84723809Y-85835714D01*
X84661904Y-85711904D01*
X84600000Y-85526190D01*
X84538095Y-85216666D01*
X84538095Y-84969047D01*
X84600000Y-84659523D01*
X84661904Y-84473809D01*
X84723809Y-84350000D01*
X84847619Y-84164285D01*
X84909523Y-84102380D01*
X85404761Y-85092857D02*
X86395238Y-85092857D01*
X86890476Y-86083333D02*
X86952380Y-86021428D01*
X87076190Y-85835714D01*
X87138095Y-85711904D01*
X87200000Y-85526190D01*
X87261904Y-85216666D01*
X87261904Y-84969047D01*
X87200000Y-84659523D01*
X87138095Y-84473809D01*
X87076190Y-84350000D01*
X86952380Y-84164285D01*
X86890476Y-84102380D01*
D10*
X85404761Y-77067857D02*
X86395238Y-77067857D01*
X85900000Y-77563095D02*
X85900000Y-76572619D01*
D13*
%TO.C,SW1*%
X119350000Y-71800000D02*
G75*
G03*
X119350000Y-71800000I-50000J0D01*
G01*
D14*
X124450000Y-68560000D02*
X124450000Y-68350000D01*
X119750000Y-68560000D02*
X119750000Y-68350000D01*
X119750000Y-70250000D02*
X119750000Y-69950000D01*
X124450000Y-69940000D02*
X124450000Y-70250000D01*
X119750000Y-71850000D02*
X119750000Y-71660000D01*
X121640000Y-71850000D02*
X119750000Y-71850000D01*
X124450000Y-71850000D02*
X124450000Y-71640000D01*
X122520000Y-71850000D02*
X124450000Y-71850000D01*
X120800000Y-68350000D02*
X119750000Y-68350000D01*
X124450000Y-68350000D02*
X123400000Y-68350000D01*
D11*
%TO.C,R8*%
X125197936Y-91710000D02*
X125652064Y-91710000D01*
X125197936Y-90240000D02*
X125652064Y-90240000D01*
%TO.C,R7*%
X132260000Y-77027064D02*
X132260000Y-76572936D01*
X130790000Y-77027064D02*
X130790000Y-76572936D01*
%TO.C,R6*%
X127577064Y-79715000D02*
X127122936Y-79715000D01*
X127577064Y-81185000D02*
X127122936Y-81185000D01*
%TO.C,ISP1*%
X97495400Y-91670480D02*
X97495400Y-93000480D01*
X97495400Y-93000480D02*
X98825400Y-93000480D01*
X97495400Y-90400480D02*
X100095400Y-90400480D01*
X100095400Y-90400480D02*
X100095400Y-93000480D01*
X100095400Y-93000480D02*
X105235400Y-93000480D01*
X105235400Y-87800480D02*
X105235400Y-93000480D01*
X97495400Y-87800480D02*
X105235400Y-87800480D01*
X97495400Y-87800480D02*
X97495400Y-90400480D01*
D13*
%TO.C,SW3*%
X92200000Y-72200000D02*
X89550000Y-72200000D01*
X89550000Y-72200000D02*
X89550000Y-69000000D01*
X89550000Y-69000000D02*
X89900000Y-69000000D01*
X96100000Y-69000000D02*
X91900000Y-69000000D01*
X98100000Y-69000000D02*
X98450000Y-69000000D01*
X98450000Y-69000000D02*
X98450000Y-72200000D01*
X98450000Y-72200000D02*
X97900000Y-72200000D01*
X96200000Y-72200000D02*
X95900000Y-72200000D01*
X94200000Y-72200000D02*
X93900000Y-72200000D01*
D11*
%TO.C,R5*%
X129372936Y-70265000D02*
X129827064Y-70265000D01*
X129372936Y-71735000D02*
X129827064Y-71735000D01*
%TO.C,SWTCH1*%
X119270000Y-75930000D02*
X119270000Y-73270000D01*
X116670000Y-75930000D02*
X119270000Y-75930000D01*
X116670000Y-73270000D02*
X119270000Y-73270000D01*
X116670000Y-75930000D02*
X116670000Y-73270000D01*
X115400000Y-75930000D02*
X114070000Y-75930000D01*
X114070000Y-75930000D02*
X114070000Y-74600000D01*
%TO.C,R4*%
X110056664Y-73687000D02*
X109602536Y-73687000D01*
X110056664Y-75157000D02*
X109602536Y-75157000D01*
%TO.C,R3*%
X105433864Y-73687000D02*
X104979736Y-73687000D01*
X105433864Y-75157000D02*
X104979736Y-75157000D01*
D14*
%TO.C,LS1*%
X134389000Y-82750800D02*
X134089000Y-82750800D01*
X134089000Y-82750800D02*
X134089000Y-69750800D01*
X134089000Y-69750800D02*
X134389000Y-69750800D01*
X138089000Y-69750800D02*
X143089000Y-69750800D01*
X146789000Y-69750800D02*
X147089000Y-69750800D01*
X147089000Y-69750800D02*
X147089000Y-82750800D01*
X147089000Y-82750800D02*
X146789000Y-82750800D01*
X143089000Y-82750800D02*
X138089000Y-82750800D01*
X145089000Y-83850800D02*
X145089000Y-83250800D01*
X144789000Y-83550800D02*
X145389000Y-83550800D01*
X144989000Y-69150800D02*
X144989000Y-68550800D01*
D11*
%TO.C,L1*%
X97285600Y-78596000D02*
X98785600Y-78596000D01*
X97285600Y-85996000D02*
X98785600Y-85996000D01*
X97285600Y-78596000D02*
X97285600Y-85996000D01*
X104085600Y-85996000D02*
X102585600Y-85996000D01*
X104085600Y-78596000D02*
X102585600Y-78596000D01*
X104085600Y-85996000D02*
X104085600Y-78596000D01*
D14*
%TO.C,Y1*%
X109341700Y-80955000D02*
X110381700Y-80955000D01*
X109341700Y-87955000D02*
X109341700Y-80955000D01*
X110381700Y-87955000D02*
X109341700Y-87955000D01*
X113441700Y-87955000D02*
X112401700Y-87955000D01*
X113441700Y-80955000D02*
X113441700Y-87955000D01*
X112401700Y-80955000D02*
X113441700Y-80955000D01*
%TO.C,U3*%
X134816300Y-92999800D02*
X138716300Y-92999800D01*
X134816300Y-87949800D02*
X138716300Y-87949800D01*
D13*
X132826300Y-88169800D02*
G75*
G03*
X132826300Y-88169800I-100000J0D01*
G01*
D11*
%TO.C,U2*%
X95261000Y-79212800D02*
X92811000Y-79212800D01*
X93461000Y-82432800D02*
X95261000Y-82432800D01*
D10*
%TO.C,U1*%
X123300700Y-80944300D02*
X123300700Y-79519300D01*
X123525700Y-88194300D02*
X123525700Y-87869300D01*
X116275700Y-88194300D02*
X116275700Y-87869300D01*
X116275700Y-80944300D02*
X116275700Y-81269300D01*
X123525700Y-80944300D02*
X123525700Y-81269300D01*
X116275700Y-80944300D02*
X116600700Y-80944300D01*
X116275700Y-88194300D02*
X116600700Y-88194300D01*
X123525700Y-88194300D02*
X123200700Y-88194300D01*
X123525700Y-80944300D02*
X123300700Y-80944300D01*
D11*
%TO.C,R2*%
X127635000Y-76927064D02*
X127635000Y-76472936D01*
X126165000Y-76927064D02*
X126165000Y-76472936D01*
%TO.C,R1*%
X107327064Y-84140000D02*
X106872936Y-84140000D01*
X107327064Y-85610000D02*
X106872936Y-85610000D01*
%TO.C,LED1*%
X150028600Y-77283000D02*
X151358600Y-77283000D01*
X150028600Y-78613000D02*
X150028600Y-77283000D01*
X150028600Y-79883000D02*
X152688600Y-79883000D01*
X152688600Y-79883000D02*
X152688600Y-87563000D01*
X150028600Y-79883000D02*
X150028600Y-87563000D01*
X150028600Y-87563000D02*
X152688600Y-87563000D01*
%TO.C,D1*%
X104765000Y-80315000D02*
X104765000Y-82600000D01*
X106235000Y-80315000D02*
X104765000Y-80315000D01*
X106235000Y-82600000D02*
X106235000Y-80315000D01*
%TO.C,C11*%
X141354800Y-92848400D02*
X145564800Y-92848400D01*
X141354800Y-89828400D02*
X141354800Y-92848400D01*
X145564800Y-89828400D02*
X141354800Y-89828400D01*
%TO.C,C10*%
X142595548Y-87422400D02*
X144018052Y-87422400D01*
X142595548Y-85602400D02*
X144018052Y-85602400D01*
%TO.C,C9*%
X119259420Y-91510000D02*
X119540580Y-91510000D01*
X119259420Y-90490000D02*
X119540580Y-90490000D01*
%TO.C,C8*%
X122147420Y-78615000D02*
X122428580Y-78615000D01*
X122147420Y-77595000D02*
X122428580Y-77595000D01*
%TO.C,C7*%
X118782220Y-78589600D02*
X119063380Y-78589600D01*
X118782220Y-77569600D02*
X119063380Y-77569600D01*
%TO.C,C6*%
X128875200Y-87757052D02*
X128875200Y-86334548D01*
X127055200Y-87757052D02*
X127055200Y-86334548D01*
%TO.C,C5*%
X137363252Y-85246800D02*
X135940748Y-85246800D01*
X137363252Y-87066800D02*
X135940748Y-87066800D01*
%TO.C,C4*%
X107528900Y-87832320D02*
X107528900Y-88113480D01*
X108548900Y-87832320D02*
X108548900Y-88113480D01*
%TO.C,C3*%
X108612400Y-80874180D02*
X108612400Y-80593020D01*
X107592400Y-80874180D02*
X107592400Y-80593020D01*
%TO.C,C2*%
X94894452Y-84180000D02*
X93471948Y-84180000D01*
X94894452Y-86000000D02*
X93471948Y-86000000D01*
%TO.C,C1*%
X90777600Y-80402820D02*
X90777600Y-80683980D01*
X91797600Y-80402820D02*
X91797600Y-80683980D01*
%TO.C,BAT1*%
X84699800Y-78248200D02*
X86029800Y-78248200D01*
X84699800Y-79578200D02*
X84699800Y-78248200D01*
X84699800Y-80848200D02*
X87359800Y-80848200D01*
X87359800Y-80848200D02*
X87359800Y-83448200D01*
X84699800Y-80848200D02*
X84699800Y-83448200D01*
X84699800Y-83448200D02*
X87359800Y-83448200D01*
%TO.C,3.3v1*%
X90491000Y-89576600D02*
X91821000Y-89576600D01*
X90491000Y-90906600D02*
X90491000Y-89576600D01*
X90491000Y-92176600D02*
X93151000Y-92176600D01*
X93151000Y-92176600D02*
X93151000Y-92236600D01*
X90491000Y-92176600D02*
X90491000Y-92236600D01*
X90491000Y-92236600D02*
X93151000Y-92236600D01*
%TO.C,R8*%
D10*
X125133333Y-93102380D02*
X124800000Y-92626190D01*
X124561904Y-93102380D02*
X124561904Y-92102380D01*
X124942857Y-92102380D01*
X125038095Y-92150000D01*
X125085714Y-92197619D01*
X125133333Y-92292857D01*
X125133333Y-92435714D01*
X125085714Y-92530952D01*
X125038095Y-92578571D01*
X124942857Y-92626190D01*
X124561904Y-92626190D01*
X125704761Y-92530952D02*
X125609523Y-92483333D01*
X125561904Y-92435714D01*
X125514285Y-92340476D01*
X125514285Y-92292857D01*
X125561904Y-92197619D01*
X125609523Y-92150000D01*
X125704761Y-92102380D01*
X125895238Y-92102380D01*
X125990476Y-92150000D01*
X126038095Y-92197619D01*
X126085714Y-92292857D01*
X126085714Y-92340476D01*
X126038095Y-92435714D01*
X125990476Y-92483333D01*
X125895238Y-92530952D01*
X125704761Y-92530952D01*
X125609523Y-92578571D01*
X125561904Y-92626190D01*
X125514285Y-92721428D01*
X125514285Y-92911904D01*
X125561904Y-93007142D01*
X125609523Y-93054761D01*
X125704761Y-93102380D01*
X125895238Y-93102380D01*
X125990476Y-93054761D01*
X126038095Y-93007142D01*
X126085714Y-92911904D01*
X126085714Y-92721428D01*
X126038095Y-92626190D01*
X125990476Y-92578571D01*
X125895238Y-92530952D01*
%TO.C,R7*%
X131333333Y-74977380D02*
X131000000Y-74501190D01*
X130761904Y-74977380D02*
X130761904Y-73977380D01*
X131142857Y-73977380D01*
X131238095Y-74025000D01*
X131285714Y-74072619D01*
X131333333Y-74167857D01*
X131333333Y-74310714D01*
X131285714Y-74405952D01*
X131238095Y-74453571D01*
X131142857Y-74501190D01*
X130761904Y-74501190D01*
X131666666Y-73977380D02*
X132333333Y-73977380D01*
X131904761Y-74977380D01*
%TO.C,R6*%
X129908333Y-80877380D02*
X129575000Y-80401190D01*
X129336904Y-80877380D02*
X129336904Y-79877380D01*
X129717857Y-79877380D01*
X129813095Y-79925000D01*
X129860714Y-79972619D01*
X129908333Y-80067857D01*
X129908333Y-80210714D01*
X129860714Y-80305952D01*
X129813095Y-80353571D01*
X129717857Y-80401190D01*
X129336904Y-80401190D01*
X130765476Y-79877380D02*
X130575000Y-79877380D01*
X130479761Y-79925000D01*
X130432142Y-79972619D01*
X130336904Y-80115476D01*
X130289285Y-80305952D01*
X130289285Y-80686904D01*
X130336904Y-80782142D01*
X130384523Y-80829761D01*
X130479761Y-80877380D01*
X130670238Y-80877380D01*
X130765476Y-80829761D01*
X130813095Y-80782142D01*
X130860714Y-80686904D01*
X130860714Y-80448809D01*
X130813095Y-80353571D01*
X130765476Y-80305952D01*
X130670238Y-80258333D01*
X130479761Y-80258333D01*
X130384523Y-80305952D01*
X130336904Y-80353571D01*
X130289285Y-80448809D01*
%TO.C,ISP1*%
X100047619Y-94802380D02*
X100047619Y-93802380D01*
X100476190Y-94754761D02*
X100619047Y-94802380D01*
X100857142Y-94802380D01*
X100952380Y-94754761D01*
X101000000Y-94707142D01*
X101047619Y-94611904D01*
X101047619Y-94516666D01*
X101000000Y-94421428D01*
X100952380Y-94373809D01*
X100857142Y-94326190D01*
X100666666Y-94278571D01*
X100571428Y-94230952D01*
X100523809Y-94183333D01*
X100476190Y-94088095D01*
X100476190Y-93992857D01*
X100523809Y-93897619D01*
X100571428Y-93850000D01*
X100666666Y-93802380D01*
X100904761Y-93802380D01*
X101047619Y-93850000D01*
X101476190Y-94802380D02*
X101476190Y-93802380D01*
X101857142Y-93802380D01*
X101952380Y-93850000D01*
X102000000Y-93897619D01*
X102047619Y-93992857D01*
X102047619Y-94135714D01*
X102000000Y-94230952D01*
X101952380Y-94278571D01*
X101857142Y-94326190D01*
X101476190Y-94326190D01*
X103000000Y-94802380D02*
X102428571Y-94802380D01*
X102714285Y-94802380D02*
X102714285Y-93802380D01*
X102619047Y-93945238D01*
X102523809Y-94040476D01*
X102428571Y-94088095D01*
%TO.C,SW3*%
X92766666Y-71004761D02*
X92909523Y-71052380D01*
X93147619Y-71052380D01*
X93242857Y-71004761D01*
X93290476Y-70957142D01*
X93338095Y-70861904D01*
X93338095Y-70766666D01*
X93290476Y-70671428D01*
X93242857Y-70623809D01*
X93147619Y-70576190D01*
X92957142Y-70528571D01*
X92861904Y-70480952D01*
X92814285Y-70433333D01*
X92766666Y-70338095D01*
X92766666Y-70242857D01*
X92814285Y-70147619D01*
X92861904Y-70100000D01*
X92957142Y-70052380D01*
X93195238Y-70052380D01*
X93338095Y-70100000D01*
X93671428Y-70052380D02*
X93909523Y-71052380D01*
X94100000Y-70338095D01*
X94290476Y-71052380D01*
X94528571Y-70052380D01*
X94814285Y-70052380D02*
X95433333Y-70052380D01*
X95100000Y-70433333D01*
X95242857Y-70433333D01*
X95338095Y-70480952D01*
X95385714Y-70528571D01*
X95433333Y-70623809D01*
X95433333Y-70861904D01*
X95385714Y-70957142D01*
X95338095Y-71004761D01*
X95242857Y-71052380D01*
X94957142Y-71052380D01*
X94861904Y-71004761D01*
X94814285Y-70957142D01*
%TO.C,R5*%
X129433333Y-69802380D02*
X129100000Y-69326190D01*
X128861904Y-69802380D02*
X128861904Y-68802380D01*
X129242857Y-68802380D01*
X129338095Y-68850000D01*
X129385714Y-68897619D01*
X129433333Y-68992857D01*
X129433333Y-69135714D01*
X129385714Y-69230952D01*
X129338095Y-69278571D01*
X129242857Y-69326190D01*
X128861904Y-69326190D01*
X130338095Y-68802380D02*
X129861904Y-68802380D01*
X129814285Y-69278571D01*
X129861904Y-69230952D01*
X129957142Y-69183333D01*
X130195238Y-69183333D01*
X130290476Y-69230952D01*
X130338095Y-69278571D01*
X130385714Y-69373809D01*
X130385714Y-69611904D01*
X130338095Y-69707142D01*
X130290476Y-69754761D01*
X130195238Y-69802380D01*
X129957142Y-69802380D01*
X129861904Y-69754761D01*
X129814285Y-69707142D01*
%TO.C,R4*%
X109633333Y-76552380D02*
X109300000Y-76076190D01*
X109061904Y-76552380D02*
X109061904Y-75552380D01*
X109442857Y-75552380D01*
X109538095Y-75600000D01*
X109585714Y-75647619D01*
X109633333Y-75742857D01*
X109633333Y-75885714D01*
X109585714Y-75980952D01*
X109538095Y-76028571D01*
X109442857Y-76076190D01*
X109061904Y-76076190D01*
X110490476Y-75885714D02*
X110490476Y-76552380D01*
X110252380Y-75504761D02*
X110014285Y-76219047D01*
X110633333Y-76219047D01*
%TO.C,R3*%
X105033333Y-76652380D02*
X104700000Y-76176190D01*
X104461904Y-76652380D02*
X104461904Y-75652380D01*
X104842857Y-75652380D01*
X104938095Y-75700000D01*
X104985714Y-75747619D01*
X105033333Y-75842857D01*
X105033333Y-75985714D01*
X104985714Y-76080952D01*
X104938095Y-76128571D01*
X104842857Y-76176190D01*
X104461904Y-76176190D01*
X105366666Y-75652380D02*
X105985714Y-75652380D01*
X105652380Y-76033333D01*
X105795238Y-76033333D01*
X105890476Y-76080952D01*
X105938095Y-76128571D01*
X105985714Y-76223809D01*
X105985714Y-76461904D01*
X105938095Y-76557142D01*
X105890476Y-76604761D01*
X105795238Y-76652380D01*
X105509523Y-76652380D01*
X105414285Y-76604761D01*
X105366666Y-76557142D01*
%TO.C,LS1*%
X140383157Y-76896749D02*
X140383157Y-77375231D01*
X139378346Y-77375231D01*
X140335309Y-76609661D02*
X140383157Y-76466116D01*
X140383157Y-76226875D01*
X140335309Y-76131179D01*
X140287461Y-76083331D01*
X140191764Y-76035483D01*
X140096068Y-76035483D01*
X140000372Y-76083331D01*
X139952524Y-76131179D01*
X139904675Y-76226875D01*
X139856827Y-76418268D01*
X139808979Y-76513964D01*
X139761131Y-76561812D01*
X139665435Y-76609661D01*
X139569738Y-76609661D01*
X139474042Y-76561812D01*
X139426194Y-76513964D01*
X139378346Y-76418268D01*
X139378346Y-76179027D01*
X139426194Y-76035483D01*
X140383157Y-75078520D02*
X140383157Y-75652698D01*
X140383157Y-75365609D02*
X139378346Y-75365609D01*
X139521890Y-75461305D01*
X139617587Y-75557001D01*
X139665435Y-75652698D01*
%TO.C,L1*%
X100544333Y-82545180D02*
X100068142Y-82545180D01*
X100068142Y-81545180D01*
X101401476Y-82545180D02*
X100830047Y-82545180D01*
X101115761Y-82545180D02*
X101115761Y-81545180D01*
X101020523Y-81688038D01*
X100925285Y-81783276D01*
X100830047Y-81830895D01*
%TO.C,Y1*%
X112633727Y-84481041D02*
X112939169Y-84481041D01*
X112297741Y-84694851D02*
X112633727Y-84481041D01*
X112297741Y-84267232D01*
X112939169Y-83717437D02*
X112939169Y-84083967D01*
X112939169Y-83900702D02*
X112297741Y-83900702D01*
X112389374Y-83961790D01*
X112450462Y-84022879D01*
X112481006Y-84083967D01*
%TO.C,U3*%
X135966295Y-89850980D02*
X135966295Y-90660504D01*
X136013914Y-90755742D01*
X136061533Y-90803361D01*
X136156771Y-90850980D01*
X136347247Y-90850980D01*
X136442485Y-90803361D01*
X136490104Y-90755742D01*
X136537723Y-90660504D01*
X136537723Y-89850980D01*
X136918676Y-89850980D02*
X137537723Y-89850980D01*
X137204390Y-90231933D01*
X137347247Y-90231933D01*
X137442485Y-90279552D01*
X137490104Y-90327171D01*
X137537723Y-90422409D01*
X137537723Y-90660504D01*
X137490104Y-90755742D01*
X137442485Y-90803361D01*
X137347247Y-90850980D01*
X137061533Y-90850980D01*
X136966295Y-90803361D01*
X136918676Y-90755742D01*
%TO.C,U2*%
X93599095Y-77375180D02*
X93599095Y-78184704D01*
X93646714Y-78279942D01*
X93694333Y-78327561D01*
X93789571Y-78375180D01*
X93980047Y-78375180D01*
X94075285Y-78327561D01*
X94122904Y-78279942D01*
X94170523Y-78184704D01*
X94170523Y-77375180D01*
X94599095Y-77470419D02*
X94646714Y-77422800D01*
X94741952Y-77375180D01*
X94980047Y-77375180D01*
X95075285Y-77422800D01*
X95122904Y-77470419D01*
X95170523Y-77565657D01*
X95170523Y-77660895D01*
X95122904Y-77803752D01*
X94551476Y-78375180D01*
X95170523Y-78375180D01*
%TO.C,U1*%
X118821295Y-84237580D02*
X118821295Y-85047104D01*
X118868914Y-85142342D01*
X118916533Y-85189961D01*
X119011771Y-85237580D01*
X119202247Y-85237580D01*
X119297485Y-85189961D01*
X119345104Y-85142342D01*
X119392723Y-85047104D01*
X119392723Y-84237580D01*
X120392723Y-85237580D02*
X119821295Y-85237580D01*
X120107009Y-85237580D02*
X120107009Y-84237580D01*
X120011771Y-84380438D01*
X119916533Y-84475676D01*
X119821295Y-84523295D01*
%TO.C,R2*%
X126608333Y-74852380D02*
X126275000Y-74376190D01*
X126036904Y-74852380D02*
X126036904Y-73852380D01*
X126417857Y-73852380D01*
X126513095Y-73900000D01*
X126560714Y-73947619D01*
X126608333Y-74042857D01*
X126608333Y-74185714D01*
X126560714Y-74280952D01*
X126513095Y-74328571D01*
X126417857Y-74376190D01*
X126036904Y-74376190D01*
X126989285Y-73947619D02*
X127036904Y-73900000D01*
X127132142Y-73852380D01*
X127370238Y-73852380D01*
X127465476Y-73900000D01*
X127513095Y-73947619D01*
X127560714Y-74042857D01*
X127560714Y-74138095D01*
X127513095Y-74280952D01*
X126941666Y-74852380D01*
X127560714Y-74852380D01*
%TO.C,R1*%
X107658333Y-83727380D02*
X107325000Y-83251190D01*
X107086904Y-83727380D02*
X107086904Y-82727380D01*
X107467857Y-82727380D01*
X107563095Y-82775000D01*
X107610714Y-82822619D01*
X107658333Y-82917857D01*
X107658333Y-83060714D01*
X107610714Y-83155952D01*
X107563095Y-83203571D01*
X107467857Y-83251190D01*
X107086904Y-83251190D01*
X108610714Y-83727380D02*
X108039285Y-83727380D01*
X108325000Y-83727380D02*
X108325000Y-82727380D01*
X108229761Y-82870238D01*
X108134523Y-82965476D01*
X108039285Y-83013095D01*
%TO.C,D1*%
X105061904Y-79652380D02*
X105061904Y-78652380D01*
X105300000Y-78652380D01*
X105442857Y-78700000D01*
X105538095Y-78795238D01*
X105585714Y-78890476D01*
X105633333Y-79080952D01*
X105633333Y-79223809D01*
X105585714Y-79414285D01*
X105538095Y-79509523D01*
X105442857Y-79604761D01*
X105300000Y-79652380D01*
X105061904Y-79652380D01*
X106585714Y-79652380D02*
X106014285Y-79652380D01*
X106300000Y-79652380D02*
X106300000Y-78652380D01*
X106204761Y-78795238D01*
X106109523Y-78890476D01*
X106014285Y-78938095D01*
%TO.C,C11*%
X143057142Y-93957142D02*
X143009523Y-94004761D01*
X142866666Y-94052380D01*
X142771428Y-94052380D01*
X142628571Y-94004761D01*
X142533333Y-93909523D01*
X142485714Y-93814285D01*
X142438095Y-93623809D01*
X142438095Y-93480952D01*
X142485714Y-93290476D01*
X142533333Y-93195238D01*
X142628571Y-93100000D01*
X142771428Y-93052380D01*
X142866666Y-93052380D01*
X143009523Y-93100000D01*
X143057142Y-93147619D01*
X144009523Y-94052380D02*
X143438095Y-94052380D01*
X143723809Y-94052380D02*
X143723809Y-93052380D01*
X143628571Y-93195238D01*
X143533333Y-93290476D01*
X143438095Y-93338095D01*
X144961904Y-94052380D02*
X144390476Y-94052380D01*
X144676190Y-94052380D02*
X144676190Y-93052380D01*
X144580952Y-93195238D01*
X144485714Y-93290476D01*
X144390476Y-93338095D01*
%TO.C,C10*%
X146457142Y-86657142D02*
X146409523Y-86704761D01*
X146266666Y-86752380D01*
X146171428Y-86752380D01*
X146028571Y-86704761D01*
X145933333Y-86609523D01*
X145885714Y-86514285D01*
X145838095Y-86323809D01*
X145838095Y-86180952D01*
X145885714Y-85990476D01*
X145933333Y-85895238D01*
X146028571Y-85800000D01*
X146171428Y-85752380D01*
X146266666Y-85752380D01*
X146409523Y-85800000D01*
X146457142Y-85847619D01*
X147409523Y-86752380D02*
X146838095Y-86752380D01*
X147123809Y-86752380D02*
X147123809Y-85752380D01*
X147028571Y-85895238D01*
X146933333Y-85990476D01*
X146838095Y-86038095D01*
X148028571Y-85752380D02*
X148123809Y-85752380D01*
X148219047Y-85800000D01*
X148266666Y-85847619D01*
X148314285Y-85942857D01*
X148361904Y-86133333D01*
X148361904Y-86371428D01*
X148314285Y-86561904D01*
X148266666Y-86657142D01*
X148219047Y-86704761D01*
X148123809Y-86752380D01*
X148028571Y-86752380D01*
X147933333Y-86704761D01*
X147885714Y-86657142D01*
X147838095Y-86561904D01*
X147790476Y-86371428D01*
X147790476Y-86133333D01*
X147838095Y-85942857D01*
X147885714Y-85847619D01*
X147933333Y-85800000D01*
X148028571Y-85752380D01*
%TO.C,C9*%
X119131733Y-92931942D02*
X119084114Y-92979561D01*
X118941257Y-93027180D01*
X118846019Y-93027180D01*
X118703161Y-92979561D01*
X118607923Y-92884323D01*
X118560304Y-92789085D01*
X118512685Y-92598609D01*
X118512685Y-92455752D01*
X118560304Y-92265276D01*
X118607923Y-92170038D01*
X118703161Y-92074800D01*
X118846019Y-92027180D01*
X118941257Y-92027180D01*
X119084114Y-92074800D01*
X119131733Y-92122419D01*
X119607923Y-93027180D02*
X119798400Y-93027180D01*
X119893638Y-92979561D01*
X119941257Y-92931942D01*
X120036495Y-92789085D01*
X120084114Y-92598609D01*
X120084114Y-92217657D01*
X120036495Y-92122419D01*
X119988876Y-92074800D01*
X119893638Y-92027180D01*
X119703161Y-92027180D01*
X119607923Y-92074800D01*
X119560304Y-92122419D01*
X119512685Y-92217657D01*
X119512685Y-92455752D01*
X119560304Y-92550990D01*
X119607923Y-92598609D01*
X119703161Y-92646228D01*
X119893638Y-92646228D01*
X119988876Y-92598609D01*
X120036495Y-92550990D01*
X120084114Y-92455752D01*
%TO.C,C8*%
X122133333Y-77057142D02*
X122085714Y-77104761D01*
X121942857Y-77152380D01*
X121847619Y-77152380D01*
X121704761Y-77104761D01*
X121609523Y-77009523D01*
X121561904Y-76914285D01*
X121514285Y-76723809D01*
X121514285Y-76580952D01*
X121561904Y-76390476D01*
X121609523Y-76295238D01*
X121704761Y-76200000D01*
X121847619Y-76152380D01*
X121942857Y-76152380D01*
X122085714Y-76200000D01*
X122133333Y-76247619D01*
X122704761Y-76580952D02*
X122609523Y-76533333D01*
X122561904Y-76485714D01*
X122514285Y-76390476D01*
X122514285Y-76342857D01*
X122561904Y-76247619D01*
X122609523Y-76200000D01*
X122704761Y-76152380D01*
X122895238Y-76152380D01*
X122990476Y-76200000D01*
X123038095Y-76247619D01*
X123085714Y-76342857D01*
X123085714Y-76390476D01*
X123038095Y-76485714D01*
X122990476Y-76533333D01*
X122895238Y-76580952D01*
X122704761Y-76580952D01*
X122609523Y-76628571D01*
X122561904Y-76676190D01*
X122514285Y-76771428D01*
X122514285Y-76961904D01*
X122561904Y-77057142D01*
X122609523Y-77104761D01*
X122704761Y-77152380D01*
X122895238Y-77152380D01*
X122990476Y-77104761D01*
X123038095Y-77057142D01*
X123085714Y-76961904D01*
X123085714Y-76771428D01*
X123038095Y-76676190D01*
X122990476Y-76628571D01*
X122895238Y-76580952D01*
%TO.C,C7*%
X116333333Y-78457142D02*
X116285714Y-78504761D01*
X116142857Y-78552380D01*
X116047619Y-78552380D01*
X115904761Y-78504761D01*
X115809523Y-78409523D01*
X115761904Y-78314285D01*
X115714285Y-78123809D01*
X115714285Y-77980952D01*
X115761904Y-77790476D01*
X115809523Y-77695238D01*
X115904761Y-77600000D01*
X116047619Y-77552380D01*
X116142857Y-77552380D01*
X116285714Y-77600000D01*
X116333333Y-77647619D01*
X116666666Y-77552380D02*
X117333333Y-77552380D01*
X116904761Y-78552380D01*
%TO.C,C6*%
X127708333Y-84357142D02*
X127660714Y-84404761D01*
X127517857Y-84452380D01*
X127422619Y-84452380D01*
X127279761Y-84404761D01*
X127184523Y-84309523D01*
X127136904Y-84214285D01*
X127089285Y-84023809D01*
X127089285Y-83880952D01*
X127136904Y-83690476D01*
X127184523Y-83595238D01*
X127279761Y-83500000D01*
X127422619Y-83452380D01*
X127517857Y-83452380D01*
X127660714Y-83500000D01*
X127708333Y-83547619D01*
X128565476Y-83452380D02*
X128375000Y-83452380D01*
X128279761Y-83500000D01*
X128232142Y-83547619D01*
X128136904Y-83690476D01*
X128089285Y-83880952D01*
X128089285Y-84261904D01*
X128136904Y-84357142D01*
X128184523Y-84404761D01*
X128279761Y-84452380D01*
X128470238Y-84452380D01*
X128565476Y-84404761D01*
X128613095Y-84357142D01*
X128660714Y-84261904D01*
X128660714Y-84023809D01*
X128613095Y-83928571D01*
X128565476Y-83880952D01*
X128470238Y-83833333D01*
X128279761Y-83833333D01*
X128184523Y-83880952D01*
X128136904Y-83928571D01*
X128089285Y-84023809D01*
%TO.C,C5*%
X133133333Y-86757142D02*
X133085714Y-86804761D01*
X132942857Y-86852380D01*
X132847619Y-86852380D01*
X132704761Y-86804761D01*
X132609523Y-86709523D01*
X132561904Y-86614285D01*
X132514285Y-86423809D01*
X132514285Y-86280952D01*
X132561904Y-86090476D01*
X132609523Y-85995238D01*
X132704761Y-85900000D01*
X132847619Y-85852380D01*
X132942857Y-85852380D01*
X133085714Y-85900000D01*
X133133333Y-85947619D01*
X134038095Y-85852380D02*
X133561904Y-85852380D01*
X133514285Y-86328571D01*
X133561904Y-86280952D01*
X133657142Y-86233333D01*
X133895238Y-86233333D01*
X133990476Y-86280952D01*
X134038095Y-86328571D01*
X134085714Y-86423809D01*
X134085714Y-86661904D01*
X134038095Y-86757142D01*
X133990476Y-86804761D01*
X133895238Y-86852380D01*
X133657142Y-86852380D01*
X133561904Y-86804761D01*
X133514285Y-86757142D01*
%TO.C,C4*%
X108333333Y-90557142D02*
X108285714Y-90604761D01*
X108142857Y-90652380D01*
X108047619Y-90652380D01*
X107904761Y-90604761D01*
X107809523Y-90509523D01*
X107761904Y-90414285D01*
X107714285Y-90223809D01*
X107714285Y-90080952D01*
X107761904Y-89890476D01*
X107809523Y-89795238D01*
X107904761Y-89700000D01*
X108047619Y-89652380D01*
X108142857Y-89652380D01*
X108285714Y-89700000D01*
X108333333Y-89747619D01*
X109190476Y-89985714D02*
X109190476Y-90652380D01*
X108952380Y-89604761D02*
X108714285Y-90319047D01*
X109333333Y-90319047D01*
%TO.C,C3*%
X108633333Y-79057142D02*
X108585714Y-79104761D01*
X108442857Y-79152380D01*
X108347619Y-79152380D01*
X108204761Y-79104761D01*
X108109523Y-79009523D01*
X108061904Y-78914285D01*
X108014285Y-78723809D01*
X108014285Y-78580952D01*
X108061904Y-78390476D01*
X108109523Y-78295238D01*
X108204761Y-78200000D01*
X108347619Y-78152380D01*
X108442857Y-78152380D01*
X108585714Y-78200000D01*
X108633333Y-78247619D01*
X108966666Y-78152380D02*
X109585714Y-78152380D01*
X109252380Y-78533333D01*
X109395238Y-78533333D01*
X109490476Y-78580952D01*
X109538095Y-78628571D01*
X109585714Y-78723809D01*
X109585714Y-78961904D01*
X109538095Y-79057142D01*
X109490476Y-79104761D01*
X109395238Y-79152380D01*
X109109523Y-79152380D01*
X109014285Y-79104761D01*
X108966666Y-79057142D01*
%TO.C,C2*%
X94016533Y-87297142D02*
X93968914Y-87344761D01*
X93826057Y-87392380D01*
X93730819Y-87392380D01*
X93587961Y-87344761D01*
X93492723Y-87249523D01*
X93445104Y-87154285D01*
X93397485Y-86963809D01*
X93397485Y-86820952D01*
X93445104Y-86630476D01*
X93492723Y-86535238D01*
X93587961Y-86440000D01*
X93730819Y-86392380D01*
X93826057Y-86392380D01*
X93968914Y-86440000D01*
X94016533Y-86487619D01*
X94397485Y-86487619D02*
X94445104Y-86440000D01*
X94540342Y-86392380D01*
X94778438Y-86392380D01*
X94873676Y-86440000D01*
X94921295Y-86487619D01*
X94968914Y-86582857D01*
X94968914Y-86678095D01*
X94921295Y-86820952D01*
X94349866Y-87392380D01*
X94968914Y-87392380D01*
%TO.C,C1*%
X89583333Y-80932142D02*
X89535714Y-80979761D01*
X89392857Y-81027380D01*
X89297619Y-81027380D01*
X89154761Y-80979761D01*
X89059523Y-80884523D01*
X89011904Y-80789285D01*
X88964285Y-80598809D01*
X88964285Y-80455952D01*
X89011904Y-80265476D01*
X89059523Y-80170238D01*
X89154761Y-80075000D01*
X89297619Y-80027380D01*
X89392857Y-80027380D01*
X89535714Y-80075000D01*
X89583333Y-80122619D01*
X90535714Y-81027380D02*
X89964285Y-81027380D01*
X90250000Y-81027380D02*
X90250000Y-80027380D01*
X90154761Y-80170238D01*
X90059523Y-80265476D01*
X89964285Y-80313095D01*
%TD*%
M02*
