  0
SECTION
  2
HEADER
  9
$ANGBASE
  50
0.0
  9
$ANGDIR
  70
1
  9
$MEASUREMENT
  70
1
  0
ENDSEC
  0
SECTION
  2
TABLES
  0
TABLE
  2
LTYPE
  70
4
  0
LTYPE
  5
40F
  2
CONTINUOUS
  70
0
  3
Solid line
  72
65
  73
0
  40
0.0
  0
LTYPE
  5
410
  2
DASHDOT
 70
0
  3
Dash Dot ____ _ ____ _
 72
65
 73
4
 40
2.0
 49
1.25
 49
-0.25
 49
0.25
 49
-0.25
  0
LTYPE
  5
411
  2
DASHED
 70
0
  3
Dashed __ __ __ __ __
 72
65
 73
2
 40
0.75
 49
0.5
 49
-0.25
  0
LTYPE
  5
43B
  2
DOTTED
 70
0
  3
Dotted .  .  .  .
 72
65
 73
2
 40
0.2
 49
0.0
 49
-0.2
  0
ENDTAB
  0
TABLE
  2
STYLE
  70
4
  0
STYLE
  2
KICAD
  70
0
  40
0
  41
1
  42
1
  50
0
  71
0
  3
isocp.shx
  0
STYLE
  2
KICADB
  70
0
  40
0
  41
1
  42
1
  50
0
  71
0
  3
isocp.shx
  0
STYLE
  2
KICADI
  70
0
  40
0
  41
1
  42
1
  50
15
  71
0
  3
isocp.shx
  0
STYLE
  2
KICADBI
  70
0
  40
0
  41
1
  42
1
  50
15
  71
0
  3
isocp.shx
  0
ENDTAB
  0
TABLE
  2
LAYER
  70
1
  0
LAYER
  2
BLACK
  70
0
  62
7
  6
CONTINUOUS
  0
ENDTAB
  0
ENDSEC
  0
SECTION
  2
ENTITIES
0
LINE
8
BLACK
6
CONTINUOUS
10
135.247
20
-92.0806
11
135.255
21
-92.083
0
LINE
8
BLACK
6
CONTINUOUS
10
135.255
20
-92.083
11
135.263
21
-92.0869
0
LINE
8
BLACK
6
CONTINUOUS
10
135.263
20
-92.0869
11
135.269
21
-92.0921
0
LINE
8
BLACK
6
CONTINUOUS
10
135.269
20
-92.0921
11
135.274
21
-92.0985
0
LINE
8
BLACK
6
CONTINUOUS
10
135.274
20
-92.0985
11
135.278
21
-92.1057
0
LINE
8
BLACK
6
CONTINUOUS
10
135.278
20
-92.1057
11
135.28
21
-92.1136
0
LINE
8
BLACK
6
CONTINUOUS
10
135.28
20
-92.1136
11
135.281
21
-92.1218
0
LINE
8
BLACK
6
CONTINUOUS
10
135.281
20
-92.1218
11
135.281
21
-92.6378
0
LINE
8
BLACK
6
CONTINUOUS
10
135.281
20
-92.6378
11
135.28
21
-92.646
0
LINE
8
BLACK
6
CONTINUOUS
10
135.28
20
-92.646
11
135.278
21
-92.6539
0
LINE
8
BLACK
6
CONTINUOUS
10
135.278
20
-92.6539
11
135.274
21
-92.6611
0
LINE
8
BLACK
6
CONTINUOUS
10
135.274
20
-92.6611
11
135.269
21
-92.6675
0
LINE
8
BLACK
6
CONTINUOUS
10
135.269
20
-92.6675
11
135.263
21
-92.6727
0
LINE
8
BLACK
6
CONTINUOUS
10
135.263
20
-92.6727
11
135.255
21
-92.6766
0
LINE
8
BLACK
6
CONTINUOUS
10
135.255
20
-92.6766
11
135.247
21
-92.679
0
LINE
8
BLACK
6
CONTINUOUS
10
135.247
20
-92.679
11
135.239
21
-92.6798
0
LINE
8
BLACK
6
CONTINUOUS
10
135.239
20
-92.6798
11
133.353
21
-92.6798
0
LINE
8
BLACK
6
CONTINUOUS
10
133.353
20
-92.6798
11
133.345
21
-92.679
0
LINE
8
BLACK
6
CONTINUOUS
10
133.345
20
-92.679
11
133.337
21
-92.6766
0
LINE
8
BLACK
6
CONTINUOUS
10
133.337
20
-92.6766
11
133.33
21
-92.6727
0
LINE
8
BLACK
6
CONTINUOUS
10
133.33
20
-92.6727
11
133.324
21
-92.6675
0
LINE
8
BLACK
6
CONTINUOUS
10
133.324
20
-92.6675
11
133.318
21
-92.6611
0
LINE
8
BLACK
6
CONTINUOUS
10
133.318
20
-92.6611
11
133.314
21
-92.6539
0
LINE
8
BLACK
6
CONTINUOUS
10
133.314
20
-92.6539
11
133.312
21
-92.646
0
LINE
8
BLACK
6
CONTINUOUS
10
133.312
20
-92.646
11
133.311
21
-92.6378
0
LINE
8
BLACK
6
CONTINUOUS
10
133.311
20
-92.6378
11
133.311
21
-92.1218
0
LINE
8
BLACK
6
CONTINUOUS
10
133.311
20
-92.1218
11
133.312
21
-92.1136
0
LINE
8
BLACK
6
CONTINUOUS
10
133.312
20
-92.1136
11
133.314
21
-92.1057
0
LINE
8
BLACK
6
CONTINUOUS
10
133.314
20
-92.1057
11
133.318
21
-92.0985
0
LINE
8
BLACK
6
CONTINUOUS
10
133.318
20
-92.0985
11
133.324
21
-92.0921
0
LINE
8
BLACK
6
CONTINUOUS
10
133.324
20
-92.0921
11
133.33
21
-92.0869
0
LINE
8
BLACK
6
CONTINUOUS
10
133.33
20
-92.0869
11
133.337
21
-92.083
0
LINE
8
BLACK
6
CONTINUOUS
10
133.337
20
-92.083
11
133.345
21
-92.0806
0
LINE
8
BLACK
6
CONTINUOUS
10
133.345
20
-92.0806
11
133.353
21
-92.0798
0
LINE
8
BLACK
6
CONTINUOUS
10
133.353
20
-92.0798
11
135.239
21
-92.0798
0
LINE
8
BLACK
6
CONTINUOUS
10
135.239
20
-92.0798
11
135.247
21
-92.0806
0
LINE
8
BLACK
6
CONTINUOUS
10
140.187
20
-92.0806
11
140.195
21
-92.083
0
LINE
8
BLACK
6
CONTINUOUS
10
140.195
20
-92.083
11
140.203
21
-92.0869
0
LINE
8
BLACK
6
CONTINUOUS
10
140.203
20
-92.0869
11
140.209
21
-92.0921
0
LINE
8
BLACK
6
CONTINUOUS
10
140.209
20
-92.0921
11
140.214
21
-92.0985
0
LINE
8
BLACK
6
CONTINUOUS
10
140.214
20
-92.0985
11
140.218
21
-92.1057
0
LINE
8
BLACK
6
CONTINUOUS
10
140.218
20
-92.1057
11
140.22
21
-92.1136
0
LINE
8
BLACK
6
CONTINUOUS
10
140.22
20
-92.1136
11
140.221
21
-92.1218
0
LINE
8
BLACK
6
CONTINUOUS
10
140.221
20
-92.1218
11
140.221
21
-92.6378
0
LINE
8
BLACK
6
CONTINUOUS
10
140.221
20
-92.6378
11
140.22
21
-92.646
0
LINE
8
BLACK
6
CONTINUOUS
10
140.22
20
-92.646
11
140.218
21
-92.6539
0
LINE
8
BLACK
6
CONTINUOUS
10
140.218
20
-92.6539
11
140.214
21
-92.6611
0
LINE
8
BLACK
6
CONTINUOUS
10
140.214
20
-92.6611
11
140.209
21
-92.6675
0
LINE
8
BLACK
6
CONTINUOUS
10
140.209
20
-92.6675
11
140.203
21
-92.6727
0
LINE
8
BLACK
6
CONTINUOUS
10
140.203
20
-92.6727
11
140.195
21
-92.6766
0
LINE
8
BLACK
6
CONTINUOUS
10
140.195
20
-92.6766
11
140.187
21
-92.679
0
LINE
8
BLACK
6
CONTINUOUS
10
140.187
20
-92.679
11
140.179
21
-92.6798
0
LINE
8
BLACK
6
CONTINUOUS
10
140.179
20
-92.6798
11
138.293
21
-92.6798
0
LINE
8
BLACK
6
CONTINUOUS
10
138.293
20
-92.6798
11
138.285
21
-92.679
0
LINE
8
BLACK
6
CONTINUOUS
10
138.285
20
-92.679
11
138.277
21
-92.6766
0
LINE
8
BLACK
6
CONTINUOUS
10
138.277
20
-92.6766
11
138.27
21
-92.6727
0
LINE
8
BLACK
6
CONTINUOUS
10
138.27
20
-92.6727
11
138.264
21
-92.6675
0
LINE
8
BLACK
6
CONTINUOUS
10
138.264
20
-92.6675
11
138.258
21
-92.6611
0
LINE
8
BLACK
6
CONTINUOUS
10
138.258
20
-92.6611
11
138.254
21
-92.6539
0
LINE
8
BLACK
6
CONTINUOUS
10
138.254
20
-92.6539
11
138.252
21
-92.646
0
LINE
8
BLACK
6
CONTINUOUS
10
138.252
20
-92.646
11
138.251
21
-92.6378
0
LINE
8
BLACK
6
CONTINUOUS
10
138.251
20
-92.6378
11
138.251
21
-92.1218
0
LINE
8
BLACK
6
CONTINUOUS
10
138.251
20
-92.1218
11
138.252
21
-92.1136
0
LINE
8
BLACK
6
CONTINUOUS
10
138.252
20
-92.1136
11
138.254
21
-92.1057
0
LINE
8
BLACK
6
CONTINUOUS
10
138.254
20
-92.1057
11
138.258
21
-92.0985
0
LINE
8
BLACK
6
CONTINUOUS
10
138.258
20
-92.0985
11
138.264
21
-92.0921
0
LINE
8
BLACK
6
CONTINUOUS
10
138.264
20
-92.0921
11
138.27
21
-92.0869
0
LINE
8
BLACK
6
CONTINUOUS
10
138.27
20
-92.0869
11
138.277
21
-92.083
0
LINE
8
BLACK
6
CONTINUOUS
10
138.277
20
-92.083
11
138.285
21
-92.0806
0
LINE
8
BLACK
6
CONTINUOUS
10
138.285
20
-92.0806
11
138.293
21
-92.0798
0
LINE
8
BLACK
6
CONTINUOUS
10
138.293
20
-92.0798
11
140.179
21
-92.0798
0
LINE
8
BLACK
6
CONTINUOUS
10
140.179
20
-92.0798
11
140.187
21
-92.0806
0
LINE
8
BLACK
6
CONTINUOUS
10
145.814
20
-90.1682
11
145.86
21
-90.1824
0
LINE
8
BLACK
6
CONTINUOUS
10
145.86
20
-90.1824
11
145.904
21
-90.2055
0
LINE
8
BLACK
6
CONTINUOUS
10
145.904
20
-90.2055
11
145.942
21
-90.2366
0
LINE
8
BLACK
6
CONTINUOUS
10
145.942
20
-90.2366
11
145.973
21
-90.2745
0
LINE
8
BLACK
6
CONTINUOUS
10
145.973
20
-90.2745
11
145.996
21
-90.3177
0
LINE
8
BLACK
6
CONTINUOUS
10
145.996
20
-90.3177
11
146.01
21
-90.3646
0
LINE
8
BLACK
6
CONTINUOUS
10
146.01
20
-90.3646
11
146.015
21
-90.4134
0
LINE
8
BLACK
6
CONTINUOUS
10
146.015
20
-90.4134
11
146.015
21
-92.2634
0
LINE
8
BLACK
6
CONTINUOUS
10
146.015
20
-92.2634
11
146.01
21
-92.3122
0
LINE
8
BLACK
6
CONTINUOUS
10
146.01
20
-92.3122
11
145.996
21
-92.3591
0
LINE
8
BLACK
6
CONTINUOUS
10
145.996
20
-92.3591
11
145.973
21
-92.4023
0
LINE
8
BLACK
6
CONTINUOUS
10
145.973
20
-92.4023
11
145.942
21
-92.4402
0
LINE
8
BLACK
6
CONTINUOUS
10
145.942
20
-92.4402
11
145.904
21
-92.4713
0
LINE
8
BLACK
6
CONTINUOUS
10
145.904
20
-92.4713
11
145.86
21
-92.4944
0
LINE
8
BLACK
6
CONTINUOUS
10
145.86
20
-92.4944
11
145.814
21
-92.5086
0
LINE
8
BLACK
6
CONTINUOUS
10
145.814
20
-92.5086
11
145.765
21
-92.5134
0
LINE
8
BLACK
6
CONTINUOUS
10
145.765
20
-92.5134
11
144.94
21
-92.5134
0
LINE
8
BLACK
6
CONTINUOUS
10
144.94
20
-92.5134
11
144.891
21
-92.5086
0
LINE
8
BLACK
6
CONTINUOUS
10
144.891
20
-92.5086
11
144.844
21
-92.4944
0
LINE
8
BLACK
6
CONTINUOUS
10
144.844
20
-92.4944
11
144.801
21
-92.4713
0
LINE
8
BLACK
6
CONTINUOUS
10
144.801
20
-92.4713
11
144.763
21
-92.4402
0
LINE
8
BLACK
6
CONTINUOUS
10
144.763
20
-92.4402
11
144.732
21
-92.4023
0
LINE
8
BLACK
6
CONTINUOUS
10
144.732
20
-92.4023
11
144.709
21
-92.3591
0
LINE
8
BLACK
6
CONTINUOUS
10
144.709
20
-92.3591
11
144.695
21
-92.3122
0
LINE
8
BLACK
6
CONTINUOUS
10
144.695
20
-92.3122
11
144.69
21
-92.2634
0
LINE
8
BLACK
6
CONTINUOUS
10
144.69
20
-92.2634
11
144.69
21
-90.4134
0
LINE
8
BLACK
6
CONTINUOUS
10
144.69
20
-90.4134
11
144.695
21
-90.3646
0
LINE
8
BLACK
6
CONTINUOUS
10
144.695
20
-90.3646
11
144.709
21
-90.3177
0
LINE
8
BLACK
6
CONTINUOUS
10
144.709
20
-90.3177
11
144.732
21
-90.2745
0
LINE
8
BLACK
6
CONTINUOUS
10
144.732
20
-90.2745
11
144.763
21
-90.2366
0
LINE
8
BLACK
6
CONTINUOUS
10
144.763
20
-90.2366
11
144.801
21
-90.2055
0
LINE
8
BLACK
6
CONTINUOUS
10
144.801
20
-90.2055
11
144.844
21
-90.1824
0
LINE
8
BLACK
6
CONTINUOUS
10
144.844
20
-90.1824
11
144.891
21
-90.1682
0
LINE
8
BLACK
6
CONTINUOUS
10
144.891
20
-90.1682
11
144.94
21
-90.1634
0
LINE
8
BLACK
6
CONTINUOUS
10
144.94
20
-90.1634
11
145.765
21
-90.1634
0
LINE
8
BLACK
6
CONTINUOUS
10
145.765
20
-90.1634
11
145.814
21
-90.1682
0
LINE
8
BLACK
6
CONTINUOUS
10
142.739
20
-90.1682
11
142.785
21
-90.1824
0
LINE
8
BLACK
6
CONTINUOUS
10
142.785
20
-90.1824
11
142.829
21
-90.2055
0
LINE
8
BLACK
6
CONTINUOUS
10
142.829
20
-90.2055
11
142.867
21
-90.2366
0
LINE
8
BLACK
6
CONTINUOUS
10
142.867
20
-90.2366
11
142.898
21
-90.2745
0
LINE
8
BLACK
6
CONTINUOUS
10
142.898
20
-90.2745
11
142.921
21
-90.3177
0
LINE
8
BLACK
6
CONTINUOUS
10
142.921
20
-90.3177
11
142.935
21
-90.3646
0
LINE
8
BLACK
6
CONTINUOUS
10
142.935
20
-90.3646
11
142.94
21
-90.4134
0
LINE
8
BLACK
6
CONTINUOUS
10
142.94
20
-90.4134
11
142.94
21
-92.2634
0
LINE
8
BLACK
6
CONTINUOUS
10
142.94
20
-92.2634
11
142.935
21
-92.3122
0
LINE
8
BLACK
6
CONTINUOUS
10
142.935
20
-92.3122
11
142.921
21
-92.3591
0
LINE
8
BLACK
6
CONTINUOUS
10
142.921
20
-92.3591
11
142.898
21
-92.4023
0
LINE
8
BLACK
6
CONTINUOUS
10
142.898
20
-92.4023
11
142.867
21
-92.4402
0
LINE
8
BLACK
6
CONTINUOUS
10
142.867
20
-92.4402
11
142.829
21
-92.4713
0
LINE
8
BLACK
6
CONTINUOUS
10
142.829
20
-92.4713
11
142.785
21
-92.4944
0
LINE
8
BLACK
6
CONTINUOUS
10
142.785
20
-92.4944
11
142.739
21
-92.5086
0
LINE
8
BLACK
6
CONTINUOUS
10
142.739
20
-92.5086
11
142.69
21
-92.5134
0
LINE
8
BLACK
6
CONTINUOUS
10
142.69
20
-92.5134
11
141.865
21
-92.5134
0
LINE
8
BLACK
6
CONTINUOUS
10
141.865
20
-92.5134
11
141.816
21
-92.5086
0
LINE
8
BLACK
6
CONTINUOUS
10
141.816
20
-92.5086
11
141.769
21
-92.4944
0
LINE
8
BLACK
6
CONTINUOUS
10
141.769
20
-92.4944
11
141.726
21
-92.4713
0
LINE
8
BLACK
6
CONTINUOUS
10
141.726
20
-92.4713
11
141.688
21
-92.4402
0
LINE
8
BLACK
6
CONTINUOUS
10
141.688
20
-92.4402
11
141.657
21
-92.4023
0
LINE
8
BLACK
6
CONTINUOUS
10
141.657
20
-92.4023
11
141.634
21
-92.3591
0
LINE
8
BLACK
6
CONTINUOUS
10
141.634
20
-92.3591
11
141.62
21
-92.3122
0
LINE
8
BLACK
6
CONTINUOUS
10
141.62
20
-92.3122
11
141.615
21
-92.2634
0
LINE
8
BLACK
6
CONTINUOUS
10
141.615
20
-92.2634
11
141.615
21
-90.4134
0
LINE
8
BLACK
6
CONTINUOUS
10
141.615
20
-90.4134
11
141.62
21
-90.3646
0
LINE
8
BLACK
6
CONTINUOUS
10
141.62
20
-90.3646
11
141.634
21
-90.3177
0
LINE
8
BLACK
6
CONTINUOUS
10
141.634
20
-90.3177
11
141.657
21
-90.2745
0
LINE
8
BLACK
6
CONTINUOUS
10
141.657
20
-90.2745
11
141.688
21
-90.2366
0
LINE
8
BLACK
6
CONTINUOUS
10
141.688
20
-90.2366
11
141.726
21
-90.2055
0
LINE
8
BLACK
6
CONTINUOUS
10
141.726
20
-90.2055
11
141.769
21
-90.1824
0
LINE
8
BLACK
6
CONTINUOUS
10
141.769
20
-90.1824
11
141.816
21
-90.1682
0
LINE
8
BLACK
6
CONTINUOUS
10
141.816
20
-90.1682
11
141.865
21
-90.1634
0
LINE
8
BLACK
6
CONTINUOUS
10
141.865
20
-90.1634
11
142.69
21
-90.1634
0
LINE
8
BLACK
6
CONTINUOUS
10
142.69
20
-90.1634
11
142.739
21
-90.1682
0
LINE
8
BLACK
6
CONTINUOUS
10
126.649
20
-90.2798
11
126.696
21
-90.294
0
LINE
8
BLACK
6
CONTINUOUS
10
126.696
20
-90.294
11
126.739
21
-90.3171
0
LINE
8
BLACK
6
CONTINUOUS
10
126.739
20
-90.3171
11
126.777
21
-90.3482
0
LINE
8
BLACK
6
CONTINUOUS
10
126.777
20
-90.3482
11
126.808
21
-90.3861
0
LINE
8
BLACK
6
CONTINUOUS
10
126.808
20
-90.3861
11
126.831
21
-90.4293
0
LINE
8
BLACK
6
CONTINUOUS
10
126.831
20
-90.4293
11
126.845
21
-90.4762
0
LINE
8
BLACK
6
CONTINUOUS
10
126.845
20
-90.4762
11
126.85
21
-90.525
0
LINE
8
BLACK
6
CONTINUOUS
10
126.85
20
-90.525
11
126.85
21
-91.425
0
LINE
8
BLACK
6
CONTINUOUS
10
126.85
20
-91.425
11
126.845
21
-91.4738
0
LINE
8
BLACK
6
CONTINUOUS
10
126.845
20
-91.4738
11
126.831
21
-91.5207
0
LINE
8
BLACK
6
CONTINUOUS
10
126.831
20
-91.5207
11
126.808
21
-91.5639
0
LINE
8
BLACK
6
CONTINUOUS
10
126.808
20
-91.5639
11
126.777
21
-91.6018
0
LINE
8
BLACK
6
CONTINUOUS
10
126.777
20
-91.6018
11
126.739
21
-91.6329
0
LINE
8
BLACK
6
CONTINUOUS
10
126.739
20
-91.6329
11
126.696
21
-91.656
0
LINE
8
BLACK
6
CONTINUOUS
10
126.696
20
-91.656
11
126.649
21
-91.6702
0
LINE
8
BLACK
6
CONTINUOUS
10
126.649
20
-91.6702
11
126.6
21
-91.675
0
LINE
8
BLACK
6
CONTINUOUS
10
126.6
20
-91.675
11
126.075
21
-91.675
0
LINE
8
BLACK
6
CONTINUOUS
10
126.075
20
-91.675
11
126.026
21
-91.6702
0
LINE
8
BLACK
6
CONTINUOUS
10
126.026
20
-91.6702
11
125.979
21
-91.656
0
LINE
8
BLACK
6
CONTINUOUS
10
125.979
20
-91.656
11
125.936
21
-91.6329
0
LINE
8
BLACK
6
CONTINUOUS
10
125.936
20
-91.6329
11
125.898
21
-91.6018
0
LINE
8
BLACK
6
CONTINUOUS
10
125.898
20
-91.6018
11
125.867
21
-91.5639
0
LINE
8
BLACK
6
CONTINUOUS
10
125.867
20
-91.5639
11
125.844
21
-91.5207
0
LINE
8
BLACK
6
CONTINUOUS
10
125.844
20
-91.5207
11
125.83
21
-91.4738
0
LINE
8
BLACK
6
CONTINUOUS
10
125.83
20
-91.4738
11
125.825
21
-91.425
0
LINE
8
BLACK
6
CONTINUOUS
10
125.825
20
-91.425
11
125.825
21
-90.525
0
LINE
8
BLACK
6
CONTINUOUS
10
125.825
20
-90.525
11
125.83
21
-90.4762
0
LINE
8
BLACK
6
CONTINUOUS
10
125.83
20
-90.4762
11
125.844
21
-90.4293
0
LINE
8
BLACK
6
CONTINUOUS
10
125.844
20
-90.4293
11
125.867
21
-90.3861
0
LINE
8
BLACK
6
CONTINUOUS
10
125.867
20
-90.3861
11
125.898
21
-90.3482
0
LINE
8
BLACK
6
CONTINUOUS
10
125.898
20
-90.3482
11
125.936
21
-90.3171
0
LINE
8
BLACK
6
CONTINUOUS
10
125.936
20
-90.3171
11
125.979
21
-90.294
0
LINE
8
BLACK
6
CONTINUOUS
10
125.979
20
-90.294
11
126.026
21
-90.2798
0
LINE
8
BLACK
6
CONTINUOUS
10
126.026
20
-90.2798
11
126.075
21
-90.275
0
LINE
8
BLACK
6
CONTINUOUS
10
126.075
20
-90.275
11
126.6
21
-90.275
0
LINE
8
BLACK
6
CONTINUOUS
10
126.6
20
-90.275
11
126.649
21
-90.2798
0
LINE
8
BLACK
6
CONTINUOUS
10
124.824
20
-90.2798
11
124.871
21
-90.294
0
LINE
8
BLACK
6
CONTINUOUS
10
124.871
20
-90.294
11
124.914
21
-90.3171
0
LINE
8
BLACK
6
CONTINUOUS
10
124.914
20
-90.3171
11
124.952
21
-90.3482
0
LINE
8
BLACK
6
CONTINUOUS
10
124.952
20
-90.3482
11
124.983
21
-90.3861
0
LINE
8
BLACK
6
CONTINUOUS
10
124.983
20
-90.3861
11
125.006
21
-90.4293
0
LINE
8
BLACK
6
CONTINUOUS
10
125.006
20
-90.4293
11
125.02
21
-90.4762
0
LINE
8
BLACK
6
CONTINUOUS
10
125.02
20
-90.4762
11
125.025
21
-90.525
0
LINE
8
BLACK
6
CONTINUOUS
10
125.025
20
-90.525
11
125.025
21
-91.425
0
LINE
8
BLACK
6
CONTINUOUS
10
125.025
20
-91.425
11
125.02
21
-91.4738
0
LINE
8
BLACK
6
CONTINUOUS
10
125.02
20
-91.4738
11
125.006
21
-91.5207
0
LINE
8
BLACK
6
CONTINUOUS
10
125.006
20
-91.5207
11
124.983
21
-91.5639
0
LINE
8
BLACK
6
CONTINUOUS
10
124.983
20
-91.5639
11
124.952
21
-91.6018
0
LINE
8
BLACK
6
CONTINUOUS
10
124.952
20
-91.6018
11
124.914
21
-91.6329
0
LINE
8
BLACK
6
CONTINUOUS
10
124.914
20
-91.6329
11
124.871
21
-91.656
0
LINE
8
BLACK
6
CONTINUOUS
10
124.871
20
-91.656
11
124.824
21
-91.6702
0
LINE
8
BLACK
6
CONTINUOUS
10
124.824
20
-91.6702
11
124.775
21
-91.675
0
LINE
8
BLACK
6
CONTINUOUS
10
124.775
20
-91.675
11
124.25
21
-91.675
0
LINE
8
BLACK
6
CONTINUOUS
10
124.25
20
-91.675
11
124.201
21
-91.6702
0
LINE
8
BLACK
6
CONTINUOUS
10
124.201
20
-91.6702
11
124.154
21
-91.656
0
LINE
8
BLACK
6
CONTINUOUS
10
124.154
20
-91.656
11
124.111
21
-91.6329
0
LINE
8
BLACK
6
CONTINUOUS
10
124.111
20
-91.6329
11
124.073
21
-91.6018
0
LINE
8
BLACK
6
CONTINUOUS
10
124.073
20
-91.6018
11
124.042
21
-91.5639
0
LINE
8
BLACK
6
CONTINUOUS
10
124.042
20
-91.5639
11
124.019
21
-91.5207
0
LINE
8
BLACK
6
CONTINUOUS
10
124.019
20
-91.5207
11
124.005
21
-91.4738
0
LINE
8
BLACK
6
CONTINUOUS
10
124.005
20
-91.4738
11
124
21
-91.425
0
LINE
8
BLACK
6
CONTINUOUS
10
124
20
-91.425
11
124
21
-90.525
0
LINE
8
BLACK
6
CONTINUOUS
10
124
20
-90.525
11
124.005
21
-90.4762
0
LINE
8
BLACK
6
CONTINUOUS
10
124.005
20
-90.4762
11
124.019
21
-90.4293
0
LINE
8
BLACK
6
CONTINUOUS
10
124.019
20
-90.4293
11
124.042
21
-90.3861
0
LINE
8
BLACK
6
CONTINUOUS
10
124.042
20
-90.3861
11
124.073
21
-90.3482
0
LINE
8
BLACK
6
CONTINUOUS
10
124.073
20
-90.3482
11
124.111
21
-90.3171
0
LINE
8
BLACK
6
CONTINUOUS
10
124.111
20
-90.3171
11
124.154
21
-90.294
0
LINE
8
BLACK
6
CONTINUOUS
10
124.154
20
-90.294
11
124.201
21
-90.2798
0
LINE
8
BLACK
6
CONTINUOUS
10
124.201
20
-90.2798
11
124.25
21
-90.275
0
LINE
8
BLACK
6
CONTINUOUS
10
124.25
20
-90.275
11
124.775
21
-90.275
0
LINE
8
BLACK
6
CONTINUOUS
10
124.775
20
-90.275
11
124.824
21
-90.2798
0
LINE
8
BLACK
6
CONTINUOUS
10
118.894
20
-90.5293
11
118.936
21
-90.5421
0
LINE
8
BLACK
6
CONTINUOUS
10
118.936
20
-90.5421
11
118.975
21
-90.5629
0
LINE
8
BLACK
6
CONTINUOUS
10
118.975
20
-90.5629
11
119.009
21
-90.5909
0
LINE
8
BLACK
6
CONTINUOUS
10
119.009
20
-90.5909
11
119.037
21
-90.625
0
LINE
8
BLACK
6
CONTINUOUS
10
119.037
20
-90.625
11
119.058
21
-90.6639
0
LINE
8
BLACK
6
CONTINUOUS
10
119.058
20
-90.6639
11
119.071
21
-90.7061
0
LINE
8
BLACK
6
CONTINUOUS
10
119.071
20
-90.7061
11
119.075
21
-90.75
0
LINE
8
BLACK
6
CONTINUOUS
10
119.075
20
-90.75
11
119.075
21
-91.25
0
LINE
8
BLACK
6
CONTINUOUS
10
119.075
20
-91.25
11
119.071
21
-91.2939
0
LINE
8
BLACK
6
CONTINUOUS
10
119.071
20
-91.2939
11
119.058
21
-91.3361
0
LINE
8
BLACK
6
CONTINUOUS
10
119.058
20
-91.3361
11
119.037
21
-91.375
0
LINE
8
BLACK
6
CONTINUOUS
10
119.037
20
-91.375
11
119.009
21
-91.4091
0
LINE
8
BLACK
6
CONTINUOUS
10
119.009
20
-91.4091
11
118.975
21
-91.4371
0
LINE
8
BLACK
6
CONTINUOUS
10
118.975
20
-91.4371
11
118.936
21
-91.4579
0
LINE
8
BLACK
6
CONTINUOUS
10
118.936
20
-91.4579
11
118.894
21
-91.4707
0
LINE
8
BLACK
6
CONTINUOUS
10
118.894
20
-91.4707
11
118.85
21
-91.475
0
LINE
8
BLACK
6
CONTINUOUS
10
118.85
20
-91.475
11
118.4
21
-91.475
0
LINE
8
BLACK
6
CONTINUOUS
10
118.4
20
-91.475
11
118.356
21
-91.4707
0
LINE
8
BLACK
6
CONTINUOUS
10
118.356
20
-91.4707
11
118.314
21
-91.4579
0
LINE
8
BLACK
6
CONTINUOUS
10
118.314
20
-91.4579
11
118.275
21
-91.4371
0
LINE
8
BLACK
6
CONTINUOUS
10
118.275
20
-91.4371
11
118.241
21
-91.4091
0
LINE
8
BLACK
6
CONTINUOUS
10
118.241
20
-91.4091
11
118.213
21
-91.375
0
LINE
8
BLACK
6
CONTINUOUS
10
118.213
20
-91.375
11
118.192
21
-91.3361
0
LINE
8
BLACK
6
CONTINUOUS
10
118.192
20
-91.3361
11
118.179
21
-91.2939
0
LINE
8
BLACK
6
CONTINUOUS
10
118.179
20
-91.2939
11
118.175
21
-91.25
0
LINE
8
BLACK
6
CONTINUOUS
10
118.175
20
-91.25
11
118.175
21
-90.75
0
LINE
8
BLACK
6
CONTINUOUS
10
118.175
20
-90.75
11
118.179
21
-90.7061
0
LINE
8
BLACK
6
CONTINUOUS
10
118.179
20
-90.7061
11
118.192
21
-90.6639
0
LINE
8
BLACK
6
CONTINUOUS
10
118.192
20
-90.6639
11
118.213
21
-90.625
0
LINE
8
BLACK
6
CONTINUOUS
10
118.213
20
-90.625
11
118.241
21
-90.5909
0
LINE
8
BLACK
6
CONTINUOUS
10
118.241
20
-90.5909
11
118.275
21
-90.5629
0
LINE
8
BLACK
6
CONTINUOUS
10
118.275
20
-90.5629
11
118.314
21
-90.5421
0
LINE
8
BLACK
6
CONTINUOUS
10
118.314
20
-90.5421
11
118.356
21
-90.5293
0
LINE
8
BLACK
6
CONTINUOUS
10
118.356
20
-90.5293
11
118.4
21
-90.525
0
LINE
8
BLACK
6
CONTINUOUS
10
118.4
20
-90.525
11
118.85
21
-90.525
0
LINE
8
BLACK
6
CONTINUOUS
10
118.85
20
-90.525
11
118.894
21
-90.5293
0
LINE
8
BLACK
6
CONTINUOUS
10
120.444
20
-90.5293
11
120.486
21
-90.5421
0
LINE
8
BLACK
6
CONTINUOUS
10
120.486
20
-90.5421
11
120.525
21
-90.5629
0
LINE
8
BLACK
6
CONTINUOUS
10
120.525
20
-90.5629
11
120.559
21
-90.5909
0
LINE
8
BLACK
6
CONTINUOUS
10
120.559
20
-90.5909
11
120.587
21
-90.625
0
LINE
8
BLACK
6
CONTINUOUS
10
120.587
20
-90.625
11
120.608
21
-90.6639
0
LINE
8
BLACK
6
CONTINUOUS
10
120.608
20
-90.6639
11
120.621
21
-90.7061
0
LINE
8
BLACK
6
CONTINUOUS
10
120.621
20
-90.7061
11
120.625
21
-90.75
0
LINE
8
BLACK
6
CONTINUOUS
10
120.625
20
-90.75
11
120.625
21
-91.25
0
LINE
8
BLACK
6
CONTINUOUS
10
120.625
20
-91.25
11
120.621
21
-91.2939
0
LINE
8
BLACK
6
CONTINUOUS
10
120.621
20
-91.2939
11
120.608
21
-91.3361
0
LINE
8
BLACK
6
CONTINUOUS
10
120.608
20
-91.3361
11
120.587
21
-91.375
0
LINE
8
BLACK
6
CONTINUOUS
10
120.587
20
-91.375
11
120.559
21
-91.4091
0
LINE
8
BLACK
6
CONTINUOUS
10
120.559
20
-91.4091
11
120.525
21
-91.4371
0
LINE
8
BLACK
6
CONTINUOUS
10
120.525
20
-91.4371
11
120.486
21
-91.4579
0
LINE
8
BLACK
6
CONTINUOUS
10
120.486
20
-91.4579
11
120.444
21
-91.4707
0
LINE
8
BLACK
6
CONTINUOUS
10
120.444
20
-91.4707
11
120.4
21
-91.475
0
LINE
8
BLACK
6
CONTINUOUS
10
120.4
20
-91.475
11
119.95
21
-91.475
0
LINE
8
BLACK
6
CONTINUOUS
10
119.95
20
-91.475
11
119.906
21
-91.4707
0
LINE
8
BLACK
6
CONTINUOUS
10
119.906
20
-91.4707
11
119.864
21
-91.4579
0
LINE
8
BLACK
6
CONTINUOUS
10
119.864
20
-91.4579
11
119.825
21
-91.4371
0
LINE
8
BLACK
6
CONTINUOUS
10
119.825
20
-91.4371
11
119.791
21
-91.4091
0
LINE
8
BLACK
6
CONTINUOUS
10
119.791
20
-91.4091
11
119.763
21
-91.375
0
LINE
8
BLACK
6
CONTINUOUS
10
119.763
20
-91.375
11
119.742
21
-91.3361
0
LINE
8
BLACK
6
CONTINUOUS
10
119.742
20
-91.3361
11
119.729
21
-91.2939
0
LINE
8
BLACK
6
CONTINUOUS
10
119.729
20
-91.2939
11
119.725
21
-91.25
0
LINE
8
BLACK
6
CONTINUOUS
10
119.725
20
-91.25
11
119.725
21
-90.75
0
LINE
8
BLACK
6
CONTINUOUS
10
119.725
20
-90.75
11
119.729
21
-90.7061
0
LINE
8
BLACK
6
CONTINUOUS
10
119.729
20
-90.7061
11
119.742
21
-90.6639
0
LINE
8
BLACK
6
CONTINUOUS
10
119.742
20
-90.6639
11
119.763
21
-90.625
0
LINE
8
BLACK
6
CONTINUOUS
10
119.763
20
-90.625
11
119.791
21
-90.5909
0
LINE
8
BLACK
6
CONTINUOUS
10
119.791
20
-90.5909
11
119.825
21
-90.5629
0
LINE
8
BLACK
6
CONTINUOUS
10
119.825
20
-90.5629
11
119.864
21
-90.5421
0
LINE
8
BLACK
6
CONTINUOUS
10
119.864
20
-90.5421
11
119.906
21
-90.5293
0
LINE
8
BLACK
6
CONTINUOUS
10
119.906
20
-90.5293
11
119.95
21
-90.525
0
LINE
8
BLACK
6
CONTINUOUS
10
119.95
20
-90.525
11
120.4
21
-90.525
0
LINE
8
BLACK
6
CONTINUOUS
10
120.4
20
-90.525
11
120.444
21
-90.5293
0
LINE
8
BLACK
6
CONTINUOUS
10
135.247
20
-90.8106
11
135.255
21
-90.813
0
LINE
8
BLACK
6
CONTINUOUS
10
135.255
20
-90.813
11
135.263
21
-90.8169
0
LINE
8
BLACK
6
CONTINUOUS
10
135.263
20
-90.8169
11
135.269
21
-90.8221
0
LINE
8
BLACK
6
CONTINUOUS
10
135.269
20
-90.8221
11
135.274
21
-90.8285
0
LINE
8
BLACK
6
CONTINUOUS
10
135.274
20
-90.8285
11
135.278
21
-90.8357
0
LINE
8
BLACK
6
CONTINUOUS
10
135.278
20
-90.8357
11
135.28
21
-90.8436
0
LINE
8
BLACK
6
CONTINUOUS
10
135.28
20
-90.8436
11
135.281
21
-90.8518
0
LINE
8
BLACK
6
CONTINUOUS
10
135.281
20
-90.8518
11
135.281
21
-91.3678
0
LINE
8
BLACK
6
CONTINUOUS
10
135.281
20
-91.3678
11
135.28
21
-91.376
0
LINE
8
BLACK
6
CONTINUOUS
10
135.28
20
-91.376
11
135.278
21
-91.3839
0
LINE
8
BLACK
6
CONTINUOUS
10
135.278
20
-91.3839
11
135.274
21
-91.3911
0
LINE
8
BLACK
6
CONTINUOUS
10
135.274
20
-91.3911
11
135.269
21
-91.3975
0
LINE
8
BLACK
6
CONTINUOUS
10
135.269
20
-91.3975
11
135.263
21
-91.4027
0
LINE
8
BLACK
6
CONTINUOUS
10
135.263
20
-91.4027
11
135.255
21
-91.4066
0
LINE
8
BLACK
6
CONTINUOUS
10
135.255
20
-91.4066
11
135.247
21
-91.409
0
LINE
8
BLACK
6
CONTINUOUS
10
135.247
20
-91.409
11
135.239
21
-91.4098
0
LINE
8
BLACK
6
CONTINUOUS
10
135.239
20
-91.4098
11
133.353
21
-91.4098
0
LINE
8
BLACK
6
CONTINUOUS
10
133.353
20
-91.4098
11
133.345
21
-91.409
0
LINE
8
BLACK
6
CONTINUOUS
10
133.345
20
-91.409
11
133.337
21
-91.4066
0
LINE
8
BLACK
6
CONTINUOUS
10
133.337
20
-91.4066
11
133.33
21
-91.4027
0
LINE
8
BLACK
6
CONTINUOUS
10
133.33
20
-91.4027
11
133.324
21
-91.3975
0
LINE
8
BLACK
6
CONTINUOUS
10
133.324
20
-91.3975
11
133.318
21
-91.3911
0
LINE
8
BLACK
6
CONTINUOUS
10
133.318
20
-91.3911
11
133.314
21
-91.3839
0
LINE
8
BLACK
6
CONTINUOUS
10
133.314
20
-91.3839
11
133.312
21
-91.376
0
LINE
8
BLACK
6
CONTINUOUS
10
133.312
20
-91.376
11
133.311
21
-91.3678
0
LINE
8
BLACK
6
CONTINUOUS
10
133.311
20
-91.3678
11
133.311
21
-90.8518
0
LINE
8
BLACK
6
CONTINUOUS
10
133.311
20
-90.8518
11
133.312
21
-90.8436
0
LINE
8
BLACK
6
CONTINUOUS
10
133.312
20
-90.8436
11
133.314
21
-90.8357
0
LINE
8
BLACK
6
CONTINUOUS
10
133.314
20
-90.8357
11
133.318
21
-90.8285
0
LINE
8
BLACK
6
CONTINUOUS
10
133.318
20
-90.8285
11
133.324
21
-90.8221
0
LINE
8
BLACK
6
CONTINUOUS
10
133.324
20
-90.8221
11
133.33
21
-90.8169
0
LINE
8
BLACK
6
CONTINUOUS
10
133.33
20
-90.8169
11
133.337
21
-90.813
0
LINE
8
BLACK
6
CONTINUOUS
10
133.337
20
-90.813
11
133.345
21
-90.8106
0
LINE
8
BLACK
6
CONTINUOUS
10
133.345
20
-90.8106
11
133.353
21
-90.8098
0
LINE
8
BLACK
6
CONTINUOUS
10
133.353
20
-90.8098
11
135.239
21
-90.8098
0
LINE
8
BLACK
6
CONTINUOUS
10
135.239
20
-90.8098
11
135.247
21
-90.8106
0
LINE
8
BLACK
6
CONTINUOUS
10
140.187
20
-90.8106
11
140.195
21
-90.813
0
LINE
8
BLACK
6
CONTINUOUS
10
140.195
20
-90.813
11
140.203
21
-90.8169
0
LINE
8
BLACK
6
CONTINUOUS
10
140.203
20
-90.8169
11
140.209
21
-90.8221
0
LINE
8
BLACK
6
CONTINUOUS
10
140.209
20
-90.8221
11
140.214
21
-90.8285
0
LINE
8
BLACK
6
CONTINUOUS
10
140.214
20
-90.8285
11
140.218
21
-90.8357
0
LINE
8
BLACK
6
CONTINUOUS
10
140.218
20
-90.8357
11
140.22
21
-90.8436
0
LINE
8
BLACK
6
CONTINUOUS
10
140.22
20
-90.8436
11
140.221
21
-90.8518
0
LINE
8
BLACK
6
CONTINUOUS
10
140.221
20
-90.8518
11
140.221
21
-91.3678
0
LINE
8
BLACK
6
CONTINUOUS
10
140.221
20
-91.3678
11
140.22
21
-91.376
0
LINE
8
BLACK
6
CONTINUOUS
10
140.22
20
-91.376
11
140.218
21
-91.3839
0
LINE
8
BLACK
6
CONTINUOUS
10
140.218
20
-91.3839
11
140.214
21
-91.3911
0
LINE
8
BLACK
6
CONTINUOUS
10
140.214
20
-91.3911
11
140.209
21
-91.3975
0
LINE
8
BLACK
6
CONTINUOUS
10
140.209
20
-91.3975
11
140.203
21
-91.4027
0
LINE
8
BLACK
6
CONTINUOUS
10
140.203
20
-91.4027
11
140.195
21
-91.4066
0
LINE
8
BLACK
6
CONTINUOUS
10
140.195
20
-91.4066
11
140.187
21
-91.409
0
LINE
8
BLACK
6
CONTINUOUS
10
140.187
20
-91.409
11
140.179
21
-91.4098
0
LINE
8
BLACK
6
CONTINUOUS
10
140.179
20
-91.4098
11
138.293
21
-91.4098
0
LINE
8
BLACK
6
CONTINUOUS
10
138.293
20
-91.4098
11
138.285
21
-91.409
0
LINE
8
BLACK
6
CONTINUOUS
10
138.285
20
-91.409
11
138.277
21
-91.4066
0
LINE
8
BLACK
6
CONTINUOUS
10
138.277
20
-91.4066
11
138.27
21
-91.4027
0
LINE
8
BLACK
6
CONTINUOUS
10
138.27
20
-91.4027
11
138.264
21
-91.3975
0
LINE
8
BLACK
6
CONTINUOUS
10
138.264
20
-91.3975
11
138.258
21
-91.3911
0
LINE
8
BLACK
6
CONTINUOUS
10
138.258
20
-91.3911
11
138.254
21
-91.3839
0
LINE
8
BLACK
6
CONTINUOUS
10
138.254
20
-91.3839
11
138.252
21
-91.376
0
LINE
8
BLACK
6
CONTINUOUS
10
138.252
20
-91.376
11
138.251
21
-91.3678
0
LINE
8
BLACK
6
CONTINUOUS
10
138.251
20
-91.3678
11
138.251
21
-90.8518
0
LINE
8
BLACK
6
CONTINUOUS
10
138.251
20
-90.8518
11
138.252
21
-90.8436
0
LINE
8
BLACK
6
CONTINUOUS
10
138.252
20
-90.8436
11
138.254
21
-90.8357
0
LINE
8
BLACK
6
CONTINUOUS
10
138.254
20
-90.8357
11
138.258
21
-90.8285
0
LINE
8
BLACK
6
CONTINUOUS
10
138.258
20
-90.8285
11
138.264
21
-90.8221
0
LINE
8
BLACK
6
CONTINUOUS
10
138.264
20
-90.8221
11
138.27
21
-90.8169
0
LINE
8
BLACK
6
CONTINUOUS
10
138.27
20
-90.8169
11
138.277
21
-90.813
0
LINE
8
BLACK
6
CONTINUOUS
10
138.277
20
-90.813
11
138.285
21
-90.8106
0
LINE
8
BLACK
6
CONTINUOUS
10
138.285
20
-90.8106
11
138.293
21
-90.8098
0
LINE
8
BLACK
6
CONTINUOUS
10
138.293
20
-90.8098
11
140.179
21
-90.8098
0
LINE
8
BLACK
6
CONTINUOUS
10
140.179
20
-90.8098
11
140.187
21
-90.8106
0
LINE
8
BLACK
6
CONTINUOUS
10
135.247
20
-89.5406
11
135.255
21
-89.543
0
LINE
8
BLACK
6
CONTINUOUS
10
135.255
20
-89.543
11
135.263
21
-89.5469
0
LINE
8
BLACK
6
CONTINUOUS
10
135.263
20
-89.5469
11
135.269
21
-89.5521
0
LINE
8
BLACK
6
CONTINUOUS
10
135.269
20
-89.5521
11
135.274
21
-89.5585
0
LINE
8
BLACK
6
CONTINUOUS
10
135.274
20
-89.5585
11
135.278
21
-89.5657
0
LINE
8
BLACK
6
CONTINUOUS
10
135.278
20
-89.5657
11
135.28
21
-89.5736
0
LINE
8
BLACK
6
CONTINUOUS
10
135.28
20
-89.5736
11
135.281
21
-89.5818
0
LINE
8
BLACK
6
CONTINUOUS
10
135.281
20
-89.5818
11
135.281
21
-90.0978
0
LINE
8
BLACK
6
CONTINUOUS
10
135.281
20
-90.0978
11
135.28
21
-90.106
0
LINE
8
BLACK
6
CONTINUOUS
10
135.28
20
-90.106
11
135.278
21
-90.1139
0
LINE
8
BLACK
6
CONTINUOUS
10
135.278
20
-90.1139
11
135.274
21
-90.1211
0
LINE
8
BLACK
6
CONTINUOUS
10
135.274
20
-90.1211
11
135.269
21
-90.1275
0
LINE
8
BLACK
6
CONTINUOUS
10
135.269
20
-90.1275
11
135.263
21
-90.1327
0
LINE
8
BLACK
6
CONTINUOUS
10
135.263
20
-90.1327
11
135.255
21
-90.1366
0
LINE
8
BLACK
6
CONTINUOUS
10
135.255
20
-90.1366
11
135.247
21
-90.139
0
LINE
8
BLACK
6
CONTINUOUS
10
135.247
20
-90.139
11
135.239
21
-90.1398
0
LINE
8
BLACK
6
CONTINUOUS
10
135.239
20
-90.1398
11
133.353
21
-90.1398
0
LINE
8
BLACK
6
CONTINUOUS
10
133.353
20
-90.1398
11
133.345
21
-90.139
0
LINE
8
BLACK
6
CONTINUOUS
10
133.345
20
-90.139
11
133.337
21
-90.1366
0
LINE
8
BLACK
6
CONTINUOUS
10
133.337
20
-90.1366
11
133.33
21
-90.1327
0
LINE
8
BLACK
6
CONTINUOUS
10
133.33
20
-90.1327
11
133.324
21
-90.1275
0
LINE
8
BLACK
6
CONTINUOUS
10
133.324
20
-90.1275
11
133.318
21
-90.1211
0
LINE
8
BLACK
6
CONTINUOUS
10
133.318
20
-90.1211
11
133.314
21
-90.1139
0
LINE
8
BLACK
6
CONTINUOUS
10
133.314
20
-90.1139
11
133.312
21
-90.106
0
LINE
8
BLACK
6
CONTINUOUS
10
133.312
20
-90.106
11
133.311
21
-90.0978
0
LINE
8
BLACK
6
CONTINUOUS
10
133.311
20
-90.0978
11
133.311
21
-89.5818
0
LINE
8
BLACK
6
CONTINUOUS
10
133.311
20
-89.5818
11
133.312
21
-89.5736
0
LINE
8
BLACK
6
CONTINUOUS
10
133.312
20
-89.5736
11
133.314
21
-89.5657
0
LINE
8
BLACK
6
CONTINUOUS
10
133.314
20
-89.5657
11
133.318
21
-89.5585
0
LINE
8
BLACK
6
CONTINUOUS
10
133.318
20
-89.5585
11
133.324
21
-89.5521
0
LINE
8
BLACK
6
CONTINUOUS
10
133.324
20
-89.5521
11
133.33
21
-89.5469
0
LINE
8
BLACK
6
CONTINUOUS
10
133.33
20
-89.5469
11
133.337
21
-89.543
0
LINE
8
BLACK
6
CONTINUOUS
10
133.337
20
-89.543
11
133.345
21
-89.5406
0
LINE
8
BLACK
6
CONTINUOUS
10
133.345
20
-89.5406
11
133.353
21
-89.5398
0
LINE
8
BLACK
6
CONTINUOUS
10
133.353
20
-89.5398
11
135.239
21
-89.5398
0
LINE
8
BLACK
6
CONTINUOUS
10
135.239
20
-89.5398
11
135.247
21
-89.5406
0
LINE
8
BLACK
6
CONTINUOUS
10
140.187
20
-89.5406
11
140.195
21
-89.543
0
LINE
8
BLACK
6
CONTINUOUS
10
140.195
20
-89.543
11
140.203
21
-89.5469
0
LINE
8
BLACK
6
CONTINUOUS
10
140.203
20
-89.5469
11
140.209
21
-89.5521
0
LINE
8
BLACK
6
CONTINUOUS
10
140.209
20
-89.5521
11
140.214
21
-89.5585
0
LINE
8
BLACK
6
CONTINUOUS
10
140.214
20
-89.5585
11
140.218
21
-89.5657
0
LINE
8
BLACK
6
CONTINUOUS
10
140.218
20
-89.5657
11
140.22
21
-89.5736
0
LINE
8
BLACK
6
CONTINUOUS
10
140.22
20
-89.5736
11
140.221
21
-89.5818
0
LINE
8
BLACK
6
CONTINUOUS
10
140.221
20
-89.5818
11
140.221
21
-90.0978
0
LINE
8
BLACK
6
CONTINUOUS
10
140.221
20
-90.0978
11
140.22
21
-90.106
0
LINE
8
BLACK
6
CONTINUOUS
10
140.22
20
-90.106
11
140.218
21
-90.1139
0
LINE
8
BLACK
6
CONTINUOUS
10
140.218
20
-90.1139
11
140.214
21
-90.1211
0
LINE
8
BLACK
6
CONTINUOUS
10
140.214
20
-90.1211
11
140.209
21
-90.1275
0
LINE
8
BLACK
6
CONTINUOUS
10
140.209
20
-90.1275
11
140.203
21
-90.1327
0
LINE
8
BLACK
6
CONTINUOUS
10
140.203
20
-90.1327
11
140.195
21
-90.1366
0
LINE
8
BLACK
6
CONTINUOUS
10
140.195
20
-90.1366
11
140.187
21
-90.139
0
LINE
8
BLACK
6
CONTINUOUS
10
140.187
20
-90.139
11
140.179
21
-90.1398
0
LINE
8
BLACK
6
CONTINUOUS
10
140.179
20
-90.1398
11
138.293
21
-90.1398
0
LINE
8
BLACK
6
CONTINUOUS
10
138.293
20
-90.1398
11
138.285
21
-90.139
0
LINE
8
BLACK
6
CONTINUOUS
10
138.285
20
-90.139
11
138.277
21
-90.1366
0
LINE
8
BLACK
6
CONTINUOUS
10
138.277
20
-90.1366
11
138.27
21
-90.1327
0
LINE
8
BLACK
6
CONTINUOUS
10
138.27
20
-90.1327
11
138.264
21
-90.1275
0
LINE
8
BLACK
6
CONTINUOUS
10
138.264
20
-90.1275
11
138.258
21
-90.1211
0
LINE
8
BLACK
6
CONTINUOUS
10
138.258
20
-90.1211
11
138.254
21
-90.1139
0
LINE
8
BLACK
6
CONTINUOUS
10
138.254
20
-90.1139
11
138.252
21
-90.106
0
LINE
8
BLACK
6
CONTINUOUS
10
138.252
20
-90.106
11
138.251
21
-90.0978
0
LINE
8
BLACK
6
CONTINUOUS
10
138.251
20
-90.0978
11
138.251
21
-89.5818
0
LINE
8
BLACK
6
CONTINUOUS
10
138.251
20
-89.5818
11
138.252
21
-89.5736
0
LINE
8
BLACK
6
CONTINUOUS
10
138.252
20
-89.5736
11
138.254
21
-89.5657
0
LINE
8
BLACK
6
CONTINUOUS
10
138.254
20
-89.5657
11
138.258
21
-89.5585
0
LINE
8
BLACK
6
CONTINUOUS
10
138.258
20
-89.5585
11
138.264
21
-89.5521
0
LINE
8
BLACK
6
CONTINUOUS
10
138.264
20
-89.5521
11
138.27
21
-89.5469
0
LINE
8
BLACK
6
CONTINUOUS
10
138.27
20
-89.5469
11
138.277
21
-89.543
0
LINE
8
BLACK
6
CONTINUOUS
10
138.277
20
-89.543
11
138.285
21
-89.5406
0
LINE
8
BLACK
6
CONTINUOUS
10
138.285
20
-89.5406
11
138.293
21
-89.5398
0
LINE
8
BLACK
6
CONTINUOUS
10
138.293
20
-89.5398
11
140.179
21
-89.5398
0
LINE
8
BLACK
6
CONTINUOUS
10
140.179
20
-89.5398
11
140.187
21
-89.5406
0
LINE
8
BLACK
6
CONTINUOUS
10
121.376
20
-89.6193
11
120.826
21
-89.6193
0
LINE
8
BLACK
6
CONTINUOUS
10
120.826
20
-89.6193
11
120.826
21
-88.0193
0
LINE
8
BLACK
6
CONTINUOUS
10
120.826
20
-88.0193
11
121.376
21
-88.0193
0
LINE
8
BLACK
6
CONTINUOUS
10
121.376
20
-88.0193
11
121.376
21
-89.6193
0
LINE
8
BLACK
6
CONTINUOUS
10
122.976
20
-89.6193
11
122.426
21
-89.6193
0
LINE
8
BLACK
6
CONTINUOUS
10
122.426
20
-89.6193
11
122.426
21
-88.0193
0
LINE
8
BLACK
6
CONTINUOUS
10
122.426
20
-88.0193
11
122.976
21
-88.0193
0
LINE
8
BLACK
6
CONTINUOUS
10
122.976
20
-88.0193
11
122.976
21
-89.6193
0
LINE
8
BLACK
6
CONTINUOUS
10
117.376
20
-89.6193
11
116.826
21
-89.6193
0
LINE
8
BLACK
6
CONTINUOUS
10
116.826
20
-89.6193
11
116.826
21
-88.0193
0
LINE
8
BLACK
6
CONTINUOUS
10
116.826
20
-88.0193
11
117.376
21
-88.0193
0
LINE
8
BLACK
6
CONTINUOUS
10
117.376
20
-88.0193
11
117.376
21
-89.6193
0
LINE
8
BLACK
6
CONTINUOUS
10
118.176
20
-89.6193
11
117.626
21
-89.6193
0
LINE
8
BLACK
6
CONTINUOUS
10
117.626
20
-89.6193
11
117.626
21
-88.0193
0
LINE
8
BLACK
6
CONTINUOUS
10
117.626
20
-88.0193
11
118.176
21
-88.0193
0
LINE
8
BLACK
6
CONTINUOUS
10
118.176
20
-88.0193
11
118.176
21
-89.6193
0
LINE
8
BLACK
6
CONTINUOUS
10
118.976
20
-89.6193
11
118.426
21
-89.6193
0
LINE
8
BLACK
6
CONTINUOUS
10
118.426
20
-89.6193
11
118.426
21
-88.0193
0
LINE
8
BLACK
6
CONTINUOUS
10
118.426
20
-88.0193
11
118.976
21
-88.0193
0
LINE
8
BLACK
6
CONTINUOUS
10
118.976
20
-88.0193
11
118.976
21
-89.6193
0
LINE
8
BLACK
6
CONTINUOUS
10
119.776
20
-89.6193
11
119.226
21
-89.6193
0
LINE
8
BLACK
6
CONTINUOUS
10
119.226
20
-89.6193
11
119.226
21
-88.0193
0
LINE
8
BLACK
6
CONTINUOUS
10
119.226
20
-88.0193
11
119.776
21
-88.0193
0
LINE
8
BLACK
6
CONTINUOUS
10
119.776
20
-88.0193
11
119.776
21
-89.6193
0
LINE
8
BLACK
6
CONTINUOUS
10
120.576
20
-89.6193
11
120.026
21
-89.6193
0
LINE
8
BLACK
6
CONTINUOUS
10
120.026
20
-89.6193
11
120.026
21
-88.0193
0
LINE
8
BLACK
6
CONTINUOUS
10
120.026
20
-88.0193
11
120.576
21
-88.0193
0
LINE
8
BLACK
6
CONTINUOUS
10
120.576
20
-88.0193
11
120.576
21
-89.6193
0
LINE
8
BLACK
6
CONTINUOUS
10
122.176
20
-89.6193
11
121.626
21
-89.6193
0
LINE
8
BLACK
6
CONTINUOUS
10
121.626
20
-89.6193
11
121.626
21
-88.0193
0
LINE
8
BLACK
6
CONTINUOUS
10
121.626
20
-88.0193
11
122.176
21
-88.0193
0
LINE
8
BLACK
6
CONTINUOUS
10
122.176
20
-88.0193
11
122.176
21
-89.6193
0
LINE
8
BLACK
6
CONTINUOUS
10
108.333
20
-88.3022
11
108.375
21
-88.315
0
LINE
8
BLACK
6
CONTINUOUS
10
108.375
20
-88.315
11
108.414
21
-88.3358
0
LINE
8
BLACK
6
CONTINUOUS
10
108.414
20
-88.3358
11
108.448
21
-88.3638
0
LINE
8
BLACK
6
CONTINUOUS
10
108.448
20
-88.3638
11
108.476
21
-88.3979
0
LINE
8
BLACK
6
CONTINUOUS
10
108.476
20
-88.3979
11
108.497
21
-88.4368
0
LINE
8
BLACK
6
CONTINUOUS
10
108.497
20
-88.4368
11
108.51
21
-88.479
0
LINE
8
BLACK
6
CONTINUOUS
10
108.51
20
-88.479
11
108.514
21
-88.5229
0
LINE
8
BLACK
6
CONTINUOUS
10
108.514
20
-88.5229
11
108.514
21
-88.9729
0
LINE
8
BLACK
6
CONTINUOUS
10
108.514
20
-88.9729
11
108.51
21
-89.0168
0
LINE
8
BLACK
6
CONTINUOUS
10
108.51
20
-89.0168
11
108.497
21
-89.059
0
LINE
8
BLACK
6
CONTINUOUS
10
108.497
20
-89.059
11
108.476
21
-89.0979
0
LINE
8
BLACK
6
CONTINUOUS
10
108.476
20
-89.0979
11
108.448
21
-89.132
0
LINE
8
BLACK
6
CONTINUOUS
10
108.448
20
-89.132
11
108.414
21
-89.16
0
LINE
8
BLACK
6
CONTINUOUS
10
108.414
20
-89.16
11
108.375
21
-89.1808
0
LINE
8
BLACK
6
CONTINUOUS
10
108.375
20
-89.1808
11
108.333
21
-89.1936
0
LINE
8
BLACK
6
CONTINUOUS
10
108.333
20
-89.1936
11
108.289
21
-89.1979
0
LINE
8
BLACK
6
CONTINUOUS
10
108.289
20
-89.1979
11
107.789
21
-89.1979
0
LINE
8
BLACK
6
CONTINUOUS
10
107.789
20
-89.1979
11
107.745
21
-89.1936
0
LINE
8
BLACK
6
CONTINUOUS
10
107.745
20
-89.1936
11
107.703
21
-89.1808
0
LINE
8
BLACK
6
CONTINUOUS
10
107.703
20
-89.1808
11
107.664
21
-89.16
0
LINE
8
BLACK
6
CONTINUOUS
10
107.664
20
-89.16
11
107.63
21
-89.132
0
LINE
8
BLACK
6
CONTINUOUS
10
107.63
20
-89.132
11
107.602
21
-89.0979
0
LINE
8
BLACK
6
CONTINUOUS
10
107.602
20
-89.0979
11
107.581
21
-89.059
0
LINE
8
BLACK
6
CONTINUOUS
10
107.581
20
-89.059
11
107.568
21
-89.0168
0
LINE
8
BLACK
6
CONTINUOUS
10
107.568
20
-89.0168
11
107.564
21
-88.9729
0
LINE
8
BLACK
6
CONTINUOUS
10
107.564
20
-88.9729
11
107.564
21
-88.5229
0
LINE
8
BLACK
6
CONTINUOUS
10
107.564
20
-88.5229
11
107.568
21
-88.479
0
LINE
8
BLACK
6
CONTINUOUS
10
107.568
20
-88.479
11
107.581
21
-88.4368
0
LINE
8
BLACK
6
CONTINUOUS
10
107.581
20
-88.4368
11
107.602
21
-88.3979
0
LINE
8
BLACK
6
CONTINUOUS
10
107.602
20
-88.3979
11
107.63
21
-88.3638
0
LINE
8
BLACK
6
CONTINUOUS
10
107.63
20
-88.3638
11
107.664
21
-88.3358
0
LINE
8
BLACK
6
CONTINUOUS
10
107.664
20
-88.3358
11
107.703
21
-88.315
0
LINE
8
BLACK
6
CONTINUOUS
10
107.703
20
-88.315
11
107.745
21
-88.3022
0
LINE
8
BLACK
6
CONTINUOUS
10
107.745
20
-88.3022
11
107.789
21
-88.2979
0
LINE
8
BLACK
6
CONTINUOUS
10
107.789
20
-88.2979
11
108.289
21
-88.2979
0
LINE
8
BLACK
6
CONTINUOUS
10
108.289
20
-88.2979
11
108.333
21
-88.3022
0
LINE
8
BLACK
6
CONTINUOUS
10
128.664
20
-87.9506
11
128.711
21
-87.9648
0
LINE
8
BLACK
6
CONTINUOUS
10
128.711
20
-87.9648
11
128.754
21
-87.9879
0
LINE
8
BLACK
6
CONTINUOUS
10
128.754
20
-87.9879
11
128.792
21
-88.019
0
LINE
8
BLACK
6
CONTINUOUS
10
128.792
20
-88.019
11
128.823
21
-88.0569
0
LINE
8
BLACK
6
CONTINUOUS
10
128.823
20
-88.0569
11
128.846
21
-88.1001
0
LINE
8
BLACK
6
CONTINUOUS
10
128.846
20
-88.1001
11
128.86
21
-88.147
0
LINE
8
BLACK
6
CONTINUOUS
10
128.86
20
-88.147
11
128.865
21
-88.1958
0
LINE
8
BLACK
6
CONTINUOUS
10
128.865
20
-88.1958
11
128.865
21
-88.8458
0
LINE
8
BLACK
6
CONTINUOUS
10
128.865
20
-88.8458
11
128.86
21
-88.8946
0
LINE
8
BLACK
6
CONTINUOUS
10
128.86
20
-88.8946
11
128.846
21
-88.9415
0
LINE
8
BLACK
6
CONTINUOUS
10
128.846
20
-88.9415
11
128.823
21
-88.9847
0
LINE
8
BLACK
6
CONTINUOUS
10
128.823
20
-88.9847
11
128.792
21
-89.0226
0
LINE
8
BLACK
6
CONTINUOUS
10
128.792
20
-89.0226
11
128.754
21
-89.0537
0
LINE
8
BLACK
6
CONTINUOUS
10
128.754
20
-89.0537
11
128.711
21
-89.0768
0
LINE
8
BLACK
6
CONTINUOUS
10
128.711
20
-89.0768
11
128.664
21
-89.091
0
LINE
8
BLACK
6
CONTINUOUS
10
128.664
20
-89.091
11
128.615
21
-89.0958
0
LINE
8
BLACK
6
CONTINUOUS
10
128.615
20
-89.0958
11
127.315
21
-89.0958
0
LINE
8
BLACK
6
CONTINUOUS
10
127.315
20
-89.0958
11
127.266
21
-89.091
0
LINE
8
BLACK
6
CONTINUOUS
10
127.266
20
-89.091
11
127.22
21
-89.0768
0
LINE
8
BLACK
6
CONTINUOUS
10
127.22
20
-89.0768
11
127.176
21
-89.0537
0
LINE
8
BLACK
6
CONTINUOUS
10
127.176
20
-89.0537
11
127.138
21
-89.0226
0
LINE
8
BLACK
6
CONTINUOUS
10
127.138
20
-89.0226
11
127.107
21
-88.9847
0
LINE
8
BLACK
6
CONTINUOUS
10
127.107
20
-88.9847
11
127.084
21
-88.9415
0
LINE
8
BLACK
6
CONTINUOUS
10
127.084
20
-88.9415
11
127.07
21
-88.8946
0
LINE
8
BLACK
6
CONTINUOUS
10
127.07
20
-88.8946
11
127.065
21
-88.8458
0
LINE
8
BLACK
6
CONTINUOUS
10
127.065
20
-88.8458
11
127.065
21
-88.1958
0
LINE
8
BLACK
6
CONTINUOUS
10
127.065
20
-88.1958
11
127.07
21
-88.147
0
LINE
8
BLACK
6
CONTINUOUS
10
127.07
20
-88.147
11
127.084
21
-88.1001
0
LINE
8
BLACK
6
CONTINUOUS
10
127.084
20
-88.1001
11
127.107
21
-88.0569
0
LINE
8
BLACK
6
CONTINUOUS
10
127.107
20
-88.0569
11
127.138
21
-88.019
0
LINE
8
BLACK
6
CONTINUOUS
10
127.138
20
-88.019
11
127.176
21
-87.9879
0
LINE
8
BLACK
6
CONTINUOUS
10
127.176
20
-87.9879
11
127.22
21
-87.9648
0
LINE
8
BLACK
6
CONTINUOUS
10
127.22
20
-87.9648
11
127.266
21
-87.9506
0
LINE
8
BLACK
6
CONTINUOUS
10
127.266
20
-87.9506
11
127.315
21
-87.9458
0
LINE
8
BLACK
6
CONTINUOUS
10
127.315
20
-87.9458
11
128.615
21
-87.9458
0
LINE
8
BLACK
6
CONTINUOUS
10
128.615
20
-87.9458
11
128.664
21
-87.9506
0
LINE
8
BLACK
6
CONTINUOUS
10
111.992
20
-88.955
11
110.792
21
-88.955
0
LINE
8
BLACK
6
CONTINUOUS
10
110.792
20
-88.955
11
110.792
21
-85.455
0
LINE
8
BLACK
6
CONTINUOUS
10
110.792
20
-85.455
11
111.992
21
-85.455
0
LINE
8
BLACK
6
CONTINUOUS
10
111.992
20
-85.455
11
111.992
21
-88.955
0
LINE
8
BLACK
6
CONTINUOUS
10
135.247
20
-88.2706
11
135.255
21
-88.273
0
LINE
8
BLACK
6
CONTINUOUS
10
135.255
20
-88.273
11
135.263
21
-88.2769
0
LINE
8
BLACK
6
CONTINUOUS
10
135.263
20
-88.2769
11
135.269
21
-88.2821
0
LINE
8
BLACK
6
CONTINUOUS
10
135.269
20
-88.2821
11
135.274
21
-88.2885
0
LINE
8
BLACK
6
CONTINUOUS
10
135.274
20
-88.2885
11
135.278
21
-88.2957
0
LINE
8
BLACK
6
CONTINUOUS
10
135.278
20
-88.2957
11
135.28
21
-88.3036
0
LINE
8
BLACK
6
CONTINUOUS
10
135.28
20
-88.3036
11
135.281
21
-88.3118
0
LINE
8
BLACK
6
CONTINUOUS
10
135.281
20
-88.3118
11
135.281
21
-88.8278
0
LINE
8
BLACK
6
CONTINUOUS
10
135.281
20
-88.8278
11
135.28
21
-88.836
0
LINE
8
BLACK
6
CONTINUOUS
10
135.28
20
-88.836
11
135.278
21
-88.8439
0
LINE
8
BLACK
6
CONTINUOUS
10
135.278
20
-88.8439
11
135.274
21
-88.8511
0
LINE
8
BLACK
6
CONTINUOUS
10
135.274
20
-88.8511
11
135.269
21
-88.8575
0
LINE
8
BLACK
6
CONTINUOUS
10
135.269
20
-88.8575
11
135.263
21
-88.8627
0
LINE
8
BLACK
6
CONTINUOUS
10
135.263
20
-88.8627
11
135.255
21
-88.8666
0
LINE
8
BLACK
6
CONTINUOUS
10
135.255
20
-88.8666
11
135.247
21
-88.869
0
LINE
8
BLACK
6
CONTINUOUS
10
135.247
20
-88.869
11
135.239
21
-88.8698
0
LINE
8
BLACK
6
CONTINUOUS
10
135.239
20
-88.8698
11
133.353
21
-88.8698
0
LINE
8
BLACK
6
CONTINUOUS
10
133.353
20
-88.8698
11
133.345
21
-88.869
0
LINE
8
BLACK
6
CONTINUOUS
10
133.345
20
-88.869
11
133.337
21
-88.8666
0
LINE
8
BLACK
6
CONTINUOUS
10
133.337
20
-88.8666
11
133.33
21
-88.8627
0
LINE
8
BLACK
6
CONTINUOUS
10
133.33
20
-88.8627
11
133.324
21
-88.8575
0
LINE
8
BLACK
6
CONTINUOUS
10
133.324
20
-88.8575
11
133.318
21
-88.8511
0
LINE
8
BLACK
6
CONTINUOUS
10
133.318
20
-88.8511
11
133.314
21
-88.8439
0
LINE
8
BLACK
6
CONTINUOUS
10
133.314
20
-88.8439
11
133.312
21
-88.836
0
LINE
8
BLACK
6
CONTINUOUS
10
133.312
20
-88.836
11
133.311
21
-88.8278
0
LINE
8
BLACK
6
CONTINUOUS
10
133.311
20
-88.8278
11
133.311
21
-88.3118
0
LINE
8
BLACK
6
CONTINUOUS
10
133.311
20
-88.3118
11
133.312
21
-88.3036
0
LINE
8
BLACK
6
CONTINUOUS
10
133.312
20
-88.3036
11
133.314
21
-88.2957
0
LINE
8
BLACK
6
CONTINUOUS
10
133.314
20
-88.2957
11
133.318
21
-88.2885
0
LINE
8
BLACK
6
CONTINUOUS
10
133.318
20
-88.2885
11
133.324
21
-88.2821
0
LINE
8
BLACK
6
CONTINUOUS
10
133.324
20
-88.2821
11
133.33
21
-88.2769
0
LINE
8
BLACK
6
CONTINUOUS
10
133.33
20
-88.2769
11
133.337
21
-88.273
0
LINE
8
BLACK
6
CONTINUOUS
10
133.337
20
-88.273
11
133.345
21
-88.2706
0
LINE
8
BLACK
6
CONTINUOUS
10
133.345
20
-88.2706
11
133.353
21
-88.2698
0
LINE
8
BLACK
6
CONTINUOUS
10
133.353
20
-88.2698
11
135.239
21
-88.2698
0
LINE
8
BLACK
6
CONTINUOUS
10
135.239
20
-88.2698
11
135.247
21
-88.2706
0
LINE
8
BLACK
6
CONTINUOUS
10
140.187
20
-88.2706
11
140.195
21
-88.273
0
LINE
8
BLACK
6
CONTINUOUS
10
140.195
20
-88.273
11
140.203
21
-88.2769
0
LINE
8
BLACK
6
CONTINUOUS
10
140.203
20
-88.2769
11
140.209
21
-88.2821
0
LINE
8
BLACK
6
CONTINUOUS
10
140.209
20
-88.2821
11
140.214
21
-88.2885
0
LINE
8
BLACK
6
CONTINUOUS
10
140.214
20
-88.2885
11
140.218
21
-88.2957
0
LINE
8
BLACK
6
CONTINUOUS
10
140.218
20
-88.2957
11
140.22
21
-88.3036
0
LINE
8
BLACK
6
CONTINUOUS
10
140.22
20
-88.3036
11
140.221
21
-88.3118
0
LINE
8
BLACK
6
CONTINUOUS
10
140.221
20
-88.3118
11
140.221
21
-88.8278
0
LINE
8
BLACK
6
CONTINUOUS
10
140.221
20
-88.8278
11
140.22
21
-88.836
0
LINE
8
BLACK
6
CONTINUOUS
10
140.22
20
-88.836
11
140.218
21
-88.8439
0
LINE
8
BLACK
6
CONTINUOUS
10
140.218
20
-88.8439
11
140.214
21
-88.8511
0
LINE
8
BLACK
6
CONTINUOUS
10
140.214
20
-88.8511
11
140.209
21
-88.8575
0
LINE
8
BLACK
6
CONTINUOUS
10
140.209
20
-88.8575
11
140.203
21
-88.8627
0
LINE
8
BLACK
6
CONTINUOUS
10
140.203
20
-88.8627
11
140.195
21
-88.8666
0
LINE
8
BLACK
6
CONTINUOUS
10
140.195
20
-88.8666
11
140.187
21
-88.869
0
LINE
8
BLACK
6
CONTINUOUS
10
140.187
20
-88.869
11
140.179
21
-88.8698
0
LINE
8
BLACK
6
CONTINUOUS
10
140.179
20
-88.8698
11
138.293
21
-88.8698
0
LINE
8
BLACK
6
CONTINUOUS
10
138.293
20
-88.8698
11
138.285
21
-88.869
0
LINE
8
BLACK
6
CONTINUOUS
10
138.285
20
-88.869
11
138.277
21
-88.8666
0
LINE
8
BLACK
6
CONTINUOUS
10
138.277
20
-88.8666
11
138.27
21
-88.8627
0
LINE
8
BLACK
6
CONTINUOUS
10
138.27
20
-88.8627
11
138.264
21
-88.8575
0
LINE
8
BLACK
6
CONTINUOUS
10
138.264
20
-88.8575
11
138.258
21
-88.8511
0
LINE
8
BLACK
6
CONTINUOUS
10
138.258
20
-88.8511
11
138.254
21
-88.8439
0
LINE
8
BLACK
6
CONTINUOUS
10
138.254
20
-88.8439
11
138.252
21
-88.836
0
LINE
8
BLACK
6
CONTINUOUS
10
138.252
20
-88.836
11
138.251
21
-88.8278
0
LINE
8
BLACK
6
CONTINUOUS
10
138.251
20
-88.8278
11
138.251
21
-88.3118
0
LINE
8
BLACK
6
CONTINUOUS
10
138.251
20
-88.3118
11
138.252
21
-88.3036
0
LINE
8
BLACK
6
CONTINUOUS
10
138.252
20
-88.3036
11
138.254
21
-88.2957
0
LINE
8
BLACK
6
CONTINUOUS
10
138.254
20
-88.2957
11
138.258
21
-88.2885
0
LINE
8
BLACK
6
CONTINUOUS
10
138.258
20
-88.2885
11
138.264
21
-88.2821
0
LINE
8
BLACK
6
CONTINUOUS
10
138.264
20
-88.2821
11
138.27
21
-88.2769
0
LINE
8
BLACK
6
CONTINUOUS
10
138.27
20
-88.2769
11
138.277
21
-88.273
0
LINE
8
BLACK
6
CONTINUOUS
10
138.277
20
-88.273
11
138.285
21
-88.2706
0
LINE
8
BLACK
6
CONTINUOUS
10
138.285
20
-88.2706
11
138.293
21
-88.2698
0
LINE
8
BLACK
6
CONTINUOUS
10
138.293
20
-88.2698
11
140.179
21
-88.2698
0
LINE
8
BLACK
6
CONTINUOUS
10
140.179
20
-88.2698
11
140.187
21
-88.2706
0
LINE
8
BLACK
6
CONTINUOUS
10
108.333
20
-86.7522
11
108.375
21
-86.765
0
LINE
8
BLACK
6
CONTINUOUS
10
108.375
20
-86.765
11
108.414
21
-86.7858
0
LINE
8
BLACK
6
CONTINUOUS
10
108.414
20
-86.7858
11
108.448
21
-86.8138
0
LINE
8
BLACK
6
CONTINUOUS
10
108.448
20
-86.8138
11
108.476
21
-86.8479
0
LINE
8
BLACK
6
CONTINUOUS
10
108.476
20
-86.8479
11
108.497
21
-86.8868
0
LINE
8
BLACK
6
CONTINUOUS
10
108.497
20
-86.8868
11
108.51
21
-86.929
0
LINE
8
BLACK
6
CONTINUOUS
10
108.51
20
-86.929
11
108.514
21
-86.9729
0
LINE
8
BLACK
6
CONTINUOUS
10
108.514
20
-86.9729
11
108.514
21
-87.4229
0
LINE
8
BLACK
6
CONTINUOUS
10
108.514
20
-87.4229
11
108.51
21
-87.4668
0
LINE
8
BLACK
6
CONTINUOUS
10
108.51
20
-87.4668
11
108.497
21
-87.509
0
LINE
8
BLACK
6
CONTINUOUS
10
108.497
20
-87.509
11
108.476
21
-87.5479
0
LINE
8
BLACK
6
CONTINUOUS
10
108.476
20
-87.5479
11
108.448
21
-87.582
0
LINE
8
BLACK
6
CONTINUOUS
10
108.448
20
-87.582
11
108.414
21
-87.61
0
LINE
8
BLACK
6
CONTINUOUS
10
108.414
20
-87.61
11
108.375
21
-87.6308
0
LINE
8
BLACK
6
CONTINUOUS
10
108.375
20
-87.6308
11
108.333
21
-87.6436
0
LINE
8
BLACK
6
CONTINUOUS
10
108.333
20
-87.6436
11
108.289
21
-87.6479
0
LINE
8
BLACK
6
CONTINUOUS
10
108.289
20
-87.6479
11
107.789
21
-87.6479
0
LINE
8
BLACK
6
CONTINUOUS
10
107.789
20
-87.6479
11
107.745
21
-87.6436
0
LINE
8
BLACK
6
CONTINUOUS
10
107.745
20
-87.6436
11
107.703
21
-87.6308
0
LINE
8
BLACK
6
CONTINUOUS
10
107.703
20
-87.6308
11
107.664
21
-87.61
0
LINE
8
BLACK
6
CONTINUOUS
10
107.664
20
-87.61
11
107.63
21
-87.582
0
LINE
8
BLACK
6
CONTINUOUS
10
107.63
20
-87.582
11
107.602
21
-87.5479
0
LINE
8
BLACK
6
CONTINUOUS
10
107.602
20
-87.5479
11
107.581
21
-87.509
0
LINE
8
BLACK
6
CONTINUOUS
10
107.581
20
-87.509
11
107.568
21
-87.4668
0
LINE
8
BLACK
6
CONTINUOUS
10
107.568
20
-87.4668
11
107.564
21
-87.4229
0
LINE
8
BLACK
6
CONTINUOUS
10
107.564
20
-87.4229
11
107.564
21
-86.9729
0
LINE
8
BLACK
6
CONTINUOUS
10
107.564
20
-86.9729
11
107.568
21
-86.929
0
LINE
8
BLACK
6
CONTINUOUS
10
107.568
20
-86.929
11
107.581
21
-86.8868
0
LINE
8
BLACK
6
CONTINUOUS
10
107.581
20
-86.8868
11
107.602
21
-86.8479
0
LINE
8
BLACK
6
CONTINUOUS
10
107.602
20
-86.8479
11
107.63
21
-86.8138
0
LINE
8
BLACK
6
CONTINUOUS
10
107.63
20
-86.8138
11
107.664
21
-86.7858
0
LINE
8
BLACK
6
CONTINUOUS
10
107.664
20
-86.7858
11
107.703
21
-86.765
0
LINE
8
BLACK
6
CONTINUOUS
10
107.703
20
-86.765
11
107.745
21
-86.7522
0
LINE
8
BLACK
6
CONTINUOUS
10
107.745
20
-86.7522
11
107.789
21
-86.7479
0
LINE
8
BLACK
6
CONTINUOUS
10
107.789
20
-86.7479
11
108.289
21
-86.7479
0
LINE
8
BLACK
6
CONTINUOUS
10
108.289
20
-86.7479
11
108.333
21
-86.7522
0
LINE
8
BLACK
6
CONTINUOUS
10
124.951
20
-87.6443
11
123.351
21
-87.6443
0
LINE
8
BLACK
6
CONTINUOUS
10
123.351
20
-87.6443
11
123.351
21
-87.0943
0
LINE
8
BLACK
6
CONTINUOUS
10
123.351
20
-87.0943
11
124.951
21
-87.0943
0
LINE
8
BLACK
6
CONTINUOUS
10
124.951
20
-87.0943
11
124.951
21
-87.6443
0
LINE
8
BLACK
6
CONTINUOUS
10
116.451
20
-87.6443
11
114.851
21
-87.6443
0
LINE
8
BLACK
6
CONTINUOUS
10
114.851
20
-87.6443
11
114.851
21
-87.0943
0
LINE
8
BLACK
6
CONTINUOUS
10
114.851
20
-87.0943
11
116.451
21
-87.0943
0
LINE
8
BLACK
6
CONTINUOUS
10
116.451
20
-87.0943
11
116.451
21
-87.6443
0
LINE
8
BLACK
6
CONTINUOUS
10
145.156
20
-85.6172
11
145.202
21
-85.6314
0
LINE
8
BLACK
6
CONTINUOUS
10
145.202
20
-85.6314
11
145.246
21
-85.6545
0
LINE
8
BLACK
6
CONTINUOUS
10
145.246
20
-85.6545
11
145.284
21
-85.6856
0
LINE
8
BLACK
6
CONTINUOUS
10
145.284
20
-85.6856
11
145.315
21
-85.7235
0
LINE
8
BLACK
6
CONTINUOUS
10
145.315
20
-85.7235
11
145.338
21
-85.7667
0
LINE
8
BLACK
6
CONTINUOUS
10
145.338
20
-85.7667
11
145.352
21
-85.8136
0
LINE
8
BLACK
6
CONTINUOUS
10
145.352
20
-85.8136
11
145.357
21
-85.8624
0
LINE
8
BLACK
6
CONTINUOUS
10
145.357
20
-85.8624
11
145.357
21
-87.1624
0
LINE
8
BLACK
6
CONTINUOUS
10
145.357
20
-87.1624
11
145.352
21
-87.2112
0
LINE
8
BLACK
6
CONTINUOUS
10
145.352
20
-87.2112
11
145.338
21
-87.2581
0
LINE
8
BLACK
6
CONTINUOUS
10
145.338
20
-87.2581
11
145.315
21
-87.3013
0
LINE
8
BLACK
6
CONTINUOUS
10
145.315
20
-87.3013
11
145.284
21
-87.3392
0
LINE
8
BLACK
6
CONTINUOUS
10
145.284
20
-87.3392
11
145.246
21
-87.3703
0
LINE
8
BLACK
6
CONTINUOUS
10
145.246
20
-87.3703
11
145.202
21
-87.3934
0
LINE
8
BLACK
6
CONTINUOUS
10
145.202
20
-87.3934
11
145.156
21
-87.4076
0
LINE
8
BLACK
6
CONTINUOUS
10
145.156
20
-87.4076
11
145.107
21
-87.4124
0
LINE
8
BLACK
6
CONTINUOUS
10
145.107
20
-87.4124
11
144.457
21
-87.4124
0
LINE
8
BLACK
6
CONTINUOUS
10
144.457
20
-87.4124
11
144.408
21
-87.4076
0
LINE
8
BLACK
6
CONTINUOUS
10
144.408
20
-87.4076
11
144.361
21
-87.3934
0
LINE
8
BLACK
6
CONTINUOUS
10
144.361
20
-87.3934
11
144.318
21
-87.3703
0
LINE
8
BLACK
6
CONTINUOUS
10
144.318
20
-87.3703
11
144.28
21
-87.3392
0
LINE
8
BLACK
6
CONTINUOUS
10
144.28
20
-87.3392
11
144.249
21
-87.3013
0
LINE
8
BLACK
6
CONTINUOUS
10
144.249
20
-87.3013
11
144.226
21
-87.2581
0
LINE
8
BLACK
6
CONTINUOUS
10
144.226
20
-87.2581
11
144.212
21
-87.2112
0
LINE
8
BLACK
6
CONTINUOUS
10
144.212
20
-87.2112
11
144.207
21
-87.1624
0
LINE
8
BLACK
6
CONTINUOUS
10
144.207
20
-87.1624
11
144.207
21
-85.8624
0
LINE
8
BLACK
6
CONTINUOUS
10
144.207
20
-85.8624
11
144.212
21
-85.8136
0
LINE
8
BLACK
6
CONTINUOUS
10
144.212
20
-85.8136
11
144.226
21
-85.7667
0
LINE
8
BLACK
6
CONTINUOUS
10
144.226
20
-85.7667
11
144.249
21
-85.7235
0
LINE
8
BLACK
6
CONTINUOUS
10
144.249
20
-85.7235
11
144.28
21
-85.6856
0
LINE
8
BLACK
6
CONTINUOUS
10
144.28
20
-85.6856
11
144.318
21
-85.6545
0
LINE
8
BLACK
6
CONTINUOUS
10
144.318
20
-85.6545
11
144.361
21
-85.6314
0
LINE
8
BLACK
6
CONTINUOUS
10
144.361
20
-85.6314
11
144.408
21
-85.6172
0
LINE
8
BLACK
6
CONTINUOUS
10
144.408
20
-85.6172
11
144.457
21
-85.6124
0
LINE
8
BLACK
6
CONTINUOUS
10
144.457
20
-85.6124
11
145.107
21
-85.6124
0
LINE
8
BLACK
6
CONTINUOUS
10
145.107
20
-85.6124
11
145.156
21
-85.6172
0
LINE
8
BLACK
6
CONTINUOUS
10
142.206
20
-85.6172
11
142.252
21
-85.6314
0
LINE
8
BLACK
6
CONTINUOUS
10
142.252
20
-85.6314
11
142.296
21
-85.6545
0
LINE
8
BLACK
6
CONTINUOUS
10
142.296
20
-85.6545
11
142.334
21
-85.6856
0
LINE
8
BLACK
6
CONTINUOUS
10
142.334
20
-85.6856
11
142.365
21
-85.7235
0
LINE
8
BLACK
6
CONTINUOUS
10
142.365
20
-85.7235
11
142.388
21
-85.7667
0
LINE
8
BLACK
6
CONTINUOUS
10
142.388
20
-85.7667
11
142.402
21
-85.8136
0
LINE
8
BLACK
6
CONTINUOUS
10
142.402
20
-85.8136
11
142.407
21
-85.8624
0
LINE
8
BLACK
6
CONTINUOUS
10
142.407
20
-85.8624
11
142.407
21
-87.1624
0
LINE
8
BLACK
6
CONTINUOUS
10
142.407
20
-87.1624
11
142.402
21
-87.2112
0
LINE
8
BLACK
6
CONTINUOUS
10
142.402
20
-87.2112
11
142.388
21
-87.2581
0
LINE
8
BLACK
6
CONTINUOUS
10
142.388
20
-87.2581
11
142.365
21
-87.3013
0
LINE
8
BLACK
6
CONTINUOUS
10
142.365
20
-87.3013
11
142.334
21
-87.3392
0
LINE
8
BLACK
6
CONTINUOUS
10
142.334
20
-87.3392
11
142.296
21
-87.3703
0
LINE
8
BLACK
6
CONTINUOUS
10
142.296
20
-87.3703
11
142.252
21
-87.3934
0
LINE
8
BLACK
6
CONTINUOUS
10
142.252
20
-87.3934
11
142.206
21
-87.4076
0
LINE
8
BLACK
6
CONTINUOUS
10
142.206
20
-87.4076
11
142.157
21
-87.4124
0
LINE
8
BLACK
6
CONTINUOUS
10
142.157
20
-87.4124
11
141.507
21
-87.4124
0
LINE
8
BLACK
6
CONTINUOUS
10
141.507
20
-87.4124
11
141.458
21
-87.4076
0
LINE
8
BLACK
6
CONTINUOUS
10
141.458
20
-87.4076
11
141.411
21
-87.3934
0
LINE
8
BLACK
6
CONTINUOUS
10
141.411
20
-87.3934
11
141.368
21
-87.3703
0
LINE
8
BLACK
6
CONTINUOUS
10
141.368
20
-87.3703
11
141.33
21
-87.3392
0
LINE
8
BLACK
6
CONTINUOUS
10
141.33
20
-87.3392
11
141.299
21
-87.3013
0
LINE
8
BLACK
6
CONTINUOUS
10
141.299
20
-87.3013
11
141.276
21
-87.2581
0
LINE
8
BLACK
6
CONTINUOUS
10
141.276
20
-87.2581
11
141.262
21
-87.2112
0
LINE
8
BLACK
6
CONTINUOUS
10
141.262
20
-87.2112
11
141.257
21
-87.1624
0
LINE
8
BLACK
6
CONTINUOUS
10
141.257
20
-87.1624
11
141.257
21
-85.8624
0
LINE
8
BLACK
6
CONTINUOUS
10
141.257
20
-85.8624
11
141.262
21
-85.8136
0
LINE
8
BLACK
6
CONTINUOUS
10
141.262
20
-85.8136
11
141.276
21
-85.7667
0
LINE
8
BLACK
6
CONTINUOUS
10
141.276
20
-85.7667
11
141.299
21
-85.7235
0
LINE
8
BLACK
6
CONTINUOUS
10
141.299
20
-85.7235
11
141.33
21
-85.6856
0
LINE
8
BLACK
6
CONTINUOUS
10
141.33
20
-85.6856
11
141.368
21
-85.6545
0
LINE
8
BLACK
6
CONTINUOUS
10
141.368
20
-85.6545
11
141.411
21
-85.6314
0
LINE
8
BLACK
6
CONTINUOUS
10
141.411
20
-85.6314
11
141.458
21
-85.6172
0
LINE
8
BLACK
6
CONTINUOUS
10
141.458
20
-85.6172
11
141.507
21
-85.6124
0
LINE
8
BLACK
6
CONTINUOUS
10
141.507
20
-85.6124
11
142.157
21
-85.6124
0
LINE
8
BLACK
6
CONTINUOUS
10
142.157
20
-85.6124
11
142.206
21
-85.6172
0
LINE
8
BLACK
6
CONTINUOUS
10
135.551
20
-85.2616
11
135.598
21
-85.2758
0
LINE
8
BLACK
6
CONTINUOUS
10
135.598
20
-85.2758
11
135.641
21
-85.2989
0
LINE
8
BLACK
6
CONTINUOUS
10
135.641
20
-85.2989
11
135.679
21
-85.33
0
LINE
8
BLACK
6
CONTINUOUS
10
135.679
20
-85.33
11
135.71
21
-85.3679
0
LINE
8
BLACK
6
CONTINUOUS
10
135.71
20
-85.3679
11
135.733
21
-85.4111
0
LINE
8
BLACK
6
CONTINUOUS
10
135.733
20
-85.4111
11
135.747
21
-85.458
0
LINE
8
BLACK
6
CONTINUOUS
10
135.747
20
-85.458
11
135.752
21
-85.5068
0
LINE
8
BLACK
6
CONTINUOUS
10
135.752
20
-85.5068
11
135.752
21
-86.8068
0
LINE
8
BLACK
6
CONTINUOUS
10
135.752
20
-86.8068
11
135.747
21
-86.8556
0
LINE
8
BLACK
6
CONTINUOUS
10
135.747
20
-86.8556
11
135.733
21
-86.9025
0
LINE
8
BLACK
6
CONTINUOUS
10
135.733
20
-86.9025
11
135.71
21
-86.9457
0
LINE
8
BLACK
6
CONTINUOUS
10
135.71
20
-86.9457
11
135.679
21
-86.9836
0
LINE
8
BLACK
6
CONTINUOUS
10
135.679
20
-86.9836
11
135.641
21
-87.0147
0
LINE
8
BLACK
6
CONTINUOUS
10
135.641
20
-87.0147
11
135.598
21
-87.0378
0
LINE
8
BLACK
6
CONTINUOUS
10
135.598
20
-87.0378
11
135.551
21
-87.052
0
LINE
8
BLACK
6
CONTINUOUS
10
135.551
20
-87.052
11
135.502
21
-87.0568
0
LINE
8
BLACK
6
CONTINUOUS
10
135.502
20
-87.0568
11
134.852
21
-87.0568
0
LINE
8
BLACK
6
CONTINUOUS
10
134.852
20
-87.0568
11
134.803
21
-87.052
0
LINE
8
BLACK
6
CONTINUOUS
10
134.803
20
-87.052
11
134.756
21
-87.0378
0
LINE
8
BLACK
6
CONTINUOUS
10
134.756
20
-87.0378
11
134.713
21
-87.0147
0
LINE
8
BLACK
6
CONTINUOUS
10
134.713
20
-87.0147
11
134.675
21
-86.9836
0
LINE
8
BLACK
6
CONTINUOUS
10
134.675
20
-86.9836
11
134.644
21
-86.9457
0
LINE
8
BLACK
6
CONTINUOUS
10
134.644
20
-86.9457
11
134.621
21
-86.9025
0
LINE
8
BLACK
6
CONTINUOUS
10
134.621
20
-86.9025
11
134.607
21
-86.8556
0
LINE
8
BLACK
6
CONTINUOUS
10
134.607
20
-86.8556
11
134.602
21
-86.8068
0
LINE
8
BLACK
6
CONTINUOUS
10
134.602
20
-86.8068
11
134.602
21
-85.5068
0
LINE
8
BLACK
6
CONTINUOUS
10
134.602
20
-85.5068
11
134.607
21
-85.458
0
LINE
8
BLACK
6
CONTINUOUS
10
134.607
20
-85.458
11
134.621
21
-85.4111
0
LINE
8
BLACK
6
CONTINUOUS
10
134.621
20
-85.4111
11
134.644
21
-85.3679
0
LINE
8
BLACK
6
CONTINUOUS
10
134.644
20
-85.3679
11
134.675
21
-85.33
0
LINE
8
BLACK
6
CONTINUOUS
10
134.675
20
-85.33
11
134.713
21
-85.2989
0
LINE
8
BLACK
6
CONTINUOUS
10
134.713
20
-85.2989
11
134.756
21
-85.2758
0
LINE
8
BLACK
6
CONTINUOUS
10
134.756
20
-85.2758
11
134.803
21
-85.2616
0
LINE
8
BLACK
6
CONTINUOUS
10
134.803
20
-85.2616
11
134.852
21
-85.2568
0
LINE
8
BLACK
6
CONTINUOUS
10
134.852
20
-85.2568
11
135.502
21
-85.2568
0
LINE
8
BLACK
6
CONTINUOUS
10
135.502
20
-85.2568
11
135.551
21
-85.2616
0
LINE
8
BLACK
6
CONTINUOUS
10
138.501
20
-85.2616
11
138.548
21
-85.2758
0
LINE
8
BLACK
6
CONTINUOUS
10
138.548
20
-85.2758
11
138.591
21
-85.2989
0
LINE
8
BLACK
6
CONTINUOUS
10
138.591
20
-85.2989
11
138.629
21
-85.33
0
LINE
8
BLACK
6
CONTINUOUS
10
138.629
20
-85.33
11
138.66
21
-85.3679
0
LINE
8
BLACK
6
CONTINUOUS
10
138.66
20
-85.3679
11
138.683
21
-85.4111
0
LINE
8
BLACK
6
CONTINUOUS
10
138.683
20
-85.4111
11
138.697
21
-85.458
0
LINE
8
BLACK
6
CONTINUOUS
10
138.697
20
-85.458
11
138.702
21
-85.5068
0
LINE
8
BLACK
6
CONTINUOUS
10
138.702
20
-85.5068
11
138.702
21
-86.8068
0
LINE
8
BLACK
6
CONTINUOUS
10
138.702
20
-86.8068
11
138.697
21
-86.8556
0
LINE
8
BLACK
6
CONTINUOUS
10
138.697
20
-86.8556
11
138.683
21
-86.9025
0
LINE
8
BLACK
6
CONTINUOUS
10
138.683
20
-86.9025
11
138.66
21
-86.9457
0
LINE
8
BLACK
6
CONTINUOUS
10
138.66
20
-86.9457
11
138.629
21
-86.9836
0
LINE
8
BLACK
6
CONTINUOUS
10
138.629
20
-86.9836
11
138.591
21
-87.0147
0
LINE
8
BLACK
6
CONTINUOUS
10
138.591
20
-87.0147
11
138.548
21
-87.0378
0
LINE
8
BLACK
6
CONTINUOUS
10
138.548
20
-87.0378
11
138.501
21
-87.052
0
LINE
8
BLACK
6
CONTINUOUS
10
138.501
20
-87.052
11
138.452
21
-87.0568
0
LINE
8
BLACK
6
CONTINUOUS
10
138.452
20
-87.0568
11
137.802
21
-87.0568
0
LINE
8
BLACK
6
CONTINUOUS
10
137.802
20
-87.0568
11
137.753
21
-87.052
0
LINE
8
BLACK
6
CONTINUOUS
10
137.753
20
-87.052
11
137.706
21
-87.0378
0
LINE
8
BLACK
6
CONTINUOUS
10
137.706
20
-87.0378
11
137.663
21
-87.0147
0
LINE
8
BLACK
6
CONTINUOUS
10
137.663
20
-87.0147
11
137.625
21
-86.9836
0
LINE
8
BLACK
6
CONTINUOUS
10
137.625
20
-86.9836
11
137.594
21
-86.9457
0
LINE
8
BLACK
6
CONTINUOUS
10
137.594
20
-86.9457
11
137.571
21
-86.9025
0
LINE
8
BLACK
6
CONTINUOUS
10
137.571
20
-86.9025
11
137.557
21
-86.8556
0
LINE
8
BLACK
6
CONTINUOUS
10
137.557
20
-86.8556
11
137.552
21
-86.8068
0
LINE
8
BLACK
6
CONTINUOUS
10
137.552
20
-86.8068
11
137.552
21
-85.5068
0
LINE
8
BLACK
6
CONTINUOUS
10
137.552
20
-85.5068
11
137.557
21
-85.458
0
LINE
8
BLACK
6
CONTINUOUS
10
137.557
20
-85.458
11
137.571
21
-85.4111
0
LINE
8
BLACK
6
CONTINUOUS
10
137.571
20
-85.4111
11
137.594
21
-85.3679
0
LINE
8
BLACK
6
CONTINUOUS
10
137.594
20
-85.3679
11
137.625
21
-85.33
0
LINE
8
BLACK
6
CONTINUOUS
10
137.625
20
-85.33
11
137.663
21
-85.2989
0
LINE
8
BLACK
6
CONTINUOUS
10
137.663
20
-85.2989
11
137.706
21
-85.2758
0
LINE
8
BLACK
6
CONTINUOUS
10
137.706
20
-85.2758
11
137.753
21
-85.2616
0
LINE
8
BLACK
6
CONTINUOUS
10
137.753
20
-85.2616
11
137.802
21
-85.2568
0
LINE
8
BLACK
6
CONTINUOUS
10
137.802
20
-85.2568
11
138.452
21
-85.2568
0
LINE
8
BLACK
6
CONTINUOUS
10
138.452
20
-85.2568
11
138.501
21
-85.2616
0
LINE
8
BLACK
6
CONTINUOUS
10
116.451
20
-86.8443
11
114.851
21
-86.8443
0
LINE
8
BLACK
6
CONTINUOUS
10
114.851
20
-86.8443
11
114.851
21
-86.2943
0
LINE
8
BLACK
6
CONTINUOUS
10
114.851
20
-86.2943
11
116.451
21
-86.2943
0
LINE
8
BLACK
6
CONTINUOUS
10
116.451
20
-86.2943
11
116.451
21
-86.8443
0
LINE
8
BLACK
6
CONTINUOUS
10
124.951
20
-86.8443
11
123.351
21
-86.8443
0
LINE
8
BLACK
6
CONTINUOUS
10
123.351
20
-86.8443
11
123.351
21
-86.2943
0
LINE
8
BLACK
6
CONTINUOUS
10
123.351
20
-86.2943
11
124.951
21
-86.2943
0
LINE
8
BLACK
6
CONTINUOUS
10
124.951
20
-86.2943
11
124.951
21
-86.8443
0
LINE
8
BLACK
6
CONTINUOUS
10
102.196
20
-84.1505
11
102.241
21
-84.1639
0
LINE
8
BLACK
6
CONTINUOUS
10
102.241
20
-84.1639
11
102.281
21
-84.1856
0
LINE
8
BLACK
6
CONTINUOUS
10
102.281
20
-84.1856
11
102.317
21
-84.2148
0
LINE
8
BLACK
6
CONTINUOUS
10
102.317
20
-84.2148
11
102.346
21
-84.2504
0
LINE
8
BLACK
6
CONTINUOUS
10
102.346
20
-84.2504
11
102.368
21
-84.2911
0
LINE
8
BLACK
6
CONTINUOUS
10
102.368
20
-84.2911
11
102.381
21
-84.3352
0
LINE
8
BLACK
6
CONTINUOUS
10
102.381
20
-84.3352
11
102.386
21
-84.381
0
LINE
8
BLACK
6
CONTINUOUS
10
102.386
20
-84.381
11
102.386
21
-86.261
0
LINE
8
BLACK
6
CONTINUOUS
10
102.386
20
-86.261
11
102.381
21
-86.3068
0
LINE
8
BLACK
6
CONTINUOUS
10
102.381
20
-86.3068
11
102.368
21
-86.3509
0
LINE
8
BLACK
6
CONTINUOUS
10
102.368
20
-86.3509
11
102.346
21
-86.3916
0
LINE
8
BLACK
6
CONTINUOUS
10
102.346
20
-86.3916
11
102.317
21
-86.4272
0
LINE
8
BLACK
6
CONTINUOUS
10
102.317
20
-86.4272
11
102.281
21
-86.4564
0
LINE
8
BLACK
6
CONTINUOUS
10
102.281
20
-86.4564
11
102.241
21
-86.4781
0
LINE
8
BLACK
6
CONTINUOUS
10
102.241
20
-86.4781
11
102.196
21
-86.4915
0
LINE
8
BLACK
6
CONTINUOUS
10
102.196
20
-86.4915
11
102.151
21
-86.496
0
LINE
8
BLACK
6
CONTINUOUS
10
102.151
20
-86.496
11
99.2206
21
-86.496
0
LINE
8
BLACK
6
CONTINUOUS
10
99.2206
20
-86.496
11
99.1748
21
-86.4915
0
LINE
8
BLACK
6
CONTINUOUS
10
99.1748
20
-86.4915
11
99.1307
21
-86.4781
0
LINE
8
BLACK
6
CONTINUOUS
10
99.1307
20
-86.4781
11
99.09
21
-86.4564
0
LINE
8
BLACK
6
CONTINUOUS
10
99.09
20
-86.4564
11
99.0544
21
-86.4272
0
LINE
8
BLACK
6
CONTINUOUS
10
99.0544
20
-86.4272
11
99.0252
21
-86.3916
0
LINE
8
BLACK
6
CONTINUOUS
10
99.0252
20
-86.3916
11
99.0035
21
-86.3509
0
LINE
8
BLACK
6
CONTINUOUS
10
99.0035
20
-86.3509
11
98.9901
21
-86.3068
0
LINE
8
BLACK
6
CONTINUOUS
10
98.9901
20
-86.3068
11
98.9856
21
-86.261
0
LINE
8
BLACK
6
CONTINUOUS
10
98.9856
20
-86.261
11
98.9856
21
-84.381
0
LINE
8
BLACK
6
CONTINUOUS
10
98.9856
20
-84.381
11
98.9901
21
-84.3352
0
LINE
8
BLACK
6
CONTINUOUS
10
98.9901
20
-84.3352
11
99.0035
21
-84.2911
0
LINE
8
BLACK
6
CONTINUOUS
10
99.0035
20
-84.2911
11
99.0252
21
-84.2504
0
LINE
8
BLACK
6
CONTINUOUS
10
99.0252
20
-84.2504
11
99.0544
21
-84.2148
0
LINE
8
BLACK
6
CONTINUOUS
10
99.0544
20
-84.2148
11
99.09
21
-84.1856
0
LINE
8
BLACK
6
CONTINUOUS
10
99.09
20
-84.1856
11
99.1307
21
-84.1639
0
LINE
8
BLACK
6
CONTINUOUS
10
99.1307
20
-84.1639
11
99.1748
21
-84.1505
0
LINE
8
BLACK
6
CONTINUOUS
10
99.1748
20
-84.1505
11
99.2206
21
-84.146
0
LINE
8
BLACK
6
CONTINUOUS
10
99.2206
20
-84.146
11
102.151
21
-84.146
0
LINE
8
BLACK
6
CONTINUOUS
10
102.151
20
-84.146
11
102.196
21
-84.1505
0
LINE
8
BLACK
6
CONTINUOUS
10
128.664
20
-85.0006
11
128.711
21
-85.0148
0
LINE
8
BLACK
6
CONTINUOUS
10
128.711
20
-85.0148
11
128.754
21
-85.0379
0
LINE
8
BLACK
6
CONTINUOUS
10
128.754
20
-85.0379
11
128.792
21
-85.069
0
LINE
8
BLACK
6
CONTINUOUS
10
128.792
20
-85.069
11
128.823
21
-85.1069
0
LINE
8
BLACK
6
CONTINUOUS
10
128.823
20
-85.1069
11
128.846
21
-85.1501
0
LINE
8
BLACK
6
CONTINUOUS
10
128.846
20
-85.1501
11
128.86
21
-85.197
0
LINE
8
BLACK
6
CONTINUOUS
10
128.86
20
-85.197
11
128.865
21
-85.2458
0
LINE
8
BLACK
6
CONTINUOUS
10
128.865
20
-85.2458
11
128.865
21
-85.8958
0
LINE
8
BLACK
6
CONTINUOUS
10
128.865
20
-85.8958
11
128.86
21
-85.9446
0
LINE
8
BLACK
6
CONTINUOUS
10
128.86
20
-85.9446
11
128.846
21
-85.9915
0
LINE
8
BLACK
6
CONTINUOUS
10
128.846
20
-85.9915
11
128.823
21
-86.0347
0
LINE
8
BLACK
6
CONTINUOUS
10
128.823
20
-86.0347
11
128.792
21
-86.0726
0
LINE
8
BLACK
6
CONTINUOUS
10
128.792
20
-86.0726
11
128.754
21
-86.1037
0
LINE
8
BLACK
6
CONTINUOUS
10
128.754
20
-86.1037
11
128.711
21
-86.1268
0
LINE
8
BLACK
6
CONTINUOUS
10
128.711
20
-86.1268
11
128.664
21
-86.141
0
LINE
8
BLACK
6
CONTINUOUS
10
128.664
20
-86.141
11
128.615
21
-86.1458
0
LINE
8
BLACK
6
CONTINUOUS
10
128.615
20
-86.1458
11
127.315
21
-86.1458
0
LINE
8
BLACK
6
CONTINUOUS
10
127.315
20
-86.1458
11
127.266
21
-86.141
0
LINE
8
BLACK
6
CONTINUOUS
10
127.266
20
-86.141
11
127.22
21
-86.1268
0
LINE
8
BLACK
6
CONTINUOUS
10
127.22
20
-86.1268
11
127.176
21
-86.1037
0
LINE
8
BLACK
6
CONTINUOUS
10
127.176
20
-86.1037
11
127.138
21
-86.0726
0
LINE
8
BLACK
6
CONTINUOUS
10
127.138
20
-86.0726
11
127.107
21
-86.0347
0
LINE
8
BLACK
6
CONTINUOUS
10
127.107
20
-86.0347
11
127.084
21
-85.9915
0
LINE
8
BLACK
6
CONTINUOUS
10
127.084
20
-85.9915
11
127.07
21
-85.9446
0
LINE
8
BLACK
6
CONTINUOUS
10
127.07
20
-85.9446
11
127.065
21
-85.8958
0
LINE
8
BLACK
6
CONTINUOUS
10
127.065
20
-85.8958
11
127.065
21
-85.2458
0
LINE
8
BLACK
6
CONTINUOUS
10
127.065
20
-85.2458
11
127.07
21
-85.197
0
LINE
8
BLACK
6
CONTINUOUS
10
127.07
20
-85.197
11
127.084
21
-85.1501
0
LINE
8
BLACK
6
CONTINUOUS
10
127.084
20
-85.1501
11
127.107
21
-85.1069
0
LINE
8
BLACK
6
CONTINUOUS
10
127.107
20
-85.1069
11
127.138
21
-85.069
0
LINE
8
BLACK
6
CONTINUOUS
10
127.138
20
-85.069
11
127.176
21
-85.0379
0
LINE
8
BLACK
6
CONTINUOUS
10
127.176
20
-85.0379
11
127.22
21
-85.0148
0
LINE
8
BLACK
6
CONTINUOUS
10
127.22
20
-85.0148
11
127.266
21
-85.0006
0
LINE
8
BLACK
6
CONTINUOUS
10
127.266
20
-85.0006
11
127.315
21
-84.9958
0
LINE
8
BLACK
6
CONTINUOUS
10
127.315
20
-84.9958
11
128.615
21
-84.9958
0
LINE
8
BLACK
6
CONTINUOUS
10
128.615
20
-84.9958
11
128.664
21
-85.0006
0
LINE
8
BLACK
6
CONTINUOUS
10
116.451
20
-86.0443
11
114.851
21
-86.0443
0
LINE
8
BLACK
6
CONTINUOUS
10
114.851
20
-86.0443
11
114.851
21
-85.4943
0
LINE
8
BLACK
6
CONTINUOUS
10
114.851
20
-85.4943
11
116.451
21
-85.4943
0
LINE
8
BLACK
6
CONTINUOUS
10
116.451
20
-85.4943
11
116.451
21
-86.0443
0
LINE
8
BLACK
6
CONTINUOUS
10
124.951
20
-86.0443
11
123.351
21
-86.0443
0
LINE
8
BLACK
6
CONTINUOUS
10
123.351
20
-86.0443
11
123.351
21
-85.4943
0
LINE
8
BLACK
6
CONTINUOUS
10
123.351
20
-85.4943
11
124.951
21
-85.4943
0
LINE
8
BLACK
6
CONTINUOUS
10
124.951
20
-85.4943
11
124.951
21
-86.0443
0
LINE
8
BLACK
6
CONTINUOUS
10
93.082
20
-84.1948
11
93.1289
21
-84.209
0
LINE
8
BLACK
6
CONTINUOUS
10
93.1289
20
-84.209
11
93.1721
21
-84.2321
0
LINE
8
BLACK
6
CONTINUOUS
10
93.1721
20
-84.2321
11
93.21
21
-84.2632
0
LINE
8
BLACK
6
CONTINUOUS
10
93.21
20
-84.2632
11
93.2411
21
-84.3011
0
LINE
8
BLACK
6
CONTINUOUS
10
93.2411
20
-84.3011
11
93.2642
21
-84.3443
0
LINE
8
BLACK
6
CONTINUOUS
10
93.2642
20
-84.3443
11
93.2784
21
-84.3912
0
LINE
8
BLACK
6
CONTINUOUS
10
93.2784
20
-84.3912
11
93.2832
21
-84.44
0
LINE
8
BLACK
6
CONTINUOUS
10
93.2832
20
-84.44
11
93.2832
21
-85.74
0
LINE
8
BLACK
6
CONTINUOUS
10
93.2832
20
-85.74
11
93.2784
21
-85.7888
0
LINE
8
BLACK
6
CONTINUOUS
10
93.2784
20
-85.7888
11
93.2642
21
-85.8357
0
LINE
8
BLACK
6
CONTINUOUS
10
93.2642
20
-85.8357
11
93.2411
21
-85.8789
0
LINE
8
BLACK
6
CONTINUOUS
10
93.2411
20
-85.8789
11
93.21
21
-85.9168
0
LINE
8
BLACK
6
CONTINUOUS
10
93.21
20
-85.9168
11
93.1721
21
-85.9479
0
LINE
8
BLACK
6
CONTINUOUS
10
93.1721
20
-85.9479
11
93.1289
21
-85.971
0
LINE
8
BLACK
6
CONTINUOUS
10
93.1289
20
-85.971
11
93.082
21
-85.9852
0
LINE
8
BLACK
6
CONTINUOUS
10
93.082
20
-85.9852
11
93.0332
21
-85.99
0
LINE
8
BLACK
6
CONTINUOUS
10
93.0332
20
-85.99
11
92.3832
21
-85.99
0
LINE
8
BLACK
6
CONTINUOUS
10
92.3832
20
-85.99
11
92.3344
21
-85.9852
0
LINE
8
BLACK
6
CONTINUOUS
10
92.3344
20
-85.9852
11
92.2875
21
-85.971
0
LINE
8
BLACK
6
CONTINUOUS
10
92.2875
20
-85.971
11
92.2443
21
-85.9479
0
LINE
8
BLACK
6
CONTINUOUS
10
92.2443
20
-85.9479
11
92.2064
21
-85.9168
0
LINE
8
BLACK
6
CONTINUOUS
10
92.2064
20
-85.9168
11
92.1753
21
-85.8789
0
LINE
8
BLACK
6
CONTINUOUS
10
92.1753
20
-85.8789
11
92.1522
21
-85.8357
0
LINE
8
BLACK
6
CONTINUOUS
10
92.1522
20
-85.8357
11
92.138
21
-85.7888
0
LINE
8
BLACK
6
CONTINUOUS
10
92.138
20
-85.7888
11
92.1332
21
-85.74
0
LINE
8
BLACK
6
CONTINUOUS
10
92.1332
20
-85.74
11
92.1332
21
-84.44
0
LINE
8
BLACK
6
CONTINUOUS
10
92.1332
20
-84.44
11
92.138
21
-84.3912
0
LINE
8
BLACK
6
CONTINUOUS
10
92.138
20
-84.3912
11
92.1522
21
-84.3443
0
LINE
8
BLACK
6
CONTINUOUS
10
92.1522
20
-84.3443
11
92.1753
21
-84.3011
0
LINE
8
BLACK
6
CONTINUOUS
10
92.1753
20
-84.3011
11
92.2064
21
-84.2632
0
LINE
8
BLACK
6
CONTINUOUS
10
92.2064
20
-84.2632
11
92.2443
21
-84.2321
0
LINE
8
BLACK
6
CONTINUOUS
10
92.2443
20
-84.2321
11
92.2875
21
-84.209
0
LINE
8
BLACK
6
CONTINUOUS
10
92.2875
20
-84.209
11
92.3344
21
-84.1948
0
LINE
8
BLACK
6
CONTINUOUS
10
92.3344
20
-84.1948
11
92.3832
21
-84.19
0
LINE
8
BLACK
6
CONTINUOUS
10
92.3832
20
-84.19
11
93.0332
21
-84.19
0
LINE
8
BLACK
6
CONTINUOUS
10
93.0332
20
-84.19
11
93.082
21
-84.1948
0
LINE
8
BLACK
6
CONTINUOUS
10
96.032
20
-84.1948
11
96.0789
21
-84.209
0
LINE
8
BLACK
6
CONTINUOUS
10
96.0789
20
-84.209
11
96.1221
21
-84.2321
0
LINE
8
BLACK
6
CONTINUOUS
10
96.1221
20
-84.2321
11
96.16
21
-84.2632
0
LINE
8
BLACK
6
CONTINUOUS
10
96.16
20
-84.2632
11
96.1911
21
-84.3011
0
LINE
8
BLACK
6
CONTINUOUS
10
96.1911
20
-84.3011
11
96.2142
21
-84.3443
0
LINE
8
BLACK
6
CONTINUOUS
10
96.2142
20
-84.3443
11
96.2284
21
-84.3912
0
LINE
8
BLACK
6
CONTINUOUS
10
96.2284
20
-84.3912
11
96.2332
21
-84.44
0
LINE
8
BLACK
6
CONTINUOUS
10
96.2332
20
-84.44
11
96.2332
21
-85.74
0
LINE
8
BLACK
6
CONTINUOUS
10
96.2332
20
-85.74
11
96.2284
21
-85.7888
0
LINE
8
BLACK
6
CONTINUOUS
10
96.2284
20
-85.7888
11
96.2142
21
-85.8357
0
LINE
8
BLACK
6
CONTINUOUS
10
96.2142
20
-85.8357
11
96.1911
21
-85.8789
0
LINE
8
BLACK
6
CONTINUOUS
10
96.1911
20
-85.8789
11
96.16
21
-85.9168
0
LINE
8
BLACK
6
CONTINUOUS
10
96.16
20
-85.9168
11
96.1221
21
-85.9479
0
LINE
8
BLACK
6
CONTINUOUS
10
96.1221
20
-85.9479
11
96.0789
21
-85.971
0
LINE
8
BLACK
6
CONTINUOUS
10
96.0789
20
-85.971
11
96.032
21
-85.9852
0
LINE
8
BLACK
6
CONTINUOUS
10
96.032
20
-85.9852
11
95.9832
21
-85.99
0
LINE
8
BLACK
6
CONTINUOUS
10
95.9832
20
-85.99
11
95.3332
21
-85.99
0
LINE
8
BLACK
6
CONTINUOUS
10
95.3332
20
-85.99
11
95.2844
21
-85.9852
0
LINE
8
BLACK
6
CONTINUOUS
10
95.2844
20
-85.9852
11
95.2375
21
-85.971
0
LINE
8
BLACK
6
CONTINUOUS
10
95.2375
20
-85.971
11
95.1943
21
-85.9479
0
LINE
8
BLACK
6
CONTINUOUS
10
95.1943
20
-85.9479
11
95.1564
21
-85.9168
0
LINE
8
BLACK
6
CONTINUOUS
10
95.1564
20
-85.9168
11
95.1253
21
-85.8789
0
LINE
8
BLACK
6
CONTINUOUS
10
95.1253
20
-85.8789
11
95.1022
21
-85.8357
0
LINE
8
BLACK
6
CONTINUOUS
10
95.1022
20
-85.8357
11
95.088
21
-85.7888
0
LINE
8
BLACK
6
CONTINUOUS
10
95.088
20
-85.7888
11
95.0832
21
-85.74
0
LINE
8
BLACK
6
CONTINUOUS
10
95.0832
20
-85.74
11
95.0832
21
-84.44
0
LINE
8
BLACK
6
CONTINUOUS
10
95.0832
20
-84.44
11
95.088
21
-84.3912
0
LINE
8
BLACK
6
CONTINUOUS
10
95.088
20
-84.3912
11
95.1022
21
-84.3443
0
LINE
8
BLACK
6
CONTINUOUS
10
95.1022
20
-84.3443
11
95.1253
21
-84.3011
0
LINE
8
BLACK
6
CONTINUOUS
10
95.1253
20
-84.3011
11
95.1564
21
-84.2632
0
LINE
8
BLACK
6
CONTINUOUS
10
95.1564
20
-84.2632
11
95.1943
21
-84.2321
0
LINE
8
BLACK
6
CONTINUOUS
10
95.1943
20
-84.2321
11
95.2375
21
-84.209
0
LINE
8
BLACK
6
CONTINUOUS
10
95.2375
20
-84.209
11
95.2844
21
-84.1948
0
LINE
8
BLACK
6
CONTINUOUS
10
95.2844
20
-84.1948
11
95.3332
21
-84.19
0
LINE
8
BLACK
6
CONTINUOUS
10
95.3332
20
-84.19
11
95.9832
21
-84.19
0
LINE
8
BLACK
6
CONTINUOUS
10
95.9832
20
-84.19
11
96.032
21
-84.1948
0
LINE
8
BLACK
6
CONTINUOUS
10
106.499
20
-84.1798
11
106.546
21
-84.194
0
LINE
8
BLACK
6
CONTINUOUS
10
106.546
20
-84.194
11
106.589
21
-84.2171
0
LINE
8
BLACK
6
CONTINUOUS
10
106.589
20
-84.2171
11
106.627
21
-84.2482
0
LINE
8
BLACK
6
CONTINUOUS
10
106.627
20
-84.2482
11
106.658
21
-84.2861
0
LINE
8
BLACK
6
CONTINUOUS
10
106.658
20
-84.2861
11
106.681
21
-84.3293
0
LINE
8
BLACK
6
CONTINUOUS
10
106.681
20
-84.3293
11
106.695
21
-84.3762
0
LINE
8
BLACK
6
CONTINUOUS
10
106.695
20
-84.3762
11
106.7
21
-84.425
0
LINE
8
BLACK
6
CONTINUOUS
10
106.7
20
-84.425
11
106.7
21
-85.325
0
LINE
8
BLACK
6
CONTINUOUS
10
106.7
20
-85.325
11
106.695
21
-85.3738
0
LINE
8
BLACK
6
CONTINUOUS
10
106.695
20
-85.3738
11
106.681
21
-85.4207
0
LINE
8
BLACK
6
CONTINUOUS
10
106.681
20
-85.4207
11
106.658
21
-85.4639
0
LINE
8
BLACK
6
CONTINUOUS
10
106.658
20
-85.4639
11
106.627
21
-85.5018
0
LINE
8
BLACK
6
CONTINUOUS
10
106.627
20
-85.5018
11
106.589
21
-85.5329
0
LINE
8
BLACK
6
CONTINUOUS
10
106.589
20
-85.5329
11
106.546
21
-85.556
0
LINE
8
BLACK
6
CONTINUOUS
10
106.546
20
-85.556
11
106.499
21
-85.5702
0
LINE
8
BLACK
6
CONTINUOUS
10
106.499
20
-85.5702
11
106.45
21
-85.575
0
LINE
8
BLACK
6
CONTINUOUS
10
106.45
20
-85.575
11
105.925
21
-85.575
0
LINE
8
BLACK
6
CONTINUOUS
10
105.925
20
-85.575
11
105.876
21
-85.5702
0
LINE
8
BLACK
6
CONTINUOUS
10
105.876
20
-85.5702
11
105.829
21
-85.556
0
LINE
8
BLACK
6
CONTINUOUS
10
105.829
20
-85.556
11
105.786
21
-85.5329
0
LINE
8
BLACK
6
CONTINUOUS
10
105.786
20
-85.5329
11
105.748
21
-85.5018
0
LINE
8
BLACK
6
CONTINUOUS
10
105.748
20
-85.5018
11
105.717
21
-85.4639
0
LINE
8
BLACK
6
CONTINUOUS
10
105.717
20
-85.4639
11
105.694
21
-85.4207
0
LINE
8
BLACK
6
CONTINUOUS
10
105.694
20
-85.4207
11
105.68
21
-85.3738
0
LINE
8
BLACK
6
CONTINUOUS
10
105.68
20
-85.3738
11
105.675
21
-85.325
0
LINE
8
BLACK
6
CONTINUOUS
10
105.675
20
-85.325
11
105.675
21
-84.425
0
LINE
8
BLACK
6
CONTINUOUS
10
105.675
20
-84.425
11
105.68
21
-84.3762
0
LINE
8
BLACK
6
CONTINUOUS
10
105.68
20
-84.3762
11
105.694
21
-84.3293
0
LINE
8
BLACK
6
CONTINUOUS
10
105.694
20
-84.3293
11
105.717
21
-84.2861
0
LINE
8
BLACK
6
CONTINUOUS
10
105.717
20
-84.2861
11
105.748
21
-84.2482
0
LINE
8
BLACK
6
CONTINUOUS
10
105.748
20
-84.2482
11
105.786
21
-84.2171
0
LINE
8
BLACK
6
CONTINUOUS
10
105.786
20
-84.2171
11
105.829
21
-84.194
0
LINE
8
BLACK
6
CONTINUOUS
10
105.829
20
-84.194
11
105.876
21
-84.1798
0
LINE
8
BLACK
6
CONTINUOUS
10
105.876
20
-84.1798
11
105.925
21
-84.175
0
LINE
8
BLACK
6
CONTINUOUS
10
105.925
20
-84.175
11
106.45
21
-84.175
0
LINE
8
BLACK
6
CONTINUOUS
10
106.45
20
-84.175
11
106.499
21
-84.1798
0
LINE
8
BLACK
6
CONTINUOUS
10
108.324
20
-84.1798
11
108.371
21
-84.194
0
LINE
8
BLACK
6
CONTINUOUS
10
108.371
20
-84.194
11
108.414
21
-84.2171
0
LINE
8
BLACK
6
CONTINUOUS
10
108.414
20
-84.2171
11
108.452
21
-84.2482
0
LINE
8
BLACK
6
CONTINUOUS
10
108.452
20
-84.2482
11
108.483
21
-84.2861
0
LINE
8
BLACK
6
CONTINUOUS
10
108.483
20
-84.2861
11
108.506
21
-84.3293
0
LINE
8
BLACK
6
CONTINUOUS
10
108.506
20
-84.3293
11
108.52
21
-84.3762
0
LINE
8
BLACK
6
CONTINUOUS
10
108.52
20
-84.3762
11
108.525
21
-84.425
0
LINE
8
BLACK
6
CONTINUOUS
10
108.525
20
-84.425
11
108.525
21
-85.325
0
LINE
8
BLACK
6
CONTINUOUS
10
108.525
20
-85.325
11
108.52
21
-85.3738
0
LINE
8
BLACK
6
CONTINUOUS
10
108.52
20
-85.3738
11
108.506
21
-85.4207
0
LINE
8
BLACK
6
CONTINUOUS
10
108.506
20
-85.4207
11
108.483
21
-85.4639
0
LINE
8
BLACK
6
CONTINUOUS
10
108.483
20
-85.4639
11
108.452
21
-85.5018
0
LINE
8
BLACK
6
CONTINUOUS
10
108.452
20
-85.5018
11
108.414
21
-85.5329
0
LINE
8
BLACK
6
CONTINUOUS
10
108.414
20
-85.5329
11
108.371
21
-85.556
0
LINE
8
BLACK
6
CONTINUOUS
10
108.371
20
-85.556
11
108.324
21
-85.5702
0
LINE
8
BLACK
6
CONTINUOUS
10
108.324
20
-85.5702
11
108.275
21
-85.575
0
LINE
8
BLACK
6
CONTINUOUS
10
108.275
20
-85.575
11
107.75
21
-85.575
0
LINE
8
BLACK
6
CONTINUOUS
10
107.75
20
-85.575
11
107.701
21
-85.5702
0
LINE
8
BLACK
6
CONTINUOUS
10
107.701
20
-85.5702
11
107.654
21
-85.556
0
LINE
8
BLACK
6
CONTINUOUS
10
107.654
20
-85.556
11
107.611
21
-85.5329
0
LINE
8
BLACK
6
CONTINUOUS
10
107.611
20
-85.5329
11
107.573
21
-85.5018
0
LINE
8
BLACK
6
CONTINUOUS
10
107.573
20
-85.5018
11
107.542
21
-85.4639
0
LINE
8
BLACK
6
CONTINUOUS
10
107.542
20
-85.4639
11
107.519
21
-85.4207
0
LINE
8
BLACK
6
CONTINUOUS
10
107.519
20
-85.4207
11
107.505
21
-85.3738
0
LINE
8
BLACK
6
CONTINUOUS
10
107.505
20
-85.3738
11
107.5
21
-85.325
0
LINE
8
BLACK
6
CONTINUOUS
10
107.5
20
-85.325
11
107.5
21
-84.425
0
LINE
8
BLACK
6
CONTINUOUS
10
107.5
20
-84.425
11
107.505
21
-84.3762
0
LINE
8
BLACK
6
CONTINUOUS
10
107.505
20
-84.3762
11
107.519
21
-84.3293
0
LINE
8
BLACK
6
CONTINUOUS
10
107.519
20
-84.3293
11
107.542
21
-84.2861
0
LINE
8
BLACK
6
CONTINUOUS
10
107.542
20
-84.2861
11
107.573
21
-84.2482
0
LINE
8
BLACK
6
CONTINUOUS
10
107.573
20
-84.2482
11
107.611
21
-84.2171
0
LINE
8
BLACK
6
CONTINUOUS
10
107.611
20
-84.2171
11
107.654
21
-84.194
0
LINE
8
BLACK
6
CONTINUOUS
10
107.654
20
-84.194
11
107.701
21
-84.1798
0
LINE
8
BLACK
6
CONTINUOUS
10
107.701
20
-84.1798
11
107.75
21
-84.175
0
LINE
8
BLACK
6
CONTINUOUS
10
107.75
20
-84.175
11
108.275
21
-84.175
0
LINE
8
BLACK
6
CONTINUOUS
10
108.275
20
-84.175
11
108.324
21
-84.1798
0
LINE
8
BLACK
6
CONTINUOUS
10
124.951
20
-85.2443
11
123.351
21
-85.2443
0
LINE
8
BLACK
6
CONTINUOUS
10
123.351
20
-85.2443
11
123.351
21
-84.6943
0
LINE
8
BLACK
6
CONTINUOUS
10
123.351
20
-84.6943
11
124.951
21
-84.6943
0
LINE
8
BLACK
6
CONTINUOUS
10
124.951
20
-84.6943
11
124.951
21
-85.2443
0
LINE
8
BLACK
6
CONTINUOUS
10
116.451
20
-85.2443
11
114.851
21
-85.2443
0
LINE
8
BLACK
6
CONTINUOUS
10
114.851
20
-85.2443
11
114.851
21
-84.6943
0
LINE
8
BLACK
6
CONTINUOUS
10
114.851
20
-84.6943
11
116.451
21
-84.6943
0
LINE
8
BLACK
6
CONTINUOUS
10
116.451
20
-84.6943
11
116.451
21
-85.2443
0
LINE
8
BLACK
6
CONTINUOUS
10
124.951
20
-84.4443
11
123.351
21
-84.4443
0
LINE
8
BLACK
6
CONTINUOUS
10
123.351
20
-84.4443
11
123.351
21
-83.8943
0
LINE
8
BLACK
6
CONTINUOUS
10
123.351
20
-83.8943
11
124.951
21
-83.8943
0
LINE
8
BLACK
6
CONTINUOUS
10
124.951
20
-83.8943
11
124.951
21
-84.4443
0
LINE
8
BLACK
6
CONTINUOUS
10
116.451
20
-84.4443
11
114.851
21
-84.4443
0
LINE
8
BLACK
6
CONTINUOUS
10
114.851
20
-84.4443
11
114.851
21
-83.8943
0
LINE
8
BLACK
6
CONTINUOUS
10
114.851
20
-83.8943
11
116.451
21
-83.8943
0
LINE
8
BLACK
6
CONTINUOUS
10
116.451
20
-83.8943
11
116.451
21
-84.4443
0
LINE
8
BLACK
6
CONTINUOUS
10
124.951
20
-83.6443
11
123.351
21
-83.6443
0
LINE
8
BLACK
6
CONTINUOUS
10
123.351
20
-83.6443
11
123.351
21
-83.0943
0
LINE
8
BLACK
6
CONTINUOUS
10
123.351
20
-83.0943
11
124.951
21
-83.0943
0
LINE
8
BLACK
6
CONTINUOUS
10
124.951
20
-83.0943
11
124.951
21
-83.6443
0
LINE
8
BLACK
6
CONTINUOUS
10
116.451
20
-83.6443
11
114.851
21
-83.6443
0
LINE
8
BLACK
6
CONTINUOUS
10
114.851
20
-83.6443
11
114.851
21
-83.0943
0
LINE
8
BLACK
6
CONTINUOUS
10
114.851
20
-83.0943
11
116.451
21
-83.0943
0
LINE
8
BLACK
6
CONTINUOUS
10
116.451
20
-83.0943
11
116.451
21
-83.6443
0
LINE
8
BLACK
6
CONTINUOUS
10
111.992
20
-83.455
11
110.792
21
-83.455
0
LINE
8
BLACK
6
CONTINUOUS
10
110.792
20
-83.455
11
110.792
21
-79.955
0
LINE
8
BLACK
6
CONTINUOUS
10
110.792
20
-79.955
11
111.992
21
-79.955
0
LINE
8
BLACK
6
CONTINUOUS
10
111.992
20
-79.955
11
111.992
21
-83.455
0
LINE
8
BLACK
6
CONTINUOUS
10
105.799
20
-82.1542
11
105.84
21
-82.1667
0
LINE
8
BLACK
6
CONTINUOUS
10
105.84
20
-82.1667
11
105.878
21
-82.1869
0
LINE
8
BLACK
6
CONTINUOUS
10
105.878
20
-82.1869
11
105.911
21
-82.2141
0
LINE
8
BLACK
6
CONTINUOUS
10
105.911
20
-82.2141
11
105.938
21
-82.2472
0
LINE
8
BLACK
6
CONTINUOUS
10
105.938
20
-82.2472
11
105.958
21
-82.285
0
LINE
8
BLACK
6
CONTINUOUS
10
105.958
20
-82.285
11
105.971
21
-82.3261
0
LINE
8
BLACK
6
CONTINUOUS
10
105.971
20
-82.3261
11
105.975
21
-82.3687
0
LINE
8
BLACK
6
CONTINUOUS
10
105.975
20
-82.3687
11
105.975
21
-82.8062
0
LINE
8
BLACK
6
CONTINUOUS
10
105.975
20
-82.8062
11
105.971
21
-82.8489
0
LINE
8
BLACK
6
CONTINUOUS
10
105.971
20
-82.8489
11
105.958
21
-82.89
0
LINE
8
BLACK
6
CONTINUOUS
10
105.958
20
-82.89
11
105.938
21
-82.9278
0
LINE
8
BLACK
6
CONTINUOUS
10
105.938
20
-82.9278
11
105.911
21
-82.9609
0
LINE
8
BLACK
6
CONTINUOUS
10
105.911
20
-82.9609
11
105.878
21
-82.9881
0
LINE
8
BLACK
6
CONTINUOUS
10
105.878
20
-82.9881
11
105.84
21
-83.0083
0
LINE
8
BLACK
6
CONTINUOUS
10
105.84
20
-83.0083
11
105.799
21
-83.0208
0
LINE
8
BLACK
6
CONTINUOUS
10
105.799
20
-83.0208
11
105.756
21
-83.025
0
LINE
8
BLACK
6
CONTINUOUS
10
105.756
20
-83.025
11
105.244
21
-83.025
0
LINE
8
BLACK
6
CONTINUOUS
10
105.244
20
-83.025
11
105.201
21
-83.0208
0
LINE
8
BLACK
6
CONTINUOUS
10
105.201
20
-83.0208
11
105.16
21
-83.0083
0
LINE
8
BLACK
6
CONTINUOUS
10
105.16
20
-83.0083
11
105.122
21
-82.9881
0
LINE
8
BLACK
6
CONTINUOUS
10
105.122
20
-82.9881
11
105.089
21
-82.9609
0
LINE
8
BLACK
6
CONTINUOUS
10
105.089
20
-82.9609
11
105.062
21
-82.9278
0
LINE
8
BLACK
6
CONTINUOUS
10
105.062
20
-82.9278
11
105.042
21
-82.89
0
LINE
8
BLACK
6
CONTINUOUS
10
105.042
20
-82.89
11
105.029
21
-82.8489
0
LINE
8
BLACK
6
CONTINUOUS
10
105.029
20
-82.8489
11
105.025
21
-82.8062
0
LINE
8
BLACK
6
CONTINUOUS
10
105.025
20
-82.8062
11
105.025
21
-82.3687
0
LINE
8
BLACK
6
CONTINUOUS
10
105.025
20
-82.3687
11
105.029
21
-82.3261
0
LINE
8
BLACK
6
CONTINUOUS
10
105.029
20
-82.3261
11
105.042
21
-82.285
0
LINE
8
BLACK
6
CONTINUOUS
10
105.042
20
-82.285
11
105.062
21
-82.2472
0
LINE
8
BLACK
6
CONTINUOUS
10
105.062
20
-82.2472
11
105.089
21
-82.2141
0
LINE
8
BLACK
6
CONTINUOUS
10
105.089
20
-82.2141
11
105.122
21
-82.1869
0
LINE
8
BLACK
6
CONTINUOUS
10
105.122
20
-82.1869
11
105.16
21
-82.1667
0
LINE
8
BLACK
6
CONTINUOUS
10
105.16
20
-82.1667
11
105.201
21
-82.1542
0
LINE
8
BLACK
6
CONTINUOUS
10
105.201
20
-82.1542
11
105.244
21
-82.15
0
LINE
8
BLACK
6
CONTINUOUS
10
105.244
20
-82.15
11
105.756
21
-82.15
0
LINE
8
BLACK
6
CONTINUOUS
10
105.756
20
-82.15
11
105.799
21
-82.1542
0
LINE
8
BLACK
6
CONTINUOUS
10
146.539
20
-82.8508
11
143.339
21
-82.8508
0
LINE
8
BLACK
6
CONTINUOUS
10
143.339
20
-82.8508
11
143.339
21
-81.0508
0
LINE
8
BLACK
6
CONTINUOUS
10
143.339
20
-81.0508
11
146.539
21
-81.0508
0
LINE
8
BLACK
6
CONTINUOUS
10
146.539
20
-81.0508
11
146.539
21
-82.8508
0
LINE
8
BLACK
6
CONTINUOUS
10
137.839
20
-82.8508
11
134.639
21
-82.8508
0
LINE
8
BLACK
6
CONTINUOUS
10
134.639
20
-82.8508
11
134.639
21
-81.0508
0
LINE
8
BLACK
6
CONTINUOUS
10
134.639
20
-81.0508
11
137.839
21
-81.0508
0
LINE
8
BLACK
6
CONTINUOUS
10
137.839
20
-81.0508
11
137.839
21
-82.8508
0
LINE
8
BLACK
6
CONTINUOUS
10
124.951
20
-82.8443
11
123.351
21
-82.8443
0
LINE
8
BLACK
6
CONTINUOUS
10
123.351
20
-82.8443
11
123.351
21
-82.2943
0
LINE
8
BLACK
6
CONTINUOUS
10
123.351
20
-82.2943
11
124.951
21
-82.2943
0
LINE
8
BLACK
6
CONTINUOUS
10
124.951
20
-82.2943
11
124.951
21
-82.8443
0
LINE
8
BLACK
6
CONTINUOUS
10
116.451
20
-82.8443
11
114.851
21
-82.8443
0
LINE
8
BLACK
6
CONTINUOUS
10
114.851
20
-82.8443
11
114.851
21
-82.2943
0
LINE
8
BLACK
6
CONTINUOUS
10
114.851
20
-82.2943
11
116.451
21
-82.2943
0
LINE
8
BLACK
6
CONTINUOUS
10
116.451
20
-82.2943
11
116.451
21
-82.8443
0
LINE
8
BLACK
6
CONTINUOUS
10
93.791
20
-82.0978
11
92.731
21
-82.0978
0
LINE
8
BLACK
6
CONTINUOUS
10
92.731
20
-82.0978
11
92.731
21
-81.4478
0
LINE
8
BLACK
6
CONTINUOUS
10
92.731
20
-81.4478
11
93.791
21
-81.4478
0
LINE
8
BLACK
6
CONTINUOUS
10
93.791
20
-81.4478
11
93.791
21
-82.0978
0
LINE
8
BLACK
6
CONTINUOUS
10
95.991
20
-82.0978
11
94.931
21
-82.0978
0
LINE
8
BLACK
6
CONTINUOUS
10
94.931
20
-82.0978
11
94.931
21
-81.4478
0
LINE
8
BLACK
6
CONTINUOUS
10
94.931
20
-81.4478
11
95.991
21
-81.4478
0
LINE
8
BLACK
6
CONTINUOUS
10
95.991
20
-81.4478
11
95.991
21
-82.0978
0
LINE
8
BLACK
6
CONTINUOUS
10
124.951
20
-82.0443
11
123.351
21
-82.0443
0
LINE
8
BLACK
6
CONTINUOUS
10
123.351
20
-82.0443
11
123.351
21
-81.4943
0
LINE
8
BLACK
6
CONTINUOUS
10
123.351
20
-81.4943
11
124.951
21
-81.4943
0
LINE
8
BLACK
6
CONTINUOUS
10
124.951
20
-81.4943
11
124.951
21
-82.0443
0
LINE
8
BLACK
6
CONTINUOUS
10
116.451
20
-82.0443
11
114.851
21
-82.0443
0
LINE
8
BLACK
6
CONTINUOUS
10
114.851
20
-82.0443
11
114.851
21
-81.4943
0
LINE
8
BLACK
6
CONTINUOUS
10
114.851
20
-81.4943
11
116.451
21
-81.4943
0
LINE
8
BLACK
6
CONTINUOUS
10
116.451
20
-81.4943
11
116.451
21
-82.0443
0
LINE
8
BLACK
6
CONTINUOUS
10
108.396
20
-81.0629
11
108.439
21
-81.0757
0
LINE
8
BLACK
6
CONTINUOUS
10
108.439
20
-81.0757
11
108.477
21
-81.0965
0
LINE
8
BLACK
6
CONTINUOUS
10
108.477
20
-81.0965
11
108.511
21
-81.1245
0
LINE
8
BLACK
6
CONTINUOUS
10
108.511
20
-81.1245
11
108.539
21
-81.1586
0
LINE
8
BLACK
6
CONTINUOUS
10
108.539
20
-81.1586
11
108.56
21
-81.1975
0
LINE
8
BLACK
6
CONTINUOUS
10
108.56
20
-81.1975
11
108.573
21
-81.2397
0
LINE
8
BLACK
6
CONTINUOUS
10
108.573
20
-81.2397
11
108.577
21
-81.2836
0
LINE
8
BLACK
6
CONTINUOUS
10
108.577
20
-81.2836
11
108.577
21
-81.7336
0
LINE
8
BLACK
6
CONTINUOUS
10
108.577
20
-81.7336
11
108.573
21
-81.7775
0
LINE
8
BLACK
6
CONTINUOUS
10
108.573
20
-81.7775
11
108.56
21
-81.8197
0
LINE
8
BLACK
6
CONTINUOUS
10
108.56
20
-81.8197
11
108.539
21
-81.8586
0
LINE
8
BLACK
6
CONTINUOUS
10
108.539
20
-81.8586
11
108.511
21
-81.8927
0
LINE
8
BLACK
6
CONTINUOUS
10
108.511
20
-81.8927
11
108.477
21
-81.9207
0
LINE
8
BLACK
6
CONTINUOUS
10
108.477
20
-81.9207
11
108.439
21
-81.9415
0
LINE
8
BLACK
6
CONTINUOUS
10
108.439
20
-81.9415
11
108.396
21
-81.9543
0
LINE
8
BLACK
6
CONTINUOUS
10
108.396
20
-81.9543
11
108.352
21
-81.9586
0
LINE
8
BLACK
6
CONTINUOUS
10
108.352
20
-81.9586
11
107.852
21
-81.9586
0
LINE
8
BLACK
6
CONTINUOUS
10
107.852
20
-81.9586
11
107.809
21
-81.9543
0
LINE
8
BLACK
6
CONTINUOUS
10
107.809
20
-81.9543
11
107.766
21
-81.9415
0
LINE
8
BLACK
6
CONTINUOUS
10
107.766
20
-81.9415
11
107.727
21
-81.9207
0
LINE
8
BLACK
6
CONTINUOUS
10
107.727
20
-81.9207
11
107.693
21
-81.8927
0
LINE
8
BLACK
6
CONTINUOUS
10
107.693
20
-81.8927
11
107.665
21
-81.8586
0
LINE
8
BLACK
6
CONTINUOUS
10
107.665
20
-81.8586
11
107.645
21
-81.8197
0
LINE
8
BLACK
6
CONTINUOUS
10
107.645
20
-81.8197
11
107.632
21
-81.7775
0
LINE
8
BLACK
6
CONTINUOUS
10
107.632
20
-81.7775
11
107.627
21
-81.7336
0
LINE
8
BLACK
6
CONTINUOUS
10
107.627
20
-81.7336
11
107.627
21
-81.2836
0
LINE
8
BLACK
6
CONTINUOUS
10
107.627
20
-81.2836
11
107.632
21
-81.2397
0
LINE
8
BLACK
6
CONTINUOUS
10
107.632
20
-81.2397
11
107.645
21
-81.1975
0
LINE
8
BLACK
6
CONTINUOUS
10
107.645
20
-81.1975
11
107.665
21
-81.1586
0
LINE
8
BLACK
6
CONTINUOUS
10
107.665
20
-81.1586
11
107.693
21
-81.1245
0
LINE
8
BLACK
6
CONTINUOUS
10
107.693
20
-81.1245
11
107.727
21
-81.0965
0
LINE
8
BLACK
6
CONTINUOUS
10
107.727
20
-81.0965
11
107.766
21
-81.0757
0
LINE
8
BLACK
6
CONTINUOUS
10
107.766
20
-81.0757
11
107.809
21
-81.0629
0
LINE
8
BLACK
6
CONTINUOUS
10
107.809
20
-81.0629
11
107.852
21
-81.0586
0
LINE
8
BLACK
6
CONTINUOUS
10
107.852
20
-81.0586
11
108.352
21
-81.0586
0
LINE
8
BLACK
6
CONTINUOUS
10
108.352
20
-81.0586
11
108.396
21
-81.0629
0
LINE
8
BLACK
6
CONTINUOUS
10
91.5815
20
-80.8727
11
91.6237
21
-80.8855
0
LINE
8
BLACK
6
CONTINUOUS
10
91.6237
20
-80.8855
11
91.6626
21
-80.9063
0
LINE
8
BLACK
6
CONTINUOUS
10
91.6626
20
-80.9063
11
91.6967
21
-80.9343
0
LINE
8
BLACK
6
CONTINUOUS
10
91.6967
20
-80.9343
11
91.7247
21
-80.9684
0
LINE
8
BLACK
6
CONTINUOUS
10
91.7247
20
-80.9684
11
91.7455
21
-81.0073
0
LINE
8
BLACK
6
CONTINUOUS
10
91.7455
20
-81.0073
11
91.7583
21
-81.0495
0
LINE
8
BLACK
6
CONTINUOUS
10
91.7583
20
-81.0495
11
91.7626
21
-81.0934
0
LINE
8
BLACK
6
CONTINUOUS
10
91.7626
20
-81.0934
11
91.7626
21
-81.5434
0
LINE
8
BLACK
6
CONTINUOUS
10
91.7626
20
-81.5434
11
91.7583
21
-81.5873
0
LINE
8
BLACK
6
CONTINUOUS
10
91.7583
20
-81.5873
11
91.7455
21
-81.6295
0
LINE
8
BLACK
6
CONTINUOUS
10
91.7455
20
-81.6295
11
91.7247
21
-81.6684
0
LINE
8
BLACK
6
CONTINUOUS
10
91.7247
20
-81.6684
11
91.6967
21
-81.7025
0
LINE
8
BLACK
6
CONTINUOUS
10
91.6967
20
-81.7025
11
91.6626
21
-81.7305
0
LINE
8
BLACK
6
CONTINUOUS
10
91.6626
20
-81.7305
11
91.6237
21
-81.7513
0
LINE
8
BLACK
6
CONTINUOUS
10
91.6237
20
-81.7513
11
91.5815
21
-81.7641
0
LINE
8
BLACK
6
CONTINUOUS
10
91.5815
20
-81.7641
11
91.5376
21
-81.7684
0
LINE
8
BLACK
6
CONTINUOUS
10
91.5376
20
-81.7684
11
91.0376
21
-81.7684
0
LINE
8
BLACK
6
CONTINUOUS
10
91.0376
20
-81.7684
11
90.9937
21
-81.7641
0
LINE
8
BLACK
6
CONTINUOUS
10
90.9937
20
-81.7641
11
90.9515
21
-81.7513
0
LINE
8
BLACK
6
CONTINUOUS
10
90.9515
20
-81.7513
11
90.9126
21
-81.7305
0
LINE
8
BLACK
6
CONTINUOUS
10
90.9126
20
-81.7305
11
90.8785
21
-81.7025
0
LINE
8
BLACK
6
CONTINUOUS
10
90.8785
20
-81.7025
11
90.8505
21
-81.6684
0
LINE
8
BLACK
6
CONTINUOUS
10
90.8505
20
-81.6684
11
90.8297
21
-81.6295
0
LINE
8
BLACK
6
CONTINUOUS
10
90.8297
20
-81.6295
11
90.8169
21
-81.5873
0
LINE
8
BLACK
6
CONTINUOUS
10
90.8169
20
-81.5873
11
90.8126
21
-81.5434
0
LINE
8
BLACK
6
CONTINUOUS
10
90.8126
20
-81.5434
11
90.8126
21
-81.0934
0
LINE
8
BLACK
6
CONTINUOUS
10
90.8126
20
-81.0934
11
90.8169
21
-81.0495
0
LINE
8
BLACK
6
CONTINUOUS
10
90.8169
20
-81.0495
11
90.8297
21
-81.0073
0
LINE
8
BLACK
6
CONTINUOUS
10
90.8297
20
-81.0073
11
90.8505
21
-80.9684
0
LINE
8
BLACK
6
CONTINUOUS
10
90.8505
20
-80.9684
11
90.8785
21
-80.9343
0
LINE
8
BLACK
6
CONTINUOUS
10
90.8785
20
-80.9343
11
90.9126
21
-80.9063
0
LINE
8
BLACK
6
CONTINUOUS
10
90.9126
20
-80.9063
11
90.9515
21
-80.8855
0
LINE
8
BLACK
6
CONTINUOUS
10
90.9515
20
-80.8855
11
90.9937
21
-80.8727
0
LINE
8
BLACK
6
CONTINUOUS
10
90.9937
20
-80.8727
11
91.0376
21
-80.8684
0
LINE
8
BLACK
6
CONTINUOUS
10
91.0376
20
-80.8684
11
91.5376
21
-80.8684
0
LINE
8
BLACK
6
CONTINUOUS
10
91.5376
20
-80.8684
11
91.5815
21
-80.8727
0
LINE
8
BLACK
6
CONTINUOUS
10
105.799
20
-80.5792
11
105.84
21
-80.5917
0
LINE
8
BLACK
6
CONTINUOUS
10
105.84
20
-80.5917
11
105.878
21
-80.6119
0
LINE
8
BLACK
6
CONTINUOUS
10
105.878
20
-80.6119
11
105.911
21
-80.6391
0
LINE
8
BLACK
6
CONTINUOUS
10
105.911
20
-80.6391
11
105.938
21
-80.6722
0
LINE
8
BLACK
6
CONTINUOUS
10
105.938
20
-80.6722
11
105.958
21
-80.71
0
LINE
8
BLACK
6
CONTINUOUS
10
105.958
20
-80.71
11
105.971
21
-80.7511
0
LINE
8
BLACK
6
CONTINUOUS
10
105.971
20
-80.7511
11
105.975
21
-80.7938
0
LINE
8
BLACK
6
CONTINUOUS
10
105.975
20
-80.7938
11
105.975
21
-81.2313
0
LINE
8
BLACK
6
CONTINUOUS
10
105.975
20
-81.2313
11
105.971
21
-81.2739
0
LINE
8
BLACK
6
CONTINUOUS
10
105.971
20
-81.2739
11
105.958
21
-81.315
0
LINE
8
BLACK
6
CONTINUOUS
10
105.958
20
-81.315
11
105.938
21
-81.3528
0
LINE
8
BLACK
6
CONTINUOUS
10
105.938
20
-81.3528
11
105.911
21
-81.3859
0
LINE
8
BLACK
6
CONTINUOUS
10
105.911
20
-81.3859
11
105.878
21
-81.4131
0
LINE
8
BLACK
6
CONTINUOUS
10
105.878
20
-81.4131
11
105.84
21
-81.4333
0
LINE
8
BLACK
6
CONTINUOUS
10
105.84
20
-81.4333
11
105.799
21
-81.4458
0
LINE
8
BLACK
6
CONTINUOUS
10
105.799
20
-81.4458
11
105.756
21
-81.45
0
LINE
8
BLACK
6
CONTINUOUS
10
105.756
20
-81.45
11
105.244
21
-81.45
0
LINE
8
BLACK
6
CONTINUOUS
10
105.244
20
-81.45
11
105.201
21
-81.4458
0
LINE
8
BLACK
6
CONTINUOUS
10
105.201
20
-81.4458
11
105.16
21
-81.4333
0
LINE
8
BLACK
6
CONTINUOUS
10
105.16
20
-81.4333
11
105.122
21
-81.4131
0
LINE
8
BLACK
6
CONTINUOUS
10
105.122
20
-81.4131
11
105.089
21
-81.3859
0
LINE
8
BLACK
6
CONTINUOUS
10
105.089
20
-81.3859
11
105.062
21
-81.3528
0
LINE
8
BLACK
6
CONTINUOUS
10
105.062
20
-81.3528
11
105.042
21
-81.315
0
LINE
8
BLACK
6
CONTINUOUS
10
105.042
20
-81.315
11
105.029
21
-81.2739
0
LINE
8
BLACK
6
CONTINUOUS
10
105.029
20
-81.2739
11
105.025
21
-81.2313
0
LINE
8
BLACK
6
CONTINUOUS
10
105.025
20
-81.2313
11
105.025
21
-80.7938
0
LINE
8
BLACK
6
CONTINUOUS
10
105.025
20
-80.7938
11
105.029
21
-80.7511
0
LINE
8
BLACK
6
CONTINUOUS
10
105.029
20
-80.7511
11
105.042
21
-80.71
0
LINE
8
BLACK
6
CONTINUOUS
10
105.042
20
-80.71
11
105.062
21
-80.6722
0
LINE
8
BLACK
6
CONTINUOUS
10
105.062
20
-80.6722
11
105.089
21
-80.6391
0
LINE
8
BLACK
6
CONTINUOUS
10
105.089
20
-80.6391
11
105.122
21
-80.6119
0
LINE
8
BLACK
6
CONTINUOUS
10
105.122
20
-80.6119
11
105.16
21
-80.5917
0
LINE
8
BLACK
6
CONTINUOUS
10
105.16
20
-80.5917
11
105.201
21
-80.5792
0
LINE
8
BLACK
6
CONTINUOUS
10
105.201
20
-80.5792
11
105.244
21
-80.575
0
LINE
8
BLACK
6
CONTINUOUS
10
105.244
20
-80.575
11
105.756
21
-80.575
0
LINE
8
BLACK
6
CONTINUOUS
10
105.756
20
-80.575
11
105.799
21
-80.5792
0
LINE
8
BLACK
6
CONTINUOUS
10
126.749
20
-79.7548
11
126.796
21
-79.769
0
LINE
8
BLACK
6
CONTINUOUS
10
126.796
20
-79.769
11
126.839
21
-79.7921
0
LINE
8
BLACK
6
CONTINUOUS
10
126.839
20
-79.7921
11
126.877
21
-79.8232
0
LINE
8
BLACK
6
CONTINUOUS
10
126.877
20
-79.8232
11
126.908
21
-79.8611
0
LINE
8
BLACK
6
CONTINUOUS
10
126.908
20
-79.8611
11
126.931
21
-79.9043
0
LINE
8
BLACK
6
CONTINUOUS
10
126.931
20
-79.9043
11
126.945
21
-79.9512
0
LINE
8
BLACK
6
CONTINUOUS
10
126.945
20
-79.9512
11
126.95
21
-80
0
LINE
8
BLACK
6
CONTINUOUS
10
126.95
20
-80
11
126.95
21
-80.9
0
LINE
8
BLACK
6
CONTINUOUS
10
126.95
20
-80.9
11
126.945
21
-80.9488
0
LINE
8
BLACK
6
CONTINUOUS
10
126.945
20
-80.9488
11
126.931
21
-80.9957
0
LINE
8
BLACK
6
CONTINUOUS
10
126.931
20
-80.9957
11
126.908
21
-81.0389
0
LINE
8
BLACK
6
CONTINUOUS
10
126.908
20
-81.0389
11
126.877
21
-81.0768
0
LINE
8
BLACK
6
CONTINUOUS
10
126.877
20
-81.0768
11
126.839
21
-81.1079
0
LINE
8
BLACK
6
CONTINUOUS
10
126.839
20
-81.1079
11
126.796
21
-81.131
0
LINE
8
BLACK
6
CONTINUOUS
10
126.796
20
-81.131
11
126.749
21
-81.1452
0
LINE
8
BLACK
6
CONTINUOUS
10
126.749
20
-81.1452
11
126.7
21
-81.15
0
LINE
8
BLACK
6
CONTINUOUS
10
126.7
20
-81.15
11
126.175
21
-81.15
0
LINE
8
BLACK
6
CONTINUOUS
10
126.175
20
-81.15
11
126.126
21
-81.1452
0
LINE
8
BLACK
6
CONTINUOUS
10
126.126
20
-81.1452
11
126.079
21
-81.131
0
LINE
8
BLACK
6
CONTINUOUS
10
126.079
20
-81.131
11
126.036
21
-81.1079
0
LINE
8
BLACK
6
CONTINUOUS
10
126.036
20
-81.1079
11
125.998
21
-81.0768
0
LINE
8
BLACK
6
CONTINUOUS
10
125.998
20
-81.0768
11
125.967
21
-81.0389
0
LINE
8
BLACK
6
CONTINUOUS
10
125.967
20
-81.0389
11
125.944
21
-80.9957
0
LINE
8
BLACK
6
CONTINUOUS
10
125.944
20
-80.9957
11
125.93
21
-80.9488
0
LINE
8
BLACK
6
CONTINUOUS
10
125.93
20
-80.9488
11
125.925
21
-80.9
0
LINE
8
BLACK
6
CONTINUOUS
10
125.925
20
-80.9
11
125.925
21
-80
0
LINE
8
BLACK
6
CONTINUOUS
10
125.925
20
-80
11
125.93
21
-79.9512
0
LINE
8
BLACK
6
CONTINUOUS
10
125.93
20
-79.9512
11
125.944
21
-79.9043
0
LINE
8
BLACK
6
CONTINUOUS
10
125.944
20
-79.9043
11
125.967
21
-79.8611
0
LINE
8
BLACK
6
CONTINUOUS
10
125.967
20
-79.8611
11
125.998
21
-79.8232
0
LINE
8
BLACK
6
CONTINUOUS
10
125.998
20
-79.8232
11
126.036
21
-79.7921
0
LINE
8
BLACK
6
CONTINUOUS
10
126.036
20
-79.7921
11
126.079
21
-79.769
0
LINE
8
BLACK
6
CONTINUOUS
10
126.079
20
-79.769
11
126.126
21
-79.7548
0
LINE
8
BLACK
6
CONTINUOUS
10
126.126
20
-79.7548
11
126.175
21
-79.75
0
LINE
8
BLACK
6
CONTINUOUS
10
126.175
20
-79.75
11
126.7
21
-79.75
0
LINE
8
BLACK
6
CONTINUOUS
10
126.7
20
-79.75
11
126.749
21
-79.7548
0
LINE
8
BLACK
6
CONTINUOUS
10
128.574
20
-79.7548
11
128.621
21
-79.769
0
LINE
8
BLACK
6
CONTINUOUS
10
128.621
20
-79.769
11
128.664
21
-79.7921
0
LINE
8
BLACK
6
CONTINUOUS
10
128.664
20
-79.7921
11
128.702
21
-79.8232
0
LINE
8
BLACK
6
CONTINUOUS
10
128.702
20
-79.8232
11
128.733
21
-79.8611
0
LINE
8
BLACK
6
CONTINUOUS
10
128.733
20
-79.8611
11
128.756
21
-79.9043
0
LINE
8
BLACK
6
CONTINUOUS
10
128.756
20
-79.9043
11
128.77
21
-79.9512
0
LINE
8
BLACK
6
CONTINUOUS
10
128.77
20
-79.9512
11
128.775
21
-80
0
LINE
8
BLACK
6
CONTINUOUS
10
128.775
20
-80
11
128.775
21
-80.9
0
LINE
8
BLACK
6
CONTINUOUS
10
128.775
20
-80.9
11
128.77
21
-80.9488
0
LINE
8
BLACK
6
CONTINUOUS
10
128.77
20
-80.9488
11
128.756
21
-80.9957
0
LINE
8
BLACK
6
CONTINUOUS
10
128.756
20
-80.9957
11
128.733
21
-81.0389
0
LINE
8
BLACK
6
CONTINUOUS
10
128.733
20
-81.0389
11
128.702
21
-81.0768
0
LINE
8
BLACK
6
CONTINUOUS
10
128.702
20
-81.0768
11
128.664
21
-81.1079
0
LINE
8
BLACK
6
CONTINUOUS
10
128.664
20
-81.1079
11
128.621
21
-81.131
0
LINE
8
BLACK
6
CONTINUOUS
10
128.621
20
-81.131
11
128.574
21
-81.1452
0
LINE
8
BLACK
6
CONTINUOUS
10
128.574
20
-81.1452
11
128.525
21
-81.15
0
LINE
8
BLACK
6
CONTINUOUS
10
128.525
20
-81.15
11
128
21
-81.15
0
LINE
8
BLACK
6
CONTINUOUS
10
128
20
-81.15
11
127.951
21
-81.1452
0
LINE
8
BLACK
6
CONTINUOUS
10
127.951
20
-81.1452
11
127.904
21
-81.131
0
LINE
8
BLACK
6
CONTINUOUS
10
127.904
20
-81.131
11
127.861
21
-81.1079
0
LINE
8
BLACK
6
CONTINUOUS
10
127.861
20
-81.1079
11
127.823
21
-81.0768
0
LINE
8
BLACK
6
CONTINUOUS
10
127.823
20
-81.0768
11
127.792
21
-81.0389
0
LINE
8
BLACK
6
CONTINUOUS
10
127.792
20
-81.0389
11
127.769
21
-80.9957
0
LINE
8
BLACK
6
CONTINUOUS
10
127.769
20
-80.9957
11
127.755
21
-80.9488
0
LINE
8
BLACK
6
CONTINUOUS
10
127.755
20
-80.9488
11
127.75
21
-80.9
0
LINE
8
BLACK
6
CONTINUOUS
10
127.75
20
-80.9
11
127.75
21
-80
0
LINE
8
BLACK
6
CONTINUOUS
10
127.75
20
-80
11
127.755
21
-79.9512
0
LINE
8
BLACK
6
CONTINUOUS
10
127.755
20
-79.9512
11
127.769
21
-79.9043
0
LINE
8
BLACK
6
CONTINUOUS
10
127.769
20
-79.9043
11
127.792
21
-79.8611
0
LINE
8
BLACK
6
CONTINUOUS
10
127.792
20
-79.8611
11
127.823
21
-79.8232
0
LINE
8
BLACK
6
CONTINUOUS
10
127.823
20
-79.8232
11
127.861
21
-79.7921
0
LINE
8
BLACK
6
CONTINUOUS
10
127.861
20
-79.7921
11
127.904
21
-79.769
0
LINE
8
BLACK
6
CONTINUOUS
10
127.904
20
-79.769
11
127.951
21
-79.7548
0
LINE
8
BLACK
6
CONTINUOUS
10
127.951
20
-79.7548
11
128
21
-79.75
0
LINE
8
BLACK
6
CONTINUOUS
10
128
20
-79.75
11
128.525
21
-79.75
0
LINE
8
BLACK
6
CONTINUOUS
10
128.525
20
-79.75
11
128.574
21
-79.7548
0
LINE
8
BLACK
6
CONTINUOUS
10
93.791
20
-81.1478
11
92.731
21
-81.1478
0
LINE
8
BLACK
6
CONTINUOUS
10
92.731
20
-81.1478
11
92.731
21
-80.4978
0
LINE
8
BLACK
6
CONTINUOUS
10
92.731
20
-80.4978
11
93.791
21
-80.4978
0
LINE
8
BLACK
6
CONTINUOUS
10
93.791
20
-80.4978
11
93.791
21
-81.1478
0
LINE
8
BLACK
6
CONTINUOUS
10
117.376
20
-81.1193
11
116.826
21
-81.1193
0
LINE
8
BLACK
6
CONTINUOUS
10
116.826
20
-81.1193
11
116.826
21
-79.5193
0
LINE
8
BLACK
6
CONTINUOUS
10
116.826
20
-79.5193
11
117.376
21
-79.5193
0
LINE
8
BLACK
6
CONTINUOUS
10
117.376
20
-79.5193
11
117.376
21
-81.1193
0
LINE
8
BLACK
6
CONTINUOUS
10
118.176
20
-81.1193
11
117.626
21
-81.1193
0
LINE
8
BLACK
6
CONTINUOUS
10
117.626
20
-81.1193
11
117.626
21
-79.5193
0
LINE
8
BLACK
6
CONTINUOUS
10
117.626
20
-79.5193
11
118.176
21
-79.5193
0
LINE
8
BLACK
6
CONTINUOUS
10
118.176
20
-79.5193
11
118.176
21
-81.1193
0
LINE
8
BLACK
6
CONTINUOUS
10
118.976
20
-81.1193
11
118.426
21
-81.1193
0
LINE
8
BLACK
6
CONTINUOUS
10
118.426
20
-81.1193
11
118.426
21
-79.5193
0
LINE
8
BLACK
6
CONTINUOUS
10
118.426
20
-79.5193
11
118.976
21
-79.5193
0
LINE
8
BLACK
6
CONTINUOUS
10
118.976
20
-79.5193
11
118.976
21
-81.1193
0
LINE
8
BLACK
6
CONTINUOUS
10
119.776
20
-81.1193
11
119.226
21
-81.1193
0
LINE
8
BLACK
6
CONTINUOUS
10
119.226
20
-81.1193
11
119.226
21
-79.5193
0
LINE
8
BLACK
6
CONTINUOUS
10
119.226
20
-79.5193
11
119.776
21
-79.5193
0
LINE
8
BLACK
6
CONTINUOUS
10
119.776
20
-79.5193
11
119.776
21
-81.1193
0
LINE
8
BLACK
6
CONTINUOUS
10
120.576
20
-81.1193
11
120.026
21
-81.1193
0
LINE
8
BLACK
6
CONTINUOUS
10
120.026
20
-81.1193
11
120.026
21
-79.5193
0
LINE
8
BLACK
6
CONTINUOUS
10
120.026
20
-79.5193
11
120.576
21
-79.5193
0
LINE
8
BLACK
6
CONTINUOUS
10
120.576
20
-79.5193
11
120.576
21
-81.1193
0
LINE
8
BLACK
6
CONTINUOUS
10
121.376
20
-81.1193
11
120.826
21
-81.1193
0
LINE
8
BLACK
6
CONTINUOUS
10
120.826
20
-81.1193
11
120.826
21
-79.5193
0
LINE
8
BLACK
6
CONTINUOUS
10
120.826
20
-79.5193
11
121.376
21
-79.5193
0
LINE
8
BLACK
6
CONTINUOUS
10
121.376
20
-79.5193
11
121.376
21
-81.1193
0
LINE
8
BLACK
6
CONTINUOUS
10
122.176
20
-81.1193
11
121.626
21
-81.1193
0
LINE
8
BLACK
6
CONTINUOUS
10
121.626
20
-81.1193
11
121.626
21
-79.5193
0
LINE
8
BLACK
6
CONTINUOUS
10
121.626
20
-79.5193
11
122.176
21
-79.5193
0
LINE
8
BLACK
6
CONTINUOUS
10
122.176
20
-79.5193
11
122.176
21
-81.1193
0
LINE
8
BLACK
6
CONTINUOUS
10
122.976
20
-81.1193
11
122.426
21
-81.1193
0
LINE
8
BLACK
6
CONTINUOUS
10
122.426
20
-81.1193
11
122.426
21
-79.5193
0
LINE
8
BLACK
6
CONTINUOUS
10
122.426
20
-79.5193
11
122.976
21
-79.5193
0
LINE
8
BLACK
6
CONTINUOUS
10
122.976
20
-79.5193
11
122.976
21
-81.1193
0
LINE
8
BLACK
6
CONTINUOUS
10
102.196
20
-78.1005
11
102.241
21
-78.1139
0
LINE
8
BLACK
6
CONTINUOUS
10
102.241
20
-78.1139
11
102.281
21
-78.1356
0
LINE
8
BLACK
6
CONTINUOUS
10
102.281
20
-78.1356
11
102.317
21
-78.1648
0
LINE
8
BLACK
6
CONTINUOUS
10
102.317
20
-78.1648
11
102.346
21
-78.2004
0
LINE
8
BLACK
6
CONTINUOUS
10
102.346
20
-78.2004
11
102.368
21
-78.2411
0
LINE
8
BLACK
6
CONTINUOUS
10
102.368
20
-78.2411
11
102.381
21
-78.2852
0
LINE
8
BLACK
6
CONTINUOUS
10
102.381
20
-78.2852
11
102.386
21
-78.331
0
LINE
8
BLACK
6
CONTINUOUS
10
102.386
20
-78.331
11
102.386
21
-80.211
0
LINE
8
BLACK
6
CONTINUOUS
10
102.386
20
-80.211
11
102.381
21
-80.2568
0
LINE
8
BLACK
6
CONTINUOUS
10
102.381
20
-80.2568
11
102.368
21
-80.3009
0
LINE
8
BLACK
6
CONTINUOUS
10
102.368
20
-80.3009
11
102.346
21
-80.3416
0
LINE
8
BLACK
6
CONTINUOUS
10
102.346
20
-80.3416
11
102.317
21
-80.3772
0
LINE
8
BLACK
6
CONTINUOUS
10
102.317
20
-80.3772
11
102.281
21
-80.4064
0
LINE
8
BLACK
6
CONTINUOUS
10
102.281
20
-80.4064
11
102.241
21
-80.4281
0
LINE
8
BLACK
6
CONTINUOUS
10
102.241
20
-80.4281
11
102.196
21
-80.4415
0
LINE
8
BLACK
6
CONTINUOUS
10
102.196
20
-80.4415
11
102.151
21
-80.446
0
LINE
8
BLACK
6
CONTINUOUS
10
102.151
20
-80.446
11
99.2206
21
-80.446
0
LINE
8
BLACK
6
CONTINUOUS
10
99.2206
20
-80.446
11
99.1748
21
-80.4415
0
LINE
8
BLACK
6
CONTINUOUS
10
99.1748
20
-80.4415
11
99.1307
21
-80.4281
0
LINE
8
BLACK
6
CONTINUOUS
10
99.1307
20
-80.4281
11
99.09
21
-80.4064
0
LINE
8
BLACK
6
CONTINUOUS
10
99.09
20
-80.4064
11
99.0544
21
-80.3772
0
LINE
8
BLACK
6
CONTINUOUS
10
99.0544
20
-80.3772
11
99.0252
21
-80.3416
0
LINE
8
BLACK
6
CONTINUOUS
10
99.0252
20
-80.3416
11
99.0035
21
-80.3009
0
LINE
8
BLACK
6
CONTINUOUS
10
99.0035
20
-80.3009
11
98.9901
21
-80.2568
0
LINE
8
BLACK
6
CONTINUOUS
10
98.9901
20
-80.2568
11
98.9856
21
-80.211
0
LINE
8
BLACK
6
CONTINUOUS
10
98.9856
20
-80.211
11
98.9856
21
-78.331
0
LINE
8
BLACK
6
CONTINUOUS
10
98.9856
20
-78.331
11
98.9901
21
-78.2852
0
LINE
8
BLACK
6
CONTINUOUS
10
98.9901
20
-78.2852
11
99.0035
21
-78.2411
0
LINE
8
BLACK
6
CONTINUOUS
10
99.0035
20
-78.2411
11
99.0252
21
-78.2004
0
LINE
8
BLACK
6
CONTINUOUS
10
99.0252
20
-78.2004
11
99.0544
21
-78.1648
0
LINE
8
BLACK
6
CONTINUOUS
10
99.0544
20
-78.1648
11
99.09
21
-78.1356
0
LINE
8
BLACK
6
CONTINUOUS
10
99.09
20
-78.1356
11
99.1307
21
-78.1139
0
LINE
8
BLACK
6
CONTINUOUS
10
99.1307
20
-78.1139
11
99.1748
21
-78.1005
0
LINE
8
BLACK
6
CONTINUOUS
10
99.1748
20
-78.1005
11
99.2206
21
-78.096
0
LINE
8
BLACK
6
CONTINUOUS
10
99.2206
20
-78.096
11
102.151
21
-78.096
0
LINE
8
BLACK
6
CONTINUOUS
10
102.151
20
-78.096
11
102.196
21
-78.1005
0
LINE
8
BLACK
6
CONTINUOUS
10
108.396
20
-79.5129
11
108.439
21
-79.5257
0
LINE
8
BLACK
6
CONTINUOUS
10
108.439
20
-79.5257
11
108.477
21
-79.5465
0
LINE
8
BLACK
6
CONTINUOUS
10
108.477
20
-79.5465
11
108.511
21
-79.5745
0
LINE
8
BLACK
6
CONTINUOUS
10
108.511
20
-79.5745
11
108.539
21
-79.6086
0
LINE
8
BLACK
6
CONTINUOUS
10
108.539
20
-79.6086
11
108.56
21
-79.6475
0
LINE
8
BLACK
6
CONTINUOUS
10
108.56
20
-79.6475
11
108.573
21
-79.6897
0
LINE
8
BLACK
6
CONTINUOUS
10
108.573
20
-79.6897
11
108.577
21
-79.7336
0
LINE
8
BLACK
6
CONTINUOUS
10
108.577
20
-79.7336
11
108.577
21
-80.1836
0
LINE
8
BLACK
6
CONTINUOUS
10
108.577
20
-80.1836
11
108.573
21
-80.2275
0
LINE
8
BLACK
6
CONTINUOUS
10
108.573
20
-80.2275
11
108.56
21
-80.2697
0
LINE
8
BLACK
6
CONTINUOUS
10
108.56
20
-80.2697
11
108.539
21
-80.3086
0
LINE
8
BLACK
6
CONTINUOUS
10
108.539
20
-80.3086
11
108.511
21
-80.3427
0
LINE
8
BLACK
6
CONTINUOUS
10
108.511
20
-80.3427
11
108.477
21
-80.3707
0
LINE
8
BLACK
6
CONTINUOUS
10
108.477
20
-80.3707
11
108.439
21
-80.3915
0
LINE
8
BLACK
6
CONTINUOUS
10
108.439
20
-80.3915
11
108.396
21
-80.4043
0
LINE
8
BLACK
6
CONTINUOUS
10
108.396
20
-80.4043
11
108.352
21
-80.4086
0
LINE
8
BLACK
6
CONTINUOUS
10
108.352
20
-80.4086
11
107.852
21
-80.4086
0
LINE
8
BLACK
6
CONTINUOUS
10
107.852
20
-80.4086
11
107.809
21
-80.4043
0
LINE
8
BLACK
6
CONTINUOUS
10
107.809
20
-80.4043
11
107.766
21
-80.3915
0
LINE
8
BLACK
6
CONTINUOUS
10
107.766
20
-80.3915
11
107.727
21
-80.3707
0
LINE
8
BLACK
6
CONTINUOUS
10
107.727
20
-80.3707
11
107.693
21
-80.3427
0
LINE
8
BLACK
6
CONTINUOUS
10
107.693
20
-80.3427
11
107.665
21
-80.3086
0
LINE
8
BLACK
6
CONTINUOUS
10
107.665
20
-80.3086
11
107.645
21
-80.2697
0
LINE
8
BLACK
6
CONTINUOUS
10
107.645
20
-80.2697
11
107.632
21
-80.2275
0
LINE
8
BLACK
6
CONTINUOUS
10
107.632
20
-80.2275
11
107.627
21
-80.1836
0
LINE
8
BLACK
6
CONTINUOUS
10
107.627
20
-80.1836
11
107.627
21
-79.7336
0
LINE
8
BLACK
6
CONTINUOUS
10
107.627
20
-79.7336
11
107.632
21
-79.6897
0
LINE
8
BLACK
6
CONTINUOUS
10
107.632
20
-79.6897
11
107.645
21
-79.6475
0
LINE
8
BLACK
6
CONTINUOUS
10
107.645
20
-79.6475
11
107.665
21
-79.6086
0
LINE
8
BLACK
6
CONTINUOUS
10
107.665
20
-79.6086
11
107.693
21
-79.5745
0
LINE
8
BLACK
6
CONTINUOUS
10
107.693
20
-79.5745
11
107.727
21
-79.5465
0
LINE
8
BLACK
6
CONTINUOUS
10
107.727
20
-79.5465
11
107.766
21
-79.5257
0
LINE
8
BLACK
6
CONTINUOUS
10
107.766
20
-79.5257
11
107.809
21
-79.5129
0
LINE
8
BLACK
6
CONTINUOUS
10
107.809
20
-79.5129
11
107.852
21
-79.5086
0
LINE
8
BLACK
6
CONTINUOUS
10
107.852
20
-79.5086
11
108.352
21
-79.5086
0
LINE
8
BLACK
6
CONTINUOUS
10
108.352
20
-79.5086
11
108.396
21
-79.5129
0
LINE
8
BLACK
6
CONTINUOUS
10
91.5815
20
-79.3227
11
91.6237
21
-79.3355
0
LINE
8
BLACK
6
CONTINUOUS
10
91.6237
20
-79.3355
11
91.6626
21
-79.3563
0
LINE
8
BLACK
6
CONTINUOUS
10
91.6626
20
-79.3563
11
91.6967
21
-79.3843
0
LINE
8
BLACK
6
CONTINUOUS
10
91.6967
20
-79.3843
11
91.7247
21
-79.4184
0
LINE
8
BLACK
6
CONTINUOUS
10
91.7247
20
-79.4184
11
91.7455
21
-79.4573
0
LINE
8
BLACK
6
CONTINUOUS
10
91.7455
20
-79.4573
11
91.7583
21
-79.4995
0
LINE
8
BLACK
6
CONTINUOUS
10
91.7583
20
-79.4995
11
91.7626
21
-79.5434
0
LINE
8
BLACK
6
CONTINUOUS
10
91.7626
20
-79.5434
11
91.7626
21
-79.9934
0
LINE
8
BLACK
6
CONTINUOUS
10
91.7626
20
-79.9934
11
91.7583
21
-80.0373
0
LINE
8
BLACK
6
CONTINUOUS
10
91.7583
20
-80.0373
11
91.7455
21
-80.0795
0
LINE
8
BLACK
6
CONTINUOUS
10
91.7455
20
-80.0795
11
91.7247
21
-80.1184
0
LINE
8
BLACK
6
CONTINUOUS
10
91.7247
20
-80.1184
11
91.6967
21
-80.1525
0
LINE
8
BLACK
6
CONTINUOUS
10
91.6967
20
-80.1525
11
91.6626
21
-80.1805
0
LINE
8
BLACK
6
CONTINUOUS
10
91.6626
20
-80.1805
11
91.6237
21
-80.2013
0
LINE
8
BLACK
6
CONTINUOUS
10
91.6237
20
-80.2013
11
91.5815
21
-80.2141
0
LINE
8
BLACK
6
CONTINUOUS
10
91.5815
20
-80.2141
11
91.5376
21
-80.2184
0
LINE
8
BLACK
6
CONTINUOUS
10
91.5376
20
-80.2184
11
91.0376
21
-80.2184
0
LINE
8
BLACK
6
CONTINUOUS
10
91.0376
20
-80.2184
11
90.9937
21
-80.2141
0
LINE
8
BLACK
6
CONTINUOUS
10
90.9937
20
-80.2141
11
90.9515
21
-80.2013
0
LINE
8
BLACK
6
CONTINUOUS
10
90.9515
20
-80.2013
11
90.9126
21
-80.1805
0
LINE
8
BLACK
6
CONTINUOUS
10
90.9126
20
-80.1805
11
90.8785
21
-80.1525
0
LINE
8
BLACK
6
CONTINUOUS
10
90.8785
20
-80.1525
11
90.8505
21
-80.1184
0
LINE
8
BLACK
6
CONTINUOUS
10
90.8505
20
-80.1184
11
90.8297
21
-80.0795
0
LINE
8
BLACK
6
CONTINUOUS
10
90.8297
20
-80.0795
11
90.8169
21
-80.0373
0
LINE
8
BLACK
6
CONTINUOUS
10
90.8169
20
-80.0373
11
90.8126
21
-79.9934
0
LINE
8
BLACK
6
CONTINUOUS
10
90.8126
20
-79.9934
11
90.8126
21
-79.5434
0
LINE
8
BLACK
6
CONTINUOUS
10
90.8126
20
-79.5434
11
90.8169
21
-79.4995
0
LINE
8
BLACK
6
CONTINUOUS
10
90.8169
20
-79.4995
11
90.8297
21
-79.4573
0
LINE
8
BLACK
6
CONTINUOUS
10
90.8297
20
-79.4573
11
90.8505
21
-79.4184
0
LINE
8
BLACK
6
CONTINUOUS
10
90.8505
20
-79.4184
11
90.8785
21
-79.3843
0
LINE
8
BLACK
6
CONTINUOUS
10
90.8785
20
-79.3843
11
90.9126
21
-79.3563
0
LINE
8
BLACK
6
CONTINUOUS
10
90.9126
20
-79.3563
11
90.9515
21
-79.3355
0
LINE
8
BLACK
6
CONTINUOUS
10
90.9515
20
-79.3355
11
90.9937
21
-79.3227
0
LINE
8
BLACK
6
CONTINUOUS
10
90.9937
20
-79.3227
11
91.0376
21
-79.3184
0
LINE
8
BLACK
6
CONTINUOUS
10
91.0376
20
-79.3184
11
91.5376
21
-79.3184
0
LINE
8
BLACK
6
CONTINUOUS
10
91.5376
20
-79.3184
11
91.5815
21
-79.3227
0
LINE
8
BLACK
6
CONTINUOUS
10
93.791
20
-80.1978
11
92.731
21
-80.1978
0
LINE
8
BLACK
6
CONTINUOUS
10
92.731
20
-80.1978
11
92.731
21
-79.5478
0
LINE
8
BLACK
6
CONTINUOUS
10
92.731
20
-79.5478
11
93.791
21
-79.5478
0
LINE
8
BLACK
6
CONTINUOUS
10
93.791
20
-79.5478
11
93.791
21
-80.1978
0
LINE
8
BLACK
6
CONTINUOUS
10
95.991
20
-80.1978
11
94.931
21
-80.1978
0
LINE
8
BLACK
6
CONTINUOUS
10
94.931
20
-80.1978
11
94.931
21
-79.5478
0
LINE
8
BLACK
6
CONTINUOUS
10
94.931
20
-79.5478
11
95.991
21
-79.5478
0
LINE
8
BLACK
6
CONTINUOUS
10
95.991
20
-79.5478
11
95.991
21
-80.1978
0
LINE
8
BLACK
6
CONTINUOUS
10
123.332
20
-77.6343
11
123.374
21
-77.6471
0
LINE
8
BLACK
6
CONTINUOUS
10
123.374
20
-77.6471
11
123.413
21
-77.6679
0
LINE
8
BLACK
6
CONTINUOUS
10
123.413
20
-77.6679
11
123.447
21
-77.6959
0
LINE
8
BLACK
6
CONTINUOUS
10
123.447
20
-77.6959
11
123.475
21
-77.73
0
LINE
8
BLACK
6
CONTINUOUS
10
123.475
20
-77.73
11
123.496
21
-77.7689
0
LINE
8
BLACK
6
CONTINUOUS
10
123.496
20
-77.7689
11
123.509
21
-77.8111
0
LINE
8
BLACK
6
CONTINUOUS
10
123.509
20
-77.8111
11
123.513
21
-77.855
0
LINE
8
BLACK
6
CONTINUOUS
10
123.513
20
-77.855
11
123.513
21
-78.355
0
LINE
8
BLACK
6
CONTINUOUS
10
123.513
20
-78.355
11
123.509
21
-78.3989
0
LINE
8
BLACK
6
CONTINUOUS
10
123.509
20
-78.3989
11
123.496
21
-78.4411
0
LINE
8
BLACK
6
CONTINUOUS
10
123.496
20
-78.4411
11
123.475
21
-78.48
0
LINE
8
BLACK
6
CONTINUOUS
10
123.475
20
-78.48
11
123.447
21
-78.5141
0
LINE
8
BLACK
6
CONTINUOUS
10
123.447
20
-78.5141
11
123.413
21
-78.5421
0
LINE
8
BLACK
6
CONTINUOUS
10
123.413
20
-78.5421
11
123.374
21
-78.5629
0
LINE
8
BLACK
6
CONTINUOUS
10
123.374
20
-78.5629
11
123.332
21
-78.5757
0
LINE
8
BLACK
6
CONTINUOUS
10
123.332
20
-78.5757
11
123.288
21
-78.58
0
LINE
8
BLACK
6
CONTINUOUS
10
123.288
20
-78.58
11
122.838
21
-78.58
0
LINE
8
BLACK
6
CONTINUOUS
10
122.838
20
-78.58
11
122.794
21
-78.5757
0
LINE
8
BLACK
6
CONTINUOUS
10
122.794
20
-78.5757
11
122.752
21
-78.5629
0
LINE
8
BLACK
6
CONTINUOUS
10
122.752
20
-78.5629
11
122.713
21
-78.5421
0
LINE
8
BLACK
6
CONTINUOUS
10
122.713
20
-78.5421
11
122.679
21
-78.5141
0
LINE
8
BLACK
6
CONTINUOUS
10
122.679
20
-78.5141
11
122.651
21
-78.48
0
LINE
8
BLACK
6
CONTINUOUS
10
122.651
20
-78.48
11
122.63
21
-78.4411
0
LINE
8
BLACK
6
CONTINUOUS
10
122.63
20
-78.4411
11
122.617
21
-78.3989
0
LINE
8
BLACK
6
CONTINUOUS
10
122.617
20
-78.3989
11
122.613
21
-78.355
0
LINE
8
BLACK
6
CONTINUOUS
10
122.613
20
-78.355
11
122.613
21
-77.855
0
LINE
8
BLACK
6
CONTINUOUS
10
122.613
20
-77.855
11
122.617
21
-77.8111
0
LINE
8
BLACK
6
CONTINUOUS
10
122.617
20
-77.8111
11
122.63
21
-77.7689
0
LINE
8
BLACK
6
CONTINUOUS
10
122.63
20
-77.7689
11
122.651
21
-77.73
0
LINE
8
BLACK
6
CONTINUOUS
10
122.651
20
-77.73
11
122.679
21
-77.6959
0
LINE
8
BLACK
6
CONTINUOUS
10
122.679
20
-77.6959
11
122.713
21
-77.6679
0
LINE
8
BLACK
6
CONTINUOUS
10
122.713
20
-77.6679
11
122.752
21
-77.6471
0
LINE
8
BLACK
6
CONTINUOUS
10
122.752
20
-77.6471
11
122.794
21
-77.6343
0
LINE
8
BLACK
6
CONTINUOUS
10
122.794
20
-77.6343
11
122.838
21
-77.63
0
LINE
8
BLACK
6
CONTINUOUS
10
122.838
20
-77.63
11
123.288
21
-77.63
0
LINE
8
BLACK
6
CONTINUOUS
10
123.288
20
-77.63
11
123.332
21
-77.6343
0
LINE
8
BLACK
6
CONTINUOUS
10
121.782
20
-77.6343
11
121.824
21
-77.6471
0
LINE
8
BLACK
6
CONTINUOUS
10
121.824
20
-77.6471
11
121.863
21
-77.6679
0
LINE
8
BLACK
6
CONTINUOUS
10
121.863
20
-77.6679
11
121.897
21
-77.6959
0
LINE
8
BLACK
6
CONTINUOUS
10
121.897
20
-77.6959
11
121.925
21
-77.73
0
LINE
8
BLACK
6
CONTINUOUS
10
121.925
20
-77.73
11
121.946
21
-77.7689
0
LINE
8
BLACK
6
CONTINUOUS
10
121.946
20
-77.7689
11
121.959
21
-77.8111
0
LINE
8
BLACK
6
CONTINUOUS
10
121.959
20
-77.8111
11
121.963
21
-77.855
0
LINE
8
BLACK
6
CONTINUOUS
10
121.963
20
-77.855
11
121.963
21
-78.355
0
LINE
8
BLACK
6
CONTINUOUS
10
121.963
20
-78.355
11
121.959
21
-78.3989
0
LINE
8
BLACK
6
CONTINUOUS
10
121.959
20
-78.3989
11
121.946
21
-78.4411
0
LINE
8
BLACK
6
CONTINUOUS
10
121.946
20
-78.4411
11
121.925
21
-78.48
0
LINE
8
BLACK
6
CONTINUOUS
10
121.925
20
-78.48
11
121.897
21
-78.5141
0
LINE
8
BLACK
6
CONTINUOUS
10
121.897
20
-78.5141
11
121.863
21
-78.5421
0
LINE
8
BLACK
6
CONTINUOUS
10
121.863
20
-78.5421
11
121.824
21
-78.5629
0
LINE
8
BLACK
6
CONTINUOUS
10
121.824
20
-78.5629
11
121.782
21
-78.5757
0
LINE
8
BLACK
6
CONTINUOUS
10
121.782
20
-78.5757
11
121.738
21
-78.58
0
LINE
8
BLACK
6
CONTINUOUS
10
121.738
20
-78.58
11
121.288
21
-78.58
0
LINE
8
BLACK
6
CONTINUOUS
10
121.288
20
-78.58
11
121.244
21
-78.5757
0
LINE
8
BLACK
6
CONTINUOUS
10
121.244
20
-78.5757
11
121.202
21
-78.5629
0
LINE
8
BLACK
6
CONTINUOUS
10
121.202
20
-78.5629
11
121.163
21
-78.5421
0
LINE
8
BLACK
6
CONTINUOUS
10
121.163
20
-78.5421
11
121.129
21
-78.5141
0
LINE
8
BLACK
6
CONTINUOUS
10
121.129
20
-78.5141
11
121.101
21
-78.48
0
LINE
8
BLACK
6
CONTINUOUS
10
121.101
20
-78.48
11
121.08
21
-78.4411
0
LINE
8
BLACK
6
CONTINUOUS
10
121.08
20
-78.4411
11
121.067
21
-78.3989
0
LINE
8
BLACK
6
CONTINUOUS
10
121.067
20
-78.3989
11
121.063
21
-78.355
0
LINE
8
BLACK
6
CONTINUOUS
10
121.063
20
-78.355
11
121.063
21
-77.855
0
LINE
8
BLACK
6
CONTINUOUS
10
121.063
20
-77.855
11
121.067
21
-77.8111
0
LINE
8
BLACK
6
CONTINUOUS
10
121.067
20
-77.8111
11
121.08
21
-77.7689
0
LINE
8
BLACK
6
CONTINUOUS
10
121.08
20
-77.7689
11
121.101
21
-77.73
0
LINE
8
BLACK
6
CONTINUOUS
10
121.101
20
-77.73
11
121.129
21
-77.6959
0
LINE
8
BLACK
6
CONTINUOUS
10
121.129
20
-77.6959
11
121.163
21
-77.6679
0
LINE
8
BLACK
6
CONTINUOUS
10
121.163
20
-77.6679
11
121.202
21
-77.6471
0
LINE
8
BLACK
6
CONTINUOUS
10
121.202
20
-77.6471
11
121.244
21
-77.6343
0
LINE
8
BLACK
6
CONTINUOUS
10
121.244
20
-77.6343
11
121.288
21
-77.63
0
LINE
8
BLACK
6
CONTINUOUS
10
121.288
20
-77.63
11
121.738
21
-77.63
0
LINE
8
BLACK
6
CONTINUOUS
10
121.738
20
-77.63
11
121.782
21
-77.6343
0
LINE
8
BLACK
6
CONTINUOUS
10
119.967
20
-77.6089
11
120.009
21
-77.6217
0
LINE
8
BLACK
6
CONTINUOUS
10
120.009
20
-77.6217
11
120.048
21
-77.6425
0
LINE
8
BLACK
6
CONTINUOUS
10
120.048
20
-77.6425
11
120.082
21
-77.6705
0
LINE
8
BLACK
6
CONTINUOUS
10
120.082
20
-77.6705
11
120.11
21
-77.7046
0
LINE
8
BLACK
6
CONTINUOUS
10
120.11
20
-77.7046
11
120.131
21
-77.7435
0
LINE
8
BLACK
6
CONTINUOUS
10
120.131
20
-77.7435
11
120.143
21
-77.7857
0
LINE
8
BLACK
6
CONTINUOUS
10
120.143
20
-77.7857
11
120.148
21
-77.8296
0
LINE
8
BLACK
6
CONTINUOUS
10
120.148
20
-77.8296
11
120.148
21
-78.3296
0
LINE
8
BLACK
6
CONTINUOUS
10
120.148
20
-78.3296
11
120.143
21
-78.3735
0
LINE
8
BLACK
6
CONTINUOUS
10
120.143
20
-78.3735
11
120.131
21
-78.4157
0
LINE
8
BLACK
6
CONTINUOUS
10
120.131
20
-78.4157
11
120.11
21
-78.4546
0
LINE
8
BLACK
6
CONTINUOUS
10
120.11
20
-78.4546
11
120.082
21
-78.4887
0
LINE
8
BLACK
6
CONTINUOUS
10
120.082
20
-78.4887
11
120.048
21
-78.5167
0
LINE
8
BLACK
6
CONTINUOUS
10
120.048
20
-78.5167
11
120.009
21
-78.5375
0
LINE
8
BLACK
6
CONTINUOUS
10
120.009
20
-78.5375
11
119.967
21
-78.5503
0
LINE
8
BLACK
6
CONTINUOUS
10
119.967
20
-78.5503
11
119.923
21
-78.5546
0
LINE
8
BLACK
6
CONTINUOUS
10
119.923
20
-78.5546
11
119.473
21
-78.5546
0
LINE
8
BLACK
6
CONTINUOUS
10
119.473
20
-78.5546
11
119.429
21
-78.5503
0
LINE
8
BLACK
6
CONTINUOUS
10
119.429
20
-78.5503
11
119.387
21
-78.5375
0
LINE
8
BLACK
6
CONTINUOUS
10
119.387
20
-78.5375
11
119.348
21
-78.5167
0
LINE
8
BLACK
6
CONTINUOUS
10
119.348
20
-78.5167
11
119.314
21
-78.4887
0
LINE
8
BLACK
6
CONTINUOUS
10
119.314
20
-78.4887
11
119.286
21
-78.4546
0
LINE
8
BLACK
6
CONTINUOUS
10
119.286
20
-78.4546
11
119.265
21
-78.4157
0
LINE
8
BLACK
6
CONTINUOUS
10
119.265
20
-78.4157
11
119.252
21
-78.3735
0
LINE
8
BLACK
6
CONTINUOUS
10
119.252
20
-78.3735
11
119.248
21
-78.3296
0
LINE
8
BLACK
6
CONTINUOUS
10
119.248
20
-78.3296
11
119.248
21
-77.8296
0
LINE
8
BLACK
6
CONTINUOUS
10
119.248
20
-77.8296
11
119.252
21
-77.7857
0
LINE
8
BLACK
6
CONTINUOUS
10
119.252
20
-77.7857
11
119.265
21
-77.7435
0
LINE
8
BLACK
6
CONTINUOUS
10
119.265
20
-77.7435
11
119.286
21
-77.7046
0
LINE
8
BLACK
6
CONTINUOUS
10
119.286
20
-77.7046
11
119.314
21
-77.6705
0
LINE
8
BLACK
6
CONTINUOUS
10
119.314
20
-77.6705
11
119.348
21
-77.6425
0
LINE
8
BLACK
6
CONTINUOUS
10
119.348
20
-77.6425
11
119.387
21
-77.6217
0
LINE
8
BLACK
6
CONTINUOUS
10
119.387
20
-77.6217
11
119.429
21
-77.6089
0
LINE
8
BLACK
6
CONTINUOUS
10
119.429
20
-77.6089
11
119.473
21
-77.6046
0
LINE
8
BLACK
6
CONTINUOUS
10
119.473
20
-77.6046
11
119.923
21
-77.6046
0
LINE
8
BLACK
6
CONTINUOUS
10
119.923
20
-77.6046
11
119.967
21
-77.6089
0
LINE
8
BLACK
6
CONTINUOUS
10
118.417
20
-77.6089
11
118.459
21
-77.6217
0
LINE
8
BLACK
6
CONTINUOUS
10
118.459
20
-77.6217
11
118.498
21
-77.6425
0
LINE
8
BLACK
6
CONTINUOUS
10
118.498
20
-77.6425
11
118.532
21
-77.6705
0
LINE
8
BLACK
6
CONTINUOUS
10
118.532
20
-77.6705
11
118.56
21
-77.7046
0
LINE
8
BLACK
6
CONTINUOUS
10
118.56
20
-77.7046
11
118.581
21
-77.7435
0
LINE
8
BLACK
6
CONTINUOUS
10
118.581
20
-77.7435
11
118.593
21
-77.7857
0
LINE
8
BLACK
6
CONTINUOUS
10
118.593
20
-77.7857
11
118.598
21
-77.8296
0
LINE
8
BLACK
6
CONTINUOUS
10
118.598
20
-77.8296
11
118.598
21
-78.3296
0
LINE
8
BLACK
6
CONTINUOUS
10
118.598
20
-78.3296
11
118.593
21
-78.3735
0
LINE
8
BLACK
6
CONTINUOUS
10
118.593
20
-78.3735
11
118.581
21
-78.4157
0
LINE
8
BLACK
6
CONTINUOUS
10
118.581
20
-78.4157
11
118.56
21
-78.4546
0
LINE
8
BLACK
6
CONTINUOUS
10
118.56
20
-78.4546
11
118.532
21
-78.4887
0
LINE
8
BLACK
6
CONTINUOUS
10
118.532
20
-78.4887
11
118.498
21
-78.5167
0
LINE
8
BLACK
6
CONTINUOUS
10
118.498
20
-78.5167
11
118.459
21
-78.5375
0
LINE
8
BLACK
6
CONTINUOUS
10
118.459
20
-78.5375
11
118.417
21
-78.5503
0
LINE
8
BLACK
6
CONTINUOUS
10
118.417
20
-78.5503
11
118.373
21
-78.5546
0
LINE
8
BLACK
6
CONTINUOUS
10
118.373
20
-78.5546
11
117.923
21
-78.5546
0
LINE
8
BLACK
6
CONTINUOUS
10
117.923
20
-78.5546
11
117.879
21
-78.5503
0
LINE
8
BLACK
6
CONTINUOUS
10
117.879
20
-78.5503
11
117.837
21
-78.5375
0
LINE
8
BLACK
6
CONTINUOUS
10
117.837
20
-78.5375
11
117.798
21
-78.5167
0
LINE
8
BLACK
6
CONTINUOUS
10
117.798
20
-78.5167
11
117.764
21
-78.4887
0
LINE
8
BLACK
6
CONTINUOUS
10
117.764
20
-78.4887
11
117.736
21
-78.4546
0
LINE
8
BLACK
6
CONTINUOUS
10
117.736
20
-78.4546
11
117.715
21
-78.4157
0
LINE
8
BLACK
6
CONTINUOUS
10
117.715
20
-78.4157
11
117.702
21
-78.3735
0
LINE
8
BLACK
6
CONTINUOUS
10
117.702
20
-78.3735
11
117.698
21
-78.3296
0
LINE
8
BLACK
6
CONTINUOUS
10
117.698
20
-78.3296
11
117.698
21
-77.8296
0
LINE
8
BLACK
6
CONTINUOUS
10
117.698
20
-77.8296
11
117.702
21
-77.7857
0
LINE
8
BLACK
6
CONTINUOUS
10
117.702
20
-77.7857
11
117.715
21
-77.7435
0
LINE
8
BLACK
6
CONTINUOUS
10
117.715
20
-77.7435
11
117.736
21
-77.7046
0
LINE
8
BLACK
6
CONTINUOUS
10
117.736
20
-77.7046
11
117.764
21
-77.6705
0
LINE
8
BLACK
6
CONTINUOUS
10
117.764
20
-77.6705
11
117.798
21
-77.6425
0
LINE
8
BLACK
6
CONTINUOUS
10
117.798
20
-77.6425
11
117.837
21
-77.6217
0
LINE
8
BLACK
6
CONTINUOUS
10
117.837
20
-77.6217
11
117.879
21
-77.6089
0
LINE
8
BLACK
6
CONTINUOUS
10
117.879
20
-77.6089
11
117.923
21
-77.6046
0
LINE
8
BLACK
6
CONTINUOUS
10
117.923
20
-77.6046
11
118.373
21
-77.6046
0
LINE
8
BLACK
6
CONTINUOUS
10
118.373
20
-77.6046
11
118.417
21
-77.6089
0
LINE
8
BLACK
6
CONTINUOUS
10
132.024
20
-77.2048
11
132.071
21
-77.219
0
LINE
8
BLACK
6
CONTINUOUS
10
132.071
20
-77.219
11
132.114
21
-77.2421
0
LINE
8
BLACK
6
CONTINUOUS
10
132.114
20
-77.2421
11
132.152
21
-77.2732
0
LINE
8
BLACK
6
CONTINUOUS
10
132.152
20
-77.2732
11
132.183
21
-77.3111
0
LINE
8
BLACK
6
CONTINUOUS
10
132.183
20
-77.3111
11
132.206
21
-77.3543
0
LINE
8
BLACK
6
CONTINUOUS
10
132.206
20
-77.3543
11
132.22
21
-77.4012
0
LINE
8
BLACK
6
CONTINUOUS
10
132.22
20
-77.4012
11
132.225
21
-77.45
0
LINE
8
BLACK
6
CONTINUOUS
10
132.225
20
-77.45
11
132.225
21
-77.975
0
LINE
8
BLACK
6
CONTINUOUS
10
132.225
20
-77.975
11
132.22
21
-78.0238
0
LINE
8
BLACK
6
CONTINUOUS
10
132.22
20
-78.0238
11
132.206
21
-78.0707
0
LINE
8
BLACK
6
CONTINUOUS
10
132.206
20
-78.0707
11
132.183
21
-78.1139
0
LINE
8
BLACK
6
CONTINUOUS
10
132.183
20
-78.1139
11
132.152
21
-78.1518
0
LINE
8
BLACK
6
CONTINUOUS
10
132.152
20
-78.1518
11
132.114
21
-78.1829
0
LINE
8
BLACK
6
CONTINUOUS
10
132.114
20
-78.1829
11
132.071
21
-78.206
0
LINE
8
BLACK
6
CONTINUOUS
10
132.071
20
-78.206
11
132.024
21
-78.2202
0
LINE
8
BLACK
6
CONTINUOUS
10
132.024
20
-78.2202
11
131.975
21
-78.225
0
LINE
8
BLACK
6
CONTINUOUS
10
131.975
20
-78.225
11
131.075
21
-78.225
0
LINE
8
BLACK
6
CONTINUOUS
10
131.075
20
-78.225
11
131.026
21
-78.2202
0
LINE
8
BLACK
6
CONTINUOUS
10
131.026
20
-78.2202
11
130.979
21
-78.206
0
LINE
8
BLACK
6
CONTINUOUS
10
130.979
20
-78.206
11
130.936
21
-78.1829
0
LINE
8
BLACK
6
CONTINUOUS
10
130.936
20
-78.1829
11
130.898
21
-78.1518
0
LINE
8
BLACK
6
CONTINUOUS
10
130.898
20
-78.1518
11
130.867
21
-78.1139
0
LINE
8
BLACK
6
CONTINUOUS
10
130.867
20
-78.1139
11
130.844
21
-78.0707
0
LINE
8
BLACK
6
CONTINUOUS
10
130.844
20
-78.0707
11
130.83
21
-78.0238
0
LINE
8
BLACK
6
CONTINUOUS
10
130.83
20
-78.0238
11
130.825
21
-77.975
0
LINE
8
BLACK
6
CONTINUOUS
10
130.825
20
-77.975
11
130.825
21
-77.45
0
LINE
8
BLACK
6
CONTINUOUS
10
130.825
20
-77.45
11
130.83
21
-77.4012
0
LINE
8
BLACK
6
CONTINUOUS
10
130.83
20
-77.4012
11
130.844
21
-77.3543
0
LINE
8
BLACK
6
CONTINUOUS
10
130.844
20
-77.3543
11
130.867
21
-77.3111
0
LINE
8
BLACK
6
CONTINUOUS
10
130.867
20
-77.3111
11
130.898
21
-77.2732
0
LINE
8
BLACK
6
CONTINUOUS
10
130.898
20
-77.2732
11
130.936
21
-77.2421
0
LINE
8
BLACK
6
CONTINUOUS
10
130.936
20
-77.2421
11
130.979
21
-77.219
0
LINE
8
BLACK
6
CONTINUOUS
10
130.979
20
-77.219
11
131.026
21
-77.2048
0
LINE
8
BLACK
6
CONTINUOUS
10
131.026
20
-77.2048
11
131.075
21
-77.2
0
LINE
8
BLACK
6
CONTINUOUS
10
131.075
20
-77.2
11
131.975
21
-77.2
0
LINE
8
BLACK
6
CONTINUOUS
10
131.975
20
-77.2
11
132.024
21
-77.2048
0
LINE
8
BLACK
6
CONTINUOUS
10
127.399
20
-77.1048
11
127.446
21
-77.119
0
LINE
8
BLACK
6
CONTINUOUS
10
127.446
20
-77.119
11
127.489
21
-77.1421
0
LINE
8
BLACK
6
CONTINUOUS
10
127.489
20
-77.1421
11
127.527
21
-77.1732
0
LINE
8
BLACK
6
CONTINUOUS
10
127.527
20
-77.1732
11
127.558
21
-77.2111
0
LINE
8
BLACK
6
CONTINUOUS
10
127.558
20
-77.2111
11
127.581
21
-77.2543
0
LINE
8
BLACK
6
CONTINUOUS
10
127.581
20
-77.2543
11
127.595
21
-77.3012
0
LINE
8
BLACK
6
CONTINUOUS
10
127.595
20
-77.3012
11
127.6
21
-77.35
0
LINE
8
BLACK
6
CONTINUOUS
10
127.6
20
-77.35
11
127.6
21
-77.875
0
LINE
8
BLACK
6
CONTINUOUS
10
127.6
20
-77.875
11
127.595
21
-77.9238
0
LINE
8
BLACK
6
CONTINUOUS
10
127.595
20
-77.9238
11
127.581
21
-77.9707
0
LINE
8
BLACK
6
CONTINUOUS
10
127.581
20
-77.9707
11
127.558
21
-78.0139
0
LINE
8
BLACK
6
CONTINUOUS
10
127.558
20
-78.0139
11
127.527
21
-78.0518
0
LINE
8
BLACK
6
CONTINUOUS
10
127.527
20
-78.0518
11
127.489
21
-78.0829
0
LINE
8
BLACK
6
CONTINUOUS
10
127.489
20
-78.0829
11
127.446
21
-78.106
0
LINE
8
BLACK
6
CONTINUOUS
10
127.446
20
-78.106
11
127.399
21
-78.1202
0
LINE
8
BLACK
6
CONTINUOUS
10
127.399
20
-78.1202
11
127.35
21
-78.125
0
LINE
8
BLACK
6
CONTINUOUS
10
127.35
20
-78.125
11
126.45
21
-78.125
0
LINE
8
BLACK
6
CONTINUOUS
10
126.45
20
-78.125
11
126.401
21
-78.1202
0
LINE
8
BLACK
6
CONTINUOUS
10
126.401
20
-78.1202
11
126.354
21
-78.106
0
LINE
8
BLACK
6
CONTINUOUS
10
126.354
20
-78.106
11
126.311
21
-78.0829
0
LINE
8
BLACK
6
CONTINUOUS
10
126.311
20
-78.0829
11
126.273
21
-78.0518
0
LINE
8
BLACK
6
CONTINUOUS
10
126.273
20
-78.0518
11
126.242
21
-78.0139
0
LINE
8
BLACK
6
CONTINUOUS
10
126.242
20
-78.0139
11
126.219
21
-77.9707
0
LINE
8
BLACK
6
CONTINUOUS
10
126.219
20
-77.9707
11
126.205
21
-77.9238
0
LINE
8
BLACK
6
CONTINUOUS
10
126.205
20
-77.9238
11
126.2
21
-77.875
0
LINE
8
BLACK
6
CONTINUOUS
10
126.2
20
-77.875
11
126.2
21
-77.35
0
LINE
8
BLACK
6
CONTINUOUS
10
126.2
20
-77.35
11
126.205
21
-77.3012
0
LINE
8
BLACK
6
CONTINUOUS
10
126.205
20
-77.3012
11
126.219
21
-77.2543
0
LINE
8
BLACK
6
CONTINUOUS
10
126.219
20
-77.2543
11
126.242
21
-77.2111
0
LINE
8
BLACK
6
CONTINUOUS
10
126.242
20
-77.2111
11
126.273
21
-77.1732
0
LINE
8
BLACK
6
CONTINUOUS
10
126.273
20
-77.1732
11
126.311
21
-77.1421
0
LINE
8
BLACK
6
CONTINUOUS
10
126.311
20
-77.1421
11
126.354
21
-77.119
0
LINE
8
BLACK
6
CONTINUOUS
10
126.354
20
-77.119
11
126.401
21
-77.1048
0
LINE
8
BLACK
6
CONTINUOUS
10
126.401
20
-77.1048
11
126.45
21
-77.1
0
LINE
8
BLACK
6
CONTINUOUS
10
126.45
20
-77.1
11
127.35
21
-77.1
0
LINE
8
BLACK
6
CONTINUOUS
10
127.35
20
-77.1
11
127.399
21
-77.1048
0
LINE
8
BLACK
6
CONTINUOUS
10
132.024
20
-75.3798
11
132.071
21
-75.394
0
LINE
8
BLACK
6
CONTINUOUS
10
132.071
20
-75.394
11
132.114
21
-75.4171
0
LINE
8
BLACK
6
CONTINUOUS
10
132.114
20
-75.4171
11
132.152
21
-75.4482
0
LINE
8
BLACK
6
CONTINUOUS
10
132.152
20
-75.4482
11
132.183
21
-75.4861
0
LINE
8
BLACK
6
CONTINUOUS
10
132.183
20
-75.4861
11
132.206
21
-75.5293
0
LINE
8
BLACK
6
CONTINUOUS
10
132.206
20
-75.5293
11
132.22
21
-75.5762
0
LINE
8
BLACK
6
CONTINUOUS
10
132.22
20
-75.5762
11
132.225
21
-75.625
0
LINE
8
BLACK
6
CONTINUOUS
10
132.225
20
-75.625
11
132.225
21
-76.15
0
LINE
8
BLACK
6
CONTINUOUS
10
132.225
20
-76.15
11
132.22
21
-76.1988
0
LINE
8
BLACK
6
CONTINUOUS
10
132.22
20
-76.1988
11
132.206
21
-76.2457
0
LINE
8
BLACK
6
CONTINUOUS
10
132.206
20
-76.2457
11
132.183
21
-76.2889
0
LINE
8
BLACK
6
CONTINUOUS
10
132.183
20
-76.2889
11
132.152
21
-76.3268
0
LINE
8
BLACK
6
CONTINUOUS
10
132.152
20
-76.3268
11
132.114
21
-76.3579
0
LINE
8
BLACK
6
CONTINUOUS
10
132.114
20
-76.3579
11
132.071
21
-76.381
0
LINE
8
BLACK
6
CONTINUOUS
10
132.071
20
-76.381
11
132.024
21
-76.3952
0
LINE
8
BLACK
6
CONTINUOUS
10
132.024
20
-76.3952
11
131.975
21
-76.4
0
LINE
8
BLACK
6
CONTINUOUS
10
131.975
20
-76.4
11
131.075
21
-76.4
0
LINE
8
BLACK
6
CONTINUOUS
10
131.075
20
-76.4
11
131.026
21
-76.3952
0
LINE
8
BLACK
6
CONTINUOUS
10
131.026
20
-76.3952
11
130.979
21
-76.381
0
LINE
8
BLACK
6
CONTINUOUS
10
130.979
20
-76.381
11
130.936
21
-76.3579
0
LINE
8
BLACK
6
CONTINUOUS
10
130.936
20
-76.3579
11
130.898
21
-76.3268
0
LINE
8
BLACK
6
CONTINUOUS
10
130.898
20
-76.3268
11
130.867
21
-76.2889
0
LINE
8
BLACK
6
CONTINUOUS
10
130.867
20
-76.2889
11
130.844
21
-76.2457
0
LINE
8
BLACK
6
CONTINUOUS
10
130.844
20
-76.2457
11
130.83
21
-76.1988
0
LINE
8
BLACK
6
CONTINUOUS
10
130.83
20
-76.1988
11
130.825
21
-76.15
0
LINE
8
BLACK
6
CONTINUOUS
10
130.825
20
-76.15
11
130.825
21
-75.625
0
LINE
8
BLACK
6
CONTINUOUS
10
130.825
20
-75.625
11
130.83
21
-75.5762
0
LINE
8
BLACK
6
CONTINUOUS
10
130.83
20
-75.5762
11
130.844
21
-75.5293
0
LINE
8
BLACK
6
CONTINUOUS
10
130.844
20
-75.5293
11
130.867
21
-75.4861
0
LINE
8
BLACK
6
CONTINUOUS
10
130.867
20
-75.4861
11
130.898
21
-75.4482
0
LINE
8
BLACK
6
CONTINUOUS
10
130.898
20
-75.4482
11
130.936
21
-75.4171
0
LINE
8
BLACK
6
CONTINUOUS
10
130.936
20
-75.4171
11
130.979
21
-75.394
0
LINE
8
BLACK
6
CONTINUOUS
10
130.979
20
-75.394
11
131.026
21
-75.3798
0
LINE
8
BLACK
6
CONTINUOUS
10
131.026
20
-75.3798
11
131.075
21
-75.375
0
LINE
8
BLACK
6
CONTINUOUS
10
131.075
20
-75.375
11
131.975
21
-75.375
0
LINE
8
BLACK
6
CONTINUOUS
10
131.975
20
-75.375
11
132.024
21
-75.3798
0
LINE
8
BLACK
6
CONTINUOUS
10
127.399
20
-75.2798
11
127.446
21
-75.294
0
LINE
8
BLACK
6
CONTINUOUS
10
127.446
20
-75.294
11
127.489
21
-75.3171
0
LINE
8
BLACK
6
CONTINUOUS
10
127.489
20
-75.3171
11
127.527
21
-75.3482
0
LINE
8
BLACK
6
CONTINUOUS
10
127.527
20
-75.3482
11
127.558
21
-75.3861
0
LINE
8
BLACK
6
CONTINUOUS
10
127.558
20
-75.3861
11
127.581
21
-75.4293
0
LINE
8
BLACK
6
CONTINUOUS
10
127.581
20
-75.4293
11
127.595
21
-75.4762
0
LINE
8
BLACK
6
CONTINUOUS
10
127.595
20
-75.4762
11
127.6
21
-75.525
0
LINE
8
BLACK
6
CONTINUOUS
10
127.6
20
-75.525
11
127.6
21
-76.05
0
LINE
8
BLACK
6
CONTINUOUS
10
127.6
20
-76.05
11
127.595
21
-76.0988
0
LINE
8
BLACK
6
CONTINUOUS
10
127.595
20
-76.0988
11
127.581
21
-76.1457
0
LINE
8
BLACK
6
CONTINUOUS
10
127.581
20
-76.1457
11
127.558
21
-76.1889
0
LINE
8
BLACK
6
CONTINUOUS
10
127.558
20
-76.1889
11
127.527
21
-76.2268
0
LINE
8
BLACK
6
CONTINUOUS
10
127.527
20
-76.2268
11
127.489
21
-76.2579
0
LINE
8
BLACK
6
CONTINUOUS
10
127.489
20
-76.2579
11
127.446
21
-76.281
0
LINE
8
BLACK
6
CONTINUOUS
10
127.446
20
-76.281
11
127.399
21
-76.2952
0
LINE
8
BLACK
6
CONTINUOUS
10
127.399
20
-76.2952
11
127.35
21
-76.3
0
LINE
8
BLACK
6
CONTINUOUS
10
127.35
20
-76.3
11
126.45
21
-76.3
0
LINE
8
BLACK
6
CONTINUOUS
10
126.45
20
-76.3
11
126.401
21
-76.2952
0
LINE
8
BLACK
6
CONTINUOUS
10
126.401
20
-76.2952
11
126.354
21
-76.281
0
LINE
8
BLACK
6
CONTINUOUS
10
126.354
20
-76.281
11
126.311
21
-76.2579
0
LINE
8
BLACK
6
CONTINUOUS
10
126.311
20
-76.2579
11
126.273
21
-76.2268
0
LINE
8
BLACK
6
CONTINUOUS
10
126.273
20
-76.2268
11
126.242
21
-76.1889
0
LINE
8
BLACK
6
CONTINUOUS
10
126.242
20
-76.1889
11
126.219
21
-76.1457
0
LINE
8
BLACK
6
CONTINUOUS
10
126.219
20
-76.1457
11
126.205
21
-76.0988
0
LINE
8
BLACK
6
CONTINUOUS
10
126.205
20
-76.0988
11
126.2
21
-76.05
0
LINE
8
BLACK
6
CONTINUOUS
10
126.2
20
-76.05
11
126.2
21
-75.525
0
LINE
8
BLACK
6
CONTINUOUS
10
126.2
20
-75.525
11
126.205
21
-75.4762
0
LINE
8
BLACK
6
CONTINUOUS
10
126.205
20
-75.4762
11
126.219
21
-75.4293
0
LINE
8
BLACK
6
CONTINUOUS
10
126.219
20
-75.4293
11
126.242
21
-75.3861
0
LINE
8
BLACK
6
CONTINUOUS
10
126.242
20
-75.3861
11
126.273
21
-75.3482
0
LINE
8
BLACK
6
CONTINUOUS
10
126.273
20
-75.3482
11
126.311
21
-75.3171
0
LINE
8
BLACK
6
CONTINUOUS
10
126.311
20
-75.3171
11
126.354
21
-75.294
0
LINE
8
BLACK
6
CONTINUOUS
10
126.354
20
-75.294
11
126.401
21
-75.2798
0
LINE
8
BLACK
6
CONTINUOUS
10
126.401
20
-75.2798
11
126.45
21
-75.275
0
LINE
8
BLACK
6
CONTINUOUS
10
126.45
20
-75.275
11
127.35
21
-75.275
0
LINE
8
BLACK
6
CONTINUOUS
10
127.35
20
-75.275
11
127.399
21
-75.2798
0
LINE
8
BLACK
6
CONTINUOUS
10
106.431
20
-73.7268
11
106.477
21
-73.741
0
LINE
8
BLACK
6
CONTINUOUS
10
106.477
20
-73.741
11
106.521
21
-73.7641
0
LINE
8
BLACK
6
CONTINUOUS
10
106.521
20
-73.7641
11
106.559
21
-73.7952
0
LINE
8
BLACK
6
CONTINUOUS
10
106.559
20
-73.7952
11
106.59
21
-73.8331
0
LINE
8
BLACK
6
CONTINUOUS
10
106.59
20
-73.8331
11
106.613
21
-73.8763
0
LINE
8
BLACK
6
CONTINUOUS
10
106.613
20
-73.8763
11
106.627
21
-73.9232
0
LINE
8
BLACK
6
CONTINUOUS
10
106.627
20
-73.9232
11
106.632
21
-73.972
0
LINE
8
BLACK
6
CONTINUOUS
10
106.632
20
-73.972
11
106.632
21
-74.872
0
LINE
8
BLACK
6
CONTINUOUS
10
106.632
20
-74.872
11
106.627
21
-74.9208
0
LINE
8
BLACK
6
CONTINUOUS
10
106.627
20
-74.9208
11
106.613
21
-74.9677
0
LINE
8
BLACK
6
CONTINUOUS
10
106.613
20
-74.9677
11
106.59
21
-75.0109
0
LINE
8
BLACK
6
CONTINUOUS
10
106.59
20
-75.0109
11
106.559
21
-75.0488
0
LINE
8
BLACK
6
CONTINUOUS
10
106.559
20
-75.0488
11
106.521
21
-75.0799
0
LINE
8
BLACK
6
CONTINUOUS
10
106.521
20
-75.0799
11
106.477
21
-75.103
0
LINE
8
BLACK
6
CONTINUOUS
10
106.477
20
-75.103
11
106.431
21
-75.1172
0
LINE
8
BLACK
6
CONTINUOUS
10
106.431
20
-75.1172
11
106.382
21
-75.122
0
LINE
8
BLACK
6
CONTINUOUS
10
106.382
20
-75.122
11
105.857
21
-75.122
0
LINE
8
BLACK
6
CONTINUOUS
10
105.857
20
-75.122
11
105.808
21
-75.1172
0
LINE
8
BLACK
6
CONTINUOUS
10
105.808
20
-75.1172
11
105.761
21
-75.103
0
LINE
8
BLACK
6
CONTINUOUS
10
105.761
20
-75.103
11
105.718
21
-75.0799
0
LINE
8
BLACK
6
CONTINUOUS
10
105.718
20
-75.0799
11
105.68
21
-75.0488
0
LINE
8
BLACK
6
CONTINUOUS
10
105.68
20
-75.0488
11
105.649
21
-75.0109
0
LINE
8
BLACK
6
CONTINUOUS
10
105.649
20
-75.0109
11
105.626
21
-74.9677
0
LINE
8
BLACK
6
CONTINUOUS
10
105.626
20
-74.9677
11
105.612
21
-74.9208
0
LINE
8
BLACK
6
CONTINUOUS
10
105.612
20
-74.9208
11
105.607
21
-74.872
0
LINE
8
BLACK
6
CONTINUOUS
10
105.607
20
-74.872
11
105.607
21
-73.972
0
LINE
8
BLACK
6
CONTINUOUS
10
105.607
20
-73.972
11
105.612
21
-73.9232
0
LINE
8
BLACK
6
CONTINUOUS
10
105.612
20
-73.9232
11
105.626
21
-73.8763
0
LINE
8
BLACK
6
CONTINUOUS
10
105.626
20
-73.8763
11
105.649
21
-73.8331
0
LINE
8
BLACK
6
CONTINUOUS
10
105.649
20
-73.8331
11
105.68
21
-73.7952
0
LINE
8
BLACK
6
CONTINUOUS
10
105.68
20
-73.7952
11
105.718
21
-73.7641
0
LINE
8
BLACK
6
CONTINUOUS
10
105.718
20
-73.7641
11
105.761
21
-73.741
0
LINE
8
BLACK
6
CONTINUOUS
10
105.761
20
-73.741
11
105.808
21
-73.7268
0
LINE
8
BLACK
6
CONTINUOUS
10
105.808
20
-73.7268
11
105.857
21
-73.722
0
LINE
8
BLACK
6
CONTINUOUS
10
105.857
20
-73.722
11
106.382
21
-73.722
0
LINE
8
BLACK
6
CONTINUOUS
10
106.382
20
-73.722
11
106.431
21
-73.7268
0
LINE
8
BLACK
6
CONTINUOUS
10
104.606
20
-73.7268
11
104.652
21
-73.741
0
LINE
8
BLACK
6
CONTINUOUS
10
104.652
20
-73.741
11
104.696
21
-73.7641
0
LINE
8
BLACK
6
CONTINUOUS
10
104.696
20
-73.7641
11
104.734
21
-73.7952
0
LINE
8
BLACK
6
CONTINUOUS
10
104.734
20
-73.7952
11
104.765
21
-73.8331
0
LINE
8
BLACK
6
CONTINUOUS
10
104.765
20
-73.8331
11
104.788
21
-73.8763
0
LINE
8
BLACK
6
CONTINUOUS
10
104.788
20
-73.8763
11
104.802
21
-73.9232
0
LINE
8
BLACK
6
CONTINUOUS
10
104.802
20
-73.9232
11
104.807
21
-73.972
0
LINE
8
BLACK
6
CONTINUOUS
10
104.807
20
-73.972
11
104.807
21
-74.872
0
LINE
8
BLACK
6
CONTINUOUS
10
104.807
20
-74.872
11
104.802
21
-74.9208
0
LINE
8
BLACK
6
CONTINUOUS
10
104.802
20
-74.9208
11
104.788
21
-74.9677
0
LINE
8
BLACK
6
CONTINUOUS
10
104.788
20
-74.9677
11
104.765
21
-75.0109
0
LINE
8
BLACK
6
CONTINUOUS
10
104.765
20
-75.0109
11
104.734
21
-75.0488
0
LINE
8
BLACK
6
CONTINUOUS
10
104.734
20
-75.0488
11
104.696
21
-75.0799
0
LINE
8
BLACK
6
CONTINUOUS
10
104.696
20
-75.0799
11
104.652
21
-75.103
0
LINE
8
BLACK
6
CONTINUOUS
10
104.652
20
-75.103
11
104.606
21
-75.1172
0
LINE
8
BLACK
6
CONTINUOUS
10
104.606
20
-75.1172
11
104.557
21
-75.122
0
LINE
8
BLACK
6
CONTINUOUS
10
104.557
20
-75.122
11
104.032
21
-75.122
0
LINE
8
BLACK
6
CONTINUOUS
10
104.032
20
-75.122
11
103.983
21
-75.1172
0
LINE
8
BLACK
6
CONTINUOUS
10
103.983
20
-75.1172
11
103.936
21
-75.103
0
LINE
8
BLACK
6
CONTINUOUS
10
103.936
20
-75.103
11
103.893
21
-75.0799
0
LINE
8
BLACK
6
CONTINUOUS
10
103.893
20
-75.0799
11
103.855
21
-75.0488
0
LINE
8
BLACK
6
CONTINUOUS
10
103.855
20
-75.0488
11
103.824
21
-75.0109
0
LINE
8
BLACK
6
CONTINUOUS
10
103.824
20
-75.0109
11
103.801
21
-74.9677
0
LINE
8
BLACK
6
CONTINUOUS
10
103.801
20
-74.9677
11
103.787
21
-74.9208
0
LINE
8
BLACK
6
CONTINUOUS
10
103.787
20
-74.9208
11
103.782
21
-74.872
0
LINE
8
BLACK
6
CONTINUOUS
10
103.782
20
-74.872
11
103.782
21
-73.972
0
LINE
8
BLACK
6
CONTINUOUS
10
103.782
20
-73.972
11
103.787
21
-73.9232
0
LINE
8
BLACK
6
CONTINUOUS
10
103.787
20
-73.9232
11
103.801
21
-73.8763
0
LINE
8
BLACK
6
CONTINUOUS
10
103.801
20
-73.8763
11
103.824
21
-73.8331
0
LINE
8
BLACK
6
CONTINUOUS
10
103.824
20
-73.8331
11
103.855
21
-73.7952
0
LINE
8
BLACK
6
CONTINUOUS
10
103.855
20
-73.7952
11
103.893
21
-73.7641
0
LINE
8
BLACK
6
CONTINUOUS
10
103.893
20
-73.7641
11
103.936
21
-73.741
0
LINE
8
BLACK
6
CONTINUOUS
10
103.936
20
-73.741
11
103.983
21
-73.7268
0
LINE
8
BLACK
6
CONTINUOUS
10
103.983
20
-73.7268
11
104.032
21
-73.722
0
LINE
8
BLACK
6
CONTINUOUS
10
104.032
20
-73.722
11
104.557
21
-73.722
0
LINE
8
BLACK
6
CONTINUOUS
10
104.557
20
-73.722
11
104.606
21
-73.7268
0
LINE
8
BLACK
6
CONTINUOUS
10
111.053
20
-73.7268
11
111.1
21
-73.741
0
LINE
8
BLACK
6
CONTINUOUS
10
111.1
20
-73.741
11
111.143
21
-73.7641
0
LINE
8
BLACK
6
CONTINUOUS
10
111.143
20
-73.7641
11
111.181
21
-73.7952
0
LINE
8
BLACK
6
CONTINUOUS
10
111.181
20
-73.7952
11
111.212
21
-73.8331
0
LINE
8
BLACK
6
CONTINUOUS
10
111.212
20
-73.8331
11
111.236
21
-73.8763
0
LINE
8
BLACK
6
CONTINUOUS
10
111.236
20
-73.8763
11
111.25
21
-73.9232
0
LINE
8
BLACK
6
CONTINUOUS
10
111.25
20
-73.9232
11
111.255
21
-73.972
0
LINE
8
BLACK
6
CONTINUOUS
10
111.255
20
-73.972
11
111.255
21
-74.872
0
LINE
8
BLACK
6
CONTINUOUS
10
111.255
20
-74.872
11
111.25
21
-74.9208
0
LINE
8
BLACK
6
CONTINUOUS
10
111.25
20
-74.9208
11
111.236
21
-74.9677
0
LINE
8
BLACK
6
CONTINUOUS
10
111.236
20
-74.9677
11
111.212
21
-75.0109
0
LINE
8
BLACK
6
CONTINUOUS
10
111.212
20
-75.0109
11
111.181
21
-75.0488
0
LINE
8
BLACK
6
CONTINUOUS
10
111.181
20
-75.0488
11
111.143
21
-75.0799
0
LINE
8
BLACK
6
CONTINUOUS
10
111.143
20
-75.0799
11
111.1
21
-75.103
0
LINE
8
BLACK
6
CONTINUOUS
10
111.1
20
-75.103
11
111.053
21
-75.1172
0
LINE
8
BLACK
6
CONTINUOUS
10
111.053
20
-75.1172
11
111.005
21
-75.122
0
LINE
8
BLACK
6
CONTINUOUS
10
111.005
20
-75.122
11
110.48
21
-75.122
0
LINE
8
BLACK
6
CONTINUOUS
10
110.48
20
-75.122
11
110.431
21
-75.1172
0
LINE
8
BLACK
6
CONTINUOUS
10
110.431
20
-75.1172
11
110.384
21
-75.103
0
LINE
8
BLACK
6
CONTINUOUS
10
110.384
20
-75.103
11
110.341
21
-75.0799
0
LINE
8
BLACK
6
CONTINUOUS
10
110.341
20
-75.0799
11
110.303
21
-75.0488
0
LINE
8
BLACK
6
CONTINUOUS
10
110.303
20
-75.0488
11
110.272
21
-75.0109
0
LINE
8
BLACK
6
CONTINUOUS
10
110.272
20
-75.0109
11
110.249
21
-74.9677
0
LINE
8
BLACK
6
CONTINUOUS
10
110.249
20
-74.9677
11
110.234
21
-74.9208
0
LINE
8
BLACK
6
CONTINUOUS
10
110.234
20
-74.9208
11
110.23
21
-74.872
0
LINE
8
BLACK
6
CONTINUOUS
10
110.23
20
-74.872
11
110.23
21
-73.972
0
LINE
8
BLACK
6
CONTINUOUS
10
110.23
20
-73.972
11
110.234
21
-73.9232
0
LINE
8
BLACK
6
CONTINUOUS
10
110.234
20
-73.9232
11
110.249
21
-73.8763
0
LINE
8
BLACK
6
CONTINUOUS
10
110.249
20
-73.8763
11
110.272
21
-73.8331
0
LINE
8
BLACK
6
CONTINUOUS
10
110.272
20
-73.8331
11
110.303
21
-73.7952
0
LINE
8
BLACK
6
CONTINUOUS
10
110.303
20
-73.7952
11
110.341
21
-73.7641
0
LINE
8
BLACK
6
CONTINUOUS
10
110.341
20
-73.7641
11
110.384
21
-73.741
0
LINE
8
BLACK
6
CONTINUOUS
10
110.384
20
-73.741
11
110.431
21
-73.7268
0
LINE
8
BLACK
6
CONTINUOUS
10
110.431
20
-73.7268
11
110.48
21
-73.722
0
LINE
8
BLACK
6
CONTINUOUS
10
110.48
20
-73.722
11
111.005
21
-73.722
0
LINE
8
BLACK
6
CONTINUOUS
10
111.005
20
-73.722
11
111.053
21
-73.7268
0
LINE
8
BLACK
6
CONTINUOUS
10
109.228
20
-73.7268
11
109.275
21
-73.741
0
LINE
8
BLACK
6
CONTINUOUS
10
109.275
20
-73.741
11
109.318
21
-73.7641
0
LINE
8
BLACK
6
CONTINUOUS
10
109.318
20
-73.7641
11
109.356
21
-73.7952
0
LINE
8
BLACK
6
CONTINUOUS
10
109.356
20
-73.7952
11
109.387
21
-73.8331
0
LINE
8
BLACK
6
CONTINUOUS
10
109.387
20
-73.8331
11
109.411
21
-73.8763
0
LINE
8
BLACK
6
CONTINUOUS
10
109.411
20
-73.8763
11
109.425
21
-73.9232
0
LINE
8
BLACK
6
CONTINUOUS
10
109.425
20
-73.9232
11
109.43
21
-73.972
0
LINE
8
BLACK
6
CONTINUOUS
10
109.43
20
-73.972
11
109.43
21
-74.872
0
LINE
8
BLACK
6
CONTINUOUS
10
109.43
20
-74.872
11
109.425
21
-74.9208
0
LINE
8
BLACK
6
CONTINUOUS
10
109.425
20
-74.9208
11
109.411
21
-74.9677
0
LINE
8
BLACK
6
CONTINUOUS
10
109.411
20
-74.9677
11
109.387
21
-75.0109
0
LINE
8
BLACK
6
CONTINUOUS
10
109.387
20
-75.0109
11
109.356
21
-75.0488
0
LINE
8
BLACK
6
CONTINUOUS
10
109.356
20
-75.0488
11
109.318
21
-75.0799
0
LINE
8
BLACK
6
CONTINUOUS
10
109.318
20
-75.0799
11
109.275
21
-75.103
0
LINE
8
BLACK
6
CONTINUOUS
10
109.275
20
-75.103
11
109.228
21
-75.1172
0
LINE
8
BLACK
6
CONTINUOUS
10
109.228
20
-75.1172
11
109.18
21
-75.122
0
LINE
8
BLACK
6
CONTINUOUS
10
109.18
20
-75.122
11
108.655
21
-75.122
0
LINE
8
BLACK
6
CONTINUOUS
10
108.655
20
-75.122
11
108.606
21
-75.1172
0
LINE
8
BLACK
6
CONTINUOUS
10
108.606
20
-75.1172
11
108.559
21
-75.103
0
LINE
8
BLACK
6
CONTINUOUS
10
108.559
20
-75.103
11
108.516
21
-75.0799
0
LINE
8
BLACK
6
CONTINUOUS
10
108.516
20
-75.0799
11
108.478
21
-75.0488
0
LINE
8
BLACK
6
CONTINUOUS
10
108.478
20
-75.0488
11
108.447
21
-75.0109
0
LINE
8
BLACK
6
CONTINUOUS
10
108.447
20
-75.0109
11
108.424
21
-74.9677
0
LINE
8
BLACK
6
CONTINUOUS
10
108.424
20
-74.9677
11
108.409
21
-74.9208
0
LINE
8
BLACK
6
CONTINUOUS
10
108.409
20
-74.9208
11
108.405
21
-74.872
0
LINE
8
BLACK
6
CONTINUOUS
10
108.405
20
-74.872
11
108.405
21
-73.972
0
LINE
8
BLACK
6
CONTINUOUS
10
108.405
20
-73.972
11
108.409
21
-73.9232
0
LINE
8
BLACK
6
CONTINUOUS
10
108.409
20
-73.9232
11
108.424
21
-73.8763
0
LINE
8
BLACK
6
CONTINUOUS
10
108.424
20
-73.8763
11
108.447
21
-73.8331
0
LINE
8
BLACK
6
CONTINUOUS
10
108.447
20
-73.8331
11
108.478
21
-73.7952
0
LINE
8
BLACK
6
CONTINUOUS
10
108.478
20
-73.7952
11
108.516
21
-73.7641
0
LINE
8
BLACK
6
CONTINUOUS
10
108.516
20
-73.7641
11
108.559
21
-73.741
0
LINE
8
BLACK
6
CONTINUOUS
10
108.559
20
-73.741
11
108.606
21
-73.7268
0
LINE
8
BLACK
6
CONTINUOUS
10
108.606
20
-73.7268
11
108.655
21
-73.722
0
LINE
8
BLACK
6
CONTINUOUS
10
108.655
20
-73.722
11
109.18
21
-73.722
0
LINE
8
BLACK
6
CONTINUOUS
10
109.18
20
-73.722
11
109.228
21
-73.7268
0
LINE
8
BLACK
6
CONTINUOUS
10
97.53
20
-74.1
11
96.53
21
-74.1
0
LINE
8
BLACK
6
CONTINUOUS
10
96.53
20
-74.1
11
96.53
21
-72.2
0
LINE
8
BLACK
6
CONTINUOUS
10
96.53
20
-72.2
11
97.53
21
-72.2
0
LINE
8
BLACK
6
CONTINUOUS
10
97.53
20
-72.2
11
97.53
21
-74.1
0
LINE
8
BLACK
6
CONTINUOUS
10
95.53
20
-74.1
11
94.53
21
-74.1
0
LINE
8
BLACK
6
CONTINUOUS
10
94.53
20
-74.1
11
94.53
21
-72.2
0
LINE
8
BLACK
6
CONTINUOUS
10
94.53
20
-72.2
11
95.53
21
-72.2
0
LINE
8
BLACK
6
CONTINUOUS
10
95.53
20
-72.2
11
95.53
21
-74.1
0
LINE
8
BLACK
6
CONTINUOUS
10
93.53
20
-74.1
11
92.53
21
-74.1
0
LINE
8
BLACK
6
CONTINUOUS
10
92.53
20
-74.1
11
92.53
21
-72.2
0
LINE
8
BLACK
6
CONTINUOUS
10
92.53
20
-72.2
11
93.53
21
-72.2
0
LINE
8
BLACK
6
CONTINUOUS
10
93.53
20
-72.2
11
93.53
21
-74.1
0
LINE
8
BLACK
6
CONTINUOUS
10
128.999
20
-70.3048
11
129.046
21
-70.319
0
LINE
8
BLACK
6
CONTINUOUS
10
129.046
20
-70.319
11
129.089
21
-70.3421
0
LINE
8
BLACK
6
CONTINUOUS
10
129.089
20
-70.3421
11
129.127
21
-70.3732
0
LINE
8
BLACK
6
CONTINUOUS
10
129.127
20
-70.3732
11
129.158
21
-70.4111
0
LINE
8
BLACK
6
CONTINUOUS
10
129.158
20
-70.4111
11
129.181
21
-70.4543
0
LINE
8
BLACK
6
CONTINUOUS
10
129.181
20
-70.4543
11
129.195
21
-70.5012
0
LINE
8
BLACK
6
CONTINUOUS
10
129.195
20
-70.5012
11
129.2
21
-70.55
0
LINE
8
BLACK
6
CONTINUOUS
10
129.2
20
-70.55
11
129.2
21
-71.45
0
LINE
8
BLACK
6
CONTINUOUS
10
129.2
20
-71.45
11
129.195
21
-71.4988
0
LINE
8
BLACK
6
CONTINUOUS
10
129.195
20
-71.4988
11
129.181
21
-71.5457
0
LINE
8
BLACK
6
CONTINUOUS
10
129.181
20
-71.5457
11
129.158
21
-71.5889
0
LINE
8
BLACK
6
CONTINUOUS
10
129.158
20
-71.5889
11
129.127
21
-71.6268
0
LINE
8
BLACK
6
CONTINUOUS
10
129.127
20
-71.6268
11
129.089
21
-71.6579
0
LINE
8
BLACK
6
CONTINUOUS
10
129.089
20
-71.6579
11
129.046
21
-71.681
0
LINE
8
BLACK
6
CONTINUOUS
10
129.046
20
-71.681
11
128.999
21
-71.6952
0
LINE
8
BLACK
6
CONTINUOUS
10
128.999
20
-71.6952
11
128.95
21
-71.7
0
LINE
8
BLACK
6
CONTINUOUS
10
128.95
20
-71.7
11
128.425
21
-71.7
0
LINE
8
BLACK
6
CONTINUOUS
10
128.425
20
-71.7
11
128.376
21
-71.6952
0
LINE
8
BLACK
6
CONTINUOUS
10
128.376
20
-71.6952
11
128.329
21
-71.681
0
LINE
8
BLACK
6
CONTINUOUS
10
128.329
20
-71.681
11
128.286
21
-71.6579
0
LINE
8
BLACK
6
CONTINUOUS
10
128.286
20
-71.6579
11
128.248
21
-71.6268
0
LINE
8
BLACK
6
CONTINUOUS
10
128.248
20
-71.6268
11
128.217
21
-71.5889
0
LINE
8
BLACK
6
CONTINUOUS
10
128.217
20
-71.5889
11
128.194
21
-71.5457
0
LINE
8
BLACK
6
CONTINUOUS
10
128.194
20
-71.5457
11
128.18
21
-71.4988
0
LINE
8
BLACK
6
CONTINUOUS
10
128.18
20
-71.4988
11
128.175
21
-71.45
0
LINE
8
BLACK
6
CONTINUOUS
10
128.175
20
-71.45
11
128.175
21
-70.55
0
LINE
8
BLACK
6
CONTINUOUS
10
128.175
20
-70.55
11
128.18
21
-70.5012
0
LINE
8
BLACK
6
CONTINUOUS
10
128.18
20
-70.5012
11
128.194
21
-70.4543
0
LINE
8
BLACK
6
CONTINUOUS
10
128.194
20
-70.4543
11
128.217
21
-70.4111
0
LINE
8
BLACK
6
CONTINUOUS
10
128.217
20
-70.4111
11
128.248
21
-70.3732
0
LINE
8
BLACK
6
CONTINUOUS
10
128.248
20
-70.3732
11
128.286
21
-70.3421
0
LINE
8
BLACK
6
CONTINUOUS
10
128.286
20
-70.3421
11
128.329
21
-70.319
0
LINE
8
BLACK
6
CONTINUOUS
10
128.329
20
-70.319
11
128.376
21
-70.3048
0
LINE
8
BLACK
6
CONTINUOUS
10
128.376
20
-70.3048
11
128.425
21
-70.3
0
LINE
8
BLACK
6
CONTINUOUS
10
128.425
20
-70.3
11
128.95
21
-70.3
0
LINE
8
BLACK
6
CONTINUOUS
10
128.95
20
-70.3
11
128.999
21
-70.3048
0
LINE
8
BLACK
6
CONTINUOUS
10
130.824
20
-70.3048
11
130.871
21
-70.319
0
LINE
8
BLACK
6
CONTINUOUS
10
130.871
20
-70.319
11
130.914
21
-70.3421
0
LINE
8
BLACK
6
CONTINUOUS
10
130.914
20
-70.3421
11
130.952
21
-70.3732
0
LINE
8
BLACK
6
CONTINUOUS
10
130.952
20
-70.3732
11
130.983
21
-70.4111
0
LINE
8
BLACK
6
CONTINUOUS
10
130.983
20
-70.4111
11
131.006
21
-70.4543
0
LINE
8
BLACK
6
CONTINUOUS
10
131.006
20
-70.4543
11
131.02
21
-70.5012
0
LINE
8
BLACK
6
CONTINUOUS
10
131.02
20
-70.5012
11
131.025
21
-70.55
0
LINE
8
BLACK
6
CONTINUOUS
10
131.025
20
-70.55
11
131.025
21
-71.45
0
LINE
8
BLACK
6
CONTINUOUS
10
131.025
20
-71.45
11
131.02
21
-71.4988
0
LINE
8
BLACK
6
CONTINUOUS
10
131.02
20
-71.4988
11
131.006
21
-71.5457
0
LINE
8
BLACK
6
CONTINUOUS
10
131.006
20
-71.5457
11
130.983
21
-71.5889
0
LINE
8
BLACK
6
CONTINUOUS
10
130.983
20
-71.5889
11
130.952
21
-71.6268
0
LINE
8
BLACK
6
CONTINUOUS
10
130.952
20
-71.6268
11
130.914
21
-71.6579
0
LINE
8
BLACK
6
CONTINUOUS
10
130.914
20
-71.6579
11
130.871
21
-71.681
0
LINE
8
BLACK
6
CONTINUOUS
10
130.871
20
-71.681
11
130.824
21
-71.6952
0
LINE
8
BLACK
6
CONTINUOUS
10
130.824
20
-71.6952
11
130.775
21
-71.7
0
LINE
8
BLACK
6
CONTINUOUS
10
130.775
20
-71.7
11
130.25
21
-71.7
0
LINE
8
BLACK
6
CONTINUOUS
10
130.25
20
-71.7
11
130.201
21
-71.6952
0
LINE
8
BLACK
6
CONTINUOUS
10
130.201
20
-71.6952
11
130.154
21
-71.681
0
LINE
8
BLACK
6
CONTINUOUS
10
130.154
20
-71.681
11
130.111
21
-71.6579
0
LINE
8
BLACK
6
CONTINUOUS
10
130.111
20
-71.6579
11
130.073
21
-71.6268
0
LINE
8
BLACK
6
CONTINUOUS
10
130.073
20
-71.6268
11
130.042
21
-71.5889
0
LINE
8
BLACK
6
CONTINUOUS
10
130.042
20
-71.5889
11
130.019
21
-71.5457
0
LINE
8
BLACK
6
CONTINUOUS
10
130.019
20
-71.5457
11
130.005
21
-71.4988
0
LINE
8
BLACK
6
CONTINUOUS
10
130.005
20
-71.4988
11
130
21
-71.45
0
LINE
8
BLACK
6
CONTINUOUS
10
130
20
-71.45
11
130
21
-70.55
0
LINE
8
BLACK
6
CONTINUOUS
10
130
20
-70.55
11
130.005
21
-70.5012
0
LINE
8
BLACK
6
CONTINUOUS
10
130.005
20
-70.5012
11
130.019
21
-70.4543
0
LINE
8
BLACK
6
CONTINUOUS
10
130.019
20
-70.4543
11
130.042
21
-70.4111
0
LINE
8
BLACK
6
CONTINUOUS
10
130.042
20
-70.4111
11
130.073
21
-70.3732
0
LINE
8
BLACK
6
CONTINUOUS
10
130.073
20
-70.3732
11
130.111
21
-70.3421
0
LINE
8
BLACK
6
CONTINUOUS
10
130.111
20
-70.3421
11
130.154
21
-70.319
0
LINE
8
BLACK
6
CONTINUOUS
10
130.154
20
-70.319
11
130.201
21
-70.3048
0
LINE
8
BLACK
6
CONTINUOUS
10
130.201
20
-70.3048
11
130.25
21
-70.3
0
LINE
8
BLACK
6
CONTINUOUS
10
130.25
20
-70.3
11
130.775
21
-70.3
0
LINE
8
BLACK
6
CONTINUOUS
10
130.775
20
-70.3
11
130.824
21
-70.3048
0
LINE
8
BLACK
6
CONTINUOUS
10
146.539
20
-71.4508
11
143.339
21
-71.4508
0
LINE
8
BLACK
6
CONTINUOUS
10
143.339
20
-71.4508
11
143.339
21
-69.6508
0
LINE
8
BLACK
6
CONTINUOUS
10
143.339
20
-69.6508
11
146.539
21
-69.6508
0
LINE
8
BLACK
6
CONTINUOUS
10
146.539
20
-69.6508
11
146.539
21
-71.4508
0
LINE
8
BLACK
6
CONTINUOUS
10
137.839
20
-71.4508
11
134.639
21
-71.4508
0
LINE
8
BLACK
6
CONTINUOUS
10
134.639
20
-71.4508
11
134.639
21
-69.6508
0
LINE
8
BLACK
6
CONTINUOUS
10
134.639
20
-69.6508
11
137.839
21
-69.6508
0
LINE
8
BLACK
6
CONTINUOUS
10
137.839
20
-69.6508
11
137.839
21
-71.4508
0
LINE
8
BLACK
6
CONTINUOUS
10
125.5
20
-71.45
11
124.3
21
-71.45
0
LINE
8
BLACK
6
CONTINUOUS
10
124.3
20
-71.45
11
124.3
21
-70.45
0
LINE
8
BLACK
6
CONTINUOUS
10
124.3
20
-70.45
11
125.5
21
-70.45
0
LINE
8
BLACK
6
CONTINUOUS
10
125.5
20
-70.45
11
125.5
21
-71.45
0
LINE
8
BLACK
6
CONTINUOUS
10
119.9
20
-71.45
11
118.7
21
-71.45
0
LINE
8
BLACK
6
CONTINUOUS
10
118.7
20
-71.45
11
118.7
21
-70.45
0
LINE
8
BLACK
6
CONTINUOUS
10
118.7
20
-70.45
11
119.9
21
-70.45
0
LINE
8
BLACK
6
CONTINUOUS
10
119.9
20
-70.45
11
119.9
21
-71.45
0
LINE
8
BLACK
6
CONTINUOUS
10
125.5
20
-69.75
11
124.3
21
-69.75
0
LINE
8
BLACK
6
CONTINUOUS
10
124.3
20
-69.75
11
124.3
21
-68.75
0
LINE
8
BLACK
6
CONTINUOUS
10
124.3
20
-68.75
11
125.5
21
-68.75
0
LINE
8
BLACK
6
CONTINUOUS
10
125.5
20
-68.75
11
125.5
21
-69.75
0
LINE
8
BLACK
6
CONTINUOUS
10
119.9
20
-69.75
11
118.7
21
-69.75
0
LINE
8
BLACK
6
CONTINUOUS
10
118.7
20
-69.75
11
118.7
21
-68.75
0
LINE
8
BLACK
6
CONTINUOUS
10
118.7
20
-68.75
11
119.9
21
-68.75
0
LINE
8
BLACK
6
CONTINUOUS
10
119.9
20
-68.75
11
119.9
21
-69.75
  0
ENDSEC
  0
EOF
