  0
SECTION
  2
HEADER
  9
$ANGBASE
  50
0.0
  9
$ANGDIR
  70
1
  9
$MEASUREMENT
  70
1
  0
ENDSEC
  0
SECTION
  2
TABLES
  0
TABLE
  2
LTYPE
  70
4
  0
LTYPE
  5
40F
  2
CONTINUOUS
  70
0
  3
Solid line
  72
65
  73
0
  40
0.0
  0
LTYPE
  5
410
  2
DASHDOT
 70
0
  3
Dash Dot ____ _ ____ _
 72
65
 73
4
 40
2.0
 49
1.25
 49
-0.25
 49
0.25
 49
-0.25
  0
LTYPE
  5
411
  2
DASHED
 70
0
  3
Dashed __ __ __ __ __
 72
65
 73
2
 40
0.75
 49
0.5
 49
-0.25
  0
LTYPE
  5
43B
  2
DOTTED
 70
0
  3
Dotted .  .  .  .
 72
65
 73
2
 40
0.2
 49
0.0
 49
-0.2
  0
ENDTAB
  0
TABLE
  2
STYLE
  70
4
  0
STYLE
  2
KICAD
  70
0
  40
0
  41
1
  42
1
  50
0
  71
0
  3
isocp.shx
  0
STYLE
  2
KICADB
  70
0
  40
0
  41
1
  42
1
  50
0
  71
0
  3
isocp.shx
  0
STYLE
  2
KICADI
  70
0
  40
0
  41
1
  42
1
  50
15
  71
0
  3
isocp.shx
  0
STYLE
  2
KICADBI
  70
0
  40
0
  41
1
  42
1
  50
15
  71
0
  3
isocp.shx
  0
ENDTAB
  0
TABLE
  2
LAYER
  70
1
  0
LAYER
  2
BLACK
  70
0
  62
7
  6
CONTINUOUS
  0
ENDTAB
  0
ENDSEC
  0
SECTION
  2
ENTITIES
0
LINE
8
BLACK
6
CONTINUOUS
10
85.0016
20
-67.975
11
151.998
21
-67.975
0
LINE
8
BLACK
6
CONTINUOUS
10
151.998
20
-67.975
11
151.999
21
-67.9749
0
LINE
8
BLACK
6
CONTINUOUS
10
151.999
20
-67.9749
11
152.001
21
-67.975
0
LINE
8
BLACK
6
CONTINUOUS
10
152.001
20
-67.975
11
152.001
21
-67.975
0
LINE
8
BLACK
6
CONTINUOUS
10
152.001
20
-67.975
11
152.002
21
-67.9751
0
LINE
8
BLACK
6
CONTINUOUS
10
152.002
20
-67.9751
11
152.004
21
-67.9752
0
LINE
8
BLACK
6
CONTINUOUS
10
152.004
20
-67.9752
11
152.004
21
-67.9753
0
LINE
8
BLACK
6
CONTINUOUS
10
152.004
20
-67.9753
11
152.005
21
-67.9754
0
LINE
8
BLACK
6
CONTINUOUS
10
152.005
20
-67.9754
11
152.007
21
-67.9759
0
LINE
8
BLACK
6
CONTINUOUS
10
152.007
20
-67.9759
11
152.008
21
-67.9764
0
LINE
8
BLACK
6
CONTINUOUS
10
152.008
20
-67.9764
11
152.009
21
-67.9766
0
LINE
8
BLACK
6
CONTINUOUS
10
152.009
20
-67.9766
11
152.01
21
-67.9768
0
LINE
8
BLACK
6
CONTINUOUS
10
152.01
20
-67.9768
11
152.011
21
-67.9777
0
LINE
8
BLACK
6
CONTINUOUS
10
152.011
20
-67.9777
11
152.012
21
-67.9779
0
LINE
8
BLACK
6
CONTINUOUS
10
152.012
20
-67.9779
11
152.012
21
-67.9782
0
LINE
8
BLACK
6
CONTINUOUS
10
152.012
20
-67.9782
11
152.014
21
-67.9791
0
LINE
8
BLACK
6
CONTINUOUS
10
152.014
20
-67.9791
11
152.014
21
-67.9795
0
LINE
8
BLACK
6
CONTINUOUS
10
152.014
20
-67.9795
11
154.512
21
-69.4783
0
LINE
8
BLACK
6
CONTINUOUS
10
154.512
20
-69.4783
11
154.514
21
-69.4791
0
LINE
8
BLACK
6
CONTINUOUS
10
154.514
20
-69.4791
11
154.515
21
-69.4803
0
LINE
8
BLACK
6
CONTINUOUS
10
154.515
20
-69.4803
11
154.517
21
-69.4814
0
LINE
8
BLACK
6
CONTINUOUS
10
154.517
20
-69.4814
11
154.517
21
-69.4818
0
LINE
8
BLACK
6
CONTINUOUS
10
154.517
20
-69.4818
11
154.518
21
-69.4822
0
LINE
8
BLACK
6
CONTINUOUS
10
154.518
20
-69.4822
11
154.519
21
-69.4837
0
LINE
8
BLACK
6
CONTINUOUS
10
154.519
20
-69.4837
11
154.52
21
-69.485
0
LINE
8
BLACK
6
CONTINUOUS
10
154.52
20
-69.485
11
154.52
21
-69.4856
0
LINE
8
BLACK
6
CONTINUOUS
10
154.52
20
-69.4856
11
154.521
21
-69.486
0
LINE
8
BLACK
6
CONTINUOUS
10
154.521
20
-69.486
11
154.522
21
-69.4877
0
LINE
8
BLACK
6
CONTINUOUS
10
154.522
20
-69.4877
11
154.523
21
-69.4893
0
LINE
8
BLACK
6
CONTINUOUS
10
154.523
20
-69.4893
11
154.523
21
-69.4898
0
LINE
8
BLACK
6
CONTINUOUS
10
154.523
20
-69.4898
11
154.523
21
-69.4904
0
LINE
8
BLACK
6
CONTINUOUS
10
154.523
20
-69.4904
11
154.524
21
-69.4922
0
LINE
8
BLACK
6
CONTINUOUS
10
154.524
20
-69.4922
11
154.524
21
-69.4939
0
LINE
8
BLACK
6
CONTINUOUS
10
154.524
20
-69.4939
11
154.524
21
-69.4945
0
LINE
8
BLACK
6
CONTINUOUS
10
154.524
20
-69.4945
11
154.525
21
-69.4951
0
LINE
8
BLACK
6
CONTINUOUS
10
154.525
20
-69.4951
11
154.525
21
-69.4969
0
LINE
8
BLACK
6
CONTINUOUS
10
154.525
20
-69.4969
11
154.525
21
-69.4988
0
LINE
8
BLACK
6
CONTINUOUS
10
154.525
20
-69.4988
11
154.525
21
-69.5006
0
LINE
8
BLACK
6
CONTINUOUS
10
154.525
20
-69.5006
11
154.525
21
-93.4994
0
LINE
8
BLACK
6
CONTINUOUS
10
154.525
20
-93.4994
11
154.525
21
-93.5012
0
LINE
8
BLACK
6
CONTINUOUS
10
154.525
20
-93.5012
11
154.525
21
-93.5031
0
LINE
8
BLACK
6
CONTINUOUS
10
154.525
20
-93.5031
11
154.525
21
-93.5049
0
LINE
8
BLACK
6
CONTINUOUS
10
154.525
20
-93.5049
11
154.524
21
-93.5055
0
LINE
8
BLACK
6
CONTINUOUS
10
154.524
20
-93.5055
11
154.524
21
-93.5061
0
LINE
8
BLACK
6
CONTINUOUS
10
154.524
20
-93.5061
11
154.524
21
-93.5078
0
LINE
8
BLACK
6
CONTINUOUS
10
154.524
20
-93.5078
11
154.523
21
-93.5096
0
LINE
8
BLACK
6
CONTINUOUS
10
154.523
20
-93.5096
11
154.523
21
-93.5102
0
LINE
8
BLACK
6
CONTINUOUS
10
154.523
20
-93.5102
11
154.523
21
-93.5107
0
LINE
8
BLACK
6
CONTINUOUS
10
154.523
20
-93.5107
11
154.522
21
-93.5123
0
LINE
8
BLACK
6
CONTINUOUS
10
154.522
20
-93.5123
11
154.521
21
-93.514
0
LINE
8
BLACK
6
CONTINUOUS
10
154.521
20
-93.514
11
154.52
21
-93.5144
0
LINE
8
BLACK
6
CONTINUOUS
10
154.52
20
-93.5144
11
154.52
21
-93.515
0
LINE
8
BLACK
6
CONTINUOUS
10
154.52
20
-93.515
11
154.519
21
-93.5163
0
LINE
8
BLACK
6
CONTINUOUS
10
154.519
20
-93.5163
11
154.518
21
-93.5178
0
LINE
8
BLACK
6
CONTINUOUS
10
154.518
20
-93.5178
11
154.517
21
-93.5182
0
LINE
8
BLACK
6
CONTINUOUS
10
154.517
20
-93.5182
11
154.517
21
-93.5186
0
LINE
8
BLACK
6
CONTINUOUS
10
154.517
20
-93.5186
11
154.515
21
-93.5197
0
LINE
8
BLACK
6
CONTINUOUS
10
154.515
20
-93.5197
11
154.514
21
-93.5209
0
LINE
8
BLACK
6
CONTINUOUS
10
154.514
20
-93.5209
11
154.512
21
-93.5218
0
LINE
8
BLACK
6
CONTINUOUS
10
154.512
20
-93.5218
11
152.014
21
-95.0205
0
LINE
8
BLACK
6
CONTINUOUS
10
152.014
20
-95.0205
11
152.014
21
-95.0209
0
LINE
8
BLACK
6
CONTINUOUS
10
152.014
20
-95.0209
11
152.012
21
-95.0218
0
LINE
8
BLACK
6
CONTINUOUS
10
152.012
20
-95.0218
11
152.012
21
-95.0221
0
LINE
8
BLACK
6
CONTINUOUS
10
152.012
20
-95.0221
11
152.011
21
-95.0223
0
LINE
8
BLACK
6
CONTINUOUS
10
152.011
20
-95.0223
11
152.01
21
-95.0232
0
LINE
8
BLACK
6
CONTINUOUS
10
152.01
20
-95.0232
11
152.009
21
-95.0234
0
LINE
8
BLACK
6
CONTINUOUS
10
152.009
20
-95.0234
11
152.008
21
-95.0236
0
LINE
8
BLACK
6
CONTINUOUS
10
152.008
20
-95.0236
11
152.007
21
-95.0241
0
LINE
8
BLACK
6
CONTINUOUS
10
152.007
20
-95.0241
11
152.005
21
-95.0246
0
LINE
8
BLACK
6
CONTINUOUS
10
152.005
20
-95.0246
11
152.004
21
-95.0247
0
LINE
8
BLACK
6
CONTINUOUS
10
152.004
20
-95.0247
11
152.004
21
-95.0248
0
LINE
8
BLACK
6
CONTINUOUS
10
152.004
20
-95.0248
11
152.002
21
-95.0249
0
LINE
8
BLACK
6
CONTINUOUS
10
152.002
20
-95.0249
11
152.001
21
-95.025
0
LINE
8
BLACK
6
CONTINUOUS
10
152.001
20
-95.025
11
152.001
21
-95.025
0
LINE
8
BLACK
6
CONTINUOUS
10
152.001
20
-95.025
11
151.999
21
-95.0251
0
LINE
8
BLACK
6
CONTINUOUS
10
151.999
20
-95.0251
11
151.998
21
-95.025
0
LINE
8
BLACK
6
CONTINUOUS
10
151.998
20
-95.025
11
85.0016
21
-95.025
0
LINE
8
BLACK
6
CONTINUOUS
10
85.0016
20
-95.025
11
85.0008
21
-95.0251
0
LINE
8
BLACK
6
CONTINUOUS
10
85.0008
20
-95.0251
11
84.9992
21
-95.025
0
LINE
8
BLACK
6
CONTINUOUS
10
84.9992
20
-95.025
11
84.9988
21
-95.025
0
LINE
8
BLACK
6
CONTINUOUS
10
84.9988
20
-95.025
11
84.9979
21
-95.0249
0
LINE
8
BLACK
6
CONTINUOUS
10
84.9979
20
-95.0249
11
84.9959
21
-95.0248
0
LINE
8
BLACK
6
CONTINUOUS
10
84.9959
20
-95.0248
11
84.9955
21
-95.0247
0
LINE
8
BLACK
6
CONTINUOUS
10
84.9955
20
-95.0247
11
84.9951
21
-95.0246
0
LINE
8
BLACK
6
CONTINUOUS
10
84.9951
20
-95.0246
11
84.9931
21
-95.024
0
LINE
8
BLACK
6
CONTINUOUS
10
84.9931
20
-95.024
11
84.9911
21
-95.0235
0
LINE
8
BLACK
6
CONTINUOUS
10
84.9911
20
-95.0235
11
84.9908
21
-95.0233
0
LINE
8
BLACK
6
CONTINUOUS
10
84.9908
20
-95.0233
11
84.9904
21
-95.0232
0
LINE
8
BLACK
6
CONTINUOUS
10
84.9904
20
-95.0232
11
84.9885
21
-95.0222
0
LINE
8
BLACK
6
CONTINUOUS
10
84.9885
20
-95.0222
11
84.9878
21
-95.0218
0
LINE
8
BLACK
6
CONTINUOUS
10
84.9878
20
-95.0218
11
84.9875
21
-95.0216
0
LINE
8
BLACK
6
CONTINUOUS
10
84.9875
20
-95.0216
11
84.986
21
-95.0209
0
LINE
8
BLACK
6
CONTINUOUS
10
84.986
20
-95.0209
11
84.9854
21
-95.0203
0
LINE
8
BLACK
6
CONTINUOUS
10
84.9854
20
-95.0203
11
82.5875
21
-93.5216
0
LINE
8
BLACK
6
CONTINUOUS
10
82.5875
20
-93.5216
11
82.586
21
-93.5209
0
LINE
8
BLACK
6
CONTINUOUS
10
82.586
20
-93.5209
11
82.5844
21
-93.5195
0
LINE
8
BLACK
6
CONTINUOUS
10
82.5844
20
-93.5195
11
82.5828
21
-93.5183
0
LINE
8
BLACK
6
CONTINUOUS
10
82.5828
20
-93.5183
11
82.5825
21
-93.518
0
LINE
8
BLACK
6
CONTINUOUS
10
82.5825
20
-93.518
11
82.5822
21
-93.5178
0
LINE
8
BLACK
6
CONTINUOUS
10
82.5822
20
-93.5178
11
82.5809
21
-93.5161
0
LINE
8
BLACK
6
CONTINUOUS
10
82.5809
20
-93.5161
11
82.5795
21
-93.5146
0
LINE
8
BLACK
6
CONTINUOUS
10
82.5795
20
-93.5146
11
82.5794
21
-93.5143
0
LINE
8
BLACK
6
CONTINUOUS
10
82.5794
20
-93.5143
11
82.5791
21
-93.514
0
LINE
8
BLACK
6
CONTINUOUS
10
82.5791
20
-93.514
11
82.5781
21
-93.5121
0
LINE
8
BLACK
6
CONTINUOUS
10
82.5781
20
-93.5121
11
82.5771
21
-93.5103
0
LINE
8
BLACK
6
CONTINUOUS
10
82.5771
20
-93.5103
11
82.577
21
-93.5099
0
LINE
8
BLACK
6
CONTINUOUS
10
82.577
20
-93.5099
11
82.5768
21
-93.5096
0
LINE
8
BLACK
6
CONTINUOUS
10
82.5768
20
-93.5096
11
82.5762
21
-93.5076
0
LINE
8
BLACK
6
CONTINUOUS
10
82.5762
20
-93.5076
11
82.5755
21
-93.5056
0
LINE
8
BLACK
6
CONTINUOUS
10
82.5755
20
-93.5056
11
82.5755
21
-93.5053
0
LINE
8
BLACK
6
CONTINUOUS
10
82.5755
20
-93.5053
11
82.5754
21
-93.5049
0
LINE
8
BLACK
6
CONTINUOUS
10
82.5754
20
-93.5049
11
82.5752
21
-93.5029
0
LINE
8
BLACK
6
CONTINUOUS
10
82.5752
20
-93.5029
11
82.5749
21
-93.5008
0
LINE
8
BLACK
6
CONTINUOUS
10
82.5749
20
-93.5008
11
82.575
21
-93.4992
0
LINE
8
BLACK
6
CONTINUOUS
10
82.575
20
-93.4992
11
82.575
21
-69.5008
0
LINE
8
BLACK
6
CONTINUOUS
10
82.575
20
-69.5008
11
82.5749
21
-69.4992
0
LINE
8
BLACK
6
CONTINUOUS
10
82.5749
20
-69.4992
11
82.5752
21
-69.4972
0
LINE
8
BLACK
6
CONTINUOUS
10
82.5752
20
-69.4972
11
82.5754
21
-69.4951
0
LINE
8
BLACK
6
CONTINUOUS
10
82.5754
20
-69.4951
11
82.5755
21
-69.4947
0
LINE
8
BLACK
6
CONTINUOUS
10
82.5755
20
-69.4947
11
82.5755
21
-69.4944
0
LINE
8
BLACK
6
CONTINUOUS
10
82.5755
20
-69.4944
11
82.5762
21
-69.4924
0
LINE
8
BLACK
6
CONTINUOUS
10
82.5762
20
-69.4924
11
82.5768
21
-69.4904
0
LINE
8
BLACK
6
CONTINUOUS
10
82.5768
20
-69.4904
11
82.577
21
-69.49
0
LINE
8
BLACK
6
CONTINUOUS
10
82.577
20
-69.49
11
82.5771
21
-69.4897
0
LINE
8
BLACK
6
CONTINUOUS
10
82.5771
20
-69.4897
11
82.5781
21
-69.4879
0
LINE
8
BLACK
6
CONTINUOUS
10
82.5781
20
-69.4879
11
82.5791
21
-69.486
0
LINE
8
BLACK
6
CONTINUOUS
10
82.5791
20
-69.486
11
82.5794
21
-69.4857
0
LINE
8
BLACK
6
CONTINUOUS
10
82.5794
20
-69.4857
11
82.5795
21
-69.4854
0
LINE
8
BLACK
6
CONTINUOUS
10
82.5795
20
-69.4854
11
82.5809
21
-69.4839
0
LINE
8
BLACK
6
CONTINUOUS
10
82.5809
20
-69.4839
11
82.5822
21
-69.4822
0
LINE
8
BLACK
6
CONTINUOUS
10
82.5822
20
-69.4822
11
82.5825
21
-69.482
0
LINE
8
BLACK
6
CONTINUOUS
10
82.5825
20
-69.482
11
82.5828
21
-69.4817
0
LINE
8
BLACK
6
CONTINUOUS
10
82.5828
20
-69.4817
11
82.5844
21
-69.4805
0
LINE
8
BLACK
6
CONTINUOUS
10
82.5844
20
-69.4805
11
82.586
21
-69.4791
0
LINE
8
BLACK
6
CONTINUOUS
10
82.586
20
-69.4791
11
82.5875
21
-69.4783
0
LINE
8
BLACK
6
CONTINUOUS
10
82.5875
20
-69.4783
11
84.9854
21
-67.9797
0
LINE
8
BLACK
6
CONTINUOUS
10
84.9854
20
-67.9797
11
84.986
21
-67.9791
0
LINE
8
BLACK
6
CONTINUOUS
10
84.986
20
-67.9791
11
84.9875
21
-67.9784
0
LINE
8
BLACK
6
CONTINUOUS
10
84.9875
20
-67.9784
11
84.9878
21
-67.9782
0
LINE
8
BLACK
6
CONTINUOUS
10
84.9878
20
-67.9782
11
84.9885
21
-67.9778
0
LINE
8
BLACK
6
CONTINUOUS
10
84.9885
20
-67.9778
11
84.9904
21
-67.9768
0
LINE
8
BLACK
6
CONTINUOUS
10
84.9904
20
-67.9768
11
84.9908
21
-67.9767
0
LINE
8
BLACK
6
CONTINUOUS
10
84.9908
20
-67.9767
11
84.9911
21
-67.9765
0
LINE
8
BLACK
6
CONTINUOUS
10
84.9911
20
-67.9765
11
84.9931
21
-67.976
0
LINE
8
BLACK
6
CONTINUOUS
10
84.9931
20
-67.976
11
84.9951
21
-67.9754
0
LINE
8
BLACK
6
CONTINUOUS
10
84.9951
20
-67.9754
11
84.9955
21
-67.9753
0
LINE
8
BLACK
6
CONTINUOUS
10
84.9955
20
-67.9753
11
84.9959
21
-67.9752
0
LINE
8
BLACK
6
CONTINUOUS
10
84.9959
20
-67.9752
11
84.9979
21
-67.9751
0
LINE
8
BLACK
6
CONTINUOUS
10
84.9979
20
-67.9751
11
84.9988
21
-67.975
0
LINE
8
BLACK
6
CONTINUOUS
10
84.9988
20
-67.975
11
84.9992
21
-67.975
0
LINE
8
BLACK
6
CONTINUOUS
10
84.9992
20
-67.975
11
85.0008
21
-67.9749
0
LINE
8
BLACK
6
CONTINUOUS
10
85.0008
20
-67.9749
11
85.0016
21
-67.975
0
LINE
8
BLACK
6
CONTINUOUS
10
85.0072
20
-68.025
11
82.625
21
-69.5139
0
LINE
8
BLACK
6
CONTINUOUS
10
82.625
20
-69.5139
11
82.625
21
-93.4861
0
LINE
8
BLACK
6
CONTINUOUS
10
82.625
20
-93.4861
11
85.0072
21
-94.975
0
LINE
8
BLACK
6
CONTINUOUS
10
85.0072
20
-94.975
11
151.993
21
-94.975
0
LINE
8
BLACK
6
CONTINUOUS
10
151.993
20
-94.975
11
154.475
21
-93.4858
0
LINE
8
BLACK
6
CONTINUOUS
10
154.475
20
-93.4858
11
154.475
21
-69.5142
0
LINE
8
BLACK
6
CONTINUOUS
10
154.475
20
-69.5142
11
151.993
21
-68.025
0
LINE
8
BLACK
6
CONTINUOUS
10
151.993
20
-68.025
11
85.0072
21
-68.025
  0
ENDSEC
  0
EOF
