  0
SECTION
  2
HEADER
  9
$ANGBASE
  50
0.0
  9
$ANGDIR
  70
1
  9
$MEASUREMENT
  70
1
  0
ENDSEC
  0
SECTION
  2
TABLES
  0
TABLE
  2
LTYPE
  70
4
  0
LTYPE
  5
40F
  2
CONTINUOUS
  70
0
  3
Solid line
  72
65
  73
0
  40
0.0
  0
LTYPE
  5
410
  2
DASHDOT
 70
0
  3
Dash Dot ____ _ ____ _
 72
65
 73
4
 40
2.0
 49
1.25
 49
-0.25
 49
0.25
 49
-0.25
  0
LTYPE
  5
411
  2
DASHED
 70
0
  3
Dashed __ __ __ __ __
 72
65
 73
2
 40
0.75
 49
0.5
 49
-0.25
  0
LTYPE
  5
43B
  2
DOTTED
 70
0
  3
Dotted .  .  .  .
 72
65
 73
2
 40
0.2
 49
0.0
 49
-0.2
  0
ENDTAB
  0
TABLE
  2
STYLE
  70
4
  0
STYLE
  2
KICAD
  70
0
  40
0
  41
1
  42
1
  50
0
  71
0
  3
isocp.shx
  0
STYLE
  2
KICADB
  70
0
  40
0
  41
1
  42
1
  50
0
  71
0
  3
isocp.shx
  0
STYLE
  2
KICADI
  70
0
  40
0
  41
1
  42
1
  50
15
  71
0
  3
isocp.shx
  0
STYLE
  2
KICADBI
  70
0
  40
0
  41
1
  42
1
  50
15
  71
0
  3
isocp.shx
  0
ENDTAB
  0
TABLE
  2
LAYER
  70
1
  0
LAYER
  2
BLACK
  70
0
  62
7
  6
CONTINUOUS
  0
ENDTAB
  0
ENDSEC
  0
SECTION
  2
ENTITIES
0
LINE
8
BLACK
6
CONTINUOUS
10
151.867
20
-89.1486
11
152.358
21
-89.3521
0
LINE
8
BLACK
6
CONTINUOUS
10
152.358
20
-89.3521
11
152.8
21
-89.6476
0
LINE
8
BLACK
6
CONTINUOUS
10
152.8
20
-89.6476
11
153.176
21
-90.0236
0
LINE
8
BLACK
6
CONTINUOUS
10
153.176
20
-90.0236
11
153.472
21
-90.4659
0
LINE
8
BLACK
6
CONTINUOUS
10
153.472
20
-90.4659
11
153.675
21
-90.9572
0
LINE
8
BLACK
6
CONTINUOUS
10
153.675
20
-90.9572
11
153.779
21
-91.4789
0
LINE
8
BLACK
6
CONTINUOUS
10
153.779
20
-91.4789
11
153.779
21
-92.0107
0
LINE
8
BLACK
6
CONTINUOUS
10
153.779
20
-92.0107
11
153.675
21
-92.5324
0
LINE
8
BLACK
6
CONTINUOUS
10
153.675
20
-92.5324
11
153.472
21
-93.0237
0
LINE
8
BLACK
6
CONTINUOUS
10
153.472
20
-93.0237
11
153.176
21
-93.4659
0
LINE
8
BLACK
6
CONTINUOUS
10
153.176
20
-93.4659
11
152.8
21
-93.842
0
LINE
8
BLACK
6
CONTINUOUS
10
152.8
20
-93.842
11
152.358
21
-94.1375
0
LINE
8
BLACK
6
CONTINUOUS
10
152.358
20
-94.1375
11
151.867
21
-94.341
0
LINE
8
BLACK
6
CONTINUOUS
10
151.867
20
-94.341
11
151.345
21
-94.4448
0
LINE
8
BLACK
6
CONTINUOUS
10
151.345
20
-94.4448
11
150.813
21
-94.4448
0
LINE
8
BLACK
6
CONTINUOUS
10
150.813
20
-94.4448
11
150.292
21
-94.341
0
LINE
8
BLACK
6
CONTINUOUS
10
150.292
20
-94.341
11
149.8
21
-94.1375
0
LINE
8
BLACK
6
CONTINUOUS
10
149.8
20
-94.1375
11
149.358
21
-93.842
0
LINE
8
BLACK
6
CONTINUOUS
10
149.358
20
-93.842
11
148.982
21
-93.4659
0
LINE
8
BLACK
6
CONTINUOUS
10
148.982
20
-93.4659
11
148.686
21
-93.0237
0
LINE
8
BLACK
6
CONTINUOUS
10
148.686
20
-93.0237
11
148.483
21
-92.5324
0
LINE
8
BLACK
6
CONTINUOUS
10
148.483
20
-92.5324
11
148.379
21
-92.0107
0
LINE
8
BLACK
6
CONTINUOUS
10
148.379
20
-92.0107
11
148.379
21
-91.4789
0
LINE
8
BLACK
6
CONTINUOUS
10
148.379
20
-91.4789
11
148.483
21
-90.9572
0
LINE
8
BLACK
6
CONTINUOUS
10
148.483
20
-90.9572
11
148.686
21
-90.4659
0
LINE
8
BLACK
6
CONTINUOUS
10
148.686
20
-90.4659
11
148.982
21
-90.0236
0
LINE
8
BLACK
6
CONTINUOUS
10
148.982
20
-90.0236
11
149.358
21
-89.6476
0
LINE
8
BLACK
6
CONTINUOUS
10
149.358
20
-89.6476
11
149.8
21
-89.3521
0
LINE
8
BLACK
6
CONTINUOUS
10
149.8
20
-89.3521
11
150.292
21
-89.1486
0
LINE
8
BLACK
6
CONTINUOUS
10
150.292
20
-89.1486
11
150.813
21
-89.0448
0
LINE
8
BLACK
6
CONTINUOUS
10
150.813
20
-89.0448
11
151.345
21
-89.0448
0
LINE
8
BLACK
6
CONTINUOUS
10
151.345
20
-89.0448
11
151.867
21
-89.1486
0
LINE
8
BLACK
6
CONTINUOUS
10
86.6142
20
-89.1486
11
87.1055
21
-89.3521
0
LINE
8
BLACK
6
CONTINUOUS
10
87.1055
20
-89.3521
11
87.5477
21
-89.6476
0
LINE
8
BLACK
6
CONTINUOUS
10
87.5477
20
-89.6476
11
87.9238
21
-90.0236
0
LINE
8
BLACK
6
CONTINUOUS
10
87.9238
20
-90.0236
11
88.2193
21
-90.4659
0
LINE
8
BLACK
6
CONTINUOUS
10
88.2193
20
-90.4659
11
88.4228
21
-90.9572
0
LINE
8
BLACK
6
CONTINUOUS
10
88.4228
20
-90.9572
11
88.5266
21
-91.4789
0
LINE
8
BLACK
6
CONTINUOUS
10
88.5266
20
-91.4789
11
88.5266
21
-92.0107
0
LINE
8
BLACK
6
CONTINUOUS
10
88.5266
20
-92.0107
11
88.4228
21
-92.5324
0
LINE
8
BLACK
6
CONTINUOUS
10
88.4228
20
-92.5324
11
88.2193
21
-93.0237
0
LINE
8
BLACK
6
CONTINUOUS
10
88.2193
20
-93.0237
11
87.9238
21
-93.4659
0
LINE
8
BLACK
6
CONTINUOUS
10
87.9238
20
-93.4659
11
87.5477
21
-93.842
0
LINE
8
BLACK
6
CONTINUOUS
10
87.5477
20
-93.842
11
87.1055
21
-94.1375
0
LINE
8
BLACK
6
CONTINUOUS
10
87.1055
20
-94.1375
11
86.6142
21
-94.341
0
LINE
8
BLACK
6
CONTINUOUS
10
86.6142
20
-94.341
11
86.0925
21
-94.4448
0
LINE
8
BLACK
6
CONTINUOUS
10
86.0925
20
-94.4448
11
85.5607
21
-94.4448
0
LINE
8
BLACK
6
CONTINUOUS
10
85.5607
20
-94.4448
11
85.039
21
-94.341
0
LINE
8
BLACK
6
CONTINUOUS
10
85.039
20
-94.341
11
84.5477
21
-94.1375
0
LINE
8
BLACK
6
CONTINUOUS
10
84.5477
20
-94.1375
11
84.1054
21
-93.842
0
LINE
8
BLACK
6
CONTINUOUS
10
84.1054
20
-93.842
11
83.7294
21
-93.4659
0
LINE
8
BLACK
6
CONTINUOUS
10
83.7294
20
-93.4659
11
83.4339
21
-93.0237
0
LINE
8
BLACK
6
CONTINUOUS
10
83.4339
20
-93.0237
11
83.2304
21
-92.5324
0
LINE
8
BLACK
6
CONTINUOUS
10
83.2304
20
-92.5324
11
83.1266
21
-92.0107
0
LINE
8
BLACK
6
CONTINUOUS
10
83.1266
20
-92.0107
11
83.1266
21
-91.4789
0
LINE
8
BLACK
6
CONTINUOUS
10
83.1266
20
-91.4789
11
83.2304
21
-90.9572
0
LINE
8
BLACK
6
CONTINUOUS
10
83.2304
20
-90.9572
11
83.4339
21
-90.4659
0
LINE
8
BLACK
6
CONTINUOUS
10
83.4339
20
-90.4659
11
83.7294
21
-90.0236
0
LINE
8
BLACK
6
CONTINUOUS
10
83.7294
20
-90.0236
11
84.1054
21
-89.6476
0
LINE
8
BLACK
6
CONTINUOUS
10
84.1054
20
-89.6476
11
84.5477
21
-89.3521
0
LINE
8
BLACK
6
CONTINUOUS
10
84.5477
20
-89.3521
11
85.039
21
-89.1486
0
LINE
8
BLACK
6
CONTINUOUS
10
85.039
20
-89.1486
11
85.5607
21
-89.0448
0
LINE
8
BLACK
6
CONTINUOUS
10
85.5607
20
-89.0448
11
86.0925
21
-89.0448
0
LINE
8
BLACK
6
CONTINUOUS
10
86.0925
20
-89.0448
11
86.6142
21
-89.1486
0
LINE
8
BLACK
6
CONTINUOUS
10
99.65
20
-92.49
11
97.95
21
-92.49
0
LINE
8
BLACK
6
CONTINUOUS
10
97.95
20
-92.49
11
97.95
21
-90.79
0
LINE
8
BLACK
6
CONTINUOUS
10
97.95
20
-90.79
11
99.65
21
-90.79
0
LINE
8
BLACK
6
CONTINUOUS
10
99.65
20
-90.79
11
99.65
21
-92.49
0
LINE
8
BLACK
6
CONTINUOUS
10
101.588
20
-90.8227
11
101.743
21
-90.8867
0
LINE
8
BLACK
6
CONTINUOUS
10
101.743
20
-90.8867
11
101.882
21
-90.9798
0
LINE
8
BLACK
6
CONTINUOUS
10
101.882
20
-90.9798
11
102
21
-91.0982
0
LINE
8
BLACK
6
CONTINUOUS
10
102
20
-91.0982
11
102.093
21
-91.2374
0
LINE
8
BLACK
6
CONTINUOUS
10
102.093
20
-91.2374
11
102.157
21
-91.3921
0
LINE
8
BLACK
6
CONTINUOUS
10
102.157
20
-91.3921
11
102.19
21
-91.5563
0
LINE
8
BLACK
6
CONTINUOUS
10
102.19
20
-91.5563
11
102.19
21
-91.7237
0
LINE
8
BLACK
6
CONTINUOUS
10
102.19
20
-91.7237
11
102.157
21
-91.8879
0
LINE
8
BLACK
6
CONTINUOUS
10
102.157
20
-91.8879
11
102.093
21
-92.0426
0
LINE
8
BLACK
6
CONTINUOUS
10
102.093
20
-92.0426
11
102
21
-92.1818
0
LINE
8
BLACK
6
CONTINUOUS
10
102
20
-92.1818
11
101.882
21
-92.3002
0
LINE
8
BLACK
6
CONTINUOUS
10
101.882
20
-92.3002
11
101.743
21
-92.3933
0
LINE
8
BLACK
6
CONTINUOUS
10
101.743
20
-92.3933
11
101.588
21
-92.4573
0
LINE
8
BLACK
6
CONTINUOUS
10
101.588
20
-92.4573
11
101.424
21
-92.49
0
LINE
8
BLACK
6
CONTINUOUS
10
101.424
20
-92.49
11
101.256
21
-92.49
0
LINE
8
BLACK
6
CONTINUOUS
10
101.256
20
-92.49
11
101.092
21
-92.4573
0
LINE
8
BLACK
6
CONTINUOUS
10
101.092
20
-92.4573
11
100.937
21
-92.3933
0
LINE
8
BLACK
6
CONTINUOUS
10
100.937
20
-92.3933
11
100.798
21
-92.3002
0
LINE
8
BLACK
6
CONTINUOUS
10
100.798
20
-92.3002
11
100.68
21
-92.1818
0
LINE
8
BLACK
6
CONTINUOUS
10
100.68
20
-92.1818
11
100.587
21
-92.0426
0
LINE
8
BLACK
6
CONTINUOUS
10
100.587
20
-92.0426
11
100.523
21
-91.8879
0
LINE
8
BLACK
6
CONTINUOUS
10
100.523
20
-91.8879
11
100.49
21
-91.7237
0
LINE
8
BLACK
6
CONTINUOUS
10
100.49
20
-91.7237
11
100.49
21
-91.5563
0
LINE
8
BLACK
6
CONTINUOUS
10
100.49
20
-91.5563
11
100.523
21
-91.3921
0
LINE
8
BLACK
6
CONTINUOUS
10
100.523
20
-91.3921
11
100.587
21
-91.2374
0
LINE
8
BLACK
6
CONTINUOUS
10
100.587
20
-91.2374
11
100.68
21
-91.0982
0
LINE
8
BLACK
6
CONTINUOUS
10
100.68
20
-91.0982
11
100.798
21
-90.9798
0
LINE
8
BLACK
6
CONTINUOUS
10
100.798
20
-90.9798
11
100.937
21
-90.8867
0
LINE
8
BLACK
6
CONTINUOUS
10
100.937
20
-90.8867
11
101.092
21
-90.8227
0
LINE
8
BLACK
6
CONTINUOUS
10
101.092
20
-90.8227
11
101.256
21
-90.79
0
LINE
8
BLACK
6
CONTINUOUS
10
101.256
20
-90.79
11
101.424
21
-90.79
0
LINE
8
BLACK
6
CONTINUOUS
10
101.424
20
-90.79
11
101.588
21
-90.8227
0
LINE
8
BLACK
6
CONTINUOUS
10
104.128
20
-90.8227
11
104.283
21
-90.8867
0
LINE
8
BLACK
6
CONTINUOUS
10
104.283
20
-90.8867
11
104.422
21
-90.9798
0
LINE
8
BLACK
6
CONTINUOUS
10
104.422
20
-90.9798
11
104.54
21
-91.0982
0
LINE
8
BLACK
6
CONTINUOUS
10
104.54
20
-91.0982
11
104.633
21
-91.2374
0
LINE
8
BLACK
6
CONTINUOUS
10
104.633
20
-91.2374
11
104.697
21
-91.3921
0
LINE
8
BLACK
6
CONTINUOUS
10
104.697
20
-91.3921
11
104.73
21
-91.5563
0
LINE
8
BLACK
6
CONTINUOUS
10
104.73
20
-91.5563
11
104.73
21
-91.7237
0
LINE
8
BLACK
6
CONTINUOUS
10
104.73
20
-91.7237
11
104.697
21
-91.8879
0
LINE
8
BLACK
6
CONTINUOUS
10
104.697
20
-91.8879
11
104.633
21
-92.0426
0
LINE
8
BLACK
6
CONTINUOUS
10
104.633
20
-92.0426
11
104.54
21
-92.1818
0
LINE
8
BLACK
6
CONTINUOUS
10
104.54
20
-92.1818
11
104.422
21
-92.3002
0
LINE
8
BLACK
6
CONTINUOUS
10
104.422
20
-92.3002
11
104.283
21
-92.3933
0
LINE
8
BLACK
6
CONTINUOUS
10
104.283
20
-92.3933
11
104.128
21
-92.4573
0
LINE
8
BLACK
6
CONTINUOUS
10
104.128
20
-92.4573
11
103.964
21
-92.49
0
LINE
8
BLACK
6
CONTINUOUS
10
103.964
20
-92.49
11
103.796
21
-92.49
0
LINE
8
BLACK
6
CONTINUOUS
10
103.796
20
-92.49
11
103.632
21
-92.4573
0
LINE
8
BLACK
6
CONTINUOUS
10
103.632
20
-92.4573
11
103.477
21
-92.3933
0
LINE
8
BLACK
6
CONTINUOUS
10
103.477
20
-92.3933
11
103.338
21
-92.3002
0
LINE
8
BLACK
6
CONTINUOUS
10
103.338
20
-92.3002
11
103.22
21
-92.1818
0
LINE
8
BLACK
6
CONTINUOUS
10
103.22
20
-92.1818
11
103.127
21
-92.0426
0
LINE
8
BLACK
6
CONTINUOUS
10
103.127
20
-92.0426
11
103.063
21
-91.8879
0
LINE
8
BLACK
6
CONTINUOUS
10
103.063
20
-91.8879
11
103.03
21
-91.7237
0
LINE
8
BLACK
6
CONTINUOUS
10
103.03
20
-91.7237
11
103.03
21
-91.5563
0
LINE
8
BLACK
6
CONTINUOUS
10
103.03
20
-91.5563
11
103.063
21
-91.3921
0
LINE
8
BLACK
6
CONTINUOUS
10
103.063
20
-91.3921
11
103.127
21
-91.2374
0
LINE
8
BLACK
6
CONTINUOUS
10
103.127
20
-91.2374
11
103.22
21
-91.0982
0
LINE
8
BLACK
6
CONTINUOUS
10
103.22
20
-91.0982
11
103.338
21
-90.9798
0
LINE
8
BLACK
6
CONTINUOUS
10
103.338
20
-90.9798
11
103.477
21
-90.8867
0
LINE
8
BLACK
6
CONTINUOUS
10
103.477
20
-90.8867
11
103.632
21
-90.8227
0
LINE
8
BLACK
6
CONTINUOUS
10
103.632
20
-90.8227
11
103.796
21
-90.79
0
LINE
8
BLACK
6
CONTINUOUS
10
103.796
20
-90.79
11
103.964
21
-90.79
0
LINE
8
BLACK
6
CONTINUOUS
10
103.964
20
-90.79
11
104.128
21
-90.8227
0
LINE
8
BLACK
6
CONTINUOUS
10
92.671
20
-91.7566
11
90.971
21
-91.7566
0
LINE
8
BLACK
6
CONTINUOUS
10
90.971
20
-91.7566
11
90.971
21
-90.0566
0
LINE
8
BLACK
6
CONTINUOUS
10
90.971
20
-90.0566
11
92.671
21
-90.0566
0
LINE
8
BLACK
6
CONTINUOUS
10
92.671
20
-90.0566
11
92.671
21
-91.7566
0
LINE
8
BLACK
6
CONTINUOUS
10
99.0479
20
-88.2827
11
99.2026
21
-88.3467
0
LINE
8
BLACK
6
CONTINUOUS
10
99.2026
20
-88.3467
11
99.3418
21
-88.4398
0
LINE
8
BLACK
6
CONTINUOUS
10
99.3418
20
-88.4398
11
99.4602
21
-88.5582
0
LINE
8
BLACK
6
CONTINUOUS
10
99.4602
20
-88.5582
11
99.5533
21
-88.6974
0
LINE
8
BLACK
6
CONTINUOUS
10
99.5533
20
-88.6974
11
99.6173
21
-88.8521
0
LINE
8
BLACK
6
CONTINUOUS
10
99.6173
20
-88.8521
11
99.65
21
-89.0163
0
LINE
8
BLACK
6
CONTINUOUS
10
99.65
20
-89.0163
11
99.65
21
-89.1837
0
LINE
8
BLACK
6
CONTINUOUS
10
99.65
20
-89.1837
11
99.6173
21
-89.3479
0
LINE
8
BLACK
6
CONTINUOUS
10
99.6173
20
-89.3479
11
99.5533
21
-89.5026
0
LINE
8
BLACK
6
CONTINUOUS
10
99.5533
20
-89.5026
11
99.4602
21
-89.6418
0
LINE
8
BLACK
6
CONTINUOUS
10
99.4602
20
-89.6418
11
99.3418
21
-89.7602
0
LINE
8
BLACK
6
CONTINUOUS
10
99.3418
20
-89.7602
11
99.2026
21
-89.8533
0
LINE
8
BLACK
6
CONTINUOUS
10
99.2026
20
-89.8533
11
99.0479
21
-89.9173
0
LINE
8
BLACK
6
CONTINUOUS
10
99.0479
20
-89.9173
11
98.8837
21
-89.95
0
LINE
8
BLACK
6
CONTINUOUS
10
98.8837
20
-89.95
11
98.7163
21
-89.95
0
LINE
8
BLACK
6
CONTINUOUS
10
98.7163
20
-89.95
11
98.5521
21
-89.9173
0
LINE
8
BLACK
6
CONTINUOUS
10
98.5521
20
-89.9173
11
98.3974
21
-89.8533
0
LINE
8
BLACK
6
CONTINUOUS
10
98.3974
20
-89.8533
11
98.2582
21
-89.7602
0
LINE
8
BLACK
6
CONTINUOUS
10
98.2582
20
-89.7602
11
98.1398
21
-89.6418
0
LINE
8
BLACK
6
CONTINUOUS
10
98.1398
20
-89.6418
11
98.0467
21
-89.5026
0
LINE
8
BLACK
6
CONTINUOUS
10
98.0467
20
-89.5026
11
97.9827
21
-89.3479
0
LINE
8
BLACK
6
CONTINUOUS
10
97.9827
20
-89.3479
11
97.95
21
-89.1837
0
LINE
8
BLACK
6
CONTINUOUS
10
97.95
20
-89.1837
11
97.95
21
-89.0163
0
LINE
8
BLACK
6
CONTINUOUS
10
97.95
20
-89.0163
11
97.9827
21
-88.8521
0
LINE
8
BLACK
6
CONTINUOUS
10
97.9827
20
-88.8521
11
98.0467
21
-88.6974
0
LINE
8
BLACK
6
CONTINUOUS
10
98.0467
20
-88.6974
11
98.1398
21
-88.5582
0
LINE
8
BLACK
6
CONTINUOUS
10
98.1398
20
-88.5582
11
98.2582
21
-88.4398
0
LINE
8
BLACK
6
CONTINUOUS
10
98.2582
20
-88.4398
11
98.3974
21
-88.3467
0
LINE
8
BLACK
6
CONTINUOUS
10
98.3974
20
-88.3467
11
98.5521
21
-88.2827
0
LINE
8
BLACK
6
CONTINUOUS
10
98.5521
20
-88.2827
11
98.7163
21
-88.25
0
LINE
8
BLACK
6
CONTINUOUS
10
98.7163
20
-88.25
11
98.8837
21
-88.25
0
LINE
8
BLACK
6
CONTINUOUS
10
98.8837
20
-88.25
11
99.0479
21
-88.2827
0
LINE
8
BLACK
6
CONTINUOUS
10
101.588
20
-88.2827
11
101.743
21
-88.3467
0
LINE
8
BLACK
6
CONTINUOUS
10
101.743
20
-88.3467
11
101.882
21
-88.4398
0
LINE
8
BLACK
6
CONTINUOUS
10
101.882
20
-88.4398
11
102
21
-88.5582
0
LINE
8
BLACK
6
CONTINUOUS
10
102
20
-88.5582
11
102.093
21
-88.6974
0
LINE
8
BLACK
6
CONTINUOUS
10
102.093
20
-88.6974
11
102.157
21
-88.8521
0
LINE
8
BLACK
6
CONTINUOUS
10
102.157
20
-88.8521
11
102.19
21
-89.0163
0
LINE
8
BLACK
6
CONTINUOUS
10
102.19
20
-89.0163
11
102.19
21
-89.1837
0
LINE
8
BLACK
6
CONTINUOUS
10
102.19
20
-89.1837
11
102.157
21
-89.3479
0
LINE
8
BLACK
6
CONTINUOUS
10
102.157
20
-89.3479
11
102.093
21
-89.5026
0
LINE
8
BLACK
6
CONTINUOUS
10
102.093
20
-89.5026
11
102
21
-89.6418
0
LINE
8
BLACK
6
CONTINUOUS
10
102
20
-89.6418
11
101.882
21
-89.7602
0
LINE
8
BLACK
6
CONTINUOUS
10
101.882
20
-89.7602
11
101.743
21
-89.8533
0
LINE
8
BLACK
6
CONTINUOUS
10
101.743
20
-89.8533
11
101.588
21
-89.9173
0
LINE
8
BLACK
6
CONTINUOUS
10
101.588
20
-89.9173
11
101.424
21
-89.95
0
LINE
8
BLACK
6
CONTINUOUS
10
101.424
20
-89.95
11
101.256
21
-89.95
0
LINE
8
BLACK
6
CONTINUOUS
10
101.256
20
-89.95
11
101.092
21
-89.9173
0
LINE
8
BLACK
6
CONTINUOUS
10
101.092
20
-89.9173
11
100.937
21
-89.8533
0
LINE
8
BLACK
6
CONTINUOUS
10
100.937
20
-89.8533
11
100.798
21
-89.7602
0
LINE
8
BLACK
6
CONTINUOUS
10
100.798
20
-89.7602
11
100.68
21
-89.6418
0
LINE
8
BLACK
6
CONTINUOUS
10
100.68
20
-89.6418
11
100.587
21
-89.5026
0
LINE
8
BLACK
6
CONTINUOUS
10
100.587
20
-89.5026
11
100.523
21
-89.3479
0
LINE
8
BLACK
6
CONTINUOUS
10
100.523
20
-89.3479
11
100.49
21
-89.1837
0
LINE
8
BLACK
6
CONTINUOUS
10
100.49
20
-89.1837
11
100.49
21
-89.0163
0
LINE
8
BLACK
6
CONTINUOUS
10
100.49
20
-89.0163
11
100.523
21
-88.8521
0
LINE
8
BLACK
6
CONTINUOUS
10
100.523
20
-88.8521
11
100.587
21
-88.6974
0
LINE
8
BLACK
6
CONTINUOUS
10
100.587
20
-88.6974
11
100.68
21
-88.5582
0
LINE
8
BLACK
6
CONTINUOUS
10
100.68
20
-88.5582
11
100.798
21
-88.4398
0
LINE
8
BLACK
6
CONTINUOUS
10
100.798
20
-88.4398
11
100.937
21
-88.3467
0
LINE
8
BLACK
6
CONTINUOUS
10
100.937
20
-88.3467
11
101.092
21
-88.2827
0
LINE
8
BLACK
6
CONTINUOUS
10
101.092
20
-88.2827
11
101.256
21
-88.25
0
LINE
8
BLACK
6
CONTINUOUS
10
101.256
20
-88.25
11
101.424
21
-88.25
0
LINE
8
BLACK
6
CONTINUOUS
10
101.424
20
-88.25
11
101.588
21
-88.2827
0
LINE
8
BLACK
6
CONTINUOUS
10
104.128
20
-88.2827
11
104.283
21
-88.3467
0
LINE
8
BLACK
6
CONTINUOUS
10
104.283
20
-88.3467
11
104.422
21
-88.4398
0
LINE
8
BLACK
6
CONTINUOUS
10
104.422
20
-88.4398
11
104.54
21
-88.5582
0
LINE
8
BLACK
6
CONTINUOUS
10
104.54
20
-88.5582
11
104.633
21
-88.6974
0
LINE
8
BLACK
6
CONTINUOUS
10
104.633
20
-88.6974
11
104.697
21
-88.8521
0
LINE
8
BLACK
6
CONTINUOUS
10
104.697
20
-88.8521
11
104.73
21
-89.0163
0
LINE
8
BLACK
6
CONTINUOUS
10
104.73
20
-89.0163
11
104.73
21
-89.1837
0
LINE
8
BLACK
6
CONTINUOUS
10
104.73
20
-89.1837
11
104.697
21
-89.3479
0
LINE
8
BLACK
6
CONTINUOUS
10
104.697
20
-89.3479
11
104.633
21
-89.5026
0
LINE
8
BLACK
6
CONTINUOUS
10
104.633
20
-89.5026
11
104.54
21
-89.6418
0
LINE
8
BLACK
6
CONTINUOUS
10
104.54
20
-89.6418
11
104.422
21
-89.7602
0
LINE
8
BLACK
6
CONTINUOUS
10
104.422
20
-89.7602
11
104.283
21
-89.8533
0
LINE
8
BLACK
6
CONTINUOUS
10
104.283
20
-89.8533
11
104.128
21
-89.9173
0
LINE
8
BLACK
6
CONTINUOUS
10
104.128
20
-89.9173
11
103.964
21
-89.95
0
LINE
8
BLACK
6
CONTINUOUS
10
103.964
20
-89.95
11
103.796
21
-89.95
0
LINE
8
BLACK
6
CONTINUOUS
10
103.796
20
-89.95
11
103.632
21
-89.9173
0
LINE
8
BLACK
6
CONTINUOUS
10
103.632
20
-89.9173
11
103.477
21
-89.8533
0
LINE
8
BLACK
6
CONTINUOUS
10
103.477
20
-89.8533
11
103.338
21
-89.7602
0
LINE
8
BLACK
6
CONTINUOUS
10
103.338
20
-89.7602
11
103.22
21
-89.6418
0
LINE
8
BLACK
6
CONTINUOUS
10
103.22
20
-89.6418
11
103.127
21
-89.5026
0
LINE
8
BLACK
6
CONTINUOUS
10
103.127
20
-89.5026
11
103.063
21
-89.3479
0
LINE
8
BLACK
6
CONTINUOUS
10
103.063
20
-89.3479
11
103.03
21
-89.1837
0
LINE
8
BLACK
6
CONTINUOUS
10
103.03
20
-89.1837
11
103.03
21
-89.0163
0
LINE
8
BLACK
6
CONTINUOUS
10
103.03
20
-89.0163
11
103.063
21
-88.8521
0
LINE
8
BLACK
6
CONTINUOUS
10
103.063
20
-88.8521
11
103.127
21
-88.6974
0
LINE
8
BLACK
6
CONTINUOUS
10
103.127
20
-88.6974
11
103.22
21
-88.5582
0
LINE
8
BLACK
6
CONTINUOUS
10
103.22
20
-88.5582
11
103.338
21
-88.4398
0
LINE
8
BLACK
6
CONTINUOUS
10
103.338
20
-88.4398
11
103.477
21
-88.3467
0
LINE
8
BLACK
6
CONTINUOUS
10
103.477
20
-88.3467
11
103.632
21
-88.2827
0
LINE
8
BLACK
6
CONTINUOUS
10
103.632
20
-88.2827
11
103.796
21
-88.25
0
LINE
8
BLACK
6
CONTINUOUS
10
103.796
20
-88.25
11
103.964
21
-88.25
0
LINE
8
BLACK
6
CONTINUOUS
10
103.964
20
-88.25
11
104.128
21
-88.2827
0
LINE
8
BLACK
6
CONTINUOUS
10
151.607
20
-85.4157
11
151.761
21
-85.4797
0
LINE
8
BLACK
6
CONTINUOUS
10
151.761
20
-85.4797
11
151.9
21
-85.5728
0
LINE
8
BLACK
6
CONTINUOUS
10
151.9
20
-85.5728
11
152.019
21
-85.6912
0
LINE
8
BLACK
6
CONTINUOUS
10
152.019
20
-85.6912
11
152.112
21
-85.8304
0
LINE
8
BLACK
6
CONTINUOUS
10
152.112
20
-85.8304
11
152.176
21
-85.9851
0
LINE
8
BLACK
6
CONTINUOUS
10
152.176
20
-85.9851
11
152.209
21
-86.1493
0
LINE
8
BLACK
6
CONTINUOUS
10
152.209
20
-86.1493
11
152.209
21
-86.3167
0
LINE
8
BLACK
6
CONTINUOUS
10
152.209
20
-86.3167
11
152.176
21
-86.4809
0
LINE
8
BLACK
6
CONTINUOUS
10
152.176
20
-86.4809
11
152.112
21
-86.6356
0
LINE
8
BLACK
6
CONTINUOUS
10
152.112
20
-86.6356
11
152.019
21
-86.7748
0
LINE
8
BLACK
6
CONTINUOUS
10
152.019
20
-86.7748
11
151.9
21
-86.8932
0
LINE
8
BLACK
6
CONTINUOUS
10
151.9
20
-86.8932
11
151.761
21
-86.9863
0
LINE
8
BLACK
6
CONTINUOUS
10
151.761
20
-86.9863
11
151.607
21
-87.0503
0
LINE
8
BLACK
6
CONTINUOUS
10
151.607
20
-87.0503
11
151.442
21
-87.083
0
LINE
8
BLACK
6
CONTINUOUS
10
151.442
20
-87.083
11
151.275
21
-87.083
0
LINE
8
BLACK
6
CONTINUOUS
10
151.275
20
-87.083
11
151.111
21
-87.0503
0
LINE
8
BLACK
6
CONTINUOUS
10
151.111
20
-87.0503
11
150.956
21
-86.9863
0
LINE
8
BLACK
6
CONTINUOUS
10
150.956
20
-86.9863
11
150.817
21
-86.8932
0
LINE
8
BLACK
6
CONTINUOUS
10
150.817
20
-86.8932
11
150.698
21
-86.7748
0
LINE
8
BLACK
6
CONTINUOUS
10
150.698
20
-86.7748
11
150.605
21
-86.6356
0
LINE
8
BLACK
6
CONTINUOUS
10
150.605
20
-86.6356
11
150.541
21
-86.4809
0
LINE
8
BLACK
6
CONTINUOUS
10
150.541
20
-86.4809
11
150.509
21
-86.3167
0
LINE
8
BLACK
6
CONTINUOUS
10
150.509
20
-86.3167
11
150.509
21
-86.1493
0
LINE
8
BLACK
6
CONTINUOUS
10
150.509
20
-86.1493
11
150.541
21
-85.9851
0
LINE
8
BLACK
6
CONTINUOUS
10
150.541
20
-85.9851
11
150.605
21
-85.8304
0
LINE
8
BLACK
6
CONTINUOUS
10
150.605
20
-85.8304
11
150.698
21
-85.6912
0
LINE
8
BLACK
6
CONTINUOUS
10
150.698
20
-85.6912
11
150.817
21
-85.5728
0
LINE
8
BLACK
6
CONTINUOUS
10
150.817
20
-85.5728
11
150.956
21
-85.4797
0
LINE
8
BLACK
6
CONTINUOUS
10
150.956
20
-85.4797
11
151.111
21
-85.4157
0
LINE
8
BLACK
6
CONTINUOUS
10
151.111
20
-85.4157
11
151.275
21
-85.383
0
LINE
8
BLACK
6
CONTINUOUS
10
151.275
20
-85.383
11
151.442
21
-85.383
0
LINE
8
BLACK
6
CONTINUOUS
10
151.442
20
-85.383
11
151.607
21
-85.4157
0
LINE
8
BLACK
6
CONTINUOUS
10
151.607
20
-82.8757
11
151.761
21
-82.9397
0
LINE
8
BLACK
6
CONTINUOUS
10
151.761
20
-82.9397
11
151.9
21
-83.0328
0
LINE
8
BLACK
6
CONTINUOUS
10
151.9
20
-83.0328
11
152.019
21
-83.1512
0
LINE
8
BLACK
6
CONTINUOUS
10
152.019
20
-83.1512
11
152.112
21
-83.2904
0
LINE
8
BLACK
6
CONTINUOUS
10
152.112
20
-83.2904
11
152.176
21
-83.4451
0
LINE
8
BLACK
6
CONTINUOUS
10
152.176
20
-83.4451
11
152.209
21
-83.6093
0
LINE
8
BLACK
6
CONTINUOUS
10
152.209
20
-83.6093
11
152.209
21
-83.7767
0
LINE
8
BLACK
6
CONTINUOUS
10
152.209
20
-83.7767
11
152.176
21
-83.9409
0
LINE
8
BLACK
6
CONTINUOUS
10
152.176
20
-83.9409
11
152.112
21
-84.0956
0
LINE
8
BLACK
6
CONTINUOUS
10
152.112
20
-84.0956
11
152.019
21
-84.2348
0
LINE
8
BLACK
6
CONTINUOUS
10
152.019
20
-84.2348
11
151.9
21
-84.3532
0
LINE
8
BLACK
6
CONTINUOUS
10
151.9
20
-84.3532
11
151.761
21
-84.4463
0
LINE
8
BLACK
6
CONTINUOUS
10
151.761
20
-84.4463
11
151.607
21
-84.5103
0
LINE
8
BLACK
6
CONTINUOUS
10
151.607
20
-84.5103
11
151.442
21
-84.543
0
LINE
8
BLACK
6
CONTINUOUS
10
151.442
20
-84.543
11
151.275
21
-84.543
0
LINE
8
BLACK
6
CONTINUOUS
10
151.275
20
-84.543
11
151.111
21
-84.5103
0
LINE
8
BLACK
6
CONTINUOUS
10
151.111
20
-84.5103
11
150.956
21
-84.4463
0
LINE
8
BLACK
6
CONTINUOUS
10
150.956
20
-84.4463
11
150.817
21
-84.3532
0
LINE
8
BLACK
6
CONTINUOUS
10
150.817
20
-84.3532
11
150.698
21
-84.2348
0
LINE
8
BLACK
6
CONTINUOUS
10
150.698
20
-84.2348
11
150.605
21
-84.0956
0
LINE
8
BLACK
6
CONTINUOUS
10
150.605
20
-84.0956
11
150.541
21
-83.9409
0
LINE
8
BLACK
6
CONTINUOUS
10
150.541
20
-83.9409
11
150.509
21
-83.7767
0
LINE
8
BLACK
6
CONTINUOUS
10
150.509
20
-83.7767
11
150.509
21
-83.6093
0
LINE
8
BLACK
6
CONTINUOUS
10
150.509
20
-83.6093
11
150.541
21
-83.4451
0
LINE
8
BLACK
6
CONTINUOUS
10
150.541
20
-83.4451
11
150.605
21
-83.2904
0
LINE
8
BLACK
6
CONTINUOUS
10
150.605
20
-83.2904
11
150.698
21
-83.1512
0
LINE
8
BLACK
6
CONTINUOUS
10
150.698
20
-83.1512
11
150.817
21
-83.0328
0
LINE
8
BLACK
6
CONTINUOUS
10
150.817
20
-83.0328
11
150.956
21
-82.9397
0
LINE
8
BLACK
6
CONTINUOUS
10
150.956
20
-82.9397
11
151.111
21
-82.8757
0
LINE
8
BLACK
6
CONTINUOUS
10
151.111
20
-82.8757
11
151.275
21
-82.843
0
LINE
8
BLACK
6
CONTINUOUS
10
151.275
20
-82.843
11
151.442
21
-82.843
0
LINE
8
BLACK
6
CONTINUOUS
10
151.442
20
-82.843
11
151.607
21
-82.8757
0
LINE
8
BLACK
6
CONTINUOUS
10
129.9
20
-83.95
11
128.9
21
-83.95
0
LINE
8
BLACK
6
CONTINUOUS
10
128.9
20
-83.95
11
128.9
21
-83.5
0
LINE
8
BLACK
6
CONTINUOUS
10
128.9
20
-83.5
11
129.9
21
-83.5
0
LINE
8
BLACK
6
CONTINUOUS
10
129.9
20
-83.5
11
129.9
21
-83.95
0
LINE
8
BLACK
6
CONTINUOUS
10
133
20
-83.6
11
131.8
21
-83.6
0
LINE
8
BLACK
6
CONTINUOUS
10
131.8
20
-83.6
11
131.8
21
-82.5
0
LINE
8
BLACK
6
CONTINUOUS
10
131.8
20
-82.5
11
133
21
-82.5
0
LINE
8
BLACK
6
CONTINUOUS
10
133
20
-82.5
11
133
21
-83.6
0
LINE
8
BLACK
6
CONTINUOUS
10
127
20
-83.6
11
125.8
21
-83.6
0
LINE
8
BLACK
6
CONTINUOUS
10
125.8
20
-83.6
11
125.8
21
-82.5
0
LINE
8
BLACK
6
CONTINUOUS
10
125.8
20
-82.5
11
127
21
-82.5
0
LINE
8
BLACK
6
CONTINUOUS
10
127
20
-82.5
11
127
21
-83.6
0
LINE
8
BLACK
6
CONTINUOUS
10
86.2777
20
-81.3009
11
86.4324
21
-81.3649
0
LINE
8
BLACK
6
CONTINUOUS
10
86.4324
20
-81.3649
11
86.5716
21
-81.458
0
LINE
8
BLACK
6
CONTINUOUS
10
86.5716
20
-81.458
11
86.69
21
-81.5764
0
LINE
8
BLACK
6
CONTINUOUS
10
86.69
20
-81.5764
11
86.7831
21
-81.7156
0
LINE
8
BLACK
6
CONTINUOUS
10
86.7831
20
-81.7156
11
86.8471
21
-81.8703
0
LINE
8
BLACK
6
CONTINUOUS
10
86.8471
20
-81.8703
11
86.8798
21
-82.0345
0
LINE
8
BLACK
6
CONTINUOUS
10
86.8798
20
-82.0345
11
86.8798
21
-82.2019
0
LINE
8
BLACK
6
CONTINUOUS
10
86.8798
20
-82.2019
11
86.8471
21
-82.3661
0
LINE
8
BLACK
6
CONTINUOUS
10
86.8471
20
-82.3661
11
86.7831
21
-82.5208
0
LINE
8
BLACK
6
CONTINUOUS
10
86.7831
20
-82.5208
11
86.69
21
-82.66
0
LINE
8
BLACK
6
CONTINUOUS
10
86.69
20
-82.66
11
86.5716
21
-82.7784
0
LINE
8
BLACK
6
CONTINUOUS
10
86.5716
20
-82.7784
11
86.4324
21
-82.8715
0
LINE
8
BLACK
6
CONTINUOUS
10
86.4324
20
-82.8715
11
86.2777
21
-82.9355
0
LINE
8
BLACK
6
CONTINUOUS
10
86.2777
20
-82.9355
11
86.1135
21
-82.9682
0
LINE
8
BLACK
6
CONTINUOUS
10
86.1135
20
-82.9682
11
85.9461
21
-82.9682
0
LINE
8
BLACK
6
CONTINUOUS
10
85.9461
20
-82.9682
11
85.7819
21
-82.9355
0
LINE
8
BLACK
6
CONTINUOUS
10
85.7819
20
-82.9355
11
85.6272
21
-82.8715
0
LINE
8
BLACK
6
CONTINUOUS
10
85.6272
20
-82.8715
11
85.488
21
-82.7784
0
LINE
8
BLACK
6
CONTINUOUS
10
85.488
20
-82.7784
11
85.3696
21
-82.66
0
LINE
8
BLACK
6
CONTINUOUS
10
85.3696
20
-82.66
11
85.2765
21
-82.5208
0
LINE
8
BLACK
6
CONTINUOUS
10
85.2765
20
-82.5208
11
85.2125
21
-82.3661
0
LINE
8
BLACK
6
CONTINUOUS
10
85.2125
20
-82.3661
11
85.1798
21
-82.2019
0
LINE
8
BLACK
6
CONTINUOUS
10
85.1798
20
-82.2019
11
85.1798
21
-82.0345
0
LINE
8
BLACK
6
CONTINUOUS
10
85.1798
20
-82.0345
11
85.2125
21
-81.8703
0
LINE
8
BLACK
6
CONTINUOUS
10
85.2125
20
-81.8703
11
85.2765
21
-81.7156
0
LINE
8
BLACK
6
CONTINUOUS
10
85.2765
20
-81.7156
11
85.3696
21
-81.5764
0
LINE
8
BLACK
6
CONTINUOUS
10
85.3696
20
-81.5764
11
85.488
21
-81.458
0
LINE
8
BLACK
6
CONTINUOUS
10
85.488
20
-81.458
11
85.6272
21
-81.3649
0
LINE
8
BLACK
6
CONTINUOUS
10
85.6272
20
-81.3649
11
85.7819
21
-81.3009
0
LINE
8
BLACK
6
CONTINUOUS
10
85.7819
20
-81.3009
11
85.9461
21
-81.2682
0
LINE
8
BLACK
6
CONTINUOUS
10
85.9461
20
-81.2682
11
86.1135
21
-81.2682
0
LINE
8
BLACK
6
CONTINUOUS
10
86.1135
20
-81.2682
11
86.2777
21
-81.3009
0
LINE
8
BLACK
6
CONTINUOUS
10
151.607
20
-80.3357
11
151.761
21
-80.3997
0
LINE
8
BLACK
6
CONTINUOUS
10
151.761
20
-80.3997
11
151.9
21
-80.4928
0
LINE
8
BLACK
6
CONTINUOUS
10
151.9
20
-80.4928
11
152.019
21
-80.6112
0
LINE
8
BLACK
6
CONTINUOUS
10
152.019
20
-80.6112
11
152.112
21
-80.7504
0
LINE
8
BLACK
6
CONTINUOUS
10
152.112
20
-80.7504
11
152.176
21
-80.9051
0
LINE
8
BLACK
6
CONTINUOUS
10
152.176
20
-80.9051
11
152.209
21
-81.0693
0
LINE
8
BLACK
6
CONTINUOUS
10
152.209
20
-81.0693
11
152.209
21
-81.2367
0
LINE
8
BLACK
6
CONTINUOUS
10
152.209
20
-81.2367
11
152.176
21
-81.4009
0
LINE
8
BLACK
6
CONTINUOUS
10
152.176
20
-81.4009
11
152.112
21
-81.5556
0
LINE
8
BLACK
6
CONTINUOUS
10
152.112
20
-81.5556
11
152.019
21
-81.6948
0
LINE
8
BLACK
6
CONTINUOUS
10
152.019
20
-81.6948
11
151.9
21
-81.8132
0
LINE
8
BLACK
6
CONTINUOUS
10
151.9
20
-81.8132
11
151.761
21
-81.9063
0
LINE
8
BLACK
6
CONTINUOUS
10
151.761
20
-81.9063
11
151.607
21
-81.9703
0
LINE
8
BLACK
6
CONTINUOUS
10
151.607
20
-81.9703
11
151.442
21
-82.003
0
LINE
8
BLACK
6
CONTINUOUS
10
151.442
20
-82.003
11
151.275
21
-82.003
0
LINE
8
BLACK
6
CONTINUOUS
10
151.275
20
-82.003
11
151.111
21
-81.9703
0
LINE
8
BLACK
6
CONTINUOUS
10
151.111
20
-81.9703
11
150.956
21
-81.9063
0
LINE
8
BLACK
6
CONTINUOUS
10
150.956
20
-81.9063
11
150.817
21
-81.8132
0
LINE
8
BLACK
6
CONTINUOUS
10
150.817
20
-81.8132
11
150.698
21
-81.6948
0
LINE
8
BLACK
6
CONTINUOUS
10
150.698
20
-81.6948
11
150.605
21
-81.5556
0
LINE
8
BLACK
6
CONTINUOUS
10
150.605
20
-81.5556
11
150.541
21
-81.4009
0
LINE
8
BLACK
6
CONTINUOUS
10
150.541
20
-81.4009
11
150.509
21
-81.2367
0
LINE
8
BLACK
6
CONTINUOUS
10
150.509
20
-81.2367
11
150.509
21
-81.0693
0
LINE
8
BLACK
6
CONTINUOUS
10
150.509
20
-81.0693
11
150.541
21
-80.9051
0
LINE
8
BLACK
6
CONTINUOUS
10
150.541
20
-80.9051
11
150.605
21
-80.7504
0
LINE
8
BLACK
6
CONTINUOUS
10
150.605
20
-80.7504
11
150.698
21
-80.6112
0
LINE
8
BLACK
6
CONTINUOUS
10
150.698
20
-80.6112
11
150.817
21
-80.4928
0
LINE
8
BLACK
6
CONTINUOUS
10
150.817
20
-80.4928
11
150.956
21
-80.3997
0
LINE
8
BLACK
6
CONTINUOUS
10
150.956
20
-80.3997
11
151.111
21
-80.3357
0
LINE
8
BLACK
6
CONTINUOUS
10
151.111
20
-80.3357
11
151.275
21
-80.303
0
LINE
8
BLACK
6
CONTINUOUS
10
151.275
20
-80.303
11
151.442
21
-80.303
0
LINE
8
BLACK
6
CONTINUOUS
10
151.442
20
-80.303
11
151.607
21
-80.3357
0
LINE
8
BLACK
6
CONTINUOUS
10
86.8798
20
-80.4282
11
85.1798
21
-80.4282
0
LINE
8
BLACK
6
CONTINUOUS
10
85.1798
20
-80.4282
11
85.1798
21
-78.7282
0
LINE
8
BLACK
6
CONTINUOUS
10
85.1798
20
-78.7282
11
86.8798
21
-78.7282
0
LINE
8
BLACK
6
CONTINUOUS
10
86.8798
20
-78.7282
11
86.8798
21
-80.4282
0
LINE
8
BLACK
6
CONTINUOUS
10
133
20
-79.9
11
131.8
21
-79.9
0
LINE
8
BLACK
6
CONTINUOUS
10
131.8
20
-79.9
11
131.8
21
-78.8
0
LINE
8
BLACK
6
CONTINUOUS
10
131.8
20
-78.8
11
133
21
-78.8
0
LINE
8
BLACK
6
CONTINUOUS
10
133
20
-78.8
11
133
21
-79.9
0
LINE
8
BLACK
6
CONTINUOUS
10
127
20
-79.85
11
125.8
21
-79.85
0
LINE
8
BLACK
6
CONTINUOUS
10
125.8
20
-79.85
11
125.8
21
-78.85
0
LINE
8
BLACK
6
CONTINUOUS
10
125.8
20
-78.85
11
127
21
-78.85
0
LINE
8
BLACK
6
CONTINUOUS
10
127
20
-78.85
11
127
21
-79.85
0
LINE
8
BLACK
6
CONTINUOUS
10
152.209
20
-79.463
11
150.509
21
-79.463
0
LINE
8
BLACK
6
CONTINUOUS
10
150.509
20
-79.463
11
150.509
21
-77.763
0
LINE
8
BLACK
6
CONTINUOUS
10
150.509
20
-77.763
11
152.209
21
-77.763
0
LINE
8
BLACK
6
CONTINUOUS
10
152.209
20
-77.763
11
152.209
21
-79.463
0
LINE
8
BLACK
6
CONTINUOUS
10
129.9
20
-78.9
11
128.9
21
-78.9
0
LINE
8
BLACK
6
CONTINUOUS
10
128.9
20
-78.9
11
128.9
21
-78.45
0
LINE
8
BLACK
6
CONTINUOUS
10
128.9
20
-78.45
11
129.9
21
-78.45
0
LINE
8
BLACK
6
CONTINUOUS
10
129.9
20
-78.45
11
129.9
21
-78.9
0
LINE
8
BLACK
6
CONTINUOUS
10
118.188
20
-73.7827
11
118.343
21
-73.8467
0
LINE
8
BLACK
6
CONTINUOUS
10
118.343
20
-73.8467
11
118.482
21
-73.9398
0
LINE
8
BLACK
6
CONTINUOUS
10
118.482
20
-73.9398
11
118.6
21
-74.0582
0
LINE
8
BLACK
6
CONTINUOUS
10
118.6
20
-74.0582
11
118.693
21
-74.1974
0
LINE
8
BLACK
6
CONTINUOUS
10
118.693
20
-74.1974
11
118.757
21
-74.3521
0
LINE
8
BLACK
6
CONTINUOUS
10
118.757
20
-74.3521
11
118.79
21
-74.5163
0
LINE
8
BLACK
6
CONTINUOUS
10
118.79
20
-74.5163
11
118.79
21
-74.6837
0
LINE
8
BLACK
6
CONTINUOUS
10
118.79
20
-74.6837
11
118.757
21
-74.8479
0
LINE
8
BLACK
6
CONTINUOUS
10
118.757
20
-74.8479
11
118.693
21
-75.0026
0
LINE
8
BLACK
6
CONTINUOUS
10
118.693
20
-75.0026
11
118.6
21
-75.1418
0
LINE
8
BLACK
6
CONTINUOUS
10
118.6
20
-75.1418
11
118.482
21
-75.2602
0
LINE
8
BLACK
6
CONTINUOUS
10
118.482
20
-75.2602
11
118.343
21
-75.3533
0
LINE
8
BLACK
6
CONTINUOUS
10
118.343
20
-75.3533
11
118.188
21
-75.4173
0
LINE
8
BLACK
6
CONTINUOUS
10
118.188
20
-75.4173
11
118.024
21
-75.45
0
LINE
8
BLACK
6
CONTINUOUS
10
118.024
20
-75.45
11
117.856
21
-75.45
0
LINE
8
BLACK
6
CONTINUOUS
10
117.856
20
-75.45
11
117.692
21
-75.4173
0
LINE
8
BLACK
6
CONTINUOUS
10
117.692
20
-75.4173
11
117.537
21
-75.3533
0
LINE
8
BLACK
6
CONTINUOUS
10
117.537
20
-75.3533
11
117.398
21
-75.2602
0
LINE
8
BLACK
6
CONTINUOUS
10
117.398
20
-75.2602
11
117.28
21
-75.1418
0
LINE
8
BLACK
6
CONTINUOUS
10
117.28
20
-75.1418
11
117.187
21
-75.0026
0
LINE
8
BLACK
6
CONTINUOUS
10
117.187
20
-75.0026
11
117.123
21
-74.8479
0
LINE
8
BLACK
6
CONTINUOUS
10
117.123
20
-74.8479
11
117.09
21
-74.6837
0
LINE
8
BLACK
6
CONTINUOUS
10
117.09
20
-74.6837
11
117.09
21
-74.5163
0
LINE
8
BLACK
6
CONTINUOUS
10
117.09
20
-74.5163
11
117.123
21
-74.3521
0
LINE
8
BLACK
6
CONTINUOUS
10
117.123
20
-74.3521
11
117.187
21
-74.1974
0
LINE
8
BLACK
6
CONTINUOUS
10
117.187
20
-74.1974
11
117.28
21
-74.0582
0
LINE
8
BLACK
6
CONTINUOUS
10
117.28
20
-74.0582
11
117.398
21
-73.9398
0
LINE
8
BLACK
6
CONTINUOUS
10
117.398
20
-73.9398
11
117.537
21
-73.8467
0
LINE
8
BLACK
6
CONTINUOUS
10
117.537
20
-73.8467
11
117.692
21
-73.7827
0
LINE
8
BLACK
6
CONTINUOUS
10
117.692
20
-73.7827
11
117.856
21
-73.75
0
LINE
8
BLACK
6
CONTINUOUS
10
117.856
20
-73.75
11
118.024
21
-73.75
0
LINE
8
BLACK
6
CONTINUOUS
10
118.024
20
-73.75
11
118.188
21
-73.7827
0
LINE
8
BLACK
6
CONTINUOUS
10
116.25
20
-75.45
11
114.55
21
-75.45
0
LINE
8
BLACK
6
CONTINUOUS
10
114.55
20
-75.45
11
114.55
21
-73.75
0
LINE
8
BLACK
6
CONTINUOUS
10
114.55
20
-73.75
11
116.25
21
-73.75
0
LINE
8
BLACK
6
CONTINUOUS
10
116.25
20
-73.75
11
116.25
21
-75.45
0
LINE
8
BLACK
6
CONTINUOUS
10
151.918
20
-69.5144
11
152.409
21
-69.7179
0
LINE
8
BLACK
6
CONTINUOUS
10
152.409
20
-69.7179
11
152.851
21
-70.0134
0
LINE
8
BLACK
6
CONTINUOUS
10
152.851
20
-70.0134
11
153.227
21
-70.3894
0
LINE
8
BLACK
6
CONTINUOUS
10
153.227
20
-70.3894
11
153.523
21
-70.8317
0
LINE
8
BLACK
6
CONTINUOUS
10
153.523
20
-70.8317
11
153.726
21
-71.323
0
LINE
8
BLACK
6
CONTINUOUS
10
153.726
20
-71.323
11
153.83
21
-71.8447
0
LINE
8
BLACK
6
CONTINUOUS
10
153.83
20
-71.8447
11
153.83
21
-72.3765
0
LINE
8
BLACK
6
CONTINUOUS
10
153.83
20
-72.3765
11
153.726
21
-72.8982
0
LINE
8
BLACK
6
CONTINUOUS
10
153.726
20
-72.8982
11
153.523
21
-73.3895
0
LINE
8
BLACK
6
CONTINUOUS
10
153.523
20
-73.3895
11
153.227
21
-73.8317
0
LINE
8
BLACK
6
CONTINUOUS
10
153.227
20
-73.8317
11
152.851
21
-74.2078
0
LINE
8
BLACK
6
CONTINUOUS
10
152.851
20
-74.2078
11
152.409
21
-74.5033
0
LINE
8
BLACK
6
CONTINUOUS
10
152.409
20
-74.5033
11
151.918
21
-74.7068
0
LINE
8
BLACK
6
CONTINUOUS
10
151.918
20
-74.7068
11
151.396
21
-74.8106
0
LINE
8
BLACK
6
CONTINUOUS
10
151.396
20
-74.8106
11
150.864
21
-74.8106
0
LINE
8
BLACK
6
CONTINUOUS
10
150.864
20
-74.8106
11
150.342
21
-74.7068
0
LINE
8
BLACK
6
CONTINUOUS
10
150.342
20
-74.7068
11
149.851
21
-74.5033
0
LINE
8
BLACK
6
CONTINUOUS
10
149.851
20
-74.5033
11
149.409
21
-74.2078
0
LINE
8
BLACK
6
CONTINUOUS
10
149.409
20
-74.2078
11
149.033
21
-73.8317
0
LINE
8
BLACK
6
CONTINUOUS
10
149.033
20
-73.8317
11
148.737
21
-73.3895
0
LINE
8
BLACK
6
CONTINUOUS
10
148.737
20
-73.3895
11
148.534
21
-72.8982
0
LINE
8
BLACK
6
CONTINUOUS
10
148.534
20
-72.8982
11
148.43
21
-72.3765
0
LINE
8
BLACK
6
CONTINUOUS
10
148.43
20
-72.3765
11
148.43
21
-71.8447
0
LINE
8
BLACK
6
CONTINUOUS
10
148.43
20
-71.8447
11
148.534
21
-71.323
0
LINE
8
BLACK
6
CONTINUOUS
10
148.534
20
-71.323
11
148.737
21
-70.8317
0
LINE
8
BLACK
6
CONTINUOUS
10
148.737
20
-70.8317
11
149.033
21
-70.3894
0
LINE
8
BLACK
6
CONTINUOUS
10
149.033
20
-70.3894
11
149.409
21
-70.0134
0
LINE
8
BLACK
6
CONTINUOUS
10
149.409
20
-70.0134
11
149.851
21
-69.7179
0
LINE
8
BLACK
6
CONTINUOUS
10
149.851
20
-69.7179
11
150.342
21
-69.5144
0
LINE
8
BLACK
6
CONTINUOUS
10
150.342
20
-69.5144
11
150.864
21
-69.4106
0
LINE
8
BLACK
6
CONTINUOUS
10
150.864
20
-69.4106
11
151.396
21
-69.4106
0
LINE
8
BLACK
6
CONTINUOUS
10
151.396
20
-69.4106
11
151.918
21
-69.5144
0
LINE
8
BLACK
6
CONTINUOUS
10
86.665
20
-69.5144
11
87.1563
21
-69.7179
0
LINE
8
BLACK
6
CONTINUOUS
10
87.1563
20
-69.7179
11
87.5986
21
-70.0134
0
LINE
8
BLACK
6
CONTINUOUS
10
87.5986
20
-70.0134
11
87.9746
21
-70.3894
0
LINE
8
BLACK
6
CONTINUOUS
10
87.9746
20
-70.3894
11
88.2701
21
-70.8317
0
LINE
8
BLACK
6
CONTINUOUS
10
88.2701
20
-70.8317
11
88.4736
21
-71.323
0
LINE
8
BLACK
6
CONTINUOUS
10
88.4736
20
-71.323
11
88.5774
21
-71.8447
0
LINE
8
BLACK
6
CONTINUOUS
10
88.5774
20
-71.8447
11
88.5774
21
-72.3765
0
LINE
8
BLACK
6
CONTINUOUS
10
88.5774
20
-72.3765
11
88.4736
21
-72.8982
0
LINE
8
BLACK
6
CONTINUOUS
10
88.4736
20
-72.8982
11
88.2701
21
-73.3895
0
LINE
8
BLACK
6
CONTINUOUS
10
88.2701
20
-73.3895
11
87.9746
21
-73.8317
0
LINE
8
BLACK
6
CONTINUOUS
10
87.9746
20
-73.8317
11
87.5986
21
-74.2078
0
LINE
8
BLACK
6
CONTINUOUS
10
87.5986
20
-74.2078
11
87.1563
21
-74.5033
0
LINE
8
BLACK
6
CONTINUOUS
10
87.1563
20
-74.5033
11
86.665
21
-74.7068
0
LINE
8
BLACK
6
CONTINUOUS
10
86.665
20
-74.7068
11
86.1433
21
-74.8106
0
LINE
8
BLACK
6
CONTINUOUS
10
86.1433
20
-74.8106
11
85.6115
21
-74.8106
0
LINE
8
BLACK
6
CONTINUOUS
10
85.6115
20
-74.8106
11
85.0898
21
-74.7068
0
LINE
8
BLACK
6
CONTINUOUS
10
85.0898
20
-74.7068
11
84.5985
21
-74.5033
0
LINE
8
BLACK
6
CONTINUOUS
10
84.5985
20
-74.5033
11
84.1562
21
-74.2078
0
LINE
8
BLACK
6
CONTINUOUS
10
84.1562
20
-74.2078
11
83.7802
21
-73.8317
0
LINE
8
BLACK
6
CONTINUOUS
10
83.7802
20
-73.8317
11
83.4847
21
-73.3895
0
LINE
8
BLACK
6
CONTINUOUS
10
83.4847
20
-73.3895
11
83.2812
21
-72.8982
0
LINE
8
BLACK
6
CONTINUOUS
10
83.2812
20
-72.8982
11
83.1774
21
-72.3765
0
LINE
8
BLACK
6
CONTINUOUS
10
83.1774
20
-72.3765
11
83.1774
21
-71.8447
0
LINE
8
BLACK
6
CONTINUOUS
10
83.1774
20
-71.8447
11
83.2812
21
-71.323
0
LINE
8
BLACK
6
CONTINUOUS
10
83.2812
20
-71.323
11
83.4847
21
-70.8317
0
LINE
8
BLACK
6
CONTINUOUS
10
83.4847
20
-70.8317
11
83.7802
21
-70.3894
0
LINE
8
BLACK
6
CONTINUOUS
10
83.7802
20
-70.3894
11
84.1562
21
-70.0134
0
LINE
8
BLACK
6
CONTINUOUS
10
84.1562
20
-70.0134
11
84.5985
21
-69.7179
0
LINE
8
BLACK
6
CONTINUOUS
10
84.5985
20
-69.7179
11
85.0898
21
-69.5144
0
LINE
8
BLACK
6
CONTINUOUS
10
85.0898
20
-69.5144
11
85.6115
21
-69.4106
0
LINE
8
BLACK
6
CONTINUOUS
10
85.6115
20
-69.4106
11
86.1433
21
-69.4106
0
LINE
8
BLACK
6
CONTINUOUS
10
86.1433
20
-69.4106
11
86.665
21
-69.5144
0
LINE
8
BLACK
6
CONTINUOUS
10
105.379
20
-70.2011
11
105.533
21
-70.2651
0
LINE
8
BLACK
6
CONTINUOUS
10
105.533
20
-70.2651
11
105.672
21
-70.3582
0
LINE
8
BLACK
6
CONTINUOUS
10
105.672
20
-70.3582
11
105.791
21
-70.4766
0
LINE
8
BLACK
6
CONTINUOUS
10
105.791
20
-70.4766
11
105.884
21
-70.6158
0
LINE
8
BLACK
6
CONTINUOUS
10
105.884
20
-70.6158
11
105.948
21
-70.7705
0
LINE
8
BLACK
6
CONTINUOUS
10
105.948
20
-70.7705
11
105.981
21
-70.9347
0
LINE
8
BLACK
6
CONTINUOUS
10
105.981
20
-70.9347
11
105.981
21
-71.1021
0
LINE
8
BLACK
6
CONTINUOUS
10
105.981
20
-71.1021
11
105.948
21
-71.2663
0
LINE
8
BLACK
6
CONTINUOUS
10
105.948
20
-71.2663
11
105.884
21
-71.421
0
LINE
8
BLACK
6
CONTINUOUS
10
105.884
20
-71.421
11
105.791
21
-71.5602
0
LINE
8
BLACK
6
CONTINUOUS
10
105.791
20
-71.5602
11
105.672
21
-71.6786
0
LINE
8
BLACK
6
CONTINUOUS
10
105.672
20
-71.6786
11
105.533
21
-71.7717
0
LINE
8
BLACK
6
CONTINUOUS
10
105.533
20
-71.7717
11
105.379
21
-71.8357
0
LINE
8
BLACK
6
CONTINUOUS
10
105.379
20
-71.8357
11
105.214
21
-71.8684
0
LINE
8
BLACK
6
CONTINUOUS
10
105.214
20
-71.8684
11
105.047
21
-71.8684
0
LINE
8
BLACK
6
CONTINUOUS
10
105.047
20
-71.8684
11
104.883
21
-71.8357
0
LINE
8
BLACK
6
CONTINUOUS
10
104.883
20
-71.8357
11
104.728
21
-71.7717
0
LINE
8
BLACK
6
CONTINUOUS
10
104.728
20
-71.7717
11
104.589
21
-71.6786
0
LINE
8
BLACK
6
CONTINUOUS
10
104.589
20
-71.6786
11
104.47
21
-71.5602
0
LINE
8
BLACK
6
CONTINUOUS
10
104.47
20
-71.5602
11
104.377
21
-71.421
0
LINE
8
BLACK
6
CONTINUOUS
10
104.377
20
-71.421
11
104.313
21
-71.2663
0
LINE
8
BLACK
6
CONTINUOUS
10
104.313
20
-71.2663
11
104.281
21
-71.1021
0
LINE
8
BLACK
6
CONTINUOUS
10
104.281
20
-71.1021
11
104.281
21
-70.9347
0
LINE
8
BLACK
6
CONTINUOUS
10
104.281
20
-70.9347
11
104.313
21
-70.7705
0
LINE
8
BLACK
6
CONTINUOUS
10
104.313
20
-70.7705
11
104.377
21
-70.6158
0
LINE
8
BLACK
6
CONTINUOUS
10
104.377
20
-70.6158
11
104.47
21
-70.4766
0
LINE
8
BLACK
6
CONTINUOUS
10
104.47
20
-70.4766
11
104.589
21
-70.3582
0
LINE
8
BLACK
6
CONTINUOUS
10
104.589
20
-70.3582
11
104.728
21
-70.2651
0
LINE
8
BLACK
6
CONTINUOUS
10
104.728
20
-70.2651
11
104.883
21
-70.2011
0
LINE
8
BLACK
6
CONTINUOUS
10
104.883
20
-70.2011
11
105.047
21
-70.1684
0
LINE
8
BLACK
6
CONTINUOUS
10
105.047
20
-70.1684
11
105.214
21
-70.1684
0
LINE
8
BLACK
6
CONTINUOUS
10
105.214
20
-70.1684
11
105.379
21
-70.2011
0
LINE
8
BLACK
6
CONTINUOUS
10
107.919
20
-70.2011
11
108.073
21
-70.2651
0
LINE
8
BLACK
6
CONTINUOUS
10
108.073
20
-70.2651
11
108.212
21
-70.3582
0
LINE
8
BLACK
6
CONTINUOUS
10
108.212
20
-70.3582
11
108.331
21
-70.4766
0
LINE
8
BLACK
6
CONTINUOUS
10
108.331
20
-70.4766
11
108.424
21
-70.6158
0
LINE
8
BLACK
6
CONTINUOUS
10
108.424
20
-70.6158
11
108.488
21
-70.7705
0
LINE
8
BLACK
6
CONTINUOUS
10
108.488
20
-70.7705
11
108.521
21
-70.9347
0
LINE
8
BLACK
6
CONTINUOUS
10
108.521
20
-70.9347
11
108.521
21
-71.1021
0
LINE
8
BLACK
6
CONTINUOUS
10
108.521
20
-71.1021
11
108.488
21
-71.2663
0
LINE
8
BLACK
6
CONTINUOUS
10
108.488
20
-71.2663
11
108.424
21
-71.421
0
LINE
8
BLACK
6
CONTINUOUS
10
108.424
20
-71.421
11
108.331
21
-71.5602
0
LINE
8
BLACK
6
CONTINUOUS
10
108.331
20
-71.5602
11
108.212
21
-71.6786
0
LINE
8
BLACK
6
CONTINUOUS
10
108.212
20
-71.6786
11
108.073
21
-71.7717
0
LINE
8
BLACK
6
CONTINUOUS
10
108.073
20
-71.7717
11
107.919
21
-71.8357
0
LINE
8
BLACK
6
CONTINUOUS
10
107.919
20
-71.8357
11
107.754
21
-71.8684
0
LINE
8
BLACK
6
CONTINUOUS
10
107.754
20
-71.8684
11
107.587
21
-71.8684
0
LINE
8
BLACK
6
CONTINUOUS
10
107.587
20
-71.8684
11
107.423
21
-71.8357
0
LINE
8
BLACK
6
CONTINUOUS
10
107.423
20
-71.8357
11
107.268
21
-71.7717
0
LINE
8
BLACK
6
CONTINUOUS
10
107.268
20
-71.7717
11
107.129
21
-71.6786
0
LINE
8
BLACK
6
CONTINUOUS
10
107.129
20
-71.6786
11
107.01
21
-71.5602
0
LINE
8
BLACK
6
CONTINUOUS
10
107.01
20
-71.5602
11
106.917
21
-71.421
0
LINE
8
BLACK
6
CONTINUOUS
10
106.917
20
-71.421
11
106.853
21
-71.2663
0
LINE
8
BLACK
6
CONTINUOUS
10
106.853
20
-71.2663
11
106.821
21
-71.1021
0
LINE
8
BLACK
6
CONTINUOUS
10
106.821
20
-71.1021
11
106.821
21
-70.9347
0
LINE
8
BLACK
6
CONTINUOUS
10
106.821
20
-70.9347
11
106.853
21
-70.7705
0
LINE
8
BLACK
6
CONTINUOUS
10
106.853
20
-70.7705
11
106.917
21
-70.6158
0
LINE
8
BLACK
6
CONTINUOUS
10
106.917
20
-70.6158
11
107.01
21
-70.4766
0
LINE
8
BLACK
6
CONTINUOUS
10
107.01
20
-70.4766
11
107.129
21
-70.3582
0
LINE
8
BLACK
6
CONTINUOUS
10
107.129
20
-70.3582
11
107.268
21
-70.2651
0
LINE
8
BLACK
6
CONTINUOUS
10
107.268
20
-70.2651
11
107.423
21
-70.2011
0
LINE
8
BLACK
6
CONTINUOUS
10
107.423
20
-70.2011
11
107.587
21
-70.1684
0
LINE
8
BLACK
6
CONTINUOUS
10
107.587
20
-70.1684
11
107.754
21
-70.1684
0
LINE
8
BLACK
6
CONTINUOUS
10
107.754
20
-70.1684
11
107.919
21
-70.2011
0
LINE
8
BLACK
6
CONTINUOUS
10
110.459
20
-70.2011
11
110.613
21
-70.2651
0
LINE
8
BLACK
6
CONTINUOUS
10
110.613
20
-70.2651
11
110.752
21
-70.3582
0
LINE
8
BLACK
6
CONTINUOUS
10
110.752
20
-70.3582
11
110.871
21
-70.4766
0
LINE
8
BLACK
6
CONTINUOUS
10
110.871
20
-70.4766
11
110.964
21
-70.6158
0
LINE
8
BLACK
6
CONTINUOUS
10
110.964
20
-70.6158
11
111.028
21
-70.7705
0
LINE
8
BLACK
6
CONTINUOUS
10
111.028
20
-70.7705
11
111.061
21
-70.9347
0
LINE
8
BLACK
6
CONTINUOUS
10
111.061
20
-70.9347
11
111.061
21
-71.1021
0
LINE
8
BLACK
6
CONTINUOUS
10
111.061
20
-71.1021
11
111.028
21
-71.2663
0
LINE
8
BLACK
6
CONTINUOUS
10
111.028
20
-71.2663
11
110.964
21
-71.421
0
LINE
8
BLACK
6
CONTINUOUS
10
110.964
20
-71.421
11
110.871
21
-71.5602
0
LINE
8
BLACK
6
CONTINUOUS
10
110.871
20
-71.5602
11
110.752
21
-71.6786
0
LINE
8
BLACK
6
CONTINUOUS
10
110.752
20
-71.6786
11
110.613
21
-71.7717
0
LINE
8
BLACK
6
CONTINUOUS
10
110.613
20
-71.7717
11
110.459
21
-71.8357
0
LINE
8
BLACK
6
CONTINUOUS
10
110.459
20
-71.8357
11
110.294
21
-71.8684
0
LINE
8
BLACK
6
CONTINUOUS
10
110.294
20
-71.8684
11
110.127
21
-71.8684
0
LINE
8
BLACK
6
CONTINUOUS
10
110.127
20
-71.8684
11
109.963
21
-71.8357
0
LINE
8
BLACK
6
CONTINUOUS
10
109.963
20
-71.8357
11
109.808
21
-71.7717
0
LINE
8
BLACK
6
CONTINUOUS
10
109.808
20
-71.7717
11
109.669
21
-71.6786
0
LINE
8
BLACK
6
CONTINUOUS
10
109.669
20
-71.6786
11
109.55
21
-71.5602
0
LINE
8
BLACK
6
CONTINUOUS
10
109.55
20
-71.5602
11
109.457
21
-71.421
0
LINE
8
BLACK
6
CONTINUOUS
10
109.457
20
-71.421
11
109.393
21
-71.2663
0
LINE
8
BLACK
6
CONTINUOUS
10
109.393
20
-71.2663
11
109.361
21
-71.1021
0
LINE
8
BLACK
6
CONTINUOUS
10
109.361
20
-71.1021
11
109.361
21
-70.9347
0
LINE
8
BLACK
6
CONTINUOUS
10
109.361
20
-70.9347
11
109.393
21
-70.7705
0
LINE
8
BLACK
6
CONTINUOUS
10
109.393
20
-70.7705
11
109.457
21
-70.6158
0
LINE
8
BLACK
6
CONTINUOUS
10
109.457
20
-70.6158
11
109.55
21
-70.4766
0
LINE
8
BLACK
6
CONTINUOUS
10
109.55
20
-70.4766
11
109.669
21
-70.3582
0
LINE
8
BLACK
6
CONTINUOUS
10
109.669
20
-70.3582
11
109.808
21
-70.2651
0
LINE
8
BLACK
6
CONTINUOUS
10
109.808
20
-70.2651
11
109.963
21
-70.2011
0
LINE
8
BLACK
6
CONTINUOUS
10
109.963
20
-70.2011
11
110.127
21
-70.1684
0
LINE
8
BLACK
6
CONTINUOUS
10
110.127
20
-70.1684
11
110.294
21
-70.1684
0
LINE
8
BLACK
6
CONTINUOUS
10
110.294
20
-70.1684
11
110.459
21
-70.2011
0
LINE
8
BLACK
6
CONTINUOUS
10
113.601
20
-71.8684
11
111.901
21
-71.8684
0
LINE
8
BLACK
6
CONTINUOUS
10
111.901
20
-71.8684
11
111.901
21
-70.1684
0
LINE
8
BLACK
6
CONTINUOUS
10
111.901
20
-70.1684
11
113.601
21
-70.1684
0
LINE
8
BLACK
6
CONTINUOUS
10
113.601
20
-70.1684
11
113.601
21
-71.8684
0
LINE
8
BLACK
6
CONTINUOUS
10
122.209
20
-71.1144
11
122.278
21
-71.1427
0
LINE
8
BLACK
6
CONTINUOUS
10
122.278
20
-71.1427
11
122.339
21
-71.1837
0
LINE
8
BLACK
6
CONTINUOUS
10
122.339
20
-71.1837
11
122.391
21
-71.236
0
LINE
8
BLACK
6
CONTINUOUS
10
122.391
20
-71.236
11
122.432
21
-71.2974
0
LINE
8
BLACK
6
CONTINUOUS
10
122.432
20
-71.2974
11
122.461
21
-71.3656
0
LINE
8
BLACK
6
CONTINUOUS
10
122.461
20
-71.3656
11
122.475
21
-71.4381
0
LINE
8
BLACK
6
CONTINUOUS
10
122.475
20
-71.4381
11
122.475
21
-71.5119
0
LINE
8
BLACK
6
CONTINUOUS
10
122.475
20
-71.5119
11
122.461
21
-71.5844
0
LINE
8
BLACK
6
CONTINUOUS
10
122.461
20
-71.5844
11
122.432
21
-71.6526
0
LINE
8
BLACK
6
CONTINUOUS
10
122.432
20
-71.6526
11
122.391
21
-71.714
0
LINE
8
BLACK
6
CONTINUOUS
10
122.391
20
-71.714
11
122.339
21
-71.7663
0
LINE
8
BLACK
6
CONTINUOUS
10
122.339
20
-71.7663
11
122.278
21
-71.8073
0
LINE
8
BLACK
6
CONTINUOUS
10
122.278
20
-71.8073
11
122.209
21
-71.8356
0
LINE
8
BLACK
6
CONTINUOUS
10
122.209
20
-71.8356
11
122.137
21
-71.85
0
LINE
8
BLACK
6
CONTINUOUS
10
122.137
20
-71.85
11
122.063
21
-71.85
0
LINE
8
BLACK
6
CONTINUOUS
10
122.063
20
-71.85
11
121.991
21
-71.8356
0
LINE
8
BLACK
6
CONTINUOUS
10
121.991
20
-71.8356
11
121.922
21
-71.8073
0
LINE
8
BLACK
6
CONTINUOUS
10
121.922
20
-71.8073
11
121.861
21
-71.7663
0
LINE
8
BLACK
6
CONTINUOUS
10
121.861
20
-71.7663
11
121.809
21
-71.714
0
LINE
8
BLACK
6
CONTINUOUS
10
121.809
20
-71.714
11
121.768
21
-71.6526
0
LINE
8
BLACK
6
CONTINUOUS
10
121.768
20
-71.6526
11
121.739
21
-71.5844
0
LINE
8
BLACK
6
CONTINUOUS
10
121.739
20
-71.5844
11
121.725
21
-71.5119
0
LINE
8
BLACK
6
CONTINUOUS
10
121.725
20
-71.5119
11
121.725
21
-71.4381
0
LINE
8
BLACK
6
CONTINUOUS
10
121.725
20
-71.4381
11
121.739
21
-71.3656
0
LINE
8
BLACK
6
CONTINUOUS
10
121.739
20
-71.3656
11
121.768
21
-71.2974
0
LINE
8
BLACK
6
CONTINUOUS
10
121.768
20
-71.2974
11
121.809
21
-71.236
0
LINE
8
BLACK
6
CONTINUOUS
10
121.809
20
-71.236
11
121.861
21
-71.1837
0
LINE
8
BLACK
6
CONTINUOUS
10
121.861
20
-71.1837
11
121.922
21
-71.1427
0
LINE
8
BLACK
6
CONTINUOUS
10
121.922
20
-71.1427
11
121.991
21
-71.1144
0
LINE
8
BLACK
6
CONTINUOUS
10
121.991
20
-71.1144
11
122.063
21
-71.1
0
LINE
8
BLACK
6
CONTINUOUS
10
122.063
20
-71.1
11
122.137
21
-71.1
0
LINE
8
BLACK
6
CONTINUOUS
10
122.137
20
-71.1
11
122.209
21
-71.1144
0
LINE
8
BLACK
6
CONTINUOUS
10
97.3158
20
-68.4711
11
97.4348
21
-68.5204
0
LINE
8
BLACK
6
CONTINUOUS
10
97.4348
20
-68.5204
11
97.5419
21
-68.592
0
LINE
8
BLACK
6
CONTINUOUS
10
97.5419
20
-68.592
11
97.633
21
-68.6831
0
LINE
8
BLACK
6
CONTINUOUS
10
97.633
20
-68.6831
11
97.7046
21
-68.7902
0
LINE
8
BLACK
6
CONTINUOUS
10
97.7046
20
-68.7902
11
97.7539
21
-68.9092
0
LINE
8
BLACK
6
CONTINUOUS
10
97.7539
20
-68.9092
11
97.779
21
-69.0356
0
LINE
8
BLACK
6
CONTINUOUS
10
97.779
20
-69.0356
11
97.779
21
-69.1644
0
LINE
8
BLACK
6
CONTINUOUS
10
97.779
20
-69.1644
11
97.7539
21
-69.2908
0
LINE
8
BLACK
6
CONTINUOUS
10
97.7539
20
-69.2908
11
97.7046
21
-69.4098
0
LINE
8
BLACK
6
CONTINUOUS
10
97.7046
20
-69.4098
11
97.633
21
-69.5169
0
LINE
8
BLACK
6
CONTINUOUS
10
97.633
20
-69.5169
11
97.5419
21
-69.608
0
LINE
8
BLACK
6
CONTINUOUS
10
97.5419
20
-69.608
11
97.4348
21
-69.6796
0
LINE
8
BLACK
6
CONTINUOUS
10
97.4348
20
-69.6796
11
97.3158
21
-69.7289
0
LINE
8
BLACK
6
CONTINUOUS
10
97.3158
20
-69.7289
11
97.1894
21
-69.754
0
LINE
8
BLACK
6
CONTINUOUS
10
97.1894
20
-69.754
11
97.0606
21
-69.754
0
LINE
8
BLACK
6
CONTINUOUS
10
97.0606
20
-69.754
11
96.9342
21
-69.7289
0
LINE
8
BLACK
6
CONTINUOUS
10
96.9342
20
-69.7289
11
96.8152
21
-69.6796
0
LINE
8
BLACK
6
CONTINUOUS
10
96.8152
20
-69.6796
11
96.7081
21
-69.608
0
LINE
8
BLACK
6
CONTINUOUS
10
96.7081
20
-69.608
11
96.617
21
-69.5169
0
LINE
8
BLACK
6
CONTINUOUS
10
96.617
20
-69.5169
11
96.5454
21
-69.4098
0
LINE
8
BLACK
6
CONTINUOUS
10
96.5454
20
-69.4098
11
96.4961
21
-69.2908
0
LINE
8
BLACK
6
CONTINUOUS
10
96.4961
20
-69.2908
11
96.471
21
-69.1644
0
LINE
8
BLACK
6
CONTINUOUS
10
96.471
20
-69.1644
11
96.471
21
-69.0356
0
LINE
8
BLACK
6
CONTINUOUS
10
96.471
20
-69.0356
11
96.4961
21
-68.9092
0
LINE
8
BLACK
6
CONTINUOUS
10
96.4961
20
-68.9092
11
96.5454
21
-68.7902
0
LINE
8
BLACK
6
CONTINUOUS
10
96.5454
20
-68.7902
11
96.617
21
-68.6831
0
LINE
8
BLACK
6
CONTINUOUS
10
96.617
20
-68.6831
11
96.7081
21
-68.592
0
LINE
8
BLACK
6
CONTINUOUS
10
96.7081
20
-68.592
11
96.8152
21
-68.5204
0
LINE
8
BLACK
6
CONTINUOUS
10
96.8152
20
-68.5204
11
96.9342
21
-68.4711
0
LINE
8
BLACK
6
CONTINUOUS
10
96.9342
20
-68.4711
11
97.0606
21
-68.446
0
LINE
8
BLACK
6
CONTINUOUS
10
97.0606
20
-68.446
11
97.1894
21
-68.446
0
LINE
8
BLACK
6
CONTINUOUS
10
97.1894
20
-68.446
11
97.3158
21
-68.4711
0
LINE
8
BLACK
6
CONTINUOUS
10
91.0658
20
-68.4711
11
91.1848
21
-68.5204
0
LINE
8
BLACK
6
CONTINUOUS
10
91.1848
20
-68.5204
11
91.2919
21
-68.592
0
LINE
8
BLACK
6
CONTINUOUS
10
91.2919
20
-68.592
11
91.383
21
-68.6831
0
LINE
8
BLACK
6
CONTINUOUS
10
91.383
20
-68.6831
11
91.4546
21
-68.7902
0
LINE
8
BLACK
6
CONTINUOUS
10
91.4546
20
-68.7902
11
91.5039
21
-68.9092
0
LINE
8
BLACK
6
CONTINUOUS
10
91.5039
20
-68.9092
11
91.529
21
-69.0356
0
LINE
8
BLACK
6
CONTINUOUS
10
91.529
20
-69.0356
11
91.529
21
-69.1644
0
LINE
8
BLACK
6
CONTINUOUS
10
91.529
20
-69.1644
11
91.5039
21
-69.2908
0
LINE
8
BLACK
6
CONTINUOUS
10
91.5039
20
-69.2908
11
91.4546
21
-69.4098
0
LINE
8
BLACK
6
CONTINUOUS
10
91.4546
20
-69.4098
11
91.383
21
-69.5169
0
LINE
8
BLACK
6
CONTINUOUS
10
91.383
20
-69.5169
11
91.2919
21
-69.608
0
LINE
8
BLACK
6
CONTINUOUS
10
91.2919
20
-69.608
11
91.1848
21
-69.6796
0
LINE
8
BLACK
6
CONTINUOUS
10
91.1848
20
-69.6796
11
91.0658
21
-69.7289
0
LINE
8
BLACK
6
CONTINUOUS
10
91.0658
20
-69.7289
11
90.9394
21
-69.754
0
LINE
8
BLACK
6
CONTINUOUS
10
90.9394
20
-69.754
11
90.8106
21
-69.754
0
LINE
8
BLACK
6
CONTINUOUS
10
90.8106
20
-69.754
11
90.6842
21
-69.7289
0
LINE
8
BLACK
6
CONTINUOUS
10
90.6842
20
-69.7289
11
90.5652
21
-69.6796
0
LINE
8
BLACK
6
CONTINUOUS
10
90.5652
20
-69.6796
11
90.4581
21
-69.608
0
LINE
8
BLACK
6
CONTINUOUS
10
90.4581
20
-69.608
11
90.367
21
-69.5169
0
LINE
8
BLACK
6
CONTINUOUS
10
90.367
20
-69.5169
11
90.2954
21
-69.4098
0
LINE
8
BLACK
6
CONTINUOUS
10
90.2954
20
-69.4098
11
90.2461
21
-69.2908
0
LINE
8
BLACK
6
CONTINUOUS
10
90.2461
20
-69.2908
11
90.221
21
-69.1644
0
LINE
8
BLACK
6
CONTINUOUS
10
90.221
20
-69.1644
11
90.221
21
-69.0356
0
LINE
8
BLACK
6
CONTINUOUS
10
90.221
20
-69.0356
11
90.2461
21
-68.9092
0
LINE
8
BLACK
6
CONTINUOUS
10
90.2461
20
-68.9092
11
90.2954
21
-68.7902
0
LINE
8
BLACK
6
CONTINUOUS
10
90.2954
20
-68.7902
11
90.367
21
-68.6831
0
LINE
8
BLACK
6
CONTINUOUS
10
90.367
20
-68.6831
11
90.4581
21
-68.592
0
LINE
8
BLACK
6
CONTINUOUS
10
90.4581
20
-68.592
11
90.5652
21
-68.5204
0
LINE
8
BLACK
6
CONTINUOUS
10
90.5652
20
-68.5204
11
90.6842
21
-68.4711
0
LINE
8
BLACK
6
CONTINUOUS
10
90.6842
20
-68.4711
11
90.8106
21
-68.446
0
LINE
8
BLACK
6
CONTINUOUS
10
90.8106
20
-68.446
11
90.9394
21
-68.446
0
LINE
8
BLACK
6
CONTINUOUS
10
90.9394
20
-68.446
11
91.0658
21
-68.4711
0
LINE
8
BLACK
6
CONTINUOUS
10
122.209
20
-68.3644
11
122.278
21
-68.3927
0
LINE
8
BLACK
6
CONTINUOUS
10
122.278
20
-68.3927
11
122.339
21
-68.4337
0
LINE
8
BLACK
6
CONTINUOUS
10
122.339
20
-68.4337
11
122.391
21
-68.486
0
LINE
8
BLACK
6
CONTINUOUS
10
122.391
20
-68.486
11
122.432
21
-68.5474
0
LINE
8
BLACK
6
CONTINUOUS
10
122.432
20
-68.5474
11
122.461
21
-68.6156
0
LINE
8
BLACK
6
CONTINUOUS
10
122.461
20
-68.6156
11
122.475
21
-68.6881
0
LINE
8
BLACK
6
CONTINUOUS
10
122.475
20
-68.6881
11
122.475
21
-68.7619
0
LINE
8
BLACK
6
CONTINUOUS
10
122.475
20
-68.7619
11
122.461
21
-68.8344
0
LINE
8
BLACK
6
CONTINUOUS
10
122.461
20
-68.8344
11
122.432
21
-68.9026
0
LINE
8
BLACK
6
CONTINUOUS
10
122.432
20
-68.9026
11
122.391
21
-68.964
0
LINE
8
BLACK
6
CONTINUOUS
10
122.391
20
-68.964
11
122.339
21
-69.0163
0
LINE
8
BLACK
6
CONTINUOUS
10
122.339
20
-69.0163
11
122.278
21
-69.0573
0
LINE
8
BLACK
6
CONTINUOUS
10
122.278
20
-69.0573
11
122.209
21
-69.0856
0
LINE
8
BLACK
6
CONTINUOUS
10
122.209
20
-69.0856
11
122.137
21
-69.1
0
LINE
8
BLACK
6
CONTINUOUS
10
122.137
20
-69.1
11
122.063
21
-69.1
0
LINE
8
BLACK
6
CONTINUOUS
10
122.063
20
-69.1
11
121.991
21
-69.0856
0
LINE
8
BLACK
6
CONTINUOUS
10
121.991
20
-69.0856
11
121.922
21
-69.0573
0
LINE
8
BLACK
6
CONTINUOUS
10
121.922
20
-69.0573
11
121.861
21
-69.0163
0
LINE
8
BLACK
6
CONTINUOUS
10
121.861
20
-69.0163
11
121.809
21
-68.964
0
LINE
8
BLACK
6
CONTINUOUS
10
121.809
20
-68.964
11
121.768
21
-68.9026
0
LINE
8
BLACK
6
CONTINUOUS
10
121.768
20
-68.9026
11
121.739
21
-68.8344
0
LINE
8
BLACK
6
CONTINUOUS
10
121.739
20
-68.8344
11
121.725
21
-68.7619
0
LINE
8
BLACK
6
CONTINUOUS
10
121.725
20
-68.7619
11
121.725
21
-68.6881
0
LINE
8
BLACK
6
CONTINUOUS
10
121.725
20
-68.6881
11
121.739
21
-68.6156
0
LINE
8
BLACK
6
CONTINUOUS
10
121.739
20
-68.6156
11
121.768
21
-68.5474
0
LINE
8
BLACK
6
CONTINUOUS
10
121.768
20
-68.5474
11
121.809
21
-68.486
0
LINE
8
BLACK
6
CONTINUOUS
10
121.809
20
-68.486
11
121.861
21
-68.4337
0
LINE
8
BLACK
6
CONTINUOUS
10
121.861
20
-68.4337
11
121.922
21
-68.3927
0
LINE
8
BLACK
6
CONTINUOUS
10
121.922
20
-68.3927
11
121.991
21
-68.3644
0
LINE
8
BLACK
6
CONTINUOUS
10
121.991
20
-68.3644
11
122.063
21
-68.35
0
LINE
8
BLACK
6
CONTINUOUS
10
122.063
20
-68.35
11
122.137
21
-68.35
0
LINE
8
BLACK
6
CONTINUOUS
10
122.137
20
-68.35
11
122.209
21
-68.3644
  0
ENDSEC
  0
EOF
