%TF.GenerationSoftware,KiCad,Pcbnew,(6.0.8-1)-1*%
%TF.CreationDate,2022-11-22T09:59:05-05:00*%
%TF.ProjectId,encoder_driver,656e636f-6465-4725-9f64-72697665722e,rev?*%
%TF.SameCoordinates,Original*%
%TF.FileFunction,Copper,L3,Inr*%
%TF.FilePolarity,Positive*%
%FSLAX46Y46*%
G04 Gerber Fmt 4.6, Leading zero omitted, Abs format (unit mm)*
G04 Created by KiCad (PCBNEW (6.0.8-1)-1) date 2022-11-22 09:59:05*
%MOMM*%
%LPD*%
G01*
G04 APERTURE LIST*
%TA.AperFunction,ComponentPad*%
%ADD10R,1.700000X1.700000*%
%TD*%
%TA.AperFunction,ComponentPad*%
%ADD11O,1.700000X1.700000*%
%TD*%
%TA.AperFunction,ComponentPad*%
%ADD12R,1.350000X1.350000*%
%TD*%
%TA.AperFunction,ComponentPad*%
%ADD13O,1.350000X1.350000*%
%TD*%
%TA.AperFunction,ViaPad*%
%ADD14C,0.600000*%
%TD*%
%TA.AperFunction,ViaPad*%
%ADD15C,0.800000*%
%TD*%
%TA.AperFunction,Conductor*%
%ADD16C,0.200000*%
%TD*%
%TA.AperFunction,Conductor*%
%ADD17C,0.800000*%
%TD*%
G04 APERTURE END LIST*
D10*
%TO.N,IFA*%
%TO.C,J2*%
X94670000Y-97040000D03*
D11*
%TO.N,IFB*%
X97210000Y-97040000D03*
%TO.N,IFC*%
X99750000Y-97040000D03*
%TO.N,unconnected-(J2-Pad4)*%
X102290000Y-97040000D03*
%TO.N,TRM1*%
X104830000Y-97040000D03*
%TO.N,TRM2*%
X107370000Y-97040000D03*
%TO.N,GND*%
X109910000Y-97040000D03*
%TO.N,VIN*%
X112450000Y-97040000D03*
%TD*%
D10*
%TO.N,ASCLK*%
%TO.C,J5*%
X136200000Y-72605000D03*
D11*
%TO.N,ACSQ*%
X136200000Y-75145000D03*
%TO.N,AMOSI*%
X136200000Y-77685000D03*
%TO.N,AMISO*%
X136200000Y-80225000D03*
%TO.N,ATRM1*%
X136200000Y-82765000D03*
%TO.N,ATRM2*%
X136200000Y-85305000D03*
%TO.N,AGND*%
X136200000Y-87845000D03*
%TO.N,A+5V*%
X136200000Y-90385000D03*
%TD*%
D10*
%TO.N,SCK*%
%TO.C,J1*%
X121847906Y-73999302D03*
D11*
%TO.N,CSQ*%
X121847906Y-76539302D03*
%TO.N,MOSI*%
X121847906Y-79079302D03*
%TO.N,MISO*%
X121847906Y-81619302D03*
%TO.N,TRM1*%
X121847906Y-84159302D03*
%TO.N,TRM2*%
X121847906Y-86699302D03*
%TO.N,GND*%
X121847906Y-89239302D03*
%TO.N,VIN*%
X121847906Y-91779302D03*
%TD*%
D12*
%TO.N,B+5V*%
%TO.C,J4*%
X154400000Y-75880000D03*
D13*
%TO.N,BTEMP*%
X154400000Y-77880000D03*
%TO.N,BCSQ*%
X154400000Y-79880000D03*
%TO.N,BSCLK*%
X154400000Y-81880000D03*
%TO.N,BMISO*%
X154400000Y-83880000D03*
%TO.N,BMOSI*%
X154400000Y-85880000D03*
%TO.N,BGND*%
X154400000Y-87880000D03*
%TD*%
D10*
%TO.N,TRM1*%
%TO.C,J3*%
X113250000Y-91650000D03*
D11*
%TO.N,TRM2*%
X115790000Y-91650000D03*
%TD*%
D14*
%TO.N,BGND*%
X144303200Y-80250600D03*
D15*
X145125600Y-83933600D03*
%TO.N,B+5V*%
X148326000Y-84340000D03*
%TO.N,+5V*%
X101300000Y-82400000D03*
%TO.N,GND*%
X118650000Y-67400000D03*
X100650000Y-80800000D03*
X106756600Y-72313400D03*
X120050000Y-69200000D03*
%TO.N,AGND*%
X138800000Y-72680000D03*
X139000000Y-70680000D03*
X142879353Y-79401353D03*
X141214000Y-82358800D03*
X138525000Y-87005000D03*
D14*
X137000000Y-93080000D03*
D15*
X138800000Y-78280000D03*
%TO.N,BGND*%
X149600000Y-75280000D03*
X152800000Y-78880000D03*
X149690395Y-70507460D03*
D14*
X152625000Y-73055000D03*
D15*
X152600000Y-74680000D03*
X149000000Y-82480000D03*
%TO.N,+3V3*%
X147200000Y-74680000D03*
X146811576Y-76813332D03*
X149328926Y-77540413D03*
D14*
%TO.N,BMOSI*%
X148513587Y-83236642D03*
X144300000Y-78880000D03*
%TO.N,BMISO*%
X148800000Y-81380000D03*
X144350000Y-77630000D03*
%TO.N,BCSQ*%
X146900000Y-73030000D03*
X149500000Y-72930000D03*
X152850000Y-75630000D03*
%TO.N,BSCLK*%
X154100500Y-74080000D03*
D15*
%TO.N,Net-(R1-Pad1)*%
X102200000Y-85800000D03*
%TO.N,Net-(R2-Pad1)*%
X104200000Y-85800000D03*
%TO.N,Net-(R3-Pad1)*%
X106200000Y-85800000D03*
%TO.N,Net-(R4-Pad2)*%
X110000000Y-80000000D03*
%TO.N,Net-(R5-Pad2)*%
X110000000Y-82000000D03*
%TO.N,Net-(R6-Pad2)*%
X110000000Y-83600000D03*
%TD*%
D16*
%TO.N,BGND*%
X144897000Y-80250600D02*
X144947800Y-80301400D01*
X144303200Y-80250600D02*
X144897000Y-80250600D01*
D17*
X145125600Y-83933600D02*
X146141600Y-83933600D01*
%TO.N,B+5V*%
X150100000Y-80165786D02*
X154385786Y-75880000D01*
X148326000Y-84340000D02*
X147613587Y-83627587D01*
X147613587Y-81293620D02*
X148741421Y-80165786D01*
X147613587Y-83627587D02*
X147613587Y-81293620D01*
X148741421Y-80165786D02*
X150100000Y-80165786D01*
%TD*%
%TA.AperFunction,Conductor*%
%TO.N,AGND*%
G36*
X143190121Y-69973002D02*
G01*
X143236614Y-70026658D01*
X143248000Y-70079000D01*
X143248000Y-80553000D01*
X143248019Y-80553759D01*
X143248019Y-80553770D01*
X143282761Y-81951431D01*
X143282800Y-81954562D01*
X143282800Y-93693911D01*
X143262798Y-93762032D01*
X143209142Y-93808525D01*
X143156800Y-93819911D01*
X135080315Y-93819911D01*
X135012194Y-93799909D01*
X134991241Y-93783028D01*
X134859224Y-93651073D01*
X134773926Y-93565816D01*
X134739886Y-93503511D01*
X134737000Y-93476699D01*
X134737000Y-90370262D01*
X135144520Y-90370262D01*
X135161759Y-90575553D01*
X135218544Y-90773586D01*
X135221359Y-90779063D01*
X135221360Y-90779066D01*
X135242247Y-90819707D01*
X135312712Y-90956818D01*
X135440677Y-91118270D01*
X135597564Y-91251791D01*
X135777398Y-91352297D01*
X135872238Y-91383113D01*
X135967471Y-91414056D01*
X135967475Y-91414057D01*
X135973329Y-91415959D01*
X136177894Y-91440351D01*
X136184029Y-91439879D01*
X136184031Y-91439879D01*
X136240039Y-91435569D01*
X136383300Y-91424546D01*
X136389230Y-91422890D01*
X136389232Y-91422890D01*
X136575797Y-91370800D01*
X136575796Y-91370800D01*
X136581725Y-91369145D01*
X136587214Y-91366372D01*
X136587220Y-91366370D01*
X136760116Y-91279033D01*
X136765610Y-91276258D01*
X136927951Y-91149424D01*
X137062564Y-90993472D01*
X137083387Y-90956818D01*
X137161276Y-90819707D01*
X137164323Y-90814344D01*
X137229351Y-90618863D01*
X137255171Y-90414474D01*
X137255583Y-90385000D01*
X137235480Y-90179970D01*
X137175935Y-89982749D01*
X137079218Y-89800849D01*
X137005859Y-89710902D01*
X136952906Y-89645975D01*
X136952903Y-89645972D01*
X136949011Y-89641200D01*
X136931786Y-89626950D01*
X136795025Y-89513811D01*
X136795021Y-89513809D01*
X136790275Y-89509882D01*
X136609055Y-89411897D01*
X136412254Y-89350977D01*
X136406129Y-89350333D01*
X136406128Y-89350333D01*
X136213498Y-89330087D01*
X136213496Y-89330087D01*
X136207369Y-89329443D01*
X136120529Y-89337346D01*
X136008342Y-89347555D01*
X136008339Y-89347556D01*
X136002203Y-89348114D01*
X135804572Y-89406280D01*
X135622002Y-89501726D01*
X135617201Y-89505586D01*
X135617198Y-89505588D01*
X135606971Y-89513811D01*
X135461447Y-89630815D01*
X135329024Y-89788630D01*
X135326056Y-89794028D01*
X135326053Y-89794033D01*
X135319315Y-89806290D01*
X135229776Y-89969162D01*
X135167484Y-90165532D01*
X135166798Y-90171649D01*
X135166797Y-90171653D01*
X135145207Y-90364137D01*
X135144520Y-90370262D01*
X134737000Y-90370262D01*
X134737000Y-85290262D01*
X135144520Y-85290262D01*
X135161759Y-85495553D01*
X135218544Y-85693586D01*
X135221359Y-85699063D01*
X135221360Y-85699066D01*
X135242247Y-85739707D01*
X135312712Y-85876818D01*
X135440677Y-86038270D01*
X135597564Y-86171791D01*
X135777398Y-86272297D01*
X135872238Y-86303113D01*
X135967471Y-86334056D01*
X135967475Y-86334057D01*
X135973329Y-86335959D01*
X136177894Y-86360351D01*
X136184029Y-86359879D01*
X136184031Y-86359879D01*
X136240039Y-86355569D01*
X136383300Y-86344546D01*
X136389230Y-86342890D01*
X136389232Y-86342890D01*
X136575797Y-86290800D01*
X136575796Y-86290800D01*
X136581725Y-86289145D01*
X136587214Y-86286372D01*
X136587220Y-86286370D01*
X136760116Y-86199033D01*
X136765610Y-86196258D01*
X136927951Y-86069424D01*
X137062564Y-85913472D01*
X137083387Y-85876818D01*
X137161276Y-85739707D01*
X137164323Y-85734344D01*
X137229351Y-85538863D01*
X137255171Y-85334474D01*
X137255583Y-85305000D01*
X137235480Y-85099970D01*
X137175935Y-84902749D01*
X137079218Y-84720849D01*
X136981634Y-84601199D01*
X136952906Y-84565975D01*
X136952903Y-84565972D01*
X136949011Y-84561200D01*
X136944262Y-84557271D01*
X136795025Y-84433811D01*
X136795021Y-84433809D01*
X136790275Y-84429882D01*
X136609055Y-84331897D01*
X136412254Y-84270977D01*
X136406129Y-84270333D01*
X136406128Y-84270333D01*
X136213498Y-84250087D01*
X136213496Y-84250087D01*
X136207369Y-84249443D01*
X136120529Y-84257346D01*
X136008342Y-84267555D01*
X136008339Y-84267556D01*
X136002203Y-84268114D01*
X135804572Y-84326280D01*
X135622002Y-84421726D01*
X135617201Y-84425586D01*
X135617198Y-84425588D01*
X135606971Y-84433811D01*
X135461447Y-84550815D01*
X135329024Y-84708630D01*
X135326056Y-84714028D01*
X135326053Y-84714033D01*
X135236376Y-84877156D01*
X135229776Y-84889162D01*
X135167484Y-85085532D01*
X135166798Y-85091649D01*
X135166797Y-85091653D01*
X135145207Y-85284137D01*
X135144520Y-85290262D01*
X134737000Y-85290262D01*
X134737000Y-82750262D01*
X135144520Y-82750262D01*
X135161759Y-82955553D01*
X135218544Y-83153586D01*
X135221359Y-83159063D01*
X135221360Y-83159066D01*
X135242247Y-83199707D01*
X135312712Y-83336818D01*
X135440677Y-83498270D01*
X135597564Y-83631791D01*
X135777398Y-83732297D01*
X135872238Y-83763113D01*
X135967471Y-83794056D01*
X135967475Y-83794057D01*
X135973329Y-83795959D01*
X136177894Y-83820351D01*
X136184029Y-83819879D01*
X136184031Y-83819879D01*
X136240039Y-83815569D01*
X136383300Y-83804546D01*
X136389230Y-83802890D01*
X136389232Y-83802890D01*
X136575797Y-83750800D01*
X136575796Y-83750800D01*
X136581725Y-83749145D01*
X136587214Y-83746372D01*
X136587220Y-83746370D01*
X136760116Y-83659033D01*
X136765610Y-83656258D01*
X136927951Y-83529424D01*
X137062564Y-83373472D01*
X137083387Y-83336818D01*
X137161276Y-83199707D01*
X137164323Y-83194344D01*
X137229351Y-82998863D01*
X137255171Y-82794474D01*
X137255583Y-82765000D01*
X137235480Y-82559970D01*
X137175935Y-82362749D01*
X137079218Y-82180849D01*
X137005859Y-82090902D01*
X136952906Y-82025975D01*
X136952903Y-82025972D01*
X136949011Y-82021200D01*
X136864675Y-81951431D01*
X136795025Y-81893811D01*
X136795021Y-81893809D01*
X136790275Y-81889882D01*
X136609055Y-81791897D01*
X136412254Y-81730977D01*
X136406129Y-81730333D01*
X136406128Y-81730333D01*
X136213498Y-81710087D01*
X136213496Y-81710087D01*
X136207369Y-81709443D01*
X136120529Y-81717346D01*
X136008342Y-81727555D01*
X136008339Y-81727556D01*
X136002203Y-81728114D01*
X135804572Y-81786280D01*
X135622002Y-81881726D01*
X135617201Y-81885586D01*
X135617198Y-81885588D01*
X135606971Y-81893811D01*
X135461447Y-82010815D01*
X135329024Y-82168630D01*
X135326056Y-82174028D01*
X135326053Y-82174033D01*
X135319315Y-82186290D01*
X135229776Y-82349162D01*
X135167484Y-82545532D01*
X135166798Y-82551649D01*
X135166797Y-82551653D01*
X135145207Y-82744137D01*
X135144520Y-82750262D01*
X134737000Y-82750262D01*
X134737000Y-80210262D01*
X135144520Y-80210262D01*
X135161759Y-80415553D01*
X135218544Y-80613586D01*
X135221359Y-80619063D01*
X135221360Y-80619066D01*
X135242247Y-80659707D01*
X135312712Y-80796818D01*
X135440677Y-80958270D01*
X135597564Y-81091791D01*
X135777398Y-81192297D01*
X135872238Y-81223113D01*
X135967471Y-81254056D01*
X135967475Y-81254057D01*
X135973329Y-81255959D01*
X136177894Y-81280351D01*
X136184029Y-81279879D01*
X136184031Y-81279879D01*
X136240039Y-81275569D01*
X136383300Y-81264546D01*
X136389230Y-81262890D01*
X136389232Y-81262890D01*
X136575797Y-81210800D01*
X136575796Y-81210800D01*
X136581725Y-81209145D01*
X136587214Y-81206372D01*
X136587220Y-81206370D01*
X136760116Y-81119033D01*
X136765610Y-81116258D01*
X136927951Y-80989424D01*
X137062564Y-80833472D01*
X137083387Y-80796818D01*
X137161276Y-80659707D01*
X137164323Y-80654344D01*
X137229351Y-80458863D01*
X137255171Y-80254474D01*
X137255583Y-80225000D01*
X137235480Y-80019970D01*
X137175935Y-79822749D01*
X137079218Y-79640849D01*
X136960768Y-79495615D01*
X136952906Y-79485975D01*
X136952903Y-79485972D01*
X136949011Y-79481200D01*
X136931786Y-79466950D01*
X136795025Y-79353811D01*
X136795021Y-79353809D01*
X136790275Y-79349882D01*
X136609055Y-79251897D01*
X136412254Y-79190977D01*
X136406129Y-79190333D01*
X136406128Y-79190333D01*
X136213498Y-79170087D01*
X136213496Y-79170087D01*
X136207369Y-79169443D01*
X136120529Y-79177346D01*
X136008342Y-79187555D01*
X136008339Y-79187556D01*
X136002203Y-79188114D01*
X135804572Y-79246280D01*
X135622002Y-79341726D01*
X135617201Y-79345586D01*
X135617198Y-79345588D01*
X135466254Y-79466950D01*
X135461447Y-79470815D01*
X135329024Y-79628630D01*
X135326056Y-79634028D01*
X135326053Y-79634033D01*
X135241825Y-79787244D01*
X135229776Y-79809162D01*
X135167484Y-80005532D01*
X135166798Y-80011649D01*
X135166797Y-80011653D01*
X135145207Y-80204137D01*
X135144520Y-80210262D01*
X134737000Y-80210262D01*
X134737000Y-77670262D01*
X135144520Y-77670262D01*
X135161759Y-77875553D01*
X135218544Y-78073586D01*
X135221359Y-78079063D01*
X135221360Y-78079066D01*
X135242247Y-78119707D01*
X135312712Y-78256818D01*
X135440677Y-78418270D01*
X135597564Y-78551791D01*
X135777398Y-78652297D01*
X135872238Y-78683113D01*
X135967471Y-78714056D01*
X135967475Y-78714057D01*
X135973329Y-78715959D01*
X136177894Y-78740351D01*
X136184029Y-78739879D01*
X136184031Y-78739879D01*
X136240039Y-78735569D01*
X136383300Y-78724546D01*
X136389230Y-78722890D01*
X136389232Y-78722890D01*
X136575797Y-78670800D01*
X136575796Y-78670800D01*
X136581725Y-78669145D01*
X136587214Y-78666372D01*
X136587220Y-78666370D01*
X136760116Y-78579033D01*
X136765610Y-78576258D01*
X136927951Y-78449424D01*
X137062564Y-78293472D01*
X137083387Y-78256818D01*
X137161276Y-78119707D01*
X137164323Y-78114344D01*
X137229351Y-77918863D01*
X137255171Y-77714474D01*
X137255583Y-77685000D01*
X137235480Y-77479970D01*
X137175935Y-77282749D01*
X137079218Y-77100849D01*
X137005859Y-77010902D01*
X136952906Y-76945975D01*
X136952903Y-76945972D01*
X136949011Y-76941200D01*
X136931786Y-76926950D01*
X136795025Y-76813811D01*
X136795021Y-76813809D01*
X136790275Y-76809882D01*
X136609055Y-76711897D01*
X136412254Y-76650977D01*
X136406129Y-76650333D01*
X136406128Y-76650333D01*
X136213498Y-76630087D01*
X136213496Y-76630087D01*
X136207369Y-76629443D01*
X136120529Y-76637346D01*
X136008342Y-76647555D01*
X136008339Y-76647556D01*
X136002203Y-76648114D01*
X135804572Y-76706280D01*
X135622002Y-76801726D01*
X135617201Y-76805586D01*
X135617198Y-76805588D01*
X135606971Y-76813811D01*
X135461447Y-76930815D01*
X135329024Y-77088630D01*
X135326056Y-77094028D01*
X135326053Y-77094033D01*
X135319315Y-77106290D01*
X135229776Y-77269162D01*
X135167484Y-77465532D01*
X135166798Y-77471649D01*
X135166797Y-77471653D01*
X135145207Y-77664137D01*
X135144520Y-77670262D01*
X134737000Y-77670262D01*
X134737000Y-75130262D01*
X135144520Y-75130262D01*
X135161759Y-75335553D01*
X135218544Y-75533586D01*
X135221359Y-75539063D01*
X135221360Y-75539066D01*
X135242247Y-75579707D01*
X135312712Y-75716818D01*
X135440677Y-75878270D01*
X135597564Y-76011791D01*
X135777398Y-76112297D01*
X135872238Y-76143113D01*
X135967471Y-76174056D01*
X135967475Y-76174057D01*
X135973329Y-76175959D01*
X136177894Y-76200351D01*
X136184029Y-76199879D01*
X136184031Y-76199879D01*
X136240039Y-76195569D01*
X136383300Y-76184546D01*
X136389230Y-76182890D01*
X136389232Y-76182890D01*
X136575797Y-76130800D01*
X136575796Y-76130800D01*
X136581725Y-76129145D01*
X136587214Y-76126372D01*
X136587220Y-76126370D01*
X136760116Y-76039033D01*
X136765610Y-76036258D01*
X136927951Y-75909424D01*
X137062564Y-75753472D01*
X137083387Y-75716818D01*
X137161276Y-75579707D01*
X137164323Y-75574344D01*
X137229351Y-75378863D01*
X137255171Y-75174474D01*
X137255583Y-75145000D01*
X137235480Y-74939970D01*
X137175935Y-74742749D01*
X137079218Y-74560849D01*
X137005859Y-74470902D01*
X136952906Y-74405975D01*
X136952903Y-74405972D01*
X136949011Y-74401200D01*
X136931786Y-74386950D01*
X136795025Y-74273811D01*
X136795021Y-74273809D01*
X136790275Y-74269882D01*
X136609055Y-74171897D01*
X136412254Y-74110977D01*
X136406129Y-74110333D01*
X136406128Y-74110333D01*
X136213498Y-74090087D01*
X136213496Y-74090087D01*
X136207369Y-74089443D01*
X136120529Y-74097346D01*
X136008342Y-74107555D01*
X136008339Y-74107556D01*
X136002203Y-74108114D01*
X135804572Y-74166280D01*
X135622002Y-74261726D01*
X135617201Y-74265586D01*
X135617198Y-74265588D01*
X135606971Y-74273811D01*
X135461447Y-74390815D01*
X135329024Y-74548630D01*
X135326056Y-74554028D01*
X135326053Y-74554033D01*
X135319315Y-74566290D01*
X135229776Y-74729162D01*
X135167484Y-74925532D01*
X135166798Y-74931649D01*
X135166797Y-74931653D01*
X135145207Y-75124137D01*
X135144520Y-75130262D01*
X134737000Y-75130262D01*
X134737000Y-73474748D01*
X135149500Y-73474748D01*
X135161133Y-73533231D01*
X135205448Y-73599552D01*
X135271769Y-73643867D01*
X135283938Y-73646288D01*
X135283939Y-73646288D01*
X135324184Y-73654293D01*
X135330252Y-73655500D01*
X137069748Y-73655500D01*
X137075816Y-73654293D01*
X137116061Y-73646288D01*
X137116062Y-73646288D01*
X137128231Y-73643867D01*
X137194552Y-73599552D01*
X137238867Y-73533231D01*
X137250500Y-73474748D01*
X137250500Y-71735252D01*
X137238867Y-71676769D01*
X137194552Y-71610448D01*
X137128231Y-71566133D01*
X137116062Y-71563712D01*
X137116061Y-71563712D01*
X137075816Y-71555707D01*
X137069748Y-71554500D01*
X135330252Y-71554500D01*
X135324184Y-71555707D01*
X135283939Y-71563712D01*
X135283938Y-71563712D01*
X135271769Y-71566133D01*
X135205448Y-71610448D01*
X135161133Y-71676769D01*
X135149500Y-71735252D01*
X135149500Y-73474748D01*
X134737000Y-73474748D01*
X134737000Y-70237259D01*
X134757002Y-70169138D01*
X134773905Y-70148164D01*
X134932164Y-69989905D01*
X134994476Y-69955879D01*
X135021259Y-69953000D01*
X143122000Y-69953000D01*
X143190121Y-69973002D01*
G37*
%TD.AperFunction*%
%TD*%
%TA.AperFunction,Conductor*%
%TO.N,GND*%
G36*
X119097411Y-66057283D02*
G01*
X119119170Y-66074977D01*
X124646131Y-71700634D01*
X124679604Y-71763245D01*
X124682251Y-71788654D01*
X124729720Y-92817192D01*
X124731850Y-93760997D01*
X124712001Y-93829162D01*
X124658451Y-93875776D01*
X124605850Y-93887281D01*
X121182135Y-93887281D01*
X118596929Y-96829068D01*
X118295340Y-97172255D01*
X118264929Y-97197477D01*
X114762226Y-99273153D01*
X114261840Y-99569678D01*
X114197605Y-99587281D01*
X92208135Y-99587281D01*
X92140014Y-99567279D01*
X92093521Y-99513623D01*
X92082135Y-99461281D01*
X92082135Y-97909748D01*
X93619500Y-97909748D01*
X93620707Y-97915816D01*
X93624331Y-97934033D01*
X93631133Y-97968231D01*
X93675448Y-98034552D01*
X93741769Y-98078867D01*
X93753938Y-98081288D01*
X93753939Y-98081288D01*
X93794184Y-98089293D01*
X93800252Y-98090500D01*
X95539748Y-98090500D01*
X95545816Y-98089293D01*
X95586061Y-98081288D01*
X95586062Y-98081288D01*
X95598231Y-98078867D01*
X95664552Y-98034552D01*
X95708867Y-97968231D01*
X95715670Y-97934033D01*
X95719293Y-97915816D01*
X95720500Y-97909748D01*
X95720500Y-97025262D01*
X96154520Y-97025262D01*
X96155036Y-97031406D01*
X96166864Y-97172255D01*
X96171759Y-97230553D01*
X96228544Y-97428586D01*
X96231359Y-97434063D01*
X96231360Y-97434066D01*
X96252247Y-97474707D01*
X96322712Y-97611818D01*
X96450677Y-97773270D01*
X96607564Y-97906791D01*
X96787398Y-98007297D01*
X96871280Y-98034552D01*
X96977471Y-98069056D01*
X96977475Y-98069057D01*
X96983329Y-98070959D01*
X97187894Y-98095351D01*
X97194029Y-98094879D01*
X97194031Y-98094879D01*
X97266625Y-98089293D01*
X97393300Y-98079546D01*
X97399230Y-98077890D01*
X97399232Y-98077890D01*
X97585797Y-98025800D01*
X97585796Y-98025800D01*
X97591725Y-98024145D01*
X97597214Y-98021372D01*
X97597220Y-98021370D01*
X97770116Y-97934033D01*
X97775610Y-97931258D01*
X97937951Y-97804424D01*
X98072564Y-97648472D01*
X98093387Y-97611818D01*
X98171276Y-97474707D01*
X98174323Y-97469344D01*
X98239351Y-97273863D01*
X98265171Y-97069474D01*
X98265583Y-97040000D01*
X98264138Y-97025262D01*
X98694520Y-97025262D01*
X98695036Y-97031406D01*
X98706864Y-97172255D01*
X98711759Y-97230553D01*
X98768544Y-97428586D01*
X98771359Y-97434063D01*
X98771360Y-97434066D01*
X98792247Y-97474707D01*
X98862712Y-97611818D01*
X98990677Y-97773270D01*
X99147564Y-97906791D01*
X99327398Y-98007297D01*
X99411280Y-98034552D01*
X99517471Y-98069056D01*
X99517475Y-98069057D01*
X99523329Y-98070959D01*
X99727894Y-98095351D01*
X99734029Y-98094879D01*
X99734031Y-98094879D01*
X99806625Y-98089293D01*
X99933300Y-98079546D01*
X99939230Y-98077890D01*
X99939232Y-98077890D01*
X100125797Y-98025800D01*
X100125796Y-98025800D01*
X100131725Y-98024145D01*
X100137214Y-98021372D01*
X100137220Y-98021370D01*
X100310116Y-97934033D01*
X100315610Y-97931258D01*
X100477951Y-97804424D01*
X100612564Y-97648472D01*
X100633387Y-97611818D01*
X100711276Y-97474707D01*
X100714323Y-97469344D01*
X100779351Y-97273863D01*
X100805171Y-97069474D01*
X100805583Y-97040000D01*
X100804138Y-97025262D01*
X101234520Y-97025262D01*
X101235036Y-97031406D01*
X101246864Y-97172255D01*
X101251759Y-97230553D01*
X101308544Y-97428586D01*
X101311359Y-97434063D01*
X101311360Y-97434066D01*
X101332247Y-97474707D01*
X101402712Y-97611818D01*
X101530677Y-97773270D01*
X101687564Y-97906791D01*
X101867398Y-98007297D01*
X101951280Y-98034552D01*
X102057471Y-98069056D01*
X102057475Y-98069057D01*
X102063329Y-98070959D01*
X102267894Y-98095351D01*
X102274029Y-98094879D01*
X102274031Y-98094879D01*
X102346625Y-98089293D01*
X102473300Y-98079546D01*
X102479230Y-98077890D01*
X102479232Y-98077890D01*
X102665797Y-98025800D01*
X102665796Y-98025800D01*
X102671725Y-98024145D01*
X102677214Y-98021372D01*
X102677220Y-98021370D01*
X102850116Y-97934033D01*
X102855610Y-97931258D01*
X103017951Y-97804424D01*
X103152564Y-97648472D01*
X103173387Y-97611818D01*
X103251276Y-97474707D01*
X103254323Y-97469344D01*
X103319351Y-97273863D01*
X103345171Y-97069474D01*
X103345583Y-97040000D01*
X103344138Y-97025262D01*
X103774520Y-97025262D01*
X103775036Y-97031406D01*
X103786864Y-97172255D01*
X103791759Y-97230553D01*
X103848544Y-97428586D01*
X103851359Y-97434063D01*
X103851360Y-97434066D01*
X103872247Y-97474707D01*
X103942712Y-97611818D01*
X104070677Y-97773270D01*
X104227564Y-97906791D01*
X104407398Y-98007297D01*
X104491280Y-98034552D01*
X104597471Y-98069056D01*
X104597475Y-98069057D01*
X104603329Y-98070959D01*
X104807894Y-98095351D01*
X104814029Y-98094879D01*
X104814031Y-98094879D01*
X104886625Y-98089293D01*
X105013300Y-98079546D01*
X105019230Y-98077890D01*
X105019232Y-98077890D01*
X105205797Y-98025800D01*
X105205796Y-98025800D01*
X105211725Y-98024145D01*
X105217214Y-98021372D01*
X105217220Y-98021370D01*
X105390116Y-97934033D01*
X105395610Y-97931258D01*
X105557951Y-97804424D01*
X105692564Y-97648472D01*
X105713387Y-97611818D01*
X105791276Y-97474707D01*
X105794323Y-97469344D01*
X105859351Y-97273863D01*
X105885171Y-97069474D01*
X105885583Y-97040000D01*
X105884138Y-97025262D01*
X106314520Y-97025262D01*
X106315036Y-97031406D01*
X106326864Y-97172255D01*
X106331759Y-97230553D01*
X106388544Y-97428586D01*
X106391359Y-97434063D01*
X106391360Y-97434066D01*
X106412247Y-97474707D01*
X106482712Y-97611818D01*
X106610677Y-97773270D01*
X106767564Y-97906791D01*
X106947398Y-98007297D01*
X107031280Y-98034552D01*
X107137471Y-98069056D01*
X107137475Y-98069057D01*
X107143329Y-98070959D01*
X107347894Y-98095351D01*
X107354029Y-98094879D01*
X107354031Y-98094879D01*
X107426625Y-98089293D01*
X107553300Y-98079546D01*
X107559230Y-98077890D01*
X107559232Y-98077890D01*
X107745797Y-98025800D01*
X107745796Y-98025800D01*
X107751725Y-98024145D01*
X107757214Y-98021372D01*
X107757220Y-98021370D01*
X107930116Y-97934033D01*
X107935610Y-97931258D01*
X108097951Y-97804424D01*
X108232564Y-97648472D01*
X108253387Y-97611818D01*
X108331276Y-97474707D01*
X108334323Y-97469344D01*
X108399351Y-97273863D01*
X108425171Y-97069474D01*
X108425583Y-97040000D01*
X108424138Y-97025262D01*
X111394520Y-97025262D01*
X111395036Y-97031406D01*
X111406864Y-97172255D01*
X111411759Y-97230553D01*
X111468544Y-97428586D01*
X111471359Y-97434063D01*
X111471360Y-97434066D01*
X111492247Y-97474707D01*
X111562712Y-97611818D01*
X111690677Y-97773270D01*
X111847564Y-97906791D01*
X112027398Y-98007297D01*
X112111280Y-98034552D01*
X112217471Y-98069056D01*
X112217475Y-98069057D01*
X112223329Y-98070959D01*
X112427894Y-98095351D01*
X112434029Y-98094879D01*
X112434031Y-98094879D01*
X112506625Y-98089293D01*
X112633300Y-98079546D01*
X112639230Y-98077890D01*
X112639232Y-98077890D01*
X112825797Y-98025800D01*
X112825796Y-98025800D01*
X112831725Y-98024145D01*
X112837214Y-98021372D01*
X112837220Y-98021370D01*
X113010116Y-97934033D01*
X113015610Y-97931258D01*
X113177951Y-97804424D01*
X113312564Y-97648472D01*
X113333387Y-97611818D01*
X113411276Y-97474707D01*
X113414323Y-97469344D01*
X113479351Y-97273863D01*
X113505171Y-97069474D01*
X113505583Y-97040000D01*
X113485480Y-96834970D01*
X113425935Y-96637749D01*
X113329218Y-96455849D01*
X113255859Y-96365902D01*
X113202906Y-96300975D01*
X113202903Y-96300972D01*
X113199011Y-96296200D01*
X113181786Y-96281950D01*
X113045025Y-96168811D01*
X113045021Y-96168809D01*
X113040275Y-96164882D01*
X112859055Y-96066897D01*
X112662254Y-96005977D01*
X112656129Y-96005333D01*
X112656128Y-96005333D01*
X112463498Y-95985087D01*
X112463496Y-95985087D01*
X112457369Y-95984443D01*
X112370529Y-95992346D01*
X112258342Y-96002555D01*
X112258339Y-96002556D01*
X112252203Y-96003114D01*
X112054572Y-96061280D01*
X111872002Y-96156726D01*
X111867201Y-96160586D01*
X111867198Y-96160588D01*
X111716254Y-96281950D01*
X111711447Y-96285815D01*
X111579024Y-96443630D01*
X111576056Y-96449028D01*
X111576053Y-96449033D01*
X111569315Y-96461290D01*
X111479776Y-96624162D01*
X111417484Y-96820532D01*
X111416798Y-96826649D01*
X111416797Y-96826653D01*
X111395207Y-97019137D01*
X111394520Y-97025262D01*
X108424138Y-97025262D01*
X108405480Y-96834970D01*
X108345935Y-96637749D01*
X108249218Y-96455849D01*
X108175859Y-96365902D01*
X108122906Y-96300975D01*
X108122903Y-96300972D01*
X108119011Y-96296200D01*
X108101786Y-96281950D01*
X107965025Y-96168811D01*
X107965021Y-96168809D01*
X107960275Y-96164882D01*
X107779055Y-96066897D01*
X107582254Y-96005977D01*
X107576129Y-96005333D01*
X107576128Y-96005333D01*
X107383498Y-95985087D01*
X107383496Y-95985087D01*
X107377369Y-95984443D01*
X107290529Y-95992346D01*
X107178342Y-96002555D01*
X107178339Y-96002556D01*
X107172203Y-96003114D01*
X106974572Y-96061280D01*
X106792002Y-96156726D01*
X106787201Y-96160586D01*
X106787198Y-96160588D01*
X106636254Y-96281950D01*
X106631447Y-96285815D01*
X106499024Y-96443630D01*
X106496056Y-96449028D01*
X106496053Y-96449033D01*
X106489315Y-96461290D01*
X106399776Y-96624162D01*
X106337484Y-96820532D01*
X106336798Y-96826649D01*
X106336797Y-96826653D01*
X106315207Y-97019137D01*
X106314520Y-97025262D01*
X105884138Y-97025262D01*
X105865480Y-96834970D01*
X105805935Y-96637749D01*
X105709218Y-96455849D01*
X105635859Y-96365902D01*
X105582906Y-96300975D01*
X105582903Y-96300972D01*
X105579011Y-96296200D01*
X105561786Y-96281950D01*
X105425025Y-96168811D01*
X105425021Y-96168809D01*
X105420275Y-96164882D01*
X105239055Y-96066897D01*
X105042254Y-96005977D01*
X105036129Y-96005333D01*
X105036128Y-96005333D01*
X104843498Y-95985087D01*
X104843496Y-95985087D01*
X104837369Y-95984443D01*
X104750529Y-95992346D01*
X104638342Y-96002555D01*
X104638339Y-96002556D01*
X104632203Y-96003114D01*
X104434572Y-96061280D01*
X104252002Y-96156726D01*
X104247201Y-96160586D01*
X104247198Y-96160588D01*
X104096254Y-96281950D01*
X104091447Y-96285815D01*
X103959024Y-96443630D01*
X103956056Y-96449028D01*
X103956053Y-96449033D01*
X103949315Y-96461290D01*
X103859776Y-96624162D01*
X103797484Y-96820532D01*
X103796798Y-96826649D01*
X103796797Y-96826653D01*
X103775207Y-97019137D01*
X103774520Y-97025262D01*
X103344138Y-97025262D01*
X103325480Y-96834970D01*
X103265935Y-96637749D01*
X103169218Y-96455849D01*
X103095859Y-96365902D01*
X103042906Y-96300975D01*
X103042903Y-96300972D01*
X103039011Y-96296200D01*
X103021786Y-96281950D01*
X102885025Y-96168811D01*
X102885021Y-96168809D01*
X102880275Y-96164882D01*
X102699055Y-96066897D01*
X102502254Y-96005977D01*
X102496129Y-96005333D01*
X102496128Y-96005333D01*
X102303498Y-95985087D01*
X102303496Y-95985087D01*
X102297369Y-95984443D01*
X102210529Y-95992346D01*
X102098342Y-96002555D01*
X102098339Y-96002556D01*
X102092203Y-96003114D01*
X101894572Y-96061280D01*
X101712002Y-96156726D01*
X101707201Y-96160586D01*
X101707198Y-96160588D01*
X101556254Y-96281950D01*
X101551447Y-96285815D01*
X101419024Y-96443630D01*
X101416056Y-96449028D01*
X101416053Y-96449033D01*
X101409315Y-96461290D01*
X101319776Y-96624162D01*
X101257484Y-96820532D01*
X101256798Y-96826649D01*
X101256797Y-96826653D01*
X101235207Y-97019137D01*
X101234520Y-97025262D01*
X100804138Y-97025262D01*
X100785480Y-96834970D01*
X100725935Y-96637749D01*
X100629218Y-96455849D01*
X100555859Y-96365902D01*
X100502906Y-96300975D01*
X100502903Y-96300972D01*
X100499011Y-96296200D01*
X100481786Y-96281950D01*
X100345025Y-96168811D01*
X100345021Y-96168809D01*
X100340275Y-96164882D01*
X100159055Y-96066897D01*
X99962254Y-96005977D01*
X99956129Y-96005333D01*
X99956128Y-96005333D01*
X99763498Y-95985087D01*
X99763496Y-95985087D01*
X99757369Y-95984443D01*
X99670529Y-95992346D01*
X99558342Y-96002555D01*
X99558339Y-96002556D01*
X99552203Y-96003114D01*
X99354572Y-96061280D01*
X99172002Y-96156726D01*
X99167201Y-96160586D01*
X99167198Y-96160588D01*
X99016254Y-96281950D01*
X99011447Y-96285815D01*
X98879024Y-96443630D01*
X98876056Y-96449028D01*
X98876053Y-96449033D01*
X98869315Y-96461290D01*
X98779776Y-96624162D01*
X98717484Y-96820532D01*
X98716798Y-96826649D01*
X98716797Y-96826653D01*
X98695207Y-97019137D01*
X98694520Y-97025262D01*
X98264138Y-97025262D01*
X98245480Y-96834970D01*
X98185935Y-96637749D01*
X98089218Y-96455849D01*
X98015859Y-96365902D01*
X97962906Y-96300975D01*
X97962903Y-96300972D01*
X97959011Y-96296200D01*
X97941786Y-96281950D01*
X97805025Y-96168811D01*
X97805021Y-96168809D01*
X97800275Y-96164882D01*
X97619055Y-96066897D01*
X97422254Y-96005977D01*
X97416129Y-96005333D01*
X97416128Y-96005333D01*
X97223498Y-95985087D01*
X97223496Y-95985087D01*
X97217369Y-95984443D01*
X97130529Y-95992346D01*
X97018342Y-96002555D01*
X97018339Y-96002556D01*
X97012203Y-96003114D01*
X96814572Y-96061280D01*
X96632002Y-96156726D01*
X96627201Y-96160586D01*
X96627198Y-96160588D01*
X96476254Y-96281950D01*
X96471447Y-96285815D01*
X96339024Y-96443630D01*
X96336056Y-96449028D01*
X96336053Y-96449033D01*
X96329315Y-96461290D01*
X96239776Y-96624162D01*
X96177484Y-96820532D01*
X96176798Y-96826649D01*
X96176797Y-96826653D01*
X96155207Y-97019137D01*
X96154520Y-97025262D01*
X95720500Y-97025262D01*
X95720500Y-96170252D01*
X95708867Y-96111769D01*
X95664552Y-96045448D01*
X95598231Y-96001133D01*
X95586062Y-95998712D01*
X95586061Y-95998712D01*
X95545816Y-95990707D01*
X95539748Y-95989500D01*
X93800252Y-95989500D01*
X93794184Y-95990707D01*
X93753939Y-95998712D01*
X93753938Y-95998712D01*
X93741769Y-96001133D01*
X93675448Y-96045448D01*
X93631133Y-96111769D01*
X93619500Y-96170252D01*
X93619500Y-97909748D01*
X92082135Y-97909748D01*
X92082135Y-94991246D01*
X92102137Y-94923125D01*
X92121196Y-94900045D01*
X93195675Y-93875776D01*
X94315417Y-92808358D01*
X94618175Y-92519748D01*
X112199500Y-92519748D01*
X112200707Y-92525816D01*
X112204331Y-92544033D01*
X112211133Y-92578231D01*
X112255448Y-92644552D01*
X112321769Y-92688867D01*
X112333938Y-92691288D01*
X112333939Y-92691288D01*
X112374184Y-92699293D01*
X112380252Y-92700500D01*
X114119748Y-92700500D01*
X114125816Y-92699293D01*
X114166061Y-92691288D01*
X114166062Y-92691288D01*
X114178231Y-92688867D01*
X114244552Y-92644552D01*
X114288867Y-92578231D01*
X114295670Y-92544033D01*
X114299293Y-92525816D01*
X114300500Y-92519748D01*
X114300500Y-91635262D01*
X114734520Y-91635262D01*
X114735036Y-91641406D01*
X114749091Y-91808776D01*
X114751759Y-91840553D01*
X114753458Y-91846478D01*
X114802933Y-92019017D01*
X114808544Y-92038586D01*
X114811359Y-92044063D01*
X114811360Y-92044066D01*
X114898699Y-92214009D01*
X114902712Y-92221818D01*
X115030677Y-92383270D01*
X115035370Y-92387264D01*
X115035371Y-92387265D01*
X115182607Y-92512572D01*
X115187564Y-92516791D01*
X115367398Y-92617297D01*
X115443734Y-92642100D01*
X115557471Y-92679056D01*
X115557475Y-92679057D01*
X115563329Y-92680959D01*
X115767894Y-92705351D01*
X115774029Y-92704879D01*
X115774031Y-92704879D01*
X115846625Y-92699293D01*
X115973300Y-92689546D01*
X115979230Y-92687890D01*
X115979232Y-92687890D01*
X116165797Y-92635800D01*
X116165796Y-92635800D01*
X116171725Y-92634145D01*
X116177214Y-92631372D01*
X116177220Y-92631370D01*
X116350116Y-92544033D01*
X116355610Y-92541258D01*
X116517951Y-92414424D01*
X116536931Y-92392436D01*
X116648540Y-92263134D01*
X116648540Y-92263133D01*
X116652564Y-92258472D01*
X116673387Y-92221818D01*
X116751276Y-92084707D01*
X116754323Y-92079344D01*
X116819351Y-91883863D01*
X116834422Y-91764564D01*
X120792426Y-91764564D01*
X120809665Y-91969855D01*
X120866450Y-92167888D01*
X120869265Y-92173365D01*
X120869266Y-92173368D01*
X120957803Y-92345643D01*
X120960618Y-92351120D01*
X121088583Y-92512572D01*
X121093276Y-92516566D01*
X121093277Y-92516567D01*
X121231542Y-92634239D01*
X121245470Y-92646093D01*
X121250848Y-92649099D01*
X121250850Y-92649100D01*
X121282469Y-92666771D01*
X121425304Y-92746599D01*
X121520144Y-92777415D01*
X121615377Y-92808358D01*
X121615381Y-92808359D01*
X121621235Y-92810261D01*
X121825800Y-92834653D01*
X121831935Y-92834181D01*
X121831937Y-92834181D01*
X121887945Y-92829871D01*
X122031206Y-92818848D01*
X122037136Y-92817192D01*
X122037138Y-92817192D01*
X122223703Y-92765102D01*
X122223702Y-92765102D01*
X122229631Y-92763447D01*
X122235120Y-92760674D01*
X122235126Y-92760672D01*
X122367858Y-92693624D01*
X122413516Y-92670560D01*
X122575857Y-92543726D01*
X122591317Y-92525816D01*
X122706446Y-92392436D01*
X122706446Y-92392435D01*
X122710470Y-92387774D01*
X122731293Y-92351120D01*
X122783924Y-92258472D01*
X122812229Y-92208646D01*
X122877257Y-92013165D01*
X122903077Y-91808776D01*
X122903489Y-91779302D01*
X122883386Y-91574272D01*
X122823841Y-91377051D01*
X122727124Y-91195151D01*
X122626105Y-91071290D01*
X122600812Y-91040277D01*
X122600809Y-91040274D01*
X122596917Y-91035502D01*
X122579692Y-91021252D01*
X122442931Y-90908113D01*
X122442927Y-90908111D01*
X122438181Y-90904184D01*
X122256961Y-90806199D01*
X122060160Y-90745279D01*
X122054035Y-90744635D01*
X122054034Y-90744635D01*
X121861404Y-90724389D01*
X121861402Y-90724389D01*
X121855275Y-90723745D01*
X121768435Y-90731648D01*
X121656248Y-90741857D01*
X121656245Y-90741858D01*
X121650109Y-90742416D01*
X121452478Y-90800582D01*
X121269908Y-90896028D01*
X121265107Y-90899888D01*
X121265104Y-90899890D01*
X121114160Y-91021252D01*
X121109353Y-91025117D01*
X120976930Y-91182932D01*
X120973962Y-91188330D01*
X120973959Y-91188335D01*
X120938053Y-91253649D01*
X120877682Y-91363464D01*
X120815390Y-91559834D01*
X120814704Y-91565951D01*
X120814703Y-91565955D01*
X120805276Y-91650000D01*
X120792426Y-91764564D01*
X116834422Y-91764564D01*
X116845171Y-91679474D01*
X116845583Y-91650000D01*
X116825480Y-91444970D01*
X116765935Y-91247749D01*
X116669218Y-91065849D01*
X116595859Y-90975902D01*
X116542906Y-90910975D01*
X116542903Y-90910972D01*
X116539011Y-90906200D01*
X116531384Y-90899890D01*
X116385025Y-90778811D01*
X116385021Y-90778809D01*
X116380275Y-90774882D01*
X116199055Y-90676897D01*
X116002254Y-90615977D01*
X115996129Y-90615333D01*
X115996128Y-90615333D01*
X115803498Y-90595087D01*
X115803496Y-90595087D01*
X115797369Y-90594443D01*
X115710529Y-90602346D01*
X115598342Y-90612555D01*
X115598339Y-90612556D01*
X115592203Y-90613114D01*
X115394572Y-90671280D01*
X115212002Y-90766726D01*
X115207201Y-90770586D01*
X115207198Y-90770588D01*
X115169893Y-90800582D01*
X115051447Y-90895815D01*
X114919024Y-91053630D01*
X114916056Y-91059028D01*
X114916053Y-91059033D01*
X114843848Y-91190375D01*
X114819776Y-91234162D01*
X114757484Y-91430532D01*
X114756798Y-91436649D01*
X114756797Y-91436653D01*
X114742294Y-91565955D01*
X114734520Y-91635262D01*
X114300500Y-91635262D01*
X114300500Y-90780252D01*
X114293906Y-90747101D01*
X114291288Y-90733939D01*
X114291288Y-90733938D01*
X114288867Y-90721769D01*
X114244552Y-90655448D01*
X114178231Y-90611133D01*
X114166062Y-90608712D01*
X114166061Y-90608712D01*
X114125816Y-90600707D01*
X114119748Y-90599500D01*
X112380252Y-90599500D01*
X112374184Y-90600707D01*
X112333939Y-90608712D01*
X112333938Y-90608712D01*
X112321769Y-90611133D01*
X112255448Y-90655448D01*
X112211133Y-90721769D01*
X112208712Y-90733938D01*
X112208712Y-90733939D01*
X112206094Y-90747101D01*
X112199500Y-90780252D01*
X112199500Y-92519748D01*
X94618175Y-92519748D01*
X97419022Y-89849782D01*
X97419023Y-89849780D01*
X97432135Y-89837281D01*
X97432135Y-86684564D01*
X120792426Y-86684564D01*
X120809665Y-86889855D01*
X120866450Y-87087888D01*
X120869265Y-87093365D01*
X120869266Y-87093368D01*
X120890153Y-87134009D01*
X120960618Y-87271120D01*
X121088583Y-87432572D01*
X121245470Y-87566093D01*
X121425304Y-87666599D01*
X121520144Y-87697415D01*
X121615377Y-87728358D01*
X121615381Y-87728359D01*
X121621235Y-87730261D01*
X121825800Y-87754653D01*
X121831935Y-87754181D01*
X121831937Y-87754181D01*
X121887945Y-87749871D01*
X122031206Y-87738848D01*
X122037136Y-87737192D01*
X122037138Y-87737192D01*
X122223703Y-87685102D01*
X122223702Y-87685102D01*
X122229631Y-87683447D01*
X122235120Y-87680674D01*
X122235126Y-87680672D01*
X122408022Y-87593335D01*
X122413516Y-87590560D01*
X122575857Y-87463726D01*
X122710470Y-87307774D01*
X122731293Y-87271120D01*
X122809182Y-87134009D01*
X122812229Y-87128646D01*
X122877257Y-86933165D01*
X122903077Y-86728776D01*
X122903489Y-86699302D01*
X122883386Y-86494272D01*
X122823841Y-86297051D01*
X122727124Y-86115151D01*
X122604167Y-85964391D01*
X122600812Y-85960277D01*
X122600809Y-85960274D01*
X122596917Y-85955502D01*
X122590079Y-85949845D01*
X122442931Y-85828113D01*
X122442927Y-85828111D01*
X122438181Y-85824184D01*
X122256961Y-85726199D01*
X122060160Y-85665279D01*
X122054035Y-85664635D01*
X122054034Y-85664635D01*
X121861404Y-85644389D01*
X121861402Y-85644389D01*
X121855275Y-85643745D01*
X121768435Y-85651648D01*
X121656248Y-85661857D01*
X121656245Y-85661858D01*
X121650109Y-85662416D01*
X121452478Y-85720582D01*
X121269908Y-85816028D01*
X121265107Y-85819888D01*
X121265104Y-85819890D01*
X121254877Y-85828113D01*
X121109353Y-85945117D01*
X120976930Y-86102932D01*
X120973962Y-86108330D01*
X120973959Y-86108335D01*
X120967221Y-86120592D01*
X120877682Y-86283464D01*
X120815390Y-86479834D01*
X120814704Y-86485951D01*
X120814703Y-86485955D01*
X120793113Y-86678439D01*
X120792426Y-86684564D01*
X97432135Y-86684564D01*
X97432135Y-85800000D01*
X101594318Y-85800000D01*
X101614956Y-85956762D01*
X101675464Y-86102841D01*
X101771718Y-86228282D01*
X101897159Y-86324536D01*
X102043238Y-86385044D01*
X102200000Y-86405682D01*
X102208188Y-86404604D01*
X102348574Y-86386122D01*
X102356762Y-86385044D01*
X102502841Y-86324536D01*
X102628282Y-86228282D01*
X102724536Y-86102841D01*
X102785044Y-85956762D01*
X102805682Y-85800000D01*
X103594318Y-85800000D01*
X103614956Y-85956762D01*
X103675464Y-86102841D01*
X103771718Y-86228282D01*
X103897159Y-86324536D01*
X104043238Y-86385044D01*
X104200000Y-86405682D01*
X104208188Y-86404604D01*
X104348574Y-86386122D01*
X104356762Y-86385044D01*
X104502841Y-86324536D01*
X104628282Y-86228282D01*
X104724536Y-86102841D01*
X104785044Y-85956762D01*
X104805682Y-85800000D01*
X105594318Y-85800000D01*
X105614956Y-85956762D01*
X105675464Y-86102841D01*
X105771718Y-86228282D01*
X105897159Y-86324536D01*
X106043238Y-86385044D01*
X106200000Y-86405682D01*
X106208188Y-86404604D01*
X106348574Y-86386122D01*
X106356762Y-86385044D01*
X106502841Y-86324536D01*
X106628282Y-86228282D01*
X106724536Y-86102841D01*
X106785044Y-85956762D01*
X106805682Y-85800000D01*
X106785044Y-85643238D01*
X106724536Y-85497159D01*
X106628282Y-85371718D01*
X106502841Y-85275464D01*
X106356762Y-85214956D01*
X106200000Y-85194318D01*
X106043238Y-85214956D01*
X105897159Y-85275464D01*
X105771718Y-85371718D01*
X105675464Y-85497159D01*
X105614956Y-85643238D01*
X105594318Y-85800000D01*
X104805682Y-85800000D01*
X104785044Y-85643238D01*
X104724536Y-85497159D01*
X104628282Y-85371718D01*
X104502841Y-85275464D01*
X104356762Y-85214956D01*
X104200000Y-85194318D01*
X104043238Y-85214956D01*
X103897159Y-85275464D01*
X103771718Y-85371718D01*
X103675464Y-85497159D01*
X103614956Y-85643238D01*
X103594318Y-85800000D01*
X102805682Y-85800000D01*
X102785044Y-85643238D01*
X102724536Y-85497159D01*
X102628282Y-85371718D01*
X102502841Y-85275464D01*
X102356762Y-85214956D01*
X102200000Y-85194318D01*
X102043238Y-85214956D01*
X101897159Y-85275464D01*
X101771718Y-85371718D01*
X101675464Y-85497159D01*
X101614956Y-85643238D01*
X101594318Y-85800000D01*
X97432135Y-85800000D01*
X97432135Y-83600000D01*
X109394318Y-83600000D01*
X109414956Y-83756762D01*
X109475464Y-83902841D01*
X109571718Y-84028282D01*
X109697159Y-84124536D01*
X109843238Y-84185044D01*
X109851426Y-84186122D01*
X109898201Y-84192280D01*
X110000000Y-84205682D01*
X110008188Y-84204604D01*
X110148574Y-84186122D01*
X110156762Y-84185044D01*
X110254489Y-84144564D01*
X120792426Y-84144564D01*
X120809665Y-84349855D01*
X120866450Y-84547888D01*
X120869265Y-84553365D01*
X120869266Y-84553368D01*
X120890153Y-84594009D01*
X120960618Y-84731120D01*
X121088583Y-84892572D01*
X121245470Y-85026093D01*
X121425304Y-85126599D01*
X121520144Y-85157415D01*
X121615377Y-85188358D01*
X121615381Y-85188359D01*
X121621235Y-85190261D01*
X121825800Y-85214653D01*
X121831935Y-85214181D01*
X121831937Y-85214181D01*
X121887945Y-85209871D01*
X122031206Y-85198848D01*
X122037136Y-85197192D01*
X122037138Y-85197192D01*
X122223703Y-85145102D01*
X122223702Y-85145102D01*
X122229631Y-85143447D01*
X122235120Y-85140674D01*
X122235126Y-85140672D01*
X122408022Y-85053335D01*
X122413516Y-85050560D01*
X122575857Y-84923726D01*
X122710470Y-84767774D01*
X122731293Y-84731120D01*
X122809182Y-84594009D01*
X122812229Y-84588646D01*
X122877257Y-84393165D01*
X122903077Y-84188776D01*
X122903489Y-84159302D01*
X122883386Y-83954272D01*
X122823841Y-83757051D01*
X122727124Y-83575151D01*
X122613316Y-83435609D01*
X122600812Y-83420277D01*
X122600809Y-83420274D01*
X122596917Y-83415502D01*
X122579692Y-83401252D01*
X122442931Y-83288113D01*
X122442927Y-83288111D01*
X122438181Y-83284184D01*
X122256961Y-83186199D01*
X122060160Y-83125279D01*
X122054035Y-83124635D01*
X122054034Y-83124635D01*
X121861404Y-83104389D01*
X121861402Y-83104389D01*
X121855275Y-83103745D01*
X121768435Y-83111648D01*
X121656248Y-83121857D01*
X121656245Y-83121858D01*
X121650109Y-83122416D01*
X121452478Y-83180582D01*
X121269908Y-83276028D01*
X121265107Y-83279888D01*
X121265104Y-83279890D01*
X121243626Y-83297159D01*
X121109353Y-83405117D01*
X120976930Y-83562932D01*
X120973962Y-83568330D01*
X120973959Y-83568335D01*
X120952050Y-83608188D01*
X120877682Y-83743464D01*
X120815390Y-83939834D01*
X120814704Y-83945951D01*
X120814703Y-83945955D01*
X120795236Y-84119509D01*
X120792426Y-84144564D01*
X110254489Y-84144564D01*
X110302841Y-84124536D01*
X110428282Y-84028282D01*
X110524536Y-83902841D01*
X110585044Y-83756762D01*
X110605682Y-83600000D01*
X110585044Y-83443238D01*
X110524536Y-83297159D01*
X110435084Y-83180582D01*
X110433305Y-83178264D01*
X110428282Y-83171718D01*
X110302841Y-83075464D01*
X110156762Y-83014956D01*
X110000000Y-82994318D01*
X109843238Y-83014956D01*
X109697159Y-83075464D01*
X109571718Y-83171718D01*
X109566695Y-83178264D01*
X109564916Y-83180582D01*
X109475464Y-83297159D01*
X109414956Y-83443238D01*
X109394318Y-83600000D01*
X97432135Y-83600000D01*
X97432135Y-82400000D01*
X100694318Y-82400000D01*
X100714956Y-82556762D01*
X100775464Y-82702841D01*
X100871718Y-82828282D01*
X100997159Y-82924536D01*
X101143238Y-82985044D01*
X101300000Y-83005682D01*
X101308188Y-83004604D01*
X101448574Y-82986122D01*
X101456762Y-82985044D01*
X101602841Y-82924536D01*
X101728282Y-82828282D01*
X101824536Y-82702841D01*
X101885044Y-82556762D01*
X101905682Y-82400000D01*
X101885044Y-82243238D01*
X101824536Y-82097159D01*
X101751491Y-82001964D01*
X101749984Y-82000000D01*
X109394318Y-82000000D01*
X109414956Y-82156762D01*
X109475464Y-82302841D01*
X109480491Y-82309392D01*
X109550017Y-82400000D01*
X109571718Y-82428282D01*
X109697159Y-82524536D01*
X109843238Y-82585044D01*
X110000000Y-82605682D01*
X110008188Y-82604604D01*
X110016977Y-82603447D01*
X110156762Y-82585044D01*
X110302841Y-82524536D01*
X110428282Y-82428282D01*
X110449984Y-82400000D01*
X110519509Y-82309392D01*
X110524536Y-82302841D01*
X110585044Y-82156762D01*
X110605682Y-82000000D01*
X110585044Y-81843238D01*
X110524536Y-81697159D01*
X110453486Y-81604564D01*
X120792426Y-81604564D01*
X120792942Y-81610708D01*
X120800202Y-81697159D01*
X120809665Y-81809855D01*
X120811364Y-81815780D01*
X120829920Y-81880491D01*
X120866450Y-82007888D01*
X120869265Y-82013365D01*
X120869266Y-82013368D01*
X120890153Y-82054009D01*
X120960618Y-82191120D01*
X121088583Y-82352572D01*
X121093276Y-82356566D01*
X121093277Y-82356567D01*
X121169851Y-82421736D01*
X121245470Y-82486093D01*
X121250848Y-82489099D01*
X121250850Y-82489100D01*
X121319910Y-82527696D01*
X121425304Y-82586599D01*
X121520144Y-82617415D01*
X121615377Y-82648358D01*
X121615381Y-82648359D01*
X121621235Y-82650261D01*
X121825800Y-82674653D01*
X121831935Y-82674181D01*
X121831937Y-82674181D01*
X121887945Y-82669871D01*
X122031206Y-82658848D01*
X122037136Y-82657192D01*
X122037138Y-82657192D01*
X122223703Y-82605102D01*
X122223702Y-82605102D01*
X122229631Y-82603447D01*
X122235120Y-82600674D01*
X122235126Y-82600672D01*
X122408022Y-82513335D01*
X122413516Y-82510560D01*
X122575857Y-82383726D01*
X122645675Y-82302841D01*
X122706446Y-82232436D01*
X122706446Y-82232435D01*
X122710470Y-82227774D01*
X122731293Y-82191120D01*
X122809182Y-82054009D01*
X122812229Y-82048646D01*
X122877257Y-81853165D01*
X122903077Y-81648776D01*
X122903489Y-81619302D01*
X122883386Y-81414272D01*
X122823841Y-81217051D01*
X122727124Y-81035151D01*
X122653765Y-80945204D01*
X122600812Y-80880277D01*
X122600809Y-80880274D01*
X122596917Y-80875502D01*
X122579692Y-80861252D01*
X122442931Y-80748113D01*
X122442927Y-80748111D01*
X122438181Y-80744184D01*
X122256961Y-80646199D01*
X122060160Y-80585279D01*
X122054035Y-80584635D01*
X122054034Y-80584635D01*
X121861404Y-80564389D01*
X121861402Y-80564389D01*
X121855275Y-80563745D01*
X121768435Y-80571648D01*
X121656248Y-80581857D01*
X121656245Y-80581858D01*
X121650109Y-80582416D01*
X121452478Y-80640582D01*
X121269908Y-80736028D01*
X121265107Y-80739888D01*
X121265104Y-80739890D01*
X121254877Y-80748113D01*
X121109353Y-80865117D01*
X120976930Y-81022932D01*
X120973962Y-81028330D01*
X120973959Y-81028335D01*
X120967221Y-81040592D01*
X120877682Y-81203464D01*
X120815390Y-81399834D01*
X120814704Y-81405951D01*
X120814703Y-81405955D01*
X120807261Y-81472304D01*
X120792426Y-81604564D01*
X110453486Y-81604564D01*
X110428282Y-81571718D01*
X110302841Y-81475464D01*
X110156762Y-81414956D01*
X110000000Y-81394318D01*
X109843238Y-81414956D01*
X109697159Y-81475464D01*
X109571718Y-81571718D01*
X109475464Y-81697159D01*
X109414956Y-81843238D01*
X109394318Y-82000000D01*
X101749984Y-82000000D01*
X101733305Y-81978264D01*
X101728282Y-81971718D01*
X101602841Y-81875464D01*
X101456762Y-81814956D01*
X101300000Y-81794318D01*
X101143238Y-81814956D01*
X100997159Y-81875464D01*
X100871718Y-81971718D01*
X100866695Y-81978264D01*
X100848509Y-82001964D01*
X100775464Y-82097159D01*
X100714956Y-82243238D01*
X100694318Y-82400000D01*
X97432135Y-82400000D01*
X97432135Y-80000000D01*
X109394318Y-80000000D01*
X109414956Y-80156762D01*
X109475464Y-80302841D01*
X109571718Y-80428282D01*
X109697159Y-80524536D01*
X109843238Y-80585044D01*
X109851426Y-80586122D01*
X109921619Y-80595363D01*
X110000000Y-80605682D01*
X110008188Y-80604604D01*
X110148574Y-80586122D01*
X110156762Y-80585044D01*
X110302841Y-80524536D01*
X110428282Y-80428282D01*
X110524536Y-80302841D01*
X110585044Y-80156762D01*
X110605682Y-80000000D01*
X110585044Y-79843238D01*
X110524536Y-79697159D01*
X110428282Y-79571718D01*
X110302841Y-79475464D01*
X110156762Y-79414956D01*
X110000000Y-79394318D01*
X109843238Y-79414956D01*
X109697159Y-79475464D01*
X109571718Y-79571718D01*
X109475464Y-79697159D01*
X109414956Y-79843238D01*
X109394318Y-80000000D01*
X97432135Y-80000000D01*
X97432135Y-79773374D01*
X97451243Y-79706664D01*
X97851970Y-79064564D01*
X120792426Y-79064564D01*
X120809665Y-79269855D01*
X120866450Y-79467888D01*
X120869265Y-79473365D01*
X120869266Y-79473368D01*
X120919811Y-79571718D01*
X120960618Y-79651120D01*
X121088583Y-79812572D01*
X121093276Y-79816566D01*
X121093277Y-79816567D01*
X121124616Y-79843238D01*
X121245470Y-79946093D01*
X121425304Y-80046599D01*
X121520144Y-80077415D01*
X121615377Y-80108358D01*
X121615381Y-80108359D01*
X121621235Y-80110261D01*
X121825800Y-80134653D01*
X121831935Y-80134181D01*
X121831937Y-80134181D01*
X121887945Y-80129871D01*
X122031206Y-80118848D01*
X122037136Y-80117192D01*
X122037138Y-80117192D01*
X122223703Y-80065102D01*
X122223702Y-80065102D01*
X122229631Y-80063447D01*
X122235120Y-80060674D01*
X122235126Y-80060672D01*
X122408022Y-79973335D01*
X122413516Y-79970560D01*
X122575857Y-79843726D01*
X122582864Y-79835609D01*
X122706446Y-79692436D01*
X122706446Y-79692435D01*
X122710470Y-79687774D01*
X122731293Y-79651120D01*
X122776399Y-79571718D01*
X122812229Y-79508646D01*
X122877257Y-79313165D01*
X122903077Y-79108776D01*
X122903489Y-79079302D01*
X122883386Y-78874272D01*
X122823841Y-78677051D01*
X122727124Y-78495151D01*
X122653765Y-78405204D01*
X122600812Y-78340277D01*
X122600809Y-78340274D01*
X122596917Y-78335502D01*
X122579692Y-78321252D01*
X122442931Y-78208113D01*
X122442927Y-78208111D01*
X122438181Y-78204184D01*
X122256961Y-78106199D01*
X122060160Y-78045279D01*
X122054035Y-78044635D01*
X122054034Y-78044635D01*
X121861404Y-78024389D01*
X121861402Y-78024389D01*
X121855275Y-78023745D01*
X121768435Y-78031648D01*
X121656248Y-78041857D01*
X121656245Y-78041858D01*
X121650109Y-78042416D01*
X121452478Y-78100582D01*
X121269908Y-78196028D01*
X121265107Y-78199888D01*
X121265104Y-78199890D01*
X121254877Y-78208113D01*
X121109353Y-78325117D01*
X120976930Y-78482932D01*
X120973962Y-78488330D01*
X120973959Y-78488335D01*
X120967221Y-78500592D01*
X120877682Y-78663464D01*
X120815390Y-78859834D01*
X120814704Y-78865951D01*
X120814703Y-78865955D01*
X120793113Y-79058439D01*
X120792426Y-79064564D01*
X97851970Y-79064564D01*
X99437152Y-76524564D01*
X120792426Y-76524564D01*
X120809665Y-76729855D01*
X120866450Y-76927888D01*
X120869265Y-76933365D01*
X120869266Y-76933368D01*
X120890153Y-76974009D01*
X120960618Y-77111120D01*
X121088583Y-77272572D01*
X121245470Y-77406093D01*
X121425304Y-77506599D01*
X121520144Y-77537415D01*
X121615377Y-77568358D01*
X121615381Y-77568359D01*
X121621235Y-77570261D01*
X121825800Y-77594653D01*
X121831935Y-77594181D01*
X121831937Y-77594181D01*
X121887945Y-77589871D01*
X122031206Y-77578848D01*
X122037136Y-77577192D01*
X122037138Y-77577192D01*
X122223703Y-77525102D01*
X122223702Y-77525102D01*
X122229631Y-77523447D01*
X122235120Y-77520674D01*
X122235126Y-77520672D01*
X122408022Y-77433335D01*
X122413516Y-77430560D01*
X122575857Y-77303726D01*
X122710470Y-77147774D01*
X122731293Y-77111120D01*
X122809182Y-76974009D01*
X122812229Y-76968646D01*
X122877257Y-76773165D01*
X122903077Y-76568776D01*
X122903489Y-76539302D01*
X122883386Y-76334272D01*
X122823841Y-76137051D01*
X122727124Y-75955151D01*
X122653765Y-75865204D01*
X122600812Y-75800277D01*
X122600809Y-75800274D01*
X122596917Y-75795502D01*
X122579692Y-75781252D01*
X122442931Y-75668113D01*
X122442927Y-75668111D01*
X122438181Y-75664184D01*
X122256961Y-75566199D01*
X122060160Y-75505279D01*
X122054035Y-75504635D01*
X122054034Y-75504635D01*
X121861404Y-75484389D01*
X121861402Y-75484389D01*
X121855275Y-75483745D01*
X121768435Y-75491648D01*
X121656248Y-75501857D01*
X121656245Y-75501858D01*
X121650109Y-75502416D01*
X121452478Y-75560582D01*
X121269908Y-75656028D01*
X121265107Y-75659888D01*
X121265104Y-75659890D01*
X121254877Y-75668113D01*
X121109353Y-75785117D01*
X120976930Y-75942932D01*
X120973962Y-75948330D01*
X120973959Y-75948335D01*
X120967221Y-75960592D01*
X120877682Y-76123464D01*
X120815390Y-76319834D01*
X120814704Y-76325951D01*
X120814703Y-76325955D01*
X120793113Y-76518439D01*
X120792426Y-76524564D01*
X99437152Y-76524564D01*
X100470338Y-74869050D01*
X120797406Y-74869050D01*
X120809039Y-74927533D01*
X120853354Y-74993854D01*
X120919675Y-75038169D01*
X120931844Y-75040590D01*
X120931845Y-75040590D01*
X120972090Y-75048595D01*
X120978158Y-75049802D01*
X122717654Y-75049802D01*
X122723722Y-75048595D01*
X122763967Y-75040590D01*
X122763968Y-75040590D01*
X122776137Y-75038169D01*
X122842458Y-74993854D01*
X122886773Y-74927533D01*
X122898406Y-74869050D01*
X122898406Y-73129554D01*
X122886773Y-73071071D01*
X122842458Y-73004750D01*
X122776137Y-72960435D01*
X122763968Y-72958014D01*
X122763967Y-72958014D01*
X122723722Y-72950009D01*
X122717654Y-72948802D01*
X120978158Y-72948802D01*
X120972090Y-72950009D01*
X120931845Y-72958014D01*
X120931844Y-72958014D01*
X120919675Y-72960435D01*
X120853354Y-73004750D01*
X120809039Y-73071071D01*
X120797406Y-73129554D01*
X120797406Y-74869050D01*
X100470338Y-74869050D01*
X105945133Y-66096571D01*
X105998168Y-66049371D01*
X106052025Y-66037281D01*
X119029290Y-66037281D01*
X119097411Y-66057283D01*
G37*
%TD.AperFunction*%
%TD*%
%TA.AperFunction,Conductor*%
%TO.N,BGND*%
G36*
X145248878Y-69893916D02*
G01*
X155969988Y-70069671D01*
X156037770Y-70090787D01*
X156057016Y-70106559D01*
X156225433Y-70274976D01*
X156259459Y-70337288D01*
X156262338Y-70364071D01*
X156262338Y-93349946D01*
X156242336Y-93418067D01*
X156225412Y-93439063D01*
X155881284Y-93783028D01*
X155818964Y-93817038D01*
X155792210Y-93819911D01*
X145726000Y-93819911D01*
X145657879Y-93799909D01*
X145611386Y-93746253D01*
X145600000Y-93693911D01*
X145600000Y-85880000D01*
X153519678Y-85880000D01*
X153538915Y-86063029D01*
X153595786Y-86238059D01*
X153687805Y-86397440D01*
X153810950Y-86534207D01*
X153816292Y-86538088D01*
X153816294Y-86538090D01*
X153954497Y-86638500D01*
X153959839Y-86642381D01*
X153965867Y-86645065D01*
X153965869Y-86645066D01*
X154121935Y-86714551D01*
X154127966Y-86717236D01*
X154217973Y-86736368D01*
X154301524Y-86754128D01*
X154301529Y-86754128D01*
X154307981Y-86755500D01*
X154492019Y-86755500D01*
X154498471Y-86754128D01*
X154498476Y-86754128D01*
X154582027Y-86736368D01*
X154672034Y-86717236D01*
X154678065Y-86714551D01*
X154834131Y-86645066D01*
X154834133Y-86645065D01*
X154840161Y-86642381D01*
X154845503Y-86638500D01*
X154983706Y-86538090D01*
X154983708Y-86538088D01*
X154989050Y-86534207D01*
X155112195Y-86397440D01*
X155204214Y-86238059D01*
X155261085Y-86063029D01*
X155280322Y-85880000D01*
X155261085Y-85696971D01*
X155204214Y-85521941D01*
X155112195Y-85362560D01*
X154989050Y-85225793D01*
X154983708Y-85221912D01*
X154983706Y-85221910D01*
X154845503Y-85121500D01*
X154845502Y-85121499D01*
X154840161Y-85117619D01*
X154834133Y-85114935D01*
X154834131Y-85114934D01*
X154678065Y-85045449D01*
X154678064Y-85045449D01*
X154672034Y-85042764D01*
X154582026Y-85023632D01*
X154498476Y-85005872D01*
X154498471Y-85005872D01*
X154492019Y-85004500D01*
X154491155Y-85004500D01*
X154427467Y-84978298D01*
X154399622Y-84938398D01*
X154379786Y-84972013D01*
X154316375Y-85003944D01*
X154312509Y-85004500D01*
X154307981Y-85004500D01*
X154301529Y-85005872D01*
X154301524Y-85005872D01*
X154217974Y-85023632D01*
X154127966Y-85042764D01*
X154121936Y-85045449D01*
X154121935Y-85045449D01*
X153965869Y-85114934D01*
X153965867Y-85114935D01*
X153959839Y-85117619D01*
X153954498Y-85121499D01*
X153954497Y-85121500D01*
X153816294Y-85221910D01*
X153816292Y-85221912D01*
X153810950Y-85225793D01*
X153687805Y-85362560D01*
X153595786Y-85521941D01*
X153538915Y-85696971D01*
X153519678Y-85880000D01*
X145600000Y-85880000D01*
X145600000Y-83627587D01*
X147007905Y-83627587D01*
X147013087Y-83666948D01*
X147028543Y-83784349D01*
X147089051Y-83930428D01*
X147185305Y-84055869D01*
X147191851Y-84060892D01*
X147210258Y-84075016D01*
X147222649Y-84085884D01*
X147867703Y-84730938D01*
X147878571Y-84743329D01*
X147887289Y-84754690D01*
X147897718Y-84768282D01*
X148023159Y-84864536D01*
X148169238Y-84925044D01*
X148326000Y-84945682D01*
X148334188Y-84944604D01*
X148474574Y-84926122D01*
X148482762Y-84925044D01*
X148628841Y-84864536D01*
X148754282Y-84768282D01*
X148764712Y-84754690D01*
X148845509Y-84649392D01*
X148850536Y-84642841D01*
X148911044Y-84496762D01*
X148931682Y-84340000D01*
X148911044Y-84183238D01*
X148850536Y-84037159D01*
X148754282Y-83911718D01*
X148729328Y-83892570D01*
X148716938Y-83881703D01*
X148716745Y-83881510D01*
X148715920Y-83880000D01*
X153519678Y-83880000D01*
X153538915Y-84063029D01*
X153595786Y-84238059D01*
X153687805Y-84397440D01*
X153692223Y-84402347D01*
X153692224Y-84402348D01*
X153784104Y-84504391D01*
X153810950Y-84534207D01*
X153816292Y-84538088D01*
X153816294Y-84538090D01*
X153949970Y-84635211D01*
X153959839Y-84642381D01*
X153965867Y-84645065D01*
X153965869Y-84645066D01*
X154121935Y-84714551D01*
X154127966Y-84717236D01*
X154192428Y-84730938D01*
X154301524Y-84754128D01*
X154301529Y-84754128D01*
X154307981Y-84755500D01*
X154308845Y-84755500D01*
X154372533Y-84781702D01*
X154400378Y-84821602D01*
X154420214Y-84787987D01*
X154483625Y-84756056D01*
X154487491Y-84755500D01*
X154492019Y-84755500D01*
X154498471Y-84754128D01*
X154498476Y-84754128D01*
X154607572Y-84730938D01*
X154672034Y-84717236D01*
X154678065Y-84714551D01*
X154834131Y-84645066D01*
X154834133Y-84645065D01*
X154840161Y-84642381D01*
X154850030Y-84635211D01*
X154983706Y-84538090D01*
X154983708Y-84538088D01*
X154989050Y-84534207D01*
X155015896Y-84504391D01*
X155107776Y-84402348D01*
X155107777Y-84402347D01*
X155112195Y-84397440D01*
X155204214Y-84238059D01*
X155261085Y-84063029D01*
X155280322Y-83880000D01*
X155279632Y-83873435D01*
X155261775Y-83703535D01*
X155261775Y-83703534D01*
X155261085Y-83696971D01*
X155204214Y-83521941D01*
X155198082Y-83511319D01*
X155168101Y-83459391D01*
X155112195Y-83362560D01*
X155014260Y-83253791D01*
X154993472Y-83230704D01*
X154993471Y-83230703D01*
X154989050Y-83225793D01*
X154983708Y-83221912D01*
X154983706Y-83221910D01*
X154845503Y-83121500D01*
X154845502Y-83121499D01*
X154840161Y-83117619D01*
X154834133Y-83114935D01*
X154834131Y-83114934D01*
X154678065Y-83045449D01*
X154678064Y-83045449D01*
X154672034Y-83042764D01*
X154582027Y-83023632D01*
X154498476Y-83005872D01*
X154498471Y-83005872D01*
X154492019Y-83004500D01*
X154491155Y-83004500D01*
X154427467Y-82978298D01*
X154399622Y-82938398D01*
X154379786Y-82972013D01*
X154316375Y-83003944D01*
X154312509Y-83004500D01*
X154307981Y-83004500D01*
X154301529Y-83005872D01*
X154301524Y-83005872D01*
X154217973Y-83023632D01*
X154127966Y-83042764D01*
X154121936Y-83045449D01*
X154121935Y-83045449D01*
X153965869Y-83114934D01*
X153965867Y-83114935D01*
X153959839Y-83117619D01*
X153954498Y-83121499D01*
X153954497Y-83121500D01*
X153816294Y-83221910D01*
X153816292Y-83221912D01*
X153810950Y-83225793D01*
X153806529Y-83230703D01*
X153806528Y-83230704D01*
X153785741Y-83253791D01*
X153687805Y-83362560D01*
X153631899Y-83459391D01*
X153601919Y-83511319D01*
X153595786Y-83521941D01*
X153538915Y-83696971D01*
X153538225Y-83703534D01*
X153538225Y-83703535D01*
X153520368Y-83873435D01*
X153519678Y-83880000D01*
X148715920Y-83880000D01*
X148682719Y-83819198D01*
X148687784Y-83748383D01*
X148730331Y-83691547D01*
X148739896Y-83685050D01*
X148836578Y-83625687D01*
X148932787Y-83519396D01*
X148995297Y-83390375D01*
X149019083Y-83248996D01*
X149019234Y-83236642D01*
X149002189Y-83117619D01*
X149000183Y-83103610D01*
X149000182Y-83103607D01*
X148998910Y-83094724D01*
X148939571Y-82964214D01*
X148917326Y-82938398D01*
X148851847Y-82862405D01*
X148851844Y-82862402D01*
X148845987Y-82855605D01*
X148725682Y-82777627D01*
X148588326Y-82736549D01*
X148579350Y-82736494D01*
X148579349Y-82736494D01*
X148519142Y-82736126D01*
X148444963Y-82735673D01*
X148374712Y-82755751D01*
X148303717Y-82755239D01*
X148244270Y-82716425D01*
X148215243Y-82651633D01*
X148214087Y-82634602D01*
X148214087Y-81806578D01*
X148234089Y-81738457D01*
X148287745Y-81691964D01*
X148358019Y-81681860D01*
X148422599Y-81711354D01*
X148436537Y-81725502D01*
X148462970Y-81756948D01*
X148582313Y-81836390D01*
X148719157Y-81879142D01*
X148728129Y-81879306D01*
X148728132Y-81879307D01*
X148793463Y-81880504D01*
X148862499Y-81881770D01*
X148868991Y-81880000D01*
X153519678Y-81880000D01*
X153538915Y-82063029D01*
X153595786Y-82238059D01*
X153687805Y-82397440D01*
X153810950Y-82534207D01*
X153816292Y-82538088D01*
X153816294Y-82538090D01*
X153949132Y-82634602D01*
X153959839Y-82642381D01*
X153965867Y-82645065D01*
X153965869Y-82645066D01*
X153980619Y-82651633D01*
X154127966Y-82717236D01*
X154214704Y-82735673D01*
X154301524Y-82754128D01*
X154301529Y-82754128D01*
X154307981Y-82755500D01*
X154308845Y-82755500D01*
X154372533Y-82781702D01*
X154400378Y-82821602D01*
X154420214Y-82787987D01*
X154483625Y-82756056D01*
X154487491Y-82755500D01*
X154492019Y-82755500D01*
X154498471Y-82754128D01*
X154498476Y-82754128D01*
X154585296Y-82735673D01*
X154672034Y-82717236D01*
X154819381Y-82651633D01*
X154834131Y-82645066D01*
X154834133Y-82645065D01*
X154840161Y-82642381D01*
X154850868Y-82634602D01*
X154983706Y-82538090D01*
X154983708Y-82538088D01*
X154989050Y-82534207D01*
X155112195Y-82397440D01*
X155204214Y-82238059D01*
X155261085Y-82063029D01*
X155280322Y-81880000D01*
X155261085Y-81696971D01*
X155204214Y-81521941D01*
X155112195Y-81362560D01*
X155050122Y-81293620D01*
X154993472Y-81230704D01*
X154993471Y-81230703D01*
X154989050Y-81225793D01*
X154983708Y-81221912D01*
X154983706Y-81221910D01*
X154845503Y-81121500D01*
X154845502Y-81121499D01*
X154840161Y-81117619D01*
X154834133Y-81114935D01*
X154834131Y-81114934D01*
X154678065Y-81045449D01*
X154678064Y-81045449D01*
X154672034Y-81042764D01*
X154582027Y-81023632D01*
X154498476Y-81005872D01*
X154498471Y-81005872D01*
X154492019Y-81004500D01*
X154491155Y-81004500D01*
X154427467Y-80978298D01*
X154399622Y-80938398D01*
X154379786Y-80972013D01*
X154316375Y-81003944D01*
X154312509Y-81004500D01*
X154307981Y-81004500D01*
X154301529Y-81005872D01*
X154301524Y-81005872D01*
X154217973Y-81023632D01*
X154127966Y-81042764D01*
X154121936Y-81045449D01*
X154121935Y-81045449D01*
X153965869Y-81114934D01*
X153965867Y-81114935D01*
X153959839Y-81117619D01*
X153954498Y-81121499D01*
X153954497Y-81121500D01*
X153816294Y-81221910D01*
X153816292Y-81221912D01*
X153810950Y-81225793D01*
X153806529Y-81230703D01*
X153806528Y-81230704D01*
X153749879Y-81293620D01*
X153687805Y-81362560D01*
X153595786Y-81521941D01*
X153538915Y-81696971D01*
X153519678Y-81880000D01*
X148868991Y-81880000D01*
X148871533Y-81879307D01*
X148992158Y-81846421D01*
X148992160Y-81846420D01*
X149000817Y-81844060D01*
X149122991Y-81769045D01*
X149219200Y-81662754D01*
X149281710Y-81533733D01*
X149305496Y-81392354D01*
X149305647Y-81380000D01*
X149285323Y-81238082D01*
X149225984Y-81107572D01*
X149170142Y-81042764D01*
X149138260Y-81005763D01*
X149138257Y-81005760D01*
X149132400Y-80998963D01*
X149124867Y-80994080D01*
X149118104Y-80988181D01*
X149120310Y-80985652D01*
X149084658Y-80944184D01*
X149074827Y-80873871D01*
X149104570Y-80809405D01*
X149164444Y-80771253D01*
X149199474Y-80766286D01*
X150052381Y-80766286D01*
X150068827Y-80767364D01*
X150100000Y-80771468D01*
X150108188Y-80770390D01*
X150139361Y-80766286D01*
X150248574Y-80751908D01*
X150256762Y-80750830D01*
X150402841Y-80690322D01*
X150528282Y-80594068D01*
X150547430Y-80569114D01*
X150558297Y-80556724D01*
X151235021Y-79880000D01*
X153519678Y-79880000D01*
X153538915Y-80063029D01*
X153595786Y-80238059D01*
X153687805Y-80397440D01*
X153810950Y-80534207D01*
X153816292Y-80538088D01*
X153816294Y-80538090D01*
X153900255Y-80599091D01*
X153959839Y-80642381D01*
X153965867Y-80645065D01*
X153965869Y-80645066D01*
X154121935Y-80714551D01*
X154127966Y-80717236D01*
X154217974Y-80736368D01*
X154301524Y-80754128D01*
X154301529Y-80754128D01*
X154307981Y-80755500D01*
X154308845Y-80755500D01*
X154372533Y-80781702D01*
X154400378Y-80821602D01*
X154420214Y-80787987D01*
X154483625Y-80756056D01*
X154487491Y-80755500D01*
X154492019Y-80755500D01*
X154498471Y-80754128D01*
X154498476Y-80754128D01*
X154582026Y-80736368D01*
X154672034Y-80717236D01*
X154678065Y-80714551D01*
X154834131Y-80645066D01*
X154834133Y-80645065D01*
X154840161Y-80642381D01*
X154899745Y-80599091D01*
X154983706Y-80538090D01*
X154983708Y-80538088D01*
X154989050Y-80534207D01*
X155112195Y-80397440D01*
X155204214Y-80238059D01*
X155261085Y-80063029D01*
X155280322Y-79880000D01*
X155261085Y-79696971D01*
X155244614Y-79646277D01*
X155206256Y-79528226D01*
X155204214Y-79521941D01*
X155112195Y-79362560D01*
X155103749Y-79353179D01*
X154993472Y-79230704D01*
X154993471Y-79230703D01*
X154989050Y-79225793D01*
X154983708Y-79221912D01*
X154983706Y-79221910D01*
X154845503Y-79121500D01*
X154845502Y-79121499D01*
X154840161Y-79117619D01*
X154834133Y-79114935D01*
X154834131Y-79114934D01*
X154678065Y-79045449D01*
X154678064Y-79045449D01*
X154672034Y-79042764D01*
X154582027Y-79023632D01*
X154498476Y-79005872D01*
X154498471Y-79005872D01*
X154492019Y-79004500D01*
X154491155Y-79004500D01*
X154427467Y-78978298D01*
X154399622Y-78938398D01*
X154379786Y-78972013D01*
X154316375Y-79003944D01*
X154312509Y-79004500D01*
X154307981Y-79004500D01*
X154301529Y-79005872D01*
X154301524Y-79005872D01*
X154217973Y-79023632D01*
X154127966Y-79042764D01*
X154121936Y-79045449D01*
X154121935Y-79045449D01*
X153965869Y-79114934D01*
X153965867Y-79114935D01*
X153959839Y-79117619D01*
X153954498Y-79121499D01*
X153954497Y-79121500D01*
X153816294Y-79221910D01*
X153816292Y-79221912D01*
X153810950Y-79225793D01*
X153806529Y-79230703D01*
X153806528Y-79230704D01*
X153696252Y-79353179D01*
X153687805Y-79362560D01*
X153595786Y-79521941D01*
X153593744Y-79528226D01*
X153555387Y-79646277D01*
X153538915Y-79696971D01*
X153519678Y-79880000D01*
X151235021Y-79880000D01*
X153305812Y-77809209D01*
X153368124Y-77775183D01*
X153438939Y-77780248D01*
X153495775Y-77822795D01*
X153520217Y-77885133D01*
X153533593Y-78012391D01*
X153538915Y-78063029D01*
X153540955Y-78069306D01*
X153540955Y-78069308D01*
X153561250Y-78131770D01*
X153595786Y-78238059D01*
X153687805Y-78397440D01*
X153692223Y-78402347D01*
X153692224Y-78402348D01*
X153709005Y-78420985D01*
X153810950Y-78534207D01*
X153816292Y-78538088D01*
X153816294Y-78538090D01*
X153902565Y-78600769D01*
X153959839Y-78642381D01*
X153965867Y-78645065D01*
X153965869Y-78645066D01*
X154121935Y-78714551D01*
X154127966Y-78717236D01*
X154187606Y-78729913D01*
X154301524Y-78754128D01*
X154301529Y-78754128D01*
X154307981Y-78755500D01*
X154308845Y-78755500D01*
X154372533Y-78781702D01*
X154400378Y-78821602D01*
X154420214Y-78787987D01*
X154483625Y-78756056D01*
X154487491Y-78755500D01*
X154492019Y-78755500D01*
X154498471Y-78754128D01*
X154498476Y-78754128D01*
X154612394Y-78729913D01*
X154672034Y-78717236D01*
X154678065Y-78714551D01*
X154834131Y-78645066D01*
X154834133Y-78645065D01*
X154840161Y-78642381D01*
X154897435Y-78600769D01*
X154983706Y-78538090D01*
X154983708Y-78538088D01*
X154989050Y-78534207D01*
X155090995Y-78420985D01*
X155107776Y-78402348D01*
X155107777Y-78402347D01*
X155112195Y-78397440D01*
X155204214Y-78238059D01*
X155238750Y-78131770D01*
X155259045Y-78069308D01*
X155259045Y-78069306D01*
X155261085Y-78063029D01*
X155280322Y-77880000D01*
X155261085Y-77696971D01*
X155240904Y-77634859D01*
X155206256Y-77528226D01*
X155204214Y-77521941D01*
X155184666Y-77488082D01*
X155115496Y-77368278D01*
X155112195Y-77362560D01*
X155101579Y-77350769D01*
X154993472Y-77230704D01*
X154993471Y-77230703D01*
X154989050Y-77225793D01*
X154983708Y-77221912D01*
X154983706Y-77221910D01*
X154845503Y-77121500D01*
X154845502Y-77121499D01*
X154840161Y-77117619D01*
X154834133Y-77114935D01*
X154834131Y-77114934D01*
X154678065Y-77045449D01*
X154678064Y-77045449D01*
X154672034Y-77042764D01*
X154493181Y-77004747D01*
X154430707Y-76971018D01*
X154396386Y-76908869D01*
X154401114Y-76838030D01*
X154443390Y-76780992D01*
X154509792Y-76755865D01*
X154519378Y-76755500D01*
X155094748Y-76755500D01*
X155100816Y-76754293D01*
X155141061Y-76746288D01*
X155141062Y-76746288D01*
X155153231Y-76743867D01*
X155219552Y-76699552D01*
X155263867Y-76633231D01*
X155275500Y-76574748D01*
X155275500Y-75185252D01*
X155272662Y-75170985D01*
X155266288Y-75138939D01*
X155266288Y-75138938D01*
X155263867Y-75126769D01*
X155254871Y-75113305D01*
X155226443Y-75070761D01*
X155219552Y-75060448D01*
X155153231Y-75016133D01*
X155141062Y-75013712D01*
X155141061Y-75013712D01*
X155100816Y-75005707D01*
X155094748Y-75004500D01*
X153705252Y-75004500D01*
X153699184Y-75005707D01*
X153658939Y-75013712D01*
X153658938Y-75013712D01*
X153646769Y-75016133D01*
X153580448Y-75060448D01*
X153573557Y-75070761D01*
X153545130Y-75113305D01*
X153536133Y-75126769D01*
X153533712Y-75138938D01*
X153533712Y-75138939D01*
X153527338Y-75170985D01*
X153524500Y-75185252D01*
X153524500Y-75322609D01*
X153504498Y-75390730D01*
X153450842Y-75437223D01*
X153380568Y-75447327D01*
X153315988Y-75417833D01*
X153283800Y-75374761D01*
X153279703Y-75365749D01*
X153279699Y-75365743D01*
X153275984Y-75357572D01*
X153245858Y-75322609D01*
X153188260Y-75255763D01*
X153188257Y-75255760D01*
X153182400Y-75248963D01*
X153062095Y-75170985D01*
X152924739Y-75129907D01*
X152915763Y-75129852D01*
X152915762Y-75129852D01*
X152855555Y-75129484D01*
X152781376Y-75129031D01*
X152643529Y-75168428D01*
X152522280Y-75244930D01*
X152427377Y-75352388D01*
X152366447Y-75482163D01*
X152344391Y-75623823D01*
X152362980Y-75765979D01*
X152420720Y-75897203D01*
X152512970Y-76006948D01*
X152632313Y-76086390D01*
X152769157Y-76129142D01*
X152778129Y-76129306D01*
X152778132Y-76129307D01*
X152843463Y-76130504D01*
X152912499Y-76131770D01*
X152922139Y-76129142D01*
X152966649Y-76117007D01*
X153037632Y-76118387D01*
X153096601Y-76157924D01*
X153124833Y-76223066D01*
X153113366Y-76293130D01*
X153088886Y-76327665D01*
X149888170Y-79528381D01*
X149825858Y-79562407D01*
X149799075Y-79565286D01*
X148789040Y-79565286D01*
X148772594Y-79564208D01*
X148749609Y-79561182D01*
X148741421Y-79560104D01*
X148702060Y-79565286D01*
X148584659Y-79580742D01*
X148438580Y-79641250D01*
X148313139Y-79737504D01*
X148293989Y-79762461D01*
X148283129Y-79774843D01*
X147222649Y-80835323D01*
X147210259Y-80846190D01*
X147185305Y-80865338D01*
X147089051Y-80990779D01*
X147067518Y-81042764D01*
X147034905Y-81121500D01*
X147028543Y-81136858D01*
X147007905Y-81293620D01*
X147008983Y-81301808D01*
X147012009Y-81324793D01*
X147013087Y-81341239D01*
X147013087Y-83579968D01*
X147012009Y-83596414D01*
X147007905Y-83627587D01*
X145600000Y-83627587D01*
X145600000Y-82080000D01*
X144430334Y-80715389D01*
X144401188Y-80650651D01*
X144400000Y-80633390D01*
X144400000Y-79467793D01*
X144420002Y-79399672D01*
X144473658Y-79353179D01*
X144491283Y-79346799D01*
X144492156Y-79346421D01*
X144500817Y-79344060D01*
X144622991Y-79269045D01*
X144719200Y-79162754D01*
X144781710Y-79033733D01*
X144805496Y-78892354D01*
X144805647Y-78880000D01*
X144787897Y-78756056D01*
X144786596Y-78746968D01*
X144786595Y-78746965D01*
X144785323Y-78738082D01*
X144725984Y-78607572D01*
X144707598Y-78586234D01*
X144638260Y-78505763D01*
X144638257Y-78505760D01*
X144632400Y-78498963D01*
X144512095Y-78420985D01*
X144489896Y-78414346D01*
X144430365Y-78375667D01*
X144401195Y-78310940D01*
X144400000Y-78293630D01*
X144400000Y-78231425D01*
X144420002Y-78163304D01*
X144473658Y-78116811D01*
X144492857Y-78109862D01*
X144508608Y-78105567D01*
X144550817Y-78094060D01*
X144672991Y-78019045D01*
X144769200Y-77912754D01*
X144831710Y-77783733D01*
X144855496Y-77642354D01*
X144855647Y-77630000D01*
X144842817Y-77540413D01*
X148723244Y-77540413D01*
X148743882Y-77697175D01*
X148804390Y-77843254D01*
X148900644Y-77968695D01*
X149026085Y-78064949D01*
X149172164Y-78125457D01*
X149180352Y-78126535D01*
X149220116Y-78131770D01*
X149328926Y-78146095D01*
X149337114Y-78145017D01*
X149477500Y-78126535D01*
X149485688Y-78125457D01*
X149631767Y-78064949D01*
X149757208Y-77968695D01*
X149853462Y-77843254D01*
X149913970Y-77697175D01*
X149934608Y-77540413D01*
X149918484Y-77417936D01*
X149915048Y-77391839D01*
X149913970Y-77383651D01*
X149853462Y-77237572D01*
X149757208Y-77112131D01*
X149631767Y-77015877D01*
X149485688Y-76955369D01*
X149328926Y-76934731D01*
X149172164Y-76955369D01*
X149026085Y-77015877D01*
X148900644Y-77112131D01*
X148804390Y-77237572D01*
X148743882Y-77383651D01*
X148742804Y-77391839D01*
X148739368Y-77417936D01*
X148723244Y-77540413D01*
X144842817Y-77540413D01*
X144840172Y-77521941D01*
X144836596Y-77496968D01*
X144836595Y-77496965D01*
X144835323Y-77488082D01*
X144775984Y-77357572D01*
X144754674Y-77332841D01*
X144688260Y-77255763D01*
X144688257Y-77255760D01*
X144682400Y-77248963D01*
X144562095Y-77170985D01*
X144489899Y-77149394D01*
X144430365Y-77110713D01*
X144401195Y-77045986D01*
X144400000Y-77028677D01*
X144400000Y-76813332D01*
X146205894Y-76813332D01*
X146206972Y-76821520D01*
X146224452Y-76954291D01*
X146226532Y-76970094D01*
X146287040Y-77116173D01*
X146383294Y-77241614D01*
X146508735Y-77337868D01*
X146654814Y-77398376D01*
X146811576Y-77419014D01*
X146819764Y-77417936D01*
X146960150Y-77399454D01*
X146968338Y-77398376D01*
X147114417Y-77337868D01*
X147239858Y-77241614D01*
X147336112Y-77116173D01*
X147396620Y-76970094D01*
X147398701Y-76954291D01*
X147416180Y-76821520D01*
X147417258Y-76813332D01*
X147396620Y-76656570D01*
X147336112Y-76510491D01*
X147239858Y-76385050D01*
X147114417Y-76288796D01*
X146968338Y-76228288D01*
X146811576Y-76207650D01*
X146654814Y-76228288D01*
X146508735Y-76288796D01*
X146383294Y-76385050D01*
X146287040Y-76510491D01*
X146226532Y-76656570D01*
X146205894Y-76813332D01*
X144400000Y-76813332D01*
X144400000Y-74680000D01*
X146594318Y-74680000D01*
X146614956Y-74836762D01*
X146675464Y-74982841D01*
X146771718Y-75108282D01*
X146897159Y-75204536D01*
X147043238Y-75265044D01*
X147200000Y-75285682D01*
X147208188Y-75284604D01*
X147348574Y-75266122D01*
X147356762Y-75265044D01*
X147502841Y-75204536D01*
X147628282Y-75108282D01*
X147724536Y-74982841D01*
X147785044Y-74836762D01*
X147805682Y-74680000D01*
X147787128Y-74539069D01*
X147786122Y-74531426D01*
X147785044Y-74523238D01*
X147724536Y-74377159D01*
X147628282Y-74251718D01*
X147502841Y-74155464D01*
X147356762Y-74094956D01*
X147200000Y-74074318D01*
X147043238Y-74094956D01*
X146897159Y-74155464D01*
X146771718Y-74251718D01*
X146675464Y-74377159D01*
X146614956Y-74523238D01*
X146613878Y-74531426D01*
X146612872Y-74539069D01*
X146594318Y-74680000D01*
X144400000Y-74680000D01*
X144400000Y-74073823D01*
X153594891Y-74073823D01*
X153596055Y-74082725D01*
X153596055Y-74082728D01*
X153604186Y-74144901D01*
X153613480Y-74215979D01*
X153671220Y-74347203D01*
X153676997Y-74354076D01*
X153676998Y-74354077D01*
X153702814Y-74384789D01*
X153763470Y-74456948D01*
X153882813Y-74536390D01*
X154019657Y-74579142D01*
X154028629Y-74579306D01*
X154028632Y-74579307D01*
X154093963Y-74580504D01*
X154162999Y-74581770D01*
X154172033Y-74579307D01*
X154292658Y-74546421D01*
X154292660Y-74546420D01*
X154301317Y-74544060D01*
X154423491Y-74469045D01*
X154519700Y-74362754D01*
X154570325Y-74258264D01*
X154578295Y-74241814D01*
X154578295Y-74241813D01*
X154582210Y-74233733D01*
X154605996Y-74092354D01*
X154606147Y-74080000D01*
X154585823Y-73938082D01*
X154526484Y-73807572D01*
X154508098Y-73786234D01*
X154438760Y-73705763D01*
X154438757Y-73705760D01*
X154432900Y-73698963D01*
X154312595Y-73620985D01*
X154175239Y-73579907D01*
X154166263Y-73579852D01*
X154166262Y-73579852D01*
X154106055Y-73579484D01*
X154031876Y-73579031D01*
X153894029Y-73618428D01*
X153772780Y-73694930D01*
X153677877Y-73802388D01*
X153616947Y-73932163D01*
X153594891Y-74073823D01*
X144400000Y-74073823D01*
X144400000Y-73023823D01*
X146394391Y-73023823D01*
X146395555Y-73032725D01*
X146395555Y-73032728D01*
X146402225Y-73083733D01*
X146412980Y-73165979D01*
X146470720Y-73297203D01*
X146476497Y-73304076D01*
X146476498Y-73304077D01*
X146554121Y-73396421D01*
X146562970Y-73406948D01*
X146682313Y-73486390D01*
X146819157Y-73529142D01*
X146828129Y-73529306D01*
X146828132Y-73529307D01*
X146893463Y-73530504D01*
X146962499Y-73531770D01*
X146971533Y-73529307D01*
X147092158Y-73496421D01*
X147092160Y-73496420D01*
X147100817Y-73494060D01*
X147222991Y-73419045D01*
X147257054Y-73381413D01*
X147313178Y-73319407D01*
X147319200Y-73312754D01*
X147364426Y-73219407D01*
X147377795Y-73191814D01*
X147377795Y-73191813D01*
X147381710Y-73183733D01*
X147405496Y-73042354D01*
X147405647Y-73030000D01*
X147391326Y-72930000D01*
X147390441Y-72923823D01*
X148994391Y-72923823D01*
X148995555Y-72932725D01*
X148995555Y-72932728D01*
X148996814Y-72942354D01*
X149012980Y-73065979D01*
X149070720Y-73197203D01*
X149076497Y-73204076D01*
X149076498Y-73204077D01*
X149083792Y-73212754D01*
X149162970Y-73306948D01*
X149282313Y-73386390D01*
X149419157Y-73429142D01*
X149428129Y-73429306D01*
X149428132Y-73429307D01*
X149493463Y-73430504D01*
X149562499Y-73431770D01*
X149571533Y-73429307D01*
X149692158Y-73396421D01*
X149692160Y-73396420D01*
X149700817Y-73394060D01*
X149822991Y-73319045D01*
X149919200Y-73212754D01*
X149981710Y-73083733D01*
X150005496Y-72942354D01*
X150005647Y-72930000D01*
X149985323Y-72788082D01*
X149975168Y-72765746D01*
X149929700Y-72665746D01*
X149925984Y-72657572D01*
X149853299Y-72573217D01*
X149838260Y-72555763D01*
X149838257Y-72555760D01*
X149832400Y-72548963D01*
X149712095Y-72470985D01*
X149574739Y-72429907D01*
X149565763Y-72429852D01*
X149565762Y-72429852D01*
X149505555Y-72429484D01*
X149431376Y-72429031D01*
X149293529Y-72468428D01*
X149172280Y-72544930D01*
X149166338Y-72551658D01*
X149166337Y-72551659D01*
X149151527Y-72568428D01*
X149077377Y-72652388D01*
X149016447Y-72782163D01*
X149015066Y-72791035D01*
X148999956Y-72888082D01*
X148994391Y-72923823D01*
X147390441Y-72923823D01*
X147386596Y-72896968D01*
X147386595Y-72896965D01*
X147385323Y-72888082D01*
X147325984Y-72757572D01*
X147307598Y-72736234D01*
X147238260Y-72655763D01*
X147238257Y-72655760D01*
X147232400Y-72648963D01*
X147112095Y-72570985D01*
X146974739Y-72529907D01*
X146965763Y-72529852D01*
X146965762Y-72529852D01*
X146905555Y-72529484D01*
X146831376Y-72529031D01*
X146693529Y-72568428D01*
X146572280Y-72644930D01*
X146477377Y-72752388D01*
X146416447Y-72882163D01*
X146394391Y-73023823D01*
X144400000Y-73023823D01*
X144400000Y-70019899D01*
X144420002Y-69951778D01*
X144473658Y-69905285D01*
X144526000Y-69893899D01*
X145246813Y-69893899D01*
X145248878Y-69893916D01*
G37*
%TD.AperFunction*%
%TD*%
M02*
