  0
SECTION
  2
HEADER
  9
$ANGBASE
  50
0.0
  9
$ANGDIR
  70
1
  9
$MEASUREMENT
  70
0
  0
ENDSEC
  0
SECTION
  2
TABLES
  0
TABLE
  2
LTYPE
  70
4
  0
LTYPE
  5
40F
  2
CONTINUOUS
  70
0
  3
Solid line
  72
65
  73
0
  40
0.0
  0
LTYPE
  5
410
  2
DASHDOT
 70
0
  3
Dash Dot ____ _ ____ _
 72
65
 73
4
 40
2.0
 49
1.25
 49
-0.25
 49
0.25
 49
-0.25
  0
LTYPE
  5
411
  2
DASHED
 70
0
  3
Dashed __ __ __ __ __
 72
65
 73
2
 40
0.75
 49
0.5
 49
-0.25
  0
LTYPE
  5
43B
  2
DOTTED
 70
0
  3
Dotted .  .  .  .
 72
65
 73
2
 40
0.2
 49
0.0
 49
-0.2
  0
ENDTAB
  0
TABLE
  2
STYLE
  70
4
  0
STYLE
  2
KICAD
  70
0
  40
0
  41
1
  42
1
  50
0
  71
0
  3
isocp.shx
  0
STYLE
  2
KICADB
  70
0
  40
0
  41
1
  42
1
  50
0
  71
0
  3
isocp.shx
  0
STYLE
  2
KICADI
  70
0
  40
0
  41
1
  42
1
  50
15
  71
0
  3
isocp.shx
  0
STYLE
  2
KICADBI
  70
0
  40
0
  41
1
  42
1
  50
15
  71
0
  3
isocp.shx
  0
ENDTAB
  0
TABLE
  2
LAYER
  70
1
  0
LAYER
  2
BLACK
  70
0
  62
7
  6
CONTINUOUS
  0
ENDTAB
  0
ENDSEC
  0
SECTION
  2
ENTITIES
0
LINE
8
BLACK
6
CONTINUOUS
10
6.00887
20
-2.70086
11
6.0091
21
-2.70142
0
LINE
8
BLACK
6
CONTINUOUS
10
6.0091
20
-2.70142
11
6.0091
21
-3.3518
0
LINE
8
BLACK
6
CONTINUOUS
10
6.0091
20
-3.3518
11
6.00887
21
-3.35236
0
LINE
8
BLACK
6
CONTINUOUS
10
6.00887
20
-3.35236
11
5.98734
21
-3.37389
0
LINE
8
BLACK
6
CONTINUOUS
10
5.98734
20
-3.37389
11
5.98678
21
-3.37412
0
LINE
8
BLACK
6
CONTINUOUS
10
5.98678
20
-3.37412
11
5.31247
21
-3.37412
0
LINE
8
BLACK
6
CONTINUOUS
10
5.31247
20
-3.37412
11
5.31191
21
-3.37389
0
LINE
8
BLACK
6
CONTINUOUS
10
5.31191
20
-3.37389
11
5.29038
21
-3.35236
0
LINE
8
BLACK
6
CONTINUOUS
10
5.29038
20
-3.35236
11
5.29015
21
-3.3518
0
LINE
8
BLACK
6
CONTINUOUS
10
5.29015
20
-3.3518
11
5.29015
21
-3.13815
0
LINE
8
BLACK
6
CONTINUOUS
10
5.29015
20
-3.13815
11
5.24888
21
-3.13815
0
LINE
8
BLACK
6
CONTINUOUS
10
5.24888
20
-3.13815
11
5.24601
21
-3.1648
0
LINE
8
BLACK
6
CONTINUOUS
10
5.24601
20
-3.1648
11
5.24601
21
-3.16482
0
LINE
8
BLACK
6
CONTINUOUS
10
5.24601
20
-3.16482
11
5.24601
21
-3.16483
0
LINE
8
BLACK
6
CONTINUOUS
10
5.24601
20
-3.16483
11
5.24022
21
-3.20475
0
LINE
8
BLACK
6
CONTINUOUS
10
5.24022
20
-3.20475
11
5.24021
21
-3.20476
0
LINE
8
BLACK
6
CONTINUOUS
10
5.24021
20
-3.20476
11
5.24022
21
-3.20478
0
LINE
8
BLACK
6
CONTINUOUS
10
5.24022
20
-3.20478
11
5.23298
21
-3.24446
0
LINE
8
BLACK
6
CONTINUOUS
10
5.23298
20
-3.24446
11
5.23297
21
-3.24447
0
LINE
8
BLACK
6
CONTINUOUS
10
5.23297
20
-3.24447
11
5.23297
21
-3.24449
0
LINE
8
BLACK
6
CONTINUOUS
10
5.23297
20
-3.24449
11
5.22427
21
-3.28388
0
LINE
8
BLACK
6
CONTINUOUS
10
5.22427
20
-3.28388
11
5.22426
21
-3.28389
0
LINE
8
BLACK
6
CONTINUOUS
10
5.22426
20
-3.28389
11
5.22426
21
-3.28391
0
LINE
8
BLACK
6
CONTINUOUS
10
5.22426
20
-3.28391
11
5.21413
21
-3.32295
0
LINE
8
BLACK
6
CONTINUOUS
10
5.21413
20
-3.32295
11
5.21412
21
-3.32296
0
LINE
8
BLACK
6
CONTINUOUS
10
5.21412
20
-3.32296
11
5.21413
21
-3.32297
0
LINE
8
BLACK
6
CONTINUOUS
10
5.21413
20
-3.32297
11
5.20257
21
-3.36162
0
LINE
8
BLACK
6
CONTINUOUS
10
5.20257
20
-3.36162
11
5.20256
21
-3.36164
0
LINE
8
BLACK
6
CONTINUOUS
10
5.20256
20
-3.36164
11
5.20256
21
-3.36165
0
LINE
8
BLACK
6
CONTINUOUS
10
5.20256
20
-3.36165
11
5.18959
21
-3.39984
0
LINE
8
BLACK
6
CONTINUOUS
10
5.18959
20
-3.39984
11
5.18958
21
-3.39985
0
LINE
8
BLACK
6
CONTINUOUS
10
5.18958
20
-3.39985
11
5.18958
21
-3.39987
0
LINE
8
BLACK
6
CONTINUOUS
10
5.18958
20
-3.39987
11
5.17523
21
-3.43757
0
LINE
8
BLACK
6
CONTINUOUS
10
5.17523
20
-3.43757
11
5.17522
21
-3.43758
0
LINE
8
BLACK
6
CONTINUOUS
10
5.17522
20
-3.43758
11
5.17522
21
-3.4376
0
LINE
8
BLACK
6
CONTINUOUS
10
5.17522
20
-3.4376
11
5.15949
21
-3.47474
0
LINE
8
BLACK
6
CONTINUOUS
10
5.15949
20
-3.47474
11
5.15947
21
-3.47475
0
LINE
8
BLACK
6
CONTINUOUS
10
5.15947
20
-3.47475
11
5.15947
21
-3.47476
0
LINE
8
BLACK
6
CONTINUOUS
10
5.15947
20
-3.47476
11
5.14239
21
-3.5113
0
LINE
8
BLACK
6
CONTINUOUS
10
5.14239
20
-3.5113
11
5.14238
21
-3.51131
0
LINE
8
BLACK
6
CONTINUOUS
10
5.14238
20
-3.51131
11
5.14238
21
-3.51133
0
LINE
8
BLACK
6
CONTINUOUS
10
5.14238
20
-3.51133
11
5.12397
21
-3.54722
0
LINE
8
BLACK
6
CONTINUOUS
10
5.12397
20
-3.54722
11
5.12396
21
-3.54723
0
LINE
8
BLACK
6
CONTINUOUS
10
5.12396
20
-3.54723
11
5.12396
21
-3.54724
0
LINE
8
BLACK
6
CONTINUOUS
10
5.12396
20
-3.54724
11
5.10426
21
-3.58244
0
LINE
8
BLACK
6
CONTINUOUS
10
5.10426
20
-3.58244
11
5.10425
21
-3.58245
0
LINE
8
BLACK
6
CONTINUOUS
10
5.10425
20
-3.58245
11
5.10424
21
-3.58247
0
LINE
8
BLACK
6
CONTINUOUS
10
5.10424
20
-3.58247
11
5.08325
21
-3.61692
0
LINE
8
BLACK
6
CONTINUOUS
10
5.08325
20
-3.61692
11
5.08324
21
-3.61693
0
LINE
8
BLACK
6
CONTINUOUS
10
5.08324
20
-3.61693
11
5.08324
21
-3.61694
0
LINE
8
BLACK
6
CONTINUOUS
10
5.08324
20
-3.61694
11
5.06101
21
-3.65059
0
LINE
8
BLACK
6
CONTINUOUS
10
5.06101
20
-3.65059
11
5.061
21
-3.6506
0
LINE
8
BLACK
6
CONTINUOUS
10
5.061
20
-3.6506
11
5.06099
21
-3.65062
0
LINE
8
BLACK
6
CONTINUOUS
10
5.06099
20
-3.65062
11
5.03753
21
-3.68344
0
LINE
8
BLACK
6
CONTINUOUS
10
5.03753
20
-3.68344
11
5.03752
21
-3.68344
0
LINE
8
BLACK
6
CONTINUOUS
10
5.03752
20
-3.68344
11
5.03751
21
-3.68346
0
LINE
8
BLACK
6
CONTINUOUS
10
5.03751
20
-3.68346
11
5.01287
21
-3.7154
0
LINE
8
BLACK
6
CONTINUOUS
10
5.01287
20
-3.7154
11
5.01286
21
-3.71541
0
LINE
8
BLACK
6
CONTINUOUS
10
5.01286
20
-3.71541
11
5.01286
21
-3.71542
0
LINE
8
BLACK
6
CONTINUOUS
10
5.01286
20
-3.71542
11
4.98707
21
-3.74643
0
LINE
8
BLACK
6
CONTINUOUS
10
4.98707
20
-3.74643
11
4.98705
21
-3.74644
0
LINE
8
BLACK
6
CONTINUOUS
10
4.98705
20
-3.74644
11
4.98705
21
-3.74645
0
LINE
8
BLACK
6
CONTINUOUS
10
4.98705
20
-3.74645
11
4.96014
21
-3.7765
0
LINE
8
BLACK
6
CONTINUOUS
10
4.96014
20
-3.7765
11
4.96012
21
-3.77651
0
LINE
8
BLACK
6
CONTINUOUS
10
4.96012
20
-3.77651
11
4.96012
21
-3.77652
0
LINE
8
BLACK
6
CONTINUOUS
10
4.96012
20
-3.77652
11
4.93213
21
-3.80556
0
LINE
8
BLACK
6
CONTINUOUS
10
4.93213
20
-3.80556
11
4.93211
21
-3.80557
0
LINE
8
BLACK
6
CONTINUOUS
10
4.93211
20
-3.80557
11
4.93211
21
-3.80558
0
LINE
8
BLACK
6
CONTINUOUS
10
4.93211
20
-3.80558
11
4.90307
21
-3.83357
0
LINE
8
BLACK
6
CONTINUOUS
10
4.90307
20
-3.83357
11
4.90305
21
-3.83358
0
LINE
8
BLACK
6
CONTINUOUS
10
4.90305
20
-3.83358
11
4.90305
21
-3.83359
0
LINE
8
BLACK
6
CONTINUOUS
10
4.90305
20
-3.83359
11
4.873
21
-3.8605
0
LINE
8
BLACK
6
CONTINUOUS
10
4.873
20
-3.8605
11
4.87298
21
-3.86051
0
LINE
8
BLACK
6
CONTINUOUS
10
4.87298
20
-3.86051
11
4.87297
21
-3.86052
0
LINE
8
BLACK
6
CONTINUOUS
10
4.87297
20
-3.86052
11
4.84196
21
-3.88631
0
LINE
8
BLACK
6
CONTINUOUS
10
4.84196
20
-3.88631
11
4.84195
21
-3.88632
0
LINE
8
BLACK
6
CONTINUOUS
10
4.84195
20
-3.88632
11
4.84194
21
-3.88633
0
LINE
8
BLACK
6
CONTINUOUS
10
4.84194
20
-3.88633
11
4.81
21
-3.91097
0
LINE
8
BLACK
6
CONTINUOUS
10
4.81
20
-3.91097
11
4.80999
21
-3.91098
0
LINE
8
BLACK
6
CONTINUOUS
10
4.80999
20
-3.91098
11
4.80998
21
-3.91099
0
LINE
8
BLACK
6
CONTINUOUS
10
4.80998
20
-3.91099
11
4.77716
21
-3.93445
0
LINE
8
BLACK
6
CONTINUOUS
10
4.77716
20
-3.93445
11
4.77714
21
-3.93445
0
LINE
8
BLACK
6
CONTINUOUS
10
4.77714
20
-3.93445
11
4.77713
21
-3.93446
0
LINE
8
BLACK
6
CONTINUOUS
10
4.77713
20
-3.93446
11
4.74348
21
-3.95669
0
LINE
8
BLACK
6
CONTINUOUS
10
4.74348
20
-3.95669
11
4.74347
21
-3.9567
0
LINE
8
BLACK
6
CONTINUOUS
10
4.74347
20
-3.9567
11
4.74346
21
-3.95671
0
LINE
8
BLACK
6
CONTINUOUS
10
4.74346
20
-3.95671
11
4.70901
21
-3.9777
0
LINE
8
BLACK
6
CONTINUOUS
10
4.70901
20
-3.9777
11
4.709
21
-3.9777
0
LINE
8
BLACK
6
CONTINUOUS
10
4.709
20
-3.9777
11
4.70899
21
-3.97772
0
LINE
8
BLACK
6
CONTINUOUS
10
4.70899
20
-3.97772
11
4.67379
21
-3.99742
0
LINE
8
BLACK
6
CONTINUOUS
10
4.67379
20
-3.99742
11
4.67377
21
-3.99742
0
LINE
8
BLACK
6
CONTINUOUS
10
4.67377
20
-3.99742
11
4.67376
21
-3.99743
0
LINE
8
BLACK
6
CONTINUOUS
10
4.67376
20
-3.99743
11
4.63787
21
-4.01584
0
LINE
8
BLACK
6
CONTINUOUS
10
4.63787
20
-4.01584
11
4.63785
21
-4.01584
0
LINE
8
BLACK
6
CONTINUOUS
10
4.63785
20
-4.01584
11
4.63784
21
-4.01585
0
LINE
8
BLACK
6
CONTINUOUS
10
4.63784
20
-4.01585
11
4.6013
21
-4.03293
0
LINE
8
BLACK
6
CONTINUOUS
10
4.6013
20
-4.03293
11
4.60129
21
-4.03293
0
LINE
8
BLACK
6
CONTINUOUS
10
4.60129
20
-4.03293
11
4.60128
21
-4.03294
0
LINE
8
BLACK
6
CONTINUOUS
10
4.60128
20
-4.03294
11
4.56414
21
-4.04867
0
LINE
8
BLACK
6
CONTINUOUS
10
4.56414
20
-4.04867
11
4.56412
21
-4.04867
0
LINE
8
BLACK
6
CONTINUOUS
10
4.56412
20
-4.04867
11
4.56411
21
-4.04868
0
LINE
8
BLACK
6
CONTINUOUS
10
4.56411
20
-4.04868
11
4.52641
21
-4.06303
0
LINE
8
BLACK
6
CONTINUOUS
10
4.52641
20
-4.06303
11
4.5264
21
-4.06303
0
LINE
8
BLACK
6
CONTINUOUS
10
4.5264
20
-4.06303
11
4.52638
21
-4.06304
0
LINE
8
BLACK
6
CONTINUOUS
10
4.52638
20
-4.06304
11
4.48819
21
-4.07601
0
LINE
8
BLACK
6
CONTINUOUS
10
4.48819
20
-4.07601
11
4.48818
21
-4.07601
0
LINE
8
BLACK
6
CONTINUOUS
10
4.48818
20
-4.07601
11
4.48817
21
-4.07602
0
LINE
8
BLACK
6
CONTINUOUS
10
4.48817
20
-4.07602
11
4.44952
21
-4.08758
0
LINE
8
BLACK
6
CONTINUOUS
10
4.44952
20
-4.08758
11
4.4495
21
-4.08758
0
LINE
8
BLACK
6
CONTINUOUS
10
4.4495
20
-4.08758
11
4.44949
21
-4.08759
0
LINE
8
BLACK
6
CONTINUOUS
10
4.44949
20
-4.08759
11
4.41045
21
-4.09772
0
LINE
8
BLACK
6
CONTINUOUS
10
4.41045
20
-4.09772
11
4.41043
21
-4.09772
0
LINE
8
BLACK
6
CONTINUOUS
10
4.41043
20
-4.09772
11
4.41042
21
-4.09773
0
LINE
8
BLACK
6
CONTINUOUS
10
4.41042
20
-4.09773
11
4.37103
21
-4.10643
0
LINE
8
BLACK
6
CONTINUOUS
10
4.37103
20
-4.10643
11
4.37102
21
-4.10642
0
LINE
8
BLACK
6
CONTINUOUS
10
4.37102
20
-4.10642
11
4.371
21
-4.10643
0
LINE
8
BLACK
6
CONTINUOUS
10
4.371
20
-4.10643
11
4.33132
21
-4.11367
0
LINE
8
BLACK
6
CONTINUOUS
10
4.33132
20
-4.11367
11
4.33131
21
-4.11367
0
LINE
8
BLACK
6
CONTINUOUS
10
4.33131
20
-4.11367
11
4.33129
21
-4.11368
0
LINE
8
BLACK
6
CONTINUOUS
10
4.33129
20
-4.11368
11
4.29137
21
-4.11947
0
LINE
8
BLACK
6
CONTINUOUS
10
4.29137
20
-4.11947
11
4.29136
21
-4.11946
0
LINE
8
BLACK
6
CONTINUOUS
10
4.29136
20
-4.11946
11
4.29135
21
-4.11947
0
LINE
8
BLACK
6
CONTINUOUS
10
4.29135
20
-4.11947
11
4.25125
21
-4.12379
0
LINE
8
BLACK
6
CONTINUOUS
10
4.25125
20
-4.12379
11
4.25123
21
-4.12379
0
LINE
8
BLACK
6
CONTINUOUS
10
4.25123
20
-4.12379
11
4.25122
21
-4.12379
0
LINE
8
BLACK
6
CONTINUOUS
10
4.25122
20
-4.12379
11
4.21098
21
-4.12664
0
LINE
8
BLACK
6
CONTINUOUS
10
4.21098
20
-4.12664
11
4.21096
21
-4.12664
0
LINE
8
BLACK
6
CONTINUOUS
10
4.21096
20
-4.12664
11
4.21095
21
-4.12664
0
LINE
8
BLACK
6
CONTINUOUS
10
4.21095
20
-4.12664
11
4.17064
21
-4.12802
0
LINE
8
BLACK
6
CONTINUOUS
10
4.17064
20
-4.12802
11
4.17062
21
-4.12802
0
LINE
8
BLACK
6
CONTINUOUS
10
4.17062
20
-4.12802
11
4.17061
21
-4.12803
0
LINE
8
BLACK
6
CONTINUOUS
10
4.17061
20
-4.12803
11
4.13027
21
-4.12792
0
LINE
8
BLACK
6
CONTINUOUS
10
4.13027
20
-4.12792
11
4.13025
21
-4.12791
0
LINE
8
BLACK
6
CONTINUOUS
10
4.13025
20
-4.12791
11
4.13024
21
-4.12791
0
LINE
8
BLACK
6
CONTINUOUS
10
4.13024
20
-4.12791
11
4.08994
21
-4.12633
0
LINE
8
BLACK
6
CONTINUOUS
10
4.08994
20
-4.12633
11
4.08993
21
-4.12633
0
LINE
8
BLACK
6
CONTINUOUS
10
4.08993
20
-4.12633
11
4.08991
21
-4.12633
0
LINE
8
BLACK
6
CONTINUOUS
10
4.08991
20
-4.12633
11
4.04969
21
-4.12327
0
LINE
8
BLACK
6
CONTINUOUS
10
4.04969
20
-4.12327
11
4.04968
21
-4.12327
0
LINE
8
BLACK
6
CONTINUOUS
10
4.04968
20
-4.12327
11
4.04966
21
-4.12327
0
LINE
8
BLACK
6
CONTINUOUS
10
4.04966
20
-4.12327
11
4.00957
21
-4.11874
0
LINE
8
BLACK
6
CONTINUOUS
10
4.00957
20
-4.11874
11
4.00956
21
-4.11873
0
LINE
8
BLACK
6
CONTINUOUS
10
4.00956
20
-4.11873
11
4.00954
21
-4.11874
0
LINE
8
BLACK
6
CONTINUOUS
10
4.00954
20
-4.11874
11
3.96966
21
-4.11274
0
LINE
8
BLACK
6
CONTINUOUS
10
3.96966
20
-4.11274
11
3.96965
21
-4.11273
0
LINE
8
BLACK
6
CONTINUOUS
10
3.96965
20
-4.11273
11
3.96964
21
-4.11273
0
LINE
8
BLACK
6
CONTINUOUS
10
3.96964
20
-4.11273
11
3.92999
21
-4.10527
0
LINE
8
BLACK
6
CONTINUOUS
10
3.92999
20
-4.10527
11
3.92997
21
-4.10526
0
LINE
8
BLACK
6
CONTINUOUS
10
3.92997
20
-4.10526
11
3.92996
21
-4.10527
0
LINE
8
BLACK
6
CONTINUOUS
10
3.92996
20
-4.10527
11
3.89062
21
-4.09637
0
LINE
8
BLACK
6
CONTINUOUS
10
3.89062
20
-4.09637
11
3.8906
21
-4.09636
0
LINE
8
BLACK
6
CONTINUOUS
10
3.8906
20
-4.09636
11
3.89059
21
-4.09636
0
LINE
8
BLACK
6
CONTINUOUS
10
3.89059
20
-4.09636
11
3.8516
21
-4.08602
0
LINE
8
BLACK
6
CONTINUOUS
10
3.8516
20
-4.08602
11
3.85159
21
-4.08601
0
LINE
8
BLACK
6
CONTINUOUS
10
3.85159
20
-4.08601
11
3.85157
21
-4.08601
0
LINE
8
BLACK
6
CONTINUOUS
10
3.85157
20
-4.08601
11
3.81299
21
-4.07425
0
LINE
8
BLACK
6
CONTINUOUS
10
3.81299
20
-4.07425
11
3.81298
21
-4.07424
0
LINE
8
BLACK
6
CONTINUOUS
10
3.81298
20
-4.07424
11
3.81296
21
-4.07424
0
LINE
8
BLACK
6
CONTINUOUS
10
3.81296
20
-4.07424
11
3.77483
21
-4.06108
0
LINE
8
BLACK
6
CONTINUOUS
10
3.77483
20
-4.06108
11
3.77482
21
-4.06107
0
LINE
8
BLACK
6
CONTINUOUS
10
3.77482
20
-4.06107
11
3.77481
21
-4.06107
0
LINE
8
BLACK
6
CONTINUOUS
10
3.77481
20
-4.06107
11
3.73719
21
-4.04651
0
LINE
8
BLACK
6
CONTINUOUS
10
3.73719
20
-4.04651
11
3.73718
21
-4.0465
0
LINE
8
BLACK
6
CONTINUOUS
10
3.73718
20
-4.0465
11
3.73716
21
-4.0465
0
LINE
8
BLACK
6
CONTINUOUS
10
3.73716
20
-4.0465
11
3.7001
21
-4.03058
0
LINE
8
BLACK
6
CONTINUOUS
10
3.7001
20
-4.03058
11
3.70009
21
-4.03057
0
LINE
8
BLACK
6
CONTINUOUS
10
3.70009
20
-4.03057
11
3.70007
21
-4.03057
0
LINE
8
BLACK
6
CONTINUOUS
10
3.70007
20
-4.03057
11
3.66362
21
-4.0133
0
LINE
8
BLACK
6
CONTINUOUS
10
3.66362
20
-4.0133
11
3.66361
21
-4.01329
0
LINE
8
BLACK
6
CONTINUOUS
10
3.66361
20
-4.01329
11
3.6636
21
-4.01329
0
LINE
8
BLACK
6
CONTINUOUS
10
3.6636
20
-4.01329
11
3.6278
21
-3.9947
0
LINE
8
BLACK
6
CONTINUOUS
10
3.6278
20
-3.9947
11
3.62779
21
-3.99468
0
LINE
8
BLACK
6
CONTINUOUS
10
3.62779
20
-3.99468
11
3.62777
21
-3.99468
0
LINE
8
BLACK
6
CONTINUOUS
10
3.62777
20
-3.99468
11
3.59268
21
-3.97478
0
LINE
8
BLACK
6
CONTINUOUS
10
3.59268
20
-3.97478
11
3.59267
21
-3.97477
0
LINE
8
BLACK
6
CONTINUOUS
10
3.59267
20
-3.97477
11
3.59266
21
-3.97477
0
LINE
8
BLACK
6
CONTINUOUS
10
3.59266
20
-3.97477
11
3.55833
21
-3.95361
0
LINE
8
BLACK
6
CONTINUOUS
10
3.55833
20
-3.95361
11
3.55832
21
-3.9536
0
LINE
8
BLACK
6
CONTINUOUS
10
3.55832
20
-3.9536
11
3.5583
21
-3.95359
0
LINE
8
BLACK
6
CONTINUOUS
10
3.5583
20
-3.95359
11
3.52476
21
-3.93118
0
LINE
8
BLACK
6
CONTINUOUS
10
3.52476
20
-3.93118
11
3.52475
21
-3.93117
0
LINE
8
BLACK
6
CONTINUOUS
10
3.52475
20
-3.93117
11
3.52474
21
-3.93117
0
LINE
8
BLACK
6
CONTINUOUS
10
3.52474
20
-3.93117
11
3.49204
21
-3.90755
0
LINE
8
BLACK
6
CONTINUOUS
10
3.49204
20
-3.90755
11
3.49203
21
-3.90753
0
LINE
8
BLACK
6
CONTINUOUS
10
3.49203
20
-3.90753
11
3.49202
21
-3.90753
0
LINE
8
BLACK
6
CONTINUOUS
10
3.49202
20
-3.90753
11
3.46022
21
-3.88272
0
LINE
8
BLACK
6
CONTINUOUS
10
3.46022
20
-3.88272
11
3.46021
21
-3.88271
0
LINE
8
BLACK
6
CONTINUOUS
10
3.46021
20
-3.88271
11
3.46019
21
-3.8827
0
LINE
8
BLACK
6
CONTINUOUS
10
3.46019
20
-3.8827
11
3.42931
21
-3.85674
0
LINE
8
BLACK
6
CONTINUOUS
10
3.42931
20
-3.85674
11
3.42931
21
-3.85673
0
LINE
8
BLACK
6
CONTINUOUS
10
3.42931
20
-3.85673
11
3.42929
21
-3.85672
0
LINE
8
BLACK
6
CONTINUOUS
10
3.42929
20
-3.85672
11
3.39938
21
-3.82966
0
LINE
8
BLACK
6
CONTINUOUS
10
3.39938
20
-3.82966
11
3.39938
21
-3.82965
0
LINE
8
BLACK
6
CONTINUOUS
10
3.39938
20
-3.82965
11
3.39936
21
-3.82964
0
LINE
8
BLACK
6
CONTINUOUS
10
3.39936
20
-3.82964
11
3.37047
21
-3.80149
0
LINE
8
BLACK
6
CONTINUOUS
10
3.37047
20
-3.80149
11
3.37047
21
-3.80148
0
LINE
8
BLACK
6
CONTINUOUS
10
3.37047
20
-3.80148
11
3.37045
21
-3.80147
0
LINE
8
BLACK
6
CONTINUOUS
10
3.37045
20
-3.80147
11
3.34261
21
-3.77228
0
LINE
8
BLACK
6
CONTINUOUS
10
3.34261
20
-3.77228
11
3.34261
21
-3.77227
0
LINE
8
BLACK
6
CONTINUOUS
10
3.34261
20
-3.77227
11
3.34259
21
-3.77226
0
LINE
8
BLACK
6
CONTINUOUS
10
3.34259
20
-3.77226
11
3.31583
21
-3.74208
0
LINE
8
BLACK
6
CONTINUOUS
10
3.31583
20
-3.74208
11
3.31583
21
-3.74207
0
LINE
8
BLACK
6
CONTINUOUS
10
3.31583
20
-3.74207
11
3.31581
21
-3.74206
0
LINE
8
BLACK
6
CONTINUOUS
10
3.31581
20
-3.74206
11
3.29018
21
-3.71091
0
LINE
8
BLACK
6
CONTINUOUS
10
3.29018
20
-3.71091
11
3.29018
21
-3.71089
0
LINE
8
BLACK
6
CONTINUOUS
10
3.29018
20
-3.71089
11
3.29016
21
-3.71089
0
LINE
8
BLACK
6
CONTINUOUS
10
3.29016
20
-3.71089
11
3.26569
21
-3.67882
0
LINE
8
BLACK
6
CONTINUOUS
10
3.26569
20
-3.67882
11
3.26569
21
-3.6788
0
LINE
8
BLACK
6
CONTINUOUS
10
3.26569
20
-3.6788
11
3.26568
21
-3.67879
0
LINE
8
BLACK
6
CONTINUOUS
10
3.26568
20
-3.67879
11
3.2424
21
-3.64585
0
LINE
8
BLACK
6
CONTINUOUS
10
3.2424
20
-3.64585
11
3.24239
21
-3.64584
0
LINE
8
BLACK
6
CONTINUOUS
10
3.24239
20
-3.64584
11
3.24238
21
-3.64583
0
LINE
8
BLACK
6
CONTINUOUS
10
3.24238
20
-3.64583
11
3.22033
21
-3.61206
0
LINE
8
BLACK
6
CONTINUOUS
10
3.22033
20
-3.61206
11
3.22033
21
-3.61204
0
LINE
8
BLACK
6
CONTINUOUS
10
3.22033
20
-3.61204
11
3.22032
21
-3.61203
0
LINE
8
BLACK
6
CONTINUOUS
10
3.22032
20
-3.61203
11
3.19951
21
-3.57748
0
LINE
8
BLACK
6
CONTINUOUS
10
3.19951
20
-3.57748
11
3.1995
21
-3.57747
0
LINE
8
BLACK
6
CONTINUOUS
10
3.1995
20
-3.57747
11
3.19949
21
-3.57746
0
LINE
8
BLACK
6
CONTINUOUS
10
3.19949
20
-3.57746
11
3.17997
21
-3.54216
0
LINE
8
BLACK
6
CONTINUOUS
10
3.17997
20
-3.54216
11
3.17997
21
-3.54214
0
LINE
8
BLACK
6
CONTINUOUS
10
3.17997
20
-3.54214
11
3.17996
21
-3.54213
0
LINE
8
BLACK
6
CONTINUOUS
10
3.17996
20
-3.54213
11
3.16174
21
-3.50614
0
LINE
8
BLACK
6
CONTINUOUS
10
3.16174
20
-3.50614
11
3.16174
21
-3.50613
0
LINE
8
BLACK
6
CONTINUOUS
10
3.16174
20
-3.50613
11
3.16173
21
-3.50612
0
LINE
8
BLACK
6
CONTINUOUS
10
3.16173
20
-3.50612
11
3.14484
21
-3.46949
0
LINE
8
BLACK
6
CONTINUOUS
10
3.14484
20
-3.46949
11
3.14484
21
-3.46947
0
LINE
8
BLACK
6
CONTINUOUS
10
3.14484
20
-3.46947
11
3.14482
21
-3.46946
0
LINE
8
BLACK
6
CONTINUOUS
10
3.14482
20
-3.46946
11
3.12929
21
-3.43223
0
LINE
8
BLACK
6
CONTINUOUS
10
3.12929
20
-3.43223
11
3.12929
21
-3.43222
0
LINE
8
BLACK
6
CONTINUOUS
10
3.12929
20
-3.43222
11
3.12928
21
-3.4322
0
LINE
8
BLACK
6
CONTINUOUS
10
3.12928
20
-3.4322
11
3.11512
21
-3.39443
0
LINE
8
BLACK
6
CONTINUOUS
10
3.11512
20
-3.39443
11
3.11512
21
-3.39442
0
LINE
8
BLACK
6
CONTINUOUS
10
3.11512
20
-3.39442
11
3.11511
21
-3.39441
0
LINE
8
BLACK
6
CONTINUOUS
10
3.11511
20
-3.39441
11
3.10234
21
-3.35615
0
LINE
8
BLACK
6
CONTINUOUS
10
3.10234
20
-3.35615
11
3.10235
21
-3.35613
0
LINE
8
BLACK
6
CONTINUOUS
10
3.10235
20
-3.35613
11
3.10234
21
-3.35612
0
LINE
8
BLACK
6
CONTINUOUS
10
3.10234
20
-3.35612
11
3.09099
21
-3.31742
0
LINE
8
BLACK
6
CONTINUOUS
10
3.09099
20
-3.31742
11
3.09099
21
-3.3174
0
LINE
8
BLACK
6
CONTINUOUS
10
3.09099
20
-3.3174
11
3.09098
21
-3.31739
0
LINE
8
BLACK
6
CONTINUOUS
10
3.09098
20
-3.31739
11
3.08105
21
-3.27829
0
LINE
8
BLACK
6
CONTINUOUS
10
3.08105
20
-3.27829
11
3.08105
21
-3.27828
0
LINE
8
BLACK
6
CONTINUOUS
10
3.08105
20
-3.27828
11
3.08104
21
-3.27826
0
LINE
8
BLACK
6
CONTINUOUS
10
3.08104
20
-3.27826
11
3.07255
21
-3.23883
0
LINE
8
BLACK
6
CONTINUOUS
10
3.07255
20
-3.23883
11
3.07255
21
-3.23882
0
LINE
8
BLACK
6
CONTINUOUS
10
3.07255
20
-3.23882
11
3.07255
21
-3.23881
0
LINE
8
BLACK
6
CONTINUOUS
10
3.07255
20
-3.23881
11
3.06551
21
-3.19909
0
LINE
8
BLACK
6
CONTINUOUS
10
3.06551
20
-3.19909
11
3.06551
21
-3.19907
0
LINE
8
BLACK
6
CONTINUOUS
10
3.06551
20
-3.19907
11
3.0655
21
-3.19906
0
LINE
8
BLACK
6
CONTINUOUS
10
3.0655
20
-3.19906
11
3.05992
21
-3.15911
0
LINE
8
BLACK
6
CONTINUOUS
10
3.05992
20
-3.15911
11
3.05992
21
-3.15909
0
LINE
8
BLACK
6
CONTINUOUS
10
3.05992
20
-3.15909
11
3.05992
21
-3.15908
0
LINE
8
BLACK
6
CONTINUOUS
10
3.05992
20
-3.15908
11
3.05581
21
-3.11896
0
LINE
8
BLACK
6
CONTINUOUS
10
3.05581
20
-3.11896
11
3.05581
21
-3.11894
0
LINE
8
BLACK
6
CONTINUOUS
10
3.05581
20
-3.11894
11
3.05581
21
-3.11893
0
LINE
8
BLACK
6
CONTINUOUS
10
3.05581
20
-3.11893
11
3.05317
21
-3.07867
0
LINE
8
BLACK
6
CONTINUOUS
10
3.05317
20
-3.07867
11
3.05317
21
-3.07865
0
LINE
8
BLACK
6
CONTINUOUS
10
3.05317
20
-3.07865
11
3.05316
21
-3.07864
0
LINE
8
BLACK
6
CONTINUOUS
10
3.05316
20
-3.07864
11
3.052
21
-3.03833
0
LINE
8
BLACK
6
CONTINUOUS
10
3.052
20
-3.03833
11
3.05201
21
-3.03832
0
LINE
8
BLACK
6
CONTINUOUS
10
3.05201
20
-3.03832
11
3.052
21
-3.0383
0
LINE
8
BLACK
6
CONTINUOUS
10
3.052
20
-3.0383
11
3.05232
21
-2.99796
0
LINE
8
BLACK
6
CONTINUOUS
10
3.05232
20
-2.99796
11
3.05233
21
-2.99795
0
LINE
8
BLACK
6
CONTINUOUS
10
3.05233
20
-2.99795
11
3.05232
21
-2.99793
0
LINE
8
BLACK
6
CONTINUOUS
10
3.05232
20
-2.99793
11
3.05411
21
-2.95763
0
LINE
8
BLACK
6
CONTINUOUS
10
3.05411
20
-2.95763
11
3.05412
21
-2.95762
0
LINE
8
BLACK
6
CONTINUOUS
10
3.05412
20
-2.95762
11
3.05412
21
-2.9576
0
LINE
8
BLACK
6
CONTINUOUS
10
3.05412
20
-2.9576
11
3.05739
21
-2.9174
0
LINE
8
BLACK
6
CONTINUOUS
10
3.05739
20
-2.9174
11
3.05739
21
-2.91739
0
LINE
8
BLACK
6
CONTINUOUS
10
3.05739
20
-2.91739
11
3.05739
21
-2.91738
0
LINE
8
BLACK
6
CONTINUOUS
10
3.05739
20
-2.91738
11
3.06213
21
-2.87732
0
LINE
8
BLACK
6
CONTINUOUS
10
3.06213
20
-2.87732
11
3.06214
21
-2.8773
0
LINE
8
BLACK
6
CONTINUOUS
10
3.06214
20
-2.8773
11
3.06213
21
-2.87729
0
LINE
8
BLACK
6
CONTINUOUS
10
3.06213
20
-2.87729
11
3.06834
21
-2.83744
0
LINE
8
BLACK
6
CONTINUOUS
10
3.06834
20
-2.83744
11
3.06835
21
-2.83742
0
LINE
8
BLACK
6
CONTINUOUS
10
3.06835
20
-2.83742
11
3.06835
21
-2.83741
0
LINE
8
BLACK
6
CONTINUOUS
10
3.06835
20
-2.83741
11
3.07601
21
-2.7978
0
LINE
8
BLACK
6
CONTINUOUS
10
3.07601
20
-2.7978
11
3.07602
21
-2.79779
0
LINE
8
BLACK
6
CONTINUOUS
10
3.07602
20
-2.79779
11
3.07601
21
-2.79777
0
LINE
8
BLACK
6
CONTINUOUS
10
3.07601
20
-2.79777
11
3.08512
21
-2.75848
0
LINE
8
BLACK
6
CONTINUOUS
10
3.08512
20
-2.75848
11
3.08513
21
-2.75847
0
LINE
8
BLACK
6
CONTINUOUS
10
3.08513
20
-2.75847
11
3.08513
21
-2.75845
0
LINE
8
BLACK
6
CONTINUOUS
10
3.08513
20
-2.75845
11
3.09567
21
-2.71951
0
LINE
8
BLACK
6
CONTINUOUS
10
3.09567
20
-2.71951
11
3.09568
21
-2.7195
0
LINE
8
BLACK
6
CONTINUOUS
10
3.09568
20
-2.7195
11
3.09568
21
-2.71948
0
LINE
8
BLACK
6
CONTINUOUS
10
3.09568
20
-2.71948
11
3.10764
21
-2.68096
0
LINE
8
BLACK
6
CONTINUOUS
10
3.10764
20
-2.68096
11
3.10765
21
-2.68095
0
LINE
8
BLACK
6
CONTINUOUS
10
3.10765
20
-2.68095
11
3.10765
21
-2.68094
0
LINE
8
BLACK
6
CONTINUOUS
10
3.10765
20
-2.68094
11
3.12102
21
-2.64288
0
LINE
8
BLACK
6
CONTINUOUS
10
3.12102
20
-2.64288
11
3.12103
21
-2.64287
0
LINE
8
BLACK
6
CONTINUOUS
10
3.12103
20
-2.64287
11
3.12103
21
-2.64285
0
LINE
8
BLACK
6
CONTINUOUS
10
3.12103
20
-2.64285
11
3.13578
21
-2.60531
0
LINE
8
BLACK
6
CONTINUOUS
10
3.13578
20
-2.60531
11
3.13579
21
-2.6053
0
LINE
8
BLACK
6
CONTINUOUS
10
3.13579
20
-2.6053
11
3.13579
21
-2.60528
0
LINE
8
BLACK
6
CONTINUOUS
10
3.13579
20
-2.60528
11
3.1519
21
-2.56831
0
LINE
8
BLACK
6
CONTINUOUS
10
3.1519
20
-2.56831
11
3.15191
21
-2.5683
0
LINE
8
BLACK
6
CONTINUOUS
10
3.15191
20
-2.5683
11
3.15191
21
-2.56829
0
LINE
8
BLACK
6
CONTINUOUS
10
3.15191
20
-2.56829
11
3.16937
21
-2.53192
0
LINE
8
BLACK
6
CONTINUOUS
10
3.16937
20
-2.53192
11
3.16938
21
-2.53191
0
LINE
8
BLACK
6
CONTINUOUS
10
3.16938
20
-2.53191
11
3.16938
21
-2.53189
0
LINE
8
BLACK
6
CONTINUOUS
10
3.16938
20
-2.53189
11
3.18816
21
-2.4962
0
LINE
8
BLACK
6
CONTINUOUS
10
3.18816
20
-2.4962
11
3.18818
21
-2.49619
0
LINE
8
BLACK
6
CONTINUOUS
10
3.18818
20
-2.49619
11
3.18818
21
-2.49618
0
LINE
8
BLACK
6
CONTINUOUS
10
3.18818
20
-2.49618
11
3.20826
21
-2.46119
0
LINE
8
BLACK
6
CONTINUOUS
10
3.20826
20
-2.46119
11
3.20827
21
-2.46118
0
LINE
8
BLACK
6
CONTINUOUS
10
3.20827
20
-2.46118
11
3.20827
21
-2.46116
0
LINE
8
BLACK
6
CONTINUOUS
10
3.20827
20
-2.46116
11
3.22962
21
-2.42694
0
LINE
8
BLACK
6
CONTINUOUS
10
3.22962
20
-2.42694
11
3.22964
21
-2.42693
0
LINE
8
BLACK
6
CONTINUOUS
10
3.22964
20
-2.42693
11
3.22964
21
-2.42692
0
LINE
8
BLACK
6
CONTINUOUS
10
3.22964
20
-2.42692
11
3.25222
21
-2.39349
0
LINE
8
BLACK
6
CONTINUOUS
10
3.25222
20
-2.39349
11
3.25223
21
-2.39348
0
LINE
8
BLACK
6
CONTINUOUS
10
3.25223
20
-2.39348
11
3.25224
21
-2.39346
0
LINE
8
BLACK
6
CONTINUOUS
10
3.25224
20
-2.39346
11
3.27604
21
-2.36089
0
LINE
8
BLACK
6
CONTINUOUS
10
3.27604
20
-2.36089
11
3.27605
21
-2.36089
0
LINE
8
BLACK
6
CONTINUOUS
10
3.27605
20
-2.36089
11
3.27605
21
-2.36087
0
LINE
8
BLACK
6
CONTINUOUS
10
3.27605
20
-2.36087
11
3.30102
21
-2.3292
0
LINE
8
BLACK
6
CONTINUOUS
10
3.30102
20
-2.3292
11
3.30104
21
-2.32919
0
LINE
8
BLACK
6
CONTINUOUS
10
3.30104
20
-2.32919
11
3.30104
21
-2.32918
0
LINE
8
BLACK
6
CONTINUOUS
10
3.30104
20
-2.32918
11
3.32715
21
-2.29844
0
LINE
8
BLACK
6
CONTINUOUS
10
3.32715
20
-2.29844
11
3.32716
21
-2.29843
0
LINE
8
BLACK
6
CONTINUOUS
10
3.32716
20
-2.29843
11
3.32717
21
-2.29842
0
LINE
8
BLACK
6
CONTINUOUS
10
3.32717
20
-2.29842
11
3.3544
21
-2.26865
0
LINE
8
BLACK
6
CONTINUOUS
10
3.3544
20
-2.26865
11
3.35441
21
-2.26864
0
LINE
8
BLACK
6
CONTINUOUS
10
3.35441
20
-2.26864
11
3.35442
21
-2.26863
0
LINE
8
BLACK
6
CONTINUOUS
10
3.35442
20
-2.26863
11
3.38272
21
-2.23989
0
LINE
8
BLACK
6
CONTINUOUS
10
3.38272
20
-2.23989
11
3.38273
21
-2.23988
0
LINE
8
BLACK
6
CONTINUOUS
10
3.38273
20
-2.23988
11
3.38274
21
-2.23987
0
LINE
8
BLACK
6
CONTINUOUS
10
3.38274
20
-2.23987
11
3.41207
21
-2.21218
0
LINE
8
BLACK
6
CONTINUOUS
10
3.41207
20
-2.21218
11
3.41208
21
-2.21217
0
LINE
8
BLACK
6
CONTINUOUS
10
3.41208
20
-2.21217
11
3.41209
21
-2.21216
0
LINE
8
BLACK
6
CONTINUOUS
10
3.41209
20
-2.21216
11
3.44242
21
-2.18556
0
LINE
8
BLACK
6
CONTINUOUS
10
3.44242
20
-2.18556
11
3.44244
21
-2.18555
0
LINE
8
BLACK
6
CONTINUOUS
10
3.44244
20
-2.18555
11
3.44244
21
-2.18554
0
LINE
8
BLACK
6
CONTINUOUS
10
3.44244
20
-2.18554
11
3.47372
21
-2.16008
0
LINE
8
BLACK
6
CONTINUOUS
10
3.47372
20
-2.16008
11
3.47374
21
-2.16007
0
LINE
8
BLACK
6
CONTINUOUS
10
3.47374
20
-2.16007
11
3.47375
21
-2.16006
0
LINE
8
BLACK
6
CONTINUOUS
10
3.47375
20
-2.16006
11
3.50594
21
-2.13575
0
LINE
8
BLACK
6
CONTINUOUS
10
3.50594
20
-2.13575
11
3.50595
21
-2.13575
0
LINE
8
BLACK
6
CONTINUOUS
10
3.50595
20
-2.13575
11
3.50596
21
-2.13573
0
LINE
8
BLACK
6
CONTINUOUS
10
3.50596
20
-2.13573
11
3.53902
21
-2.11263
0
LINE
8
BLACK
6
CONTINUOUS
10
3.53902
20
-2.11263
11
3.53904
21
-2.11263
0
LINE
8
BLACK
6
CONTINUOUS
10
3.53904
20
-2.11263
11
3.53904
21
-2.11262
0
LINE
8
BLACK
6
CONTINUOUS
10
3.53904
20
-2.11262
11
3.57293
21
-2.09074
0
LINE
8
BLACK
6
CONTINUOUS
10
3.57293
20
-2.09074
11
3.57295
21
-2.09073
0
LINE
8
BLACK
6
CONTINUOUS
10
3.57295
20
-2.09073
11
3.57296
21
-2.09072
0
LINE
8
BLACK
6
CONTINUOUS
10
3.57296
20
-2.09072
11
3.60762
21
-2.07009
0
LINE
8
BLACK
6
CONTINUOUS
10
3.60762
20
-2.07009
11
3.60763
21
-2.07009
0
LINE
8
BLACK
6
CONTINUOUS
10
3.60763
20
-2.07009
11
3.60764
21
-2.07008
0
LINE
8
BLACK
6
CONTINUOUS
10
3.60764
20
-2.07008
11
3.64304
21
-2.05074
0
LINE
8
BLACK
6
CONTINUOUS
10
3.64304
20
-2.05074
11
3.64306
21
-2.05074
0
LINE
8
BLACK
6
CONTINUOUS
10
3.64306
20
-2.05074
11
3.64307
21
-2.05072
0
LINE
8
BLACK
6
CONTINUOUS
10
3.64307
20
-2.05072
11
3.67915
21
-2.03269
0
LINE
8
BLACK
6
CONTINUOUS
10
3.67915
20
-2.03269
11
3.67916
21
-2.03269
0
LINE
8
BLACK
6
CONTINUOUS
10
3.67916
20
-2.03269
11
3.67918
21
-2.03268
0
LINE
8
BLACK
6
CONTINUOUS
10
3.67918
20
-2.03268
11
3.7159
21
-2.01599
0
LINE
8
BLACK
6
CONTINUOUS
10
3.7159
20
-2.01599
11
3.71591
21
-2.01599
0
LINE
8
BLACK
6
CONTINUOUS
10
3.71591
20
-2.01599
11
3.71592
21
-2.01598
0
LINE
8
BLACK
6
CONTINUOUS
10
3.71592
20
-2.01598
11
3.75323
21
-2.00064
0
LINE
8
BLACK
6
CONTINUOUS
10
3.75323
20
-2.00064
11
3.75325
21
-2.00064
0
LINE
8
BLACK
6
CONTINUOUS
10
3.75325
20
-2.00064
11
3.75326
21
-2.00063
0
LINE
8
BLACK
6
CONTINUOUS
10
3.75326
20
-2.00063
11
3.7911
21
-1.98667
0
LINE
8
BLACK
6
CONTINUOUS
10
3.7911
20
-1.98667
11
3.79111
21
-1.98667
0
LINE
8
BLACK
6
CONTINUOUS
10
3.79111
20
-1.98667
11
3.79113
21
-1.98666
0
LINE
8
BLACK
6
CONTINUOUS
10
3.79113
20
-1.98666
11
3.82946
21
-1.97409
0
LINE
8
BLACK
6
CONTINUOUS
10
3.82946
20
-1.97409
11
3.82947
21
-1.97409
0
LINE
8
BLACK
6
CONTINUOUS
10
3.82947
20
-1.97409
11
3.82948
21
-1.97408
0
LINE
8
BLACK
6
CONTINUOUS
10
3.82948
20
-1.97408
11
3.86825
21
-1.96293
0
LINE
8
BLACK
6
CONTINUOUS
10
3.86825
20
-1.96293
11
3.86827
21
-1.96293
0
LINE
8
BLACK
6
CONTINUOUS
10
3.86827
20
-1.96293
11
3.86828
21
-1.96292
0
LINE
8
BLACK
6
CONTINUOUS
10
3.86828
20
-1.96292
11
3.90742
21
-1.9532
0
LINE
8
BLACK
6
CONTINUOUS
10
3.90742
20
-1.9532
11
3.90744
21
-1.95321
0
LINE
8
BLACK
6
CONTINUOUS
10
3.90744
20
-1.95321
11
3.90745
21
-1.9532
0
LINE
8
BLACK
6
CONTINUOUS
10
3.90745
20
-1.9532
11
3.94693
21
-1.94491
0
LINE
8
BLACK
6
CONTINUOUS
10
3.94693
20
-1.94491
11
3.94694
21
-1.94491
0
LINE
8
BLACK
6
CONTINUOUS
10
3.94694
20
-1.94491
11
3.94696
21
-1.9449
0
LINE
8
BLACK
6
CONTINUOUS
10
3.94696
20
-1.9449
11
3.98671
21
-1.93807
0
LINE
8
BLACK
6
CONTINUOUS
10
3.98671
20
-1.93807
11
3.98672
21
-1.93808
0
LINE
8
BLACK
6
CONTINUOUS
10
3.98672
20
-1.93808
11
3.98674
21
-1.93807
0
LINE
8
BLACK
6
CONTINUOUS
10
3.98674
20
-1.93807
11
4.02672
21
-1.9327
0
LINE
8
BLACK
6
CONTINUOUS
10
4.02672
20
-1.9327
11
4.02673
21
-1.9327
0
LINE
8
BLACK
6
CONTINUOUS
10
4.02673
20
-1.9327
11
4.02674
21
-1.93269
0
LINE
8
BLACK
6
CONTINUOUS
10
4.02674
20
-1.93269
11
4.06689
21
-1.92879
0
LINE
8
BLACK
6
CONTINUOUS
10
4.06689
20
-1.92879
11
4.06691
21
-1.9288
0
LINE
8
BLACK
6
CONTINUOUS
10
4.06691
20
-1.9288
11
4.06692
21
-1.92879
0
LINE
8
BLACK
6
CONTINUOUS
10
4.06692
20
-1.92879
11
4.10718
21
-1.92636
0
LINE
8
BLACK
6
CONTINUOUS
10
4.10718
20
-1.92636
11
4.1072
21
-1.92637
0
LINE
8
BLACK
6
CONTINUOUS
10
4.1072
20
-1.92637
11
4.10721
21
-1.92636
0
LINE
8
BLACK
6
CONTINUOUS
10
4.10721
20
-1.92636
11
4.14754
21
-1.92541
0
LINE
8
BLACK
6
CONTINUOUS
10
4.14754
20
-1.92541
11
4.14756
21
-1.92542
0
LINE
8
BLACK
6
CONTINUOUS
10
4.14756
20
-1.92542
11
4.14757
21
-1.92541
0
LINE
8
BLACK
6
CONTINUOUS
10
4.14757
20
-1.92541
11
4.1879
21
-1.92594
0
LINE
8
BLACK
6
CONTINUOUS
10
4.1879
20
-1.92594
11
4.18792
21
-1.92595
0
LINE
8
BLACK
6
CONTINUOUS
10
4.18792
20
-1.92595
11
4.18793
21
-1.92594
0
LINE
8
BLACK
6
CONTINUOUS
10
4.18793
20
-1.92594
11
4.22822
21
-1.92795
0
LINE
8
BLACK
6
CONTINUOUS
10
4.22822
20
-1.92795
11
4.22823
21
-1.92796
0
LINE
8
BLACK
6
CONTINUOUS
10
4.22823
20
-1.92796
11
4.22825
21
-1.92795
0
LINE
8
BLACK
6
CONTINUOUS
10
4.22825
20
-1.92795
11
4.26843
21
-1.93143
0
LINE
8
BLACK
6
CONTINUOUS
10
4.26843
20
-1.93143
11
4.26844
21
-1.93144
0
LINE
8
BLACK
6
CONTINUOUS
10
4.26844
20
-1.93144
11
4.26846
21
-1.93144
0
LINE
8
BLACK
6
CONTINUOUS
10
4.26846
20
-1.93144
11
4.30849
21
-1.93639
0
LINE
8
BLACK
6
CONTINUOUS
10
4.30849
20
-1.93639
11
4.3085
21
-1.93639
0
LINE
8
BLACK
6
CONTINUOUS
10
4.3085
20
-1.93639
11
4.30852
21
-1.93639
0
LINE
8
BLACK
6
CONTINUOUS
10
4.30852
20
-1.93639
11
4.34835
21
-1.9428
0
LINE
8
BLACK
6
CONTINUOUS
10
4.34835
20
-1.9428
11
4.34836
21
-1.94281
0
LINE
8
BLACK
6
CONTINUOUS
10
4.34836
20
-1.94281
11
4.34837
21
-1.94281
0
LINE
8
BLACK
6
CONTINUOUS
10
4.34837
20
-1.94281
11
4.38793
21
-1.95068
0
LINE
8
BLACK
6
CONTINUOUS
10
4.38793
20
-1.95068
11
4.38795
21
-1.95068
0
LINE
8
BLACK
6
CONTINUOUS
10
4.38795
20
-1.95068
11
4.38796
21
-1.95068
0
LINE
8
BLACK
6
CONTINUOUS
10
4.38796
20
-1.95068
11
4.42721
21
-1.96
0
LINE
8
BLACK
6
CONTINUOUS
10
4.42721
20
-1.96
11
4.42723
21
-1.96001
0
LINE
8
BLACK
6
CONTINUOUS
10
4.42723
20
-1.96001
11
4.42724
21
-1.96001
0
LINE
8
BLACK
6
CONTINUOUS
10
4.42724
20
-1.96001
11
4.46611
21
-1.97075
0
LINE
8
BLACK
6
CONTINUOUS
10
4.46611
20
-1.97075
11
4.46612
21
-1.97076
0
LINE
8
BLACK
6
CONTINUOUS
10
4.46612
20
-1.97076
11
4.46614
21
-1.97076
0
LINE
8
BLACK
6
CONTINUOUS
10
4.46614
20
-1.97076
11
4.5046
21
-1.98292
0
LINE
8
BLACK
6
CONTINUOUS
10
4.5046
20
-1.98292
11
4.50461
21
-1.98293
0
LINE
8
BLACK
6
CONTINUOUS
10
4.50461
20
-1.98293
11
4.50463
21
-1.98293
0
LINE
8
BLACK
6
CONTINUOUS
10
4.50463
20
-1.98293
11
4.54262
21
-1.9965
0
LINE
8
BLACK
6
CONTINUOUS
10
4.54262
20
-1.9965
11
4.54263
21
-1.99651
0
LINE
8
BLACK
6
CONTINUOUS
10
4.54263
20
-1.99651
11
4.54264
21
-1.99651
0
LINE
8
BLACK
6
CONTINUOUS
10
4.54264
20
-1.99651
11
4.58011
21
-2.01146
0
LINE
8
BLACK
6
CONTINUOUS
10
4.58011
20
-2.01146
11
4.58012
21
-2.01147
0
LINE
8
BLACK
6
CONTINUOUS
10
4.58012
20
-2.01147
11
4.58014
21
-2.01147
0
LINE
8
BLACK
6
CONTINUOUS
10
4.58014
20
-2.01147
11
4.61703
21
-2.02778
0
LINE
8
BLACK
6
CONTINUOUS
10
4.61703
20
-2.02778
11
4.61704
21
-2.02779
0
LINE
8
BLACK
6
CONTINUOUS
10
4.61704
20
-2.02779
11
4.61706
21
-2.02779
0
LINE
8
BLACK
6
CONTINUOUS
10
4.61706
20
-2.02779
11
4.65333
21
-2.04544
0
LINE
8
BLACK
6
CONTINUOUS
10
4.65333
20
-2.04544
11
4.65334
21
-2.04545
0
LINE
8
BLACK
6
CONTINUOUS
10
4.65334
20
-2.04545
11
4.65335
21
-2.04545
0
LINE
8
BLACK
6
CONTINUOUS
10
4.65335
20
-2.04545
11
4.68895
21
-2.06441
0
LINE
8
BLACK
6
CONTINUOUS
10
4.68895
20
-2.06441
11
4.68896
21
-2.06443
0
LINE
8
BLACK
6
CONTINUOUS
10
4.68896
20
-2.06443
11
4.68898
21
-2.06443
0
LINE
8
BLACK
6
CONTINUOUS
10
4.68898
20
-2.06443
11
4.72386
21
-2.08469
0
LINE
8
BLACK
6
CONTINUOUS
10
4.72386
20
-2.08469
11
4.72387
21
-2.0847
0
LINE
8
BLACK
6
CONTINUOUS
10
4.72387
20
-2.0847
11
4.72388
21
-2.0847
0
LINE
8
BLACK
6
CONTINUOUS
10
4.72388
20
-2.0847
11
4.75799
21
-2.10623
0
LINE
8
BLACK
6
CONTINUOUS
10
4.75799
20
-2.10623
11
4.758
21
-2.10624
0
LINE
8
BLACK
6
CONTINUOUS
10
4.758
20
-2.10624
11
4.75802
21
-2.10625
0
LINE
8
BLACK
6
CONTINUOUS
10
4.75802
20
-2.10625
11
4.79132
21
-2.12901
0
LINE
8
BLACK
6
CONTINUOUS
10
4.79132
20
-2.12901
11
4.79132
21
-2.12902
0
LINE
8
BLACK
6
CONTINUOUS
10
4.79132
20
-2.12902
11
4.79134
21
-2.12902
0
LINE
8
BLACK
6
CONTINUOUS
10
4.79134
20
-2.12902
11
4.82379
21
-2.15298
0
LINE
8
BLACK
6
CONTINUOUS
10
4.82379
20
-2.15298
11
4.8238
21
-2.153
0
LINE
8
BLACK
6
CONTINUOUS
10
4.8238
20
-2.153
11
4.82381
21
-2.153
0
LINE
8
BLACK
6
CONTINUOUS
10
4.82381
20
-2.153
11
4.85535
21
-2.17814
0
LINE
8
BLACK
6
CONTINUOUS
10
4.85535
20
-2.17814
11
4.85536
21
-2.17816
0
LINE
8
BLACK
6
CONTINUOUS
10
4.85536
20
-2.17816
11
4.85537
21
-2.17816
0
LINE
8
BLACK
6
CONTINUOUS
10
4.85537
20
-2.17816
11
4.88598
21
-2.20444
0
LINE
8
BLACK
6
CONTINUOUS
10
4.88598
20
-2.20444
11
4.88599
21
-2.20445
0
LINE
8
BLACK
6
CONTINUOUS
10
4.88599
20
-2.20445
11
4.88601
21
-2.20446
0
LINE
8
BLACK
6
CONTINUOUS
10
4.88601
20
-2.20446
11
4.91563
21
-2.23184
0
LINE
8
BLACK
6
CONTINUOUS
10
4.91563
20
-2.23184
11
4.91563
21
-2.23185
0
LINE
8
BLACK
6
CONTINUOUS
10
4.91563
20
-2.23185
11
4.91565
21
-2.23186
0
LINE
8
BLACK
6
CONTINUOUS
10
4.91565
20
-2.23186
11
4.94424
21
-2.2603
0
LINE
8
BLACK
6
CONTINUOUS
10
4.94424
20
-2.2603
11
4.94424
21
-2.26031
0
LINE
8
BLACK
6
CONTINUOUS
10
4.94424
20
-2.26031
11
4.94426
21
-2.26032
0
LINE
8
BLACK
6
CONTINUOUS
10
4.94426
20
-2.26032
11
4.9718
21
-2.2898
0
LINE
8
BLACK
6
CONTINUOUS
10
4.9718
20
-2.2898
11
4.9718
21
-2.28982
0
LINE
8
BLACK
6
CONTINUOUS
10
4.9718
20
-2.28982
11
4.97182
21
-2.28982
0
LINE
8
BLACK
6
CONTINUOUS
10
4.97182
20
-2.28982
11
4.99825
21
-2.32029
0
LINE
8
BLACK
6
CONTINUOUS
10
4.99825
20
-2.32029
11
4.99825
21
-2.32031
0
LINE
8
BLACK
6
CONTINUOUS
10
4.99825
20
-2.32031
11
4.99826
21
-2.32031
0
LINE
8
BLACK
6
CONTINUOUS
10
4.99826
20
-2.32031
11
5.02357
21
-2.35172
0
LINE
8
BLACK
6
CONTINUOUS
10
5.02357
20
-2.35172
11
5.02358
21
-2.35174
0
LINE
8
BLACK
6
CONTINUOUS
10
5.02358
20
-2.35174
11
5.02359
21
-2.35175
0
LINE
8
BLACK
6
CONTINUOUS
10
5.02359
20
-2.35175
11
5.04772
21
-2.38407
0
LINE
8
BLACK
6
CONTINUOUS
10
5.04772
20
-2.38407
11
5.04773
21
-2.38408
0
LINE
8
BLACK
6
CONTINUOUS
10
5.04773
20
-2.38408
11
5.04774
21
-2.38409
0
LINE
8
BLACK
6
CONTINUOUS
10
5.04774
20
-2.38409
11
5.07068
21
-2.41727
0
LINE
8
BLACK
6
CONTINUOUS
10
5.07068
20
-2.41727
11
5.07068
21
-2.41729
0
LINE
8
BLACK
6
CONTINUOUS
10
5.07068
20
-2.41729
11
5.07069
21
-2.41729
0
LINE
8
BLACK
6
CONTINUOUS
10
5.07069
20
-2.41729
11
5.09239
21
-2.45129
0
LINE
8
BLACK
6
CONTINUOUS
10
5.09239
20
-2.45129
11
5.0924
21
-2.45131
0
LINE
8
BLACK
6
CONTINUOUS
10
5.0924
20
-2.45131
11
5.09241
21
-2.45132
0
LINE
8
BLACK
6
CONTINUOUS
10
5.09241
20
-2.45132
11
5.11285
21
-2.4861
0
LINE
8
BLACK
6
CONTINUOUS
10
5.11285
20
-2.4861
11
5.11285
21
-2.48611
0
LINE
8
BLACK
6
CONTINUOUS
10
5.11285
20
-2.48611
11
5.11286
21
-2.48612
0
LINE
8
BLACK
6
CONTINUOUS
10
5.11286
20
-2.48612
11
5.13201
21
-2.52161
0
LINE
8
BLACK
6
CONTINUOUS
10
5.13201
20
-2.52161
11
5.13202
21
-2.52163
0
LINE
8
BLACK
6
CONTINUOUS
10
5.13202
20
-2.52163
11
5.13203
21
-2.52164
0
LINE
8
BLACK
6
CONTINUOUS
10
5.13203
20
-2.52164
11
5.14987
21
-2.55782
0
LINE
8
BLACK
6
CONTINUOUS
10
5.14987
20
-2.55782
11
5.14987
21
-2.55784
0
LINE
8
BLACK
6
CONTINUOUS
10
5.14987
20
-2.55784
11
5.14988
21
-2.55785
0
LINE
8
BLACK
6
CONTINUOUS
10
5.14988
20
-2.55785
11
5.16639
21
-2.59466
0
LINE
8
BLACK
6
CONTINUOUS
10
5.16639
20
-2.59466
11
5.16639
21
-2.59467
0
LINE
8
BLACK
6
CONTINUOUS
10
5.16639
20
-2.59467
11
5.1664
21
-2.59468
0
LINE
8
BLACK
6
CONTINUOUS
10
5.1664
20
-2.59468
11
5.18154
21
-2.63206
0
LINE
8
BLACK
6
CONTINUOUS
10
5.18154
20
-2.63206
11
5.18154
21
-2.63208
0
LINE
8
BLACK
6
CONTINUOUS
10
5.18154
20
-2.63208
11
5.18155
21
-2.63209
0
LINE
8
BLACK
6
CONTINUOUS
10
5.18155
20
-2.63209
11
5.19531
21
-2.67001
0
LINE
8
BLACK
6
CONTINUOUS
10
5.19531
20
-2.67001
11
5.19531
21
-2.67002
0
LINE
8
BLACK
6
CONTINUOUS
10
5.19531
20
-2.67002
11
5.19532
21
-2.67004
0
LINE
8
BLACK
6
CONTINUOUS
10
5.19532
20
-2.67004
11
5.20769
21
-2.70843
0
LINE
8
BLACK
6
CONTINUOUS
10
5.20769
20
-2.70843
11
5.20769
21
-2.70844
0
LINE
8
BLACK
6
CONTINUOUS
10
5.20769
20
-2.70844
11
5.2077
21
-2.70845
0
LINE
8
BLACK
6
CONTINUOUS
10
5.2077
20
-2.70845
11
5.21865
21
-2.74728
0
LINE
8
BLACK
6
CONTINUOUS
10
5.21865
20
-2.74728
11
5.21865
21
-2.7473
0
LINE
8
BLACK
6
CONTINUOUS
10
5.21865
20
-2.7473
11
5.21866
21
-2.74731
0
LINE
8
BLACK
6
CONTINUOUS
10
5.21866
20
-2.74731
11
5.22818
21
-2.7865
0
LINE
8
BLACK
6
CONTINUOUS
10
5.22818
20
-2.7865
11
5.22817
21
-2.78652
0
LINE
8
BLACK
6
CONTINUOUS
10
5.22817
20
-2.78652
11
5.22818
21
-2.78653
0
LINE
8
BLACK
6
CONTINUOUS
10
5.22818
20
-2.78653
11
5.23625
21
-2.82605
0
LINE
8
BLACK
6
CONTINUOUS
10
5.23625
20
-2.82605
11
5.23625
21
-2.82607
0
LINE
8
BLACK
6
CONTINUOUS
10
5.23625
20
-2.82607
11
5.23626
21
-2.82608
0
LINE
8
BLACK
6
CONTINUOUS
10
5.23626
20
-2.82608
11
5.24288
21
-2.86587
0
LINE
8
BLACK
6
CONTINUOUS
10
5.24288
20
-2.86587
11
5.24287
21
-2.86588
0
LINE
8
BLACK
6
CONTINUOUS
10
5.24287
20
-2.86588
11
5.24288
21
-2.8659
0
LINE
8
BLACK
6
CONTINUOUS
10
5.24288
20
-2.8659
11
5.24804
21
-2.90591
0
LINE
8
BLACK
6
CONTINUOUS
10
5.24804
20
-2.90591
11
5.24804
21
-2.90592
0
LINE
8
BLACK
6
CONTINUOUS
10
5.24804
20
-2.90592
11
5.24805
21
-2.90594
0
LINE
8
BLACK
6
CONTINUOUS
10
5.24805
20
-2.90594
11
5.25056
21
-2.93322
0
LINE
8
BLACK
6
CONTINUOUS
10
5.25056
20
-2.93322
11
5.29015
21
-2.93322
0
LINE
8
BLACK
6
CONTINUOUS
10
5.29015
20
-2.93322
11
5.29015
21
-2.70142
0
LINE
8
BLACK
6
CONTINUOUS
10
5.29015
20
-2.70142
11
5.29038
21
-2.70086
0
LINE
8
BLACK
6
CONTINUOUS
10
5.29038
20
-2.70086
11
5.31191
21
-2.67933
0
LINE
8
BLACK
6
CONTINUOUS
10
5.31191
20
-2.67933
11
5.31247
21
-2.6791
0
LINE
8
BLACK
6
CONTINUOUS
10
5.31247
20
-2.6791
11
5.98678
21
-2.6791
0
LINE
8
BLACK
6
CONTINUOUS
10
5.98678
20
-2.6791
11
5.98734
21
-2.67933
0
LINE
8
BLACK
6
CONTINUOUS
10
5.98734
20
-2.67933
11
6.00887
21
-2.70086
0
LINE
8
BLACK
6
CONTINUOUS
10
5.29172
20
-3.13736
11
5.29172
21
-3.35148
0
LINE
8
BLACK
6
CONTINUOUS
10
5.29172
20
-3.35148
11
5.3128
21
-3.37255
0
LINE
8
BLACK
6
CONTINUOUS
10
5.3128
20
-3.37255
11
5.98645
21
-3.37255
0
LINE
8
BLACK
6
CONTINUOUS
10
5.98645
20
-3.37255
11
6.00753
21
-3.35148
0
LINE
8
BLACK
6
CONTINUOUS
10
6.00753
20
-3.35148
11
6.00753
21
-2.70175
0
LINE
8
BLACK
6
CONTINUOUS
10
6.00753
20
-2.70175
11
5.98645
21
-2.68067
0
LINE
8
BLACK
6
CONTINUOUS
10
5.98645
20
-2.68067
11
5.3128
21
-2.68067
0
LINE
8
BLACK
6
CONTINUOUS
10
5.3128
20
-2.68067
11
5.29172
21
-2.70175
0
LINE
8
BLACK
6
CONTINUOUS
10
5.29172
20
-2.70175
11
5.29172
21
-2.93401
0
LINE
8
BLACK
6
CONTINUOUS
10
5.29172
20
-2.93401
11
5.29149
21
-2.93456
0
LINE
8
BLACK
6
CONTINUOUS
10
5.29149
20
-2.93456
11
5.29094
21
-2.9348
0
LINE
8
BLACK
6
CONTINUOUS
10
5.29094
20
-2.9348
11
5.24984
21
-2.9348
0
LINE
8
BLACK
6
CONTINUOUS
10
5.24984
20
-2.9348
11
5.24959
21
-2.93469
0
LINE
8
BLACK
6
CONTINUOUS
10
5.24959
20
-2.93469
11
5.24934
21
-2.93461
0
LINE
8
BLACK
6
CONTINUOUS
10
5.24934
20
-2.93461
11
5.24932
21
-2.93458
0
LINE
8
BLACK
6
CONTINUOUS
10
5.24932
20
-2.93458
11
5.24928
21
-2.93456
0
LINE
8
BLACK
6
CONTINUOUS
10
5.24928
20
-2.93456
11
5.24918
21
-2.93432
0
LINE
8
BLACK
6
CONTINUOUS
10
5.24918
20
-2.93432
11
5.24906
21
-2.93408
0
LINE
8
BLACK
6
CONTINUOUS
10
5.24906
20
-2.93408
11
5.24648
21
-2.90609
0
LINE
8
BLACK
6
CONTINUOUS
10
5.24648
20
-2.90609
11
5.24132
21
-2.86611
0
LINE
8
BLACK
6
CONTINUOUS
10
5.24132
20
-2.86611
11
5.23471
21
-2.82635
0
LINE
8
BLACK
6
CONTINUOUS
10
5.23471
20
-2.82635
11
5.22664
21
-2.78686
0
LINE
8
BLACK
6
CONTINUOUS
10
5.22664
20
-2.78686
11
5.21713
21
-2.7477
0
LINE
8
BLACK
6
CONTINUOUS
10
5.21713
20
-2.7477
11
5.20619
21
-2.7089
0
LINE
8
BLACK
6
CONTINUOUS
10
5.20619
20
-2.7089
11
5.19383
21
-2.67053
0
LINE
8
BLACK
6
CONTINUOUS
10
5.19383
20
-2.67053
11
5.18008
21
-2.63264
0
LINE
8
BLACK
6
CONTINUOUS
10
5.18008
20
-2.63264
11
5.16495
21
-2.59529
0
LINE
8
BLACK
6
CONTINUOUS
10
5.16495
20
-2.59529
11
5.14845
21
-2.5585
0
LINE
8
BLACK
6
CONTINUOUS
10
5.14845
20
-2.5585
11
5.13062
21
-2.52235
0
LINE
8
BLACK
6
CONTINUOUS
10
5.13062
20
-2.52235
11
5.11149
21
-2.48689
0
LINE
8
BLACK
6
CONTINUOUS
10
5.11149
20
-2.48689
11
5.09106
21
-2.45213
0
LINE
8
BLACK
6
CONTINUOUS
10
5.09106
20
-2.45213
11
5.06937
21
-2.41815
0
LINE
8
BLACK
6
CONTINUOUS
10
5.06937
20
-2.41815
11
5.04645
21
-2.385
0
LINE
8
BLACK
6
CONTINUOUS
10
5.04645
20
-2.385
11
5.02234
21
-2.3527
0
LINE
8
BLACK
6
CONTINUOUS
10
5.02234
20
-2.3527
11
4.99705
21
-2.32131
0
LINE
8
BLACK
6
CONTINUOUS
10
4.99705
20
-2.32131
11
4.97064
21
-2.29087
0
LINE
8
BLACK
6
CONTINUOUS
10
4.97064
20
-2.29087
11
4.94312
21
-2.26141
0
LINE
8
BLACK
6
CONTINUOUS
10
4.94312
20
-2.26141
11
4.91455
21
-2.23299
0
LINE
8
BLACK
6
CONTINUOUS
10
4.91455
20
-2.23299
11
4.88495
21
-2.20563
0
LINE
8
BLACK
6
CONTINUOUS
10
4.88495
20
-2.20563
11
4.85436
21
-2.17936
0
LINE
8
BLACK
6
CONTINUOUS
10
4.85436
20
-2.17936
11
4.82284
21
-2.15424
0
LINE
8
BLACK
6
CONTINUOUS
10
4.82284
20
-2.15424
11
4.79041
21
-2.1303
0
LINE
8
BLACK
6
CONTINUOUS
10
4.79041
20
-2.1303
11
4.75714
21
-2.10756
0
LINE
8
BLACK
6
CONTINUOUS
10
4.75714
20
-2.10756
11
4.72305
21
-2.08604
0
LINE
8
BLACK
6
CONTINUOUS
10
4.72305
20
-2.08604
11
4.6882
21
-2.0658
0
LINE
8
BLACK
6
CONTINUOUS
10
4.6882
20
-2.0658
11
4.65262
21
-2.04685
0
LINE
8
BLACK
6
CONTINUOUS
10
4.65262
20
-2.04685
11
4.61638
21
-2.02921
0
LINE
8
BLACK
6
CONTINUOUS
10
4.61638
20
-2.02921
11
4.57952
21
-2.01291
0
LINE
8
BLACK
6
CONTINUOUS
10
4.57952
20
-2.01291
11
4.54207
21
-1.99797
0
LINE
8
BLACK
6
CONTINUOUS
10
4.54207
20
-1.99797
11
4.50411
21
-1.98441
0
LINE
8
BLACK
6
CONTINUOUS
10
4.50411
20
-1.98441
11
4.46568
21
-1.97226
0
LINE
8
BLACK
6
CONTINUOUS
10
4.46568
20
-1.97226
11
4.42683
21
-1.96153
0
LINE
8
BLACK
6
CONTINUOUS
10
4.42683
20
-1.96153
11
4.38761
21
-1.95222
0
LINE
8
BLACK
6
CONTINUOUS
10
4.38761
20
-1.95222
11
4.34808
21
-1.94435
0
LINE
8
BLACK
6
CONTINUOUS
10
4.34808
20
-1.94435
11
4.30828
21
-1.93795
0
LINE
8
BLACK
6
CONTINUOUS
10
4.30828
20
-1.93795
11
4.26828
21
-1.933
0
LINE
8
BLACK
6
CONTINUOUS
10
4.26828
20
-1.933
11
4.22813
21
-1.92952
0
LINE
8
BLACK
6
CONTINUOUS
10
4.22813
20
-1.92952
11
4.18787
21
-1.92752
0
LINE
8
BLACK
6
CONTINUOUS
10
4.18787
20
-1.92752
11
4.14756
21
-1.92699
0
LINE
8
BLACK
6
CONTINUOUS
10
4.14756
20
-1.92699
11
4.10726
21
-1.92793
0
LINE
8
BLACK
6
CONTINUOUS
10
4.10726
20
-1.92793
11
4.06703
21
-1.93036
0
LINE
8
BLACK
6
CONTINUOUS
10
4.06703
20
-1.93036
11
4.02691
21
-1.93426
0
LINE
8
BLACK
6
CONTINUOUS
10
4.02691
20
-1.93426
11
3.98696
21
-1.93963
0
LINE
8
BLACK
6
CONTINUOUS
10
3.98696
20
-1.93963
11
3.94724
21
-1.94645
0
LINE
8
BLACK
6
CONTINUOUS
10
3.94724
20
-1.94645
11
3.90779
21
-1.95474
0
LINE
8
BLACK
6
CONTINUOUS
10
3.90779
20
-1.95474
11
3.86868
21
-1.96445
0
LINE
8
BLACK
6
CONTINUOUS
10
3.86868
20
-1.96445
11
3.82993
21
-1.97559
0
LINE
8
BLACK
6
CONTINUOUS
10
3.82993
20
-1.97559
11
3.79163
21
-1.98815
0
LINE
8
BLACK
6
CONTINUOUS
10
3.79163
20
-1.98815
11
3.75382
21
-2.0021
0
LINE
8
BLACK
6
CONTINUOUS
10
3.75382
20
-2.0021
11
3.71653
21
-2.01743
0
LINE
8
BLACK
6
CONTINUOUS
10
3.71653
20
-2.01743
11
3.67984
21
-2.03411
0
LINE
8
BLACK
6
CONTINUOUS
10
3.67984
20
-2.03411
11
3.64379
21
-2.05213
0
LINE
8
BLACK
6
CONTINUOUS
10
3.64379
20
-2.05213
11
3.60841
21
-2.07145
0
LINE
8
BLACK
6
CONTINUOUS
10
3.60841
20
-2.07145
11
3.57378
21
-2.09207
0
LINE
8
BLACK
6
CONTINUOUS
10
3.57378
20
-2.09207
11
3.53991
21
-2.11393
0
LINE
8
BLACK
6
CONTINUOUS
10
3.53991
20
-2.11393
11
3.50687
21
-2.13701
0
LINE
8
BLACK
6
CONTINUOUS
10
3.50687
20
-2.13701
11
3.47471
21
-2.16131
0
LINE
8
BLACK
6
CONTINUOUS
10
3.47471
20
-2.16131
11
3.44345
21
-2.18675
0
LINE
8
BLACK
6
CONTINUOUS
10
3.44345
20
-2.18675
11
3.41314
21
-2.21333
0
LINE
8
BLACK
6
CONTINUOUS
10
3.41314
20
-2.21333
11
3.38383
21
-2.241
0
LINE
8
BLACK
6
CONTINUOUS
10
3.38383
20
-2.241
11
3.35555
21
-2.26972
0
LINE
8
BLACK
6
CONTINUOUS
10
3.35555
20
-2.26972
11
3.32834
21
-2.29947
0
LINE
8
BLACK
6
CONTINUOUS
10
3.32834
20
-2.29947
11
3.30225
21
-2.33019
0
LINE
8
BLACK
6
CONTINUOUS
10
3.30225
20
-2.33019
11
3.2773
21
-2.36183
0
LINE
8
BLACK
6
CONTINUOUS
10
3.2773
20
-2.36183
11
3.25352
21
-2.39438
0
LINE
8
BLACK
6
CONTINUOUS
10
3.25352
20
-2.39438
11
3.23095
21
-2.42779
0
LINE
8
BLACK
6
CONTINUOUS
10
3.23095
20
-2.42779
11
3.20962
21
-2.46198
0
LINE
8
BLACK
6
CONTINUOUS
10
3.20962
20
-2.46198
11
3.18955
21
-2.49695
0
LINE
8
BLACK
6
CONTINUOUS
10
3.18955
20
-2.49695
11
3.17078
21
-2.53261
0
LINE
8
BLACK
6
CONTINUOUS
10
3.17078
20
-2.53261
11
3.15334
21
-2.56896
0
LINE
8
BLACK
6
CONTINUOUS
10
3.15334
20
-2.56896
11
3.13724
21
-2.6059
0
LINE
8
BLACK
6
CONTINUOUS
10
3.13724
20
-2.6059
11
3.1225
21
-2.64341
0
LINE
8
BLACK
6
CONTINUOUS
10
3.1225
20
-2.64341
11
3.10914
21
-2.68145
0
LINE
8
BLACK
6
CONTINUOUS
10
3.10914
20
-2.68145
11
3.09719
21
-2.71994
0
LINE
8
BLACK
6
CONTINUOUS
10
3.09719
20
-2.71994
11
3.08665
21
-2.75885
0
LINE
8
BLACK
6
CONTINUOUS
10
3.08665
20
-2.75885
11
3.07755
21
-2.79811
0
LINE
8
BLACK
6
CONTINUOUS
10
3.07755
20
-2.79811
11
3.0699
21
-2.83769
0
LINE
8
BLACK
6
CONTINUOUS
10
3.0699
20
-2.83769
11
3.06369
21
-2.87751
0
LINE
8
BLACK
6
CONTINUOUS
10
3.06369
20
-2.87751
11
3.05895
21
-2.91755
0
LINE
8
BLACK
6
CONTINUOUS
10
3.05895
20
-2.91755
11
3.05569
21
-2.95772
0
LINE
8
BLACK
6
CONTINUOUS
10
3.05569
20
-2.95772
11
3.0539
21
-2.99799
0
LINE
8
BLACK
6
CONTINUOUS
10
3.0539
20
-2.99799
11
3.05358
21
-3.0383
0
LINE
8
BLACK
6
CONTINUOUS
10
3.05358
20
-3.0383
11
3.05474
21
-3.07858
0
LINE
8
BLACK
6
CONTINUOUS
10
3.05474
20
-3.07858
11
3.05738
21
-3.11881
0
LINE
8
BLACK
6
CONTINUOUS
10
3.05738
20
-3.11881
11
3.06148
21
-3.1589
0
LINE
8
BLACK
6
CONTINUOUS
10
3.06148
20
-3.1589
11
3.06706
21
-3.19883
0
LINE
8
BLACK
6
CONTINUOUS
10
3.06706
20
-3.19883
11
3.07409
21
-3.23852
0
LINE
8
BLACK
6
CONTINUOUS
10
3.07409
20
-3.23852
11
3.08258
21
-3.27792
0
LINE
8
BLACK
6
CONTINUOUS
10
3.08258
20
-3.27792
11
3.0925
21
-3.31699
0
LINE
8
BLACK
6
CONTINUOUS
10
3.0925
20
-3.31699
11
3.10384
21
-3.35566
0
LINE
8
BLACK
6
CONTINUOUS
10
3.10384
20
-3.35566
11
3.1166
21
-3.3939
0
LINE
8
BLACK
6
CONTINUOUS
10
3.1166
20
-3.3939
11
3.13075
21
-3.43164
0
LINE
8
BLACK
6
CONTINUOUS
10
3.13075
20
-3.43164
11
3.14627
21
-3.46884
0
LINE
8
BLACK
6
CONTINUOUS
10
3.14627
20
-3.46884
11
3.16315
21
-3.50544
0
LINE
8
BLACK
6
CONTINUOUS
10
3.16315
20
-3.50544
11
3.18136
21
-3.54141
0
LINE
8
BLACK
6
CONTINUOUS
10
3.18136
20
-3.54141
11
3.20086
21
-3.57668
0
LINE
8
BLACK
6
CONTINUOUS
10
3.20086
20
-3.57668
11
3.22166
21
-3.61121
0
LINE
8
BLACK
6
CONTINUOUS
10
3.22166
20
-3.61121
11
3.24369
21
-3.64496
0
LINE
8
BLACK
6
CONTINUOUS
10
3.24369
20
-3.64496
11
3.26696
21
-3.67787
0
LINE
8
BLACK
6
CONTINUOUS
10
3.26696
20
-3.67787
11
3.29141
21
-3.70992
0
LINE
8
BLACK
6
CONTINUOUS
10
3.29141
20
-3.70992
11
3.31702
21
-3.74105
0
LINE
8
BLACK
6
CONTINUOUS
10
3.31702
20
-3.74105
11
3.34376
21
-3.7712
0
LINE
8
BLACK
6
CONTINUOUS
10
3.34376
20
-3.7712
11
3.37158
21
-3.80037
0
LINE
8
BLACK
6
CONTINUOUS
10
3.37158
20
-3.80037
11
3.40045
21
-3.8285
0
LINE
8
BLACK
6
CONTINUOUS
10
3.40045
20
-3.8285
11
3.43034
21
-3.85554
0
LINE
8
BLACK
6
CONTINUOUS
10
3.43034
20
-3.85554
11
3.4612
21
-3.88149
0
LINE
8
BLACK
6
CONTINUOUS
10
3.4612
20
-3.88149
11
3.49297
21
-3.90628
0
LINE
8
BLACK
6
CONTINUOUS
10
3.49297
20
-3.90628
11
3.52565
21
-3.92988
0
LINE
8
BLACK
6
CONTINUOUS
10
3.52565
20
-3.92988
11
3.55917
21
-3.95227
0
LINE
8
BLACK
6
CONTINUOUS
10
3.55917
20
-3.95227
11
3.59347
21
-3.97342
0
LINE
8
BLACK
6
CONTINUOUS
10
3.59347
20
-3.97342
11
3.62854
21
-3.99331
0
LINE
8
BLACK
6
CONTINUOUS
10
3.62854
20
-3.99331
11
3.66431
21
-4.01188
0
LINE
8
BLACK
6
CONTINUOUS
10
3.66431
20
-4.01188
11
3.70074
21
-4.02914
0
LINE
8
BLACK
6
CONTINUOUS
10
3.70074
20
-4.02914
11
3.73777
21
-4.04505
0
LINE
8
BLACK
6
CONTINUOUS
10
3.73777
20
-4.04505
11
3.77536
21
-4.0596
0
LINE
8
BLACK
6
CONTINUOUS
10
3.77536
20
-4.0596
11
3.81346
21
-4.07275
0
LINE
8
BLACK
6
CONTINUOUS
10
3.81346
20
-4.07275
11
3.85202
21
-4.0845
0
LINE
8
BLACK
6
CONTINUOUS
10
3.85202
20
-4.0845
11
3.89098
21
-4.09483
0
LINE
8
BLACK
6
CONTINUOUS
10
3.89098
20
-4.09483
11
3.93029
21
-4.10373
0
LINE
8
BLACK
6
CONTINUOUS
10
3.93029
20
-4.10373
11
3.96991
21
-4.11118
0
LINE
8
BLACK
6
CONTINUOUS
10
3.96991
20
-4.11118
11
4.00976
21
-4.11718
0
LINE
8
BLACK
6
CONTINUOUS
10
4.00976
20
-4.11718
11
4.04983
21
-4.1217
0
LINE
8
BLACK
6
CONTINUOUS
10
4.04983
20
-4.1217
11
4.09002
21
-4.12476
0
LINE
8
BLACK
6
CONTINUOUS
10
4.09002
20
-4.12476
11
4.13029
21
-4.12634
0
LINE
8
BLACK
6
CONTINUOUS
10
4.13029
20
-4.12634
11
4.1706
21
-4.12645
0
LINE
8
BLACK
6
CONTINUOUS
10
4.1706
20
-4.12645
11
4.21088
21
-4.12507
0
LINE
8
BLACK
6
CONTINUOUS
10
4.21088
20
-4.12507
11
4.25109
21
-4.12222
0
LINE
8
BLACK
6
CONTINUOUS
10
4.25109
20
-4.12222
11
4.29116
21
-4.11791
0
LINE
8
BLACK
6
CONTINUOUS
10
4.29116
20
-4.11791
11
4.33105
21
-4.11212
0
LINE
8
BLACK
6
CONTINUOUS
10
4.33105
20
-4.11212
11
4.37071
21
-4.10489
0
LINE
8
BLACK
6
CONTINUOUS
10
4.37071
20
-4.10489
11
4.41007
21
-4.09619
0
LINE
8
BLACK
6
CONTINUOUS
10
4.41007
20
-4.09619
11
4.44908
21
-4.08607
0
LINE
8
BLACK
6
CONTINUOUS
10
4.44908
20
-4.08607
11
4.4877
21
-4.07452
0
LINE
8
BLACK
6
CONTINUOUS
10
4.4877
20
-4.07452
11
4.52586
21
-4.06156
0
LINE
8
BLACK
6
CONTINUOUS
10
4.52586
20
-4.06156
11
4.56354
21
-4.04722
0
LINE
8
BLACK
6
CONTINUOUS
10
4.56354
20
-4.04722
11
4.60065
21
-4.0315
0
LINE
8
BLACK
6
CONTINUOUS
10
4.60065
20
-4.0315
11
4.63717
21
-4.01443
0
LINE
8
BLACK
6
CONTINUOUS
10
4.63717
20
-4.01443
11
4.67303
21
-3.99603
0
LINE
8
BLACK
6
CONTINUOUS
10
4.67303
20
-3.99603
11
4.7082
21
-3.97635
0
LINE
8
BLACK
6
CONTINUOUS
10
4.7082
20
-3.97635
11
4.74263
21
-3.95537
0
LINE
8
BLACK
6
CONTINUOUS
10
4.74263
20
-3.95537
11
4.77626
21
-3.93316
0
LINE
8
BLACK
6
CONTINUOUS
10
4.77626
20
-3.93316
11
4.80905
21
-3.90972
0
LINE
8
BLACK
6
CONTINUOUS
10
4.80905
20
-3.90972
11
4.84097
21
-3.88509
0
LINE
8
BLACK
6
CONTINUOUS
10
4.84097
20
-3.88509
11
4.87196
21
-3.85932
0
LINE
8
BLACK
6
CONTINUOUS
10
4.87196
20
-3.85932
11
4.90198
21
-3.83243
0
LINE
8
BLACK
6
CONTINUOUS
10
4.90198
20
-3.83243
11
4.931
21
-3.80446
0
LINE
8
BLACK
6
CONTINUOUS
10
4.931
20
-3.80446
11
4.95897
21
-3.77544
0
LINE
8
BLACK
6
CONTINUOUS
10
4.95897
20
-3.77544
11
4.98586
21
-3.74541
0
LINE
8
BLACK
6
CONTINUOUS
10
4.98586
20
-3.74541
11
5.01164
21
-3.71443
0
LINE
8
BLACK
6
CONTINUOUS
10
5.01164
20
-3.71443
11
5.03626
21
-3.68251
0
LINE
8
BLACK
6
CONTINUOUS
10
5.03626
20
-3.68251
11
5.0597
21
-3.64971
0
LINE
8
BLACK
6
CONTINUOUS
10
5.0597
20
-3.64971
11
5.08192
21
-3.61609
0
LINE
8
BLACK
6
CONTINUOUS
10
5.08192
20
-3.61609
11
5.10289
21
-3.58166
0
LINE
8
BLACK
6
CONTINUOUS
10
5.10289
20
-3.58166
11
5.12258
21
-3.54649
0
LINE
8
BLACK
6
CONTINUOUS
10
5.12258
20
-3.54649
11
5.14097
21
-3.51062
0
LINE
8
BLACK
6
CONTINUOUS
10
5.14097
20
-3.51062
11
5.15804
21
-3.47411
0
LINE
8
BLACK
6
CONTINUOUS
10
5.15804
20
-3.47411
11
5.17376
21
-3.43699
0
LINE
8
BLACK
6
CONTINUOUS
10
5.17376
20
-3.43699
11
5.1881
21
-3.39932
0
LINE
8
BLACK
6
CONTINUOUS
10
5.1881
20
-3.39932
11
5.20106
21
-3.36116
0
LINE
8
BLACK
6
CONTINUOUS
10
5.20106
20
-3.36116
11
5.21261
21
-3.32254
0
LINE
8
BLACK
6
CONTINUOUS
10
5.21261
20
-3.32254
11
5.22274
21
-3.28352
0
LINE
8
BLACK
6
CONTINUOUS
10
5.22274
20
-3.28352
11
5.23143
21
-3.24416
0
LINE
8
BLACK
6
CONTINUOUS
10
5.23143
20
-3.24416
11
5.23866
21
-3.20451
0
LINE
8
BLACK
6
CONTINUOUS
10
5.23866
20
-3.20451
11
5.24445
21
-3.16462
0
LINE
8
BLACK
6
CONTINUOUS
10
5.24445
20
-3.16462
11
5.24739
21
-3.13728
0
LINE
8
BLACK
6
CONTINUOUS
10
5.24739
20
-3.13728
11
5.24752
21
-3.13705
0
LINE
8
BLACK
6
CONTINUOUS
10
5.24752
20
-3.13705
11
5.24762
21
-3.13681
0
LINE
8
BLACK
6
CONTINUOUS
10
5.24762
20
-3.13681
11
5.24766
21
-3.13679
0
LINE
8
BLACK
6
CONTINUOUS
10
5.24766
20
-3.13679
11
5.24768
21
-3.13675
0
LINE
8
BLACK
6
CONTINUOUS
10
5.24768
20
-3.13675
11
5.24794
21
-3.13668
0
LINE
8
BLACK
6
CONTINUOUS
10
5.24794
20
-3.13668
11
5.24818
21
-3.13658
0
LINE
8
BLACK
6
CONTINUOUS
10
5.24818
20
-3.13658
11
5.29094
21
-3.13658
0
LINE
8
BLACK
6
CONTINUOUS
10
5.29094
20
-3.13658
11
5.29149
21
-3.13681
0
LINE
8
BLACK
6
CONTINUOUS
10
5.29149
20
-3.13681
11
5.29172
21
-3.13736
0
LINE
8
BLACK
6
CONTINUOUS
10
4.60882
20
-3.83989
11
4.61095
21
-3.83534
0
LINE
8
BLACK
6
CONTINUOUS
10
4.61095
20
-3.83534
11
4.61428
21
-3.83158
0
LINE
8
BLACK
6
CONTINUOUS
10
4.61428
20
-3.83158
11
4.61853
21
-3.8289
0
LINE
8
BLACK
6
CONTINUOUS
10
4.61853
20
-3.8289
11
4.62336
21
-3.82752
0
LINE
8
BLACK
6
CONTINUOUS
10
4.62336
20
-3.82752
11
4.62838
21
-3.82755
0
LINE
8
BLACK
6
CONTINUOUS
10
4.62838
20
-3.82755
11
4.63319
21
-3.82899
0
LINE
8
BLACK
6
CONTINUOUS
10
4.63319
20
-3.82899
11
4.63741
21
-3.83172
0
LINE
8
BLACK
6
CONTINUOUS
10
4.63741
20
-3.83172
11
4.64069
21
-3.83552
0
LINE
8
BLACK
6
CONTINUOUS
10
4.64069
20
-3.83552
11
4.64277
21
-3.8401
0
LINE
8
BLACK
6
CONTINUOUS
10
4.64277
20
-3.8401
11
4.64348
21
-3.84507
0
LINE
8
BLACK
6
CONTINUOUS
10
4.64348
20
-3.84507
11
4.64347
21
-3.8455
0
LINE
8
BLACK
6
CONTINUOUS
10
4.64347
20
-3.8455
11
4.64264
21
-3.85046
0
LINE
8
BLACK
6
CONTINUOUS
10
4.64264
20
-3.85046
11
4.64045
21
-3.85498
0
LINE
8
BLACK
6
CONTINUOUS
10
4.64045
20
-3.85498
11
4.63708
21
-3.8587
0
LINE
8
BLACK
6
CONTINUOUS
10
4.63708
20
-3.8587
11
4.6328
21
-3.86133
0
LINE
8
BLACK
6
CONTINUOUS
10
4.6328
20
-3.86133
11
4.62795
21
-3.86265
0
LINE
8
BLACK
6
CONTINUOUS
10
4.62795
20
-3.86265
11
4.62293
21
-3.86256
0
LINE
8
BLACK
6
CONTINUOUS
10
4.62293
20
-3.86256
11
4.61813
21
-3.86106
0
LINE
8
BLACK
6
CONTINUOUS
10
4.61813
20
-3.86106
11
4.61395
21
-3.85828
0
LINE
8
BLACK
6
CONTINUOUS
10
4.61395
20
-3.85828
11
4.61072
21
-3.85443
0
LINE
8
BLACK
6
CONTINUOUS
10
4.61072
20
-3.85443
11
4.6087
21
-3.84983
0
LINE
8
BLACK
6
CONTINUOUS
10
4.6087
20
-3.84983
11
4.60807
21
-3.84507
0
LINE
8
BLACK
6
CONTINUOUS
10
4.60807
20
-3.84507
11
4.60805
21
-3.84485
0
LINE
8
BLACK
6
CONTINUOUS
10
4.60805
20
-3.84485
11
4.60882
21
-3.83989
0
LINE
8
BLACK
6
CONTINUOUS
10
4.61448
20
-3.85327
11
4.61756
21
-3.85636
0
LINE
8
BLACK
6
CONTINUOUS
10
4.61756
20
-3.85636
11
4.62145
21
-3.85834
0
LINE
8
BLACK
6
CONTINUOUS
10
4.62145
20
-3.85834
11
4.62576
21
-3.85902
0
LINE
8
BLACK
6
CONTINUOUS
10
4.62576
20
-3.85902
11
4.63007
21
-3.85834
0
LINE
8
BLACK
6
CONTINUOUS
10
4.63007
20
-3.85834
11
4.63396
21
-3.85636
0
LINE
8
BLACK
6
CONTINUOUS
10
4.63396
20
-3.85636
11
4.63705
21
-3.85327
0
LINE
8
BLACK
6
CONTINUOUS
10
4.63705
20
-3.85327
11
4.63903
21
-3.84938
0
LINE
8
BLACK
6
CONTINUOUS
10
4.63903
20
-3.84938
11
4.63971
21
-3.84507
0
LINE
8
BLACK
6
CONTINUOUS
10
4.63971
20
-3.84507
11
4.63903
21
-3.84076
0
LINE
8
BLACK
6
CONTINUOUS
10
4.63903
20
-3.84076
11
4.63705
21
-3.83687
0
LINE
8
BLACK
6
CONTINUOUS
10
4.63705
20
-3.83687
11
4.63396
21
-3.83378
0
LINE
8
BLACK
6
CONTINUOUS
10
4.63396
20
-3.83378
11
4.63007
21
-3.8318
0
LINE
8
BLACK
6
CONTINUOUS
10
4.63007
20
-3.8318
11
4.62576
21
-3.83112
0
LINE
8
BLACK
6
CONTINUOUS
10
4.62576
20
-3.83112
11
4.62145
21
-3.8318
0
LINE
8
BLACK
6
CONTINUOUS
10
4.62145
20
-3.8318
11
4.61756
21
-3.83378
0
LINE
8
BLACK
6
CONTINUOUS
10
4.61756
20
-3.83378
11
4.61448
21
-3.83687
0
LINE
8
BLACK
6
CONTINUOUS
10
4.61448
20
-3.83687
11
4.61249
21
-3.84076
0
LINE
8
BLACK
6
CONTINUOUS
10
4.61249
20
-3.84076
11
4.61181
21
-3.84507
0
LINE
8
BLACK
6
CONTINUOUS
10
4.61181
20
-3.84507
11
4.61249
21
-3.84938
0
LINE
8
BLACK
6
CONTINUOUS
10
4.61249
20
-3.84938
11
4.61448
21
-3.85327
0
LINE
8
BLACK
6
CONTINUOUS
10
3.1915
20
-3.0216
11
3.19363
21
-3.01705
0
LINE
8
BLACK
6
CONTINUOUS
10
3.19363
20
-3.01705
11
3.19696
21
-3.01329
0
LINE
8
BLACK
6
CONTINUOUS
10
3.19696
20
-3.01329
11
3.2012
21
-3.01061
0
LINE
8
BLACK
6
CONTINUOUS
10
3.2012
20
-3.01061
11
3.20603
21
-3.00923
0
LINE
8
BLACK
6
CONTINUOUS
10
3.20603
20
-3.00923
11
3.21106
21
-3.00926
0
LINE
8
BLACK
6
CONTINUOUS
10
3.21106
20
-3.00926
11
3.21587
21
-3.0107
0
LINE
8
BLACK
6
CONTINUOUS
10
3.21587
20
-3.0107
11
3.22009
21
-3.01343
0
LINE
8
BLACK
6
CONTINUOUS
10
3.22009
20
-3.01343
11
3.22336
21
-3.01723
0
LINE
8
BLACK
6
CONTINUOUS
10
3.22336
20
-3.01723
11
3.22544
21
-3.02181
0
LINE
8
BLACK
6
CONTINUOUS
10
3.22544
20
-3.02181
11
3.22616
21
-3.02678
0
LINE
8
BLACK
6
CONTINUOUS
10
3.22616
20
-3.02678
11
3.22615
21
-3.02721
0
LINE
8
BLACK
6
CONTINUOUS
10
3.22615
20
-3.02721
11
3.22532
21
-3.03216
0
LINE
8
BLACK
6
CONTINUOUS
10
3.22532
20
-3.03216
11
3.22313
21
-3.03668
0
LINE
8
BLACK
6
CONTINUOUS
10
3.22313
20
-3.03668
11
3.21976
21
-3.04041
0
LINE
8
BLACK
6
CONTINUOUS
10
3.21976
20
-3.04041
11
3.21548
21
-3.04304
0
LINE
8
BLACK
6
CONTINUOUS
10
3.21548
20
-3.04304
11
3.21063
21
-3.04436
0
LINE
8
BLACK
6
CONTINUOUS
10
3.21063
20
-3.04436
11
3.20561
21
-3.04427
0
LINE
8
BLACK
6
CONTINUOUS
10
3.20561
20
-3.04427
11
3.20081
21
-3.04277
0
LINE
8
BLACK
6
CONTINUOUS
10
3.20081
20
-3.04277
11
3.19663
21
-3.03999
0
LINE
8
BLACK
6
CONTINUOUS
10
3.19663
20
-3.03999
11
3.1934
21
-3.03614
0
LINE
8
BLACK
6
CONTINUOUS
10
3.1934
20
-3.03614
11
3.19138
21
-3.03154
0
LINE
8
BLACK
6
CONTINUOUS
10
3.19138
20
-3.03154
11
3.19075
21
-3.02678
0
LINE
8
BLACK
6
CONTINUOUS
10
3.19075
20
-3.02678
11
3.19072
21
-3.02656
0
LINE
8
BLACK
6
CONTINUOUS
10
3.19072
20
-3.02656
11
3.1915
21
-3.0216
0
LINE
8
BLACK
6
CONTINUOUS
10
3.19715
20
-3.03498
11
3.20024
21
-3.03806
0
LINE
8
BLACK
6
CONTINUOUS
10
3.20024
20
-3.03806
11
3.20413
21
-3.04005
0
LINE
8
BLACK
6
CONTINUOUS
10
3.20413
20
-3.04005
11
3.20844
21
-3.04073
0
LINE
8
BLACK
6
CONTINUOUS
10
3.20844
20
-3.04073
11
3.21275
21
-3.04005
0
LINE
8
BLACK
6
CONTINUOUS
10
3.21275
20
-3.04005
11
3.21664
21
-3.03806
0
LINE
8
BLACK
6
CONTINUOUS
10
3.21664
20
-3.03806
11
3.21973
21
-3.03498
0
LINE
8
BLACK
6
CONTINUOUS
10
3.21973
20
-3.03498
11
3.22171
21
-3.03109
0
LINE
8
BLACK
6
CONTINUOUS
10
3.22171
20
-3.03109
11
3.22239
21
-3.02678
0
LINE
8
BLACK
6
CONTINUOUS
10
3.22239
20
-3.02678
11
3.22171
21
-3.02247
0
LINE
8
BLACK
6
CONTINUOUS
10
3.22171
20
-3.02247
11
3.21973
21
-3.01858
0
LINE
8
BLACK
6
CONTINUOUS
10
3.21973
20
-3.01858
11
3.21664
21
-3.01549
0
LINE
8
BLACK
6
CONTINUOUS
10
3.21664
20
-3.01549
11
3.21275
21
-3.01351
0
LINE
8
BLACK
6
CONTINUOUS
10
3.21275
20
-3.01351
11
3.20844
21
-3.01283
0
LINE
8
BLACK
6
CONTINUOUS
10
3.20844
20
-3.01283
11
3.20413
21
-3.01351
0
LINE
8
BLACK
6
CONTINUOUS
10
3.20413
20
-3.01351
11
3.20024
21
-3.01549
0
LINE
8
BLACK
6
CONTINUOUS
10
3.20024
20
-3.01549
11
3.19715
21
-3.01858
0
LINE
8
BLACK
6
CONTINUOUS
10
3.19715
20
-3.01858
11
3.19517
21
-3.02247
0
LINE
8
BLACK
6
CONTINUOUS
10
3.19517
20
-3.02247
11
3.19449
21
-3.02678
0
LINE
8
BLACK
6
CONTINUOUS
10
3.19449
20
-3.02678
11
3.19517
21
-3.03109
0
LINE
8
BLACK
6
CONTINUOUS
10
3.19517
20
-3.03109
11
3.19715
21
-3.03498
0
LINE
8
BLACK
6
CONTINUOUS
10
4.60882
20
-2.20331
11
4.61095
21
-2.19876
0
LINE
8
BLACK
6
CONTINUOUS
10
4.61095
20
-2.19876
11
4.61428
21
-2.19499
0
LINE
8
BLACK
6
CONTINUOUS
10
4.61428
20
-2.19499
11
4.61853
21
-2.19231
0
LINE
8
BLACK
6
CONTINUOUS
10
4.61853
20
-2.19231
11
4.62336
21
-2.19093
0
LINE
8
BLACK
6
CONTINUOUS
10
4.62336
20
-2.19093
11
4.62838
21
-2.19096
0
LINE
8
BLACK
6
CONTINUOUS
10
4.62838
20
-2.19096
11
4.63319
21
-2.1924
0
LINE
8
BLACK
6
CONTINUOUS
10
4.63319
20
-2.1924
11
4.63741
21
-2.19514
0
LINE
8
BLACK
6
CONTINUOUS
10
4.63741
20
-2.19514
11
4.64069
21
-2.19894
0
LINE
8
BLACK
6
CONTINUOUS
10
4.64069
20
-2.19894
11
4.64277
21
-2.20351
0
LINE
8
BLACK
6
CONTINUOUS
10
4.64277
20
-2.20351
11
4.64348
21
-2.20849
0
LINE
8
BLACK
6
CONTINUOUS
10
4.64348
20
-2.20849
11
4.64347
21
-2.20892
0
LINE
8
BLACK
6
CONTINUOUS
10
4.64347
20
-2.20892
11
4.64264
21
-2.21387
0
LINE
8
BLACK
6
CONTINUOUS
10
4.64264
20
-2.21387
11
4.64045
21
-2.21839
0
LINE
8
BLACK
6
CONTINUOUS
10
4.64045
20
-2.21839
11
4.63708
21
-2.22212
0
LINE
8
BLACK
6
CONTINUOUS
10
4.63708
20
-2.22212
11
4.6328
21
-2.22475
0
LINE
8
BLACK
6
CONTINUOUS
10
4.6328
20
-2.22475
11
4.62795
21
-2.22607
0
LINE
8
BLACK
6
CONTINUOUS
10
4.62795
20
-2.22607
11
4.62293
21
-2.22597
0
LINE
8
BLACK
6
CONTINUOUS
10
4.62293
20
-2.22597
11
4.61813
21
-2.22448
0
LINE
8
BLACK
6
CONTINUOUS
10
4.61813
20
-2.22448
11
4.61395
21
-2.22169
0
LINE
8
BLACK
6
CONTINUOUS
10
4.61395
20
-2.22169
11
4.61072
21
-2.21785
0
LINE
8
BLACK
6
CONTINUOUS
10
4.61072
20
-2.21785
11
4.6087
21
-2.21325
0
LINE
8
BLACK
6
CONTINUOUS
10
4.6087
20
-2.21325
11
4.60807
21
-2.20849
0
LINE
8
BLACK
6
CONTINUOUS
10
4.60807
20
-2.20849
11
4.60805
21
-2.20827
0
LINE
8
BLACK
6
CONTINUOUS
10
4.60805
20
-2.20827
11
4.60882
21
-2.20331
0
LINE
8
BLACK
6
CONTINUOUS
10
4.61448
20
-2.21669
11
4.61756
21
-2.21977
0
LINE
8
BLACK
6
CONTINUOUS
10
4.61756
20
-2.21977
11
4.62145
21
-2.22175
0
LINE
8
BLACK
6
CONTINUOUS
10
4.62145
20
-2.22175
11
4.62576
21
-2.22244
0
LINE
8
BLACK
6
CONTINUOUS
10
4.62576
20
-2.22244
11
4.63007
21
-2.22175
0
LINE
8
BLACK
6
CONTINUOUS
10
4.63007
20
-2.22175
11
4.63396
21
-2.21977
0
LINE
8
BLACK
6
CONTINUOUS
10
4.63396
20
-2.21977
11
4.63705
21
-2.21669
0
LINE
8
BLACK
6
CONTINUOUS
10
4.63705
20
-2.21669
11
4.63903
21
-2.2128
0
LINE
8
BLACK
6
CONTINUOUS
10
4.63903
20
-2.2128
11
4.63971
21
-2.20849
0
LINE
8
BLACK
6
CONTINUOUS
10
4.63971
20
-2.20849
11
4.63903
21
-2.20418
0
LINE
8
BLACK
6
CONTINUOUS
10
4.63903
20
-2.20418
11
4.63705
21
-2.20029
0
LINE
8
BLACK
6
CONTINUOUS
10
4.63705
20
-2.20029
11
4.63396
21
-2.1972
0
LINE
8
BLACK
6
CONTINUOUS
10
4.63396
20
-2.1972
11
4.63007
21
-2.19522
0
LINE
8
BLACK
6
CONTINUOUS
10
4.63007
20
-2.19522
11
4.62576
21
-2.19453
0
LINE
8
BLACK
6
CONTINUOUS
10
4.62576
20
-2.19453
11
4.62145
21
-2.19522
0
LINE
8
BLACK
6
CONTINUOUS
10
4.62145
20
-2.19522
11
4.61756
21
-2.1972
0
LINE
8
BLACK
6
CONTINUOUS
10
4.61756
20
-2.1972
11
4.61448
21
-2.20029
0
LINE
8
BLACK
6
CONTINUOUS
10
4.61448
20
-2.20029
11
4.61249
21
-2.20418
0
LINE
8
BLACK
6
CONTINUOUS
10
4.61249
20
-2.20418
11
4.61181
21
-2.20849
0
LINE
8
BLACK
6
CONTINUOUS
10
4.61181
20
-2.20849
11
4.61249
21
-2.2128
0
LINE
8
BLACK
6
CONTINUOUS
10
4.61249
20
-2.2128
11
4.61448
21
-2.21669
  0
ENDSEC
  0
EOF
