  0
SECTION
  2
HEADER
  9
$ANGBASE
  50
0.0
  9
$ANGDIR
  70
1
  9
$MEASUREMENT
  70
0
  0
ENDSEC
  0
SECTION
  2
TABLES
  0
TABLE
  2
LTYPE
  70
4
  0
LTYPE
  5
40F
  2
CONTINUOUS
  70
0
  3
Solid line
  72
65
  73
0
  40
0.0
  0
LTYPE
  5
410
  2
DASHDOT
 70
0
  3
Dash Dot ____ _ ____ _
 72
65
 73
4
 40
2.0
 49
1.25
 49
-0.25
 49
0.25
 49
-0.25
  0
LTYPE
  5
411
  2
DASHED
 70
0
  3
Dashed __ __ __ __ __
 72
65
 73
2
 40
0.75
 49
0.5
 49
-0.25
  0
LTYPE
  5
43B
  2
DOTTED
 70
0
  3
Dotted .  .  .  .
 72
65
 73
2
 40
0.2
 49
0.0
 49
-0.2
  0
ENDTAB
  0
TABLE
  2
STYLE
  70
4
  0
STYLE
  2
KICAD
  70
0
  40
0
  41
1
  42
1
  50
0
  71
0
  3
isocp.shx
  0
STYLE
  2
KICADB
  70
0
  40
0
  41
1
  42
1
  50
0
  71
0
  3
isocp.shx
  0
STYLE
  2
KICADI
  70
0
  40
0
  41
1
  42
1
  50
15
  71
0
  3
isocp.shx
  0
STYLE
  2
KICADBI
  70
0
  40
0
  41
1
  42
1
  50
15
  71
0
  3
isocp.shx
  0
ENDTAB
  0
TABLE
  2
LAYER
  70
1
  0
LAYER
  2
BLACK
  70
0
  62
7
  6
CONTINUOUS
  0
ENDTAB
  0
ENDSEC
  0
SECTION
  2
ENTITIES
0
LINE
8
BLACK
6
CONTINUOUS
10
4.72086
20
-2.64475
11
4.72099
21
-2.64473
0
LINE
8
BLACK
6
CONTINUOUS
10
4.72099
20
-2.64473
11
4.7211
21
-2.6448
0
LINE
8
BLACK
6
CONTINUOUS
10
4.7211
20
-2.6448
11
4.72148
21
-2.64486
0
LINE
8
BLACK
6
CONTINUOUS
10
4.72148
20
-2.64486
11
4.72207
21
-2.64536
0
LINE
8
BLACK
6
CONTINUOUS
10
4.72207
20
-2.64536
11
4.72273
21
-2.64574
0
LINE
8
BLACK
6
CONTINUOUS
10
4.72273
20
-2.64574
11
4.72283
21
-2.64599
0
LINE
8
BLACK
6
CONTINUOUS
10
4.72283
20
-2.64599
11
4.72303
21
-2.64616
0
LINE
8
BLACK
6
CONTINUOUS
10
4.72303
20
-2.64616
11
4.72316
21
-2.64692
0
LINE
8
BLACK
6
CONTINUOUS
10
4.72316
20
-2.64692
11
4.72343
21
-2.64764
0
LINE
8
BLACK
6
CONTINUOUS
10
4.72343
20
-2.64764
11
4.72343
21
-3.26772
0
LINE
8
BLACK
6
CONTINUOUS
10
4.72343
20
-3.26772
11
4.72336
21
-3.2681
0
LINE
8
BLACK
6
CONTINUOUS
10
4.72336
20
-3.2681
11
4.72338
21
-3.26823
0
LINE
8
BLACK
6
CONTINUOUS
10
4.72338
20
-3.26823
11
4.72331
21
-3.26834
0
LINE
8
BLACK
6
CONTINUOUS
10
4.72331
20
-3.26834
11
4.72325
21
-3.26873
0
LINE
8
BLACK
6
CONTINUOUS
10
4.72325
20
-3.26873
11
4.72275
21
-3.26931
0
LINE
8
BLACK
6
CONTINUOUS
10
4.72275
20
-3.26931
11
4.72237
21
-3.26998
0
LINE
8
BLACK
6
CONTINUOUS
10
4.72237
20
-3.26998
11
4.72212
21
-3.27007
0
LINE
8
BLACK
6
CONTINUOUS
10
4.72212
20
-3.27007
11
4.72195
21
-3.27027
0
LINE
8
BLACK
6
CONTINUOUS
10
4.72195
20
-3.27027
11
4.72119
21
-3.27041
0
LINE
8
BLACK
6
CONTINUOUS
10
4.72119
20
-3.27041
11
4.72047
21
-3.27067
0
LINE
8
BLACK
6
CONTINUOUS
10
4.72047
20
-3.27067
11
4.5
21
-3.27067
0
LINE
8
BLACK
6
CONTINUOUS
10
4.5
20
-3.27067
11
4.49962
21
-3.2706
0
LINE
8
BLACK
6
CONTINUOUS
10
4.49962
20
-3.2706
11
4.49949
21
-3.27062
0
LINE
8
BLACK
6
CONTINUOUS
10
4.49949
20
-3.27062
11
4.49937
21
-3.27056
0
LINE
8
BLACK
6
CONTINUOUS
10
4.49937
20
-3.27056
11
4.49899
21
-3.27049
0
LINE
8
BLACK
6
CONTINUOUS
10
4.49899
20
-3.27049
11
4.4984
21
-3.27
0
LINE
8
BLACK
6
CONTINUOUS
10
4.4984
20
-3.27
11
4.49774
21
-3.26961
0
LINE
8
BLACK
6
CONTINUOUS
10
4.49774
20
-3.26961
11
4.49765
21
-3.26936
0
LINE
8
BLACK
6
CONTINUOUS
10
4.49765
20
-3.26936
11
4.49744
21
-3.26919
0
LINE
8
BLACK
6
CONTINUOUS
10
4.49744
20
-3.26919
11
4.49731
21
-3.26844
0
LINE
8
BLACK
6
CONTINUOUS
10
4.49731
20
-3.26844
11
4.49705
21
-3.26772
0
LINE
8
BLACK
6
CONTINUOUS
10
4.49705
20
-3.26772
11
4.49705
21
-2.64764
0
LINE
8
BLACK
6
CONTINUOUS
10
4.49705
20
-2.64764
11
4.49711
21
-2.64725
0
LINE
8
BLACK
6
CONTINUOUS
10
4.49711
20
-2.64725
11
4.49709
21
-2.64713
0
LINE
8
BLACK
6
CONTINUOUS
10
4.49709
20
-2.64713
11
4.49716
21
-2.64701
0
LINE
8
BLACK
6
CONTINUOUS
10
4.49716
20
-2.64701
11
4.49723
21
-2.64663
0
LINE
8
BLACK
6
CONTINUOUS
10
4.49723
20
-2.64663
11
4.49772
21
-2.64604
0
LINE
8
BLACK
6
CONTINUOUS
10
4.49772
20
-2.64604
11
4.4981
21
-2.64538
0
LINE
8
BLACK
6
CONTINUOUS
10
4.4981
20
-2.64538
11
4.49835
21
-2.64528
0
LINE
8
BLACK
6
CONTINUOUS
10
4.49835
20
-2.64528
11
4.49852
21
-2.64508
0
LINE
8
BLACK
6
CONTINUOUS
10
4.49852
20
-2.64508
11
4.49928
21
-2.64495
0
LINE
8
BLACK
6
CONTINUOUS
10
4.49928
20
-2.64495
11
4.5
21
-2.64469
0
LINE
8
BLACK
6
CONTINUOUS
10
4.5
20
-2.64469
11
4.72047
21
-2.64469
0
LINE
8
BLACK
6
CONTINUOUS
10
4.72047
20
-2.64469
11
4.72086
21
-2.64475
0
LINE
8
BLACK
6
CONTINUOUS
10
4.50295
20
-2.65059
11
4.50295
21
-3.26476
0
LINE
8
BLACK
6
CONTINUOUS
10
4.50295
20
-3.26476
11
4.71752
21
-3.26476
0
LINE
8
BLACK
6
CONTINUOUS
10
4.71752
20
-3.26476
11
4.71752
21
-2.65059
0
LINE
8
BLACK
6
CONTINUOUS
10
4.71752
20
-2.65059
11
4.50295
21
-2.65059
0
LINE
8
BLACK
6
CONTINUOUS
10
4.57491
20
-3.18201
11
4.57583
21
-3.18214
0
LINE
8
BLACK
6
CONTINUOUS
10
4.57583
20
-3.18214
11
4.57589
21
-3.18221
0
LINE
8
BLACK
6
CONTINUOUS
10
4.57589
20
-3.18221
11
4.57597
21
-3.18222
0
LINE
8
BLACK
6
CONTINUOUS
10
4.57597
20
-3.18222
11
4.57655
21
-3.18295
0
LINE
8
BLACK
6
CONTINUOUS
10
4.57655
20
-3.18295
11
4.57717
21
-3.18365
0
LINE
8
BLACK
6
CONTINUOUS
10
4.57717
20
-3.18365
11
4.57718
21
-3.18374
0
LINE
8
BLACK
6
CONTINUOUS
10
4.57718
20
-3.18374
11
4.57723
21
-3.18381
0
LINE
8
BLACK
6
CONTINUOUS
10
4.57723
20
-3.18381
11
4.59035
21
-3.22318
0
LINE
8
BLACK
6
CONTINUOUS
10
4.59035
20
-3.22318
11
4.5905
21
-3.22419
0
LINE
8
BLACK
6
CONTINUOUS
10
4.5905
20
-3.22419
11
4.58976
21
-3.22607
0
LINE
8
BLACK
6
CONTINUOUS
10
4.58976
20
-3.22607
11
4.58798
21
-3.22703
0
LINE
8
BLACK
6
CONTINUOUS
10
4.58798
20
-3.22703
11
4.58601
21
-3.22663
0
LINE
8
BLACK
6
CONTINUOUS
10
4.58601
20
-3.22663
11
4.58475
21
-3.22504
0
LINE
8
BLACK
6
CONTINUOUS
10
4.58475
20
-3.22504
11
4.58167
21
-3.21581
0
LINE
8
BLACK
6
CONTINUOUS
10
4.58167
20
-3.21581
11
4.56718
21
-3.21581
0
LINE
8
BLACK
6
CONTINUOUS
10
4.56718
20
-3.21581
11
4.56411
21
-3.22504
0
LINE
8
BLACK
6
CONTINUOUS
10
4.56411
20
-3.22504
11
4.56362
21
-3.22594
0
LINE
8
BLACK
6
CONTINUOUS
10
4.56362
20
-3.22594
11
4.5619
21
-3.227
0
LINE
8
BLACK
6
CONTINUOUS
10
4.5619
20
-3.227
11
4.5599
21
-3.22671
0
LINE
8
BLACK
6
CONTINUOUS
10
4.5599
20
-3.22671
11
4.55856
21
-3.22519
0
LINE
8
BLACK
6
CONTINUOUS
10
4.55856
20
-3.22519
11
4.5585
21
-3.22318
0
LINE
8
BLACK
6
CONTINUOUS
10
4.5585
20
-3.22318
11
4.57163
21
-3.18381
0
LINE
8
BLACK
6
CONTINUOUS
10
4.57163
20
-3.18381
11
4.57212
21
-3.1829
0
LINE
8
BLACK
6
CONTINUOUS
10
4.57212
20
-3.1829
11
4.57219
21
-3.18286
0
LINE
8
BLACK
6
CONTINUOUS
10
4.57219
20
-3.18286
11
4.57222
21
-3.18278
0
LINE
8
BLACK
6
CONTINUOUS
10
4.57222
20
-3.18278
11
4.57304
21
-3.18234
0
LINE
8
BLACK
6
CONTINUOUS
10
4.57304
20
-3.18234
11
4.57384
21
-3.18185
0
LINE
8
BLACK
6
CONTINUOUS
10
4.57384
20
-3.18185
11
4.57392
21
-3.18186
0
LINE
8
BLACK
6
CONTINUOUS
10
4.57392
20
-3.18186
11
4.574
21
-3.18182
0
LINE
8
BLACK
6
CONTINUOUS
10
4.574
20
-3.18182
11
4.57491
21
-3.18201
0
LINE
8
BLACK
6
CONTINUOUS
10
4.56915
20
-3.20991
11
4.57971
21
-3.20991
0
LINE
8
BLACK
6
CONTINUOUS
10
4.57971
20
-3.20991
11
4.57443
21
-3.19408
0
LINE
8
BLACK
6
CONTINUOUS
10
4.57443
20
-3.19408
11
4.56915
21
-3.20991
0
LINE
8
BLACK
6
CONTINUOUS
10
4.6874
20
-3.18201
11
4.68832
21
-3.18214
0
LINE
8
BLACK
6
CONTINUOUS
10
4.68832
20
-3.18214
11
4.68838
21
-3.18221
0
LINE
8
BLACK
6
CONTINUOUS
10
4.68838
20
-3.18221
11
4.68846
21
-3.18222
0
LINE
8
BLACK
6
CONTINUOUS
10
4.68846
20
-3.18222
11
4.68904
21
-3.18295
0
LINE
8
BLACK
6
CONTINUOUS
10
4.68904
20
-3.18295
11
4.68966
21
-3.18365
0
LINE
8
BLACK
6
CONTINUOUS
10
4.68966
20
-3.18365
11
4.68966
21
-3.18374
0
LINE
8
BLACK
6
CONTINUOUS
10
4.68966
20
-3.18374
11
4.68972
21
-3.18381
0
LINE
8
BLACK
6
CONTINUOUS
10
4.68972
20
-3.18381
11
4.70284
21
-3.22318
0
LINE
8
BLACK
6
CONTINUOUS
10
4.70284
20
-3.22318
11
4.70299
21
-3.22419
0
LINE
8
BLACK
6
CONTINUOUS
10
4.70299
20
-3.22419
11
4.70225
21
-3.22607
0
LINE
8
BLACK
6
CONTINUOUS
10
4.70225
20
-3.22607
11
4.70047
21
-3.22703
0
LINE
8
BLACK
6
CONTINUOUS
10
4.70047
20
-3.22703
11
4.69849
21
-3.22663
0
LINE
8
BLACK
6
CONTINUOUS
10
4.69849
20
-3.22663
11
4.69724
21
-3.22504
0
LINE
8
BLACK
6
CONTINUOUS
10
4.69724
20
-3.22504
11
4.69416
21
-3.21581
0
LINE
8
BLACK
6
CONTINUOUS
10
4.69416
20
-3.21581
11
4.67967
21
-3.21581
0
LINE
8
BLACK
6
CONTINUOUS
10
4.67967
20
-3.21581
11
4.67659
21
-3.22504
0
LINE
8
BLACK
6
CONTINUOUS
10
4.67659
20
-3.22504
11
4.6761
21
-3.22594
0
LINE
8
BLACK
6
CONTINUOUS
10
4.6761
20
-3.22594
11
4.67438
21
-3.227
0
LINE
8
BLACK
6
CONTINUOUS
10
4.67438
20
-3.227
11
4.67238
21
-3.22671
0
LINE
8
BLACK
6
CONTINUOUS
10
4.67238
20
-3.22671
11
4.67104
21
-3.22519
0
LINE
8
BLACK
6
CONTINUOUS
10
4.67104
20
-3.22519
11
4.67099
21
-3.22318
0
LINE
8
BLACK
6
CONTINUOUS
10
4.67099
20
-3.22318
11
4.68411
21
-3.18381
0
LINE
8
BLACK
6
CONTINUOUS
10
4.68411
20
-3.18381
11
4.6846
21
-3.1829
0
LINE
8
BLACK
6
CONTINUOUS
10
4.6846
20
-3.1829
11
4.68467
21
-3.18286
0
LINE
8
BLACK
6
CONTINUOUS
10
4.68467
20
-3.18286
11
4.6847
21
-3.18278
0
LINE
8
BLACK
6
CONTINUOUS
10
4.6847
20
-3.18278
11
4.68553
21
-3.18234
0
LINE
8
BLACK
6
CONTINUOUS
10
4.68553
20
-3.18234
11
4.68632
21
-3.18185
0
LINE
8
BLACK
6
CONTINUOUS
10
4.68632
20
-3.18185
11
4.68641
21
-3.18186
0
LINE
8
BLACK
6
CONTINUOUS
10
4.68641
20
-3.18186
11
4.68648
21
-3.18182
0
LINE
8
BLACK
6
CONTINUOUS
10
4.68648
20
-3.18182
11
4.6874
21
-3.18201
0
LINE
8
BLACK
6
CONTINUOUS
10
4.68164
20
-3.20991
11
4.69219
21
-3.20991
0
LINE
8
BLACK
6
CONTINUOUS
10
4.69219
20
-3.20991
11
4.68691
21
-3.19408
0
LINE
8
BLACK
6
CONTINUOUS
10
4.68691
20
-3.19408
11
4.68164
21
-3.20991
0
LINE
8
BLACK
6
CONTINUOUS
10
4.64793
20
-3.19222
11
4.64862
21
-3.19411
0
LINE
8
BLACK
6
CONTINUOUS
10
4.64862
20
-3.19411
11
4.64862
21
-3.20616
0
LINE
8
BLACK
6
CONTINUOUS
10
4.64862
20
-3.20616
11
4.66067
21
-3.20616
0
LINE
8
BLACK
6
CONTINUOUS
10
4.66067
20
-3.20616
11
4.66168
21
-3.20634
0
LINE
8
BLACK
6
CONTINUOUS
10
4.66168
20
-3.20634
11
4.66322
21
-3.20763
0
LINE
8
BLACK
6
CONTINUOUS
10
4.66322
20
-3.20763
11
4.66358
21
-3.20962
0
LINE
8
BLACK
6
CONTINUOUS
10
4.66358
20
-3.20962
11
4.66257
21
-3.21137
0
LINE
8
BLACK
6
CONTINUOUS
10
4.66257
20
-3.21137
11
4.66067
21
-3.21206
0
LINE
8
BLACK
6
CONTINUOUS
10
4.66067
20
-3.21206
11
4.64862
21
-3.21206
0
LINE
8
BLACK
6
CONTINUOUS
10
4.64862
20
-3.21206
11
4.64862
21
-3.22411
0
LINE
8
BLACK
6
CONTINUOUS
10
4.64862
20
-3.22411
11
4.64844
21
-3.22512
0
LINE
8
BLACK
6
CONTINUOUS
10
4.64844
20
-3.22512
11
4.64715
21
-3.22667
0
LINE
8
BLACK
6
CONTINUOUS
10
4.64715
20
-3.22667
11
4.64516
21
-3.22702
0
LINE
8
BLACK
6
CONTINUOUS
10
4.64516
20
-3.22702
11
4.64341
21
-3.22601
0
LINE
8
BLACK
6
CONTINUOUS
10
4.64341
20
-3.22601
11
4.64272
21
-3.22411
0
LINE
8
BLACK
6
CONTINUOUS
10
4.64272
20
-3.22411
11
4.64272
21
-3.21206
0
LINE
8
BLACK
6
CONTINUOUS
10
4.64272
20
-3.21206
11
4.63067
21
-3.21206
0
LINE
8
BLACK
6
CONTINUOUS
10
4.63067
20
-3.21206
11
4.62966
21
-3.21189
0
LINE
8
BLACK
6
CONTINUOUS
10
4.62966
20
-3.21189
11
4.62811
21
-3.21059
0
LINE
8
BLACK
6
CONTINUOUS
10
4.62811
20
-3.21059
11
4.62776
21
-3.2086
0
LINE
8
BLACK
6
CONTINUOUS
10
4.62776
20
-3.2086
11
4.62877
21
-3.20685
0
LINE
8
BLACK
6
CONTINUOUS
10
4.62877
20
-3.20685
11
4.63067
21
-3.20616
0
LINE
8
BLACK
6
CONTINUOUS
10
4.63067
20
-3.20616
11
4.64272
21
-3.20616
0
LINE
8
BLACK
6
CONTINUOUS
10
4.64272
20
-3.20616
11
4.64272
21
-3.19411
0
LINE
8
BLACK
6
CONTINUOUS
10
4.64272
20
-3.19411
11
4.64289
21
-3.1931
0
LINE
8
BLACK
6
CONTINUOUS
10
4.64289
20
-3.1931
11
4.64419
21
-3.19156
0
LINE
8
BLACK
6
CONTINUOUS
10
4.64419
20
-3.19156
11
4.64618
21
-3.19121
0
LINE
8
BLACK
6
CONTINUOUS
10
4.64618
20
-3.19121
11
4.64793
21
-3.19222
0
LINE
8
BLACK
6
CONTINUOUS
10
4.54919
20
-3.20634
11
4.55074
21
-3.20763
0
LINE
8
BLACK
6
CONTINUOUS
10
4.55074
20
-3.20763
11
4.55109
21
-3.20962
0
LINE
8
BLACK
6
CONTINUOUS
10
4.55109
20
-3.20962
11
4.55008
21
-3.21137
0
LINE
8
BLACK
6
CONTINUOUS
10
4.55008
20
-3.21137
11
4.54818
21
-3.21206
0
LINE
8
BLACK
6
CONTINUOUS
10
4.54818
20
-3.21206
11
4.51819
21
-3.21206
0
LINE
8
BLACK
6
CONTINUOUS
10
4.51819
20
-3.21206
11
4.51718
21
-3.21189
0
LINE
8
BLACK
6
CONTINUOUS
10
4.51718
20
-3.21189
11
4.51563
21
-3.21059
0
LINE
8
BLACK
6
CONTINUOUS
10
4.51563
20
-3.21059
11
4.51528
21
-3.2086
0
LINE
8
BLACK
6
CONTINUOUS
10
4.51528
20
-3.2086
11
4.51629
21
-3.20685
0
LINE
8
BLACK
6
CONTINUOUS
10
4.51629
20
-3.20685
11
4.51819
21
-3.20616
0
LINE
8
BLACK
6
CONTINUOUS
10
4.51819
20
-3.20616
11
4.54818
21
-3.20616
0
LINE
8
BLACK
6
CONTINUOUS
10
4.54818
20
-3.20616
11
4.54919
21
-3.20634
0
LINE
8
BLACK
6
CONTINUOUS
10
4.70042
20
-3.05508
11
4.70055
21
-3.05506
0
LINE
8
BLACK
6
CONTINUOUS
10
4.70055
20
-3.05506
11
4.70066
21
-3.05513
0
LINE
8
BLACK
6
CONTINUOUS
10
4.70066
20
-3.05513
11
4.70105
21
-3.05519
0
LINE
8
BLACK
6
CONTINUOUS
10
4.70105
20
-3.05519
11
4.70164
21
-3.05569
0
LINE
8
BLACK
6
CONTINUOUS
10
4.70164
20
-3.05569
11
4.7023
21
-3.05607
0
LINE
8
BLACK
6
CONTINUOUS
10
4.7023
20
-3.05607
11
4.70239
21
-3.05632
0
LINE
8
BLACK
6
CONTINUOUS
10
4.70239
20
-3.05632
11
4.70259
21
-3.05649
0
LINE
8
BLACK
6
CONTINUOUS
10
4.70259
20
-3.05649
11
4.70273
21
-3.05725
0
LINE
8
BLACK
6
CONTINUOUS
10
4.70273
20
-3.05725
11
4.70299
21
-3.05797
0
LINE
8
BLACK
6
CONTINUOUS
10
4.70299
20
-3.05797
11
4.70299
21
-3.09734
0
LINE
8
BLACK
6
CONTINUOUS
10
4.70299
20
-3.09734
11
4.70292
21
-3.09772
0
LINE
8
BLACK
6
CONTINUOUS
10
4.70292
20
-3.09772
11
4.70295
21
-3.09785
0
LINE
8
BLACK
6
CONTINUOUS
10
4.70295
20
-3.09785
11
4.70288
21
-3.09796
0
LINE
8
BLACK
6
CONTINUOUS
10
4.70288
20
-3.09796
11
4.70281
21
-3.09835
0
LINE
8
BLACK
6
CONTINUOUS
10
4.70281
20
-3.09835
11
4.70232
21
-3.09894
0
LINE
8
BLACK
6
CONTINUOUS
10
4.70232
20
-3.09894
11
4.70194
21
-3.0996
0
LINE
8
BLACK
6
CONTINUOUS
10
4.70194
20
-3.0996
11
4.70169
21
-3.09969
0
LINE
8
BLACK
6
CONTINUOUS
10
4.70169
20
-3.09969
11
4.70151
21
-3.09989
0
LINE
8
BLACK
6
CONTINUOUS
10
4.70151
20
-3.09989
11
4.70076
21
-3.10003
0
LINE
8
BLACK
6
CONTINUOUS
10
4.70076
20
-3.10003
11
4.70004
21
-3.10029
0
LINE
8
BLACK
6
CONTINUOUS
10
4.70004
20
-3.10029
11
4.68504
21
-3.10029
0
LINE
8
BLACK
6
CONTINUOUS
10
4.68504
20
-3.10029
11
4.68403
21
-3.10011
0
LINE
8
BLACK
6
CONTINUOUS
10
4.68403
20
-3.10011
11
4.68389
21
-3.1
0
LINE
8
BLACK
6
CONTINUOUS
10
4.68389
20
-3.1
11
4.68372
21
-3.09998
0
LINE
8
BLACK
6
CONTINUOUS
10
4.68372
20
-3.09998
11
4.67997
21
-3.0981
0
LINE
8
BLACK
6
CONTINUOUS
10
4.67997
20
-3.0981
11
4.67926
21
-3.09758
0
LINE
8
BLACK
6
CONTINUOUS
10
4.67926
20
-3.09758
11
4.6792
21
-3.09755
0
LINE
8
BLACK
6
CONTINUOUS
10
4.6792
20
-3.09755
11
4.67733
21
-3.09568
0
LINE
8
BLACK
6
CONTINUOUS
10
4.67733
20
-3.09568
11
4.67682
21
-3.09495
0
LINE
8
BLACK
6
CONTINUOUS
10
4.67682
20
-3.09495
11
4.67677
21
-3.09491
0
LINE
8
BLACK
6
CONTINUOUS
10
4.67677
20
-3.09491
11
4.6749
21
-3.09116
0
LINE
8
BLACK
6
CONTINUOUS
10
4.6749
20
-3.09116
11
4.67461
21
-3.09018
0
LINE
8
BLACK
6
CONTINUOUS
10
4.67461
20
-3.09018
11
4.67465
21
-3.09
0
LINE
8
BLACK
6
CONTINUOUS
10
4.67465
20
-3.09
11
4.67459
21
-3.08984
0
LINE
8
BLACK
6
CONTINUOUS
10
4.67459
20
-3.08984
11
4.67459
21
-3.08421
0
LINE
8
BLACK
6
CONTINUOUS
10
4.67459
20
-3.08421
11
4.67477
21
-3.0832
0
LINE
8
BLACK
6
CONTINUOUS
10
4.67477
20
-3.0832
11
4.67488
21
-3.08307
0
LINE
8
BLACK
6
CONTINUOUS
10
4.67488
20
-3.08307
11
4.6749
21
-3.08289
0
LINE
8
BLACK
6
CONTINUOUS
10
4.6749
20
-3.08289
11
4.67677
21
-3.07914
0
LINE
8
BLACK
6
CONTINUOUS
10
4.67677
20
-3.07914
11
4.6773
21
-3.07844
0
LINE
8
BLACK
6
CONTINUOUS
10
4.6773
20
-3.07844
11
4.67733
21
-3.07838
0
LINE
8
BLACK
6
CONTINUOUS
10
4.67733
20
-3.07838
11
4.6792
21
-3.0765
0
LINE
8
BLACK
6
CONTINUOUS
10
4.6792
20
-3.0765
11
4.68004
21
-3.07591
0
LINE
8
BLACK
6
CONTINUOUS
10
4.68004
20
-3.07591
11
4.68006
21
-3.07591
0
LINE
8
BLACK
6
CONTINUOUS
10
4.68006
20
-3.07591
11
4.6792
21
-3.07505
0
LINE
8
BLACK
6
CONTINUOUS
10
4.6792
20
-3.07505
11
4.6787
21
-3.07433
0
LINE
8
BLACK
6
CONTINUOUS
10
4.6787
20
-3.07433
11
4.67865
21
-3.07429
0
LINE
8
BLACK
6
CONTINUOUS
10
4.67865
20
-3.07429
11
4.67677
21
-3.07054
0
LINE
8
BLACK
6
CONTINUOUS
10
4.67677
20
-3.07054
11
4.67648
21
-3.06955
0
LINE
8
BLACK
6
CONTINUOUS
10
4.67648
20
-3.06955
11
4.67652
21
-3.06938
0
LINE
8
BLACK
6
CONTINUOUS
10
4.67652
20
-3.06938
11
4.67646
21
-3.06922
0
LINE
8
BLACK
6
CONTINUOUS
10
4.67646
20
-3.06922
11
4.67646
21
-3.06547
0
LINE
8
BLACK
6
CONTINUOUS
10
4.67646
20
-3.06547
11
4.67664
21
-3.06446
0
LINE
8
BLACK
6
CONTINUOUS
10
4.67664
20
-3.06446
11
4.67675
21
-3.06432
0
LINE
8
BLACK
6
CONTINUOUS
10
4.67675
20
-3.06432
11
4.67677
21
-3.06415
0
LINE
8
BLACK
6
CONTINUOUS
10
4.67677
20
-3.06415
11
4.67865
21
-3.0604
0
LINE
8
BLACK
6
CONTINUOUS
10
4.67865
20
-3.0604
11
4.67917
21
-3.05969
0
LINE
8
BLACK
6
CONTINUOUS
10
4.67917
20
-3.05969
11
4.6792
21
-3.05963
0
LINE
8
BLACK
6
CONTINUOUS
10
4.6792
20
-3.05963
11
4.68108
21
-3.05775
0
LINE
8
BLACK
6
CONTINUOUS
10
4.68108
20
-3.05775
11
4.6818
21
-3.05725
0
LINE
8
BLACK
6
CONTINUOUS
10
4.6818
20
-3.05725
11
4.68184
21
-3.0572
0
LINE
8
BLACK
6
CONTINUOUS
10
4.68184
20
-3.0572
11
4.68559
21
-3.05533
0
LINE
8
BLACK
6
CONTINUOUS
10
4.68559
20
-3.05533
11
4.68658
21
-3.05503
0
LINE
8
BLACK
6
CONTINUOUS
10
4.68658
20
-3.05503
11
4.68675
21
-3.05508
0
LINE
8
BLACK
6
CONTINUOUS
10
4.68675
20
-3.05508
11
4.68691
21
-3.05501
0
LINE
8
BLACK
6
CONTINUOUS
10
4.68691
20
-3.05501
11
4.70004
21
-3.05501
0
LINE
8
BLACK
6
CONTINUOUS
10
4.70004
20
-3.05501
11
4.70042
21
-3.05508
0
LINE
8
BLACK
6
CONTINUOUS
10
4.68739
20
-3.07967
11
4.68288
21
-3.08117
0
LINE
8
BLACK
6
CONTINUOUS
10
4.68288
20
-3.08117
11
4.68184
21
-3.08221
0
LINE
8
BLACK
6
CONTINUOUS
10
4.68184
20
-3.08221
11
4.68049
21
-3.08491
0
LINE
8
BLACK
6
CONTINUOUS
10
4.68049
20
-3.08491
11
4.68049
21
-3.08914
0
LINE
8
BLACK
6
CONTINUOUS
10
4.68049
20
-3.08914
11
4.68184
21
-3.09184
0
LINE
8
BLACK
6
CONTINUOUS
10
4.68184
20
-3.09184
11
4.68304
21
-3.09304
0
LINE
8
BLACK
6
CONTINUOUS
10
4.68304
20
-3.09304
11
4.68574
21
-3.09439
0
LINE
8
BLACK
6
CONTINUOUS
10
4.68574
20
-3.09439
11
4.69708
21
-3.09439
0
LINE
8
BLACK
6
CONTINUOUS
10
4.69708
20
-3.09439
11
4.69708
21
-3.07967
0
LINE
8
BLACK
6
CONTINUOUS
10
4.69708
20
-3.07967
11
4.68739
21
-3.07967
0
LINE
8
BLACK
6
CONTINUOUS
10
4.68761
20
-3.06092
11
4.68491
21
-3.06227
0
LINE
8
BLACK
6
CONTINUOUS
10
4.68491
20
-3.06227
11
4.68372
21
-3.06347
0
LINE
8
BLACK
6
CONTINUOUS
10
4.68372
20
-3.06347
11
4.68237
21
-3.06616
0
LINE
8
BLACK
6
CONTINUOUS
10
4.68237
20
-3.06616
11
4.68237
21
-3.06852
0
LINE
8
BLACK
6
CONTINUOUS
10
4.68237
20
-3.06852
11
4.68372
21
-3.07122
0
LINE
8
BLACK
6
CONTINUOUS
10
4.68372
20
-3.07122
11
4.68491
21
-3.07241
0
LINE
8
BLACK
6
CONTINUOUS
10
4.68491
20
-3.07241
11
4.68761
21
-3.07376
0
LINE
8
BLACK
6
CONTINUOUS
10
4.68761
20
-3.07376
11
4.69708
21
-3.07376
0
LINE
8
BLACK
6
CONTINUOUS
10
4.69708
20
-3.07376
11
4.69708
21
-3.06092
0
LINE
8
BLACK
6
CONTINUOUS
10
4.69708
20
-3.06092
11
4.68761
21
-3.06092
0
LINE
8
BLACK
6
CONTINUOUS
10
4.58231
20
-3.05508
11
4.58244
21
-3.05506
0
LINE
8
BLACK
6
CONTINUOUS
10
4.58244
20
-3.05506
11
4.58255
21
-3.05513
0
LINE
8
BLACK
6
CONTINUOUS
10
4.58255
20
-3.05513
11
4.58294
21
-3.05519
0
LINE
8
BLACK
6
CONTINUOUS
10
4.58294
20
-3.05519
11
4.58352
21
-3.05569
0
LINE
8
BLACK
6
CONTINUOUS
10
4.58352
20
-3.05569
11
4.58419
21
-3.05607
0
LINE
8
BLACK
6
CONTINUOUS
10
4.58419
20
-3.05607
11
4.58428
21
-3.05632
0
LINE
8
BLACK
6
CONTINUOUS
10
4.58428
20
-3.05632
11
4.58448
21
-3.05649
0
LINE
8
BLACK
6
CONTINUOUS
10
4.58448
20
-3.05649
11
4.58462
21
-3.05725
0
LINE
8
BLACK
6
CONTINUOUS
10
4.58462
20
-3.05725
11
4.58488
21
-3.05797
0
LINE
8
BLACK
6
CONTINUOUS
10
4.58488
20
-3.05797
11
4.58488
21
-3.09734
0
LINE
8
BLACK
6
CONTINUOUS
10
4.58488
20
-3.09734
11
4.58481
21
-3.09772
0
LINE
8
BLACK
6
CONTINUOUS
10
4.58481
20
-3.09772
11
4.58484
21
-3.09785
0
LINE
8
BLACK
6
CONTINUOUS
10
4.58484
20
-3.09785
11
4.58477
21
-3.09796
0
LINE
8
BLACK
6
CONTINUOUS
10
4.58477
20
-3.09796
11
4.5847
21
-3.09835
0
LINE
8
BLACK
6
CONTINUOUS
10
4.5847
20
-3.09835
11
4.58421
21
-3.09894
0
LINE
8
BLACK
6
CONTINUOUS
10
4.58421
20
-3.09894
11
4.58383
21
-3.0996
0
LINE
8
BLACK
6
CONTINUOUS
10
4.58383
20
-3.0996
11
4.58357
21
-3.09969
0
LINE
8
BLACK
6
CONTINUOUS
10
4.58357
20
-3.09969
11
4.5834
21
-3.09989
0
LINE
8
BLACK
6
CONTINUOUS
10
4.5834
20
-3.09989
11
4.58265
21
-3.10003
0
LINE
8
BLACK
6
CONTINUOUS
10
4.58265
20
-3.10003
11
4.58193
21
-3.10029
0
LINE
8
BLACK
6
CONTINUOUS
10
4.58193
20
-3.10029
11
4.56693
21
-3.10029
0
LINE
8
BLACK
6
CONTINUOUS
10
4.56693
20
-3.10029
11
4.56592
21
-3.10011
0
LINE
8
BLACK
6
CONTINUOUS
10
4.56592
20
-3.10011
11
4.56578
21
-3.1
0
LINE
8
BLACK
6
CONTINUOUS
10
4.56578
20
-3.1
11
4.56561
21
-3.09998
0
LINE
8
BLACK
6
CONTINUOUS
10
4.56561
20
-3.09998
11
4.56186
21
-3.0981
0
LINE
8
BLACK
6
CONTINUOUS
10
4.56186
20
-3.0981
11
4.56115
21
-3.09758
0
LINE
8
BLACK
6
CONTINUOUS
10
4.56115
20
-3.09758
11
4.56109
21
-3.09755
0
LINE
8
BLACK
6
CONTINUOUS
10
4.56109
20
-3.09755
11
4.55922
21
-3.09568
0
LINE
8
BLACK
6
CONTINUOUS
10
4.55922
20
-3.09568
11
4.55871
21
-3.09495
0
LINE
8
BLACK
6
CONTINUOUS
10
4.55871
20
-3.09495
11
4.55866
21
-3.09491
0
LINE
8
BLACK
6
CONTINUOUS
10
4.55866
20
-3.09491
11
4.55679
21
-3.09116
0
LINE
8
BLACK
6
CONTINUOUS
10
4.55679
20
-3.09116
11
4.5565
21
-3.09018
0
LINE
8
BLACK
6
CONTINUOUS
10
4.5565
20
-3.09018
11
4.55654
21
-3.09
0
LINE
8
BLACK
6
CONTINUOUS
10
4.55654
20
-3.09
11
4.55648
21
-3.08984
0
LINE
8
BLACK
6
CONTINUOUS
10
4.55648
20
-3.08984
11
4.55648
21
-3.08421
0
LINE
8
BLACK
6
CONTINUOUS
10
4.55648
20
-3.08421
11
4.55666
21
-3.0832
0
LINE
8
BLACK
6
CONTINUOUS
10
4.55666
20
-3.0832
11
4.55677
21
-3.08307
0
LINE
8
BLACK
6
CONTINUOUS
10
4.55677
20
-3.08307
11
4.55679
21
-3.08289
0
LINE
8
BLACK
6
CONTINUOUS
10
4.55679
20
-3.08289
11
4.55866
21
-3.07914
0
LINE
8
BLACK
6
CONTINUOUS
10
4.55866
20
-3.07914
11
4.55919
21
-3.07844
0
LINE
8
BLACK
6
CONTINUOUS
10
4.55919
20
-3.07844
11
4.55922
21
-3.07838
0
LINE
8
BLACK
6
CONTINUOUS
10
4.55922
20
-3.07838
11
4.56109
21
-3.0765
0
LINE
8
BLACK
6
CONTINUOUS
10
4.56109
20
-3.0765
11
4.56193
21
-3.07591
0
LINE
8
BLACK
6
CONTINUOUS
10
4.56193
20
-3.07591
11
4.56195
21
-3.07591
0
LINE
8
BLACK
6
CONTINUOUS
10
4.56195
20
-3.07591
11
4.56109
21
-3.07505
0
LINE
8
BLACK
6
CONTINUOUS
10
4.56109
20
-3.07505
11
4.56059
21
-3.07433
0
LINE
8
BLACK
6
CONTINUOUS
10
4.56059
20
-3.07433
11
4.56054
21
-3.07429
0
LINE
8
BLACK
6
CONTINUOUS
10
4.56054
20
-3.07429
11
4.55866
21
-3.07054
0
LINE
8
BLACK
6
CONTINUOUS
10
4.55866
20
-3.07054
11
4.55837
21
-3.06955
0
LINE
8
BLACK
6
CONTINUOUS
10
4.55837
20
-3.06955
11
4.55841
21
-3.06938
0
LINE
8
BLACK
6
CONTINUOUS
10
4.55841
20
-3.06938
11
4.55835
21
-3.06922
0
LINE
8
BLACK
6
CONTINUOUS
10
4.55835
20
-3.06922
11
4.55835
21
-3.06547
0
LINE
8
BLACK
6
CONTINUOUS
10
4.55835
20
-3.06547
11
4.55853
21
-3.06446
0
LINE
8
BLACK
6
CONTINUOUS
10
4.55853
20
-3.06446
11
4.55864
21
-3.06432
0
LINE
8
BLACK
6
CONTINUOUS
10
4.55864
20
-3.06432
11
4.55866
21
-3.06415
0
LINE
8
BLACK
6
CONTINUOUS
10
4.55866
20
-3.06415
11
4.56054
21
-3.0604
0
LINE
8
BLACK
6
CONTINUOUS
10
4.56054
20
-3.0604
11
4.56106
21
-3.05969
0
LINE
8
BLACK
6
CONTINUOUS
10
4.56106
20
-3.05969
11
4.56109
21
-3.05963
0
LINE
8
BLACK
6
CONTINUOUS
10
4.56109
20
-3.05963
11
4.56297
21
-3.05775
0
LINE
8
BLACK
6
CONTINUOUS
10
4.56297
20
-3.05775
11
4.56369
21
-3.05725
0
LINE
8
BLACK
6
CONTINUOUS
10
4.56369
20
-3.05725
11
4.56373
21
-3.0572
0
LINE
8
BLACK
6
CONTINUOUS
10
4.56373
20
-3.0572
11
4.56748
21
-3.05533
0
LINE
8
BLACK
6
CONTINUOUS
10
4.56748
20
-3.05533
11
4.56847
21
-3.05503
0
LINE
8
BLACK
6
CONTINUOUS
10
4.56847
20
-3.05503
11
4.56864
21
-3.05508
0
LINE
8
BLACK
6
CONTINUOUS
10
4.56864
20
-3.05508
11
4.5688
21
-3.05501
0
LINE
8
BLACK
6
CONTINUOUS
10
4.5688
20
-3.05501
11
4.58193
21
-3.05501
0
LINE
8
BLACK
6
CONTINUOUS
10
4.58193
20
-3.05501
11
4.58231
21
-3.05508
0
LINE
8
BLACK
6
CONTINUOUS
10
4.56928
20
-3.07967
11
4.56477
21
-3.08117
0
LINE
8
BLACK
6
CONTINUOUS
10
4.56477
20
-3.08117
11
4.56373
21
-3.08221
0
LINE
8
BLACK
6
CONTINUOUS
10
4.56373
20
-3.08221
11
4.56238
21
-3.08491
0
LINE
8
BLACK
6
CONTINUOUS
10
4.56238
20
-3.08491
11
4.56238
21
-3.08914
0
LINE
8
BLACK
6
CONTINUOUS
10
4.56238
20
-3.08914
11
4.56373
21
-3.09184
0
LINE
8
BLACK
6
CONTINUOUS
10
4.56373
20
-3.09184
11
4.56493
21
-3.09304
0
LINE
8
BLACK
6
CONTINUOUS
10
4.56493
20
-3.09304
11
4.56763
21
-3.09439
0
LINE
8
BLACK
6
CONTINUOUS
10
4.56763
20
-3.09439
11
4.57897
21
-3.09439
0
LINE
8
BLACK
6
CONTINUOUS
10
4.57897
20
-3.09439
11
4.57897
21
-3.07967
0
LINE
8
BLACK
6
CONTINUOUS
10
4.57897
20
-3.07967
11
4.56928
21
-3.07967
0
LINE
8
BLACK
6
CONTINUOUS
10
4.5695
20
-3.06092
11
4.5668
21
-3.06227
0
LINE
8
BLACK
6
CONTINUOUS
10
4.5668
20
-3.06227
11
4.56561
21
-3.06347
0
LINE
8
BLACK
6
CONTINUOUS
10
4.56561
20
-3.06347
11
4.56426
21
-3.06616
0
LINE
8
BLACK
6
CONTINUOUS
10
4.56426
20
-3.06616
11
4.56426
21
-3.06852
0
LINE
8
BLACK
6
CONTINUOUS
10
4.56426
20
-3.06852
11
4.56561
21
-3.07122
0
LINE
8
BLACK
6
CONTINUOUS
10
4.56561
20
-3.07122
11
4.5668
21
-3.07241
0
LINE
8
BLACK
6
CONTINUOUS
10
4.5668
20
-3.07241
11
4.5695
21
-3.07376
0
LINE
8
BLACK
6
CONTINUOUS
10
4.5695
20
-3.07376
11
4.57897
21
-3.07376
0
LINE
8
BLACK
6
CONTINUOUS
10
4.57897
20
-3.07376
11
4.57897
21
-3.06092
0
LINE
8
BLACK
6
CONTINUOUS
10
4.57897
20
-3.06092
11
4.5695
21
-3.06092
0
LINE
8
BLACK
6
CONTINUOUS
10
4.64793
20
-3.06544
11
4.64862
21
-3.06734
0
LINE
8
BLACK
6
CONTINUOUS
10
4.64862
20
-3.06734
11
4.64862
21
-3.07939
0
LINE
8
BLACK
6
CONTINUOUS
10
4.64862
20
-3.07939
11
4.66067
21
-3.07939
0
LINE
8
BLACK
6
CONTINUOUS
10
4.66067
20
-3.07939
11
4.66168
21
-3.07957
0
LINE
8
BLACK
6
CONTINUOUS
10
4.66168
20
-3.07957
11
4.66322
21
-3.08086
0
LINE
8
BLACK
6
CONTINUOUS
10
4.66322
20
-3.08086
11
4.66358
21
-3.08285
0
LINE
8
BLACK
6
CONTINUOUS
10
4.66358
20
-3.08285
11
4.66257
21
-3.0846
0
LINE
8
BLACK
6
CONTINUOUS
10
4.66257
20
-3.0846
11
4.66067
21
-3.08529
0
LINE
8
BLACK
6
CONTINUOUS
10
4.66067
20
-3.08529
11
4.64862
21
-3.08529
0
LINE
8
BLACK
6
CONTINUOUS
10
4.64862
20
-3.08529
11
4.64862
21
-3.09734
0
LINE
8
BLACK
6
CONTINUOUS
10
4.64862
20
-3.09734
11
4.64844
21
-3.09835
0
LINE
8
BLACK
6
CONTINUOUS
10
4.64844
20
-3.09835
11
4.64715
21
-3.09989
0
LINE
8
BLACK
6
CONTINUOUS
10
4.64715
20
-3.09989
11
4.64516
21
-3.10025
0
LINE
8
BLACK
6
CONTINUOUS
10
4.64516
20
-3.10025
11
4.64341
21
-3.09924
0
LINE
8
BLACK
6
CONTINUOUS
10
4.64341
20
-3.09924
11
4.64272
21
-3.09734
0
LINE
8
BLACK
6
CONTINUOUS
10
4.64272
20
-3.09734
11
4.64272
21
-3.08529
0
LINE
8
BLACK
6
CONTINUOUS
10
4.64272
20
-3.08529
11
4.63067
21
-3.08529
0
LINE
8
BLACK
6
CONTINUOUS
10
4.63067
20
-3.08529
11
4.62966
21
-3.08511
0
LINE
8
BLACK
6
CONTINUOUS
10
4.62966
20
-3.08511
11
4.62811
21
-3.08382
0
LINE
8
BLACK
6
CONTINUOUS
10
4.62811
20
-3.08382
11
4.62776
21
-3.08183
0
LINE
8
BLACK
6
CONTINUOUS
10
4.62776
20
-3.08183
11
4.62877
21
-3.08008
0
LINE
8
BLACK
6
CONTINUOUS
10
4.62877
20
-3.08008
11
4.63067
21
-3.07939
0
LINE
8
BLACK
6
CONTINUOUS
10
4.63067
20
-3.07939
11
4.64272
21
-3.07939
0
LINE
8
BLACK
6
CONTINUOUS
10
4.64272
20
-3.07939
11
4.64272
21
-3.06734
0
LINE
8
BLACK
6
CONTINUOUS
10
4.64272
20
-3.06734
11
4.64289
21
-3.06633
0
LINE
8
BLACK
6
CONTINUOUS
10
4.64289
20
-3.06633
11
4.64419
21
-3.06478
0
LINE
8
BLACK
6
CONTINUOUS
10
4.64419
20
-3.06478
11
4.64618
21
-3.06443
0
LINE
8
BLACK
6
CONTINUOUS
10
4.64618
20
-3.06443
11
4.64793
21
-3.06544
0
LINE
8
BLACK
6
CONTINUOUS
10
4.54357
20
-3.07957
11
4.54511
21
-3.08086
0
LINE
8
BLACK
6
CONTINUOUS
10
4.54511
20
-3.08086
11
4.54547
21
-3.08285
0
LINE
8
BLACK
6
CONTINUOUS
10
4.54547
20
-3.08285
11
4.54446
21
-3.0846
0
LINE
8
BLACK
6
CONTINUOUS
10
4.54446
20
-3.0846
11
4.54256
21
-3.08529
0
LINE
8
BLACK
6
CONTINUOUS
10
4.54256
20
-3.08529
11
4.51256
21
-3.08529
0
LINE
8
BLACK
6
CONTINUOUS
10
4.51256
20
-3.08529
11
4.51155
21
-3.08511
0
LINE
8
BLACK
6
CONTINUOUS
10
4.51155
20
-3.08511
11
4.51
21
-3.08382
0
LINE
8
BLACK
6
CONTINUOUS
10
4.51
20
-3.08382
11
4.50965
21
-3.08183
0
LINE
8
BLACK
6
CONTINUOUS
10
4.50965
20
-3.08183
11
4.51066
21
-3.08008
0
LINE
8
BLACK
6
CONTINUOUS
10
4.51066
20
-3.08008
11
4.51256
21
-3.07939
0
LINE
8
BLACK
6
CONTINUOUS
10
4.51256
20
-3.07939
11
4.54256
21
-3.07939
0
LINE
8
BLACK
6
CONTINUOUS
10
4.54256
20
-3.07939
11
4.54357
21
-3.07957
0
LINE
8
BLACK
6
CONTINUOUS
10
4.68168
20
-2.9293
11
4.68237
21
-2.9312
0
LINE
8
BLACK
6
CONTINUOUS
10
4.68237
20
-2.9312
11
4.68237
21
-2.97057
0
LINE
8
BLACK
6
CONTINUOUS
10
4.68237
20
-2.97057
11
4.68219
21
-2.97158
0
LINE
8
BLACK
6
CONTINUOUS
10
4.68219
20
-2.97158
11
4.68089
21
-2.97312
0
LINE
8
BLACK
6
CONTINUOUS
10
4.68089
20
-2.97312
11
4.6789
21
-2.97347
0
LINE
8
BLACK
6
CONTINUOUS
10
4.6789
20
-2.97347
11
4.67715
21
-2.97246
0
LINE
8
BLACK
6
CONTINUOUS
10
4.67715
20
-2.97246
11
4.67646
21
-2.97057
0
LINE
8
BLACK
6
CONTINUOUS
10
4.67646
20
-2.97057
11
4.67646
21
-2.9312
0
LINE
8
BLACK
6
CONTINUOUS
10
4.67646
20
-2.9312
11
4.67664
21
-2.93019
0
LINE
8
BLACK
6
CONTINUOUS
10
4.67664
20
-2.93019
11
4.67794
21
-2.92864
0
LINE
8
BLACK
6
CONTINUOUS
10
4.67794
20
-2.92864
11
4.67993
21
-2.92829
0
LINE
8
BLACK
6
CONTINUOUS
10
4.67993
20
-2.92829
11
4.68168
21
-2.9293
0
LINE
8
BLACK
6
CONTINUOUS
10
4.64793
20
-2.93867
11
4.64862
21
-2.94057
0
LINE
8
BLACK
6
CONTINUOUS
10
4.64862
20
-2.94057
11
4.64862
21
-2.95262
0
LINE
8
BLACK
6
CONTINUOUS
10
4.64862
20
-2.95262
11
4.66067
21
-2.95262
0
LINE
8
BLACK
6
CONTINUOUS
10
4.66067
20
-2.95262
11
4.66168
21
-2.95279
0
LINE
8
BLACK
6
CONTINUOUS
10
4.66168
20
-2.95279
11
4.66322
21
-2.95409
0
LINE
8
BLACK
6
CONTINUOUS
10
4.66322
20
-2.95409
11
4.66358
21
-2.95608
0
LINE
8
BLACK
6
CONTINUOUS
10
4.66358
20
-2.95608
11
4.66257
21
-2.95783
0
LINE
8
BLACK
6
CONTINUOUS
10
4.66257
20
-2.95783
11
4.66067
21
-2.95852
0
LINE
8
BLACK
6
CONTINUOUS
10
4.66067
20
-2.95852
11
4.64862
21
-2.95852
0
LINE
8
BLACK
6
CONTINUOUS
10
4.64862
20
-2.95852
11
4.64862
21
-2.97057
0
LINE
8
BLACK
6
CONTINUOUS
10
4.64862
20
-2.97057
11
4.64844
21
-2.97158
0
LINE
8
BLACK
6
CONTINUOUS
10
4.64844
20
-2.97158
11
4.64715
21
-2.97312
0
LINE
8
BLACK
6
CONTINUOUS
10
4.64715
20
-2.97312
11
4.64516
21
-2.97347
0
LINE
8
BLACK
6
CONTINUOUS
10
4.64516
20
-2.97347
11
4.64341
21
-2.97246
0
LINE
8
BLACK
6
CONTINUOUS
10
4.64341
20
-2.97246
11
4.64272
21
-2.97057
0
LINE
8
BLACK
6
CONTINUOUS
10
4.64272
20
-2.97057
11
4.64272
21
-2.95852
0
LINE
8
BLACK
6
CONTINUOUS
10
4.64272
20
-2.95852
11
4.63067
21
-2.95852
0
LINE
8
BLACK
6
CONTINUOUS
10
4.63067
20
-2.95852
11
4.62966
21
-2.95834
0
LINE
8
BLACK
6
CONTINUOUS
10
4.62966
20
-2.95834
11
4.62811
21
-2.95704
0
LINE
8
BLACK
6
CONTINUOUS
10
4.62811
20
-2.95704
11
4.62776
21
-2.95506
0
LINE
8
BLACK
6
CONTINUOUS
10
4.62776
20
-2.95506
11
4.62877
21
-2.95331
0
LINE
8
BLACK
6
CONTINUOUS
10
4.62877
20
-2.95331
11
4.63067
21
-2.95262
0
LINE
8
BLACK
6
CONTINUOUS
10
4.63067
20
-2.95262
11
4.64272
21
-2.95262
0
LINE
8
BLACK
6
CONTINUOUS
10
4.64272
20
-2.95262
11
4.64272
21
-2.94057
0
LINE
8
BLACK
6
CONTINUOUS
10
4.64272
20
-2.94057
11
4.64289
21
-2.93956
0
LINE
8
BLACK
6
CONTINUOUS
10
4.64289
20
-2.93956
11
4.64419
21
-2.93801
0
LINE
8
BLACK
6
CONTINUOUS
10
4.64419
20
-2.93801
11
4.64618
21
-2.93766
0
LINE
8
BLACK
6
CONTINUOUS
10
4.64618
20
-2.93766
11
4.64793
21
-2.93867
0
LINE
8
BLACK
6
CONTINUOUS
10
4.58419
20
-2.9293
11
4.58488
21
-2.9312
0
LINE
8
BLACK
6
CONTINUOUS
10
4.58488
20
-2.9312
11
4.58488
21
-2.97057
0
LINE
8
BLACK
6
CONTINUOUS
10
4.58488
20
-2.97057
11
4.5847
21
-2.97158
0
LINE
8
BLACK
6
CONTINUOUS
10
4.5847
20
-2.97158
11
4.5834
21
-2.97312
0
LINE
8
BLACK
6
CONTINUOUS
10
4.5834
20
-2.97312
11
4.58141
21
-2.97347
0
LINE
8
BLACK
6
CONTINUOUS
10
4.58141
20
-2.97347
11
4.57967
21
-2.97246
0
LINE
8
BLACK
6
CONTINUOUS
10
4.57967
20
-2.97246
11
4.57897
21
-2.97057
0
LINE
8
BLACK
6
CONTINUOUS
10
4.57897
20
-2.97057
11
4.57897
21
-2.9312
0
LINE
8
BLACK
6
CONTINUOUS
10
4.57897
20
-2.9312
11
4.57915
21
-2.93019
0
LINE
8
BLACK
6
CONTINUOUS
10
4.57915
20
-2.93019
11
4.58045
21
-2.92864
0
LINE
8
BLACK
6
CONTINUOUS
10
4.58045
20
-2.92864
11
4.58244
21
-2.92829
0
LINE
8
BLACK
6
CONTINUOUS
10
4.58244
20
-2.92829
11
4.58419
21
-2.9293
0
LINE
8
BLACK
6
CONTINUOUS
10
4.56419
20
-2.95279
11
4.56574
21
-2.95409
0
LINE
8
BLACK
6
CONTINUOUS
10
4.56574
20
-2.95409
11
4.56609
21
-2.95608
0
LINE
8
BLACK
6
CONTINUOUS
10
4.56609
20
-2.95608
11
4.56508
21
-2.95783
0
LINE
8
BLACK
6
CONTINUOUS
10
4.56508
20
-2.95783
11
4.56318
21
-2.95852
0
LINE
8
BLACK
6
CONTINUOUS
10
4.56318
20
-2.95852
11
4.53318
21
-2.95852
0
LINE
8
BLACK
6
CONTINUOUS
10
4.53318
20
-2.95852
11
4.53217
21
-2.95834
0
LINE
8
BLACK
6
CONTINUOUS
10
4.53217
20
-2.95834
11
4.53063
21
-2.95704
0
LINE
8
BLACK
6
CONTINUOUS
10
4.53063
20
-2.95704
11
4.53028
21
-2.95506
0
LINE
8
BLACK
6
CONTINUOUS
10
4.53028
20
-2.95506
11
4.53129
21
-2.95331
0
LINE
8
BLACK
6
CONTINUOUS
10
4.53129
20
-2.95331
11
4.53318
21
-2.95262
0
LINE
8
BLACK
6
CONTINUOUS
10
4.53318
20
-2.95262
11
4.56318
21
-2.95262
0
LINE
8
BLACK
6
CONTINUOUS
10
4.56318
20
-2.95262
11
4.56419
21
-2.95279
0
LINE
8
BLACK
6
CONTINUOUS
10
4.6407
20
-2.8016
11
4.64087
21
-2.80159
0
LINE
8
BLACK
6
CONTINUOUS
10
4.64087
20
-2.80159
11
4.64156
21
-2.8021
0
LINE
8
BLACK
6
CONTINUOUS
10
4.64156
20
-2.8021
11
4.64231
21
-2.80253
0
LINE
8
BLACK
6
CONTINUOUS
10
4.64231
20
-2.80253
11
4.64236
21
-2.80269
0
LINE
8
BLACK
6
CONTINUOUS
10
4.64236
20
-2.80269
11
4.6425
21
-2.80279
0
LINE
8
BLACK
6
CONTINUOUS
10
4.6425
20
-2.80279
11
4.64609
21
-2.80817
0
LINE
8
BLACK
6
CONTINUOUS
10
4.64609
20
-2.80817
11
4.64929
21
-2.81137
0
LINE
8
BLACK
6
CONTINUOUS
10
4.64929
20
-2.81137
11
4.65261
21
-2.81303
0
LINE
8
BLACK
6
CONTINUOUS
10
4.65261
20
-2.81303
11
4.65344
21
-2.81364
0
LINE
8
BLACK
6
CONTINUOUS
10
4.65344
20
-2.81364
11
4.65424
21
-2.8155
0
LINE
8
BLACK
6
CONTINUOUS
10
4.65424
20
-2.8155
11
4.65367
21
-2.81743
0
LINE
8
BLACK
6
CONTINUOUS
10
4.65367
20
-2.81743
11
4.65198
21
-2.81854
0
LINE
8
BLACK
6
CONTINUOUS
10
4.65198
20
-2.81854
11
4.64997
21
-2.81831
0
LINE
8
BLACK
6
CONTINUOUS
10
4.64997
20
-2.81831
11
4.64622
21
-2.81644
0
LINE
8
BLACK
6
CONTINUOUS
10
4.64622
20
-2.81644
11
4.64551
21
-2.81591
0
LINE
8
BLACK
6
CONTINUOUS
10
4.64551
20
-2.81591
11
4.64546
21
-2.81589
0
LINE
8
BLACK
6
CONTINUOUS
10
4.64546
20
-2.81589
11
4.643
21
-2.81343
0
LINE
8
BLACK
6
CONTINUOUS
10
4.643
20
-2.81343
11
4.643
21
-2.84084
0
LINE
8
BLACK
6
CONTINUOUS
10
4.643
20
-2.84084
11
4.65129
21
-2.84084
0
LINE
8
BLACK
6
CONTINUOUS
10
4.65129
20
-2.84084
11
4.6523
21
-2.84102
0
LINE
8
BLACK
6
CONTINUOUS
10
4.6523
20
-2.84102
11
4.65385
21
-2.84232
0
LINE
8
BLACK
6
CONTINUOUS
10
4.65385
20
-2.84232
11
4.6542
21
-2.84431
0
LINE
8
BLACK
6
CONTINUOUS
10
4.6542
20
-2.84431
11
4.65319
21
-2.84606
0
LINE
8
BLACK
6
CONTINUOUS
10
4.65319
20
-2.84606
11
4.65129
21
-2.84675
0
LINE
8
BLACK
6
CONTINUOUS
10
4.65129
20
-2.84675
11
4.6288
21
-2.84675
0
LINE
8
BLACK
6
CONTINUOUS
10
4.6288
20
-2.84675
11
4.62779
21
-2.84657
0
LINE
8
BLACK
6
CONTINUOUS
10
4.62779
20
-2.84657
11
4.62624
21
-2.84527
0
LINE
8
BLACK
6
CONTINUOUS
10
4.62624
20
-2.84527
11
4.62589
21
-2.84328
0
LINE
8
BLACK
6
CONTINUOUS
10
4.62589
20
-2.84328
11
4.6269
21
-2.84153
0
LINE
8
BLACK
6
CONTINUOUS
10
4.6269
20
-2.84153
11
4.6288
21
-2.84084
0
LINE
8
BLACK
6
CONTINUOUS
10
4.6288
20
-2.84084
11
4.63709
21
-2.84084
0
LINE
8
BLACK
6
CONTINUOUS
10
4.63709
20
-2.84084
11
4.63709
21
-2.80442
0
LINE
8
BLACK
6
CONTINUOUS
10
4.63709
20
-2.80442
11
4.63727
21
-2.80341
0
LINE
8
BLACK
6
CONTINUOUS
10
4.63727
20
-2.80341
11
4.63738
21
-2.80328
0
LINE
8
BLACK
6
CONTINUOUS
10
4.63738
20
-2.80328
11
4.6374
21
-2.80312
0
LINE
8
BLACK
6
CONTINUOUS
10
4.6374
20
-2.80312
11
4.63802
21
-2.80252
0
LINE
8
BLACK
6
CONTINUOUS
10
4.63802
20
-2.80252
11
4.63857
21
-2.80187
0
LINE
8
BLACK
6
CONTINUOUS
10
4.63857
20
-2.80187
11
4.63874
21
-2.80184
0
LINE
8
BLACK
6
CONTINUOUS
10
4.63874
20
-2.80184
11
4.63886
21
-2.80172
0
LINE
8
BLACK
6
CONTINUOUS
10
4.63886
20
-2.80172
11
4.63971
21
-2.80167
0
LINE
8
BLACK
6
CONTINUOUS
10
4.63971
20
-2.80167
11
4.64056
21
-2.80152
0
LINE
8
BLACK
6
CONTINUOUS
10
4.64056
20
-2.80152
11
4.6407
21
-2.8016
0
LINE
8
BLACK
6
CONTINUOUS
10
4.54919
20
-2.80165
11
4.54933
21
-2.80176
0
LINE
8
BLACK
6
CONTINUOUS
10
4.54933
20
-2.80176
11
4.5495
21
-2.80178
0
LINE
8
BLACK
6
CONTINUOUS
10
4.5495
20
-2.80178
11
4.55325
21
-2.80366
0
LINE
8
BLACK
6
CONTINUOUS
10
4.55325
20
-2.80366
11
4.55396
21
-2.80418
0
LINE
8
BLACK
6
CONTINUOUS
10
4.55396
20
-2.80418
11
4.55402
21
-2.80421
0
LINE
8
BLACK
6
CONTINUOUS
10
4.55402
20
-2.80421
11
4.55589
21
-2.80609
0
LINE
8
BLACK
6
CONTINUOUS
10
4.55589
20
-2.80609
11
4.55648
21
-2.80693
0
LINE
8
BLACK
6
CONTINUOUS
10
4.55648
20
-2.80693
11
4.55666
21
-2.80894
0
LINE
8
BLACK
6
CONTINUOUS
10
4.55666
20
-2.80894
11
4.5555
21
-2.81059
0
LINE
8
BLACK
6
CONTINUOUS
10
4.5555
20
-2.81059
11
4.55355
21
-2.81112
0
LINE
8
BLACK
6
CONTINUOUS
10
4.55355
20
-2.81112
11
4.55172
21
-2.81026
0
LINE
8
BLACK
6
CONTINUOUS
10
4.55172
20
-2.81026
11
4.55018
21
-2.80873
0
LINE
8
BLACK
6
CONTINUOUS
10
4.55018
20
-2.80873
11
4.54748
21
-2.80738
0
LINE
8
BLACK
6
CONTINUOUS
10
4.54748
20
-2.80738
11
4.5395
21
-2.80738
0
LINE
8
BLACK
6
CONTINUOUS
10
4.5395
20
-2.80738
11
4.53681
21
-2.80873
0
LINE
8
BLACK
6
CONTINUOUS
10
4.53681
20
-2.80873
11
4.53561
21
-2.80992
0
LINE
8
BLACK
6
CONTINUOUS
10
4.53561
20
-2.80992
11
4.53426
21
-2.81262
0
LINE
8
BLACK
6
CONTINUOUS
10
4.53426
20
-2.81262
11
4.53426
21
-2.81519
0
LINE
8
BLACK
6
CONTINUOUS
10
4.53426
20
-2.81519
11
4.53576
21
-2.8197
0
LINE
8
BLACK
6
CONTINUOUS
10
4.53576
20
-2.8197
11
4.55777
21
-2.84171
0
LINE
8
BLACK
6
CONTINUOUS
10
4.55777
20
-2.84171
11
4.55814
21
-2.84223
0
LINE
8
BLACK
6
CONTINUOUS
10
4.55814
20
-2.84223
11
4.55824
21
-2.84232
0
LINE
8
BLACK
6
CONTINUOUS
10
4.55824
20
-2.84232
11
4.55825
21
-2.8424
0
LINE
8
BLACK
6
CONTINUOUS
10
4.55825
20
-2.8424
11
4.55836
21
-2.84255
0
LINE
8
BLACK
6
CONTINUOUS
10
4.55836
20
-2.84255
11
4.55843
21
-2.84343
0
LINE
8
BLACK
6
CONTINUOUS
10
4.55843
20
-2.84343
11
4.55859
21
-2.84431
0
LINE
8
BLACK
6
CONTINUOUS
10
4.55859
20
-2.84431
11
4.55852
21
-2.84442
0
LINE
8
BLACK
6
CONTINUOUS
10
4.55852
20
-2.84442
11
4.55853
21
-2.84456
0
LINE
8
BLACK
6
CONTINUOUS
10
4.55853
20
-2.84456
11
4.55802
21
-2.84529
0
LINE
8
BLACK
6
CONTINUOUS
10
4.55802
20
-2.84529
11
4.55758
21
-2.84606
0
LINE
8
BLACK
6
CONTINUOUS
10
4.55758
20
-2.84606
11
4.55745
21
-2.8461
0
LINE
8
BLACK
6
CONTINUOUS
10
4.55745
20
-2.8461
11
4.55737
21
-2.84621
0
LINE
8
BLACK
6
CONTINUOUS
10
4.55737
20
-2.84621
11
4.55652
21
-2.84644
0
LINE
8
BLACK
6
CONTINUOUS
10
4.55652
20
-2.84644
11
4.55568
21
-2.84675
0
LINE
8
BLACK
6
CONTINUOUS
10
4.55568
20
-2.84675
11
4.53131
21
-2.84675
0
LINE
8
BLACK
6
CONTINUOUS
10
4.53131
20
-2.84675
11
4.5303
21
-2.84657
0
LINE
8
BLACK
6
CONTINUOUS
10
4.5303
20
-2.84657
11
4.52875
21
-2.84527
0
LINE
8
BLACK
6
CONTINUOUS
10
4.52875
20
-2.84527
11
4.5284
21
-2.84328
0
LINE
8
BLACK
6
CONTINUOUS
10
4.5284
20
-2.84328
11
4.52941
21
-2.84153
0
LINE
8
BLACK
6
CONTINUOUS
10
4.52941
20
-2.84153
11
4.53131
21
-2.84084
0
LINE
8
BLACK
6
CONTINUOUS
10
4.53131
20
-2.84084
11
4.54855
21
-2.84084
0
LINE
8
BLACK
6
CONTINUOUS
10
4.54855
20
-2.84084
11
4.5311
21
-2.82339
0
LINE
8
BLACK
6
CONTINUOUS
10
4.5311
20
-2.82339
11
4.53051
21
-2.82255
0
LINE
8
BLACK
6
CONTINUOUS
10
4.53051
20
-2.82255
11
4.53049
21
-2.82237
0
LINE
8
BLACK
6
CONTINUOUS
10
4.53049
20
-2.82237
11
4.53038
21
-2.82223
0
LINE
8
BLACK
6
CONTINUOUS
10
4.53038
20
-2.82223
11
4.52851
21
-2.81661
0
LINE
8
BLACK
6
CONTINUOUS
10
4.52851
20
-2.81661
11
4.52838
21
-2.81573
0
LINE
8
BLACK
6
CONTINUOUS
10
4.52838
20
-2.81573
11
4.52836
21
-2.81567
0
LINE
8
BLACK
6
CONTINUOUS
10
4.52836
20
-2.81567
11
4.52836
21
-2.81192
0
LINE
8
BLACK
6
CONTINUOUS
10
4.52836
20
-2.81192
11
4.52853
21
-2.81091
0
LINE
8
BLACK
6
CONTINUOUS
10
4.52853
20
-2.81091
11
4.52865
21
-2.81078
0
LINE
8
BLACK
6
CONTINUOUS
10
4.52865
20
-2.81078
11
4.52867
21
-2.8106
0
LINE
8
BLACK
6
CONTINUOUS
10
4.52867
20
-2.8106
11
4.53054
21
-2.80685
0
LINE
8
BLACK
6
CONTINUOUS
10
4.53054
20
-2.80685
11
4.53107
21
-2.80614
0
LINE
8
BLACK
6
CONTINUOUS
10
4.53107
20
-2.80614
11
4.5311
21
-2.80609
0
LINE
8
BLACK
6
CONTINUOUS
10
4.5311
20
-2.80609
11
4.53297
21
-2.80421
0
LINE
8
BLACK
6
CONTINUOUS
10
4.53297
20
-2.80421
11
4.53369
21
-2.80371
0
LINE
8
BLACK
6
CONTINUOUS
10
4.53369
20
-2.80371
11
4.53374
21
-2.80366
0
LINE
8
BLACK
6
CONTINUOUS
10
4.53374
20
-2.80366
11
4.53749
21
-2.80178
0
LINE
8
BLACK
6
CONTINUOUS
10
4.53749
20
-2.80178
11
4.53847
21
-2.80149
0
LINE
8
BLACK
6
CONTINUOUS
10
4.53847
20
-2.80149
11
4.53864
21
-2.80153
0
LINE
8
BLACK
6
CONTINUOUS
10
4.53864
20
-2.80153
11
4.53881
21
-2.80147
0
LINE
8
BLACK
6
CONTINUOUS
10
4.53881
20
-2.80147
11
4.54818
21
-2.80147
0
LINE
8
BLACK
6
CONTINUOUS
10
4.54818
20
-2.80147
11
4.54919
21
-2.80165
0
LINE
8
BLACK
6
CONTINUOUS
10
4.58856
20
-2.80165
11
4.59011
21
-2.80295
0
LINE
8
BLACK
6
CONTINUOUS
10
4.59011
20
-2.80295
11
4.59046
21
-2.80494
0
LINE
8
BLACK
6
CONTINUOUS
10
4.59046
20
-2.80494
11
4.58945
21
-2.80669
0
LINE
8
BLACK
6
CONTINUOUS
10
4.58945
20
-2.80669
11
4.58755
21
-2.80738
0
LINE
8
BLACK
6
CONTINUOUS
10
4.58755
20
-2.80738
11
4.57926
21
-2.80738
0
LINE
8
BLACK
6
CONTINUOUS
10
4.57926
20
-2.80738
11
4.57926
21
-2.84379
0
LINE
8
BLACK
6
CONTINUOUS
10
4.57926
20
-2.84379
11
4.57908
21
-2.8448
0
LINE
8
BLACK
6
CONTINUOUS
10
4.57908
20
-2.8448
11
4.57778
21
-2.84635
0
LINE
8
BLACK
6
CONTINUOUS
10
4.57778
20
-2.84635
11
4.57579
21
-2.8467
0
LINE
8
BLACK
6
CONTINUOUS
10
4.57579
20
-2.8467
11
4.57404
21
-2.84569
0
LINE
8
BLACK
6
CONTINUOUS
10
4.57404
20
-2.84569
11
4.57335
21
-2.84379
0
LINE
8
BLACK
6
CONTINUOUS
10
4.57335
20
-2.84379
11
4.57335
21
-2.80738
0
LINE
8
BLACK
6
CONTINUOUS
10
4.57335
20
-2.80738
11
4.56505
21
-2.80738
0
LINE
8
BLACK
6
CONTINUOUS
10
4.56505
20
-2.80738
11
4.56404
21
-2.8072
0
LINE
8
BLACK
6
CONTINUOUS
10
4.56404
20
-2.8072
11
4.5625
21
-2.8059
0
LINE
8
BLACK
6
CONTINUOUS
10
4.5625
20
-2.8059
11
4.56215
21
-2.80391
0
LINE
8
BLACK
6
CONTINUOUS
10
4.56215
20
-2.80391
11
4.56316
21
-2.80216
0
LINE
8
BLACK
6
CONTINUOUS
10
4.56316
20
-2.80216
11
4.56505
21
-2.80147
0
LINE
8
BLACK
6
CONTINUOUS
10
4.56505
20
-2.80147
11
4.58755
21
-2.80147
0
LINE
8
BLACK
6
CONTINUOUS
10
4.58755
20
-2.80147
11
4.58856
21
-2.80165
0
LINE
8
BLACK
6
CONTINUOUS
10
4.68605
20
-2.80165
11
4.6876
21
-2.80295
0
LINE
8
BLACK
6
CONTINUOUS
10
4.6876
20
-2.80295
11
4.68795
21
-2.80494
0
LINE
8
BLACK
6
CONTINUOUS
10
4.68795
20
-2.80494
11
4.68694
21
-2.80669
0
LINE
8
BLACK
6
CONTINUOUS
10
4.68694
20
-2.80669
11
4.68504
21
-2.80738
0
LINE
8
BLACK
6
CONTINUOUS
10
4.68504
20
-2.80738
11
4.67674
21
-2.80738
0
LINE
8
BLACK
6
CONTINUOUS
10
4.67674
20
-2.80738
11
4.67674
21
-2.84379
0
LINE
8
BLACK
6
CONTINUOUS
10
4.67674
20
-2.84379
11
4.67657
21
-2.8448
0
LINE
8
BLACK
6
CONTINUOUS
10
4.67657
20
-2.8448
11
4.67527
21
-2.84635
0
LINE
8
BLACK
6
CONTINUOUS
10
4.67527
20
-2.84635
11
4.67328
21
-2.8467
0
LINE
8
BLACK
6
CONTINUOUS
10
4.67328
20
-2.8467
11
4.67153
21
-2.84569
0
LINE
8
BLACK
6
CONTINUOUS
10
4.67153
20
-2.84569
11
4.67084
21
-2.84379
0
LINE
8
BLACK
6
CONTINUOUS
10
4.67084
20
-2.84379
11
4.67084
21
-2.80738
0
LINE
8
BLACK
6
CONTINUOUS
10
4.67084
20
-2.80738
11
4.66254
21
-2.80738
0
LINE
8
BLACK
6
CONTINUOUS
10
4.66254
20
-2.80738
11
4.66153
21
-2.8072
0
LINE
8
BLACK
6
CONTINUOUS
10
4.66153
20
-2.8072
11
4.65998
21
-2.8059
0
LINE
8
BLACK
6
CONTINUOUS
10
4.65998
20
-2.8059
11
4.65963
21
-2.80391
0
LINE
8
BLACK
6
CONTINUOUS
10
4.65963
20
-2.80391
11
4.66064
21
-2.80216
0
LINE
8
BLACK
6
CONTINUOUS
10
4.66064
20
-2.80216
11
4.66254
21
-2.80147
0
LINE
8
BLACK
6
CONTINUOUS
10
4.66254
20
-2.80147
11
4.68504
21
-2.80147
0
LINE
8
BLACK
6
CONTINUOUS
10
4.68504
20
-2.80147
11
4.68605
21
-2.80165
0
LINE
8
BLACK
6
CONTINUOUS
10
4.57342
20
-2.67485
11
4.57349
21
-2.67485
0
LINE
8
BLACK
6
CONTINUOUS
10
4.57349
20
-2.67485
11
4.57911
21
-2.67673
0
LINE
8
BLACK
6
CONTINUOUS
10
4.57911
20
-2.67673
11
4.58001
21
-2.67721
0
LINE
8
BLACK
6
CONTINUOUS
10
4.58001
20
-2.67721
11
4.58011
21
-2.67737
0
LINE
8
BLACK
6
CONTINUOUS
10
4.58011
20
-2.67737
11
4.58027
21
-2.67744
0
LINE
8
BLACK
6
CONTINUOUS
10
4.58027
20
-2.67744
11
4.58402
21
-2.68119
0
LINE
8
BLACK
6
CONTINUOUS
10
4.58402
20
-2.68119
11
4.58452
21
-2.68191
0
LINE
8
BLACK
6
CONTINUOUS
10
4.58452
20
-2.68191
11
4.58457
21
-2.68196
0
LINE
8
BLACK
6
CONTINUOUS
10
4.58457
20
-2.68196
11
4.58644
21
-2.68571
0
LINE
8
BLACK
6
CONTINUOUS
10
4.58644
20
-2.68571
11
4.58659
21
-2.68619
0
LINE
8
BLACK
6
CONTINUOUS
10
4.58659
20
-2.68619
11
4.58667
21
-2.68631
0
LINE
8
BLACK
6
CONTINUOUS
10
4.58667
20
-2.68631
11
4.58854
21
-2.69381
0
LINE
8
BLACK
6
CONTINUOUS
10
4.58854
20
-2.69381
11
4.58858
21
-2.6944
0
LINE
8
BLACK
6
CONTINUOUS
10
4.58858
20
-2.6944
11
4.58863
21
-2.69453
0
LINE
8
BLACK
6
CONTINUOUS
10
4.58863
20
-2.69453
11
4.58863
21
-2.70015
0
LINE
8
BLACK
6
CONTINUOUS
10
4.58863
20
-2.70015
11
4.58853
21
-2.70073
0
LINE
8
BLACK
6
CONTINUOUS
10
4.58853
20
-2.70073
11
4.58854
21
-2.70087
0
LINE
8
BLACK
6
CONTINUOUS
10
4.58854
20
-2.70087
11
4.58667
21
-2.70837
0
LINE
8
BLACK
6
CONTINUOUS
10
4.58667
20
-2.70837
11
4.58646
21
-2.70883
0
LINE
8
BLACK
6
CONTINUOUS
10
4.58646
20
-2.70883
11
4.58644
21
-2.70897
0
LINE
8
BLACK
6
CONTINUOUS
10
4.58644
20
-2.70897
11
4.58457
21
-2.71272
0
LINE
8
BLACK
6
CONTINUOUS
10
4.58457
20
-2.71272
11
4.58404
21
-2.71343
0
LINE
8
BLACK
6
CONTINUOUS
10
4.58404
20
-2.71343
11
4.58402
21
-2.71349
0
LINE
8
BLACK
6
CONTINUOUS
10
4.58402
20
-2.71349
11
4.58027
21
-2.71724
0
LINE
8
BLACK
6
CONTINUOUS
10
4.58027
20
-2.71724
11
4.57943
21
-2.71782
0
LINE
8
BLACK
6
CONTINUOUS
10
4.57943
20
-2.71782
11
4.57925
21
-2.71784
0
LINE
8
BLACK
6
CONTINUOUS
10
4.57925
20
-2.71784
11
4.57911
21
-2.71795
0
LINE
8
BLACK
6
CONTINUOUS
10
4.57911
20
-2.71795
11
4.57349
21
-2.71982
0
LINE
8
BLACK
6
CONTINUOUS
10
4.57349
20
-2.71982
11
4.57261
21
-2.71995
0
LINE
8
BLACK
6
CONTINUOUS
10
4.57261
20
-2.71995
11
4.57255
21
-2.71998
0
LINE
8
BLACK
6
CONTINUOUS
10
4.57255
20
-2.71998
11
4.5688
21
-2.71998
0
LINE
8
BLACK
6
CONTINUOUS
10
4.5688
20
-2.71998
11
4.56793
21
-2.71982
0
LINE
8
BLACK
6
CONTINUOUS
10
4.56793
20
-2.71982
11
4.56787
21
-2.71982
0
LINE
8
BLACK
6
CONTINUOUS
10
4.56787
20
-2.71982
11
4.56225
21
-2.71795
0
LINE
8
BLACK
6
CONTINUOUS
10
4.56225
20
-2.71795
11
4.56134
21
-2.71746
0
LINE
8
BLACK
6
CONTINUOUS
10
4.56134
20
-2.71746
11
4.56125
21
-2.71731
0
LINE
8
BLACK
6
CONTINUOUS
10
4.56125
20
-2.71731
11
4.56109
21
-2.71724
0
LINE
8
BLACK
6
CONTINUOUS
10
4.56109
20
-2.71724
11
4.55922
21
-2.71536
0
LINE
8
BLACK
6
CONTINUOUS
10
4.55922
20
-2.71536
11
4.55911
21
-2.71521
0
LINE
8
BLACK
6
CONTINUOUS
10
4.55911
20
-2.71521
11
4.55904
21
-2.71517
0
LINE
8
BLACK
6
CONTINUOUS
10
4.55904
20
-2.71517
11
4.559
21
-2.71505
0
LINE
8
BLACK
6
CONTINUOUS
10
4.559
20
-2.71505
11
4.55863
21
-2.71452
0
LINE
8
BLACK
6
CONTINUOUS
10
4.55863
20
-2.71452
11
4.55857
21
-2.71388
0
LINE
8
BLACK
6
CONTINUOUS
10
4.55857
20
-2.71388
11
4.55835
21
-2.71327
0
LINE
8
BLACK
6
CONTINUOUS
10
4.55835
20
-2.71327
11
4.55835
21
-2.70015
0
LINE
8
BLACK
6
CONTINUOUS
10
4.55835
20
-2.70015
11
4.55842
21
-2.69977
0
LINE
8
BLACK
6
CONTINUOUS
10
4.55842
20
-2.69977
11
4.5584
21
-2.69964
0
LINE
8
BLACK
6
CONTINUOUS
10
4.5584
20
-2.69964
11
4.55846
21
-2.69952
0
LINE
8
BLACK
6
CONTINUOUS
10
4.55846
20
-2.69952
11
4.55853
21
-2.69914
0
LINE
8
BLACK
6
CONTINUOUS
10
4.55853
20
-2.69914
11
4.55902
21
-2.69855
0
LINE
8
BLACK
6
CONTINUOUS
10
4.55902
20
-2.69855
11
4.55941
21
-2.69789
0
LINE
8
BLACK
6
CONTINUOUS
10
4.55941
20
-2.69789
11
4.55966
21
-2.6978
0
LINE
8
BLACK
6
CONTINUOUS
10
4.55966
20
-2.6978
11
4.55983
21
-2.69759
0
LINE
8
BLACK
6
CONTINUOUS
10
4.55983
20
-2.69759
11
4.56058
21
-2.69746
0
LINE
8
BLACK
6
CONTINUOUS
10
4.56058
20
-2.69746
11
4.5613
21
-2.6972
0
LINE
8
BLACK
6
CONTINUOUS
10
4.5613
20
-2.6972
11
4.5688
21
-2.6972
0
LINE
8
BLACK
6
CONTINUOUS
10
4.5688
20
-2.6972
11
4.56981
21
-2.69738
0
LINE
8
BLACK
6
CONTINUOUS
10
4.56981
20
-2.69738
11
4.57136
21
-2.69867
0
LINE
8
BLACK
6
CONTINUOUS
10
4.57136
20
-2.69867
11
4.57171
21
-2.70066
0
LINE
8
BLACK
6
CONTINUOUS
10
4.57171
20
-2.70066
11
4.5707
21
-2.70241
0
LINE
8
BLACK
6
CONTINUOUS
10
4.5707
20
-2.70241
11
4.5688
21
-2.7031
0
LINE
8
BLACK
6
CONTINUOUS
10
4.5688
20
-2.7031
11
4.56426
21
-2.7031
0
LINE
8
BLACK
6
CONTINUOUS
10
4.56426
20
-2.7031
11
4.56426
21
-2.71205
0
LINE
8
BLACK
6
CONTINUOUS
10
4.56426
20
-2.71205
11
4.56477
21
-2.71257
0
LINE
8
BLACK
6
CONTINUOUS
10
4.56477
20
-2.71257
11
4.56928
21
-2.71407
0
LINE
8
BLACK
6
CONTINUOUS
10
4.56928
20
-2.71407
11
4.57207
21
-2.71407
0
LINE
8
BLACK
6
CONTINUOUS
10
4.57207
20
-2.71407
11
4.57658
21
-2.71257
0
LINE
8
BLACK
6
CONTINUOUS
10
4.57658
20
-2.71257
11
4.5795
21
-2.70965
0
LINE
8
BLACK
6
CONTINUOUS
10
4.5795
20
-2.70965
11
4.58102
21
-2.70662
0
LINE
8
BLACK
6
CONTINUOUS
10
4.58102
20
-2.70662
11
4.58272
21
-2.69979
0
LINE
8
BLACK
6
CONTINUOUS
10
4.58272
20
-2.69979
11
4.58272
21
-2.69489
0
LINE
8
BLACK
6
CONTINUOUS
10
4.58272
20
-2.69489
11
4.58102
21
-2.68806
0
LINE
8
BLACK
6
CONTINUOUS
10
4.58102
20
-2.68806
11
4.5795
21
-2.68503
0
LINE
8
BLACK
6
CONTINUOUS
10
4.5795
20
-2.68503
11
4.57658
21
-2.68211
0
LINE
8
BLACK
6
CONTINUOUS
10
4.57658
20
-2.68211
11
4.57207
21
-2.68061
0
LINE
8
BLACK
6
CONTINUOUS
10
4.57207
20
-2.68061
11
4.56763
21
-2.68061
0
LINE
8
BLACK
6
CONTINUOUS
10
4.56763
20
-2.68061
11
4.5645
21
-2.68217
0
LINE
8
BLACK
6
CONTINUOUS
10
4.5645
20
-2.68217
11
4.56352
21
-2.68246
0
LINE
8
BLACK
6
CONTINUOUS
10
4.56352
20
-2.68246
11
4.56155
21
-2.68199
0
LINE
8
BLACK
6
CONTINUOUS
10
4.56155
20
-2.68199
11
4.56035
21
-2.68037
0
LINE
8
BLACK
6
CONTINUOUS
10
4.56035
20
-2.68037
11
4.56047
21
-2.67835
0
LINE
8
BLACK
6
CONTINUOUS
10
4.56047
20
-2.67835
11
4.56186
21
-2.67689
0
LINE
8
BLACK
6
CONTINUOUS
10
4.56186
20
-2.67689
11
4.56561
21
-2.67501
0
LINE
8
BLACK
6
CONTINUOUS
10
4.56561
20
-2.67501
11
4.56659
21
-2.67472
0
LINE
8
BLACK
6
CONTINUOUS
10
4.56659
20
-2.67472
11
4.56676
21
-2.67476
0
LINE
8
BLACK
6
CONTINUOUS
10
4.56676
20
-2.67476
11
4.56693
21
-2.6747
0
LINE
8
BLACK
6
CONTINUOUS
10
4.56693
20
-2.6747
11
4.57255
21
-2.6747
0
LINE
8
BLACK
6
CONTINUOUS
10
4.57255
20
-2.6747
11
4.57342
21
-2.67485
0
LINE
8
BLACK
6
CONTINUOUS
10
4.54482
20
-2.67477
11
4.54494
21
-2.67474
0
LINE
8
BLACK
6
CONTINUOUS
10
4.54494
20
-2.67474
11
4.54506
21
-2.67481
0
LINE
8
BLACK
6
CONTINUOUS
10
4.54506
20
-2.67481
11
4.54544
21
-2.67488
0
LINE
8
BLACK
6
CONTINUOUS
10
4.54544
20
-2.67488
11
4.54603
21
-2.67537
0
LINE
8
BLACK
6
CONTINUOUS
10
4.54603
20
-2.67537
11
4.54669
21
-2.67575
0
LINE
8
BLACK
6
CONTINUOUS
10
4.54669
20
-2.67575
11
4.54678
21
-2.67601
0
LINE
8
BLACK
6
CONTINUOUS
10
4.54678
20
-2.67601
11
4.54699
21
-2.67618
0
LINE
8
BLACK
6
CONTINUOUS
10
4.54699
20
-2.67618
11
4.54712
21
-2.67693
0
LINE
8
BLACK
6
CONTINUOUS
10
4.54712
20
-2.67693
11
4.54738
21
-2.67765
0
LINE
8
BLACK
6
CONTINUOUS
10
4.54738
20
-2.67765
11
4.54738
21
-2.71702
0
LINE
8
BLACK
6
CONTINUOUS
10
4.54738
20
-2.71702
11
4.54732
21
-2.71741
0
LINE
8
BLACK
6
CONTINUOUS
10
4.54732
20
-2.71741
11
4.54734
21
-2.71754
0
LINE
8
BLACK
6
CONTINUOUS
10
4.54734
20
-2.71754
11
4.54727
21
-2.71765
0
LINE
8
BLACK
6
CONTINUOUS
10
4.54727
20
-2.71765
11
4.54721
21
-2.71803
0
LINE
8
BLACK
6
CONTINUOUS
10
4.54721
20
-2.71803
11
4.54671
21
-2.71862
0
LINE
8
BLACK
6
CONTINUOUS
10
4.54671
20
-2.71862
11
4.54633
21
-2.71928
0
LINE
8
BLACK
6
CONTINUOUS
10
4.54633
20
-2.71928
11
4.54608
21
-2.71938
0
LINE
8
BLACK
6
CONTINUOUS
10
4.54608
20
-2.71938
11
4.54591
21
-2.71958
0
LINE
8
BLACK
6
CONTINUOUS
10
4.54591
20
-2.71958
11
4.54515
21
-2.71971
0
LINE
8
BLACK
6
CONTINUOUS
10
4.54515
20
-2.71971
11
4.54443
21
-2.71998
0
LINE
8
BLACK
6
CONTINUOUS
10
4.54443
20
-2.71998
11
4.53506
21
-2.71998
0
LINE
8
BLACK
6
CONTINUOUS
10
4.53506
20
-2.71998
11
4.53419
21
-2.71982
0
LINE
8
BLACK
6
CONTINUOUS
10
4.53419
20
-2.71982
11
4.53412
21
-2.71982
0
LINE
8
BLACK
6
CONTINUOUS
10
4.53412
20
-2.71982
11
4.5285
21
-2.71795
0
LINE
8
BLACK
6
CONTINUOUS
10
4.5285
20
-2.71795
11
4.5276
21
-2.71746
0
LINE
8
BLACK
6
CONTINUOUS
10
4.5276
20
-2.71746
11
4.52751
21
-2.71731
0
LINE
8
BLACK
6
CONTINUOUS
10
4.52751
20
-2.71731
11
4.52735
21
-2.71724
0
LINE
8
BLACK
6
CONTINUOUS
10
4.52735
20
-2.71724
11
4.5236
21
-2.71349
0
LINE
8
BLACK
6
CONTINUOUS
10
4.5236
20
-2.71349
11
4.52309
21
-2.71276
0
LINE
8
BLACK
6
CONTINUOUS
10
4.52309
20
-2.71276
11
4.52304
21
-2.71272
0
LINE
8
BLACK
6
CONTINUOUS
10
4.52304
20
-2.71272
11
4.52117
21
-2.70897
0
LINE
8
BLACK
6
CONTINUOUS
10
4.52117
20
-2.70897
11
4.52102
21
-2.70848
0
LINE
8
BLACK
6
CONTINUOUS
10
4.52102
20
-2.70848
11
4.52094
21
-2.70837
0
LINE
8
BLACK
6
CONTINUOUS
10
4.52094
20
-2.70837
11
4.51907
21
-2.70087
0
LINE
8
BLACK
6
CONTINUOUS
10
4.51907
20
-2.70087
11
4.51903
21
-2.70028
0
LINE
8
BLACK
6
CONTINUOUS
10
4.51903
20
-2.70028
11
4.51898
21
-2.70015
0
LINE
8
BLACK
6
CONTINUOUS
10
4.51898
20
-2.70015
11
4.51898
21
-2.69453
0
LINE
8
BLACK
6
CONTINUOUS
10
4.51898
20
-2.69453
11
4.51908
21
-2.69395
0
LINE
8
BLACK
6
CONTINUOUS
10
4.51908
20
-2.69395
11
4.51907
21
-2.69381
0
LINE
8
BLACK
6
CONTINUOUS
10
4.51907
20
-2.69381
11
4.52094
21
-2.68631
0
LINE
8
BLACK
6
CONTINUOUS
10
4.52094
20
-2.68631
11
4.52115
21
-2.68585
0
LINE
8
BLACK
6
CONTINUOUS
10
4.52115
20
-2.68585
11
4.52117
21
-2.68571
0
LINE
8
BLACK
6
CONTINUOUS
10
4.52117
20
-2.68571
11
4.52304
21
-2.68196
0
LINE
8
BLACK
6
CONTINUOUS
10
4.52304
20
-2.68196
11
4.52357
21
-2.68125
0
LINE
8
BLACK
6
CONTINUOUS
10
4.52357
20
-2.68125
11
4.5236
21
-2.68119
0
LINE
8
BLACK
6
CONTINUOUS
10
4.5236
20
-2.68119
11
4.52735
21
-2.67744
0
LINE
8
BLACK
6
CONTINUOUS
10
4.52735
20
-2.67744
11
4.52819
21
-2.67685
0
LINE
8
BLACK
6
CONTINUOUS
10
4.52819
20
-2.67685
11
4.52836
21
-2.67684
0
LINE
8
BLACK
6
CONTINUOUS
10
4.52836
20
-2.67684
11
4.5285
21
-2.67673
0
LINE
8
BLACK
6
CONTINUOUS
10
4.5285
20
-2.67673
11
4.53412
21
-2.67485
0
LINE
8
BLACK
6
CONTINUOUS
10
4.53412
20
-2.67485
11
4.535
21
-2.67472
0
LINE
8
BLACK
6
CONTINUOUS
10
4.535
20
-2.67472
11
4.53506
21
-2.6747
0
LINE
8
BLACK
6
CONTINUOUS
10
4.53506
20
-2.6747
11
4.54443
21
-2.6747
0
LINE
8
BLACK
6
CONTINUOUS
10
4.54443
20
-2.6747
11
4.54482
21
-2.67477
0
LINE
8
BLACK
6
CONTINUOUS
10
4.53554
20
-2.68061
11
4.53103
21
-2.68211
0
LINE
8
BLACK
6
CONTINUOUS
10
4.53103
20
-2.68211
11
4.52811
21
-2.68503
0
LINE
8
BLACK
6
CONTINUOUS
10
4.52811
20
-2.68503
11
4.5266
21
-2.68806
0
LINE
8
BLACK
6
CONTINUOUS
10
4.5266
20
-2.68806
11
4.52489
21
-2.69489
0
LINE
8
BLACK
6
CONTINUOUS
10
4.52489
20
-2.69489
11
4.52489
21
-2.69979
0
LINE
8
BLACK
6
CONTINUOUS
10
4.52489
20
-2.69979
11
4.5266
21
-2.70662
0
LINE
8
BLACK
6
CONTINUOUS
10
4.5266
20
-2.70662
11
4.52811
21
-2.70965
0
LINE
8
BLACK
6
CONTINUOUS
10
4.52811
20
-2.70965
11
4.53103
21
-2.71257
0
LINE
8
BLACK
6
CONTINUOUS
10
4.53103
20
-2.71257
11
4.53554
21
-2.71407
0
LINE
8
BLACK
6
CONTINUOUS
10
4.53554
20
-2.71407
11
4.54148
21
-2.71407
0
LINE
8
BLACK
6
CONTINUOUS
10
4.54148
20
-2.71407
11
4.54148
21
-2.68061
0
LINE
8
BLACK
6
CONTINUOUS
10
4.54148
20
-2.68061
11
4.53554
21
-2.68061
0
LINE
8
BLACK
6
CONTINUOUS
10
4.65529
20
-2.67479
11
4.65556
21
-2.67474
0
LINE
8
BLACK
6
CONTINUOUS
10
4.65556
20
-2.67474
11
4.65621
21
-2.67513
0
LINE
8
BLACK
6
CONTINUOUS
10
4.65621
20
-2.67513
11
4.65693
21
-2.67538
0
LINE
8
BLACK
6
CONTINUOUS
10
4.65693
20
-2.67538
11
4.65707
21
-2.67562
0
LINE
8
BLACK
6
CONTINUOUS
10
4.65707
20
-2.67562
11
4.65731
21
-2.67575
0
LINE
8
BLACK
6
CONTINUOUS
10
4.65731
20
-2.67575
11
4.65757
21
-2.67647
0
LINE
8
BLACK
6
CONTINUOUS
10
4.65757
20
-2.67647
11
4.65795
21
-2.67713
0
LINE
8
BLACK
6
CONTINUOUS
10
4.65795
20
-2.67713
11
4.6579
21
-2.6774
0
LINE
8
BLACK
6
CONTINUOUS
10
4.6579
20
-2.6774
11
4.658
21
-2.67765
0
LINE
8
BLACK
6
CONTINUOUS
10
4.658
20
-2.67765
11
4.658
21
-2.71702
0
LINE
8
BLACK
6
CONTINUOUS
10
4.658
20
-2.71702
11
4.65782
21
-2.71803
0
LINE
8
BLACK
6
CONTINUOUS
10
4.65782
20
-2.71803
11
4.65652
21
-2.71958
0
LINE
8
BLACK
6
CONTINUOUS
10
4.65652
20
-2.71958
11
4.65453
21
-2.71993
0
LINE
8
BLACK
6
CONTINUOUS
10
4.65453
20
-2.71993
11
4.65278
21
-2.71892
0
LINE
8
BLACK
6
CONTINUOUS
10
4.65278
20
-2.71892
11
4.65209
21
-2.71702
0
LINE
8
BLACK
6
CONTINUOUS
10
4.65209
20
-2.71702
11
4.65209
21
-2.68877
0
LINE
8
BLACK
6
CONTINUOUS
10
4.65209
20
-2.68877
11
4.63511
21
-2.71849
0
LINE
8
BLACK
6
CONTINUOUS
10
4.63511
20
-2.71849
11
4.63445
21
-2.71928
0
LINE
8
BLACK
6
CONTINUOUS
10
4.63445
20
-2.71928
11
4.6342
21
-2.71937
0
LINE
8
BLACK
6
CONTINUOUS
10
4.6342
20
-2.71937
11
4.63402
21
-2.71958
0
LINE
8
BLACK
6
CONTINUOUS
10
4.63402
20
-2.71958
11
4.63327
21
-2.71971
0
LINE
8
BLACK
6
CONTINUOUS
10
4.63327
20
-2.71971
11
4.63256
21
-2.71998
0
LINE
8
BLACK
6
CONTINUOUS
10
4.63256
20
-2.71998
11
4.6323
21
-2.71988
0
LINE
8
BLACK
6
CONTINUOUS
10
4.6323
20
-2.71988
11
4.63203
21
-2.71993
0
LINE
8
BLACK
6
CONTINUOUS
10
4.63203
20
-2.71993
11
4.63137
21
-2.71955
0
LINE
8
BLACK
6
CONTINUOUS
10
4.63137
20
-2.71955
11
4.63066
21
-2.71929
0
LINE
8
BLACK
6
CONTINUOUS
10
4.63066
20
-2.71929
11
4.63052
21
-2.71906
0
LINE
8
BLACK
6
CONTINUOUS
10
4.63052
20
-2.71906
11
4.63028
21
-2.71892
0
LINE
8
BLACK
6
CONTINUOUS
10
4.63028
20
-2.71892
11
4.63002
21
-2.71821
0
LINE
8
BLACK
6
CONTINUOUS
10
4.63002
20
-2.71821
11
4.62964
21
-2.71755
0
LINE
8
BLACK
6
CONTINUOUS
10
4.62964
20
-2.71755
11
4.62969
21
-2.71728
0
LINE
8
BLACK
6
CONTINUOUS
10
4.62969
20
-2.71728
11
4.62959
21
-2.71702
0
LINE
8
BLACK
6
CONTINUOUS
10
4.62959
20
-2.71702
11
4.62959
21
-2.67765
0
LINE
8
BLACK
6
CONTINUOUS
10
4.62959
20
-2.67765
11
4.62977
21
-2.67664
0
LINE
8
BLACK
6
CONTINUOUS
10
4.62977
20
-2.67664
11
4.63107
21
-2.6751
0
LINE
8
BLACK
6
CONTINUOUS
10
4.63107
20
-2.6751
11
4.63306
21
-2.67474
0
LINE
8
BLACK
6
CONTINUOUS
10
4.63306
20
-2.67474
11
4.63481
21
-2.67575
0
LINE
8
BLACK
6
CONTINUOUS
10
4.63481
20
-2.67575
11
4.6355
21
-2.67765
0
LINE
8
BLACK
6
CONTINUOUS
10
4.6355
20
-2.67765
11
4.6355
21
-2.7059
0
LINE
8
BLACK
6
CONTINUOUS
10
4.6355
20
-2.7059
11
4.65248
21
-2.67619
0
LINE
8
BLACK
6
CONTINUOUS
10
4.65248
20
-2.67619
11
4.65314
21
-2.6754
0
LINE
8
BLACK
6
CONTINUOUS
10
4.65314
20
-2.6754
11
4.65339
21
-2.6753
0
LINE
8
BLACK
6
CONTINUOUS
10
4.65339
20
-2.6753
11
4.65357
21
-2.6751
0
LINE
8
BLACK
6
CONTINUOUS
10
4.65357
20
-2.6751
11
4.65432
21
-2.67496
0
LINE
8
BLACK
6
CONTINUOUS
10
4.65432
20
-2.67496
11
4.65503
21
-2.6747
0
LINE
8
BLACK
6
CONTINUOUS
10
4.65503
20
-2.6747
11
4.65529
21
-2.67479
0
LINE
8
BLACK
6
CONTINUOUS
10
4.66971
20
-2.67514
11
4.67097
21
-2.67672
0
LINE
8
BLACK
6
CONTINUOUS
10
4.67097
20
-2.67672
11
4.68129
21
-2.70769
0
LINE
8
BLACK
6
CONTINUOUS
10
4.68129
20
-2.70769
11
4.69161
21
-2.67672
0
LINE
8
BLACK
6
CONTINUOUS
10
4.69161
20
-2.67672
11
4.6921
21
-2.67582
0
LINE
8
BLACK
6
CONTINUOUS
10
4.6921
20
-2.67582
11
4.69382
21
-2.67476
0
LINE
8
BLACK
6
CONTINUOUS
10
4.69382
20
-2.67476
11
4.69582
21
-2.67506
0
LINE
8
BLACK
6
CONTINUOUS
10
4.69582
20
-2.67506
11
4.69716
21
-2.67657
0
LINE
8
BLACK
6
CONTINUOUS
10
4.69716
20
-2.67657
11
4.69721
21
-2.67859
0
LINE
8
BLACK
6
CONTINUOUS
10
4.69721
20
-2.67859
11
4.68409
21
-2.71796
0
LINE
8
BLACK
6
CONTINUOUS
10
4.68409
20
-2.71796
11
4.6836
21
-2.71886
0
LINE
8
BLACK
6
CONTINUOUS
10
4.6836
20
-2.71886
11
4.68353
21
-2.7189
0
LINE
8
BLACK
6
CONTINUOUS
10
4.68353
20
-2.7189
11
4.6835
21
-2.71898
0
LINE
8
BLACK
6
CONTINUOUS
10
4.6835
20
-2.71898
11
4.68268
21
-2.71943
0
LINE
8
BLACK
6
CONTINUOUS
10
4.68268
20
-2.71943
11
4.68188
21
-2.71992
0
LINE
8
BLACK
6
CONTINUOUS
10
4.68188
20
-2.71992
11
4.6818
21
-2.7199
0
LINE
8
BLACK
6
CONTINUOUS
10
4.6818
20
-2.7199
11
4.68172
21
-2.71994
0
LINE
8
BLACK
6
CONTINUOUS
10
4.68172
20
-2.71994
11
4.68081
21
-2.71976
0
LINE
8
BLACK
6
CONTINUOUS
10
4.68081
20
-2.71976
11
4.67988
21
-2.71962
0
LINE
8
BLACK
6
CONTINUOUS
10
4.67988
20
-2.71962
11
4.67983
21
-2.71956
0
LINE
8
BLACK
6
CONTINUOUS
10
4.67983
20
-2.71956
11
4.67974
21
-2.71954
0
LINE
8
BLACK
6
CONTINUOUS
10
4.67974
20
-2.71954
11
4.67916
21
-2.71881
0
LINE
8
BLACK
6
CONTINUOUS
10
4.67916
20
-2.71881
11
4.67854
21
-2.71811
0
LINE
8
BLACK
6
CONTINUOUS
10
4.67854
20
-2.71811
11
4.67854
21
-2.71802
0
LINE
8
BLACK
6
CONTINUOUS
10
4.67854
20
-2.71802
11
4.67849
21
-2.71796
0
LINE
8
BLACK
6
CONTINUOUS
10
4.67849
20
-2.71796
11
4.66537
21
-2.67859
0
LINE
8
BLACK
6
CONTINUOUS
10
4.66537
20
-2.67859
11
4.66521
21
-2.67757
0
LINE
8
BLACK
6
CONTINUOUS
10
4.66521
20
-2.67757
11
4.66596
21
-2.67569
0
LINE
8
BLACK
6
CONTINUOUS
10
4.66596
20
-2.67569
11
4.66773
21
-2.67473
0
LINE
8
BLACK
6
CONTINUOUS
10
4.66773
20
-2.67473
11
4.66971
21
-2.67514
0
LINE
8
BLACK
6
CONTINUOUS
10
5.77135
20
-3.24088
11
5.77103
21
-3.2409
0
LINE
8
BLACK
6
CONTINUOUS
10
5.77103
20
-3.2409
11
5.76766
21
-3.23978
0
LINE
8
BLACK
6
CONTINUOUS
10
5.76766
20
-3.23978
11
5.76731
21
-3.23948
0
LINE
8
BLACK
6
CONTINUOUS
10
5.76731
20
-3.23948
11
5.76689
21
-3.2393
0
LINE
8
BLACK
6
CONTINUOUS
10
5.76689
20
-3.2393
11
5.76464
21
-3.23705
0
LINE
8
BLACK
6
CONTINUOUS
10
5.76464
20
-3.23705
11
5.76451
21
-3.23675
0
LINE
8
BLACK
6
CONTINUOUS
10
5.76451
20
-3.23675
11
5.76427
21
-3.23654
0
LINE
8
BLACK
6
CONTINUOUS
10
5.76427
20
-3.23654
11
5.76314
21
-3.23429
0
LINE
8
BLACK
6
CONTINUOUS
10
5.76314
20
-3.23429
11
5.76313
21
-3.23407
0
LINE
8
BLACK
6
CONTINUOUS
10
5.76313
20
-3.23407
11
5.76299
21
-3.23389
0
LINE
8
BLACK
6
CONTINUOUS
10
5.76299
20
-3.23389
11
5.76187
21
-3.22939
0
LINE
8
BLACK
6
CONTINUOUS
10
5.76187
20
-3.22939
11
5.76191
21
-3.22914
0
LINE
8
BLACK
6
CONTINUOUS
10
5.76191
20
-3.22914
11
5.76181
21
-3.22891
0
LINE
8
BLACK
6
CONTINUOUS
10
5.76181
20
-3.22891
11
5.76181
21
-3.22553
0
LINE
8
BLACK
6
CONTINUOUS
10
5.76181
20
-3.22553
11
5.76191
21
-3.2253
0
LINE
8
BLACK
6
CONTINUOUS
10
5.76191
20
-3.2253
11
5.76187
21
-3.22506
0
LINE
8
BLACK
6
CONTINUOUS
10
5.76187
20
-3.22506
11
5.76299
21
-3.22056
0
LINE
8
BLACK
6
CONTINUOUS
10
5.76299
20
-3.22056
11
5.76313
21
-3.22038
0
LINE
8
BLACK
6
CONTINUOUS
10
5.76313
20
-3.22038
11
5.76314
21
-3.22015
0
LINE
8
BLACK
6
CONTINUOUS
10
5.76314
20
-3.22015
11
5.76427
21
-3.2179
0
LINE
8
BLACK
6
CONTINUOUS
10
5.76427
20
-3.2179
11
5.76451
21
-3.21769
0
LINE
8
BLACK
6
CONTINUOUS
10
5.76451
20
-3.21769
11
5.76464
21
-3.21739
0
LINE
8
BLACK
6
CONTINUOUS
10
5.76464
20
-3.21739
11
5.76689
21
-3.21514
0
LINE
8
BLACK
6
CONTINUOUS
10
5.76689
20
-3.21514
11
5.76731
21
-3.21497
0
LINE
8
BLACK
6
CONTINUOUS
10
5.76731
20
-3.21497
11
5.76766
21
-3.21467
0
LINE
8
BLACK
6
CONTINUOUS
10
5.76766
20
-3.21467
11
5.77103
21
-3.21354
0
LINE
8
BLACK
6
CONTINUOUS
10
5.77103
20
-3.21354
11
5.77135
21
-3.21357
0
LINE
8
BLACK
6
CONTINUOUS
10
5.77135
20
-3.21357
11
5.77165
21
-3.21344
0
LINE
8
BLACK
6
CONTINUOUS
10
5.77165
20
-3.21344
11
5.77728
21
-3.21344
0
LINE
8
BLACK
6
CONTINUOUS
10
5.77728
20
-3.21344
11
5.77867
21
-3.21402
0
LINE
8
BLACK
6
CONTINUOUS
10
5.77867
20
-3.21402
11
5.77925
21
-3.21541
0
LINE
8
BLACK
6
CONTINUOUS
10
5.77925
20
-3.21541
11
5.77925
21
-3.23903
0
LINE
8
BLACK
6
CONTINUOUS
10
5.77925
20
-3.23903
11
5.77867
21
-3.24042
0
LINE
8
BLACK
6
CONTINUOUS
10
5.77867
20
-3.24042
11
5.77728
21
-3.241
0
LINE
8
BLACK
6
CONTINUOUS
10
5.77728
20
-3.241
11
5.77165
21
-3.241
0
LINE
8
BLACK
6
CONTINUOUS
10
5.77165
20
-3.241
11
5.77135
21
-3.24088
0
LINE
8
BLACK
6
CONTINUOUS
10
5.77197
20
-3.21738
11
5.76934
21
-3.21826
0
LINE
8
BLACK
6
CONTINUOUS
10
5.76934
20
-3.21826
11
5.76765
21
-3.21995
0
LINE
8
BLACK
6
CONTINUOUS
10
5.76765
20
-3.21995
11
5.76676
21
-3.22172
0
LINE
8
BLACK
6
CONTINUOUS
10
5.76676
20
-3.22172
11
5.76575
21
-3.22578
0
LINE
8
BLACK
6
CONTINUOUS
10
5.76575
20
-3.22578
11
5.76575
21
-3.22867
0
LINE
8
BLACK
6
CONTINUOUS
10
5.76575
20
-3.22867
11
5.76676
21
-3.23272
0
LINE
8
BLACK
6
CONTINUOUS
10
5.76676
20
-3.23272
11
5.76765
21
-3.23449
0
LINE
8
BLACK
6
CONTINUOUS
10
5.76765
20
-3.23449
11
5.76934
21
-3.23619
0
LINE
8
BLACK
6
CONTINUOUS
10
5.76934
20
-3.23619
11
5.77197
21
-3.23706
0
LINE
8
BLACK
6
CONTINUOUS
10
5.77197
20
-3.23706
11
5.77531
21
-3.23706
0
LINE
8
BLACK
6
CONTINUOUS
10
5.77531
20
-3.23706
11
5.77531
21
-3.21738
0
LINE
8
BLACK
6
CONTINUOUS
10
5.77531
20
-3.21738
11
5.77197
21
-3.21738
0
LINE
8
BLACK
6
CONTINUOUS
10
5.8192
20
-3.21357
11
5.81952
21
-3.21354
0
LINE
8
BLACK
6
CONTINUOUS
10
5.81952
20
-3.21354
11
5.82289
21
-3.21467
0
LINE
8
BLACK
6
CONTINUOUS
10
5.82289
20
-3.21467
11
5.82324
21
-3.21497
0
LINE
8
BLACK
6
CONTINUOUS
10
5.82324
20
-3.21497
11
5.82366
21
-3.21514
0
LINE
8
BLACK
6
CONTINUOUS
10
5.82366
20
-3.21514
11
5.82591
21
-3.21739
0
LINE
8
BLACK
6
CONTINUOUS
10
5.82591
20
-3.21739
11
5.82604
21
-3.21769
0
LINE
8
BLACK
6
CONTINUOUS
10
5.82604
20
-3.21769
11
5.82628
21
-3.2179
0
LINE
8
BLACK
6
CONTINUOUS
10
5.82628
20
-3.2179
11
5.82741
21
-3.22015
0
LINE
8
BLACK
6
CONTINUOUS
10
5.82741
20
-3.22015
11
5.82742
21
-3.22038
0
LINE
8
BLACK
6
CONTINUOUS
10
5.82742
20
-3.22038
11
5.82756
21
-3.22056
0
LINE
8
BLACK
6
CONTINUOUS
10
5.82756
20
-3.22056
11
5.82868
21
-3.22506
0
LINE
8
BLACK
6
CONTINUOUS
10
5.82868
20
-3.22506
11
5.82864
21
-3.2253
0
LINE
8
BLACK
6
CONTINUOUS
10
5.82864
20
-3.2253
11
5.82874
21
-3.22553
0
LINE
8
BLACK
6
CONTINUOUS
10
5.82874
20
-3.22553
11
5.82874
21
-3.22891
0
LINE
8
BLACK
6
CONTINUOUS
10
5.82874
20
-3.22891
11
5.82864
21
-3.22914
0
LINE
8
BLACK
6
CONTINUOUS
10
5.82864
20
-3.22914
11
5.82868
21
-3.22939
0
LINE
8
BLACK
6
CONTINUOUS
10
5.82868
20
-3.22939
11
5.82756
21
-3.23389
0
LINE
8
BLACK
6
CONTINUOUS
10
5.82756
20
-3.23389
11
5.82742
21
-3.23407
0
LINE
8
BLACK
6
CONTINUOUS
10
5.82742
20
-3.23407
11
5.82741
21
-3.23429
0
LINE
8
BLACK
6
CONTINUOUS
10
5.82741
20
-3.23429
11
5.82628
21
-3.23654
0
LINE
8
BLACK
6
CONTINUOUS
10
5.82628
20
-3.23654
11
5.82604
21
-3.23675
0
LINE
8
BLACK
6
CONTINUOUS
10
5.82604
20
-3.23675
11
5.82591
21
-3.23705
0
LINE
8
BLACK
6
CONTINUOUS
10
5.82591
20
-3.23705
11
5.82366
21
-3.2393
0
LINE
8
BLACK
6
CONTINUOUS
10
5.82366
20
-3.2393
11
5.82324
21
-3.23948
0
LINE
8
BLACK
6
CONTINUOUS
10
5.82324
20
-3.23948
11
5.82289
21
-3.23978
0
LINE
8
BLACK
6
CONTINUOUS
10
5.82289
20
-3.23978
11
5.81952
21
-3.2409
0
LINE
8
BLACK
6
CONTINUOUS
10
5.81952
20
-3.2409
11
5.8192
21
-3.24088
0
LINE
8
BLACK
6
CONTINUOUS
10
5.8192
20
-3.24088
11
5.8189
21
-3.241
0
LINE
8
BLACK
6
CONTINUOUS
10
5.8189
20
-3.241
11
5.81665
21
-3.241
0
LINE
8
BLACK
6
CONTINUOUS
10
5.81665
20
-3.241
11
5.81635
21
-3.24088
0
LINE
8
BLACK
6
CONTINUOUS
10
5.81635
20
-3.24088
11
5.81603
21
-3.2409
0
LINE
8
BLACK
6
CONTINUOUS
10
5.81603
20
-3.2409
11
5.81265
21
-3.23978
0
LINE
8
BLACK
6
CONTINUOUS
10
5.81265
20
-3.23978
11
5.8123
21
-3.23948
0
LINE
8
BLACK
6
CONTINUOUS
10
5.8123
20
-3.23948
11
5.81188
21
-3.2393
0
LINE
8
BLACK
6
CONTINUOUS
10
5.81188
20
-3.2393
11
5.81076
21
-3.23817
0
LINE
8
BLACK
6
CONTINUOUS
10
5.81076
20
-3.23817
11
5.81018
21
-3.23678
0
LINE
8
BLACK
6
CONTINUOUS
10
5.81018
20
-3.23678
11
5.81018
21
-3.22891
0
LINE
8
BLACK
6
CONTINUOUS
10
5.81018
20
-3.22891
11
5.81076
21
-3.22752
0
LINE
8
BLACK
6
CONTINUOUS
10
5.81076
20
-3.22752
11
5.81215
21
-3.22694
0
LINE
8
BLACK
6
CONTINUOUS
10
5.81215
20
-3.22694
11
5.81665
21
-3.22694
0
LINE
8
BLACK
6
CONTINUOUS
10
5.81665
20
-3.22694
11
5.81804
21
-3.22752
0
LINE
8
BLACK
6
CONTINUOUS
10
5.81804
20
-3.22752
11
5.81862
21
-3.22891
0
LINE
8
BLACK
6
CONTINUOUS
10
5.81862
20
-3.22891
11
5.81804
21
-3.2303
0
LINE
8
BLACK
6
CONTINUOUS
10
5.81804
20
-3.2303
11
5.81665
21
-3.23088
0
LINE
8
BLACK
6
CONTINUOUS
10
5.81665
20
-3.23088
11
5.81412
21
-3.23088
0
LINE
8
BLACK
6
CONTINUOUS
10
5.81412
20
-3.23088
11
5.81412
21
-3.23597
0
LINE
8
BLACK
6
CONTINUOUS
10
5.81412
20
-3.23597
11
5.81434
21
-3.23619
0
LINE
8
BLACK
6
CONTINUOUS
10
5.81434
20
-3.23619
11
5.81697
21
-3.23706
0
LINE
8
BLACK
6
CONTINUOUS
10
5.81697
20
-3.23706
11
5.81858
21
-3.23706
0
LINE
8
BLACK
6
CONTINUOUS
10
5.81858
20
-3.23706
11
5.82121
21
-3.23619
0
LINE
8
BLACK
6
CONTINUOUS
10
5.82121
20
-3.23619
11
5.8229
21
-3.23449
0
LINE
8
BLACK
6
CONTINUOUS
10
5.8229
20
-3.23449
11
5.82379
21
-3.23272
0
LINE
8
BLACK
6
CONTINUOUS
10
5.82379
20
-3.23272
11
5.8248
21
-3.22867
0
LINE
8
BLACK
6
CONTINUOUS
10
5.8248
20
-3.22867
11
5.8248
21
-3.22578
0
LINE
8
BLACK
6
CONTINUOUS
10
5.8248
20
-3.22578
11
5.82379
21
-3.22172
0
LINE
8
BLACK
6
CONTINUOUS
10
5.82379
20
-3.22172
11
5.8229
21
-3.21995
0
LINE
8
BLACK
6
CONTINUOUS
10
5.8229
20
-3.21995
11
5.82121
21
-3.21826
0
LINE
8
BLACK
6
CONTINUOUS
10
5.82121
20
-3.21826
11
5.81858
21
-3.21738
0
LINE
8
BLACK
6
CONTINUOUS
10
5.81858
20
-3.21738
11
5.81599
21
-3.21738
0
LINE
8
BLACK
6
CONTINUOUS
10
5.81599
20
-3.21738
11
5.81415
21
-3.2183
0
LINE
8
BLACK
6
CONTINUOUS
10
5.81415
20
-3.2183
11
5.81265
21
-3.2184
0
LINE
8
BLACK
6
CONTINUOUS
10
5.81265
20
-3.2184
11
5.81151
21
-3.21742
0
LINE
8
BLACK
6
CONTINUOUS
10
5.81151
20
-3.21742
11
5.81141
21
-3.21591
0
LINE
8
BLACK
6
CONTINUOUS
10
5.81141
20
-3.21591
11
5.81239
21
-3.21477
0
LINE
8
BLACK
6
CONTINUOUS
10
5.81239
20
-3.21477
11
5.81464
21
-3.21365
0
LINE
8
BLACK
6
CONTINUOUS
10
5.81464
20
-3.21365
11
5.8151
21
-3.21362
0
LINE
8
BLACK
6
CONTINUOUS
10
5.8151
20
-3.21362
11
5.81552
21
-3.21344
0
LINE
8
BLACK
6
CONTINUOUS
10
5.81552
20
-3.21344
11
5.8189
21
-3.21344
0
LINE
8
BLACK
6
CONTINUOUS
10
5.8189
20
-3.21344
11
5.8192
21
-3.21357
0
LINE
8
BLACK
6
CONTINUOUS
10
5.8025
20
-3.21364
11
5.803
21
-3.2137
0
LINE
8
BLACK
6
CONTINUOUS
10
5.803
20
-3.2137
11
5.80317
21
-3.21392
0
LINE
8
BLACK
6
CONTINUOUS
10
5.80317
20
-3.21392
11
5.80342
21
-3.21402
0
LINE
8
BLACK
6
CONTINUOUS
10
5.80342
20
-3.21402
11
5.80361
21
-3.21449
0
LINE
8
BLACK
6
CONTINUOUS
10
5.80361
20
-3.21449
11
5.80392
21
-3.21489
0
LINE
8
BLACK
6
CONTINUOUS
10
5.80392
20
-3.21489
11
5.80389
21
-3.21516
0
LINE
8
BLACK
6
CONTINUOUS
10
5.80389
20
-3.21516
11
5.80399
21
-3.21541
0
LINE
8
BLACK
6
CONTINUOUS
10
5.80399
20
-3.21541
11
5.80399
21
-3.23903
0
LINE
8
BLACK
6
CONTINUOUS
10
5.80399
20
-3.23903
11
5.80342
21
-3.24042
0
LINE
8
BLACK
6
CONTINUOUS
10
5.80342
20
-3.24042
11
5.80202
21
-3.241
0
LINE
8
BLACK
6
CONTINUOUS
10
5.80202
20
-3.241
11
5.80063
21
-3.24042
0
LINE
8
BLACK
6
CONTINUOUS
10
5.80063
20
-3.24042
11
5.80006
21
-3.23903
0
LINE
8
BLACK
6
CONTINUOUS
10
5.80006
20
-3.23903
11
5.80006
21
-3.22282
0
LINE
8
BLACK
6
CONTINUOUS
10
5.80006
20
-3.22282
11
5.79024
21
-3.24001
0
LINE
8
BLACK
6
CONTINUOUS
10
5.79024
20
-3.24001
11
5.79002
21
-3.24017
0
LINE
8
BLACK
6
CONTINUOUS
10
5.79002
20
-3.24017
11
5.78992
21
-3.24042
0
LINE
8
BLACK
6
CONTINUOUS
10
5.78992
20
-3.24042
11
5.78945
21
-3.24062
0
LINE
8
BLACK
6
CONTINUOUS
10
5.78945
20
-3.24062
11
5.78904
21
-3.24093
0
LINE
8
BLACK
6
CONTINUOUS
10
5.78904
20
-3.24093
11
5.78878
21
-3.2409
0
LINE
8
BLACK
6
CONTINUOUS
10
5.78878
20
-3.2409
11
5.78853
21
-3.241
0
LINE
8
BLACK
6
CONTINUOUS
10
5.78853
20
-3.241
11
5.78806
21
-3.24081
0
LINE
8
BLACK
6
CONTINUOUS
10
5.78806
20
-3.24081
11
5.78755
21
-3.24074
0
LINE
8
BLACK
6
CONTINUOUS
10
5.78755
20
-3.24074
11
5.78738
21
-3.24053
0
LINE
8
BLACK
6
CONTINUOUS
10
5.78738
20
-3.24053
11
5.78713
21
-3.24042
0
LINE
8
BLACK
6
CONTINUOUS
10
5.78713
20
-3.24042
11
5.78694
21
-3.23995
0
LINE
8
BLACK
6
CONTINUOUS
10
5.78694
20
-3.23995
11
5.78663
21
-3.23955
0
LINE
8
BLACK
6
CONTINUOUS
10
5.78663
20
-3.23955
11
5.78666
21
-3.23928
0
LINE
8
BLACK
6
CONTINUOUS
10
5.78666
20
-3.23928
11
5.78656
21
-3.23903
0
LINE
8
BLACK
6
CONTINUOUS
10
5.78656
20
-3.23903
11
5.78656
21
-3.21541
0
LINE
8
BLACK
6
CONTINUOUS
10
5.78656
20
-3.21541
11
5.78713
21
-3.21402
0
LINE
8
BLACK
6
CONTINUOUS
10
5.78713
20
-3.21402
11
5.78853
21
-3.21344
0
LINE
8
BLACK
6
CONTINUOUS
10
5.78853
20
-3.21344
11
5.78992
21
-3.21402
0
LINE
8
BLACK
6
CONTINUOUS
10
5.78992
20
-3.21402
11
5.79049
21
-3.21541
0
LINE
8
BLACK
6
CONTINUOUS
10
5.79049
20
-3.21541
11
5.79049
21
-3.23162
0
LINE
8
BLACK
6
CONTINUOUS
10
5.79049
20
-3.23162
11
5.80032
21
-3.21443
0
LINE
8
BLACK
6
CONTINUOUS
10
5.80032
20
-3.21443
11
5.80053
21
-3.21427
0
LINE
8
BLACK
6
CONTINUOUS
10
5.80053
20
-3.21427
11
5.80063
21
-3.21402
0
LINE
8
BLACK
6
CONTINUOUS
10
5.80063
20
-3.21402
11
5.8011
21
-3.21382
0
LINE
8
BLACK
6
CONTINUOUS
10
5.8011
20
-3.21382
11
5.80151
21
-3.21351
0
LINE
8
BLACK
6
CONTINUOUS
10
5.80151
20
-3.21351
11
5.80177
21
-3.21355
0
LINE
8
BLACK
6
CONTINUOUS
10
5.80177
20
-3.21355
11
5.80202
21
-3.21344
0
LINE
8
BLACK
6
CONTINUOUS
10
5.80202
20
-3.21344
11
5.8025
21
-3.21364
0
LINE
8
BLACK
6
CONTINUOUS
10
5.62637
20
-2.8357
11
5.6265
21
-2.83567
0
LINE
8
BLACK
6
CONTINUOUS
10
5.6265
20
-2.83567
11
5.62661
21
-2.83574
0
LINE
8
BLACK
6
CONTINUOUS
10
5.62661
20
-2.83574
11
5.62699
21
-2.83581
0
LINE
8
BLACK
6
CONTINUOUS
10
5.62699
20
-2.83581
11
5.62758
21
-2.8363
0
LINE
8
BLACK
6
CONTINUOUS
10
5.62758
20
-2.8363
11
5.62825
21
-2.83668
0
LINE
8
BLACK
6
CONTINUOUS
10
5.62825
20
-2.83668
11
5.62834
21
-2.83694
0
LINE
8
BLACK
6
CONTINUOUS
10
5.62834
20
-2.83694
11
5.62854
21
-2.83711
0
LINE
8
BLACK
6
CONTINUOUS
10
5.62854
20
-2.83711
11
5.62867
21
-2.83786
0
LINE
8
BLACK
6
CONTINUOUS
10
5.62867
20
-2.83786
11
5.62894
21
-2.83858
0
LINE
8
BLACK
6
CONTINUOUS
10
5.62894
20
-2.83858
11
5.62894
21
-3.16142
0
LINE
8
BLACK
6
CONTINUOUS
10
5.62894
20
-3.16142
11
5.62887
21
-3.1618
0
LINE
8
BLACK
6
CONTINUOUS
10
5.62887
20
-3.1618
11
5.62889
21
-3.16193
0
LINE
8
BLACK
6
CONTINUOUS
10
5.62889
20
-3.16193
11
5.62883
21
-3.16204
0
LINE
8
BLACK
6
CONTINUOUS
10
5.62883
20
-3.16204
11
5.62876
21
-3.16243
0
LINE
8
BLACK
6
CONTINUOUS
10
5.62876
20
-3.16243
11
5.62827
21
-3.16301
0
LINE
8
BLACK
6
CONTINUOUS
10
5.62827
20
-3.16301
11
5.62788
21
-3.16368
0
LINE
8
BLACK
6
CONTINUOUS
10
5.62788
20
-3.16368
11
5.62763
21
-3.16377
0
LINE
8
BLACK
6
CONTINUOUS
10
5.62763
20
-3.16377
11
5.62746
21
-3.16397
0
LINE
8
BLACK
6
CONTINUOUS
10
5.62746
20
-3.16397
11
5.62671
21
-3.16411
0
LINE
8
BLACK
6
CONTINUOUS
10
5.62671
20
-3.16411
11
5.62598
21
-3.16437
0
LINE
8
BLACK
6
CONTINUOUS
10
5.62598
20
-3.16437
11
5.39764
21
-3.16437
0
LINE
8
BLACK
6
CONTINUOUS
10
5.39764
20
-3.16437
11
5.39725
21
-3.1643
0
LINE
8
BLACK
6
CONTINUOUS
10
5.39725
20
-3.1643
11
5.39713
21
-3.16433
0
LINE
8
BLACK
6
CONTINUOUS
10
5.39713
20
-3.16433
11
5.39701
21
-3.16426
0
LINE
8
BLACK
6
CONTINUOUS
10
5.39701
20
-3.16426
11
5.39663
21
-3.16419
0
LINE
8
BLACK
6
CONTINUOUS
10
5.39663
20
-3.16419
11
5.39604
21
-3.1637
0
LINE
8
BLACK
6
CONTINUOUS
10
5.39604
20
-3.1637
11
5.39538
21
-3.16332
0
LINE
8
BLACK
6
CONTINUOUS
10
5.39538
20
-3.16332
11
5.39528
21
-3.16306
0
LINE
8
BLACK
6
CONTINUOUS
10
5.39528
20
-3.16306
11
5.39508
21
-3.16289
0
LINE
8
BLACK
6
CONTINUOUS
10
5.39508
20
-3.16289
11
5.39495
21
-3.16214
0
LINE
8
BLACK
6
CONTINUOUS
10
5.39495
20
-3.16214
11
5.39469
21
-3.16142
0
LINE
8
BLACK
6
CONTINUOUS
10
5.39469
20
-3.16142
11
5.39469
21
-2.83858
0
LINE
8
BLACK
6
CONTINUOUS
10
5.39469
20
-2.83858
11
5.39475
21
-2.8382
0
LINE
8
BLACK
6
CONTINUOUS
10
5.39475
20
-2.8382
11
5.39473
21
-2.83807
0
LINE
8
BLACK
6
CONTINUOUS
10
5.39473
20
-2.83807
11
5.3948
21
-2.83796
0
LINE
8
BLACK
6
CONTINUOUS
10
5.3948
20
-2.83796
11
5.39486
21
-2.83757
0
LINE
8
BLACK
6
CONTINUOUS
10
5.39486
20
-2.83757
11
5.39536
21
-2.83699
0
LINE
8
BLACK
6
CONTINUOUS
10
5.39536
20
-2.83699
11
5.39574
21
-2.83632
0
LINE
8
BLACK
6
CONTINUOUS
10
5.39574
20
-2.83632
11
5.39599
21
-2.83623
0
LINE
8
BLACK
6
CONTINUOUS
10
5.39599
20
-2.83623
11
5.39616
21
-2.83603
0
LINE
8
BLACK
6
CONTINUOUS
10
5.39616
20
-2.83603
11
5.39692
21
-2.83589
0
LINE
8
BLACK
6
CONTINUOUS
10
5.39692
20
-2.83589
11
5.39764
21
-2.83563
0
LINE
8
BLACK
6
CONTINUOUS
10
5.39764
20
-2.83563
11
5.62598
21
-2.83563
0
LINE
8
BLACK
6
CONTINUOUS
10
5.62598
20
-2.83563
11
5.62637
21
-2.8357
0
LINE
8
BLACK
6
CONTINUOUS
10
5.40059
20
-2.84154
11
5.40059
21
-3.15846
0
LINE
8
BLACK
6
CONTINUOUS
10
5.40059
20
-3.15846
11
5.62303
21
-3.15846
0
LINE
8
BLACK
6
CONTINUOUS
10
5.62303
20
-3.15846
11
5.62303
21
-2.84154
0
LINE
8
BLACK
6
CONTINUOUS
10
5.62303
20
-2.84154
11
5.40059
21
-2.84154
0
LINE
8
BLACK
6
CONTINUOUS
10
5.45426
20
-3.10233
11
5.45439
21
-3.1023
0
LINE
8
BLACK
6
CONTINUOUS
10
5.45439
20
-3.1023
11
5.45451
21
-3.10237
0
LINE
8
BLACK
6
CONTINUOUS
10
5.45451
20
-3.10237
11
5.45489
21
-3.10244
0
LINE
8
BLACK
6
CONTINUOUS
10
5.45489
20
-3.10244
11
5.45548
21
-3.10293
0
LINE
8
BLACK
6
CONTINUOUS
10
5.45548
20
-3.10293
11
5.45614
21
-3.10331
0
LINE
8
BLACK
6
CONTINUOUS
10
5.45614
20
-3.10331
11
5.45623
21
-3.10356
0
LINE
8
BLACK
6
CONTINUOUS
10
5.45623
20
-3.10356
11
5.45644
21
-3.10374
0
LINE
8
BLACK
6
CONTINUOUS
10
5.45644
20
-3.10374
11
5.45657
21
-3.10449
0
LINE
8
BLACK
6
CONTINUOUS
10
5.45657
20
-3.10449
11
5.45683
21
-3.10521
0
LINE
8
BLACK
6
CONTINUOUS
10
5.45683
20
-3.10521
11
5.45683
21
-3.14458
0
LINE
8
BLACK
6
CONTINUOUS
10
5.45683
20
-3.14458
11
5.45677
21
-3.14497
0
LINE
8
BLACK
6
CONTINUOUS
10
5.45677
20
-3.14497
11
5.45679
21
-3.14509
0
LINE
8
BLACK
6
CONTINUOUS
10
5.45679
20
-3.14509
11
5.45672
21
-3.14521
0
LINE
8
BLACK
6
CONTINUOUS
10
5.45672
20
-3.14521
11
5.45666
21
-3.14559
0
LINE
8
BLACK
6
CONTINUOUS
10
5.45666
20
-3.14559
11
5.45616
21
-3.14618
0
LINE
8
BLACK
6
CONTINUOUS
10
5.45616
20
-3.14618
11
5.45578
21
-3.14684
0
LINE
8
BLACK
6
CONTINUOUS
10
5.45578
20
-3.14684
11
5.45553
21
-3.14693
0
LINE
8
BLACK
6
CONTINUOUS
10
5.45553
20
-3.14693
11
5.45536
21
-3.14714
0
LINE
8
BLACK
6
CONTINUOUS
10
5.45536
20
-3.14714
11
5.4546
21
-3.14727
0
LINE
8
BLACK
6
CONTINUOUS
10
5.4546
20
-3.14727
11
5.45388
21
-3.14753
0
LINE
8
BLACK
6
CONTINUOUS
10
5.45388
20
-3.14753
11
5.44451
21
-3.14753
0
LINE
8
BLACK
6
CONTINUOUS
10
5.44451
20
-3.14753
11
5.44364
21
-3.14738
0
LINE
8
BLACK
6
CONTINUOUS
10
5.44364
20
-3.14738
11
5.44357
21
-3.14738
0
LINE
8
BLACK
6
CONTINUOUS
10
5.44357
20
-3.14738
11
5.43795
21
-3.14551
0
LINE
8
BLACK
6
CONTINUOUS
10
5.43795
20
-3.14551
11
5.43705
21
-3.14502
0
LINE
8
BLACK
6
CONTINUOUS
10
5.43705
20
-3.14502
11
5.43695
21
-3.14487
0
LINE
8
BLACK
6
CONTINUOUS
10
5.43695
20
-3.14487
11
5.43679
21
-3.1448
0
LINE
8
BLACK
6
CONTINUOUS
10
5.43679
20
-3.1448
11
5.43305
21
-3.14105
0
LINE
8
BLACK
6
CONTINUOUS
10
5.43305
20
-3.14105
11
5.43254
21
-3.14032
0
LINE
8
BLACK
6
CONTINUOUS
10
5.43254
20
-3.14032
11
5.43249
21
-3.14028
0
LINE
8
BLACK
6
CONTINUOUS
10
5.43249
20
-3.14028
11
5.43062
21
-3.13653
0
LINE
8
BLACK
6
CONTINUOUS
10
5.43062
20
-3.13653
11
5.43047
21
-3.13604
0
LINE
8
BLACK
6
CONTINUOUS
10
5.43047
20
-3.13604
11
5.43039
21
-3.13592
0
LINE
8
BLACK
6
CONTINUOUS
10
5.43039
20
-3.13592
11
5.42852
21
-3.12843
0
LINE
8
BLACK
6
CONTINUOUS
10
5.42852
20
-3.12843
11
5.42848
21
-3.12784
0
LINE
8
BLACK
6
CONTINUOUS
10
5.42848
20
-3.12784
11
5.42843
21
-3.12771
0
LINE
8
BLACK
6
CONTINUOUS
10
5.42843
20
-3.12771
11
5.42843
21
-3.12208
0
LINE
8
BLACK
6
CONTINUOUS
10
5.42843
20
-3.12208
11
5.42853
21
-3.1215
0
LINE
8
BLACK
6
CONTINUOUS
10
5.42853
20
-3.1215
11
5.42852
21
-3.12137
0
LINE
8
BLACK
6
CONTINUOUS
10
5.42852
20
-3.12137
11
5.43039
21
-3.11387
0
LINE
8
BLACK
6
CONTINUOUS
10
5.43039
20
-3.11387
11
5.4306
21
-3.1134
0
LINE
8
BLACK
6
CONTINUOUS
10
5.4306
20
-3.1134
11
5.43062
21
-3.11327
0
LINE
8
BLACK
6
CONTINUOUS
10
5.43062
20
-3.11327
11
5.43249
21
-3.10952
0
LINE
8
BLACK
6
CONTINUOUS
10
5.43249
20
-3.10952
11
5.43302
21
-3.10881
0
LINE
8
BLACK
6
CONTINUOUS
10
5.43302
20
-3.10881
11
5.43305
21
-3.10875
0
LINE
8
BLACK
6
CONTINUOUS
10
5.43305
20
-3.10875
11
5.43679
21
-3.105
0
LINE
8
BLACK
6
CONTINUOUS
10
5.43679
20
-3.105
11
5.43763
21
-3.10441
0
LINE
8
BLACK
6
CONTINUOUS
10
5.43763
20
-3.10441
11
5.43781
21
-3.1044
0
LINE
8
BLACK
6
CONTINUOUS
10
5.43781
20
-3.1044
11
5.43795
21
-3.10429
0
LINE
8
BLACK
6
CONTINUOUS
10
5.43795
20
-3.10429
11
5.44357
21
-3.10241
0
LINE
8
BLACK
6
CONTINUOUS
10
5.44357
20
-3.10241
11
5.44445
21
-3.10228
0
LINE
8
BLACK
6
CONTINUOUS
10
5.44445
20
-3.10228
11
5.44451
21
-3.10226
0
LINE
8
BLACK
6
CONTINUOUS
10
5.44451
20
-3.10226
11
5.45388
21
-3.10226
0
LINE
8
BLACK
6
CONTINUOUS
10
5.45388
20
-3.10226
11
5.45426
21
-3.10233
0
LINE
8
BLACK
6
CONTINUOUS
10
5.44499
20
-3.10816
11
5.44048
21
-3.10967
0
LINE
8
BLACK
6
CONTINUOUS
10
5.44048
20
-3.10967
11
5.43756
21
-3.11259
0
LINE
8
BLACK
6
CONTINUOUS
10
5.43756
20
-3.11259
11
5.43604
21
-3.11562
0
LINE
8
BLACK
6
CONTINUOUS
10
5.43604
20
-3.11562
11
5.43434
21
-3.12245
0
LINE
8
BLACK
6
CONTINUOUS
10
5.43434
20
-3.12245
11
5.43434
21
-3.12735
0
LINE
8
BLACK
6
CONTINUOUS
10
5.43434
20
-3.12735
11
5.43604
21
-3.13418
0
LINE
8
BLACK
6
CONTINUOUS
10
5.43604
20
-3.13418
11
5.43756
21
-3.13721
0
LINE
8
BLACK
6
CONTINUOUS
10
5.43756
20
-3.13721
11
5.44048
21
-3.14013
0
LINE
8
BLACK
6
CONTINUOUS
10
5.44048
20
-3.14013
11
5.44499
21
-3.14163
0
LINE
8
BLACK
6
CONTINUOUS
10
5.44499
20
-3.14163
11
5.45093
21
-3.14163
0
LINE
8
BLACK
6
CONTINUOUS
10
5.45093
20
-3.14163
11
5.45093
21
-3.10816
0
LINE
8
BLACK
6
CONTINUOUS
10
5.45093
20
-3.10816
11
5.44499
21
-3.10816
0
LINE
8
BLACK
6
CONTINUOUS
10
5.48287
20
-3.10241
11
5.48294
21
-3.10241
0
LINE
8
BLACK
6
CONTINUOUS
10
5.48294
20
-3.10241
11
5.48856
21
-3.10429
0
LINE
8
BLACK
6
CONTINUOUS
10
5.48856
20
-3.10429
11
5.48946
21
-3.10477
0
LINE
8
BLACK
6
CONTINUOUS
10
5.48946
20
-3.10477
11
5.48955
21
-3.10492
0
LINE
8
BLACK
6
CONTINUOUS
10
5.48955
20
-3.10492
11
5.48971
21
-3.105
0
LINE
8
BLACK
6
CONTINUOUS
10
5.48971
20
-3.105
11
5.49346
21
-3.10875
0
LINE
8
BLACK
6
CONTINUOUS
10
5.49346
20
-3.10875
11
5.49397
21
-3.10947
0
LINE
8
BLACK
6
CONTINUOUS
10
5.49397
20
-3.10947
11
5.49402
21
-3.10952
0
LINE
8
BLACK
6
CONTINUOUS
10
5.49402
20
-3.10952
11
5.49589
21
-3.11327
0
LINE
8
BLACK
6
CONTINUOUS
10
5.49589
20
-3.11327
11
5.49604
21
-3.11375
0
LINE
8
BLACK
6
CONTINUOUS
10
5.49604
20
-3.11375
11
5.49612
21
-3.11387
0
LINE
8
BLACK
6
CONTINUOUS
10
5.49612
20
-3.11387
11
5.49799
21
-3.12137
0
LINE
8
BLACK
6
CONTINUOUS
10
5.49799
20
-3.12137
11
5.49803
21
-3.12196
0
LINE
8
BLACK
6
CONTINUOUS
10
5.49803
20
-3.12196
11
5.49808
21
-3.12208
0
LINE
8
BLACK
6
CONTINUOUS
10
5.49808
20
-3.12208
11
5.49808
21
-3.12771
0
LINE
8
BLACK
6
CONTINUOUS
10
5.49808
20
-3.12771
11
5.49798
21
-3.12829
0
LINE
8
BLACK
6
CONTINUOUS
10
5.49798
20
-3.12829
11
5.49799
21
-3.12843
0
LINE
8
BLACK
6
CONTINUOUS
10
5.49799
20
-3.12843
11
5.49612
21
-3.13592
0
LINE
8
BLACK
6
CONTINUOUS
10
5.49612
20
-3.13592
11
5.49591
21
-3.13639
0
LINE
8
BLACK
6
CONTINUOUS
10
5.49591
20
-3.13639
11
5.49589
21
-3.13653
0
LINE
8
BLACK
6
CONTINUOUS
10
5.49589
20
-3.13653
11
5.49402
21
-3.14028
0
LINE
8
BLACK
6
CONTINUOUS
10
5.49402
20
-3.14028
11
5.49349
21
-3.14099
0
LINE
8
BLACK
6
CONTINUOUS
10
5.49349
20
-3.14099
11
5.49346
21
-3.14105
0
LINE
8
BLACK
6
CONTINUOUS
10
5.49346
20
-3.14105
11
5.48971
21
-3.1448
0
LINE
8
BLACK
6
CONTINUOUS
10
5.48971
20
-3.1448
11
5.48887
21
-3.14538
0
LINE
8
BLACK
6
CONTINUOUS
10
5.48887
20
-3.14538
11
5.4887
21
-3.1454
0
LINE
8
BLACK
6
CONTINUOUS
10
5.4887
20
-3.1454
11
5.48856
21
-3.14551
0
LINE
8
BLACK
6
CONTINUOUS
10
5.48856
20
-3.14551
11
5.48294
21
-3.14738
0
LINE
8
BLACK
6
CONTINUOUS
10
5.48294
20
-3.14738
11
5.48206
21
-3.14751
0
LINE
8
BLACK
6
CONTINUOUS
10
5.48206
20
-3.14751
11
5.482
21
-3.14753
0
LINE
8
BLACK
6
CONTINUOUS
10
5.482
20
-3.14753
11
5.47825
21
-3.14753
0
LINE
8
BLACK
6
CONTINUOUS
10
5.47825
20
-3.14753
11
5.47738
21
-3.14738
0
LINE
8
BLACK
6
CONTINUOUS
10
5.47738
20
-3.14738
11
5.47732
21
-3.14738
0
LINE
8
BLACK
6
CONTINUOUS
10
5.47732
20
-3.14738
11
5.47169
21
-3.14551
0
LINE
8
BLACK
6
CONTINUOUS
10
5.47169
20
-3.14551
11
5.47079
21
-3.14502
0
LINE
8
BLACK
6
CONTINUOUS
10
5.47079
20
-3.14502
11
5.4707
21
-3.14487
0
LINE
8
BLACK
6
CONTINUOUS
10
5.4707
20
-3.14487
11
5.47054
21
-3.1448
0
LINE
8
BLACK
6
CONTINUOUS
10
5.47054
20
-3.1448
11
5.46867
21
-3.14292
0
LINE
8
BLACK
6
CONTINUOUS
10
5.46867
20
-3.14292
11
5.46856
21
-3.14277
0
LINE
8
BLACK
6
CONTINUOUS
10
5.46856
20
-3.14277
11
5.46849
21
-3.14273
0
LINE
8
BLACK
6
CONTINUOUS
10
5.46849
20
-3.14273
11
5.46845
21
-3.14261
0
LINE
8
BLACK
6
CONTINUOUS
10
5.46845
20
-3.14261
11
5.46808
21
-3.14208
0
LINE
8
BLACK
6
CONTINUOUS
10
5.46808
20
-3.14208
11
5.46802
21
-3.14144
0
LINE
8
BLACK
6
CONTINUOUS
10
5.46802
20
-3.14144
11
5.4678
21
-3.14083
0
LINE
8
BLACK
6
CONTINUOUS
10
5.4678
20
-3.14083
11
5.4678
21
-3.12771
0
LINE
8
BLACK
6
CONTINUOUS
10
5.4678
20
-3.12771
11
5.46787
21
-3.12733
0
LINE
8
BLACK
6
CONTINUOUS
10
5.46787
20
-3.12733
11
5.46785
21
-3.1272
0
LINE
8
BLACK
6
CONTINUOUS
10
5.46785
20
-3.1272
11
5.46791
21
-3.12708
0
LINE
8
BLACK
6
CONTINUOUS
10
5.46791
20
-3.12708
11
5.46798
21
-3.1267
0
LINE
8
BLACK
6
CONTINUOUS
10
5.46798
20
-3.1267
11
5.46847
21
-3.12611
0
LINE
8
BLACK
6
CONTINUOUS
10
5.46847
20
-3.12611
11
5.46886
21
-3.12545
0
LINE
8
BLACK
6
CONTINUOUS
10
5.46886
20
-3.12545
11
5.46911
21
-3.12536
0
LINE
8
BLACK
6
CONTINUOUS
10
5.46911
20
-3.12536
11
5.46928
21
-3.12515
0
LINE
8
BLACK
6
CONTINUOUS
10
5.46928
20
-3.12515
11
5.47003
21
-3.12502
0
LINE
8
BLACK
6
CONTINUOUS
10
5.47003
20
-3.12502
11
5.47075
21
-3.12476
0
LINE
8
BLACK
6
CONTINUOUS
10
5.47075
20
-3.12476
11
5.47825
21
-3.12476
0
LINE
8
BLACK
6
CONTINUOUS
10
5.47825
20
-3.12476
11
5.47926
21
-3.12493
0
LINE
8
BLACK
6
CONTINUOUS
10
5.47926
20
-3.12493
11
5.48081
21
-3.12623
0
LINE
8
BLACK
6
CONTINUOUS
10
5.48081
20
-3.12623
11
5.48116
21
-3.12822
0
LINE
8
BLACK
6
CONTINUOUS
10
5.48116
20
-3.12822
11
5.48015
21
-3.12997
0
LINE
8
BLACK
6
CONTINUOUS
10
5.48015
20
-3.12997
11
5.47825
21
-3.13066
0
LINE
8
BLACK
6
CONTINUOUS
10
5.47825
20
-3.13066
11
5.47371
21
-3.13066
0
LINE
8
BLACK
6
CONTINUOUS
10
5.47371
20
-3.13066
11
5.47371
21
-3.13961
0
LINE
8
BLACK
6
CONTINUOUS
10
5.47371
20
-3.13961
11
5.47422
21
-3.14013
0
LINE
8
BLACK
6
CONTINUOUS
10
5.47422
20
-3.14013
11
5.47873
21
-3.14163
0
LINE
8
BLACK
6
CONTINUOUS
10
5.47873
20
-3.14163
11
5.48152
21
-3.14163
0
LINE
8
BLACK
6
CONTINUOUS
10
5.48152
20
-3.14163
11
5.48603
21
-3.14013
0
LINE
8
BLACK
6
CONTINUOUS
10
5.48603
20
-3.14013
11
5.48895
21
-3.13721
0
LINE
8
BLACK
6
CONTINUOUS
10
5.48895
20
-3.13721
11
5.49046
21
-3.13418
0
LINE
8
BLACK
6
CONTINUOUS
10
5.49046
20
-3.13418
11
5.49217
21
-3.12735
0
LINE
8
BLACK
6
CONTINUOUS
10
5.49217
20
-3.12735
11
5.49217
21
-3.12245
0
LINE
8
BLACK
6
CONTINUOUS
10
5.49217
20
-3.12245
11
5.49046
21
-3.11562
0
LINE
8
BLACK
6
CONTINUOUS
10
5.49046
20
-3.11562
11
5.48895
21
-3.11259
0
LINE
8
BLACK
6
CONTINUOUS
10
5.48895
20
-3.11259
11
5.48603
21
-3.10967
0
LINE
8
BLACK
6
CONTINUOUS
10
5.48603
20
-3.10967
11
5.48152
21
-3.10816
0
LINE
8
BLACK
6
CONTINUOUS
10
5.48152
20
-3.10816
11
5.47708
21
-3.10816
0
LINE
8
BLACK
6
CONTINUOUS
10
5.47708
20
-3.10816
11
5.47395
21
-3.10973
0
LINE
8
BLACK
6
CONTINUOUS
10
5.47395
20
-3.10973
11
5.47297
21
-3.11002
0
LINE
8
BLACK
6
CONTINUOUS
10
5.47297
20
-3.11002
11
5.471
21
-3.10955
0
LINE
8
BLACK
6
CONTINUOUS
10
5.471
20
-3.10955
11
5.4698
21
-3.10793
0
LINE
8
BLACK
6
CONTINUOUS
10
5.4698
20
-3.10793
11
5.46992
21
-3.10591
0
LINE
8
BLACK
6
CONTINUOUS
10
5.46992
20
-3.10591
11
5.47131
21
-3.10445
0
LINE
8
BLACK
6
CONTINUOUS
10
5.47131
20
-3.10445
11
5.47506
21
-3.10257
0
LINE
8
BLACK
6
CONTINUOUS
10
5.47506
20
-3.10257
11
5.47604
21
-3.10228
0
LINE
8
BLACK
6
CONTINUOUS
10
5.47604
20
-3.10228
11
5.47621
21
-3.10232
0
LINE
8
BLACK
6
CONTINUOUS
10
5.47621
20
-3.10232
11
5.47638
21
-3.10226
0
LINE
8
BLACK
6
CONTINUOUS
10
5.47638
20
-3.10226
11
5.482
21
-3.10226
0
LINE
8
BLACK
6
CONTINUOUS
10
5.482
20
-3.10226
11
5.48287
21
-3.10241
0
LINE
8
BLACK
6
CONTINUOUS
10
5.56474
20
-3.10235
11
5.565
21
-3.1023
0
LINE
8
BLACK
6
CONTINUOUS
10
5.565
20
-3.1023
11
5.56566
21
-3.10268
0
LINE
8
BLACK
6
CONTINUOUS
10
5.56566
20
-3.10268
11
5.56638
21
-3.10294
0
LINE
8
BLACK
6
CONTINUOUS
10
5.56638
20
-3.10294
11
5.56652
21
-3.10318
0
LINE
8
BLACK
6
CONTINUOUS
10
5.56652
20
-3.10318
11
5.56675
21
-3.10331
0
LINE
8
BLACK
6
CONTINUOUS
10
5.56675
20
-3.10331
11
5.56701
21
-3.10403
0
LINE
8
BLACK
6
CONTINUOUS
10
5.56701
20
-3.10403
11
5.5674
21
-3.10469
0
LINE
8
BLACK
6
CONTINUOUS
10
5.5674
20
-3.10469
11
5.56735
21
-3.10496
0
LINE
8
BLACK
6
CONTINUOUS
10
5.56735
20
-3.10496
11
5.56744
21
-3.10521
0
LINE
8
BLACK
6
CONTINUOUS
10
5.56744
20
-3.10521
11
5.56744
21
-3.14458
0
LINE
8
BLACK
6
CONTINUOUS
10
5.56744
20
-3.14458
11
5.56727
21
-3.14559
0
LINE
8
BLACK
6
CONTINUOUS
10
5.56727
20
-3.14559
11
5.56597
21
-3.14714
0
LINE
8
BLACK
6
CONTINUOUS
10
5.56597
20
-3.14714
11
5.56398
21
-3.14749
0
LINE
8
BLACK
6
CONTINUOUS
10
5.56398
20
-3.14749
11
5.56223
21
-3.14648
0
LINE
8
BLACK
6
CONTINUOUS
10
5.56223
20
-3.14648
11
5.56154
21
-3.14458
0
LINE
8
BLACK
6
CONTINUOUS
10
5.56154
20
-3.14458
11
5.56154
21
-3.11633
0
LINE
8
BLACK
6
CONTINUOUS
10
5.56154
20
-3.11633
11
5.54456
21
-3.14605
0
LINE
8
BLACK
6
CONTINUOUS
10
5.54456
20
-3.14605
11
5.5439
21
-3.14684
0
LINE
8
BLACK
6
CONTINUOUS
10
5.5439
20
-3.14684
11
5.54365
21
-3.14693
0
LINE
8
BLACK
6
CONTINUOUS
10
5.54365
20
-3.14693
11
5.54347
21
-3.14714
0
LINE
8
BLACK
6
CONTINUOUS
10
5.54347
20
-3.14714
11
5.54272
21
-3.14727
0
LINE
8
BLACK
6
CONTINUOUS
10
5.54272
20
-3.14727
11
5.54201
21
-3.14753
0
LINE
8
BLACK
6
CONTINUOUS
10
5.54201
20
-3.14753
11
5.54175
21
-3.14744
0
LINE
8
BLACK
6
CONTINUOUS
10
5.54175
20
-3.14744
11
5.54148
21
-3.14749
0
LINE
8
BLACK
6
CONTINUOUS
10
5.54148
20
-3.14749
11
5.54082
21
-3.14711
0
LINE
8
BLACK
6
CONTINUOUS
10
5.54082
20
-3.14711
11
5.54011
21
-3.14685
0
LINE
8
BLACK
6
CONTINUOUS
10
5.54011
20
-3.14685
11
5.53997
21
-3.14662
0
LINE
8
BLACK
6
CONTINUOUS
10
5.53997
20
-3.14662
11
5.53973
21
-3.14648
0
LINE
8
BLACK
6
CONTINUOUS
10
5.53973
20
-3.14648
11
5.53947
21
-3.14576
0
LINE
8
BLACK
6
CONTINUOUS
10
5.53947
20
-3.14576
11
5.53909
21
-3.14511
0
LINE
8
BLACK
6
CONTINUOUS
10
5.53909
20
-3.14511
11
5.53914
21
-3.14484
0
LINE
8
BLACK
6
CONTINUOUS
10
5.53914
20
-3.14484
11
5.53904
21
-3.14458
0
LINE
8
BLACK
6
CONTINUOUS
10
5.53904
20
-3.14458
11
5.53904
21
-3.10521
0
LINE
8
BLACK
6
CONTINUOUS
10
5.53904
20
-3.10521
11
5.53922
21
-3.1042
0
LINE
8
BLACK
6
CONTINUOUS
10
5.53922
20
-3.1042
11
5.54052
21
-3.10265
0
LINE
8
BLACK
6
CONTINUOUS
10
5.54052
20
-3.10265
11
5.54251
21
-3.1023
0
LINE
8
BLACK
6
CONTINUOUS
10
5.54251
20
-3.1023
11
5.54426
21
-3.10331
0
LINE
8
BLACK
6
CONTINUOUS
10
5.54426
20
-3.10331
11
5.54495
21
-3.10521
0
LINE
8
BLACK
6
CONTINUOUS
10
5.54495
20
-3.10521
11
5.54495
21
-3.13346
0
LINE
8
BLACK
6
CONTINUOUS
10
5.54495
20
-3.13346
11
5.56193
21
-3.10375
0
LINE
8
BLACK
6
CONTINUOUS
10
5.56193
20
-3.10375
11
5.56258
21
-3.10296
0
LINE
8
BLACK
6
CONTINUOUS
10
5.56258
20
-3.10296
11
5.56284
21
-3.10286
0
LINE
8
BLACK
6
CONTINUOUS
10
5.56284
20
-3.10286
11
5.56302
21
-3.10265
0
LINE
8
BLACK
6
CONTINUOUS
10
5.56302
20
-3.10265
11
5.56377
21
-3.10252
0
LINE
8
BLACK
6
CONTINUOUS
10
5.56377
20
-3.10252
11
5.56448
21
-3.10226
0
LINE
8
BLACK
6
CONTINUOUS
10
5.56448
20
-3.10226
11
5.56474
21
-3.10235
0
LINE
8
BLACK
6
CONTINUOUS
10
5.57916
20
-3.1027
11
5.58042
21
-3.10428
0
LINE
8
BLACK
6
CONTINUOUS
10
5.58042
20
-3.10428
11
5.59074
21
-3.13524
0
LINE
8
BLACK
6
CONTINUOUS
10
5.59074
20
-3.13524
11
5.60106
21
-3.10428
0
LINE
8
BLACK
6
CONTINUOUS
10
5.60106
20
-3.10428
11
5.60155
21
-3.10338
0
LINE
8
BLACK
6
CONTINUOUS
10
5.60155
20
-3.10338
11
5.60327
21
-3.10232
0
LINE
8
BLACK
6
CONTINUOUS
10
5.60327
20
-3.10232
11
5.60527
21
-3.10262
0
LINE
8
BLACK
6
CONTINUOUS
10
5.60527
20
-3.10262
11
5.60661
21
-3.10413
0
LINE
8
BLACK
6
CONTINUOUS
10
5.60661
20
-3.10413
11
5.60666
21
-3.10615
0
LINE
8
BLACK
6
CONTINUOUS
10
5.60666
20
-3.10615
11
5.59354
21
-3.14552
0
LINE
8
BLACK
6
CONTINUOUS
10
5.59354
20
-3.14552
11
5.59305
21
-3.14642
0
LINE
8
BLACK
6
CONTINUOUS
10
5.59305
20
-3.14642
11
5.59298
21
-3.14646
0
LINE
8
BLACK
6
CONTINUOUS
10
5.59298
20
-3.14646
11
5.59295
21
-3.14654
0
LINE
8
BLACK
6
CONTINUOUS
10
5.59295
20
-3.14654
11
5.59213
21
-3.14699
0
LINE
8
BLACK
6
CONTINUOUS
10
5.59213
20
-3.14699
11
5.59133
21
-3.14747
0
LINE
8
BLACK
6
CONTINUOUS
10
5.59133
20
-3.14747
11
5.59125
21
-3.14746
0
LINE
8
BLACK
6
CONTINUOUS
10
5.59125
20
-3.14746
11
5.59117
21
-3.1475
0
LINE
8
BLACK
6
CONTINUOUS
10
5.59117
20
-3.1475
11
5.59026
21
-3.14732
0
LINE
8
BLACK
6
CONTINUOUS
10
5.59026
20
-3.14732
11
5.58933
21
-3.14718
0
LINE
8
BLACK
6
CONTINUOUS
10
5.58933
20
-3.14718
11
5.58928
21
-3.14711
0
LINE
8
BLACK
6
CONTINUOUS
10
5.58928
20
-3.14711
11
5.58919
21
-3.1471
0
LINE
8
BLACK
6
CONTINUOUS
10
5.58919
20
-3.1471
11
5.58861
21
-3.14637
0
LINE
8
BLACK
6
CONTINUOUS
10
5.58861
20
-3.14637
11
5.58799
21
-3.14567
0
LINE
8
BLACK
6
CONTINUOUS
10
5.58799
20
-3.14567
11
5.58799
21
-3.14558
0
LINE
8
BLACK
6
CONTINUOUS
10
5.58799
20
-3.14558
11
5.58794
21
-3.14552
0
LINE
8
BLACK
6
CONTINUOUS
10
5.58794
20
-3.14552
11
5.57481
21
-3.10615
0
LINE
8
BLACK
6
CONTINUOUS
10
5.57481
20
-3.10615
11
5.57466
21
-3.10513
0
LINE
8
BLACK
6
CONTINUOUS
10
5.57466
20
-3.10513
11
5.57541
21
-3.10325
0
LINE
8
BLACK
6
CONTINUOUS
10
5.57541
20
-3.10325
11
5.57718
21
-3.10229
0
LINE
8
BLACK
6
CONTINUOUS
10
5.57718
20
-3.10229
11
5.57916
21
-3.1027
0
LINE
8
BLACK
6
CONTINUOUS
10
5.55613
20
-3.03905
11
5.55626
21
-3.03916
0
LINE
8
BLACK
6
CONTINUOUS
10
5.55626
20
-3.03916
11
5.55644
21
-3.03918
0
LINE
8
BLACK
6
CONTINUOUS
10
5.55644
20
-3.03918
11
5.56019
21
-3.04106
0
LINE
8
BLACK
6
CONTINUOUS
10
5.56019
20
-3.04106
11
5.5609
21
-3.04159
0
LINE
8
BLACK
6
CONTINUOUS
10
5.5609
20
-3.04159
11
5.56096
21
-3.04161
0
LINE
8
BLACK
6
CONTINUOUS
10
5.56096
20
-3.04161
11
5.56283
21
-3.04349
0
LINE
8
BLACK
6
CONTINUOUS
10
5.56283
20
-3.04349
11
5.56342
21
-3.04433
0
LINE
8
BLACK
6
CONTINUOUS
10
5.56342
20
-3.04433
11
5.56359
21
-3.04634
0
LINE
8
BLACK
6
CONTINUOUS
10
5.56359
20
-3.04634
11
5.56244
21
-3.04799
0
LINE
8
BLACK
6
CONTINUOUS
10
5.56244
20
-3.04799
11
5.56049
21
-3.04852
0
LINE
8
BLACK
6
CONTINUOUS
10
5.56049
20
-3.04852
11
5.55865
21
-3.04766
0
LINE
8
BLACK
6
CONTINUOUS
10
5.55865
20
-3.04766
11
5.55712
21
-3.04613
0
LINE
8
BLACK
6
CONTINUOUS
10
5.55712
20
-3.04613
11
5.55442
21
-3.04478
0
LINE
8
BLACK
6
CONTINUOUS
10
5.55442
20
-3.04478
11
5.54644
21
-3.04478
0
LINE
8
BLACK
6
CONTINUOUS
10
5.54644
20
-3.04478
11
5.54374
21
-3.04613
0
LINE
8
BLACK
6
CONTINUOUS
10
5.54374
20
-3.04613
11
5.54255
21
-3.04732
0
LINE
8
BLACK
6
CONTINUOUS
10
5.54255
20
-3.04732
11
5.5412
21
-3.05002
0
LINE
8
BLACK
6
CONTINUOUS
10
5.5412
20
-3.05002
11
5.5412
21
-3.0526
0
LINE
8
BLACK
6
CONTINUOUS
10
5.5412
20
-3.0526
11
5.5427
21
-3.0571
0
LINE
8
BLACK
6
CONTINUOUS
10
5.5427
20
-3.0571
11
5.56471
21
-3.07911
0
LINE
8
BLACK
6
CONTINUOUS
10
5.56471
20
-3.07911
11
5.56507
21
-3.07964
0
LINE
8
BLACK
6
CONTINUOUS
10
5.56507
20
-3.07964
11
5.56517
21
-3.07972
0
LINE
8
BLACK
6
CONTINUOUS
10
5.56517
20
-3.07972
11
5.56519
21
-3.0798
0
LINE
8
BLACK
6
CONTINUOUS
10
5.56519
20
-3.0798
11
5.56529
21
-3.07995
0
LINE
8
BLACK
6
CONTINUOUS
10
5.56529
20
-3.07995
11
5.56537
21
-3.08083
0
LINE
8
BLACK
6
CONTINUOUS
10
5.56537
20
-3.08083
11
5.56553
21
-3.08171
0
LINE
8
BLACK
6
CONTINUOUS
10
5.56553
20
-3.08171
11
5.56546
21
-3.08183
0
LINE
8
BLACK
6
CONTINUOUS
10
5.56546
20
-3.08183
11
5.56547
21
-3.08196
0
LINE
8
BLACK
6
CONTINUOUS
10
5.56547
20
-3.08196
11
5.56496
21
-3.08269
0
LINE
8
BLACK
6
CONTINUOUS
10
5.56496
20
-3.08269
11
5.56452
21
-3.08346
0
LINE
8
BLACK
6
CONTINUOUS
10
5.56452
20
-3.08346
11
5.56439
21
-3.0835
0
LINE
8
BLACK
6
CONTINUOUS
10
5.56439
20
-3.0835
11
5.56431
21
-3.08361
0
LINE
8
BLACK
6
CONTINUOUS
10
5.56431
20
-3.08361
11
5.56345
21
-3.08384
0
LINE
8
BLACK
6
CONTINUOUS
10
5.56345
20
-3.08384
11
5.56262
21
-3.08415
0
LINE
8
BLACK
6
CONTINUOUS
10
5.56262
20
-3.08415
11
5.53825
21
-3.08415
0
LINE
8
BLACK
6
CONTINUOUS
10
5.53825
20
-3.08415
11
5.53724
21
-3.08397
0
LINE
8
BLACK
6
CONTINUOUS
10
5.53724
20
-3.08397
11
5.53569
21
-3.08267
0
LINE
8
BLACK
6
CONTINUOUS
10
5.53569
20
-3.08267
11
5.53534
21
-3.08068
0
LINE
8
BLACK
6
CONTINUOUS
10
5.53534
20
-3.08068
11
5.53635
21
-3.07893
0
LINE
8
BLACK
6
CONTINUOUS
10
5.53635
20
-3.07893
11
5.53825
21
-3.07824
0
LINE
8
BLACK
6
CONTINUOUS
10
5.53825
20
-3.07824
11
5.55549
21
-3.07824
0
LINE
8
BLACK
6
CONTINUOUS
10
5.55549
20
-3.07824
11
5.53803
21
-3.06079
0
LINE
8
BLACK
6
CONTINUOUS
10
5.53803
20
-3.06079
11
5.53744
21
-3.05995
0
LINE
8
BLACK
6
CONTINUOUS
10
5.53744
20
-3.05995
11
5.53743
21
-3.05977
0
LINE
8
BLACK
6
CONTINUOUS
10
5.53743
20
-3.05977
11
5.53732
21
-3.05963
0
LINE
8
BLACK
6
CONTINUOUS
10
5.53732
20
-3.05963
11
5.53544
21
-3.05401
0
LINE
8
BLACK
6
CONTINUOUS
10
5.53544
20
-3.05401
11
5.53531
21
-3.05314
0
LINE
8
BLACK
6
CONTINUOUS
10
5.53531
20
-3.05314
11
5.53529
21
-3.05307
0
LINE
8
BLACK
6
CONTINUOUS
10
5.53529
20
-3.05307
11
5.53529
21
-3.04933
0
LINE
8
BLACK
6
CONTINUOUS
10
5.53529
20
-3.04933
11
5.53547
21
-3.04832
0
LINE
8
BLACK
6
CONTINUOUS
10
5.53547
20
-3.04832
11
5.53558
21
-3.04818
0
LINE
8
BLACK
6
CONTINUOUS
10
5.53558
20
-3.04818
11
5.5356
21
-3.048
0
LINE
8
BLACK
6
CONTINUOUS
10
5.5356
20
-3.048
11
5.53748
21
-3.04426
0
LINE
8
BLACK
6
CONTINUOUS
10
5.53748
20
-3.04426
11
5.538
21
-3.04355
0
LINE
8
BLACK
6
CONTINUOUS
10
5.538
20
-3.04355
11
5.53803
21
-3.04349
0
LINE
8
BLACK
6
CONTINUOUS
10
5.53803
20
-3.04349
11
5.53991
21
-3.04161
0
LINE
8
BLACK
6
CONTINUOUS
10
5.53991
20
-3.04161
11
5.54063
21
-3.04111
0
LINE
8
BLACK
6
CONTINUOUS
10
5.54063
20
-3.04111
11
5.54067
21
-3.04106
0
LINE
8
BLACK
6
CONTINUOUS
10
5.54067
20
-3.04106
11
5.54442
21
-3.03918
0
LINE
8
BLACK
6
CONTINUOUS
10
5.54442
20
-3.03918
11
5.54541
21
-3.03889
0
LINE
8
BLACK
6
CONTINUOUS
10
5.54541
20
-3.03889
11
5.54558
21
-3.03893
0
LINE
8
BLACK
6
CONTINUOUS
10
5.54558
20
-3.03893
11
5.54574
21
-3.03887
0
LINE
8
BLACK
6
CONTINUOUS
10
5.54574
20
-3.03887
11
5.55512
21
-3.03887
0
LINE
8
BLACK
6
CONTINUOUS
10
5.55512
20
-3.03887
11
5.55613
21
-3.03905
0
LINE
8
BLACK
6
CONTINUOUS
10
5.45864
20
-3.03905
11
5.45878
21
-3.03916
0
LINE
8
BLACK
6
CONTINUOUS
10
5.45878
20
-3.03916
11
5.45895
21
-3.03918
0
LINE
8
BLACK
6
CONTINUOUS
10
5.45895
20
-3.03918
11
5.4627
21
-3.04106
0
LINE
8
BLACK
6
CONTINUOUS
10
5.4627
20
-3.04106
11
5.46341
21
-3.04159
0
LINE
8
BLACK
6
CONTINUOUS
10
5.46341
20
-3.04159
11
5.46347
21
-3.04161
0
LINE
8
BLACK
6
CONTINUOUS
10
5.46347
20
-3.04161
11
5.46534
21
-3.04349
0
LINE
8
BLACK
6
CONTINUOUS
10
5.46534
20
-3.04349
11
5.46593
21
-3.04433
0
LINE
8
BLACK
6
CONTINUOUS
10
5.46593
20
-3.04433
11
5.46611
21
-3.04634
0
LINE
8
BLACK
6
CONTINUOUS
10
5.46611
20
-3.04634
11
5.46495
21
-3.04799
0
LINE
8
BLACK
6
CONTINUOUS
10
5.46495
20
-3.04799
11
5.463
21
-3.04852
0
LINE
8
BLACK
6
CONTINUOUS
10
5.463
20
-3.04852
11
5.46117
21
-3.04766
0
LINE
8
BLACK
6
CONTINUOUS
10
5.46117
20
-3.04766
11
5.45963
21
-3.04613
0
LINE
8
BLACK
6
CONTINUOUS
10
5.45963
20
-3.04613
11
5.45693
21
-3.04478
0
LINE
8
BLACK
6
CONTINUOUS
10
5.45693
20
-3.04478
11
5.44895
21
-3.04478
0
LINE
8
BLACK
6
CONTINUOUS
10
5.44895
20
-3.04478
11
5.44626
21
-3.04613
0
LINE
8
BLACK
6
CONTINUOUS
10
5.44626
20
-3.04613
11
5.44506
21
-3.04732
0
LINE
8
BLACK
6
CONTINUOUS
10
5.44506
20
-3.04732
11
5.44371
21
-3.05002
0
LINE
8
BLACK
6
CONTINUOUS
10
5.44371
20
-3.05002
11
5.44371
21
-3.0526
0
LINE
8
BLACK
6
CONTINUOUS
10
5.44371
20
-3.0526
11
5.44521
21
-3.0571
0
LINE
8
BLACK
6
CONTINUOUS
10
5.44521
20
-3.0571
11
5.46722
21
-3.07911
0
LINE
8
BLACK
6
CONTINUOUS
10
5.46722
20
-3.07911
11
5.46759
21
-3.07964
0
LINE
8
BLACK
6
CONTINUOUS
10
5.46759
20
-3.07964
11
5.46769
21
-3.07972
0
LINE
8
BLACK
6
CONTINUOUS
10
5.46769
20
-3.07972
11
5.4677
21
-3.0798
0
LINE
8
BLACK
6
CONTINUOUS
10
5.4677
20
-3.0798
11
5.46781
21
-3.07995
0
LINE
8
BLACK
6
CONTINUOUS
10
5.46781
20
-3.07995
11
5.46788
21
-3.08083
0
LINE
8
BLACK
6
CONTINUOUS
10
5.46788
20
-3.08083
11
5.46804
21
-3.08171
0
LINE
8
BLACK
6
CONTINUOUS
10
5.46804
20
-3.08171
11
5.46797
21
-3.08183
0
LINE
8
BLACK
6
CONTINUOUS
10
5.46797
20
-3.08183
11
5.46798
21
-3.08196
0
LINE
8
BLACK
6
CONTINUOUS
10
5.46798
20
-3.08196
11
5.46747
21
-3.08269
0
LINE
8
BLACK
6
CONTINUOUS
10
5.46747
20
-3.08269
11
5.46703
21
-3.08346
0
LINE
8
BLACK
6
CONTINUOUS
10
5.46703
20
-3.08346
11
5.4669
21
-3.0835
0
LINE
8
BLACK
6
CONTINUOUS
10
5.4669
20
-3.0835
11
5.46682
21
-3.08361
0
LINE
8
BLACK
6
CONTINUOUS
10
5.46682
20
-3.08361
11
5.46596
21
-3.08384
0
LINE
8
BLACK
6
CONTINUOUS
10
5.46596
20
-3.08384
11
5.46513
21
-3.08415
0
LINE
8
BLACK
6
CONTINUOUS
10
5.46513
20
-3.08415
11
5.44076
21
-3.08415
0
LINE
8
BLACK
6
CONTINUOUS
10
5.44076
20
-3.08415
11
5.43975
21
-3.08397
0
LINE
8
BLACK
6
CONTINUOUS
10
5.43975
20
-3.08397
11
5.4382
21
-3.08267
0
LINE
8
BLACK
6
CONTINUOUS
10
5.4382
20
-3.08267
11
5.43785
21
-3.08068
0
LINE
8
BLACK
6
CONTINUOUS
10
5.43785
20
-3.08068
11
5.43886
21
-3.07893
0
LINE
8
BLACK
6
CONTINUOUS
10
5.43886
20
-3.07893
11
5.44076
21
-3.07824
0
LINE
8
BLACK
6
CONTINUOUS
10
5.44076
20
-3.07824
11
5.458
21
-3.07824
0
LINE
8
BLACK
6
CONTINUOUS
10
5.458
20
-3.07824
11
5.44054
21
-3.06079
0
LINE
8
BLACK
6
CONTINUOUS
10
5.44054
20
-3.06079
11
5.43996
21
-3.05995
0
LINE
8
BLACK
6
CONTINUOUS
10
5.43996
20
-3.05995
11
5.43994
21
-3.05977
0
LINE
8
BLACK
6
CONTINUOUS
10
5.43994
20
-3.05977
11
5.43983
21
-3.05963
0
LINE
8
BLACK
6
CONTINUOUS
10
5.43983
20
-3.05963
11
5.43796
21
-3.05401
0
LINE
8
BLACK
6
CONTINUOUS
10
5.43796
20
-3.05401
11
5.43783
21
-3.05314
0
LINE
8
BLACK
6
CONTINUOUS
10
5.43783
20
-3.05314
11
5.4378
21
-3.05307
0
LINE
8
BLACK
6
CONTINUOUS
10
5.4378
20
-3.05307
11
5.4378
21
-3.04933
0
LINE
8
BLACK
6
CONTINUOUS
10
5.4378
20
-3.04933
11
5.43798
21
-3.04832
0
LINE
8
BLACK
6
CONTINUOUS
10
5.43798
20
-3.04832
11
5.4381
21
-3.04818
0
LINE
8
BLACK
6
CONTINUOUS
10
5.4381
20
-3.04818
11
5.43812
21
-3.048
0
LINE
8
BLACK
6
CONTINUOUS
10
5.43812
20
-3.048
11
5.43999
21
-3.04426
0
LINE
8
BLACK
6
CONTINUOUS
10
5.43999
20
-3.04426
11
5.44052
21
-3.04355
0
LINE
8
BLACK
6
CONTINUOUS
10
5.44052
20
-3.04355
11
5.44054
21
-3.04349
0
LINE
8
BLACK
6
CONTINUOUS
10
5.44054
20
-3.04349
11
5.44242
21
-3.04161
0
LINE
8
BLACK
6
CONTINUOUS
10
5.44242
20
-3.04161
11
5.44314
21
-3.04111
0
LINE
8
BLACK
6
CONTINUOUS
10
5.44314
20
-3.04111
11
5.44319
21
-3.04106
0
LINE
8
BLACK
6
CONTINUOUS
10
5.44319
20
-3.04106
11
5.44694
21
-3.03918
0
LINE
8
BLACK
6
CONTINUOUS
10
5.44694
20
-3.03918
11
5.44792
21
-3.03889
0
LINE
8
BLACK
6
CONTINUOUS
10
5.44792
20
-3.03889
11
5.44809
21
-3.03893
0
LINE
8
BLACK
6
CONTINUOUS
10
5.44809
20
-3.03893
11
5.44826
21
-3.03887
0
LINE
8
BLACK
6
CONTINUOUS
10
5.44826
20
-3.03887
11
5.45763
21
-3.03887
0
LINE
8
BLACK
6
CONTINUOUS
10
5.45763
20
-3.03887
11
5.45864
21
-3.03905
0
LINE
8
BLACK
6
CONTINUOUS
10
5.5955
20
-3.03905
11
5.59705
21
-3.04035
0
LINE
8
BLACK
6
CONTINUOUS
10
5.59705
20
-3.04035
11
5.5974
21
-3.04234
0
LINE
8
BLACK
6
CONTINUOUS
10
5.5974
20
-3.04234
11
5.59639
21
-3.04409
0
LINE
8
BLACK
6
CONTINUOUS
10
5.59639
20
-3.04409
11
5.59449
21
-3.04478
0
LINE
8
BLACK
6
CONTINUOUS
10
5.59449
20
-3.04478
11
5.58619
21
-3.04478
0
LINE
8
BLACK
6
CONTINUOUS
10
5.58619
20
-3.04478
11
5.58619
21
-3.0812
0
LINE
8
BLACK
6
CONTINUOUS
10
5.58619
20
-3.0812
11
5.58601
21
-3.08221
0
LINE
8
BLACK
6
CONTINUOUS
10
5.58601
20
-3.08221
11
5.58472
21
-3.08375
0
LINE
8
BLACK
6
CONTINUOUS
10
5.58472
20
-3.08375
11
5.58273
21
-3.0841
0
LINE
8
BLACK
6
CONTINUOUS
10
5.58273
20
-3.0841
11
5.58098
21
-3.08309
0
LINE
8
BLACK
6
CONTINUOUS
10
5.58098
20
-3.08309
11
5.58029
21
-3.0812
0
LINE
8
BLACK
6
CONTINUOUS
10
5.58029
20
-3.0812
11
5.58029
21
-3.04478
0
LINE
8
BLACK
6
CONTINUOUS
10
5.58029
20
-3.04478
11
5.57199
21
-3.04478
0
LINE
8
BLACK
6
CONTINUOUS
10
5.57199
20
-3.04478
11
5.57098
21
-3.0446
0
LINE
8
BLACK
6
CONTINUOUS
10
5.57098
20
-3.0446
11
5.56943
21
-3.0433
0
LINE
8
BLACK
6
CONTINUOUS
10
5.56943
20
-3.0433
11
5.56908
21
-3.04131
0
LINE
8
BLACK
6
CONTINUOUS
10
5.56908
20
-3.04131
11
5.57009
21
-3.03956
0
LINE
8
BLACK
6
CONTINUOUS
10
5.57009
20
-3.03956
11
5.57199
21
-3.03887
0
LINE
8
BLACK
6
CONTINUOUS
10
5.57199
20
-3.03887
11
5.59449
21
-3.03887
0
LINE
8
BLACK
6
CONTINUOUS
10
5.59449
20
-3.03887
11
5.5955
21
-3.03905
0
LINE
8
BLACK
6
CONTINUOUS
10
5.49801
20
-3.03905
11
5.49956
21
-3.04035
0
LINE
8
BLACK
6
CONTINUOUS
10
5.49956
20
-3.04035
11
5.49991
21
-3.04234
0
LINE
8
BLACK
6
CONTINUOUS
10
5.49991
20
-3.04234
11
5.4989
21
-3.04409
0
LINE
8
BLACK
6
CONTINUOUS
10
5.4989
20
-3.04409
11
5.497
21
-3.04478
0
LINE
8
BLACK
6
CONTINUOUS
10
5.497
20
-3.04478
11
5.4887
21
-3.04478
0
LINE
8
BLACK
6
CONTINUOUS
10
5.4887
20
-3.04478
11
5.4887
21
-3.0812
0
LINE
8
BLACK
6
CONTINUOUS
10
5.4887
20
-3.0812
11
5.48853
21
-3.08221
0
LINE
8
BLACK
6
CONTINUOUS
10
5.48853
20
-3.08221
11
5.48723
21
-3.08375
0
LINE
8
BLACK
6
CONTINUOUS
10
5.48723
20
-3.08375
11
5.48524
21
-3.0841
0
LINE
8
BLACK
6
CONTINUOUS
10
5.48524
20
-3.0841
11
5.48349
21
-3.08309
0
LINE
8
BLACK
6
CONTINUOUS
10
5.48349
20
-3.08309
11
5.4828
21
-3.0812
0
LINE
8
BLACK
6
CONTINUOUS
10
5.4828
20
-3.0812
11
5.4828
21
-3.04478
0
LINE
8
BLACK
6
CONTINUOUS
10
5.4828
20
-3.04478
11
5.4745
21
-3.04478
0
LINE
8
BLACK
6
CONTINUOUS
10
5.4745
20
-3.04478
11
5.47349
21
-3.0446
0
LINE
8
BLACK
6
CONTINUOUS
10
5.47349
20
-3.0446
11
5.47195
21
-3.0433
0
LINE
8
BLACK
6
CONTINUOUS
10
5.47195
20
-3.0433
11
5.4716
21
-3.04131
0
LINE
8
BLACK
6
CONTINUOUS
10
5.4716
20
-3.04131
11
5.47261
21
-3.03956
0
LINE
8
BLACK
6
CONTINUOUS
10
5.47261
20
-3.03956
11
5.4745
21
-3.03887
0
LINE
8
BLACK
6
CONTINUOUS
10
5.4745
20
-3.03887
11
5.497
21
-3.03887
0
LINE
8
BLACK
6
CONTINUOUS
10
5.497
20
-3.03887
11
5.49801
21
-3.03905
0
LINE
8
BLACK
6
CONTINUOUS
10
5.59911
20
-2.97564
11
5.59917
21
-2.97564
0
LINE
8
BLACK
6
CONTINUOUS
10
5.59917
20
-2.97564
11
5.6048
21
-2.97751
0
LINE
8
BLACK
6
CONTINUOUS
10
5.6048
20
-2.97751
11
5.6057
21
-2.978
0
LINE
8
BLACK
6
CONTINUOUS
10
5.6057
20
-2.978
11
5.60579
21
-2.97815
0
LINE
8
BLACK
6
CONTINUOUS
10
5.60579
20
-2.97815
11
5.60595
21
-2.97823
0
LINE
8
BLACK
6
CONTINUOUS
10
5.60595
20
-2.97823
11
5.6097
21
-2.98198
0
LINE
8
BLACK
6
CONTINUOUS
10
5.6097
20
-2.98198
11
5.61021
21
-2.9827
0
LINE
8
BLACK
6
CONTINUOUS
10
5.61021
20
-2.9827
11
5.61025
21
-2.98274
0
LINE
8
BLACK
6
CONTINUOUS
10
5.61025
20
-2.98274
11
5.61213
21
-2.98649
0
LINE
8
BLACK
6
CONTINUOUS
10
5.61213
20
-2.98649
11
5.61227
21
-2.98698
0
LINE
8
BLACK
6
CONTINUOUS
10
5.61227
20
-2.98698
11
5.61235
21
-2.9871
0
LINE
8
BLACK
6
CONTINUOUS
10
5.61235
20
-2.9871
11
5.61423
21
-2.9946
0
LINE
8
BLACK
6
CONTINUOUS
10
5.61423
20
-2.9946
11
5.61427
21
-2.99518
0
LINE
8
BLACK
6
CONTINUOUS
10
5.61427
20
-2.99518
11
5.61431
21
-2.99531
0
LINE
8
BLACK
6
CONTINUOUS
10
5.61431
20
-2.99531
11
5.61431
21
-3.00094
0
LINE
8
BLACK
6
CONTINUOUS
10
5.61431
20
-3.00094
11
5.61421
21
-3.00152
0
LINE
8
BLACK
6
CONTINUOUS
10
5.61421
20
-3.00152
11
5.61423
21
-3.00165
0
LINE
8
BLACK
6
CONTINUOUS
10
5.61423
20
-3.00165
11
5.61235
21
-3.00915
0
LINE
8
BLACK
6
CONTINUOUS
10
5.61235
20
-3.00915
11
5.61214
21
-3.00962
0
LINE
8
BLACK
6
CONTINUOUS
10
5.61214
20
-3.00962
11
5.61213
21
-3.00976
0
LINE
8
BLACK
6
CONTINUOUS
10
5.61213
20
-3.00976
11
5.61025
21
-3.01351
0
LINE
8
BLACK
6
CONTINUOUS
10
5.61025
20
-3.01351
11
5.60973
21
-3.01422
0
LINE
8
BLACK
6
CONTINUOUS
10
5.60973
20
-3.01422
11
5.6097
21
-3.01427
0
LINE
8
BLACK
6
CONTINUOUS
10
5.6097
20
-3.01427
11
5.60595
21
-3.01802
0
LINE
8
BLACK
6
CONTINUOUS
10
5.60595
20
-3.01802
11
5.60511
21
-3.01861
0
LINE
8
BLACK
6
CONTINUOUS
10
5.60511
20
-3.01861
11
5.60493
21
-3.01863
0
LINE
8
BLACK
6
CONTINUOUS
10
5.60493
20
-3.01863
11
5.6048
21
-3.01874
0
LINE
8
BLACK
6
CONTINUOUS
10
5.6048
20
-3.01874
11
5.59917
21
-3.02061
0
LINE
8
BLACK
6
CONTINUOUS
10
5.59917
20
-3.02061
11
5.5983
21
-3.02074
0
LINE
8
BLACK
6
CONTINUOUS
10
5.5983
20
-3.02074
11
5.59824
21
-3.02076
0
LINE
8
BLACK
6
CONTINUOUS
10
5.59824
20
-3.02076
11
5.59449
21
-3.02076
0
LINE
8
BLACK
6
CONTINUOUS
10
5.59449
20
-3.02076
11
5.59362
21
-3.02061
0
LINE
8
BLACK
6
CONTINUOUS
10
5.59362
20
-3.02061
11
5.59355
21
-3.02061
0
LINE
8
BLACK
6
CONTINUOUS
10
5.59355
20
-3.02061
11
5.58793
21
-3.01874
0
LINE
8
BLACK
6
CONTINUOUS
10
5.58793
20
-3.01874
11
5.58703
21
-3.01825
0
LINE
8
BLACK
6
CONTINUOUS
10
5.58703
20
-3.01825
11
5.58694
21
-3.0181
0
LINE
8
BLACK
6
CONTINUOUS
10
5.58694
20
-3.0181
11
5.58678
21
-3.01802
0
LINE
8
BLACK
6
CONTINUOUS
10
5.58678
20
-3.01802
11
5.5849
21
-3.01615
0
LINE
8
BLACK
6
CONTINUOUS
10
5.5849
20
-3.01615
11
5.58431
21
-3.01531
0
LINE
8
BLACK
6
CONTINUOUS
10
5.58431
20
-3.01531
11
5.58414
21
-3.0133
0
LINE
8
BLACK
6
CONTINUOUS
10
5.58414
20
-3.0133
11
5.5853
21
-3.01164
0
LINE
8
BLACK
6
CONTINUOUS
10
5.5853
20
-3.01164
11
5.58725
21
-3.01112
0
LINE
8
BLACK
6
CONTINUOUS
10
5.58725
20
-3.01112
11
5.58908
21
-3.01197
0
LINE
8
BLACK
6
CONTINUOUS
10
5.58908
20
-3.01197
11
5.59046
21
-3.01335
0
LINE
8
BLACK
6
CONTINUOUS
10
5.59046
20
-3.01335
11
5.59497
21
-3.01486
0
LINE
8
BLACK
6
CONTINUOUS
10
5.59497
20
-3.01486
11
5.59776
21
-3.01486
0
LINE
8
BLACK
6
CONTINUOUS
10
5.59776
20
-3.01486
11
5.60227
21
-3.01335
0
LINE
8
BLACK
6
CONTINUOUS
10
5.60227
20
-3.01335
11
5.60518
21
-3.01044
0
LINE
8
BLACK
6
CONTINUOUS
10
5.60518
20
-3.01044
11
5.6067
21
-3.00741
0
LINE
8
BLACK
6
CONTINUOUS
10
5.6067
20
-3.00741
11
5.60841
21
-3.00057
0
LINE
8
BLACK
6
CONTINUOUS
10
5.60841
20
-3.00057
11
5.60841
21
-2.99568
0
LINE
8
BLACK
6
CONTINUOUS
10
5.60841
20
-2.99568
11
5.6067
21
-2.98884
0
LINE
8
BLACK
6
CONTINUOUS
10
5.6067
20
-2.98884
11
5.60518
21
-2.98581
0
LINE
8
BLACK
6
CONTINUOUS
10
5.60518
20
-2.98581
11
5.60227
21
-2.9829
0
LINE
8
BLACK
6
CONTINUOUS
10
5.60227
20
-2.9829
11
5.59776
21
-2.98139
0
LINE
8
BLACK
6
CONTINUOUS
10
5.59776
20
-2.98139
11
5.59497
21
-2.98139
0
LINE
8
BLACK
6
CONTINUOUS
10
5.59497
20
-2.98139
11
5.59046
21
-2.9829
0
LINE
8
BLACK
6
CONTINUOUS
10
5.59046
20
-2.9829
11
5.58908
21
-2.98428
0
LINE
8
BLACK
6
CONTINUOUS
10
5.58908
20
-2.98428
11
5.58824
21
-2.98487
0
LINE
8
BLACK
6
CONTINUOUS
10
5.58824
20
-2.98487
11
5.58622
21
-2.98504
0
LINE
8
BLACK
6
CONTINUOUS
10
5.58622
20
-2.98504
11
5.58457
21
-2.98388
0
LINE
8
BLACK
6
CONTINUOUS
10
5.58457
20
-2.98388
11
5.58405
21
-2.98193
0
LINE
8
BLACK
6
CONTINUOUS
10
5.58405
20
-2.98193
11
5.5849
21
-2.9801
0
LINE
8
BLACK
6
CONTINUOUS
10
5.5849
20
-2.9801
11
5.58678
21
-2.97823
0
LINE
8
BLACK
6
CONTINUOUS
10
5.58678
20
-2.97823
11
5.58762
21
-2.97764
0
LINE
8
BLACK
6
CONTINUOUS
10
5.58762
20
-2.97764
11
5.58779
21
-2.97762
0
LINE
8
BLACK
6
CONTINUOUS
10
5.58779
20
-2.97762
11
5.58793
21
-2.97751
0
LINE
8
BLACK
6
CONTINUOUS
10
5.58793
20
-2.97751
11
5.59355
21
-2.97564
0
LINE
8
BLACK
6
CONTINUOUS
10
5.59355
20
-2.97564
11
5.59443
21
-2.97551
0
LINE
8
BLACK
6
CONTINUOUS
10
5.59443
20
-2.97551
11
5.59449
21
-2.97549
0
LINE
8
BLACK
6
CONTINUOUS
10
5.59449
20
-2.97549
11
5.59824
21
-2.97549
0
LINE
8
BLACK
6
CONTINUOUS
10
5.59824
20
-2.97549
11
5.59911
21
-2.97564
0
LINE
8
BLACK
6
CONTINUOUS
10
5.481
20
-2.97564
11
5.48106
21
-2.97564
0
LINE
8
BLACK
6
CONTINUOUS
10
5.48106
20
-2.97564
11
5.48669
21
-2.97751
0
LINE
8
BLACK
6
CONTINUOUS
10
5.48669
20
-2.97751
11
5.48759
21
-2.978
0
LINE
8
BLACK
6
CONTINUOUS
10
5.48759
20
-2.978
11
5.48768
21
-2.97815
0
LINE
8
BLACK
6
CONTINUOUS
10
5.48768
20
-2.97815
11
5.48784
21
-2.97823
0
LINE
8
BLACK
6
CONTINUOUS
10
5.48784
20
-2.97823
11
5.49159
21
-2.98198
0
LINE
8
BLACK
6
CONTINUOUS
10
5.49159
20
-2.98198
11
5.4921
21
-2.9827
0
LINE
8
BLACK
6
CONTINUOUS
10
5.4921
20
-2.9827
11
5.49214
21
-2.98274
0
LINE
8
BLACK
6
CONTINUOUS
10
5.49214
20
-2.98274
11
5.49402
21
-2.98649
0
LINE
8
BLACK
6
CONTINUOUS
10
5.49402
20
-2.98649
11
5.49416
21
-2.98698
0
LINE
8
BLACK
6
CONTINUOUS
10
5.49416
20
-2.98698
11
5.49424
21
-2.9871
0
LINE
8
BLACK
6
CONTINUOUS
10
5.49424
20
-2.9871
11
5.49612
21
-2.9946
0
LINE
8
BLACK
6
CONTINUOUS
10
5.49612
20
-2.9946
11
5.49616
21
-2.99518
0
LINE
8
BLACK
6
CONTINUOUS
10
5.49616
20
-2.99518
11
5.4962
21
-2.99531
0
LINE
8
BLACK
6
CONTINUOUS
10
5.4962
20
-2.99531
11
5.4962
21
-3.00094
0
LINE
8
BLACK
6
CONTINUOUS
10
5.4962
20
-3.00094
11
5.4961
21
-3.00152
0
LINE
8
BLACK
6
CONTINUOUS
10
5.4961
20
-3.00152
11
5.49612
21
-3.00165
0
LINE
8
BLACK
6
CONTINUOUS
10
5.49612
20
-3.00165
11
5.49424
21
-3.00915
0
LINE
8
BLACK
6
CONTINUOUS
10
5.49424
20
-3.00915
11
5.49403
21
-3.00962
0
LINE
8
BLACK
6
CONTINUOUS
10
5.49403
20
-3.00962
11
5.49402
21
-3.00976
0
LINE
8
BLACK
6
CONTINUOUS
10
5.49402
20
-3.00976
11
5.49214
21
-3.01351
0
LINE
8
BLACK
6
CONTINUOUS
10
5.49214
20
-3.01351
11
5.49162
21
-3.01422
0
LINE
8
BLACK
6
CONTINUOUS
10
5.49162
20
-3.01422
11
5.49159
21
-3.01427
0
LINE
8
BLACK
6
CONTINUOUS
10
5.49159
20
-3.01427
11
5.48784
21
-3.01802
0
LINE
8
BLACK
6
CONTINUOUS
10
5.48784
20
-3.01802
11
5.487
21
-3.01861
0
LINE
8
BLACK
6
CONTINUOUS
10
5.487
20
-3.01861
11
5.48682
21
-3.01863
0
LINE
8
BLACK
6
CONTINUOUS
10
5.48682
20
-3.01863
11
5.48669
21
-3.01874
0
LINE
8
BLACK
6
CONTINUOUS
10
5.48669
20
-3.01874
11
5.48106
21
-3.02061
0
LINE
8
BLACK
6
CONTINUOUS
10
5.48106
20
-3.02061
11
5.48019
21
-3.02074
0
LINE
8
BLACK
6
CONTINUOUS
10
5.48019
20
-3.02074
11
5.48013
21
-3.02076
0
LINE
8
BLACK
6
CONTINUOUS
10
5.48013
20
-3.02076
11
5.47638
21
-3.02076
0
LINE
8
BLACK
6
CONTINUOUS
10
5.47638
20
-3.02076
11
5.47551
21
-3.02061
0
LINE
8
BLACK
6
CONTINUOUS
10
5.47551
20
-3.02061
11
5.47544
21
-3.02061
0
LINE
8
BLACK
6
CONTINUOUS
10
5.47544
20
-3.02061
11
5.46982
21
-3.01874
0
LINE
8
BLACK
6
CONTINUOUS
10
5.46982
20
-3.01874
11
5.46892
21
-3.01825
0
LINE
8
BLACK
6
CONTINUOUS
10
5.46892
20
-3.01825
11
5.46883
21
-3.0181
0
LINE
8
BLACK
6
CONTINUOUS
10
5.46883
20
-3.0181
11
5.46867
21
-3.01802
0
LINE
8
BLACK
6
CONTINUOUS
10
5.46867
20
-3.01802
11
5.46679
21
-3.01615
0
LINE
8
BLACK
6
CONTINUOUS
10
5.46679
20
-3.01615
11
5.4662
21
-3.01531
0
LINE
8
BLACK
6
CONTINUOUS
10
5.4662
20
-3.01531
11
5.46603
21
-3.0133
0
LINE
8
BLACK
6
CONTINUOUS
10
5.46603
20
-3.0133
11
5.46719
21
-3.01164
0
LINE
8
BLACK
6
CONTINUOUS
10
5.46719
20
-3.01164
11
5.46914
21
-3.01112
0
LINE
8
BLACK
6
CONTINUOUS
10
5.46914
20
-3.01112
11
5.47097
21
-3.01197
0
LINE
8
BLACK
6
CONTINUOUS
10
5.47097
20
-3.01197
11
5.47235
21
-3.01335
0
LINE
8
BLACK
6
CONTINUOUS
10
5.47235
20
-3.01335
11
5.47686
21
-3.01486
0
LINE
8
BLACK
6
CONTINUOUS
10
5.47686
20
-3.01486
11
5.47965
21
-3.01486
0
LINE
8
BLACK
6
CONTINUOUS
10
5.47965
20
-3.01486
11
5.48416
21
-3.01335
0
LINE
8
BLACK
6
CONTINUOUS
10
5.48416
20
-3.01335
11
5.48707
21
-3.01044
0
LINE
8
BLACK
6
CONTINUOUS
10
5.48707
20
-3.01044
11
5.48859
21
-3.00741
0
LINE
8
BLACK
6
CONTINUOUS
10
5.48859
20
-3.00741
11
5.4903
21
-3.00057
0
LINE
8
BLACK
6
CONTINUOUS
10
5.4903
20
-3.00057
11
5.4903
21
-2.99568
0
LINE
8
BLACK
6
CONTINUOUS
10
5.4903
20
-2.99568
11
5.48859
21
-2.98884
0
LINE
8
BLACK
6
CONTINUOUS
10
5.48859
20
-2.98884
11
5.48707
21
-2.98581
0
LINE
8
BLACK
6
CONTINUOUS
10
5.48707
20
-2.98581
11
5.48416
21
-2.9829
0
LINE
8
BLACK
6
CONTINUOUS
10
5.48416
20
-2.9829
11
5.47965
21
-2.98139
0
LINE
8
BLACK
6
CONTINUOUS
10
5.47965
20
-2.98139
11
5.47686
21
-2.98139
0
LINE
8
BLACK
6
CONTINUOUS
10
5.47686
20
-2.98139
11
5.47235
21
-2.9829
0
LINE
8
BLACK
6
CONTINUOUS
10
5.47235
20
-2.9829
11
5.47097
21
-2.98428
0
LINE
8
BLACK
6
CONTINUOUS
10
5.47097
20
-2.98428
11
5.47013
21
-2.98487
0
LINE
8
BLACK
6
CONTINUOUS
10
5.47013
20
-2.98487
11
5.46811
21
-2.98504
0
LINE
8
BLACK
6
CONTINUOUS
10
5.46811
20
-2.98504
11
5.46646
21
-2.98388
0
LINE
8
BLACK
6
CONTINUOUS
10
5.46646
20
-2.98388
11
5.46594
21
-2.98193
0
LINE
8
BLACK
6
CONTINUOUS
10
5.46594
20
-2.98193
11
5.46679
21
-2.9801
0
LINE
8
BLACK
6
CONTINUOUS
10
5.46679
20
-2.9801
11
5.46867
21
-2.97823
0
LINE
8
BLACK
6
CONTINUOUS
10
5.46867
20
-2.97823
11
5.46951
21
-2.97764
0
LINE
8
BLACK
6
CONTINUOUS
10
5.46951
20
-2.97764
11
5.46968
21
-2.97762
0
LINE
8
BLACK
6
CONTINUOUS
10
5.46968
20
-2.97762
11
5.46982
21
-2.97751
0
LINE
8
BLACK
6
CONTINUOUS
10
5.46982
20
-2.97751
11
5.47544
21
-2.97564
0
LINE
8
BLACK
6
CONTINUOUS
10
5.47544
20
-2.97564
11
5.47632
21
-2.97551
0
LINE
8
BLACK
6
CONTINUOUS
10
5.47632
20
-2.97551
11
5.47638
21
-2.97549
0
LINE
8
BLACK
6
CONTINUOUS
10
5.47638
20
-2.97549
11
5.48013
21
-2.97549
0
LINE
8
BLACK
6
CONTINUOUS
10
5.48013
20
-2.97549
11
5.481
21
-2.97564
0
LINE
8
BLACK
6
CONTINUOUS
10
5.43927
20
-2.98592
11
5.43996
21
-2.98781
0
LINE
8
BLACK
6
CONTINUOUS
10
5.43996
20
-2.98781
11
5.43996
21
-2.99986
0
LINE
8
BLACK
6
CONTINUOUS
10
5.43996
20
-2.99986
11
5.45201
21
-2.99986
0
LINE
8
BLACK
6
CONTINUOUS
10
5.45201
20
-2.99986
11
5.45302
21
-3.00004
0
LINE
8
BLACK
6
CONTINUOUS
10
5.45302
20
-3.00004
11
5.45456
21
-3.00134
0
LINE
8
BLACK
6
CONTINUOUS
10
5.45456
20
-3.00134
11
5.45491
21
-3.00332
0
LINE
8
BLACK
6
CONTINUOUS
10
5.45491
20
-3.00332
11
5.4539
21
-3.00507
0
LINE
8
BLACK
6
CONTINUOUS
10
5.4539
20
-3.00507
11
5.45201
21
-3.00576
0
LINE
8
BLACK
6
CONTINUOUS
10
5.45201
20
-3.00576
11
5.43996
21
-3.00576
0
LINE
8
BLACK
6
CONTINUOUS
10
5.43996
20
-3.00576
11
5.43996
21
-3.01781
0
LINE
8
BLACK
6
CONTINUOUS
10
5.43996
20
-3.01781
11
5.43978
21
-3.01882
0
LINE
8
BLACK
6
CONTINUOUS
10
5.43978
20
-3.01882
11
5.43848
21
-3.02037
0
LINE
8
BLACK
6
CONTINUOUS
10
5.43848
20
-3.02037
11
5.4365
21
-3.02072
0
LINE
8
BLACK
6
CONTINUOUS
10
5.4365
20
-3.02072
11
5.43475
21
-3.01971
0
LINE
8
BLACK
6
CONTINUOUS
10
5.43475
20
-3.01971
11
5.43406
21
-3.01781
0
LINE
8
BLACK
6
CONTINUOUS
10
5.43406
20
-3.01781
11
5.43406
21
-3.00576
0
LINE
8
BLACK
6
CONTINUOUS
10
5.43406
20
-3.00576
11
5.42201
21
-3.00576
0
LINE
8
BLACK
6
CONTINUOUS
10
5.42201
20
-3.00576
11
5.421
21
-3.00559
0
LINE
8
BLACK
6
CONTINUOUS
10
5.421
20
-3.00559
11
5.41945
21
-3.00429
0
LINE
8
BLACK
6
CONTINUOUS
10
5.41945
20
-3.00429
11
5.4191
21
-3.0023
0
LINE
8
BLACK
6
CONTINUOUS
10
5.4191
20
-3.0023
11
5.42011
21
-3.00055
0
LINE
8
BLACK
6
CONTINUOUS
10
5.42011
20
-3.00055
11
5.42201
21
-2.99986
0
LINE
8
BLACK
6
CONTINUOUS
10
5.42201
20
-2.99986
11
5.43406
21
-2.99986
0
LINE
8
BLACK
6
CONTINUOUS
10
5.43406
20
-2.99986
11
5.43406
21
-2.98781
0
LINE
8
BLACK
6
CONTINUOUS
10
5.43406
20
-2.98781
11
5.43423
21
-2.9868
0
LINE
8
BLACK
6
CONTINUOUS
10
5.43423
20
-2.9868
11
5.43553
21
-2.98526
0
LINE
8
BLACK
6
CONTINUOUS
10
5.43553
20
-2.98526
11
5.43752
21
-2.98491
0
LINE
8
BLACK
6
CONTINUOUS
10
5.43752
20
-2.98491
11
5.43927
21
-2.98592
0
LINE
8
BLACK
6
CONTINUOUS
10
5.57113
20
-3.00004
11
5.57267
21
-3.00134
0
LINE
8
BLACK
6
CONTINUOUS
10
5.57267
20
-3.00134
11
5.57302
21
-3.00332
0
LINE
8
BLACK
6
CONTINUOUS
10
5.57302
20
-3.00332
11
5.57201
21
-3.00507
0
LINE
8
BLACK
6
CONTINUOUS
10
5.57201
20
-3.00507
11
5.57012
21
-3.00576
0
LINE
8
BLACK
6
CONTINUOUS
10
5.57012
20
-3.00576
11
5.54012
21
-3.00576
0
LINE
8
BLACK
6
CONTINUOUS
10
5.54012
20
-3.00576
11
5.53911
21
-3.00559
0
LINE
8
BLACK
6
CONTINUOUS
10
5.53911
20
-3.00559
11
5.53756
21
-3.00429
0
LINE
8
BLACK
6
CONTINUOUS
10
5.53756
20
-3.00429
11
5.53721
21
-3.0023
0
LINE
8
BLACK
6
CONTINUOUS
10
5.53721
20
-3.0023
11
5.53822
21
-3.00055
0
LINE
8
BLACK
6
CONTINUOUS
10
5.53822
20
-3.00055
11
5.54012
21
-2.99986
0
LINE
8
BLACK
6
CONTINUOUS
10
5.54012
20
-2.99986
11
5.57012
21
-2.99986
0
LINE
8
BLACK
6
CONTINUOUS
10
5.57012
20
-2.99986
11
5.57113
21
-3.00004
0
LINE
8
BLACK
6
CONTINUOUS
10
5.49176
20
-2.91217
11
5.49189
21
-2.91215
0
LINE
8
BLACK
6
CONTINUOUS
10
5.49189
20
-2.91215
11
5.492
21
-2.91221
0
LINE
8
BLACK
6
CONTINUOUS
10
5.492
20
-2.91221
11
5.49239
21
-2.91228
0
LINE
8
BLACK
6
CONTINUOUS
10
5.49239
20
-2.91228
11
5.49297
21
-2.91277
0
LINE
8
BLACK
6
CONTINUOUS
10
5.49297
20
-2.91277
11
5.49364
21
-2.91316
0
LINE
8
BLACK
6
CONTINUOUS
10
5.49364
20
-2.91316
11
5.49373
21
-2.91341
0
LINE
8
BLACK
6
CONTINUOUS
10
5.49373
20
-2.91341
11
5.49393
21
-2.91358
0
LINE
8
BLACK
6
CONTINUOUS
10
5.49393
20
-2.91358
11
5.49407
21
-2.91433
0
LINE
8
BLACK
6
CONTINUOUS
10
5.49407
20
-2.91433
11
5.49433
21
-2.91505
0
LINE
8
BLACK
6
CONTINUOUS
10
5.49433
20
-2.91505
11
5.49433
21
-2.95442
0
LINE
8
BLACK
6
CONTINUOUS
10
5.49433
20
-2.95442
11
5.49426
21
-2.95481
0
LINE
8
BLACK
6
CONTINUOUS
10
5.49426
20
-2.95481
11
5.49428
21
-2.95494
0
LINE
8
BLACK
6
CONTINUOUS
10
5.49428
20
-2.95494
11
5.49422
21
-2.95505
0
LINE
8
BLACK
6
CONTINUOUS
10
5.49422
20
-2.95505
11
5.49415
21
-2.95543
0
LINE
8
BLACK
6
CONTINUOUS
10
5.49415
20
-2.95543
11
5.49366
21
-2.95602
0
LINE
8
BLACK
6
CONTINUOUS
10
5.49366
20
-2.95602
11
5.49327
21
-2.95669
0
LINE
8
BLACK
6
CONTINUOUS
10
5.49327
20
-2.95669
11
5.49302
21
-2.95678
0
LINE
8
BLACK
6
CONTINUOUS
10
5.49302
20
-2.95678
11
5.49285
21
-2.95698
0
LINE
8
BLACK
6
CONTINUOUS
10
5.49285
20
-2.95698
11
5.4921
21
-2.95711
0
LINE
8
BLACK
6
CONTINUOUS
10
5.4921
20
-2.95711
11
5.49138
21
-2.95738
0
LINE
8
BLACK
6
CONTINUOUS
10
5.49138
20
-2.95738
11
5.47638
21
-2.95738
0
LINE
8
BLACK
6
CONTINUOUS
10
5.47638
20
-2.95738
11
5.47537
21
-2.9572
0
LINE
8
BLACK
6
CONTINUOUS
10
5.47537
20
-2.9572
11
5.47523
21
-2.95709
0
LINE
8
BLACK
6
CONTINUOUS
10
5.47523
20
-2.95709
11
5.47506
21
-2.95707
0
LINE
8
BLACK
6
CONTINUOUS
10
5.47506
20
-2.95707
11
5.47131
21
-2.95519
0
LINE
8
BLACK
6
CONTINUOUS
10
5.47131
20
-2.95519
11
5.4706
21
-2.95466
0
LINE
8
BLACK
6
CONTINUOUS
10
5.4706
20
-2.95466
11
5.47054
21
-2.95464
0
LINE
8
BLACK
6
CONTINUOUS
10
5.47054
20
-2.95464
11
5.46867
21
-2.95276
0
LINE
8
BLACK
6
CONTINUOUS
10
5.46867
20
-2.95276
11
5.46816
21
-2.95204
0
LINE
8
BLACK
6
CONTINUOUS
10
5.46816
20
-2.95204
11
5.46811
21
-2.952
0
LINE
8
BLACK
6
CONTINUOUS
10
5.46811
20
-2.952
11
5.46624
21
-2.94825
0
LINE
8
BLACK
6
CONTINUOUS
10
5.46624
20
-2.94825
11
5.46595
21
-2.94726
0
LINE
8
BLACK
6
CONTINUOUS
10
5.46595
20
-2.94726
11
5.46599
21
-2.94709
0
LINE
8
BLACK
6
CONTINUOUS
10
5.46599
20
-2.94709
11
5.46593
21
-2.94693
0
LINE
8
BLACK
6
CONTINUOUS
10
5.46593
20
-2.94693
11
5.46593
21
-2.9413
0
LINE
8
BLACK
6
CONTINUOUS
10
5.46593
20
-2.9413
11
5.4661
21
-2.94029
0
LINE
8
BLACK
6
CONTINUOUS
10
5.4661
20
-2.94029
11
5.46622
21
-2.94016
0
LINE
8
BLACK
6
CONTINUOUS
10
5.46622
20
-2.94016
11
5.46624
21
-2.93998
0
LINE
8
BLACK
6
CONTINUOUS
10
5.46624
20
-2.93998
11
5.46811
21
-2.93623
0
LINE
8
BLACK
6
CONTINUOUS
10
5.46811
20
-2.93623
11
5.46864
21
-2.93552
0
LINE
8
BLACK
6
CONTINUOUS
10
5.46864
20
-2.93552
11
5.46867
21
-2.93546
0
LINE
8
BLACK
6
CONTINUOUS
10
5.46867
20
-2.93546
11
5.47054
21
-2.93359
0
LINE
8
BLACK
6
CONTINUOUS
10
5.47054
20
-2.93359
11
5.47138
21
-2.933
0
LINE
8
BLACK
6
CONTINUOUS
10
5.47138
20
-2.933
11
5.4714
21
-2.933
0
LINE
8
BLACK
6
CONTINUOUS
10
5.4714
20
-2.933
11
5.47054
21
-2.93214
0
LINE
8
BLACK
6
CONTINUOUS
10
5.47054
20
-2.93214
11
5.47003
21
-2.93142
0
LINE
8
BLACK
6
CONTINUOUS
10
5.47003
20
-2.93142
11
5.46999
21
-2.93137
0
LINE
8
BLACK
6
CONTINUOUS
10
5.46999
20
-2.93137
11
5.46811
21
-2.92762
0
LINE
8
BLACK
6
CONTINUOUS
10
5.46811
20
-2.92762
11
5.46782
21
-2.92664
0
LINE
8
BLACK
6
CONTINUOUS
10
5.46782
20
-2.92664
11
5.46786
21
-2.92647
0
LINE
8
BLACK
6
CONTINUOUS
10
5.46786
20
-2.92647
11
5.4678
21
-2.9263
0
LINE
8
BLACK
6
CONTINUOUS
10
5.4678
20
-2.9263
11
5.4678
21
-2.92255
0
LINE
8
BLACK
6
CONTINUOUS
10
5.4678
20
-2.92255
11
5.46798
21
-2.92154
0
LINE
8
BLACK
6
CONTINUOUS
10
5.46798
20
-2.92154
11
5.46809
21
-2.92141
0
LINE
8
BLACK
6
CONTINUOUS
10
5.46809
20
-2.92141
11
5.46811
21
-2.92123
0
LINE
8
BLACK
6
CONTINUOUS
10
5.46811
20
-2.92123
11
5.46999
21
-2.91748
0
LINE
8
BLACK
6
CONTINUOUS
10
5.46999
20
-2.91748
11
5.47051
21
-2.91677
0
LINE
8
BLACK
6
CONTINUOUS
10
5.47051
20
-2.91677
11
5.47054
21
-2.91672
0
LINE
8
BLACK
6
CONTINUOUS
10
5.47054
20
-2.91672
11
5.47242
21
-2.91484
0
LINE
8
BLACK
6
CONTINUOUS
10
5.47242
20
-2.91484
11
5.47314
21
-2.91433
0
LINE
8
BLACK
6
CONTINUOUS
10
5.47314
20
-2.91433
11
5.47318
21
-2.91429
0
LINE
8
BLACK
6
CONTINUOUS
10
5.47318
20
-2.91429
11
5.47693
21
-2.91241
0
LINE
8
BLACK
6
CONTINUOUS
10
5.47693
20
-2.91241
11
5.47792
21
-2.91212
0
LINE
8
BLACK
6
CONTINUOUS
10
5.47792
20
-2.91212
11
5.47809
21
-2.91216
0
LINE
8
BLACK
6
CONTINUOUS
10
5.47809
20
-2.91216
11
5.47825
21
-2.9121
0
LINE
8
BLACK
6
CONTINUOUS
10
5.47825
20
-2.9121
11
5.49138
21
-2.9121
0
LINE
8
BLACK
6
CONTINUOUS
10
5.49138
20
-2.9121
11
5.49176
21
-2.91217
0
LINE
8
BLACK
6
CONTINUOUS
10
5.47873
20
-2.93675
11
5.47422
21
-2.93826
0
LINE
8
BLACK
6
CONTINUOUS
10
5.47422
20
-2.93826
11
5.47318
21
-2.9393
0
LINE
8
BLACK
6
CONTINUOUS
10
5.47318
20
-2.9393
11
5.47183
21
-2.942
0
LINE
8
BLACK
6
CONTINUOUS
10
5.47183
20
-2.942
11
5.47183
21
-2.94623
0
LINE
8
BLACK
6
CONTINUOUS
10
5.47183
20
-2.94623
11
5.47318
21
-2.94893
0
LINE
8
BLACK
6
CONTINUOUS
10
5.47318
20
-2.94893
11
5.47438
21
-2.95012
0
LINE
8
BLACK
6
CONTINUOUS
10
5.47438
20
-2.95012
11
5.47708
21
-2.95147
0
LINE
8
BLACK
6
CONTINUOUS
10
5.47708
20
-2.95147
11
5.48842
21
-2.95147
0
LINE
8
BLACK
6
CONTINUOUS
10
5.48842
20
-2.95147
11
5.48842
21
-2.93675
0
LINE
8
BLACK
6
CONTINUOUS
10
5.48842
20
-2.93675
11
5.47873
21
-2.93675
0
LINE
8
BLACK
6
CONTINUOUS
10
5.47895
20
-2.91801
11
5.47625
21
-2.91936
0
LINE
8
BLACK
6
CONTINUOUS
10
5.47625
20
-2.91936
11
5.47506
21
-2.92055
0
LINE
8
BLACK
6
CONTINUOUS
10
5.47506
20
-2.92055
11
5.47371
21
-2.92325
0
LINE
8
BLACK
6
CONTINUOUS
10
5.47371
20
-2.92325
11
5.47371
21
-2.92561
0
LINE
8
BLACK
6
CONTINUOUS
10
5.47371
20
-2.92561
11
5.47506
21
-2.9283
0
LINE
8
BLACK
6
CONTINUOUS
10
5.47506
20
-2.9283
11
5.47625
21
-2.9295
0
LINE
8
BLACK
6
CONTINUOUS
10
5.47625
20
-2.9295
11
5.47895
21
-2.93085
0
LINE
8
BLACK
6
CONTINUOUS
10
5.47895
20
-2.93085
11
5.48842
21
-2.93085
0
LINE
8
BLACK
6
CONTINUOUS
10
5.48842
20
-2.93085
11
5.48842
21
-2.91801
0
LINE
8
BLACK
6
CONTINUOUS
10
5.48842
20
-2.91801
11
5.47895
21
-2.91801
0
LINE
8
BLACK
6
CONTINUOUS
10
5.60987
20
-2.91217
11
5.61
21
-2.91215
0
LINE
8
BLACK
6
CONTINUOUS
10
5.61
20
-2.91215
11
5.61011
21
-2.91221
0
LINE
8
BLACK
6
CONTINUOUS
10
5.61011
20
-2.91221
11
5.6105
21
-2.91228
0
LINE
8
BLACK
6
CONTINUOUS
10
5.6105
20
-2.91228
11
5.61108
21
-2.91277
0
LINE
8
BLACK
6
CONTINUOUS
10
5.61108
20
-2.91277
11
5.61175
21
-2.91316
0
LINE
8
BLACK
6
CONTINUOUS
10
5.61175
20
-2.91316
11
5.61184
21
-2.91341
0
LINE
8
BLACK
6
CONTINUOUS
10
5.61184
20
-2.91341
11
5.61204
21
-2.91358
0
LINE
8
BLACK
6
CONTINUOUS
10
5.61204
20
-2.91358
11
5.61218
21
-2.91433
0
LINE
8
BLACK
6
CONTINUOUS
10
5.61218
20
-2.91433
11
5.61244
21
-2.91505
0
LINE
8
BLACK
6
CONTINUOUS
10
5.61244
20
-2.91505
11
5.61244
21
-2.95442
0
LINE
8
BLACK
6
CONTINUOUS
10
5.61244
20
-2.95442
11
5.61237
21
-2.95481
0
LINE
8
BLACK
6
CONTINUOUS
10
5.61237
20
-2.95481
11
5.61239
21
-2.95494
0
LINE
8
BLACK
6
CONTINUOUS
10
5.61239
20
-2.95494
11
5.61233
21
-2.95505
0
LINE
8
BLACK
6
CONTINUOUS
10
5.61233
20
-2.95505
11
5.61226
21
-2.95543
0
LINE
8
BLACK
6
CONTINUOUS
10
5.61226
20
-2.95543
11
5.61177
21
-2.95602
0
LINE
8
BLACK
6
CONTINUOUS
10
5.61177
20
-2.95602
11
5.61138
21
-2.95669
0
LINE
8
BLACK
6
CONTINUOUS
10
5.61138
20
-2.95669
11
5.61113
21
-2.95678
0
LINE
8
BLACK
6
CONTINUOUS
10
5.61113
20
-2.95678
11
5.61096
21
-2.95698
0
LINE
8
BLACK
6
CONTINUOUS
10
5.61096
20
-2.95698
11
5.61021
21
-2.95711
0
LINE
8
BLACK
6
CONTINUOUS
10
5.61021
20
-2.95711
11
5.60949
21
-2.95738
0
LINE
8
BLACK
6
CONTINUOUS
10
5.60949
20
-2.95738
11
5.59449
21
-2.95738
0
LINE
8
BLACK
6
CONTINUOUS
10
5.59449
20
-2.95738
11
5.59348
21
-2.9572
0
LINE
8
BLACK
6
CONTINUOUS
10
5.59348
20
-2.9572
11
5.59334
21
-2.95709
0
LINE
8
BLACK
6
CONTINUOUS
10
5.59334
20
-2.95709
11
5.59317
21
-2.95707
0
LINE
8
BLACK
6
CONTINUOUS
10
5.59317
20
-2.95707
11
5.58942
21
-2.95519
0
LINE
8
BLACK
6
CONTINUOUS
10
5.58942
20
-2.95519
11
5.58871
21
-2.95466
0
LINE
8
BLACK
6
CONTINUOUS
10
5.58871
20
-2.95466
11
5.58865
21
-2.95464
0
LINE
8
BLACK
6
CONTINUOUS
10
5.58865
20
-2.95464
11
5.58678
21
-2.95276
0
LINE
8
BLACK
6
CONTINUOUS
10
5.58678
20
-2.95276
11
5.58627
21
-2.95204
0
LINE
8
BLACK
6
CONTINUOUS
10
5.58627
20
-2.95204
11
5.58622
21
-2.952
0
LINE
8
BLACK
6
CONTINUOUS
10
5.58622
20
-2.952
11
5.58435
21
-2.94825
0
LINE
8
BLACK
6
CONTINUOUS
10
5.58435
20
-2.94825
11
5.58406
21
-2.94726
0
LINE
8
BLACK
6
CONTINUOUS
10
5.58406
20
-2.94726
11
5.5841
21
-2.94709
0
LINE
8
BLACK
6
CONTINUOUS
10
5.5841
20
-2.94709
11
5.58404
21
-2.94693
0
LINE
8
BLACK
6
CONTINUOUS
10
5.58404
20
-2.94693
11
5.58404
21
-2.9413
0
LINE
8
BLACK
6
CONTINUOUS
10
5.58404
20
-2.9413
11
5.58421
21
-2.94029
0
LINE
8
BLACK
6
CONTINUOUS
10
5.58421
20
-2.94029
11
5.58433
21
-2.94016
0
LINE
8
BLACK
6
CONTINUOUS
10
5.58433
20
-2.94016
11
5.58435
21
-2.93998
0
LINE
8
BLACK
6
CONTINUOUS
10
5.58435
20
-2.93998
11
5.58622
21
-2.93623
0
LINE
8
BLACK
6
CONTINUOUS
10
5.58622
20
-2.93623
11
5.58675
21
-2.93552
0
LINE
8
BLACK
6
CONTINUOUS
10
5.58675
20
-2.93552
11
5.58678
21
-2.93546
0
LINE
8
BLACK
6
CONTINUOUS
10
5.58678
20
-2.93546
11
5.58865
21
-2.93359
0
LINE
8
BLACK
6
CONTINUOUS
10
5.58865
20
-2.93359
11
5.58949
21
-2.933
0
LINE
8
BLACK
6
CONTINUOUS
10
5.58949
20
-2.933
11
5.58951
21
-2.933
0
LINE
8
BLACK
6
CONTINUOUS
10
5.58951
20
-2.933
11
5.58865
21
-2.93214
0
LINE
8
BLACK
6
CONTINUOUS
10
5.58865
20
-2.93214
11
5.58814
21
-2.93142
0
LINE
8
BLACK
6
CONTINUOUS
10
5.58814
20
-2.93142
11
5.5881
21
-2.93137
0
LINE
8
BLACK
6
CONTINUOUS
10
5.5881
20
-2.93137
11
5.58622
21
-2.92762
0
LINE
8
BLACK
6
CONTINUOUS
10
5.58622
20
-2.92762
11
5.58593
21
-2.92664
0
LINE
8
BLACK
6
CONTINUOUS
10
5.58593
20
-2.92664
11
5.58597
21
-2.92647
0
LINE
8
BLACK
6
CONTINUOUS
10
5.58597
20
-2.92647
11
5.58591
21
-2.9263
0
LINE
8
BLACK
6
CONTINUOUS
10
5.58591
20
-2.9263
11
5.58591
21
-2.92255
0
LINE
8
BLACK
6
CONTINUOUS
10
5.58591
20
-2.92255
11
5.58609
21
-2.92154
0
LINE
8
BLACK
6
CONTINUOUS
10
5.58609
20
-2.92154
11
5.5862
21
-2.92141
0
LINE
8
BLACK
6
CONTINUOUS
10
5.5862
20
-2.92141
11
5.58622
21
-2.92123
0
LINE
8
BLACK
6
CONTINUOUS
10
5.58622
20
-2.92123
11
5.5881
21
-2.91748
0
LINE
8
BLACK
6
CONTINUOUS
10
5.5881
20
-2.91748
11
5.58862
21
-2.91677
0
LINE
8
BLACK
6
CONTINUOUS
10
5.58862
20
-2.91677
11
5.58865
21
-2.91672
0
LINE
8
BLACK
6
CONTINUOUS
10
5.58865
20
-2.91672
11
5.59053
21
-2.91484
0
LINE
8
BLACK
6
CONTINUOUS
10
5.59053
20
-2.91484
11
5.59125
21
-2.91433
0
LINE
8
BLACK
6
CONTINUOUS
10
5.59125
20
-2.91433
11
5.59129
21
-2.91429
0
LINE
8
BLACK
6
CONTINUOUS
10
5.59129
20
-2.91429
11
5.59504
21
-2.91241
0
LINE
8
BLACK
6
CONTINUOUS
10
5.59504
20
-2.91241
11
5.59603
21
-2.91212
0
LINE
8
BLACK
6
CONTINUOUS
10
5.59603
20
-2.91212
11
5.5962
21
-2.91216
0
LINE
8
BLACK
6
CONTINUOUS
10
5.5962
20
-2.91216
11
5.59636
21
-2.9121
0
LINE
8
BLACK
6
CONTINUOUS
10
5.59636
20
-2.9121
11
5.60949
21
-2.9121
0
LINE
8
BLACK
6
CONTINUOUS
10
5.60949
20
-2.9121
11
5.60987
21
-2.91217
0
LINE
8
BLACK
6
CONTINUOUS
10
5.59684
20
-2.93675
11
5.59233
21
-2.93826
0
LINE
8
BLACK
6
CONTINUOUS
10
5.59233
20
-2.93826
11
5.59129
21
-2.9393
0
LINE
8
BLACK
6
CONTINUOUS
10
5.59129
20
-2.9393
11
5.58994
21
-2.942
0
LINE
8
BLACK
6
CONTINUOUS
10
5.58994
20
-2.942
11
5.58994
21
-2.94623
0
LINE
8
BLACK
6
CONTINUOUS
10
5.58994
20
-2.94623
11
5.59129
21
-2.94893
0
LINE
8
BLACK
6
CONTINUOUS
10
5.59129
20
-2.94893
11
5.59249
21
-2.95012
0
LINE
8
BLACK
6
CONTINUOUS
10
5.59249
20
-2.95012
11
5.59519
21
-2.95147
0
LINE
8
BLACK
6
CONTINUOUS
10
5.59519
20
-2.95147
11
5.60653
21
-2.95147
0
LINE
8
BLACK
6
CONTINUOUS
10
5.60653
20
-2.95147
11
5.60653
21
-2.93675
0
LINE
8
BLACK
6
CONTINUOUS
10
5.60653
20
-2.93675
11
5.59684
21
-2.93675
0
LINE
8
BLACK
6
CONTINUOUS
10
5.59706
20
-2.91801
11
5.59436
21
-2.91936
0
LINE
8
BLACK
6
CONTINUOUS
10
5.59436
20
-2.91936
11
5.59317
21
-2.92055
0
LINE
8
BLACK
6
CONTINUOUS
10
5.59317
20
-2.92055
11
5.59182
21
-2.92325
0
LINE
8
BLACK
6
CONTINUOUS
10
5.59182
20
-2.92325
11
5.59182
21
-2.92561
0
LINE
8
BLACK
6
CONTINUOUS
10
5.59182
20
-2.92561
11
5.59317
21
-2.9283
0
LINE
8
BLACK
6
CONTINUOUS
10
5.59317
20
-2.9283
11
5.59436
21
-2.9295
0
LINE
8
BLACK
6
CONTINUOUS
10
5.59436
20
-2.9295
11
5.59706
21
-2.93085
0
LINE
8
BLACK
6
CONTINUOUS
10
5.59706
20
-2.93085
11
5.60653
21
-2.93085
0
LINE
8
BLACK
6
CONTINUOUS
10
5.60653
20
-2.93085
11
5.60653
21
-2.91801
0
LINE
8
BLACK
6
CONTINUOUS
10
5.60653
20
-2.91801
11
5.59706
21
-2.91801
0
LINE
8
BLACK
6
CONTINUOUS
10
5.43927
20
-2.92253
11
5.43996
21
-2.92443
0
LINE
8
BLACK
6
CONTINUOUS
10
5.43996
20
-2.92443
11
5.43996
21
-2.93647
0
LINE
8
BLACK
6
CONTINUOUS
10
5.43996
20
-2.93647
11
5.45201
21
-2.93647
0
LINE
8
BLACK
6
CONTINUOUS
10
5.45201
20
-2.93647
11
5.45302
21
-2.93665
0
LINE
8
BLACK
6
CONTINUOUS
10
5.45302
20
-2.93665
11
5.45456
21
-2.93795
0
LINE
8
BLACK
6
CONTINUOUS
10
5.45456
20
-2.93795
11
5.45491
21
-2.93994
0
LINE
8
BLACK
6
CONTINUOUS
10
5.45491
20
-2.93994
11
5.4539
21
-2.94169
0
LINE
8
BLACK
6
CONTINUOUS
10
5.4539
20
-2.94169
11
5.45201
21
-2.94238
0
LINE
8
BLACK
6
CONTINUOUS
10
5.45201
20
-2.94238
11
5.43996
21
-2.94238
0
LINE
8
BLACK
6
CONTINUOUS
10
5.43996
20
-2.94238
11
5.43996
21
-2.95442
0
LINE
8
BLACK
6
CONTINUOUS
10
5.43996
20
-2.95442
11
5.43978
21
-2.95543
0
LINE
8
BLACK
6
CONTINUOUS
10
5.43978
20
-2.95543
11
5.43848
21
-2.95698
0
LINE
8
BLACK
6
CONTINUOUS
10
5.43848
20
-2.95698
11
5.4365
21
-2.95733
0
LINE
8
BLACK
6
CONTINUOUS
10
5.4365
20
-2.95733
11
5.43475
21
-2.95632
0
LINE
8
BLACK
6
CONTINUOUS
10
5.43475
20
-2.95632
11
5.43406
21
-2.95442
0
LINE
8
BLACK
6
CONTINUOUS
10
5.43406
20
-2.95442
11
5.43406
21
-2.94238
0
LINE
8
BLACK
6
CONTINUOUS
10
5.43406
20
-2.94238
11
5.42201
21
-2.94238
0
LINE
8
BLACK
6
CONTINUOUS
10
5.42201
20
-2.94238
11
5.421
21
-2.9422
0
LINE
8
BLACK
6
CONTINUOUS
10
5.421
20
-2.9422
11
5.41945
21
-2.9409
0
LINE
8
BLACK
6
CONTINUOUS
10
5.41945
20
-2.9409
11
5.4191
21
-2.93891
0
LINE
8
BLACK
6
CONTINUOUS
10
5.4191
20
-2.93891
11
5.42011
21
-2.93716
0
LINE
8
BLACK
6
CONTINUOUS
10
5.42011
20
-2.93716
11
5.42201
21
-2.93647
0
LINE
8
BLACK
6
CONTINUOUS
10
5.42201
20
-2.93647
11
5.43406
21
-2.93647
0
LINE
8
BLACK
6
CONTINUOUS
10
5.43406
20
-2.93647
11
5.43406
21
-2.92443
0
LINE
8
BLACK
6
CONTINUOUS
10
5.43406
20
-2.92443
11
5.43423
21
-2.92342
0
LINE
8
BLACK
6
CONTINUOUS
10
5.43423
20
-2.92342
11
5.43553
21
-2.92187
0
LINE
8
BLACK
6
CONTINUOUS
10
5.43553
20
-2.92187
11
5.43752
21
-2.92152
0
LINE
8
BLACK
6
CONTINUOUS
10
5.43752
20
-2.92152
11
5.43927
21
-2.92253
0
LINE
8
BLACK
6
CONTINUOUS
10
5.57113
20
-2.93665
11
5.57267
21
-2.93795
0
LINE
8
BLACK
6
CONTINUOUS
10
5.57267
20
-2.93795
11
5.57302
21
-2.93994
0
LINE
8
BLACK
6
CONTINUOUS
10
5.57302
20
-2.93994
11
5.57201
21
-2.94169
0
LINE
8
BLACK
6
CONTINUOUS
10
5.57201
20
-2.94169
11
5.57012
21
-2.94238
0
LINE
8
BLACK
6
CONTINUOUS
10
5.57012
20
-2.94238
11
5.54012
21
-2.94238
0
LINE
8
BLACK
6
CONTINUOUS
10
5.54012
20
-2.94238
11
5.53911
21
-2.9422
0
LINE
8
BLACK
6
CONTINUOUS
10
5.53911
20
-2.9422
11
5.53756
21
-2.9409
0
LINE
8
BLACK
6
CONTINUOUS
10
5.53756
20
-2.9409
11
5.53721
21
-2.93891
0
LINE
8
BLACK
6
CONTINUOUS
10
5.53721
20
-2.93891
11
5.53822
21
-2.93716
0
LINE
8
BLACK
6
CONTINUOUS
10
5.53822
20
-2.93716
11
5.54012
21
-2.93647
0
LINE
8
BLACK
6
CONTINUOUS
10
5.54012
20
-2.93647
11
5.57012
21
-2.93647
0
LINE
8
BLACK
6
CONTINUOUS
10
5.57012
20
-2.93647
11
5.57113
21
-2.93665
0
LINE
8
BLACK
6
CONTINUOUS
10
5.48436
20
-2.84893
11
5.48528
21
-2.84907
0
LINE
8
BLACK
6
CONTINUOUS
10
5.48528
20
-2.84907
11
5.48534
21
-2.84914
0
LINE
8
BLACK
6
CONTINUOUS
10
5.48534
20
-2.84914
11
5.48542
21
-2.84915
0
LINE
8
BLACK
6
CONTINUOUS
10
5.48542
20
-2.84915
11
5.486
21
-2.84988
0
LINE
8
BLACK
6
CONTINUOUS
10
5.486
20
-2.84988
11
5.48662
21
-2.85058
0
LINE
8
BLACK
6
CONTINUOUS
10
5.48662
20
-2.85058
11
5.48663
21
-2.85067
0
LINE
8
BLACK
6
CONTINUOUS
10
5.48663
20
-2.85067
11
5.48668
21
-2.85073
0
LINE
8
BLACK
6
CONTINUOUS
10
5.48668
20
-2.85073
11
5.4998
21
-2.8901
0
LINE
8
BLACK
6
CONTINUOUS
10
5.4998
20
-2.8901
11
5.49995
21
-2.89112
0
LINE
8
BLACK
6
CONTINUOUS
10
5.49995
20
-2.89112
11
5.49921
21
-2.893
0
LINE
8
BLACK
6
CONTINUOUS
10
5.49921
20
-2.893
11
5.49743
21
-2.89396
0
LINE
8
BLACK
6
CONTINUOUS
10
5.49743
20
-2.89396
11
5.49545
21
-2.89355
0
LINE
8
BLACK
6
CONTINUOUS
10
5.49545
20
-2.89355
11
5.4942
21
-2.89197
0
LINE
8
BLACK
6
CONTINUOUS
10
5.4942
20
-2.89197
11
5.49112
21
-2.88274
0
LINE
8
BLACK
6
CONTINUOUS
10
5.49112
20
-2.88274
11
5.47663
21
-2.88274
0
LINE
8
BLACK
6
CONTINUOUS
10
5.47663
20
-2.88274
11
5.47355
21
-2.89197
0
LINE
8
BLACK
6
CONTINUOUS
10
5.47355
20
-2.89197
11
5.47307
21
-2.89287
0
LINE
8
BLACK
6
CONTINUOUS
10
5.47307
20
-2.89287
11
5.47135
21
-2.89393
0
LINE
8
BLACK
6
CONTINUOUS
10
5.47135
20
-2.89393
11
5.46935
21
-2.89364
0
LINE
8
BLACK
6
CONTINUOUS
10
5.46935
20
-2.89364
11
5.46801
21
-2.89212
0
LINE
8
BLACK
6
CONTINUOUS
10
5.46801
20
-2.89212
11
5.46795
21
-2.8901
0
LINE
8
BLACK
6
CONTINUOUS
10
5.46795
20
-2.8901
11
5.48108
21
-2.85073
0
LINE
8
BLACK
6
CONTINUOUS
10
5.48108
20
-2.85073
11
5.48156
21
-2.84983
0
LINE
8
BLACK
6
CONTINUOUS
10
5.48156
20
-2.84983
11
5.48164
21
-2.84979
0
LINE
8
BLACK
6
CONTINUOUS
10
5.48164
20
-2.84979
11
5.48167
21
-2.84971
0
LINE
8
BLACK
6
CONTINUOUS
10
5.48167
20
-2.84971
11
5.48249
21
-2.84926
0
LINE
8
BLACK
6
CONTINUOUS
10
5.48249
20
-2.84926
11
5.48329
21
-2.84878
0
LINE
8
BLACK
6
CONTINUOUS
10
5.48329
20
-2.84878
11
5.48337
21
-2.84879
0
LINE
8
BLACK
6
CONTINUOUS
10
5.48337
20
-2.84879
11
5.48344
21
-2.84875
0
LINE
8
BLACK
6
CONTINUOUS
10
5.48344
20
-2.84875
11
5.48436
21
-2.84893
0
LINE
8
BLACK
6
CONTINUOUS
10
5.4786
20
-2.87684
11
5.48915
21
-2.87684
0
LINE
8
BLACK
6
CONTINUOUS
10
5.48915
20
-2.87684
11
5.48388
21
-2.86101
0
LINE
8
BLACK
6
CONTINUOUS
10
5.48388
20
-2.86101
11
5.4786
21
-2.87684
0
LINE
8
BLACK
6
CONTINUOUS
10
5.59684
20
-2.84893
11
5.59777
21
-2.84907
0
LINE
8
BLACK
6
CONTINUOUS
10
5.59777
20
-2.84907
11
5.59783
21
-2.84914
0
LINE
8
BLACK
6
CONTINUOUS
10
5.59783
20
-2.84914
11
5.59791
21
-2.84915
0
LINE
8
BLACK
6
CONTINUOUS
10
5.59791
20
-2.84915
11
5.59849
21
-2.84988
0
LINE
8
BLACK
6
CONTINUOUS
10
5.59849
20
-2.84988
11
5.59911
21
-2.85058
0
LINE
8
BLACK
6
CONTINUOUS
10
5.59911
20
-2.85058
11
5.59911
21
-2.85067
0
LINE
8
BLACK
6
CONTINUOUS
10
5.59911
20
-2.85067
11
5.59916
21
-2.85073
0
LINE
8
BLACK
6
CONTINUOUS
10
5.59916
20
-2.85073
11
5.61229
21
-2.8901
0
LINE
8
BLACK
6
CONTINUOUS
10
5.61229
20
-2.8901
11
5.61244
21
-2.89112
0
LINE
8
BLACK
6
CONTINUOUS
10
5.61244
20
-2.89112
11
5.6117
21
-2.893
0
LINE
8
BLACK
6
CONTINUOUS
10
5.6117
20
-2.893
11
5.60992
21
-2.89396
0
LINE
8
BLACK
6
CONTINUOUS
10
5.60992
20
-2.89396
11
5.60794
21
-2.89355
0
LINE
8
BLACK
6
CONTINUOUS
10
5.60794
20
-2.89355
11
5.60669
21
-2.89197
0
LINE
8
BLACK
6
CONTINUOUS
10
5.60669
20
-2.89197
11
5.60361
21
-2.88274
0
LINE
8
BLACK
6
CONTINUOUS
10
5.60361
20
-2.88274
11
5.58912
21
-2.88274
0
LINE
8
BLACK
6
CONTINUOUS
10
5.58912
20
-2.88274
11
5.58604
21
-2.89197
0
LINE
8
BLACK
6
CONTINUOUS
10
5.58604
20
-2.89197
11
5.58555
21
-2.89287
0
LINE
8
BLACK
6
CONTINUOUS
10
5.58555
20
-2.89287
11
5.58383
21
-2.89393
0
LINE
8
BLACK
6
CONTINUOUS
10
5.58383
20
-2.89393
11
5.58183
21
-2.89364
0
LINE
8
BLACK
6
CONTINUOUS
10
5.58183
20
-2.89364
11
5.58049
21
-2.89212
0
LINE
8
BLACK
6
CONTINUOUS
10
5.58049
20
-2.89212
11
5.58044
21
-2.8901
0
LINE
8
BLACK
6
CONTINUOUS
10
5.58044
20
-2.8901
11
5.59356
21
-2.85073
0
LINE
8
BLACK
6
CONTINUOUS
10
5.59356
20
-2.85073
11
5.59405
21
-2.84983
0
LINE
8
BLACK
6
CONTINUOUS
10
5.59405
20
-2.84983
11
5.59412
21
-2.84979
0
LINE
8
BLACK
6
CONTINUOUS
10
5.59412
20
-2.84979
11
5.59415
21
-2.84971
0
LINE
8
BLACK
6
CONTINUOUS
10
5.59415
20
-2.84971
11
5.59497
21
-2.84926
0
LINE
8
BLACK
6
CONTINUOUS
10
5.59497
20
-2.84926
11
5.59577
21
-2.84878
0
LINE
8
BLACK
6
CONTINUOUS
10
5.59577
20
-2.84878
11
5.59586
21
-2.84879
0
LINE
8
BLACK
6
CONTINUOUS
10
5.59586
20
-2.84879
11
5.59593
21
-2.84875
0
LINE
8
BLACK
6
CONTINUOUS
10
5.59593
20
-2.84875
11
5.59684
21
-2.84893
0
LINE
8
BLACK
6
CONTINUOUS
10
5.59109
20
-2.87684
11
5.60164
21
-2.87684
0
LINE
8
BLACK
6
CONTINUOUS
10
5.60164
20
-2.87684
11
5.59636
21
-2.86101
0
LINE
8
BLACK
6
CONTINUOUS
10
5.59636
20
-2.86101
11
5.59109
21
-2.87684
0
LINE
8
BLACK
6
CONTINUOUS
10
5.44489
20
-2.85914
11
5.44558
21
-2.86104
0
LINE
8
BLACK
6
CONTINUOUS
10
5.44558
20
-2.86104
11
5.44558
21
-2.87309
0
LINE
8
BLACK
6
CONTINUOUS
10
5.44558
20
-2.87309
11
5.45763
21
-2.87309
0
LINE
8
BLACK
6
CONTINUOUS
10
5.45763
20
-2.87309
11
5.45864
21
-2.87327
0
LINE
8
BLACK
6
CONTINUOUS
10
5.45864
20
-2.87327
11
5.46019
21
-2.87456
0
LINE
8
BLACK
6
CONTINUOUS
10
5.46019
20
-2.87456
11
5.46054
21
-2.87655
0
LINE
8
BLACK
6
CONTINUOUS
10
5.46054
20
-2.87655
11
5.45953
21
-2.8783
0
LINE
8
BLACK
6
CONTINUOUS
10
5.45953
20
-2.8783
11
5.45763
21
-2.87899
0
LINE
8
BLACK
6
CONTINUOUS
10
5.45763
20
-2.87899
11
5.44558
21
-2.87899
0
LINE
8
BLACK
6
CONTINUOUS
10
5.44558
20
-2.87899
11
5.44558
21
-2.89104
0
LINE
8
BLACK
6
CONTINUOUS
10
5.44558
20
-2.89104
11
5.44541
21
-2.89205
0
LINE
8
BLACK
6
CONTINUOUS
10
5.44541
20
-2.89205
11
5.44411
21
-2.8936
0
LINE
8
BLACK
6
CONTINUOUS
10
5.44411
20
-2.8936
11
5.44212
21
-2.89395
0
LINE
8
BLACK
6
CONTINUOUS
10
5.44212
20
-2.89395
11
5.44037
21
-2.89294
0
LINE
8
BLACK
6
CONTINUOUS
10
5.44037
20
-2.89294
11
5.43968
21
-2.89104
0
LINE
8
BLACK
6
CONTINUOUS
10
5.43968
20
-2.89104
11
5.43968
21
-2.87899
0
LINE
8
BLACK
6
CONTINUOUS
10
5.43968
20
-2.87899
11
5.42763
21
-2.87899
0
LINE
8
BLACK
6
CONTINUOUS
10
5.42763
20
-2.87899
11
5.42662
21
-2.87882
0
LINE
8
BLACK
6
CONTINUOUS
10
5.42662
20
-2.87882
11
5.42508
21
-2.87752
0
LINE
8
BLACK
6
CONTINUOUS
10
5.42508
20
-2.87752
11
5.42473
21
-2.87553
0
LINE
8
BLACK
6
CONTINUOUS
10
5.42473
20
-2.87553
11
5.42574
21
-2.87378
0
LINE
8
BLACK
6
CONTINUOUS
10
5.42574
20
-2.87378
11
5.42763
21
-2.87309
0
LINE
8
BLACK
6
CONTINUOUS
10
5.42763
20
-2.87309
11
5.43968
21
-2.87309
0
LINE
8
BLACK
6
CONTINUOUS
10
5.43968
20
-2.87309
11
5.43968
21
-2.86104
0
LINE
8
BLACK
6
CONTINUOUS
10
5.43968
20
-2.86104
11
5.43986
21
-2.86003
0
LINE
8
BLACK
6
CONTINUOUS
10
5.43986
20
-2.86003
11
5.44116
21
-2.85849
0
LINE
8
BLACK
6
CONTINUOUS
10
5.44116
20
-2.85849
11
5.44314
21
-2.85813
0
LINE
8
BLACK
6
CONTINUOUS
10
5.44314
20
-2.85813
11
5.44489
21
-2.85914
0
LINE
8
BLACK
6
CONTINUOUS
10
5.57113
20
-2.87327
11
5.57267
21
-2.87456
0
LINE
8
BLACK
6
CONTINUOUS
10
5.57267
20
-2.87456
11
5.57302
21
-2.87655
0
LINE
8
BLACK
6
CONTINUOUS
10
5.57302
20
-2.87655
11
5.57201
21
-2.8783
0
LINE
8
BLACK
6
CONTINUOUS
10
5.57201
20
-2.8783
11
5.57012
21
-2.87899
0
LINE
8
BLACK
6
CONTINUOUS
10
5.57012
20
-2.87899
11
5.54012
21
-2.87899
0
LINE
8
BLACK
6
CONTINUOUS
10
5.54012
20
-2.87899
11
5.53911
21
-2.87882
0
LINE
8
BLACK
6
CONTINUOUS
10
5.53911
20
-2.87882
11
5.53756
21
-2.87752
0
LINE
8
BLACK
6
CONTINUOUS
10
5.53756
20
-2.87752
11
5.53721
21
-2.87553
0
LINE
8
BLACK
6
CONTINUOUS
10
5.53721
20
-2.87553
11
5.53822
21
-2.87378
0
LINE
8
BLACK
6
CONTINUOUS
10
5.53822
20
-2.87378
11
5.54012
21
-2.87309
0
LINE
8
BLACK
6
CONTINUOUS
10
5.54012
20
-2.87309
11
5.57012
21
-2.87309
0
LINE
8
BLACK
6
CONTINUOUS
10
5.57012
20
-2.87309
11
5.57113
21
-2.87327
0
LINE
8
BLACK
6
CONTINUOUS
10
5.73302
20
-3.07978
11
5.73316
21
-3.07979
0
LINE
8
BLACK
6
CONTINUOUS
10
5.73316
20
-3.07979
11
5.73357
21
-3.08026
0
LINE
8
BLACK
6
CONTINUOUS
10
5.73357
20
-3.08026
11
5.73404
21
-3.08067
0
LINE
8
BLACK
6
CONTINUOUS
10
5.73404
20
-3.08067
11
5.73405
21
-3.08082
0
LINE
8
BLACK
6
CONTINUOUS
10
5.73405
20
-3.08082
11
5.73415
21
-3.08093
0
LINE
8
BLACK
6
CONTINUOUS
10
5.73415
20
-3.08093
11
5.74202
21
-3.10455
0
LINE
8
BLACK
6
CONTINUOUS
10
5.74202
20
-3.10455
11
5.74192
21
-3.10605
0
LINE
8
BLACK
6
CONTINUOUS
10
5.74192
20
-3.10605
11
5.74078
21
-3.10704
0
LINE
8
BLACK
6
CONTINUOUS
10
5.74078
20
-3.10704
11
5.73928
21
-3.10694
0
LINE
8
BLACK
6
CONTINUOUS
10
5.73928
20
-3.10694
11
5.73829
21
-3.1058
0
LINE
8
BLACK
6
CONTINUOUS
10
5.73829
20
-3.1058
11
5.73649
21
-3.10039
0
LINE
8
BLACK
6
CONTINUOUS
10
5.73649
20
-3.10039
11
5.72808
21
-3.10039
0
LINE
8
BLACK
6
CONTINUOUS
10
5.72808
20
-3.10039
11
5.72628
21
-3.1058
0
LINE
8
BLACK
6
CONTINUOUS
10
5.72628
20
-3.1058
11
5.72529
21
-3.10694
0
LINE
8
BLACK
6
CONTINUOUS
10
5.72529
20
-3.10694
11
5.72379
21
-3.10704
0
LINE
8
BLACK
6
CONTINUOUS
10
5.72379
20
-3.10704
11
5.72265
21
-3.10605
0
LINE
8
BLACK
6
CONTINUOUS
10
5.72265
20
-3.10605
11
5.72254
21
-3.10455
0
LINE
8
BLACK
6
CONTINUOUS
10
5.72254
20
-3.10455
11
5.73042
21
-3.08093
0
LINE
8
BLACK
6
CONTINUOUS
10
5.73042
20
-3.08093
11
5.73051
21
-3.08082
0
LINE
8
BLACK
6
CONTINUOUS
10
5.73051
20
-3.08082
11
5.73052
21
-3.08067
0
LINE
8
BLACK
6
CONTINUOUS
10
5.73052
20
-3.08067
11
5.73099
21
-3.08026
0
LINE
8
BLACK
6
CONTINUOUS
10
5.73099
20
-3.08026
11
5.7314
21
-3.07979
0
LINE
8
BLACK
6
CONTINUOUS
10
5.7314
20
-3.07979
11
5.73155
21
-3.07978
0
LINE
8
BLACK
6
CONTINUOUS
10
5.73155
20
-3.07978
11
5.73166
21
-3.07968
0
LINE
8
BLACK
6
CONTINUOUS
10
5.73166
20
-3.07968
11
5.73228
21
-3.07973
0
LINE
8
BLACK
6
CONTINUOUS
10
5.73228
20
-3.07973
11
5.73291
21
-3.07968
0
LINE
8
BLACK
6
CONTINUOUS
10
5.73291
20
-3.07968
11
5.73302
21
-3.07978
0
LINE
8
BLACK
6
CONTINUOUS
10
5.72939
20
-3.09646
11
5.73518
21
-3.09646
0
LINE
8
BLACK
6
CONTINUOUS
10
5.73518
20
-3.09646
11
5.73228
21
-3.08778
0
LINE
8
BLACK
6
CONTINUOUS
10
5.73228
20
-3.08778
11
5.72939
21
-3.09646
0
LINE
8
BLACK
6
CONTINUOUS
10
3.92156
20
-3.10246
11
3.92087
21
-3.10079
0
LINE
8
BLACK
6
CONTINUOUS
10
3.92087
20
-3.10079
11
3.92156
21
-3.09912
0
LINE
8
BLACK
6
CONTINUOUS
10
3.92156
20
-3.09912
11
3.92323
21
-3.09843
0
LINE
8
BLACK
6
CONTINUOUS
10
3.92323
20
-3.09843
11
4.07677
21
-3.09843
0
LINE
8
BLACK
6
CONTINUOUS
10
4.07677
20
-3.09843
11
4.07844
21
-3.09912
0
LINE
8
BLACK
6
CONTINUOUS
10
4.07844
20
-3.09912
11
4.07913
21
-3.10079
0
LINE
8
BLACK
6
CONTINUOUS
10
4.07913
20
-3.10079
11
4.07844
21
-3.10246
0
LINE
8
BLACK
6
CONTINUOUS
10
4.07844
20
-3.10246
11
4.07677
21
-3.10315
0
LINE
8
BLACK
6
CONTINUOUS
10
4.07677
20
-3.10315
11
3.92323
21
-3.10315
0
LINE
8
BLACK
6
CONTINUOUS
10
3.92323
20
-3.10315
11
3.92156
21
-3.10246
0
LINE
8
BLACK
6
CONTINUOUS
10
5.72905
20
-3.02823
11
5.72859
21
-3.02819
0
LINE
8
BLACK
6
CONTINUOUS
10
5.72859
20
-3.02819
11
5.72634
21
-3.02707
0
LINE
8
BLACK
6
CONTINUOUS
10
5.72634
20
-3.02707
11
5.72613
21
-3.02683
0
LINE
8
BLACK
6
CONTINUOUS
10
5.72613
20
-3.02683
11
5.72583
21
-3.0267
0
LINE
8
BLACK
6
CONTINUOUS
10
5.72583
20
-3.0267
11
5.7247
21
-3.02558
0
LINE
8
BLACK
6
CONTINUOUS
10
5.7247
20
-3.02558
11
5.72458
21
-3.02528
0
LINE
8
BLACK
6
CONTINUOUS
10
5.72458
20
-3.02528
11
5.72434
21
-3.02506
0
LINE
8
BLACK
6
CONTINUOUS
10
5.72434
20
-3.02506
11
5.72321
21
-3.02282
0
LINE
8
BLACK
6
CONTINUOUS
10
5.72321
20
-3.02282
11
5.72318
21
-3.02236
0
LINE
8
BLACK
6
CONTINUOUS
10
5.72318
20
-3.02236
11
5.723
21
-3.02193
0
LINE
8
BLACK
6
CONTINUOUS
10
5.723
20
-3.02193
11
5.723
21
-3.01856
0
LINE
8
BLACK
6
CONTINUOUS
10
5.723
20
-3.01856
11
5.72318
21
-3.01814
0
LINE
8
BLACK
6
CONTINUOUS
10
5.72318
20
-3.01814
11
5.72321
21
-3.01768
0
LINE
8
BLACK
6
CONTINUOUS
10
5.72321
20
-3.01768
11
5.72434
21
-3.01543
0
LINE
8
BLACK
6
CONTINUOUS
10
5.72434
20
-3.01543
11
5.72458
21
-3.01522
0
LINE
8
BLACK
6
CONTINUOUS
10
5.72458
20
-3.01522
11
5.7247
21
-3.01492
0
LINE
8
BLACK
6
CONTINUOUS
10
5.7247
20
-3.01492
11
5.72583
21
-3.01379
0
LINE
8
BLACK
6
CONTINUOUS
10
5.72583
20
-3.01379
11
5.72625
21
-3.01362
0
LINE
8
BLACK
6
CONTINUOUS
10
5.72625
20
-3.01362
11
5.72583
21
-3.0132
0
LINE
8
BLACK
6
CONTINUOUS
10
5.72583
20
-3.0132
11
5.72571
21
-3.0129
0
LINE
8
BLACK
6
CONTINUOUS
10
5.72571
20
-3.0129
11
5.72546
21
-3.01269
0
LINE
8
BLACK
6
CONTINUOUS
10
5.72546
20
-3.01269
11
5.72434
21
-3.01044
0
LINE
8
BLACK
6
CONTINUOUS
10
5.72434
20
-3.01044
11
5.7243
21
-3.00998
0
LINE
8
BLACK
6
CONTINUOUS
10
5.7243
20
-3.00998
11
5.72413
21
-3.00956
0
LINE
8
BLACK
6
CONTINUOUS
10
5.72413
20
-3.00956
11
5.72413
21
-3.00731
0
LINE
8
BLACK
6
CONTINUOUS
10
5.72413
20
-3.00731
11
5.7243
21
-3.00689
0
LINE
8
BLACK
6
CONTINUOUS
10
5.7243
20
-3.00689
11
5.72434
21
-3.00643
0
LINE
8
BLACK
6
CONTINUOUS
10
5.72434
20
-3.00643
11
5.72546
21
-3.00418
0
LINE
8
BLACK
6
CONTINUOUS
10
5.72546
20
-3.00418
11
5.72571
21
-3.00397
0
LINE
8
BLACK
6
CONTINUOUS
10
5.72571
20
-3.00397
11
5.72583
21
-3.00367
0
LINE
8
BLACK
6
CONTINUOUS
10
5.72583
20
-3.00367
11
5.72695
21
-3.00255
0
LINE
8
BLACK
6
CONTINUOUS
10
5.72695
20
-3.00255
11
5.72725
21
-3.00242
0
LINE
8
BLACK
6
CONTINUOUS
10
5.72725
20
-3.00242
11
5.72747
21
-3.00218
0
LINE
8
BLACK
6
CONTINUOUS
10
5.72747
20
-3.00218
11
5.72972
21
-3.00105
0
LINE
8
BLACK
6
CONTINUOUS
10
5.72972
20
-3.00105
11
5.73017
21
-3.00102
0
LINE
8
BLACK
6
CONTINUOUS
10
5.73017
20
-3.00102
11
5.7306
21
-3.00084
0
LINE
8
BLACK
6
CONTINUOUS
10
5.7306
20
-3.00084
11
5.73847
21
-3.00084
0
LINE
8
BLACK
6
CONTINUOUS
10
5.73847
20
-3.00084
11
5.73986
21
-3.00142
0
LINE
8
BLACK
6
CONTINUOUS
10
5.73986
20
-3.00142
11
5.74044
21
-3.00281
0
LINE
8
BLACK
6
CONTINUOUS
10
5.74044
20
-3.00281
11
5.74044
21
-3.02643
0
LINE
8
BLACK
6
CONTINUOUS
10
5.74044
20
-3.02643
11
5.73986
21
-3.02783
0
LINE
8
BLACK
6
CONTINUOUS
10
5.73986
20
-3.02783
11
5.73847
21
-3.0284
0
LINE
8
BLACK
6
CONTINUOUS
10
5.73847
20
-3.0284
11
5.72947
21
-3.0284
0
LINE
8
BLACK
6
CONTINUOUS
10
5.72947
20
-3.0284
11
5.72905
21
-3.02823
0
LINE
8
BLACK
6
CONTINUOUS
10
5.73092
20
-3.01603
11
5.72828
21
-3.01691
0
LINE
8
BLACK
6
CONTINUOUS
10
5.72828
20
-3.01691
11
5.72771
21
-3.01748
0
LINE
8
BLACK
6
CONTINUOUS
10
5.72771
20
-3.01748
11
5.72694
21
-3.01902
0
LINE
8
BLACK
6
CONTINUOUS
10
5.72694
20
-3.01902
11
5.72694
21
-3.02147
0
LINE
8
BLACK
6
CONTINUOUS
10
5.72694
20
-3.02147
11
5.72771
21
-3.02302
0
LINE
8
BLACK
6
CONTINUOUS
10
5.72771
20
-3.02302
11
5.72839
21
-3.02369
0
LINE
8
BLACK
6
CONTINUOUS
10
5.72839
20
-3.02369
11
5.72994
21
-3.02447
0
LINE
8
BLACK
6
CONTINUOUS
10
5.72994
20
-3.02447
11
5.7365
21
-3.02447
0
LINE
8
BLACK
6
CONTINUOUS
10
5.7365
20
-3.02447
11
5.7365
21
-3.01603
0
LINE
8
BLACK
6
CONTINUOUS
10
5.7365
20
-3.01603
11
5.73092
21
-3.01603
0
LINE
8
BLACK
6
CONTINUOUS
10
5.73106
20
-3.00478
11
5.72951
21
-3.00555
0
LINE
8
BLACK
6
CONTINUOUS
10
5.72951
20
-3.00555
11
5.72884
21
-3.00623
0
LINE
8
BLACK
6
CONTINUOUS
10
5.72884
20
-3.00623
11
5.72807
21
-3.00778
0
LINE
8
BLACK
6
CONTINUOUS
10
5.72807
20
-3.00778
11
5.72807
21
-3.0091
0
LINE
8
BLACK
6
CONTINUOUS
10
5.72807
20
-3.0091
11
5.72884
21
-3.01064
0
LINE
8
BLACK
6
CONTINUOUS
10
5.72884
20
-3.01064
11
5.72951
21
-3.01132
0
LINE
8
BLACK
6
CONTINUOUS
10
5.72951
20
-3.01132
11
5.73106
21
-3.01209
0
LINE
8
BLACK
6
CONTINUOUS
10
5.73106
20
-3.01209
11
5.7365
21
-3.01209
0
LINE
8
BLACK
6
CONTINUOUS
10
5.7365
20
-3.01209
11
5.7365
21
-3.00478
0
LINE
8
BLACK
6
CONTINUOUS
10
5.7365
20
-3.00478
11
5.73106
21
-3.00478
0
LINE
8
BLACK
6
CONTINUOUS
10
5.73761
20
-2.91481
11
5.73819
21
-2.9162
0
LINE
8
BLACK
6
CONTINUOUS
10
5.73819
20
-2.9162
11
5.73819
21
-2.93982
0
LINE
8
BLACK
6
CONTINUOUS
10
5.73819
20
-2.93982
11
5.73761
21
-2.94121
0
LINE
8
BLACK
6
CONTINUOUS
10
5.73761
20
-2.94121
11
5.73622
21
-2.94179
0
LINE
8
BLACK
6
CONTINUOUS
10
5.73622
20
-2.94179
11
5.73483
21
-2.94121
0
LINE
8
BLACK
6
CONTINUOUS
10
5.73483
20
-2.94121
11
5.73425
21
-2.93982
0
LINE
8
BLACK
6
CONTINUOUS
10
5.73425
20
-2.93982
11
5.73425
21
-2.9162
0
LINE
8
BLACK
6
CONTINUOUS
10
5.73425
20
-2.9162
11
5.73483
21
-2.91481
0
LINE
8
BLACK
6
CONTINUOUS
10
5.73483
20
-2.91481
11
5.73622
21
-2.91423
0
LINE
8
BLACK
6
CONTINUOUS
10
5.73622
20
-2.91423
11
5.73761
21
-2.91481
0
LINE
8
BLACK
6
CONTINUOUS
10
3.92156
20
-2.90088
11
3.92087
21
-2.89921
0
LINE
8
BLACK
6
CONTINUOUS
10
3.92087
20
-2.89921
11
3.92156
21
-2.89754
0
LINE
8
BLACK
6
CONTINUOUS
10
3.92156
20
-2.89754
11
3.92323
21
-2.89685
0
LINE
8
BLACK
6
CONTINUOUS
10
3.92323
20
-2.89685
11
4.13583
21
-2.89685
0
LINE
8
BLACK
6
CONTINUOUS
10
4.13583
20
-2.89685
11
4.1375
21
-2.89754
0
LINE
8
BLACK
6
CONTINUOUS
10
4.1375
20
-2.89754
11
4.13819
21
-2.89921
0
LINE
8
BLACK
6
CONTINUOUS
10
4.13819
20
-2.89921
11
4.1375
21
-2.90088
0
LINE
8
BLACK
6
CONTINUOUS
10
4.1375
20
-2.90088
11
4.13583
21
-2.90157
0
LINE
8
BLACK
6
CONTINUOUS
10
4.13583
20
-2.90157
11
3.92323
21
-2.90157
0
LINE
8
BLACK
6
CONTINUOUS
10
3.92323
20
-2.90157
11
3.92156
21
-2.90088
0
LINE
8
BLACK
6
CONTINUOUS
10
3.98004
20
-2.84176
11
3.98021
21
-2.84175
0
LINE
8
BLACK
6
CONTINUOUS
10
3.98021
20
-2.84175
11
3.9809
21
-2.84226
0
LINE
8
BLACK
6
CONTINUOUS
10
3.9809
20
-2.84226
11
3.98164
21
-2.84268
0
LINE
8
BLACK
6
CONTINUOUS
10
3.98164
20
-2.84268
11
3.9817
21
-2.84284
0
LINE
8
BLACK
6
CONTINUOUS
10
3.9817
20
-2.84284
11
3.98183
21
-2.84294
0
LINE
8
BLACK
6
CONTINUOUS
10
3.98183
20
-2.84294
11
3.98542
21
-2.84833
0
LINE
8
BLACK
6
CONTINUOUS
10
3.98542
20
-2.84833
11
3.98863
21
-2.85153
0
LINE
8
BLACK
6
CONTINUOUS
10
3.98863
20
-2.85153
11
3.99195
21
-2.85319
0
LINE
8
BLACK
6
CONTINUOUS
10
3.99195
20
-2.85319
11
3.99277
21
-2.8538
0
LINE
8
BLACK
6
CONTINUOUS
10
3.99277
20
-2.8538
11
3.99357
21
-2.85565
0
LINE
8
BLACK
6
CONTINUOUS
10
3.99357
20
-2.85565
11
3.993
21
-2.85759
0
LINE
8
BLACK
6
CONTINUOUS
10
3.993
20
-2.85759
11
3.99131
21
-2.8587
0
LINE
8
BLACK
6
CONTINUOUS
10
3.99131
20
-2.8587
11
3.98931
21
-2.85847
0
LINE
8
BLACK
6
CONTINUOUS
10
3.98931
20
-2.85847
11
3.98556
21
-2.8566
0
LINE
8
BLACK
6
CONTINUOUS
10
3.98556
20
-2.8566
11
3.98485
21
-2.85607
0
LINE
8
BLACK
6
CONTINUOUS
10
3.98485
20
-2.85607
11
3.98479
21
-2.85604
0
LINE
8
BLACK
6
CONTINUOUS
10
3.98479
20
-2.85604
11
3.98233
21
-2.85359
0
LINE
8
BLACK
6
CONTINUOUS
10
3.98233
20
-2.85359
11
3.98233
21
-2.881
0
LINE
8
BLACK
6
CONTINUOUS
10
3.98233
20
-2.881
11
3.99063
21
-2.881
0
LINE
8
BLACK
6
CONTINUOUS
10
3.99063
20
-2.881
11
3.99164
21
-2.88118
0
LINE
8
BLACK
6
CONTINUOUS
10
3.99164
20
-2.88118
11
3.99318
21
-2.88248
0
LINE
8
BLACK
6
CONTINUOUS
10
3.99318
20
-2.88248
11
3.99353
21
-2.88446
0
LINE
8
BLACK
6
CONTINUOUS
10
3.99353
20
-2.88446
11
3.99252
21
-2.88621
0
LINE
8
BLACK
6
CONTINUOUS
10
3.99252
20
-2.88621
11
3.99063
21
-2.8869
0
LINE
8
BLACK
6
CONTINUOUS
10
3.99063
20
-2.8869
11
3.96813
21
-2.8869
0
LINE
8
BLACK
6
CONTINUOUS
10
3.96813
20
-2.8869
11
3.96712
21
-2.88673
0
LINE
8
BLACK
6
CONTINUOUS
10
3.96712
20
-2.88673
11
3.96557
21
-2.88543
0
LINE
8
BLACK
6
CONTINUOUS
10
3.96557
20
-2.88543
11
3.96522
21
-2.88344
0
LINE
8
BLACK
6
CONTINUOUS
10
3.96522
20
-2.88344
11
3.96623
21
-2.88169
0
LINE
8
BLACK
6
CONTINUOUS
10
3.96623
20
-2.88169
11
3.96813
21
-2.881
0
LINE
8
BLACK
6
CONTINUOUS
10
3.96813
20
-2.881
11
3.97642
21
-2.881
0
LINE
8
BLACK
6
CONTINUOUS
10
3.97642
20
-2.881
11
3.97642
21
-2.84458
0
LINE
8
BLACK
6
CONTINUOUS
10
3.97642
20
-2.84458
11
3.9766
21
-2.84357
0
LINE
8
BLACK
6
CONTINUOUS
10
3.9766
20
-2.84357
11
3.97671
21
-2.84344
0
LINE
8
BLACK
6
CONTINUOUS
10
3.97671
20
-2.84344
11
3.97673
21
-2.84327
0
LINE
8
BLACK
6
CONTINUOUS
10
3.97673
20
-2.84327
11
3.97735
21
-2.84268
0
LINE
8
BLACK
6
CONTINUOUS
10
3.97735
20
-2.84268
11
3.9779
21
-2.84202
0
LINE
8
BLACK
6
CONTINUOUS
10
3.9779
20
-2.84202
11
3.97807
21
-2.842
0
LINE
8
BLACK
6
CONTINUOUS
10
3.97807
20
-2.842
11
3.97819
21
-2.84188
0
LINE
8
BLACK
6
CONTINUOUS
10
3.97819
20
-2.84188
11
3.97905
21
-2.84182
0
LINE
8
BLACK
6
CONTINUOUS
10
3.97905
20
-2.84182
11
3.97989
21
-2.84167
0
LINE
8
BLACK
6
CONTINUOUS
10
3.97989
20
-2.84167
11
3.98004
21
-2.84176
0
LINE
8
BLACK
6
CONTINUOUS
10
4.03226
20
-2.84268
11
4.03295
21
-2.84458
0
LINE
8
BLACK
6
CONTINUOUS
10
4.03295
20
-2.84458
11
4.03295
21
-2.87645
0
LINE
8
BLACK
6
CONTINUOUS
10
4.03295
20
-2.87645
11
4.03277
21
-2.87746
0
LINE
8
BLACK
6
CONTINUOUS
10
4.03277
20
-2.87746
11
4.03266
21
-2.8776
0
LINE
8
BLACK
6
CONTINUOUS
10
4.03266
20
-2.8776
11
4.03264
21
-2.87777
0
LINE
8
BLACK
6
CONTINUOUS
10
4.03264
20
-2.87777
11
4.03076
21
-2.88152
0
LINE
8
BLACK
6
CONTINUOUS
10
4.03076
20
-2.88152
11
4.03024
21
-2.88223
0
LINE
8
BLACK
6
CONTINUOUS
10
4.03024
20
-2.88223
11
4.03021
21
-2.88229
0
LINE
8
BLACK
6
CONTINUOUS
10
4.03021
20
-2.88229
11
4.02833
21
-2.88417
0
LINE
8
BLACK
6
CONTINUOUS
10
4.02833
20
-2.88417
11
4.02761
21
-2.88467
0
LINE
8
BLACK
6
CONTINUOUS
10
4.02761
20
-2.88467
11
4.02757
21
-2.88472
0
LINE
8
BLACK
6
CONTINUOUS
10
4.02757
20
-2.88472
11
4.02382
21
-2.88659
0
LINE
8
BLACK
6
CONTINUOUS
10
4.02382
20
-2.88659
11
4.02283
21
-2.88689
0
LINE
8
BLACK
6
CONTINUOUS
10
4.02283
20
-2.88689
11
4.02266
21
-2.88684
0
LINE
8
BLACK
6
CONTINUOUS
10
4.02266
20
-2.88684
11
4.0225
21
-2.8869
0
LINE
8
BLACK
6
CONTINUOUS
10
4.0225
20
-2.8869
11
4.015
21
-2.8869
0
LINE
8
BLACK
6
CONTINUOUS
10
4.015
20
-2.8869
11
4.01399
21
-2.88673
0
LINE
8
BLACK
6
CONTINUOUS
10
4.01399
20
-2.88673
11
4.01385
21
-2.88661
0
LINE
8
BLACK
6
CONTINUOUS
10
4.01385
20
-2.88661
11
4.01368
21
-2.88659
0
LINE
8
BLACK
6
CONTINUOUS
10
4.01368
20
-2.88659
11
4.00993
21
-2.88472
0
LINE
8
BLACK
6
CONTINUOUS
10
4.00993
20
-2.88472
11
4.00922
21
-2.88419
0
LINE
8
BLACK
6
CONTINUOUS
10
4.00922
20
-2.88419
11
4.00916
21
-2.88417
0
LINE
8
BLACK
6
CONTINUOUS
10
4.00916
20
-2.88417
11
4.00729
21
-2.88229
0
LINE
8
BLACK
6
CONTINUOUS
10
4.00729
20
-2.88229
11
4.00678
21
-2.88157
0
LINE
8
BLACK
6
CONTINUOUS
10
4.00678
20
-2.88157
11
4.00673
21
-2.88152
0
LINE
8
BLACK
6
CONTINUOUS
10
4.00673
20
-2.88152
11
4.00486
21
-2.87777
0
LINE
8
BLACK
6
CONTINUOUS
10
4.00486
20
-2.87777
11
4.00457
21
-2.87679
0
LINE
8
BLACK
6
CONTINUOUS
10
4.00457
20
-2.87679
11
4.00461
21
-2.87662
0
LINE
8
BLACK
6
CONTINUOUS
10
4.00461
20
-2.87662
11
4.00455
21
-2.87645
0
LINE
8
BLACK
6
CONTINUOUS
10
4.00455
20
-2.87645
11
4.00455
21
-2.84458
0
LINE
8
BLACK
6
CONTINUOUS
10
4.00455
20
-2.84458
11
4.00472
21
-2.84357
0
LINE
8
BLACK
6
CONTINUOUS
10
4.00472
20
-2.84357
11
4.00602
21
-2.84202
0
LINE
8
BLACK
6
CONTINUOUS
10
4.00602
20
-2.84202
11
4.00801
21
-2.84167
0
LINE
8
BLACK
6
CONTINUOUS
10
4.00801
20
-2.84167
11
4.00976
21
-2.84268
0
LINE
8
BLACK
6
CONTINUOUS
10
4.00976
20
-2.84268
11
4.01045
21
-2.84458
0
LINE
8
BLACK
6
CONTINUOUS
10
4.01045
20
-2.84458
11
4.01045
21
-2.87576
0
LINE
8
BLACK
6
CONTINUOUS
10
4.01045
20
-2.87576
11
4.0118
21
-2.87845
0
LINE
8
BLACK
6
CONTINUOUS
10
4.0118
20
-2.87845
11
4.013
21
-2.87965
0
LINE
8
BLACK
6
CONTINUOUS
10
4.013
20
-2.87965
11
4.0157
21
-2.881
0
LINE
8
BLACK
6
CONTINUOUS
10
4.0157
20
-2.881
11
4.0218
21
-2.881
0
LINE
8
BLACK
6
CONTINUOUS
10
4.0218
20
-2.881
11
4.0245
21
-2.87965
0
LINE
8
BLACK
6
CONTINUOUS
10
4.0245
20
-2.87965
11
4.02569
21
-2.87845
0
LINE
8
BLACK
6
CONTINUOUS
10
4.02569
20
-2.87845
11
4.02704
21
-2.87576
0
LINE
8
BLACK
6
CONTINUOUS
10
4.02704
20
-2.87576
11
4.02704
21
-2.84458
0
LINE
8
BLACK
6
CONTINUOUS
10
4.02704
20
-2.84458
11
4.02722
21
-2.84357
0
LINE
8
BLACK
6
CONTINUOUS
10
4.02722
20
-2.84357
11
4.02852
21
-2.84202
0
LINE
8
BLACK
6
CONTINUOUS
10
4.02852
20
-2.84202
11
4.03051
21
-2.84167
0
LINE
8
BLACK
6
CONTINUOUS
10
4.03051
20
-2.84167
11
4.03226
21
-2.84268
0
LINE
8
BLACK
6
CONTINUOUS
10
5.74436
20
-2.84
11
5.74494
21
-2.84139
0
LINE
8
BLACK
6
CONTINUOUS
10
5.74494
20
-2.84139
11
5.74436
21
-2.84279
0
LINE
8
BLACK
6
CONTINUOUS
10
5.74436
20
-2.84279
11
5.74297
21
-2.84336
0
LINE
8
BLACK
6
CONTINUOUS
10
5.74297
20
-2.84336
11
5.73819
21
-2.84336
0
LINE
8
BLACK
6
CONTINUOUS
10
5.73819
20
-2.84336
11
5.73819
21
-2.86502
0
LINE
8
BLACK
6
CONTINUOUS
10
5.73819
20
-2.86502
11
5.73761
21
-2.86641
0
LINE
8
BLACK
6
CONTINUOUS
10
5.73761
20
-2.86641
11
5.73622
21
-2.86699
0
LINE
8
BLACK
6
CONTINUOUS
10
5.73622
20
-2.86699
11
5.73483
21
-2.86641
0
LINE
8
BLACK
6
CONTINUOUS
10
5.73483
20
-2.86641
11
5.73425
21
-2.86502
0
LINE
8
BLACK
6
CONTINUOUS
10
5.73425
20
-2.86502
11
5.73425
21
-2.84336
0
LINE
8
BLACK
6
CONTINUOUS
10
5.73425
20
-2.84336
11
5.72947
21
-2.84336
0
LINE
8
BLACK
6
CONTINUOUS
10
5.72947
20
-2.84336
11
5.72808
21
-2.84279
0
LINE
8
BLACK
6
CONTINUOUS
10
5.72808
20
-2.84279
11
5.7275
21
-2.84139
0
LINE
8
BLACK
6
CONTINUOUS
10
5.7275
20
-2.84139
11
5.72808
21
-2.84
0
LINE
8
BLACK
6
CONTINUOUS
10
5.72808
20
-2.84
11
5.72947
21
-2.83943
0
LINE
8
BLACK
6
CONTINUOUS
10
5.72947
20
-2.83943
11
5.74297
21
-2.83943
0
LINE
8
BLACK
6
CONTINUOUS
10
5.74297
20
-2.83943
11
5.74436
21
-2.84
0
LINE
8
BLACK
6
CONTINUOUS
10
5.80792
20
-2.71571
11
5.80849
21
-2.7171
0
LINE
8
BLACK
6
CONTINUOUS
10
5.80849
20
-2.7171
11
5.80849
21
-2.72413
0
LINE
8
BLACK
6
CONTINUOUS
10
5.80849
20
-2.72413
11
5.81552
21
-2.72413
0
LINE
8
BLACK
6
CONTINUOUS
10
5.81552
20
-2.72413
11
5.81691
21
-2.7247
0
LINE
8
BLACK
6
CONTINUOUS
10
5.81691
20
-2.7247
11
5.81749
21
-2.7261
0
LINE
8
BLACK
6
CONTINUOUS
10
5.81749
20
-2.7261
11
5.81691
21
-2.72749
0
LINE
8
BLACK
6
CONTINUOUS
10
5.81691
20
-2.72749
11
5.81552
21
-2.72807
0
LINE
8
BLACK
6
CONTINUOUS
10
5.81552
20
-2.72807
11
5.80849
21
-2.72807
0
LINE
8
BLACK
6
CONTINUOUS
10
5.80849
20
-2.72807
11
5.80849
21
-2.7351
0
LINE
8
BLACK
6
CONTINUOUS
10
5.80849
20
-2.7351
11
5.80792
21
-2.73649
0
LINE
8
BLACK
6
CONTINUOUS
10
5.80792
20
-2.73649
11
5.80652
21
-2.73706
0
LINE
8
BLACK
6
CONTINUOUS
10
5.80652
20
-2.73706
11
5.80513
21
-2.73649
0
LINE
8
BLACK
6
CONTINUOUS
10
5.80513
20
-2.73649
11
5.80456
21
-2.7351
0
LINE
8
BLACK
6
CONTINUOUS
10
5.80456
20
-2.7351
11
5.80456
21
-2.72807
0
LINE
8
BLACK
6
CONTINUOUS
10
5.80456
20
-2.72807
11
5.79753
21
-2.72807
0
LINE
8
BLACK
6
CONTINUOUS
10
5.79753
20
-2.72807
11
5.79613
21
-2.72749
0
LINE
8
BLACK
6
CONTINUOUS
10
5.79613
20
-2.72749
11
5.79556
21
-2.7261
0
LINE
8
BLACK
6
CONTINUOUS
10
5.79556
20
-2.7261
11
5.79613
21
-2.7247
0
LINE
8
BLACK
6
CONTINUOUS
10
5.79613
20
-2.7247
11
5.79753
21
-2.72413
0
LINE
8
BLACK
6
CONTINUOUS
10
5.79753
20
-2.72413
11
5.80456
21
-2.72413
0
LINE
8
BLACK
6
CONTINUOUS
10
5.80456
20
-2.72413
11
5.80456
21
-2.7171
0
LINE
8
BLACK
6
CONTINUOUS
10
5.80456
20
-2.7171
11
5.80513
21
-2.71571
0
LINE
8
BLACK
6
CONTINUOUS
10
5.80513
20
-2.71571
11
5.80652
21
-2.71513
0
LINE
8
BLACK
6
CONTINUOUS
10
5.80652
20
-2.71513
11
5.80792
21
-2.71571
0
LINE
8
BLACK
6
CONTINUOUS
10
5.78689
20
-2.70976
11
5.78752
21
-2.70995
0
LINE
8
BLACK
6
CONTINUOUS
10
5.78752
20
-2.70995
11
5.78757
21
-2.71004
0
LINE
8
BLACK
6
CONTINUOUS
10
5.78757
20
-2.71004
11
5.78767
21
-2.71008
0
LINE
8
BLACK
6
CONTINUOUS
10
5.78767
20
-2.71008
11
5.78792
21
-2.71069
0
LINE
8
BLACK
6
CONTINUOUS
10
5.78792
20
-2.71069
11
5.78824
21
-2.71128
0
LINE
8
BLACK
6
CONTINUOUS
10
5.78824
20
-2.71128
11
5.78936
21
-2.72253
0
LINE
8
BLACK
6
CONTINUOUS
10
5.78936
20
-2.72253
11
5.78933
21
-2.72263
0
LINE
8
BLACK
6
CONTINUOUS
10
5.78933
20
-2.72263
11
5.78937
21
-2.72272
0
LINE
8
BLACK
6
CONTINUOUS
10
5.78937
20
-2.72272
11
5.78912
21
-2.72333
0
LINE
8
BLACK
6
CONTINUOUS
10
5.78912
20
-2.72333
11
5.78893
21
-2.72397
0
LINE
8
BLACK
6
CONTINUOUS
10
5.78893
20
-2.72397
11
5.78883
21
-2.72402
0
LINE
8
BLACK
6
CONTINUOUS
10
5.78883
20
-2.72402
11
5.78879
21
-2.72411
0
LINE
8
BLACK
6
CONTINUOUS
10
5.78879
20
-2.72411
11
5.78818
21
-2.72437
0
LINE
8
BLACK
6
CONTINUOUS
10
5.78818
20
-2.72437
11
5.7876
21
-2.72468
0
LINE
8
BLACK
6
CONTINUOUS
10
5.7876
20
-2.72468
11
5.7875
21
-2.72465
0
LINE
8
BLACK
6
CONTINUOUS
10
5.7875
20
-2.72465
11
5.7874
21
-2.72469
0
LINE
8
BLACK
6
CONTINUOUS
10
5.7874
20
-2.72469
11
5.78679
21
-2.72444
0
LINE
8
BLACK
6
CONTINUOUS
10
5.78679
20
-2.72444
11
5.78616
21
-2.72425
0
LINE
8
BLACK
6
CONTINUOUS
10
5.78616
20
-2.72425
11
5.78611
21
-2.72415
0
LINE
8
BLACK
6
CONTINUOUS
10
5.78611
20
-2.72415
11
5.78601
21
-2.72411
0
LINE
8
BLACK
6
CONTINUOUS
10
5.78601
20
-2.72411
11
5.78511
21
-2.72322
0
LINE
8
BLACK
6
CONTINUOUS
10
5.78511
20
-2.72322
11
5.78356
21
-2.72244
0
LINE
8
BLACK
6
CONTINUOUS
10
5.78356
20
-2.72244
11
5.77887
21
-2.72244
0
LINE
8
BLACK
6
CONTINUOUS
10
5.77887
20
-2.72244
11
5.77732
21
-2.72322
0
LINE
8
BLACK
6
CONTINUOUS
10
5.77732
20
-2.72322
11
5.77665
21
-2.72389
0
LINE
8
BLACK
6
CONTINUOUS
10
5.77665
20
-2.72389
11
5.77587
21
-2.72544
0
LINE
8
BLACK
6
CONTINUOUS
10
5.77587
20
-2.72544
11
5.77587
21
-2.73013
0
LINE
8
BLACK
6
CONTINUOUS
10
5.77587
20
-2.73013
11
5.77665
21
-2.73168
0
LINE
8
BLACK
6
CONTINUOUS
10
5.77665
20
-2.73168
11
5.77732
21
-2.73235
0
LINE
8
BLACK
6
CONTINUOUS
10
5.77732
20
-2.73235
11
5.77887
21
-2.73313
0
LINE
8
BLACK
6
CONTINUOUS
10
5.77887
20
-2.73313
11
5.78356
21
-2.73313
0
LINE
8
BLACK
6
CONTINUOUS
10
5.78356
20
-2.73313
11
5.78511
21
-2.73235
0
LINE
8
BLACK
6
CONTINUOUS
10
5.78511
20
-2.73235
11
5.78601
21
-2.73145
0
LINE
8
BLACK
6
CONTINUOUS
10
5.78601
20
-2.73145
11
5.7874
21
-2.73088
0
LINE
8
BLACK
6
CONTINUOUS
10
5.7874
20
-2.73088
11
5.78879
21
-2.73145
0
LINE
8
BLACK
6
CONTINUOUS
10
5.78879
20
-2.73145
11
5.78937
21
-2.73285
0
LINE
8
BLACK
6
CONTINUOUS
10
5.78937
20
-2.73285
11
5.78879
21
-2.73424
0
LINE
8
BLACK
6
CONTINUOUS
10
5.78879
20
-2.73424
11
5.78767
21
-2.73536
0
LINE
8
BLACK
6
CONTINUOUS
10
5.78767
20
-2.73536
11
5.78737
21
-2.73549
0
LINE
8
BLACK
6
CONTINUOUS
10
5.78737
20
-2.73549
11
5.78716
21
-2.73573
0
LINE
8
BLACK
6
CONTINUOUS
10
5.78716
20
-2.73573
11
5.78491
21
-2.73686
0
LINE
8
BLACK
6
CONTINUOUS
10
5.78491
20
-2.73686
11
5.78445
21
-2.73689
0
LINE
8
BLACK
6
CONTINUOUS
10
5.78445
20
-2.73689
11
5.78403
21
-2.73706
0
LINE
8
BLACK
6
CONTINUOUS
10
5.78403
20
-2.73706
11
5.7784
21
-2.73706
0
LINE
8
BLACK
6
CONTINUOUS
10
5.7784
20
-2.73706
11
5.77798
21
-2.73689
0
LINE
8
BLACK
6
CONTINUOUS
10
5.77798
20
-2.73689
11
5.77752
21
-2.73686
0
LINE
8
BLACK
6
CONTINUOUS
10
5.77752
20
-2.73686
11
5.77527
21
-2.73573
0
LINE
8
BLACK
6
CONTINUOUS
10
5.77527
20
-2.73573
11
5.77506
21
-2.73549
0
LINE
8
BLACK
6
CONTINUOUS
10
5.77506
20
-2.73549
11
5.77476
21
-2.73536
0
LINE
8
BLACK
6
CONTINUOUS
10
5.77476
20
-2.73536
11
5.77364
21
-2.73424
0
LINE
8
BLACK
6
CONTINUOUS
10
5.77364
20
-2.73424
11
5.77351
21
-2.73394
0
LINE
8
BLACK
6
CONTINUOUS
10
5.77351
20
-2.73394
11
5.77327
21
-2.73373
0
LINE
8
BLACK
6
CONTINUOUS
10
5.77327
20
-2.73373
11
5.77214
21
-2.73148
0
LINE
8
BLACK
6
CONTINUOUS
10
5.77214
20
-2.73148
11
5.77211
21
-2.73102
0
LINE
8
BLACK
6
CONTINUOUS
10
5.77211
20
-2.73102
11
5.77193
21
-2.7306
0
LINE
8
BLACK
6
CONTINUOUS
10
5.77193
20
-2.7306
11
5.77193
21
-2.72497
0
LINE
8
BLACK
6
CONTINUOUS
10
5.77193
20
-2.72497
11
5.77211
21
-2.72455
0
LINE
8
BLACK
6
CONTINUOUS
10
5.77211
20
-2.72455
11
5.77214
21
-2.72409
0
LINE
8
BLACK
6
CONTINUOUS
10
5.77214
20
-2.72409
11
5.77327
21
-2.72184
0
LINE
8
BLACK
6
CONTINUOUS
10
5.77327
20
-2.72184
11
5.77351
21
-2.72163
0
LINE
8
BLACK
6
CONTINUOUS
10
5.77351
20
-2.72163
11
5.77364
21
-2.72133
0
LINE
8
BLACK
6
CONTINUOUS
10
5.77364
20
-2.72133
11
5.77476
21
-2.72021
0
LINE
8
BLACK
6
CONTINUOUS
10
5.77476
20
-2.72021
11
5.77506
21
-2.72008
0
LINE
8
BLACK
6
CONTINUOUS
10
5.77506
20
-2.72008
11
5.77527
21
-2.71984
0
LINE
8
BLACK
6
CONTINUOUS
10
5.77527
20
-2.71984
11
5.77752
21
-2.71871
0
LINE
8
BLACK
6
CONTINUOUS
10
5.77752
20
-2.71871
11
5.77798
21
-2.71868
0
LINE
8
BLACK
6
CONTINUOUS
10
5.77798
20
-2.71868
11
5.7784
21
-2.7185
0
LINE
8
BLACK
6
CONTINUOUS
10
5.7784
20
-2.7185
11
5.78403
21
-2.7185
0
LINE
8
BLACK
6
CONTINUOUS
10
5.78403
20
-2.7185
11
5.78445
21
-2.71868
0
LINE
8
BLACK
6
CONTINUOUS
10
5.78445
20
-2.71868
11
5.78491
21
-2.71871
0
LINE
8
BLACK
6
CONTINUOUS
10
5.78491
20
-2.71871
11
5.78503
21
-2.71877
0
LINE
8
BLACK
6
CONTINUOUS
10
5.78503
20
-2.71877
11
5.7845
21
-2.71344
0
LINE
8
BLACK
6
CONTINUOUS
10
5.7845
20
-2.71344
11
5.77503
21
-2.71344
0
LINE
8
BLACK
6
CONTINUOUS
10
5.77503
20
-2.71344
11
5.77364
21
-2.71287
0
LINE
8
BLACK
6
CONTINUOUS
10
5.77364
20
-2.71287
11
5.77306
21
-2.71147
0
LINE
8
BLACK
6
CONTINUOUS
10
5.77306
20
-2.71147
11
5.77364
21
-2.71008
0
LINE
8
BLACK
6
CONTINUOUS
10
5.77364
20
-2.71008
11
5.77503
21
-2.70951
0
LINE
8
BLACK
6
CONTINUOUS
10
5.77503
20
-2.70951
11
5.78628
21
-2.70951
0
LINE
8
BLACK
6
CONTINUOUS
10
5.78628
20
-2.70951
11
5.78689
21
-2.70976
0
LINE
8
BLACK
6
CONTINUOUS
10
4.15289
20
-2.85719
11
4.15496
21
-2.85279
0
LINE
8
BLACK
6
CONTINUOUS
10
4.15496
20
-2.85279
11
4.15818
21
-2.84915
0
LINE
8
BLACK
6
CONTINUOUS
10
4.15818
20
-2.84915
11
4.16229
21
-2.84655
0
LINE
8
BLACK
6
CONTINUOUS
10
4.16229
20
-2.84655
11
4.16696
21
-2.84522
0
LINE
8
BLACK
6
CONTINUOUS
10
4.16696
20
-2.84522
11
4.17183
21
-2.84525
0
LINE
8
BLACK
6
CONTINUOUS
10
4.17183
20
-2.84525
11
4.17648
21
-2.84664
0
LINE
8
BLACK
6
CONTINUOUS
10
4.17648
20
-2.84664
11
4.18056
21
-2.84928
0
LINE
8
BLACK
6
CONTINUOUS
10
4.18056
20
-2.84928
11
4.18374
21
-2.85297
0
LINE
8
BLACK
6
CONTINUOUS
10
4.18374
20
-2.85297
11
4.18575
21
-2.85739
0
LINE
8
BLACK
6
CONTINUOUS
10
4.18575
20
-2.85739
11
4.18644
21
-2.8622
0
LINE
8
BLACK
6
CONTINUOUS
10
4.18644
20
-2.8622
11
4.18643
21
-2.86262
0
LINE
8
BLACK
6
CONTINUOUS
10
4.18643
20
-2.86262
11
4.18563
21
-2.86742
0
LINE
8
BLACK
6
CONTINUOUS
10
4.18563
20
-2.86742
11
4.18351
21
-2.87179
0
LINE
8
BLACK
6
CONTINUOUS
10
4.18351
20
-2.87179
11
4.18024
21
-2.8754
0
LINE
8
BLACK
6
CONTINUOUS
10
4.18024
20
-2.8754
11
4.1761
21
-2.87794
0
LINE
8
BLACK
6
CONTINUOUS
10
4.1761
20
-2.87794
11
4.17141
21
-2.87922
0
LINE
8
BLACK
6
CONTINUOUS
10
4.17141
20
-2.87922
11
4.16655
21
-2.87913
0
LINE
8
BLACK
6
CONTINUOUS
10
4.16655
20
-2.87913
11
4.16191
21
-2.87768
0
LINE
8
BLACK
6
CONTINUOUS
10
4.16191
20
-2.87768
11
4.15786
21
-2.87499
0
LINE
8
BLACK
6
CONTINUOUS
10
4.15786
20
-2.87499
11
4.15473
21
-2.87127
0
LINE
8
BLACK
6
CONTINUOUS
10
4.15473
20
-2.87127
11
4.15278
21
-2.86682
0
LINE
8
BLACK
6
CONTINUOUS
10
4.15278
20
-2.86682
11
4.15217
21
-2.8622
0
LINE
8
BLACK
6
CONTINUOUS
10
4.15217
20
-2.8622
11
4.15214
21
-2.862
0
LINE
8
BLACK
6
CONTINUOUS
10
4.15214
20
-2.862
11
4.15289
21
-2.85719
0
LINE
8
BLACK
6
CONTINUOUS
10
4.16055
20
-2.86954
11
4.16358
21
-2.87209
0
LINE
8
BLACK
6
CONTINUOUS
10
4.16358
20
-2.87209
11
4.16731
21
-2.87345
0
LINE
8
BLACK
6
CONTINUOUS
10
4.16731
20
-2.87345
11
4.17127
21
-2.87345
0
LINE
8
BLACK
6
CONTINUOUS
10
4.17127
20
-2.87345
11
4.175
21
-2.87209
0
LINE
8
BLACK
6
CONTINUOUS
10
4.175
20
-2.87209
11
4.17804
21
-2.86954
0
LINE
8
BLACK
6
CONTINUOUS
10
4.17804
20
-2.86954
11
4.18002
21
-2.86611
0
LINE
8
BLACK
6
CONTINUOUS
10
4.18002
20
-2.86611
11
4.18071
21
-2.8622
0
LINE
8
BLACK
6
CONTINUOUS
10
4.18071
20
-2.8622
11
4.18002
21
-2.8583
0
LINE
8
BLACK
6
CONTINUOUS
10
4.18002
20
-2.8583
11
4.17804
21
-2.85487
0
LINE
8
BLACK
6
CONTINUOUS
10
4.17804
20
-2.85487
11
4.175
21
-2.85232
0
LINE
8
BLACK
6
CONTINUOUS
10
4.175
20
-2.85232
11
4.17127
21
-2.85096
0
LINE
8
BLACK
6
CONTINUOUS
10
4.17127
20
-2.85096
11
4.16731
21
-2.85096
0
LINE
8
BLACK
6
CONTINUOUS
10
4.16731
20
-2.85096
11
4.16358
21
-2.85232
0
LINE
8
BLACK
6
CONTINUOUS
10
4.16358
20
-2.85232
11
4.16055
21
-2.85487
0
LINE
8
BLACK
6
CONTINUOUS
10
4.16055
20
-2.85487
11
4.15856
21
-2.8583
0
LINE
8
BLACK
6
CONTINUOUS
10
4.15856
20
-2.8583
11
4.15788
21
-2.8622
0
LINE
8
BLACK
6
CONTINUOUS
10
4.15788
20
-2.8622
11
4.15856
21
-2.86611
0
LINE
8
BLACK
6
CONTINUOUS
10
4.15856
20
-2.86611
11
4.16055
21
-2.86954
  0
ENDSEC
  0
EOF
