  0
SECTION
  2
HEADER
  9
$ANGBASE
  50
0.0
  9
$ANGDIR
  70
1
  9
$MEASUREMENT
  70
0
  0
ENDSEC
  0
SECTION
  2
TABLES
  0
TABLE
  2
LTYPE
  70
4
  0
LTYPE
  5
40F
  2
CONTINUOUS
  70
0
  3
Solid line
  72
65
  73
0
  40
0.0
  0
LTYPE
  5
410
  2
DASHDOT
 70
0
  3
Dash Dot ____ _ ____ _
 72
65
 73
4
 40
2.0
 49
1.25
 49
-0.25
 49
0.25
 49
-0.25
  0
LTYPE
  5
411
  2
DASHED
 70
0
  3
Dashed __ __ __ __ __
 72
65
 73
2
 40
0.75
 49
0.5
 49
-0.25
  0
LTYPE
  5
43B
  2
DOTTED
 70
0
  3
Dotted .  .  .  .
 72
65
 73
2
 40
0.2
 49
0.0
 49
-0.2
  0
ENDTAB
  0
TABLE
  2
STYLE
  70
4
  0
STYLE
  2
KICAD
  70
0
  40
0
  41
1
  42
1
  50
0
  71
0
  3
isocp.shx
  0
STYLE
  2
KICADB
  70
0
  40
0
  41
1
  42
1
  50
0
  71
0
  3
isocp.shx
  0
STYLE
  2
KICADI
  70
0
  40
0
  41
1
  42
1
  50
15
  71
0
  3
isocp.shx
  0
STYLE
  2
KICADBI
  70
0
  40
0
  41
1
  42
1
  50
15
  71
0
  3
isocp.shx
  0
ENDTAB
  0
TABLE
  2
LAYER
  70
1
  0
LAYER
  2
BLACK
  70
0
  62
7
  6
CONTINUOUS
  0
ENDTAB
  0
ENDSEC
  0
SECTION
  2
ENTITIES
0
LINE
8
BLACK
6
CONTINUOUS
10
3.83366
20
-3.69783
11
3.76673
21
-3.69783
0
LINE
8
BLACK
6
CONTINUOUS
10
3.76673
20
-3.69783
11
3.76673
21
-3.63091
0
LINE
8
BLACK
6
CONTINUOUS
10
3.76673
20
-3.63091
11
3.83366
21
-3.63091
0
LINE
8
BLACK
6
CONTINUOUS
10
3.83366
20
-3.63091
11
3.83366
21
-3.69783
0
LINE
8
BLACK
6
CONTINUOUS
10
3.91054
20
-3.63254
11
3.91693
21
-3.63539
0
LINE
8
BLACK
6
CONTINUOUS
10
3.91693
20
-3.63539
11
3.92259
21
-3.6395
0
LINE
8
BLACK
6
CONTINUOUS
10
3.92259
20
-3.6395
11
3.92727
21
-3.6447
0
LINE
8
BLACK
6
CONTINUOUS
10
3.92727
20
-3.6447
11
3.93077
21
-3.65076
0
LINE
8
BLACK
6
CONTINUOUS
10
3.93077
20
-3.65076
11
3.93293
21
-3.65741
0
LINE
8
BLACK
6
CONTINUOUS
10
3.93293
20
-3.65741
11
3.93366
21
-3.66437
0
LINE
8
BLACK
6
CONTINUOUS
10
3.93366
20
-3.66437
11
3.93293
21
-3.67133
0
LINE
8
BLACK
6
CONTINUOUS
10
3.93293
20
-3.67133
11
3.93077
21
-3.67798
0
LINE
8
BLACK
6
CONTINUOUS
10
3.93077
20
-3.67798
11
3.92727
21
-3.68404
0
LINE
8
BLACK
6
CONTINUOUS
10
3.92727
20
-3.68404
11
3.92259
21
-3.68924
0
LINE
8
BLACK
6
CONTINUOUS
10
3.92259
20
-3.68924
11
3.91693
21
-3.69335
0
LINE
8
BLACK
6
CONTINUOUS
10
3.91693
20
-3.69335
11
3.91054
21
-3.6962
0
LINE
8
BLACK
6
CONTINUOUS
10
3.91054
20
-3.6962
11
3.90369
21
-3.69765
0
LINE
8
BLACK
6
CONTINUOUS
10
3.90369
20
-3.69765
11
3.8967
21
-3.69765
0
LINE
8
BLACK
6
CONTINUOUS
10
3.8967
20
-3.69765
11
3.88986
21
-3.6962
0
LINE
8
BLACK
6
CONTINUOUS
10
3.88986
20
-3.6962
11
3.88346
21
-3.69335
0
LINE
8
BLACK
6
CONTINUOUS
10
3.88346
20
-3.69335
11
3.8778
21
-3.68924
0
LINE
8
BLACK
6
CONTINUOUS
10
3.8778
20
-3.68924
11
3.87312
21
-3.68404
0
LINE
8
BLACK
6
CONTINUOUS
10
3.87312
20
-3.68404
11
3.86963
21
-3.67798
0
LINE
8
BLACK
6
CONTINUOUS
10
3.86963
20
-3.67798
11
3.86746
21
-3.67133
0
LINE
8
BLACK
6
CONTINUOUS
10
3.86746
20
-3.67133
11
3.86673
21
-3.66437
0
LINE
8
BLACK
6
CONTINUOUS
10
3.86673
20
-3.66437
11
3.86746
21
-3.65741
0
LINE
8
BLACK
6
CONTINUOUS
10
3.86746
20
-3.65741
11
3.86963
21
-3.65076
0
LINE
8
BLACK
6
CONTINUOUS
10
3.86963
20
-3.65076
11
3.87312
21
-3.6447
0
LINE
8
BLACK
6
CONTINUOUS
10
3.87312
20
-3.6447
11
3.8778
21
-3.6395
0
LINE
8
BLACK
6
CONTINUOUS
10
3.8778
20
-3.6395
11
3.88346
21
-3.63539
0
LINE
8
BLACK
6
CONTINUOUS
10
3.88346
20
-3.63539
11
3.88986
21
-3.63254
0
LINE
8
BLACK
6
CONTINUOUS
10
3.88986
20
-3.63254
11
3.8967
21
-3.63109
0
LINE
8
BLACK
6
CONTINUOUS
10
3.8967
20
-3.63109
11
3.90369
21
-3.63109
0
LINE
8
BLACK
6
CONTINUOUS
10
3.90369
20
-3.63109
11
3.91054
21
-3.63254
0
LINE
8
BLACK
6
CONTINUOUS
10
4.01054
20
-3.63254
11
4.01693
21
-3.63539
0
LINE
8
BLACK
6
CONTINUOUS
10
4.01693
20
-3.63539
11
4.02259
21
-3.6395
0
LINE
8
BLACK
6
CONTINUOUS
10
4.02259
20
-3.6395
11
4.02727
21
-3.6447
0
LINE
8
BLACK
6
CONTINUOUS
10
4.02727
20
-3.6447
11
4.03077
21
-3.65076
0
LINE
8
BLACK
6
CONTINUOUS
10
4.03077
20
-3.65076
11
4.03293
21
-3.65741
0
LINE
8
BLACK
6
CONTINUOUS
10
4.03293
20
-3.65741
11
4.03366
21
-3.66437
0
LINE
8
BLACK
6
CONTINUOUS
10
4.03366
20
-3.66437
11
4.03293
21
-3.67133
0
LINE
8
BLACK
6
CONTINUOUS
10
4.03293
20
-3.67133
11
4.03077
21
-3.67798
0
LINE
8
BLACK
6
CONTINUOUS
10
4.03077
20
-3.67798
11
4.02727
21
-3.68404
0
LINE
8
BLACK
6
CONTINUOUS
10
4.02727
20
-3.68404
11
4.02259
21
-3.68924
0
LINE
8
BLACK
6
CONTINUOUS
10
4.02259
20
-3.68924
11
4.01693
21
-3.69335
0
LINE
8
BLACK
6
CONTINUOUS
10
4.01693
20
-3.69335
11
4.01054
21
-3.6962
0
LINE
8
BLACK
6
CONTINUOUS
10
4.01054
20
-3.6962
11
4.00369
21
-3.69765
0
LINE
8
BLACK
6
CONTINUOUS
10
4.00369
20
-3.69765
11
3.9967
21
-3.69765
0
LINE
8
BLACK
6
CONTINUOUS
10
3.9967
20
-3.69765
11
3.98986
21
-3.6962
0
LINE
8
BLACK
6
CONTINUOUS
10
3.98986
20
-3.6962
11
3.98346
21
-3.69335
0
LINE
8
BLACK
6
CONTINUOUS
10
3.98346
20
-3.69335
11
3.9778
21
-3.68924
0
LINE
8
BLACK
6
CONTINUOUS
10
3.9778
20
-3.68924
11
3.97312
21
-3.68404
0
LINE
8
BLACK
6
CONTINUOUS
10
3.97312
20
-3.68404
11
3.96963
21
-3.67798
0
LINE
8
BLACK
6
CONTINUOUS
10
3.96963
20
-3.67798
11
3.96746
21
-3.67133
0
LINE
8
BLACK
6
CONTINUOUS
10
3.96746
20
-3.67133
11
3.96673
21
-3.66437
0
LINE
8
BLACK
6
CONTINUOUS
10
3.96673
20
-3.66437
11
3.96746
21
-3.65741
0
LINE
8
BLACK
6
CONTINUOUS
10
3.96746
20
-3.65741
11
3.96963
21
-3.65076
0
LINE
8
BLACK
6
CONTINUOUS
10
3.96963
20
-3.65076
11
3.97312
21
-3.6447
0
LINE
8
BLACK
6
CONTINUOUS
10
3.97312
20
-3.6447
11
3.9778
21
-3.6395
0
LINE
8
BLACK
6
CONTINUOUS
10
3.9778
20
-3.6395
11
3.98346
21
-3.63539
0
LINE
8
BLACK
6
CONTINUOUS
10
3.98346
20
-3.63539
11
3.98986
21
-3.63254
0
LINE
8
BLACK
6
CONTINUOUS
10
3.98986
20
-3.63254
11
3.9967
21
-3.63109
0
LINE
8
BLACK
6
CONTINUOUS
10
3.9967
20
-3.63109
11
4.00369
21
-3.63109
0
LINE
8
BLACK
6
CONTINUOUS
10
4.00369
20
-3.63109
11
4.01054
21
-3.63254
0
LINE
8
BLACK
6
CONTINUOUS
10
4.11054
20
-3.63254
11
4.11693
21
-3.63539
0
LINE
8
BLACK
6
CONTINUOUS
10
4.11693
20
-3.63539
11
4.12259
21
-3.6395
0
LINE
8
BLACK
6
CONTINUOUS
10
4.12259
20
-3.6395
11
4.12727
21
-3.6447
0
LINE
8
BLACK
6
CONTINUOUS
10
4.12727
20
-3.6447
11
4.13077
21
-3.65076
0
LINE
8
BLACK
6
CONTINUOUS
10
4.13077
20
-3.65076
11
4.13293
21
-3.65741
0
LINE
8
BLACK
6
CONTINUOUS
10
4.13293
20
-3.65741
11
4.13366
21
-3.66437
0
LINE
8
BLACK
6
CONTINUOUS
10
4.13366
20
-3.66437
11
4.13293
21
-3.67133
0
LINE
8
BLACK
6
CONTINUOUS
10
4.13293
20
-3.67133
11
4.13077
21
-3.67798
0
LINE
8
BLACK
6
CONTINUOUS
10
4.13077
20
-3.67798
11
4.12727
21
-3.68404
0
LINE
8
BLACK
6
CONTINUOUS
10
4.12727
20
-3.68404
11
4.12259
21
-3.68924
0
LINE
8
BLACK
6
CONTINUOUS
10
4.12259
20
-3.68924
11
4.11693
21
-3.69335
0
LINE
8
BLACK
6
CONTINUOUS
10
4.11693
20
-3.69335
11
4.11054
21
-3.6962
0
LINE
8
BLACK
6
CONTINUOUS
10
4.11054
20
-3.6962
11
4.10369
21
-3.69765
0
LINE
8
BLACK
6
CONTINUOUS
10
4.10369
20
-3.69765
11
4.0967
21
-3.69765
0
LINE
8
BLACK
6
CONTINUOUS
10
4.0967
20
-3.69765
11
4.08986
21
-3.6962
0
LINE
8
BLACK
6
CONTINUOUS
10
4.08986
20
-3.6962
11
4.08346
21
-3.69335
0
LINE
8
BLACK
6
CONTINUOUS
10
4.08346
20
-3.69335
11
4.0778
21
-3.68924
0
LINE
8
BLACK
6
CONTINUOUS
10
4.0778
20
-3.68924
11
4.07312
21
-3.68404
0
LINE
8
BLACK
6
CONTINUOUS
10
4.07312
20
-3.68404
11
4.06963
21
-3.67798
0
LINE
8
BLACK
6
CONTINUOUS
10
4.06963
20
-3.67798
11
4.06746
21
-3.67133
0
LINE
8
BLACK
6
CONTINUOUS
10
4.06746
20
-3.67133
11
4.06673
21
-3.66437
0
LINE
8
BLACK
6
CONTINUOUS
10
4.06673
20
-3.66437
11
4.06746
21
-3.65741
0
LINE
8
BLACK
6
CONTINUOUS
10
4.06746
20
-3.65741
11
4.06963
21
-3.65076
0
LINE
8
BLACK
6
CONTINUOUS
10
4.06963
20
-3.65076
11
4.07312
21
-3.6447
0
LINE
8
BLACK
6
CONTINUOUS
10
4.07312
20
-3.6447
11
4.0778
21
-3.6395
0
LINE
8
BLACK
6
CONTINUOUS
10
4.0778
20
-3.6395
11
4.08346
21
-3.63539
0
LINE
8
BLACK
6
CONTINUOUS
10
4.08346
20
-3.63539
11
4.08986
21
-3.63254
0
LINE
8
BLACK
6
CONTINUOUS
10
4.08986
20
-3.63254
11
4.0967
21
-3.63109
0
LINE
8
BLACK
6
CONTINUOUS
10
4.0967
20
-3.63109
11
4.10369
21
-3.63109
0
LINE
8
BLACK
6
CONTINUOUS
10
4.10369
20
-3.63109
11
4.11054
21
-3.63254
0
LINE
8
BLACK
6
CONTINUOUS
10
4.21054
20
-3.63254
11
4.21693
21
-3.63539
0
LINE
8
BLACK
6
CONTINUOUS
10
4.21693
20
-3.63539
11
4.22259
21
-3.6395
0
LINE
8
BLACK
6
CONTINUOUS
10
4.22259
20
-3.6395
11
4.22727
21
-3.6447
0
LINE
8
BLACK
6
CONTINUOUS
10
4.22727
20
-3.6447
11
4.23077
21
-3.65076
0
LINE
8
BLACK
6
CONTINUOUS
10
4.23077
20
-3.65076
11
4.23293
21
-3.65741
0
LINE
8
BLACK
6
CONTINUOUS
10
4.23293
20
-3.65741
11
4.23366
21
-3.66437
0
LINE
8
BLACK
6
CONTINUOUS
10
4.23366
20
-3.66437
11
4.23293
21
-3.67133
0
LINE
8
BLACK
6
CONTINUOUS
10
4.23293
20
-3.67133
11
4.23077
21
-3.67798
0
LINE
8
BLACK
6
CONTINUOUS
10
4.23077
20
-3.67798
11
4.22727
21
-3.68404
0
LINE
8
BLACK
6
CONTINUOUS
10
4.22727
20
-3.68404
11
4.22259
21
-3.68924
0
LINE
8
BLACK
6
CONTINUOUS
10
4.22259
20
-3.68924
11
4.21693
21
-3.69335
0
LINE
8
BLACK
6
CONTINUOUS
10
4.21693
20
-3.69335
11
4.21054
21
-3.6962
0
LINE
8
BLACK
6
CONTINUOUS
10
4.21054
20
-3.6962
11
4.20369
21
-3.69765
0
LINE
8
BLACK
6
CONTINUOUS
10
4.20369
20
-3.69765
11
4.1967
21
-3.69765
0
LINE
8
BLACK
6
CONTINUOUS
10
4.1967
20
-3.69765
11
4.18986
21
-3.6962
0
LINE
8
BLACK
6
CONTINUOUS
10
4.18986
20
-3.6962
11
4.18346
21
-3.69335
0
LINE
8
BLACK
6
CONTINUOUS
10
4.18346
20
-3.69335
11
4.1778
21
-3.68924
0
LINE
8
BLACK
6
CONTINUOUS
10
4.1778
20
-3.68924
11
4.17312
21
-3.68404
0
LINE
8
BLACK
6
CONTINUOUS
10
4.17312
20
-3.68404
11
4.16963
21
-3.67798
0
LINE
8
BLACK
6
CONTINUOUS
10
4.16963
20
-3.67798
11
4.16746
21
-3.67133
0
LINE
8
BLACK
6
CONTINUOUS
10
4.16746
20
-3.67133
11
4.16673
21
-3.66437
0
LINE
8
BLACK
6
CONTINUOUS
10
4.16673
20
-3.66437
11
4.16746
21
-3.65741
0
LINE
8
BLACK
6
CONTINUOUS
10
4.16746
20
-3.65741
11
4.16963
21
-3.65076
0
LINE
8
BLACK
6
CONTINUOUS
10
4.16963
20
-3.65076
11
4.17312
21
-3.6447
0
LINE
8
BLACK
6
CONTINUOUS
10
4.17312
20
-3.6447
11
4.1778
21
-3.6395
0
LINE
8
BLACK
6
CONTINUOUS
10
4.1778
20
-3.6395
11
4.18346
21
-3.63539
0
LINE
8
BLACK
6
CONTINUOUS
10
4.18346
20
-3.63539
11
4.18986
21
-3.63254
0
LINE
8
BLACK
6
CONTINUOUS
10
4.18986
20
-3.63254
11
4.1967
21
-3.63109
0
LINE
8
BLACK
6
CONTINUOUS
10
4.1967
20
-3.63109
11
4.20369
21
-3.63109
0
LINE
8
BLACK
6
CONTINUOUS
10
4.20369
20
-3.63109
11
4.21054
21
-3.63254
0
LINE
8
BLACK
6
CONTINUOUS
10
4.31054
20
-3.63254
11
4.31693
21
-3.63539
0
LINE
8
BLACK
6
CONTINUOUS
10
4.31693
20
-3.63539
11
4.32259
21
-3.6395
0
LINE
8
BLACK
6
CONTINUOUS
10
4.32259
20
-3.6395
11
4.32727
21
-3.6447
0
LINE
8
BLACK
6
CONTINUOUS
10
4.32727
20
-3.6447
11
4.33077
21
-3.65076
0
LINE
8
BLACK
6
CONTINUOUS
10
4.33077
20
-3.65076
11
4.33293
21
-3.65741
0
LINE
8
BLACK
6
CONTINUOUS
10
4.33293
20
-3.65741
11
4.33366
21
-3.66437
0
LINE
8
BLACK
6
CONTINUOUS
10
4.33366
20
-3.66437
11
4.33293
21
-3.67133
0
LINE
8
BLACK
6
CONTINUOUS
10
4.33293
20
-3.67133
11
4.33077
21
-3.67798
0
LINE
8
BLACK
6
CONTINUOUS
10
4.33077
20
-3.67798
11
4.32727
21
-3.68404
0
LINE
8
BLACK
6
CONTINUOUS
10
4.32727
20
-3.68404
11
4.32259
21
-3.68924
0
LINE
8
BLACK
6
CONTINUOUS
10
4.32259
20
-3.68924
11
4.31693
21
-3.69335
0
LINE
8
BLACK
6
CONTINUOUS
10
4.31693
20
-3.69335
11
4.31054
21
-3.6962
0
LINE
8
BLACK
6
CONTINUOUS
10
4.31054
20
-3.6962
11
4.30369
21
-3.69765
0
LINE
8
BLACK
6
CONTINUOUS
10
4.30369
20
-3.69765
11
4.2967
21
-3.69765
0
LINE
8
BLACK
6
CONTINUOUS
10
4.2967
20
-3.69765
11
4.28986
21
-3.6962
0
LINE
8
BLACK
6
CONTINUOUS
10
4.28986
20
-3.6962
11
4.28346
21
-3.69335
0
LINE
8
BLACK
6
CONTINUOUS
10
4.28346
20
-3.69335
11
4.2778
21
-3.68924
0
LINE
8
BLACK
6
CONTINUOUS
10
4.2778
20
-3.68924
11
4.27312
21
-3.68404
0
LINE
8
BLACK
6
CONTINUOUS
10
4.27312
20
-3.68404
11
4.26963
21
-3.67798
0
LINE
8
BLACK
6
CONTINUOUS
10
4.26963
20
-3.67798
11
4.26746
21
-3.67133
0
LINE
8
BLACK
6
CONTINUOUS
10
4.26746
20
-3.67133
11
4.26673
21
-3.66437
0
LINE
8
BLACK
6
CONTINUOUS
10
4.26673
20
-3.66437
11
4.26746
21
-3.65741
0
LINE
8
BLACK
6
CONTINUOUS
10
4.26746
20
-3.65741
11
4.26963
21
-3.65076
0
LINE
8
BLACK
6
CONTINUOUS
10
4.26963
20
-3.65076
11
4.27312
21
-3.6447
0
LINE
8
BLACK
6
CONTINUOUS
10
4.27312
20
-3.6447
11
4.2778
21
-3.6395
0
LINE
8
BLACK
6
CONTINUOUS
10
4.2778
20
-3.6395
11
4.28346
21
-3.63539
0
LINE
8
BLACK
6
CONTINUOUS
10
4.28346
20
-3.63539
11
4.28986
21
-3.63254
0
LINE
8
BLACK
6
CONTINUOUS
10
4.28986
20
-3.63254
11
4.2967
21
-3.63109
0
LINE
8
BLACK
6
CONTINUOUS
10
4.2967
20
-3.63109
11
4.30369
21
-3.63109
0
LINE
8
BLACK
6
CONTINUOUS
10
4.30369
20
-3.63109
11
4.31054
21
-3.63254
0
LINE
8
BLACK
6
CONTINUOUS
10
4.41054
20
-3.63254
11
4.41693
21
-3.63539
0
LINE
8
BLACK
6
CONTINUOUS
10
4.41693
20
-3.63539
11
4.42259
21
-3.6395
0
LINE
8
BLACK
6
CONTINUOUS
10
4.42259
20
-3.6395
11
4.42727
21
-3.6447
0
LINE
8
BLACK
6
CONTINUOUS
10
4.42727
20
-3.6447
11
4.43077
21
-3.65076
0
LINE
8
BLACK
6
CONTINUOUS
10
4.43077
20
-3.65076
11
4.43293
21
-3.65741
0
LINE
8
BLACK
6
CONTINUOUS
10
4.43293
20
-3.65741
11
4.43366
21
-3.66437
0
LINE
8
BLACK
6
CONTINUOUS
10
4.43366
20
-3.66437
11
4.43293
21
-3.67133
0
LINE
8
BLACK
6
CONTINUOUS
10
4.43293
20
-3.67133
11
4.43077
21
-3.67798
0
LINE
8
BLACK
6
CONTINUOUS
10
4.43077
20
-3.67798
11
4.42727
21
-3.68404
0
LINE
8
BLACK
6
CONTINUOUS
10
4.42727
20
-3.68404
11
4.42259
21
-3.68924
0
LINE
8
BLACK
6
CONTINUOUS
10
4.42259
20
-3.68924
11
4.41693
21
-3.69335
0
LINE
8
BLACK
6
CONTINUOUS
10
4.41693
20
-3.69335
11
4.41054
21
-3.6962
0
LINE
8
BLACK
6
CONTINUOUS
10
4.41054
20
-3.6962
11
4.40369
21
-3.69765
0
LINE
8
BLACK
6
CONTINUOUS
10
4.40369
20
-3.69765
11
4.3967
21
-3.69765
0
LINE
8
BLACK
6
CONTINUOUS
10
4.3967
20
-3.69765
11
4.38986
21
-3.6962
0
LINE
8
BLACK
6
CONTINUOUS
10
4.38986
20
-3.6962
11
4.38346
21
-3.69335
0
LINE
8
BLACK
6
CONTINUOUS
10
4.38346
20
-3.69335
11
4.3778
21
-3.68924
0
LINE
8
BLACK
6
CONTINUOUS
10
4.3778
20
-3.68924
11
4.37312
21
-3.68404
0
LINE
8
BLACK
6
CONTINUOUS
10
4.37312
20
-3.68404
11
4.36963
21
-3.67798
0
LINE
8
BLACK
6
CONTINUOUS
10
4.36963
20
-3.67798
11
4.36746
21
-3.67133
0
LINE
8
BLACK
6
CONTINUOUS
10
4.36746
20
-3.67133
11
4.36673
21
-3.66437
0
LINE
8
BLACK
6
CONTINUOUS
10
4.36673
20
-3.66437
11
4.36746
21
-3.65741
0
LINE
8
BLACK
6
CONTINUOUS
10
4.36746
20
-3.65741
11
4.36963
21
-3.65076
0
LINE
8
BLACK
6
CONTINUOUS
10
4.36963
20
-3.65076
11
4.37312
21
-3.6447
0
LINE
8
BLACK
6
CONTINUOUS
10
4.37312
20
-3.6447
11
4.3778
21
-3.6395
0
LINE
8
BLACK
6
CONTINUOUS
10
4.3778
20
-3.6395
11
4.38346
21
-3.63539
0
LINE
8
BLACK
6
CONTINUOUS
10
4.38346
20
-3.63539
11
4.38986
21
-3.63254
0
LINE
8
BLACK
6
CONTINUOUS
10
4.38986
20
-3.63254
11
4.3967
21
-3.63109
0
LINE
8
BLACK
6
CONTINUOUS
10
4.3967
20
-3.63109
11
4.40369
21
-3.63109
0
LINE
8
BLACK
6
CONTINUOUS
10
4.40369
20
-3.63109
11
4.41054
21
-3.63254
0
LINE
8
BLACK
6
CONTINUOUS
10
4.51054
20
-3.63254
11
4.51693
21
-3.63539
0
LINE
8
BLACK
6
CONTINUOUS
10
4.51693
20
-3.63539
11
4.52259
21
-3.6395
0
LINE
8
BLACK
6
CONTINUOUS
10
4.52259
20
-3.6395
11
4.52727
21
-3.6447
0
LINE
8
BLACK
6
CONTINUOUS
10
4.52727
20
-3.6447
11
4.53077
21
-3.65076
0
LINE
8
BLACK
6
CONTINUOUS
10
4.53077
20
-3.65076
11
4.53293
21
-3.65741
0
LINE
8
BLACK
6
CONTINUOUS
10
4.53293
20
-3.65741
11
4.53366
21
-3.66437
0
LINE
8
BLACK
6
CONTINUOUS
10
4.53366
20
-3.66437
11
4.53293
21
-3.67133
0
LINE
8
BLACK
6
CONTINUOUS
10
4.53293
20
-3.67133
11
4.53077
21
-3.67798
0
LINE
8
BLACK
6
CONTINUOUS
10
4.53077
20
-3.67798
11
4.52727
21
-3.68404
0
LINE
8
BLACK
6
CONTINUOUS
10
4.52727
20
-3.68404
11
4.52259
21
-3.68924
0
LINE
8
BLACK
6
CONTINUOUS
10
4.52259
20
-3.68924
11
4.51693
21
-3.69335
0
LINE
8
BLACK
6
CONTINUOUS
10
4.51693
20
-3.69335
11
4.51054
21
-3.6962
0
LINE
8
BLACK
6
CONTINUOUS
10
4.51054
20
-3.6962
11
4.50369
21
-3.69765
0
LINE
8
BLACK
6
CONTINUOUS
10
4.50369
20
-3.69765
11
4.4967
21
-3.69765
0
LINE
8
BLACK
6
CONTINUOUS
10
4.4967
20
-3.69765
11
4.48986
21
-3.6962
0
LINE
8
BLACK
6
CONTINUOUS
10
4.48986
20
-3.6962
11
4.48346
21
-3.69335
0
LINE
8
BLACK
6
CONTINUOUS
10
4.48346
20
-3.69335
11
4.4778
21
-3.68924
0
LINE
8
BLACK
6
CONTINUOUS
10
4.4778
20
-3.68924
11
4.47312
21
-3.68404
0
LINE
8
BLACK
6
CONTINUOUS
10
4.47312
20
-3.68404
11
4.46963
21
-3.67798
0
LINE
8
BLACK
6
CONTINUOUS
10
4.46963
20
-3.67798
11
4.46746
21
-3.67133
0
LINE
8
BLACK
6
CONTINUOUS
10
4.46746
20
-3.67133
11
4.46673
21
-3.66437
0
LINE
8
BLACK
6
CONTINUOUS
10
4.46673
20
-3.66437
11
4.46746
21
-3.65741
0
LINE
8
BLACK
6
CONTINUOUS
10
4.46746
20
-3.65741
11
4.46963
21
-3.65076
0
LINE
8
BLACK
6
CONTINUOUS
10
4.46963
20
-3.65076
11
4.47312
21
-3.6447
0
LINE
8
BLACK
6
CONTINUOUS
10
4.47312
20
-3.6447
11
4.4778
21
-3.6395
0
LINE
8
BLACK
6
CONTINUOUS
10
4.4778
20
-3.6395
11
4.48346
21
-3.63539
0
LINE
8
BLACK
6
CONTINUOUS
10
4.48346
20
-3.63539
11
4.48986
21
-3.63254
0
LINE
8
BLACK
6
CONTINUOUS
10
4.48986
20
-3.63254
11
4.4967
21
-3.63109
0
LINE
8
BLACK
6
CONTINUOUS
10
4.4967
20
-3.63109
11
4.50369
21
-3.63109
0
LINE
8
BLACK
6
CONTINUOUS
10
4.50369
20
-3.63109
11
4.51054
21
-3.63254
0
LINE
8
BLACK
6
CONTINUOUS
10
4.73869
20
-3.36109
11
4.74508
21
-3.36393
0
LINE
8
BLACK
6
CONTINUOUS
10
4.74508
20
-3.36393
11
4.75074
21
-3.36804
0
LINE
8
BLACK
6
CONTINUOUS
10
4.75074
20
-3.36804
11
4.75542
21
-3.37324
0
LINE
8
BLACK
6
CONTINUOUS
10
4.75542
20
-3.37324
11
4.75892
21
-3.3793
0
LINE
8
BLACK
6
CONTINUOUS
10
4.75892
20
-3.3793
11
4.76108
21
-3.38596
0
LINE
8
BLACK
6
CONTINUOUS
10
4.76108
20
-3.38596
11
4.76181
21
-3.39291
0
LINE
8
BLACK
6
CONTINUOUS
10
4.76181
20
-3.39291
11
4.76108
21
-3.39987
0
LINE
8
BLACK
6
CONTINUOUS
10
4.76108
20
-3.39987
11
4.75892
21
-3.40652
0
LINE
8
BLACK
6
CONTINUOUS
10
4.75892
20
-3.40652
11
4.75542
21
-3.41258
0
LINE
8
BLACK
6
CONTINUOUS
10
4.75542
20
-3.41258
11
4.75074
21
-3.41778
0
LINE
8
BLACK
6
CONTINUOUS
10
4.75074
20
-3.41778
11
4.74508
21
-3.42189
0
LINE
8
BLACK
6
CONTINUOUS
10
4.74508
20
-3.42189
11
4.73869
21
-3.42474
0
LINE
8
BLACK
6
CONTINUOUS
10
4.73869
20
-3.42474
11
4.73184
21
-3.42619
0
LINE
8
BLACK
6
CONTINUOUS
10
4.73184
20
-3.42619
11
4.72485
21
-3.42619
0
LINE
8
BLACK
6
CONTINUOUS
10
4.72485
20
-3.42619
11
4.71801
21
-3.42474
0
LINE
8
BLACK
6
CONTINUOUS
10
4.71801
20
-3.42474
11
4.71161
21
-3.42189
0
LINE
8
BLACK
6
CONTINUOUS
10
4.71161
20
-3.42189
11
4.70595
21
-3.41778
0
LINE
8
BLACK
6
CONTINUOUS
10
4.70595
20
-3.41778
11
4.70127
21
-3.41258
0
LINE
8
BLACK
6
CONTINUOUS
10
4.70127
20
-3.41258
11
4.69778
21
-3.40652
0
LINE
8
BLACK
6
CONTINUOUS
10
4.69778
20
-3.40652
11
4.69561
21
-3.39987
0
LINE
8
BLACK
6
CONTINUOUS
10
4.69561
20
-3.39987
11
4.69488
21
-3.39291
0
LINE
8
BLACK
6
CONTINUOUS
10
4.69488
20
-3.39291
11
4.69561
21
-3.38596
0
LINE
8
BLACK
6
CONTINUOUS
10
4.69561
20
-3.38596
11
4.69778
21
-3.3793
0
LINE
8
BLACK
6
CONTINUOUS
10
4.69778
20
-3.3793
11
4.70127
21
-3.37324
0
LINE
8
BLACK
6
CONTINUOUS
10
4.70127
20
-3.37324
11
4.70595
21
-3.36804
0
LINE
8
BLACK
6
CONTINUOUS
10
4.70595
20
-3.36804
11
4.71161
21
-3.36393
0
LINE
8
BLACK
6
CONTINUOUS
10
4.71161
20
-3.36393
11
4.71801
21
-3.36109
0
LINE
8
BLACK
6
CONTINUOUS
10
4.71801
20
-3.36109
11
4.72485
21
-3.35963
0
LINE
8
BLACK
6
CONTINUOUS
10
4.72485
20
-3.35963
11
4.73184
21
-3.35963
0
LINE
8
BLACK
6
CONTINUOUS
10
4.73184
20
-3.35963
11
4.73869
21
-3.36109
0
LINE
8
BLACK
6
CONTINUOUS
10
4.41634
20
-3.41929
11
4.34941
21
-3.41929
0
LINE
8
BLACK
6
CONTINUOUS
10
4.34941
20
-3.41929
11
4.34941
21
-3.35236
0
LINE
8
BLACK
6
CONTINUOUS
10
4.34941
20
-3.35236
11
4.41634
21
-3.35236
0
LINE
8
BLACK
6
CONTINUOUS
10
4.41634
20
-3.35236
11
4.41634
21
-3.41929
0
LINE
8
BLACK
6
CONTINUOUS
10
4.49322
20
-3.354
11
4.49961
21
-3.35685
0
LINE
8
BLACK
6
CONTINUOUS
10
4.49961
20
-3.35685
11
4.50527
21
-3.36096
0
LINE
8
BLACK
6
CONTINUOUS
10
4.50527
20
-3.36096
11
4.50995
21
-3.36616
0
LINE
8
BLACK
6
CONTINUOUS
10
4.50995
20
-3.36616
11
4.51345
21
-3.37222
0
LINE
8
BLACK
6
CONTINUOUS
10
4.51345
20
-3.37222
11
4.51561
21
-3.37887
0
LINE
8
BLACK
6
CONTINUOUS
10
4.51561
20
-3.37887
11
4.51634
21
-3.38583
0
LINE
8
BLACK
6
CONTINUOUS
10
4.51634
20
-3.38583
11
4.51561
21
-3.39278
0
LINE
8
BLACK
6
CONTINUOUS
10
4.51561
20
-3.39278
11
4.51345
21
-3.39944
0
LINE
8
BLACK
6
CONTINUOUS
10
4.51345
20
-3.39944
11
4.50995
21
-3.4055
0
LINE
8
BLACK
6
CONTINUOUS
10
4.50995
20
-3.4055
11
4.50527
21
-3.4107
0
LINE
8
BLACK
6
CONTINUOUS
10
4.50527
20
-3.4107
11
4.49961
21
-3.41481
0
LINE
8
BLACK
6
CONTINUOUS
10
4.49961
20
-3.41481
11
4.49322
21
-3.41765
0
LINE
8
BLACK
6
CONTINUOUS
10
4.49322
20
-3.41765
11
4.48637
21
-3.41911
0
LINE
8
BLACK
6
CONTINUOUS
10
4.48637
20
-3.41911
11
4.47938
21
-3.41911
0
LINE
8
BLACK
6
CONTINUOUS
10
4.47938
20
-3.41911
11
4.47253
21
-3.41765
0
LINE
8
BLACK
6
CONTINUOUS
10
4.47253
20
-3.41765
11
4.46614
21
-3.41481
0
LINE
8
BLACK
6
CONTINUOUS
10
4.46614
20
-3.41481
11
4.46048
21
-3.4107
0
LINE
8
BLACK
6
CONTINUOUS
10
4.46048
20
-3.4107
11
4.4558
21
-3.4055
0
LINE
8
BLACK
6
CONTINUOUS
10
4.4558
20
-3.4055
11
4.4523
21
-3.39944
0
LINE
8
BLACK
6
CONTINUOUS
10
4.4523
20
-3.39944
11
4.45014
21
-3.39278
0
LINE
8
BLACK
6
CONTINUOUS
10
4.45014
20
-3.39278
11
4.44941
21
-3.38583
0
LINE
8
BLACK
6
CONTINUOUS
10
4.44941
20
-3.38583
11
4.45014
21
-3.37887
0
LINE
8
BLACK
6
CONTINUOUS
10
4.45014
20
-3.37887
11
4.4523
21
-3.37222
0
LINE
8
BLACK
6
CONTINUOUS
10
4.4523
20
-3.37222
11
4.4558
21
-3.36616
0
LINE
8
BLACK
6
CONTINUOUS
10
4.4558
20
-3.36616
11
4.46048
21
-3.36096
0
LINE
8
BLACK
6
CONTINUOUS
10
4.46048
20
-3.36096
11
4.46614
21
-3.35685
0
LINE
8
BLACK
6
CONTINUOUS
10
4.46614
20
-3.35685
11
4.47253
21
-3.354
0
LINE
8
BLACK
6
CONTINUOUS
10
4.47253
20
-3.354
11
4.47938
21
-3.35255
0
LINE
8
BLACK
6
CONTINUOUS
10
4.47938
20
-3.35255
11
4.48637
21
-3.35255
0
LINE
8
BLACK
6
CONTINUOUS
10
4.48637
20
-3.35255
11
4.49322
21
-3.354
0
LINE
8
BLACK
6
CONTINUOUS
10
5.3568
20
-3.34239
11
5.36319
21
-3.34523
0
LINE
8
BLACK
6
CONTINUOUS
10
5.36319
20
-3.34523
11
5.36885
21
-3.34934
0
LINE
8
BLACK
6
CONTINUOUS
10
5.36885
20
-3.34934
11
5.37353
21
-3.35454
0
LINE
8
BLACK
6
CONTINUOUS
10
5.37353
20
-3.35454
11
5.37703
21
-3.3606
0
LINE
8
BLACK
6
CONTINUOUS
10
5.37703
20
-3.3606
11
5.37919
21
-3.36725
0
LINE
8
BLACK
6
CONTINUOUS
10
5.37919
20
-3.36725
11
5.37992
21
-3.37421
0
LINE
8
BLACK
6
CONTINUOUS
10
5.37992
20
-3.37421
11
5.37919
21
-3.38117
0
LINE
8
BLACK
6
CONTINUOUS
10
5.37919
20
-3.38117
11
5.37703
21
-3.38782
0
LINE
8
BLACK
6
CONTINUOUS
10
5.37703
20
-3.38782
11
5.37353
21
-3.39388
0
LINE
8
BLACK
6
CONTINUOUS
10
5.37353
20
-3.39388
11
5.36885
21
-3.39908
0
LINE
8
BLACK
6
CONTINUOUS
10
5.36885
20
-3.39908
11
5.36319
21
-3.40319
0
LINE
8
BLACK
6
CONTINUOUS
10
5.36319
20
-3.40319
11
5.3568
21
-3.40604
0
LINE
8
BLACK
6
CONTINUOUS
10
5.3568
20
-3.40604
11
5.34995
21
-3.40749
0
LINE
8
BLACK
6
CONTINUOUS
10
5.34995
20
-3.40749
11
5.34296
21
-3.40749
0
LINE
8
BLACK
6
CONTINUOUS
10
5.34296
20
-3.40749
11
5.33612
21
-3.40604
0
LINE
8
BLACK
6
CONTINUOUS
10
5.33612
20
-3.40604
11
5.32972
21
-3.40319
0
LINE
8
BLACK
6
CONTINUOUS
10
5.32972
20
-3.40319
11
5.32406
21
-3.39908
0
LINE
8
BLACK
6
CONTINUOUS
10
5.32406
20
-3.39908
11
5.31938
21
-3.39388
0
LINE
8
BLACK
6
CONTINUOUS
10
5.31938
20
-3.39388
11
5.31589
21
-3.38782
0
LINE
8
BLACK
6
CONTINUOUS
10
5.31589
20
-3.38782
11
5.31372
21
-3.38117
0
LINE
8
BLACK
6
CONTINUOUS
10
5.31372
20
-3.38117
11
5.31299
21
-3.37421
0
LINE
8
BLACK
6
CONTINUOUS
10
5.31299
20
-3.37421
11
5.31372
21
-3.36725
0
LINE
8
BLACK
6
CONTINUOUS
10
5.31372
20
-3.36725
11
5.31589
21
-3.3606
0
LINE
8
BLACK
6
CONTINUOUS
10
5.31589
20
-3.3606
11
5.31938
21
-3.35454
0
LINE
8
BLACK
6
CONTINUOUS
10
5.31938
20
-3.35454
11
5.32406
21
-3.34934
0
LINE
8
BLACK
6
CONTINUOUS
10
5.32406
20
-3.34934
11
5.32972
21
-3.34523
0
LINE
8
BLACK
6
CONTINUOUS
10
5.32972
20
-3.34523
11
5.33612
21
-3.34239
0
LINE
8
BLACK
6
CONTINUOUS
10
5.33612
20
-3.34239
11
5.34296
21
-3.34093
0
LINE
8
BLACK
6
CONTINUOUS
10
5.34296
20
-3.34093
11
5.34995
21
-3.34093
0
LINE
8
BLACK
6
CONTINUOUS
10
5.34995
20
-3.34093
11
5.3568
21
-3.34239
0
LINE
8
BLACK
6
CONTINUOUS
10
4.73869
20
-3.26109
11
4.74508
21
-3.26393
0
LINE
8
BLACK
6
CONTINUOUS
10
4.74508
20
-3.26393
11
4.75074
21
-3.26804
0
LINE
8
BLACK
6
CONTINUOUS
10
4.75074
20
-3.26804
11
4.75542
21
-3.27324
0
LINE
8
BLACK
6
CONTINUOUS
10
4.75542
20
-3.27324
11
4.75892
21
-3.2793
0
LINE
8
BLACK
6
CONTINUOUS
10
4.75892
20
-3.2793
11
4.76108
21
-3.28596
0
LINE
8
BLACK
6
CONTINUOUS
10
4.76108
20
-3.28596
11
4.76181
21
-3.29291
0
LINE
8
BLACK
6
CONTINUOUS
10
4.76181
20
-3.29291
11
4.76108
21
-3.29987
0
LINE
8
BLACK
6
CONTINUOUS
10
4.76108
20
-3.29987
11
4.75892
21
-3.30652
0
LINE
8
BLACK
6
CONTINUOUS
10
4.75892
20
-3.30652
11
4.75542
21
-3.31258
0
LINE
8
BLACK
6
CONTINUOUS
10
4.75542
20
-3.31258
11
4.75074
21
-3.31778
0
LINE
8
BLACK
6
CONTINUOUS
10
4.75074
20
-3.31778
11
4.74508
21
-3.32189
0
LINE
8
BLACK
6
CONTINUOUS
10
4.74508
20
-3.32189
11
4.73869
21
-3.32474
0
LINE
8
BLACK
6
CONTINUOUS
10
4.73869
20
-3.32474
11
4.73184
21
-3.32619
0
LINE
8
BLACK
6
CONTINUOUS
10
4.73184
20
-3.32619
11
4.72485
21
-3.32619
0
LINE
8
BLACK
6
CONTINUOUS
10
4.72485
20
-3.32619
11
4.71801
21
-3.32474
0
LINE
8
BLACK
6
CONTINUOUS
10
4.71801
20
-3.32474
11
4.71161
21
-3.32189
0
LINE
8
BLACK
6
CONTINUOUS
10
4.71161
20
-3.32189
11
4.70595
21
-3.31778
0
LINE
8
BLACK
6
CONTINUOUS
10
4.70595
20
-3.31778
11
4.70127
21
-3.31258
0
LINE
8
BLACK
6
CONTINUOUS
10
4.70127
20
-3.31258
11
4.69778
21
-3.30652
0
LINE
8
BLACK
6
CONTINUOUS
10
4.69778
20
-3.30652
11
4.69561
21
-3.29987
0
LINE
8
BLACK
6
CONTINUOUS
10
4.69561
20
-3.29987
11
4.69488
21
-3.29291
0
LINE
8
BLACK
6
CONTINUOUS
10
4.69488
20
-3.29291
11
4.69561
21
-3.28596
0
LINE
8
BLACK
6
CONTINUOUS
10
4.69561
20
-3.28596
11
4.69778
21
-3.2793
0
LINE
8
BLACK
6
CONTINUOUS
10
4.69778
20
-3.2793
11
4.70127
21
-3.27324
0
LINE
8
BLACK
6
CONTINUOUS
10
4.70127
20
-3.27324
11
4.70595
21
-3.26804
0
LINE
8
BLACK
6
CONTINUOUS
10
4.70595
20
-3.26804
11
4.71161
21
-3.26393
0
LINE
8
BLACK
6
CONTINUOUS
10
4.71161
20
-3.26393
11
4.71801
21
-3.26109
0
LINE
8
BLACK
6
CONTINUOUS
10
4.71801
20
-3.26109
11
4.72485
21
-3.25963
0
LINE
8
BLACK
6
CONTINUOUS
10
4.72485
20
-3.25963
11
4.73184
21
-3.25963
0
LINE
8
BLACK
6
CONTINUOUS
10
4.73184
20
-3.25963
11
4.73869
21
-3.26109
0
LINE
8
BLACK
6
CONTINUOUS
10
5.3568
20
-3.24239
11
5.36319
21
-3.24523
0
LINE
8
BLACK
6
CONTINUOUS
10
5.36319
20
-3.24523
11
5.36885
21
-3.24934
0
LINE
8
BLACK
6
CONTINUOUS
10
5.36885
20
-3.24934
11
5.37353
21
-3.25454
0
LINE
8
BLACK
6
CONTINUOUS
10
5.37353
20
-3.25454
11
5.37703
21
-3.2606
0
LINE
8
BLACK
6
CONTINUOUS
10
5.37703
20
-3.2606
11
5.37919
21
-3.26725
0
LINE
8
BLACK
6
CONTINUOUS
10
5.37919
20
-3.26725
11
5.37992
21
-3.27421
0
LINE
8
BLACK
6
CONTINUOUS
10
5.37992
20
-3.27421
11
5.37919
21
-3.28117
0
LINE
8
BLACK
6
CONTINUOUS
10
5.37919
20
-3.28117
11
5.37703
21
-3.28782
0
LINE
8
BLACK
6
CONTINUOUS
10
5.37703
20
-3.28782
11
5.37353
21
-3.29388
0
LINE
8
BLACK
6
CONTINUOUS
10
5.37353
20
-3.29388
11
5.36885
21
-3.29908
0
LINE
8
BLACK
6
CONTINUOUS
10
5.36885
20
-3.29908
11
5.36319
21
-3.30319
0
LINE
8
BLACK
6
CONTINUOUS
10
5.36319
20
-3.30319
11
5.3568
21
-3.30604
0
LINE
8
BLACK
6
CONTINUOUS
10
5.3568
20
-3.30604
11
5.34995
21
-3.30749
0
LINE
8
BLACK
6
CONTINUOUS
10
5.34995
20
-3.30749
11
5.34296
21
-3.30749
0
LINE
8
BLACK
6
CONTINUOUS
10
5.34296
20
-3.30749
11
5.33612
21
-3.30604
0
LINE
8
BLACK
6
CONTINUOUS
10
5.33612
20
-3.30604
11
5.32972
21
-3.30319
0
LINE
8
BLACK
6
CONTINUOUS
10
5.32972
20
-3.30319
11
5.32406
21
-3.29908
0
LINE
8
BLACK
6
CONTINUOUS
10
5.32406
20
-3.29908
11
5.31938
21
-3.29388
0
LINE
8
BLACK
6
CONTINUOUS
10
5.31938
20
-3.29388
11
5.31589
21
-3.28782
0
LINE
8
BLACK
6
CONTINUOUS
10
5.31589
20
-3.28782
11
5.31372
21
-3.28117
0
LINE
8
BLACK
6
CONTINUOUS
10
5.31372
20
-3.28117
11
5.31299
21
-3.27421
0
LINE
8
BLACK
6
CONTINUOUS
10
5.31299
20
-3.27421
11
5.31372
21
-3.26725
0
LINE
8
BLACK
6
CONTINUOUS
10
5.31372
20
-3.26725
11
5.31589
21
-3.2606
0
LINE
8
BLACK
6
CONTINUOUS
10
5.31589
20
-3.2606
11
5.31938
21
-3.25454
0
LINE
8
BLACK
6
CONTINUOUS
10
5.31938
20
-3.25454
11
5.32406
21
-3.24934
0
LINE
8
BLACK
6
CONTINUOUS
10
5.32406
20
-3.24934
11
5.32972
21
-3.24523
0
LINE
8
BLACK
6
CONTINUOUS
10
5.32972
20
-3.24523
11
5.33612
21
-3.24239
0
LINE
8
BLACK
6
CONTINUOUS
10
5.33612
20
-3.24239
11
5.34296
21
-3.24093
0
LINE
8
BLACK
6
CONTINUOUS
10
5.34296
20
-3.24093
11
5.34995
21
-3.24093
0
LINE
8
BLACK
6
CONTINUOUS
10
5.34995
20
-3.24093
11
5.3568
21
-3.24239
0
LINE
8
BLACK
6
CONTINUOUS
10
6.08207
20
-3.23348
11
6.08826
21
-3.23503
0
LINE
8
BLACK
6
CONTINUOUS
10
6.08826
20
-3.23503
11
6.09391
21
-3.23802
0
LINE
8
BLACK
6
CONTINUOUS
10
6.09391
20
-3.23802
11
6.09867
21
-3.24227
0
LINE
8
BLACK
6
CONTINUOUS
10
6.09867
20
-3.24227
11
6.10229
21
-3.24753
0
LINE
8
BLACK
6
CONTINUOUS
10
6.10229
20
-3.24753
11
6.10455
21
-3.2535
0
LINE
8
BLACK
6
CONTINUOUS
10
6.10455
20
-3.2535
11
6.10531
21
-3.25984
0
LINE
8
BLACK
6
CONTINUOUS
10
6.10531
20
-3.25984
11
6.10531
21
-3.2604
0
LINE
8
BLACK
6
CONTINUOUS
10
6.10531
20
-3.2604
11
6.10441
21
-3.26672
0
LINE
8
BLACK
6
CONTINUOUS
10
6.10441
20
-3.26672
11
6.10203
21
-3.27265
0
LINE
8
BLACK
6
CONTINUOUS
10
6.10203
20
-3.27265
11
6.0983
21
-3.27783
0
LINE
8
BLACK
6
CONTINUOUS
10
6.0983
20
-3.27783
11
6.09345
21
-3.28198
0
LINE
8
BLACK
6
CONTINUOUS
10
6.09345
20
-3.28198
11
6.08774
21
-3.28485
0
LINE
8
BLACK
6
CONTINUOUS
10
6.08774
20
-3.28485
11
6.08152
21
-3.28627
0
LINE
8
BLACK
6
CONTINUOUS
10
6.08152
20
-3.28627
11
6.07513
21
-3.28617
0
LINE
8
BLACK
6
CONTINUOUS
10
6.07513
20
-3.28617
11
6.06896
21
-3.28455
0
LINE
8
BLACK
6
CONTINUOUS
10
6.06896
20
-3.28455
11
6.06335
21
-3.2815
0
LINE
8
BLACK
6
CONTINUOUS
10
6.06335
20
-3.2815
11
6.05862
21
-3.27721
0
LINE
8
BLACK
6
CONTINUOUS
10
6.05862
20
-3.27721
11
6.05506
21
-3.27191
0
LINE
8
BLACK
6
CONTINUOUS
10
6.05506
20
-3.27191
11
6.05287
21
-3.26591
0
LINE
8
BLACK
6
CONTINUOUS
10
6.05287
20
-3.26591
11
6.05217
21
-3.25956
0
LINE
8
BLACK
6
CONTINUOUS
10
6.05217
20
-3.25956
11
6.053
21
-3.25323
0
LINE
8
BLACK
6
CONTINUOUS
10
6.053
20
-3.25323
11
6.05532
21
-3.24728
0
LINE
8
BLACK
6
CONTINUOUS
10
6.05532
20
-3.24728
11
6.05899
21
-3.24206
0
LINE
8
BLACK
6
CONTINUOUS
10
6.05899
20
-3.24206
11
6.0638
21
-3.23786
0
LINE
8
BLACK
6
CONTINUOUS
10
6.0638
20
-3.23786
11
6.06948
21
-3.23493
0
LINE
8
BLACK
6
CONTINUOUS
10
6.06948
20
-3.23493
11
6.07569
21
-3.23344
0
LINE
8
BLACK
6
CONTINUOUS
10
6.07569
20
-3.23344
11
6.08207
21
-3.23348
0
LINE
8
BLACK
6
CONTINUOUS
10
4.73869
20
-3.16109
11
4.74508
21
-3.16393
0
LINE
8
BLACK
6
CONTINUOUS
10
4.74508
20
-3.16393
11
4.75074
21
-3.16804
0
LINE
8
BLACK
6
CONTINUOUS
10
4.75074
20
-3.16804
11
4.75542
21
-3.17324
0
LINE
8
BLACK
6
CONTINUOUS
10
4.75542
20
-3.17324
11
4.75892
21
-3.1793
0
LINE
8
BLACK
6
CONTINUOUS
10
4.75892
20
-3.1793
11
4.76108
21
-3.18596
0
LINE
8
BLACK
6
CONTINUOUS
10
4.76108
20
-3.18596
11
4.76181
21
-3.19291
0
LINE
8
BLACK
6
CONTINUOUS
10
4.76181
20
-3.19291
11
4.76108
21
-3.19987
0
LINE
8
BLACK
6
CONTINUOUS
10
4.76108
20
-3.19987
11
4.75892
21
-3.20652
0
LINE
8
BLACK
6
CONTINUOUS
10
4.75892
20
-3.20652
11
4.75542
21
-3.21258
0
LINE
8
BLACK
6
CONTINUOUS
10
4.75542
20
-3.21258
11
4.75074
21
-3.21778
0
LINE
8
BLACK
6
CONTINUOUS
10
4.75074
20
-3.21778
11
4.74508
21
-3.22189
0
LINE
8
BLACK
6
CONTINUOUS
10
4.74508
20
-3.22189
11
4.73869
21
-3.22474
0
LINE
8
BLACK
6
CONTINUOUS
10
4.73869
20
-3.22474
11
4.73184
21
-3.22619
0
LINE
8
BLACK
6
CONTINUOUS
10
4.73184
20
-3.22619
11
4.72485
21
-3.22619
0
LINE
8
BLACK
6
CONTINUOUS
10
4.72485
20
-3.22619
11
4.71801
21
-3.22474
0
LINE
8
BLACK
6
CONTINUOUS
10
4.71801
20
-3.22474
11
4.71161
21
-3.22189
0
LINE
8
BLACK
6
CONTINUOUS
10
4.71161
20
-3.22189
11
4.70595
21
-3.21778
0
LINE
8
BLACK
6
CONTINUOUS
10
4.70595
20
-3.21778
11
4.70127
21
-3.21258
0
LINE
8
BLACK
6
CONTINUOUS
10
4.70127
20
-3.21258
11
4.69778
21
-3.20652
0
LINE
8
BLACK
6
CONTINUOUS
10
4.69778
20
-3.20652
11
4.69561
21
-3.19987
0
LINE
8
BLACK
6
CONTINUOUS
10
4.69561
20
-3.19987
11
4.69488
21
-3.19291
0
LINE
8
BLACK
6
CONTINUOUS
10
4.69488
20
-3.19291
11
4.69561
21
-3.18596
0
LINE
8
BLACK
6
CONTINUOUS
10
4.69561
20
-3.18596
11
4.69778
21
-3.1793
0
LINE
8
BLACK
6
CONTINUOUS
10
4.69778
20
-3.1793
11
4.70127
21
-3.17324
0
LINE
8
BLACK
6
CONTINUOUS
10
4.70127
20
-3.17324
11
4.70595
21
-3.16804
0
LINE
8
BLACK
6
CONTINUOUS
10
4.70595
20
-3.16804
11
4.71161
21
-3.16393
0
LINE
8
BLACK
6
CONTINUOUS
10
4.71161
20
-3.16393
11
4.71801
21
-3.16109
0
LINE
8
BLACK
6
CONTINUOUS
10
4.71801
20
-3.16109
11
4.72485
21
-3.15963
0
LINE
8
BLACK
6
CONTINUOUS
10
4.72485
20
-3.15963
11
4.73184
21
-3.15963
0
LINE
8
BLACK
6
CONTINUOUS
10
4.73184
20
-3.15963
11
4.73869
21
-3.16109
0
LINE
8
BLACK
6
CONTINUOUS
10
6.08207
20
-3.15474
11
6.08826
21
-3.15629
0
LINE
8
BLACK
6
CONTINUOUS
10
6.08826
20
-3.15629
11
6.09391
21
-3.15928
0
LINE
8
BLACK
6
CONTINUOUS
10
6.09391
20
-3.15928
11
6.09867
21
-3.16353
0
LINE
8
BLACK
6
CONTINUOUS
10
6.09867
20
-3.16353
11
6.10229
21
-3.16879
0
LINE
8
BLACK
6
CONTINUOUS
10
6.10229
20
-3.16879
11
6.10455
21
-3.17476
0
LINE
8
BLACK
6
CONTINUOUS
10
6.10455
20
-3.17476
11
6.10531
21
-3.1811
0
LINE
8
BLACK
6
CONTINUOUS
10
6.10531
20
-3.1811
11
6.10531
21
-3.18166
0
LINE
8
BLACK
6
CONTINUOUS
10
6.10531
20
-3.18166
11
6.10441
21
-3.18798
0
LINE
8
BLACK
6
CONTINUOUS
10
6.10441
20
-3.18798
11
6.10203
21
-3.1939
0
LINE
8
BLACK
6
CONTINUOUS
10
6.10203
20
-3.1939
11
6.0983
21
-3.19909
0
LINE
8
BLACK
6
CONTINUOUS
10
6.0983
20
-3.19909
11
6.09345
21
-3.20324
0
LINE
8
BLACK
6
CONTINUOUS
10
6.09345
20
-3.20324
11
6.08774
21
-3.20611
0
LINE
8
BLACK
6
CONTINUOUS
10
6.08774
20
-3.20611
11
6.08152
21
-3.20753
0
LINE
8
BLACK
6
CONTINUOUS
10
6.08152
20
-3.20753
11
6.07513
21
-3.20743
0
LINE
8
BLACK
6
CONTINUOUS
10
6.07513
20
-3.20743
11
6.06896
21
-3.20581
0
LINE
8
BLACK
6
CONTINUOUS
10
6.06896
20
-3.20581
11
6.06335
21
-3.20276
0
LINE
8
BLACK
6
CONTINUOUS
10
6.06335
20
-3.20276
11
6.05862
21
-3.19847
0
LINE
8
BLACK
6
CONTINUOUS
10
6.05862
20
-3.19847
11
6.05506
21
-3.19317
0
LINE
8
BLACK
6
CONTINUOUS
10
6.05506
20
-3.19317
11
6.05287
21
-3.18717
0
LINE
8
BLACK
6
CONTINUOUS
10
6.05287
20
-3.18717
11
6.05217
21
-3.18082
0
LINE
8
BLACK
6
CONTINUOUS
10
6.05217
20
-3.18082
11
6.053
21
-3.17449
0
LINE
8
BLACK
6
CONTINUOUS
10
6.053
20
-3.17449
11
6.05532
21
-3.16854
0
LINE
8
BLACK
6
CONTINUOUS
10
6.05532
20
-3.16854
11
6.05899
21
-3.16332
0
LINE
8
BLACK
6
CONTINUOUS
10
6.05899
20
-3.16332
11
6.0638
21
-3.15912
0
LINE
8
BLACK
6
CONTINUOUS
10
6.0638
20
-3.15912
11
6.06948
21
-3.15619
0
LINE
8
BLACK
6
CONTINUOUS
10
6.06948
20
-3.15619
11
6.07569
21
-3.1547
0
LINE
8
BLACK
6
CONTINUOUS
10
6.07569
20
-3.1547
11
6.08207
21
-3.15474
0
LINE
8
BLACK
6
CONTINUOUS
10
5.3568
20
-3.14239
11
5.36319
21
-3.14523
0
LINE
8
BLACK
6
CONTINUOUS
10
5.36319
20
-3.14523
11
5.36885
21
-3.14934
0
LINE
8
BLACK
6
CONTINUOUS
10
5.36885
20
-3.14934
11
5.37353
21
-3.15454
0
LINE
8
BLACK
6
CONTINUOUS
10
5.37353
20
-3.15454
11
5.37703
21
-3.1606
0
LINE
8
BLACK
6
CONTINUOUS
10
5.37703
20
-3.1606
11
5.37919
21
-3.16725
0
LINE
8
BLACK
6
CONTINUOUS
10
5.37919
20
-3.16725
11
5.37992
21
-3.17421
0
LINE
8
BLACK
6
CONTINUOUS
10
5.37992
20
-3.17421
11
5.37919
21
-3.18117
0
LINE
8
BLACK
6
CONTINUOUS
10
5.37919
20
-3.18117
11
5.37703
21
-3.18782
0
LINE
8
BLACK
6
CONTINUOUS
10
5.37703
20
-3.18782
11
5.37353
21
-3.19388
0
LINE
8
BLACK
6
CONTINUOUS
10
5.37353
20
-3.19388
11
5.36885
21
-3.19908
0
LINE
8
BLACK
6
CONTINUOUS
10
5.36885
20
-3.19908
11
5.36319
21
-3.20319
0
LINE
8
BLACK
6
CONTINUOUS
10
5.36319
20
-3.20319
11
5.3568
21
-3.20604
0
LINE
8
BLACK
6
CONTINUOUS
10
5.3568
20
-3.20604
11
5.34995
21
-3.20749
0
LINE
8
BLACK
6
CONTINUOUS
10
5.34995
20
-3.20749
11
5.34296
21
-3.20749
0
LINE
8
BLACK
6
CONTINUOUS
10
5.34296
20
-3.20749
11
5.33612
21
-3.20604
0
LINE
8
BLACK
6
CONTINUOUS
10
5.33612
20
-3.20604
11
5.32972
21
-3.20319
0
LINE
8
BLACK
6
CONTINUOUS
10
5.32972
20
-3.20319
11
5.32406
21
-3.19908
0
LINE
8
BLACK
6
CONTINUOUS
10
5.32406
20
-3.19908
11
5.31938
21
-3.19388
0
LINE
8
BLACK
6
CONTINUOUS
10
5.31938
20
-3.19388
11
5.31589
21
-3.18782
0
LINE
8
BLACK
6
CONTINUOUS
10
5.31589
20
-3.18782
11
5.31372
21
-3.18117
0
LINE
8
BLACK
6
CONTINUOUS
10
5.31372
20
-3.18117
11
5.31299
21
-3.17421
0
LINE
8
BLACK
6
CONTINUOUS
10
5.31299
20
-3.17421
11
5.31372
21
-3.16725
0
LINE
8
BLACK
6
CONTINUOUS
10
5.31372
20
-3.16725
11
5.31589
21
-3.1606
0
LINE
8
BLACK
6
CONTINUOUS
10
5.31589
20
-3.1606
11
5.31938
21
-3.15454
0
LINE
8
BLACK
6
CONTINUOUS
10
5.31938
20
-3.15454
11
5.32406
21
-3.14934
0
LINE
8
BLACK
6
CONTINUOUS
10
5.32406
20
-3.14934
11
5.32972
21
-3.14523
0
LINE
8
BLACK
6
CONTINUOUS
10
5.32972
20
-3.14523
11
5.33612
21
-3.14239
0
LINE
8
BLACK
6
CONTINUOUS
10
5.33612
20
-3.14239
11
5.34296
21
-3.14093
0
LINE
8
BLACK
6
CONTINUOUS
10
5.34296
20
-3.14093
11
5.34995
21
-3.14093
0
LINE
8
BLACK
6
CONTINUOUS
10
5.34995
20
-3.14093
11
5.3568
21
-3.14239
0
LINE
8
BLACK
6
CONTINUOUS
10
6.08207
20
-3.076
11
6.08826
21
-3.07755
0
LINE
8
BLACK
6
CONTINUOUS
10
6.08826
20
-3.07755
11
6.09391
21
-3.08054
0
LINE
8
BLACK
6
CONTINUOUS
10
6.09391
20
-3.08054
11
6.09867
21
-3.08479
0
LINE
8
BLACK
6
CONTINUOUS
10
6.09867
20
-3.08479
11
6.10229
21
-3.09005
0
LINE
8
BLACK
6
CONTINUOUS
10
6.10229
20
-3.09005
11
6.10455
21
-3.09602
0
LINE
8
BLACK
6
CONTINUOUS
10
6.10455
20
-3.09602
11
6.10531
21
-3.10236
0
LINE
8
BLACK
6
CONTINUOUS
10
6.10531
20
-3.10236
11
6.10531
21
-3.10292
0
LINE
8
BLACK
6
CONTINUOUS
10
6.10531
20
-3.10292
11
6.10441
21
-3.10924
0
LINE
8
BLACK
6
CONTINUOUS
10
6.10441
20
-3.10924
11
6.10203
21
-3.11516
0
LINE
8
BLACK
6
CONTINUOUS
10
6.10203
20
-3.11516
11
6.0983
21
-3.12035
0
LINE
8
BLACK
6
CONTINUOUS
10
6.0983
20
-3.12035
11
6.09345
21
-3.1245
0
LINE
8
BLACK
6
CONTINUOUS
10
6.09345
20
-3.1245
11
6.08774
21
-3.12737
0
LINE
8
BLACK
6
CONTINUOUS
10
6.08774
20
-3.12737
11
6.08152
21
-3.12879
0
LINE
8
BLACK
6
CONTINUOUS
10
6.08152
20
-3.12879
11
6.07513
21
-3.12869
0
LINE
8
BLACK
6
CONTINUOUS
10
6.07513
20
-3.12869
11
6.06896
21
-3.12707
0
LINE
8
BLACK
6
CONTINUOUS
10
6.06896
20
-3.12707
11
6.06335
21
-3.12402
0
LINE
8
BLACK
6
CONTINUOUS
10
6.06335
20
-3.12402
11
6.05862
21
-3.11973
0
LINE
8
BLACK
6
CONTINUOUS
10
6.05862
20
-3.11973
11
6.05506
21
-3.11443
0
LINE
8
BLACK
6
CONTINUOUS
10
6.05506
20
-3.11443
11
6.05287
21
-3.10843
0
LINE
8
BLACK
6
CONTINUOUS
10
6.05287
20
-3.10843
11
6.05217
21
-3.10208
0
LINE
8
BLACK
6
CONTINUOUS
10
6.05217
20
-3.10208
11
6.053
21
-3.09575
0
LINE
8
BLACK
6
CONTINUOUS
10
6.053
20
-3.09575
11
6.05532
21
-3.0898
0
LINE
8
BLACK
6
CONTINUOUS
10
6.05532
20
-3.0898
11
6.05899
21
-3.08458
0
LINE
8
BLACK
6
CONTINUOUS
10
6.05899
20
-3.08458
11
6.0638
21
-3.08038
0
LINE
8
BLACK
6
CONTINUOUS
10
6.0638
20
-3.08038
11
6.06948
21
-3.07745
0
LINE
8
BLACK
6
CONTINUOUS
10
6.06948
20
-3.07745
11
6.07569
21
-3.07596
0
LINE
8
BLACK
6
CONTINUOUS
10
6.07569
20
-3.07596
11
6.08207
21
-3.076
0
LINE
8
BLACK
6
CONTINUOUS
10
4.73869
20
-3.06109
11
4.74508
21
-3.06393
0
LINE
8
BLACK
6
CONTINUOUS
10
4.74508
20
-3.06393
11
4.75074
21
-3.06804
0
LINE
8
BLACK
6
CONTINUOUS
10
4.75074
20
-3.06804
11
4.75542
21
-3.07324
0
LINE
8
BLACK
6
CONTINUOUS
10
4.75542
20
-3.07324
11
4.75892
21
-3.0793
0
LINE
8
BLACK
6
CONTINUOUS
10
4.75892
20
-3.0793
11
4.76108
21
-3.08596
0
LINE
8
BLACK
6
CONTINUOUS
10
4.76108
20
-3.08596
11
4.76181
21
-3.09291
0
LINE
8
BLACK
6
CONTINUOUS
10
4.76181
20
-3.09291
11
4.76108
21
-3.09987
0
LINE
8
BLACK
6
CONTINUOUS
10
4.76108
20
-3.09987
11
4.75892
21
-3.10652
0
LINE
8
BLACK
6
CONTINUOUS
10
4.75892
20
-3.10652
11
4.75542
21
-3.11258
0
LINE
8
BLACK
6
CONTINUOUS
10
4.75542
20
-3.11258
11
4.75074
21
-3.11778
0
LINE
8
BLACK
6
CONTINUOUS
10
4.75074
20
-3.11778
11
4.74508
21
-3.12189
0
LINE
8
BLACK
6
CONTINUOUS
10
4.74508
20
-3.12189
11
4.73869
21
-3.12474
0
LINE
8
BLACK
6
CONTINUOUS
10
4.73869
20
-3.12474
11
4.73184
21
-3.12619
0
LINE
8
BLACK
6
CONTINUOUS
10
4.73184
20
-3.12619
11
4.72485
21
-3.12619
0
LINE
8
BLACK
6
CONTINUOUS
10
4.72485
20
-3.12619
11
4.71801
21
-3.12474
0
LINE
8
BLACK
6
CONTINUOUS
10
4.71801
20
-3.12474
11
4.71161
21
-3.12189
0
LINE
8
BLACK
6
CONTINUOUS
10
4.71161
20
-3.12189
11
4.70595
21
-3.11778
0
LINE
8
BLACK
6
CONTINUOUS
10
4.70595
20
-3.11778
11
4.70127
21
-3.11258
0
LINE
8
BLACK
6
CONTINUOUS
10
4.70127
20
-3.11258
11
4.69778
21
-3.10652
0
LINE
8
BLACK
6
CONTINUOUS
10
4.69778
20
-3.10652
11
4.69561
21
-3.09987
0
LINE
8
BLACK
6
CONTINUOUS
10
4.69561
20
-3.09987
11
4.69488
21
-3.09291
0
LINE
8
BLACK
6
CONTINUOUS
10
4.69488
20
-3.09291
11
4.69561
21
-3.08596
0
LINE
8
BLACK
6
CONTINUOUS
10
4.69561
20
-3.08596
11
4.69778
21
-3.0793
0
LINE
8
BLACK
6
CONTINUOUS
10
4.69778
20
-3.0793
11
4.70127
21
-3.07324
0
LINE
8
BLACK
6
CONTINUOUS
10
4.70127
20
-3.07324
11
4.70595
21
-3.06804
0
LINE
8
BLACK
6
CONTINUOUS
10
4.70595
20
-3.06804
11
4.71161
21
-3.06393
0
LINE
8
BLACK
6
CONTINUOUS
10
4.71161
20
-3.06393
11
4.71801
21
-3.06109
0
LINE
8
BLACK
6
CONTINUOUS
10
4.71801
20
-3.06109
11
4.72485
21
-3.05963
0
LINE
8
BLACK
6
CONTINUOUS
10
4.72485
20
-3.05963
11
4.73184
21
-3.05963
0
LINE
8
BLACK
6
CONTINUOUS
10
4.73184
20
-3.05963
11
4.73869
21
-3.06109
0
LINE
8
BLACK
6
CONTINUOUS
10
5.3568
20
-3.04239
11
5.36319
21
-3.04523
0
LINE
8
BLACK
6
CONTINUOUS
10
5.36319
20
-3.04523
11
5.36885
21
-3.04934
0
LINE
8
BLACK
6
CONTINUOUS
10
5.36885
20
-3.04934
11
5.37353
21
-3.05454
0
LINE
8
BLACK
6
CONTINUOUS
10
5.37353
20
-3.05454
11
5.37703
21
-3.0606
0
LINE
8
BLACK
6
CONTINUOUS
10
5.37703
20
-3.0606
11
5.37919
21
-3.06725
0
LINE
8
BLACK
6
CONTINUOUS
10
5.37919
20
-3.06725
11
5.37992
21
-3.07421
0
LINE
8
BLACK
6
CONTINUOUS
10
5.37992
20
-3.07421
11
5.37919
21
-3.08117
0
LINE
8
BLACK
6
CONTINUOUS
10
5.37919
20
-3.08117
11
5.37703
21
-3.08782
0
LINE
8
BLACK
6
CONTINUOUS
10
5.37703
20
-3.08782
11
5.37353
21
-3.09388
0
LINE
8
BLACK
6
CONTINUOUS
10
5.37353
20
-3.09388
11
5.36885
21
-3.09908
0
LINE
8
BLACK
6
CONTINUOUS
10
5.36885
20
-3.09908
11
5.36319
21
-3.10319
0
LINE
8
BLACK
6
CONTINUOUS
10
5.36319
20
-3.10319
11
5.3568
21
-3.10604
0
LINE
8
BLACK
6
CONTINUOUS
10
5.3568
20
-3.10604
11
5.34995
21
-3.10749
0
LINE
8
BLACK
6
CONTINUOUS
10
5.34995
20
-3.10749
11
5.34296
21
-3.10749
0
LINE
8
BLACK
6
CONTINUOUS
10
5.34296
20
-3.10749
11
5.33612
21
-3.10604
0
LINE
8
BLACK
6
CONTINUOUS
10
5.33612
20
-3.10604
11
5.32972
21
-3.10319
0
LINE
8
BLACK
6
CONTINUOUS
10
5.32972
20
-3.10319
11
5.32406
21
-3.09908
0
LINE
8
BLACK
6
CONTINUOUS
10
5.32406
20
-3.09908
11
5.31938
21
-3.09388
0
LINE
8
BLACK
6
CONTINUOUS
10
5.31938
20
-3.09388
11
5.31589
21
-3.08782
0
LINE
8
BLACK
6
CONTINUOUS
10
5.31589
20
-3.08782
11
5.31372
21
-3.08117
0
LINE
8
BLACK
6
CONTINUOUS
10
5.31372
20
-3.08117
11
5.31299
21
-3.07421
0
LINE
8
BLACK
6
CONTINUOUS
10
5.31299
20
-3.07421
11
5.31372
21
-3.06725
0
LINE
8
BLACK
6
CONTINUOUS
10
5.31372
20
-3.06725
11
5.31589
21
-3.0606
0
LINE
8
BLACK
6
CONTINUOUS
10
5.31589
20
-3.0606
11
5.31938
21
-3.05454
0
LINE
8
BLACK
6
CONTINUOUS
10
5.31938
20
-3.05454
11
5.32406
21
-3.04934
0
LINE
8
BLACK
6
CONTINUOUS
10
5.32406
20
-3.04934
11
5.32972
21
-3.04523
0
LINE
8
BLACK
6
CONTINUOUS
10
5.32972
20
-3.04523
11
5.33612
21
-3.04239
0
LINE
8
BLACK
6
CONTINUOUS
10
5.33612
20
-3.04239
11
5.34296
21
-3.04093
0
LINE
8
BLACK
6
CONTINUOUS
10
5.34296
20
-3.04093
11
5.34995
21
-3.04093
0
LINE
8
BLACK
6
CONTINUOUS
10
5.34995
20
-3.04093
11
5.3568
21
-3.04239
0
LINE
8
BLACK
6
CONTINUOUS
10
4.13218
20
-3.06364
11
4.1341
21
-3.06492
0
LINE
8
BLACK
6
CONTINUOUS
10
4.1341
20
-3.06492
11
4.13538
21
-3.06683
0
LINE
8
BLACK
6
CONTINUOUS
10
4.13538
20
-3.06683
11
4.13583
21
-3.06909
0
LINE
8
BLACK
6
CONTINUOUS
10
4.13583
20
-3.06909
11
4.13583
21
-3.08091
0
LINE
8
BLACK
6
CONTINUOUS
10
4.13583
20
-3.08091
11
4.13538
21
-3.08317
0
LINE
8
BLACK
6
CONTINUOUS
10
4.13538
20
-3.08317
11
4.1341
21
-3.08508
0
LINE
8
BLACK
6
CONTINUOUS
10
4.1341
20
-3.08508
11
4.13218
21
-3.08636
0
LINE
8
BLACK
6
CONTINUOUS
10
4.13218
20
-3.08636
11
4.12992
21
-3.08681
0
LINE
8
BLACK
6
CONTINUOUS
10
4.12992
20
-3.08681
11
4.07677
21
-3.08681
0
LINE
8
BLACK
6
CONTINUOUS
10
4.07677
20
-3.08681
11
4.07451
21
-3.08636
0
LINE
8
BLACK
6
CONTINUOUS
10
4.07451
20
-3.08636
11
4.0726
21
-3.08508
0
LINE
8
BLACK
6
CONTINUOUS
10
4.0726
20
-3.08508
11
4.07132
21
-3.08317
0
LINE
8
BLACK
6
CONTINUOUS
10
4.07132
20
-3.08317
11
4.07087
21
-3.08091
0
LINE
8
BLACK
6
CONTINUOUS
10
4.07087
20
-3.08091
11
4.07087
21
-3.06909
0
LINE
8
BLACK
6
CONTINUOUS
10
4.07087
20
-3.06909
11
4.07132
21
-3.06683
0
LINE
8
BLACK
6
CONTINUOUS
10
4.07132
20
-3.06683
11
4.0726
21
-3.06492
0
LINE
8
BLACK
6
CONTINUOUS
10
4.0726
20
-3.06492
11
4.07451
21
-3.06364
0
LINE
8
BLACK
6
CONTINUOUS
10
4.07451
20
-3.06364
11
4.07677
21
-3.06319
0
LINE
8
BLACK
6
CONTINUOUS
10
4.07677
20
-3.06319
11
4.12992
21
-3.06319
0
LINE
8
BLACK
6
CONTINUOUS
10
4.12992
20
-3.06319
11
4.13218
21
-3.06364
0
LINE
8
BLACK
6
CONTINUOUS
10
3.92549
20
-3.06364
11
3.9274
21
-3.06492
0
LINE
8
BLACK
6
CONTINUOUS
10
3.9274
20
-3.06492
11
3.92868
21
-3.06683
0
LINE
8
BLACK
6
CONTINUOUS
10
3.92868
20
-3.06683
11
3.92913
21
-3.06909
0
LINE
8
BLACK
6
CONTINUOUS
10
3.92913
20
-3.06909
11
3.92913
21
-3.08091
0
LINE
8
BLACK
6
CONTINUOUS
10
3.92913
20
-3.08091
11
3.92868
21
-3.08317
0
LINE
8
BLACK
6
CONTINUOUS
10
3.92868
20
-3.08317
11
3.9274
21
-3.08508
0
LINE
8
BLACK
6
CONTINUOUS
10
3.9274
20
-3.08508
11
3.92549
21
-3.08636
0
LINE
8
BLACK
6
CONTINUOUS
10
3.92549
20
-3.08636
11
3.92323
21
-3.08681
0
LINE
8
BLACK
6
CONTINUOUS
10
3.92323
20
-3.08681
11
3.87008
21
-3.08681
0
LINE
8
BLACK
6
CONTINUOUS
10
3.87008
20
-3.08681
11
3.86782
21
-3.08636
0
LINE
8
BLACK
6
CONTINUOUS
10
3.86782
20
-3.08636
11
3.8659
21
-3.08508
0
LINE
8
BLACK
6
CONTINUOUS
10
3.8659
20
-3.08508
11
3.86462
21
-3.08317
0
LINE
8
BLACK
6
CONTINUOUS
10
3.86462
20
-3.08317
11
3.86417
21
-3.08091
0
LINE
8
BLACK
6
CONTINUOUS
10
3.86417
20
-3.08091
11
3.86417
21
-3.06909
0
LINE
8
BLACK
6
CONTINUOUS
10
3.86417
20
-3.06909
11
3.86462
21
-3.06683
0
LINE
8
BLACK
6
CONTINUOUS
10
3.86462
20
-3.06683
11
3.8659
21
-3.06492
0
LINE
8
BLACK
6
CONTINUOUS
10
3.8659
20
-3.06492
11
3.86782
21
-3.06364
0
LINE
8
BLACK
6
CONTINUOUS
10
3.86782
20
-3.06364
11
3.87008
21
-3.06319
0
LINE
8
BLACK
6
CONTINUOUS
10
3.87008
20
-3.06319
11
3.92323
21
-3.06319
0
LINE
8
BLACK
6
CONTINUOUS
10
3.92323
20
-3.06319
11
3.92549
21
-3.06364
0
LINE
8
BLACK
6
CONTINUOUS
10
6.08207
20
-2.99726
11
6.08826
21
-2.99881
0
LINE
8
BLACK
6
CONTINUOUS
10
6.08826
20
-2.99881
11
6.09391
21
-3.0018
0
LINE
8
BLACK
6
CONTINUOUS
10
6.09391
20
-3.0018
11
6.09867
21
-3.00605
0
LINE
8
BLACK
6
CONTINUOUS
10
6.09867
20
-3.00605
11
6.10229
21
-3.01131
0
LINE
8
BLACK
6
CONTINUOUS
10
6.10229
20
-3.01131
11
6.10455
21
-3.01728
0
LINE
8
BLACK
6
CONTINUOUS
10
6.10455
20
-3.01728
11
6.10531
21
-3.02362
0
LINE
8
BLACK
6
CONTINUOUS
10
6.10531
20
-3.02362
11
6.10531
21
-3.02418
0
LINE
8
BLACK
6
CONTINUOUS
10
6.10531
20
-3.02418
11
6.10441
21
-3.0305
0
LINE
8
BLACK
6
CONTINUOUS
10
6.10441
20
-3.0305
11
6.10203
21
-3.03642
0
LINE
8
BLACK
6
CONTINUOUS
10
6.10203
20
-3.03642
11
6.0983
21
-3.04161
0
LINE
8
BLACK
6
CONTINUOUS
10
6.0983
20
-3.04161
11
6.09345
21
-3.04576
0
LINE
8
BLACK
6
CONTINUOUS
10
6.09345
20
-3.04576
11
6.08774
21
-3.04863
0
LINE
8
BLACK
6
CONTINUOUS
10
6.08774
20
-3.04863
11
6.08152
21
-3.05005
0
LINE
8
BLACK
6
CONTINUOUS
10
6.08152
20
-3.05005
11
6.07513
21
-3.04995
0
LINE
8
BLACK
6
CONTINUOUS
10
6.07513
20
-3.04995
11
6.06896
21
-3.04833
0
LINE
8
BLACK
6
CONTINUOUS
10
6.06896
20
-3.04833
11
6.06335
21
-3.04528
0
LINE
8
BLACK
6
CONTINUOUS
10
6.06335
20
-3.04528
11
6.05862
21
-3.04099
0
LINE
8
BLACK
6
CONTINUOUS
10
6.05862
20
-3.04099
11
6.05506
21
-3.03569
0
LINE
8
BLACK
6
CONTINUOUS
10
6.05506
20
-3.03569
11
6.05287
21
-3.02969
0
LINE
8
BLACK
6
CONTINUOUS
10
6.05287
20
-3.02969
11
6.05217
21
-3.02334
0
LINE
8
BLACK
6
CONTINUOUS
10
6.05217
20
-3.02334
11
6.053
21
-3.01701
0
LINE
8
BLACK
6
CONTINUOUS
10
6.053
20
-3.01701
11
6.05532
21
-3.01106
0
LINE
8
BLACK
6
CONTINUOUS
10
6.05532
20
-3.01106
11
6.05899
21
-3.00584
0
LINE
8
BLACK
6
CONTINUOUS
10
6.05899
20
-3.00584
11
6.0638
21
-3.00164
0
LINE
8
BLACK
6
CONTINUOUS
10
6.0638
20
-3.00164
11
6.06948
21
-2.99871
0
LINE
8
BLACK
6
CONTINUOUS
10
6.06948
20
-2.99871
11
6.07569
21
-2.99722
0
LINE
8
BLACK
6
CONTINUOUS
10
6.07569
20
-2.99722
11
6.08207
21
-2.99726
0
LINE
8
BLACK
6
CONTINUOUS
10
4.13218
20
-3.01364
11
4.1341
21
-3.01492
0
LINE
8
BLACK
6
CONTINUOUS
10
4.1341
20
-3.01492
11
4.13538
21
-3.01683
0
LINE
8
BLACK
6
CONTINUOUS
10
4.13538
20
-3.01683
11
4.13583
21
-3.01909
0
LINE
8
BLACK
6
CONTINUOUS
10
4.13583
20
-3.01909
11
4.13583
21
-3.03091
0
LINE
8
BLACK
6
CONTINUOUS
10
4.13583
20
-3.03091
11
4.13538
21
-3.03317
0
LINE
8
BLACK
6
CONTINUOUS
10
4.13538
20
-3.03317
11
4.1341
21
-3.03508
0
LINE
8
BLACK
6
CONTINUOUS
10
4.1341
20
-3.03508
11
4.13218
21
-3.03636
0
LINE
8
BLACK
6
CONTINUOUS
10
4.13218
20
-3.03636
11
4.12992
21
-3.03681
0
LINE
8
BLACK
6
CONTINUOUS
10
4.12992
20
-3.03681
11
4.07677
21
-3.03681
0
LINE
8
BLACK
6
CONTINUOUS
10
4.07677
20
-3.03681
11
4.07451
21
-3.03636
0
LINE
8
BLACK
6
CONTINUOUS
10
4.07451
20
-3.03636
11
4.0726
21
-3.03508
0
LINE
8
BLACK
6
CONTINUOUS
10
4.0726
20
-3.03508
11
4.07132
21
-3.03317
0
LINE
8
BLACK
6
CONTINUOUS
10
4.07132
20
-3.03317
11
4.07087
21
-3.03091
0
LINE
8
BLACK
6
CONTINUOUS
10
4.07087
20
-3.03091
11
4.07087
21
-3.01909
0
LINE
8
BLACK
6
CONTINUOUS
10
4.07087
20
-3.01909
11
4.07132
21
-3.01683
0
LINE
8
BLACK
6
CONTINUOUS
10
4.07132
20
-3.01683
11
4.0726
21
-3.01492
0
LINE
8
BLACK
6
CONTINUOUS
10
4.0726
20
-3.01492
11
4.07451
21
-3.01364
0
LINE
8
BLACK
6
CONTINUOUS
10
4.07451
20
-3.01364
11
4.07677
21
-3.01319
0
LINE
8
BLACK
6
CONTINUOUS
10
4.07677
20
-3.01319
11
4.12992
21
-3.01319
0
LINE
8
BLACK
6
CONTINUOUS
10
4.12992
20
-3.01319
11
4.13218
21
-3.01364
0
LINE
8
BLACK
6
CONTINUOUS
10
3.92549
20
-3.01364
11
3.9274
21
-3.01492
0
LINE
8
BLACK
6
CONTINUOUS
10
3.9274
20
-3.01492
11
3.92868
21
-3.01683
0
LINE
8
BLACK
6
CONTINUOUS
10
3.92868
20
-3.01683
11
3.92913
21
-3.01909
0
LINE
8
BLACK
6
CONTINUOUS
10
3.92913
20
-3.01909
11
3.92913
21
-3.03091
0
LINE
8
BLACK
6
CONTINUOUS
10
3.92913
20
-3.03091
11
3.92868
21
-3.03317
0
LINE
8
BLACK
6
CONTINUOUS
10
3.92868
20
-3.03317
11
3.9274
21
-3.03508
0
LINE
8
BLACK
6
CONTINUOUS
10
3.9274
20
-3.03508
11
3.92549
21
-3.03636
0
LINE
8
BLACK
6
CONTINUOUS
10
3.92549
20
-3.03636
11
3.92323
21
-3.03681
0
LINE
8
BLACK
6
CONTINUOUS
10
3.92323
20
-3.03681
11
3.87008
21
-3.03681
0
LINE
8
BLACK
6
CONTINUOUS
10
3.87008
20
-3.03681
11
3.86782
21
-3.03636
0
LINE
8
BLACK
6
CONTINUOUS
10
3.86782
20
-3.03636
11
3.8659
21
-3.03508
0
LINE
8
BLACK
6
CONTINUOUS
10
3.8659
20
-3.03508
11
3.86462
21
-3.03317
0
LINE
8
BLACK
6
CONTINUOUS
10
3.86462
20
-3.03317
11
3.86417
21
-3.03091
0
LINE
8
BLACK
6
CONTINUOUS
10
3.86417
20
-3.03091
11
3.86417
21
-3.01909
0
LINE
8
BLACK
6
CONTINUOUS
10
3.86417
20
-3.01909
11
3.86462
21
-3.01683
0
LINE
8
BLACK
6
CONTINUOUS
10
3.86462
20
-3.01683
11
3.8659
21
-3.01492
0
LINE
8
BLACK
6
CONTINUOUS
10
3.8659
20
-3.01492
11
3.86782
21
-3.01364
0
LINE
8
BLACK
6
CONTINUOUS
10
3.86782
20
-3.01364
11
3.87008
21
-3.01319
0
LINE
8
BLACK
6
CONTINUOUS
10
3.87008
20
-3.01319
11
3.92323
21
-3.01319
0
LINE
8
BLACK
6
CONTINUOUS
10
3.92323
20
-3.01319
11
3.92549
21
-3.01364
0
LINE
8
BLACK
6
CONTINUOUS
10
4.73869
20
-2.96109
11
4.74508
21
-2.96393
0
LINE
8
BLACK
6
CONTINUOUS
10
4.74508
20
-2.96393
11
4.75074
21
-2.96804
0
LINE
8
BLACK
6
CONTINUOUS
10
4.75074
20
-2.96804
11
4.75542
21
-2.97324
0
LINE
8
BLACK
6
CONTINUOUS
10
4.75542
20
-2.97324
11
4.75892
21
-2.9793
0
LINE
8
BLACK
6
CONTINUOUS
10
4.75892
20
-2.9793
11
4.76108
21
-2.98596
0
LINE
8
BLACK
6
CONTINUOUS
10
4.76108
20
-2.98596
11
4.76181
21
-2.99291
0
LINE
8
BLACK
6
CONTINUOUS
10
4.76181
20
-2.99291
11
4.76108
21
-2.99987
0
LINE
8
BLACK
6
CONTINUOUS
10
4.76108
20
-2.99987
11
4.75892
21
-3.00652
0
LINE
8
BLACK
6
CONTINUOUS
10
4.75892
20
-3.00652
11
4.75542
21
-3.01258
0
LINE
8
BLACK
6
CONTINUOUS
10
4.75542
20
-3.01258
11
4.75074
21
-3.01778
0
LINE
8
BLACK
6
CONTINUOUS
10
4.75074
20
-3.01778
11
4.74508
21
-3.02189
0
LINE
8
BLACK
6
CONTINUOUS
10
4.74508
20
-3.02189
11
4.73869
21
-3.02474
0
LINE
8
BLACK
6
CONTINUOUS
10
4.73869
20
-3.02474
11
4.73184
21
-3.02619
0
LINE
8
BLACK
6
CONTINUOUS
10
4.73184
20
-3.02619
11
4.72485
21
-3.02619
0
LINE
8
BLACK
6
CONTINUOUS
10
4.72485
20
-3.02619
11
4.71801
21
-3.02474
0
LINE
8
BLACK
6
CONTINUOUS
10
4.71801
20
-3.02474
11
4.71161
21
-3.02189
0
LINE
8
BLACK
6
CONTINUOUS
10
4.71161
20
-3.02189
11
4.70595
21
-3.01778
0
LINE
8
BLACK
6
CONTINUOUS
10
4.70595
20
-3.01778
11
4.70127
21
-3.01258
0
LINE
8
BLACK
6
CONTINUOUS
10
4.70127
20
-3.01258
11
4.69778
21
-3.00652
0
LINE
8
BLACK
6
CONTINUOUS
10
4.69778
20
-3.00652
11
4.69561
21
-2.99987
0
LINE
8
BLACK
6
CONTINUOUS
10
4.69561
20
-2.99987
11
4.69488
21
-2.99291
0
LINE
8
BLACK
6
CONTINUOUS
10
4.69488
20
-2.99291
11
4.69561
21
-2.98596
0
LINE
8
BLACK
6
CONTINUOUS
10
4.69561
20
-2.98596
11
4.69778
21
-2.9793
0
LINE
8
BLACK
6
CONTINUOUS
10
4.69778
20
-2.9793
11
4.70127
21
-2.97324
0
LINE
8
BLACK
6
CONTINUOUS
10
4.70127
20
-2.97324
11
4.70595
21
-2.96804
0
LINE
8
BLACK
6
CONTINUOUS
10
4.70595
20
-2.96804
11
4.71161
21
-2.96393
0
LINE
8
BLACK
6
CONTINUOUS
10
4.71161
20
-2.96393
11
4.71801
21
-2.96109
0
LINE
8
BLACK
6
CONTINUOUS
10
4.71801
20
-2.96109
11
4.72485
21
-2.95963
0
LINE
8
BLACK
6
CONTINUOUS
10
4.72485
20
-2.95963
11
4.73184
21
-2.95963
0
LINE
8
BLACK
6
CONTINUOUS
10
4.73184
20
-2.95963
11
4.73869
21
-2.96109
0
LINE
8
BLACK
6
CONTINUOUS
10
5.3568
20
-2.94239
11
5.36319
21
-2.94523
0
LINE
8
BLACK
6
CONTINUOUS
10
5.36319
20
-2.94523
11
5.36885
21
-2.94934
0
LINE
8
BLACK
6
CONTINUOUS
10
5.36885
20
-2.94934
11
5.37353
21
-2.95454
0
LINE
8
BLACK
6
CONTINUOUS
10
5.37353
20
-2.95454
11
5.37703
21
-2.9606
0
LINE
8
BLACK
6
CONTINUOUS
10
5.37703
20
-2.9606
11
5.37919
21
-2.96725
0
LINE
8
BLACK
6
CONTINUOUS
10
5.37919
20
-2.96725
11
5.37992
21
-2.97421
0
LINE
8
BLACK
6
CONTINUOUS
10
5.37992
20
-2.97421
11
5.37919
21
-2.98117
0
LINE
8
BLACK
6
CONTINUOUS
10
5.37919
20
-2.98117
11
5.37703
21
-2.98782
0
LINE
8
BLACK
6
CONTINUOUS
10
5.37703
20
-2.98782
11
5.37353
21
-2.99388
0
LINE
8
BLACK
6
CONTINUOUS
10
5.37353
20
-2.99388
11
5.36885
21
-2.99908
0
LINE
8
BLACK
6
CONTINUOUS
10
5.36885
20
-2.99908
11
5.36319
21
-3.00319
0
LINE
8
BLACK
6
CONTINUOUS
10
5.36319
20
-3.00319
11
5.3568
21
-3.00604
0
LINE
8
BLACK
6
CONTINUOUS
10
5.3568
20
-3.00604
11
5.34995
21
-3.00749
0
LINE
8
BLACK
6
CONTINUOUS
10
5.34995
20
-3.00749
11
5.34296
21
-3.00749
0
LINE
8
BLACK
6
CONTINUOUS
10
5.34296
20
-3.00749
11
5.33612
21
-3.00604
0
LINE
8
BLACK
6
CONTINUOUS
10
5.33612
20
-3.00604
11
5.32972
21
-3.00319
0
LINE
8
BLACK
6
CONTINUOUS
10
5.32972
20
-3.00319
11
5.32406
21
-2.99908
0
LINE
8
BLACK
6
CONTINUOUS
10
5.32406
20
-2.99908
11
5.31938
21
-2.99388
0
LINE
8
BLACK
6
CONTINUOUS
10
5.31938
20
-2.99388
11
5.31589
21
-2.98782
0
LINE
8
BLACK
6
CONTINUOUS
10
5.31589
20
-2.98782
11
5.31372
21
-2.98117
0
LINE
8
BLACK
6
CONTINUOUS
10
5.31372
20
-2.98117
11
5.31299
21
-2.97421
0
LINE
8
BLACK
6
CONTINUOUS
10
5.31299
20
-2.97421
11
5.31372
21
-2.96725
0
LINE
8
BLACK
6
CONTINUOUS
10
5.31372
20
-2.96725
11
5.31589
21
-2.9606
0
LINE
8
BLACK
6
CONTINUOUS
10
5.31589
20
-2.9606
11
5.31938
21
-2.95454
0
LINE
8
BLACK
6
CONTINUOUS
10
5.31938
20
-2.95454
11
5.32406
21
-2.94934
0
LINE
8
BLACK
6
CONTINUOUS
10
5.32406
20
-2.94934
11
5.32972
21
-2.94523
0
LINE
8
BLACK
6
CONTINUOUS
10
5.32972
20
-2.94523
11
5.33612
21
-2.94239
0
LINE
8
BLACK
6
CONTINUOUS
10
5.33612
20
-2.94239
11
5.34296
21
-2.94093
0
LINE
8
BLACK
6
CONTINUOUS
10
5.34296
20
-2.94093
11
5.34995
21
-2.94093
0
LINE
8
BLACK
6
CONTINUOUS
10
5.34995
20
-2.94093
11
5.3568
21
-2.94239
0
LINE
8
BLACK
6
CONTINUOUS
10
4.13218
20
-2.96364
11
4.1341
21
-2.96492
0
LINE
8
BLACK
6
CONTINUOUS
10
4.1341
20
-2.96492
11
4.13538
21
-2.96683
0
LINE
8
BLACK
6
CONTINUOUS
10
4.13538
20
-2.96683
11
4.13583
21
-2.96909
0
LINE
8
BLACK
6
CONTINUOUS
10
4.13583
20
-2.96909
11
4.13583
21
-2.98091
0
LINE
8
BLACK
6
CONTINUOUS
10
4.13583
20
-2.98091
11
4.13538
21
-2.98317
0
LINE
8
BLACK
6
CONTINUOUS
10
4.13538
20
-2.98317
11
4.1341
21
-2.98508
0
LINE
8
BLACK
6
CONTINUOUS
10
4.1341
20
-2.98508
11
4.13218
21
-2.98636
0
LINE
8
BLACK
6
CONTINUOUS
10
4.13218
20
-2.98636
11
4.12992
21
-2.98681
0
LINE
8
BLACK
6
CONTINUOUS
10
4.12992
20
-2.98681
11
4.07677
21
-2.98681
0
LINE
8
BLACK
6
CONTINUOUS
10
4.07677
20
-2.98681
11
4.07451
21
-2.98636
0
LINE
8
BLACK
6
CONTINUOUS
10
4.07451
20
-2.98636
11
4.0726
21
-2.98508
0
LINE
8
BLACK
6
CONTINUOUS
10
4.0726
20
-2.98508
11
4.07132
21
-2.98317
0
LINE
8
BLACK
6
CONTINUOUS
10
4.07132
20
-2.98317
11
4.07087
21
-2.98091
0
LINE
8
BLACK
6
CONTINUOUS
10
4.07087
20
-2.98091
11
4.07087
21
-2.96909
0
LINE
8
BLACK
6
CONTINUOUS
10
4.07087
20
-2.96909
11
4.07132
21
-2.96683
0
LINE
8
BLACK
6
CONTINUOUS
10
4.07132
20
-2.96683
11
4.0726
21
-2.96492
0
LINE
8
BLACK
6
CONTINUOUS
10
4.0726
20
-2.96492
11
4.07451
21
-2.96364
0
LINE
8
BLACK
6
CONTINUOUS
10
4.07451
20
-2.96364
11
4.07677
21
-2.96319
0
LINE
8
BLACK
6
CONTINUOUS
10
4.07677
20
-2.96319
11
4.12992
21
-2.96319
0
LINE
8
BLACK
6
CONTINUOUS
10
4.12992
20
-2.96319
11
4.13218
21
-2.96364
0
LINE
8
BLACK
6
CONTINUOUS
10
3.92549
20
-2.96364
11
3.9274
21
-2.96492
0
LINE
8
BLACK
6
CONTINUOUS
10
3.9274
20
-2.96492
11
3.92868
21
-2.96683
0
LINE
8
BLACK
6
CONTINUOUS
10
3.92868
20
-2.96683
11
3.92913
21
-2.96909
0
LINE
8
BLACK
6
CONTINUOUS
10
3.92913
20
-2.96909
11
3.92913
21
-2.98091
0
LINE
8
BLACK
6
CONTINUOUS
10
3.92913
20
-2.98091
11
3.92868
21
-2.98317
0
LINE
8
BLACK
6
CONTINUOUS
10
3.92868
20
-2.98317
11
3.9274
21
-2.98508
0
LINE
8
BLACK
6
CONTINUOUS
10
3.9274
20
-2.98508
11
3.92549
21
-2.98636
0
LINE
8
BLACK
6
CONTINUOUS
10
3.92549
20
-2.98636
11
3.92323
21
-2.98681
0
LINE
8
BLACK
6
CONTINUOUS
10
3.92323
20
-2.98681
11
3.87008
21
-2.98681
0
LINE
8
BLACK
6
CONTINUOUS
10
3.87008
20
-2.98681
11
3.86782
21
-2.98636
0
LINE
8
BLACK
6
CONTINUOUS
10
3.86782
20
-2.98636
11
3.8659
21
-2.98508
0
LINE
8
BLACK
6
CONTINUOUS
10
3.8659
20
-2.98508
11
3.86462
21
-2.98317
0
LINE
8
BLACK
6
CONTINUOUS
10
3.86462
20
-2.98317
11
3.86417
21
-2.98091
0
LINE
8
BLACK
6
CONTINUOUS
10
3.86417
20
-2.98091
11
3.86417
21
-2.96909
0
LINE
8
BLACK
6
CONTINUOUS
10
3.86417
20
-2.96909
11
3.86462
21
-2.96683
0
LINE
8
BLACK
6
CONTINUOUS
10
3.86462
20
-2.96683
11
3.8659
21
-2.96492
0
LINE
8
BLACK
6
CONTINUOUS
10
3.8659
20
-2.96492
11
3.86782
21
-2.96364
0
LINE
8
BLACK
6
CONTINUOUS
10
3.86782
20
-2.96364
11
3.87008
21
-2.96319
0
LINE
8
BLACK
6
CONTINUOUS
10
3.87008
20
-2.96319
11
3.92323
21
-2.96319
0
LINE
8
BLACK
6
CONTINUOUS
10
3.92323
20
-2.96319
11
3.92549
21
-2.96364
0
LINE
8
BLACK
6
CONTINUOUS
10
6.08207
20
-2.91852
11
6.08826
21
-2.92007
0
LINE
8
BLACK
6
CONTINUOUS
10
6.08826
20
-2.92007
11
6.09391
21
-2.92306
0
LINE
8
BLACK
6
CONTINUOUS
10
6.09391
20
-2.92306
11
6.09867
21
-2.92731
0
LINE
8
BLACK
6
CONTINUOUS
10
6.09867
20
-2.92731
11
6.10229
21
-2.93257
0
LINE
8
BLACK
6
CONTINUOUS
10
6.10229
20
-2.93257
11
6.10455
21
-2.93854
0
LINE
8
BLACK
6
CONTINUOUS
10
6.10455
20
-2.93854
11
6.10531
21
-2.94488
0
LINE
8
BLACK
6
CONTINUOUS
10
6.10531
20
-2.94488
11
6.10531
21
-2.94544
0
LINE
8
BLACK
6
CONTINUOUS
10
6.10531
20
-2.94544
11
6.10441
21
-2.95176
0
LINE
8
BLACK
6
CONTINUOUS
10
6.10441
20
-2.95176
11
6.10203
21
-2.95768
0
LINE
8
BLACK
6
CONTINUOUS
10
6.10203
20
-2.95768
11
6.0983
21
-2.96287
0
LINE
8
BLACK
6
CONTINUOUS
10
6.0983
20
-2.96287
11
6.09345
21
-2.96702
0
LINE
8
BLACK
6
CONTINUOUS
10
6.09345
20
-2.96702
11
6.08774
21
-2.96989
0
LINE
8
BLACK
6
CONTINUOUS
10
6.08774
20
-2.96989
11
6.08152
21
-2.97131
0
LINE
8
BLACK
6
CONTINUOUS
10
6.08152
20
-2.97131
11
6.07513
21
-2.97121
0
LINE
8
BLACK
6
CONTINUOUS
10
6.07513
20
-2.97121
11
6.06896
21
-2.96959
0
LINE
8
BLACK
6
CONTINUOUS
10
6.06896
20
-2.96959
11
6.06335
21
-2.96654
0
LINE
8
BLACK
6
CONTINUOUS
10
6.06335
20
-2.96654
11
6.05862
21
-2.96225
0
LINE
8
BLACK
6
CONTINUOUS
10
6.05862
20
-2.96225
11
6.05506
21
-2.95695
0
LINE
8
BLACK
6
CONTINUOUS
10
6.05506
20
-2.95695
11
6.05287
21
-2.95095
0
LINE
8
BLACK
6
CONTINUOUS
10
6.05287
20
-2.95095
11
6.05217
21
-2.9446
0
LINE
8
BLACK
6
CONTINUOUS
10
6.05217
20
-2.9446
11
6.053
21
-2.93827
0
LINE
8
BLACK
6
CONTINUOUS
10
6.053
20
-2.93827
11
6.05532
21
-2.93232
0
LINE
8
BLACK
6
CONTINUOUS
10
6.05532
20
-2.93232
11
6.05899
21
-2.9271
0
LINE
8
BLACK
6
CONTINUOUS
10
6.05899
20
-2.9271
11
6.0638
21
-2.9229
0
LINE
8
BLACK
6
CONTINUOUS
10
6.0638
20
-2.9229
11
6.06948
21
-2.91997
0
LINE
8
BLACK
6
CONTINUOUS
10
6.06948
20
-2.91997
11
6.07569
21
-2.91848
0
LINE
8
BLACK
6
CONTINUOUS
10
6.07569
20
-2.91848
11
6.08207
21
-2.91852
0
LINE
8
BLACK
6
CONTINUOUS
10
4.13218
20
-2.91364
11
4.1341
21
-2.91492
0
LINE
8
BLACK
6
CONTINUOUS
10
4.1341
20
-2.91492
11
4.13538
21
-2.91683
0
LINE
8
BLACK
6
CONTINUOUS
10
4.13538
20
-2.91683
11
4.13583
21
-2.91909
0
LINE
8
BLACK
6
CONTINUOUS
10
4.13583
20
-2.91909
11
4.13583
21
-2.93091
0
LINE
8
BLACK
6
CONTINUOUS
10
4.13583
20
-2.93091
11
4.13538
21
-2.93317
0
LINE
8
BLACK
6
CONTINUOUS
10
4.13538
20
-2.93317
11
4.1341
21
-2.93508
0
LINE
8
BLACK
6
CONTINUOUS
10
4.1341
20
-2.93508
11
4.13218
21
-2.93636
0
LINE
8
BLACK
6
CONTINUOUS
10
4.13218
20
-2.93636
11
4.12992
21
-2.93681
0
LINE
8
BLACK
6
CONTINUOUS
10
4.12992
20
-2.93681
11
4.07677
21
-2.93681
0
LINE
8
BLACK
6
CONTINUOUS
10
4.07677
20
-2.93681
11
4.07451
21
-2.93636
0
LINE
8
BLACK
6
CONTINUOUS
10
4.07451
20
-2.93636
11
4.0726
21
-2.93508
0
LINE
8
BLACK
6
CONTINUOUS
10
4.0726
20
-2.93508
11
4.07132
21
-2.93317
0
LINE
8
BLACK
6
CONTINUOUS
10
4.07132
20
-2.93317
11
4.07087
21
-2.93091
0
LINE
8
BLACK
6
CONTINUOUS
10
4.07087
20
-2.93091
11
4.07087
21
-2.91909
0
LINE
8
BLACK
6
CONTINUOUS
10
4.07087
20
-2.91909
11
4.07132
21
-2.91683
0
LINE
8
BLACK
6
CONTINUOUS
10
4.07132
20
-2.91683
11
4.0726
21
-2.91492
0
LINE
8
BLACK
6
CONTINUOUS
10
4.0726
20
-2.91492
11
4.07451
21
-2.91364
0
LINE
8
BLACK
6
CONTINUOUS
10
4.07451
20
-2.91364
11
4.07677
21
-2.91319
0
LINE
8
BLACK
6
CONTINUOUS
10
4.07677
20
-2.91319
11
4.12992
21
-2.91319
0
LINE
8
BLACK
6
CONTINUOUS
10
4.12992
20
-2.91319
11
4.13218
21
-2.91364
0
LINE
8
BLACK
6
CONTINUOUS
10
3.92549
20
-2.91364
11
3.9274
21
-2.91492
0
LINE
8
BLACK
6
CONTINUOUS
10
3.9274
20
-2.91492
11
3.92868
21
-2.91683
0
LINE
8
BLACK
6
CONTINUOUS
10
3.92868
20
-2.91683
11
3.92913
21
-2.91909
0
LINE
8
BLACK
6
CONTINUOUS
10
3.92913
20
-2.91909
11
3.92913
21
-2.93091
0
LINE
8
BLACK
6
CONTINUOUS
10
3.92913
20
-2.93091
11
3.92868
21
-2.93317
0
LINE
8
BLACK
6
CONTINUOUS
10
3.92868
20
-2.93317
11
3.9274
21
-2.93508
0
LINE
8
BLACK
6
CONTINUOUS
10
3.9274
20
-2.93508
11
3.92549
21
-2.93636
0
LINE
8
BLACK
6
CONTINUOUS
10
3.92549
20
-2.93636
11
3.92323
21
-2.93681
0
LINE
8
BLACK
6
CONTINUOUS
10
3.92323
20
-2.93681
11
3.87008
21
-2.93681
0
LINE
8
BLACK
6
CONTINUOUS
10
3.87008
20
-2.93681
11
3.86782
21
-2.93636
0
LINE
8
BLACK
6
CONTINUOUS
10
3.86782
20
-2.93636
11
3.8659
21
-2.93508
0
LINE
8
BLACK
6
CONTINUOUS
10
3.8659
20
-2.93508
11
3.86462
21
-2.93317
0
LINE
8
BLACK
6
CONTINUOUS
10
3.86462
20
-2.93317
11
3.86417
21
-2.93091
0
LINE
8
BLACK
6
CONTINUOUS
10
3.86417
20
-2.93091
11
3.86417
21
-2.91909
0
LINE
8
BLACK
6
CONTINUOUS
10
3.86417
20
-2.91909
11
3.86462
21
-2.91683
0
LINE
8
BLACK
6
CONTINUOUS
10
3.86462
20
-2.91683
11
3.8659
21
-2.91492
0
LINE
8
BLACK
6
CONTINUOUS
10
3.8659
20
-2.91492
11
3.86782
21
-2.91364
0
LINE
8
BLACK
6
CONTINUOUS
10
3.86782
20
-2.91364
11
3.87008
21
-2.91319
0
LINE
8
BLACK
6
CONTINUOUS
10
3.87008
20
-2.91319
11
3.92323
21
-2.91319
0
LINE
8
BLACK
6
CONTINUOUS
10
3.92323
20
-2.91319
11
3.92549
21
-2.91364
0
LINE
8
BLACK
6
CONTINUOUS
10
4.73869
20
-2.86109
11
4.74508
21
-2.86393
0
LINE
8
BLACK
6
CONTINUOUS
10
4.74508
20
-2.86393
11
4.75074
21
-2.86804
0
LINE
8
BLACK
6
CONTINUOUS
10
4.75074
20
-2.86804
11
4.75542
21
-2.87324
0
LINE
8
BLACK
6
CONTINUOUS
10
4.75542
20
-2.87324
11
4.75892
21
-2.8793
0
LINE
8
BLACK
6
CONTINUOUS
10
4.75892
20
-2.8793
11
4.76108
21
-2.88596
0
LINE
8
BLACK
6
CONTINUOUS
10
4.76108
20
-2.88596
11
4.76181
21
-2.89291
0
LINE
8
BLACK
6
CONTINUOUS
10
4.76181
20
-2.89291
11
4.76108
21
-2.89987
0
LINE
8
BLACK
6
CONTINUOUS
10
4.76108
20
-2.89987
11
4.75892
21
-2.90652
0
LINE
8
BLACK
6
CONTINUOUS
10
4.75892
20
-2.90652
11
4.75542
21
-2.91258
0
LINE
8
BLACK
6
CONTINUOUS
10
4.75542
20
-2.91258
11
4.75074
21
-2.91778
0
LINE
8
BLACK
6
CONTINUOUS
10
4.75074
20
-2.91778
11
4.74508
21
-2.92189
0
LINE
8
BLACK
6
CONTINUOUS
10
4.74508
20
-2.92189
11
4.73869
21
-2.92474
0
LINE
8
BLACK
6
CONTINUOUS
10
4.73869
20
-2.92474
11
4.73184
21
-2.92619
0
LINE
8
BLACK
6
CONTINUOUS
10
4.73184
20
-2.92619
11
4.72485
21
-2.92619
0
LINE
8
BLACK
6
CONTINUOUS
10
4.72485
20
-2.92619
11
4.71801
21
-2.92474
0
LINE
8
BLACK
6
CONTINUOUS
10
4.71801
20
-2.92474
11
4.71161
21
-2.92189
0
LINE
8
BLACK
6
CONTINUOUS
10
4.71161
20
-2.92189
11
4.70595
21
-2.91778
0
LINE
8
BLACK
6
CONTINUOUS
10
4.70595
20
-2.91778
11
4.70127
21
-2.91258
0
LINE
8
BLACK
6
CONTINUOUS
10
4.70127
20
-2.91258
11
4.69778
21
-2.90652
0
LINE
8
BLACK
6
CONTINUOUS
10
4.69778
20
-2.90652
11
4.69561
21
-2.89987
0
LINE
8
BLACK
6
CONTINUOUS
10
4.69561
20
-2.89987
11
4.69488
21
-2.89291
0
LINE
8
BLACK
6
CONTINUOUS
10
4.69488
20
-2.89291
11
4.69561
21
-2.88596
0
LINE
8
BLACK
6
CONTINUOUS
10
4.69561
20
-2.88596
11
4.69778
21
-2.8793
0
LINE
8
BLACK
6
CONTINUOUS
10
4.69778
20
-2.8793
11
4.70127
21
-2.87324
0
LINE
8
BLACK
6
CONTINUOUS
10
4.70127
20
-2.87324
11
4.70595
21
-2.86804
0
LINE
8
BLACK
6
CONTINUOUS
10
4.70595
20
-2.86804
11
4.71161
21
-2.86393
0
LINE
8
BLACK
6
CONTINUOUS
10
4.71161
20
-2.86393
11
4.71801
21
-2.86109
0
LINE
8
BLACK
6
CONTINUOUS
10
4.71801
20
-2.86109
11
4.72485
21
-2.85963
0
LINE
8
BLACK
6
CONTINUOUS
10
4.72485
20
-2.85963
11
4.73184
21
-2.85963
0
LINE
8
BLACK
6
CONTINUOUS
10
4.73184
20
-2.85963
11
4.73869
21
-2.86109
0
LINE
8
BLACK
6
CONTINUOUS
10
5.3568
20
-2.84239
11
5.36319
21
-2.84523
0
LINE
8
BLACK
6
CONTINUOUS
10
5.36319
20
-2.84523
11
5.36885
21
-2.84934
0
LINE
8
BLACK
6
CONTINUOUS
10
5.36885
20
-2.84934
11
5.37353
21
-2.85454
0
LINE
8
BLACK
6
CONTINUOUS
10
5.37353
20
-2.85454
11
5.37703
21
-2.8606
0
LINE
8
BLACK
6
CONTINUOUS
10
5.37703
20
-2.8606
11
5.37919
21
-2.86725
0
LINE
8
BLACK
6
CONTINUOUS
10
5.37919
20
-2.86725
11
5.37992
21
-2.87421
0
LINE
8
BLACK
6
CONTINUOUS
10
5.37992
20
-2.87421
11
5.37919
21
-2.88117
0
LINE
8
BLACK
6
CONTINUOUS
10
5.37919
20
-2.88117
11
5.37703
21
-2.88782
0
LINE
8
BLACK
6
CONTINUOUS
10
5.37703
20
-2.88782
11
5.37353
21
-2.89388
0
LINE
8
BLACK
6
CONTINUOUS
10
5.37353
20
-2.89388
11
5.36885
21
-2.89908
0
LINE
8
BLACK
6
CONTINUOUS
10
5.36885
20
-2.89908
11
5.36319
21
-2.90319
0
LINE
8
BLACK
6
CONTINUOUS
10
5.36319
20
-2.90319
11
5.3568
21
-2.90604
0
LINE
8
BLACK
6
CONTINUOUS
10
5.3568
20
-2.90604
11
5.34995
21
-2.90749
0
LINE
8
BLACK
6
CONTINUOUS
10
5.34995
20
-2.90749
11
5.34296
21
-2.90749
0
LINE
8
BLACK
6
CONTINUOUS
10
5.34296
20
-2.90749
11
5.33612
21
-2.90604
0
LINE
8
BLACK
6
CONTINUOUS
10
5.33612
20
-2.90604
11
5.32972
21
-2.90319
0
LINE
8
BLACK
6
CONTINUOUS
10
5.32972
20
-2.90319
11
5.32406
21
-2.89908
0
LINE
8
BLACK
6
CONTINUOUS
10
5.32406
20
-2.89908
11
5.31938
21
-2.89388
0
LINE
8
BLACK
6
CONTINUOUS
10
5.31938
20
-2.89388
11
5.31589
21
-2.88782
0
LINE
8
BLACK
6
CONTINUOUS
10
5.31589
20
-2.88782
11
5.31372
21
-2.88117
0
LINE
8
BLACK
6
CONTINUOUS
10
5.31372
20
-2.88117
11
5.31299
21
-2.87421
0
LINE
8
BLACK
6
CONTINUOUS
10
5.31299
20
-2.87421
11
5.31372
21
-2.86725
0
LINE
8
BLACK
6
CONTINUOUS
10
5.31372
20
-2.86725
11
5.31589
21
-2.8606
0
LINE
8
BLACK
6
CONTINUOUS
10
5.31589
20
-2.8606
11
5.31938
21
-2.85454
0
LINE
8
BLACK
6
CONTINUOUS
10
5.31938
20
-2.85454
11
5.32406
21
-2.84934
0
LINE
8
BLACK
6
CONTINUOUS
10
5.32406
20
-2.84934
11
5.32972
21
-2.84523
0
LINE
8
BLACK
6
CONTINUOUS
10
5.32972
20
-2.84523
11
5.33612
21
-2.84239
0
LINE
8
BLACK
6
CONTINUOUS
10
5.33612
20
-2.84239
11
5.34296
21
-2.84093
0
LINE
8
BLACK
6
CONTINUOUS
10
5.34296
20
-2.84093
11
5.34995
21
-2.84093
0
LINE
8
BLACK
6
CONTINUOUS
10
5.34995
20
-2.84093
11
5.3568
21
-2.84239
0
LINE
8
BLACK
6
CONTINUOUS
10
6.08207
20
-2.83978
11
6.08826
21
-2.84133
0
LINE
8
BLACK
6
CONTINUOUS
10
6.08826
20
-2.84133
11
6.09391
21
-2.84432
0
LINE
8
BLACK
6
CONTINUOUS
10
6.09391
20
-2.84432
11
6.09867
21
-2.84857
0
LINE
8
BLACK
6
CONTINUOUS
10
6.09867
20
-2.84857
11
6.10229
21
-2.85383
0
LINE
8
BLACK
6
CONTINUOUS
10
6.10229
20
-2.85383
11
6.10455
21
-2.8598
0
LINE
8
BLACK
6
CONTINUOUS
10
6.10455
20
-2.8598
11
6.10531
21
-2.86614
0
LINE
8
BLACK
6
CONTINUOUS
10
6.10531
20
-2.86614
11
6.10531
21
-2.8667
0
LINE
8
BLACK
6
CONTINUOUS
10
6.10531
20
-2.8667
11
6.10441
21
-2.87302
0
LINE
8
BLACK
6
CONTINUOUS
10
6.10441
20
-2.87302
11
6.10203
21
-2.87894
0
LINE
8
BLACK
6
CONTINUOUS
10
6.10203
20
-2.87894
11
6.0983
21
-2.88413
0
LINE
8
BLACK
6
CONTINUOUS
10
6.0983
20
-2.88413
11
6.09345
21
-2.88828
0
LINE
8
BLACK
6
CONTINUOUS
10
6.09345
20
-2.88828
11
6.08774
21
-2.89115
0
LINE
8
BLACK
6
CONTINUOUS
10
6.08774
20
-2.89115
11
6.08152
21
-2.89257
0
LINE
8
BLACK
6
CONTINUOUS
10
6.08152
20
-2.89257
11
6.07513
21
-2.89247
0
LINE
8
BLACK
6
CONTINUOUS
10
6.07513
20
-2.89247
11
6.06896
21
-2.89085
0
LINE
8
BLACK
6
CONTINUOUS
10
6.06896
20
-2.89085
11
6.06335
21
-2.8878
0
LINE
8
BLACK
6
CONTINUOUS
10
6.06335
20
-2.8878
11
6.05862
21
-2.88351
0
LINE
8
BLACK
6
CONTINUOUS
10
6.05862
20
-2.88351
11
6.05506
21
-2.87821
0
LINE
8
BLACK
6
CONTINUOUS
10
6.05506
20
-2.87821
11
6.05287
21
-2.87221
0
LINE
8
BLACK
6
CONTINUOUS
10
6.05287
20
-2.87221
11
6.05217
21
-2.86586
0
LINE
8
BLACK
6
CONTINUOUS
10
6.05217
20
-2.86586
11
6.053
21
-2.85953
0
LINE
8
BLACK
6
CONTINUOUS
10
6.053
20
-2.85953
11
6.05532
21
-2.85358
0
LINE
8
BLACK
6
CONTINUOUS
10
6.05532
20
-2.85358
11
6.05899
21
-2.84836
0
LINE
8
BLACK
6
CONTINUOUS
10
6.05899
20
-2.84836
11
6.0638
21
-2.84416
0
LINE
8
BLACK
6
CONTINUOUS
10
6.0638
20
-2.84416
11
6.06948
21
-2.84123
0
LINE
8
BLACK
6
CONTINUOUS
10
6.06948
20
-2.84123
11
6.07569
21
-2.83974
0
LINE
8
BLACK
6
CONTINUOUS
10
6.07569
20
-2.83974
11
6.08207
21
-2.83978
0
LINE
8
BLACK
6
CONTINUOUS
10
4.73869
20
-2.76109
11
4.74508
21
-2.76393
0
LINE
8
BLACK
6
CONTINUOUS
10
4.74508
20
-2.76393
11
4.75074
21
-2.76804
0
LINE
8
BLACK
6
CONTINUOUS
10
4.75074
20
-2.76804
11
4.75542
21
-2.77324
0
LINE
8
BLACK
6
CONTINUOUS
10
4.75542
20
-2.77324
11
4.75892
21
-2.7793
0
LINE
8
BLACK
6
CONTINUOUS
10
4.75892
20
-2.7793
11
4.76108
21
-2.78596
0
LINE
8
BLACK
6
CONTINUOUS
10
4.76108
20
-2.78596
11
4.76181
21
-2.79291
0
LINE
8
BLACK
6
CONTINUOUS
10
4.76181
20
-2.79291
11
4.76108
21
-2.79987
0
LINE
8
BLACK
6
CONTINUOUS
10
4.76108
20
-2.79987
11
4.75892
21
-2.80652
0
LINE
8
BLACK
6
CONTINUOUS
10
4.75892
20
-2.80652
11
4.75542
21
-2.81258
0
LINE
8
BLACK
6
CONTINUOUS
10
4.75542
20
-2.81258
11
4.75074
21
-2.81778
0
LINE
8
BLACK
6
CONTINUOUS
10
4.75074
20
-2.81778
11
4.74508
21
-2.82189
0
LINE
8
BLACK
6
CONTINUOUS
10
4.74508
20
-2.82189
11
4.73869
21
-2.82474
0
LINE
8
BLACK
6
CONTINUOUS
10
4.73869
20
-2.82474
11
4.73184
21
-2.82619
0
LINE
8
BLACK
6
CONTINUOUS
10
4.73184
20
-2.82619
11
4.72485
21
-2.82619
0
LINE
8
BLACK
6
CONTINUOUS
10
4.72485
20
-2.82619
11
4.71801
21
-2.82474
0
LINE
8
BLACK
6
CONTINUOUS
10
4.71801
20
-2.82474
11
4.71161
21
-2.82189
0
LINE
8
BLACK
6
CONTINUOUS
10
4.71161
20
-2.82189
11
4.70595
21
-2.81778
0
LINE
8
BLACK
6
CONTINUOUS
10
4.70595
20
-2.81778
11
4.70127
21
-2.81258
0
LINE
8
BLACK
6
CONTINUOUS
10
4.70127
20
-2.81258
11
4.69778
21
-2.80652
0
LINE
8
BLACK
6
CONTINUOUS
10
4.69778
20
-2.80652
11
4.69561
21
-2.79987
0
LINE
8
BLACK
6
CONTINUOUS
10
4.69561
20
-2.79987
11
4.69488
21
-2.79291
0
LINE
8
BLACK
6
CONTINUOUS
10
4.69488
20
-2.79291
11
4.69561
21
-2.78596
0
LINE
8
BLACK
6
CONTINUOUS
10
4.69561
20
-2.78596
11
4.69778
21
-2.7793
0
LINE
8
BLACK
6
CONTINUOUS
10
4.69778
20
-2.7793
11
4.70127
21
-2.77324
0
LINE
8
BLACK
6
CONTINUOUS
10
4.70127
20
-2.77324
11
4.70595
21
-2.76804
0
LINE
8
BLACK
6
CONTINUOUS
10
4.70595
20
-2.76804
11
4.71161
21
-2.76393
0
LINE
8
BLACK
6
CONTINUOUS
10
4.71161
20
-2.76393
11
4.71801
21
-2.76109
0
LINE
8
BLACK
6
CONTINUOUS
10
4.71801
20
-2.76109
11
4.72485
21
-2.75963
0
LINE
8
BLACK
6
CONTINUOUS
10
4.72485
20
-2.75963
11
4.73184
21
-2.75963
0
LINE
8
BLACK
6
CONTINUOUS
10
4.73184
20
-2.75963
11
4.73869
21
-2.76109
0
LINE
8
BLACK
6
CONTINUOUS
10
6.10531
20
-2.81398
11
6.05217
21
-2.81398
0
LINE
8
BLACK
6
CONTINUOUS
10
6.05217
20
-2.81398
11
6.05217
21
-2.76083
0
LINE
8
BLACK
6
CONTINUOUS
10
6.05217
20
-2.76083
11
6.10531
21
-2.76083
0
LINE
8
BLACK
6
CONTINUOUS
10
6.10531
20
-2.76083
11
6.10531
21
-2.81398
0
LINE
8
BLACK
6
CONTINUOUS
10
5.3568
20
-2.74239
11
5.36319
21
-2.74523
0
LINE
8
BLACK
6
CONTINUOUS
10
5.36319
20
-2.74523
11
5.36885
21
-2.74934
0
LINE
8
BLACK
6
CONTINUOUS
10
5.36885
20
-2.74934
11
5.37353
21
-2.75454
0
LINE
8
BLACK
6
CONTINUOUS
10
5.37353
20
-2.75454
11
5.37703
21
-2.7606
0
LINE
8
BLACK
6
CONTINUOUS
10
5.37703
20
-2.7606
11
5.37919
21
-2.76725
0
LINE
8
BLACK
6
CONTINUOUS
10
5.37919
20
-2.76725
11
5.37992
21
-2.77421
0
LINE
8
BLACK
6
CONTINUOUS
10
5.37992
20
-2.77421
11
5.37919
21
-2.78117
0
LINE
8
BLACK
6
CONTINUOUS
10
5.37919
20
-2.78117
11
5.37703
21
-2.78782
0
LINE
8
BLACK
6
CONTINUOUS
10
5.37703
20
-2.78782
11
5.37353
21
-2.79388
0
LINE
8
BLACK
6
CONTINUOUS
10
5.37353
20
-2.79388
11
5.36885
21
-2.79908
0
LINE
8
BLACK
6
CONTINUOUS
10
5.36885
20
-2.79908
11
5.36319
21
-2.80319
0
LINE
8
BLACK
6
CONTINUOUS
10
5.36319
20
-2.80319
11
5.3568
21
-2.80604
0
LINE
8
BLACK
6
CONTINUOUS
10
5.3568
20
-2.80604
11
5.34995
21
-2.80749
0
LINE
8
BLACK
6
CONTINUOUS
10
5.34995
20
-2.80749
11
5.34296
21
-2.80749
0
LINE
8
BLACK
6
CONTINUOUS
10
5.34296
20
-2.80749
11
5.33612
21
-2.80604
0
LINE
8
BLACK
6
CONTINUOUS
10
5.33612
20
-2.80604
11
5.32972
21
-2.80319
0
LINE
8
BLACK
6
CONTINUOUS
10
5.32972
20
-2.80319
11
5.32406
21
-2.79908
0
LINE
8
BLACK
6
CONTINUOUS
10
5.32406
20
-2.79908
11
5.31938
21
-2.79388
0
LINE
8
BLACK
6
CONTINUOUS
10
5.31938
20
-2.79388
11
5.31589
21
-2.78782
0
LINE
8
BLACK
6
CONTINUOUS
10
5.31589
20
-2.78782
11
5.31372
21
-2.78117
0
LINE
8
BLACK
6
CONTINUOUS
10
5.31372
20
-2.78117
11
5.31299
21
-2.77421
0
LINE
8
BLACK
6
CONTINUOUS
10
5.31299
20
-2.77421
11
5.31372
21
-2.76725
0
LINE
8
BLACK
6
CONTINUOUS
10
5.31372
20
-2.76725
11
5.31589
21
-2.7606
0
LINE
8
BLACK
6
CONTINUOUS
10
5.31589
20
-2.7606
11
5.31938
21
-2.75454
0
LINE
8
BLACK
6
CONTINUOUS
10
5.31938
20
-2.75454
11
5.32406
21
-2.74934
0
LINE
8
BLACK
6
CONTINUOUS
10
5.32406
20
-2.74934
11
5.32972
21
-2.74523
0
LINE
8
BLACK
6
CONTINUOUS
10
5.32972
20
-2.74523
11
5.33612
21
-2.74239
0
LINE
8
BLACK
6
CONTINUOUS
10
5.33612
20
-2.74239
11
5.34296
21
-2.74093
0
LINE
8
BLACK
6
CONTINUOUS
10
5.34296
20
-2.74093
11
5.34995
21
-2.74093
0
LINE
8
BLACK
6
CONTINUOUS
10
5.34995
20
-2.74093
11
5.3568
21
-2.74239
0
LINE
8
BLACK
6
CONTINUOUS
10
4.76181
20
-2.72638
11
4.69488
21
-2.72638
0
LINE
8
BLACK
6
CONTINUOUS
10
4.69488
20
-2.72638
11
4.69488
21
-2.65945
0
LINE
8
BLACK
6
CONTINUOUS
10
4.69488
20
-2.65945
11
4.76181
21
-2.65945
0
LINE
8
BLACK
6
CONTINUOUS
10
4.76181
20
-2.65945
11
4.76181
21
-2.72638
0
LINE
8
BLACK
6
CONTINUOUS
10
5.37992
20
-2.70768
11
5.31299
21
-2.70768
0
LINE
8
BLACK
6
CONTINUOUS
10
5.31299
20
-2.70768
11
5.31299
21
-2.64075
0
LINE
8
BLACK
6
CONTINUOUS
10
5.31299
20
-2.64075
11
5.37992
21
-2.64075
0
LINE
8
BLACK
6
CONTINUOUS
10
5.37992
20
-2.64075
11
5.37992
21
-2.70768
  0
ENDSEC
  0
EOF
