  0
SECTION
  2
HEADER
  9
$ANGBASE
  50
0.0
  9
$ANGDIR
  70
1
  9
$MEASUREMENT
  70
0
  0
ENDSEC
  0
SECTION
  2
TABLES
  0
TABLE
  2
LTYPE
  70
4
  0
LTYPE
  5
40F
  2
CONTINUOUS
  70
0
  3
Solid line
  72
65
  73
0
  40
0.0
  0
LTYPE
  5
410
  2
DASHDOT
 70
0
  3
Dash Dot ____ _ ____ _
 72
65
 73
4
 40
2.0
 49
1.25
 49
-0.25
 49
0.25
 49
-0.25
  0
LTYPE
  5
411
  2
DASHED
 70
0
  3
Dashed __ __ __ __ __
 72
65
 73
2
 40
0.75
 49
0.5
 49
-0.25
  0
LTYPE
  5
43B
  2
DOTTED
 70
0
  3
Dotted .  .  .  .
 72
65
 73
2
 40
0.2
 49
0.0
 49
-0.2
  0
ENDTAB
  0
TABLE
  2
STYLE
  70
4
  0
STYLE
  2
KICAD
  70
0
  40
0
  41
1
  42
1
  50
0
  71
0
  3
isocp.shx
  0
STYLE
  2
KICADB
  70
0
  40
0
  41
1
  42
1
  50
0
  71
0
  3
isocp.shx
  0
STYLE
  2
KICADI
  70
0
  40
0
  41
1
  42
1
  50
15
  71
0
  3
isocp.shx
  0
STYLE
  2
KICADBI
  70
0
  40
0
  41
1
  42
1
  50
15
  71
0
  3
isocp.shx
  0
ENDTAB
  0
TABLE
  2
LAYER
  70
1
  0
LAYER
  2
BLACK
  70
0
  62
7
  6
CONTINUOUS
  0
ENDTAB
  0
ENDSEC
  0
SECTION
  2
ENTITIES
0
LINE
8
BLACK
6
CONTINUOUS
10
4.13218
20
-3.06364
11
4.1341
21
-3.06492
0
LINE
8
BLACK
6
CONTINUOUS
10
4.1341
20
-3.06492
11
4.13538
21
-3.06683
0
LINE
8
BLACK
6
CONTINUOUS
10
4.13538
20
-3.06683
11
4.13583
21
-3.06909
0
LINE
8
BLACK
6
CONTINUOUS
10
4.13583
20
-3.06909
11
4.13583
21
-3.08091
0
LINE
8
BLACK
6
CONTINUOUS
10
4.13583
20
-3.08091
11
4.13538
21
-3.08317
0
LINE
8
BLACK
6
CONTINUOUS
10
4.13538
20
-3.08317
11
4.1341
21
-3.08508
0
LINE
8
BLACK
6
CONTINUOUS
10
4.1341
20
-3.08508
11
4.13218
21
-3.08636
0
LINE
8
BLACK
6
CONTINUOUS
10
4.13218
20
-3.08636
11
4.12992
21
-3.08681
0
LINE
8
BLACK
6
CONTINUOUS
10
4.12992
20
-3.08681
11
4.07677
21
-3.08681
0
LINE
8
BLACK
6
CONTINUOUS
10
4.07677
20
-3.08681
11
4.07451
21
-3.08636
0
LINE
8
BLACK
6
CONTINUOUS
10
4.07451
20
-3.08636
11
4.0726
21
-3.08508
0
LINE
8
BLACK
6
CONTINUOUS
10
4.0726
20
-3.08508
11
4.07132
21
-3.08317
0
LINE
8
BLACK
6
CONTINUOUS
10
4.07132
20
-3.08317
11
4.07087
21
-3.08091
0
LINE
8
BLACK
6
CONTINUOUS
10
4.07087
20
-3.08091
11
4.07087
21
-3.06909
0
LINE
8
BLACK
6
CONTINUOUS
10
4.07087
20
-3.06909
11
4.07132
21
-3.06683
0
LINE
8
BLACK
6
CONTINUOUS
10
4.07132
20
-3.06683
11
4.0726
21
-3.06492
0
LINE
8
BLACK
6
CONTINUOUS
10
4.0726
20
-3.06492
11
4.07451
21
-3.06364
0
LINE
8
BLACK
6
CONTINUOUS
10
4.07451
20
-3.06364
11
4.07677
21
-3.06319
0
LINE
8
BLACK
6
CONTINUOUS
10
4.07677
20
-3.06319
11
4.12992
21
-3.06319
0
LINE
8
BLACK
6
CONTINUOUS
10
4.12992
20
-3.06319
11
4.13218
21
-3.06364
0
LINE
8
BLACK
6
CONTINUOUS
10
3.92549
20
-3.06364
11
3.9274
21
-3.06492
0
LINE
8
BLACK
6
CONTINUOUS
10
3.9274
20
-3.06492
11
3.92868
21
-3.06683
0
LINE
8
BLACK
6
CONTINUOUS
10
3.92868
20
-3.06683
11
3.92913
21
-3.06909
0
LINE
8
BLACK
6
CONTINUOUS
10
3.92913
20
-3.06909
11
3.92913
21
-3.08091
0
LINE
8
BLACK
6
CONTINUOUS
10
3.92913
20
-3.08091
11
3.92868
21
-3.08317
0
LINE
8
BLACK
6
CONTINUOUS
10
3.92868
20
-3.08317
11
3.9274
21
-3.08508
0
LINE
8
BLACK
6
CONTINUOUS
10
3.9274
20
-3.08508
11
3.92549
21
-3.08636
0
LINE
8
BLACK
6
CONTINUOUS
10
3.92549
20
-3.08636
11
3.92323
21
-3.08681
0
LINE
8
BLACK
6
CONTINUOUS
10
3.92323
20
-3.08681
11
3.87008
21
-3.08681
0
LINE
8
BLACK
6
CONTINUOUS
10
3.87008
20
-3.08681
11
3.86782
21
-3.08636
0
LINE
8
BLACK
6
CONTINUOUS
10
3.86782
20
-3.08636
11
3.8659
21
-3.08508
0
LINE
8
BLACK
6
CONTINUOUS
10
3.8659
20
-3.08508
11
3.86462
21
-3.08317
0
LINE
8
BLACK
6
CONTINUOUS
10
3.86462
20
-3.08317
11
3.86417
21
-3.08091
0
LINE
8
BLACK
6
CONTINUOUS
10
3.86417
20
-3.08091
11
3.86417
21
-3.06909
0
LINE
8
BLACK
6
CONTINUOUS
10
3.86417
20
-3.06909
11
3.86462
21
-3.06683
0
LINE
8
BLACK
6
CONTINUOUS
10
3.86462
20
-3.06683
11
3.8659
21
-3.06492
0
LINE
8
BLACK
6
CONTINUOUS
10
3.8659
20
-3.06492
11
3.86782
21
-3.06364
0
LINE
8
BLACK
6
CONTINUOUS
10
3.86782
20
-3.06364
11
3.87008
21
-3.06319
0
LINE
8
BLACK
6
CONTINUOUS
10
3.87008
20
-3.06319
11
3.92323
21
-3.06319
0
LINE
8
BLACK
6
CONTINUOUS
10
3.92323
20
-3.06319
11
3.92549
21
-3.06364
0
LINE
8
BLACK
6
CONTINUOUS
10
4.13218
20
-3.01364
11
4.1341
21
-3.01492
0
LINE
8
BLACK
6
CONTINUOUS
10
4.1341
20
-3.01492
11
4.13538
21
-3.01683
0
LINE
8
BLACK
6
CONTINUOUS
10
4.13538
20
-3.01683
11
4.13583
21
-3.01909
0
LINE
8
BLACK
6
CONTINUOUS
10
4.13583
20
-3.01909
11
4.13583
21
-3.03091
0
LINE
8
BLACK
6
CONTINUOUS
10
4.13583
20
-3.03091
11
4.13538
21
-3.03317
0
LINE
8
BLACK
6
CONTINUOUS
10
4.13538
20
-3.03317
11
4.1341
21
-3.03508
0
LINE
8
BLACK
6
CONTINUOUS
10
4.1341
20
-3.03508
11
4.13218
21
-3.03636
0
LINE
8
BLACK
6
CONTINUOUS
10
4.13218
20
-3.03636
11
4.12992
21
-3.03681
0
LINE
8
BLACK
6
CONTINUOUS
10
4.12992
20
-3.03681
11
4.07677
21
-3.03681
0
LINE
8
BLACK
6
CONTINUOUS
10
4.07677
20
-3.03681
11
4.07451
21
-3.03636
0
LINE
8
BLACK
6
CONTINUOUS
10
4.07451
20
-3.03636
11
4.0726
21
-3.03508
0
LINE
8
BLACK
6
CONTINUOUS
10
4.0726
20
-3.03508
11
4.07132
21
-3.03317
0
LINE
8
BLACK
6
CONTINUOUS
10
4.07132
20
-3.03317
11
4.07087
21
-3.03091
0
LINE
8
BLACK
6
CONTINUOUS
10
4.07087
20
-3.03091
11
4.07087
21
-3.01909
0
LINE
8
BLACK
6
CONTINUOUS
10
4.07087
20
-3.01909
11
4.07132
21
-3.01683
0
LINE
8
BLACK
6
CONTINUOUS
10
4.07132
20
-3.01683
11
4.0726
21
-3.01492
0
LINE
8
BLACK
6
CONTINUOUS
10
4.0726
20
-3.01492
11
4.07451
21
-3.01364
0
LINE
8
BLACK
6
CONTINUOUS
10
4.07451
20
-3.01364
11
4.07677
21
-3.01319
0
LINE
8
BLACK
6
CONTINUOUS
10
4.07677
20
-3.01319
11
4.12992
21
-3.01319
0
LINE
8
BLACK
6
CONTINUOUS
10
4.12992
20
-3.01319
11
4.13218
21
-3.01364
0
LINE
8
BLACK
6
CONTINUOUS
10
3.92549
20
-3.01364
11
3.9274
21
-3.01492
0
LINE
8
BLACK
6
CONTINUOUS
10
3.9274
20
-3.01492
11
3.92868
21
-3.01683
0
LINE
8
BLACK
6
CONTINUOUS
10
3.92868
20
-3.01683
11
3.92913
21
-3.01909
0
LINE
8
BLACK
6
CONTINUOUS
10
3.92913
20
-3.01909
11
3.92913
21
-3.03091
0
LINE
8
BLACK
6
CONTINUOUS
10
3.92913
20
-3.03091
11
3.92868
21
-3.03317
0
LINE
8
BLACK
6
CONTINUOUS
10
3.92868
20
-3.03317
11
3.9274
21
-3.03508
0
LINE
8
BLACK
6
CONTINUOUS
10
3.9274
20
-3.03508
11
3.92549
21
-3.03636
0
LINE
8
BLACK
6
CONTINUOUS
10
3.92549
20
-3.03636
11
3.92323
21
-3.03681
0
LINE
8
BLACK
6
CONTINUOUS
10
3.92323
20
-3.03681
11
3.87008
21
-3.03681
0
LINE
8
BLACK
6
CONTINUOUS
10
3.87008
20
-3.03681
11
3.86782
21
-3.03636
0
LINE
8
BLACK
6
CONTINUOUS
10
3.86782
20
-3.03636
11
3.8659
21
-3.03508
0
LINE
8
BLACK
6
CONTINUOUS
10
3.8659
20
-3.03508
11
3.86462
21
-3.03317
0
LINE
8
BLACK
6
CONTINUOUS
10
3.86462
20
-3.03317
11
3.86417
21
-3.03091
0
LINE
8
BLACK
6
CONTINUOUS
10
3.86417
20
-3.03091
11
3.86417
21
-3.01909
0
LINE
8
BLACK
6
CONTINUOUS
10
3.86417
20
-3.01909
11
3.86462
21
-3.01683
0
LINE
8
BLACK
6
CONTINUOUS
10
3.86462
20
-3.01683
11
3.8659
21
-3.01492
0
LINE
8
BLACK
6
CONTINUOUS
10
3.8659
20
-3.01492
11
3.86782
21
-3.01364
0
LINE
8
BLACK
6
CONTINUOUS
10
3.86782
20
-3.01364
11
3.87008
21
-3.01319
0
LINE
8
BLACK
6
CONTINUOUS
10
3.87008
20
-3.01319
11
3.92323
21
-3.01319
0
LINE
8
BLACK
6
CONTINUOUS
10
3.92323
20
-3.01319
11
3.92549
21
-3.01364
0
LINE
8
BLACK
6
CONTINUOUS
10
4.13218
20
-2.96364
11
4.1341
21
-2.96492
0
LINE
8
BLACK
6
CONTINUOUS
10
4.1341
20
-2.96492
11
4.13538
21
-2.96683
0
LINE
8
BLACK
6
CONTINUOUS
10
4.13538
20
-2.96683
11
4.13583
21
-2.96909
0
LINE
8
BLACK
6
CONTINUOUS
10
4.13583
20
-2.96909
11
4.13583
21
-2.98091
0
LINE
8
BLACK
6
CONTINUOUS
10
4.13583
20
-2.98091
11
4.13538
21
-2.98317
0
LINE
8
BLACK
6
CONTINUOUS
10
4.13538
20
-2.98317
11
4.1341
21
-2.98508
0
LINE
8
BLACK
6
CONTINUOUS
10
4.1341
20
-2.98508
11
4.13218
21
-2.98636
0
LINE
8
BLACK
6
CONTINUOUS
10
4.13218
20
-2.98636
11
4.12992
21
-2.98681
0
LINE
8
BLACK
6
CONTINUOUS
10
4.12992
20
-2.98681
11
4.07677
21
-2.98681
0
LINE
8
BLACK
6
CONTINUOUS
10
4.07677
20
-2.98681
11
4.07451
21
-2.98636
0
LINE
8
BLACK
6
CONTINUOUS
10
4.07451
20
-2.98636
11
4.0726
21
-2.98508
0
LINE
8
BLACK
6
CONTINUOUS
10
4.0726
20
-2.98508
11
4.07132
21
-2.98317
0
LINE
8
BLACK
6
CONTINUOUS
10
4.07132
20
-2.98317
11
4.07087
21
-2.98091
0
LINE
8
BLACK
6
CONTINUOUS
10
4.07087
20
-2.98091
11
4.07087
21
-2.96909
0
LINE
8
BLACK
6
CONTINUOUS
10
4.07087
20
-2.96909
11
4.07132
21
-2.96683
0
LINE
8
BLACK
6
CONTINUOUS
10
4.07132
20
-2.96683
11
4.0726
21
-2.96492
0
LINE
8
BLACK
6
CONTINUOUS
10
4.0726
20
-2.96492
11
4.07451
21
-2.96364
0
LINE
8
BLACK
6
CONTINUOUS
10
4.07451
20
-2.96364
11
4.07677
21
-2.96319
0
LINE
8
BLACK
6
CONTINUOUS
10
4.07677
20
-2.96319
11
4.12992
21
-2.96319
0
LINE
8
BLACK
6
CONTINUOUS
10
4.12992
20
-2.96319
11
4.13218
21
-2.96364
0
LINE
8
BLACK
6
CONTINUOUS
10
3.92549
20
-2.96364
11
3.9274
21
-2.96492
0
LINE
8
BLACK
6
CONTINUOUS
10
3.9274
20
-2.96492
11
3.92868
21
-2.96683
0
LINE
8
BLACK
6
CONTINUOUS
10
3.92868
20
-2.96683
11
3.92913
21
-2.96909
0
LINE
8
BLACK
6
CONTINUOUS
10
3.92913
20
-2.96909
11
3.92913
21
-2.98091
0
LINE
8
BLACK
6
CONTINUOUS
10
3.92913
20
-2.98091
11
3.92868
21
-2.98317
0
LINE
8
BLACK
6
CONTINUOUS
10
3.92868
20
-2.98317
11
3.9274
21
-2.98508
0
LINE
8
BLACK
6
CONTINUOUS
10
3.9274
20
-2.98508
11
3.92549
21
-2.98636
0
LINE
8
BLACK
6
CONTINUOUS
10
3.92549
20
-2.98636
11
3.92323
21
-2.98681
0
LINE
8
BLACK
6
CONTINUOUS
10
3.92323
20
-2.98681
11
3.87008
21
-2.98681
0
LINE
8
BLACK
6
CONTINUOUS
10
3.87008
20
-2.98681
11
3.86782
21
-2.98636
0
LINE
8
BLACK
6
CONTINUOUS
10
3.86782
20
-2.98636
11
3.8659
21
-2.98508
0
LINE
8
BLACK
6
CONTINUOUS
10
3.8659
20
-2.98508
11
3.86462
21
-2.98317
0
LINE
8
BLACK
6
CONTINUOUS
10
3.86462
20
-2.98317
11
3.86417
21
-2.98091
0
LINE
8
BLACK
6
CONTINUOUS
10
3.86417
20
-2.98091
11
3.86417
21
-2.96909
0
LINE
8
BLACK
6
CONTINUOUS
10
3.86417
20
-2.96909
11
3.86462
21
-2.96683
0
LINE
8
BLACK
6
CONTINUOUS
10
3.86462
20
-2.96683
11
3.8659
21
-2.96492
0
LINE
8
BLACK
6
CONTINUOUS
10
3.8659
20
-2.96492
11
3.86782
21
-2.96364
0
LINE
8
BLACK
6
CONTINUOUS
10
3.86782
20
-2.96364
11
3.87008
21
-2.96319
0
LINE
8
BLACK
6
CONTINUOUS
10
3.87008
20
-2.96319
11
3.92323
21
-2.96319
0
LINE
8
BLACK
6
CONTINUOUS
10
3.92323
20
-2.96319
11
3.92549
21
-2.96364
0
LINE
8
BLACK
6
CONTINUOUS
10
4.13218
20
-2.91364
11
4.1341
21
-2.91492
0
LINE
8
BLACK
6
CONTINUOUS
10
4.1341
20
-2.91492
11
4.13538
21
-2.91683
0
LINE
8
BLACK
6
CONTINUOUS
10
4.13538
20
-2.91683
11
4.13583
21
-2.91909
0
LINE
8
BLACK
6
CONTINUOUS
10
4.13583
20
-2.91909
11
4.13583
21
-2.93091
0
LINE
8
BLACK
6
CONTINUOUS
10
4.13583
20
-2.93091
11
4.13538
21
-2.93317
0
LINE
8
BLACK
6
CONTINUOUS
10
4.13538
20
-2.93317
11
4.1341
21
-2.93508
0
LINE
8
BLACK
6
CONTINUOUS
10
4.1341
20
-2.93508
11
4.13218
21
-2.93636
0
LINE
8
BLACK
6
CONTINUOUS
10
4.13218
20
-2.93636
11
4.12992
21
-2.93681
0
LINE
8
BLACK
6
CONTINUOUS
10
4.12992
20
-2.93681
11
4.07677
21
-2.93681
0
LINE
8
BLACK
6
CONTINUOUS
10
4.07677
20
-2.93681
11
4.07451
21
-2.93636
0
LINE
8
BLACK
6
CONTINUOUS
10
4.07451
20
-2.93636
11
4.0726
21
-2.93508
0
LINE
8
BLACK
6
CONTINUOUS
10
4.0726
20
-2.93508
11
4.07132
21
-2.93317
0
LINE
8
BLACK
6
CONTINUOUS
10
4.07132
20
-2.93317
11
4.07087
21
-2.93091
0
LINE
8
BLACK
6
CONTINUOUS
10
4.07087
20
-2.93091
11
4.07087
21
-2.91909
0
LINE
8
BLACK
6
CONTINUOUS
10
4.07087
20
-2.91909
11
4.07132
21
-2.91683
0
LINE
8
BLACK
6
CONTINUOUS
10
4.07132
20
-2.91683
11
4.0726
21
-2.91492
0
LINE
8
BLACK
6
CONTINUOUS
10
4.0726
20
-2.91492
11
4.07451
21
-2.91364
0
LINE
8
BLACK
6
CONTINUOUS
10
4.07451
20
-2.91364
11
4.07677
21
-2.91319
0
LINE
8
BLACK
6
CONTINUOUS
10
4.07677
20
-2.91319
11
4.12992
21
-2.91319
0
LINE
8
BLACK
6
CONTINUOUS
10
4.12992
20
-2.91319
11
4.13218
21
-2.91364
0
LINE
8
BLACK
6
CONTINUOUS
10
3.92549
20
-2.91364
11
3.9274
21
-2.91492
0
LINE
8
BLACK
6
CONTINUOUS
10
3.9274
20
-2.91492
11
3.92868
21
-2.91683
0
LINE
8
BLACK
6
CONTINUOUS
10
3.92868
20
-2.91683
11
3.92913
21
-2.91909
0
LINE
8
BLACK
6
CONTINUOUS
10
3.92913
20
-2.91909
11
3.92913
21
-2.93091
0
LINE
8
BLACK
6
CONTINUOUS
10
3.92913
20
-2.93091
11
3.92868
21
-2.93317
0
LINE
8
BLACK
6
CONTINUOUS
10
3.92868
20
-2.93317
11
3.9274
21
-2.93508
0
LINE
8
BLACK
6
CONTINUOUS
10
3.9274
20
-2.93508
11
3.92549
21
-2.93636
0
LINE
8
BLACK
6
CONTINUOUS
10
3.92549
20
-2.93636
11
3.92323
21
-2.93681
0
LINE
8
BLACK
6
CONTINUOUS
10
3.92323
20
-2.93681
11
3.87008
21
-2.93681
0
LINE
8
BLACK
6
CONTINUOUS
10
3.87008
20
-2.93681
11
3.86782
21
-2.93636
0
LINE
8
BLACK
6
CONTINUOUS
10
3.86782
20
-2.93636
11
3.8659
21
-2.93508
0
LINE
8
BLACK
6
CONTINUOUS
10
3.8659
20
-2.93508
11
3.86462
21
-2.93317
0
LINE
8
BLACK
6
CONTINUOUS
10
3.86462
20
-2.93317
11
3.86417
21
-2.93091
0
LINE
8
BLACK
6
CONTINUOUS
10
3.86417
20
-2.93091
11
3.86417
21
-2.91909
0
LINE
8
BLACK
6
CONTINUOUS
10
3.86417
20
-2.91909
11
3.86462
21
-2.91683
0
LINE
8
BLACK
6
CONTINUOUS
10
3.86462
20
-2.91683
11
3.8659
21
-2.91492
0
LINE
8
BLACK
6
CONTINUOUS
10
3.8659
20
-2.91492
11
3.86782
21
-2.91364
0
LINE
8
BLACK
6
CONTINUOUS
10
3.86782
20
-2.91364
11
3.87008
21
-2.91319
0
LINE
8
BLACK
6
CONTINUOUS
10
3.87008
20
-2.91319
11
3.92323
21
-2.91319
0
LINE
8
BLACK
6
CONTINUOUS
10
3.92323
20
-2.91319
11
3.92549
21
-2.91364
  0
ENDSEC
  0
EOF
