  0
SECTION
  2
HEADER
  9
$ANGBASE
  50
0.0
  9
$ANGDIR
  70
1
  9
$MEASUREMENT
  70
0
  0
ENDSEC
  0
SECTION
  2
TABLES
  0
TABLE
  2
LTYPE
  70
4
  0
LTYPE
  5
40F
  2
CONTINUOUS
  70
0
  3
Solid line
  72
65
  73
0
  40
0.0
  0
LTYPE
  5
410
  2
DASHDOT
 70
0
  3
Dash Dot ____ _ ____ _
 72
65
 73
4
 40
2.0
 49
1.25
 49
-0.25
 49
0.25
 49
-0.25
  0
LTYPE
  5
411
  2
DASHED
 70
0
  3
Dashed __ __ __ __ __
 72
65
 73
2
 40
0.75
 49
0.5
 49
-0.25
  0
LTYPE
  5
43B
  2
DOTTED
 70
0
  3
Dotted .  .  .  .
 72
65
 73
2
 40
0.2
 49
0.0
 49
-0.2
  0
ENDTAB
  0
TABLE
  2
STYLE
  70
4
  0
STYLE
  2
KICAD
  70
0
  40
0
  41
1
  42
1
  50
0
  71
0
  3
isocp.shx
  0
STYLE
  2
KICADB
  70
0
  40
0
  41
1
  42
1
  50
0
  71
0
  3
isocp.shx
  0
STYLE
  2
KICADI
  70
0
  40
0
  41
1
  42
1
  50
15
  71
0
  3
isocp.shx
  0
STYLE
  2
KICADBI
  70
0
  40
0
  41
1
  42
1
  50
15
  71
0
  3
isocp.shx
  0
ENDTAB
  0
TABLE
  2
LAYER
  70
1
  0
LAYER
  2
BLACK
  70
0
  62
7
  6
CONTINUOUS
  0
ENDTAB
  0
ENDSEC
  0
SECTION
  2
ENTITIES
0
LINE
8
BLACK
6
CONTINUOUS
10
3.83366
20
-3.69783
11
3.76673
21
-3.69783
0
LINE
8
BLACK
6
CONTINUOUS
10
3.76673
20
-3.69783
11
3.76673
21
-3.63091
0
LINE
8
BLACK
6
CONTINUOUS
10
3.76673
20
-3.63091
11
3.83366
21
-3.63091
0
LINE
8
BLACK
6
CONTINUOUS
10
3.83366
20
-3.63091
11
3.83366
21
-3.69783
0
LINE
8
BLACK
6
CONTINUOUS
10
3.91054
20
-3.63254
11
3.91693
21
-3.63539
0
LINE
8
BLACK
6
CONTINUOUS
10
3.91693
20
-3.63539
11
3.92259
21
-3.6395
0
LINE
8
BLACK
6
CONTINUOUS
10
3.92259
20
-3.6395
11
3.92727
21
-3.6447
0
LINE
8
BLACK
6
CONTINUOUS
10
3.92727
20
-3.6447
11
3.93077
21
-3.65076
0
LINE
8
BLACK
6
CONTINUOUS
10
3.93077
20
-3.65076
11
3.93293
21
-3.65741
0
LINE
8
BLACK
6
CONTINUOUS
10
3.93293
20
-3.65741
11
3.93366
21
-3.66437
0
LINE
8
BLACK
6
CONTINUOUS
10
3.93366
20
-3.66437
11
3.93293
21
-3.67133
0
LINE
8
BLACK
6
CONTINUOUS
10
3.93293
20
-3.67133
11
3.93077
21
-3.67798
0
LINE
8
BLACK
6
CONTINUOUS
10
3.93077
20
-3.67798
11
3.92727
21
-3.68404
0
LINE
8
BLACK
6
CONTINUOUS
10
3.92727
20
-3.68404
11
3.92259
21
-3.68924
0
LINE
8
BLACK
6
CONTINUOUS
10
3.92259
20
-3.68924
11
3.91693
21
-3.69335
0
LINE
8
BLACK
6
CONTINUOUS
10
3.91693
20
-3.69335
11
3.91054
21
-3.6962
0
LINE
8
BLACK
6
CONTINUOUS
10
3.91054
20
-3.6962
11
3.90369
21
-3.69765
0
LINE
8
BLACK
6
CONTINUOUS
10
3.90369
20
-3.69765
11
3.8967
21
-3.69765
0
LINE
8
BLACK
6
CONTINUOUS
10
3.8967
20
-3.69765
11
3.88986
21
-3.6962
0
LINE
8
BLACK
6
CONTINUOUS
10
3.88986
20
-3.6962
11
3.88346
21
-3.69335
0
LINE
8
BLACK
6
CONTINUOUS
10
3.88346
20
-3.69335
11
3.8778
21
-3.68924
0
LINE
8
BLACK
6
CONTINUOUS
10
3.8778
20
-3.68924
11
3.87312
21
-3.68404
0
LINE
8
BLACK
6
CONTINUOUS
10
3.87312
20
-3.68404
11
3.86963
21
-3.67798
0
LINE
8
BLACK
6
CONTINUOUS
10
3.86963
20
-3.67798
11
3.86746
21
-3.67133
0
LINE
8
BLACK
6
CONTINUOUS
10
3.86746
20
-3.67133
11
3.86673
21
-3.66437
0
LINE
8
BLACK
6
CONTINUOUS
10
3.86673
20
-3.66437
11
3.86746
21
-3.65741
0
LINE
8
BLACK
6
CONTINUOUS
10
3.86746
20
-3.65741
11
3.86963
21
-3.65076
0
LINE
8
BLACK
6
CONTINUOUS
10
3.86963
20
-3.65076
11
3.87312
21
-3.6447
0
LINE
8
BLACK
6
CONTINUOUS
10
3.87312
20
-3.6447
11
3.8778
21
-3.6395
0
LINE
8
BLACK
6
CONTINUOUS
10
3.8778
20
-3.6395
11
3.88346
21
-3.63539
0
LINE
8
BLACK
6
CONTINUOUS
10
3.88346
20
-3.63539
11
3.88986
21
-3.63254
0
LINE
8
BLACK
6
CONTINUOUS
10
3.88986
20
-3.63254
11
3.8967
21
-3.63109
0
LINE
8
BLACK
6
CONTINUOUS
10
3.8967
20
-3.63109
11
3.90369
21
-3.63109
0
LINE
8
BLACK
6
CONTINUOUS
10
3.90369
20
-3.63109
11
3.91054
21
-3.63254
0
LINE
8
BLACK
6
CONTINUOUS
10
4.01054
20
-3.63254
11
4.01693
21
-3.63539
0
LINE
8
BLACK
6
CONTINUOUS
10
4.01693
20
-3.63539
11
4.02259
21
-3.6395
0
LINE
8
BLACK
6
CONTINUOUS
10
4.02259
20
-3.6395
11
4.02727
21
-3.6447
0
LINE
8
BLACK
6
CONTINUOUS
10
4.02727
20
-3.6447
11
4.03077
21
-3.65076
0
LINE
8
BLACK
6
CONTINUOUS
10
4.03077
20
-3.65076
11
4.03293
21
-3.65741
0
LINE
8
BLACK
6
CONTINUOUS
10
4.03293
20
-3.65741
11
4.03366
21
-3.66437
0
LINE
8
BLACK
6
CONTINUOUS
10
4.03366
20
-3.66437
11
4.03293
21
-3.67133
0
LINE
8
BLACK
6
CONTINUOUS
10
4.03293
20
-3.67133
11
4.03077
21
-3.67798
0
LINE
8
BLACK
6
CONTINUOUS
10
4.03077
20
-3.67798
11
4.02727
21
-3.68404
0
LINE
8
BLACK
6
CONTINUOUS
10
4.02727
20
-3.68404
11
4.02259
21
-3.68924
0
LINE
8
BLACK
6
CONTINUOUS
10
4.02259
20
-3.68924
11
4.01693
21
-3.69335
0
LINE
8
BLACK
6
CONTINUOUS
10
4.01693
20
-3.69335
11
4.01054
21
-3.6962
0
LINE
8
BLACK
6
CONTINUOUS
10
4.01054
20
-3.6962
11
4.00369
21
-3.69765
0
LINE
8
BLACK
6
CONTINUOUS
10
4.00369
20
-3.69765
11
3.9967
21
-3.69765
0
LINE
8
BLACK
6
CONTINUOUS
10
3.9967
20
-3.69765
11
3.98986
21
-3.6962
0
LINE
8
BLACK
6
CONTINUOUS
10
3.98986
20
-3.6962
11
3.98346
21
-3.69335
0
LINE
8
BLACK
6
CONTINUOUS
10
3.98346
20
-3.69335
11
3.9778
21
-3.68924
0
LINE
8
BLACK
6
CONTINUOUS
10
3.9778
20
-3.68924
11
3.97312
21
-3.68404
0
LINE
8
BLACK
6
CONTINUOUS
10
3.97312
20
-3.68404
11
3.96963
21
-3.67798
0
LINE
8
BLACK
6
CONTINUOUS
10
3.96963
20
-3.67798
11
3.96746
21
-3.67133
0
LINE
8
BLACK
6
CONTINUOUS
10
3.96746
20
-3.67133
11
3.96673
21
-3.66437
0
LINE
8
BLACK
6
CONTINUOUS
10
3.96673
20
-3.66437
11
3.96746
21
-3.65741
0
LINE
8
BLACK
6
CONTINUOUS
10
3.96746
20
-3.65741
11
3.96963
21
-3.65076
0
LINE
8
BLACK
6
CONTINUOUS
10
3.96963
20
-3.65076
11
3.97312
21
-3.6447
0
LINE
8
BLACK
6
CONTINUOUS
10
3.97312
20
-3.6447
11
3.9778
21
-3.6395
0
LINE
8
BLACK
6
CONTINUOUS
10
3.9778
20
-3.6395
11
3.98346
21
-3.63539
0
LINE
8
BLACK
6
CONTINUOUS
10
3.98346
20
-3.63539
11
3.98986
21
-3.63254
0
LINE
8
BLACK
6
CONTINUOUS
10
3.98986
20
-3.63254
11
3.9967
21
-3.63109
0
LINE
8
BLACK
6
CONTINUOUS
10
3.9967
20
-3.63109
11
4.00369
21
-3.63109
0
LINE
8
BLACK
6
CONTINUOUS
10
4.00369
20
-3.63109
11
4.01054
21
-3.63254
0
LINE
8
BLACK
6
CONTINUOUS
10
4.11054
20
-3.63254
11
4.11693
21
-3.63539
0
LINE
8
BLACK
6
CONTINUOUS
10
4.11693
20
-3.63539
11
4.12259
21
-3.6395
0
LINE
8
BLACK
6
CONTINUOUS
10
4.12259
20
-3.6395
11
4.12727
21
-3.6447
0
LINE
8
BLACK
6
CONTINUOUS
10
4.12727
20
-3.6447
11
4.13077
21
-3.65076
0
LINE
8
BLACK
6
CONTINUOUS
10
4.13077
20
-3.65076
11
4.13293
21
-3.65741
0
LINE
8
BLACK
6
CONTINUOUS
10
4.13293
20
-3.65741
11
4.13366
21
-3.66437
0
LINE
8
BLACK
6
CONTINUOUS
10
4.13366
20
-3.66437
11
4.13293
21
-3.67133
0
LINE
8
BLACK
6
CONTINUOUS
10
4.13293
20
-3.67133
11
4.13077
21
-3.67798
0
LINE
8
BLACK
6
CONTINUOUS
10
4.13077
20
-3.67798
11
4.12727
21
-3.68404
0
LINE
8
BLACK
6
CONTINUOUS
10
4.12727
20
-3.68404
11
4.12259
21
-3.68924
0
LINE
8
BLACK
6
CONTINUOUS
10
4.12259
20
-3.68924
11
4.11693
21
-3.69335
0
LINE
8
BLACK
6
CONTINUOUS
10
4.11693
20
-3.69335
11
4.11054
21
-3.6962
0
LINE
8
BLACK
6
CONTINUOUS
10
4.11054
20
-3.6962
11
4.10369
21
-3.69765
0
LINE
8
BLACK
6
CONTINUOUS
10
4.10369
20
-3.69765
11
4.0967
21
-3.69765
0
LINE
8
BLACK
6
CONTINUOUS
10
4.0967
20
-3.69765
11
4.08986
21
-3.6962
0
LINE
8
BLACK
6
CONTINUOUS
10
4.08986
20
-3.6962
11
4.08346
21
-3.69335
0
LINE
8
BLACK
6
CONTINUOUS
10
4.08346
20
-3.69335
11
4.0778
21
-3.68924
0
LINE
8
BLACK
6
CONTINUOUS
10
4.0778
20
-3.68924
11
4.07312
21
-3.68404
0
LINE
8
BLACK
6
CONTINUOUS
10
4.07312
20
-3.68404
11
4.06963
21
-3.67798
0
LINE
8
BLACK
6
CONTINUOUS
10
4.06963
20
-3.67798
11
4.06746
21
-3.67133
0
LINE
8
BLACK
6
CONTINUOUS
10
4.06746
20
-3.67133
11
4.06673
21
-3.66437
0
LINE
8
BLACK
6
CONTINUOUS
10
4.06673
20
-3.66437
11
4.06746
21
-3.65741
0
LINE
8
BLACK
6
CONTINUOUS
10
4.06746
20
-3.65741
11
4.06963
21
-3.65076
0
LINE
8
BLACK
6
CONTINUOUS
10
4.06963
20
-3.65076
11
4.07312
21
-3.6447
0
LINE
8
BLACK
6
CONTINUOUS
10
4.07312
20
-3.6447
11
4.0778
21
-3.6395
0
LINE
8
BLACK
6
CONTINUOUS
10
4.0778
20
-3.6395
11
4.08346
21
-3.63539
0
LINE
8
BLACK
6
CONTINUOUS
10
4.08346
20
-3.63539
11
4.08986
21
-3.63254
0
LINE
8
BLACK
6
CONTINUOUS
10
4.08986
20
-3.63254
11
4.0967
21
-3.63109
0
LINE
8
BLACK
6
CONTINUOUS
10
4.0967
20
-3.63109
11
4.10369
21
-3.63109
0
LINE
8
BLACK
6
CONTINUOUS
10
4.10369
20
-3.63109
11
4.11054
21
-3.63254
0
LINE
8
BLACK
6
CONTINUOUS
10
4.21054
20
-3.63254
11
4.21693
21
-3.63539
0
LINE
8
BLACK
6
CONTINUOUS
10
4.21693
20
-3.63539
11
4.22259
21
-3.6395
0
LINE
8
BLACK
6
CONTINUOUS
10
4.22259
20
-3.6395
11
4.22727
21
-3.6447
0
LINE
8
BLACK
6
CONTINUOUS
10
4.22727
20
-3.6447
11
4.23077
21
-3.65076
0
LINE
8
BLACK
6
CONTINUOUS
10
4.23077
20
-3.65076
11
4.23293
21
-3.65741
0
LINE
8
BLACK
6
CONTINUOUS
10
4.23293
20
-3.65741
11
4.23366
21
-3.66437
0
LINE
8
BLACK
6
CONTINUOUS
10
4.23366
20
-3.66437
11
4.23293
21
-3.67133
0
LINE
8
BLACK
6
CONTINUOUS
10
4.23293
20
-3.67133
11
4.23077
21
-3.67798
0
LINE
8
BLACK
6
CONTINUOUS
10
4.23077
20
-3.67798
11
4.22727
21
-3.68404
0
LINE
8
BLACK
6
CONTINUOUS
10
4.22727
20
-3.68404
11
4.22259
21
-3.68924
0
LINE
8
BLACK
6
CONTINUOUS
10
4.22259
20
-3.68924
11
4.21693
21
-3.69335
0
LINE
8
BLACK
6
CONTINUOUS
10
4.21693
20
-3.69335
11
4.21054
21
-3.6962
0
LINE
8
BLACK
6
CONTINUOUS
10
4.21054
20
-3.6962
11
4.20369
21
-3.69765
0
LINE
8
BLACK
6
CONTINUOUS
10
4.20369
20
-3.69765
11
4.1967
21
-3.69765
0
LINE
8
BLACK
6
CONTINUOUS
10
4.1967
20
-3.69765
11
4.18986
21
-3.6962
0
LINE
8
BLACK
6
CONTINUOUS
10
4.18986
20
-3.6962
11
4.18346
21
-3.69335
0
LINE
8
BLACK
6
CONTINUOUS
10
4.18346
20
-3.69335
11
4.1778
21
-3.68924
0
LINE
8
BLACK
6
CONTINUOUS
10
4.1778
20
-3.68924
11
4.17312
21
-3.68404
0
LINE
8
BLACK
6
CONTINUOUS
10
4.17312
20
-3.68404
11
4.16963
21
-3.67798
0
LINE
8
BLACK
6
CONTINUOUS
10
4.16963
20
-3.67798
11
4.16746
21
-3.67133
0
LINE
8
BLACK
6
CONTINUOUS
10
4.16746
20
-3.67133
11
4.16673
21
-3.66437
0
LINE
8
BLACK
6
CONTINUOUS
10
4.16673
20
-3.66437
11
4.16746
21
-3.65741
0
LINE
8
BLACK
6
CONTINUOUS
10
4.16746
20
-3.65741
11
4.16963
21
-3.65076
0
LINE
8
BLACK
6
CONTINUOUS
10
4.16963
20
-3.65076
11
4.17312
21
-3.6447
0
LINE
8
BLACK
6
CONTINUOUS
10
4.17312
20
-3.6447
11
4.1778
21
-3.6395
0
LINE
8
BLACK
6
CONTINUOUS
10
4.1778
20
-3.6395
11
4.18346
21
-3.63539
0
LINE
8
BLACK
6
CONTINUOUS
10
4.18346
20
-3.63539
11
4.18986
21
-3.63254
0
LINE
8
BLACK
6
CONTINUOUS
10
4.18986
20
-3.63254
11
4.1967
21
-3.63109
0
LINE
8
BLACK
6
CONTINUOUS
10
4.1967
20
-3.63109
11
4.20369
21
-3.63109
0
LINE
8
BLACK
6
CONTINUOUS
10
4.20369
20
-3.63109
11
4.21054
21
-3.63254
0
LINE
8
BLACK
6
CONTINUOUS
10
4.31054
20
-3.63254
11
4.31693
21
-3.63539
0
LINE
8
BLACK
6
CONTINUOUS
10
4.31693
20
-3.63539
11
4.32259
21
-3.6395
0
LINE
8
BLACK
6
CONTINUOUS
10
4.32259
20
-3.6395
11
4.32727
21
-3.6447
0
LINE
8
BLACK
6
CONTINUOUS
10
4.32727
20
-3.6447
11
4.33077
21
-3.65076
0
LINE
8
BLACK
6
CONTINUOUS
10
4.33077
20
-3.65076
11
4.33293
21
-3.65741
0
LINE
8
BLACK
6
CONTINUOUS
10
4.33293
20
-3.65741
11
4.33366
21
-3.66437
0
LINE
8
BLACK
6
CONTINUOUS
10
4.33366
20
-3.66437
11
4.33293
21
-3.67133
0
LINE
8
BLACK
6
CONTINUOUS
10
4.33293
20
-3.67133
11
4.33077
21
-3.67798
0
LINE
8
BLACK
6
CONTINUOUS
10
4.33077
20
-3.67798
11
4.32727
21
-3.68404
0
LINE
8
BLACK
6
CONTINUOUS
10
4.32727
20
-3.68404
11
4.32259
21
-3.68924
0
LINE
8
BLACK
6
CONTINUOUS
10
4.32259
20
-3.68924
11
4.31693
21
-3.69335
0
LINE
8
BLACK
6
CONTINUOUS
10
4.31693
20
-3.69335
11
4.31054
21
-3.6962
0
LINE
8
BLACK
6
CONTINUOUS
10
4.31054
20
-3.6962
11
4.30369
21
-3.69765
0
LINE
8
BLACK
6
CONTINUOUS
10
4.30369
20
-3.69765
11
4.2967
21
-3.69765
0
LINE
8
BLACK
6
CONTINUOUS
10
4.2967
20
-3.69765
11
4.28986
21
-3.6962
0
LINE
8
BLACK
6
CONTINUOUS
10
4.28986
20
-3.6962
11
4.28346
21
-3.69335
0
LINE
8
BLACK
6
CONTINUOUS
10
4.28346
20
-3.69335
11
4.2778
21
-3.68924
0
LINE
8
BLACK
6
CONTINUOUS
10
4.2778
20
-3.68924
11
4.27312
21
-3.68404
0
LINE
8
BLACK
6
CONTINUOUS
10
4.27312
20
-3.68404
11
4.26963
21
-3.67798
0
LINE
8
BLACK
6
CONTINUOUS
10
4.26963
20
-3.67798
11
4.26746
21
-3.67133
0
LINE
8
BLACK
6
CONTINUOUS
10
4.26746
20
-3.67133
11
4.26673
21
-3.66437
0
LINE
8
BLACK
6
CONTINUOUS
10
4.26673
20
-3.66437
11
4.26746
21
-3.65741
0
LINE
8
BLACK
6
CONTINUOUS
10
4.26746
20
-3.65741
11
4.26963
21
-3.65076
0
LINE
8
BLACK
6
CONTINUOUS
10
4.26963
20
-3.65076
11
4.27312
21
-3.6447
0
LINE
8
BLACK
6
CONTINUOUS
10
4.27312
20
-3.6447
11
4.2778
21
-3.6395
0
LINE
8
BLACK
6
CONTINUOUS
10
4.2778
20
-3.6395
11
4.28346
21
-3.63539
0
LINE
8
BLACK
6
CONTINUOUS
10
4.28346
20
-3.63539
11
4.28986
21
-3.63254
0
LINE
8
BLACK
6
CONTINUOUS
10
4.28986
20
-3.63254
11
4.2967
21
-3.63109
0
LINE
8
BLACK
6
CONTINUOUS
10
4.2967
20
-3.63109
11
4.30369
21
-3.63109
0
LINE
8
BLACK
6
CONTINUOUS
10
4.30369
20
-3.63109
11
4.31054
21
-3.63254
0
LINE
8
BLACK
6
CONTINUOUS
10
4.41054
20
-3.63254
11
4.41693
21
-3.63539
0
LINE
8
BLACK
6
CONTINUOUS
10
4.41693
20
-3.63539
11
4.42259
21
-3.6395
0
LINE
8
BLACK
6
CONTINUOUS
10
4.42259
20
-3.6395
11
4.42727
21
-3.6447
0
LINE
8
BLACK
6
CONTINUOUS
10
4.42727
20
-3.6447
11
4.43077
21
-3.65076
0
LINE
8
BLACK
6
CONTINUOUS
10
4.43077
20
-3.65076
11
4.43293
21
-3.65741
0
LINE
8
BLACK
6
CONTINUOUS
10
4.43293
20
-3.65741
11
4.43366
21
-3.66437
0
LINE
8
BLACK
6
CONTINUOUS
10
4.43366
20
-3.66437
11
4.43293
21
-3.67133
0
LINE
8
BLACK
6
CONTINUOUS
10
4.43293
20
-3.67133
11
4.43077
21
-3.67798
0
LINE
8
BLACK
6
CONTINUOUS
10
4.43077
20
-3.67798
11
4.42727
21
-3.68404
0
LINE
8
BLACK
6
CONTINUOUS
10
4.42727
20
-3.68404
11
4.42259
21
-3.68924
0
LINE
8
BLACK
6
CONTINUOUS
10
4.42259
20
-3.68924
11
4.41693
21
-3.69335
0
LINE
8
BLACK
6
CONTINUOUS
10
4.41693
20
-3.69335
11
4.41054
21
-3.6962
0
LINE
8
BLACK
6
CONTINUOUS
10
4.41054
20
-3.6962
11
4.40369
21
-3.69765
0
LINE
8
BLACK
6
CONTINUOUS
10
4.40369
20
-3.69765
11
4.3967
21
-3.69765
0
LINE
8
BLACK
6
CONTINUOUS
10
4.3967
20
-3.69765
11
4.38986
21
-3.6962
0
LINE
8
BLACK
6
CONTINUOUS
10
4.38986
20
-3.6962
11
4.38346
21
-3.69335
0
LINE
8
BLACK
6
CONTINUOUS
10
4.38346
20
-3.69335
11
4.3778
21
-3.68924
0
LINE
8
BLACK
6
CONTINUOUS
10
4.3778
20
-3.68924
11
4.37312
21
-3.68404
0
LINE
8
BLACK
6
CONTINUOUS
10
4.37312
20
-3.68404
11
4.36963
21
-3.67798
0
LINE
8
BLACK
6
CONTINUOUS
10
4.36963
20
-3.67798
11
4.36746
21
-3.67133
0
LINE
8
BLACK
6
CONTINUOUS
10
4.36746
20
-3.67133
11
4.36673
21
-3.66437
0
LINE
8
BLACK
6
CONTINUOUS
10
4.36673
20
-3.66437
11
4.36746
21
-3.65741
0
LINE
8
BLACK
6
CONTINUOUS
10
4.36746
20
-3.65741
11
4.36963
21
-3.65076
0
LINE
8
BLACK
6
CONTINUOUS
10
4.36963
20
-3.65076
11
4.37312
21
-3.6447
0
LINE
8
BLACK
6
CONTINUOUS
10
4.37312
20
-3.6447
11
4.3778
21
-3.6395
0
LINE
8
BLACK
6
CONTINUOUS
10
4.3778
20
-3.6395
11
4.38346
21
-3.63539
0
LINE
8
BLACK
6
CONTINUOUS
10
4.38346
20
-3.63539
11
4.38986
21
-3.63254
0
LINE
8
BLACK
6
CONTINUOUS
10
4.38986
20
-3.63254
11
4.3967
21
-3.63109
0
LINE
8
BLACK
6
CONTINUOUS
10
4.3967
20
-3.63109
11
4.40369
21
-3.63109
0
LINE
8
BLACK
6
CONTINUOUS
10
4.40369
20
-3.63109
11
4.41054
21
-3.63254
0
LINE
8
BLACK
6
CONTINUOUS
10
4.51054
20
-3.63254
11
4.51693
21
-3.63539
0
LINE
8
BLACK
6
CONTINUOUS
10
4.51693
20
-3.63539
11
4.52259
21
-3.6395
0
LINE
8
BLACK
6
CONTINUOUS
10
4.52259
20
-3.6395
11
4.52727
21
-3.6447
0
LINE
8
BLACK
6
CONTINUOUS
10
4.52727
20
-3.6447
11
4.53077
21
-3.65076
0
LINE
8
BLACK
6
CONTINUOUS
10
4.53077
20
-3.65076
11
4.53293
21
-3.65741
0
LINE
8
BLACK
6
CONTINUOUS
10
4.53293
20
-3.65741
11
4.53366
21
-3.66437
0
LINE
8
BLACK
6
CONTINUOUS
10
4.53366
20
-3.66437
11
4.53293
21
-3.67133
0
LINE
8
BLACK
6
CONTINUOUS
10
4.53293
20
-3.67133
11
4.53077
21
-3.67798
0
LINE
8
BLACK
6
CONTINUOUS
10
4.53077
20
-3.67798
11
4.52727
21
-3.68404
0
LINE
8
BLACK
6
CONTINUOUS
10
4.52727
20
-3.68404
11
4.52259
21
-3.68924
0
LINE
8
BLACK
6
CONTINUOUS
10
4.52259
20
-3.68924
11
4.51693
21
-3.69335
0
LINE
8
BLACK
6
CONTINUOUS
10
4.51693
20
-3.69335
11
4.51054
21
-3.6962
0
LINE
8
BLACK
6
CONTINUOUS
10
4.51054
20
-3.6962
11
4.50369
21
-3.69765
0
LINE
8
BLACK
6
CONTINUOUS
10
4.50369
20
-3.69765
11
4.4967
21
-3.69765
0
LINE
8
BLACK
6
CONTINUOUS
10
4.4967
20
-3.69765
11
4.48986
21
-3.6962
0
LINE
8
BLACK
6
CONTINUOUS
10
4.48986
20
-3.6962
11
4.48346
21
-3.69335
0
LINE
8
BLACK
6
CONTINUOUS
10
4.48346
20
-3.69335
11
4.4778
21
-3.68924
0
LINE
8
BLACK
6
CONTINUOUS
10
4.4778
20
-3.68924
11
4.47312
21
-3.68404
0
LINE
8
BLACK
6
CONTINUOUS
10
4.47312
20
-3.68404
11
4.46963
21
-3.67798
0
LINE
8
BLACK
6
CONTINUOUS
10
4.46963
20
-3.67798
11
4.46746
21
-3.67133
0
LINE
8
BLACK
6
CONTINUOUS
10
4.46746
20
-3.67133
11
4.46673
21
-3.66437
0
LINE
8
BLACK
6
CONTINUOUS
10
4.46673
20
-3.66437
11
4.46746
21
-3.65741
0
LINE
8
BLACK
6
CONTINUOUS
10
4.46746
20
-3.65741
11
4.46963
21
-3.65076
0
LINE
8
BLACK
6
CONTINUOUS
10
4.46963
20
-3.65076
11
4.47312
21
-3.6447
0
LINE
8
BLACK
6
CONTINUOUS
10
4.47312
20
-3.6447
11
4.4778
21
-3.6395
0
LINE
8
BLACK
6
CONTINUOUS
10
4.4778
20
-3.6395
11
4.48346
21
-3.63539
0
LINE
8
BLACK
6
CONTINUOUS
10
4.48346
20
-3.63539
11
4.48986
21
-3.63254
0
LINE
8
BLACK
6
CONTINUOUS
10
4.48986
20
-3.63254
11
4.4967
21
-3.63109
0
LINE
8
BLACK
6
CONTINUOUS
10
4.4967
20
-3.63109
11
4.50369
21
-3.63109
0
LINE
8
BLACK
6
CONTINUOUS
10
4.50369
20
-3.63109
11
4.51054
21
-3.63254
0
LINE
8
BLACK
6
CONTINUOUS
10
5.92559
20
-3.48543
11
5.88622
21
-3.48543
0
LINE
8
BLACK
6
CONTINUOUS
10
5.88622
20
-3.48543
11
5.88622
21
-3.40276
0
LINE
8
BLACK
6
CONTINUOUS
10
5.88622
20
-3.40276
11
5.92559
21
-3.40276
0
LINE
8
BLACK
6
CONTINUOUS
10
5.92559
20
-3.40276
11
5.92559
21
-3.48543
0
LINE
8
BLACK
6
CONTINUOUS
10
5.62559
20
-3.48543
11
5.58622
21
-3.48543
0
LINE
8
BLACK
6
CONTINUOUS
10
5.58622
20
-3.48543
11
5.58622
21
-3.40276
0
LINE
8
BLACK
6
CONTINUOUS
10
5.58622
20
-3.40276
11
5.62559
21
-3.40276
0
LINE
8
BLACK
6
CONTINUOUS
10
5.62559
20
-3.40276
11
5.62559
21
-3.48543
0
LINE
8
BLACK
6
CONTINUOUS
10
4.73869
20
-3.36109
11
4.74508
21
-3.36393
0
LINE
8
BLACK
6
CONTINUOUS
10
4.74508
20
-3.36393
11
4.75074
21
-3.36804
0
LINE
8
BLACK
6
CONTINUOUS
10
4.75074
20
-3.36804
11
4.75542
21
-3.37324
0
LINE
8
BLACK
6
CONTINUOUS
10
4.75542
20
-3.37324
11
4.75892
21
-3.3793
0
LINE
8
BLACK
6
CONTINUOUS
10
4.75892
20
-3.3793
11
4.76108
21
-3.38596
0
LINE
8
BLACK
6
CONTINUOUS
10
4.76108
20
-3.38596
11
4.76181
21
-3.39291
0
LINE
8
BLACK
6
CONTINUOUS
10
4.76181
20
-3.39291
11
4.76108
21
-3.39987
0
LINE
8
BLACK
6
CONTINUOUS
10
4.76108
20
-3.39987
11
4.75892
21
-3.40652
0
LINE
8
BLACK
6
CONTINUOUS
10
4.75892
20
-3.40652
11
4.75542
21
-3.41258
0
LINE
8
BLACK
6
CONTINUOUS
10
4.75542
20
-3.41258
11
4.75074
21
-3.41778
0
LINE
8
BLACK
6
CONTINUOUS
10
4.75074
20
-3.41778
11
4.74508
21
-3.42189
0
LINE
8
BLACK
6
CONTINUOUS
10
4.74508
20
-3.42189
11
4.73869
21
-3.42474
0
LINE
8
BLACK
6
CONTINUOUS
10
4.73869
20
-3.42474
11
4.73184
21
-3.42619
0
LINE
8
BLACK
6
CONTINUOUS
10
4.73184
20
-3.42619
11
4.72485
21
-3.42619
0
LINE
8
BLACK
6
CONTINUOUS
10
4.72485
20
-3.42619
11
4.71801
21
-3.42474
0
LINE
8
BLACK
6
CONTINUOUS
10
4.71801
20
-3.42474
11
4.71161
21
-3.42189
0
LINE
8
BLACK
6
CONTINUOUS
10
4.71161
20
-3.42189
11
4.70595
21
-3.41778
0
LINE
8
BLACK
6
CONTINUOUS
10
4.70595
20
-3.41778
11
4.70127
21
-3.41258
0
LINE
8
BLACK
6
CONTINUOUS
10
4.70127
20
-3.41258
11
4.69778
21
-3.40652
0
LINE
8
BLACK
6
CONTINUOUS
10
4.69778
20
-3.40652
11
4.69561
21
-3.39987
0
LINE
8
BLACK
6
CONTINUOUS
10
4.69561
20
-3.39987
11
4.69488
21
-3.39291
0
LINE
8
BLACK
6
CONTINUOUS
10
4.69488
20
-3.39291
11
4.69561
21
-3.38596
0
LINE
8
BLACK
6
CONTINUOUS
10
4.69561
20
-3.38596
11
4.69778
21
-3.3793
0
LINE
8
BLACK
6
CONTINUOUS
10
4.69778
20
-3.3793
11
4.70127
21
-3.37324
0
LINE
8
BLACK
6
CONTINUOUS
10
4.70127
20
-3.37324
11
4.70595
21
-3.36804
0
LINE
8
BLACK
6
CONTINUOUS
10
4.70595
20
-3.36804
11
4.71161
21
-3.36393
0
LINE
8
BLACK
6
CONTINUOUS
10
4.71161
20
-3.36393
11
4.71801
21
-3.36109
0
LINE
8
BLACK
6
CONTINUOUS
10
4.71801
20
-3.36109
11
4.72485
21
-3.35963
0
LINE
8
BLACK
6
CONTINUOUS
10
4.72485
20
-3.35963
11
4.73184
21
-3.35963
0
LINE
8
BLACK
6
CONTINUOUS
10
4.73184
20
-3.35963
11
4.73869
21
-3.36109
0
LINE
8
BLACK
6
CONTINUOUS
10
4.41634
20
-3.41929
11
4.34941
21
-3.41929
0
LINE
8
BLACK
6
CONTINUOUS
10
4.34941
20
-3.41929
11
4.34941
21
-3.35236
0
LINE
8
BLACK
6
CONTINUOUS
10
4.34941
20
-3.35236
11
4.41634
21
-3.35236
0
LINE
8
BLACK
6
CONTINUOUS
10
4.41634
20
-3.35236
11
4.41634
21
-3.41929
0
LINE
8
BLACK
6
CONTINUOUS
10
4.49322
20
-3.354
11
4.49961
21
-3.35685
0
LINE
8
BLACK
6
CONTINUOUS
10
4.49961
20
-3.35685
11
4.50527
21
-3.36096
0
LINE
8
BLACK
6
CONTINUOUS
10
4.50527
20
-3.36096
11
4.50995
21
-3.36616
0
LINE
8
BLACK
6
CONTINUOUS
10
4.50995
20
-3.36616
11
4.51345
21
-3.37222
0
LINE
8
BLACK
6
CONTINUOUS
10
4.51345
20
-3.37222
11
4.51561
21
-3.37887
0
LINE
8
BLACK
6
CONTINUOUS
10
4.51561
20
-3.37887
11
4.51634
21
-3.38583
0
LINE
8
BLACK
6
CONTINUOUS
10
4.51634
20
-3.38583
11
4.51561
21
-3.39278
0
LINE
8
BLACK
6
CONTINUOUS
10
4.51561
20
-3.39278
11
4.51345
21
-3.39944
0
LINE
8
BLACK
6
CONTINUOUS
10
4.51345
20
-3.39944
11
4.50995
21
-3.4055
0
LINE
8
BLACK
6
CONTINUOUS
10
4.50995
20
-3.4055
11
4.50527
21
-3.4107
0
LINE
8
BLACK
6
CONTINUOUS
10
4.50527
20
-3.4107
11
4.49961
21
-3.41481
0
LINE
8
BLACK
6
CONTINUOUS
10
4.49961
20
-3.41481
11
4.49322
21
-3.41765
0
LINE
8
BLACK
6
CONTINUOUS
10
4.49322
20
-3.41765
11
4.48637
21
-3.41911
0
LINE
8
BLACK
6
CONTINUOUS
10
4.48637
20
-3.41911
11
4.47938
21
-3.41911
0
LINE
8
BLACK
6
CONTINUOUS
10
4.47938
20
-3.41911
11
4.47253
21
-3.41765
0
LINE
8
BLACK
6
CONTINUOUS
10
4.47253
20
-3.41765
11
4.46614
21
-3.41481
0
LINE
8
BLACK
6
CONTINUOUS
10
4.46614
20
-3.41481
11
4.46048
21
-3.4107
0
LINE
8
BLACK
6
CONTINUOUS
10
4.46048
20
-3.4107
11
4.4558
21
-3.4055
0
LINE
8
BLACK
6
CONTINUOUS
10
4.4558
20
-3.4055
11
4.4523
21
-3.39944
0
LINE
8
BLACK
6
CONTINUOUS
10
4.4523
20
-3.39944
11
4.45014
21
-3.39278
0
LINE
8
BLACK
6
CONTINUOUS
10
4.45014
20
-3.39278
11
4.44941
21
-3.38583
0
LINE
8
BLACK
6
CONTINUOUS
10
4.44941
20
-3.38583
11
4.45014
21
-3.37887
0
LINE
8
BLACK
6
CONTINUOUS
10
4.45014
20
-3.37887
11
4.4523
21
-3.37222
0
LINE
8
BLACK
6
CONTINUOUS
10
4.4523
20
-3.37222
11
4.4558
21
-3.36616
0
LINE
8
BLACK
6
CONTINUOUS
10
4.4558
20
-3.36616
11
4.46048
21
-3.36096
0
LINE
8
BLACK
6
CONTINUOUS
10
4.46048
20
-3.36096
11
4.46614
21
-3.35685
0
LINE
8
BLACK
6
CONTINUOUS
10
4.46614
20
-3.35685
11
4.47253
21
-3.354
0
LINE
8
BLACK
6
CONTINUOUS
10
4.47253
20
-3.354
11
4.47938
21
-3.35255
0
LINE
8
BLACK
6
CONTINUOUS
10
4.47938
20
-3.35255
11
4.48637
21
-3.35255
0
LINE
8
BLACK
6
CONTINUOUS
10
4.48637
20
-3.35255
11
4.49322
21
-3.354
0
LINE
8
BLACK
6
CONTINUOUS
10
5.3568
20
-3.34239
11
5.36319
21
-3.34523
0
LINE
8
BLACK
6
CONTINUOUS
10
5.36319
20
-3.34523
11
5.36885
21
-3.34934
0
LINE
8
BLACK
6
CONTINUOUS
10
5.36885
20
-3.34934
11
5.37353
21
-3.35454
0
LINE
8
BLACK
6
CONTINUOUS
10
5.37353
20
-3.35454
11
5.37703
21
-3.3606
0
LINE
8
BLACK
6
CONTINUOUS
10
5.37703
20
-3.3606
11
5.37919
21
-3.36725
0
LINE
8
BLACK
6
CONTINUOUS
10
5.37919
20
-3.36725
11
5.37992
21
-3.37421
0
LINE
8
BLACK
6
CONTINUOUS
10
5.37992
20
-3.37421
11
5.37919
21
-3.38117
0
LINE
8
BLACK
6
CONTINUOUS
10
5.37919
20
-3.38117
11
5.37703
21
-3.38782
0
LINE
8
BLACK
6
CONTINUOUS
10
5.37703
20
-3.38782
11
5.37353
21
-3.39388
0
LINE
8
BLACK
6
CONTINUOUS
10
5.37353
20
-3.39388
11
5.36885
21
-3.39908
0
LINE
8
BLACK
6
CONTINUOUS
10
5.36885
20
-3.39908
11
5.36319
21
-3.40319
0
LINE
8
BLACK
6
CONTINUOUS
10
5.36319
20
-3.40319
11
5.3568
21
-3.40604
0
LINE
8
BLACK
6
CONTINUOUS
10
5.3568
20
-3.40604
11
5.34995
21
-3.40749
0
LINE
8
BLACK
6
CONTINUOUS
10
5.34995
20
-3.40749
11
5.34296
21
-3.40749
0
LINE
8
BLACK
6
CONTINUOUS
10
5.34296
20
-3.40749
11
5.33612
21
-3.40604
0
LINE
8
BLACK
6
CONTINUOUS
10
5.33612
20
-3.40604
11
5.32972
21
-3.40319
0
LINE
8
BLACK
6
CONTINUOUS
10
5.32972
20
-3.40319
11
5.32406
21
-3.39908
0
LINE
8
BLACK
6
CONTINUOUS
10
5.32406
20
-3.39908
11
5.31938
21
-3.39388
0
LINE
8
BLACK
6
CONTINUOUS
10
5.31938
20
-3.39388
11
5.31589
21
-3.38782
0
LINE
8
BLACK
6
CONTINUOUS
10
5.31589
20
-3.38782
11
5.31372
21
-3.38117
0
LINE
8
BLACK
6
CONTINUOUS
10
5.31372
20
-3.38117
11
5.31299
21
-3.37421
0
LINE
8
BLACK
6
CONTINUOUS
10
5.31299
20
-3.37421
11
5.31372
21
-3.36725
0
LINE
8
BLACK
6
CONTINUOUS
10
5.31372
20
-3.36725
11
5.31589
21
-3.3606
0
LINE
8
BLACK
6
CONTINUOUS
10
5.31589
20
-3.3606
11
5.31938
21
-3.35454
0
LINE
8
BLACK
6
CONTINUOUS
10
5.31938
20
-3.35454
11
5.32406
21
-3.34934
0
LINE
8
BLACK
6
CONTINUOUS
10
5.32406
20
-3.34934
11
5.32972
21
-3.34523
0
LINE
8
BLACK
6
CONTINUOUS
10
5.32972
20
-3.34523
11
5.33612
21
-3.34239
0
LINE
8
BLACK
6
CONTINUOUS
10
5.33612
20
-3.34239
11
5.34296
21
-3.34093
0
LINE
8
BLACK
6
CONTINUOUS
10
5.34296
20
-3.34093
11
5.34995
21
-3.34093
0
LINE
8
BLACK
6
CONTINUOUS
10
5.34995
20
-3.34093
11
5.3568
21
-3.34239
0
LINE
8
BLACK
6
CONTINUOUS
10
4.73869
20
-3.26109
11
4.74508
21
-3.26393
0
LINE
8
BLACK
6
CONTINUOUS
10
4.74508
20
-3.26393
11
4.75074
21
-3.26804
0
LINE
8
BLACK
6
CONTINUOUS
10
4.75074
20
-3.26804
11
4.75542
21
-3.27324
0
LINE
8
BLACK
6
CONTINUOUS
10
4.75542
20
-3.27324
11
4.75892
21
-3.2793
0
LINE
8
BLACK
6
CONTINUOUS
10
4.75892
20
-3.2793
11
4.76108
21
-3.28596
0
LINE
8
BLACK
6
CONTINUOUS
10
4.76108
20
-3.28596
11
4.76181
21
-3.29291
0
LINE
8
BLACK
6
CONTINUOUS
10
4.76181
20
-3.29291
11
4.76108
21
-3.29987
0
LINE
8
BLACK
6
CONTINUOUS
10
4.76108
20
-3.29987
11
4.75892
21
-3.30652
0
LINE
8
BLACK
6
CONTINUOUS
10
4.75892
20
-3.30652
11
4.75542
21
-3.31258
0
LINE
8
BLACK
6
CONTINUOUS
10
4.75542
20
-3.31258
11
4.75074
21
-3.31778
0
LINE
8
BLACK
6
CONTINUOUS
10
4.75074
20
-3.31778
11
4.74508
21
-3.32189
0
LINE
8
BLACK
6
CONTINUOUS
10
4.74508
20
-3.32189
11
4.73869
21
-3.32474
0
LINE
8
BLACK
6
CONTINUOUS
10
4.73869
20
-3.32474
11
4.73184
21
-3.32619
0
LINE
8
BLACK
6
CONTINUOUS
10
4.73184
20
-3.32619
11
4.72485
21
-3.32619
0
LINE
8
BLACK
6
CONTINUOUS
10
4.72485
20
-3.32619
11
4.71801
21
-3.32474
0
LINE
8
BLACK
6
CONTINUOUS
10
4.71801
20
-3.32474
11
4.71161
21
-3.32189
0
LINE
8
BLACK
6
CONTINUOUS
10
4.71161
20
-3.32189
11
4.70595
21
-3.31778
0
LINE
8
BLACK
6
CONTINUOUS
10
4.70595
20
-3.31778
11
4.70127
21
-3.31258
0
LINE
8
BLACK
6
CONTINUOUS
10
4.70127
20
-3.31258
11
4.69778
21
-3.30652
0
LINE
8
BLACK
6
CONTINUOUS
10
4.69778
20
-3.30652
11
4.69561
21
-3.29987
0
LINE
8
BLACK
6
CONTINUOUS
10
4.69561
20
-3.29987
11
4.69488
21
-3.29291
0
LINE
8
BLACK
6
CONTINUOUS
10
4.69488
20
-3.29291
11
4.69561
21
-3.28596
0
LINE
8
BLACK
6
CONTINUOUS
10
4.69561
20
-3.28596
11
4.69778
21
-3.2793
0
LINE
8
BLACK
6
CONTINUOUS
10
4.69778
20
-3.2793
11
4.70127
21
-3.27324
0
LINE
8
BLACK
6
CONTINUOUS
10
4.70127
20
-3.27324
11
4.70595
21
-3.26804
0
LINE
8
BLACK
6
CONTINUOUS
10
4.70595
20
-3.26804
11
4.71161
21
-3.26393
0
LINE
8
BLACK
6
CONTINUOUS
10
4.71161
20
-3.26393
11
4.71801
21
-3.26109
0
LINE
8
BLACK
6
CONTINUOUS
10
4.71801
20
-3.26109
11
4.72485
21
-3.25963
0
LINE
8
BLACK
6
CONTINUOUS
10
4.72485
20
-3.25963
11
4.73184
21
-3.25963
0
LINE
8
BLACK
6
CONTINUOUS
10
4.73184
20
-3.25963
11
4.73869
21
-3.26109
0
LINE
8
BLACK
6
CONTINUOUS
10
5.4778
20
-3.28906
11
5.48067
21
-3.29098
0
LINE
8
BLACK
6
CONTINUOUS
10
5.48067
20
-3.29098
11
5.48259
21
-3.29385
0
LINE
8
BLACK
6
CONTINUOUS
10
5.48259
20
-3.29385
11
5.48327
21
-3.29724
0
LINE
8
BLACK
6
CONTINUOUS
10
5.48327
20
-3.29724
11
5.48327
21
-3.31496
0
LINE
8
BLACK
6
CONTINUOUS
10
5.48327
20
-3.31496
11
5.48259
21
-3.31835
0
LINE
8
BLACK
6
CONTINUOUS
10
5.48259
20
-3.31835
11
5.48067
21
-3.32122
0
LINE
8
BLACK
6
CONTINUOUS
10
5.48067
20
-3.32122
11
5.4778
21
-3.32314
0
LINE
8
BLACK
6
CONTINUOUS
10
5.4778
20
-3.32314
11
5.47441
21
-3.32382
0
LINE
8
BLACK
6
CONTINUOUS
10
5.47441
20
-3.32382
11
5.45472
21
-3.32382
0
LINE
8
BLACK
6
CONTINUOUS
10
5.45472
20
-3.32382
11
5.45133
21
-3.32314
0
LINE
8
BLACK
6
CONTINUOUS
10
5.45133
20
-3.32314
11
5.44846
21
-3.32122
0
LINE
8
BLACK
6
CONTINUOUS
10
5.44846
20
-3.32122
11
5.44654
21
-3.31835
0
LINE
8
BLACK
6
CONTINUOUS
10
5.44654
20
-3.31835
11
5.44587
21
-3.31496
0
LINE
8
BLACK
6
CONTINUOUS
10
5.44587
20
-3.31496
11
5.44587
21
-3.29724
0
LINE
8
BLACK
6
CONTINUOUS
10
5.44587
20
-3.29724
11
5.44654
21
-3.29385
0
LINE
8
BLACK
6
CONTINUOUS
10
5.44654
20
-3.29385
11
5.44846
21
-3.29098
0
LINE
8
BLACK
6
CONTINUOUS
10
5.44846
20
-3.29098
11
5.45133
21
-3.28906
0
LINE
8
BLACK
6
CONTINUOUS
10
5.45133
20
-3.28906
11
5.45472
21
-3.28839
0
LINE
8
BLACK
6
CONTINUOUS
10
5.45472
20
-3.28839
11
5.47441
21
-3.28839
0
LINE
8
BLACK
6
CONTINUOUS
10
5.47441
20
-3.28839
11
5.4778
21
-3.28906
0
LINE
8
BLACK
6
CONTINUOUS
10
5.54079
20
-3.28906
11
5.54367
21
-3.29098
0
LINE
8
BLACK
6
CONTINUOUS
10
5.54367
20
-3.29098
11
5.54559
21
-3.29385
0
LINE
8
BLACK
6
CONTINUOUS
10
5.54559
20
-3.29385
11
5.54626
21
-3.29724
0
LINE
8
BLACK
6
CONTINUOUS
10
5.54626
20
-3.29724
11
5.54626
21
-3.31496
0
LINE
8
BLACK
6
CONTINUOUS
10
5.54626
20
-3.31496
11
5.54559
21
-3.31835
0
LINE
8
BLACK
6
CONTINUOUS
10
5.54559
20
-3.31835
11
5.54367
21
-3.32122
0
LINE
8
BLACK
6
CONTINUOUS
10
5.54367
20
-3.32122
11
5.54079
21
-3.32314
0
LINE
8
BLACK
6
CONTINUOUS
10
5.54079
20
-3.32314
11
5.5374
21
-3.32382
0
LINE
8
BLACK
6
CONTINUOUS
10
5.5374
20
-3.32382
11
5.51772
21
-3.32382
0
LINE
8
BLACK
6
CONTINUOUS
10
5.51772
20
-3.32382
11
5.51433
21
-3.32314
0
LINE
8
BLACK
6
CONTINUOUS
10
5.51433
20
-3.32314
11
5.51145
21
-3.32122
0
LINE
8
BLACK
6
CONTINUOUS
10
5.51145
20
-3.32122
11
5.50953
21
-3.31835
0
LINE
8
BLACK
6
CONTINUOUS
10
5.50953
20
-3.31835
11
5.50886
21
-3.31496
0
LINE
8
BLACK
6
CONTINUOUS
10
5.50886
20
-3.31496
11
5.50886
21
-3.29724
0
LINE
8
BLACK
6
CONTINUOUS
10
5.50886
20
-3.29724
11
5.50953
21
-3.29385
0
LINE
8
BLACK
6
CONTINUOUS
10
5.50953
20
-3.29385
11
5.51145
21
-3.29098
0
LINE
8
BLACK
6
CONTINUOUS
10
5.51145
20
-3.29098
11
5.51433
21
-3.28906
0
LINE
8
BLACK
6
CONTINUOUS
10
5.51433
20
-3.28906
11
5.51772
21
-3.28839
0
LINE
8
BLACK
6
CONTINUOUS
10
5.51772
20
-3.28839
11
5.5374
21
-3.28839
0
LINE
8
BLACK
6
CONTINUOUS
10
5.5374
20
-3.28839
11
5.54079
21
-3.28906
0
LINE
8
BLACK
6
CONTINUOUS
10
3.89573
20
-3.27717
11
3.89828
21
-3.27888
0
LINE
8
BLACK
6
CONTINUOUS
10
3.89828
20
-3.27888
11
3.89999
21
-3.28144
0
LINE
8
BLACK
6
CONTINUOUS
10
3.89999
20
-3.28144
11
3.90059
21
-3.28445
0
LINE
8
BLACK
6
CONTINUOUS
10
3.90059
20
-3.28445
11
3.90059
21
-3.3002
0
LINE
8
BLACK
6
CONTINUOUS
10
3.90059
20
-3.3002
11
3.89999
21
-3.30321
0
LINE
8
BLACK
6
CONTINUOUS
10
3.89999
20
-3.30321
11
3.89828
21
-3.30576
0
LINE
8
BLACK
6
CONTINUOUS
10
3.89828
20
-3.30576
11
3.89573
21
-3.30747
0
LINE
8
BLACK
6
CONTINUOUS
10
3.89573
20
-3.30747
11
3.89272
21
-3.30807
0
LINE
8
BLACK
6
CONTINUOUS
10
3.89272
20
-3.30807
11
3.87106
21
-3.30807
0
LINE
8
BLACK
6
CONTINUOUS
10
3.87106
20
-3.30807
11
3.86805
21
-3.30747
0
LINE
8
BLACK
6
CONTINUOUS
10
3.86805
20
-3.30747
11
3.8655
21
-3.30576
0
LINE
8
BLACK
6
CONTINUOUS
10
3.8655
20
-3.30576
11
3.86379
21
-3.30321
0
LINE
8
BLACK
6
CONTINUOUS
10
3.86379
20
-3.30321
11
3.86319
21
-3.3002
0
LINE
8
BLACK
6
CONTINUOUS
10
3.86319
20
-3.3002
11
3.86319
21
-3.28445
0
LINE
8
BLACK
6
CONTINUOUS
10
3.86319
20
-3.28445
11
3.86379
21
-3.28144
0
LINE
8
BLACK
6
CONTINUOUS
10
3.86379
20
-3.28144
11
3.8655
21
-3.27888
0
LINE
8
BLACK
6
CONTINUOUS
10
3.8655
20
-3.27888
11
3.86805
21
-3.27717
0
LINE
8
BLACK
6
CONTINUOUS
10
3.86805
20
-3.27717
11
3.87106
21
-3.27657
0
LINE
8
BLACK
6
CONTINUOUS
10
3.87106
20
-3.27657
11
3.89272
21
-3.27657
0
LINE
8
BLACK
6
CONTINUOUS
10
3.89272
20
-3.27657
11
3.89573
21
-3.27717
0
LINE
8
BLACK
6
CONTINUOUS
10
3.97053
20
-3.27717
11
3.97309
21
-3.27888
0
LINE
8
BLACK
6
CONTINUOUS
10
3.97309
20
-3.27888
11
3.97479
21
-3.28144
0
LINE
8
BLACK
6
CONTINUOUS
10
3.97479
20
-3.28144
11
3.97539
21
-3.28445
0
LINE
8
BLACK
6
CONTINUOUS
10
3.97539
20
-3.28445
11
3.97539
21
-3.3002
0
LINE
8
BLACK
6
CONTINUOUS
10
3.97539
20
-3.3002
11
3.97479
21
-3.30321
0
LINE
8
BLACK
6
CONTINUOUS
10
3.97479
20
-3.30321
11
3.97309
21
-3.30576
0
LINE
8
BLACK
6
CONTINUOUS
10
3.97309
20
-3.30576
11
3.97053
21
-3.30747
0
LINE
8
BLACK
6
CONTINUOUS
10
3.97053
20
-3.30747
11
3.96752
21
-3.30807
0
LINE
8
BLACK
6
CONTINUOUS
10
3.96752
20
-3.30807
11
3.94587
21
-3.30807
0
LINE
8
BLACK
6
CONTINUOUS
10
3.94587
20
-3.30807
11
3.94285
21
-3.30747
0
LINE
8
BLACK
6
CONTINUOUS
10
3.94285
20
-3.30747
11
3.9403
21
-3.30576
0
LINE
8
BLACK
6
CONTINUOUS
10
3.9403
20
-3.30576
11
3.93859
21
-3.30321
0
LINE
8
BLACK
6
CONTINUOUS
10
3.93859
20
-3.30321
11
3.93799
21
-3.3002
0
LINE
8
BLACK
6
CONTINUOUS
10
3.93799
20
-3.3002
11
3.93799
21
-3.28445
0
LINE
8
BLACK
6
CONTINUOUS
10
3.93799
20
-3.28445
11
3.93859
21
-3.28144
0
LINE
8
BLACK
6
CONTINUOUS
10
3.93859
20
-3.28144
11
3.9403
21
-3.27888
0
LINE
8
BLACK
6
CONTINUOUS
10
3.9403
20
-3.27888
11
3.94285
21
-3.27717
0
LINE
8
BLACK
6
CONTINUOUS
10
3.94285
20
-3.27717
11
3.94587
21
-3.27657
0
LINE
8
BLACK
6
CONTINUOUS
10
3.94587
20
-3.27657
11
3.96752
21
-3.27657
0
LINE
8
BLACK
6
CONTINUOUS
10
3.96752
20
-3.27657
11
3.97053
21
-3.27717
0
LINE
8
BLACK
6
CONTINUOUS
10
4.04534
20
-3.27717
11
4.04789
21
-3.27888
0
LINE
8
BLACK
6
CONTINUOUS
10
4.04789
20
-3.27888
11
4.0496
21
-3.28144
0
LINE
8
BLACK
6
CONTINUOUS
10
4.0496
20
-3.28144
11
4.0502
21
-3.28445
0
LINE
8
BLACK
6
CONTINUOUS
10
4.0502
20
-3.28445
11
4.0502
21
-3.3002
0
LINE
8
BLACK
6
CONTINUOUS
10
4.0502
20
-3.3002
11
4.0496
21
-3.30321
0
LINE
8
BLACK
6
CONTINUOUS
10
4.0496
20
-3.30321
11
4.04789
21
-3.30576
0
LINE
8
BLACK
6
CONTINUOUS
10
4.04789
20
-3.30576
11
4.04534
21
-3.30747
0
LINE
8
BLACK
6
CONTINUOUS
10
4.04534
20
-3.30747
11
4.04232
21
-3.30807
0
LINE
8
BLACK
6
CONTINUOUS
10
4.04232
20
-3.30807
11
4.02067
21
-3.30807
0
LINE
8
BLACK
6
CONTINUOUS
10
4.02067
20
-3.30807
11
4.01766
21
-3.30747
0
LINE
8
BLACK
6
CONTINUOUS
10
4.01766
20
-3.30747
11
4.0151
21
-3.30576
0
LINE
8
BLACK
6
CONTINUOUS
10
4.0151
20
-3.30576
11
4.01339
21
-3.30321
0
LINE
8
BLACK
6
CONTINUOUS
10
4.01339
20
-3.30321
11
4.0128
21
-3.3002
0
LINE
8
BLACK
6
CONTINUOUS
10
4.0128
20
-3.3002
11
4.0128
21
-3.28445
0
LINE
8
BLACK
6
CONTINUOUS
10
4.0128
20
-3.28445
11
4.01339
21
-3.28144
0
LINE
8
BLACK
6
CONTINUOUS
10
4.01339
20
-3.28144
11
4.0151
21
-3.27888
0
LINE
8
BLACK
6
CONTINUOUS
10
4.0151
20
-3.27888
11
4.01766
21
-3.27717
0
LINE
8
BLACK
6
CONTINUOUS
10
4.01766
20
-3.27717
11
4.02067
21
-3.27657
0
LINE
8
BLACK
6
CONTINUOUS
10
4.02067
20
-3.27657
11
4.04232
21
-3.27657
0
LINE
8
BLACK
6
CONTINUOUS
10
4.04232
20
-3.27657
11
4.04534
21
-3.27717
0
LINE
8
BLACK
6
CONTINUOUS
10
5.3568
20
-3.24239
11
5.36319
21
-3.24523
0
LINE
8
BLACK
6
CONTINUOUS
10
5.36319
20
-3.24523
11
5.36885
21
-3.24934
0
LINE
8
BLACK
6
CONTINUOUS
10
5.36885
20
-3.24934
11
5.37353
21
-3.25454
0
LINE
8
BLACK
6
CONTINUOUS
10
5.37353
20
-3.25454
11
5.37703
21
-3.2606
0
LINE
8
BLACK
6
CONTINUOUS
10
5.37703
20
-3.2606
11
5.37919
21
-3.26725
0
LINE
8
BLACK
6
CONTINUOUS
10
5.37919
20
-3.26725
11
5.37992
21
-3.27421
0
LINE
8
BLACK
6
CONTINUOUS
10
5.37992
20
-3.27421
11
5.37919
21
-3.28117
0
LINE
8
BLACK
6
CONTINUOUS
10
5.37919
20
-3.28117
11
5.37703
21
-3.28782
0
LINE
8
BLACK
6
CONTINUOUS
10
5.37703
20
-3.28782
11
5.37353
21
-3.29388
0
LINE
8
BLACK
6
CONTINUOUS
10
5.37353
20
-3.29388
11
5.36885
21
-3.29908
0
LINE
8
BLACK
6
CONTINUOUS
10
5.36885
20
-3.29908
11
5.36319
21
-3.30319
0
LINE
8
BLACK
6
CONTINUOUS
10
5.36319
20
-3.30319
11
5.3568
21
-3.30604
0
LINE
8
BLACK
6
CONTINUOUS
10
5.3568
20
-3.30604
11
5.34995
21
-3.30749
0
LINE
8
BLACK
6
CONTINUOUS
10
5.34995
20
-3.30749
11
5.34296
21
-3.30749
0
LINE
8
BLACK
6
CONTINUOUS
10
5.34296
20
-3.30749
11
5.33612
21
-3.30604
0
LINE
8
BLACK
6
CONTINUOUS
10
5.33612
20
-3.30604
11
5.32972
21
-3.30319
0
LINE
8
BLACK
6
CONTINUOUS
10
5.32972
20
-3.30319
11
5.32406
21
-3.29908
0
LINE
8
BLACK
6
CONTINUOUS
10
5.32406
20
-3.29908
11
5.31938
21
-3.29388
0
LINE
8
BLACK
6
CONTINUOUS
10
5.31938
20
-3.29388
11
5.31589
21
-3.28782
0
LINE
8
BLACK
6
CONTINUOUS
10
5.31589
20
-3.28782
11
5.31372
21
-3.28117
0
LINE
8
BLACK
6
CONTINUOUS
10
5.31372
20
-3.28117
11
5.31299
21
-3.27421
0
LINE
8
BLACK
6
CONTINUOUS
10
5.31299
20
-3.27421
11
5.31372
21
-3.26725
0
LINE
8
BLACK
6
CONTINUOUS
10
5.31372
20
-3.26725
11
5.31589
21
-3.2606
0
LINE
8
BLACK
6
CONTINUOUS
10
5.31589
20
-3.2606
11
5.31938
21
-3.25454
0
LINE
8
BLACK
6
CONTINUOUS
10
5.31938
20
-3.25454
11
5.32406
21
-3.24934
0
LINE
8
BLACK
6
CONTINUOUS
10
5.32406
20
-3.24934
11
5.32972
21
-3.24523
0
LINE
8
BLACK
6
CONTINUOUS
10
5.32972
20
-3.24523
11
5.33612
21
-3.24239
0
LINE
8
BLACK
6
CONTINUOUS
10
5.33612
20
-3.24239
11
5.34296
21
-3.24093
0
LINE
8
BLACK
6
CONTINUOUS
10
5.34296
20
-3.24093
11
5.34995
21
-3.24093
0
LINE
8
BLACK
6
CONTINUOUS
10
5.34995
20
-3.24093
11
5.3568
21
-3.24239
0
LINE
8
BLACK
6
CONTINUOUS
10
6.08207
20
-3.23348
11
6.08826
21
-3.23503
0
LINE
8
BLACK
6
CONTINUOUS
10
6.08826
20
-3.23503
11
6.09391
21
-3.23802
0
LINE
8
BLACK
6
CONTINUOUS
10
6.09391
20
-3.23802
11
6.09867
21
-3.24227
0
LINE
8
BLACK
6
CONTINUOUS
10
6.09867
20
-3.24227
11
6.10229
21
-3.24753
0
LINE
8
BLACK
6
CONTINUOUS
10
6.10229
20
-3.24753
11
6.10455
21
-3.2535
0
LINE
8
BLACK
6
CONTINUOUS
10
6.10455
20
-3.2535
11
6.10531
21
-3.25984
0
LINE
8
BLACK
6
CONTINUOUS
10
6.10531
20
-3.25984
11
6.10531
21
-3.2604
0
LINE
8
BLACK
6
CONTINUOUS
10
6.10531
20
-3.2604
11
6.10441
21
-3.26672
0
LINE
8
BLACK
6
CONTINUOUS
10
6.10441
20
-3.26672
11
6.10203
21
-3.27265
0
LINE
8
BLACK
6
CONTINUOUS
10
6.10203
20
-3.27265
11
6.0983
21
-3.27783
0
LINE
8
BLACK
6
CONTINUOUS
10
6.0983
20
-3.27783
11
6.09345
21
-3.28198
0
LINE
8
BLACK
6
CONTINUOUS
10
6.09345
20
-3.28198
11
6.08774
21
-3.28485
0
LINE
8
BLACK
6
CONTINUOUS
10
6.08774
20
-3.28485
11
6.08152
21
-3.28627
0
LINE
8
BLACK
6
CONTINUOUS
10
6.08152
20
-3.28627
11
6.07513
21
-3.28617
0
LINE
8
BLACK
6
CONTINUOUS
10
6.07513
20
-3.28617
11
6.06896
21
-3.28455
0
LINE
8
BLACK
6
CONTINUOUS
10
6.06896
20
-3.28455
11
6.06335
21
-3.2815
0
LINE
8
BLACK
6
CONTINUOUS
10
6.06335
20
-3.2815
11
6.05862
21
-3.27721
0
LINE
8
BLACK
6
CONTINUOUS
10
6.05862
20
-3.27721
11
6.05506
21
-3.27191
0
LINE
8
BLACK
6
CONTINUOUS
10
6.05506
20
-3.27191
11
6.05287
21
-3.26591
0
LINE
8
BLACK
6
CONTINUOUS
10
6.05287
20
-3.26591
11
6.05217
21
-3.25956
0
LINE
8
BLACK
6
CONTINUOUS
10
6.05217
20
-3.25956
11
6.053
21
-3.25323
0
LINE
8
BLACK
6
CONTINUOUS
10
6.053
20
-3.25323
11
6.05532
21
-3.24728
0
LINE
8
BLACK
6
CONTINUOUS
10
6.05532
20
-3.24728
11
6.05899
21
-3.24206
0
LINE
8
BLACK
6
CONTINUOUS
10
6.05899
20
-3.24206
11
6.0638
21
-3.23786
0
LINE
8
BLACK
6
CONTINUOUS
10
6.0638
20
-3.23786
11
6.06948
21
-3.23493
0
LINE
8
BLACK
6
CONTINUOUS
10
6.06948
20
-3.23493
11
6.07569
21
-3.23344
0
LINE
8
BLACK
6
CONTINUOUS
10
6.07569
20
-3.23344
11
6.08207
21
-3.23348
0
LINE
8
BLACK
6
CONTINUOUS
10
5.54079
20
-3.22804
11
5.54367
21
-3.22996
0
LINE
8
BLACK
6
CONTINUOUS
10
5.54367
20
-3.22996
11
5.54559
21
-3.23283
0
LINE
8
BLACK
6
CONTINUOUS
10
5.54559
20
-3.23283
11
5.54626
21
-3.23622
0
LINE
8
BLACK
6
CONTINUOUS
10
5.54626
20
-3.23622
11
5.54626
21
-3.25394
0
LINE
8
BLACK
6
CONTINUOUS
10
5.54626
20
-3.25394
11
5.54559
21
-3.25733
0
LINE
8
BLACK
6
CONTINUOUS
10
5.54559
20
-3.25733
11
5.54367
21
-3.2602
0
LINE
8
BLACK
6
CONTINUOUS
10
5.54367
20
-3.2602
11
5.54079
21
-3.26212
0
LINE
8
BLACK
6
CONTINUOUS
10
5.54079
20
-3.26212
11
5.5374
21
-3.2628
0
LINE
8
BLACK
6
CONTINUOUS
10
5.5374
20
-3.2628
11
5.51772
21
-3.2628
0
LINE
8
BLACK
6
CONTINUOUS
10
5.51772
20
-3.2628
11
5.51433
21
-3.26212
0
LINE
8
BLACK
6
CONTINUOUS
10
5.51433
20
-3.26212
11
5.51145
21
-3.2602
0
LINE
8
BLACK
6
CONTINUOUS
10
5.51145
20
-3.2602
11
5.50953
21
-3.25733
0
LINE
8
BLACK
6
CONTINUOUS
10
5.50953
20
-3.25733
11
5.50886
21
-3.25394
0
LINE
8
BLACK
6
CONTINUOUS
10
5.50886
20
-3.25394
11
5.50886
21
-3.23622
0
LINE
8
BLACK
6
CONTINUOUS
10
5.50886
20
-3.23622
11
5.50953
21
-3.23283
0
LINE
8
BLACK
6
CONTINUOUS
10
5.50953
20
-3.23283
11
5.51145
21
-3.22996
0
LINE
8
BLACK
6
CONTINUOUS
10
5.51145
20
-3.22996
11
5.51433
21
-3.22804
0
LINE
8
BLACK
6
CONTINUOUS
10
5.51433
20
-3.22804
11
5.51772
21
-3.22736
0
LINE
8
BLACK
6
CONTINUOUS
10
5.51772
20
-3.22736
11
5.5374
21
-3.22736
0
LINE
8
BLACK
6
CONTINUOUS
10
5.5374
20
-3.22736
11
5.54079
21
-3.22804
0
LINE
8
BLACK
6
CONTINUOUS
10
5.4778
20
-3.22804
11
5.48067
21
-3.22996
0
LINE
8
BLACK
6
CONTINUOUS
10
5.48067
20
-3.22996
11
5.48259
21
-3.23283
0
LINE
8
BLACK
6
CONTINUOUS
10
5.48259
20
-3.23283
11
5.48327
21
-3.23622
0
LINE
8
BLACK
6
CONTINUOUS
10
5.48327
20
-3.23622
11
5.48327
21
-3.25394
0
LINE
8
BLACK
6
CONTINUOUS
10
5.48327
20
-3.25394
11
5.48259
21
-3.25733
0
LINE
8
BLACK
6
CONTINUOUS
10
5.48259
20
-3.25733
11
5.48067
21
-3.2602
0
LINE
8
BLACK
6
CONTINUOUS
10
5.48067
20
-3.2602
11
5.4778
21
-3.26212
0
LINE
8
BLACK
6
CONTINUOUS
10
5.4778
20
-3.26212
11
5.47441
21
-3.2628
0
LINE
8
BLACK
6
CONTINUOUS
10
5.47441
20
-3.2628
11
5.45472
21
-3.2628
0
LINE
8
BLACK
6
CONTINUOUS
10
5.45472
20
-3.2628
11
5.45133
21
-3.26212
0
LINE
8
BLACK
6
CONTINUOUS
10
5.45133
20
-3.26212
11
5.44846
21
-3.2602
0
LINE
8
BLACK
6
CONTINUOUS
10
5.44846
20
-3.2602
11
5.44654
21
-3.25733
0
LINE
8
BLACK
6
CONTINUOUS
10
5.44654
20
-3.25733
11
5.44587
21
-3.25394
0
LINE
8
BLACK
6
CONTINUOUS
10
5.44587
20
-3.25394
11
5.44587
21
-3.23622
0
LINE
8
BLACK
6
CONTINUOUS
10
5.44587
20
-3.23622
11
5.44654
21
-3.23283
0
LINE
8
BLACK
6
CONTINUOUS
10
5.44654
20
-3.23283
11
5.44846
21
-3.22996
0
LINE
8
BLACK
6
CONTINUOUS
10
5.44846
20
-3.22996
11
5.45133
21
-3.22804
0
LINE
8
BLACK
6
CONTINUOUS
10
5.45133
20
-3.22804
11
5.45472
21
-3.22736
0
LINE
8
BLACK
6
CONTINUOUS
10
5.45472
20
-3.22736
11
5.47441
21
-3.22736
0
LINE
8
BLACK
6
CONTINUOUS
10
5.47441
20
-3.22736
11
5.4778
21
-3.22804
0
LINE
8
BLACK
6
CONTINUOUS
10
4.04534
20
-3.21221
11
4.04789
21
-3.21392
0
LINE
8
BLACK
6
CONTINUOUS
10
4.04789
20
-3.21392
11
4.0496
21
-3.21647
0
LINE
8
BLACK
6
CONTINUOUS
10
4.0496
20
-3.21647
11
4.0502
21
-3.21949
0
LINE
8
BLACK
6
CONTINUOUS
10
4.0502
20
-3.21949
11
4.0502
21
-3.23524
0
LINE
8
BLACK
6
CONTINUOUS
10
4.0502
20
-3.23524
11
4.0496
21
-3.23825
0
LINE
8
BLACK
6
CONTINUOUS
10
4.0496
20
-3.23825
11
4.04789
21
-3.2408
0
LINE
8
BLACK
6
CONTINUOUS
10
4.04789
20
-3.2408
11
4.04534
21
-3.24251
0
LINE
8
BLACK
6
CONTINUOUS
10
4.04534
20
-3.24251
11
4.04232
21
-3.24311
0
LINE
8
BLACK
6
CONTINUOUS
10
4.04232
20
-3.24311
11
4.02067
21
-3.24311
0
LINE
8
BLACK
6
CONTINUOUS
10
4.02067
20
-3.24311
11
4.01766
21
-3.24251
0
LINE
8
BLACK
6
CONTINUOUS
10
4.01766
20
-3.24251
11
4.0151
21
-3.2408
0
LINE
8
BLACK
6
CONTINUOUS
10
4.0151
20
-3.2408
11
4.01339
21
-3.23825
0
LINE
8
BLACK
6
CONTINUOUS
10
4.01339
20
-3.23825
11
4.0128
21
-3.23524
0
LINE
8
BLACK
6
CONTINUOUS
10
4.0128
20
-3.23524
11
4.0128
21
-3.21949
0
LINE
8
BLACK
6
CONTINUOUS
10
4.0128
20
-3.21949
11
4.01339
21
-3.21647
0
LINE
8
BLACK
6
CONTINUOUS
10
4.01339
20
-3.21647
11
4.0151
21
-3.21392
0
LINE
8
BLACK
6
CONTINUOUS
10
4.0151
20
-3.21392
11
4.01766
21
-3.21221
0
LINE
8
BLACK
6
CONTINUOUS
10
4.01766
20
-3.21221
11
4.02067
21
-3.21161
0
LINE
8
BLACK
6
CONTINUOUS
10
4.02067
20
-3.21161
11
4.04232
21
-3.21161
0
LINE
8
BLACK
6
CONTINUOUS
10
4.04232
20
-3.21161
11
4.04534
21
-3.21221
0
LINE
8
BLACK
6
CONTINUOUS
10
3.97053
20
-3.21221
11
3.97309
21
-3.21392
0
LINE
8
BLACK
6
CONTINUOUS
10
3.97309
20
-3.21392
11
3.97479
21
-3.21647
0
LINE
8
BLACK
6
CONTINUOUS
10
3.97479
20
-3.21647
11
3.97539
21
-3.21949
0
LINE
8
BLACK
6
CONTINUOUS
10
3.97539
20
-3.21949
11
3.97539
21
-3.23524
0
LINE
8
BLACK
6
CONTINUOUS
10
3.97539
20
-3.23524
11
3.97479
21
-3.23825
0
LINE
8
BLACK
6
CONTINUOUS
10
3.97479
20
-3.23825
11
3.97309
21
-3.2408
0
LINE
8
BLACK
6
CONTINUOUS
10
3.97309
20
-3.2408
11
3.97053
21
-3.24251
0
LINE
8
BLACK
6
CONTINUOUS
10
3.97053
20
-3.24251
11
3.96752
21
-3.24311
0
LINE
8
BLACK
6
CONTINUOUS
10
3.96752
20
-3.24311
11
3.94587
21
-3.24311
0
LINE
8
BLACK
6
CONTINUOUS
10
3.94587
20
-3.24311
11
3.94285
21
-3.24251
0
LINE
8
BLACK
6
CONTINUOUS
10
3.94285
20
-3.24251
11
3.9403
21
-3.2408
0
LINE
8
BLACK
6
CONTINUOUS
10
3.9403
20
-3.2408
11
3.93859
21
-3.23825
0
LINE
8
BLACK
6
CONTINUOUS
10
3.93859
20
-3.23825
11
3.93799
21
-3.23524
0
LINE
8
BLACK
6
CONTINUOUS
10
3.93799
20
-3.23524
11
3.93799
21
-3.21949
0
LINE
8
BLACK
6
CONTINUOUS
10
3.93799
20
-3.21949
11
3.93859
21
-3.21647
0
LINE
8
BLACK
6
CONTINUOUS
10
3.93859
20
-3.21647
11
3.9403
21
-3.21392
0
LINE
8
BLACK
6
CONTINUOUS
10
3.9403
20
-3.21392
11
3.94285
21
-3.21221
0
LINE
8
BLACK
6
CONTINUOUS
10
3.94285
20
-3.21221
11
3.94587
21
-3.21161
0
LINE
8
BLACK
6
CONTINUOUS
10
3.94587
20
-3.21161
11
3.96752
21
-3.21161
0
LINE
8
BLACK
6
CONTINUOUS
10
3.96752
20
-3.21161
11
3.97053
21
-3.21221
0
LINE
8
BLACK
6
CONTINUOUS
10
3.89573
20
-3.21221
11
3.89828
21
-3.21392
0
LINE
8
BLACK
6
CONTINUOUS
10
3.89828
20
-3.21392
11
3.89999
21
-3.21647
0
LINE
8
BLACK
6
CONTINUOUS
10
3.89999
20
-3.21647
11
3.90059
21
-3.21949
0
LINE
8
BLACK
6
CONTINUOUS
10
3.90059
20
-3.21949
11
3.90059
21
-3.23524
0
LINE
8
BLACK
6
CONTINUOUS
10
3.90059
20
-3.23524
11
3.89999
21
-3.23825
0
LINE
8
BLACK
6
CONTINUOUS
10
3.89999
20
-3.23825
11
3.89828
21
-3.2408
0
LINE
8
BLACK
6
CONTINUOUS
10
3.89828
20
-3.2408
11
3.89573
21
-3.24251
0
LINE
8
BLACK
6
CONTINUOUS
10
3.89573
20
-3.24251
11
3.89272
21
-3.24311
0
LINE
8
BLACK
6
CONTINUOUS
10
3.89272
20
-3.24311
11
3.87106
21
-3.24311
0
LINE
8
BLACK
6
CONTINUOUS
10
3.87106
20
-3.24311
11
3.86805
21
-3.24251
0
LINE
8
BLACK
6
CONTINUOUS
10
3.86805
20
-3.24251
11
3.8655
21
-3.2408
0
LINE
8
BLACK
6
CONTINUOUS
10
3.8655
20
-3.2408
11
3.86379
21
-3.23825
0
LINE
8
BLACK
6
CONTINUOUS
10
3.86379
20
-3.23825
11
3.86319
21
-3.23524
0
LINE
8
BLACK
6
CONTINUOUS
10
3.86319
20
-3.23524
11
3.86319
21
-3.21949
0
LINE
8
BLACK
6
CONTINUOUS
10
3.86319
20
-3.21949
11
3.86379
21
-3.21647
0
LINE
8
BLACK
6
CONTINUOUS
10
3.86379
20
-3.21647
11
3.8655
21
-3.21392
0
LINE
8
BLACK
6
CONTINUOUS
10
3.8655
20
-3.21392
11
3.86805
21
-3.21221
0
LINE
8
BLACK
6
CONTINUOUS
10
3.86805
20
-3.21221
11
3.87106
21
-3.21161
0
LINE
8
BLACK
6
CONTINUOUS
10
3.87106
20
-3.21161
11
3.89272
21
-3.21161
0
LINE
8
BLACK
6
CONTINUOUS
10
3.89272
20
-3.21161
11
3.89573
21
-3.21221
0
LINE
8
BLACK
6
CONTINUOUS
10
4.73869
20
-3.16109
11
4.74508
21
-3.16393
0
LINE
8
BLACK
6
CONTINUOUS
10
4.74508
20
-3.16393
11
4.75074
21
-3.16804
0
LINE
8
BLACK
6
CONTINUOUS
10
4.75074
20
-3.16804
11
4.75542
21
-3.17324
0
LINE
8
BLACK
6
CONTINUOUS
10
4.75542
20
-3.17324
11
4.75892
21
-3.1793
0
LINE
8
BLACK
6
CONTINUOUS
10
4.75892
20
-3.1793
11
4.76108
21
-3.18596
0
LINE
8
BLACK
6
CONTINUOUS
10
4.76108
20
-3.18596
11
4.76181
21
-3.19291
0
LINE
8
BLACK
6
CONTINUOUS
10
4.76181
20
-3.19291
11
4.76108
21
-3.19987
0
LINE
8
BLACK
6
CONTINUOUS
10
4.76108
20
-3.19987
11
4.75892
21
-3.20652
0
LINE
8
BLACK
6
CONTINUOUS
10
4.75892
20
-3.20652
11
4.75542
21
-3.21258
0
LINE
8
BLACK
6
CONTINUOUS
10
4.75542
20
-3.21258
11
4.75074
21
-3.21778
0
LINE
8
BLACK
6
CONTINUOUS
10
4.75074
20
-3.21778
11
4.74508
21
-3.22189
0
LINE
8
BLACK
6
CONTINUOUS
10
4.74508
20
-3.22189
11
4.73869
21
-3.22474
0
LINE
8
BLACK
6
CONTINUOUS
10
4.73869
20
-3.22474
11
4.73184
21
-3.22619
0
LINE
8
BLACK
6
CONTINUOUS
10
4.73184
20
-3.22619
11
4.72485
21
-3.22619
0
LINE
8
BLACK
6
CONTINUOUS
10
4.72485
20
-3.22619
11
4.71801
21
-3.22474
0
LINE
8
BLACK
6
CONTINUOUS
10
4.71801
20
-3.22474
11
4.71161
21
-3.22189
0
LINE
8
BLACK
6
CONTINUOUS
10
4.71161
20
-3.22189
11
4.70595
21
-3.21778
0
LINE
8
BLACK
6
CONTINUOUS
10
4.70595
20
-3.21778
11
4.70127
21
-3.21258
0
LINE
8
BLACK
6
CONTINUOUS
10
4.70127
20
-3.21258
11
4.69778
21
-3.20652
0
LINE
8
BLACK
6
CONTINUOUS
10
4.69778
20
-3.20652
11
4.69561
21
-3.19987
0
LINE
8
BLACK
6
CONTINUOUS
10
4.69561
20
-3.19987
11
4.69488
21
-3.19291
0
LINE
8
BLACK
6
CONTINUOUS
10
4.69488
20
-3.19291
11
4.69561
21
-3.18596
0
LINE
8
BLACK
6
CONTINUOUS
10
4.69561
20
-3.18596
11
4.69778
21
-3.1793
0
LINE
8
BLACK
6
CONTINUOUS
10
4.69778
20
-3.1793
11
4.70127
21
-3.17324
0
LINE
8
BLACK
6
CONTINUOUS
10
4.70127
20
-3.17324
11
4.70595
21
-3.16804
0
LINE
8
BLACK
6
CONTINUOUS
10
4.70595
20
-3.16804
11
4.71161
21
-3.16393
0
LINE
8
BLACK
6
CONTINUOUS
10
4.71161
20
-3.16393
11
4.71801
21
-3.16109
0
LINE
8
BLACK
6
CONTINUOUS
10
4.71801
20
-3.16109
11
4.72485
21
-3.15963
0
LINE
8
BLACK
6
CONTINUOUS
10
4.72485
20
-3.15963
11
4.73184
21
-3.15963
0
LINE
8
BLACK
6
CONTINUOUS
10
4.73184
20
-3.15963
11
4.73869
21
-3.16109
0
LINE
8
BLACK
6
CONTINUOUS
10
6.08207
20
-3.15474
11
6.08826
21
-3.15629
0
LINE
8
BLACK
6
CONTINUOUS
10
6.08826
20
-3.15629
11
6.09391
21
-3.15928
0
LINE
8
BLACK
6
CONTINUOUS
10
6.09391
20
-3.15928
11
6.09867
21
-3.16353
0
LINE
8
BLACK
6
CONTINUOUS
10
6.09867
20
-3.16353
11
6.10229
21
-3.16879
0
LINE
8
BLACK
6
CONTINUOUS
10
6.10229
20
-3.16879
11
6.10455
21
-3.17476
0
LINE
8
BLACK
6
CONTINUOUS
10
6.10455
20
-3.17476
11
6.10531
21
-3.1811
0
LINE
8
BLACK
6
CONTINUOUS
10
6.10531
20
-3.1811
11
6.10531
21
-3.18166
0
LINE
8
BLACK
6
CONTINUOUS
10
6.10531
20
-3.18166
11
6.10441
21
-3.18798
0
LINE
8
BLACK
6
CONTINUOUS
10
6.10441
20
-3.18798
11
6.10203
21
-3.1939
0
LINE
8
BLACK
6
CONTINUOUS
10
6.10203
20
-3.1939
11
6.0983
21
-3.19909
0
LINE
8
BLACK
6
CONTINUOUS
10
6.0983
20
-3.19909
11
6.09345
21
-3.20324
0
LINE
8
BLACK
6
CONTINUOUS
10
6.09345
20
-3.20324
11
6.08774
21
-3.20611
0
LINE
8
BLACK
6
CONTINUOUS
10
6.08774
20
-3.20611
11
6.08152
21
-3.20753
0
LINE
8
BLACK
6
CONTINUOUS
10
6.08152
20
-3.20753
11
6.07513
21
-3.20743
0
LINE
8
BLACK
6
CONTINUOUS
10
6.07513
20
-3.20743
11
6.06896
21
-3.20581
0
LINE
8
BLACK
6
CONTINUOUS
10
6.06896
20
-3.20581
11
6.06335
21
-3.20276
0
LINE
8
BLACK
6
CONTINUOUS
10
6.06335
20
-3.20276
11
6.05862
21
-3.19847
0
LINE
8
BLACK
6
CONTINUOUS
10
6.05862
20
-3.19847
11
6.05506
21
-3.19317
0
LINE
8
BLACK
6
CONTINUOUS
10
6.05506
20
-3.19317
11
6.05287
21
-3.18717
0
LINE
8
BLACK
6
CONTINUOUS
10
6.05287
20
-3.18717
11
6.05217
21
-3.18082
0
LINE
8
BLACK
6
CONTINUOUS
10
6.05217
20
-3.18082
11
6.053
21
-3.17449
0
LINE
8
BLACK
6
CONTINUOUS
10
6.053
20
-3.17449
11
6.05532
21
-3.16854
0
LINE
8
BLACK
6
CONTINUOUS
10
6.05532
20
-3.16854
11
6.05899
21
-3.16332
0
LINE
8
BLACK
6
CONTINUOUS
10
6.05899
20
-3.16332
11
6.0638
21
-3.15912
0
LINE
8
BLACK
6
CONTINUOUS
10
6.0638
20
-3.15912
11
6.06948
21
-3.15619
0
LINE
8
BLACK
6
CONTINUOUS
10
6.06948
20
-3.15619
11
6.07569
21
-3.1547
0
LINE
8
BLACK
6
CONTINUOUS
10
6.07569
20
-3.1547
11
6.08207
21
-3.15474
0
LINE
8
BLACK
6
CONTINUOUS
10
5.3568
20
-3.14239
11
5.36319
21
-3.14523
0
LINE
8
BLACK
6
CONTINUOUS
10
5.36319
20
-3.14523
11
5.36885
21
-3.14934
0
LINE
8
BLACK
6
CONTINUOUS
10
5.36885
20
-3.14934
11
5.37353
21
-3.15454
0
LINE
8
BLACK
6
CONTINUOUS
10
5.37353
20
-3.15454
11
5.37703
21
-3.1606
0
LINE
8
BLACK
6
CONTINUOUS
10
5.37703
20
-3.1606
11
5.37919
21
-3.16725
0
LINE
8
BLACK
6
CONTINUOUS
10
5.37919
20
-3.16725
11
5.37992
21
-3.17421
0
LINE
8
BLACK
6
CONTINUOUS
10
5.37992
20
-3.17421
11
5.37919
21
-3.18117
0
LINE
8
BLACK
6
CONTINUOUS
10
5.37919
20
-3.18117
11
5.37703
21
-3.18782
0
LINE
8
BLACK
6
CONTINUOUS
10
5.37703
20
-3.18782
11
5.37353
21
-3.19388
0
LINE
8
BLACK
6
CONTINUOUS
10
5.37353
20
-3.19388
11
5.36885
21
-3.19908
0
LINE
8
BLACK
6
CONTINUOUS
10
5.36885
20
-3.19908
11
5.36319
21
-3.20319
0
LINE
8
BLACK
6
CONTINUOUS
10
5.36319
20
-3.20319
11
5.3568
21
-3.20604
0
LINE
8
BLACK
6
CONTINUOUS
10
5.3568
20
-3.20604
11
5.34995
21
-3.20749
0
LINE
8
BLACK
6
CONTINUOUS
10
5.34995
20
-3.20749
11
5.34296
21
-3.20749
0
LINE
8
BLACK
6
CONTINUOUS
10
5.34296
20
-3.20749
11
5.33612
21
-3.20604
0
LINE
8
BLACK
6
CONTINUOUS
10
5.33612
20
-3.20604
11
5.32972
21
-3.20319
0
LINE
8
BLACK
6
CONTINUOUS
10
5.32972
20
-3.20319
11
5.32406
21
-3.19908
0
LINE
8
BLACK
6
CONTINUOUS
10
5.32406
20
-3.19908
11
5.31938
21
-3.19388
0
LINE
8
BLACK
6
CONTINUOUS
10
5.31938
20
-3.19388
11
5.31589
21
-3.18782
0
LINE
8
BLACK
6
CONTINUOUS
10
5.31589
20
-3.18782
11
5.31372
21
-3.18117
0
LINE
8
BLACK
6
CONTINUOUS
10
5.31372
20
-3.18117
11
5.31299
21
-3.17421
0
LINE
8
BLACK
6
CONTINUOUS
10
5.31299
20
-3.17421
11
5.31372
21
-3.16725
0
LINE
8
BLACK
6
CONTINUOUS
10
5.31372
20
-3.16725
11
5.31589
21
-3.1606
0
LINE
8
BLACK
6
CONTINUOUS
10
5.31589
20
-3.1606
11
5.31938
21
-3.15454
0
LINE
8
BLACK
6
CONTINUOUS
10
5.31938
20
-3.15454
11
5.32406
21
-3.14934
0
LINE
8
BLACK
6
CONTINUOUS
10
5.32406
20
-3.14934
11
5.32972
21
-3.14523
0
LINE
8
BLACK
6
CONTINUOUS
10
5.32972
20
-3.14523
11
5.33612
21
-3.14239
0
LINE
8
BLACK
6
CONTINUOUS
10
5.33612
20
-3.14239
11
5.34296
21
-3.14093
0
LINE
8
BLACK
6
CONTINUOUS
10
5.34296
20
-3.14093
11
5.34995
21
-3.14093
0
LINE
8
BLACK
6
CONTINUOUS
10
5.34995
20
-3.14093
11
5.3568
21
-3.14239
0
LINE
8
BLACK
6
CONTINUOUS
10
4.3229
20
-3.12757
11
4.32545
21
-3.12927
0
LINE
8
BLACK
6
CONTINUOUS
10
4.32545
20
-3.12927
11
4.32716
21
-3.13183
0
LINE
8
BLACK
6
CONTINUOUS
10
4.32716
20
-3.13183
11
4.32776
21
-3.13484
0
LINE
8
BLACK
6
CONTINUOUS
10
4.32776
20
-3.13484
11
4.32776
21
-3.1565
0
LINE
8
BLACK
6
CONTINUOUS
10
4.32776
20
-3.1565
11
4.32716
21
-3.15951
0
LINE
8
BLACK
6
CONTINUOUS
10
4.32716
20
-3.15951
11
4.32545
21
-3.16206
0
LINE
8
BLACK
6
CONTINUOUS
10
4.32545
20
-3.16206
11
4.3229
21
-3.16377
0
LINE
8
BLACK
6
CONTINUOUS
10
4.3229
20
-3.16377
11
4.31988
21
-3.16437
0
LINE
8
BLACK
6
CONTINUOUS
10
4.31988
20
-3.16437
11
4.30413
21
-3.16437
0
LINE
8
BLACK
6
CONTINUOUS
10
4.30413
20
-3.16437
11
4.30112
21
-3.16377
0
LINE
8
BLACK
6
CONTINUOUS
10
4.30112
20
-3.16377
11
4.29857
21
-3.16206
0
LINE
8
BLACK
6
CONTINUOUS
10
4.29857
20
-3.16206
11
4.29686
21
-3.15951
0
LINE
8
BLACK
6
CONTINUOUS
10
4.29686
20
-3.15951
11
4.29626
21
-3.1565
0
LINE
8
BLACK
6
CONTINUOUS
10
4.29626
20
-3.1565
11
4.29626
21
-3.13484
0
LINE
8
BLACK
6
CONTINUOUS
10
4.29626
20
-3.13484
11
4.29686
21
-3.13183
0
LINE
8
BLACK
6
CONTINUOUS
10
4.29686
20
-3.13183
11
4.29857
21
-3.12927
0
LINE
8
BLACK
6
CONTINUOUS
10
4.29857
20
-3.12927
11
4.30112
21
-3.12757
0
LINE
8
BLACK
6
CONTINUOUS
10
4.30112
20
-3.12757
11
4.30413
21
-3.12697
0
LINE
8
BLACK
6
CONTINUOUS
10
4.30413
20
-3.12697
11
4.31988
21
-3.12697
0
LINE
8
BLACK
6
CONTINUOUS
10
4.31988
20
-3.12697
11
4.3229
21
-3.12757
0
LINE
8
BLACK
6
CONTINUOUS
10
4.25793
20
-3.12757
11
4.26049
21
-3.12927
0
LINE
8
BLACK
6
CONTINUOUS
10
4.26049
20
-3.12927
11
4.2622
21
-3.13183
0
LINE
8
BLACK
6
CONTINUOUS
10
4.2622
20
-3.13183
11
4.2628
21
-3.13484
0
LINE
8
BLACK
6
CONTINUOUS
10
4.2628
20
-3.13484
11
4.2628
21
-3.1565
0
LINE
8
BLACK
6
CONTINUOUS
10
4.2628
20
-3.1565
11
4.2622
21
-3.15951
0
LINE
8
BLACK
6
CONTINUOUS
10
4.2622
20
-3.15951
11
4.26049
21
-3.16206
0
LINE
8
BLACK
6
CONTINUOUS
10
4.26049
20
-3.16206
11
4.25793
21
-3.16377
0
LINE
8
BLACK
6
CONTINUOUS
10
4.25793
20
-3.16377
11
4.25492
21
-3.16437
0
LINE
8
BLACK
6
CONTINUOUS
10
4.25492
20
-3.16437
11
4.23917
21
-3.16437
0
LINE
8
BLACK
6
CONTINUOUS
10
4.23917
20
-3.16437
11
4.23616
21
-3.16377
0
LINE
8
BLACK
6
CONTINUOUS
10
4.23616
20
-3.16377
11
4.23361
21
-3.16206
0
LINE
8
BLACK
6
CONTINUOUS
10
4.23361
20
-3.16206
11
4.2319
21
-3.15951
0
LINE
8
BLACK
6
CONTINUOUS
10
4.2319
20
-3.15951
11
4.2313
21
-3.1565
0
LINE
8
BLACK
6
CONTINUOUS
10
4.2313
20
-3.1565
11
4.2313
21
-3.13484
0
LINE
8
BLACK
6
CONTINUOUS
10
4.2313
20
-3.13484
11
4.2319
21
-3.13183
0
LINE
8
BLACK
6
CONTINUOUS
10
4.2319
20
-3.13183
11
4.23361
21
-3.12927
0
LINE
8
BLACK
6
CONTINUOUS
10
4.23361
20
-3.12927
11
4.23616
21
-3.12757
0
LINE
8
BLACK
6
CONTINUOUS
10
4.23616
20
-3.12757
11
4.23917
21
-3.12697
0
LINE
8
BLACK
6
CONTINUOUS
10
4.23917
20
-3.12697
11
4.25492
21
-3.12697
0
LINE
8
BLACK
6
CONTINUOUS
10
4.25492
20
-3.12697
11
4.25793
21
-3.12757
0
LINE
8
BLACK
6
CONTINUOUS
10
6.08207
20
-3.076
11
6.08826
21
-3.07755
0
LINE
8
BLACK
6
CONTINUOUS
10
6.08826
20
-3.07755
11
6.09391
21
-3.08054
0
LINE
8
BLACK
6
CONTINUOUS
10
6.09391
20
-3.08054
11
6.09867
21
-3.08479
0
LINE
8
BLACK
6
CONTINUOUS
10
6.09867
20
-3.08479
11
6.10229
21
-3.09005
0
LINE
8
BLACK
6
CONTINUOUS
10
6.10229
20
-3.09005
11
6.10455
21
-3.09602
0
LINE
8
BLACK
6
CONTINUOUS
10
6.10455
20
-3.09602
11
6.10531
21
-3.10236
0
LINE
8
BLACK
6
CONTINUOUS
10
6.10531
20
-3.10236
11
6.10531
21
-3.10292
0
LINE
8
BLACK
6
CONTINUOUS
10
6.10531
20
-3.10292
11
6.10441
21
-3.10924
0
LINE
8
BLACK
6
CONTINUOUS
10
6.10441
20
-3.10924
11
6.10203
21
-3.11516
0
LINE
8
BLACK
6
CONTINUOUS
10
6.10203
20
-3.11516
11
6.0983
21
-3.12035
0
LINE
8
BLACK
6
CONTINUOUS
10
6.0983
20
-3.12035
11
6.09345
21
-3.1245
0
LINE
8
BLACK
6
CONTINUOUS
10
6.09345
20
-3.1245
11
6.08774
21
-3.12737
0
LINE
8
BLACK
6
CONTINUOUS
10
6.08774
20
-3.12737
11
6.08152
21
-3.12879
0
LINE
8
BLACK
6
CONTINUOUS
10
6.08152
20
-3.12879
11
6.07513
21
-3.12869
0
LINE
8
BLACK
6
CONTINUOUS
10
6.07513
20
-3.12869
11
6.06896
21
-3.12707
0
LINE
8
BLACK
6
CONTINUOUS
10
6.06896
20
-3.12707
11
6.06335
21
-3.12402
0
LINE
8
BLACK
6
CONTINUOUS
10
6.06335
20
-3.12402
11
6.05862
21
-3.11973
0
LINE
8
BLACK
6
CONTINUOUS
10
6.05862
20
-3.11973
11
6.05506
21
-3.11443
0
LINE
8
BLACK
6
CONTINUOUS
10
6.05506
20
-3.11443
11
6.05287
21
-3.10843
0
LINE
8
BLACK
6
CONTINUOUS
10
6.05287
20
-3.10843
11
6.05217
21
-3.10208
0
LINE
8
BLACK
6
CONTINUOUS
10
6.05217
20
-3.10208
11
6.053
21
-3.09575
0
LINE
8
BLACK
6
CONTINUOUS
10
6.053
20
-3.09575
11
6.05532
21
-3.0898
0
LINE
8
BLACK
6
CONTINUOUS
10
6.05532
20
-3.0898
11
6.05899
21
-3.08458
0
LINE
8
BLACK
6
CONTINUOUS
10
6.05899
20
-3.08458
11
6.0638
21
-3.08038
0
LINE
8
BLACK
6
CONTINUOUS
10
6.0638
20
-3.08038
11
6.06948
21
-3.07745
0
LINE
8
BLACK
6
CONTINUOUS
10
6.06948
20
-3.07745
11
6.07569
21
-3.07596
0
LINE
8
BLACK
6
CONTINUOUS
10
6.07569
20
-3.07596
11
6.08207
21
-3.076
0
LINE
8
BLACK
6
CONTINUOUS
10
4.73869
20
-3.06109
11
4.74508
21
-3.06393
0
LINE
8
BLACK
6
CONTINUOUS
10
4.74508
20
-3.06393
11
4.75074
21
-3.06804
0
LINE
8
BLACK
6
CONTINUOUS
10
4.75074
20
-3.06804
11
4.75542
21
-3.07324
0
LINE
8
BLACK
6
CONTINUOUS
10
4.75542
20
-3.07324
11
4.75892
21
-3.0793
0
LINE
8
BLACK
6
CONTINUOUS
10
4.75892
20
-3.0793
11
4.76108
21
-3.08596
0
LINE
8
BLACK
6
CONTINUOUS
10
4.76108
20
-3.08596
11
4.76181
21
-3.09291
0
LINE
8
BLACK
6
CONTINUOUS
10
4.76181
20
-3.09291
11
4.76108
21
-3.09987
0
LINE
8
BLACK
6
CONTINUOUS
10
4.76108
20
-3.09987
11
4.75892
21
-3.10652
0
LINE
8
BLACK
6
CONTINUOUS
10
4.75892
20
-3.10652
11
4.75542
21
-3.11258
0
LINE
8
BLACK
6
CONTINUOUS
10
4.75542
20
-3.11258
11
4.75074
21
-3.11778
0
LINE
8
BLACK
6
CONTINUOUS
10
4.75074
20
-3.11778
11
4.74508
21
-3.12189
0
LINE
8
BLACK
6
CONTINUOUS
10
4.74508
20
-3.12189
11
4.73869
21
-3.12474
0
LINE
8
BLACK
6
CONTINUOUS
10
4.73869
20
-3.12474
11
4.73184
21
-3.12619
0
LINE
8
BLACK
6
CONTINUOUS
10
4.73184
20
-3.12619
11
4.72485
21
-3.12619
0
LINE
8
BLACK
6
CONTINUOUS
10
4.72485
20
-3.12619
11
4.71801
21
-3.12474
0
LINE
8
BLACK
6
CONTINUOUS
10
4.71801
20
-3.12474
11
4.71161
21
-3.12189
0
LINE
8
BLACK
6
CONTINUOUS
10
4.71161
20
-3.12189
11
4.70595
21
-3.11778
0
LINE
8
BLACK
6
CONTINUOUS
10
4.70595
20
-3.11778
11
4.70127
21
-3.11258
0
LINE
8
BLACK
6
CONTINUOUS
10
4.70127
20
-3.11258
11
4.69778
21
-3.10652
0
LINE
8
BLACK
6
CONTINUOUS
10
4.69778
20
-3.10652
11
4.69561
21
-3.09987
0
LINE
8
BLACK
6
CONTINUOUS
10
4.69561
20
-3.09987
11
4.69488
21
-3.09291
0
LINE
8
BLACK
6
CONTINUOUS
10
4.69488
20
-3.09291
11
4.69561
21
-3.08596
0
LINE
8
BLACK
6
CONTINUOUS
10
4.69561
20
-3.08596
11
4.69778
21
-3.0793
0
LINE
8
BLACK
6
CONTINUOUS
10
4.69778
20
-3.0793
11
4.70127
21
-3.07324
0
LINE
8
BLACK
6
CONTINUOUS
10
4.70127
20
-3.07324
11
4.70595
21
-3.06804
0
LINE
8
BLACK
6
CONTINUOUS
10
4.70595
20
-3.06804
11
4.71161
21
-3.06393
0
LINE
8
BLACK
6
CONTINUOUS
10
4.71161
20
-3.06393
11
4.71801
21
-3.06109
0
LINE
8
BLACK
6
CONTINUOUS
10
4.71801
20
-3.06109
11
4.72485
21
-3.05963
0
LINE
8
BLACK
6
CONTINUOUS
10
4.72485
20
-3.05963
11
4.73184
21
-3.05963
0
LINE
8
BLACK
6
CONTINUOUS
10
4.73184
20
-3.05963
11
4.73869
21
-3.06109
0
LINE
8
BLACK
6
CONTINUOUS
10
5.99809
20
-3.0882
11
6.00065
21
-3.0899
0
LINE
8
BLACK
6
CONTINUOUS
10
6.00065
20
-3.0899
11
6.00235
21
-3.09246
0
LINE
8
BLACK
6
CONTINUOUS
10
6.00235
20
-3.09246
11
6.00295
21
-3.09547
0
LINE
8
BLACK
6
CONTINUOUS
10
6.00295
20
-3.09547
11
6.00295
21
-3.11122
0
LINE
8
BLACK
6
CONTINUOUS
10
6.00295
20
-3.11122
11
6.00235
21
-3.11423
0
LINE
8
BLACK
6
CONTINUOUS
10
6.00235
20
-3.11423
11
6.00065
21
-3.11679
0
LINE
8
BLACK
6
CONTINUOUS
10
6.00065
20
-3.11679
11
5.99809
21
-3.1185
0
LINE
8
BLACK
6
CONTINUOUS
10
5.99809
20
-3.1185
11
5.99508
21
-3.11909
0
LINE
8
BLACK
6
CONTINUOUS
10
5.99508
20
-3.11909
11
5.97343
21
-3.11909
0
LINE
8
BLACK
6
CONTINUOUS
10
5.97343
20
-3.11909
11
5.97041
21
-3.1185
0
LINE
8
BLACK
6
CONTINUOUS
10
5.97041
20
-3.1185
11
5.96786
21
-3.11679
0
LINE
8
BLACK
6
CONTINUOUS
10
5.96786
20
-3.11679
11
5.96615
21
-3.11423
0
LINE
8
BLACK
6
CONTINUOUS
10
5.96615
20
-3.11423
11
5.96555
21
-3.11122
0
LINE
8
BLACK
6
CONTINUOUS
10
5.96555
20
-3.11122
11
5.96555
21
-3.09547
0
LINE
8
BLACK
6
CONTINUOUS
10
5.96555
20
-3.09547
11
5.96615
21
-3.09246
0
LINE
8
BLACK
6
CONTINUOUS
10
5.96615
20
-3.09246
11
5.96786
21
-3.0899
0
LINE
8
BLACK
6
CONTINUOUS
10
5.96786
20
-3.0899
11
5.97041
21
-3.0882
0
LINE
8
BLACK
6
CONTINUOUS
10
5.97041
20
-3.0882
11
5.97343
21
-3.0876
0
LINE
8
BLACK
6
CONTINUOUS
10
5.97343
20
-3.0876
11
5.99508
21
-3.0876
0
LINE
8
BLACK
6
CONTINUOUS
10
5.99508
20
-3.0876
11
5.99809
21
-3.0882
0
LINE
8
BLACK
6
CONTINUOUS
10
5.3568
20
-3.04239
11
5.36319
21
-3.04523
0
LINE
8
BLACK
6
CONTINUOUS
10
5.36319
20
-3.04523
11
5.36885
21
-3.04934
0
LINE
8
BLACK
6
CONTINUOUS
10
5.36885
20
-3.04934
11
5.37353
21
-3.05454
0
LINE
8
BLACK
6
CONTINUOUS
10
5.37353
20
-3.05454
11
5.37703
21
-3.0606
0
LINE
8
BLACK
6
CONTINUOUS
10
5.37703
20
-3.0606
11
5.37919
21
-3.06725
0
LINE
8
BLACK
6
CONTINUOUS
10
5.37919
20
-3.06725
11
5.37992
21
-3.07421
0
LINE
8
BLACK
6
CONTINUOUS
10
5.37992
20
-3.07421
11
5.37919
21
-3.08117
0
LINE
8
BLACK
6
CONTINUOUS
10
5.37919
20
-3.08117
11
5.37703
21
-3.08782
0
LINE
8
BLACK
6
CONTINUOUS
10
5.37703
20
-3.08782
11
5.37353
21
-3.09388
0
LINE
8
BLACK
6
CONTINUOUS
10
5.37353
20
-3.09388
11
5.36885
21
-3.09908
0
LINE
8
BLACK
6
CONTINUOUS
10
5.36885
20
-3.09908
11
5.36319
21
-3.10319
0
LINE
8
BLACK
6
CONTINUOUS
10
5.36319
20
-3.10319
11
5.3568
21
-3.10604
0
LINE
8
BLACK
6
CONTINUOUS
10
5.3568
20
-3.10604
11
5.34995
21
-3.10749
0
LINE
8
BLACK
6
CONTINUOUS
10
5.34995
20
-3.10749
11
5.34296
21
-3.10749
0
LINE
8
BLACK
6
CONTINUOUS
10
5.34296
20
-3.10749
11
5.33612
21
-3.10604
0
LINE
8
BLACK
6
CONTINUOUS
10
5.33612
20
-3.10604
11
5.32972
21
-3.10319
0
LINE
8
BLACK
6
CONTINUOUS
10
5.32972
20
-3.10319
11
5.32406
21
-3.09908
0
LINE
8
BLACK
6
CONTINUOUS
10
5.32406
20
-3.09908
11
5.31938
21
-3.09388
0
LINE
8
BLACK
6
CONTINUOUS
10
5.31938
20
-3.09388
11
5.31589
21
-3.08782
0
LINE
8
BLACK
6
CONTINUOUS
10
5.31589
20
-3.08782
11
5.31372
21
-3.08117
0
LINE
8
BLACK
6
CONTINUOUS
10
5.31372
20
-3.08117
11
5.31299
21
-3.07421
0
LINE
8
BLACK
6
CONTINUOUS
10
5.31299
20
-3.07421
11
5.31372
21
-3.06725
0
LINE
8
BLACK
6
CONTINUOUS
10
5.31372
20
-3.06725
11
5.31589
21
-3.0606
0
LINE
8
BLACK
6
CONTINUOUS
10
5.31589
20
-3.0606
11
5.31938
21
-3.05454
0
LINE
8
BLACK
6
CONTINUOUS
10
5.31938
20
-3.05454
11
5.32406
21
-3.04934
0
LINE
8
BLACK
6
CONTINUOUS
10
5.32406
20
-3.04934
11
5.32972
21
-3.04523
0
LINE
8
BLACK
6
CONTINUOUS
10
5.32972
20
-3.04523
11
5.33612
21
-3.04239
0
LINE
8
BLACK
6
CONTINUOUS
10
5.33612
20
-3.04239
11
5.34296
21
-3.04093
0
LINE
8
BLACK
6
CONTINUOUS
10
5.34296
20
-3.04093
11
5.34995
21
-3.04093
0
LINE
8
BLACK
6
CONTINUOUS
10
5.34995
20
-3.04093
11
5.3568
21
-3.04239
0
LINE
8
BLACK
6
CONTINUOUS
10
4.25793
20
-3.05276
11
4.26049
21
-3.05447
0
LINE
8
BLACK
6
CONTINUOUS
10
4.26049
20
-3.05447
11
4.2622
21
-3.05703
0
LINE
8
BLACK
6
CONTINUOUS
10
4.2622
20
-3.05703
11
4.2628
21
-3.06004
0
LINE
8
BLACK
6
CONTINUOUS
10
4.2628
20
-3.06004
11
4.2628
21
-3.08169
0
LINE
8
BLACK
6
CONTINUOUS
10
4.2628
20
-3.08169
11
4.2622
21
-3.08471
0
LINE
8
BLACK
6
CONTINUOUS
10
4.2622
20
-3.08471
11
4.26049
21
-3.08726
0
LINE
8
BLACK
6
CONTINUOUS
10
4.26049
20
-3.08726
11
4.25793
21
-3.08897
0
LINE
8
BLACK
6
CONTINUOUS
10
4.25793
20
-3.08897
11
4.25492
21
-3.08957
0
LINE
8
BLACK
6
CONTINUOUS
10
4.25492
20
-3.08957
11
4.23917
21
-3.08957
0
LINE
8
BLACK
6
CONTINUOUS
10
4.23917
20
-3.08957
11
4.23616
21
-3.08897
0
LINE
8
BLACK
6
CONTINUOUS
10
4.23616
20
-3.08897
11
4.23361
21
-3.08726
0
LINE
8
BLACK
6
CONTINUOUS
10
4.23361
20
-3.08726
11
4.2319
21
-3.08471
0
LINE
8
BLACK
6
CONTINUOUS
10
4.2319
20
-3.08471
11
4.2313
21
-3.08169
0
LINE
8
BLACK
6
CONTINUOUS
10
4.2313
20
-3.08169
11
4.2313
21
-3.06004
0
LINE
8
BLACK
6
CONTINUOUS
10
4.2313
20
-3.06004
11
4.2319
21
-3.05703
0
LINE
8
BLACK
6
CONTINUOUS
10
4.2319
20
-3.05703
11
4.23361
21
-3.05447
0
LINE
8
BLACK
6
CONTINUOUS
10
4.23361
20
-3.05447
11
4.23616
21
-3.05276
0
LINE
8
BLACK
6
CONTINUOUS
10
4.23616
20
-3.05276
11
4.23917
21
-3.05217
0
LINE
8
BLACK
6
CONTINUOUS
10
4.23917
20
-3.05217
11
4.25492
21
-3.05217
0
LINE
8
BLACK
6
CONTINUOUS
10
4.25492
20
-3.05217
11
4.25793
21
-3.05276
0
LINE
8
BLACK
6
CONTINUOUS
10
4.3229
20
-3.05276
11
4.32545
21
-3.05447
0
LINE
8
BLACK
6
CONTINUOUS
10
4.32545
20
-3.05447
11
4.32716
21
-3.05703
0
LINE
8
BLACK
6
CONTINUOUS
10
4.32716
20
-3.05703
11
4.32776
21
-3.06004
0
LINE
8
BLACK
6
CONTINUOUS
10
4.32776
20
-3.06004
11
4.32776
21
-3.08169
0
LINE
8
BLACK
6
CONTINUOUS
10
4.32776
20
-3.08169
11
4.32716
21
-3.08471
0
LINE
8
BLACK
6
CONTINUOUS
10
4.32716
20
-3.08471
11
4.32545
21
-3.08726
0
LINE
8
BLACK
6
CONTINUOUS
10
4.32545
20
-3.08726
11
4.3229
21
-3.08897
0
LINE
8
BLACK
6
CONTINUOUS
10
4.3229
20
-3.08897
11
4.31988
21
-3.08957
0
LINE
8
BLACK
6
CONTINUOUS
10
4.31988
20
-3.08957
11
4.30413
21
-3.08957
0
LINE
8
BLACK
6
CONTINUOUS
10
4.30413
20
-3.08957
11
4.30112
21
-3.08897
0
LINE
8
BLACK
6
CONTINUOUS
10
4.30112
20
-3.08897
11
4.29857
21
-3.08726
0
LINE
8
BLACK
6
CONTINUOUS
10
4.29857
20
-3.08726
11
4.29686
21
-3.08471
0
LINE
8
BLACK
6
CONTINUOUS
10
4.29686
20
-3.08471
11
4.29626
21
-3.08169
0
LINE
8
BLACK
6
CONTINUOUS
10
4.29626
20
-3.08169
11
4.29626
21
-3.06004
0
LINE
8
BLACK
6
CONTINUOUS
10
4.29626
20
-3.06004
11
4.29686
21
-3.05703
0
LINE
8
BLACK
6
CONTINUOUS
10
4.29686
20
-3.05703
11
4.29857
21
-3.05447
0
LINE
8
BLACK
6
CONTINUOUS
10
4.29857
20
-3.05447
11
4.30112
21
-3.05276
0
LINE
8
BLACK
6
CONTINUOUS
10
4.30112
20
-3.05276
11
4.30413
21
-3.05217
0
LINE
8
BLACK
6
CONTINUOUS
10
4.30413
20
-3.05217
11
4.31988
21
-3.05217
0
LINE
8
BLACK
6
CONTINUOUS
10
4.31988
20
-3.05217
11
4.3229
21
-3.05276
0
LINE
8
BLACK
6
CONTINUOUS
10
5.62559
20
-3.08543
11
5.58622
21
-3.08543
0
LINE
8
BLACK
6
CONTINUOUS
10
5.58622
20
-3.08543
11
5.58622
21
-3.00276
0
LINE
8
BLACK
6
CONTINUOUS
10
5.58622
20
-3.00276
11
5.62559
21
-3.00276
0
LINE
8
BLACK
6
CONTINUOUS
10
5.62559
20
-3.00276
11
5.62559
21
-3.08543
0
LINE
8
BLACK
6
CONTINUOUS
10
5.82559
20
-3.08543
11
5.78622
21
-3.08543
0
LINE
8
BLACK
6
CONTINUOUS
10
5.78622
20
-3.08543
11
5.78622
21
-3.00276
0
LINE
8
BLACK
6
CONTINUOUS
10
5.78622
20
-3.00276
11
5.82559
21
-3.00276
0
LINE
8
BLACK
6
CONTINUOUS
10
5.82559
20
-3.00276
11
5.82559
21
-3.08543
0
LINE
8
BLACK
6
CONTINUOUS
10
5.92559
20
-3.08543
11
5.88622
21
-3.08543
0
LINE
8
BLACK
6
CONTINUOUS
10
5.88622
20
-3.08543
11
5.88622
21
-3.00276
0
LINE
8
BLACK
6
CONTINUOUS
10
5.88622
20
-3.00276
11
5.92559
21
-3.00276
0
LINE
8
BLACK
6
CONTINUOUS
10
5.92559
20
-3.00276
11
5.92559
21
-3.08543
0
LINE
8
BLACK
6
CONTINUOUS
10
5.99809
20
-3.02324
11
6.00065
21
-3.02494
0
LINE
8
BLACK
6
CONTINUOUS
10
6.00065
20
-3.02494
11
6.00235
21
-3.0275
0
LINE
8
BLACK
6
CONTINUOUS
10
6.00235
20
-3.0275
11
6.00295
21
-3.03051
0
LINE
8
BLACK
6
CONTINUOUS
10
6.00295
20
-3.03051
11
6.00295
21
-3.04626
0
LINE
8
BLACK
6
CONTINUOUS
10
6.00295
20
-3.04626
11
6.00235
21
-3.04927
0
LINE
8
BLACK
6
CONTINUOUS
10
6.00235
20
-3.04927
11
6.00065
21
-3.05183
0
LINE
8
BLACK
6
CONTINUOUS
10
6.00065
20
-3.05183
11
5.99809
21
-3.05353
0
LINE
8
BLACK
6
CONTINUOUS
10
5.99809
20
-3.05353
11
5.99508
21
-3.05413
0
LINE
8
BLACK
6
CONTINUOUS
10
5.99508
20
-3.05413
11
5.97343
21
-3.05413
0
LINE
8
BLACK
6
CONTINUOUS
10
5.97343
20
-3.05413
11
5.97041
21
-3.05353
0
LINE
8
BLACK
6
CONTINUOUS
10
5.97041
20
-3.05353
11
5.96786
21
-3.05183
0
LINE
8
BLACK
6
CONTINUOUS
10
5.96786
20
-3.05183
11
5.96615
21
-3.04927
0
LINE
8
BLACK
6
CONTINUOUS
10
5.96615
20
-3.04927
11
5.96555
21
-3.04626
0
LINE
8
BLACK
6
CONTINUOUS
10
5.96555
20
-3.04626
11
5.96555
21
-3.03051
0
LINE
8
BLACK
6
CONTINUOUS
10
5.96555
20
-3.03051
11
5.96615
21
-3.0275
0
LINE
8
BLACK
6
CONTINUOUS
10
5.96615
20
-3.0275
11
5.96786
21
-3.02494
0
LINE
8
BLACK
6
CONTINUOUS
10
5.96786
20
-3.02494
11
5.97041
21
-3.02324
0
LINE
8
BLACK
6
CONTINUOUS
10
5.97041
20
-3.02324
11
5.97343
21
-3.02264
0
LINE
8
BLACK
6
CONTINUOUS
10
5.97343
20
-3.02264
11
5.99508
21
-3.02264
0
LINE
8
BLACK
6
CONTINUOUS
10
5.99508
20
-3.02264
11
5.99809
21
-3.02324
0
LINE
8
BLACK
6
CONTINUOUS
10
6.08207
20
-2.99726
11
6.08826
21
-2.99881
0
LINE
8
BLACK
6
CONTINUOUS
10
6.08826
20
-2.99881
11
6.09391
21
-3.0018
0
LINE
8
BLACK
6
CONTINUOUS
10
6.09391
20
-3.0018
11
6.09867
21
-3.00605
0
LINE
8
BLACK
6
CONTINUOUS
10
6.09867
20
-3.00605
11
6.10229
21
-3.01131
0
LINE
8
BLACK
6
CONTINUOUS
10
6.10229
20
-3.01131
11
6.10455
21
-3.01728
0
LINE
8
BLACK
6
CONTINUOUS
10
6.10455
20
-3.01728
11
6.10531
21
-3.02362
0
LINE
8
BLACK
6
CONTINUOUS
10
6.10531
20
-3.02362
11
6.10531
21
-3.02418
0
LINE
8
BLACK
6
CONTINUOUS
10
6.10531
20
-3.02418
11
6.10441
21
-3.0305
0
LINE
8
BLACK
6
CONTINUOUS
10
6.10441
20
-3.0305
11
6.10203
21
-3.03642
0
LINE
8
BLACK
6
CONTINUOUS
10
6.10203
20
-3.03642
11
6.0983
21
-3.04161
0
LINE
8
BLACK
6
CONTINUOUS
10
6.0983
20
-3.04161
11
6.09345
21
-3.04576
0
LINE
8
BLACK
6
CONTINUOUS
10
6.09345
20
-3.04576
11
6.08774
21
-3.04863
0
LINE
8
BLACK
6
CONTINUOUS
10
6.08774
20
-3.04863
11
6.08152
21
-3.05005
0
LINE
8
BLACK
6
CONTINUOUS
10
6.08152
20
-3.05005
11
6.07513
21
-3.04995
0
LINE
8
BLACK
6
CONTINUOUS
10
6.07513
20
-3.04995
11
6.06896
21
-3.04833
0
LINE
8
BLACK
6
CONTINUOUS
10
6.06896
20
-3.04833
11
6.06335
21
-3.04528
0
LINE
8
BLACK
6
CONTINUOUS
10
6.06335
20
-3.04528
11
6.05862
21
-3.04099
0
LINE
8
BLACK
6
CONTINUOUS
10
6.05862
20
-3.04099
11
6.05506
21
-3.03569
0
LINE
8
BLACK
6
CONTINUOUS
10
6.05506
20
-3.03569
11
6.05287
21
-3.02969
0
LINE
8
BLACK
6
CONTINUOUS
10
6.05287
20
-3.02969
11
6.05217
21
-3.02334
0
LINE
8
BLACK
6
CONTINUOUS
10
6.05217
20
-3.02334
11
6.053
21
-3.01701
0
LINE
8
BLACK
6
CONTINUOUS
10
6.053
20
-3.01701
11
6.05532
21
-3.01106
0
LINE
8
BLACK
6
CONTINUOUS
10
6.05532
20
-3.01106
11
6.05899
21
-3.00584
0
LINE
8
BLACK
6
CONTINUOUS
10
6.05899
20
-3.00584
11
6.0638
21
-3.00164
0
LINE
8
BLACK
6
CONTINUOUS
10
6.0638
20
-3.00164
11
6.06948
21
-2.99871
0
LINE
8
BLACK
6
CONTINUOUS
10
6.06948
20
-2.99871
11
6.07569
21
-2.99722
0
LINE
8
BLACK
6
CONTINUOUS
10
6.07569
20
-2.99722
11
6.08207
21
-2.99726
0
LINE
8
BLACK
6
CONTINUOUS
10
3.80654
20
-3.00363
11
3.80941
21
-3.00555
0
LINE
8
BLACK
6
CONTINUOUS
10
3.80941
20
-3.00555
11
3.81133
21
-3.00842
0
LINE
8
BLACK
6
CONTINUOUS
10
3.81133
20
-3.00842
11
3.81201
21
-3.01181
0
LINE
8
BLACK
6
CONTINUOUS
10
3.81201
20
-3.01181
11
3.81201
21
-3.02953
0
LINE
8
BLACK
6
CONTINUOUS
10
3.81201
20
-3.02953
11
3.81133
21
-3.03292
0
LINE
8
BLACK
6
CONTINUOUS
10
3.81133
20
-3.03292
11
3.80941
21
-3.03579
0
LINE
8
BLACK
6
CONTINUOUS
10
3.80941
20
-3.03579
11
3.80654
21
-3.03771
0
LINE
8
BLACK
6
CONTINUOUS
10
3.80654
20
-3.03771
11
3.80315
21
-3.03839
0
LINE
8
BLACK
6
CONTINUOUS
10
3.80315
20
-3.03839
11
3.78346
21
-3.03839
0
LINE
8
BLACK
6
CONTINUOUS
10
3.78346
20
-3.03839
11
3.78007
21
-3.03771
0
LINE
8
BLACK
6
CONTINUOUS
10
3.78007
20
-3.03771
11
3.7772
21
-3.03579
0
LINE
8
BLACK
6
CONTINUOUS
10
3.7772
20
-3.03579
11
3.77528
21
-3.03292
0
LINE
8
BLACK
6
CONTINUOUS
10
3.77528
20
-3.03292
11
3.77461
21
-3.02953
0
LINE
8
BLACK
6
CONTINUOUS
10
3.77461
20
-3.02953
11
3.77461
21
-3.01181
0
LINE
8
BLACK
6
CONTINUOUS
10
3.77461
20
-3.01181
11
3.77528
21
-3.00842
0
LINE
8
BLACK
6
CONTINUOUS
10
3.77528
20
-3.00842
11
3.7772
21
-3.00555
0
LINE
8
BLACK
6
CONTINUOUS
10
3.7772
20
-3.00555
11
3.78007
21
-3.00363
0
LINE
8
BLACK
6
CONTINUOUS
10
3.78007
20
-3.00363
11
3.78346
21
-3.00295
0
LINE
8
BLACK
6
CONTINUOUS
10
3.78346
20
-3.00295
11
3.80315
21
-3.00295
0
LINE
8
BLACK
6
CONTINUOUS
10
3.80315
20
-3.00295
11
3.80654
21
-3.00363
0
LINE
8
BLACK
6
CONTINUOUS
10
4.73869
20
-2.96109
11
4.74508
21
-2.96393
0
LINE
8
BLACK
6
CONTINUOUS
10
4.74508
20
-2.96393
11
4.75074
21
-2.96804
0
LINE
8
BLACK
6
CONTINUOUS
10
4.75074
20
-2.96804
11
4.75542
21
-2.97324
0
LINE
8
BLACK
6
CONTINUOUS
10
4.75542
20
-2.97324
11
4.75892
21
-2.9793
0
LINE
8
BLACK
6
CONTINUOUS
10
4.75892
20
-2.9793
11
4.76108
21
-2.98596
0
LINE
8
BLACK
6
CONTINUOUS
10
4.76108
20
-2.98596
11
4.76181
21
-2.99291
0
LINE
8
BLACK
6
CONTINUOUS
10
4.76181
20
-2.99291
11
4.76108
21
-2.99987
0
LINE
8
BLACK
6
CONTINUOUS
10
4.76108
20
-2.99987
11
4.75892
21
-3.00652
0
LINE
8
BLACK
6
CONTINUOUS
10
4.75892
20
-3.00652
11
4.75542
21
-3.01258
0
LINE
8
BLACK
6
CONTINUOUS
10
4.75542
20
-3.01258
11
4.75074
21
-3.01778
0
LINE
8
BLACK
6
CONTINUOUS
10
4.75074
20
-3.01778
11
4.74508
21
-3.02189
0
LINE
8
BLACK
6
CONTINUOUS
10
4.74508
20
-3.02189
11
4.73869
21
-3.02474
0
LINE
8
BLACK
6
CONTINUOUS
10
4.73869
20
-3.02474
11
4.73184
21
-3.02619
0
LINE
8
BLACK
6
CONTINUOUS
10
4.73184
20
-3.02619
11
4.72485
21
-3.02619
0
LINE
8
BLACK
6
CONTINUOUS
10
4.72485
20
-3.02619
11
4.71801
21
-3.02474
0
LINE
8
BLACK
6
CONTINUOUS
10
4.71801
20
-3.02474
11
4.71161
21
-3.02189
0
LINE
8
BLACK
6
CONTINUOUS
10
4.71161
20
-3.02189
11
4.70595
21
-3.01778
0
LINE
8
BLACK
6
CONTINUOUS
10
4.70595
20
-3.01778
11
4.70127
21
-3.01258
0
LINE
8
BLACK
6
CONTINUOUS
10
4.70127
20
-3.01258
11
4.69778
21
-3.00652
0
LINE
8
BLACK
6
CONTINUOUS
10
4.69778
20
-3.00652
11
4.69561
21
-2.99987
0
LINE
8
BLACK
6
CONTINUOUS
10
4.69561
20
-2.99987
11
4.69488
21
-2.99291
0
LINE
8
BLACK
6
CONTINUOUS
10
4.69488
20
-2.99291
11
4.69561
21
-2.98596
0
LINE
8
BLACK
6
CONTINUOUS
10
4.69561
20
-2.98596
11
4.69778
21
-2.9793
0
LINE
8
BLACK
6
CONTINUOUS
10
4.69778
20
-2.9793
11
4.70127
21
-2.97324
0
LINE
8
BLACK
6
CONTINUOUS
10
4.70127
20
-2.97324
11
4.70595
21
-2.96804
0
LINE
8
BLACK
6
CONTINUOUS
10
4.70595
20
-2.96804
11
4.71161
21
-2.96393
0
LINE
8
BLACK
6
CONTINUOUS
10
4.71161
20
-2.96393
11
4.71801
21
-2.96109
0
LINE
8
BLACK
6
CONTINUOUS
10
4.71801
20
-2.96109
11
4.72485
21
-2.95963
0
LINE
8
BLACK
6
CONTINUOUS
10
4.72485
20
-2.95963
11
4.73184
21
-2.95963
0
LINE
8
BLACK
6
CONTINUOUS
10
4.73184
20
-2.95963
11
4.73869
21
-2.96109
0
LINE
8
BLACK
6
CONTINUOUS
10
4.25793
20
-2.98584
11
4.26049
21
-2.98754
0
LINE
8
BLACK
6
CONTINUOUS
10
4.26049
20
-2.98754
11
4.2622
21
-2.9901
0
LINE
8
BLACK
6
CONTINUOUS
10
4.2622
20
-2.9901
11
4.2628
21
-2.99311
0
LINE
8
BLACK
6
CONTINUOUS
10
4.2628
20
-2.99311
11
4.2628
21
-3.01476
0
LINE
8
BLACK
6
CONTINUOUS
10
4.2628
20
-3.01476
11
4.2622
21
-3.01778
0
LINE
8
BLACK
6
CONTINUOUS
10
4.2622
20
-3.01778
11
4.26049
21
-3.02033
0
LINE
8
BLACK
6
CONTINUOUS
10
4.26049
20
-3.02033
11
4.25793
21
-3.02204
0
LINE
8
BLACK
6
CONTINUOUS
10
4.25793
20
-3.02204
11
4.25492
21
-3.02264
0
LINE
8
BLACK
6
CONTINUOUS
10
4.25492
20
-3.02264
11
4.23917
21
-3.02264
0
LINE
8
BLACK
6
CONTINUOUS
10
4.23917
20
-3.02264
11
4.23616
21
-3.02204
0
LINE
8
BLACK
6
CONTINUOUS
10
4.23616
20
-3.02204
11
4.23361
21
-3.02033
0
LINE
8
BLACK
6
CONTINUOUS
10
4.23361
20
-3.02033
11
4.2319
21
-3.01778
0
LINE
8
BLACK
6
CONTINUOUS
10
4.2319
20
-3.01778
11
4.2313
21
-3.01476
0
LINE
8
BLACK
6
CONTINUOUS
10
4.2313
20
-3.01476
11
4.2313
21
-2.99311
0
LINE
8
BLACK
6
CONTINUOUS
10
4.2313
20
-2.99311
11
4.2319
21
-2.9901
0
LINE
8
BLACK
6
CONTINUOUS
10
4.2319
20
-2.9901
11
4.23361
21
-2.98754
0
LINE
8
BLACK
6
CONTINUOUS
10
4.23361
20
-2.98754
11
4.23616
21
-2.98584
0
LINE
8
BLACK
6
CONTINUOUS
10
4.23616
20
-2.98584
11
4.23917
21
-2.98524
0
LINE
8
BLACK
6
CONTINUOUS
10
4.23917
20
-2.98524
11
4.25492
21
-2.98524
0
LINE
8
BLACK
6
CONTINUOUS
10
4.25492
20
-2.98524
11
4.25793
21
-2.98584
0
LINE
8
BLACK
6
CONTINUOUS
10
4.3229
20
-2.98584
11
4.32545
21
-2.98754
0
LINE
8
BLACK
6
CONTINUOUS
10
4.32545
20
-2.98754
11
4.32716
21
-2.9901
0
LINE
8
BLACK
6
CONTINUOUS
10
4.32716
20
-2.9901
11
4.32776
21
-2.99311
0
LINE
8
BLACK
6
CONTINUOUS
10
4.32776
20
-2.99311
11
4.32776
21
-3.01476
0
LINE
8
BLACK
6
CONTINUOUS
10
4.32776
20
-3.01476
11
4.32716
21
-3.01778
0
LINE
8
BLACK
6
CONTINUOUS
10
4.32716
20
-3.01778
11
4.32545
21
-3.02033
0
LINE
8
BLACK
6
CONTINUOUS
10
4.32545
20
-3.02033
11
4.3229
21
-3.02204
0
LINE
8
BLACK
6
CONTINUOUS
10
4.3229
20
-3.02204
11
4.31988
21
-3.02264
0
LINE
8
BLACK
6
CONTINUOUS
10
4.31988
20
-3.02264
11
4.30413
21
-3.02264
0
LINE
8
BLACK
6
CONTINUOUS
10
4.30413
20
-3.02264
11
4.30112
21
-3.02204
0
LINE
8
BLACK
6
CONTINUOUS
10
4.30112
20
-3.02204
11
4.29857
21
-3.02033
0
LINE
8
BLACK
6
CONTINUOUS
10
4.29857
20
-3.02033
11
4.29686
21
-3.01778
0
LINE
8
BLACK
6
CONTINUOUS
10
4.29686
20
-3.01778
11
4.29626
21
-3.01476
0
LINE
8
BLACK
6
CONTINUOUS
10
4.29626
20
-3.01476
11
4.29626
21
-2.99311
0
LINE
8
BLACK
6
CONTINUOUS
10
4.29626
20
-2.99311
11
4.29686
21
-2.9901
0
LINE
8
BLACK
6
CONTINUOUS
10
4.29686
20
-2.9901
11
4.29857
21
-2.98754
0
LINE
8
BLACK
6
CONTINUOUS
10
4.29857
20
-2.98754
11
4.30112
21
-2.98584
0
LINE
8
BLACK
6
CONTINUOUS
10
4.30112
20
-2.98584
11
4.30413
21
-2.98524
0
LINE
8
BLACK
6
CONTINUOUS
10
4.30413
20
-2.98524
11
4.31988
21
-2.98524
0
LINE
8
BLACK
6
CONTINUOUS
10
4.31988
20
-2.98524
11
4.3229
21
-2.98584
0
LINE
8
BLACK
6
CONTINUOUS
10
5.3568
20
-2.94239
11
5.36319
21
-2.94523
0
LINE
8
BLACK
6
CONTINUOUS
10
5.36319
20
-2.94523
11
5.36885
21
-2.94934
0
LINE
8
BLACK
6
CONTINUOUS
10
5.36885
20
-2.94934
11
5.37353
21
-2.95454
0
LINE
8
BLACK
6
CONTINUOUS
10
5.37353
20
-2.95454
11
5.37703
21
-2.9606
0
LINE
8
BLACK
6
CONTINUOUS
10
5.37703
20
-2.9606
11
5.37919
21
-2.96725
0
LINE
8
BLACK
6
CONTINUOUS
10
5.37919
20
-2.96725
11
5.37992
21
-2.97421
0
LINE
8
BLACK
6
CONTINUOUS
10
5.37992
20
-2.97421
11
5.37919
21
-2.98117
0
LINE
8
BLACK
6
CONTINUOUS
10
5.37919
20
-2.98117
11
5.37703
21
-2.98782
0
LINE
8
BLACK
6
CONTINUOUS
10
5.37703
20
-2.98782
11
5.37353
21
-2.99388
0
LINE
8
BLACK
6
CONTINUOUS
10
5.37353
20
-2.99388
11
5.36885
21
-2.99908
0
LINE
8
BLACK
6
CONTINUOUS
10
5.36885
20
-2.99908
11
5.36319
21
-3.00319
0
LINE
8
BLACK
6
CONTINUOUS
10
5.36319
20
-3.00319
11
5.3568
21
-3.00604
0
LINE
8
BLACK
6
CONTINUOUS
10
5.3568
20
-3.00604
11
5.34995
21
-3.00749
0
LINE
8
BLACK
6
CONTINUOUS
10
5.34995
20
-3.00749
11
5.34296
21
-3.00749
0
LINE
8
BLACK
6
CONTINUOUS
10
5.34296
20
-3.00749
11
5.33612
21
-3.00604
0
LINE
8
BLACK
6
CONTINUOUS
10
5.33612
20
-3.00604
11
5.32972
21
-3.00319
0
LINE
8
BLACK
6
CONTINUOUS
10
5.32972
20
-3.00319
11
5.32406
21
-2.99908
0
LINE
8
BLACK
6
CONTINUOUS
10
5.32406
20
-2.99908
11
5.31938
21
-2.99388
0
LINE
8
BLACK
6
CONTINUOUS
10
5.31938
20
-2.99388
11
5.31589
21
-2.98782
0
LINE
8
BLACK
6
CONTINUOUS
10
5.31589
20
-2.98782
11
5.31372
21
-2.98117
0
LINE
8
BLACK
6
CONTINUOUS
10
5.31372
20
-2.98117
11
5.31299
21
-2.97421
0
LINE
8
BLACK
6
CONTINUOUS
10
5.31299
20
-2.97421
11
5.31372
21
-2.96725
0
LINE
8
BLACK
6
CONTINUOUS
10
5.31372
20
-2.96725
11
5.31589
21
-2.9606
0
LINE
8
BLACK
6
CONTINUOUS
10
5.31589
20
-2.9606
11
5.31938
21
-2.95454
0
LINE
8
BLACK
6
CONTINUOUS
10
5.31938
20
-2.95454
11
5.32406
21
-2.94934
0
LINE
8
BLACK
6
CONTINUOUS
10
5.32406
20
-2.94934
11
5.32972
21
-2.94523
0
LINE
8
BLACK
6
CONTINUOUS
10
5.32972
20
-2.94523
11
5.33612
21
-2.94239
0
LINE
8
BLACK
6
CONTINUOUS
10
5.33612
20
-2.94239
11
5.34296
21
-2.94093
0
LINE
8
BLACK
6
CONTINUOUS
10
5.34296
20
-2.94093
11
5.34995
21
-2.94093
0
LINE
8
BLACK
6
CONTINUOUS
10
5.34995
20
-2.94093
11
5.3568
21
-2.94239
0
LINE
8
BLACK
6
CONTINUOUS
10
5.91286
20
-2.95631
11
5.91458
21
-2.95746
0
LINE
8
BLACK
6
CONTINUOUS
10
5.91458
20
-2.95746
11
5.91574
21
-2.95919
0
LINE
8
BLACK
6
CONTINUOUS
10
5.91574
20
-2.95919
11
5.91614
21
-2.96122
0
LINE
8
BLACK
6
CONTINUOUS
10
5.91614
20
-2.96122
11
5.91614
21
-2.97579
0
LINE
8
BLACK
6
CONTINUOUS
10
5.91614
20
-2.97579
11
5.91574
21
-2.97782
0
LINE
8
BLACK
6
CONTINUOUS
10
5.91574
20
-2.97782
11
5.91458
21
-2.97955
0
LINE
8
BLACK
6
CONTINUOUS
10
5.91458
20
-2.97955
11
5.91286
21
-2.9807
0
LINE
8
BLACK
6
CONTINUOUS
10
5.91286
20
-2.9807
11
5.91083
21
-2.9811
0
LINE
8
BLACK
6
CONTINUOUS
10
5.91083
20
-2.9811
11
5.9002
21
-2.9811
0
LINE
8
BLACK
6
CONTINUOUS
10
5.9002
20
-2.9811
11
5.89816
21
-2.9807
0
LINE
8
BLACK
6
CONTINUOUS
10
5.89816
20
-2.9807
11
5.89644
21
-2.97955
0
LINE
8
BLACK
6
CONTINUOUS
10
5.89644
20
-2.97955
11
5.89529
21
-2.97782
0
LINE
8
BLACK
6
CONTINUOUS
10
5.89529
20
-2.97782
11
5.89488
21
-2.97579
0
LINE
8
BLACK
6
CONTINUOUS
10
5.89488
20
-2.97579
11
5.89488
21
-2.96122
0
LINE
8
BLACK
6
CONTINUOUS
10
5.89488
20
-2.96122
11
5.89529
21
-2.95919
0
LINE
8
BLACK
6
CONTINUOUS
10
5.89529
20
-2.95919
11
5.89644
21
-2.95746
0
LINE
8
BLACK
6
CONTINUOUS
10
5.89644
20
-2.95746
11
5.89816
21
-2.95631
0
LINE
8
BLACK
6
CONTINUOUS
10
5.89816
20
-2.95631
11
5.9002
21
-2.95591
0
LINE
8
BLACK
6
CONTINUOUS
10
5.9002
20
-2.95591
11
5.91083
21
-2.95591
0
LINE
8
BLACK
6
CONTINUOUS
10
5.91083
20
-2.95591
11
5.91286
21
-2.95631
0
LINE
8
BLACK
6
CONTINUOUS
10
5.95302
20
-2.95631
11
5.95474
21
-2.95746
0
LINE
8
BLACK
6
CONTINUOUS
10
5.95474
20
-2.95746
11
5.95589
21
-2.95919
0
LINE
8
BLACK
6
CONTINUOUS
10
5.95589
20
-2.95919
11
5.9563
21
-2.96122
0
LINE
8
BLACK
6
CONTINUOUS
10
5.9563
20
-2.96122
11
5.9563
21
-2.97579
0
LINE
8
BLACK
6
CONTINUOUS
10
5.9563
20
-2.97579
11
5.95589
21
-2.97782
0
LINE
8
BLACK
6
CONTINUOUS
10
5.95589
20
-2.97782
11
5.95474
21
-2.97955
0
LINE
8
BLACK
6
CONTINUOUS
10
5.95474
20
-2.97955
11
5.95302
21
-2.9807
0
LINE
8
BLACK
6
CONTINUOUS
10
5.95302
20
-2.9807
11
5.95098
21
-2.9811
0
LINE
8
BLACK
6
CONTINUOUS
10
5.95098
20
-2.9811
11
5.94035
21
-2.9811
0
LINE
8
BLACK
6
CONTINUOUS
10
5.94035
20
-2.9811
11
5.93832
21
-2.9807
0
LINE
8
BLACK
6
CONTINUOUS
10
5.93832
20
-2.9807
11
5.9366
21
-2.97955
0
LINE
8
BLACK
6
CONTINUOUS
10
5.9366
20
-2.97955
11
5.93544
21
-2.97782
0
LINE
8
BLACK
6
CONTINUOUS
10
5.93544
20
-2.97782
11
5.93504
21
-2.97579
0
LINE
8
BLACK
6
CONTINUOUS
10
5.93504
20
-2.97579
11
5.93504
21
-2.96122
0
LINE
8
BLACK
6
CONTINUOUS
10
5.93504
20
-2.96122
11
5.93544
21
-2.95919
0
LINE
8
BLACK
6
CONTINUOUS
10
5.93544
20
-2.95919
11
5.9366
21
-2.95746
0
LINE
8
BLACK
6
CONTINUOUS
10
5.9366
20
-2.95746
11
5.93832
21
-2.95631
0
LINE
8
BLACK
6
CONTINUOUS
10
5.93832
20
-2.95631
11
5.94035
21
-2.95591
0
LINE
8
BLACK
6
CONTINUOUS
10
5.94035
20
-2.95591
11
5.95098
21
-2.95591
0
LINE
8
BLACK
6
CONTINUOUS
10
5.95098
20
-2.95591
11
5.95302
21
-2.95631
0
LINE
8
BLACK
6
CONTINUOUS
10
3.80654
20
-2.9426
11
3.80941
21
-2.94452
0
LINE
8
BLACK
6
CONTINUOUS
10
3.80941
20
-2.94452
11
3.81133
21
-2.9474
0
LINE
8
BLACK
6
CONTINUOUS
10
3.81133
20
-2.9474
11
3.81201
21
-2.95079
0
LINE
8
BLACK
6
CONTINUOUS
10
3.81201
20
-2.95079
11
3.81201
21
-2.9685
0
LINE
8
BLACK
6
CONTINUOUS
10
3.81201
20
-2.9685
11
3.81133
21
-2.97189
0
LINE
8
BLACK
6
CONTINUOUS
10
3.81133
20
-2.97189
11
3.80941
21
-2.97477
0
LINE
8
BLACK
6
CONTINUOUS
10
3.80941
20
-2.97477
11
3.80654
21
-2.97669
0
LINE
8
BLACK
6
CONTINUOUS
10
3.80654
20
-2.97669
11
3.80315
21
-2.97736
0
LINE
8
BLACK
6
CONTINUOUS
10
3.80315
20
-2.97736
11
3.78346
21
-2.97736
0
LINE
8
BLACK
6
CONTINUOUS
10
3.78346
20
-2.97736
11
3.78007
21
-2.97669
0
LINE
8
BLACK
6
CONTINUOUS
10
3.78007
20
-2.97669
11
3.7772
21
-2.97477
0
LINE
8
BLACK
6
CONTINUOUS
10
3.7772
20
-2.97477
11
3.77528
21
-2.97189
0
LINE
8
BLACK
6
CONTINUOUS
10
3.77528
20
-2.97189
11
3.77461
21
-2.9685
0
LINE
8
BLACK
6
CONTINUOUS
10
3.77461
20
-2.9685
11
3.77461
21
-2.95079
0
LINE
8
BLACK
6
CONTINUOUS
10
3.77461
20
-2.95079
11
3.77528
21
-2.9474
0
LINE
8
BLACK
6
CONTINUOUS
10
3.77528
20
-2.9474
11
3.7772
21
-2.94452
0
LINE
8
BLACK
6
CONTINUOUS
10
3.7772
20
-2.94452
11
3.78007
21
-2.9426
0
LINE
8
BLACK
6
CONTINUOUS
10
3.78007
20
-2.9426
11
3.78346
21
-2.94193
0
LINE
8
BLACK
6
CONTINUOUS
10
3.78346
20
-2.94193
11
3.80315
21
-2.94193
0
LINE
8
BLACK
6
CONTINUOUS
10
3.80315
20
-2.94193
11
3.80654
21
-2.9426
0
LINE
8
BLACK
6
CONTINUOUS
10
5.82034
20
-2.95474
11
5.82207
21
-2.95589
0
LINE
8
BLACK
6
CONTINUOUS
10
5.82207
20
-2.95589
11
5.82322
21
-2.95761
0
LINE
8
BLACK
6
CONTINUOUS
10
5.82322
20
-2.95761
11
5.82362
21
-2.95965
0
LINE
8
BLACK
6
CONTINUOUS
10
5.82362
20
-2.95965
11
5.82362
21
-2.97028
0
LINE
8
BLACK
6
CONTINUOUS
10
5.82362
20
-2.97028
11
5.82322
21
-2.97231
0
LINE
8
BLACK
6
CONTINUOUS
10
5.82322
20
-2.97231
11
5.82207
21
-2.97403
0
LINE
8
BLACK
6
CONTINUOUS
10
5.82207
20
-2.97403
11
5.82034
21
-2.97519
0
LINE
8
BLACK
6
CONTINUOUS
10
5.82034
20
-2.97519
11
5.81831
21
-2.97559
0
LINE
8
BLACK
6
CONTINUOUS
10
5.81831
20
-2.97559
11
5.80374
21
-2.97559
0
LINE
8
BLACK
6
CONTINUOUS
10
5.80374
20
-2.97559
11
5.80171
21
-2.97519
0
LINE
8
BLACK
6
CONTINUOUS
10
5.80171
20
-2.97519
11
5.79998
21
-2.97403
0
LINE
8
BLACK
6
CONTINUOUS
10
5.79998
20
-2.97403
11
5.79883
21
-2.97231
0
LINE
8
BLACK
6
CONTINUOUS
10
5.79883
20
-2.97231
11
5.79843
21
-2.97028
0
LINE
8
BLACK
6
CONTINUOUS
10
5.79843
20
-2.97028
11
5.79843
21
-2.95965
0
LINE
8
BLACK
6
CONTINUOUS
10
5.79843
20
-2.95965
11
5.79883
21
-2.95761
0
LINE
8
BLACK
6
CONTINUOUS
10
5.79883
20
-2.95761
11
5.79998
21
-2.95589
0
LINE
8
BLACK
6
CONTINUOUS
10
5.79998
20
-2.95589
11
5.80171
21
-2.95474
0
LINE
8
BLACK
6
CONTINUOUS
10
5.80171
20
-2.95474
11
5.80374
21
-2.95433
0
LINE
8
BLACK
6
CONTINUOUS
10
5.80374
20
-2.95433
11
5.81831
21
-2.95433
0
LINE
8
BLACK
6
CONTINUOUS
10
5.81831
20
-2.95433
11
5.82034
21
-2.95474
0
LINE
8
BLACK
6
CONTINUOUS
10
5.85971
20
-2.95474
11
5.86144
21
-2.95589
0
LINE
8
BLACK
6
CONTINUOUS
10
5.86144
20
-2.95589
11
5.86259
21
-2.95761
0
LINE
8
BLACK
6
CONTINUOUS
10
5.86259
20
-2.95761
11
5.86299
21
-2.95965
0
LINE
8
BLACK
6
CONTINUOUS
10
5.86299
20
-2.95965
11
5.86299
21
-2.97028
0
LINE
8
BLACK
6
CONTINUOUS
10
5.86299
20
-2.97028
11
5.86259
21
-2.97231
0
LINE
8
BLACK
6
CONTINUOUS
10
5.86259
20
-2.97231
11
5.86144
21
-2.97403
0
LINE
8
BLACK
6
CONTINUOUS
10
5.86144
20
-2.97403
11
5.85971
21
-2.97519
0
LINE
8
BLACK
6
CONTINUOUS
10
5.85971
20
-2.97519
11
5.85768
21
-2.97559
0
LINE
8
BLACK
6
CONTINUOUS
10
5.85768
20
-2.97559
11
5.84311
21
-2.97559
0
LINE
8
BLACK
6
CONTINUOUS
10
5.84311
20
-2.97559
11
5.84108
21
-2.97519
0
LINE
8
BLACK
6
CONTINUOUS
10
5.84108
20
-2.97519
11
5.83935
21
-2.97403
0
LINE
8
BLACK
6
CONTINUOUS
10
5.83935
20
-2.97403
11
5.8382
21
-2.97231
0
LINE
8
BLACK
6
CONTINUOUS
10
5.8382
20
-2.97231
11
5.8378
21
-2.97028
0
LINE
8
BLACK
6
CONTINUOUS
10
5.8378
20
-2.97028
11
5.8378
21
-2.95965
0
LINE
8
BLACK
6
CONTINUOUS
10
5.8378
20
-2.95965
11
5.8382
21
-2.95761
0
LINE
8
BLACK
6
CONTINUOUS
10
5.8382
20
-2.95761
11
5.83935
21
-2.95589
0
LINE
8
BLACK
6
CONTINUOUS
10
5.83935
20
-2.95589
11
5.84108
21
-2.95474
0
LINE
8
BLACK
6
CONTINUOUS
10
5.84108
20
-2.95474
11
5.84311
21
-2.95433
0
LINE
8
BLACK
6
CONTINUOUS
10
5.84311
20
-2.95433
11
5.85768
21
-2.95433
0
LINE
8
BLACK
6
CONTINUOUS
10
5.85768
20
-2.95433
11
5.85971
21
-2.95474
0
LINE
8
BLACK
6
CONTINUOUS
10
6.08207
20
-2.91852
11
6.08826
21
-2.92007
0
LINE
8
BLACK
6
CONTINUOUS
10
6.08826
20
-2.92007
11
6.09391
21
-2.92306
0
LINE
8
BLACK
6
CONTINUOUS
10
6.09391
20
-2.92306
11
6.09867
21
-2.92731
0
LINE
8
BLACK
6
CONTINUOUS
10
6.09867
20
-2.92731
11
6.10229
21
-2.93257
0
LINE
8
BLACK
6
CONTINUOUS
10
6.10229
20
-2.93257
11
6.10455
21
-2.93854
0
LINE
8
BLACK
6
CONTINUOUS
10
6.10455
20
-2.93854
11
6.10531
21
-2.94488
0
LINE
8
BLACK
6
CONTINUOUS
10
6.10531
20
-2.94488
11
6.10531
21
-2.94544
0
LINE
8
BLACK
6
CONTINUOUS
10
6.10531
20
-2.94544
11
6.10441
21
-2.95176
0
LINE
8
BLACK
6
CONTINUOUS
10
6.10441
20
-2.95176
11
6.10203
21
-2.95768
0
LINE
8
BLACK
6
CONTINUOUS
10
6.10203
20
-2.95768
11
6.0983
21
-2.96287
0
LINE
8
BLACK
6
CONTINUOUS
10
6.0983
20
-2.96287
11
6.09345
21
-2.96702
0
LINE
8
BLACK
6
CONTINUOUS
10
6.09345
20
-2.96702
11
6.08774
21
-2.96989
0
LINE
8
BLACK
6
CONTINUOUS
10
6.08774
20
-2.96989
11
6.08152
21
-2.97131
0
LINE
8
BLACK
6
CONTINUOUS
10
6.08152
20
-2.97131
11
6.07513
21
-2.97121
0
LINE
8
BLACK
6
CONTINUOUS
10
6.07513
20
-2.97121
11
6.06896
21
-2.96959
0
LINE
8
BLACK
6
CONTINUOUS
10
6.06896
20
-2.96959
11
6.06335
21
-2.96654
0
LINE
8
BLACK
6
CONTINUOUS
10
6.06335
20
-2.96654
11
6.05862
21
-2.96225
0
LINE
8
BLACK
6
CONTINUOUS
10
6.05862
20
-2.96225
11
6.05506
21
-2.95695
0
LINE
8
BLACK
6
CONTINUOUS
10
6.05506
20
-2.95695
11
6.05287
21
-2.95095
0
LINE
8
BLACK
6
CONTINUOUS
10
6.05287
20
-2.95095
11
6.05217
21
-2.9446
0
LINE
8
BLACK
6
CONTINUOUS
10
6.05217
20
-2.9446
11
6.053
21
-2.93827
0
LINE
8
BLACK
6
CONTINUOUS
10
6.053
20
-2.93827
11
6.05532
21
-2.93232
0
LINE
8
BLACK
6
CONTINUOUS
10
6.05532
20
-2.93232
11
6.05899
21
-2.9271
0
LINE
8
BLACK
6
CONTINUOUS
10
6.05899
20
-2.9271
11
6.0638
21
-2.9229
0
LINE
8
BLACK
6
CONTINUOUS
10
6.0638
20
-2.9229
11
6.06948
21
-2.91997
0
LINE
8
BLACK
6
CONTINUOUS
10
6.06948
20
-2.91997
11
6.07569
21
-2.91848
0
LINE
8
BLACK
6
CONTINUOUS
10
6.07569
20
-2.91848
11
6.08207
21
-2.91852
0
LINE
8
BLACK
6
CONTINUOUS
10
5.76998
20
-2.94553
11
5.77189
21
-2.94681
0
LINE
8
BLACK
6
CONTINUOUS
10
5.77189
20
-2.94681
11
5.77317
21
-2.94872
0
LINE
8
BLACK
6
CONTINUOUS
10
5.77317
20
-2.94872
11
5.77362
21
-2.95098
0
LINE
8
BLACK
6
CONTINUOUS
10
5.77362
20
-2.95098
11
5.77362
21
-2.9628
0
LINE
8
BLACK
6
CONTINUOUS
10
5.77362
20
-2.9628
11
5.77317
21
-2.96506
0
LINE
8
BLACK
6
CONTINUOUS
10
5.77317
20
-2.96506
11
5.77189
21
-2.96697
0
LINE
8
BLACK
6
CONTINUOUS
10
5.77189
20
-2.96697
11
5.76998
21
-2.96825
0
LINE
8
BLACK
6
CONTINUOUS
10
5.76998
20
-2.96825
11
5.76772
21
-2.9687
0
LINE
8
BLACK
6
CONTINUOUS
10
5.76772
20
-2.9687
11
5.70276
21
-2.9687
0
LINE
8
BLACK
6
CONTINUOUS
10
5.70276
20
-2.9687
11
5.7005
21
-2.96825
0
LINE
8
BLACK
6
CONTINUOUS
10
5.7005
20
-2.96825
11
5.69858
21
-2.96697
0
LINE
8
BLACK
6
CONTINUOUS
10
5.69858
20
-2.96697
11
5.6973
21
-2.96506
0
LINE
8
BLACK
6
CONTINUOUS
10
5.6973
20
-2.96506
11
5.69685
21
-2.9628
0
LINE
8
BLACK
6
CONTINUOUS
10
5.69685
20
-2.9628
11
5.69685
21
-2.95098
0
LINE
8
BLACK
6
CONTINUOUS
10
5.69685
20
-2.95098
11
5.6973
21
-2.94872
0
LINE
8
BLACK
6
CONTINUOUS
10
5.6973
20
-2.94872
11
5.69858
21
-2.94681
0
LINE
8
BLACK
6
CONTINUOUS
10
5.69858
20
-2.94681
11
5.7005
21
-2.94553
0
LINE
8
BLACK
6
CONTINUOUS
10
5.7005
20
-2.94553
11
5.70276
21
-2.94508
0
LINE
8
BLACK
6
CONTINUOUS
10
5.70276
20
-2.94508
11
5.76772
21
-2.94508
0
LINE
8
BLACK
6
CONTINUOUS
10
5.76772
20
-2.94508
11
5.76998
21
-2.94553
0
LINE
8
BLACK
6
CONTINUOUS
10
5.57509
20
-2.94553
11
5.57701
21
-2.94681
0
LINE
8
BLACK
6
CONTINUOUS
10
5.57701
20
-2.94681
11
5.57829
21
-2.94872
0
LINE
8
BLACK
6
CONTINUOUS
10
5.57829
20
-2.94872
11
5.57874
21
-2.95098
0
LINE
8
BLACK
6
CONTINUOUS
10
5.57874
20
-2.95098
11
5.57874
21
-2.9628
0
LINE
8
BLACK
6
CONTINUOUS
10
5.57874
20
-2.9628
11
5.57829
21
-2.96506
0
LINE
8
BLACK
6
CONTINUOUS
10
5.57829
20
-2.96506
11
5.57701
21
-2.96697
0
LINE
8
BLACK
6
CONTINUOUS
10
5.57701
20
-2.96697
11
5.57509
21
-2.96825
0
LINE
8
BLACK
6
CONTINUOUS
10
5.57509
20
-2.96825
11
5.57283
21
-2.9687
0
LINE
8
BLACK
6
CONTINUOUS
10
5.57283
20
-2.9687
11
5.50787
21
-2.9687
0
LINE
8
BLACK
6
CONTINUOUS
10
5.50787
20
-2.9687
11
5.50561
21
-2.96825
0
LINE
8
BLACK
6
CONTINUOUS
10
5.50561
20
-2.96825
11
5.5037
21
-2.96697
0
LINE
8
BLACK
6
CONTINUOUS
10
5.5037
20
-2.96697
11
5.50242
21
-2.96506
0
LINE
8
BLACK
6
CONTINUOUS
10
5.50242
20
-2.96506
11
5.50197
21
-2.9628
0
LINE
8
BLACK
6
CONTINUOUS
10
5.50197
20
-2.9628
11
5.50197
21
-2.95098
0
LINE
8
BLACK
6
CONTINUOUS
10
5.50197
20
-2.95098
11
5.50242
21
-2.94872
0
LINE
8
BLACK
6
CONTINUOUS
10
5.50242
20
-2.94872
11
5.5037
21
-2.94681
0
LINE
8
BLACK
6
CONTINUOUS
10
5.5037
20
-2.94681
11
5.50561
21
-2.94553
0
LINE
8
BLACK
6
CONTINUOUS
10
5.50561
20
-2.94553
11
5.50787
21
-2.94508
0
LINE
8
BLACK
6
CONTINUOUS
10
5.50787
20
-2.94508
11
5.57283
21
-2.94508
0
LINE
8
BLACK
6
CONTINUOUS
10
5.57283
20
-2.94508
11
5.57509
21
-2.94553
0
LINE
8
BLACK
6
CONTINUOUS
10
4.26187
20
-2.91103
11
4.26443
21
-2.91274
0
LINE
8
BLACK
6
CONTINUOUS
10
4.26443
20
-2.91274
11
4.26613
21
-2.91529
0
LINE
8
BLACK
6
CONTINUOUS
10
4.26613
20
-2.91529
11
4.26673
21
-2.91831
0
LINE
8
BLACK
6
CONTINUOUS
10
4.26673
20
-2.91831
11
4.26673
21
-2.93996
0
LINE
8
BLACK
6
CONTINUOUS
10
4.26673
20
-2.93996
11
4.26613
21
-2.94297
0
LINE
8
BLACK
6
CONTINUOUS
10
4.26613
20
-2.94297
11
4.26443
21
-2.94553
0
LINE
8
BLACK
6
CONTINUOUS
10
4.26443
20
-2.94553
11
4.26187
21
-2.94724
0
LINE
8
BLACK
6
CONTINUOUS
10
4.26187
20
-2.94724
11
4.25886
21
-2.94783
0
LINE
8
BLACK
6
CONTINUOUS
10
4.25886
20
-2.94783
11
4.24311
21
-2.94783
0
LINE
8
BLACK
6
CONTINUOUS
10
4.24311
20
-2.94783
11
4.2401
21
-2.94724
0
LINE
8
BLACK
6
CONTINUOUS
10
4.2401
20
-2.94724
11
4.23754
21
-2.94553
0
LINE
8
BLACK
6
CONTINUOUS
10
4.23754
20
-2.94553
11
4.23584
21
-2.94297
0
LINE
8
BLACK
6
CONTINUOUS
10
4.23584
20
-2.94297
11
4.23524
21
-2.93996
0
LINE
8
BLACK
6
CONTINUOUS
10
4.23524
20
-2.93996
11
4.23524
21
-2.91831
0
LINE
8
BLACK
6
CONTINUOUS
10
4.23524
20
-2.91831
11
4.23584
21
-2.91529
0
LINE
8
BLACK
6
CONTINUOUS
10
4.23584
20
-2.91529
11
4.23754
21
-2.91274
0
LINE
8
BLACK
6
CONTINUOUS
10
4.23754
20
-2.91274
11
4.2401
21
-2.91103
0
LINE
8
BLACK
6
CONTINUOUS
10
4.2401
20
-2.91103
11
4.24311
21
-2.91043
0
LINE
8
BLACK
6
CONTINUOUS
10
4.24311
20
-2.91043
11
4.25886
21
-2.91043
0
LINE
8
BLACK
6
CONTINUOUS
10
4.25886
20
-2.91043
11
4.26187
21
-2.91103
0
LINE
8
BLACK
6
CONTINUOUS
10
4.32683
20
-2.91103
11
4.32939
21
-2.91274
0
LINE
8
BLACK
6
CONTINUOUS
10
4.32939
20
-2.91274
11
4.33109
21
-2.91529
0
LINE
8
BLACK
6
CONTINUOUS
10
4.33109
20
-2.91529
11
4.33169
21
-2.91831
0
LINE
8
BLACK
6
CONTINUOUS
10
4.33169
20
-2.91831
11
4.33169
21
-2.93996
0
LINE
8
BLACK
6
CONTINUOUS
10
4.33169
20
-2.93996
11
4.33109
21
-2.94297
0
LINE
8
BLACK
6
CONTINUOUS
10
4.33109
20
-2.94297
11
4.32939
21
-2.94553
0
LINE
8
BLACK
6
CONTINUOUS
10
4.32939
20
-2.94553
11
4.32683
21
-2.94724
0
LINE
8
BLACK
6
CONTINUOUS
10
4.32683
20
-2.94724
11
4.32382
21
-2.94783
0
LINE
8
BLACK
6
CONTINUOUS
10
4.32382
20
-2.94783
11
4.30807
21
-2.94783
0
LINE
8
BLACK
6
CONTINUOUS
10
4.30807
20
-2.94783
11
4.30506
21
-2.94724
0
LINE
8
BLACK
6
CONTINUOUS
10
4.30506
20
-2.94724
11
4.3025
21
-2.94553
0
LINE
8
BLACK
6
CONTINUOUS
10
4.3025
20
-2.94553
11
4.3008
21
-2.94297
0
LINE
8
BLACK
6
CONTINUOUS
10
4.3008
20
-2.94297
11
4.3002
21
-2.93996
0
LINE
8
BLACK
6
CONTINUOUS
10
4.3002
20
-2.93996
11
4.3002
21
-2.91831
0
LINE
8
BLACK
6
CONTINUOUS
10
4.3002
20
-2.91831
11
4.3008
21
-2.91529
0
LINE
8
BLACK
6
CONTINUOUS
10
4.3008
20
-2.91529
11
4.3025
21
-2.91274
0
LINE
8
BLACK
6
CONTINUOUS
10
4.3025
20
-2.91274
11
4.30506
21
-2.91103
0
LINE
8
BLACK
6
CONTINUOUS
10
4.30506
20
-2.91103
11
4.30807
21
-2.91043
0
LINE
8
BLACK
6
CONTINUOUS
10
4.30807
20
-2.91043
11
4.32382
21
-2.91043
0
LINE
8
BLACK
6
CONTINUOUS
10
4.32382
20
-2.91043
11
4.32683
21
-2.91103
0
LINE
8
BLACK
6
CONTINUOUS
10
5.85971
20
-2.91458
11
5.86144
21
-2.91573
0
LINE
8
BLACK
6
CONTINUOUS
10
5.86144
20
-2.91573
11
5.86259
21
-2.91745
0
LINE
8
BLACK
6
CONTINUOUS
10
5.86259
20
-2.91745
11
5.86299
21
-2.91949
0
LINE
8
BLACK
6
CONTINUOUS
10
5.86299
20
-2.91949
11
5.86299
21
-2.93012
0
LINE
8
BLACK
6
CONTINUOUS
10
5.86299
20
-2.93012
11
5.86259
21
-2.93215
0
LINE
8
BLACK
6
CONTINUOUS
10
5.86259
20
-2.93215
11
5.86144
21
-2.93388
0
LINE
8
BLACK
6
CONTINUOUS
10
5.86144
20
-2.93388
11
5.85971
21
-2.93503
0
LINE
8
BLACK
6
CONTINUOUS
10
5.85971
20
-2.93503
11
5.85768
21
-2.93543
0
LINE
8
BLACK
6
CONTINUOUS
10
5.85768
20
-2.93543
11
5.84311
21
-2.93543
0
LINE
8
BLACK
6
CONTINUOUS
10
5.84311
20
-2.93543
11
5.84108
21
-2.93503
0
LINE
8
BLACK
6
CONTINUOUS
10
5.84108
20
-2.93503
11
5.83935
21
-2.93388
0
LINE
8
BLACK
6
CONTINUOUS
10
5.83935
20
-2.93388
11
5.8382
21
-2.93215
0
LINE
8
BLACK
6
CONTINUOUS
10
5.8382
20
-2.93215
11
5.8378
21
-2.93012
0
LINE
8
BLACK
6
CONTINUOUS
10
5.8378
20
-2.93012
11
5.8378
21
-2.91949
0
LINE
8
BLACK
6
CONTINUOUS
10
5.8378
20
-2.91949
11
5.8382
21
-2.91745
0
LINE
8
BLACK
6
CONTINUOUS
10
5.8382
20
-2.91745
11
5.83935
21
-2.91573
0
LINE
8
BLACK
6
CONTINUOUS
10
5.83935
20
-2.91573
11
5.84108
21
-2.91458
0
LINE
8
BLACK
6
CONTINUOUS
10
5.84108
20
-2.91458
11
5.84311
21
-2.91417
0
LINE
8
BLACK
6
CONTINUOUS
10
5.84311
20
-2.91417
11
5.85768
21
-2.91417
0
LINE
8
BLACK
6
CONTINUOUS
10
5.85768
20
-2.91417
11
5.85971
21
-2.91458
0
LINE
8
BLACK
6
CONTINUOUS
10
5.82034
20
-2.91458
11
5.82207
21
-2.91573
0
LINE
8
BLACK
6
CONTINUOUS
10
5.82207
20
-2.91573
11
5.82322
21
-2.91745
0
LINE
8
BLACK
6
CONTINUOUS
10
5.82322
20
-2.91745
11
5.82362
21
-2.91949
0
LINE
8
BLACK
6
CONTINUOUS
10
5.82362
20
-2.91949
11
5.82362
21
-2.93012
0
LINE
8
BLACK
6
CONTINUOUS
10
5.82362
20
-2.93012
11
5.82322
21
-2.93215
0
LINE
8
BLACK
6
CONTINUOUS
10
5.82322
20
-2.93215
11
5.82207
21
-2.93388
0
LINE
8
BLACK
6
CONTINUOUS
10
5.82207
20
-2.93388
11
5.82034
21
-2.93503
0
LINE
8
BLACK
6
CONTINUOUS
10
5.82034
20
-2.93503
11
5.81831
21
-2.93543
0
LINE
8
BLACK
6
CONTINUOUS
10
5.81831
20
-2.93543
11
5.80374
21
-2.93543
0
LINE
8
BLACK
6
CONTINUOUS
10
5.80374
20
-2.93543
11
5.80171
21
-2.93503
0
LINE
8
BLACK
6
CONTINUOUS
10
5.80171
20
-2.93503
11
5.79998
21
-2.93388
0
LINE
8
BLACK
6
CONTINUOUS
10
5.79998
20
-2.93388
11
5.79883
21
-2.93215
0
LINE
8
BLACK
6
CONTINUOUS
10
5.79883
20
-2.93215
11
5.79843
21
-2.93012
0
LINE
8
BLACK
6
CONTINUOUS
10
5.79843
20
-2.93012
11
5.79843
21
-2.91949
0
LINE
8
BLACK
6
CONTINUOUS
10
5.79843
20
-2.91949
11
5.79883
21
-2.91745
0
LINE
8
BLACK
6
CONTINUOUS
10
5.79883
20
-2.91745
11
5.79998
21
-2.91573
0
LINE
8
BLACK
6
CONTINUOUS
10
5.79998
20
-2.91573
11
5.80171
21
-2.91458
0
LINE
8
BLACK
6
CONTINUOUS
10
5.80171
20
-2.91458
11
5.80374
21
-2.91417
0
LINE
8
BLACK
6
CONTINUOUS
10
5.80374
20
-2.91417
11
5.81831
21
-2.91417
0
LINE
8
BLACK
6
CONTINUOUS
10
5.81831
20
-2.91417
11
5.82034
21
-2.91458
0
LINE
8
BLACK
6
CONTINUOUS
10
5.99045
20
-2.87742
11
5.99236
21
-2.8787
0
LINE
8
BLACK
6
CONTINUOUS
10
5.99236
20
-2.8787
11
5.99364
21
-2.88061
0
LINE
8
BLACK
6
CONTINUOUS
10
5.99364
20
-2.88061
11
5.99409
21
-2.88287
0
LINE
8
BLACK
6
CONTINUOUS
10
5.99409
20
-2.88287
11
5.99409
21
-2.92323
0
LINE
8
BLACK
6
CONTINUOUS
10
5.99409
20
-2.92323
11
5.99364
21
-2.92549
0
LINE
8
BLACK
6
CONTINUOUS
10
5.99364
20
-2.92549
11
5.99236
21
-2.9274
0
LINE
8
BLACK
6
CONTINUOUS
10
5.99236
20
-2.9274
11
5.99045
21
-2.92868
0
LINE
8
BLACK
6
CONTINUOUS
10
5.99045
20
-2.92868
11
5.98819
21
-2.92913
0
LINE
8
BLACK
6
CONTINUOUS
10
5.98819
20
-2.92913
11
5.97638
21
-2.92913
0
LINE
8
BLACK
6
CONTINUOUS
10
5.97638
20
-2.92913
11
5.97412
21
-2.92868
0
LINE
8
BLACK
6
CONTINUOUS
10
5.97412
20
-2.92868
11
5.9722
21
-2.9274
0
LINE
8
BLACK
6
CONTINUOUS
10
5.9722
20
-2.9274
11
5.97092
21
-2.92549
0
LINE
8
BLACK
6
CONTINUOUS
10
5.97092
20
-2.92549
11
5.97047
21
-2.92323
0
LINE
8
BLACK
6
CONTINUOUS
10
5.97047
20
-2.92323
11
5.97047
21
-2.88287
0
LINE
8
BLACK
6
CONTINUOUS
10
5.97047
20
-2.88287
11
5.97092
21
-2.88061
0
LINE
8
BLACK
6
CONTINUOUS
10
5.97092
20
-2.88061
11
5.9722
21
-2.8787
0
LINE
8
BLACK
6
CONTINUOUS
10
5.9722
20
-2.8787
11
5.97412
21
-2.87742
0
LINE
8
BLACK
6
CONTINUOUS
10
5.97412
20
-2.87742
11
5.97638
21
-2.87697
0
LINE
8
BLACK
6
CONTINUOUS
10
5.97638
20
-2.87697
11
5.98819
21
-2.87697
0
LINE
8
BLACK
6
CONTINUOUS
10
5.98819
20
-2.87697
11
5.99045
21
-2.87742
0
LINE
8
BLACK
6
CONTINUOUS
10
5.91565
20
-2.87742
11
5.91756
21
-2.8787
0
LINE
8
BLACK
6
CONTINUOUS
10
5.91756
20
-2.8787
11
5.91884
21
-2.88061
0
LINE
8
BLACK
6
CONTINUOUS
10
5.91884
20
-2.88061
11
5.91929
21
-2.88287
0
LINE
8
BLACK
6
CONTINUOUS
10
5.91929
20
-2.88287
11
5.91929
21
-2.92323
0
LINE
8
BLACK
6
CONTINUOUS
10
5.91929
20
-2.92323
11
5.91884
21
-2.92549
0
LINE
8
BLACK
6
CONTINUOUS
10
5.91884
20
-2.92549
11
5.91756
21
-2.9274
0
LINE
8
BLACK
6
CONTINUOUS
10
5.91756
20
-2.9274
11
5.91565
21
-2.92868
0
LINE
8
BLACK
6
CONTINUOUS
10
5.91565
20
-2.92868
11
5.91339
21
-2.92913
0
LINE
8
BLACK
6
CONTINUOUS
10
5.91339
20
-2.92913
11
5.90157
21
-2.92913
0
LINE
8
BLACK
6
CONTINUOUS
10
5.90157
20
-2.92913
11
5.89931
21
-2.92868
0
LINE
8
BLACK
6
CONTINUOUS
10
5.89931
20
-2.92868
11
5.8974
21
-2.9274
0
LINE
8
BLACK
6
CONTINUOUS
10
5.8974
20
-2.9274
11
5.89612
21
-2.92549
0
LINE
8
BLACK
6
CONTINUOUS
10
5.89612
20
-2.92549
11
5.89567
21
-2.92323
0
LINE
8
BLACK
6
CONTINUOUS
10
5.89567
20
-2.92323
11
5.89567
21
-2.88287
0
LINE
8
BLACK
6
CONTINUOUS
10
5.89567
20
-2.88287
11
5.89612
21
-2.88061
0
LINE
8
BLACK
6
CONTINUOUS
10
5.89612
20
-2.88061
11
5.8974
21
-2.8787
0
LINE
8
BLACK
6
CONTINUOUS
10
5.8974
20
-2.8787
11
5.89931
21
-2.87742
0
LINE
8
BLACK
6
CONTINUOUS
10
5.89931
20
-2.87742
11
5.90157
21
-2.87697
0
LINE
8
BLACK
6
CONTINUOUS
10
5.90157
20
-2.87697
11
5.91339
21
-2.87697
0
LINE
8
BLACK
6
CONTINUOUS
10
5.91339
20
-2.87697
11
5.91565
21
-2.87742
0
LINE
8
BLACK
6
CONTINUOUS
10
4.73869
20
-2.86109
11
4.74508
21
-2.86393
0
LINE
8
BLACK
6
CONTINUOUS
10
4.74508
20
-2.86393
11
4.75074
21
-2.86804
0
LINE
8
BLACK
6
CONTINUOUS
10
4.75074
20
-2.86804
11
4.75542
21
-2.87324
0
LINE
8
BLACK
6
CONTINUOUS
10
4.75542
20
-2.87324
11
4.75892
21
-2.8793
0
LINE
8
BLACK
6
CONTINUOUS
10
4.75892
20
-2.8793
11
4.76108
21
-2.88596
0
LINE
8
BLACK
6
CONTINUOUS
10
4.76108
20
-2.88596
11
4.76181
21
-2.89291
0
LINE
8
BLACK
6
CONTINUOUS
10
4.76181
20
-2.89291
11
4.76108
21
-2.89987
0
LINE
8
BLACK
6
CONTINUOUS
10
4.76108
20
-2.89987
11
4.75892
21
-2.90652
0
LINE
8
BLACK
6
CONTINUOUS
10
4.75892
20
-2.90652
11
4.75542
21
-2.91258
0
LINE
8
BLACK
6
CONTINUOUS
10
4.75542
20
-2.91258
11
4.75074
21
-2.91778
0
LINE
8
BLACK
6
CONTINUOUS
10
4.75074
20
-2.91778
11
4.74508
21
-2.92189
0
LINE
8
BLACK
6
CONTINUOUS
10
4.74508
20
-2.92189
11
4.73869
21
-2.92474
0
LINE
8
BLACK
6
CONTINUOUS
10
4.73869
20
-2.92474
11
4.73184
21
-2.92619
0
LINE
8
BLACK
6
CONTINUOUS
10
4.73184
20
-2.92619
11
4.72485
21
-2.92619
0
LINE
8
BLACK
6
CONTINUOUS
10
4.72485
20
-2.92619
11
4.71801
21
-2.92474
0
LINE
8
BLACK
6
CONTINUOUS
10
4.71801
20
-2.92474
11
4.71161
21
-2.92189
0
LINE
8
BLACK
6
CONTINUOUS
10
4.71161
20
-2.92189
11
4.70595
21
-2.91778
0
LINE
8
BLACK
6
CONTINUOUS
10
4.70595
20
-2.91778
11
4.70127
21
-2.91258
0
LINE
8
BLACK
6
CONTINUOUS
10
4.70127
20
-2.91258
11
4.69778
21
-2.90652
0
LINE
8
BLACK
6
CONTINUOUS
10
4.69778
20
-2.90652
11
4.69561
21
-2.89987
0
LINE
8
BLACK
6
CONTINUOUS
10
4.69561
20
-2.89987
11
4.69488
21
-2.89291
0
LINE
8
BLACK
6
CONTINUOUS
10
4.69488
20
-2.89291
11
4.69561
21
-2.88596
0
LINE
8
BLACK
6
CONTINUOUS
10
4.69561
20
-2.88596
11
4.69778
21
-2.8793
0
LINE
8
BLACK
6
CONTINUOUS
10
4.69778
20
-2.8793
11
4.70127
21
-2.87324
0
LINE
8
BLACK
6
CONTINUOUS
10
4.70127
20
-2.87324
11
4.70595
21
-2.86804
0
LINE
8
BLACK
6
CONTINUOUS
10
4.70595
20
-2.86804
11
4.71161
21
-2.86393
0
LINE
8
BLACK
6
CONTINUOUS
10
4.71161
20
-2.86393
11
4.71801
21
-2.86109
0
LINE
8
BLACK
6
CONTINUOUS
10
4.71801
20
-2.86109
11
4.72485
21
-2.85963
0
LINE
8
BLACK
6
CONTINUOUS
10
4.72485
20
-2.85963
11
4.73184
21
-2.85963
0
LINE
8
BLACK
6
CONTINUOUS
10
4.73184
20
-2.85963
11
4.73869
21
-2.86109
0
LINE
8
BLACK
6
CONTINUOUS
10
5.57509
20
-2.89553
11
5.57701
21
-2.89681
0
LINE
8
BLACK
6
CONTINUOUS
10
5.57701
20
-2.89681
11
5.57829
21
-2.89872
0
LINE
8
BLACK
6
CONTINUOUS
10
5.57829
20
-2.89872
11
5.57874
21
-2.90098
0
LINE
8
BLACK
6
CONTINUOUS
10
5.57874
20
-2.90098
11
5.57874
21
-2.9128
0
LINE
8
BLACK
6
CONTINUOUS
10
5.57874
20
-2.9128
11
5.57829
21
-2.91506
0
LINE
8
BLACK
6
CONTINUOUS
10
5.57829
20
-2.91506
11
5.57701
21
-2.91697
0
LINE
8
BLACK
6
CONTINUOUS
10
5.57701
20
-2.91697
11
5.57509
21
-2.91825
0
LINE
8
BLACK
6
CONTINUOUS
10
5.57509
20
-2.91825
11
5.57283
21
-2.9187
0
LINE
8
BLACK
6
CONTINUOUS
10
5.57283
20
-2.9187
11
5.50787
21
-2.9187
0
LINE
8
BLACK
6
CONTINUOUS
10
5.50787
20
-2.9187
11
5.50561
21
-2.91825
0
LINE
8
BLACK
6
CONTINUOUS
10
5.50561
20
-2.91825
11
5.5037
21
-2.91697
0
LINE
8
BLACK
6
CONTINUOUS
10
5.5037
20
-2.91697
11
5.50242
21
-2.91506
0
LINE
8
BLACK
6
CONTINUOUS
10
5.50242
20
-2.91506
11
5.50197
21
-2.9128
0
LINE
8
BLACK
6
CONTINUOUS
10
5.50197
20
-2.9128
11
5.50197
21
-2.90098
0
LINE
8
BLACK
6
CONTINUOUS
10
5.50197
20
-2.90098
11
5.50242
21
-2.89872
0
LINE
8
BLACK
6
CONTINUOUS
10
5.50242
20
-2.89872
11
5.5037
21
-2.89681
0
LINE
8
BLACK
6
CONTINUOUS
10
5.5037
20
-2.89681
11
5.50561
21
-2.89553
0
LINE
8
BLACK
6
CONTINUOUS
10
5.50561
20
-2.89553
11
5.50787
21
-2.89508
0
LINE
8
BLACK
6
CONTINUOUS
10
5.50787
20
-2.89508
11
5.57283
21
-2.89508
0
LINE
8
BLACK
6
CONTINUOUS
10
5.57283
20
-2.89508
11
5.57509
21
-2.89553
0
LINE
8
BLACK
6
CONTINUOUS
10
5.76998
20
-2.89553
11
5.77189
21
-2.89681
0
LINE
8
BLACK
6
CONTINUOUS
10
5.77189
20
-2.89681
11
5.77317
21
-2.89872
0
LINE
8
BLACK
6
CONTINUOUS
10
5.77317
20
-2.89872
11
5.77362
21
-2.90098
0
LINE
8
BLACK
6
CONTINUOUS
10
5.77362
20
-2.90098
11
5.77362
21
-2.9128
0
LINE
8
BLACK
6
CONTINUOUS
10
5.77362
20
-2.9128
11
5.77317
21
-2.91506
0
LINE
8
BLACK
6
CONTINUOUS
10
5.77317
20
-2.91506
11
5.77189
21
-2.91697
0
LINE
8
BLACK
6
CONTINUOUS
10
5.77189
20
-2.91697
11
5.76998
21
-2.91825
0
LINE
8
BLACK
6
CONTINUOUS
10
5.76998
20
-2.91825
11
5.76772
21
-2.9187
0
LINE
8
BLACK
6
CONTINUOUS
10
5.76772
20
-2.9187
11
5.70276
21
-2.9187
0
LINE
8
BLACK
6
CONTINUOUS
10
5.70276
20
-2.9187
11
5.7005
21
-2.91825
0
LINE
8
BLACK
6
CONTINUOUS
10
5.7005
20
-2.91825
11
5.69858
21
-2.91697
0
LINE
8
BLACK
6
CONTINUOUS
10
5.69858
20
-2.91697
11
5.6973
21
-2.91506
0
LINE
8
BLACK
6
CONTINUOUS
10
5.6973
20
-2.91506
11
5.69685
21
-2.9128
0
LINE
8
BLACK
6
CONTINUOUS
10
5.69685
20
-2.9128
11
5.69685
21
-2.90098
0
LINE
8
BLACK
6
CONTINUOUS
10
5.69685
20
-2.90098
11
5.6973
21
-2.89872
0
LINE
8
BLACK
6
CONTINUOUS
10
5.6973
20
-2.89872
11
5.69858
21
-2.89681
0
LINE
8
BLACK
6
CONTINUOUS
10
5.69858
20
-2.89681
11
5.7005
21
-2.89553
0
LINE
8
BLACK
6
CONTINUOUS
10
5.7005
20
-2.89553
11
5.70276
21
-2.89508
0
LINE
8
BLACK
6
CONTINUOUS
10
5.70276
20
-2.89508
11
5.76772
21
-2.89508
0
LINE
8
BLACK
6
CONTINUOUS
10
5.76772
20
-2.89508
11
5.76998
21
-2.89553
0
LINE
8
BLACK
6
CONTINUOUS
10
5.3568
20
-2.84239
11
5.36319
21
-2.84523
0
LINE
8
BLACK
6
CONTINUOUS
10
5.36319
20
-2.84523
11
5.36885
21
-2.84934
0
LINE
8
BLACK
6
CONTINUOUS
10
5.36885
20
-2.84934
11
5.37353
21
-2.85454
0
LINE
8
BLACK
6
CONTINUOUS
10
5.37353
20
-2.85454
11
5.37703
21
-2.8606
0
LINE
8
BLACK
6
CONTINUOUS
10
5.37703
20
-2.8606
11
5.37919
21
-2.86725
0
LINE
8
BLACK
6
CONTINUOUS
10
5.37919
20
-2.86725
11
5.37992
21
-2.87421
0
LINE
8
BLACK
6
CONTINUOUS
10
5.37992
20
-2.87421
11
5.37919
21
-2.88117
0
LINE
8
BLACK
6
CONTINUOUS
10
5.37919
20
-2.88117
11
5.37703
21
-2.88782
0
LINE
8
BLACK
6
CONTINUOUS
10
5.37703
20
-2.88782
11
5.37353
21
-2.89388
0
LINE
8
BLACK
6
CONTINUOUS
10
5.37353
20
-2.89388
11
5.36885
21
-2.89908
0
LINE
8
BLACK
6
CONTINUOUS
10
5.36885
20
-2.89908
11
5.36319
21
-2.90319
0
LINE
8
BLACK
6
CONTINUOUS
10
5.36319
20
-2.90319
11
5.3568
21
-2.90604
0
LINE
8
BLACK
6
CONTINUOUS
10
5.3568
20
-2.90604
11
5.34995
21
-2.90749
0
LINE
8
BLACK
6
CONTINUOUS
10
5.34995
20
-2.90749
11
5.34296
21
-2.90749
0
LINE
8
BLACK
6
CONTINUOUS
10
5.34296
20
-2.90749
11
5.33612
21
-2.90604
0
LINE
8
BLACK
6
CONTINUOUS
10
5.33612
20
-2.90604
11
5.32972
21
-2.90319
0
LINE
8
BLACK
6
CONTINUOUS
10
5.32972
20
-2.90319
11
5.32406
21
-2.89908
0
LINE
8
BLACK
6
CONTINUOUS
10
5.32406
20
-2.89908
11
5.31938
21
-2.89388
0
LINE
8
BLACK
6
CONTINUOUS
10
5.31938
20
-2.89388
11
5.31589
21
-2.88782
0
LINE
8
BLACK
6
CONTINUOUS
10
5.31589
20
-2.88782
11
5.31372
21
-2.88117
0
LINE
8
BLACK
6
CONTINUOUS
10
5.31372
20
-2.88117
11
5.31299
21
-2.87421
0
LINE
8
BLACK
6
CONTINUOUS
10
5.31299
20
-2.87421
11
5.31372
21
-2.86725
0
LINE
8
BLACK
6
CONTINUOUS
10
5.31372
20
-2.86725
11
5.31589
21
-2.8606
0
LINE
8
BLACK
6
CONTINUOUS
10
5.31589
20
-2.8606
11
5.31938
21
-2.85454
0
LINE
8
BLACK
6
CONTINUOUS
10
5.31938
20
-2.85454
11
5.32406
21
-2.84934
0
LINE
8
BLACK
6
CONTINUOUS
10
5.32406
20
-2.84934
11
5.32972
21
-2.84523
0
LINE
8
BLACK
6
CONTINUOUS
10
5.32972
20
-2.84523
11
5.33612
21
-2.84239
0
LINE
8
BLACK
6
CONTINUOUS
10
5.33612
20
-2.84239
11
5.34296
21
-2.84093
0
LINE
8
BLACK
6
CONTINUOUS
10
5.34296
20
-2.84093
11
5.34995
21
-2.84093
0
LINE
8
BLACK
6
CONTINUOUS
10
5.34995
20
-2.84093
11
5.3568
21
-2.84239
0
LINE
8
BLACK
6
CONTINUOUS
10
5.82034
20
-2.876
11
5.82207
21
-2.87715
0
LINE
8
BLACK
6
CONTINUOUS
10
5.82207
20
-2.87715
11
5.82322
21
-2.87887
0
LINE
8
BLACK
6
CONTINUOUS
10
5.82322
20
-2.87887
11
5.82362
21
-2.88091
0
LINE
8
BLACK
6
CONTINUOUS
10
5.82362
20
-2.88091
11
5.82362
21
-2.89154
0
LINE
8
BLACK
6
CONTINUOUS
10
5.82362
20
-2.89154
11
5.82322
21
-2.89357
0
LINE
8
BLACK
6
CONTINUOUS
10
5.82322
20
-2.89357
11
5.82207
21
-2.89529
0
LINE
8
BLACK
6
CONTINUOUS
10
5.82207
20
-2.89529
11
5.82034
21
-2.89645
0
LINE
8
BLACK
6
CONTINUOUS
10
5.82034
20
-2.89645
11
5.81831
21
-2.89685
0
LINE
8
BLACK
6
CONTINUOUS
10
5.81831
20
-2.89685
11
5.80374
21
-2.89685
0
LINE
8
BLACK
6
CONTINUOUS
10
5.80374
20
-2.89685
11
5.80171
21
-2.89645
0
LINE
8
BLACK
6
CONTINUOUS
10
5.80171
20
-2.89645
11
5.79998
21
-2.89529
0
LINE
8
BLACK
6
CONTINUOUS
10
5.79998
20
-2.89529
11
5.79883
21
-2.89357
0
LINE
8
BLACK
6
CONTINUOUS
10
5.79883
20
-2.89357
11
5.79843
21
-2.89154
0
LINE
8
BLACK
6
CONTINUOUS
10
5.79843
20
-2.89154
11
5.79843
21
-2.88091
0
LINE
8
BLACK
6
CONTINUOUS
10
5.79843
20
-2.88091
11
5.79883
21
-2.87887
0
LINE
8
BLACK
6
CONTINUOUS
10
5.79883
20
-2.87887
11
5.79998
21
-2.87715
0
LINE
8
BLACK
6
CONTINUOUS
10
5.79998
20
-2.87715
11
5.80171
21
-2.876
0
LINE
8
BLACK
6
CONTINUOUS
10
5.80171
20
-2.876
11
5.80374
21
-2.87559
0
LINE
8
BLACK
6
CONTINUOUS
10
5.80374
20
-2.87559
11
5.81831
21
-2.87559
0
LINE
8
BLACK
6
CONTINUOUS
10
5.81831
20
-2.87559
11
5.82034
21
-2.876
0
LINE
8
BLACK
6
CONTINUOUS
10
5.85971
20
-2.876
11
5.86144
21
-2.87715
0
LINE
8
BLACK
6
CONTINUOUS
10
5.86144
20
-2.87715
11
5.86259
21
-2.87887
0
LINE
8
BLACK
6
CONTINUOUS
10
5.86259
20
-2.87887
11
5.86299
21
-2.88091
0
LINE
8
BLACK
6
CONTINUOUS
10
5.86299
20
-2.88091
11
5.86299
21
-2.89154
0
LINE
8
BLACK
6
CONTINUOUS
10
5.86299
20
-2.89154
11
5.86259
21
-2.89357
0
LINE
8
BLACK
6
CONTINUOUS
10
5.86259
20
-2.89357
11
5.86144
21
-2.89529
0
LINE
8
BLACK
6
CONTINUOUS
10
5.86144
20
-2.89529
11
5.85971
21
-2.89645
0
LINE
8
BLACK
6
CONTINUOUS
10
5.85971
20
-2.89645
11
5.85768
21
-2.89685
0
LINE
8
BLACK
6
CONTINUOUS
10
5.85768
20
-2.89685
11
5.84311
21
-2.89685
0
LINE
8
BLACK
6
CONTINUOUS
10
5.84311
20
-2.89685
11
5.84108
21
-2.89645
0
LINE
8
BLACK
6
CONTINUOUS
10
5.84108
20
-2.89645
11
5.83935
21
-2.89529
0
LINE
8
BLACK
6
CONTINUOUS
10
5.83935
20
-2.89529
11
5.8382
21
-2.89357
0
LINE
8
BLACK
6
CONTINUOUS
10
5.8382
20
-2.89357
11
5.8378
21
-2.89154
0
LINE
8
BLACK
6
CONTINUOUS
10
5.8378
20
-2.89154
11
5.8378
21
-2.88091
0
LINE
8
BLACK
6
CONTINUOUS
10
5.8378
20
-2.88091
11
5.8382
21
-2.87887
0
LINE
8
BLACK
6
CONTINUOUS
10
5.8382
20
-2.87887
11
5.83935
21
-2.87715
0
LINE
8
BLACK
6
CONTINUOUS
10
5.83935
20
-2.87715
11
5.84108
21
-2.876
0
LINE
8
BLACK
6
CONTINUOUS
10
5.84108
20
-2.876
11
5.84311
21
-2.87559
0
LINE
8
BLACK
6
CONTINUOUS
10
5.84311
20
-2.87559
11
5.85768
21
-2.87559
0
LINE
8
BLACK
6
CONTINUOUS
10
5.85768
20
-2.87559
11
5.85971
21
-2.876
0
LINE
8
BLACK
6
CONTINUOUS
10
6.08207
20
-2.83978
11
6.08826
21
-2.84133
0
LINE
8
BLACK
6
CONTINUOUS
10
6.08826
20
-2.84133
11
6.09391
21
-2.84432
0
LINE
8
BLACK
6
CONTINUOUS
10
6.09391
20
-2.84432
11
6.09867
21
-2.84857
0
LINE
8
BLACK
6
CONTINUOUS
10
6.09867
20
-2.84857
11
6.10229
21
-2.85383
0
LINE
8
BLACK
6
CONTINUOUS
10
6.10229
20
-2.85383
11
6.10455
21
-2.8598
0
LINE
8
BLACK
6
CONTINUOUS
10
6.10455
20
-2.8598
11
6.10531
21
-2.86614
0
LINE
8
BLACK
6
CONTINUOUS
10
6.10531
20
-2.86614
11
6.10531
21
-2.8667
0
LINE
8
BLACK
6
CONTINUOUS
10
6.10531
20
-2.8667
11
6.10441
21
-2.87302
0
LINE
8
BLACK
6
CONTINUOUS
10
6.10441
20
-2.87302
11
6.10203
21
-2.87894
0
LINE
8
BLACK
6
CONTINUOUS
10
6.10203
20
-2.87894
11
6.0983
21
-2.88413
0
LINE
8
BLACK
6
CONTINUOUS
10
6.0983
20
-2.88413
11
6.09345
21
-2.88828
0
LINE
8
BLACK
6
CONTINUOUS
10
6.09345
20
-2.88828
11
6.08774
21
-2.89115
0
LINE
8
BLACK
6
CONTINUOUS
10
6.08774
20
-2.89115
11
6.08152
21
-2.89257
0
LINE
8
BLACK
6
CONTINUOUS
10
6.08152
20
-2.89257
11
6.07513
21
-2.89247
0
LINE
8
BLACK
6
CONTINUOUS
10
6.07513
20
-2.89247
11
6.06896
21
-2.89085
0
LINE
8
BLACK
6
CONTINUOUS
10
6.06896
20
-2.89085
11
6.06335
21
-2.8878
0
LINE
8
BLACK
6
CONTINUOUS
10
6.06335
20
-2.8878
11
6.05862
21
-2.88351
0
LINE
8
BLACK
6
CONTINUOUS
10
6.05862
20
-2.88351
11
6.05506
21
-2.87821
0
LINE
8
BLACK
6
CONTINUOUS
10
6.05506
20
-2.87821
11
6.05287
21
-2.87221
0
LINE
8
BLACK
6
CONTINUOUS
10
6.05287
20
-2.87221
11
6.05217
21
-2.86586
0
LINE
8
BLACK
6
CONTINUOUS
10
6.05217
20
-2.86586
11
6.053
21
-2.85953
0
LINE
8
BLACK
6
CONTINUOUS
10
6.053
20
-2.85953
11
6.05532
21
-2.85358
0
LINE
8
BLACK
6
CONTINUOUS
10
6.05532
20
-2.85358
11
6.05899
21
-2.84836
0
LINE
8
BLACK
6
CONTINUOUS
10
6.05899
20
-2.84836
11
6.0638
21
-2.84416
0
LINE
8
BLACK
6
CONTINUOUS
10
6.0638
20
-2.84416
11
6.06948
21
-2.84123
0
LINE
8
BLACK
6
CONTINUOUS
10
6.06948
20
-2.84123
11
6.07569
21
-2.83974
0
LINE
8
BLACK
6
CONTINUOUS
10
6.07569
20
-2.83974
11
6.08207
21
-2.83978
0
LINE
8
BLACK
6
CONTINUOUS
10
5.76998
20
-2.84553
11
5.77189
21
-2.84681
0
LINE
8
BLACK
6
CONTINUOUS
10
5.77189
20
-2.84681
11
5.77317
21
-2.84872
0
LINE
8
BLACK
6
CONTINUOUS
10
5.77317
20
-2.84872
11
5.77362
21
-2.85098
0
LINE
8
BLACK
6
CONTINUOUS
10
5.77362
20
-2.85098
11
5.77362
21
-2.8628
0
LINE
8
BLACK
6
CONTINUOUS
10
5.77362
20
-2.8628
11
5.77317
21
-2.86506
0
LINE
8
BLACK
6
CONTINUOUS
10
5.77317
20
-2.86506
11
5.77189
21
-2.86697
0
LINE
8
BLACK
6
CONTINUOUS
10
5.77189
20
-2.86697
11
5.76998
21
-2.86825
0
LINE
8
BLACK
6
CONTINUOUS
10
5.76998
20
-2.86825
11
5.76772
21
-2.8687
0
LINE
8
BLACK
6
CONTINUOUS
10
5.76772
20
-2.8687
11
5.70276
21
-2.8687
0
LINE
8
BLACK
6
CONTINUOUS
10
5.70276
20
-2.8687
11
5.7005
21
-2.86825
0
LINE
8
BLACK
6
CONTINUOUS
10
5.7005
20
-2.86825
11
5.69858
21
-2.86697
0
LINE
8
BLACK
6
CONTINUOUS
10
5.69858
20
-2.86697
11
5.6973
21
-2.86506
0
LINE
8
BLACK
6
CONTINUOUS
10
5.6973
20
-2.86506
11
5.69685
21
-2.8628
0
LINE
8
BLACK
6
CONTINUOUS
10
5.69685
20
-2.8628
11
5.69685
21
-2.85098
0
LINE
8
BLACK
6
CONTINUOUS
10
5.69685
20
-2.85098
11
5.6973
21
-2.84872
0
LINE
8
BLACK
6
CONTINUOUS
10
5.6973
20
-2.84872
11
5.69858
21
-2.84681
0
LINE
8
BLACK
6
CONTINUOUS
10
5.69858
20
-2.84681
11
5.7005
21
-2.84553
0
LINE
8
BLACK
6
CONTINUOUS
10
5.7005
20
-2.84553
11
5.70276
21
-2.84508
0
LINE
8
BLACK
6
CONTINUOUS
10
5.70276
20
-2.84508
11
5.76772
21
-2.84508
0
LINE
8
BLACK
6
CONTINUOUS
10
5.76772
20
-2.84508
11
5.76998
21
-2.84553
0
LINE
8
BLACK
6
CONTINUOUS
10
5.57509
20
-2.84553
11
5.57701
21
-2.84681
0
LINE
8
BLACK
6
CONTINUOUS
10
5.57701
20
-2.84681
11
5.57829
21
-2.84872
0
LINE
8
BLACK
6
CONTINUOUS
10
5.57829
20
-2.84872
11
5.57874
21
-2.85098
0
LINE
8
BLACK
6
CONTINUOUS
10
5.57874
20
-2.85098
11
5.57874
21
-2.8628
0
LINE
8
BLACK
6
CONTINUOUS
10
5.57874
20
-2.8628
11
5.57829
21
-2.86506
0
LINE
8
BLACK
6
CONTINUOUS
10
5.57829
20
-2.86506
11
5.57701
21
-2.86697
0
LINE
8
BLACK
6
CONTINUOUS
10
5.57701
20
-2.86697
11
5.57509
21
-2.86825
0
LINE
8
BLACK
6
CONTINUOUS
10
5.57509
20
-2.86825
11
5.57283
21
-2.8687
0
LINE
8
BLACK
6
CONTINUOUS
10
5.57283
20
-2.8687
11
5.50787
21
-2.8687
0
LINE
8
BLACK
6
CONTINUOUS
10
5.50787
20
-2.8687
11
5.50561
21
-2.86825
0
LINE
8
BLACK
6
CONTINUOUS
10
5.50561
20
-2.86825
11
5.5037
21
-2.86697
0
LINE
8
BLACK
6
CONTINUOUS
10
5.5037
20
-2.86697
11
5.50242
21
-2.86506
0
LINE
8
BLACK
6
CONTINUOUS
10
5.50242
20
-2.86506
11
5.50197
21
-2.8628
0
LINE
8
BLACK
6
CONTINUOUS
10
5.50197
20
-2.8628
11
5.50197
21
-2.85098
0
LINE
8
BLACK
6
CONTINUOUS
10
5.50197
20
-2.85098
11
5.50242
21
-2.84872
0
LINE
8
BLACK
6
CONTINUOUS
10
5.50242
20
-2.84872
11
5.5037
21
-2.84681
0
LINE
8
BLACK
6
CONTINUOUS
10
5.5037
20
-2.84681
11
5.50561
21
-2.84553
0
LINE
8
BLACK
6
CONTINUOUS
10
5.50561
20
-2.84553
11
5.50787
21
-2.84508
0
LINE
8
BLACK
6
CONTINUOUS
10
5.50787
20
-2.84508
11
5.57283
21
-2.84508
0
LINE
8
BLACK
6
CONTINUOUS
10
5.57283
20
-2.84508
11
5.57509
21
-2.84553
0
LINE
8
BLACK
6
CONTINUOUS
10
5.47337
20
-2.84294
11
5.47516
21
-2.84413
0
LINE
8
BLACK
6
CONTINUOUS
10
5.47516
20
-2.84413
11
5.47635
21
-2.84592
0
LINE
8
BLACK
6
CONTINUOUS
10
5.47635
20
-2.84592
11
5.47677
21
-2.84803
0
LINE
8
BLACK
6
CONTINUOUS
10
5.47677
20
-2.84803
11
5.47677
21
-2.85906
0
LINE
8
BLACK
6
CONTINUOUS
10
5.47677
20
-2.85906
11
5.47635
21
-2.86116
0
LINE
8
BLACK
6
CONTINUOUS
10
5.47635
20
-2.86116
11
5.47516
21
-2.86295
0
LINE
8
BLACK
6
CONTINUOUS
10
5.47516
20
-2.86295
11
5.47337
21
-2.86415
0
LINE
8
BLACK
6
CONTINUOUS
10
5.47337
20
-2.86415
11
5.47126
21
-2.86457
0
LINE
8
BLACK
6
CONTINUOUS
10
5.47126
20
-2.86457
11
5.45787
21
-2.86457
0
LINE
8
BLACK
6
CONTINUOUS
10
5.45787
20
-2.86457
11
5.45576
21
-2.86415
0
LINE
8
BLACK
6
CONTINUOUS
10
5.45576
20
-2.86415
11
5.45398
21
-2.86295
0
LINE
8
BLACK
6
CONTINUOUS
10
5.45398
20
-2.86295
11
5.45278
21
-2.86116
0
LINE
8
BLACK
6
CONTINUOUS
10
5.45278
20
-2.86116
11
5.45236
21
-2.85906
0
LINE
8
BLACK
6
CONTINUOUS
10
5.45236
20
-2.85906
11
5.45236
21
-2.84803
0
LINE
8
BLACK
6
CONTINUOUS
10
5.45236
20
-2.84803
11
5.45278
21
-2.84592
0
LINE
8
BLACK
6
CONTINUOUS
10
5.45278
20
-2.84592
11
5.45398
21
-2.84413
0
LINE
8
BLACK
6
CONTINUOUS
10
5.45398
20
-2.84413
11
5.45576
21
-2.84294
0
LINE
8
BLACK
6
CONTINUOUS
10
5.45576
20
-2.84294
11
5.45787
21
-2.84252
0
LINE
8
BLACK
6
CONTINUOUS
10
5.45787
20
-2.84252
11
5.47126
21
-2.84252
0
LINE
8
BLACK
6
CONTINUOUS
10
5.47126
20
-2.84252
11
5.47337
21
-2.84294
0
LINE
8
BLACK
6
CONTINUOUS
10
5.82034
20
-2.83584
11
5.82207
21
-2.83699
0
LINE
8
BLACK
6
CONTINUOUS
10
5.82207
20
-2.83699
11
5.82322
21
-2.83871
0
LINE
8
BLACK
6
CONTINUOUS
10
5.82322
20
-2.83871
11
5.82362
21
-2.84075
0
LINE
8
BLACK
6
CONTINUOUS
10
5.82362
20
-2.84075
11
5.82362
21
-2.85138
0
LINE
8
BLACK
6
CONTINUOUS
10
5.82362
20
-2.85138
11
5.82322
21
-2.85341
0
LINE
8
BLACK
6
CONTINUOUS
10
5.82322
20
-2.85341
11
5.82207
21
-2.85514
0
LINE
8
BLACK
6
CONTINUOUS
10
5.82207
20
-2.85514
11
5.82034
21
-2.85629
0
LINE
8
BLACK
6
CONTINUOUS
10
5.82034
20
-2.85629
11
5.81831
21
-2.85669
0
LINE
8
BLACK
6
CONTINUOUS
10
5.81831
20
-2.85669
11
5.80374
21
-2.85669
0
LINE
8
BLACK
6
CONTINUOUS
10
5.80374
20
-2.85669
11
5.80171
21
-2.85629
0
LINE
8
BLACK
6
CONTINUOUS
10
5.80171
20
-2.85629
11
5.79998
21
-2.85514
0
LINE
8
BLACK
6
CONTINUOUS
10
5.79998
20
-2.85514
11
5.79883
21
-2.85341
0
LINE
8
BLACK
6
CONTINUOUS
10
5.79883
20
-2.85341
11
5.79843
21
-2.85138
0
LINE
8
BLACK
6
CONTINUOUS
10
5.79843
20
-2.85138
11
5.79843
21
-2.84075
0
LINE
8
BLACK
6
CONTINUOUS
10
5.79843
20
-2.84075
11
5.79883
21
-2.83871
0
LINE
8
BLACK
6
CONTINUOUS
10
5.79883
20
-2.83871
11
5.79998
21
-2.83699
0
LINE
8
BLACK
6
CONTINUOUS
10
5.79998
20
-2.83699
11
5.80171
21
-2.83584
0
LINE
8
BLACK
6
CONTINUOUS
10
5.80171
20
-2.83584
11
5.80374
21
-2.83543
0
LINE
8
BLACK
6
CONTINUOUS
10
5.80374
20
-2.83543
11
5.81831
21
-2.83543
0
LINE
8
BLACK
6
CONTINUOUS
10
5.81831
20
-2.83543
11
5.82034
21
-2.83584
0
LINE
8
BLACK
6
CONTINUOUS
10
5.85971
20
-2.83584
11
5.86144
21
-2.83699
0
LINE
8
BLACK
6
CONTINUOUS
10
5.86144
20
-2.83699
11
5.86259
21
-2.83871
0
LINE
8
BLACK
6
CONTINUOUS
10
5.86259
20
-2.83871
11
5.86299
21
-2.84075
0
LINE
8
BLACK
6
CONTINUOUS
10
5.86299
20
-2.84075
11
5.86299
21
-2.85138
0
LINE
8
BLACK
6
CONTINUOUS
10
5.86299
20
-2.85138
11
5.86259
21
-2.85341
0
LINE
8
BLACK
6
CONTINUOUS
10
5.86259
20
-2.85341
11
5.86144
21
-2.85514
0
LINE
8
BLACK
6
CONTINUOUS
10
5.86144
20
-2.85514
11
5.85971
21
-2.85629
0
LINE
8
BLACK
6
CONTINUOUS
10
5.85971
20
-2.85629
11
5.85768
21
-2.85669
0
LINE
8
BLACK
6
CONTINUOUS
10
5.85768
20
-2.85669
11
5.84311
21
-2.85669
0
LINE
8
BLACK
6
CONTINUOUS
10
5.84311
20
-2.85669
11
5.84108
21
-2.85629
0
LINE
8
BLACK
6
CONTINUOUS
10
5.84108
20
-2.85629
11
5.83935
21
-2.85514
0
LINE
8
BLACK
6
CONTINUOUS
10
5.83935
20
-2.85514
11
5.8382
21
-2.85341
0
LINE
8
BLACK
6
CONTINUOUS
10
5.8382
20
-2.85341
11
5.8378
21
-2.85138
0
LINE
8
BLACK
6
CONTINUOUS
10
5.8378
20
-2.85138
11
5.8378
21
-2.84075
0
LINE
8
BLACK
6
CONTINUOUS
10
5.8378
20
-2.84075
11
5.8382
21
-2.83871
0
LINE
8
BLACK
6
CONTINUOUS
10
5.8382
20
-2.83871
11
5.83935
21
-2.83699
0
LINE
8
BLACK
6
CONTINUOUS
10
5.83935
20
-2.83699
11
5.84108
21
-2.83584
0
LINE
8
BLACK
6
CONTINUOUS
10
5.84108
20
-2.83584
11
5.84311
21
-2.83543
0
LINE
8
BLACK
6
CONTINUOUS
10
5.84311
20
-2.83543
11
5.85768
21
-2.83543
0
LINE
8
BLACK
6
CONTINUOUS
10
5.85768
20
-2.83543
11
5.85971
21
-2.83584
0
LINE
8
BLACK
6
CONTINUOUS
10
5.91565
20
-2.78785
11
5.91756
21
-2.78913
0
LINE
8
BLACK
6
CONTINUOUS
10
5.91756
20
-2.78913
11
5.91884
21
-2.79105
0
LINE
8
BLACK
6
CONTINUOUS
10
5.91884
20
-2.79105
11
5.91929
21
-2.79331
0
LINE
8
BLACK
6
CONTINUOUS
10
5.91929
20
-2.79331
11
5.91929
21
-2.83366
0
LINE
8
BLACK
6
CONTINUOUS
10
5.91929
20
-2.83366
11
5.91884
21
-2.83592
0
LINE
8
BLACK
6
CONTINUOUS
10
5.91884
20
-2.83592
11
5.91756
21
-2.83784
0
LINE
8
BLACK
6
CONTINUOUS
10
5.91756
20
-2.83784
11
5.91565
21
-2.83912
0
LINE
8
BLACK
6
CONTINUOUS
10
5.91565
20
-2.83912
11
5.91339
21
-2.83957
0
LINE
8
BLACK
6
CONTINUOUS
10
5.91339
20
-2.83957
11
5.90157
21
-2.83957
0
LINE
8
BLACK
6
CONTINUOUS
10
5.90157
20
-2.83957
11
5.89931
21
-2.83912
0
LINE
8
BLACK
6
CONTINUOUS
10
5.89931
20
-2.83912
11
5.8974
21
-2.83784
0
LINE
8
BLACK
6
CONTINUOUS
10
5.8974
20
-2.83784
11
5.89612
21
-2.83592
0
LINE
8
BLACK
6
CONTINUOUS
10
5.89612
20
-2.83592
11
5.89567
21
-2.83366
0
LINE
8
BLACK
6
CONTINUOUS
10
5.89567
20
-2.83366
11
5.89567
21
-2.79331
0
LINE
8
BLACK
6
CONTINUOUS
10
5.89567
20
-2.79331
11
5.89612
21
-2.79105
0
LINE
8
BLACK
6
CONTINUOUS
10
5.89612
20
-2.79105
11
5.8974
21
-2.78913
0
LINE
8
BLACK
6
CONTINUOUS
10
5.8974
20
-2.78913
11
5.89931
21
-2.78785
0
LINE
8
BLACK
6
CONTINUOUS
10
5.89931
20
-2.78785
11
5.90157
21
-2.7874
0
LINE
8
BLACK
6
CONTINUOUS
10
5.90157
20
-2.7874
11
5.91339
21
-2.7874
0
LINE
8
BLACK
6
CONTINUOUS
10
5.91339
20
-2.7874
11
5.91565
21
-2.78785
0
LINE
8
BLACK
6
CONTINUOUS
10
5.95305
20
-2.78785
11
5.95496
21
-2.78913
0
LINE
8
BLACK
6
CONTINUOUS
10
5.95496
20
-2.78913
11
5.95624
21
-2.79105
0
LINE
8
BLACK
6
CONTINUOUS
10
5.95624
20
-2.79105
11
5.95669
21
-2.79331
0
LINE
8
BLACK
6
CONTINUOUS
10
5.95669
20
-2.79331
11
5.95669
21
-2.83366
0
LINE
8
BLACK
6
CONTINUOUS
10
5.95669
20
-2.83366
11
5.95624
21
-2.83592
0
LINE
8
BLACK
6
CONTINUOUS
10
5.95624
20
-2.83592
11
5.95496
21
-2.83784
0
LINE
8
BLACK
6
CONTINUOUS
10
5.95496
20
-2.83784
11
5.95305
21
-2.83912
0
LINE
8
BLACK
6
CONTINUOUS
10
5.95305
20
-2.83912
11
5.95079
21
-2.83957
0
LINE
8
BLACK
6
CONTINUOUS
10
5.95079
20
-2.83957
11
5.93898
21
-2.83957
0
LINE
8
BLACK
6
CONTINUOUS
10
5.93898
20
-2.83957
11
5.93672
21
-2.83912
0
LINE
8
BLACK
6
CONTINUOUS
10
5.93672
20
-2.83912
11
5.9348
21
-2.83784
0
LINE
8
BLACK
6
CONTINUOUS
10
5.9348
20
-2.83784
11
5.93352
21
-2.83592
0
LINE
8
BLACK
6
CONTINUOUS
10
5.93352
20
-2.83592
11
5.93307
21
-2.83366
0
LINE
8
BLACK
6
CONTINUOUS
10
5.93307
20
-2.83366
11
5.93307
21
-2.79331
0
LINE
8
BLACK
6
CONTINUOUS
10
5.93307
20
-2.79331
11
5.93352
21
-2.79105
0
LINE
8
BLACK
6
CONTINUOUS
10
5.93352
20
-2.79105
11
5.9348
21
-2.78913
0
LINE
8
BLACK
6
CONTINUOUS
10
5.9348
20
-2.78913
11
5.93672
21
-2.78785
0
LINE
8
BLACK
6
CONTINUOUS
10
5.93672
20
-2.78785
11
5.93898
21
-2.7874
0
LINE
8
BLACK
6
CONTINUOUS
10
5.93898
20
-2.7874
11
5.95079
21
-2.7874
0
LINE
8
BLACK
6
CONTINUOUS
10
5.95079
20
-2.7874
11
5.95305
21
-2.78785
0
LINE
8
BLACK
6
CONTINUOUS
10
5.99045
20
-2.78785
11
5.99236
21
-2.78913
0
LINE
8
BLACK
6
CONTINUOUS
10
5.99236
20
-2.78913
11
5.99364
21
-2.79105
0
LINE
8
BLACK
6
CONTINUOUS
10
5.99364
20
-2.79105
11
5.99409
21
-2.79331
0
LINE
8
BLACK
6
CONTINUOUS
10
5.99409
20
-2.79331
11
5.99409
21
-2.83366
0
LINE
8
BLACK
6
CONTINUOUS
10
5.99409
20
-2.83366
11
5.99364
21
-2.83592
0
LINE
8
BLACK
6
CONTINUOUS
10
5.99364
20
-2.83592
11
5.99236
21
-2.83784
0
LINE
8
BLACK
6
CONTINUOUS
10
5.99236
20
-2.83784
11
5.99045
21
-2.83912
0
LINE
8
BLACK
6
CONTINUOUS
10
5.99045
20
-2.83912
11
5.98819
21
-2.83957
0
LINE
8
BLACK
6
CONTINUOUS
10
5.98819
20
-2.83957
11
5.97638
21
-2.83957
0
LINE
8
BLACK
6
CONTINUOUS
10
5.97638
20
-2.83957
11
5.97412
21
-2.83912
0
LINE
8
BLACK
6
CONTINUOUS
10
5.97412
20
-2.83912
11
5.9722
21
-2.83784
0
LINE
8
BLACK
6
CONTINUOUS
10
5.9722
20
-2.83784
11
5.97092
21
-2.83592
0
LINE
8
BLACK
6
CONTINUOUS
10
5.97092
20
-2.83592
11
5.97047
21
-2.83366
0
LINE
8
BLACK
6
CONTINUOUS
10
5.97047
20
-2.83366
11
5.97047
21
-2.79331
0
LINE
8
BLACK
6
CONTINUOUS
10
5.97047
20
-2.79331
11
5.97092
21
-2.79105
0
LINE
8
BLACK
6
CONTINUOUS
10
5.97092
20
-2.79105
11
5.9722
21
-2.78913
0
LINE
8
BLACK
6
CONTINUOUS
10
5.9722
20
-2.78913
11
5.97412
21
-2.78785
0
LINE
8
BLACK
6
CONTINUOUS
10
5.97412
20
-2.78785
11
5.97638
21
-2.7874
0
LINE
8
BLACK
6
CONTINUOUS
10
5.97638
20
-2.7874
11
5.98819
21
-2.7874
0
LINE
8
BLACK
6
CONTINUOUS
10
5.98819
20
-2.7874
11
5.99045
21
-2.78785
0
LINE
8
BLACK
6
CONTINUOUS
10
5.47337
20
-2.80514
11
5.47516
21
-2.80634
0
LINE
8
BLACK
6
CONTINUOUS
10
5.47516
20
-2.80634
11
5.47635
21
-2.80813
0
LINE
8
BLACK
6
CONTINUOUS
10
5.47635
20
-2.80813
11
5.47677
21
-2.81024
0
LINE
8
BLACK
6
CONTINUOUS
10
5.47677
20
-2.81024
11
5.47677
21
-2.82126
0
LINE
8
BLACK
6
CONTINUOUS
10
5.47677
20
-2.82126
11
5.47635
21
-2.82337
0
LINE
8
BLACK
6
CONTINUOUS
10
5.47635
20
-2.82337
11
5.47516
21
-2.82516
0
LINE
8
BLACK
6
CONTINUOUS
10
5.47516
20
-2.82516
11
5.47337
21
-2.82635
0
LINE
8
BLACK
6
CONTINUOUS
10
5.47337
20
-2.82635
11
5.47126
21
-2.82677
0
LINE
8
BLACK
6
CONTINUOUS
10
5.47126
20
-2.82677
11
5.45787
21
-2.82677
0
LINE
8
BLACK
6
CONTINUOUS
10
5.45787
20
-2.82677
11
5.45576
21
-2.82635
0
LINE
8
BLACK
6
CONTINUOUS
10
5.45576
20
-2.82635
11
5.45398
21
-2.82516
0
LINE
8
BLACK
6
CONTINUOUS
10
5.45398
20
-2.82516
11
5.45278
21
-2.82337
0
LINE
8
BLACK
6
CONTINUOUS
10
5.45278
20
-2.82337
11
5.45236
21
-2.82126
0
LINE
8
BLACK
6
CONTINUOUS
10
5.45236
20
-2.82126
11
5.45236
21
-2.81024
0
LINE
8
BLACK
6
CONTINUOUS
10
5.45236
20
-2.81024
11
5.45278
21
-2.80813
0
LINE
8
BLACK
6
CONTINUOUS
10
5.45278
20
-2.80813
11
5.45398
21
-2.80634
0
LINE
8
BLACK
6
CONTINUOUS
10
5.45398
20
-2.80634
11
5.45576
21
-2.80514
0
LINE
8
BLACK
6
CONTINUOUS
10
5.45576
20
-2.80514
11
5.45787
21
-2.80472
0
LINE
8
BLACK
6
CONTINUOUS
10
5.45787
20
-2.80472
11
5.47126
21
-2.80472
0
LINE
8
BLACK
6
CONTINUOUS
10
5.47126
20
-2.80472
11
5.47337
21
-2.80514
0
LINE
8
BLACK
6
CONTINUOUS
10
4.73869
20
-2.76109
11
4.74508
21
-2.76393
0
LINE
8
BLACK
6
CONTINUOUS
10
4.74508
20
-2.76393
11
4.75074
21
-2.76804
0
LINE
8
BLACK
6
CONTINUOUS
10
4.75074
20
-2.76804
11
4.75542
21
-2.77324
0
LINE
8
BLACK
6
CONTINUOUS
10
4.75542
20
-2.77324
11
4.75892
21
-2.7793
0
LINE
8
BLACK
6
CONTINUOUS
10
4.75892
20
-2.7793
11
4.76108
21
-2.78596
0
LINE
8
BLACK
6
CONTINUOUS
10
4.76108
20
-2.78596
11
4.76181
21
-2.79291
0
LINE
8
BLACK
6
CONTINUOUS
10
4.76181
20
-2.79291
11
4.76108
21
-2.79987
0
LINE
8
BLACK
6
CONTINUOUS
10
4.76108
20
-2.79987
11
4.75892
21
-2.80652
0
LINE
8
BLACK
6
CONTINUOUS
10
4.75892
20
-2.80652
11
4.75542
21
-2.81258
0
LINE
8
BLACK
6
CONTINUOUS
10
4.75542
20
-2.81258
11
4.75074
21
-2.81778
0
LINE
8
BLACK
6
CONTINUOUS
10
4.75074
20
-2.81778
11
4.74508
21
-2.82189
0
LINE
8
BLACK
6
CONTINUOUS
10
4.74508
20
-2.82189
11
4.73869
21
-2.82474
0
LINE
8
BLACK
6
CONTINUOUS
10
4.73869
20
-2.82474
11
4.73184
21
-2.82619
0
LINE
8
BLACK
6
CONTINUOUS
10
4.73184
20
-2.82619
11
4.72485
21
-2.82619
0
LINE
8
BLACK
6
CONTINUOUS
10
4.72485
20
-2.82619
11
4.71801
21
-2.82474
0
LINE
8
BLACK
6
CONTINUOUS
10
4.71801
20
-2.82474
11
4.71161
21
-2.82189
0
LINE
8
BLACK
6
CONTINUOUS
10
4.71161
20
-2.82189
11
4.70595
21
-2.81778
0
LINE
8
BLACK
6
CONTINUOUS
10
4.70595
20
-2.81778
11
4.70127
21
-2.81258
0
LINE
8
BLACK
6
CONTINUOUS
10
4.70127
20
-2.81258
11
4.69778
21
-2.80652
0
LINE
8
BLACK
6
CONTINUOUS
10
4.69778
20
-2.80652
11
4.69561
21
-2.79987
0
LINE
8
BLACK
6
CONTINUOUS
10
4.69561
20
-2.79987
11
4.69488
21
-2.79291
0
LINE
8
BLACK
6
CONTINUOUS
10
4.69488
20
-2.79291
11
4.69561
21
-2.78596
0
LINE
8
BLACK
6
CONTINUOUS
10
4.69561
20
-2.78596
11
4.69778
21
-2.7793
0
LINE
8
BLACK
6
CONTINUOUS
10
4.69778
20
-2.7793
11
4.70127
21
-2.77324
0
LINE
8
BLACK
6
CONTINUOUS
10
4.70127
20
-2.77324
11
4.70595
21
-2.76804
0
LINE
8
BLACK
6
CONTINUOUS
10
4.70595
20
-2.76804
11
4.71161
21
-2.76393
0
LINE
8
BLACK
6
CONTINUOUS
10
4.71161
20
-2.76393
11
4.71801
21
-2.76109
0
LINE
8
BLACK
6
CONTINUOUS
10
4.71801
20
-2.76109
11
4.72485
21
-2.75963
0
LINE
8
BLACK
6
CONTINUOUS
10
4.72485
20
-2.75963
11
4.73184
21
-2.75963
0
LINE
8
BLACK
6
CONTINUOUS
10
4.73184
20
-2.75963
11
4.73869
21
-2.76109
0
LINE
8
BLACK
6
CONTINUOUS
10
5.57509
20
-2.79553
11
5.57701
21
-2.79681
0
LINE
8
BLACK
6
CONTINUOUS
10
5.57701
20
-2.79681
11
5.57829
21
-2.79872
0
LINE
8
BLACK
6
CONTINUOUS
10
5.57829
20
-2.79872
11
5.57874
21
-2.80098
0
LINE
8
BLACK
6
CONTINUOUS
10
5.57874
20
-2.80098
11
5.57874
21
-2.8128
0
LINE
8
BLACK
6
CONTINUOUS
10
5.57874
20
-2.8128
11
5.57829
21
-2.81506
0
LINE
8
BLACK
6
CONTINUOUS
10
5.57829
20
-2.81506
11
5.57701
21
-2.81697
0
LINE
8
BLACK
6
CONTINUOUS
10
5.57701
20
-2.81697
11
5.57509
21
-2.81825
0
LINE
8
BLACK
6
CONTINUOUS
10
5.57509
20
-2.81825
11
5.57283
21
-2.8187
0
LINE
8
BLACK
6
CONTINUOUS
10
5.57283
20
-2.8187
11
5.50787
21
-2.8187
0
LINE
8
BLACK
6
CONTINUOUS
10
5.50787
20
-2.8187
11
5.50561
21
-2.81825
0
LINE
8
BLACK
6
CONTINUOUS
10
5.50561
20
-2.81825
11
5.5037
21
-2.81697
0
LINE
8
BLACK
6
CONTINUOUS
10
5.5037
20
-2.81697
11
5.50242
21
-2.81506
0
LINE
8
BLACK
6
CONTINUOUS
10
5.50242
20
-2.81506
11
5.50197
21
-2.8128
0
LINE
8
BLACK
6
CONTINUOUS
10
5.50197
20
-2.8128
11
5.50197
21
-2.80098
0
LINE
8
BLACK
6
CONTINUOUS
10
5.50197
20
-2.80098
11
5.50242
21
-2.79872
0
LINE
8
BLACK
6
CONTINUOUS
10
5.50242
20
-2.79872
11
5.5037
21
-2.79681
0
LINE
8
BLACK
6
CONTINUOUS
10
5.5037
20
-2.79681
11
5.50561
21
-2.79553
0
LINE
8
BLACK
6
CONTINUOUS
10
5.50561
20
-2.79553
11
5.50787
21
-2.79508
0
LINE
8
BLACK
6
CONTINUOUS
10
5.50787
20
-2.79508
11
5.57283
21
-2.79508
0
LINE
8
BLACK
6
CONTINUOUS
10
5.57283
20
-2.79508
11
5.57509
21
-2.79553
0
LINE
8
BLACK
6
CONTINUOUS
10
5.76998
20
-2.79553
11
5.77189
21
-2.79681
0
LINE
8
BLACK
6
CONTINUOUS
10
5.77189
20
-2.79681
11
5.77317
21
-2.79872
0
LINE
8
BLACK
6
CONTINUOUS
10
5.77317
20
-2.79872
11
5.77362
21
-2.80098
0
LINE
8
BLACK
6
CONTINUOUS
10
5.77362
20
-2.80098
11
5.77362
21
-2.8128
0
LINE
8
BLACK
6
CONTINUOUS
10
5.77362
20
-2.8128
11
5.77317
21
-2.81506
0
LINE
8
BLACK
6
CONTINUOUS
10
5.77317
20
-2.81506
11
5.77189
21
-2.81697
0
LINE
8
BLACK
6
CONTINUOUS
10
5.77189
20
-2.81697
11
5.76998
21
-2.81825
0
LINE
8
BLACK
6
CONTINUOUS
10
5.76998
20
-2.81825
11
5.76772
21
-2.8187
0
LINE
8
BLACK
6
CONTINUOUS
10
5.76772
20
-2.8187
11
5.70276
21
-2.8187
0
LINE
8
BLACK
6
CONTINUOUS
10
5.70276
20
-2.8187
11
5.7005
21
-2.81825
0
LINE
8
BLACK
6
CONTINUOUS
10
5.7005
20
-2.81825
11
5.69858
21
-2.81697
0
LINE
8
BLACK
6
CONTINUOUS
10
5.69858
20
-2.81697
11
5.6973
21
-2.81506
0
LINE
8
BLACK
6
CONTINUOUS
10
5.6973
20
-2.81506
11
5.69685
21
-2.8128
0
LINE
8
BLACK
6
CONTINUOUS
10
5.69685
20
-2.8128
11
5.69685
21
-2.80098
0
LINE
8
BLACK
6
CONTINUOUS
10
5.69685
20
-2.80098
11
5.6973
21
-2.79872
0
LINE
8
BLACK
6
CONTINUOUS
10
5.6973
20
-2.79872
11
5.69858
21
-2.79681
0
LINE
8
BLACK
6
CONTINUOUS
10
5.69858
20
-2.79681
11
5.7005
21
-2.79553
0
LINE
8
BLACK
6
CONTINUOUS
10
5.7005
20
-2.79553
11
5.70276
21
-2.79508
0
LINE
8
BLACK
6
CONTINUOUS
10
5.70276
20
-2.79508
11
5.76772
21
-2.79508
0
LINE
8
BLACK
6
CONTINUOUS
10
5.76772
20
-2.79508
11
5.76998
21
-2.79553
0
LINE
8
BLACK
6
CONTINUOUS
10
5.85329
20
-2.79136
11
5.85508
21
-2.79256
0
LINE
8
BLACK
6
CONTINUOUS
10
5.85508
20
-2.79256
11
5.85627
21
-2.79435
0
LINE
8
BLACK
6
CONTINUOUS
10
5.85627
20
-2.79435
11
5.85669
21
-2.79646
0
LINE
8
BLACK
6
CONTINUOUS
10
5.85669
20
-2.79646
11
5.85669
21
-2.80984
0
LINE
8
BLACK
6
CONTINUOUS
10
5.85669
20
-2.80984
11
5.85627
21
-2.81195
0
LINE
8
BLACK
6
CONTINUOUS
10
5.85627
20
-2.81195
11
5.85508
21
-2.81374
0
LINE
8
BLACK
6
CONTINUOUS
10
5.85508
20
-2.81374
11
5.85329
21
-2.81493
0
LINE
8
BLACK
6
CONTINUOUS
10
5.85329
20
-2.81493
11
5.85118
21
-2.81535
0
LINE
8
BLACK
6
CONTINUOUS
10
5.85118
20
-2.81535
11
5.84016
21
-2.81535
0
LINE
8
BLACK
6
CONTINUOUS
10
5.84016
20
-2.81535
11
5.83805
21
-2.81493
0
LINE
8
BLACK
6
CONTINUOUS
10
5.83805
20
-2.81493
11
5.83626
21
-2.81374
0
LINE
8
BLACK
6
CONTINUOUS
10
5.83626
20
-2.81374
11
5.83507
21
-2.81195
0
LINE
8
BLACK
6
CONTINUOUS
10
5.83507
20
-2.81195
11
5.83465
21
-2.80984
0
LINE
8
BLACK
6
CONTINUOUS
10
5.83465
20
-2.80984
11
5.83465
21
-2.79646
0
LINE
8
BLACK
6
CONTINUOUS
10
5.83465
20
-2.79646
11
5.83507
21
-2.79435
0
LINE
8
BLACK
6
CONTINUOUS
10
5.83507
20
-2.79435
11
5.83626
21
-2.79256
0
LINE
8
BLACK
6
CONTINUOUS
10
5.83626
20
-2.79256
11
5.83805
21
-2.79136
0
LINE
8
BLACK
6
CONTINUOUS
10
5.83805
20
-2.79136
11
5.84016
21
-2.79094
0
LINE
8
BLACK
6
CONTINUOUS
10
5.84016
20
-2.79094
11
5.85118
21
-2.79094
0
LINE
8
BLACK
6
CONTINUOUS
10
5.85118
20
-2.79094
11
5.85329
21
-2.79136
0
LINE
8
BLACK
6
CONTINUOUS
10
5.8155
20
-2.79136
11
5.81728
21
-2.79256
0
LINE
8
BLACK
6
CONTINUOUS
10
5.81728
20
-2.79256
11
5.81848
21
-2.79435
0
LINE
8
BLACK
6
CONTINUOUS
10
5.81848
20
-2.79435
11
5.8189
21
-2.79646
0
LINE
8
BLACK
6
CONTINUOUS
10
5.8189
20
-2.79646
11
5.8189
21
-2.80984
0
LINE
8
BLACK
6
CONTINUOUS
10
5.8189
20
-2.80984
11
5.81848
21
-2.81195
0
LINE
8
BLACK
6
CONTINUOUS
10
5.81848
20
-2.81195
11
5.81728
21
-2.81374
0
LINE
8
BLACK
6
CONTINUOUS
10
5.81728
20
-2.81374
11
5.8155
21
-2.81493
0
LINE
8
BLACK
6
CONTINUOUS
10
5.8155
20
-2.81493
11
5.81339
21
-2.81535
0
LINE
8
BLACK
6
CONTINUOUS
10
5.81339
20
-2.81535
11
5.80236
21
-2.81535
0
LINE
8
BLACK
6
CONTINUOUS
10
5.80236
20
-2.81535
11
5.80025
21
-2.81493
0
LINE
8
BLACK
6
CONTINUOUS
10
5.80025
20
-2.81493
11
5.79846
21
-2.81374
0
LINE
8
BLACK
6
CONTINUOUS
10
5.79846
20
-2.81374
11
5.79727
21
-2.81195
0
LINE
8
BLACK
6
CONTINUOUS
10
5.79727
20
-2.81195
11
5.79685
21
-2.80984
0
LINE
8
BLACK
6
CONTINUOUS
10
5.79685
20
-2.80984
11
5.79685
21
-2.79646
0
LINE
8
BLACK
6
CONTINUOUS
10
5.79685
20
-2.79646
11
5.79727
21
-2.79435
0
LINE
8
BLACK
6
CONTINUOUS
10
5.79727
20
-2.79435
11
5.79846
21
-2.79256
0
LINE
8
BLACK
6
CONTINUOUS
10
5.79846
20
-2.79256
11
5.80025
21
-2.79136
0
LINE
8
BLACK
6
CONTINUOUS
10
5.80025
20
-2.79136
11
5.80236
21
-2.79094
0
LINE
8
BLACK
6
CONTINUOUS
10
5.80236
20
-2.79094
11
5.81339
21
-2.79094
0
LINE
8
BLACK
6
CONTINUOUS
10
5.81339
20
-2.79094
11
5.8155
21
-2.79136
0
LINE
8
BLACK
6
CONTINUOUS
10
6.10531
20
-2.81398
11
6.05217
21
-2.81398
0
LINE
8
BLACK
6
CONTINUOUS
10
6.05217
20
-2.81398
11
6.05217
21
-2.76083
0
LINE
8
BLACK
6
CONTINUOUS
10
6.05217
20
-2.76083
11
6.10531
21
-2.76083
0
LINE
8
BLACK
6
CONTINUOUS
10
6.10531
20
-2.76083
11
6.10531
21
-2.81398
0
LINE
8
BLACK
6
CONTINUOUS
10
5.3568
20
-2.74239
11
5.36319
21
-2.74523
0
LINE
8
BLACK
6
CONTINUOUS
10
5.36319
20
-2.74523
11
5.36885
21
-2.74934
0
LINE
8
BLACK
6
CONTINUOUS
10
5.36885
20
-2.74934
11
5.37353
21
-2.75454
0
LINE
8
BLACK
6
CONTINUOUS
10
5.37353
20
-2.75454
11
5.37703
21
-2.7606
0
LINE
8
BLACK
6
CONTINUOUS
10
5.37703
20
-2.7606
11
5.37919
21
-2.76725
0
LINE
8
BLACK
6
CONTINUOUS
10
5.37919
20
-2.76725
11
5.37992
21
-2.77421
0
LINE
8
BLACK
6
CONTINUOUS
10
5.37992
20
-2.77421
11
5.37919
21
-2.78117
0
LINE
8
BLACK
6
CONTINUOUS
10
5.37919
20
-2.78117
11
5.37703
21
-2.78782
0
LINE
8
BLACK
6
CONTINUOUS
10
5.37703
20
-2.78782
11
5.37353
21
-2.79388
0
LINE
8
BLACK
6
CONTINUOUS
10
5.37353
20
-2.79388
11
5.36885
21
-2.79908
0
LINE
8
BLACK
6
CONTINUOUS
10
5.36885
20
-2.79908
11
5.36319
21
-2.80319
0
LINE
8
BLACK
6
CONTINUOUS
10
5.36319
20
-2.80319
11
5.3568
21
-2.80604
0
LINE
8
BLACK
6
CONTINUOUS
10
5.3568
20
-2.80604
11
5.34995
21
-2.80749
0
LINE
8
BLACK
6
CONTINUOUS
10
5.34995
20
-2.80749
11
5.34296
21
-2.80749
0
LINE
8
BLACK
6
CONTINUOUS
10
5.34296
20
-2.80749
11
5.33612
21
-2.80604
0
LINE
8
BLACK
6
CONTINUOUS
10
5.33612
20
-2.80604
11
5.32972
21
-2.80319
0
LINE
8
BLACK
6
CONTINUOUS
10
5.32972
20
-2.80319
11
5.32406
21
-2.79908
0
LINE
8
BLACK
6
CONTINUOUS
10
5.32406
20
-2.79908
11
5.31938
21
-2.79388
0
LINE
8
BLACK
6
CONTINUOUS
10
5.31938
20
-2.79388
11
5.31589
21
-2.78782
0
LINE
8
BLACK
6
CONTINUOUS
10
5.31589
20
-2.78782
11
5.31372
21
-2.78117
0
LINE
8
BLACK
6
CONTINUOUS
10
5.31372
20
-2.78117
11
5.31299
21
-2.77421
0
LINE
8
BLACK
6
CONTINUOUS
10
5.31299
20
-2.77421
11
5.31372
21
-2.76725
0
LINE
8
BLACK
6
CONTINUOUS
10
5.31372
20
-2.76725
11
5.31589
21
-2.7606
0
LINE
8
BLACK
6
CONTINUOUS
10
5.31589
20
-2.7606
11
5.31938
21
-2.75454
0
LINE
8
BLACK
6
CONTINUOUS
10
5.31938
20
-2.75454
11
5.32406
21
-2.74934
0
LINE
8
BLACK
6
CONTINUOUS
10
5.32406
20
-2.74934
11
5.32972
21
-2.74523
0
LINE
8
BLACK
6
CONTINUOUS
10
5.32972
20
-2.74523
11
5.33612
21
-2.74239
0
LINE
8
BLACK
6
CONTINUOUS
10
5.33612
20
-2.74239
11
5.34296
21
-2.74093
0
LINE
8
BLACK
6
CONTINUOUS
10
5.34296
20
-2.74093
11
5.34995
21
-2.74093
0
LINE
8
BLACK
6
CONTINUOUS
10
5.34995
20
-2.74093
11
5.3568
21
-2.74239
0
LINE
8
BLACK
6
CONTINUOUS
10
5.85329
20
-2.75199
11
5.85508
21
-2.75319
0
LINE
8
BLACK
6
CONTINUOUS
10
5.85508
20
-2.75319
11
5.85627
21
-2.75498
0
LINE
8
BLACK
6
CONTINUOUS
10
5.85627
20
-2.75498
11
5.85669
21
-2.75709
0
LINE
8
BLACK
6
CONTINUOUS
10
5.85669
20
-2.75709
11
5.85669
21
-2.77047
0
LINE
8
BLACK
6
CONTINUOUS
10
5.85669
20
-2.77047
11
5.85627
21
-2.77258
0
LINE
8
BLACK
6
CONTINUOUS
10
5.85627
20
-2.77258
11
5.85508
21
-2.77437
0
LINE
8
BLACK
6
CONTINUOUS
10
5.85508
20
-2.77437
11
5.85329
21
-2.77556
0
LINE
8
BLACK
6
CONTINUOUS
10
5.85329
20
-2.77556
11
5.85118
21
-2.77598
0
LINE
8
BLACK
6
CONTINUOUS
10
5.85118
20
-2.77598
11
5.84016
21
-2.77598
0
LINE
8
BLACK
6
CONTINUOUS
10
5.84016
20
-2.77598
11
5.83805
21
-2.77556
0
LINE
8
BLACK
6
CONTINUOUS
10
5.83805
20
-2.77556
11
5.83626
21
-2.77437
0
LINE
8
BLACK
6
CONTINUOUS
10
5.83626
20
-2.77437
11
5.83507
21
-2.77258
0
LINE
8
BLACK
6
CONTINUOUS
10
5.83507
20
-2.77258
11
5.83465
21
-2.77047
0
LINE
8
BLACK
6
CONTINUOUS
10
5.83465
20
-2.77047
11
5.83465
21
-2.75709
0
LINE
8
BLACK
6
CONTINUOUS
10
5.83465
20
-2.75709
11
5.83507
21
-2.75498
0
LINE
8
BLACK
6
CONTINUOUS
10
5.83507
20
-2.75498
11
5.83626
21
-2.75319
0
LINE
8
BLACK
6
CONTINUOUS
10
5.83626
20
-2.75319
11
5.83805
21
-2.75199
0
LINE
8
BLACK
6
CONTINUOUS
10
5.83805
20
-2.75199
11
5.84016
21
-2.75157
0
LINE
8
BLACK
6
CONTINUOUS
10
5.84016
20
-2.75157
11
5.85118
21
-2.75157
0
LINE
8
BLACK
6
CONTINUOUS
10
5.85118
20
-2.75157
11
5.85329
21
-2.75199
0
LINE
8
BLACK
6
CONTINUOUS
10
5.8155
20
-2.75199
11
5.81728
21
-2.75319
0
LINE
8
BLACK
6
CONTINUOUS
10
5.81728
20
-2.75319
11
5.81848
21
-2.75498
0
LINE
8
BLACK
6
CONTINUOUS
10
5.81848
20
-2.75498
11
5.8189
21
-2.75709
0
LINE
8
BLACK
6
CONTINUOUS
10
5.8189
20
-2.75709
11
5.8189
21
-2.77047
0
LINE
8
BLACK
6
CONTINUOUS
10
5.8189
20
-2.77047
11
5.81848
21
-2.77258
0
LINE
8
BLACK
6
CONTINUOUS
10
5.81848
20
-2.77258
11
5.81728
21
-2.77437
0
LINE
8
BLACK
6
CONTINUOUS
10
5.81728
20
-2.77437
11
5.8155
21
-2.77556
0
LINE
8
BLACK
6
CONTINUOUS
10
5.8155
20
-2.77556
11
5.81339
21
-2.77598
0
LINE
8
BLACK
6
CONTINUOUS
10
5.81339
20
-2.77598
11
5.80236
21
-2.77598
0
LINE
8
BLACK
6
CONTINUOUS
10
5.80236
20
-2.77598
11
5.80025
21
-2.77556
0
LINE
8
BLACK
6
CONTINUOUS
10
5.80025
20
-2.77556
11
5.79846
21
-2.77437
0
LINE
8
BLACK
6
CONTINUOUS
10
5.79846
20
-2.77437
11
5.79727
21
-2.77258
0
LINE
8
BLACK
6
CONTINUOUS
10
5.79727
20
-2.77258
11
5.79685
21
-2.77047
0
LINE
8
BLACK
6
CONTINUOUS
10
5.79685
20
-2.77047
11
5.79685
21
-2.75709
0
LINE
8
BLACK
6
CONTINUOUS
10
5.79685
20
-2.75709
11
5.79727
21
-2.75498
0
LINE
8
BLACK
6
CONTINUOUS
10
5.79727
20
-2.75498
11
5.79846
21
-2.75319
0
LINE
8
BLACK
6
CONTINUOUS
10
5.79846
20
-2.75319
11
5.80025
21
-2.75199
0
LINE
8
BLACK
6
CONTINUOUS
10
5.80025
20
-2.75199
11
5.80236
21
-2.75157
0
LINE
8
BLACK
6
CONTINUOUS
10
5.80236
20
-2.75157
11
5.81339
21
-2.75157
0
LINE
8
BLACK
6
CONTINUOUS
10
5.81339
20
-2.75157
11
5.8155
21
-2.75199
0
LINE
8
BLACK
6
CONTINUOUS
10
5.98806
20
-2.72796
11
5.98978
21
-2.72912
0
LINE
8
BLACK
6
CONTINUOUS
10
5.98978
20
-2.72912
11
5.99093
21
-2.73084
0
LINE
8
BLACK
6
CONTINUOUS
10
5.99093
20
-2.73084
11
5.99134
21
-2.73287
0
LINE
8
BLACK
6
CONTINUOUS
10
5.99134
20
-2.73287
11
5.99134
21
-2.74744
0
LINE
8
BLACK
6
CONTINUOUS
10
5.99134
20
-2.74744
11
5.99093
21
-2.74947
0
LINE
8
BLACK
6
CONTINUOUS
10
5.99093
20
-2.74947
11
5.98978
21
-2.7512
0
LINE
8
BLACK
6
CONTINUOUS
10
5.98978
20
-2.7512
11
5.98806
21
-2.75235
0
LINE
8
BLACK
6
CONTINUOUS
10
5.98806
20
-2.75235
11
5.98602
21
-2.75276
0
LINE
8
BLACK
6
CONTINUOUS
10
5.98602
20
-2.75276
11
5.97539
21
-2.75276
0
LINE
8
BLACK
6
CONTINUOUS
10
5.97539
20
-2.75276
11
5.97336
21
-2.75235
0
LINE
8
BLACK
6
CONTINUOUS
10
5.97336
20
-2.75235
11
5.97164
21
-2.7512
0
LINE
8
BLACK
6
CONTINUOUS
10
5.97164
20
-2.7512
11
5.97048
21
-2.74947
0
LINE
8
BLACK
6
CONTINUOUS
10
5.97048
20
-2.74947
11
5.97008
21
-2.74744
0
LINE
8
BLACK
6
CONTINUOUS
10
5.97008
20
-2.74744
11
5.97008
21
-2.73287
0
LINE
8
BLACK
6
CONTINUOUS
10
5.97008
20
-2.73287
11
5.97048
21
-2.73084
0
LINE
8
BLACK
6
CONTINUOUS
10
5.97048
20
-2.73084
11
5.97164
21
-2.72912
0
LINE
8
BLACK
6
CONTINUOUS
10
5.97164
20
-2.72912
11
5.97336
21
-2.72796
0
LINE
8
BLACK
6
CONTINUOUS
10
5.97336
20
-2.72796
11
5.97539
21
-2.72756
0
LINE
8
BLACK
6
CONTINUOUS
10
5.97539
20
-2.72756
11
5.98602
21
-2.72756
0
LINE
8
BLACK
6
CONTINUOUS
10
5.98602
20
-2.72756
11
5.98806
21
-2.72796
0
LINE
8
BLACK
6
CONTINUOUS
10
5.9479
20
-2.72796
11
5.94962
21
-2.72912
0
LINE
8
BLACK
6
CONTINUOUS
10
5.94962
20
-2.72912
11
5.95078
21
-2.73084
0
LINE
8
BLACK
6
CONTINUOUS
10
5.95078
20
-2.73084
11
5.95118
21
-2.73287
0
LINE
8
BLACK
6
CONTINUOUS
10
5.95118
20
-2.73287
11
5.95118
21
-2.74744
0
LINE
8
BLACK
6
CONTINUOUS
10
5.95118
20
-2.74744
11
5.95078
21
-2.74947
0
LINE
8
BLACK
6
CONTINUOUS
10
5.95078
20
-2.74947
11
5.94962
21
-2.7512
0
LINE
8
BLACK
6
CONTINUOUS
10
5.94962
20
-2.7512
11
5.9479
21
-2.75235
0
LINE
8
BLACK
6
CONTINUOUS
10
5.9479
20
-2.75235
11
5.94587
21
-2.75276
0
LINE
8
BLACK
6
CONTINUOUS
10
5.94587
20
-2.75276
11
5.93524
21
-2.75276
0
LINE
8
BLACK
6
CONTINUOUS
10
5.93524
20
-2.75276
11
5.9332
21
-2.75235
0
LINE
8
BLACK
6
CONTINUOUS
10
5.9332
20
-2.75235
11
5.93148
21
-2.7512
0
LINE
8
BLACK
6
CONTINUOUS
10
5.93148
20
-2.7512
11
5.93033
21
-2.74947
0
LINE
8
BLACK
6
CONTINUOUS
10
5.93033
20
-2.74947
11
5.92992
21
-2.74744
0
LINE
8
BLACK
6
CONTINUOUS
10
5.92992
20
-2.74744
11
5.92992
21
-2.73287
0
LINE
8
BLACK
6
CONTINUOUS
10
5.92992
20
-2.73287
11
5.93033
21
-2.73084
0
LINE
8
BLACK
6
CONTINUOUS
10
5.93033
20
-2.73084
11
5.93148
21
-2.72912
0
LINE
8
BLACK
6
CONTINUOUS
10
5.93148
20
-2.72912
11
5.9332
21
-2.72796
0
LINE
8
BLACK
6
CONTINUOUS
10
5.9332
20
-2.72796
11
5.93524
21
-2.72756
0
LINE
8
BLACK
6
CONTINUOUS
10
5.93524
20
-2.72756
11
5.94587
21
-2.72756
0
LINE
8
BLACK
6
CONTINUOUS
10
5.94587
20
-2.72756
11
5.9479
21
-2.72796
0
LINE
8
BLACK
6
CONTINUOUS
10
5.47337
20
-2.72483
11
5.47516
21
-2.72602
0
LINE
8
BLACK
6
CONTINUOUS
10
5.47516
20
-2.72602
11
5.47635
21
-2.72781
0
LINE
8
BLACK
6
CONTINUOUS
10
5.47635
20
-2.72781
11
5.47677
21
-2.72992
0
LINE
8
BLACK
6
CONTINUOUS
10
5.47677
20
-2.72992
11
5.47677
21
-2.74094
0
LINE
8
BLACK
6
CONTINUOUS
10
5.47677
20
-2.74094
11
5.47635
21
-2.74305
0
LINE
8
BLACK
6
CONTINUOUS
10
5.47635
20
-2.74305
11
5.47516
21
-2.74484
0
LINE
8
BLACK
6
CONTINUOUS
10
5.47516
20
-2.74484
11
5.47337
21
-2.74604
0
LINE
8
BLACK
6
CONTINUOUS
10
5.47337
20
-2.74604
11
5.47126
21
-2.74646
0
LINE
8
BLACK
6
CONTINUOUS
10
5.47126
20
-2.74646
11
5.45787
21
-2.74646
0
LINE
8
BLACK
6
CONTINUOUS
10
5.45787
20
-2.74646
11
5.45576
21
-2.74604
0
LINE
8
BLACK
6
CONTINUOUS
10
5.45576
20
-2.74604
11
5.45398
21
-2.74484
0
LINE
8
BLACK
6
CONTINUOUS
10
5.45398
20
-2.74484
11
5.45278
21
-2.74305
0
LINE
8
BLACK
6
CONTINUOUS
10
5.45278
20
-2.74305
11
5.45236
21
-2.74094
0
LINE
8
BLACK
6
CONTINUOUS
10
5.45236
20
-2.74094
11
5.45236
21
-2.72992
0
LINE
8
BLACK
6
CONTINUOUS
10
5.45236
20
-2.72992
11
5.45278
21
-2.72781
0
LINE
8
BLACK
6
CONTINUOUS
10
5.45278
20
-2.72781
11
5.45398
21
-2.72602
0
LINE
8
BLACK
6
CONTINUOUS
10
5.45398
20
-2.72602
11
5.45576
21
-2.72483
0
LINE
8
BLACK
6
CONTINUOUS
10
5.45576
20
-2.72483
11
5.45787
21
-2.72441
0
LINE
8
BLACK
6
CONTINUOUS
10
5.45787
20
-2.72441
11
5.47126
21
-2.72441
0
LINE
8
BLACK
6
CONTINUOUS
10
5.47126
20
-2.72441
11
5.47337
21
-2.72483
0
LINE
8
BLACK
6
CONTINUOUS
10
5.57509
20
-2.71718
11
5.57701
21
-2.71846
0
LINE
8
BLACK
6
CONTINUOUS
10
5.57701
20
-2.71846
11
5.57829
21
-2.72038
0
LINE
8
BLACK
6
CONTINUOUS
10
5.57829
20
-2.72038
11
5.57874
21
-2.72264
0
LINE
8
BLACK
6
CONTINUOUS
10
5.57874
20
-2.72264
11
5.57874
21
-2.73445
0
LINE
8
BLACK
6
CONTINUOUS
10
5.57874
20
-2.73445
11
5.57829
21
-2.73671
0
LINE
8
BLACK
6
CONTINUOUS
10
5.57829
20
-2.73671
11
5.57701
21
-2.73862
0
LINE
8
BLACK
6
CONTINUOUS
10
5.57701
20
-2.73862
11
5.57509
21
-2.7399
0
LINE
8
BLACK
6
CONTINUOUS
10
5.57509
20
-2.7399
11
5.57283
21
-2.74035
0
LINE
8
BLACK
6
CONTINUOUS
10
5.57283
20
-2.74035
11
5.50787
21
-2.74035
0
LINE
8
BLACK
6
CONTINUOUS
10
5.50787
20
-2.74035
11
5.50561
21
-2.7399
0
LINE
8
BLACK
6
CONTINUOUS
10
5.50561
20
-2.7399
11
5.5037
21
-2.73862
0
LINE
8
BLACK
6
CONTINUOUS
10
5.5037
20
-2.73862
11
5.50242
21
-2.73671
0
LINE
8
BLACK
6
CONTINUOUS
10
5.50242
20
-2.73671
11
5.50197
21
-2.73445
0
LINE
8
BLACK
6
CONTINUOUS
10
5.50197
20
-2.73445
11
5.50197
21
-2.72264
0
LINE
8
BLACK
6
CONTINUOUS
10
5.50197
20
-2.72264
11
5.50242
21
-2.72038
0
LINE
8
BLACK
6
CONTINUOUS
10
5.50242
20
-2.72038
11
5.5037
21
-2.71846
0
LINE
8
BLACK
6
CONTINUOUS
10
5.5037
20
-2.71846
11
5.50561
21
-2.71718
0
LINE
8
BLACK
6
CONTINUOUS
10
5.50561
20
-2.71718
11
5.50787
21
-2.71673
0
LINE
8
BLACK
6
CONTINUOUS
10
5.50787
20
-2.71673
11
5.57283
21
-2.71673
0
LINE
8
BLACK
6
CONTINUOUS
10
5.57283
20
-2.71673
11
5.57509
21
-2.71718
0
LINE
8
BLACK
6
CONTINUOUS
10
5.76998
20
-2.71718
11
5.77189
21
-2.71846
0
LINE
8
BLACK
6
CONTINUOUS
10
5.77189
20
-2.71846
11
5.77317
21
-2.72038
0
LINE
8
BLACK
6
CONTINUOUS
10
5.77317
20
-2.72038
11
5.77362
21
-2.72264
0
LINE
8
BLACK
6
CONTINUOUS
10
5.77362
20
-2.72264
11
5.77362
21
-2.73445
0
LINE
8
BLACK
6
CONTINUOUS
10
5.77362
20
-2.73445
11
5.77317
21
-2.73671
0
LINE
8
BLACK
6
CONTINUOUS
10
5.77317
20
-2.73671
11
5.77189
21
-2.73862
0
LINE
8
BLACK
6
CONTINUOUS
10
5.77189
20
-2.73862
11
5.76998
21
-2.7399
0
LINE
8
BLACK
6
CONTINUOUS
10
5.76998
20
-2.7399
11
5.76772
21
-2.74035
0
LINE
8
BLACK
6
CONTINUOUS
10
5.76772
20
-2.74035
11
5.70276
21
-2.74035
0
LINE
8
BLACK
6
CONTINUOUS
10
5.70276
20
-2.74035
11
5.7005
21
-2.7399
0
LINE
8
BLACK
6
CONTINUOUS
10
5.7005
20
-2.7399
11
5.69858
21
-2.73862
0
LINE
8
BLACK
6
CONTINUOUS
10
5.69858
20
-2.73862
11
5.6973
21
-2.73671
0
LINE
8
BLACK
6
CONTINUOUS
10
5.6973
20
-2.73671
11
5.69685
21
-2.73445
0
LINE
8
BLACK
6
CONTINUOUS
10
5.69685
20
-2.73445
11
5.69685
21
-2.72264
0
LINE
8
BLACK
6
CONTINUOUS
10
5.69685
20
-2.72264
11
5.6973
21
-2.72038
0
LINE
8
BLACK
6
CONTINUOUS
10
5.6973
20
-2.72038
11
5.69858
21
-2.71846
0
LINE
8
BLACK
6
CONTINUOUS
10
5.69858
20
-2.71846
11
5.7005
21
-2.71718
0
LINE
8
BLACK
6
CONTINUOUS
10
5.7005
20
-2.71718
11
5.70276
21
-2.71673
0
LINE
8
BLACK
6
CONTINUOUS
10
5.70276
20
-2.71673
11
5.76772
21
-2.71673
0
LINE
8
BLACK
6
CONTINUOUS
10
5.76772
20
-2.71673
11
5.76998
21
-2.71718
0
LINE
8
BLACK
6
CONTINUOUS
10
5.90103
20
-2.69851
11
5.9039
21
-2.70043
0
LINE
8
BLACK
6
CONTINUOUS
10
5.9039
20
-2.70043
11
5.90582
21
-2.7033
0
LINE
8
BLACK
6
CONTINUOUS
10
5.90582
20
-2.7033
11
5.9065
21
-2.70669
0
LINE
8
BLACK
6
CONTINUOUS
10
5.9065
20
-2.70669
11
5.9065
21
-2.72638
0
LINE
8
BLACK
6
CONTINUOUS
10
5.9065
20
-2.72638
11
5.90582
21
-2.72977
0
LINE
8
BLACK
6
CONTINUOUS
10
5.90582
20
-2.72977
11
5.9039
21
-2.73264
0
LINE
8
BLACK
6
CONTINUOUS
10
5.9039
20
-2.73264
11
5.90103
21
-2.73456
0
LINE
8
BLACK
6
CONTINUOUS
10
5.90103
20
-2.73456
11
5.89764
21
-2.73524
0
LINE
8
BLACK
6
CONTINUOUS
10
5.89764
20
-2.73524
11
5.87992
21
-2.73524
0
LINE
8
BLACK
6
CONTINUOUS
10
5.87992
20
-2.73524
11
5.87653
21
-2.73456
0
LINE
8
BLACK
6
CONTINUOUS
10
5.87653
20
-2.73456
11
5.87366
21
-2.73264
0
LINE
8
BLACK
6
CONTINUOUS
10
5.87366
20
-2.73264
11
5.87174
21
-2.72977
0
LINE
8
BLACK
6
CONTINUOUS
10
5.87174
20
-2.72977
11
5.87106
21
-2.72638
0
LINE
8
BLACK
6
CONTINUOUS
10
5.87106
20
-2.72638
11
5.87106
21
-2.70669
0
LINE
8
BLACK
6
CONTINUOUS
10
5.87106
20
-2.70669
11
5.87174
21
-2.7033
0
LINE
8
BLACK
6
CONTINUOUS
10
5.87174
20
-2.7033
11
5.87366
21
-2.70043
0
LINE
8
BLACK
6
CONTINUOUS
10
5.87366
20
-2.70043
11
5.87653
21
-2.69851
0
LINE
8
BLACK
6
CONTINUOUS
10
5.87653
20
-2.69851
11
5.87992
21
-2.69783
0
LINE
8
BLACK
6
CONTINUOUS
10
5.87992
20
-2.69783
11
5.89764
21
-2.69783
0
LINE
8
BLACK
6
CONTINUOUS
10
5.89764
20
-2.69783
11
5.90103
21
-2.69851
0
LINE
8
BLACK
6
CONTINUOUS
10
5.84
20
-2.69851
11
5.84288
21
-2.70043
0
LINE
8
BLACK
6
CONTINUOUS
10
5.84288
20
-2.70043
11
5.8448
21
-2.7033
0
LINE
8
BLACK
6
CONTINUOUS
10
5.8448
20
-2.7033
11
5.84547
21
-2.70669
0
LINE
8
BLACK
6
CONTINUOUS
10
5.84547
20
-2.70669
11
5.84547
21
-2.72638
0
LINE
8
BLACK
6
CONTINUOUS
10
5.84547
20
-2.72638
11
5.8448
21
-2.72977
0
LINE
8
BLACK
6
CONTINUOUS
10
5.8448
20
-2.72977
11
5.84288
21
-2.73264
0
LINE
8
BLACK
6
CONTINUOUS
10
5.84288
20
-2.73264
11
5.84
21
-2.73456
0
LINE
8
BLACK
6
CONTINUOUS
10
5.84
20
-2.73456
11
5.83661
21
-2.73524
0
LINE
8
BLACK
6
CONTINUOUS
10
5.83661
20
-2.73524
11
5.8189
21
-2.73524
0
LINE
8
BLACK
6
CONTINUOUS
10
5.8189
20
-2.73524
11
5.81551
21
-2.73456
0
LINE
8
BLACK
6
CONTINUOUS
10
5.81551
20
-2.73456
11
5.81263
21
-2.73264
0
LINE
8
BLACK
6
CONTINUOUS
10
5.81263
20
-2.73264
11
5.81071
21
-2.72977
0
LINE
8
BLACK
6
CONTINUOUS
10
5.81071
20
-2.72977
11
5.81004
21
-2.72638
0
LINE
8
BLACK
6
CONTINUOUS
10
5.81004
20
-2.72638
11
5.81004
21
-2.70669
0
LINE
8
BLACK
6
CONTINUOUS
10
5.81004
20
-2.70669
11
5.81071
21
-2.7033
0
LINE
8
BLACK
6
CONTINUOUS
10
5.81071
20
-2.7033
11
5.81263
21
-2.70043
0
LINE
8
BLACK
6
CONTINUOUS
10
5.81263
20
-2.70043
11
5.81551
21
-2.69851
0
LINE
8
BLACK
6
CONTINUOUS
10
5.81551
20
-2.69851
11
5.8189
21
-2.69783
0
LINE
8
BLACK
6
CONTINUOUS
10
5.8189
20
-2.69783
11
5.83661
21
-2.69783
0
LINE
8
BLACK
6
CONTINUOUS
10
5.83661
20
-2.69783
11
5.84
21
-2.69851
0
LINE
8
BLACK
6
CONTINUOUS
10
4.76181
20
-2.72638
11
4.69488
21
-2.72638
0
LINE
8
BLACK
6
CONTINUOUS
10
4.69488
20
-2.72638
11
4.69488
21
-2.65945
0
LINE
8
BLACK
6
CONTINUOUS
10
4.69488
20
-2.65945
11
4.76181
21
-2.65945
0
LINE
8
BLACK
6
CONTINUOUS
10
4.76181
20
-2.65945
11
4.76181
21
-2.72638
0
LINE
8
BLACK
6
CONTINUOUS
10
5.47337
20
-2.68703
11
5.47516
21
-2.68823
0
LINE
8
BLACK
6
CONTINUOUS
10
5.47516
20
-2.68823
11
5.47635
21
-2.69002
0
LINE
8
BLACK
6
CONTINUOUS
10
5.47635
20
-2.69002
11
5.47677
21
-2.69213
0
LINE
8
BLACK
6
CONTINUOUS
10
5.47677
20
-2.69213
11
5.47677
21
-2.70315
0
LINE
8
BLACK
6
CONTINUOUS
10
5.47677
20
-2.70315
11
5.47635
21
-2.70526
0
LINE
8
BLACK
6
CONTINUOUS
10
5.47635
20
-2.70526
11
5.47516
21
-2.70705
0
LINE
8
BLACK
6
CONTINUOUS
10
5.47516
20
-2.70705
11
5.47337
21
-2.70824
0
LINE
8
BLACK
6
CONTINUOUS
10
5.47337
20
-2.70824
11
5.47126
21
-2.70866
0
LINE
8
BLACK
6
CONTINUOUS
10
5.47126
20
-2.70866
11
5.45787
21
-2.70866
0
LINE
8
BLACK
6
CONTINUOUS
10
5.45787
20
-2.70866
11
5.45576
21
-2.70824
0
LINE
8
BLACK
6
CONTINUOUS
10
5.45576
20
-2.70824
11
5.45398
21
-2.70705
0
LINE
8
BLACK
6
CONTINUOUS
10
5.45398
20
-2.70705
11
5.45278
21
-2.70526
0
LINE
8
BLACK
6
CONTINUOUS
10
5.45278
20
-2.70526
11
5.45236
21
-2.70315
0
LINE
8
BLACK
6
CONTINUOUS
10
5.45236
20
-2.70315
11
5.45236
21
-2.69213
0
LINE
8
BLACK
6
CONTINUOUS
10
5.45236
20
-2.69213
11
5.45278
21
-2.69002
0
LINE
8
BLACK
6
CONTINUOUS
10
5.45278
20
-2.69002
11
5.45398
21
-2.68823
0
LINE
8
BLACK
6
CONTINUOUS
10
5.45398
20
-2.68823
11
5.45576
21
-2.68703
0
LINE
8
BLACK
6
CONTINUOUS
10
5.45576
20
-2.68703
11
5.45787
21
-2.68661
0
LINE
8
BLACK
6
CONTINUOUS
10
5.45787
20
-2.68661
11
5.47126
21
-2.68661
0
LINE
8
BLACK
6
CONTINUOUS
10
5.47126
20
-2.68661
11
5.47337
21
-2.68703
0
LINE
8
BLACK
6
CONTINUOUS
10
5.37992
20
-2.70768
11
5.31299
21
-2.70768
0
LINE
8
BLACK
6
CONTINUOUS
10
5.31299
20
-2.70768
11
5.31299
21
-2.64075
0
LINE
8
BLACK
6
CONTINUOUS
10
5.31299
20
-2.64075
11
5.37992
21
-2.64075
0
LINE
8
BLACK
6
CONTINUOUS
10
5.37992
20
-2.64075
11
5.37992
21
-2.70768
0
LINE
8
BLACK
6
CONTINUOUS
10
5.99748
20
-2.65914
11
6.00036
21
-2.66106
0
LINE
8
BLACK
6
CONTINUOUS
10
6.00036
20
-2.66106
11
6.00228
21
-2.66393
0
LINE
8
BLACK
6
CONTINUOUS
10
6.00228
20
-2.66393
11
6.00295
21
-2.66732
0
LINE
8
BLACK
6
CONTINUOUS
10
6.00295
20
-2.66732
11
6.00295
21
-2.68504
0
LINE
8
BLACK
6
CONTINUOUS
10
6.00295
20
-2.68504
11
6.00228
21
-2.68843
0
LINE
8
BLACK
6
CONTINUOUS
10
6.00228
20
-2.68843
11
6.00036
21
-2.6913
0
LINE
8
BLACK
6
CONTINUOUS
10
6.00036
20
-2.6913
11
5.99748
21
-2.69322
0
LINE
8
BLACK
6
CONTINUOUS
10
5.99748
20
-2.69322
11
5.99409
21
-2.6939
0
LINE
8
BLACK
6
CONTINUOUS
10
5.99409
20
-2.6939
11
5.97441
21
-2.6939
0
LINE
8
BLACK
6
CONTINUOUS
10
5.97441
20
-2.6939
11
5.97102
21
-2.69322
0
LINE
8
BLACK
6
CONTINUOUS
10
5.97102
20
-2.69322
11
5.96815
21
-2.6913
0
LINE
8
BLACK
6
CONTINUOUS
10
5.96815
20
-2.6913
11
5.96623
21
-2.68843
0
LINE
8
BLACK
6
CONTINUOUS
10
5.96623
20
-2.68843
11
5.96555
21
-2.68504
0
LINE
8
BLACK
6
CONTINUOUS
10
5.96555
20
-2.68504
11
5.96555
21
-2.66732
0
LINE
8
BLACK
6
CONTINUOUS
10
5.96555
20
-2.66732
11
5.96623
21
-2.66393
0
LINE
8
BLACK
6
CONTINUOUS
10
5.96623
20
-2.66393
11
5.96815
21
-2.66106
0
LINE
8
BLACK
6
CONTINUOUS
10
5.96815
20
-2.66106
11
5.97102
21
-2.65914
0
LINE
8
BLACK
6
CONTINUOUS
10
5.97102
20
-2.65914
11
5.97441
21
-2.65846
0
LINE
8
BLACK
6
CONTINUOUS
10
5.97441
20
-2.65846
11
5.99409
21
-2.65846
0
LINE
8
BLACK
6
CONTINUOUS
10
5.99409
20
-2.65846
11
5.99748
21
-2.65914
0
LINE
8
BLACK
6
CONTINUOUS
10
6.06048
20
-2.65914
11
6.06335
21
-2.66106
0
LINE
8
BLACK
6
CONTINUOUS
10
6.06335
20
-2.66106
11
6.06527
21
-2.66393
0
LINE
8
BLACK
6
CONTINUOUS
10
6.06527
20
-2.66393
11
6.06594
21
-2.66732
0
LINE
8
BLACK
6
CONTINUOUS
10
6.06594
20
-2.66732
11
6.06594
21
-2.68504
0
LINE
8
BLACK
6
CONTINUOUS
10
6.06594
20
-2.68504
11
6.06527
21
-2.68843
0
LINE
8
BLACK
6
CONTINUOUS
10
6.06527
20
-2.68843
11
6.06335
21
-2.6913
0
LINE
8
BLACK
6
CONTINUOUS
10
6.06335
20
-2.6913
11
6.06048
21
-2.69322
0
LINE
8
BLACK
6
CONTINUOUS
10
6.06048
20
-2.69322
11
6.05709
21
-2.6939
0
LINE
8
BLACK
6
CONTINUOUS
10
6.05709
20
-2.6939
11
6.0374
21
-2.6939
0
LINE
8
BLACK
6
CONTINUOUS
10
6.0374
20
-2.6939
11
6.03401
21
-2.69322
0
LINE
8
BLACK
6
CONTINUOUS
10
6.03401
20
-2.69322
11
6.03114
21
-2.6913
0
LINE
8
BLACK
6
CONTINUOUS
10
6.03114
20
-2.6913
11
6.02922
21
-2.68843
0
LINE
8
BLACK
6
CONTINUOUS
10
6.02922
20
-2.68843
11
6.02854
21
-2.68504
0
LINE
8
BLACK
6
CONTINUOUS
10
6.02854
20
-2.68504
11
6.02854
21
-2.66732
0
LINE
8
BLACK
6
CONTINUOUS
10
6.02854
20
-2.66732
11
6.02922
21
-2.66393
0
LINE
8
BLACK
6
CONTINUOUS
10
6.02922
20
-2.66393
11
6.03114
21
-2.66106
0
LINE
8
BLACK
6
CONTINUOUS
10
6.03114
20
-2.66106
11
6.03401
21
-2.65914
0
LINE
8
BLACK
6
CONTINUOUS
10
6.03401
20
-2.65914
11
6.0374
21
-2.65846
0
LINE
8
BLACK
6
CONTINUOUS
10
6.0374
20
-2.65846
11
6.05709
21
-2.65846
0
LINE
8
BLACK
6
CONTINUOUS
10
6.05709
20
-2.65846
11
6.06048
21
-2.65914
0
LINE
8
BLACK
6
CONTINUOUS
10
5.76998
20
-2.66718
11
5.77189
21
-2.66846
0
LINE
8
BLACK
6
CONTINUOUS
10
5.77189
20
-2.66846
11
5.77317
21
-2.67038
0
LINE
8
BLACK
6
CONTINUOUS
10
5.77317
20
-2.67038
11
5.77362
21
-2.67264
0
LINE
8
BLACK
6
CONTINUOUS
10
5.77362
20
-2.67264
11
5.77362
21
-2.68445
0
LINE
8
BLACK
6
CONTINUOUS
10
5.77362
20
-2.68445
11
5.77317
21
-2.68671
0
LINE
8
BLACK
6
CONTINUOUS
10
5.77317
20
-2.68671
11
5.77189
21
-2.68862
0
LINE
8
BLACK
6
CONTINUOUS
10
5.77189
20
-2.68862
11
5.76998
21
-2.6899
0
LINE
8
BLACK
6
CONTINUOUS
10
5.76998
20
-2.6899
11
5.76772
21
-2.69035
0
LINE
8
BLACK
6
CONTINUOUS
10
5.76772
20
-2.69035
11
5.70276
21
-2.69035
0
LINE
8
BLACK
6
CONTINUOUS
10
5.70276
20
-2.69035
11
5.7005
21
-2.6899
0
LINE
8
BLACK
6
CONTINUOUS
10
5.7005
20
-2.6899
11
5.69858
21
-2.68862
0
LINE
8
BLACK
6
CONTINUOUS
10
5.69858
20
-2.68862
11
5.6973
21
-2.68671
0
LINE
8
BLACK
6
CONTINUOUS
10
5.6973
20
-2.68671
11
5.69685
21
-2.68445
0
LINE
8
BLACK
6
CONTINUOUS
10
5.69685
20
-2.68445
11
5.69685
21
-2.67264
0
LINE
8
BLACK
6
CONTINUOUS
10
5.69685
20
-2.67264
11
5.6973
21
-2.67038
0
LINE
8
BLACK
6
CONTINUOUS
10
5.6973
20
-2.67038
11
5.69858
21
-2.66846
0
LINE
8
BLACK
6
CONTINUOUS
10
5.69858
20
-2.66846
11
5.7005
21
-2.66718
0
LINE
8
BLACK
6
CONTINUOUS
10
5.7005
20
-2.66718
11
5.70276
21
-2.66673
0
LINE
8
BLACK
6
CONTINUOUS
10
5.70276
20
-2.66673
11
5.76772
21
-2.66673
0
LINE
8
BLACK
6
CONTINUOUS
10
5.76772
20
-2.66673
11
5.76998
21
-2.66718
0
LINE
8
BLACK
6
CONTINUOUS
10
5.57509
20
-2.66718
11
5.57701
21
-2.66846
0
LINE
8
BLACK
6
CONTINUOUS
10
5.57701
20
-2.66846
11
5.57829
21
-2.67038
0
LINE
8
BLACK
6
CONTINUOUS
10
5.57829
20
-2.67038
11
5.57874
21
-2.67264
0
LINE
8
BLACK
6
CONTINUOUS
10
5.57874
20
-2.67264
11
5.57874
21
-2.68445
0
LINE
8
BLACK
6
CONTINUOUS
10
5.57874
20
-2.68445
11
5.57829
21
-2.68671
0
LINE
8
BLACK
6
CONTINUOUS
10
5.57829
20
-2.68671
11
5.57701
21
-2.68862
0
LINE
8
BLACK
6
CONTINUOUS
10
5.57701
20
-2.68862
11
5.57509
21
-2.6899
0
LINE
8
BLACK
6
CONTINUOUS
10
5.57509
20
-2.6899
11
5.57283
21
-2.69035
0
LINE
8
BLACK
6
CONTINUOUS
10
5.57283
20
-2.69035
11
5.50787
21
-2.69035
0
LINE
8
BLACK
6
CONTINUOUS
10
5.50787
20
-2.69035
11
5.50561
21
-2.6899
0
LINE
8
BLACK
6
CONTINUOUS
10
5.50561
20
-2.6899
11
5.5037
21
-2.68862
0
LINE
8
BLACK
6
CONTINUOUS
10
5.5037
20
-2.68862
11
5.50242
21
-2.68671
0
LINE
8
BLACK
6
CONTINUOUS
10
5.50242
20
-2.68671
11
5.50197
21
-2.68445
0
LINE
8
BLACK
6
CONTINUOUS
10
5.50197
20
-2.68445
11
5.50197
21
-2.67264
0
LINE
8
BLACK
6
CONTINUOUS
10
5.50197
20
-2.67264
11
5.50242
21
-2.67038
0
LINE
8
BLACK
6
CONTINUOUS
10
5.50242
20
-2.67038
11
5.5037
21
-2.66846
0
LINE
8
BLACK
6
CONTINUOUS
10
5.5037
20
-2.66846
11
5.50561
21
-2.66718
0
LINE
8
BLACK
6
CONTINUOUS
10
5.50561
20
-2.66718
11
5.50787
21
-2.66673
0
LINE
8
BLACK
6
CONTINUOUS
10
5.50787
20
-2.66673
11
5.57283
21
-2.66673
0
LINE
8
BLACK
6
CONTINUOUS
10
5.57283
20
-2.66673
11
5.57509
21
-2.66718
0
LINE
8
BLACK
6
CONTINUOUS
10
4.22441
20
-2.66929
11
4.15748
21
-2.66929
0
LINE
8
BLACK
6
CONTINUOUS
10
4.15748
20
-2.66929
11
4.15748
21
-2.61811
0
LINE
8
BLACK
6
CONTINUOUS
10
4.15748
20
-2.61811
11
4.22441
21
-2.61811
0
LINE
8
BLACK
6
CONTINUOUS
10
4.22441
20
-2.61811
11
4.22441
21
-2.66929
0
LINE
8
BLACK
6
CONTINUOUS
10
5.86004
20
-2.63824
11
5.86195
21
-2.63952
0
LINE
8
BLACK
6
CONTINUOUS
10
5.86195
20
-2.63952
11
5.86323
21
-2.64144
0
LINE
8
BLACK
6
CONTINUOUS
10
5.86323
20
-2.64144
11
5.86368
21
-2.6437
0
LINE
8
BLACK
6
CONTINUOUS
10
5.86368
20
-2.6437
11
5.86368
21
-2.65551
0
LINE
8
BLACK
6
CONTINUOUS
10
5.86368
20
-2.65551
11
5.86323
21
-2.65777
0
LINE
8
BLACK
6
CONTINUOUS
10
5.86323
20
-2.65777
11
5.86195
21
-2.65969
0
LINE
8
BLACK
6
CONTINUOUS
10
5.86195
20
-2.65969
11
5.86004
21
-2.66097
0
LINE
8
BLACK
6
CONTINUOUS
10
5.86004
20
-2.66097
11
5.85778
21
-2.66142
0
LINE
8
BLACK
6
CONTINUOUS
10
5.85778
20
-2.66142
11
5.81152
21
-2.66142
0
LINE
8
BLACK
6
CONTINUOUS
10
5.81152
20
-2.66142
11
5.80926
21
-2.66097
0
LINE
8
BLACK
6
CONTINUOUS
10
5.80926
20
-2.66097
11
5.80734
21
-2.65969
0
LINE
8
BLACK
6
CONTINUOUS
10
5.80734
20
-2.65969
11
5.80606
21
-2.65777
0
LINE
8
BLACK
6
CONTINUOUS
10
5.80606
20
-2.65777
11
5.80561
21
-2.65551
0
LINE
8
BLACK
6
CONTINUOUS
10
5.80561
20
-2.65551
11
5.80561
21
-2.6437
0
LINE
8
BLACK
6
CONTINUOUS
10
5.80561
20
-2.6437
11
5.80606
21
-2.64144
0
LINE
8
BLACK
6
CONTINUOUS
10
5.80606
20
-2.64144
11
5.80734
21
-2.63952
0
LINE
8
BLACK
6
CONTINUOUS
10
5.80734
20
-2.63952
11
5.80926
21
-2.63824
0
LINE
8
BLACK
6
CONTINUOUS
10
5.80926
20
-2.63824
11
5.81152
21
-2.6378
0
LINE
8
BLACK
6
CONTINUOUS
10
5.81152
20
-2.6378
11
5.85778
21
-2.6378
0
LINE
8
BLACK
6
CONTINUOUS
10
5.85778
20
-2.6378
11
5.86004
21
-2.63824
0
LINE
8
BLACK
6
CONTINUOUS
10
5.76998
20
-2.61718
11
5.77189
21
-2.61846
0
LINE
8
BLACK
6
CONTINUOUS
10
5.77189
20
-2.61846
11
5.77317
21
-2.62038
0
LINE
8
BLACK
6
CONTINUOUS
10
5.77317
20
-2.62038
11
5.77362
21
-2.62264
0
LINE
8
BLACK
6
CONTINUOUS
10
5.77362
20
-2.62264
11
5.77362
21
-2.63445
0
LINE
8
BLACK
6
CONTINUOUS
10
5.77362
20
-2.63445
11
5.77317
21
-2.63671
0
LINE
8
BLACK
6
CONTINUOUS
10
5.77317
20
-2.63671
11
5.77189
21
-2.63862
0
LINE
8
BLACK
6
CONTINUOUS
10
5.77189
20
-2.63862
11
5.76998
21
-2.6399
0
LINE
8
BLACK
6
CONTINUOUS
10
5.76998
20
-2.6399
11
5.76772
21
-2.64035
0
LINE
8
BLACK
6
CONTINUOUS
10
5.76772
20
-2.64035
11
5.70276
21
-2.64035
0
LINE
8
BLACK
6
CONTINUOUS
10
5.70276
20
-2.64035
11
5.7005
21
-2.6399
0
LINE
8
BLACK
6
CONTINUOUS
10
5.7005
20
-2.6399
11
5.69858
21
-2.63862
0
LINE
8
BLACK
6
CONTINUOUS
10
5.69858
20
-2.63862
11
5.6973
21
-2.63671
0
LINE
8
BLACK
6
CONTINUOUS
10
5.6973
20
-2.63671
11
5.69685
21
-2.63445
0
LINE
8
BLACK
6
CONTINUOUS
10
5.69685
20
-2.63445
11
5.69685
21
-2.62264
0
LINE
8
BLACK
6
CONTINUOUS
10
5.69685
20
-2.62264
11
5.6973
21
-2.62038
0
LINE
8
BLACK
6
CONTINUOUS
10
5.6973
20
-2.62038
11
5.69858
21
-2.61846
0
LINE
8
BLACK
6
CONTINUOUS
10
5.69858
20
-2.61846
11
5.7005
21
-2.61718
0
LINE
8
BLACK
6
CONTINUOUS
10
5.7005
20
-2.61718
11
5.70276
21
-2.61673
0
LINE
8
BLACK
6
CONTINUOUS
10
5.70276
20
-2.61673
11
5.76772
21
-2.61673
0
LINE
8
BLACK
6
CONTINUOUS
10
5.76772
20
-2.61673
11
5.76998
21
-2.61718
0
LINE
8
BLACK
6
CONTINUOUS
10
5.57509
20
-2.61718
11
5.57701
21
-2.61846
0
LINE
8
BLACK
6
CONTINUOUS
10
5.57701
20
-2.61846
11
5.57829
21
-2.62038
0
LINE
8
BLACK
6
CONTINUOUS
10
5.57829
20
-2.62038
11
5.57874
21
-2.62264
0
LINE
8
BLACK
6
CONTINUOUS
10
5.57874
20
-2.62264
11
5.57874
21
-2.63445
0
LINE
8
BLACK
6
CONTINUOUS
10
5.57874
20
-2.63445
11
5.57829
21
-2.63671
0
LINE
8
BLACK
6
CONTINUOUS
10
5.57829
20
-2.63671
11
5.57701
21
-2.63862
0
LINE
8
BLACK
6
CONTINUOUS
10
5.57701
20
-2.63862
11
5.57509
21
-2.6399
0
LINE
8
BLACK
6
CONTINUOUS
10
5.57509
20
-2.6399
11
5.57283
21
-2.64035
0
LINE
8
BLACK
6
CONTINUOUS
10
5.57283
20
-2.64035
11
5.50787
21
-2.64035
0
LINE
8
BLACK
6
CONTINUOUS
10
5.50787
20
-2.64035
11
5.50561
21
-2.6399
0
LINE
8
BLACK
6
CONTINUOUS
10
5.50561
20
-2.6399
11
5.5037
21
-2.63862
0
LINE
8
BLACK
6
CONTINUOUS
10
5.5037
20
-2.63862
11
5.50242
21
-2.63671
0
LINE
8
BLACK
6
CONTINUOUS
10
5.50242
20
-2.63671
11
5.50197
21
-2.63445
0
LINE
8
BLACK
6
CONTINUOUS
10
5.50197
20
-2.63445
11
5.50197
21
-2.62264
0
LINE
8
BLACK
6
CONTINUOUS
10
5.50197
20
-2.62264
11
5.50242
21
-2.62038
0
LINE
8
BLACK
6
CONTINUOUS
10
5.50242
20
-2.62038
11
5.5037
21
-2.61846
0
LINE
8
BLACK
6
CONTINUOUS
10
5.5037
20
-2.61846
11
5.50561
21
-2.61718
0
LINE
8
BLACK
6
CONTINUOUS
10
5.50561
20
-2.61718
11
5.50787
21
-2.61673
0
LINE
8
BLACK
6
CONTINUOUS
10
5.50787
20
-2.61673
11
5.57283
21
-2.61673
0
LINE
8
BLACK
6
CONTINUOUS
10
5.57283
20
-2.61673
11
5.57509
21
-2.61718
0
LINE
8
BLACK
6
CONTINUOUS
10
5.99748
20
-2.59812
11
6.00036
21
-2.60004
0
LINE
8
BLACK
6
CONTINUOUS
10
6.00036
20
-2.60004
11
6.00228
21
-2.60291
0
LINE
8
BLACK
6
CONTINUOUS
10
6.00228
20
-2.60291
11
6.00295
21
-2.6063
0
LINE
8
BLACK
6
CONTINUOUS
10
6.00295
20
-2.6063
11
6.00295
21
-2.62402
0
LINE
8
BLACK
6
CONTINUOUS
10
6.00295
20
-2.62402
11
6.00228
21
-2.62741
0
LINE
8
BLACK
6
CONTINUOUS
10
6.00228
20
-2.62741
11
6.00036
21
-2.63028
0
LINE
8
BLACK
6
CONTINUOUS
10
6.00036
20
-2.63028
11
5.99748
21
-2.6322
0
LINE
8
BLACK
6
CONTINUOUS
10
5.99748
20
-2.6322
11
5.99409
21
-2.63287
0
LINE
8
BLACK
6
CONTINUOUS
10
5.99409
20
-2.63287
11
5.97441
21
-2.63287
0
LINE
8
BLACK
6
CONTINUOUS
10
5.97441
20
-2.63287
11
5.97102
21
-2.6322
0
LINE
8
BLACK
6
CONTINUOUS
10
5.97102
20
-2.6322
11
5.96815
21
-2.63028
0
LINE
8
BLACK
6
CONTINUOUS
10
5.96815
20
-2.63028
11
5.96623
21
-2.62741
0
LINE
8
BLACK
6
CONTINUOUS
10
5.96623
20
-2.62741
11
5.96555
21
-2.62402
0
LINE
8
BLACK
6
CONTINUOUS
10
5.96555
20
-2.62402
11
5.96555
21
-2.6063
0
LINE
8
BLACK
6
CONTINUOUS
10
5.96555
20
-2.6063
11
5.96623
21
-2.60291
0
LINE
8
BLACK
6
CONTINUOUS
10
5.96623
20
-2.60291
11
5.96815
21
-2.60004
0
LINE
8
BLACK
6
CONTINUOUS
10
5.96815
20
-2.60004
11
5.97102
21
-2.59812
0
LINE
8
BLACK
6
CONTINUOUS
10
5.97102
20
-2.59812
11
5.97441
21
-2.59744
0
LINE
8
BLACK
6
CONTINUOUS
10
5.97441
20
-2.59744
11
5.99409
21
-2.59744
0
LINE
8
BLACK
6
CONTINUOUS
10
5.99409
20
-2.59744
11
5.99748
21
-2.59812
0
LINE
8
BLACK
6
CONTINUOUS
10
6.06048
20
-2.59812
11
6.06335
21
-2.60004
0
LINE
8
BLACK
6
CONTINUOUS
10
6.06335
20
-2.60004
11
6.06527
21
-2.60291
0
LINE
8
BLACK
6
CONTINUOUS
10
6.06527
20
-2.60291
11
6.06594
21
-2.6063
0
LINE
8
BLACK
6
CONTINUOUS
10
6.06594
20
-2.6063
11
6.06594
21
-2.62402
0
LINE
8
BLACK
6
CONTINUOUS
10
6.06594
20
-2.62402
11
6.06527
21
-2.62741
0
LINE
8
BLACK
6
CONTINUOUS
10
6.06527
20
-2.62741
11
6.06335
21
-2.63028
0
LINE
8
BLACK
6
CONTINUOUS
10
6.06335
20
-2.63028
11
6.06048
21
-2.6322
0
LINE
8
BLACK
6
CONTINUOUS
10
6.06048
20
-2.6322
11
6.05709
21
-2.63287
0
LINE
8
BLACK
6
CONTINUOUS
10
6.05709
20
-2.63287
11
6.0374
21
-2.63287
0
LINE
8
BLACK
6
CONTINUOUS
10
6.0374
20
-2.63287
11
6.03401
21
-2.6322
0
LINE
8
BLACK
6
CONTINUOUS
10
6.03401
20
-2.6322
11
6.03114
21
-2.63028
0
LINE
8
BLACK
6
CONTINUOUS
10
6.03114
20
-2.63028
11
6.02922
21
-2.62741
0
LINE
8
BLACK
6
CONTINUOUS
10
6.02922
20
-2.62741
11
6.02854
21
-2.62402
0
LINE
8
BLACK
6
CONTINUOUS
10
6.02854
20
-2.62402
11
6.02854
21
-2.6063
0
LINE
8
BLACK
6
CONTINUOUS
10
6.02854
20
-2.6063
11
6.02922
21
-2.60291
0
LINE
8
BLACK
6
CONTINUOUS
10
6.02922
20
-2.60291
11
6.03114
21
-2.60004
0
LINE
8
BLACK
6
CONTINUOUS
10
6.03114
20
-2.60004
11
6.03401
21
-2.59812
0
LINE
8
BLACK
6
CONTINUOUS
10
6.03401
20
-2.59812
11
6.0374
21
-2.59744
0
LINE
8
BLACK
6
CONTINUOUS
10
6.0374
20
-2.59744
11
6.05709
21
-2.59744
0
LINE
8
BLACK
6
CONTINUOUS
10
6.05709
20
-2.59744
11
6.06048
21
-2.59812
0
LINE
8
BLACK
6
CONTINUOUS
10
4.33454
20
-2.60124
11
4.33646
21
-2.60252
0
LINE
8
BLACK
6
CONTINUOUS
10
4.33646
20
-2.60252
11
4.33774
21
-2.60443
0
LINE
8
BLACK
6
CONTINUOUS
10
4.33774
20
-2.60443
11
4.33819
21
-2.60669
0
LINE
8
BLACK
6
CONTINUOUS
10
4.33819
20
-2.60669
11
4.33819
21
-2.6185
0
LINE
8
BLACK
6
CONTINUOUS
10
4.33819
20
-2.6185
11
4.33774
21
-2.62076
0
LINE
8
BLACK
6
CONTINUOUS
10
4.33774
20
-2.62076
11
4.33646
21
-2.62268
0
LINE
8
BLACK
6
CONTINUOUS
10
4.33646
20
-2.62268
11
4.33454
21
-2.62396
0
LINE
8
BLACK
6
CONTINUOUS
10
4.33454
20
-2.62396
11
4.33228
21
-2.62441
0
LINE
8
BLACK
6
CONTINUOUS
10
4.33228
20
-2.62441
11
4.28602
21
-2.62441
0
LINE
8
BLACK
6
CONTINUOUS
10
4.28602
20
-2.62441
11
4.28376
21
-2.62396
0
LINE
8
BLACK
6
CONTINUOUS
10
4.28376
20
-2.62396
11
4.28185
21
-2.62268
0
LINE
8
BLACK
6
CONTINUOUS
10
4.28185
20
-2.62268
11
4.28057
21
-2.62076
0
LINE
8
BLACK
6
CONTINUOUS
10
4.28057
20
-2.62076
11
4.28012
21
-2.6185
0
LINE
8
BLACK
6
CONTINUOUS
10
4.28012
20
-2.6185
11
4.28012
21
-2.60669
0
LINE
8
BLACK
6
CONTINUOUS
10
4.28012
20
-2.60669
11
4.28057
21
-2.60443
0
LINE
8
BLACK
6
CONTINUOUS
10
4.28057
20
-2.60443
11
4.28185
21
-2.60252
0
LINE
8
BLACK
6
CONTINUOUS
10
4.28185
20
-2.60252
11
4.28376
21
-2.60124
0
LINE
8
BLACK
6
CONTINUOUS
10
4.28376
20
-2.60124
11
4.28602
21
-2.60079
0
LINE
8
BLACK
6
CONTINUOUS
10
4.28602
20
-2.60079
11
4.33228
21
-2.60079
0
LINE
8
BLACK
6
CONTINUOUS
10
4.33228
20
-2.60079
11
4.33454
21
-2.60124
0
LINE
8
BLACK
6
CONTINUOUS
10
5.93385
20
-2.60084
11
5.93577
21
-2.60212
0
LINE
8
BLACK
6
CONTINUOUS
10
5.93577
20
-2.60212
11
5.93705
21
-2.60404
0
LINE
8
BLACK
6
CONTINUOUS
10
5.93705
20
-2.60404
11
5.9375
21
-2.6063
0
LINE
8
BLACK
6
CONTINUOUS
10
5.9375
20
-2.6063
11
5.9375
21
-2.61811
0
LINE
8
BLACK
6
CONTINUOUS
10
5.9375
20
-2.61811
11
5.93705
21
-2.62037
0
LINE
8
BLACK
6
CONTINUOUS
10
5.93705
20
-2.62037
11
5.93577
21
-2.62229
0
LINE
8
BLACK
6
CONTINUOUS
10
5.93577
20
-2.62229
11
5.93385
21
-2.62357
0
LINE
8
BLACK
6
CONTINUOUS
10
5.93385
20
-2.62357
11
5.93159
21
-2.62402
0
LINE
8
BLACK
6
CONTINUOUS
10
5.93159
20
-2.62402
11
5.88533
21
-2.62402
0
LINE
8
BLACK
6
CONTINUOUS
10
5.88533
20
-2.62402
11
5.88307
21
-2.62357
0
LINE
8
BLACK
6
CONTINUOUS
10
5.88307
20
-2.62357
11
5.88116
21
-2.62229
0
LINE
8
BLACK
6
CONTINUOUS
10
5.88116
20
-2.62229
11
5.87988
21
-2.62037
0
LINE
8
BLACK
6
CONTINUOUS
10
5.87988
20
-2.62037
11
5.87943
21
-2.61811
0
LINE
8
BLACK
6
CONTINUOUS
10
5.87943
20
-2.61811
11
5.87943
21
-2.6063
0
LINE
8
BLACK
6
CONTINUOUS
10
5.87943
20
-2.6063
11
5.87988
21
-2.60404
0
LINE
8
BLACK
6
CONTINUOUS
10
5.87988
20
-2.60404
11
5.88116
21
-2.60212
0
LINE
8
BLACK
6
CONTINUOUS
10
5.88116
20
-2.60212
11
5.88307
21
-2.60084
0
LINE
8
BLACK
6
CONTINUOUS
10
5.88307
20
-2.60084
11
5.88533
21
-2.60039
0
LINE
8
BLACK
6
CONTINUOUS
10
5.88533
20
-2.60039
11
5.93159
21
-2.60039
0
LINE
8
BLACK
6
CONTINUOUS
10
5.93159
20
-2.60039
11
5.93385
21
-2.60084
0
LINE
8
BLACK
6
CONTINUOUS
10
4.48999
20
-2.54898
11
4.49318
21
-2.55111
0
LINE
8
BLACK
6
CONTINUOUS
10
4.49318
20
-2.55111
11
4.49531
21
-2.5543
0
LINE
8
BLACK
6
CONTINUOUS
10
4.49531
20
-2.5543
11
4.49606
21
-2.55807
0
LINE
8
BLACK
6
CONTINUOUS
10
4.49606
20
-2.55807
11
4.49606
21
-2.59154
0
LINE
8
BLACK
6
CONTINUOUS
10
4.49606
20
-2.59154
11
4.49531
21
-2.5953
0
LINE
8
BLACK
6
CONTINUOUS
10
4.49531
20
-2.5953
11
4.49318
21
-2.5985
0
LINE
8
BLACK
6
CONTINUOUS
10
4.49318
20
-2.5985
11
4.48999
21
-2.60063
0
LINE
8
BLACK
6
CONTINUOUS
10
4.48999
20
-2.60063
11
4.48622
21
-2.60138
0
LINE
8
BLACK
6
CONTINUOUS
10
4.48622
20
-2.60138
11
4.45079
21
-2.60138
0
LINE
8
BLACK
6
CONTINUOUS
10
4.45079
20
-2.60138
11
4.44702
21
-2.60063
0
LINE
8
BLACK
6
CONTINUOUS
10
4.44702
20
-2.60063
11
4.44383
21
-2.5985
0
LINE
8
BLACK
6
CONTINUOUS
10
4.44383
20
-2.5985
11
4.44169
21
-2.5953
0
LINE
8
BLACK
6
CONTINUOUS
10
4.44169
20
-2.5953
11
4.44094
21
-2.59154
0
LINE
8
BLACK
6
CONTINUOUS
10
4.44094
20
-2.59154
11
4.44094
21
-2.55807
0
LINE
8
BLACK
6
CONTINUOUS
10
4.44094
20
-2.55807
11
4.44169
21
-2.5543
0
LINE
8
BLACK
6
CONTINUOUS
10
4.44169
20
-2.5543
11
4.44383
21
-2.55111
0
LINE
8
BLACK
6
CONTINUOUS
10
4.44383
20
-2.55111
11
4.44702
21
-2.54898
0
LINE
8
BLACK
6
CONTINUOUS
10
4.44702
20
-2.54898
11
4.45079
21
-2.54823
0
LINE
8
BLACK
6
CONTINUOUS
10
4.45079
20
-2.54823
11
4.48622
21
-2.54823
0
LINE
8
BLACK
6
CONTINUOUS
10
4.48622
20
-2.54823
11
4.48999
21
-2.54898
0
LINE
8
BLACK
6
CONTINUOUS
10
4.59629
20
-2.54898
11
4.59948
21
-2.55111
0
LINE
8
BLACK
6
CONTINUOUS
10
4.59948
20
-2.55111
11
4.60161
21
-2.5543
0
LINE
8
BLACK
6
CONTINUOUS
10
4.60161
20
-2.5543
11
4.60236
21
-2.55807
0
LINE
8
BLACK
6
CONTINUOUS
10
4.60236
20
-2.55807
11
4.60236
21
-2.59154
0
LINE
8
BLACK
6
CONTINUOUS
10
4.60236
20
-2.59154
11
4.60161
21
-2.5953
0
LINE
8
BLACK
6
CONTINUOUS
10
4.60161
20
-2.5953
11
4.59948
21
-2.5985
0
LINE
8
BLACK
6
CONTINUOUS
10
4.59948
20
-2.5985
11
4.59629
21
-2.60063
0
LINE
8
BLACK
6
CONTINUOUS
10
4.59629
20
-2.60063
11
4.59252
21
-2.60138
0
LINE
8
BLACK
6
CONTINUOUS
10
4.59252
20
-2.60138
11
4.55709
21
-2.60138
0
LINE
8
BLACK
6
CONTINUOUS
10
4.55709
20
-2.60138
11
4.55332
21
-2.60063
0
LINE
8
BLACK
6
CONTINUOUS
10
4.55332
20
-2.60063
11
4.55013
21
-2.5985
0
LINE
8
BLACK
6
CONTINUOUS
10
4.55013
20
-2.5985
11
4.54799
21
-2.5953
0
LINE
8
BLACK
6
CONTINUOUS
10
4.54799
20
-2.5953
11
4.54724
21
-2.59154
0
LINE
8
BLACK
6
CONTINUOUS
10
4.54724
20
-2.59154
11
4.54724
21
-2.55807
0
LINE
8
BLACK
6
CONTINUOUS
10
4.54724
20
-2.55807
11
4.54799
21
-2.5543
0
LINE
8
BLACK
6
CONTINUOUS
10
4.54799
20
-2.5543
11
4.55013
21
-2.55111
0
LINE
8
BLACK
6
CONTINUOUS
10
4.55013
20
-2.55111
11
4.55332
21
-2.54898
0
LINE
8
BLACK
6
CONTINUOUS
10
4.55332
20
-2.54898
11
4.55709
21
-2.54823
0
LINE
8
BLACK
6
CONTINUOUS
10
4.55709
20
-2.54823
11
4.59252
21
-2.54823
0
LINE
8
BLACK
6
CONTINUOUS
10
4.59252
20
-2.54823
11
4.59629
21
-2.54898
0
LINE
8
BLACK
6
CONTINUOUS
10
5.76998
20
-2.56718
11
5.77189
21
-2.56846
0
LINE
8
BLACK
6
CONTINUOUS
10
5.77189
20
-2.56846
11
5.77317
21
-2.57038
0
LINE
8
BLACK
6
CONTINUOUS
10
5.77317
20
-2.57038
11
5.77362
21
-2.57264
0
LINE
8
BLACK
6
CONTINUOUS
10
5.77362
20
-2.57264
11
5.77362
21
-2.58445
0
LINE
8
BLACK
6
CONTINUOUS
10
5.77362
20
-2.58445
11
5.77317
21
-2.58671
0
LINE
8
BLACK
6
CONTINUOUS
10
5.77317
20
-2.58671
11
5.77189
21
-2.58862
0
LINE
8
BLACK
6
CONTINUOUS
10
5.77189
20
-2.58862
11
5.76998
21
-2.5899
0
LINE
8
BLACK
6
CONTINUOUS
10
5.76998
20
-2.5899
11
5.76772
21
-2.59035
0
LINE
8
BLACK
6
CONTINUOUS
10
5.76772
20
-2.59035
11
5.70276
21
-2.59035
0
LINE
8
BLACK
6
CONTINUOUS
10
5.70276
20
-2.59035
11
5.7005
21
-2.5899
0
LINE
8
BLACK
6
CONTINUOUS
10
5.7005
20
-2.5899
11
5.69858
21
-2.58862
0
LINE
8
BLACK
6
CONTINUOUS
10
5.69858
20
-2.58862
11
5.6973
21
-2.58671
0
LINE
8
BLACK
6
CONTINUOUS
10
5.6973
20
-2.58671
11
5.69685
21
-2.58445
0
LINE
8
BLACK
6
CONTINUOUS
10
5.69685
20
-2.58445
11
5.69685
21
-2.57264
0
LINE
8
BLACK
6
CONTINUOUS
10
5.69685
20
-2.57264
11
5.6973
21
-2.57038
0
LINE
8
BLACK
6
CONTINUOUS
10
5.6973
20
-2.57038
11
5.69858
21
-2.56846
0
LINE
8
BLACK
6
CONTINUOUS
10
5.69858
20
-2.56846
11
5.7005
21
-2.56718
0
LINE
8
BLACK
6
CONTINUOUS
10
5.7005
20
-2.56718
11
5.70276
21
-2.56673
0
LINE
8
BLACK
6
CONTINUOUS
10
5.70276
20
-2.56673
11
5.76772
21
-2.56673
0
LINE
8
BLACK
6
CONTINUOUS
10
5.76772
20
-2.56673
11
5.76998
21
-2.56718
0
LINE
8
BLACK
6
CONTINUOUS
10
5.57509
20
-2.56718
11
5.57701
21
-2.56846
0
LINE
8
BLACK
6
CONTINUOUS
10
5.57701
20
-2.56846
11
5.57829
21
-2.57038
0
LINE
8
BLACK
6
CONTINUOUS
10
5.57829
20
-2.57038
11
5.57874
21
-2.57264
0
LINE
8
BLACK
6
CONTINUOUS
10
5.57874
20
-2.57264
11
5.57874
21
-2.58445
0
LINE
8
BLACK
6
CONTINUOUS
10
5.57874
20
-2.58445
11
5.57829
21
-2.58671
0
LINE
8
BLACK
6
CONTINUOUS
10
5.57829
20
-2.58671
11
5.57701
21
-2.58862
0
LINE
8
BLACK
6
CONTINUOUS
10
5.57701
20
-2.58862
11
5.57509
21
-2.5899
0
LINE
8
BLACK
6
CONTINUOUS
10
5.57509
20
-2.5899
11
5.57283
21
-2.59035
0
LINE
8
BLACK
6
CONTINUOUS
10
5.57283
20
-2.59035
11
5.50787
21
-2.59035
0
LINE
8
BLACK
6
CONTINUOUS
10
5.50787
20
-2.59035
11
5.50561
21
-2.5899
0
LINE
8
BLACK
6
CONTINUOUS
10
5.50561
20
-2.5899
11
5.5037
21
-2.58862
0
LINE
8
BLACK
6
CONTINUOUS
10
5.5037
20
-2.58862
11
5.50242
21
-2.58671
0
LINE
8
BLACK
6
CONTINUOUS
10
5.50242
20
-2.58671
11
5.50197
21
-2.58445
0
LINE
8
BLACK
6
CONTINUOUS
10
5.50197
20
-2.58445
11
5.50197
21
-2.57264
0
LINE
8
BLACK
6
CONTINUOUS
10
5.50197
20
-2.57264
11
5.50242
21
-2.57038
0
LINE
8
BLACK
6
CONTINUOUS
10
5.50242
20
-2.57038
11
5.5037
21
-2.56846
0
LINE
8
BLACK
6
CONTINUOUS
10
5.5037
20
-2.56846
11
5.50561
21
-2.56718
0
LINE
8
BLACK
6
CONTINUOUS
10
5.50561
20
-2.56718
11
5.50787
21
-2.56673
0
LINE
8
BLACK
6
CONTINUOUS
10
5.50787
20
-2.56673
11
5.57283
21
-2.56673
0
LINE
8
BLACK
6
CONTINUOUS
10
5.57283
20
-2.56673
11
5.57509
21
-2.56718
0
LINE
8
BLACK
6
CONTINUOUS
10
4.10242
20
-2.55769
11
4.10498
21
-2.55939
0
LINE
8
BLACK
6
CONTINUOUS
10
4.10498
20
-2.55939
11
4.10668
21
-2.56195
0
LINE
8
BLACK
6
CONTINUOUS
10
4.10668
20
-2.56195
11
4.10728
21
-2.56496
0
LINE
8
BLACK
6
CONTINUOUS
10
4.10728
20
-2.56496
11
4.10728
21
-2.58071
0
LINE
8
BLACK
6
CONTINUOUS
10
4.10728
20
-2.58071
11
4.10668
21
-2.58372
0
LINE
8
BLACK
6
CONTINUOUS
10
4.10668
20
-2.58372
11
4.10498
21
-2.58628
0
LINE
8
BLACK
6
CONTINUOUS
10
4.10498
20
-2.58628
11
4.10242
21
-2.58798
0
LINE
8
BLACK
6
CONTINUOUS
10
4.10242
20
-2.58798
11
4.09941
21
-2.58858
0
LINE
8
BLACK
6
CONTINUOUS
10
4.09941
20
-2.58858
11
4.07776
21
-2.58858
0
LINE
8
BLACK
6
CONTINUOUS
10
4.07776
20
-2.58858
11
4.07474
21
-2.58798
0
LINE
8
BLACK
6
CONTINUOUS
10
4.07474
20
-2.58798
11
4.07219
21
-2.58628
0
LINE
8
BLACK
6
CONTINUOUS
10
4.07219
20
-2.58628
11
4.07048
21
-2.58372
0
LINE
8
BLACK
6
CONTINUOUS
10
4.07048
20
-2.58372
11
4.06988
21
-2.58071
0
LINE
8
BLACK
6
CONTINUOUS
10
4.06988
20
-2.58071
11
4.06988
21
-2.56496
0
LINE
8
BLACK
6
CONTINUOUS
10
4.06988
20
-2.56496
11
4.07048
21
-2.56195
0
LINE
8
BLACK
6
CONTINUOUS
10
4.07048
20
-2.56195
11
4.07219
21
-2.55939
0
LINE
8
BLACK
6
CONTINUOUS
10
4.07219
20
-2.55939
11
4.07474
21
-2.55769
0
LINE
8
BLACK
6
CONTINUOUS
10
4.07474
20
-2.55769
11
4.07776
21
-2.55709
0
LINE
8
BLACK
6
CONTINUOUS
10
4.07776
20
-2.55709
11
4.09941
21
-2.55709
0
LINE
8
BLACK
6
CONTINUOUS
10
4.09941
20
-2.55709
11
4.10242
21
-2.55769
0
LINE
8
BLACK
6
CONTINUOUS
10
4.40836
20
-2.56384
11
4.41028
21
-2.56512
0
LINE
8
BLACK
6
CONTINUOUS
10
4.41028
20
-2.56512
11
4.41156
21
-2.56703
0
LINE
8
BLACK
6
CONTINUOUS
10
4.41156
20
-2.56703
11
4.41201
21
-2.56929
0
LINE
8
BLACK
6
CONTINUOUS
10
4.41201
20
-2.56929
11
4.41201
21
-2.5811
0
LINE
8
BLACK
6
CONTINUOUS
10
4.41201
20
-2.5811
11
4.41156
21
-2.58336
0
LINE
8
BLACK
6
CONTINUOUS
10
4.41156
20
-2.58336
11
4.41028
21
-2.58528
0
LINE
8
BLACK
6
CONTINUOUS
10
4.41028
20
-2.58528
11
4.40836
21
-2.58656
0
LINE
8
BLACK
6
CONTINUOUS
10
4.40836
20
-2.58656
11
4.4061
21
-2.58701
0
LINE
8
BLACK
6
CONTINUOUS
10
4.4061
20
-2.58701
11
4.35984
21
-2.58701
0
LINE
8
BLACK
6
CONTINUOUS
10
4.35984
20
-2.58701
11
4.35758
21
-2.58656
0
LINE
8
BLACK
6
CONTINUOUS
10
4.35758
20
-2.58656
11
4.35567
21
-2.58528
0
LINE
8
BLACK
6
CONTINUOUS
10
4.35567
20
-2.58528
11
4.35439
21
-2.58336
0
LINE
8
BLACK
6
CONTINUOUS
10
4.35439
20
-2.58336
11
4.35394
21
-2.5811
0
LINE
8
BLACK
6
CONTINUOUS
10
4.35394
20
-2.5811
11
4.35394
21
-2.56929
0
LINE
8
BLACK
6
CONTINUOUS
10
4.35394
20
-2.56929
11
4.35439
21
-2.56703
0
LINE
8
BLACK
6
CONTINUOUS
10
4.35439
20
-2.56703
11
4.35567
21
-2.56512
0
LINE
8
BLACK
6
CONTINUOUS
10
4.35567
20
-2.56512
11
4.35758
21
-2.56384
0
LINE
8
BLACK
6
CONTINUOUS
10
4.35758
20
-2.56384
11
4.35984
21
-2.56339
0
LINE
8
BLACK
6
CONTINUOUS
10
4.35984
20
-2.56339
11
4.4061
21
-2.56339
0
LINE
8
BLACK
6
CONTINUOUS
10
4.4061
20
-2.56339
11
4.40836
21
-2.56384
0
LINE
8
BLACK
6
CONTINUOUS
10
5.86004
20
-2.56344
11
5.86195
21
-2.56472
0
LINE
8
BLACK
6
CONTINUOUS
10
5.86195
20
-2.56472
11
5.86323
21
-2.56664
0
LINE
8
BLACK
6
CONTINUOUS
10
5.86323
20
-2.56664
11
5.86368
21
-2.5689
0
LINE
8
BLACK
6
CONTINUOUS
10
5.86368
20
-2.5689
11
5.86368
21
-2.58071
0
LINE
8
BLACK
6
CONTINUOUS
10
5.86368
20
-2.58071
11
5.86323
21
-2.58297
0
LINE
8
BLACK
6
CONTINUOUS
10
5.86323
20
-2.58297
11
5.86195
21
-2.58488
0
LINE
8
BLACK
6
CONTINUOUS
10
5.86195
20
-2.58488
11
5.86004
21
-2.58616
0
LINE
8
BLACK
6
CONTINUOUS
10
5.86004
20
-2.58616
11
5.85778
21
-2.58661
0
LINE
8
BLACK
6
CONTINUOUS
10
5.85778
20
-2.58661
11
5.81152
21
-2.58661
0
LINE
8
BLACK
6
CONTINUOUS
10
5.81152
20
-2.58661
11
5.80926
21
-2.58616
0
LINE
8
BLACK
6
CONTINUOUS
10
5.80926
20
-2.58616
11
5.80734
21
-2.58488
0
LINE
8
BLACK
6
CONTINUOUS
10
5.80734
20
-2.58488
11
5.80606
21
-2.58297
0
LINE
8
BLACK
6
CONTINUOUS
10
5.80606
20
-2.58297
11
5.80561
21
-2.58071
0
LINE
8
BLACK
6
CONTINUOUS
10
5.80561
20
-2.58071
11
5.80561
21
-2.5689
0
LINE
8
BLACK
6
CONTINUOUS
10
5.80561
20
-2.5689
11
5.80606
21
-2.56664
0
LINE
8
BLACK
6
CONTINUOUS
10
5.80606
20
-2.56664
11
5.80734
21
-2.56472
0
LINE
8
BLACK
6
CONTINUOUS
10
5.80734
20
-2.56472
11
5.80926
21
-2.56344
0
LINE
8
BLACK
6
CONTINUOUS
10
5.80926
20
-2.56344
11
5.81152
21
-2.56299
0
LINE
8
BLACK
6
CONTINUOUS
10
5.81152
20
-2.56299
11
5.85778
21
-2.56299
0
LINE
8
BLACK
6
CONTINUOUS
10
5.85778
20
-2.56299
11
5.86004
21
-2.56344
0
LINE
8
BLACK
6
CONTINUOUS
10
4.33454
20
-2.52643
11
4.33646
21
-2.52771
0
LINE
8
BLACK
6
CONTINUOUS
10
4.33646
20
-2.52771
11
4.33774
21
-2.52963
0
LINE
8
BLACK
6
CONTINUOUS
10
4.33774
20
-2.52963
11
4.33819
21
-2.53189
0
LINE
8
BLACK
6
CONTINUOUS
10
4.33819
20
-2.53189
11
4.33819
21
-2.5437
0
LINE
8
BLACK
6
CONTINUOUS
10
4.33819
20
-2.5437
11
4.33774
21
-2.54596
0
LINE
8
BLACK
6
CONTINUOUS
10
4.33774
20
-2.54596
11
4.33646
21
-2.54788
0
LINE
8
BLACK
6
CONTINUOUS
10
4.33646
20
-2.54788
11
4.33454
21
-2.54916
0
LINE
8
BLACK
6
CONTINUOUS
10
4.33454
20
-2.54916
11
4.33228
21
-2.54961
0
LINE
8
BLACK
6
CONTINUOUS
10
4.33228
20
-2.54961
11
4.28602
21
-2.54961
0
LINE
8
BLACK
6
CONTINUOUS
10
4.28602
20
-2.54961
11
4.28376
21
-2.54916
0
LINE
8
BLACK
6
CONTINUOUS
10
4.28376
20
-2.54916
11
4.28185
21
-2.54788
0
LINE
8
BLACK
6
CONTINUOUS
10
4.28185
20
-2.54788
11
4.28057
21
-2.54596
0
LINE
8
BLACK
6
CONTINUOUS
10
4.28057
20
-2.54596
11
4.28012
21
-2.5437
0
LINE
8
BLACK
6
CONTINUOUS
10
4.28012
20
-2.5437
11
4.28012
21
-2.53189
0
LINE
8
BLACK
6
CONTINUOUS
10
4.28012
20
-2.53189
11
4.28057
21
-2.52963
0
LINE
8
BLACK
6
CONTINUOUS
10
4.28057
20
-2.52963
11
4.28185
21
-2.52771
0
LINE
8
BLACK
6
CONTINUOUS
10
4.28185
20
-2.52771
11
4.28376
21
-2.52643
0
LINE
8
BLACK
6
CONTINUOUS
10
4.28376
20
-2.52643
11
4.28602
21
-2.52598
0
LINE
8
BLACK
6
CONTINUOUS
10
4.28602
20
-2.52598
11
4.33228
21
-2.52598
0
LINE
8
BLACK
6
CONTINUOUS
10
4.33228
20
-2.52598
11
4.33454
21
-2.52643
0
LINE
8
BLACK
6
CONTINUOUS
10
4.22441
20
-2.5315
11
4.15748
21
-2.5315
0
LINE
8
BLACK
6
CONTINUOUS
10
4.15748
20
-2.5315
11
4.15748
21
-2.48031
0
LINE
8
BLACK
6
CONTINUOUS
10
4.15748
20
-2.48031
11
4.22441
21
-2.48031
0
LINE
8
BLACK
6
CONTINUOUS
10
4.22441
20
-2.48031
11
4.22441
21
-2.5315
0
LINE
8
BLACK
6
CONTINUOUS
10
4.10242
20
-2.49273
11
4.10498
21
-2.49443
0
LINE
8
BLACK
6
CONTINUOUS
10
4.10498
20
-2.49443
11
4.10668
21
-2.49699
0
LINE
8
BLACK
6
CONTINUOUS
10
4.10668
20
-2.49699
11
4.10728
21
-2.5
0
LINE
8
BLACK
6
CONTINUOUS
10
4.10728
20
-2.5
11
4.10728
21
-2.51575
0
LINE
8
BLACK
6
CONTINUOUS
10
4.10728
20
-2.51575
11
4.10668
21
-2.51876
0
LINE
8
BLACK
6
CONTINUOUS
10
4.10668
20
-2.51876
11
4.10498
21
-2.52132
0
LINE
8
BLACK
6
CONTINUOUS
10
4.10498
20
-2.52132
11
4.10242
21
-2.52302
0
LINE
8
BLACK
6
CONTINUOUS
10
4.10242
20
-2.52302
11
4.09941
21
-2.52362
0
LINE
8
BLACK
6
CONTINUOUS
10
4.09941
20
-2.52362
11
4.07776
21
-2.52362
0
LINE
8
BLACK
6
CONTINUOUS
10
4.07776
20
-2.52362
11
4.07474
21
-2.52302
0
LINE
8
BLACK
6
CONTINUOUS
10
4.07474
20
-2.52302
11
4.07219
21
-2.52132
0
LINE
8
BLACK
6
CONTINUOUS
10
4.07219
20
-2.52132
11
4.07048
21
-2.51876
0
LINE
8
BLACK
6
CONTINUOUS
10
4.07048
20
-2.51876
11
4.06988
21
-2.51575
0
LINE
8
BLACK
6
CONTINUOUS
10
4.06988
20
-2.51575
11
4.06988
21
-2.5
0
LINE
8
BLACK
6
CONTINUOUS
10
4.06988
20
-2.5
11
4.07048
21
-2.49699
0
LINE
8
BLACK
6
CONTINUOUS
10
4.07048
20
-2.49699
11
4.07219
21
-2.49443
0
LINE
8
BLACK
6
CONTINUOUS
10
4.07219
20
-2.49443
11
4.07474
21
-2.49273
0
LINE
8
BLACK
6
CONTINUOUS
10
4.07474
20
-2.49273
11
4.07776
21
-2.49213
0
LINE
8
BLACK
6
CONTINUOUS
10
4.07776
20
-2.49213
11
4.09941
21
-2.49213
0
LINE
8
BLACK
6
CONTINUOUS
10
4.09941
20
-2.49213
11
4.10242
21
-2.49273
0
LINE
8
BLACK
6
CONTINUOUS
10
4.47977
20
-2.47902
11
4.48264
21
-2.48094
0
LINE
8
BLACK
6
CONTINUOUS
10
4.48264
20
-2.48094
11
4.48456
21
-2.48381
0
LINE
8
BLACK
6
CONTINUOUS
10
4.48456
20
-2.48381
11
4.48524
21
-2.4872
0
LINE
8
BLACK
6
CONTINUOUS
10
4.48524
20
-2.4872
11
4.48524
21
-2.50492
0
LINE
8
BLACK
6
CONTINUOUS
10
4.48524
20
-2.50492
11
4.48456
21
-2.50831
0
LINE
8
BLACK
6
CONTINUOUS
10
4.48456
20
-2.50831
11
4.48264
21
-2.51118
0
LINE
8
BLACK
6
CONTINUOUS
10
4.48264
20
-2.51118
11
4.47977
21
-2.51311
0
LINE
8
BLACK
6
CONTINUOUS
10
4.47977
20
-2.51311
11
4.47638
21
-2.51378
0
LINE
8
BLACK
6
CONTINUOUS
10
4.47638
20
-2.51378
11
4.45669
21
-2.51378
0
LINE
8
BLACK
6
CONTINUOUS
10
4.45669
20
-2.51378
11
4.4533
21
-2.51311
0
LINE
8
BLACK
6
CONTINUOUS
10
4.4533
20
-2.51311
11
4.45043
21
-2.51118
0
LINE
8
BLACK
6
CONTINUOUS
10
4.45043
20
-2.51118
11
4.44851
21
-2.50831
0
LINE
8
BLACK
6
CONTINUOUS
10
4.44851
20
-2.50831
11
4.44783
21
-2.50492
0
LINE
8
BLACK
6
CONTINUOUS
10
4.44783
20
-2.50492
11
4.44783
21
-2.4872
0
LINE
8
BLACK
6
CONTINUOUS
10
4.44783
20
-2.4872
11
4.44851
21
-2.48381
0
LINE
8
BLACK
6
CONTINUOUS
10
4.44851
20
-2.48381
11
4.45043
21
-2.48094
0
LINE
8
BLACK
6
CONTINUOUS
10
4.45043
20
-2.48094
11
4.4533
21
-2.47902
0
LINE
8
BLACK
6
CONTINUOUS
10
4.4533
20
-2.47902
11
4.45669
21
-2.47835
0
LINE
8
BLACK
6
CONTINUOUS
10
4.45669
20
-2.47835
11
4.47638
21
-2.47835
0
LINE
8
BLACK
6
CONTINUOUS
10
4.47638
20
-2.47835
11
4.47977
21
-2.47902
0
LINE
8
BLACK
6
CONTINUOUS
10
4.47977
20
-2.418
11
4.48264
21
-2.41992
0
LINE
8
BLACK
6
CONTINUOUS
10
4.48264
20
-2.41992
11
4.48456
21
-2.42279
0
LINE
8
BLACK
6
CONTINUOUS
10
4.48456
20
-2.42279
11
4.48524
21
-2.42618
0
LINE
8
BLACK
6
CONTINUOUS
10
4.48524
20
-2.42618
11
4.48524
21
-2.4439
0
LINE
8
BLACK
6
CONTINUOUS
10
4.48524
20
-2.4439
11
4.48456
21
-2.44729
0
LINE
8
BLACK
6
CONTINUOUS
10
4.48456
20
-2.44729
11
4.48264
21
-2.45016
0
LINE
8
BLACK
6
CONTINUOUS
10
4.48264
20
-2.45016
11
4.47977
21
-2.45208
0
LINE
8
BLACK
6
CONTINUOUS
10
4.47977
20
-2.45208
11
4.47638
21
-2.45276
0
LINE
8
BLACK
6
CONTINUOUS
10
4.47638
20
-2.45276
11
4.45669
21
-2.45276
0
LINE
8
BLACK
6
CONTINUOUS
10
4.45669
20
-2.45276
11
4.4533
21
-2.45208
0
LINE
8
BLACK
6
CONTINUOUS
10
4.4533
20
-2.45208
11
4.45043
21
-2.45016
0
LINE
8
BLACK
6
CONTINUOUS
10
4.45043
20
-2.45016
11
4.44851
21
-2.44729
0
LINE
8
BLACK
6
CONTINUOUS
10
4.44851
20
-2.44729
11
4.44783
21
-2.4439
0
LINE
8
BLACK
6
CONTINUOUS
10
4.44783
20
-2.4439
11
4.44783
21
-2.42618
0
LINE
8
BLACK
6
CONTINUOUS
10
4.44783
20
-2.42618
11
4.44851
21
-2.42279
0
LINE
8
BLACK
6
CONTINUOUS
10
4.44851
20
-2.42279
11
4.45043
21
-2.41992
0
LINE
8
BLACK
6
CONTINUOUS
10
4.45043
20
-2.41992
11
4.4533
21
-2.418
0
LINE
8
BLACK
6
CONTINUOUS
10
4.4533
20
-2.418
11
4.45669
21
-2.41732
0
LINE
8
BLACK
6
CONTINUOUS
10
4.45669
20
-2.41732
11
4.47638
21
-2.41732
0
LINE
8
BLACK
6
CONTINUOUS
10
4.47638
20
-2.41732
11
4.47977
21
-2.418
  0
ENDSEC
  0
EOF
