  0
SECTION
  2
HEADER
  9
$ANGBASE
  50
0.0
  9
$ANGDIR
  70
1
  9
$MEASUREMENT
  70
0
  0
ENDSEC
  0
SECTION
  2
TABLES
  0
TABLE
  2
LTYPE
  70
4
  0
LTYPE
  5
40F
  2
CONTINUOUS
  70
0
  3
Solid line
  72
65
  73
0
  40
0.0
  0
LTYPE
  5
410
  2
DASHDOT
 70
0
  3
Dash Dot ____ _ ____ _
 72
65
 73
4
 40
2.0
 49
1.25
 49
-0.25
 49
0.25
 49
-0.25
  0
LTYPE
  5
411
  2
DASHED
 70
0
  3
Dashed __ __ __ __ __
 72
65
 73
2
 40
0.75
 49
0.5
 49
-0.25
  0
LTYPE
  5
43B
  2
DOTTED
 70
0
  3
Dotted .  .  .  .
 72
65
 73
2
 40
0.2
 49
0.0
 49
-0.2
  0
ENDTAB
  0
TABLE
  2
STYLE
  70
4
  0
STYLE
  2
KICAD
  70
0
  40
0
  41
1
  42
1
  50
0
  71
0
  3
isocp.shx
  0
STYLE
  2
KICADB
  70
0
  40
0
  41
1
  42
1
  50
0
  71
0
  3
isocp.shx
  0
STYLE
  2
KICADI
  70
0
  40
0
  41
1
  42
1
  50
15
  71
0
  3
isocp.shx
  0
STYLE
  2
KICADBI
  70
0
  40
0
  41
1
  42
1
  50
15
  71
0
  3
isocp.shx
  0
ENDTAB
  0
TABLE
  2
LAYER
  70
1
  0
LAYER
  2
BLACK
  70
0
  62
7
  6
CONTINUOUS
  0
ENDTAB
  0
ENDSEC
  0
SECTION
  2
ENTITIES
0
LINE
8
BLACK
6
CONTINUOUS
10
3.88967
20
-3.12805
11
3.88898
21
-3.12638
0
LINE
8
BLACK
6
CONTINUOUS
10
3.88898
20
-3.12638
11
3.88898
21
-3.10965
0
LINE
8
BLACK
6
CONTINUOUS
10
3.88898
20
-3.10965
11
3.88967
21
-3.10798
0
LINE
8
BLACK
6
CONTINUOUS
10
3.88967
20
-3.10798
11
3.89134
21
-3.10728
0
LINE
8
BLACK
6
CONTINUOUS
10
3.89134
20
-3.10728
11
3.89301
21
-3.10798
0
LINE
8
BLACK
6
CONTINUOUS
10
3.89301
20
-3.10798
11
3.8937
21
-3.10965
0
LINE
8
BLACK
6
CONTINUOUS
10
3.8937
20
-3.10965
11
3.8937
21
-3.12402
0
LINE
8
BLACK
6
CONTINUOUS
10
3.8937
20
-3.12402
11
4.1063
21
-3.12402
0
LINE
8
BLACK
6
CONTINUOUS
10
4.1063
20
-3.12402
11
4.1063
21
-3.10965
0
LINE
8
BLACK
6
CONTINUOUS
10
4.1063
20
-3.10965
11
4.10699
21
-3.10798
0
LINE
8
BLACK
6
CONTINUOUS
10
4.10699
20
-3.10798
11
4.10866
21
-3.10728
0
LINE
8
BLACK
6
CONTINUOUS
10
4.10866
20
-3.10728
11
4.11033
21
-3.10798
0
LINE
8
BLACK
6
CONTINUOUS
10
4.11033
20
-3.10798
11
4.11102
21
-3.10965
0
LINE
8
BLACK
6
CONTINUOUS
10
4.11102
20
-3.10965
11
4.11102
21
-3.12638
0
LINE
8
BLACK
6
CONTINUOUS
10
4.11102
20
-3.12638
11
4.11033
21
-3.12805
0
LINE
8
BLACK
6
CONTINUOUS
10
4.11033
20
-3.12805
11
4.10866
21
-3.12874
0
LINE
8
BLACK
6
CONTINUOUS
10
4.10866
20
-3.12874
11
3.89134
21
-3.12874
0
LINE
8
BLACK
6
CONTINUOUS
10
3.89134
20
-3.12874
11
3.88967
21
-3.12805
0
LINE
8
BLACK
6
CONTINUOUS
10
3.8937
20
-2.89035
11
3.89301
21
-2.89202
0
LINE
8
BLACK
6
CONTINUOUS
10
3.89301
20
-2.89202
11
3.89134
21
-2.89272
0
LINE
8
BLACK
6
CONTINUOUS
10
3.89134
20
-2.89272
11
3.88967
21
-2.89202
0
LINE
8
BLACK
6
CONTINUOUS
10
3.88967
20
-2.89202
11
3.88898
21
-2.89035
0
LINE
8
BLACK
6
CONTINUOUS
10
3.88898
20
-2.89035
11
3.88898
21
-2.87362
0
LINE
8
BLACK
6
CONTINUOUS
10
3.88898
20
-2.87362
11
3.88967
21
-2.87195
0
LINE
8
BLACK
6
CONTINUOUS
10
3.88967
20
-2.87195
11
3.89134
21
-2.87126
0
LINE
8
BLACK
6
CONTINUOUS
10
3.89134
20
-2.87126
11
4.10866
21
-2.87126
0
LINE
8
BLACK
6
CONTINUOUS
10
4.10866
20
-2.87126
11
4.11033
21
-2.87195
0
LINE
8
BLACK
6
CONTINUOUS
10
4.11033
20
-2.87195
11
4.11102
21
-2.87362
0
LINE
8
BLACK
6
CONTINUOUS
10
4.11102
20
-2.87362
11
4.11102
21
-2.88799
0
LINE
8
BLACK
6
CONTINUOUS
10
4.11102
20
-2.88799
11
4.16929
21
-2.88799
0
LINE
8
BLACK
6
CONTINUOUS
10
4.16929
20
-2.88799
11
4.17096
21
-2.88868
0
LINE
8
BLACK
6
CONTINUOUS
10
4.17096
20
-2.88868
11
4.17165
21
-2.89035
0
LINE
8
BLACK
6
CONTINUOUS
10
4.17165
20
-2.89035
11
4.17096
21
-2.89202
0
LINE
8
BLACK
6
CONTINUOUS
10
4.17096
20
-2.89202
11
4.16929
21
-2.89272
0
LINE
8
BLACK
6
CONTINUOUS
10
4.16929
20
-2.89272
11
4.10866
21
-2.89272
0
LINE
8
BLACK
6
CONTINUOUS
10
4.10866
20
-2.89272
11
4.10699
21
-2.89202
0
LINE
8
BLACK
6
CONTINUOUS
10
4.10699
20
-2.89202
11
4.1063
21
-2.89035
0
LINE
8
BLACK
6
CONTINUOUS
10
4.1063
20
-2.89035
11
4.1063
21
-2.87598
0
LINE
8
BLACK
6
CONTINUOUS
10
4.1063
20
-2.87598
11
3.8937
21
-2.87598
0
LINE
8
BLACK
6
CONTINUOUS
10
3.8937
20
-2.87598
11
3.8937
21
-2.89035
0
LINE
8
BLACK
6
CONTINUOUS
10
4.03226
20
-2.81709
11
4.03295
21
-2.81899
0
LINE
8
BLACK
6
CONTINUOUS
10
4.03295
20
-2.81899
11
4.03295
21
-2.85086
0
LINE
8
BLACK
6
CONTINUOUS
10
4.03295
20
-2.85086
11
4.03277
21
-2.85187
0
LINE
8
BLACK
6
CONTINUOUS
10
4.03277
20
-2.85187
11
4.03266
21
-2.85201
0
LINE
8
BLACK
6
CONTINUOUS
10
4.03266
20
-2.85201
11
4.03264
21
-2.85218
0
LINE
8
BLACK
6
CONTINUOUS
10
4.03264
20
-2.85218
11
4.03076
21
-2.85593
0
LINE
8
BLACK
6
CONTINUOUS
10
4.03076
20
-2.85593
11
4.03024
21
-2.85664
0
LINE
8
BLACK
6
CONTINUOUS
10
4.03024
20
-2.85664
11
4.03021
21
-2.8567
0
LINE
8
BLACK
6
CONTINUOUS
10
4.03021
20
-2.8567
11
4.02833
21
-2.85857
0
LINE
8
BLACK
6
CONTINUOUS
10
4.02833
20
-2.85857
11
4.02761
21
-2.85908
0
LINE
8
BLACK
6
CONTINUOUS
10
4.02761
20
-2.85908
11
4.02757
21
-2.85913
0
LINE
8
BLACK
6
CONTINUOUS
10
4.02757
20
-2.85913
11
4.02382
21
-2.861
0
LINE
8
BLACK
6
CONTINUOUS
10
4.02382
20
-2.861
11
4.02283
21
-2.86129
0
LINE
8
BLACK
6
CONTINUOUS
10
4.02283
20
-2.86129
11
4.02266
21
-2.86125
0
LINE
8
BLACK
6
CONTINUOUS
10
4.02266
20
-2.86125
11
4.0225
21
-2.86131
0
LINE
8
BLACK
6
CONTINUOUS
10
4.0225
20
-2.86131
11
4.015
21
-2.86131
0
LINE
8
BLACK
6
CONTINUOUS
10
4.015
20
-2.86131
11
4.01399
21
-2.86114
0
LINE
8
BLACK
6
CONTINUOUS
10
4.01399
20
-2.86114
11
4.01385
21
-2.86102
0
LINE
8
BLACK
6
CONTINUOUS
10
4.01385
20
-2.86102
11
4.01368
21
-2.861
0
LINE
8
BLACK
6
CONTINUOUS
10
4.01368
20
-2.861
11
4.00993
21
-2.85913
0
LINE
8
BLACK
6
CONTINUOUS
10
4.00993
20
-2.85913
11
4.00922
21
-2.8586
0
LINE
8
BLACK
6
CONTINUOUS
10
4.00922
20
-2.8586
11
4.00916
21
-2.85857
0
LINE
8
BLACK
6
CONTINUOUS
10
4.00916
20
-2.85857
11
4.00729
21
-2.8567
0
LINE
8
BLACK
6
CONTINUOUS
10
4.00729
20
-2.8567
11
4.00678
21
-2.85598
0
LINE
8
BLACK
6
CONTINUOUS
10
4.00678
20
-2.85598
11
4.00673
21
-2.85593
0
LINE
8
BLACK
6
CONTINUOUS
10
4.00673
20
-2.85593
11
4.00486
21
-2.85218
0
LINE
8
BLACK
6
CONTINUOUS
10
4.00486
20
-2.85218
11
4.00457
21
-2.8512
0
LINE
8
BLACK
6
CONTINUOUS
10
4.00457
20
-2.8512
11
4.00461
21
-2.85103
0
LINE
8
BLACK
6
CONTINUOUS
10
4.00461
20
-2.85103
11
4.00455
21
-2.85086
0
LINE
8
BLACK
6
CONTINUOUS
10
4.00455
20
-2.85086
11
4.00455
21
-2.81899
0
LINE
8
BLACK
6
CONTINUOUS
10
4.00455
20
-2.81899
11
4.00472
21
-2.81798
0
LINE
8
BLACK
6
CONTINUOUS
10
4.00472
20
-2.81798
11
4.00602
21
-2.81643
0
LINE
8
BLACK
6
CONTINUOUS
10
4.00602
20
-2.81643
11
4.00801
21
-2.81608
0
LINE
8
BLACK
6
CONTINUOUS
10
4.00801
20
-2.81608
11
4.00976
21
-2.81709
0
LINE
8
BLACK
6
CONTINUOUS
10
4.00976
20
-2.81709
11
4.01045
21
-2.81899
0
LINE
8
BLACK
6
CONTINUOUS
10
4.01045
20
-2.81899
11
4.01045
21
-2.85017
0
LINE
8
BLACK
6
CONTINUOUS
10
4.01045
20
-2.85017
11
4.0118
21
-2.85286
0
LINE
8
BLACK
6
CONTINUOUS
10
4.0118
20
-2.85286
11
4.013
21
-2.85406
0
LINE
8
BLACK
6
CONTINUOUS
10
4.013
20
-2.85406
11
4.0157
21
-2.85541
0
LINE
8
BLACK
6
CONTINUOUS
10
4.0157
20
-2.85541
11
4.0218
21
-2.85541
0
LINE
8
BLACK
6
CONTINUOUS
10
4.0218
20
-2.85541
11
4.0245
21
-2.85406
0
LINE
8
BLACK
6
CONTINUOUS
10
4.0245
20
-2.85406
11
4.02569
21
-2.85286
0
LINE
8
BLACK
6
CONTINUOUS
10
4.02569
20
-2.85286
11
4.02704
21
-2.85017
0
LINE
8
BLACK
6
CONTINUOUS
10
4.02704
20
-2.85017
11
4.02704
21
-2.81899
0
LINE
8
BLACK
6
CONTINUOUS
10
4.02704
20
-2.81899
11
4.02722
21
-2.81798
0
LINE
8
BLACK
6
CONTINUOUS
10
4.02722
20
-2.81798
11
4.02852
21
-2.81643
0
LINE
8
BLACK
6
CONTINUOUS
10
4.02852
20
-2.81643
11
4.03051
21
-2.81608
0
LINE
8
BLACK
6
CONTINUOUS
10
4.03051
20
-2.81608
11
4.03226
21
-2.81709
0
LINE
8
BLACK
6
CONTINUOUS
10
3.98004
20
-2.81617
11
3.98021
21
-2.81616
0
LINE
8
BLACK
6
CONTINUOUS
10
3.98021
20
-2.81616
11
3.9809
21
-2.81666
0
LINE
8
BLACK
6
CONTINUOUS
10
3.9809
20
-2.81666
11
3.98164
21
-2.81709
0
LINE
8
BLACK
6
CONTINUOUS
10
3.98164
20
-2.81709
11
3.9817
21
-2.81725
0
LINE
8
BLACK
6
CONTINUOUS
10
3.9817
20
-2.81725
11
3.98183
21
-2.81735
0
LINE
8
BLACK
6
CONTINUOUS
10
3.98183
20
-2.81735
11
3.98542
21
-2.82273
0
LINE
8
BLACK
6
CONTINUOUS
10
3.98542
20
-2.82273
11
3.98863
21
-2.82594
0
LINE
8
BLACK
6
CONTINUOUS
10
3.98863
20
-2.82594
11
3.99195
21
-2.8276
0
LINE
8
BLACK
6
CONTINUOUS
10
3.99195
20
-2.8276
11
3.99277
21
-2.82821
0
LINE
8
BLACK
6
CONTINUOUS
10
3.99277
20
-2.82821
11
3.99357
21
-2.83006
0
LINE
8
BLACK
6
CONTINUOUS
10
3.99357
20
-2.83006
11
3.993
21
-2.832
0
LINE
8
BLACK
6
CONTINUOUS
10
3.993
20
-2.832
11
3.99131
21
-2.83311
0
LINE
8
BLACK
6
CONTINUOUS
10
3.99131
20
-2.83311
11
3.98931
21
-2.83288
0
LINE
8
BLACK
6
CONTINUOUS
10
3.98931
20
-2.83288
11
3.98556
21
-2.83101
0
LINE
8
BLACK
6
CONTINUOUS
10
3.98556
20
-2.83101
11
3.98485
21
-2.83048
0
LINE
8
BLACK
6
CONTINUOUS
10
3.98485
20
-2.83048
11
3.98479
21
-2.83045
0
LINE
8
BLACK
6
CONTINUOUS
10
3.98479
20
-2.83045
11
3.98233
21
-2.82799
0
LINE
8
BLACK
6
CONTINUOUS
10
3.98233
20
-2.82799
11
3.98233
21
-2.85541
0
LINE
8
BLACK
6
CONTINUOUS
10
3.98233
20
-2.85541
11
3.99063
21
-2.85541
0
LINE
8
BLACK
6
CONTINUOUS
10
3.99063
20
-2.85541
11
3.99164
21
-2.85559
0
LINE
8
BLACK
6
CONTINUOUS
10
3.99164
20
-2.85559
11
3.99318
21
-2.85689
0
LINE
8
BLACK
6
CONTINUOUS
10
3.99318
20
-2.85689
11
3.99353
21
-2.85887
0
LINE
8
BLACK
6
CONTINUOUS
10
3.99353
20
-2.85887
11
3.99252
21
-2.86062
0
LINE
8
BLACK
6
CONTINUOUS
10
3.99252
20
-2.86062
11
3.99063
21
-2.86131
0
LINE
8
BLACK
6
CONTINUOUS
10
3.99063
20
-2.86131
11
3.96813
21
-2.86131
0
LINE
8
BLACK
6
CONTINUOUS
10
3.96813
20
-2.86131
11
3.96712
21
-2.86114
0
LINE
8
BLACK
6
CONTINUOUS
10
3.96712
20
-2.86114
11
3.96557
21
-2.85984
0
LINE
8
BLACK
6
CONTINUOUS
10
3.96557
20
-2.85984
11
3.96522
21
-2.85785
0
LINE
8
BLACK
6
CONTINUOUS
10
3.96522
20
-2.85785
11
3.96623
21
-2.8561
0
LINE
8
BLACK
6
CONTINUOUS
10
3.96623
20
-2.8561
11
3.96813
21
-2.85541
0
LINE
8
BLACK
6
CONTINUOUS
10
3.96813
20
-2.85541
11
3.97642
21
-2.85541
0
LINE
8
BLACK
6
CONTINUOUS
10
3.97642
20
-2.85541
11
3.97642
21
-2.81899
0
LINE
8
BLACK
6
CONTINUOUS
10
3.97642
20
-2.81899
11
3.9766
21
-2.81798
0
LINE
8
BLACK
6
CONTINUOUS
10
3.9766
20
-2.81798
11
3.97671
21
-2.81785
0
LINE
8
BLACK
6
CONTINUOUS
10
3.97671
20
-2.81785
11
3.97673
21
-2.81768
0
LINE
8
BLACK
6
CONTINUOUS
10
3.97673
20
-2.81768
11
3.97735
21
-2.81709
0
LINE
8
BLACK
6
CONTINUOUS
10
3.97735
20
-2.81709
11
3.9779
21
-2.81643
0
LINE
8
BLACK
6
CONTINUOUS
10
3.9779
20
-2.81643
11
3.97807
21
-2.8164
0
LINE
8
BLACK
6
CONTINUOUS
10
3.97807
20
-2.8164
11
3.97819
21
-2.81629
0
LINE
8
BLACK
6
CONTINUOUS
10
3.97819
20
-2.81629
11
3.97905
21
-2.81623
0
LINE
8
BLACK
6
CONTINUOUS
10
3.97905
20
-2.81623
11
3.97989
21
-2.81608
0
LINE
8
BLACK
6
CONTINUOUS
10
3.97989
20
-2.81608
11
3.98004
21
-2.81617
  0
ENDSEC
  0
EOF
