  0
SECTION
  2
HEADER
  9
$ANGBASE
  50
0.0
  9
$ANGDIR
  70
1
  9
$MEASUREMENT
  70
0
  0
ENDSEC
  0
SECTION
  2
TABLES
  0
TABLE
  2
LTYPE
  70
4
  0
LTYPE
  5
40F
  2
CONTINUOUS
  70
0
  3
Solid line
  72
65
  73
0
  40
0.0
  0
LTYPE
  5
410
  2
DASHDOT
 70
0
  3
Dash Dot ____ _ ____ _
 72
65
 73
4
 40
2.0
 49
1.25
 49
-0.25
 49
0.25
 49
-0.25
  0
LTYPE
  5
411
  2
DASHED
 70
0
  3
Dashed __ __ __ __ __
 72
65
 73
2
 40
0.75
 49
0.5
 49
-0.25
  0
LTYPE
  5
43B
  2
DOTTED
 70
0
  3
Dotted .  .  .  .
 72
65
 73
2
 40
0.2
 49
0.0
 49
-0.2
  0
ENDTAB
  0
TABLE
  2
STYLE
  70
4
  0
STYLE
  2
KICAD
  70
0
  40
0
  41
1
  42
1
  50
0
  71
0
  3
isocp.shx
  0
STYLE
  2
KICADB
  70
0
  40
0
  41
1
  42
1
  50
0
  71
0
  3
isocp.shx
  0
STYLE
  2
KICADI
  70
0
  40
0
  41
1
  42
1
  50
15
  71
0
  3
isocp.shx
  0
STYLE
  2
KICADBI
  70
0
  40
0
  41
1
  42
1
  50
15
  71
0
  3
isocp.shx
  0
ENDTAB
  0
TABLE
  2
LAYER
  70
1
  0
LAYER
  2
BLACK
  70
0
  62
7
  6
CONTINUOUS
  0
ENDTAB
  0
ENDSEC
  0
SECTION
  2
ENTITIES
0
LINE
8
BLACK
6
CONTINUOUS
10
4.47864
20
-3.73387
11
4.49004
21
-3.7355
0
LINE
8
BLACK
6
CONTINUOUS
10
4.49004
20
-3.7355
11
4.50111
21
-3.73865
0
LINE
8
BLACK
6
CONTINUOUS
10
4.50111
20
-3.73865
11
4.51166
21
-3.74328
0
LINE
8
BLACK
6
CONTINUOUS
10
4.51166
20
-3.74328
11
4.52147
21
-3.74929
0
LINE
8
BLACK
6
CONTINUOUS
10
4.52147
20
-3.74929
11
4.53038
21
-3.75659
0
LINE
8
BLACK
6
CONTINUOUS
10
4.53038
20
-3.75659
11
4.53822
21
-3.76502
0
LINE
8
BLACK
6
CONTINUOUS
10
4.53822
20
-3.76502
11
4.54484
21
-3.77444
0
LINE
8
BLACK
6
CONTINUOUS
10
4.54484
20
-3.77444
11
4.55012
21
-3.78467
0
LINE
8
BLACK
6
CONTINUOUS
10
4.55012
20
-3.78467
11
4.55397
21
-3.79553
0
LINE
8
BLACK
6
CONTINUOUS
10
4.55397
20
-3.79553
11
4.5563
21
-3.8068
0
LINE
8
BLACK
6
CONTINUOUS
10
4.5563
20
-3.8068
11
4.55709
21
-3.81829
0
LINE
8
BLACK
6
CONTINUOUS
10
4.55709
20
-3.81829
11
4.55707
21
-3.82006
0
LINE
8
BLACK
6
CONTINUOUS
10
4.55707
20
-3.82006
11
4.55604
21
-3.83153
0
LINE
8
BLACK
6
CONTINUOUS
10
4.55604
20
-3.83153
11
4.55347
21
-3.84276
0
LINE
8
BLACK
6
CONTINUOUS
10
4.55347
20
-3.84276
11
4.5494
21
-3.85353
0
LINE
8
BLACK
6
CONTINUOUS
10
4.5494
20
-3.85353
11
4.54391
21
-3.86365
0
LINE
8
BLACK
6
CONTINUOUS
10
4.54391
20
-3.86365
11
4.53709
21
-3.87293
0
LINE
8
BLACK
6
CONTINUOUS
10
4.53709
20
-3.87293
11
4.52908
21
-3.8812
0
LINE
8
BLACK
6
CONTINUOUS
10
4.52908
20
-3.8812
11
4.52002
21
-3.8883
0
LINE
8
BLACK
6
CONTINUOUS
10
4.52002
20
-3.8883
11
4.51008
21
-3.89411
0
LINE
8
BLACK
6
CONTINUOUS
10
4.51008
20
-3.89411
11
4.49944
21
-3.89852
0
LINE
8
BLACK
6
CONTINUOUS
10
4.49944
20
-3.89852
11
4.4883
21
-3.90144
0
LINE
8
BLACK
6
CONTINUOUS
10
4.4883
20
-3.90144
11
4.47687
21
-3.90282
0
LINE
8
BLACK
6
CONTINUOUS
10
4.47687
20
-3.90282
11
4.46536
21
-3.90264
0
LINE
8
BLACK
6
CONTINUOUS
10
4.46536
20
-3.90264
11
4.45398
21
-3.9009
0
LINE
8
BLACK
6
CONTINUOUS
10
4.45398
20
-3.9009
11
4.44294
21
-3.89763
0
LINE
8
BLACK
6
CONTINUOUS
10
4.44294
20
-3.89763
11
4.43244
21
-3.89289
0
LINE
8
BLACK
6
CONTINUOUS
10
4.43244
20
-3.89289
11
4.42269
21
-3.88677
0
LINE
8
BLACK
6
CONTINUOUS
10
4.42269
20
-3.88677
11
4.41385
21
-3.87939
0
LINE
8
BLACK
6
CONTINUOUS
10
4.41385
20
-3.87939
11
4.4061
21
-3.87087
0
LINE
8
BLACK
6
CONTINUOUS
10
4.4061
20
-3.87087
11
4.39958
21
-3.86138
0
LINE
8
BLACK
6
CONTINUOUS
10
4.39958
20
-3.86138
11
4.39441
21
-3.85109
0
LINE
8
BLACK
6
CONTINUOUS
10
4.39441
20
-3.85109
11
4.39068
21
-3.8402
0
LINE
8
BLACK
6
CONTINUOUS
10
4.39068
20
-3.8402
11
4.38846
21
-3.8289
0
LINE
8
BLACK
6
CONTINUOUS
10
4.38846
20
-3.8289
11
4.3878
21
-3.81741
0
LINE
8
BLACK
6
CONTINUOUS
10
4.3878
20
-3.81741
11
4.3887
21
-3.80593
0
LINE
8
BLACK
6
CONTINUOUS
10
4.3887
20
-3.80593
11
4.39116
21
-3.79468
0
LINE
8
BLACK
6
CONTINUOUS
10
4.39116
20
-3.79468
11
4.39511
21
-3.78386
0
LINE
8
BLACK
6
CONTINUOUS
10
4.39511
20
-3.78386
11
4.4005
21
-3.77369
0
LINE
8
BLACK
6
CONTINUOUS
10
4.4005
20
-3.77369
11
4.40722
21
-3.76434
0
LINE
8
BLACK
6
CONTINUOUS
10
4.40722
20
-3.76434
11
4.41515
21
-3.75598
0
LINE
8
BLACK
6
CONTINUOUS
10
4.41515
20
-3.75598
11
4.42413
21
-3.74878
0
LINE
8
BLACK
6
CONTINUOUS
10
4.42413
20
-3.74878
11
4.43401
21
-3.74287
0
LINE
8
BLACK
6
CONTINUOUS
10
4.43401
20
-3.74287
11
4.4446
21
-3.73835
0
LINE
8
BLACK
6
CONTINUOUS
10
4.4446
20
-3.73835
11
4.45571
21
-3.73532
0
LINE
8
BLACK
6
CONTINUOUS
10
4.45571
20
-3.73532
11
4.46713
21
-3.73381
0
LINE
8
BLACK
6
CONTINUOUS
10
4.46713
20
-3.73381
11
4.47864
21
-3.73387
0
LINE
8
BLACK
6
CONTINUOUS
10
4.62451
20
-3.49337
11
4.63091
21
-3.49622
0
LINE
8
BLACK
6
CONTINUOUS
10
4.63091
20
-3.49622
11
4.63657
21
-3.50033
0
LINE
8
BLACK
6
CONTINUOUS
10
4.63657
20
-3.50033
11
4.64125
21
-3.50553
0
LINE
8
BLACK
6
CONTINUOUS
10
4.64125
20
-3.50553
11
4.64474
21
-3.51159
0
LINE
8
BLACK
6
CONTINUOUS
10
4.64474
20
-3.51159
11
4.64691
21
-3.51824
0
LINE
8
BLACK
6
CONTINUOUS
10
4.64691
20
-3.51824
11
4.64764
21
-3.5252
0
LINE
8
BLACK
6
CONTINUOUS
10
4.64764
20
-3.5252
11
4.64691
21
-3.53215
0
LINE
8
BLACK
6
CONTINUOUS
10
4.64691
20
-3.53215
11
4.64474
21
-3.53881
0
LINE
8
BLACK
6
CONTINUOUS
10
4.64474
20
-3.53881
11
4.64125
21
-3.54487
0
LINE
8
BLACK
6
CONTINUOUS
10
4.64125
20
-3.54487
11
4.63657
21
-3.55007
0
LINE
8
BLACK
6
CONTINUOUS
10
4.63657
20
-3.55007
11
4.63091
21
-3.55418
0
LINE
8
BLACK
6
CONTINUOUS
10
4.63091
20
-3.55418
11
4.62451
21
-3.55702
0
LINE
8
BLACK
6
CONTINUOUS
10
4.62451
20
-3.55702
11
4.61767
21
-3.55848
0
LINE
8
BLACK
6
CONTINUOUS
10
4.61767
20
-3.55848
11
4.61068
21
-3.55848
0
LINE
8
BLACK
6
CONTINUOUS
10
4.61068
20
-3.55848
11
4.60383
21
-3.55702
0
LINE
8
BLACK
6
CONTINUOUS
10
4.60383
20
-3.55702
11
4.59744
21
-3.55418
0
LINE
8
BLACK
6
CONTINUOUS
10
4.59744
20
-3.55418
11
4.59178
21
-3.55007
0
LINE
8
BLACK
6
CONTINUOUS
10
4.59178
20
-3.55007
11
4.5871
21
-3.54487
0
LINE
8
BLACK
6
CONTINUOUS
10
4.5871
20
-3.54487
11
4.5836
21
-3.53881
0
LINE
8
BLACK
6
CONTINUOUS
10
4.5836
20
-3.53881
11
4.58144
21
-3.53215
0
LINE
8
BLACK
6
CONTINUOUS
10
4.58144
20
-3.53215
11
4.58071
21
-3.5252
0
LINE
8
BLACK
6
CONTINUOUS
10
4.58071
20
-3.5252
11
4.58144
21
-3.51824
0
LINE
8
BLACK
6
CONTINUOUS
10
4.58144
20
-3.51824
11
4.5836
21
-3.51159
0
LINE
8
BLACK
6
CONTINUOUS
10
4.5836
20
-3.51159
11
4.5871
21
-3.50553
0
LINE
8
BLACK
6
CONTINUOUS
10
4.5871
20
-3.50553
11
4.59178
21
-3.50033
0
LINE
8
BLACK
6
CONTINUOUS
10
4.59178
20
-3.50033
11
4.59744
21
-3.49622
0
LINE
8
BLACK
6
CONTINUOUS
10
4.59744
20
-3.49622
11
4.60383
21
-3.49337
0
LINE
8
BLACK
6
CONTINUOUS
10
4.60383
20
-3.49337
11
4.61068
21
-3.49192
0
LINE
8
BLACK
6
CONTINUOUS
10
4.61068
20
-3.49192
11
4.61767
21
-3.49192
0
LINE
8
BLACK
6
CONTINUOUS
10
4.61767
20
-3.49192
11
4.62451
21
-3.49337
0
LINE
8
BLACK
6
CONTINUOUS
10
4.64764
20
-3.45866
11
4.58071
21
-3.45866
0
LINE
8
BLACK
6
CONTINUOUS
10
4.58071
20
-3.45866
11
4.58071
21
-3.39173
0
LINE
8
BLACK
6
CONTINUOUS
10
4.58071
20
-3.39173
11
4.64764
21
-3.39173
0
LINE
8
BLACK
6
CONTINUOUS
10
4.64764
20
-3.39173
11
4.64764
21
-3.45866
0
LINE
8
BLACK
6
CONTINUOUS
10
5.67329
20
-3.28111
11
5.67584
21
-3.28282
0
LINE
8
BLACK
6
CONTINUOUS
10
5.67584
20
-3.28282
11
5.67755
21
-3.28537
0
LINE
8
BLACK
6
CONTINUOUS
10
5.67755
20
-3.28537
11
5.67815
21
-3.28839
0
LINE
8
BLACK
6
CONTINUOUS
10
5.67815
20
-3.28839
11
5.67815
21
-3.31004
0
LINE
8
BLACK
6
CONTINUOUS
10
5.67815
20
-3.31004
11
5.67755
21
-3.31305
0
LINE
8
BLACK
6
CONTINUOUS
10
5.67755
20
-3.31305
11
5.67584
21
-3.31561
0
LINE
8
BLACK
6
CONTINUOUS
10
5.67584
20
-3.31561
11
5.67329
21
-3.31731
0
LINE
8
BLACK
6
CONTINUOUS
10
5.67329
20
-3.31731
11
5.67028
21
-3.31791
0
LINE
8
BLACK
6
CONTINUOUS
10
5.67028
20
-3.31791
11
5.65453
21
-3.31791
0
LINE
8
BLACK
6
CONTINUOUS
10
5.65453
20
-3.31791
11
5.65151
21
-3.31731
0
LINE
8
BLACK
6
CONTINUOUS
10
5.65151
20
-3.31731
11
5.64896
21
-3.31561
0
LINE
8
BLACK
6
CONTINUOUS
10
5.64896
20
-3.31561
11
5.64725
21
-3.31305
0
LINE
8
BLACK
6
CONTINUOUS
10
5.64725
20
-3.31305
11
5.64665
21
-3.31004
0
LINE
8
BLACK
6
CONTINUOUS
10
5.64665
20
-3.31004
11
5.64665
21
-3.28839
0
LINE
8
BLACK
6
CONTINUOUS
10
5.64665
20
-3.28839
11
5.64725
21
-3.28537
0
LINE
8
BLACK
6
CONTINUOUS
10
5.64725
20
-3.28537
11
5.64896
21
-3.28282
0
LINE
8
BLACK
6
CONTINUOUS
10
5.64896
20
-3.28282
11
5.65151
21
-3.28111
0
LINE
8
BLACK
6
CONTINUOUS
10
5.65151
20
-3.28111
11
5.65453
21
-3.28051
0
LINE
8
BLACK
6
CONTINUOUS
10
5.65453
20
-3.28051
11
5.67028
21
-3.28051
0
LINE
8
BLACK
6
CONTINUOUS
10
5.67028
20
-3.28051
11
5.67329
21
-3.28111
0
LINE
8
BLACK
6
CONTINUOUS
10
5.60833
20
-3.28111
11
5.61088
21
-3.28282
0
LINE
8
BLACK
6
CONTINUOUS
10
5.61088
20
-3.28282
11
5.61259
21
-3.28537
0
LINE
8
BLACK
6
CONTINUOUS
10
5.61259
20
-3.28537
11
5.61319
21
-3.28839
0
LINE
8
BLACK
6
CONTINUOUS
10
5.61319
20
-3.28839
11
5.61319
21
-3.31004
0
LINE
8
BLACK
6
CONTINUOUS
10
5.61319
20
-3.31004
11
5.61259
21
-3.31305
0
LINE
8
BLACK
6
CONTINUOUS
10
5.61259
20
-3.31305
11
5.61088
21
-3.31561
0
LINE
8
BLACK
6
CONTINUOUS
10
5.61088
20
-3.31561
11
5.60833
21
-3.31731
0
LINE
8
BLACK
6
CONTINUOUS
10
5.60833
20
-3.31731
11
5.60531
21
-3.31791
0
LINE
8
BLACK
6
CONTINUOUS
10
5.60531
20
-3.31791
11
5.58957
21
-3.31791
0
LINE
8
BLACK
6
CONTINUOUS
10
5.58957
20
-3.31791
11
5.58655
21
-3.31731
0
LINE
8
BLACK
6
CONTINUOUS
10
5.58655
20
-3.31731
11
5.584
21
-3.31561
0
LINE
8
BLACK
6
CONTINUOUS
10
5.584
20
-3.31561
11
5.58229
21
-3.31305
0
LINE
8
BLACK
6
CONTINUOUS
10
5.58229
20
-3.31305
11
5.58169
21
-3.31004
0
LINE
8
BLACK
6
CONTINUOUS
10
5.58169
20
-3.31004
11
5.58169
21
-3.28839
0
LINE
8
BLACK
6
CONTINUOUS
10
5.58169
20
-3.28839
11
5.58229
21
-3.28537
0
LINE
8
BLACK
6
CONTINUOUS
10
5.58229
20
-3.28537
11
5.584
21
-3.28282
0
LINE
8
BLACK
6
CONTINUOUS
10
5.584
20
-3.28282
11
5.58655
21
-3.28111
0
LINE
8
BLACK
6
CONTINUOUS
10
5.58655
20
-3.28111
11
5.58957
21
-3.28051
0
LINE
8
BLACK
6
CONTINUOUS
10
5.58957
20
-3.28051
11
5.60531
21
-3.28051
0
LINE
8
BLACK
6
CONTINUOUS
10
5.60531
20
-3.28051
11
5.60833
21
-3.28111
0
LINE
8
BLACK
6
CONTINUOUS
10
5.46559
20
-3.27725
11
5.46847
21
-3.27917
0
LINE
8
BLACK
6
CONTINUOUS
10
5.46847
20
-3.27917
11
5.47039
21
-3.28204
0
LINE
8
BLACK
6
CONTINUOUS
10
5.47039
20
-3.28204
11
5.47106
21
-3.28543
0
LINE
8
BLACK
6
CONTINUOUS
10
5.47106
20
-3.28543
11
5.47106
21
-3.30512
0
LINE
8
BLACK
6
CONTINUOUS
10
5.47106
20
-3.30512
11
5.47039
21
-3.30851
0
LINE
8
BLACK
6
CONTINUOUS
10
5.47039
20
-3.30851
11
5.46847
21
-3.31138
0
LINE
8
BLACK
6
CONTINUOUS
10
5.46847
20
-3.31138
11
5.46559
21
-3.3133
0
LINE
8
BLACK
6
CONTINUOUS
10
5.46559
20
-3.3133
11
5.4622
21
-3.31398
0
LINE
8
BLACK
6
CONTINUOUS
10
5.4622
20
-3.31398
11
5.44449
21
-3.31398
0
LINE
8
BLACK
6
CONTINUOUS
10
5.44449
20
-3.31398
11
5.4411
21
-3.3133
0
LINE
8
BLACK
6
CONTINUOUS
10
5.4411
20
-3.3133
11
5.43822
21
-3.31138
0
LINE
8
BLACK
6
CONTINUOUS
10
5.43822
20
-3.31138
11
5.4363
21
-3.30851
0
LINE
8
BLACK
6
CONTINUOUS
10
5.4363
20
-3.30851
11
5.43563
21
-3.30512
0
LINE
8
BLACK
6
CONTINUOUS
10
5.43563
20
-3.30512
11
5.43563
21
-3.28543
0
LINE
8
BLACK
6
CONTINUOUS
10
5.43563
20
-3.28543
11
5.4363
21
-3.28204
0
LINE
8
BLACK
6
CONTINUOUS
10
5.4363
20
-3.28204
11
5.43822
21
-3.27917
0
LINE
8
BLACK
6
CONTINUOUS
10
5.43822
20
-3.27917
11
5.4411
21
-3.27725
0
LINE
8
BLACK
6
CONTINUOUS
10
5.4411
20
-3.27725
11
5.44449
21
-3.27657
0
LINE
8
BLACK
6
CONTINUOUS
10
5.44449
20
-3.27657
11
5.4622
21
-3.27657
0
LINE
8
BLACK
6
CONTINUOUS
10
5.4622
20
-3.27657
11
5.46559
21
-3.27725
0
LINE
8
BLACK
6
CONTINUOUS
10
5.52662
20
-3.27725
11
5.52949
21
-3.27917
0
LINE
8
BLACK
6
CONTINUOUS
10
5.52949
20
-3.27917
11
5.53141
21
-3.28204
0
LINE
8
BLACK
6
CONTINUOUS
10
5.53141
20
-3.28204
11
5.53209
21
-3.28543
0
LINE
8
BLACK
6
CONTINUOUS
10
5.53209
20
-3.28543
11
5.53209
21
-3.30512
0
LINE
8
BLACK
6
CONTINUOUS
10
5.53209
20
-3.30512
11
5.53141
21
-3.30851
0
LINE
8
BLACK
6
CONTINUOUS
10
5.53141
20
-3.30851
11
5.52949
21
-3.31138
0
LINE
8
BLACK
6
CONTINUOUS
10
5.52949
20
-3.31138
11
5.52662
21
-3.3133
0
LINE
8
BLACK
6
CONTINUOUS
10
5.52662
20
-3.3133
11
5.52323
21
-3.31398
0
LINE
8
BLACK
6
CONTINUOUS
10
5.52323
20
-3.31398
11
5.50551
21
-3.31398
0
LINE
8
BLACK
6
CONTINUOUS
10
5.50551
20
-3.31398
11
5.50212
21
-3.3133
0
LINE
8
BLACK
6
CONTINUOUS
10
5.50212
20
-3.3133
11
5.49925
21
-3.31138
0
LINE
8
BLACK
6
CONTINUOUS
10
5.49925
20
-3.31138
11
5.49733
21
-3.30851
0
LINE
8
BLACK
6
CONTINUOUS
10
5.49733
20
-3.30851
11
5.49665
21
-3.30512
0
LINE
8
BLACK
6
CONTINUOUS
10
5.49665
20
-3.30512
11
5.49665
21
-3.28543
0
LINE
8
BLACK
6
CONTINUOUS
10
5.49665
20
-3.28543
11
5.49733
21
-3.28204
0
LINE
8
BLACK
6
CONTINUOUS
10
5.49733
20
-3.28204
11
5.49925
21
-3.27917
0
LINE
8
BLACK
6
CONTINUOUS
10
5.49925
20
-3.27917
11
5.50212
21
-3.27725
0
LINE
8
BLACK
6
CONTINUOUS
10
5.50212
20
-3.27725
11
5.50551
21
-3.27657
0
LINE
8
BLACK
6
CONTINUOUS
10
5.50551
20
-3.27657
11
5.52323
21
-3.27657
0
LINE
8
BLACK
6
CONTINUOUS
10
5.52323
20
-3.27657
11
5.52662
21
-3.27725
0
LINE
8
BLACK
6
CONTINUOUS
10
5.82136
20
-3.24573
11
5.82776
21
-3.24858
0
LINE
8
BLACK
6
CONTINUOUS
10
5.82776
20
-3.24858
11
5.83342
21
-3.25269
0
LINE
8
BLACK
6
CONTINUOUS
10
5.83342
20
-3.25269
11
5.8381
21
-3.25789
0
LINE
8
BLACK
6
CONTINUOUS
10
5.8381
20
-3.25789
11
5.8416
21
-3.26395
0
LINE
8
BLACK
6
CONTINUOUS
10
5.8416
20
-3.26395
11
5.84376
21
-3.2706
0
LINE
8
BLACK
6
CONTINUOUS
10
5.84376
20
-3.2706
11
5.84449
21
-3.27756
0
LINE
8
BLACK
6
CONTINUOUS
10
5.84449
20
-3.27756
11
5.84376
21
-3.28452
0
LINE
8
BLACK
6
CONTINUOUS
10
5.84376
20
-3.28452
11
5.8416
21
-3.29117
0
LINE
8
BLACK
6
CONTINUOUS
10
5.8416
20
-3.29117
11
5.8381
21
-3.29723
0
LINE
8
BLACK
6
CONTINUOUS
10
5.8381
20
-3.29723
11
5.83342
21
-3.30243
0
LINE
8
BLACK
6
CONTINUOUS
10
5.83342
20
-3.30243
11
5.82776
21
-3.30654
0
LINE
8
BLACK
6
CONTINUOUS
10
5.82776
20
-3.30654
11
5.82136
21
-3.30939
0
LINE
8
BLACK
6
CONTINUOUS
10
5.82136
20
-3.30939
11
5.81452
21
-3.31084
0
LINE
8
BLACK
6
CONTINUOUS
10
5.81452
20
-3.31084
11
5.80753
21
-3.31084
0
LINE
8
BLACK
6
CONTINUOUS
10
5.80753
20
-3.31084
11
5.80068
21
-3.30939
0
LINE
8
BLACK
6
CONTINUOUS
10
5.80068
20
-3.30939
11
5.79429
21
-3.30654
0
LINE
8
BLACK
6
CONTINUOUS
10
5.79429
20
-3.30654
11
5.78863
21
-3.30243
0
LINE
8
BLACK
6
CONTINUOUS
10
5.78863
20
-3.30243
11
5.78395
21
-3.29723
0
LINE
8
BLACK
6
CONTINUOUS
10
5.78395
20
-3.29723
11
5.78045
21
-3.29117
0
LINE
8
BLACK
6
CONTINUOUS
10
5.78045
20
-3.29117
11
5.77829
21
-3.28452
0
LINE
8
BLACK
6
CONTINUOUS
10
5.77829
20
-3.28452
11
5.77756
21
-3.27756
0
LINE
8
BLACK
6
CONTINUOUS
10
5.77756
20
-3.27756
11
5.77829
21
-3.2706
0
LINE
8
BLACK
6
CONTINUOUS
10
5.77829
20
-3.2706
11
5.78045
21
-3.26395
0
LINE
8
BLACK
6
CONTINUOUS
10
5.78045
20
-3.26395
11
5.78395
21
-3.25789
0
LINE
8
BLACK
6
CONTINUOUS
10
5.78395
20
-3.25789
11
5.78863
21
-3.25269
0
LINE
8
BLACK
6
CONTINUOUS
10
5.78863
20
-3.25269
11
5.79429
21
-3.24858
0
LINE
8
BLACK
6
CONTINUOUS
10
5.79429
20
-3.24858
11
5.80068
21
-3.24573
0
LINE
8
BLACK
6
CONTINUOUS
10
5.80068
20
-3.24573
11
5.80753
21
-3.24428
0
LINE
8
BLACK
6
CONTINUOUS
10
5.80753
20
-3.24428
11
5.81452
21
-3.24428
0
LINE
8
BLACK
6
CONTINUOUS
10
5.81452
20
-3.24428
11
5.82136
21
-3.24573
0
LINE
8
BLACK
6
CONTINUOUS
10
4.38982
20
-3.23387
11
4.39238
21
-3.23557
0
LINE
8
BLACK
6
CONTINUOUS
10
4.39238
20
-3.23557
11
4.39409
21
-3.23813
0
LINE
8
BLACK
6
CONTINUOUS
10
4.39409
20
-3.23813
11
4.39469
21
-3.24114
0
LINE
8
BLACK
6
CONTINUOUS
10
4.39469
20
-3.24114
11
4.39469
21
-3.2628
0
LINE
8
BLACK
6
CONTINUOUS
10
4.39469
20
-3.2628
11
4.39409
21
-3.26581
0
LINE
8
BLACK
6
CONTINUOUS
10
4.39409
20
-3.26581
11
4.39238
21
-3.26836
0
LINE
8
BLACK
6
CONTINUOUS
10
4.39238
20
-3.26836
11
4.38982
21
-3.27007
0
LINE
8
BLACK
6
CONTINUOUS
10
4.38982
20
-3.27007
11
4.38681
21
-3.27067
0
LINE
8
BLACK
6
CONTINUOUS
10
4.38681
20
-3.27067
11
4.37106
21
-3.27067
0
LINE
8
BLACK
6
CONTINUOUS
10
4.37106
20
-3.27067
11
4.36805
21
-3.27007
0
LINE
8
BLACK
6
CONTINUOUS
10
4.36805
20
-3.27007
11
4.3655
21
-3.26836
0
LINE
8
BLACK
6
CONTINUOUS
10
4.3655
20
-3.26836
11
4.36379
21
-3.26581
0
LINE
8
BLACK
6
CONTINUOUS
10
4.36379
20
-3.26581
11
4.36319
21
-3.2628
0
LINE
8
BLACK
6
CONTINUOUS
10
4.36319
20
-3.2628
11
4.36319
21
-3.24114
0
LINE
8
BLACK
6
CONTINUOUS
10
4.36319
20
-3.24114
11
4.36379
21
-3.23813
0
LINE
8
BLACK
6
CONTINUOUS
10
4.36379
20
-3.23813
11
4.3655
21
-3.23557
0
LINE
8
BLACK
6
CONTINUOUS
10
4.3655
20
-3.23557
11
4.36805
21
-3.23387
0
LINE
8
BLACK
6
CONTINUOUS
10
4.36805
20
-3.23387
11
4.37106
21
-3.23327
0
LINE
8
BLACK
6
CONTINUOUS
10
4.37106
20
-3.23327
11
4.38681
21
-3.23327
0
LINE
8
BLACK
6
CONTINUOUS
10
4.38681
20
-3.23327
11
4.38982
21
-3.23387
0
LINE
8
BLACK
6
CONTINUOUS
10
4.32486
20
-3.23387
11
4.32742
21
-3.23557
0
LINE
8
BLACK
6
CONTINUOUS
10
4.32742
20
-3.23557
11
4.32913
21
-3.23813
0
LINE
8
BLACK
6
CONTINUOUS
10
4.32913
20
-3.23813
11
4.32972
21
-3.24114
0
LINE
8
BLACK
6
CONTINUOUS
10
4.32972
20
-3.24114
11
4.32972
21
-3.2628
0
LINE
8
BLACK
6
CONTINUOUS
10
4.32972
20
-3.2628
11
4.32913
21
-3.26581
0
LINE
8
BLACK
6
CONTINUOUS
10
4.32913
20
-3.26581
11
4.32742
21
-3.26836
0
LINE
8
BLACK
6
CONTINUOUS
10
4.32742
20
-3.26836
11
4.32486
21
-3.27007
0
LINE
8
BLACK
6
CONTINUOUS
10
4.32486
20
-3.27007
11
4.32185
21
-3.27067
0
LINE
8
BLACK
6
CONTINUOUS
10
4.32185
20
-3.27067
11
4.3061
21
-3.27067
0
LINE
8
BLACK
6
CONTINUOUS
10
4.3061
20
-3.27067
11
4.30309
21
-3.27007
0
LINE
8
BLACK
6
CONTINUOUS
10
4.30309
20
-3.27007
11
4.30053
21
-3.26836
0
LINE
8
BLACK
6
CONTINUOUS
10
4.30053
20
-3.26836
11
4.29883
21
-3.26581
0
LINE
8
BLACK
6
CONTINUOUS
10
4.29883
20
-3.26581
11
4.29823
21
-3.2628
0
LINE
8
BLACK
6
CONTINUOUS
10
4.29823
20
-3.2628
11
4.29823
21
-3.24114
0
LINE
8
BLACK
6
CONTINUOUS
10
4.29823
20
-3.24114
11
4.29883
21
-3.23813
0
LINE
8
BLACK
6
CONTINUOUS
10
4.29883
20
-3.23813
11
4.30053
21
-3.23557
0
LINE
8
BLACK
6
CONTINUOUS
10
4.30053
20
-3.23557
11
4.30309
21
-3.23387
0
LINE
8
BLACK
6
CONTINUOUS
10
4.30309
20
-3.23387
11
4.3061
21
-3.23327
0
LINE
8
BLACK
6
CONTINUOUS
10
4.3061
20
-3.23327
11
4.32185
21
-3.23327
0
LINE
8
BLACK
6
CONTINUOUS
10
4.32185
20
-3.23327
11
4.32486
21
-3.23387
0
LINE
8
BLACK
6
CONTINUOUS
10
4.26323
20
-3.23394
11
4.26611
21
-3.23586
0
LINE
8
BLACK
6
CONTINUOUS
10
4.26611
20
-3.23586
11
4.26803
21
-3.23874
0
LINE
8
BLACK
6
CONTINUOUS
10
4.26803
20
-3.23874
11
4.2687
21
-3.24213
0
LINE
8
BLACK
6
CONTINUOUS
10
4.2687
20
-3.24213
11
4.2687
21
-3.26181
0
LINE
8
BLACK
6
CONTINUOUS
10
4.2687
20
-3.26181
11
4.26803
21
-3.2652
0
LINE
8
BLACK
6
CONTINUOUS
10
4.26803
20
-3.2652
11
4.26611
21
-3.26807
0
LINE
8
BLACK
6
CONTINUOUS
10
4.26611
20
-3.26807
11
4.26323
21
-3.26999
0
LINE
8
BLACK
6
CONTINUOUS
10
4.26323
20
-3.26999
11
4.25984
21
-3.27067
0
LINE
8
BLACK
6
CONTINUOUS
10
4.25984
20
-3.27067
11
4.24213
21
-3.27067
0
LINE
8
BLACK
6
CONTINUOUS
10
4.24213
20
-3.27067
11
4.23874
21
-3.26999
0
LINE
8
BLACK
6
CONTINUOUS
10
4.23874
20
-3.26999
11
4.23586
21
-3.26807
0
LINE
8
BLACK
6
CONTINUOUS
10
4.23586
20
-3.26807
11
4.23394
21
-3.2652
0
LINE
8
BLACK
6
CONTINUOUS
10
4.23394
20
-3.2652
11
4.23327
21
-3.26181
0
LINE
8
BLACK
6
CONTINUOUS
10
4.23327
20
-3.26181
11
4.23327
21
-3.24213
0
LINE
8
BLACK
6
CONTINUOUS
10
4.23327
20
-3.24213
11
4.23394
21
-3.23874
0
LINE
8
BLACK
6
CONTINUOUS
10
4.23394
20
-3.23874
11
4.23586
21
-3.23586
0
LINE
8
BLACK
6
CONTINUOUS
10
4.23586
20
-3.23586
11
4.23874
21
-3.23394
0
LINE
8
BLACK
6
CONTINUOUS
10
4.23874
20
-3.23394
11
4.24213
21
-3.23327
0
LINE
8
BLACK
6
CONTINUOUS
10
4.24213
20
-3.23327
11
4.25984
21
-3.23327
0
LINE
8
BLACK
6
CONTINUOUS
10
4.25984
20
-3.23327
11
4.26323
21
-3.23394
0
LINE
8
BLACK
6
CONTINUOUS
10
4.20221
20
-3.23394
11
4.20508
21
-3.23586
0
LINE
8
BLACK
6
CONTINUOUS
10
4.20508
20
-3.23586
11
4.207
21
-3.23874
0
LINE
8
BLACK
6
CONTINUOUS
10
4.207
20
-3.23874
11
4.20768
21
-3.24213
0
LINE
8
BLACK
6
CONTINUOUS
10
4.20768
20
-3.24213
11
4.20768
21
-3.26181
0
LINE
8
BLACK
6
CONTINUOUS
10
4.20768
20
-3.26181
11
4.207
21
-3.2652
0
LINE
8
BLACK
6
CONTINUOUS
10
4.207
20
-3.2652
11
4.20508
21
-3.26807
0
LINE
8
BLACK
6
CONTINUOUS
10
4.20508
20
-3.26807
11
4.20221
21
-3.26999
0
LINE
8
BLACK
6
CONTINUOUS
10
4.20221
20
-3.26999
11
4.19882
21
-3.27067
0
LINE
8
BLACK
6
CONTINUOUS
10
4.19882
20
-3.27067
11
4.1811
21
-3.27067
0
LINE
8
BLACK
6
CONTINUOUS
10
4.1811
20
-3.27067
11
4.17771
21
-3.26999
0
LINE
8
BLACK
6
CONTINUOUS
10
4.17771
20
-3.26999
11
4.17484
21
-3.26807
0
LINE
8
BLACK
6
CONTINUOUS
10
4.17484
20
-3.26807
11
4.17292
21
-3.2652
0
LINE
8
BLACK
6
CONTINUOUS
10
4.17292
20
-3.2652
11
4.17224
21
-3.26181
0
LINE
8
BLACK
6
CONTINUOUS
10
4.17224
20
-3.26181
11
4.17224
21
-3.24213
0
LINE
8
BLACK
6
CONTINUOUS
10
4.17224
20
-3.24213
11
4.17292
21
-3.23874
0
LINE
8
BLACK
6
CONTINUOUS
10
4.17292
20
-3.23874
11
4.17484
21
-3.23586
0
LINE
8
BLACK
6
CONTINUOUS
10
4.17484
20
-3.23586
11
4.17771
21
-3.23394
0
LINE
8
BLACK
6
CONTINUOUS
10
4.17771
20
-3.23394
11
4.1811
21
-3.23327
0
LINE
8
BLACK
6
CONTINUOUS
10
4.1811
20
-3.23327
11
4.19882
21
-3.23327
0
LINE
8
BLACK
6
CONTINUOUS
10
4.19882
20
-3.23327
11
4.20221
21
-3.23394
0
LINE
8
BLACK
6
CONTINUOUS
10
5.24361
20
-3.17624
11
5.25
21
-3.17909
0
LINE
8
BLACK
6
CONTINUOUS
10
5.25
20
-3.17909
11
5.25566
21
-3.1832
0
LINE
8
BLACK
6
CONTINUOUS
10
5.25566
20
-3.1832
11
5.26034
21
-3.1884
0
LINE
8
BLACK
6
CONTINUOUS
10
5.26034
20
-3.1884
11
5.26384
21
-3.19446
0
LINE
8
BLACK
6
CONTINUOUS
10
5.26384
20
-3.19446
11
5.266
21
-3.20111
0
LINE
8
BLACK
6
CONTINUOUS
10
5.266
20
-3.20111
11
5.26673
21
-3.20807
0
LINE
8
BLACK
6
CONTINUOUS
10
5.26673
20
-3.20807
11
5.266
21
-3.21503
0
LINE
8
BLACK
6
CONTINUOUS
10
5.266
20
-3.21503
11
5.26384
21
-3.22168
0
LINE
8
BLACK
6
CONTINUOUS
10
5.26384
20
-3.22168
11
5.26034
21
-3.22774
0
LINE
8
BLACK
6
CONTINUOUS
10
5.26034
20
-3.22774
11
5.25566
21
-3.23294
0
LINE
8
BLACK
6
CONTINUOUS
10
5.25566
20
-3.23294
11
5.25
21
-3.23705
0
LINE
8
BLACK
6
CONTINUOUS
10
5.25
20
-3.23705
11
5.24361
21
-3.2399
0
LINE
8
BLACK
6
CONTINUOUS
10
5.24361
20
-3.2399
11
5.23677
21
-3.24135
0
LINE
8
BLACK
6
CONTINUOUS
10
5.23677
20
-3.24135
11
5.22977
21
-3.24135
0
LINE
8
BLACK
6
CONTINUOUS
10
5.22977
20
-3.24135
11
5.22293
21
-3.2399
0
LINE
8
BLACK
6
CONTINUOUS
10
5.22293
20
-3.2399
11
5.21654
21
-3.23705
0
LINE
8
BLACK
6
CONTINUOUS
10
5.21654
20
-3.23705
11
5.21088
21
-3.23294
0
LINE
8
BLACK
6
CONTINUOUS
10
5.21088
20
-3.23294
11
5.20619
21
-3.22774
0
LINE
8
BLACK
6
CONTINUOUS
10
5.20619
20
-3.22774
11
5.2027
21
-3.22168
0
LINE
8
BLACK
6
CONTINUOUS
10
5.2027
20
-3.22168
11
5.20053
21
-3.21503
0
LINE
8
BLACK
6
CONTINUOUS
10
5.20053
20
-3.21503
11
5.1998
21
-3.20807
0
LINE
8
BLACK
6
CONTINUOUS
10
5.1998
20
-3.20807
11
5.20053
21
-3.20111
0
LINE
8
BLACK
6
CONTINUOUS
10
5.20053
20
-3.20111
11
5.2027
21
-3.19446
0
LINE
8
BLACK
6
CONTINUOUS
10
5.2027
20
-3.19446
11
5.20619
21
-3.1884
0
LINE
8
BLACK
6
CONTINUOUS
10
5.20619
20
-3.1884
11
5.21088
21
-3.1832
0
LINE
8
BLACK
6
CONTINUOUS
10
5.21088
20
-3.1832
11
5.21654
21
-3.17909
0
LINE
8
BLACK
6
CONTINUOUS
10
5.21654
20
-3.17909
11
5.22293
21
-3.17624
0
LINE
8
BLACK
6
CONTINUOUS
10
5.22293
20
-3.17624
11
5.22977
21
-3.17479
0
LINE
8
BLACK
6
CONTINUOUS
10
5.22977
20
-3.17479
11
5.23677
21
-3.17479
0
LINE
8
BLACK
6
CONTINUOUS
10
5.23677
20
-3.17479
11
5.24361
21
-3.17624
0
LINE
8
BLACK
6
CONTINUOUS
10
5.34361
20
-3.17624
11
5.35
21
-3.17909
0
LINE
8
BLACK
6
CONTINUOUS
10
5.35
20
-3.17909
11
5.35566
21
-3.1832
0
LINE
8
BLACK
6
CONTINUOUS
10
5.35566
20
-3.1832
11
5.36034
21
-3.1884
0
LINE
8
BLACK
6
CONTINUOUS
10
5.36034
20
-3.1884
11
5.36384
21
-3.19446
0
LINE
8
BLACK
6
CONTINUOUS
10
5.36384
20
-3.19446
11
5.366
21
-3.20111
0
LINE
8
BLACK
6
CONTINUOUS
10
5.366
20
-3.20111
11
5.36673
21
-3.20807
0
LINE
8
BLACK
6
CONTINUOUS
10
5.36673
20
-3.20807
11
5.366
21
-3.21503
0
LINE
8
BLACK
6
CONTINUOUS
10
5.366
20
-3.21503
11
5.36384
21
-3.22168
0
LINE
8
BLACK
6
CONTINUOUS
10
5.36384
20
-3.22168
11
5.36034
21
-3.22774
0
LINE
8
BLACK
6
CONTINUOUS
10
5.36034
20
-3.22774
11
5.35566
21
-3.23294
0
LINE
8
BLACK
6
CONTINUOUS
10
5.35566
20
-3.23294
11
5.35
21
-3.23705
0
LINE
8
BLACK
6
CONTINUOUS
10
5.35
20
-3.23705
11
5.34361
21
-3.2399
0
LINE
8
BLACK
6
CONTINUOUS
10
5.34361
20
-3.2399
11
5.33677
21
-3.24135
0
LINE
8
BLACK
6
CONTINUOUS
10
5.33677
20
-3.24135
11
5.32977
21
-3.24135
0
LINE
8
BLACK
6
CONTINUOUS
10
5.32977
20
-3.24135
11
5.32293
21
-3.2399
0
LINE
8
BLACK
6
CONTINUOUS
10
5.32293
20
-3.2399
11
5.31654
21
-3.23705
0
LINE
8
BLACK
6
CONTINUOUS
10
5.31654
20
-3.23705
11
5.31088
21
-3.23294
0
LINE
8
BLACK
6
CONTINUOUS
10
5.31088
20
-3.23294
11
5.30619
21
-3.22774
0
LINE
8
BLACK
6
CONTINUOUS
10
5.30619
20
-3.22774
11
5.3027
21
-3.22168
0
LINE
8
BLACK
6
CONTINUOUS
10
5.3027
20
-3.22168
11
5.30053
21
-3.21503
0
LINE
8
BLACK
6
CONTINUOUS
10
5.30053
20
-3.21503
11
5.2998
21
-3.20807
0
LINE
8
BLACK
6
CONTINUOUS
10
5.2998
20
-3.20807
11
5.30053
21
-3.20111
0
LINE
8
BLACK
6
CONTINUOUS
10
5.30053
20
-3.20111
11
5.3027
21
-3.19446
0
LINE
8
BLACK
6
CONTINUOUS
10
5.3027
20
-3.19446
11
5.30619
21
-3.1884
0
LINE
8
BLACK
6
CONTINUOUS
10
5.30619
20
-3.1884
11
5.31088
21
-3.1832
0
LINE
8
BLACK
6
CONTINUOUS
10
5.31088
20
-3.1832
11
5.31654
21
-3.17909
0
LINE
8
BLACK
6
CONTINUOUS
10
5.31654
20
-3.17909
11
5.32293
21
-3.17624
0
LINE
8
BLACK
6
CONTINUOUS
10
5.32293
20
-3.17624
11
5.32977
21
-3.17479
0
LINE
8
BLACK
6
CONTINUOUS
10
5.32977
20
-3.17479
11
5.33677
21
-3.17479
0
LINE
8
BLACK
6
CONTINUOUS
10
5.33677
20
-3.17479
11
5.34361
21
-3.17624
0
LINE
8
BLACK
6
CONTINUOUS
10
5.50482
20
-3.2095
11
5.50673
21
-3.21078
0
LINE
8
BLACK
6
CONTINUOUS
10
5.50673
20
-3.21078
11
5.50802
21
-3.2127
0
LINE
8
BLACK
6
CONTINUOUS
10
5.50802
20
-3.2127
11
5.50846
21
-3.21496
0
LINE
8
BLACK
6
CONTINUOUS
10
5.50846
20
-3.21496
11
5.50846
21
-3.22677
0
LINE
8
BLACK
6
CONTINUOUS
10
5.50846
20
-3.22677
11
5.50802
21
-3.22903
0
LINE
8
BLACK
6
CONTINUOUS
10
5.50802
20
-3.22903
11
5.50673
21
-3.23095
0
LINE
8
BLACK
6
CONTINUOUS
10
5.50673
20
-3.23095
11
5.50482
21
-3.23223
0
LINE
8
BLACK
6
CONTINUOUS
10
5.50482
20
-3.23223
11
5.50256
21
-3.23268
0
LINE
8
BLACK
6
CONTINUOUS
10
5.50256
20
-3.23268
11
5.4376
21
-3.23268
0
LINE
8
BLACK
6
CONTINUOUS
10
5.4376
20
-3.23268
11
5.43534
21
-3.23223
0
LINE
8
BLACK
6
CONTINUOUS
10
5.43534
20
-3.23223
11
5.43342
21
-3.23095
0
LINE
8
BLACK
6
CONTINUOUS
10
5.43342
20
-3.23095
11
5.43214
21
-3.22903
0
LINE
8
BLACK
6
CONTINUOUS
10
5.43214
20
-3.22903
11
5.43169
21
-3.22677
0
LINE
8
BLACK
6
CONTINUOUS
10
5.43169
20
-3.22677
11
5.43169
21
-3.21496
0
LINE
8
BLACK
6
CONTINUOUS
10
5.43169
20
-3.21496
11
5.43214
21
-3.2127
0
LINE
8
BLACK
6
CONTINUOUS
10
5.43214
20
-3.2127
11
5.43342
21
-3.21078
0
LINE
8
BLACK
6
CONTINUOUS
10
5.43342
20
-3.21078
11
5.43534
21
-3.2095
0
LINE
8
BLACK
6
CONTINUOUS
10
5.43534
20
-3.2095
11
5.4376
21
-3.20906
0
LINE
8
BLACK
6
CONTINUOUS
10
5.4376
20
-3.20906
11
5.50256
21
-3.20906
0
LINE
8
BLACK
6
CONTINUOUS
10
5.50256
20
-3.20906
11
5.50482
21
-3.2095
0
LINE
8
BLACK
6
CONTINUOUS
10
5.6997
20
-3.2095
11
5.70162
21
-3.21078
0
LINE
8
BLACK
6
CONTINUOUS
10
5.70162
20
-3.21078
11
5.7029
21
-3.2127
0
LINE
8
BLACK
6
CONTINUOUS
10
5.7029
20
-3.2127
11
5.70335
21
-3.21496
0
LINE
8
BLACK
6
CONTINUOUS
10
5.70335
20
-3.21496
11
5.70335
21
-3.22677
0
LINE
8
BLACK
6
CONTINUOUS
10
5.70335
20
-3.22677
11
5.7029
21
-3.22903
0
LINE
8
BLACK
6
CONTINUOUS
10
5.7029
20
-3.22903
11
5.70162
21
-3.23095
0
LINE
8
BLACK
6
CONTINUOUS
10
5.70162
20
-3.23095
11
5.6997
21
-3.23223
0
LINE
8
BLACK
6
CONTINUOUS
10
5.6997
20
-3.23223
11
5.69744
21
-3.23268
0
LINE
8
BLACK
6
CONTINUOUS
10
5.69744
20
-3.23268
11
5.63248
21
-3.23268
0
LINE
8
BLACK
6
CONTINUOUS
10
5.63248
20
-3.23268
11
5.63022
21
-3.23223
0
LINE
8
BLACK
6
CONTINUOUS
10
5.63022
20
-3.23223
11
5.6283
21
-3.23095
0
LINE
8
BLACK
6
CONTINUOUS
10
5.6283
20
-3.23095
11
5.62702
21
-3.22903
0
LINE
8
BLACK
6
CONTINUOUS
10
5.62702
20
-3.22903
11
5.62657
21
-3.22677
0
LINE
8
BLACK
6
CONTINUOUS
10
5.62657
20
-3.22677
11
5.62657
21
-3.21496
0
LINE
8
BLACK
6
CONTINUOUS
10
5.62657
20
-3.21496
11
5.62702
21
-3.2127
0
LINE
8
BLACK
6
CONTINUOUS
10
5.62702
20
-3.2127
11
5.6283
21
-3.21078
0
LINE
8
BLACK
6
CONTINUOUS
10
5.6283
20
-3.21078
11
5.63022
21
-3.2095
0
LINE
8
BLACK
6
CONTINUOUS
10
5.63022
20
-3.2095
11
5.63248
21
-3.20906
0
LINE
8
BLACK
6
CONTINUOUS
10
5.63248
20
-3.20906
11
5.69744
21
-3.20906
0
LINE
8
BLACK
6
CONTINUOUS
10
5.69744
20
-3.20906
11
5.6997
21
-3.2095
0
LINE
8
BLACK
6
CONTINUOUS
10
5.82136
20
-3.14573
11
5.82776
21
-3.14858
0
LINE
8
BLACK
6
CONTINUOUS
10
5.82776
20
-3.14858
11
5.83342
21
-3.15269
0
LINE
8
BLACK
6
CONTINUOUS
10
5.83342
20
-3.15269
11
5.8381
21
-3.15789
0
LINE
8
BLACK
6
CONTINUOUS
10
5.8381
20
-3.15789
11
5.8416
21
-3.16395
0
LINE
8
BLACK
6
CONTINUOUS
10
5.8416
20
-3.16395
11
5.84376
21
-3.1706
0
LINE
8
BLACK
6
CONTINUOUS
10
5.84376
20
-3.1706
11
5.84449
21
-3.17756
0
LINE
8
BLACK
6
CONTINUOUS
10
5.84449
20
-3.17756
11
5.84376
21
-3.18452
0
LINE
8
BLACK
6
CONTINUOUS
10
5.84376
20
-3.18452
11
5.8416
21
-3.19117
0
LINE
8
BLACK
6
CONTINUOUS
10
5.8416
20
-3.19117
11
5.8381
21
-3.19723
0
LINE
8
BLACK
6
CONTINUOUS
10
5.8381
20
-3.19723
11
5.83342
21
-3.20243
0
LINE
8
BLACK
6
CONTINUOUS
10
5.83342
20
-3.20243
11
5.82776
21
-3.20654
0
LINE
8
BLACK
6
CONTINUOUS
10
5.82776
20
-3.20654
11
5.82136
21
-3.20939
0
LINE
8
BLACK
6
CONTINUOUS
10
5.82136
20
-3.20939
11
5.81452
21
-3.21084
0
LINE
8
BLACK
6
CONTINUOUS
10
5.81452
20
-3.21084
11
5.80753
21
-3.21084
0
LINE
8
BLACK
6
CONTINUOUS
10
5.80753
20
-3.21084
11
5.80068
21
-3.20939
0
LINE
8
BLACK
6
CONTINUOUS
10
5.80068
20
-3.20939
11
5.79429
21
-3.20654
0
LINE
8
BLACK
6
CONTINUOUS
10
5.79429
20
-3.20654
11
5.78863
21
-3.20243
0
LINE
8
BLACK
6
CONTINUOUS
10
5.78863
20
-3.20243
11
5.78395
21
-3.19723
0
LINE
8
BLACK
6
CONTINUOUS
10
5.78395
20
-3.19723
11
5.78045
21
-3.19117
0
LINE
8
BLACK
6
CONTINUOUS
10
5.78045
20
-3.19117
11
5.77829
21
-3.18452
0
LINE
8
BLACK
6
CONTINUOUS
10
5.77829
20
-3.18452
11
5.77756
21
-3.17756
0
LINE
8
BLACK
6
CONTINUOUS
10
5.77756
20
-3.17756
11
5.77829
21
-3.1706
0
LINE
8
BLACK
6
CONTINUOUS
10
5.77829
20
-3.1706
11
5.78045
21
-3.16395
0
LINE
8
BLACK
6
CONTINUOUS
10
5.78045
20
-3.16395
11
5.78395
21
-3.15789
0
LINE
8
BLACK
6
CONTINUOUS
10
5.78395
20
-3.15789
11
5.78863
21
-3.15269
0
LINE
8
BLACK
6
CONTINUOUS
10
5.78863
20
-3.15269
11
5.79429
21
-3.14858
0
LINE
8
BLACK
6
CONTINUOUS
10
5.79429
20
-3.14858
11
5.80068
21
-3.14573
0
LINE
8
BLACK
6
CONTINUOUS
10
5.80068
20
-3.14573
11
5.80753
21
-3.14428
0
LINE
8
BLACK
6
CONTINUOUS
10
5.80753
20
-3.14428
11
5.81452
21
-3.14428
0
LINE
8
BLACK
6
CONTINUOUS
10
5.81452
20
-3.14428
11
5.82136
21
-3.14573
0
LINE
8
BLACK
6
CONTINUOUS
10
4.91043
20
-3.1939
11
4.8435
21
-3.1939
0
LINE
8
BLACK
6
CONTINUOUS
10
4.8435
20
-3.1939
11
4.8435
21
-3.12697
0
LINE
8
BLACK
6
CONTINUOUS
10
4.8435
20
-3.12697
11
4.91043
21
-3.12697
0
LINE
8
BLACK
6
CONTINUOUS
10
4.91043
20
-3.12697
11
4.91043
21
-3.1939
0
LINE
8
BLACK
6
CONTINUOUS
10
4.78731
20
-3.12861
11
4.7937
21
-3.13145
0
LINE
8
BLACK
6
CONTINUOUS
10
4.7937
20
-3.13145
11
4.79936
21
-3.13556
0
LINE
8
BLACK
6
CONTINUOUS
10
4.79936
20
-3.13556
11
4.80404
21
-3.14076
0
LINE
8
BLACK
6
CONTINUOUS
10
4.80404
20
-3.14076
11
4.80754
21
-3.14682
0
LINE
8
BLACK
6
CONTINUOUS
10
4.80754
20
-3.14682
11
4.8097
21
-3.15348
0
LINE
8
BLACK
6
CONTINUOUS
10
4.8097
20
-3.15348
11
4.81043
21
-3.16043
0
LINE
8
BLACK
6
CONTINUOUS
10
4.81043
20
-3.16043
11
4.8097
21
-3.16739
0
LINE
8
BLACK
6
CONTINUOUS
10
4.8097
20
-3.16739
11
4.80754
21
-3.17404
0
LINE
8
BLACK
6
CONTINUOUS
10
4.80754
20
-3.17404
11
4.80404
21
-3.1801
0
LINE
8
BLACK
6
CONTINUOUS
10
4.80404
20
-3.1801
11
4.79936
21
-3.1853
0
LINE
8
BLACK
6
CONTINUOUS
10
4.79936
20
-3.1853
11
4.7937
21
-3.18941
0
LINE
8
BLACK
6
CONTINUOUS
10
4.7937
20
-3.18941
11
4.78731
21
-3.19226
0
LINE
8
BLACK
6
CONTINUOUS
10
4.78731
20
-3.19226
11
4.78047
21
-3.19371
0
LINE
8
BLACK
6
CONTINUOUS
10
4.78047
20
-3.19371
11
4.77347
21
-3.19371
0
LINE
8
BLACK
6
CONTINUOUS
10
4.77347
20
-3.19371
11
4.76663
21
-3.19226
0
LINE
8
BLACK
6
CONTINUOUS
10
4.76663
20
-3.19226
11
4.76024
21
-3.18941
0
LINE
8
BLACK
6
CONTINUOUS
10
4.76024
20
-3.18941
11
4.75458
21
-3.1853
0
LINE
8
BLACK
6
CONTINUOUS
10
4.75458
20
-3.1853
11
4.7499
21
-3.1801
0
LINE
8
BLACK
6
CONTINUOUS
10
4.7499
20
-3.1801
11
4.7464
21
-3.17404
0
LINE
8
BLACK
6
CONTINUOUS
10
4.7464
20
-3.17404
11
4.74424
21
-3.16739
0
LINE
8
BLACK
6
CONTINUOUS
10
4.74424
20
-3.16739
11
4.7435
21
-3.16043
0
LINE
8
BLACK
6
CONTINUOUS
10
4.7435
20
-3.16043
11
4.74424
21
-3.15348
0
LINE
8
BLACK
6
CONTINUOUS
10
4.74424
20
-3.15348
11
4.7464
21
-3.14682
0
LINE
8
BLACK
6
CONTINUOUS
10
4.7464
20
-3.14682
11
4.7499
21
-3.14076
0
LINE
8
BLACK
6
CONTINUOUS
10
4.7499
20
-3.14076
11
4.75458
21
-3.13556
0
LINE
8
BLACK
6
CONTINUOUS
10
4.75458
20
-3.13556
11
4.76024
21
-3.13145
0
LINE
8
BLACK
6
CONTINUOUS
10
4.76024
20
-3.13145
11
4.76663
21
-3.12861
0
LINE
8
BLACK
6
CONTINUOUS
10
4.76663
20
-3.12861
11
4.77347
21
-3.12715
0
LINE
8
BLACK
6
CONTINUOUS
10
4.77347
20
-3.12715
11
4.78047
21
-3.12715
0
LINE
8
BLACK
6
CONTINUOUS
10
4.78047
20
-3.12715
11
4.78731
21
-3.12861
0
LINE
8
BLACK
6
CONTINUOUS
10
4.33887
20
-3.16364
11
4.34079
21
-3.16492
0
LINE
8
BLACK
6
CONTINUOUS
10
4.34079
20
-3.16492
11
4.34207
21
-3.16683
0
LINE
8
BLACK
6
CONTINUOUS
10
4.34207
20
-3.16683
11
4.34252
21
-3.16909
0
LINE
8
BLACK
6
CONTINUOUS
10
4.34252
20
-3.16909
11
4.34252
21
-3.18091
0
LINE
8
BLACK
6
CONTINUOUS
10
4.34252
20
-3.18091
11
4.34207
21
-3.18317
0
LINE
8
BLACK
6
CONTINUOUS
10
4.34207
20
-3.18317
11
4.34079
21
-3.18508
0
LINE
8
BLACK
6
CONTINUOUS
10
4.34079
20
-3.18508
11
4.33887
21
-3.18636
0
LINE
8
BLACK
6
CONTINUOUS
10
4.33887
20
-3.18636
11
4.33661
21
-3.18681
0
LINE
8
BLACK
6
CONTINUOUS
10
4.33661
20
-3.18681
11
4.27165
21
-3.18681
0
LINE
8
BLACK
6
CONTINUOUS
10
4.27165
20
-3.18681
11
4.26939
21
-3.18636
0
LINE
8
BLACK
6
CONTINUOUS
10
4.26939
20
-3.18636
11
4.26748
21
-3.18508
0
LINE
8
BLACK
6
CONTINUOUS
10
4.26748
20
-3.18508
11
4.2662
21
-3.18317
0
LINE
8
BLACK
6
CONTINUOUS
10
4.2662
20
-3.18317
11
4.26575
21
-3.18091
0
LINE
8
BLACK
6
CONTINUOUS
10
4.26575
20
-3.18091
11
4.26575
21
-3.16909
0
LINE
8
BLACK
6
CONTINUOUS
10
4.26575
20
-3.16909
11
4.2662
21
-3.16683
0
LINE
8
BLACK
6
CONTINUOUS
10
4.2662
20
-3.16683
11
4.26748
21
-3.16492
0
LINE
8
BLACK
6
CONTINUOUS
10
4.26748
20
-3.16492
11
4.26939
21
-3.16364
0
LINE
8
BLACK
6
CONTINUOUS
10
4.26939
20
-3.16364
11
4.27165
21
-3.16319
0
LINE
8
BLACK
6
CONTINUOUS
10
4.27165
20
-3.16319
11
4.33661
21
-3.16319
0
LINE
8
BLACK
6
CONTINUOUS
10
4.33661
20
-3.16319
11
4.33887
21
-3.16364
0
LINE
8
BLACK
6
CONTINUOUS
10
4.53376
20
-3.16364
11
4.53567
21
-3.16492
0
LINE
8
BLACK
6
CONTINUOUS
10
4.53567
20
-3.16492
11
4.53695
21
-3.16683
0
LINE
8
BLACK
6
CONTINUOUS
10
4.53695
20
-3.16683
11
4.5374
21
-3.16909
0
LINE
8
BLACK
6
CONTINUOUS
10
4.5374
20
-3.16909
11
4.5374
21
-3.18091
0
LINE
8
BLACK
6
CONTINUOUS
10
4.5374
20
-3.18091
11
4.53695
21
-3.18317
0
LINE
8
BLACK
6
CONTINUOUS
10
4.53695
20
-3.18317
11
4.53567
21
-3.18508
0
LINE
8
BLACK
6
CONTINUOUS
10
4.53567
20
-3.18508
11
4.53376
21
-3.18636
0
LINE
8
BLACK
6
CONTINUOUS
10
4.53376
20
-3.18636
11
4.5315
21
-3.18681
0
LINE
8
BLACK
6
CONTINUOUS
10
4.5315
20
-3.18681
11
4.46654
21
-3.18681
0
LINE
8
BLACK
6
CONTINUOUS
10
4.46654
20
-3.18681
11
4.46428
21
-3.18636
0
LINE
8
BLACK
6
CONTINUOUS
10
4.46428
20
-3.18636
11
4.46236
21
-3.18508
0
LINE
8
BLACK
6
CONTINUOUS
10
4.46236
20
-3.18508
11
4.46108
21
-3.18317
0
LINE
8
BLACK
6
CONTINUOUS
10
4.46108
20
-3.18317
11
4.46063
21
-3.18091
0
LINE
8
BLACK
6
CONTINUOUS
10
4.46063
20
-3.18091
11
4.46063
21
-3.16909
0
LINE
8
BLACK
6
CONTINUOUS
10
4.46063
20
-3.16909
11
4.46108
21
-3.16683
0
LINE
8
BLACK
6
CONTINUOUS
10
4.46108
20
-3.16683
11
4.46236
21
-3.16492
0
LINE
8
BLACK
6
CONTINUOUS
10
4.46236
20
-3.16492
11
4.46428
21
-3.16364
0
LINE
8
BLACK
6
CONTINUOUS
10
4.46428
20
-3.16364
11
4.46654
21
-3.16319
0
LINE
8
BLACK
6
CONTINUOUS
10
4.46654
20
-3.16319
11
4.5315
21
-3.16319
0
LINE
8
BLACK
6
CONTINUOUS
10
4.5315
20
-3.16319
11
4.53376
21
-3.16364
0
LINE
8
BLACK
6
CONTINUOUS
10
5.50482
20
-3.1595
11
5.50673
21
-3.16078
0
LINE
8
BLACK
6
CONTINUOUS
10
5.50673
20
-3.16078
11
5.50802
21
-3.1627
0
LINE
8
BLACK
6
CONTINUOUS
10
5.50802
20
-3.1627
11
5.50846
21
-3.16496
0
LINE
8
BLACK
6
CONTINUOUS
10
5.50846
20
-3.16496
11
5.50846
21
-3.17677
0
LINE
8
BLACK
6
CONTINUOUS
10
5.50846
20
-3.17677
11
5.50802
21
-3.17903
0
LINE
8
BLACK
6
CONTINUOUS
10
5.50802
20
-3.17903
11
5.50673
21
-3.18095
0
LINE
8
BLACK
6
CONTINUOUS
10
5.50673
20
-3.18095
11
5.50482
21
-3.18223
0
LINE
8
BLACK
6
CONTINUOUS
10
5.50482
20
-3.18223
11
5.50256
21
-3.18268
0
LINE
8
BLACK
6
CONTINUOUS
10
5.50256
20
-3.18268
11
5.4376
21
-3.18268
0
LINE
8
BLACK
6
CONTINUOUS
10
5.4376
20
-3.18268
11
5.43534
21
-3.18223
0
LINE
8
BLACK
6
CONTINUOUS
10
5.43534
20
-3.18223
11
5.43342
21
-3.18095
0
LINE
8
BLACK
6
CONTINUOUS
10
5.43342
20
-3.18095
11
5.43214
21
-3.17903
0
LINE
8
BLACK
6
CONTINUOUS
10
5.43214
20
-3.17903
11
5.43169
21
-3.17677
0
LINE
8
BLACK
6
CONTINUOUS
10
5.43169
20
-3.17677
11
5.43169
21
-3.16496
0
LINE
8
BLACK
6
CONTINUOUS
10
5.43169
20
-3.16496
11
5.43214
21
-3.1627
0
LINE
8
BLACK
6
CONTINUOUS
10
5.43214
20
-3.1627
11
5.43342
21
-3.16078
0
LINE
8
BLACK
6
CONTINUOUS
10
5.43342
20
-3.16078
11
5.43534
21
-3.1595
0
LINE
8
BLACK
6
CONTINUOUS
10
5.43534
20
-3.1595
11
5.4376
21
-3.15906
0
LINE
8
BLACK
6
CONTINUOUS
10
5.4376
20
-3.15906
11
5.50256
21
-3.15906
0
LINE
8
BLACK
6
CONTINUOUS
10
5.50256
20
-3.15906
11
5.50482
21
-3.1595
0
LINE
8
BLACK
6
CONTINUOUS
10
5.6997
20
-3.1595
11
5.70162
21
-3.16078
0
LINE
8
BLACK
6
CONTINUOUS
10
5.70162
20
-3.16078
11
5.7029
21
-3.1627
0
LINE
8
BLACK
6
CONTINUOUS
10
5.7029
20
-3.1627
11
5.70335
21
-3.16496
0
LINE
8
BLACK
6
CONTINUOUS
10
5.70335
20
-3.16496
11
5.70335
21
-3.17677
0
LINE
8
BLACK
6
CONTINUOUS
10
5.70335
20
-3.17677
11
5.7029
21
-3.17903
0
LINE
8
BLACK
6
CONTINUOUS
10
5.7029
20
-3.17903
11
5.70162
21
-3.18095
0
LINE
8
BLACK
6
CONTINUOUS
10
5.70162
20
-3.18095
11
5.6997
21
-3.18223
0
LINE
8
BLACK
6
CONTINUOUS
10
5.6997
20
-3.18223
11
5.69744
21
-3.18268
0
LINE
8
BLACK
6
CONTINUOUS
10
5.69744
20
-3.18268
11
5.63248
21
-3.18268
0
LINE
8
BLACK
6
CONTINUOUS
10
5.63248
20
-3.18268
11
5.63022
21
-3.18223
0
LINE
8
BLACK
6
CONTINUOUS
10
5.63022
20
-3.18223
11
5.6283
21
-3.18095
0
LINE
8
BLACK
6
CONTINUOUS
10
5.6283
20
-3.18095
11
5.62702
21
-3.17903
0
LINE
8
BLACK
6
CONTINUOUS
10
5.62702
20
-3.17903
11
5.62657
21
-3.17677
0
LINE
8
BLACK
6
CONTINUOUS
10
5.62657
20
-3.17677
11
5.62657
21
-3.16496
0
LINE
8
BLACK
6
CONTINUOUS
10
5.62657
20
-3.16496
11
5.62702
21
-3.1627
0
LINE
8
BLACK
6
CONTINUOUS
10
5.62702
20
-3.1627
11
5.6283
21
-3.16078
0
LINE
8
BLACK
6
CONTINUOUS
10
5.6283
20
-3.16078
11
5.63022
21
-3.1595
0
LINE
8
BLACK
6
CONTINUOUS
10
5.63022
20
-3.1595
11
5.63248
21
-3.15906
0
LINE
8
BLACK
6
CONTINUOUS
10
5.63248
20
-3.15906
11
5.69744
21
-3.15906
0
LINE
8
BLACK
6
CONTINUOUS
10
5.69744
20
-3.15906
11
5.6997
21
-3.1595
0
LINE
8
BLACK
6
CONTINUOUS
10
5.24361
20
-3.07624
11
5.25
21
-3.07909
0
LINE
8
BLACK
6
CONTINUOUS
10
5.25
20
-3.07909
11
5.25566
21
-3.0832
0
LINE
8
BLACK
6
CONTINUOUS
10
5.25566
20
-3.0832
11
5.26034
21
-3.0884
0
LINE
8
BLACK
6
CONTINUOUS
10
5.26034
20
-3.0884
11
5.26384
21
-3.09446
0
LINE
8
BLACK
6
CONTINUOUS
10
5.26384
20
-3.09446
11
5.266
21
-3.10111
0
LINE
8
BLACK
6
CONTINUOUS
10
5.266
20
-3.10111
11
5.26673
21
-3.10807
0
LINE
8
BLACK
6
CONTINUOUS
10
5.26673
20
-3.10807
11
5.266
21
-3.11503
0
LINE
8
BLACK
6
CONTINUOUS
10
5.266
20
-3.11503
11
5.26384
21
-3.12168
0
LINE
8
BLACK
6
CONTINUOUS
10
5.26384
20
-3.12168
11
5.26034
21
-3.12774
0
LINE
8
BLACK
6
CONTINUOUS
10
5.26034
20
-3.12774
11
5.25566
21
-3.13294
0
LINE
8
BLACK
6
CONTINUOUS
10
5.25566
20
-3.13294
11
5.25
21
-3.13705
0
LINE
8
BLACK
6
CONTINUOUS
10
5.25
20
-3.13705
11
5.24361
21
-3.1399
0
LINE
8
BLACK
6
CONTINUOUS
10
5.24361
20
-3.1399
11
5.23677
21
-3.14135
0
LINE
8
BLACK
6
CONTINUOUS
10
5.23677
20
-3.14135
11
5.22977
21
-3.14135
0
LINE
8
BLACK
6
CONTINUOUS
10
5.22977
20
-3.14135
11
5.22293
21
-3.1399
0
LINE
8
BLACK
6
CONTINUOUS
10
5.22293
20
-3.1399
11
5.21654
21
-3.13705
0
LINE
8
BLACK
6
CONTINUOUS
10
5.21654
20
-3.13705
11
5.21088
21
-3.13294
0
LINE
8
BLACK
6
CONTINUOUS
10
5.21088
20
-3.13294
11
5.20619
21
-3.12774
0
LINE
8
BLACK
6
CONTINUOUS
10
5.20619
20
-3.12774
11
5.2027
21
-3.12168
0
LINE
8
BLACK
6
CONTINUOUS
10
5.2027
20
-3.12168
11
5.20053
21
-3.11503
0
LINE
8
BLACK
6
CONTINUOUS
10
5.20053
20
-3.11503
11
5.1998
21
-3.10807
0
LINE
8
BLACK
6
CONTINUOUS
10
5.1998
20
-3.10807
11
5.20053
21
-3.10111
0
LINE
8
BLACK
6
CONTINUOUS
10
5.20053
20
-3.10111
11
5.2027
21
-3.09446
0
LINE
8
BLACK
6
CONTINUOUS
10
5.2027
20
-3.09446
11
5.20619
21
-3.0884
0
LINE
8
BLACK
6
CONTINUOUS
10
5.20619
20
-3.0884
11
5.21088
21
-3.0832
0
LINE
8
BLACK
6
CONTINUOUS
10
5.21088
20
-3.0832
11
5.21654
21
-3.07909
0
LINE
8
BLACK
6
CONTINUOUS
10
5.21654
20
-3.07909
11
5.22293
21
-3.07624
0
LINE
8
BLACK
6
CONTINUOUS
10
5.22293
20
-3.07624
11
5.22977
21
-3.07479
0
LINE
8
BLACK
6
CONTINUOUS
10
5.22977
20
-3.07479
11
5.23677
21
-3.07479
0
LINE
8
BLACK
6
CONTINUOUS
10
5.23677
20
-3.07479
11
5.24361
21
-3.07624
0
LINE
8
BLACK
6
CONTINUOUS
10
5.34361
20
-3.07624
11
5.35
21
-3.07909
0
LINE
8
BLACK
6
CONTINUOUS
10
5.35
20
-3.07909
11
5.35566
21
-3.0832
0
LINE
8
BLACK
6
CONTINUOUS
10
5.35566
20
-3.0832
11
5.36034
21
-3.0884
0
LINE
8
BLACK
6
CONTINUOUS
10
5.36034
20
-3.0884
11
5.36384
21
-3.09446
0
LINE
8
BLACK
6
CONTINUOUS
10
5.36384
20
-3.09446
11
5.366
21
-3.10111
0
LINE
8
BLACK
6
CONTINUOUS
10
5.366
20
-3.10111
11
5.36673
21
-3.10807
0
LINE
8
BLACK
6
CONTINUOUS
10
5.36673
20
-3.10807
11
5.366
21
-3.11503
0
LINE
8
BLACK
6
CONTINUOUS
10
5.366
20
-3.11503
11
5.36384
21
-3.12168
0
LINE
8
BLACK
6
CONTINUOUS
10
5.36384
20
-3.12168
11
5.36034
21
-3.12774
0
LINE
8
BLACK
6
CONTINUOUS
10
5.36034
20
-3.12774
11
5.35566
21
-3.13294
0
LINE
8
BLACK
6
CONTINUOUS
10
5.35566
20
-3.13294
11
5.35
21
-3.13705
0
LINE
8
BLACK
6
CONTINUOUS
10
5.35
20
-3.13705
11
5.34361
21
-3.1399
0
LINE
8
BLACK
6
CONTINUOUS
10
5.34361
20
-3.1399
11
5.33677
21
-3.14135
0
LINE
8
BLACK
6
CONTINUOUS
10
5.33677
20
-3.14135
11
5.32977
21
-3.14135
0
LINE
8
BLACK
6
CONTINUOUS
10
5.32977
20
-3.14135
11
5.32293
21
-3.1399
0
LINE
8
BLACK
6
CONTINUOUS
10
5.32293
20
-3.1399
11
5.31654
21
-3.13705
0
LINE
8
BLACK
6
CONTINUOUS
10
5.31654
20
-3.13705
11
5.31088
21
-3.13294
0
LINE
8
BLACK
6
CONTINUOUS
10
5.31088
20
-3.13294
11
5.30619
21
-3.12774
0
LINE
8
BLACK
6
CONTINUOUS
10
5.30619
20
-3.12774
11
5.3027
21
-3.12168
0
LINE
8
BLACK
6
CONTINUOUS
10
5.3027
20
-3.12168
11
5.30053
21
-3.11503
0
LINE
8
BLACK
6
CONTINUOUS
10
5.30053
20
-3.11503
11
5.2998
21
-3.10807
0
LINE
8
BLACK
6
CONTINUOUS
10
5.2998
20
-3.10807
11
5.30053
21
-3.10111
0
LINE
8
BLACK
6
CONTINUOUS
10
5.30053
20
-3.10111
11
5.3027
21
-3.09446
0
LINE
8
BLACK
6
CONTINUOUS
10
5.3027
20
-3.09446
11
5.30619
21
-3.0884
0
LINE
8
BLACK
6
CONTINUOUS
10
5.30619
20
-3.0884
11
5.31088
21
-3.0832
0
LINE
8
BLACK
6
CONTINUOUS
10
5.31088
20
-3.0832
11
5.31654
21
-3.07909
0
LINE
8
BLACK
6
CONTINUOUS
10
5.31654
20
-3.07909
11
5.32293
21
-3.07624
0
LINE
8
BLACK
6
CONTINUOUS
10
5.32293
20
-3.07624
11
5.32977
21
-3.07479
0
LINE
8
BLACK
6
CONTINUOUS
10
5.32977
20
-3.07479
11
5.33677
21
-3.07479
0
LINE
8
BLACK
6
CONTINUOUS
10
5.33677
20
-3.07479
11
5.34361
21
-3.07624
0
LINE
8
BLACK
6
CONTINUOUS
10
4.33887
20
-3.11364
11
4.34079
21
-3.11492
0
LINE
8
BLACK
6
CONTINUOUS
10
4.34079
20
-3.11492
11
4.34207
21
-3.11683
0
LINE
8
BLACK
6
CONTINUOUS
10
4.34207
20
-3.11683
11
4.34252
21
-3.11909
0
LINE
8
BLACK
6
CONTINUOUS
10
4.34252
20
-3.11909
11
4.34252
21
-3.13091
0
LINE
8
BLACK
6
CONTINUOUS
10
4.34252
20
-3.13091
11
4.34207
21
-3.13317
0
LINE
8
BLACK
6
CONTINUOUS
10
4.34207
20
-3.13317
11
4.34079
21
-3.13508
0
LINE
8
BLACK
6
CONTINUOUS
10
4.34079
20
-3.13508
11
4.33887
21
-3.13636
0
LINE
8
BLACK
6
CONTINUOUS
10
4.33887
20
-3.13636
11
4.33661
21
-3.13681
0
LINE
8
BLACK
6
CONTINUOUS
10
4.33661
20
-3.13681
11
4.27165
21
-3.13681
0
LINE
8
BLACK
6
CONTINUOUS
10
4.27165
20
-3.13681
11
4.26939
21
-3.13636
0
LINE
8
BLACK
6
CONTINUOUS
10
4.26939
20
-3.13636
11
4.26748
21
-3.13508
0
LINE
8
BLACK
6
CONTINUOUS
10
4.26748
20
-3.13508
11
4.2662
21
-3.13317
0
LINE
8
BLACK
6
CONTINUOUS
10
4.2662
20
-3.13317
11
4.26575
21
-3.13091
0
LINE
8
BLACK
6
CONTINUOUS
10
4.26575
20
-3.13091
11
4.26575
21
-3.11909
0
LINE
8
BLACK
6
CONTINUOUS
10
4.26575
20
-3.11909
11
4.2662
21
-3.11683
0
LINE
8
BLACK
6
CONTINUOUS
10
4.2662
20
-3.11683
11
4.26748
21
-3.11492
0
LINE
8
BLACK
6
CONTINUOUS
10
4.26748
20
-3.11492
11
4.26939
21
-3.11364
0
LINE
8
BLACK
6
CONTINUOUS
10
4.26939
20
-3.11364
11
4.27165
21
-3.11319
0
LINE
8
BLACK
6
CONTINUOUS
10
4.27165
20
-3.11319
11
4.33661
21
-3.11319
0
LINE
8
BLACK
6
CONTINUOUS
10
4.33661
20
-3.11319
11
4.33887
21
-3.11364
0
LINE
8
BLACK
6
CONTINUOUS
10
4.53376
20
-3.11364
11
4.53567
21
-3.11492
0
LINE
8
BLACK
6
CONTINUOUS
10
4.53567
20
-3.11492
11
4.53695
21
-3.11683
0
LINE
8
BLACK
6
CONTINUOUS
10
4.53695
20
-3.11683
11
4.5374
21
-3.11909
0
LINE
8
BLACK
6
CONTINUOUS
10
4.5374
20
-3.11909
11
4.5374
21
-3.13091
0
LINE
8
BLACK
6
CONTINUOUS
10
4.5374
20
-3.13091
11
4.53695
21
-3.13317
0
LINE
8
BLACK
6
CONTINUOUS
10
4.53695
20
-3.13317
11
4.53567
21
-3.13508
0
LINE
8
BLACK
6
CONTINUOUS
10
4.53567
20
-3.13508
11
4.53376
21
-3.13636
0
LINE
8
BLACK
6
CONTINUOUS
10
4.53376
20
-3.13636
11
4.5315
21
-3.13681
0
LINE
8
BLACK
6
CONTINUOUS
10
4.5315
20
-3.13681
11
4.46654
21
-3.13681
0
LINE
8
BLACK
6
CONTINUOUS
10
4.46654
20
-3.13681
11
4.46428
21
-3.13636
0
LINE
8
BLACK
6
CONTINUOUS
10
4.46428
20
-3.13636
11
4.46236
21
-3.13508
0
LINE
8
BLACK
6
CONTINUOUS
10
4.46236
20
-3.13508
11
4.46108
21
-3.13317
0
LINE
8
BLACK
6
CONTINUOUS
10
4.46108
20
-3.13317
11
4.46063
21
-3.13091
0
LINE
8
BLACK
6
CONTINUOUS
10
4.46063
20
-3.13091
11
4.46063
21
-3.11909
0
LINE
8
BLACK
6
CONTINUOUS
10
4.46063
20
-3.11909
11
4.46108
21
-3.11683
0
LINE
8
BLACK
6
CONTINUOUS
10
4.46108
20
-3.11683
11
4.46236
21
-3.11492
0
LINE
8
BLACK
6
CONTINUOUS
10
4.46236
20
-3.11492
11
4.46428
21
-3.11364
0
LINE
8
BLACK
6
CONTINUOUS
10
4.46428
20
-3.11364
11
4.46654
21
-3.11319
0
LINE
8
BLACK
6
CONTINUOUS
10
4.46654
20
-3.11319
11
4.5315
21
-3.11319
0
LINE
8
BLACK
6
CONTINUOUS
10
4.5315
20
-3.11319
11
4.53376
21
-3.11364
0
LINE
8
BLACK
6
CONTINUOUS
10
5.50482
20
-3.1095
11
5.50673
21
-3.11078
0
LINE
8
BLACK
6
CONTINUOUS
10
5.50673
20
-3.11078
11
5.50802
21
-3.1127
0
LINE
8
BLACK
6
CONTINUOUS
10
5.50802
20
-3.1127
11
5.50846
21
-3.11496
0
LINE
8
BLACK
6
CONTINUOUS
10
5.50846
20
-3.11496
11
5.50846
21
-3.12677
0
LINE
8
BLACK
6
CONTINUOUS
10
5.50846
20
-3.12677
11
5.50802
21
-3.12903
0
LINE
8
BLACK
6
CONTINUOUS
10
5.50802
20
-3.12903
11
5.50673
21
-3.13095
0
LINE
8
BLACK
6
CONTINUOUS
10
5.50673
20
-3.13095
11
5.50482
21
-3.13223
0
LINE
8
BLACK
6
CONTINUOUS
10
5.50482
20
-3.13223
11
5.50256
21
-3.13268
0
LINE
8
BLACK
6
CONTINUOUS
10
5.50256
20
-3.13268
11
5.4376
21
-3.13268
0
LINE
8
BLACK
6
CONTINUOUS
10
5.4376
20
-3.13268
11
5.43534
21
-3.13223
0
LINE
8
BLACK
6
CONTINUOUS
10
5.43534
20
-3.13223
11
5.43342
21
-3.13095
0
LINE
8
BLACK
6
CONTINUOUS
10
5.43342
20
-3.13095
11
5.43214
21
-3.12903
0
LINE
8
BLACK
6
CONTINUOUS
10
5.43214
20
-3.12903
11
5.43169
21
-3.12677
0
LINE
8
BLACK
6
CONTINUOUS
10
5.43169
20
-3.12677
11
5.43169
21
-3.11496
0
LINE
8
BLACK
6
CONTINUOUS
10
5.43169
20
-3.11496
11
5.43214
21
-3.1127
0
LINE
8
BLACK
6
CONTINUOUS
10
5.43214
20
-3.1127
11
5.43342
21
-3.11078
0
LINE
8
BLACK
6
CONTINUOUS
10
5.43342
20
-3.11078
11
5.43534
21
-3.1095
0
LINE
8
BLACK
6
CONTINUOUS
10
5.43534
20
-3.1095
11
5.4376
21
-3.10906
0
LINE
8
BLACK
6
CONTINUOUS
10
5.4376
20
-3.10906
11
5.50256
21
-3.10906
0
LINE
8
BLACK
6
CONTINUOUS
10
5.50256
20
-3.10906
11
5.50482
21
-3.1095
0
LINE
8
BLACK
6
CONTINUOUS
10
5.6997
20
-3.1095
11
5.70162
21
-3.11078
0
LINE
8
BLACK
6
CONTINUOUS
10
5.70162
20
-3.11078
11
5.7029
21
-3.1127
0
LINE
8
BLACK
6
CONTINUOUS
10
5.7029
20
-3.1127
11
5.70335
21
-3.11496
0
LINE
8
BLACK
6
CONTINUOUS
10
5.70335
20
-3.11496
11
5.70335
21
-3.12677
0
LINE
8
BLACK
6
CONTINUOUS
10
5.70335
20
-3.12677
11
5.7029
21
-3.12903
0
LINE
8
BLACK
6
CONTINUOUS
10
5.7029
20
-3.12903
11
5.70162
21
-3.13095
0
LINE
8
BLACK
6
CONTINUOUS
10
5.70162
20
-3.13095
11
5.6997
21
-3.13223
0
LINE
8
BLACK
6
CONTINUOUS
10
5.6997
20
-3.13223
11
5.69744
21
-3.13268
0
LINE
8
BLACK
6
CONTINUOUS
10
5.69744
20
-3.13268
11
5.63248
21
-3.13268
0
LINE
8
BLACK
6
CONTINUOUS
10
5.63248
20
-3.13268
11
5.63022
21
-3.13223
0
LINE
8
BLACK
6
CONTINUOUS
10
5.63022
20
-3.13223
11
5.6283
21
-3.13095
0
LINE
8
BLACK
6
CONTINUOUS
10
5.6283
20
-3.13095
11
5.62702
21
-3.12903
0
LINE
8
BLACK
6
CONTINUOUS
10
5.62702
20
-3.12903
11
5.62657
21
-3.12677
0
LINE
8
BLACK
6
CONTINUOUS
10
5.62657
20
-3.12677
11
5.62657
21
-3.11496
0
LINE
8
BLACK
6
CONTINUOUS
10
5.62657
20
-3.11496
11
5.62702
21
-3.1127
0
LINE
8
BLACK
6
CONTINUOUS
10
5.62702
20
-3.1127
11
5.6283
21
-3.11078
0
LINE
8
BLACK
6
CONTINUOUS
10
5.6283
20
-3.11078
11
5.63022
21
-3.1095
0
LINE
8
BLACK
6
CONTINUOUS
10
5.63022
20
-3.1095
11
5.63248
21
-3.10906
0
LINE
8
BLACK
6
CONTINUOUS
10
5.63248
20
-3.10906
11
5.69744
21
-3.10906
0
LINE
8
BLACK
6
CONTINUOUS
10
5.69744
20
-3.10906
11
5.6997
21
-3.1095
0
LINE
8
BLACK
6
CONTINUOUS
10
5.82136
20
-3.04573
11
5.82776
21
-3.04858
0
LINE
8
BLACK
6
CONTINUOUS
10
5.82776
20
-3.04858
11
5.83342
21
-3.05269
0
LINE
8
BLACK
6
CONTINUOUS
10
5.83342
20
-3.05269
11
5.8381
21
-3.05789
0
LINE
8
BLACK
6
CONTINUOUS
10
5.8381
20
-3.05789
11
5.8416
21
-3.06395
0
LINE
8
BLACK
6
CONTINUOUS
10
5.8416
20
-3.06395
11
5.84376
21
-3.0706
0
LINE
8
BLACK
6
CONTINUOUS
10
5.84376
20
-3.0706
11
5.84449
21
-3.07756
0
LINE
8
BLACK
6
CONTINUOUS
10
5.84449
20
-3.07756
11
5.84376
21
-3.08452
0
LINE
8
BLACK
6
CONTINUOUS
10
5.84376
20
-3.08452
11
5.8416
21
-3.09117
0
LINE
8
BLACK
6
CONTINUOUS
10
5.8416
20
-3.09117
11
5.8381
21
-3.09723
0
LINE
8
BLACK
6
CONTINUOUS
10
5.8381
20
-3.09723
11
5.83342
21
-3.10243
0
LINE
8
BLACK
6
CONTINUOUS
10
5.83342
20
-3.10243
11
5.82776
21
-3.10654
0
LINE
8
BLACK
6
CONTINUOUS
10
5.82776
20
-3.10654
11
5.82136
21
-3.10939
0
LINE
8
BLACK
6
CONTINUOUS
10
5.82136
20
-3.10939
11
5.81452
21
-3.11084
0
LINE
8
BLACK
6
CONTINUOUS
10
5.81452
20
-3.11084
11
5.80753
21
-3.11084
0
LINE
8
BLACK
6
CONTINUOUS
10
5.80753
20
-3.11084
11
5.80068
21
-3.10939
0
LINE
8
BLACK
6
CONTINUOUS
10
5.80068
20
-3.10939
11
5.79429
21
-3.10654
0
LINE
8
BLACK
6
CONTINUOUS
10
5.79429
20
-3.10654
11
5.78863
21
-3.10243
0
LINE
8
BLACK
6
CONTINUOUS
10
5.78863
20
-3.10243
11
5.78395
21
-3.09723
0
LINE
8
BLACK
6
CONTINUOUS
10
5.78395
20
-3.09723
11
5.78045
21
-3.09117
0
LINE
8
BLACK
6
CONTINUOUS
10
5.78045
20
-3.09117
11
5.77829
21
-3.08452
0
LINE
8
BLACK
6
CONTINUOUS
10
5.77829
20
-3.08452
11
5.77756
21
-3.07756
0
LINE
8
BLACK
6
CONTINUOUS
10
5.77756
20
-3.07756
11
5.77829
21
-3.0706
0
LINE
8
BLACK
6
CONTINUOUS
10
5.77829
20
-3.0706
11
5.78045
21
-3.06395
0
LINE
8
BLACK
6
CONTINUOUS
10
5.78045
20
-3.06395
11
5.78395
21
-3.05789
0
LINE
8
BLACK
6
CONTINUOUS
10
5.78395
20
-3.05789
11
5.78863
21
-3.05269
0
LINE
8
BLACK
6
CONTINUOUS
10
5.78863
20
-3.05269
11
5.79429
21
-3.04858
0
LINE
8
BLACK
6
CONTINUOUS
10
5.79429
20
-3.04858
11
5.80068
21
-3.04573
0
LINE
8
BLACK
6
CONTINUOUS
10
5.80068
20
-3.04573
11
5.80753
21
-3.04428
0
LINE
8
BLACK
6
CONTINUOUS
10
5.80753
20
-3.04428
11
5.81452
21
-3.04428
0
LINE
8
BLACK
6
CONTINUOUS
10
5.81452
20
-3.04428
11
5.82136
21
-3.04573
0
LINE
8
BLACK
6
CONTINUOUS
10
4.78731
20
-3.02861
11
4.7937
21
-3.03145
0
LINE
8
BLACK
6
CONTINUOUS
10
4.7937
20
-3.03145
11
4.79936
21
-3.03556
0
LINE
8
BLACK
6
CONTINUOUS
10
4.79936
20
-3.03556
11
4.80404
21
-3.04076
0
LINE
8
BLACK
6
CONTINUOUS
10
4.80404
20
-3.04076
11
4.80754
21
-3.04682
0
LINE
8
BLACK
6
CONTINUOUS
10
4.80754
20
-3.04682
11
4.8097
21
-3.05348
0
LINE
8
BLACK
6
CONTINUOUS
10
4.8097
20
-3.05348
11
4.81043
21
-3.06043
0
LINE
8
BLACK
6
CONTINUOUS
10
4.81043
20
-3.06043
11
4.8097
21
-3.06739
0
LINE
8
BLACK
6
CONTINUOUS
10
4.8097
20
-3.06739
11
4.80754
21
-3.07404
0
LINE
8
BLACK
6
CONTINUOUS
10
4.80754
20
-3.07404
11
4.80404
21
-3.0801
0
LINE
8
BLACK
6
CONTINUOUS
10
4.80404
20
-3.0801
11
4.79936
21
-3.0853
0
LINE
8
BLACK
6
CONTINUOUS
10
4.79936
20
-3.0853
11
4.7937
21
-3.08941
0
LINE
8
BLACK
6
CONTINUOUS
10
4.7937
20
-3.08941
11
4.78731
21
-3.09226
0
LINE
8
BLACK
6
CONTINUOUS
10
4.78731
20
-3.09226
11
4.78047
21
-3.09371
0
LINE
8
BLACK
6
CONTINUOUS
10
4.78047
20
-3.09371
11
4.77347
21
-3.09371
0
LINE
8
BLACK
6
CONTINUOUS
10
4.77347
20
-3.09371
11
4.76663
21
-3.09226
0
LINE
8
BLACK
6
CONTINUOUS
10
4.76663
20
-3.09226
11
4.76024
21
-3.08941
0
LINE
8
BLACK
6
CONTINUOUS
10
4.76024
20
-3.08941
11
4.75458
21
-3.0853
0
LINE
8
BLACK
6
CONTINUOUS
10
4.75458
20
-3.0853
11
4.7499
21
-3.0801
0
LINE
8
BLACK
6
CONTINUOUS
10
4.7499
20
-3.0801
11
4.7464
21
-3.07404
0
LINE
8
BLACK
6
CONTINUOUS
10
4.7464
20
-3.07404
11
4.74424
21
-3.06739
0
LINE
8
BLACK
6
CONTINUOUS
10
4.74424
20
-3.06739
11
4.7435
21
-3.06043
0
LINE
8
BLACK
6
CONTINUOUS
10
4.7435
20
-3.06043
11
4.74424
21
-3.05348
0
LINE
8
BLACK
6
CONTINUOUS
10
4.74424
20
-3.05348
11
4.7464
21
-3.04682
0
LINE
8
BLACK
6
CONTINUOUS
10
4.7464
20
-3.04682
11
4.7499
21
-3.04076
0
LINE
8
BLACK
6
CONTINUOUS
10
4.7499
20
-3.04076
11
4.75458
21
-3.03556
0
LINE
8
BLACK
6
CONTINUOUS
10
4.75458
20
-3.03556
11
4.76024
21
-3.03145
0
LINE
8
BLACK
6
CONTINUOUS
10
4.76024
20
-3.03145
11
4.76663
21
-3.02861
0
LINE
8
BLACK
6
CONTINUOUS
10
4.76663
20
-3.02861
11
4.77347
21
-3.02715
0
LINE
8
BLACK
6
CONTINUOUS
10
4.77347
20
-3.02715
11
4.78047
21
-3.02715
0
LINE
8
BLACK
6
CONTINUOUS
10
4.78047
20
-3.02715
11
4.78731
21
-3.02861
0
LINE
8
BLACK
6
CONTINUOUS
10
4.88731
20
-3.02861
11
4.8937
21
-3.03145
0
LINE
8
BLACK
6
CONTINUOUS
10
4.8937
20
-3.03145
11
4.89936
21
-3.03556
0
LINE
8
BLACK
6
CONTINUOUS
10
4.89936
20
-3.03556
11
4.90404
21
-3.04076
0
LINE
8
BLACK
6
CONTINUOUS
10
4.90404
20
-3.04076
11
4.90754
21
-3.04682
0
LINE
8
BLACK
6
CONTINUOUS
10
4.90754
20
-3.04682
11
4.9097
21
-3.05348
0
LINE
8
BLACK
6
CONTINUOUS
10
4.9097
20
-3.05348
11
4.91043
21
-3.06043
0
LINE
8
BLACK
6
CONTINUOUS
10
4.91043
20
-3.06043
11
4.9097
21
-3.06739
0
LINE
8
BLACK
6
CONTINUOUS
10
4.9097
20
-3.06739
11
4.90754
21
-3.07404
0
LINE
8
BLACK
6
CONTINUOUS
10
4.90754
20
-3.07404
11
4.90404
21
-3.0801
0
LINE
8
BLACK
6
CONTINUOUS
10
4.90404
20
-3.0801
11
4.89936
21
-3.0853
0
LINE
8
BLACK
6
CONTINUOUS
10
4.89936
20
-3.0853
11
4.8937
21
-3.08941
0
LINE
8
BLACK
6
CONTINUOUS
10
4.8937
20
-3.08941
11
4.88731
21
-3.09226
0
LINE
8
BLACK
6
CONTINUOUS
10
4.88731
20
-3.09226
11
4.88047
21
-3.09371
0
LINE
8
BLACK
6
CONTINUOUS
10
4.88047
20
-3.09371
11
4.87347
21
-3.09371
0
LINE
8
BLACK
6
CONTINUOUS
10
4.87347
20
-3.09371
11
4.86663
21
-3.09226
0
LINE
8
BLACK
6
CONTINUOUS
10
4.86663
20
-3.09226
11
4.86024
21
-3.08941
0
LINE
8
BLACK
6
CONTINUOUS
10
4.86024
20
-3.08941
11
4.85458
21
-3.0853
0
LINE
8
BLACK
6
CONTINUOUS
10
4.85458
20
-3.0853
11
4.8499
21
-3.0801
0
LINE
8
BLACK
6
CONTINUOUS
10
4.8499
20
-3.0801
11
4.8464
21
-3.07404
0
LINE
8
BLACK
6
CONTINUOUS
10
4.8464
20
-3.07404
11
4.84424
21
-3.06739
0
LINE
8
BLACK
6
CONTINUOUS
10
4.84424
20
-3.06739
11
4.8435
21
-3.06043
0
LINE
8
BLACK
6
CONTINUOUS
10
4.8435
20
-3.06043
11
4.84424
21
-3.05348
0
LINE
8
BLACK
6
CONTINUOUS
10
4.84424
20
-3.05348
11
4.8464
21
-3.04682
0
LINE
8
BLACK
6
CONTINUOUS
10
4.8464
20
-3.04682
11
4.8499
21
-3.04076
0
LINE
8
BLACK
6
CONTINUOUS
10
4.8499
20
-3.04076
11
4.85458
21
-3.03556
0
LINE
8
BLACK
6
CONTINUOUS
10
4.85458
20
-3.03556
11
4.86024
21
-3.03145
0
LINE
8
BLACK
6
CONTINUOUS
10
4.86024
20
-3.03145
11
4.86663
21
-3.02861
0
LINE
8
BLACK
6
CONTINUOUS
10
4.86663
20
-3.02861
11
4.87347
21
-3.02715
0
LINE
8
BLACK
6
CONTINUOUS
10
4.87347
20
-3.02715
11
4.88047
21
-3.02715
0
LINE
8
BLACK
6
CONTINUOUS
10
4.88047
20
-3.02715
11
4.88731
21
-3.02861
0
LINE
8
BLACK
6
CONTINUOUS
10
4.33887
20
-3.06364
11
4.34079
21
-3.06492
0
LINE
8
BLACK
6
CONTINUOUS
10
4.34079
20
-3.06492
11
4.34207
21
-3.06683
0
LINE
8
BLACK
6
CONTINUOUS
10
4.34207
20
-3.06683
11
4.34252
21
-3.06909
0
LINE
8
BLACK
6
CONTINUOUS
10
4.34252
20
-3.06909
11
4.34252
21
-3.08091
0
LINE
8
BLACK
6
CONTINUOUS
10
4.34252
20
-3.08091
11
4.34207
21
-3.08317
0
LINE
8
BLACK
6
CONTINUOUS
10
4.34207
20
-3.08317
11
4.34079
21
-3.08508
0
LINE
8
BLACK
6
CONTINUOUS
10
4.34079
20
-3.08508
11
4.33887
21
-3.08636
0
LINE
8
BLACK
6
CONTINUOUS
10
4.33887
20
-3.08636
11
4.33661
21
-3.08681
0
LINE
8
BLACK
6
CONTINUOUS
10
4.33661
20
-3.08681
11
4.27165
21
-3.08681
0
LINE
8
BLACK
6
CONTINUOUS
10
4.27165
20
-3.08681
11
4.26939
21
-3.08636
0
LINE
8
BLACK
6
CONTINUOUS
10
4.26939
20
-3.08636
11
4.26748
21
-3.08508
0
LINE
8
BLACK
6
CONTINUOUS
10
4.26748
20
-3.08508
11
4.2662
21
-3.08317
0
LINE
8
BLACK
6
CONTINUOUS
10
4.2662
20
-3.08317
11
4.26575
21
-3.08091
0
LINE
8
BLACK
6
CONTINUOUS
10
4.26575
20
-3.08091
11
4.26575
21
-3.06909
0
LINE
8
BLACK
6
CONTINUOUS
10
4.26575
20
-3.06909
11
4.2662
21
-3.06683
0
LINE
8
BLACK
6
CONTINUOUS
10
4.2662
20
-3.06683
11
4.26748
21
-3.06492
0
LINE
8
BLACK
6
CONTINUOUS
10
4.26748
20
-3.06492
11
4.26939
21
-3.06364
0
LINE
8
BLACK
6
CONTINUOUS
10
4.26939
20
-3.06364
11
4.27165
21
-3.06319
0
LINE
8
BLACK
6
CONTINUOUS
10
4.27165
20
-3.06319
11
4.33661
21
-3.06319
0
LINE
8
BLACK
6
CONTINUOUS
10
4.33661
20
-3.06319
11
4.33887
21
-3.06364
0
LINE
8
BLACK
6
CONTINUOUS
10
4.53376
20
-3.06364
11
4.53567
21
-3.06492
0
LINE
8
BLACK
6
CONTINUOUS
10
4.53567
20
-3.06492
11
4.53695
21
-3.06683
0
LINE
8
BLACK
6
CONTINUOUS
10
4.53695
20
-3.06683
11
4.5374
21
-3.06909
0
LINE
8
BLACK
6
CONTINUOUS
10
4.5374
20
-3.06909
11
4.5374
21
-3.08091
0
LINE
8
BLACK
6
CONTINUOUS
10
4.5374
20
-3.08091
11
4.53695
21
-3.08317
0
LINE
8
BLACK
6
CONTINUOUS
10
4.53695
20
-3.08317
11
4.53567
21
-3.08508
0
LINE
8
BLACK
6
CONTINUOUS
10
4.53567
20
-3.08508
11
4.53376
21
-3.08636
0
LINE
8
BLACK
6
CONTINUOUS
10
4.53376
20
-3.08636
11
4.5315
21
-3.08681
0
LINE
8
BLACK
6
CONTINUOUS
10
4.5315
20
-3.08681
11
4.46654
21
-3.08681
0
LINE
8
BLACK
6
CONTINUOUS
10
4.46654
20
-3.08681
11
4.46428
21
-3.08636
0
LINE
8
BLACK
6
CONTINUOUS
10
4.46428
20
-3.08636
11
4.46236
21
-3.08508
0
LINE
8
BLACK
6
CONTINUOUS
10
4.46236
20
-3.08508
11
4.46108
21
-3.08317
0
LINE
8
BLACK
6
CONTINUOUS
10
4.46108
20
-3.08317
11
4.46063
21
-3.08091
0
LINE
8
BLACK
6
CONTINUOUS
10
4.46063
20
-3.08091
11
4.46063
21
-3.06909
0
LINE
8
BLACK
6
CONTINUOUS
10
4.46063
20
-3.06909
11
4.46108
21
-3.06683
0
LINE
8
BLACK
6
CONTINUOUS
10
4.46108
20
-3.06683
11
4.46236
21
-3.06492
0
LINE
8
BLACK
6
CONTINUOUS
10
4.46236
20
-3.06492
11
4.46428
21
-3.06364
0
LINE
8
BLACK
6
CONTINUOUS
10
4.46428
20
-3.06364
11
4.46654
21
-3.06319
0
LINE
8
BLACK
6
CONTINUOUS
10
4.46654
20
-3.06319
11
4.5315
21
-3.06319
0
LINE
8
BLACK
6
CONTINUOUS
10
4.5315
20
-3.06319
11
4.53376
21
-3.06364
0
LINE
8
BLACK
6
CONTINUOUS
10
3.06132
20
-2.91558
11
3.07272
21
-2.9172
0
LINE
8
BLACK
6
CONTINUOUS
10
3.07272
20
-2.9172
11
3.08379
21
-2.92036
0
LINE
8
BLACK
6
CONTINUOUS
10
3.08379
20
-2.92036
11
3.09433
21
-2.92499
0
LINE
8
BLACK
6
CONTINUOUS
10
3.09433
20
-2.92499
11
3.10415
21
-2.931
0
LINE
8
BLACK
6
CONTINUOUS
10
3.10415
20
-2.931
11
3.11306
21
-2.9383
0
LINE
8
BLACK
6
CONTINUOUS
10
3.11306
20
-2.9383
11
3.1209
21
-2.94673
0
LINE
8
BLACK
6
CONTINUOUS
10
3.1209
20
-2.94673
11
3.12752
21
-2.95615
0
LINE
8
BLACK
6
CONTINUOUS
10
3.12752
20
-2.95615
11
3.1328
21
-2.96638
0
LINE
8
BLACK
6
CONTINUOUS
10
3.1328
20
-2.96638
11
3.13665
21
-2.97724
0
LINE
8
BLACK
6
CONTINUOUS
10
3.13665
20
-2.97724
11
3.13898
21
-2.98851
0
LINE
8
BLACK
6
CONTINUOUS
10
3.13898
20
-2.98851
11
3.13976
21
-3
0
LINE
8
BLACK
6
CONTINUOUS
10
3.13976
20
-3
11
3.13975
21
-3.00177
0
LINE
8
BLACK
6
CONTINUOUS
10
3.13975
20
-3.00177
11
3.13872
21
-3.01324
0
LINE
8
BLACK
6
CONTINUOUS
10
3.13872
20
-3.01324
11
3.13615
21
-3.02447
0
LINE
8
BLACK
6
CONTINUOUS
10
3.13615
20
-3.02447
11
3.13208
21
-3.03524
0
LINE
8
BLACK
6
CONTINUOUS
10
3.13208
20
-3.03524
11
3.12659
21
-3.04536
0
LINE
8
BLACK
6
CONTINUOUS
10
3.12659
20
-3.04536
11
3.11977
21
-3.05464
0
LINE
8
BLACK
6
CONTINUOUS
10
3.11977
20
-3.05464
11
3.11176
21
-3.0629
0
LINE
8
BLACK
6
CONTINUOUS
10
3.11176
20
-3.0629
11
3.1027
21
-3.07001
0
LINE
8
BLACK
6
CONTINUOUS
10
3.1027
20
-3.07001
11
3.09275
21
-3.07582
0
LINE
8
BLACK
6
CONTINUOUS
10
3.09275
20
-3.07582
11
3.08212
21
-3.08022
0
LINE
8
BLACK
6
CONTINUOUS
10
3.08212
20
-3.08022
11
3.07098
21
-3.08315
0
LINE
8
BLACK
6
CONTINUOUS
10
3.07098
20
-3.08315
11
3.05955
21
-3.08453
0
LINE
8
BLACK
6
CONTINUOUS
10
3.05955
20
-3.08453
11
3.04804
21
-3.08435
0
LINE
8
BLACK
6
CONTINUOUS
10
3.04804
20
-3.08435
11
3.03665
21
-3.08261
0
LINE
8
BLACK
6
CONTINUOUS
10
3.03665
20
-3.08261
11
3.02561
21
-3.07934
0
LINE
8
BLACK
6
CONTINUOUS
10
3.02561
20
-3.07934
11
3.01512
21
-3.0746
0
LINE
8
BLACK
6
CONTINUOUS
10
3.01512
20
-3.0746
11
3.00536
21
-3.06848
0
LINE
8
BLACK
6
CONTINUOUS
10
3.00536
20
-3.06848
11
2.99653
21
-3.06109
0
LINE
8
BLACK
6
CONTINUOUS
10
2.99653
20
-3.06109
11
2.98878
21
-3.05258
0
LINE
8
BLACK
6
CONTINUOUS
10
2.98878
20
-3.05258
11
2.98226
21
-3.04309
0
LINE
8
BLACK
6
CONTINUOUS
10
2.98226
20
-3.04309
11
2.97709
21
-3.0328
0
LINE
8
BLACK
6
CONTINUOUS
10
2.97709
20
-3.0328
11
2.97336
21
-3.02191
0
LINE
8
BLACK
6
CONTINUOUS
10
2.97336
20
-3.02191
11
2.97114
21
-3.01061
0
LINE
8
BLACK
6
CONTINUOUS
10
2.97114
20
-3.01061
11
2.97048
21
-2.99911
0
LINE
8
BLACK
6
CONTINUOUS
10
2.97048
20
-2.99911
11
2.97138
21
-2.98763
0
LINE
8
BLACK
6
CONTINUOUS
10
2.97138
20
-2.98763
11
2.97383
21
-2.97638
0
LINE
8
BLACK
6
CONTINUOUS
10
2.97383
20
-2.97638
11
2.97779
21
-2.96557
0
LINE
8
BLACK
6
CONTINUOUS
10
2.97779
20
-2.96557
11
2.98318
21
-2.9554
0
LINE
8
BLACK
6
CONTINUOUS
10
2.98318
20
-2.9554
11
2.9899
21
-2.94604
0
LINE
8
BLACK
6
CONTINUOUS
10
2.9899
20
-2.94604
11
2.99782
21
-2.93769
0
LINE
8
BLACK
6
CONTINUOUS
10
2.99782
20
-2.93769
11
3.00681
21
-2.93049
0
LINE
8
BLACK
6
CONTINUOUS
10
3.00681
20
-2.93049
11
3.01669
21
-2.92458
0
LINE
8
BLACK
6
CONTINUOUS
10
3.01669
20
-2.92458
11
3.02728
21
-2.92006
0
LINE
8
BLACK
6
CONTINUOUS
10
3.02728
20
-2.92006
11
3.03839
21
-2.91702
0
LINE
8
BLACK
6
CONTINUOUS
10
3.03839
20
-2.91702
11
3.0498
21
-2.91552
0
LINE
8
BLACK
6
CONTINUOUS
10
3.0498
20
-2.91552
11
3.06132
21
-2.91558
0
LINE
8
BLACK
6
CONTINUOUS
10
5.50482
20
-3.0595
11
5.50673
21
-3.06078
0
LINE
8
BLACK
6
CONTINUOUS
10
5.50673
20
-3.06078
11
5.50802
21
-3.0627
0
LINE
8
BLACK
6
CONTINUOUS
10
5.50802
20
-3.0627
11
5.50846
21
-3.06496
0
LINE
8
BLACK
6
CONTINUOUS
10
5.50846
20
-3.06496
11
5.50846
21
-3.07677
0
LINE
8
BLACK
6
CONTINUOUS
10
5.50846
20
-3.07677
11
5.50802
21
-3.07903
0
LINE
8
BLACK
6
CONTINUOUS
10
5.50802
20
-3.07903
11
5.50673
21
-3.08095
0
LINE
8
BLACK
6
CONTINUOUS
10
5.50673
20
-3.08095
11
5.50482
21
-3.08223
0
LINE
8
BLACK
6
CONTINUOUS
10
5.50482
20
-3.08223
11
5.50256
21
-3.08268
0
LINE
8
BLACK
6
CONTINUOUS
10
5.50256
20
-3.08268
11
5.4376
21
-3.08268
0
LINE
8
BLACK
6
CONTINUOUS
10
5.4376
20
-3.08268
11
5.43534
21
-3.08223
0
LINE
8
BLACK
6
CONTINUOUS
10
5.43534
20
-3.08223
11
5.43342
21
-3.08095
0
LINE
8
BLACK
6
CONTINUOUS
10
5.43342
20
-3.08095
11
5.43214
21
-3.07903
0
LINE
8
BLACK
6
CONTINUOUS
10
5.43214
20
-3.07903
11
5.43169
21
-3.07677
0
LINE
8
BLACK
6
CONTINUOUS
10
5.43169
20
-3.07677
11
5.43169
21
-3.06496
0
LINE
8
BLACK
6
CONTINUOUS
10
5.43169
20
-3.06496
11
5.43214
21
-3.0627
0
LINE
8
BLACK
6
CONTINUOUS
10
5.43214
20
-3.0627
11
5.43342
21
-3.06078
0
LINE
8
BLACK
6
CONTINUOUS
10
5.43342
20
-3.06078
11
5.43534
21
-3.0595
0
LINE
8
BLACK
6
CONTINUOUS
10
5.43534
20
-3.0595
11
5.4376
21
-3.05906
0
LINE
8
BLACK
6
CONTINUOUS
10
5.4376
20
-3.05906
11
5.50256
21
-3.05906
0
LINE
8
BLACK
6
CONTINUOUS
10
5.50256
20
-3.05906
11
5.50482
21
-3.0595
0
LINE
8
BLACK
6
CONTINUOUS
10
5.6997
20
-3.0595
11
5.70162
21
-3.06078
0
LINE
8
BLACK
6
CONTINUOUS
10
5.70162
20
-3.06078
11
5.7029
21
-3.0627
0
LINE
8
BLACK
6
CONTINUOUS
10
5.7029
20
-3.0627
11
5.70335
21
-3.06496
0
LINE
8
BLACK
6
CONTINUOUS
10
5.70335
20
-3.06496
11
5.70335
21
-3.07677
0
LINE
8
BLACK
6
CONTINUOUS
10
5.70335
20
-3.07677
11
5.7029
21
-3.07903
0
LINE
8
BLACK
6
CONTINUOUS
10
5.7029
20
-3.07903
11
5.70162
21
-3.08095
0
LINE
8
BLACK
6
CONTINUOUS
10
5.70162
20
-3.08095
11
5.6997
21
-3.08223
0
LINE
8
BLACK
6
CONTINUOUS
10
5.6997
20
-3.08223
11
5.69744
21
-3.08268
0
LINE
8
BLACK
6
CONTINUOUS
10
5.69744
20
-3.08268
11
5.63248
21
-3.08268
0
LINE
8
BLACK
6
CONTINUOUS
10
5.63248
20
-3.08268
11
5.63022
21
-3.08223
0
LINE
8
BLACK
6
CONTINUOUS
10
5.63022
20
-3.08223
11
5.6283
21
-3.08095
0
LINE
8
BLACK
6
CONTINUOUS
10
5.6283
20
-3.08095
11
5.62702
21
-3.07903
0
LINE
8
BLACK
6
CONTINUOUS
10
5.62702
20
-3.07903
11
5.62657
21
-3.07677
0
LINE
8
BLACK
6
CONTINUOUS
10
5.62657
20
-3.07677
11
5.62657
21
-3.06496
0
LINE
8
BLACK
6
CONTINUOUS
10
5.62657
20
-3.06496
11
5.62702
21
-3.0627
0
LINE
8
BLACK
6
CONTINUOUS
10
5.62702
20
-3.0627
11
5.6283
21
-3.06078
0
LINE
8
BLACK
6
CONTINUOUS
10
5.6283
20
-3.06078
11
5.63022
21
-3.0595
0
LINE
8
BLACK
6
CONTINUOUS
10
5.63022
20
-3.0595
11
5.63248
21
-3.05906
0
LINE
8
BLACK
6
CONTINUOUS
10
5.63248
20
-3.05906
11
5.69744
21
-3.05906
0
LINE
8
BLACK
6
CONTINUOUS
10
5.69744
20
-3.05906
11
5.6997
21
-3.0595
0
LINE
8
BLACK
6
CONTINUOUS
10
5.34361
20
-2.97624
11
5.35
21
-2.97909
0
LINE
8
BLACK
6
CONTINUOUS
10
5.35
20
-2.97909
11
5.35566
21
-2.9832
0
LINE
8
BLACK
6
CONTINUOUS
10
5.35566
20
-2.9832
11
5.36034
21
-2.9884
0
LINE
8
BLACK
6
CONTINUOUS
10
5.36034
20
-2.9884
11
5.36384
21
-2.99446
0
LINE
8
BLACK
6
CONTINUOUS
10
5.36384
20
-2.99446
11
5.366
21
-3.00111
0
LINE
8
BLACK
6
CONTINUOUS
10
5.366
20
-3.00111
11
5.36673
21
-3.00807
0
LINE
8
BLACK
6
CONTINUOUS
10
5.36673
20
-3.00807
11
5.366
21
-3.01503
0
LINE
8
BLACK
6
CONTINUOUS
10
5.366
20
-3.01503
11
5.36384
21
-3.02168
0
LINE
8
BLACK
6
CONTINUOUS
10
5.36384
20
-3.02168
11
5.36034
21
-3.02774
0
LINE
8
BLACK
6
CONTINUOUS
10
5.36034
20
-3.02774
11
5.35566
21
-3.03294
0
LINE
8
BLACK
6
CONTINUOUS
10
5.35566
20
-3.03294
11
5.35
21
-3.03705
0
LINE
8
BLACK
6
CONTINUOUS
10
5.35
20
-3.03705
11
5.34361
21
-3.0399
0
LINE
8
BLACK
6
CONTINUOUS
10
5.34361
20
-3.0399
11
5.33677
21
-3.04135
0
LINE
8
BLACK
6
CONTINUOUS
10
5.33677
20
-3.04135
11
5.32977
21
-3.04135
0
LINE
8
BLACK
6
CONTINUOUS
10
5.32977
20
-3.04135
11
5.32293
21
-3.0399
0
LINE
8
BLACK
6
CONTINUOUS
10
5.32293
20
-3.0399
11
5.31654
21
-3.03705
0
LINE
8
BLACK
6
CONTINUOUS
10
5.31654
20
-3.03705
11
5.31088
21
-3.03294
0
LINE
8
BLACK
6
CONTINUOUS
10
5.31088
20
-3.03294
11
5.30619
21
-3.02774
0
LINE
8
BLACK
6
CONTINUOUS
10
5.30619
20
-3.02774
11
5.3027
21
-3.02168
0
LINE
8
BLACK
6
CONTINUOUS
10
5.3027
20
-3.02168
11
5.30053
21
-3.01503
0
LINE
8
BLACK
6
CONTINUOUS
10
5.30053
20
-3.01503
11
5.2998
21
-3.00807
0
LINE
8
BLACK
6
CONTINUOUS
10
5.2998
20
-3.00807
11
5.30053
21
-3.00111
0
LINE
8
BLACK
6
CONTINUOUS
10
5.30053
20
-3.00111
11
5.3027
21
-2.99446
0
LINE
8
BLACK
6
CONTINUOUS
10
5.3027
20
-2.99446
11
5.30619
21
-2.9884
0
LINE
8
BLACK
6
CONTINUOUS
10
5.30619
20
-2.9884
11
5.31088
21
-2.9832
0
LINE
8
BLACK
6
CONTINUOUS
10
5.31088
20
-2.9832
11
5.31654
21
-2.97909
0
LINE
8
BLACK
6
CONTINUOUS
10
5.31654
20
-2.97909
11
5.32293
21
-2.97624
0
LINE
8
BLACK
6
CONTINUOUS
10
5.32293
20
-2.97624
11
5.32977
21
-2.97479
0
LINE
8
BLACK
6
CONTINUOUS
10
5.32977
20
-2.97479
11
5.33677
21
-2.97479
0
LINE
8
BLACK
6
CONTINUOUS
10
5.33677
20
-2.97479
11
5.34361
21
-2.97624
0
LINE
8
BLACK
6
CONTINUOUS
10
5.24361
20
-2.97624
11
5.25
21
-2.97909
0
LINE
8
BLACK
6
CONTINUOUS
10
5.25
20
-2.97909
11
5.25566
21
-2.9832
0
LINE
8
BLACK
6
CONTINUOUS
10
5.25566
20
-2.9832
11
5.26034
21
-2.9884
0
LINE
8
BLACK
6
CONTINUOUS
10
5.26034
20
-2.9884
11
5.26384
21
-2.99446
0
LINE
8
BLACK
6
CONTINUOUS
10
5.26384
20
-2.99446
11
5.266
21
-3.00111
0
LINE
8
BLACK
6
CONTINUOUS
10
5.266
20
-3.00111
11
5.26673
21
-3.00807
0
LINE
8
BLACK
6
CONTINUOUS
10
5.26673
20
-3.00807
11
5.266
21
-3.01503
0
LINE
8
BLACK
6
CONTINUOUS
10
5.266
20
-3.01503
11
5.26384
21
-3.02168
0
LINE
8
BLACK
6
CONTINUOUS
10
5.26384
20
-3.02168
11
5.26034
21
-3.02774
0
LINE
8
BLACK
6
CONTINUOUS
10
5.26034
20
-3.02774
11
5.25566
21
-3.03294
0
LINE
8
BLACK
6
CONTINUOUS
10
5.25566
20
-3.03294
11
5.25
21
-3.03705
0
LINE
8
BLACK
6
CONTINUOUS
10
5.25
20
-3.03705
11
5.24361
21
-3.0399
0
LINE
8
BLACK
6
CONTINUOUS
10
5.24361
20
-3.0399
11
5.23677
21
-3.04135
0
LINE
8
BLACK
6
CONTINUOUS
10
5.23677
20
-3.04135
11
5.22977
21
-3.04135
0
LINE
8
BLACK
6
CONTINUOUS
10
5.22977
20
-3.04135
11
5.22293
21
-3.0399
0
LINE
8
BLACK
6
CONTINUOUS
10
5.22293
20
-3.0399
11
5.21654
21
-3.03705
0
LINE
8
BLACK
6
CONTINUOUS
10
5.21654
20
-3.03705
11
5.21088
21
-3.03294
0
LINE
8
BLACK
6
CONTINUOUS
10
5.21088
20
-3.03294
11
5.20619
21
-3.02774
0
LINE
8
BLACK
6
CONTINUOUS
10
5.20619
20
-3.02774
11
5.2027
21
-3.02168
0
LINE
8
BLACK
6
CONTINUOUS
10
5.2027
20
-3.02168
11
5.20053
21
-3.01503
0
LINE
8
BLACK
6
CONTINUOUS
10
5.20053
20
-3.01503
11
5.1998
21
-3.00807
0
LINE
8
BLACK
6
CONTINUOUS
10
5.1998
20
-3.00807
11
5.20053
21
-3.00111
0
LINE
8
BLACK
6
CONTINUOUS
10
5.20053
20
-3.00111
11
5.2027
21
-2.99446
0
LINE
8
BLACK
6
CONTINUOUS
10
5.2027
20
-2.99446
11
5.20619
21
-2.9884
0
LINE
8
BLACK
6
CONTINUOUS
10
5.20619
20
-2.9884
11
5.21088
21
-2.9832
0
LINE
8
BLACK
6
CONTINUOUS
10
5.21088
20
-2.9832
11
5.21654
21
-2.97909
0
LINE
8
BLACK
6
CONTINUOUS
10
5.21654
20
-2.97909
11
5.22293
21
-2.97624
0
LINE
8
BLACK
6
CONTINUOUS
10
5.22293
20
-2.97624
11
5.22977
21
-2.97479
0
LINE
8
BLACK
6
CONTINUOUS
10
5.22977
20
-2.97479
11
5.23677
21
-2.97479
0
LINE
8
BLACK
6
CONTINUOUS
10
5.23677
20
-2.97479
11
5.24361
21
-2.97624
0
LINE
8
BLACK
6
CONTINUOUS
10
4.53376
20
-3.01364
11
4.53567
21
-3.01492
0
LINE
8
BLACK
6
CONTINUOUS
10
4.53567
20
-3.01492
11
4.53695
21
-3.01683
0
LINE
8
BLACK
6
CONTINUOUS
10
4.53695
20
-3.01683
11
4.5374
21
-3.01909
0
LINE
8
BLACK
6
CONTINUOUS
10
4.5374
20
-3.01909
11
4.5374
21
-3.03091
0
LINE
8
BLACK
6
CONTINUOUS
10
4.5374
20
-3.03091
11
4.53695
21
-3.03317
0
LINE
8
BLACK
6
CONTINUOUS
10
4.53695
20
-3.03317
11
4.53567
21
-3.03508
0
LINE
8
BLACK
6
CONTINUOUS
10
4.53567
20
-3.03508
11
4.53376
21
-3.03636
0
LINE
8
BLACK
6
CONTINUOUS
10
4.53376
20
-3.03636
11
4.5315
21
-3.03681
0
LINE
8
BLACK
6
CONTINUOUS
10
4.5315
20
-3.03681
11
4.46654
21
-3.03681
0
LINE
8
BLACK
6
CONTINUOUS
10
4.46654
20
-3.03681
11
4.46428
21
-3.03636
0
LINE
8
BLACK
6
CONTINUOUS
10
4.46428
20
-3.03636
11
4.46236
21
-3.03508
0
LINE
8
BLACK
6
CONTINUOUS
10
4.46236
20
-3.03508
11
4.46108
21
-3.03317
0
LINE
8
BLACK
6
CONTINUOUS
10
4.46108
20
-3.03317
11
4.46063
21
-3.03091
0
LINE
8
BLACK
6
CONTINUOUS
10
4.46063
20
-3.03091
11
4.46063
21
-3.01909
0
LINE
8
BLACK
6
CONTINUOUS
10
4.46063
20
-3.01909
11
4.46108
21
-3.01683
0
LINE
8
BLACK
6
CONTINUOUS
10
4.46108
20
-3.01683
11
4.46236
21
-3.01492
0
LINE
8
BLACK
6
CONTINUOUS
10
4.46236
20
-3.01492
11
4.46428
21
-3.01364
0
LINE
8
BLACK
6
CONTINUOUS
10
4.46428
20
-3.01364
11
4.46654
21
-3.01319
0
LINE
8
BLACK
6
CONTINUOUS
10
4.46654
20
-3.01319
11
4.5315
21
-3.01319
0
LINE
8
BLACK
6
CONTINUOUS
10
4.5315
20
-3.01319
11
4.53376
21
-3.01364
0
LINE
8
BLACK
6
CONTINUOUS
10
4.33887
20
-3.01364
11
4.34079
21
-3.01492
0
LINE
8
BLACK
6
CONTINUOUS
10
4.34079
20
-3.01492
11
4.34207
21
-3.01683
0
LINE
8
BLACK
6
CONTINUOUS
10
4.34207
20
-3.01683
11
4.34252
21
-3.01909
0
LINE
8
BLACK
6
CONTINUOUS
10
4.34252
20
-3.01909
11
4.34252
21
-3.03091
0
LINE
8
BLACK
6
CONTINUOUS
10
4.34252
20
-3.03091
11
4.34207
21
-3.03317
0
LINE
8
BLACK
6
CONTINUOUS
10
4.34207
20
-3.03317
11
4.34079
21
-3.03508
0
LINE
8
BLACK
6
CONTINUOUS
10
4.34079
20
-3.03508
11
4.33887
21
-3.03636
0
LINE
8
BLACK
6
CONTINUOUS
10
4.33887
20
-3.03636
11
4.33661
21
-3.03681
0
LINE
8
BLACK
6
CONTINUOUS
10
4.33661
20
-3.03681
11
4.27165
21
-3.03681
0
LINE
8
BLACK
6
CONTINUOUS
10
4.27165
20
-3.03681
11
4.26939
21
-3.03636
0
LINE
8
BLACK
6
CONTINUOUS
10
4.26939
20
-3.03636
11
4.26748
21
-3.03508
0
LINE
8
BLACK
6
CONTINUOUS
10
4.26748
20
-3.03508
11
4.2662
21
-3.03317
0
LINE
8
BLACK
6
CONTINUOUS
10
4.2662
20
-3.03317
11
4.26575
21
-3.03091
0
LINE
8
BLACK
6
CONTINUOUS
10
4.26575
20
-3.03091
11
4.26575
21
-3.01909
0
LINE
8
BLACK
6
CONTINUOUS
10
4.26575
20
-3.01909
11
4.2662
21
-3.01683
0
LINE
8
BLACK
6
CONTINUOUS
10
4.2662
20
-3.01683
11
4.26748
21
-3.01492
0
LINE
8
BLACK
6
CONTINUOUS
10
4.26748
20
-3.01492
11
4.26939
21
-3.01364
0
LINE
8
BLACK
6
CONTINUOUS
10
4.26939
20
-3.01364
11
4.27165
21
-3.01319
0
LINE
8
BLACK
6
CONTINUOUS
10
4.27165
20
-3.01319
11
4.33661
21
-3.01319
0
LINE
8
BLACK
6
CONTINUOUS
10
4.33661
20
-3.01319
11
4.33887
21
-3.01364
0
LINE
8
BLACK
6
CONTINUOUS
10
5.6997
20
-3.0095
11
5.70162
21
-3.01078
0
LINE
8
BLACK
6
CONTINUOUS
10
5.70162
20
-3.01078
11
5.7029
21
-3.0127
0
LINE
8
BLACK
6
CONTINUOUS
10
5.7029
20
-3.0127
11
5.70335
21
-3.01496
0
LINE
8
BLACK
6
CONTINUOUS
10
5.70335
20
-3.01496
11
5.70335
21
-3.02677
0
LINE
8
BLACK
6
CONTINUOUS
10
5.70335
20
-3.02677
11
5.7029
21
-3.02903
0
LINE
8
BLACK
6
CONTINUOUS
10
5.7029
20
-3.02903
11
5.70162
21
-3.03095
0
LINE
8
BLACK
6
CONTINUOUS
10
5.70162
20
-3.03095
11
5.6997
21
-3.03223
0
LINE
8
BLACK
6
CONTINUOUS
10
5.6997
20
-3.03223
11
5.69744
21
-3.03268
0
LINE
8
BLACK
6
CONTINUOUS
10
5.69744
20
-3.03268
11
5.63248
21
-3.03268
0
LINE
8
BLACK
6
CONTINUOUS
10
5.63248
20
-3.03268
11
5.63022
21
-3.03223
0
LINE
8
BLACK
6
CONTINUOUS
10
5.63022
20
-3.03223
11
5.6283
21
-3.03095
0
LINE
8
BLACK
6
CONTINUOUS
10
5.6283
20
-3.03095
11
5.62702
21
-3.02903
0
LINE
8
BLACK
6
CONTINUOUS
10
5.62702
20
-3.02903
11
5.62657
21
-3.02677
0
LINE
8
BLACK
6
CONTINUOUS
10
5.62657
20
-3.02677
11
5.62657
21
-3.01496
0
LINE
8
BLACK
6
CONTINUOUS
10
5.62657
20
-3.01496
11
5.62702
21
-3.0127
0
LINE
8
BLACK
6
CONTINUOUS
10
5.62702
20
-3.0127
11
5.6283
21
-3.01078
0
LINE
8
BLACK
6
CONTINUOUS
10
5.6283
20
-3.01078
11
5.63022
21
-3.0095
0
LINE
8
BLACK
6
CONTINUOUS
10
5.63022
20
-3.0095
11
5.63248
21
-3.00906
0
LINE
8
BLACK
6
CONTINUOUS
10
5.63248
20
-3.00906
11
5.69744
21
-3.00906
0
LINE
8
BLACK
6
CONTINUOUS
10
5.69744
20
-3.00906
11
5.6997
21
-3.0095
0
LINE
8
BLACK
6
CONTINUOUS
10
5.50482
20
-3.0095
11
5.50673
21
-3.01078
0
LINE
8
BLACK
6
CONTINUOUS
10
5.50673
20
-3.01078
11
5.50802
21
-3.0127
0
LINE
8
BLACK
6
CONTINUOUS
10
5.50802
20
-3.0127
11
5.50846
21
-3.01496
0
LINE
8
BLACK
6
CONTINUOUS
10
5.50846
20
-3.01496
11
5.50846
21
-3.02677
0
LINE
8
BLACK
6
CONTINUOUS
10
5.50846
20
-3.02677
11
5.50802
21
-3.02903
0
LINE
8
BLACK
6
CONTINUOUS
10
5.50802
20
-3.02903
11
5.50673
21
-3.03095
0
LINE
8
BLACK
6
CONTINUOUS
10
5.50673
20
-3.03095
11
5.50482
21
-3.03223
0
LINE
8
BLACK
6
CONTINUOUS
10
5.50482
20
-3.03223
11
5.50256
21
-3.03268
0
LINE
8
BLACK
6
CONTINUOUS
10
5.50256
20
-3.03268
11
5.4376
21
-3.03268
0
LINE
8
BLACK
6
CONTINUOUS
10
5.4376
20
-3.03268
11
5.43534
21
-3.03223
0
LINE
8
BLACK
6
CONTINUOUS
10
5.43534
20
-3.03223
11
5.43342
21
-3.03095
0
LINE
8
BLACK
6
CONTINUOUS
10
5.43342
20
-3.03095
11
5.43214
21
-3.02903
0
LINE
8
BLACK
6
CONTINUOUS
10
5.43214
20
-3.02903
11
5.43169
21
-3.02677
0
LINE
8
BLACK
6
CONTINUOUS
10
5.43169
20
-3.02677
11
5.43169
21
-3.01496
0
LINE
8
BLACK
6
CONTINUOUS
10
5.43169
20
-3.01496
11
5.43214
21
-3.0127
0
LINE
8
BLACK
6
CONTINUOUS
10
5.43214
20
-3.0127
11
5.43342
21
-3.01078
0
LINE
8
BLACK
6
CONTINUOUS
10
5.43342
20
-3.01078
11
5.43534
21
-3.0095
0
LINE
8
BLACK
6
CONTINUOUS
10
5.43534
20
-3.0095
11
5.4376
21
-3.00906
0
LINE
8
BLACK
6
CONTINUOUS
10
5.4376
20
-3.00906
11
5.50256
21
-3.00906
0
LINE
8
BLACK
6
CONTINUOUS
10
5.50256
20
-3.00906
11
5.50482
21
-3.0095
0
LINE
8
BLACK
6
CONTINUOUS
10
3.77701
20
-2.99772
11
3.77989
21
-2.99964
0
LINE
8
BLACK
6
CONTINUOUS
10
3.77989
20
-2.99964
11
3.78181
21
-3.00252
0
LINE
8
BLACK
6
CONTINUOUS
10
3.78181
20
-3.00252
11
3.78248
21
-3.00591
0
LINE
8
BLACK
6
CONTINUOUS
10
3.78248
20
-3.00591
11
3.78248
21
-3.02362
0
LINE
8
BLACK
6
CONTINUOUS
10
3.78248
20
-3.02362
11
3.78181
21
-3.02701
0
LINE
8
BLACK
6
CONTINUOUS
10
3.78181
20
-3.02701
11
3.77989
21
-3.02989
0
LINE
8
BLACK
6
CONTINUOUS
10
3.77989
20
-3.02989
11
3.77701
21
-3.03181
0
LINE
8
BLACK
6
CONTINUOUS
10
3.77701
20
-3.03181
11
3.77362
21
-3.03248
0
LINE
8
BLACK
6
CONTINUOUS
10
3.77362
20
-3.03248
11
3.75394
21
-3.03248
0
LINE
8
BLACK
6
CONTINUOUS
10
3.75394
20
-3.03248
11
3.75055
21
-3.03181
0
LINE
8
BLACK
6
CONTINUOUS
10
3.75055
20
-3.03181
11
3.74767
21
-3.02989
0
LINE
8
BLACK
6
CONTINUOUS
10
3.74767
20
-3.02989
11
3.74575
21
-3.02701
0
LINE
8
BLACK
6
CONTINUOUS
10
3.74575
20
-3.02701
11
3.74508
21
-3.02362
0
LINE
8
BLACK
6
CONTINUOUS
10
3.74508
20
-3.02362
11
3.74508
21
-3.00591
0
LINE
8
BLACK
6
CONTINUOUS
10
3.74508
20
-3.00591
11
3.74575
21
-3.00252
0
LINE
8
BLACK
6
CONTINUOUS
10
3.74575
20
-3.00252
11
3.74767
21
-2.99964
0
LINE
8
BLACK
6
CONTINUOUS
10
3.74767
20
-2.99964
11
3.75055
21
-2.99772
0
LINE
8
BLACK
6
CONTINUOUS
10
3.75055
20
-2.99772
11
3.75394
21
-2.99705
0
LINE
8
BLACK
6
CONTINUOUS
10
3.75394
20
-2.99705
11
3.77362
21
-2.99705
0
LINE
8
BLACK
6
CONTINUOUS
10
3.77362
20
-2.99705
11
3.77701
21
-2.99772
0
LINE
8
BLACK
6
CONTINUOUS
10
5.82136
20
-2.94573
11
5.82776
21
-2.94858
0
LINE
8
BLACK
6
CONTINUOUS
10
5.82776
20
-2.94858
11
5.83342
21
-2.95269
0
LINE
8
BLACK
6
CONTINUOUS
10
5.83342
20
-2.95269
11
5.8381
21
-2.95789
0
LINE
8
BLACK
6
CONTINUOUS
10
5.8381
20
-2.95789
11
5.8416
21
-2.96395
0
LINE
8
BLACK
6
CONTINUOUS
10
5.8416
20
-2.96395
11
5.84376
21
-2.9706
0
LINE
8
BLACK
6
CONTINUOUS
10
5.84376
20
-2.9706
11
5.84449
21
-2.97756
0
LINE
8
BLACK
6
CONTINUOUS
10
5.84449
20
-2.97756
11
5.84376
21
-2.98452
0
LINE
8
BLACK
6
CONTINUOUS
10
5.84376
20
-2.98452
11
5.8416
21
-2.99117
0
LINE
8
BLACK
6
CONTINUOUS
10
5.8416
20
-2.99117
11
5.8381
21
-2.99723
0
LINE
8
BLACK
6
CONTINUOUS
10
5.8381
20
-2.99723
11
5.83342
21
-3.00243
0
LINE
8
BLACK
6
CONTINUOUS
10
5.83342
20
-3.00243
11
5.82776
21
-3.00654
0
LINE
8
BLACK
6
CONTINUOUS
10
5.82776
20
-3.00654
11
5.82136
21
-3.00939
0
LINE
8
BLACK
6
CONTINUOUS
10
5.82136
20
-3.00939
11
5.81452
21
-3.01084
0
LINE
8
BLACK
6
CONTINUOUS
10
5.81452
20
-3.01084
11
5.80753
21
-3.01084
0
LINE
8
BLACK
6
CONTINUOUS
10
5.80753
20
-3.01084
11
5.80068
21
-3.00939
0
LINE
8
BLACK
6
CONTINUOUS
10
5.80068
20
-3.00939
11
5.79429
21
-3.00654
0
LINE
8
BLACK
6
CONTINUOUS
10
5.79429
20
-3.00654
11
5.78863
21
-3.00243
0
LINE
8
BLACK
6
CONTINUOUS
10
5.78863
20
-3.00243
11
5.78395
21
-2.99723
0
LINE
8
BLACK
6
CONTINUOUS
10
5.78395
20
-2.99723
11
5.78045
21
-2.99117
0
LINE
8
BLACK
6
CONTINUOUS
10
5.78045
20
-2.99117
11
5.77829
21
-2.98452
0
LINE
8
BLACK
6
CONTINUOUS
10
5.77829
20
-2.98452
11
5.77756
21
-2.97756
0
LINE
8
BLACK
6
CONTINUOUS
10
5.77756
20
-2.97756
11
5.77829
21
-2.9706
0
LINE
8
BLACK
6
CONTINUOUS
10
5.77829
20
-2.9706
11
5.78045
21
-2.96395
0
LINE
8
BLACK
6
CONTINUOUS
10
5.78045
20
-2.96395
11
5.78395
21
-2.95789
0
LINE
8
BLACK
6
CONTINUOUS
10
5.78395
20
-2.95789
11
5.78863
21
-2.95269
0
LINE
8
BLACK
6
CONTINUOUS
10
5.78863
20
-2.95269
11
5.79429
21
-2.94858
0
LINE
8
BLACK
6
CONTINUOUS
10
5.79429
20
-2.94858
11
5.80068
21
-2.94573
0
LINE
8
BLACK
6
CONTINUOUS
10
5.80068
20
-2.94573
11
5.80753
21
-2.94428
0
LINE
8
BLACK
6
CONTINUOUS
10
5.80753
20
-2.94428
11
5.81452
21
-2.94428
0
LINE
8
BLACK
6
CONTINUOUS
10
5.81452
20
-2.94428
11
5.82136
21
-2.94573
0
LINE
8
BLACK
6
CONTINUOUS
10
4.78731
20
-2.92861
11
4.7937
21
-2.93145
0
LINE
8
BLACK
6
CONTINUOUS
10
4.7937
20
-2.93145
11
4.79936
21
-2.93556
0
LINE
8
BLACK
6
CONTINUOUS
10
4.79936
20
-2.93556
11
4.80404
21
-2.94076
0
LINE
8
BLACK
6
CONTINUOUS
10
4.80404
20
-2.94076
11
4.80754
21
-2.94682
0
LINE
8
BLACK
6
CONTINUOUS
10
4.80754
20
-2.94682
11
4.8097
21
-2.95348
0
LINE
8
BLACK
6
CONTINUOUS
10
4.8097
20
-2.95348
11
4.81043
21
-2.96043
0
LINE
8
BLACK
6
CONTINUOUS
10
4.81043
20
-2.96043
11
4.8097
21
-2.96739
0
LINE
8
BLACK
6
CONTINUOUS
10
4.8097
20
-2.96739
11
4.80754
21
-2.97404
0
LINE
8
BLACK
6
CONTINUOUS
10
4.80754
20
-2.97404
11
4.80404
21
-2.9801
0
LINE
8
BLACK
6
CONTINUOUS
10
4.80404
20
-2.9801
11
4.79936
21
-2.9853
0
LINE
8
BLACK
6
CONTINUOUS
10
4.79936
20
-2.9853
11
4.7937
21
-2.98941
0
LINE
8
BLACK
6
CONTINUOUS
10
4.7937
20
-2.98941
11
4.78731
21
-2.99226
0
LINE
8
BLACK
6
CONTINUOUS
10
4.78731
20
-2.99226
11
4.78047
21
-2.99371
0
LINE
8
BLACK
6
CONTINUOUS
10
4.78047
20
-2.99371
11
4.77347
21
-2.99371
0
LINE
8
BLACK
6
CONTINUOUS
10
4.77347
20
-2.99371
11
4.76663
21
-2.99226
0
LINE
8
BLACK
6
CONTINUOUS
10
4.76663
20
-2.99226
11
4.76024
21
-2.98941
0
LINE
8
BLACK
6
CONTINUOUS
10
4.76024
20
-2.98941
11
4.75458
21
-2.9853
0
LINE
8
BLACK
6
CONTINUOUS
10
4.75458
20
-2.9853
11
4.7499
21
-2.9801
0
LINE
8
BLACK
6
CONTINUOUS
10
4.7499
20
-2.9801
11
4.7464
21
-2.97404
0
LINE
8
BLACK
6
CONTINUOUS
10
4.7464
20
-2.97404
11
4.74424
21
-2.96739
0
LINE
8
BLACK
6
CONTINUOUS
10
4.74424
20
-2.96739
11
4.7435
21
-2.96043
0
LINE
8
BLACK
6
CONTINUOUS
10
4.7435
20
-2.96043
11
4.74424
21
-2.95348
0
LINE
8
BLACK
6
CONTINUOUS
10
4.74424
20
-2.95348
11
4.7464
21
-2.94682
0
LINE
8
BLACK
6
CONTINUOUS
10
4.7464
20
-2.94682
11
4.7499
21
-2.94076
0
LINE
8
BLACK
6
CONTINUOUS
10
4.7499
20
-2.94076
11
4.75458
21
-2.93556
0
LINE
8
BLACK
6
CONTINUOUS
10
4.75458
20
-2.93556
11
4.76024
21
-2.93145
0
LINE
8
BLACK
6
CONTINUOUS
10
4.76024
20
-2.93145
11
4.76663
21
-2.92861
0
LINE
8
BLACK
6
CONTINUOUS
10
4.76663
20
-2.92861
11
4.77347
21
-2.92715
0
LINE
8
BLACK
6
CONTINUOUS
10
4.77347
20
-2.92715
11
4.78047
21
-2.92715
0
LINE
8
BLACK
6
CONTINUOUS
10
4.78047
20
-2.92715
11
4.78731
21
-2.92861
0
LINE
8
BLACK
6
CONTINUOUS
10
4.88731
20
-2.92861
11
4.8937
21
-2.93145
0
LINE
8
BLACK
6
CONTINUOUS
10
4.8937
20
-2.93145
11
4.89936
21
-2.93556
0
LINE
8
BLACK
6
CONTINUOUS
10
4.89936
20
-2.93556
11
4.90404
21
-2.94076
0
LINE
8
BLACK
6
CONTINUOUS
10
4.90404
20
-2.94076
11
4.90754
21
-2.94682
0
LINE
8
BLACK
6
CONTINUOUS
10
4.90754
20
-2.94682
11
4.9097
21
-2.95348
0
LINE
8
BLACK
6
CONTINUOUS
10
4.9097
20
-2.95348
11
4.91043
21
-2.96043
0
LINE
8
BLACK
6
CONTINUOUS
10
4.91043
20
-2.96043
11
4.9097
21
-2.96739
0
LINE
8
BLACK
6
CONTINUOUS
10
4.9097
20
-2.96739
11
4.90754
21
-2.97404
0
LINE
8
BLACK
6
CONTINUOUS
10
4.90754
20
-2.97404
11
4.90404
21
-2.9801
0
LINE
8
BLACK
6
CONTINUOUS
10
4.90404
20
-2.9801
11
4.89936
21
-2.9853
0
LINE
8
BLACK
6
CONTINUOUS
10
4.89936
20
-2.9853
11
4.8937
21
-2.98941
0
LINE
8
BLACK
6
CONTINUOUS
10
4.8937
20
-2.98941
11
4.88731
21
-2.99226
0
LINE
8
BLACK
6
CONTINUOUS
10
4.88731
20
-2.99226
11
4.88047
21
-2.99371
0
LINE
8
BLACK
6
CONTINUOUS
10
4.88047
20
-2.99371
11
4.87347
21
-2.99371
0
LINE
8
BLACK
6
CONTINUOUS
10
4.87347
20
-2.99371
11
4.86663
21
-2.99226
0
LINE
8
BLACK
6
CONTINUOUS
10
4.86663
20
-2.99226
11
4.86024
21
-2.98941
0
LINE
8
BLACK
6
CONTINUOUS
10
4.86024
20
-2.98941
11
4.85458
21
-2.9853
0
LINE
8
BLACK
6
CONTINUOUS
10
4.85458
20
-2.9853
11
4.8499
21
-2.9801
0
LINE
8
BLACK
6
CONTINUOUS
10
4.8499
20
-2.9801
11
4.8464
21
-2.97404
0
LINE
8
BLACK
6
CONTINUOUS
10
4.8464
20
-2.97404
11
4.84424
21
-2.96739
0
LINE
8
BLACK
6
CONTINUOUS
10
4.84424
20
-2.96739
11
4.8435
21
-2.96043
0
LINE
8
BLACK
6
CONTINUOUS
10
4.8435
20
-2.96043
11
4.84424
21
-2.95348
0
LINE
8
BLACK
6
CONTINUOUS
10
4.84424
20
-2.95348
11
4.8464
21
-2.94682
0
LINE
8
BLACK
6
CONTINUOUS
10
4.8464
20
-2.94682
11
4.8499
21
-2.94076
0
LINE
8
BLACK
6
CONTINUOUS
10
4.8499
20
-2.94076
11
4.85458
21
-2.93556
0
LINE
8
BLACK
6
CONTINUOUS
10
4.85458
20
-2.93556
11
4.86024
21
-2.93145
0
LINE
8
BLACK
6
CONTINUOUS
10
4.86024
20
-2.93145
11
4.86663
21
-2.92861
0
LINE
8
BLACK
6
CONTINUOUS
10
4.86663
20
-2.92861
11
4.87347
21
-2.92715
0
LINE
8
BLACK
6
CONTINUOUS
10
4.87347
20
-2.92715
11
4.88047
21
-2.92715
0
LINE
8
BLACK
6
CONTINUOUS
10
4.88047
20
-2.92715
11
4.88731
21
-2.92861
0
LINE
8
BLACK
6
CONTINUOUS
10
4.53376
20
-2.96364
11
4.53567
21
-2.96492
0
LINE
8
BLACK
6
CONTINUOUS
10
4.53567
20
-2.96492
11
4.53695
21
-2.96683
0
LINE
8
BLACK
6
CONTINUOUS
10
4.53695
20
-2.96683
11
4.5374
21
-2.96909
0
LINE
8
BLACK
6
CONTINUOUS
10
4.5374
20
-2.96909
11
4.5374
21
-2.98091
0
LINE
8
BLACK
6
CONTINUOUS
10
4.5374
20
-2.98091
11
4.53695
21
-2.98317
0
LINE
8
BLACK
6
CONTINUOUS
10
4.53695
20
-2.98317
11
4.53567
21
-2.98508
0
LINE
8
BLACK
6
CONTINUOUS
10
4.53567
20
-2.98508
11
4.53376
21
-2.98636
0
LINE
8
BLACK
6
CONTINUOUS
10
4.53376
20
-2.98636
11
4.5315
21
-2.98681
0
LINE
8
BLACK
6
CONTINUOUS
10
4.5315
20
-2.98681
11
4.46654
21
-2.98681
0
LINE
8
BLACK
6
CONTINUOUS
10
4.46654
20
-2.98681
11
4.46428
21
-2.98636
0
LINE
8
BLACK
6
CONTINUOUS
10
4.46428
20
-2.98636
11
4.46236
21
-2.98508
0
LINE
8
BLACK
6
CONTINUOUS
10
4.46236
20
-2.98508
11
4.46108
21
-2.98317
0
LINE
8
BLACK
6
CONTINUOUS
10
4.46108
20
-2.98317
11
4.46063
21
-2.98091
0
LINE
8
BLACK
6
CONTINUOUS
10
4.46063
20
-2.98091
11
4.46063
21
-2.96909
0
LINE
8
BLACK
6
CONTINUOUS
10
4.46063
20
-2.96909
11
4.46108
21
-2.96683
0
LINE
8
BLACK
6
CONTINUOUS
10
4.46108
20
-2.96683
11
4.46236
21
-2.96492
0
LINE
8
BLACK
6
CONTINUOUS
10
4.46236
20
-2.96492
11
4.46428
21
-2.96364
0
LINE
8
BLACK
6
CONTINUOUS
10
4.46428
20
-2.96364
11
4.46654
21
-2.96319
0
LINE
8
BLACK
6
CONTINUOUS
10
4.46654
20
-2.96319
11
4.5315
21
-2.96319
0
LINE
8
BLACK
6
CONTINUOUS
10
4.5315
20
-2.96319
11
4.53376
21
-2.96364
0
LINE
8
BLACK
6
CONTINUOUS
10
4.33887
20
-2.96364
11
4.34079
21
-2.96492
0
LINE
8
BLACK
6
CONTINUOUS
10
4.34079
20
-2.96492
11
4.34207
21
-2.96683
0
LINE
8
BLACK
6
CONTINUOUS
10
4.34207
20
-2.96683
11
4.34252
21
-2.96909
0
LINE
8
BLACK
6
CONTINUOUS
10
4.34252
20
-2.96909
11
4.34252
21
-2.98091
0
LINE
8
BLACK
6
CONTINUOUS
10
4.34252
20
-2.98091
11
4.34207
21
-2.98317
0
LINE
8
BLACK
6
CONTINUOUS
10
4.34207
20
-2.98317
11
4.34079
21
-2.98508
0
LINE
8
BLACK
6
CONTINUOUS
10
4.34079
20
-2.98508
11
4.33887
21
-2.98636
0
LINE
8
BLACK
6
CONTINUOUS
10
4.33887
20
-2.98636
11
4.33661
21
-2.98681
0
LINE
8
BLACK
6
CONTINUOUS
10
4.33661
20
-2.98681
11
4.27165
21
-2.98681
0
LINE
8
BLACK
6
CONTINUOUS
10
4.27165
20
-2.98681
11
4.26939
21
-2.98636
0
LINE
8
BLACK
6
CONTINUOUS
10
4.26939
20
-2.98636
11
4.26748
21
-2.98508
0
LINE
8
BLACK
6
CONTINUOUS
10
4.26748
20
-2.98508
11
4.2662
21
-2.98317
0
LINE
8
BLACK
6
CONTINUOUS
10
4.2662
20
-2.98317
11
4.26575
21
-2.98091
0
LINE
8
BLACK
6
CONTINUOUS
10
4.26575
20
-2.98091
11
4.26575
21
-2.96909
0
LINE
8
BLACK
6
CONTINUOUS
10
4.26575
20
-2.96909
11
4.2662
21
-2.96683
0
LINE
8
BLACK
6
CONTINUOUS
10
4.2662
20
-2.96683
11
4.26748
21
-2.96492
0
LINE
8
BLACK
6
CONTINUOUS
10
4.26748
20
-2.96492
11
4.26939
21
-2.96364
0
LINE
8
BLACK
6
CONTINUOUS
10
4.26939
20
-2.96364
11
4.27165
21
-2.96319
0
LINE
8
BLACK
6
CONTINUOUS
10
4.27165
20
-2.96319
11
4.33661
21
-2.96319
0
LINE
8
BLACK
6
CONTINUOUS
10
4.33661
20
-2.96319
11
4.33887
21
-2.96364
0
LINE
8
BLACK
6
CONTINUOUS
10
5.6997
20
-2.9595
11
5.70162
21
-2.96078
0
LINE
8
BLACK
6
CONTINUOUS
10
5.70162
20
-2.96078
11
5.7029
21
-2.9627
0
LINE
8
BLACK
6
CONTINUOUS
10
5.7029
20
-2.9627
11
5.70335
21
-2.96496
0
LINE
8
BLACK
6
CONTINUOUS
10
5.70335
20
-2.96496
11
5.70335
21
-2.97677
0
LINE
8
BLACK
6
CONTINUOUS
10
5.70335
20
-2.97677
11
5.7029
21
-2.97903
0
LINE
8
BLACK
6
CONTINUOUS
10
5.7029
20
-2.97903
11
5.70162
21
-2.98095
0
LINE
8
BLACK
6
CONTINUOUS
10
5.70162
20
-2.98095
11
5.6997
21
-2.98223
0
LINE
8
BLACK
6
CONTINUOUS
10
5.6997
20
-2.98223
11
5.69744
21
-2.98268
0
LINE
8
BLACK
6
CONTINUOUS
10
5.69744
20
-2.98268
11
5.63248
21
-2.98268
0
LINE
8
BLACK
6
CONTINUOUS
10
5.63248
20
-2.98268
11
5.63022
21
-2.98223
0
LINE
8
BLACK
6
CONTINUOUS
10
5.63022
20
-2.98223
11
5.6283
21
-2.98095
0
LINE
8
BLACK
6
CONTINUOUS
10
5.6283
20
-2.98095
11
5.62702
21
-2.97903
0
LINE
8
BLACK
6
CONTINUOUS
10
5.62702
20
-2.97903
11
5.62657
21
-2.97677
0
LINE
8
BLACK
6
CONTINUOUS
10
5.62657
20
-2.97677
11
5.62657
21
-2.96496
0
LINE
8
BLACK
6
CONTINUOUS
10
5.62657
20
-2.96496
11
5.62702
21
-2.9627
0
LINE
8
BLACK
6
CONTINUOUS
10
5.62702
20
-2.9627
11
5.6283
21
-2.96078
0
LINE
8
BLACK
6
CONTINUOUS
10
5.6283
20
-2.96078
11
5.63022
21
-2.9595
0
LINE
8
BLACK
6
CONTINUOUS
10
5.63022
20
-2.9595
11
5.63248
21
-2.95906
0
LINE
8
BLACK
6
CONTINUOUS
10
5.63248
20
-2.95906
11
5.69744
21
-2.95906
0
LINE
8
BLACK
6
CONTINUOUS
10
5.69744
20
-2.95906
11
5.6997
21
-2.9595
0
LINE
8
BLACK
6
CONTINUOUS
10
5.50482
20
-2.9595
11
5.50673
21
-2.96078
0
LINE
8
BLACK
6
CONTINUOUS
10
5.50673
20
-2.96078
11
5.50802
21
-2.9627
0
LINE
8
BLACK
6
CONTINUOUS
10
5.50802
20
-2.9627
11
5.50846
21
-2.96496
0
LINE
8
BLACK
6
CONTINUOUS
10
5.50846
20
-2.96496
11
5.50846
21
-2.97677
0
LINE
8
BLACK
6
CONTINUOUS
10
5.50846
20
-2.97677
11
5.50802
21
-2.97903
0
LINE
8
BLACK
6
CONTINUOUS
10
5.50802
20
-2.97903
11
5.50673
21
-2.98095
0
LINE
8
BLACK
6
CONTINUOUS
10
5.50673
20
-2.98095
11
5.50482
21
-2.98223
0
LINE
8
BLACK
6
CONTINUOUS
10
5.50482
20
-2.98223
11
5.50256
21
-2.98268
0
LINE
8
BLACK
6
CONTINUOUS
10
5.50256
20
-2.98268
11
5.4376
21
-2.98268
0
LINE
8
BLACK
6
CONTINUOUS
10
5.4376
20
-2.98268
11
5.43534
21
-2.98223
0
LINE
8
BLACK
6
CONTINUOUS
10
5.43534
20
-2.98223
11
5.43342
21
-2.98095
0
LINE
8
BLACK
6
CONTINUOUS
10
5.43342
20
-2.98095
11
5.43214
21
-2.97903
0
LINE
8
BLACK
6
CONTINUOUS
10
5.43214
20
-2.97903
11
5.43169
21
-2.97677
0
LINE
8
BLACK
6
CONTINUOUS
10
5.43169
20
-2.97677
11
5.43169
21
-2.96496
0
LINE
8
BLACK
6
CONTINUOUS
10
5.43169
20
-2.96496
11
5.43214
21
-2.9627
0
LINE
8
BLACK
6
CONTINUOUS
10
5.43214
20
-2.9627
11
5.43342
21
-2.96078
0
LINE
8
BLACK
6
CONTINUOUS
10
5.43342
20
-2.96078
11
5.43534
21
-2.9595
0
LINE
8
BLACK
6
CONTINUOUS
10
5.43534
20
-2.9595
11
5.4376
21
-2.95906
0
LINE
8
BLACK
6
CONTINUOUS
10
5.4376
20
-2.95906
11
5.50256
21
-2.95906
0
LINE
8
BLACK
6
CONTINUOUS
10
5.50256
20
-2.95906
11
5.50482
21
-2.9595
0
LINE
8
BLACK
6
CONTINUOUS
10
3.77701
20
-2.9367
11
3.77989
21
-2.93862
0
LINE
8
BLACK
6
CONTINUOUS
10
3.77989
20
-2.93862
11
3.78181
21
-2.94149
0
LINE
8
BLACK
6
CONTINUOUS
10
3.78181
20
-2.94149
11
3.78248
21
-2.94488
0
LINE
8
BLACK
6
CONTINUOUS
10
3.78248
20
-2.94488
11
3.78248
21
-2.9626
0
LINE
8
BLACK
6
CONTINUOUS
10
3.78248
20
-2.9626
11
3.78181
21
-2.96599
0
LINE
8
BLACK
6
CONTINUOUS
10
3.78181
20
-2.96599
11
3.77989
21
-2.96886
0
LINE
8
BLACK
6
CONTINUOUS
10
3.77989
20
-2.96886
11
3.77701
21
-2.97078
0
LINE
8
BLACK
6
CONTINUOUS
10
3.77701
20
-2.97078
11
3.77362
21
-2.97146
0
LINE
8
BLACK
6
CONTINUOUS
10
3.77362
20
-2.97146
11
3.75394
21
-2.97146
0
LINE
8
BLACK
6
CONTINUOUS
10
3.75394
20
-2.97146
11
3.75055
21
-2.97078
0
LINE
8
BLACK
6
CONTINUOUS
10
3.75055
20
-2.97078
11
3.74767
21
-2.96886
0
LINE
8
BLACK
6
CONTINUOUS
10
3.74767
20
-2.96886
11
3.74575
21
-2.96599
0
LINE
8
BLACK
6
CONTINUOUS
10
3.74575
20
-2.96599
11
3.74508
21
-2.9626
0
LINE
8
BLACK
6
CONTINUOUS
10
3.74508
20
-2.9626
11
3.74508
21
-2.94488
0
LINE
8
BLACK
6
CONTINUOUS
10
3.74508
20
-2.94488
11
3.74575
21
-2.94149
0
LINE
8
BLACK
6
CONTINUOUS
10
3.74575
20
-2.94149
11
3.74767
21
-2.93862
0
LINE
8
BLACK
6
CONTINUOUS
10
3.74767
20
-2.93862
11
3.75055
21
-2.9367
0
LINE
8
BLACK
6
CONTINUOUS
10
3.75055
20
-2.9367
11
3.75394
21
-2.93602
0
LINE
8
BLACK
6
CONTINUOUS
10
3.75394
20
-2.93602
11
3.77362
21
-2.93602
0
LINE
8
BLACK
6
CONTINUOUS
10
3.77362
20
-2.93602
11
3.77701
21
-2.9367
0
LINE
8
BLACK
6
CONTINUOUS
10
5.24361
20
-2.87624
11
5.25
21
-2.87909
0
LINE
8
BLACK
6
CONTINUOUS
10
5.25
20
-2.87909
11
5.25566
21
-2.8832
0
LINE
8
BLACK
6
CONTINUOUS
10
5.25566
20
-2.8832
11
5.26034
21
-2.8884
0
LINE
8
BLACK
6
CONTINUOUS
10
5.26034
20
-2.8884
11
5.26384
21
-2.89446
0
LINE
8
BLACK
6
CONTINUOUS
10
5.26384
20
-2.89446
11
5.266
21
-2.90111
0
LINE
8
BLACK
6
CONTINUOUS
10
5.266
20
-2.90111
11
5.26673
21
-2.90807
0
LINE
8
BLACK
6
CONTINUOUS
10
5.26673
20
-2.90807
11
5.266
21
-2.91503
0
LINE
8
BLACK
6
CONTINUOUS
10
5.266
20
-2.91503
11
5.26384
21
-2.92168
0
LINE
8
BLACK
6
CONTINUOUS
10
5.26384
20
-2.92168
11
5.26034
21
-2.92774
0
LINE
8
BLACK
6
CONTINUOUS
10
5.26034
20
-2.92774
11
5.25566
21
-2.93294
0
LINE
8
BLACK
6
CONTINUOUS
10
5.25566
20
-2.93294
11
5.25
21
-2.93705
0
LINE
8
BLACK
6
CONTINUOUS
10
5.25
20
-2.93705
11
5.24361
21
-2.9399
0
LINE
8
BLACK
6
CONTINUOUS
10
5.24361
20
-2.9399
11
5.23677
21
-2.94135
0
LINE
8
BLACK
6
CONTINUOUS
10
5.23677
20
-2.94135
11
5.22977
21
-2.94135
0
LINE
8
BLACK
6
CONTINUOUS
10
5.22977
20
-2.94135
11
5.22293
21
-2.9399
0
LINE
8
BLACK
6
CONTINUOUS
10
5.22293
20
-2.9399
11
5.21654
21
-2.93705
0
LINE
8
BLACK
6
CONTINUOUS
10
5.21654
20
-2.93705
11
5.21088
21
-2.93294
0
LINE
8
BLACK
6
CONTINUOUS
10
5.21088
20
-2.93294
11
5.20619
21
-2.92774
0
LINE
8
BLACK
6
CONTINUOUS
10
5.20619
20
-2.92774
11
5.2027
21
-2.92168
0
LINE
8
BLACK
6
CONTINUOUS
10
5.2027
20
-2.92168
11
5.20053
21
-2.91503
0
LINE
8
BLACK
6
CONTINUOUS
10
5.20053
20
-2.91503
11
5.1998
21
-2.90807
0
LINE
8
BLACK
6
CONTINUOUS
10
5.1998
20
-2.90807
11
5.20053
21
-2.90111
0
LINE
8
BLACK
6
CONTINUOUS
10
5.20053
20
-2.90111
11
5.2027
21
-2.89446
0
LINE
8
BLACK
6
CONTINUOUS
10
5.2027
20
-2.89446
11
5.20619
21
-2.8884
0
LINE
8
BLACK
6
CONTINUOUS
10
5.20619
20
-2.8884
11
5.21088
21
-2.8832
0
LINE
8
BLACK
6
CONTINUOUS
10
5.21088
20
-2.8832
11
5.21654
21
-2.87909
0
LINE
8
BLACK
6
CONTINUOUS
10
5.21654
20
-2.87909
11
5.22293
21
-2.87624
0
LINE
8
BLACK
6
CONTINUOUS
10
5.22293
20
-2.87624
11
5.22977
21
-2.87479
0
LINE
8
BLACK
6
CONTINUOUS
10
5.22977
20
-2.87479
11
5.23677
21
-2.87479
0
LINE
8
BLACK
6
CONTINUOUS
10
5.23677
20
-2.87479
11
5.24361
21
-2.87624
0
LINE
8
BLACK
6
CONTINUOUS
10
5.34361
20
-2.87624
11
5.35
21
-2.87909
0
LINE
8
BLACK
6
CONTINUOUS
10
5.35
20
-2.87909
11
5.35566
21
-2.8832
0
LINE
8
BLACK
6
CONTINUOUS
10
5.35566
20
-2.8832
11
5.36034
21
-2.8884
0
LINE
8
BLACK
6
CONTINUOUS
10
5.36034
20
-2.8884
11
5.36384
21
-2.89446
0
LINE
8
BLACK
6
CONTINUOUS
10
5.36384
20
-2.89446
11
5.366
21
-2.90111
0
LINE
8
BLACK
6
CONTINUOUS
10
5.366
20
-2.90111
11
5.36673
21
-2.90807
0
LINE
8
BLACK
6
CONTINUOUS
10
5.36673
20
-2.90807
11
5.366
21
-2.91503
0
LINE
8
BLACK
6
CONTINUOUS
10
5.366
20
-2.91503
11
5.36384
21
-2.92168
0
LINE
8
BLACK
6
CONTINUOUS
10
5.36384
20
-2.92168
11
5.36034
21
-2.92774
0
LINE
8
BLACK
6
CONTINUOUS
10
5.36034
20
-2.92774
11
5.35566
21
-2.93294
0
LINE
8
BLACK
6
CONTINUOUS
10
5.35566
20
-2.93294
11
5.35
21
-2.93705
0
LINE
8
BLACK
6
CONTINUOUS
10
5.35
20
-2.93705
11
5.34361
21
-2.9399
0
LINE
8
BLACK
6
CONTINUOUS
10
5.34361
20
-2.9399
11
5.33677
21
-2.94135
0
LINE
8
BLACK
6
CONTINUOUS
10
5.33677
20
-2.94135
11
5.32977
21
-2.94135
0
LINE
8
BLACK
6
CONTINUOUS
10
5.32977
20
-2.94135
11
5.32293
21
-2.9399
0
LINE
8
BLACK
6
CONTINUOUS
10
5.32293
20
-2.9399
11
5.31654
21
-2.93705
0
LINE
8
BLACK
6
CONTINUOUS
10
5.31654
20
-2.93705
11
5.31088
21
-2.93294
0
LINE
8
BLACK
6
CONTINUOUS
10
5.31088
20
-2.93294
11
5.30619
21
-2.92774
0
LINE
8
BLACK
6
CONTINUOUS
10
5.30619
20
-2.92774
11
5.3027
21
-2.92168
0
LINE
8
BLACK
6
CONTINUOUS
10
5.3027
20
-2.92168
11
5.30053
21
-2.91503
0
LINE
8
BLACK
6
CONTINUOUS
10
5.30053
20
-2.91503
11
5.2998
21
-2.90807
0
LINE
8
BLACK
6
CONTINUOUS
10
5.2998
20
-2.90807
11
5.30053
21
-2.90111
0
LINE
8
BLACK
6
CONTINUOUS
10
5.30053
20
-2.90111
11
5.3027
21
-2.89446
0
LINE
8
BLACK
6
CONTINUOUS
10
5.3027
20
-2.89446
11
5.30619
21
-2.8884
0
LINE
8
BLACK
6
CONTINUOUS
10
5.30619
20
-2.8884
11
5.31088
21
-2.8832
0
LINE
8
BLACK
6
CONTINUOUS
10
5.31088
20
-2.8832
11
5.31654
21
-2.87909
0
LINE
8
BLACK
6
CONTINUOUS
10
5.31654
20
-2.87909
11
5.32293
21
-2.87624
0
LINE
8
BLACK
6
CONTINUOUS
10
5.32293
20
-2.87624
11
5.32977
21
-2.87479
0
LINE
8
BLACK
6
CONTINUOUS
10
5.32977
20
-2.87479
11
5.33677
21
-2.87479
0
LINE
8
BLACK
6
CONTINUOUS
10
5.33677
20
-2.87479
11
5.34361
21
-2.87624
0
LINE
8
BLACK
6
CONTINUOUS
10
4.53376
20
-2.91364
11
4.53567
21
-2.91492
0
LINE
8
BLACK
6
CONTINUOUS
10
4.53567
20
-2.91492
11
4.53695
21
-2.91683
0
LINE
8
BLACK
6
CONTINUOUS
10
4.53695
20
-2.91683
11
4.5374
21
-2.91909
0
LINE
8
BLACK
6
CONTINUOUS
10
4.5374
20
-2.91909
11
4.5374
21
-2.93091
0
LINE
8
BLACK
6
CONTINUOUS
10
4.5374
20
-2.93091
11
4.53695
21
-2.93317
0
LINE
8
BLACK
6
CONTINUOUS
10
4.53695
20
-2.93317
11
4.53567
21
-2.93508
0
LINE
8
BLACK
6
CONTINUOUS
10
4.53567
20
-2.93508
11
4.53376
21
-2.93636
0
LINE
8
BLACK
6
CONTINUOUS
10
4.53376
20
-2.93636
11
4.5315
21
-2.93681
0
LINE
8
BLACK
6
CONTINUOUS
10
4.5315
20
-2.93681
11
4.46654
21
-2.93681
0
LINE
8
BLACK
6
CONTINUOUS
10
4.46654
20
-2.93681
11
4.46428
21
-2.93636
0
LINE
8
BLACK
6
CONTINUOUS
10
4.46428
20
-2.93636
11
4.46236
21
-2.93508
0
LINE
8
BLACK
6
CONTINUOUS
10
4.46236
20
-2.93508
11
4.46108
21
-2.93317
0
LINE
8
BLACK
6
CONTINUOUS
10
4.46108
20
-2.93317
11
4.46063
21
-2.93091
0
LINE
8
BLACK
6
CONTINUOUS
10
4.46063
20
-2.93091
11
4.46063
21
-2.91909
0
LINE
8
BLACK
6
CONTINUOUS
10
4.46063
20
-2.91909
11
4.46108
21
-2.91683
0
LINE
8
BLACK
6
CONTINUOUS
10
4.46108
20
-2.91683
11
4.46236
21
-2.91492
0
LINE
8
BLACK
6
CONTINUOUS
10
4.46236
20
-2.91492
11
4.46428
21
-2.91364
0
LINE
8
BLACK
6
CONTINUOUS
10
4.46428
20
-2.91364
11
4.46654
21
-2.91319
0
LINE
8
BLACK
6
CONTINUOUS
10
4.46654
20
-2.91319
11
4.5315
21
-2.91319
0
LINE
8
BLACK
6
CONTINUOUS
10
4.5315
20
-2.91319
11
4.53376
21
-2.91364
0
LINE
8
BLACK
6
CONTINUOUS
10
4.33887
20
-2.91364
11
4.34079
21
-2.91492
0
LINE
8
BLACK
6
CONTINUOUS
10
4.34079
20
-2.91492
11
4.34207
21
-2.91683
0
LINE
8
BLACK
6
CONTINUOUS
10
4.34207
20
-2.91683
11
4.34252
21
-2.91909
0
LINE
8
BLACK
6
CONTINUOUS
10
4.34252
20
-2.91909
11
4.34252
21
-2.93091
0
LINE
8
BLACK
6
CONTINUOUS
10
4.34252
20
-2.93091
11
4.34207
21
-2.93317
0
LINE
8
BLACK
6
CONTINUOUS
10
4.34207
20
-2.93317
11
4.34079
21
-2.93508
0
LINE
8
BLACK
6
CONTINUOUS
10
4.34079
20
-2.93508
11
4.33887
21
-2.93636
0
LINE
8
BLACK
6
CONTINUOUS
10
4.33887
20
-2.93636
11
4.33661
21
-2.93681
0
LINE
8
BLACK
6
CONTINUOUS
10
4.33661
20
-2.93681
11
4.27165
21
-2.93681
0
LINE
8
BLACK
6
CONTINUOUS
10
4.27165
20
-2.93681
11
4.26939
21
-2.93636
0
LINE
8
BLACK
6
CONTINUOUS
10
4.26939
20
-2.93636
11
4.26748
21
-2.93508
0
LINE
8
BLACK
6
CONTINUOUS
10
4.26748
20
-2.93508
11
4.2662
21
-2.93317
0
LINE
8
BLACK
6
CONTINUOUS
10
4.2662
20
-2.93317
11
4.26575
21
-2.93091
0
LINE
8
BLACK
6
CONTINUOUS
10
4.26575
20
-2.93091
11
4.26575
21
-2.91909
0
LINE
8
BLACK
6
CONTINUOUS
10
4.26575
20
-2.91909
11
4.2662
21
-2.91683
0
LINE
8
BLACK
6
CONTINUOUS
10
4.2662
20
-2.91683
11
4.26748
21
-2.91492
0
LINE
8
BLACK
6
CONTINUOUS
10
4.26748
20
-2.91492
11
4.26939
21
-2.91364
0
LINE
8
BLACK
6
CONTINUOUS
10
4.26939
20
-2.91364
11
4.27165
21
-2.91319
0
LINE
8
BLACK
6
CONTINUOUS
10
4.27165
20
-2.91319
11
4.33661
21
-2.91319
0
LINE
8
BLACK
6
CONTINUOUS
10
4.33661
20
-2.91319
11
4.33887
21
-2.91364
0
LINE
8
BLACK
6
CONTINUOUS
10
5.6997
20
-2.9095
11
5.70162
21
-2.91078
0
LINE
8
BLACK
6
CONTINUOUS
10
5.70162
20
-2.91078
11
5.7029
21
-2.9127
0
LINE
8
BLACK
6
CONTINUOUS
10
5.7029
20
-2.9127
11
5.70335
21
-2.91496
0
LINE
8
BLACK
6
CONTINUOUS
10
5.70335
20
-2.91496
11
5.70335
21
-2.92677
0
LINE
8
BLACK
6
CONTINUOUS
10
5.70335
20
-2.92677
11
5.7029
21
-2.92903
0
LINE
8
BLACK
6
CONTINUOUS
10
5.7029
20
-2.92903
11
5.70162
21
-2.93095
0
LINE
8
BLACK
6
CONTINUOUS
10
5.70162
20
-2.93095
11
5.6997
21
-2.93223
0
LINE
8
BLACK
6
CONTINUOUS
10
5.6997
20
-2.93223
11
5.69744
21
-2.93268
0
LINE
8
BLACK
6
CONTINUOUS
10
5.69744
20
-2.93268
11
5.63248
21
-2.93268
0
LINE
8
BLACK
6
CONTINUOUS
10
5.63248
20
-2.93268
11
5.63022
21
-2.93223
0
LINE
8
BLACK
6
CONTINUOUS
10
5.63022
20
-2.93223
11
5.6283
21
-2.93095
0
LINE
8
BLACK
6
CONTINUOUS
10
5.6283
20
-2.93095
11
5.62702
21
-2.92903
0
LINE
8
BLACK
6
CONTINUOUS
10
5.62702
20
-2.92903
11
5.62657
21
-2.92677
0
LINE
8
BLACK
6
CONTINUOUS
10
5.62657
20
-2.92677
11
5.62657
21
-2.91496
0
LINE
8
BLACK
6
CONTINUOUS
10
5.62657
20
-2.91496
11
5.62702
21
-2.9127
0
LINE
8
BLACK
6
CONTINUOUS
10
5.62702
20
-2.9127
11
5.6283
21
-2.91078
0
LINE
8
BLACK
6
CONTINUOUS
10
5.6283
20
-2.91078
11
5.63022
21
-2.9095
0
LINE
8
BLACK
6
CONTINUOUS
10
5.63022
20
-2.9095
11
5.63248
21
-2.90906
0
LINE
8
BLACK
6
CONTINUOUS
10
5.63248
20
-2.90906
11
5.69744
21
-2.90906
0
LINE
8
BLACK
6
CONTINUOUS
10
5.69744
20
-2.90906
11
5.6997
21
-2.9095
0
LINE
8
BLACK
6
CONTINUOUS
10
5.50482
20
-2.9095
11
5.50673
21
-2.91078
0
LINE
8
BLACK
6
CONTINUOUS
10
5.50673
20
-2.91078
11
5.50802
21
-2.9127
0
LINE
8
BLACK
6
CONTINUOUS
10
5.50802
20
-2.9127
11
5.50846
21
-2.91496
0
LINE
8
BLACK
6
CONTINUOUS
10
5.50846
20
-2.91496
11
5.50846
21
-2.92677
0
LINE
8
BLACK
6
CONTINUOUS
10
5.50846
20
-2.92677
11
5.50802
21
-2.92903
0
LINE
8
BLACK
6
CONTINUOUS
10
5.50802
20
-2.92903
11
5.50673
21
-2.93095
0
LINE
8
BLACK
6
CONTINUOUS
10
5.50673
20
-2.93095
11
5.50482
21
-2.93223
0
LINE
8
BLACK
6
CONTINUOUS
10
5.50482
20
-2.93223
11
5.50256
21
-2.93268
0
LINE
8
BLACK
6
CONTINUOUS
10
5.50256
20
-2.93268
11
5.4376
21
-2.93268
0
LINE
8
BLACK
6
CONTINUOUS
10
5.4376
20
-2.93268
11
5.43534
21
-2.93223
0
LINE
8
BLACK
6
CONTINUOUS
10
5.43534
20
-2.93223
11
5.43342
21
-2.93095
0
LINE
8
BLACK
6
CONTINUOUS
10
5.43342
20
-2.93095
11
5.43214
21
-2.92903
0
LINE
8
BLACK
6
CONTINUOUS
10
5.43214
20
-2.92903
11
5.43169
21
-2.92677
0
LINE
8
BLACK
6
CONTINUOUS
10
5.43169
20
-2.92677
11
5.43169
21
-2.91496
0
LINE
8
BLACK
6
CONTINUOUS
10
5.43169
20
-2.91496
11
5.43214
21
-2.9127
0
LINE
8
BLACK
6
CONTINUOUS
10
5.43214
20
-2.9127
11
5.43342
21
-2.91078
0
LINE
8
BLACK
6
CONTINUOUS
10
5.43342
20
-2.91078
11
5.43534
21
-2.9095
0
LINE
8
BLACK
6
CONTINUOUS
10
5.43534
20
-2.9095
11
5.4376
21
-2.90906
0
LINE
8
BLACK
6
CONTINUOUS
10
5.4376
20
-2.90906
11
5.50256
21
-2.90906
0
LINE
8
BLACK
6
CONTINUOUS
10
5.50256
20
-2.90906
11
5.50482
21
-2.9095
0
LINE
8
BLACK
6
CONTINUOUS
10
5.82136
20
-2.84573
11
5.82776
21
-2.84858
0
LINE
8
BLACK
6
CONTINUOUS
10
5.82776
20
-2.84858
11
5.83342
21
-2.85269
0
LINE
8
BLACK
6
CONTINUOUS
10
5.83342
20
-2.85269
11
5.8381
21
-2.85789
0
LINE
8
BLACK
6
CONTINUOUS
10
5.8381
20
-2.85789
11
5.8416
21
-2.86395
0
LINE
8
BLACK
6
CONTINUOUS
10
5.8416
20
-2.86395
11
5.84376
21
-2.8706
0
LINE
8
BLACK
6
CONTINUOUS
10
5.84376
20
-2.8706
11
5.84449
21
-2.87756
0
LINE
8
BLACK
6
CONTINUOUS
10
5.84449
20
-2.87756
11
5.84376
21
-2.88452
0
LINE
8
BLACK
6
CONTINUOUS
10
5.84376
20
-2.88452
11
5.8416
21
-2.89117
0
LINE
8
BLACK
6
CONTINUOUS
10
5.8416
20
-2.89117
11
5.8381
21
-2.89723
0
LINE
8
BLACK
6
CONTINUOUS
10
5.8381
20
-2.89723
11
5.83342
21
-2.90243
0
LINE
8
BLACK
6
CONTINUOUS
10
5.83342
20
-2.90243
11
5.82776
21
-2.90654
0
LINE
8
BLACK
6
CONTINUOUS
10
5.82776
20
-2.90654
11
5.82136
21
-2.90939
0
LINE
8
BLACK
6
CONTINUOUS
10
5.82136
20
-2.90939
11
5.81452
21
-2.91084
0
LINE
8
BLACK
6
CONTINUOUS
10
5.81452
20
-2.91084
11
5.80753
21
-2.91084
0
LINE
8
BLACK
6
CONTINUOUS
10
5.80753
20
-2.91084
11
5.80068
21
-2.90939
0
LINE
8
BLACK
6
CONTINUOUS
10
5.80068
20
-2.90939
11
5.79429
21
-2.90654
0
LINE
8
BLACK
6
CONTINUOUS
10
5.79429
20
-2.90654
11
5.78863
21
-2.90243
0
LINE
8
BLACK
6
CONTINUOUS
10
5.78863
20
-2.90243
11
5.78395
21
-2.89723
0
LINE
8
BLACK
6
CONTINUOUS
10
5.78395
20
-2.89723
11
5.78045
21
-2.89117
0
LINE
8
BLACK
6
CONTINUOUS
10
5.78045
20
-2.89117
11
5.77829
21
-2.88452
0
LINE
8
BLACK
6
CONTINUOUS
10
5.77829
20
-2.88452
11
5.77756
21
-2.87756
0
LINE
8
BLACK
6
CONTINUOUS
10
5.77756
20
-2.87756
11
5.77829
21
-2.8706
0
LINE
8
BLACK
6
CONTINUOUS
10
5.77829
20
-2.8706
11
5.78045
21
-2.86395
0
LINE
8
BLACK
6
CONTINUOUS
10
5.78045
20
-2.86395
11
5.78395
21
-2.85789
0
LINE
8
BLACK
6
CONTINUOUS
10
5.78395
20
-2.85789
11
5.78863
21
-2.85269
0
LINE
8
BLACK
6
CONTINUOUS
10
5.78863
20
-2.85269
11
5.79429
21
-2.84858
0
LINE
8
BLACK
6
CONTINUOUS
10
5.79429
20
-2.84858
11
5.80068
21
-2.84573
0
LINE
8
BLACK
6
CONTINUOUS
10
5.80068
20
-2.84573
11
5.80753
21
-2.84428
0
LINE
8
BLACK
6
CONTINUOUS
10
5.80753
20
-2.84428
11
5.81452
21
-2.84428
0
LINE
8
BLACK
6
CONTINUOUS
10
5.81452
20
-2.84428
11
5.82136
21
-2.84573
0
LINE
8
BLACK
6
CONTINUOUS
10
3.77701
20
-2.87174
11
3.77989
21
-2.87366
0
LINE
8
BLACK
6
CONTINUOUS
10
3.77989
20
-2.87366
11
3.78181
21
-2.87653
0
LINE
8
BLACK
6
CONTINUOUS
10
3.78181
20
-2.87653
11
3.78248
21
-2.87992
0
LINE
8
BLACK
6
CONTINUOUS
10
3.78248
20
-2.87992
11
3.78248
21
-2.89764
0
LINE
8
BLACK
6
CONTINUOUS
10
3.78248
20
-2.89764
11
3.78181
21
-2.90103
0
LINE
8
BLACK
6
CONTINUOUS
10
3.78181
20
-2.90103
11
3.77989
21
-2.9039
0
LINE
8
BLACK
6
CONTINUOUS
10
3.77989
20
-2.9039
11
3.77701
21
-2.90582
0
LINE
8
BLACK
6
CONTINUOUS
10
3.77701
20
-2.90582
11
3.77362
21
-2.9065
0
LINE
8
BLACK
6
CONTINUOUS
10
3.77362
20
-2.9065
11
3.75394
21
-2.9065
0
LINE
8
BLACK
6
CONTINUOUS
10
3.75394
20
-2.9065
11
3.75055
21
-2.90582
0
LINE
8
BLACK
6
CONTINUOUS
10
3.75055
20
-2.90582
11
3.74767
21
-2.9039
0
LINE
8
BLACK
6
CONTINUOUS
10
3.74767
20
-2.9039
11
3.74575
21
-2.90103
0
LINE
8
BLACK
6
CONTINUOUS
10
3.74575
20
-2.90103
11
3.74508
21
-2.89764
0
LINE
8
BLACK
6
CONTINUOUS
10
3.74508
20
-2.89764
11
3.74508
21
-2.87992
0
LINE
8
BLACK
6
CONTINUOUS
10
3.74508
20
-2.87992
11
3.74575
21
-2.87653
0
LINE
8
BLACK
6
CONTINUOUS
10
3.74575
20
-2.87653
11
3.74767
21
-2.87366
0
LINE
8
BLACK
6
CONTINUOUS
10
3.74767
20
-2.87366
11
3.75055
21
-2.87174
0
LINE
8
BLACK
6
CONTINUOUS
10
3.75055
20
-2.87174
11
3.75394
21
-2.87106
0
LINE
8
BLACK
6
CONTINUOUS
10
3.75394
20
-2.87106
11
3.77362
21
-2.87106
0
LINE
8
BLACK
6
CONTINUOUS
10
3.77362
20
-2.87106
11
3.77701
21
-2.87174
0
LINE
8
BLACK
6
CONTINUOUS
10
4.78731
20
-2.82861
11
4.7937
21
-2.83145
0
LINE
8
BLACK
6
CONTINUOUS
10
4.7937
20
-2.83145
11
4.79936
21
-2.83556
0
LINE
8
BLACK
6
CONTINUOUS
10
4.79936
20
-2.83556
11
4.80404
21
-2.84076
0
LINE
8
BLACK
6
CONTINUOUS
10
4.80404
20
-2.84076
11
4.80754
21
-2.84682
0
LINE
8
BLACK
6
CONTINUOUS
10
4.80754
20
-2.84682
11
4.8097
21
-2.85348
0
LINE
8
BLACK
6
CONTINUOUS
10
4.8097
20
-2.85348
11
4.81043
21
-2.86043
0
LINE
8
BLACK
6
CONTINUOUS
10
4.81043
20
-2.86043
11
4.8097
21
-2.86739
0
LINE
8
BLACK
6
CONTINUOUS
10
4.8097
20
-2.86739
11
4.80754
21
-2.87404
0
LINE
8
BLACK
6
CONTINUOUS
10
4.80754
20
-2.87404
11
4.80404
21
-2.8801
0
LINE
8
BLACK
6
CONTINUOUS
10
4.80404
20
-2.8801
11
4.79936
21
-2.8853
0
LINE
8
BLACK
6
CONTINUOUS
10
4.79936
20
-2.8853
11
4.7937
21
-2.88941
0
LINE
8
BLACK
6
CONTINUOUS
10
4.7937
20
-2.88941
11
4.78731
21
-2.89226
0
LINE
8
BLACK
6
CONTINUOUS
10
4.78731
20
-2.89226
11
4.78047
21
-2.89371
0
LINE
8
BLACK
6
CONTINUOUS
10
4.78047
20
-2.89371
11
4.77347
21
-2.89371
0
LINE
8
BLACK
6
CONTINUOUS
10
4.77347
20
-2.89371
11
4.76663
21
-2.89226
0
LINE
8
BLACK
6
CONTINUOUS
10
4.76663
20
-2.89226
11
4.76024
21
-2.88941
0
LINE
8
BLACK
6
CONTINUOUS
10
4.76024
20
-2.88941
11
4.75458
21
-2.8853
0
LINE
8
BLACK
6
CONTINUOUS
10
4.75458
20
-2.8853
11
4.7499
21
-2.8801
0
LINE
8
BLACK
6
CONTINUOUS
10
4.7499
20
-2.8801
11
4.7464
21
-2.87404
0
LINE
8
BLACK
6
CONTINUOUS
10
4.7464
20
-2.87404
11
4.74424
21
-2.86739
0
LINE
8
BLACK
6
CONTINUOUS
10
4.74424
20
-2.86739
11
4.7435
21
-2.86043
0
LINE
8
BLACK
6
CONTINUOUS
10
4.7435
20
-2.86043
11
4.74424
21
-2.85348
0
LINE
8
BLACK
6
CONTINUOUS
10
4.74424
20
-2.85348
11
4.7464
21
-2.84682
0
LINE
8
BLACK
6
CONTINUOUS
10
4.7464
20
-2.84682
11
4.7499
21
-2.84076
0
LINE
8
BLACK
6
CONTINUOUS
10
4.7499
20
-2.84076
11
4.75458
21
-2.83556
0
LINE
8
BLACK
6
CONTINUOUS
10
4.75458
20
-2.83556
11
4.76024
21
-2.83145
0
LINE
8
BLACK
6
CONTINUOUS
10
4.76024
20
-2.83145
11
4.76663
21
-2.82861
0
LINE
8
BLACK
6
CONTINUOUS
10
4.76663
20
-2.82861
11
4.77347
21
-2.82715
0
LINE
8
BLACK
6
CONTINUOUS
10
4.77347
20
-2.82715
11
4.78047
21
-2.82715
0
LINE
8
BLACK
6
CONTINUOUS
10
4.78047
20
-2.82715
11
4.78731
21
-2.82861
0
LINE
8
BLACK
6
CONTINUOUS
10
4.88731
20
-2.82861
11
4.8937
21
-2.83145
0
LINE
8
BLACK
6
CONTINUOUS
10
4.8937
20
-2.83145
11
4.89936
21
-2.83556
0
LINE
8
BLACK
6
CONTINUOUS
10
4.89936
20
-2.83556
11
4.90404
21
-2.84076
0
LINE
8
BLACK
6
CONTINUOUS
10
4.90404
20
-2.84076
11
4.90754
21
-2.84682
0
LINE
8
BLACK
6
CONTINUOUS
10
4.90754
20
-2.84682
11
4.9097
21
-2.85348
0
LINE
8
BLACK
6
CONTINUOUS
10
4.9097
20
-2.85348
11
4.91043
21
-2.86043
0
LINE
8
BLACK
6
CONTINUOUS
10
4.91043
20
-2.86043
11
4.9097
21
-2.86739
0
LINE
8
BLACK
6
CONTINUOUS
10
4.9097
20
-2.86739
11
4.90754
21
-2.87404
0
LINE
8
BLACK
6
CONTINUOUS
10
4.90754
20
-2.87404
11
4.90404
21
-2.8801
0
LINE
8
BLACK
6
CONTINUOUS
10
4.90404
20
-2.8801
11
4.89936
21
-2.8853
0
LINE
8
BLACK
6
CONTINUOUS
10
4.89936
20
-2.8853
11
4.8937
21
-2.88941
0
LINE
8
BLACK
6
CONTINUOUS
10
4.8937
20
-2.88941
11
4.88731
21
-2.89226
0
LINE
8
BLACK
6
CONTINUOUS
10
4.88731
20
-2.89226
11
4.88047
21
-2.89371
0
LINE
8
BLACK
6
CONTINUOUS
10
4.88047
20
-2.89371
11
4.87347
21
-2.89371
0
LINE
8
BLACK
6
CONTINUOUS
10
4.87347
20
-2.89371
11
4.86663
21
-2.89226
0
LINE
8
BLACK
6
CONTINUOUS
10
4.86663
20
-2.89226
11
4.86024
21
-2.88941
0
LINE
8
BLACK
6
CONTINUOUS
10
4.86024
20
-2.88941
11
4.85458
21
-2.8853
0
LINE
8
BLACK
6
CONTINUOUS
10
4.85458
20
-2.8853
11
4.8499
21
-2.8801
0
LINE
8
BLACK
6
CONTINUOUS
10
4.8499
20
-2.8801
11
4.8464
21
-2.87404
0
LINE
8
BLACK
6
CONTINUOUS
10
4.8464
20
-2.87404
11
4.84424
21
-2.86739
0
LINE
8
BLACK
6
CONTINUOUS
10
4.84424
20
-2.86739
11
4.8435
21
-2.86043
0
LINE
8
BLACK
6
CONTINUOUS
10
4.8435
20
-2.86043
11
4.84424
21
-2.85348
0
LINE
8
BLACK
6
CONTINUOUS
10
4.84424
20
-2.85348
11
4.8464
21
-2.84682
0
LINE
8
BLACK
6
CONTINUOUS
10
4.8464
20
-2.84682
11
4.8499
21
-2.84076
0
LINE
8
BLACK
6
CONTINUOUS
10
4.8499
20
-2.84076
11
4.85458
21
-2.83556
0
LINE
8
BLACK
6
CONTINUOUS
10
4.85458
20
-2.83556
11
4.86024
21
-2.83145
0
LINE
8
BLACK
6
CONTINUOUS
10
4.86024
20
-2.83145
11
4.86663
21
-2.82861
0
LINE
8
BLACK
6
CONTINUOUS
10
4.86663
20
-2.82861
11
4.87347
21
-2.82715
0
LINE
8
BLACK
6
CONTINUOUS
10
4.87347
20
-2.82715
11
4.88047
21
-2.82715
0
LINE
8
BLACK
6
CONTINUOUS
10
4.88047
20
-2.82715
11
4.88731
21
-2.82861
0
LINE
8
BLACK
6
CONTINUOUS
10
4.53376
20
-2.86364
11
4.53567
21
-2.86492
0
LINE
8
BLACK
6
CONTINUOUS
10
4.53567
20
-2.86492
11
4.53695
21
-2.86683
0
LINE
8
BLACK
6
CONTINUOUS
10
4.53695
20
-2.86683
11
4.5374
21
-2.86909
0
LINE
8
BLACK
6
CONTINUOUS
10
4.5374
20
-2.86909
11
4.5374
21
-2.88091
0
LINE
8
BLACK
6
CONTINUOUS
10
4.5374
20
-2.88091
11
4.53695
21
-2.88317
0
LINE
8
BLACK
6
CONTINUOUS
10
4.53695
20
-2.88317
11
4.53567
21
-2.88508
0
LINE
8
BLACK
6
CONTINUOUS
10
4.53567
20
-2.88508
11
4.53376
21
-2.88636
0
LINE
8
BLACK
6
CONTINUOUS
10
4.53376
20
-2.88636
11
4.5315
21
-2.88681
0
LINE
8
BLACK
6
CONTINUOUS
10
4.5315
20
-2.88681
11
4.46654
21
-2.88681
0
LINE
8
BLACK
6
CONTINUOUS
10
4.46654
20
-2.88681
11
4.46428
21
-2.88636
0
LINE
8
BLACK
6
CONTINUOUS
10
4.46428
20
-2.88636
11
4.46236
21
-2.88508
0
LINE
8
BLACK
6
CONTINUOUS
10
4.46236
20
-2.88508
11
4.46108
21
-2.88317
0
LINE
8
BLACK
6
CONTINUOUS
10
4.46108
20
-2.88317
11
4.46063
21
-2.88091
0
LINE
8
BLACK
6
CONTINUOUS
10
4.46063
20
-2.88091
11
4.46063
21
-2.86909
0
LINE
8
BLACK
6
CONTINUOUS
10
4.46063
20
-2.86909
11
4.46108
21
-2.86683
0
LINE
8
BLACK
6
CONTINUOUS
10
4.46108
20
-2.86683
11
4.46236
21
-2.86492
0
LINE
8
BLACK
6
CONTINUOUS
10
4.46236
20
-2.86492
11
4.46428
21
-2.86364
0
LINE
8
BLACK
6
CONTINUOUS
10
4.46428
20
-2.86364
11
4.46654
21
-2.86319
0
LINE
8
BLACK
6
CONTINUOUS
10
4.46654
20
-2.86319
11
4.5315
21
-2.86319
0
LINE
8
BLACK
6
CONTINUOUS
10
4.5315
20
-2.86319
11
4.53376
21
-2.86364
0
LINE
8
BLACK
6
CONTINUOUS
10
4.33887
20
-2.86364
11
4.34079
21
-2.86492
0
LINE
8
BLACK
6
CONTINUOUS
10
4.34079
20
-2.86492
11
4.34207
21
-2.86683
0
LINE
8
BLACK
6
CONTINUOUS
10
4.34207
20
-2.86683
11
4.34252
21
-2.86909
0
LINE
8
BLACK
6
CONTINUOUS
10
4.34252
20
-2.86909
11
4.34252
21
-2.88091
0
LINE
8
BLACK
6
CONTINUOUS
10
4.34252
20
-2.88091
11
4.34207
21
-2.88317
0
LINE
8
BLACK
6
CONTINUOUS
10
4.34207
20
-2.88317
11
4.34079
21
-2.88508
0
LINE
8
BLACK
6
CONTINUOUS
10
4.34079
20
-2.88508
11
4.33887
21
-2.88636
0
LINE
8
BLACK
6
CONTINUOUS
10
4.33887
20
-2.88636
11
4.33661
21
-2.88681
0
LINE
8
BLACK
6
CONTINUOUS
10
4.33661
20
-2.88681
11
4.27165
21
-2.88681
0
LINE
8
BLACK
6
CONTINUOUS
10
4.27165
20
-2.88681
11
4.26939
21
-2.88636
0
LINE
8
BLACK
6
CONTINUOUS
10
4.26939
20
-2.88636
11
4.26748
21
-2.88508
0
LINE
8
BLACK
6
CONTINUOUS
10
4.26748
20
-2.88508
11
4.2662
21
-2.88317
0
LINE
8
BLACK
6
CONTINUOUS
10
4.2662
20
-2.88317
11
4.26575
21
-2.88091
0
LINE
8
BLACK
6
CONTINUOUS
10
4.26575
20
-2.88091
11
4.26575
21
-2.86909
0
LINE
8
BLACK
6
CONTINUOUS
10
4.26575
20
-2.86909
11
4.2662
21
-2.86683
0
LINE
8
BLACK
6
CONTINUOUS
10
4.2662
20
-2.86683
11
4.26748
21
-2.86492
0
LINE
8
BLACK
6
CONTINUOUS
10
4.26748
20
-2.86492
11
4.26939
21
-2.86364
0
LINE
8
BLACK
6
CONTINUOUS
10
4.26939
20
-2.86364
11
4.27165
21
-2.86319
0
LINE
8
BLACK
6
CONTINUOUS
10
4.27165
20
-2.86319
11
4.33661
21
-2.86319
0
LINE
8
BLACK
6
CONTINUOUS
10
4.33661
20
-2.86319
11
4.33887
21
-2.86364
0
LINE
8
BLACK
6
CONTINUOUS
10
5.6997
20
-2.8595
11
5.70162
21
-2.86078
0
LINE
8
BLACK
6
CONTINUOUS
10
5.70162
20
-2.86078
11
5.7029
21
-2.8627
0
LINE
8
BLACK
6
CONTINUOUS
10
5.7029
20
-2.8627
11
5.70335
21
-2.86496
0
LINE
8
BLACK
6
CONTINUOUS
10
5.70335
20
-2.86496
11
5.70335
21
-2.87677
0
LINE
8
BLACK
6
CONTINUOUS
10
5.70335
20
-2.87677
11
5.7029
21
-2.87903
0
LINE
8
BLACK
6
CONTINUOUS
10
5.7029
20
-2.87903
11
5.70162
21
-2.88095
0
LINE
8
BLACK
6
CONTINUOUS
10
5.70162
20
-2.88095
11
5.6997
21
-2.88223
0
LINE
8
BLACK
6
CONTINUOUS
10
5.6997
20
-2.88223
11
5.69744
21
-2.88268
0
LINE
8
BLACK
6
CONTINUOUS
10
5.69744
20
-2.88268
11
5.63248
21
-2.88268
0
LINE
8
BLACK
6
CONTINUOUS
10
5.63248
20
-2.88268
11
5.63022
21
-2.88223
0
LINE
8
BLACK
6
CONTINUOUS
10
5.63022
20
-2.88223
11
5.6283
21
-2.88095
0
LINE
8
BLACK
6
CONTINUOUS
10
5.6283
20
-2.88095
11
5.62702
21
-2.87903
0
LINE
8
BLACK
6
CONTINUOUS
10
5.62702
20
-2.87903
11
5.62657
21
-2.87677
0
LINE
8
BLACK
6
CONTINUOUS
10
5.62657
20
-2.87677
11
5.62657
21
-2.86496
0
LINE
8
BLACK
6
CONTINUOUS
10
5.62657
20
-2.86496
11
5.62702
21
-2.8627
0
LINE
8
BLACK
6
CONTINUOUS
10
5.62702
20
-2.8627
11
5.6283
21
-2.86078
0
LINE
8
BLACK
6
CONTINUOUS
10
5.6283
20
-2.86078
11
5.63022
21
-2.8595
0
LINE
8
BLACK
6
CONTINUOUS
10
5.63022
20
-2.8595
11
5.63248
21
-2.85906
0
LINE
8
BLACK
6
CONTINUOUS
10
5.63248
20
-2.85906
11
5.69744
21
-2.85906
0
LINE
8
BLACK
6
CONTINUOUS
10
5.69744
20
-2.85906
11
5.6997
21
-2.8595
0
LINE
8
BLACK
6
CONTINUOUS
10
5.50482
20
-2.8595
11
5.50673
21
-2.86078
0
LINE
8
BLACK
6
CONTINUOUS
10
5.50673
20
-2.86078
11
5.50802
21
-2.8627
0
LINE
8
BLACK
6
CONTINUOUS
10
5.50802
20
-2.8627
11
5.50846
21
-2.86496
0
LINE
8
BLACK
6
CONTINUOUS
10
5.50846
20
-2.86496
11
5.50846
21
-2.87677
0
LINE
8
BLACK
6
CONTINUOUS
10
5.50846
20
-2.87677
11
5.50802
21
-2.87903
0
LINE
8
BLACK
6
CONTINUOUS
10
5.50802
20
-2.87903
11
5.50673
21
-2.88095
0
LINE
8
BLACK
6
CONTINUOUS
10
5.50673
20
-2.88095
11
5.50482
21
-2.88223
0
LINE
8
BLACK
6
CONTINUOUS
10
5.50482
20
-2.88223
11
5.50256
21
-2.88268
0
LINE
8
BLACK
6
CONTINUOUS
10
5.50256
20
-2.88268
11
5.4376
21
-2.88268
0
LINE
8
BLACK
6
CONTINUOUS
10
5.4376
20
-2.88268
11
5.43534
21
-2.88223
0
LINE
8
BLACK
6
CONTINUOUS
10
5.43534
20
-2.88223
11
5.43342
21
-2.88095
0
LINE
8
BLACK
6
CONTINUOUS
10
5.43342
20
-2.88095
11
5.43214
21
-2.87903
0
LINE
8
BLACK
6
CONTINUOUS
10
5.43214
20
-2.87903
11
5.43169
21
-2.87677
0
LINE
8
BLACK
6
CONTINUOUS
10
5.43169
20
-2.87677
11
5.43169
21
-2.86496
0
LINE
8
BLACK
6
CONTINUOUS
10
5.43169
20
-2.86496
11
5.43214
21
-2.8627
0
LINE
8
BLACK
6
CONTINUOUS
10
5.43214
20
-2.8627
11
5.43342
21
-2.86078
0
LINE
8
BLACK
6
CONTINUOUS
10
5.43342
20
-2.86078
11
5.43534
21
-2.8595
0
LINE
8
BLACK
6
CONTINUOUS
10
5.43534
20
-2.8595
11
5.4376
21
-2.85906
0
LINE
8
BLACK
6
CONTINUOUS
10
5.4376
20
-2.85906
11
5.50256
21
-2.85906
0
LINE
8
BLACK
6
CONTINUOUS
10
5.50256
20
-2.85906
11
5.50482
21
-2.8595
0
LINE
8
BLACK
6
CONTINUOUS
10
3.77701
20
-2.81071
11
3.77989
21
-2.81263
0
LINE
8
BLACK
6
CONTINUOUS
10
3.77989
20
-2.81263
11
3.78181
21
-2.81551
0
LINE
8
BLACK
6
CONTINUOUS
10
3.78181
20
-2.81551
11
3.78248
21
-2.8189
0
LINE
8
BLACK
6
CONTINUOUS
10
3.78248
20
-2.8189
11
3.78248
21
-2.83661
0
LINE
8
BLACK
6
CONTINUOUS
10
3.78248
20
-2.83661
11
3.78181
21
-2.84
0
LINE
8
BLACK
6
CONTINUOUS
10
3.78181
20
-2.84
11
3.77989
21
-2.84288
0
LINE
8
BLACK
6
CONTINUOUS
10
3.77989
20
-2.84288
11
3.77701
21
-2.8448
0
LINE
8
BLACK
6
CONTINUOUS
10
3.77701
20
-2.8448
11
3.77362
21
-2.84547
0
LINE
8
BLACK
6
CONTINUOUS
10
3.77362
20
-2.84547
11
3.75394
21
-2.84547
0
LINE
8
BLACK
6
CONTINUOUS
10
3.75394
20
-2.84547
11
3.75055
21
-2.8448
0
LINE
8
BLACK
6
CONTINUOUS
10
3.75055
20
-2.8448
11
3.74767
21
-2.84288
0
LINE
8
BLACK
6
CONTINUOUS
10
3.74767
20
-2.84288
11
3.74575
21
-2.84
0
LINE
8
BLACK
6
CONTINUOUS
10
3.74575
20
-2.84
11
3.74508
21
-2.83661
0
LINE
8
BLACK
6
CONTINUOUS
10
3.74508
20
-2.83661
11
3.74508
21
-2.8189
0
LINE
8
BLACK
6
CONTINUOUS
10
3.74508
20
-2.8189
11
3.74575
21
-2.81551
0
LINE
8
BLACK
6
CONTINUOUS
10
3.74575
20
-2.81551
11
3.74767
21
-2.81263
0
LINE
8
BLACK
6
CONTINUOUS
10
3.74767
20
-2.81263
11
3.75055
21
-2.81071
0
LINE
8
BLACK
6
CONTINUOUS
10
3.75055
20
-2.81071
11
3.75394
21
-2.81004
0
LINE
8
BLACK
6
CONTINUOUS
10
3.75394
20
-2.81004
11
3.77362
21
-2.81004
0
LINE
8
BLACK
6
CONTINUOUS
10
3.77362
20
-2.81004
11
3.77701
21
-2.81071
0
LINE
8
BLACK
6
CONTINUOUS
10
5.26673
20
-2.84154
11
5.1998
21
-2.84154
0
LINE
8
BLACK
6
CONTINUOUS
10
5.1998
20
-2.84154
11
5.1998
21
-2.77461
0
LINE
8
BLACK
6
CONTINUOUS
10
5.1998
20
-2.77461
11
5.26673
21
-2.77461
0
LINE
8
BLACK
6
CONTINUOUS
10
5.26673
20
-2.77461
11
5.26673
21
-2.84154
0
LINE
8
BLACK
6
CONTINUOUS
10
5.34361
20
-2.77624
11
5.35
21
-2.77909
0
LINE
8
BLACK
6
CONTINUOUS
10
5.35
20
-2.77909
11
5.35566
21
-2.7832
0
LINE
8
BLACK
6
CONTINUOUS
10
5.35566
20
-2.7832
11
5.36034
21
-2.7884
0
LINE
8
BLACK
6
CONTINUOUS
10
5.36034
20
-2.7884
11
5.36384
21
-2.79446
0
LINE
8
BLACK
6
CONTINUOUS
10
5.36384
20
-2.79446
11
5.366
21
-2.80111
0
LINE
8
BLACK
6
CONTINUOUS
10
5.366
20
-2.80111
11
5.36673
21
-2.80807
0
LINE
8
BLACK
6
CONTINUOUS
10
5.36673
20
-2.80807
11
5.366
21
-2.81503
0
LINE
8
BLACK
6
CONTINUOUS
10
5.366
20
-2.81503
11
5.36384
21
-2.82168
0
LINE
8
BLACK
6
CONTINUOUS
10
5.36384
20
-2.82168
11
5.36034
21
-2.82774
0
LINE
8
BLACK
6
CONTINUOUS
10
5.36034
20
-2.82774
11
5.35566
21
-2.83294
0
LINE
8
BLACK
6
CONTINUOUS
10
5.35566
20
-2.83294
11
5.35
21
-2.83705
0
LINE
8
BLACK
6
CONTINUOUS
10
5.35
20
-2.83705
11
5.34361
21
-2.8399
0
LINE
8
BLACK
6
CONTINUOUS
10
5.34361
20
-2.8399
11
5.33677
21
-2.84135
0
LINE
8
BLACK
6
CONTINUOUS
10
5.33677
20
-2.84135
11
5.32977
21
-2.84135
0
LINE
8
BLACK
6
CONTINUOUS
10
5.32977
20
-2.84135
11
5.32293
21
-2.8399
0
LINE
8
BLACK
6
CONTINUOUS
10
5.32293
20
-2.8399
11
5.31654
21
-2.83705
0
LINE
8
BLACK
6
CONTINUOUS
10
5.31654
20
-2.83705
11
5.31088
21
-2.83294
0
LINE
8
BLACK
6
CONTINUOUS
10
5.31088
20
-2.83294
11
5.30619
21
-2.82774
0
LINE
8
BLACK
6
CONTINUOUS
10
5.30619
20
-2.82774
11
5.3027
21
-2.82168
0
LINE
8
BLACK
6
CONTINUOUS
10
5.3027
20
-2.82168
11
5.30053
21
-2.81503
0
LINE
8
BLACK
6
CONTINUOUS
10
5.30053
20
-2.81503
11
5.2998
21
-2.80807
0
LINE
8
BLACK
6
CONTINUOUS
10
5.2998
20
-2.80807
11
5.30053
21
-2.80111
0
LINE
8
BLACK
6
CONTINUOUS
10
5.30053
20
-2.80111
11
5.3027
21
-2.79446
0
LINE
8
BLACK
6
CONTINUOUS
10
5.3027
20
-2.79446
11
5.30619
21
-2.7884
0
LINE
8
BLACK
6
CONTINUOUS
10
5.30619
20
-2.7884
11
5.31088
21
-2.7832
0
LINE
8
BLACK
6
CONTINUOUS
10
5.31088
20
-2.7832
11
5.31654
21
-2.77909
0
LINE
8
BLACK
6
CONTINUOUS
10
5.31654
20
-2.77909
11
5.32293
21
-2.77624
0
LINE
8
BLACK
6
CONTINUOUS
10
5.32293
20
-2.77624
11
5.32977
21
-2.77479
0
LINE
8
BLACK
6
CONTINUOUS
10
5.32977
20
-2.77479
11
5.33677
21
-2.77479
0
LINE
8
BLACK
6
CONTINUOUS
10
5.33677
20
-2.77479
11
5.34361
21
-2.77624
0
LINE
8
BLACK
6
CONTINUOUS
10
4.33887
20
-2.81364
11
4.34079
21
-2.81492
0
LINE
8
BLACK
6
CONTINUOUS
10
4.34079
20
-2.81492
11
4.34207
21
-2.81683
0
LINE
8
BLACK
6
CONTINUOUS
10
4.34207
20
-2.81683
11
4.34252
21
-2.81909
0
LINE
8
BLACK
6
CONTINUOUS
10
4.34252
20
-2.81909
11
4.34252
21
-2.83091
0
LINE
8
BLACK
6
CONTINUOUS
10
4.34252
20
-2.83091
11
4.34207
21
-2.83317
0
LINE
8
BLACK
6
CONTINUOUS
10
4.34207
20
-2.83317
11
4.34079
21
-2.83508
0
LINE
8
BLACK
6
CONTINUOUS
10
4.34079
20
-2.83508
11
4.33887
21
-2.83636
0
LINE
8
BLACK
6
CONTINUOUS
10
4.33887
20
-2.83636
11
4.33661
21
-2.83681
0
LINE
8
BLACK
6
CONTINUOUS
10
4.33661
20
-2.83681
11
4.27165
21
-2.83681
0
LINE
8
BLACK
6
CONTINUOUS
10
4.27165
20
-2.83681
11
4.26939
21
-2.83636
0
LINE
8
BLACK
6
CONTINUOUS
10
4.26939
20
-2.83636
11
4.26748
21
-2.83508
0
LINE
8
BLACK
6
CONTINUOUS
10
4.26748
20
-2.83508
11
4.2662
21
-2.83317
0
LINE
8
BLACK
6
CONTINUOUS
10
4.2662
20
-2.83317
11
4.26575
21
-2.83091
0
LINE
8
BLACK
6
CONTINUOUS
10
4.26575
20
-2.83091
11
4.26575
21
-2.81909
0
LINE
8
BLACK
6
CONTINUOUS
10
4.26575
20
-2.81909
11
4.2662
21
-2.81683
0
LINE
8
BLACK
6
CONTINUOUS
10
4.2662
20
-2.81683
11
4.26748
21
-2.81492
0
LINE
8
BLACK
6
CONTINUOUS
10
4.26748
20
-2.81492
11
4.26939
21
-2.81364
0
LINE
8
BLACK
6
CONTINUOUS
10
4.26939
20
-2.81364
11
4.27165
21
-2.81319
0
LINE
8
BLACK
6
CONTINUOUS
10
4.27165
20
-2.81319
11
4.33661
21
-2.81319
0
LINE
8
BLACK
6
CONTINUOUS
10
4.33661
20
-2.81319
11
4.33887
21
-2.81364
0
LINE
8
BLACK
6
CONTINUOUS
10
4.53376
20
-2.81364
11
4.53567
21
-2.81492
0
LINE
8
BLACK
6
CONTINUOUS
10
4.53567
20
-2.81492
11
4.53695
21
-2.81683
0
LINE
8
BLACK
6
CONTINUOUS
10
4.53695
20
-2.81683
11
4.5374
21
-2.81909
0
LINE
8
BLACK
6
CONTINUOUS
10
4.5374
20
-2.81909
11
4.5374
21
-2.83091
0
LINE
8
BLACK
6
CONTINUOUS
10
4.5374
20
-2.83091
11
4.53695
21
-2.83317
0
LINE
8
BLACK
6
CONTINUOUS
10
4.53695
20
-2.83317
11
4.53567
21
-2.83508
0
LINE
8
BLACK
6
CONTINUOUS
10
4.53567
20
-2.83508
11
4.53376
21
-2.83636
0
LINE
8
BLACK
6
CONTINUOUS
10
4.53376
20
-2.83636
11
4.5315
21
-2.83681
0
LINE
8
BLACK
6
CONTINUOUS
10
4.5315
20
-2.83681
11
4.46654
21
-2.83681
0
LINE
8
BLACK
6
CONTINUOUS
10
4.46654
20
-2.83681
11
4.46428
21
-2.83636
0
LINE
8
BLACK
6
CONTINUOUS
10
4.46428
20
-2.83636
11
4.46236
21
-2.83508
0
LINE
8
BLACK
6
CONTINUOUS
10
4.46236
20
-2.83508
11
4.46108
21
-2.83317
0
LINE
8
BLACK
6
CONTINUOUS
10
4.46108
20
-2.83317
11
4.46063
21
-2.83091
0
LINE
8
BLACK
6
CONTINUOUS
10
4.46063
20
-2.83091
11
4.46063
21
-2.81909
0
LINE
8
BLACK
6
CONTINUOUS
10
4.46063
20
-2.81909
11
4.46108
21
-2.81683
0
LINE
8
BLACK
6
CONTINUOUS
10
4.46108
20
-2.81683
11
4.46236
21
-2.81492
0
LINE
8
BLACK
6
CONTINUOUS
10
4.46236
20
-2.81492
11
4.46428
21
-2.81364
0
LINE
8
BLACK
6
CONTINUOUS
10
4.46428
20
-2.81364
11
4.46654
21
-2.81319
0
LINE
8
BLACK
6
CONTINUOUS
10
4.46654
20
-2.81319
11
4.5315
21
-2.81319
0
LINE
8
BLACK
6
CONTINUOUS
10
4.5315
20
-2.81319
11
4.53376
21
-2.81364
0
LINE
8
BLACK
6
CONTINUOUS
10
5.68707
20
-2.79292
11
5.68962
21
-2.79463
0
LINE
8
BLACK
6
CONTINUOUS
10
5.68962
20
-2.79463
11
5.69133
21
-2.79718
0
LINE
8
BLACK
6
CONTINUOUS
10
5.69133
20
-2.79718
11
5.69193
21
-2.8002
0
LINE
8
BLACK
6
CONTINUOUS
10
5.69193
20
-2.8002
11
5.69193
21
-2.81594
0
LINE
8
BLACK
6
CONTINUOUS
10
5.69193
20
-2.81594
11
5.69133
21
-2.81896
0
LINE
8
BLACK
6
CONTINUOUS
10
5.69133
20
-2.81896
11
5.68962
21
-2.82151
0
LINE
8
BLACK
6
CONTINUOUS
10
5.68962
20
-2.82151
11
5.68707
21
-2.82322
0
LINE
8
BLACK
6
CONTINUOUS
10
5.68707
20
-2.82322
11
5.68406
21
-2.82382
0
LINE
8
BLACK
6
CONTINUOUS
10
5.68406
20
-2.82382
11
5.6624
21
-2.82382
0
LINE
8
BLACK
6
CONTINUOUS
10
5.6624
20
-2.82382
11
5.65939
21
-2.82322
0
LINE
8
BLACK
6
CONTINUOUS
10
5.65939
20
-2.82322
11
5.65683
21
-2.82151
0
LINE
8
BLACK
6
CONTINUOUS
10
5.65683
20
-2.82151
11
5.65513
21
-2.81896
0
LINE
8
BLACK
6
CONTINUOUS
10
5.65513
20
-2.81896
11
5.65453
21
-2.81594
0
LINE
8
BLACK
6
CONTINUOUS
10
5.65453
20
-2.81594
11
5.65453
21
-2.8002
0
LINE
8
BLACK
6
CONTINUOUS
10
5.65453
20
-2.8002
11
5.65513
21
-2.79718
0
LINE
8
BLACK
6
CONTINUOUS
10
5.65513
20
-2.79718
11
5.65683
21
-2.79463
0
LINE
8
BLACK
6
CONTINUOUS
10
5.65683
20
-2.79463
11
5.65939
21
-2.79292
0
LINE
8
BLACK
6
CONTINUOUS
10
5.65939
20
-2.79292
11
5.6624
21
-2.79232
0
LINE
8
BLACK
6
CONTINUOUS
10
5.6624
20
-2.79232
11
5.68406
21
-2.79232
0
LINE
8
BLACK
6
CONTINUOUS
10
5.68406
20
-2.79232
11
5.68707
21
-2.79292
0
LINE
8
BLACK
6
CONTINUOUS
10
5.50203
20
-2.79292
11
5.50458
21
-2.79463
0
LINE
8
BLACK
6
CONTINUOUS
10
5.50458
20
-2.79463
11
5.50629
21
-2.79718
0
LINE
8
BLACK
6
CONTINUOUS
10
5.50629
20
-2.79718
11
5.50689
21
-2.8002
0
LINE
8
BLACK
6
CONTINUOUS
10
5.50689
20
-2.8002
11
5.50689
21
-2.81594
0
LINE
8
BLACK
6
CONTINUOUS
10
5.50689
20
-2.81594
11
5.50629
21
-2.81896
0
LINE
8
BLACK
6
CONTINUOUS
10
5.50629
20
-2.81896
11
5.50458
21
-2.82151
0
LINE
8
BLACK
6
CONTINUOUS
10
5.50458
20
-2.82151
11
5.50203
21
-2.82322
0
LINE
8
BLACK
6
CONTINUOUS
10
5.50203
20
-2.82322
11
5.49902
21
-2.82382
0
LINE
8
BLACK
6
CONTINUOUS
10
5.49902
20
-2.82382
11
5.47736
21
-2.82382
0
LINE
8
BLACK
6
CONTINUOUS
10
5.47736
20
-2.82382
11
5.47435
21
-2.82322
0
LINE
8
BLACK
6
CONTINUOUS
10
5.47435
20
-2.82322
11
5.47179
21
-2.82151
0
LINE
8
BLACK
6
CONTINUOUS
10
5.47179
20
-2.82151
11
5.47009
21
-2.81896
0
LINE
8
BLACK
6
CONTINUOUS
10
5.47009
20
-2.81896
11
5.46949
21
-2.81594
0
LINE
8
BLACK
6
CONTINUOUS
10
5.46949
20
-2.81594
11
5.46949
21
-2.8002
0
LINE
8
BLACK
6
CONTINUOUS
10
5.46949
20
-2.8002
11
5.47009
21
-2.79718
0
LINE
8
BLACK
6
CONTINUOUS
10
5.47009
20
-2.79718
11
5.47179
21
-2.79463
0
LINE
8
BLACK
6
CONTINUOUS
10
5.47179
20
-2.79463
11
5.47435
21
-2.79292
0
LINE
8
BLACK
6
CONTINUOUS
10
5.47435
20
-2.79292
11
5.47736
21
-2.79232
0
LINE
8
BLACK
6
CONTINUOUS
10
5.47736
20
-2.79232
11
5.49902
21
-2.79232
0
LINE
8
BLACK
6
CONTINUOUS
10
5.49902
20
-2.79232
11
5.50203
21
-2.79292
0
LINE
8
BLACK
6
CONTINUOUS
10
5.59652
20
-2.79292
11
5.59907
21
-2.79463
0
LINE
8
BLACK
6
CONTINUOUS
10
5.59907
20
-2.79463
11
5.60078
21
-2.79718
0
LINE
8
BLACK
6
CONTINUOUS
10
5.60078
20
-2.79718
11
5.60138
21
-2.8002
0
LINE
8
BLACK
6
CONTINUOUS
10
5.60138
20
-2.8002
11
5.60138
21
-2.81594
0
LINE
8
BLACK
6
CONTINUOUS
10
5.60138
20
-2.81594
11
5.60078
21
-2.81896
0
LINE
8
BLACK
6
CONTINUOUS
10
5.60078
20
-2.81896
11
5.59907
21
-2.82151
0
LINE
8
BLACK
6
CONTINUOUS
10
5.59907
20
-2.82151
11
5.59652
21
-2.82322
0
LINE
8
BLACK
6
CONTINUOUS
10
5.59652
20
-2.82322
11
5.5935
21
-2.82382
0
LINE
8
BLACK
6
CONTINUOUS
10
5.5935
20
-2.82382
11
5.57185
21
-2.82382
0
LINE
8
BLACK
6
CONTINUOUS
10
5.57185
20
-2.82382
11
5.56884
21
-2.82322
0
LINE
8
BLACK
6
CONTINUOUS
10
5.56884
20
-2.82322
11
5.56628
21
-2.82151
0
LINE
8
BLACK
6
CONTINUOUS
10
5.56628
20
-2.82151
11
5.56458
21
-2.81896
0
LINE
8
BLACK
6
CONTINUOUS
10
5.56458
20
-2.81896
11
5.56398
21
-2.81594
0
LINE
8
BLACK
6
CONTINUOUS
10
5.56398
20
-2.81594
11
5.56398
21
-2.8002
0
LINE
8
BLACK
6
CONTINUOUS
10
5.56398
20
-2.8002
11
5.56458
21
-2.79718
0
LINE
8
BLACK
6
CONTINUOUS
10
5.56458
20
-2.79718
11
5.56628
21
-2.79463
0
LINE
8
BLACK
6
CONTINUOUS
10
5.56628
20
-2.79463
11
5.56884
21
-2.79292
0
LINE
8
BLACK
6
CONTINUOUS
10
5.56884
20
-2.79292
11
5.57185
21
-2.79232
0
LINE
8
BLACK
6
CONTINUOUS
10
5.57185
20
-2.79232
11
5.5935
21
-2.79232
0
LINE
8
BLACK
6
CONTINUOUS
10
5.5935
20
-2.79232
11
5.59652
21
-2.79292
0
LINE
8
BLACK
6
CONTINUOUS
10
5.84449
20
-2.81102
11
5.77756
21
-2.81102
0
LINE
8
BLACK
6
CONTINUOUS
10
5.77756
20
-2.81102
11
5.77756
21
-2.74409
0
LINE
8
BLACK
6
CONTINUOUS
10
5.77756
20
-2.74409
11
5.84449
21
-2.74409
0
LINE
8
BLACK
6
CONTINUOUS
10
5.84449
20
-2.74409
11
5.84449
21
-2.81102
0
LINE
8
BLACK
6
CONTINUOUS
10
4.78731
20
-2.72861
11
4.7937
21
-2.73145
0
LINE
8
BLACK
6
CONTINUOUS
10
4.7937
20
-2.73145
11
4.79936
21
-2.73556
0
LINE
8
BLACK
6
CONTINUOUS
10
4.79936
20
-2.73556
11
4.80404
21
-2.74076
0
LINE
8
BLACK
6
CONTINUOUS
10
4.80404
20
-2.74076
11
4.80754
21
-2.74682
0
LINE
8
BLACK
6
CONTINUOUS
10
4.80754
20
-2.74682
11
4.8097
21
-2.75348
0
LINE
8
BLACK
6
CONTINUOUS
10
4.8097
20
-2.75348
11
4.81043
21
-2.76043
0
LINE
8
BLACK
6
CONTINUOUS
10
4.81043
20
-2.76043
11
4.8097
21
-2.76739
0
LINE
8
BLACK
6
CONTINUOUS
10
4.8097
20
-2.76739
11
4.80754
21
-2.77404
0
LINE
8
BLACK
6
CONTINUOUS
10
4.80754
20
-2.77404
11
4.80404
21
-2.7801
0
LINE
8
BLACK
6
CONTINUOUS
10
4.80404
20
-2.7801
11
4.79936
21
-2.7853
0
LINE
8
BLACK
6
CONTINUOUS
10
4.79936
20
-2.7853
11
4.7937
21
-2.78941
0
LINE
8
BLACK
6
CONTINUOUS
10
4.7937
20
-2.78941
11
4.78731
21
-2.79226
0
LINE
8
BLACK
6
CONTINUOUS
10
4.78731
20
-2.79226
11
4.78047
21
-2.79371
0
LINE
8
BLACK
6
CONTINUOUS
10
4.78047
20
-2.79371
11
4.77347
21
-2.79371
0
LINE
8
BLACK
6
CONTINUOUS
10
4.77347
20
-2.79371
11
4.76663
21
-2.79226
0
LINE
8
BLACK
6
CONTINUOUS
10
4.76663
20
-2.79226
11
4.76024
21
-2.78941
0
LINE
8
BLACK
6
CONTINUOUS
10
4.76024
20
-2.78941
11
4.75458
21
-2.7853
0
LINE
8
BLACK
6
CONTINUOUS
10
4.75458
20
-2.7853
11
4.7499
21
-2.7801
0
LINE
8
BLACK
6
CONTINUOUS
10
4.7499
20
-2.7801
11
4.7464
21
-2.77404
0
LINE
8
BLACK
6
CONTINUOUS
10
4.7464
20
-2.77404
11
4.74424
21
-2.76739
0
LINE
8
BLACK
6
CONTINUOUS
10
4.74424
20
-2.76739
11
4.7435
21
-2.76043
0
LINE
8
BLACK
6
CONTINUOUS
10
4.7435
20
-2.76043
11
4.74424
21
-2.75348
0
LINE
8
BLACK
6
CONTINUOUS
10
4.74424
20
-2.75348
11
4.7464
21
-2.74682
0
LINE
8
BLACK
6
CONTINUOUS
10
4.7464
20
-2.74682
11
4.7499
21
-2.74076
0
LINE
8
BLACK
6
CONTINUOUS
10
4.7499
20
-2.74076
11
4.75458
21
-2.73556
0
LINE
8
BLACK
6
CONTINUOUS
10
4.75458
20
-2.73556
11
4.76024
21
-2.73145
0
LINE
8
BLACK
6
CONTINUOUS
10
4.76024
20
-2.73145
11
4.76663
21
-2.72861
0
LINE
8
BLACK
6
CONTINUOUS
10
4.76663
20
-2.72861
11
4.77347
21
-2.72715
0
LINE
8
BLACK
6
CONTINUOUS
10
4.77347
20
-2.72715
11
4.78047
21
-2.72715
0
LINE
8
BLACK
6
CONTINUOUS
10
4.78047
20
-2.72715
11
4.78731
21
-2.72861
0
LINE
8
BLACK
6
CONTINUOUS
10
4.88731
20
-2.72861
11
4.8937
21
-2.73145
0
LINE
8
BLACK
6
CONTINUOUS
10
4.8937
20
-2.73145
11
4.89936
21
-2.73556
0
LINE
8
BLACK
6
CONTINUOUS
10
4.89936
20
-2.73556
11
4.90404
21
-2.74076
0
LINE
8
BLACK
6
CONTINUOUS
10
4.90404
20
-2.74076
11
4.90754
21
-2.74682
0
LINE
8
BLACK
6
CONTINUOUS
10
4.90754
20
-2.74682
11
4.9097
21
-2.75348
0
LINE
8
BLACK
6
CONTINUOUS
10
4.9097
20
-2.75348
11
4.91043
21
-2.76043
0
LINE
8
BLACK
6
CONTINUOUS
10
4.91043
20
-2.76043
11
4.9097
21
-2.76739
0
LINE
8
BLACK
6
CONTINUOUS
10
4.9097
20
-2.76739
11
4.90754
21
-2.77404
0
LINE
8
BLACK
6
CONTINUOUS
10
4.90754
20
-2.77404
11
4.90404
21
-2.7801
0
LINE
8
BLACK
6
CONTINUOUS
10
4.90404
20
-2.7801
11
4.89936
21
-2.7853
0
LINE
8
BLACK
6
CONTINUOUS
10
4.89936
20
-2.7853
11
4.8937
21
-2.78941
0
LINE
8
BLACK
6
CONTINUOUS
10
4.8937
20
-2.78941
11
4.88731
21
-2.79226
0
LINE
8
BLACK
6
CONTINUOUS
10
4.88731
20
-2.79226
11
4.88047
21
-2.79371
0
LINE
8
BLACK
6
CONTINUOUS
10
4.88047
20
-2.79371
11
4.87347
21
-2.79371
0
LINE
8
BLACK
6
CONTINUOUS
10
4.87347
20
-2.79371
11
4.86663
21
-2.79226
0
LINE
8
BLACK
6
CONTINUOUS
10
4.86663
20
-2.79226
11
4.86024
21
-2.78941
0
LINE
8
BLACK
6
CONTINUOUS
10
4.86024
20
-2.78941
11
4.85458
21
-2.7853
0
LINE
8
BLACK
6
CONTINUOUS
10
4.85458
20
-2.7853
11
4.8499
21
-2.7801
0
LINE
8
BLACK
6
CONTINUOUS
10
4.8499
20
-2.7801
11
4.8464
21
-2.77404
0
LINE
8
BLACK
6
CONTINUOUS
10
4.8464
20
-2.77404
11
4.84424
21
-2.76739
0
LINE
8
BLACK
6
CONTINUOUS
10
4.84424
20
-2.76739
11
4.8435
21
-2.76043
0
LINE
8
BLACK
6
CONTINUOUS
10
4.8435
20
-2.76043
11
4.84424
21
-2.75348
0
LINE
8
BLACK
6
CONTINUOUS
10
4.84424
20
-2.75348
11
4.8464
21
-2.74682
0
LINE
8
BLACK
6
CONTINUOUS
10
4.8464
20
-2.74682
11
4.8499
21
-2.74076
0
LINE
8
BLACK
6
CONTINUOUS
10
4.8499
20
-2.74076
11
4.85458
21
-2.73556
0
LINE
8
BLACK
6
CONTINUOUS
10
4.85458
20
-2.73556
11
4.86024
21
-2.73145
0
LINE
8
BLACK
6
CONTINUOUS
10
4.86024
20
-2.73145
11
4.86663
21
-2.72861
0
LINE
8
BLACK
6
CONTINUOUS
10
4.86663
20
-2.72861
11
4.87347
21
-2.72715
0
LINE
8
BLACK
6
CONTINUOUS
10
4.87347
20
-2.72715
11
4.88047
21
-2.72715
0
LINE
8
BLACK
6
CONTINUOUS
10
4.88047
20
-2.72715
11
4.88731
21
-2.72861
0
LINE
8
BLACK
6
CONTINUOUS
10
5.68707
20
-2.72796
11
5.68962
21
-2.72967
0
LINE
8
BLACK
6
CONTINUOUS
10
5.68962
20
-2.72967
11
5.69133
21
-2.73222
0
LINE
8
BLACK
6
CONTINUOUS
10
5.69133
20
-2.73222
11
5.69193
21
-2.73524
0
LINE
8
BLACK
6
CONTINUOUS
10
5.69193
20
-2.73524
11
5.69193
21
-2.75098
0
LINE
8
BLACK
6
CONTINUOUS
10
5.69193
20
-2.75098
11
5.69133
21
-2.754
0
LINE
8
BLACK
6
CONTINUOUS
10
5.69133
20
-2.754
11
5.68962
21
-2.75655
0
LINE
8
BLACK
6
CONTINUOUS
10
5.68962
20
-2.75655
11
5.68707
21
-2.75826
0
LINE
8
BLACK
6
CONTINUOUS
10
5.68707
20
-2.75826
11
5.68406
21
-2.75886
0
LINE
8
BLACK
6
CONTINUOUS
10
5.68406
20
-2.75886
11
5.6624
21
-2.75886
0
LINE
8
BLACK
6
CONTINUOUS
10
5.6624
20
-2.75886
11
5.65939
21
-2.75826
0
LINE
8
BLACK
6
CONTINUOUS
10
5.65939
20
-2.75826
11
5.65683
21
-2.75655
0
LINE
8
BLACK
6
CONTINUOUS
10
5.65683
20
-2.75655
11
5.65513
21
-2.754
0
LINE
8
BLACK
6
CONTINUOUS
10
5.65513
20
-2.754
11
5.65453
21
-2.75098
0
LINE
8
BLACK
6
CONTINUOUS
10
5.65453
20
-2.75098
11
5.65453
21
-2.73524
0
LINE
8
BLACK
6
CONTINUOUS
10
5.65453
20
-2.73524
11
5.65513
21
-2.73222
0
LINE
8
BLACK
6
CONTINUOUS
10
5.65513
20
-2.73222
11
5.65683
21
-2.72967
0
LINE
8
BLACK
6
CONTINUOUS
10
5.65683
20
-2.72967
11
5.65939
21
-2.72796
0
LINE
8
BLACK
6
CONTINUOUS
10
5.65939
20
-2.72796
11
5.6624
21
-2.72736
0
LINE
8
BLACK
6
CONTINUOUS
10
5.6624
20
-2.72736
11
5.68406
21
-2.72736
0
LINE
8
BLACK
6
CONTINUOUS
10
5.68406
20
-2.72736
11
5.68707
21
-2.72796
0
LINE
8
BLACK
6
CONTINUOUS
10
5.50203
20
-2.72796
11
5.50458
21
-2.72967
0
LINE
8
BLACK
6
CONTINUOUS
10
5.50458
20
-2.72967
11
5.50629
21
-2.73222
0
LINE
8
BLACK
6
CONTINUOUS
10
5.50629
20
-2.73222
11
5.50689
21
-2.73524
0
LINE
8
BLACK
6
CONTINUOUS
10
5.50689
20
-2.73524
11
5.50689
21
-2.75098
0
LINE
8
BLACK
6
CONTINUOUS
10
5.50689
20
-2.75098
11
5.50629
21
-2.754
0
LINE
8
BLACK
6
CONTINUOUS
10
5.50629
20
-2.754
11
5.50458
21
-2.75655
0
LINE
8
BLACK
6
CONTINUOUS
10
5.50458
20
-2.75655
11
5.50203
21
-2.75826
0
LINE
8
BLACK
6
CONTINUOUS
10
5.50203
20
-2.75826
11
5.49902
21
-2.75886
0
LINE
8
BLACK
6
CONTINUOUS
10
5.49902
20
-2.75886
11
5.47736
21
-2.75886
0
LINE
8
BLACK
6
CONTINUOUS
10
5.47736
20
-2.75886
11
5.47435
21
-2.75826
0
LINE
8
BLACK
6
CONTINUOUS
10
5.47435
20
-2.75826
11
5.47179
21
-2.75655
0
LINE
8
BLACK
6
CONTINUOUS
10
5.47179
20
-2.75655
11
5.47009
21
-2.754
0
LINE
8
BLACK
6
CONTINUOUS
10
5.47009
20
-2.754
11
5.46949
21
-2.75098
0
LINE
8
BLACK
6
CONTINUOUS
10
5.46949
20
-2.75098
11
5.46949
21
-2.73524
0
LINE
8
BLACK
6
CONTINUOUS
10
5.46949
20
-2.73524
11
5.47009
21
-2.73222
0
LINE
8
BLACK
6
CONTINUOUS
10
5.47009
20
-2.73222
11
5.47179
21
-2.72967
0
LINE
8
BLACK
6
CONTINUOUS
10
5.47179
20
-2.72967
11
5.47435
21
-2.72796
0
LINE
8
BLACK
6
CONTINUOUS
10
5.47435
20
-2.72796
11
5.47736
21
-2.72736
0
LINE
8
BLACK
6
CONTINUOUS
10
5.47736
20
-2.72736
11
5.49902
21
-2.72736
0
LINE
8
BLACK
6
CONTINUOUS
10
5.49902
20
-2.72736
11
5.50203
21
-2.72796
0
LINE
8
BLACK
6
CONTINUOUS
10
5.59652
20
-2.72796
11
5.59907
21
-2.72967
0
LINE
8
BLACK
6
CONTINUOUS
10
5.59907
20
-2.72967
11
5.60078
21
-2.73222
0
LINE
8
BLACK
6
CONTINUOUS
10
5.60078
20
-2.73222
11
5.60138
21
-2.73524
0
LINE
8
BLACK
6
CONTINUOUS
10
5.60138
20
-2.73524
11
5.60138
21
-2.75098
0
LINE
8
BLACK
6
CONTINUOUS
10
5.60138
20
-2.75098
11
5.60078
21
-2.754
0
LINE
8
BLACK
6
CONTINUOUS
10
5.60078
20
-2.754
11
5.59907
21
-2.75655
0
LINE
8
BLACK
6
CONTINUOUS
10
5.59907
20
-2.75655
11
5.59652
21
-2.75826
0
LINE
8
BLACK
6
CONTINUOUS
10
5.59652
20
-2.75826
11
5.5935
21
-2.75886
0
LINE
8
BLACK
6
CONTINUOUS
10
5.5935
20
-2.75886
11
5.57185
21
-2.75886
0
LINE
8
BLACK
6
CONTINUOUS
10
5.57185
20
-2.75886
11
5.56884
21
-2.75826
0
LINE
8
BLACK
6
CONTINUOUS
10
5.56884
20
-2.75826
11
5.56628
21
-2.75655
0
LINE
8
BLACK
6
CONTINUOUS
10
5.56628
20
-2.75655
11
5.56458
21
-2.754
0
LINE
8
BLACK
6
CONTINUOUS
10
5.56458
20
-2.754
11
5.56398
21
-2.75098
0
LINE
8
BLACK
6
CONTINUOUS
10
5.56398
20
-2.75098
11
5.56398
21
-2.73524
0
LINE
8
BLACK
6
CONTINUOUS
10
5.56398
20
-2.73524
11
5.56458
21
-2.73222
0
LINE
8
BLACK
6
CONTINUOUS
10
5.56458
20
-2.73222
11
5.56628
21
-2.72967
0
LINE
8
BLACK
6
CONTINUOUS
10
5.56628
20
-2.72967
11
5.56884
21
-2.72796
0
LINE
8
BLACK
6
CONTINUOUS
10
5.56884
20
-2.72796
11
5.57185
21
-2.72736
0
LINE
8
BLACK
6
CONTINUOUS
10
5.57185
20
-2.72736
11
5.5935
21
-2.72736
0
LINE
8
BLACK
6
CONTINUOUS
10
5.5935
20
-2.72736
11
5.59652
21
-2.72796
0
LINE
8
BLACK
6
CONTINUOUS
10
4.22441
20
-2.66929
11
4.15748
21
-2.66929
0
LINE
8
BLACK
6
CONTINUOUS
10
4.15748
20
-2.66929
11
4.15748
21
-2.61811
0
LINE
8
BLACK
6
CONTINUOUS
10
4.15748
20
-2.61811
11
4.22441
21
-2.61811
0
LINE
8
BLACK
6
CONTINUOUS
10
4.22441
20
-2.61811
11
4.22441
21
-2.66929
0
LINE
8
BLACK
6
CONTINUOUS
10
4.32903
20
-2.60084
11
4.33095
21
-2.60212
0
LINE
8
BLACK
6
CONTINUOUS
10
4.33095
20
-2.60212
11
4.33223
21
-2.60404
0
LINE
8
BLACK
6
CONTINUOUS
10
4.33223
20
-2.60404
11
4.33268
21
-2.6063
0
LINE
8
BLACK
6
CONTINUOUS
10
4.33268
20
-2.6063
11
4.33268
21
-2.61811
0
LINE
8
BLACK
6
CONTINUOUS
10
4.33268
20
-2.61811
11
4.33223
21
-2.62037
0
LINE
8
BLACK
6
CONTINUOUS
10
4.33223
20
-2.62037
11
4.33095
21
-2.62229
0
LINE
8
BLACK
6
CONTINUOUS
10
4.33095
20
-2.62229
11
4.32903
21
-2.62357
0
LINE
8
BLACK
6
CONTINUOUS
10
4.32903
20
-2.62357
11
4.32677
21
-2.62402
0
LINE
8
BLACK
6
CONTINUOUS
10
4.32677
20
-2.62402
11
4.28051
21
-2.62402
0
LINE
8
BLACK
6
CONTINUOUS
10
4.28051
20
-2.62402
11
4.27825
21
-2.62357
0
LINE
8
BLACK
6
CONTINUOUS
10
4.27825
20
-2.62357
11
4.27634
21
-2.62229
0
LINE
8
BLACK
6
CONTINUOUS
10
4.27634
20
-2.62229
11
4.27506
21
-2.62037
0
LINE
8
BLACK
6
CONTINUOUS
10
4.27506
20
-2.62037
11
4.27461
21
-2.61811
0
LINE
8
BLACK
6
CONTINUOUS
10
4.27461
20
-2.61811
11
4.27461
21
-2.6063
0
LINE
8
BLACK
6
CONTINUOUS
10
4.27461
20
-2.6063
11
4.27506
21
-2.60404
0
LINE
8
BLACK
6
CONTINUOUS
10
4.27506
20
-2.60404
11
4.27634
21
-2.60212
0
LINE
8
BLACK
6
CONTINUOUS
10
4.27634
20
-2.60212
11
4.27825
21
-2.60084
0
LINE
8
BLACK
6
CONTINUOUS
10
4.27825
20
-2.60084
11
4.28051
21
-2.60039
0
LINE
8
BLACK
6
CONTINUOUS
10
4.28051
20
-2.60039
11
4.32677
21
-2.60039
0
LINE
8
BLACK
6
CONTINUOUS
10
4.32677
20
-2.60039
11
4.32903
21
-2.60084
0
LINE
8
BLACK
6
CONTINUOUS
10
4.48999
20
-2.54898
11
4.49318
21
-2.55111
0
LINE
8
BLACK
6
CONTINUOUS
10
4.49318
20
-2.55111
11
4.49531
21
-2.5543
0
LINE
8
BLACK
6
CONTINUOUS
10
4.49531
20
-2.5543
11
4.49606
21
-2.55807
0
LINE
8
BLACK
6
CONTINUOUS
10
4.49606
20
-2.55807
11
4.49606
21
-2.59154
0
LINE
8
BLACK
6
CONTINUOUS
10
4.49606
20
-2.59154
11
4.49531
21
-2.5953
0
LINE
8
BLACK
6
CONTINUOUS
10
4.49531
20
-2.5953
11
4.49318
21
-2.5985
0
LINE
8
BLACK
6
CONTINUOUS
10
4.49318
20
-2.5985
11
4.48999
21
-2.60063
0
LINE
8
BLACK
6
CONTINUOUS
10
4.48999
20
-2.60063
11
4.48622
21
-2.60138
0
LINE
8
BLACK
6
CONTINUOUS
10
4.48622
20
-2.60138
11
4.45079
21
-2.60138
0
LINE
8
BLACK
6
CONTINUOUS
10
4.45079
20
-2.60138
11
4.44702
21
-2.60063
0
LINE
8
BLACK
6
CONTINUOUS
10
4.44702
20
-2.60063
11
4.44383
21
-2.5985
0
LINE
8
BLACK
6
CONTINUOUS
10
4.44383
20
-2.5985
11
4.44169
21
-2.5953
0
LINE
8
BLACK
6
CONTINUOUS
10
4.44169
20
-2.5953
11
4.44094
21
-2.59154
0
LINE
8
BLACK
6
CONTINUOUS
10
4.44094
20
-2.59154
11
4.44094
21
-2.55807
0
LINE
8
BLACK
6
CONTINUOUS
10
4.44094
20
-2.55807
11
4.44169
21
-2.5543
0
LINE
8
BLACK
6
CONTINUOUS
10
4.44169
20
-2.5543
11
4.44383
21
-2.55111
0
LINE
8
BLACK
6
CONTINUOUS
10
4.44383
20
-2.55111
11
4.44702
21
-2.54898
0
LINE
8
BLACK
6
CONTINUOUS
10
4.44702
20
-2.54898
11
4.45079
21
-2.54823
0
LINE
8
BLACK
6
CONTINUOUS
10
4.45079
20
-2.54823
11
4.48622
21
-2.54823
0
LINE
8
BLACK
6
CONTINUOUS
10
4.48622
20
-2.54823
11
4.48999
21
-2.54898
0
LINE
8
BLACK
6
CONTINUOUS
10
4.59629
20
-2.54898
11
4.59948
21
-2.55111
0
LINE
8
BLACK
6
CONTINUOUS
10
4.59948
20
-2.55111
11
4.60161
21
-2.5543
0
LINE
8
BLACK
6
CONTINUOUS
10
4.60161
20
-2.5543
11
4.60236
21
-2.55807
0
LINE
8
BLACK
6
CONTINUOUS
10
4.60236
20
-2.55807
11
4.60236
21
-2.59154
0
LINE
8
BLACK
6
CONTINUOUS
10
4.60236
20
-2.59154
11
4.60161
21
-2.5953
0
LINE
8
BLACK
6
CONTINUOUS
10
4.60161
20
-2.5953
11
4.59948
21
-2.5985
0
LINE
8
BLACK
6
CONTINUOUS
10
4.59948
20
-2.5985
11
4.59629
21
-2.60063
0
LINE
8
BLACK
6
CONTINUOUS
10
4.59629
20
-2.60063
11
4.59252
21
-2.60138
0
LINE
8
BLACK
6
CONTINUOUS
10
4.59252
20
-2.60138
11
4.55709
21
-2.60138
0
LINE
8
BLACK
6
CONTINUOUS
10
4.55709
20
-2.60138
11
4.55332
21
-2.60063
0
LINE
8
BLACK
6
CONTINUOUS
10
4.55332
20
-2.60063
11
4.55013
21
-2.5985
0
LINE
8
BLACK
6
CONTINUOUS
10
4.55013
20
-2.5985
11
4.54799
21
-2.5953
0
LINE
8
BLACK
6
CONTINUOUS
10
4.54799
20
-2.5953
11
4.54724
21
-2.59154
0
LINE
8
BLACK
6
CONTINUOUS
10
4.54724
20
-2.59154
11
4.54724
21
-2.55807
0
LINE
8
BLACK
6
CONTINUOUS
10
4.54724
20
-2.55807
11
4.54799
21
-2.5543
0
LINE
8
BLACK
6
CONTINUOUS
10
4.54799
20
-2.5543
11
4.55013
21
-2.55111
0
LINE
8
BLACK
6
CONTINUOUS
10
4.55013
20
-2.55111
11
4.55332
21
-2.54898
0
LINE
8
BLACK
6
CONTINUOUS
10
4.55332
20
-2.54898
11
4.55709
21
-2.54823
0
LINE
8
BLACK
6
CONTINUOUS
10
4.55709
20
-2.54823
11
4.59252
21
-2.54823
0
LINE
8
BLACK
6
CONTINUOUS
10
4.59252
20
-2.54823
11
4.59629
21
-2.54898
0
LINE
8
BLACK
6
CONTINUOUS
10
4.40285
20
-2.56344
11
4.40477
21
-2.56472
0
LINE
8
BLACK
6
CONTINUOUS
10
4.40477
20
-2.56472
11
4.40605
21
-2.56664
0
LINE
8
BLACK
6
CONTINUOUS
10
4.40605
20
-2.56664
11
4.4065
21
-2.5689
0
LINE
8
BLACK
6
CONTINUOUS
10
4.4065
20
-2.5689
11
4.4065
21
-2.58071
0
LINE
8
BLACK
6
CONTINUOUS
10
4.4065
20
-2.58071
11
4.40605
21
-2.58297
0
LINE
8
BLACK
6
CONTINUOUS
10
4.40605
20
-2.58297
11
4.40477
21
-2.58488
0
LINE
8
BLACK
6
CONTINUOUS
10
4.40477
20
-2.58488
11
4.40285
21
-2.58616
0
LINE
8
BLACK
6
CONTINUOUS
10
4.40285
20
-2.58616
11
4.40059
21
-2.58661
0
LINE
8
BLACK
6
CONTINUOUS
10
4.40059
20
-2.58661
11
4.35433
21
-2.58661
0
LINE
8
BLACK
6
CONTINUOUS
10
4.35433
20
-2.58661
11
4.35207
21
-2.58616
0
LINE
8
BLACK
6
CONTINUOUS
10
4.35207
20
-2.58616
11
4.35015
21
-2.58488
0
LINE
8
BLACK
6
CONTINUOUS
10
4.35015
20
-2.58488
11
4.34887
21
-2.58297
0
LINE
8
BLACK
6
CONTINUOUS
10
4.34887
20
-2.58297
11
4.34843
21
-2.58071
0
LINE
8
BLACK
6
CONTINUOUS
10
4.34843
20
-2.58071
11
4.34843
21
-2.5689
0
LINE
8
BLACK
6
CONTINUOUS
10
4.34843
20
-2.5689
11
4.34887
21
-2.56664
0
LINE
8
BLACK
6
CONTINUOUS
10
4.34887
20
-2.56664
11
4.35015
21
-2.56472
0
LINE
8
BLACK
6
CONTINUOUS
10
4.35015
20
-2.56472
11
4.35207
21
-2.56344
0
LINE
8
BLACK
6
CONTINUOUS
10
4.35207
20
-2.56344
11
4.35433
21
-2.56299
0
LINE
8
BLACK
6
CONTINUOUS
10
4.35433
20
-2.56299
11
4.40059
21
-2.56299
0
LINE
8
BLACK
6
CONTINUOUS
10
4.40059
20
-2.56299
11
4.40285
21
-2.56344
0
LINE
8
BLACK
6
CONTINUOUS
10
4.32903
20
-2.52604
11
4.33095
21
-2.52732
0
LINE
8
BLACK
6
CONTINUOUS
10
4.33095
20
-2.52732
11
4.33223
21
-2.52924
0
LINE
8
BLACK
6
CONTINUOUS
10
4.33223
20
-2.52924
11
4.33268
21
-2.5315
0
LINE
8
BLACK
6
CONTINUOUS
10
4.33268
20
-2.5315
11
4.33268
21
-2.54331
0
LINE
8
BLACK
6
CONTINUOUS
10
4.33268
20
-2.54331
11
4.33223
21
-2.54557
0
LINE
8
BLACK
6
CONTINUOUS
10
4.33223
20
-2.54557
11
4.33095
21
-2.54748
0
LINE
8
BLACK
6
CONTINUOUS
10
4.33095
20
-2.54748
11
4.32903
21
-2.54876
0
LINE
8
BLACK
6
CONTINUOUS
10
4.32903
20
-2.54876
11
4.32677
21
-2.54921
0
LINE
8
BLACK
6
CONTINUOUS
10
4.32677
20
-2.54921
11
4.28051
21
-2.54921
0
LINE
8
BLACK
6
CONTINUOUS
10
4.28051
20
-2.54921
11
4.27825
21
-2.54876
0
LINE
8
BLACK
6
CONTINUOUS
10
4.27825
20
-2.54876
11
4.27634
21
-2.54748
0
LINE
8
BLACK
6
CONTINUOUS
10
4.27634
20
-2.54748
11
4.27506
21
-2.54557
0
LINE
8
BLACK
6
CONTINUOUS
10
4.27506
20
-2.54557
11
4.27461
21
-2.54331
0
LINE
8
BLACK
6
CONTINUOUS
10
4.27461
20
-2.54331
11
4.27461
21
-2.5315
0
LINE
8
BLACK
6
CONTINUOUS
10
4.27461
20
-2.5315
11
4.27506
21
-2.52924
0
LINE
8
BLACK
6
CONTINUOUS
10
4.27506
20
-2.52924
11
4.27634
21
-2.52732
0
LINE
8
BLACK
6
CONTINUOUS
10
4.27634
20
-2.52732
11
4.27825
21
-2.52604
0
LINE
8
BLACK
6
CONTINUOUS
10
4.27825
20
-2.52604
11
4.28051
21
-2.52559
0
LINE
8
BLACK
6
CONTINUOUS
10
4.28051
20
-2.52559
11
4.32677
21
-2.52559
0
LINE
8
BLACK
6
CONTINUOUS
10
4.32677
20
-2.52559
11
4.32903
21
-2.52604
0
LINE
8
BLACK
6
CONTINUOUS
10
4.22441
20
-2.5315
11
4.15748
21
-2.5315
0
LINE
8
BLACK
6
CONTINUOUS
10
4.15748
20
-2.5315
11
4.15748
21
-2.48031
0
LINE
8
BLACK
6
CONTINUOUS
10
4.15748
20
-2.48031
11
4.22441
21
-2.48031
0
LINE
8
BLACK
6
CONTINUOUS
10
4.22441
20
-2.48031
11
4.22441
21
-2.5315
0
LINE
8
BLACK
6
CONTINUOUS
10
4.10242
20
-2.48977
11
4.10498
21
-2.49148
0
LINE
8
BLACK
6
CONTINUOUS
10
4.10498
20
-2.49148
11
4.10668
21
-2.49403
0
LINE
8
BLACK
6
CONTINUOUS
10
4.10668
20
-2.49403
11
4.10728
21
-2.49705
0
LINE
8
BLACK
6
CONTINUOUS
10
4.10728
20
-2.49705
11
4.10728
21
-2.5128
0
LINE
8
BLACK
6
CONTINUOUS
10
4.10728
20
-2.5128
11
4.10668
21
-2.51581
0
LINE
8
BLACK
6
CONTINUOUS
10
4.10668
20
-2.51581
11
4.10498
21
-2.51836
0
LINE
8
BLACK
6
CONTINUOUS
10
4.10498
20
-2.51836
11
4.10242
21
-2.52007
0
LINE
8
BLACK
6
CONTINUOUS
10
4.10242
20
-2.52007
11
4.09941
21
-2.52067
0
LINE
8
BLACK
6
CONTINUOUS
10
4.09941
20
-2.52067
11
4.07776
21
-2.52067
0
LINE
8
BLACK
6
CONTINUOUS
10
4.07776
20
-2.52067
11
4.07474
21
-2.52007
0
LINE
8
BLACK
6
CONTINUOUS
10
4.07474
20
-2.52007
11
4.07219
21
-2.51836
0
LINE
8
BLACK
6
CONTINUOUS
10
4.07219
20
-2.51836
11
4.07048
21
-2.51581
0
LINE
8
BLACK
6
CONTINUOUS
10
4.07048
20
-2.51581
11
4.06988
21
-2.5128
0
LINE
8
BLACK
6
CONTINUOUS
10
4.06988
20
-2.5128
11
4.06988
21
-2.49705
0
LINE
8
BLACK
6
CONTINUOUS
10
4.06988
20
-2.49705
11
4.07048
21
-2.49403
0
LINE
8
BLACK
6
CONTINUOUS
10
4.07048
20
-2.49403
11
4.07219
21
-2.49148
0
LINE
8
BLACK
6
CONTINUOUS
10
4.07219
20
-2.49148
11
4.07474
21
-2.48977
0
LINE
8
BLACK
6
CONTINUOUS
10
4.07474
20
-2.48977
11
4.07776
21
-2.48917
0
LINE
8
BLACK
6
CONTINUOUS
10
4.07776
20
-2.48917
11
4.09941
21
-2.48917
0
LINE
8
BLACK
6
CONTINUOUS
10
4.09941
20
-2.48917
11
4.10242
21
-2.48977
0
LINE
8
BLACK
6
CONTINUOUS
10
4.47977
20
-2.47902
11
4.48264
21
-2.48094
0
LINE
8
BLACK
6
CONTINUOUS
10
4.48264
20
-2.48094
11
4.48456
21
-2.48381
0
LINE
8
BLACK
6
CONTINUOUS
10
4.48456
20
-2.48381
11
4.48524
21
-2.4872
0
LINE
8
BLACK
6
CONTINUOUS
10
4.48524
20
-2.4872
11
4.48524
21
-2.50492
0
LINE
8
BLACK
6
CONTINUOUS
10
4.48524
20
-2.50492
11
4.48456
21
-2.50831
0
LINE
8
BLACK
6
CONTINUOUS
10
4.48456
20
-2.50831
11
4.48264
21
-2.51118
0
LINE
8
BLACK
6
CONTINUOUS
10
4.48264
20
-2.51118
11
4.47977
21
-2.51311
0
LINE
8
BLACK
6
CONTINUOUS
10
4.47977
20
-2.51311
11
4.47638
21
-2.51378
0
LINE
8
BLACK
6
CONTINUOUS
10
4.47638
20
-2.51378
11
4.45669
21
-2.51378
0
LINE
8
BLACK
6
CONTINUOUS
10
4.45669
20
-2.51378
11
4.4533
21
-2.51311
0
LINE
8
BLACK
6
CONTINUOUS
10
4.4533
20
-2.51311
11
4.45043
21
-2.51118
0
LINE
8
BLACK
6
CONTINUOUS
10
4.45043
20
-2.51118
11
4.44851
21
-2.50831
0
LINE
8
BLACK
6
CONTINUOUS
10
4.44851
20
-2.50831
11
4.44783
21
-2.50492
0
LINE
8
BLACK
6
CONTINUOUS
10
4.44783
20
-2.50492
11
4.44783
21
-2.4872
0
LINE
8
BLACK
6
CONTINUOUS
10
4.44783
20
-2.4872
11
4.44851
21
-2.48381
0
LINE
8
BLACK
6
CONTINUOUS
10
4.44851
20
-2.48381
11
4.45043
21
-2.48094
0
LINE
8
BLACK
6
CONTINUOUS
10
4.45043
20
-2.48094
11
4.4533
21
-2.47902
0
LINE
8
BLACK
6
CONTINUOUS
10
4.4533
20
-2.47902
11
4.45669
21
-2.47835
0
LINE
8
BLACK
6
CONTINUOUS
10
4.45669
20
-2.47835
11
4.47638
21
-2.47835
0
LINE
8
BLACK
6
CONTINUOUS
10
4.47638
20
-2.47835
11
4.47977
21
-2.47902
0
LINE
8
BLACK
6
CONTINUOUS
10
4.10242
20
-2.42481
11
4.10498
21
-2.42652
0
LINE
8
BLACK
6
CONTINUOUS
10
4.10498
20
-2.42652
11
4.10668
21
-2.42907
0
LINE
8
BLACK
6
CONTINUOUS
10
4.10668
20
-2.42907
11
4.10728
21
-2.43209
0
LINE
8
BLACK
6
CONTINUOUS
10
4.10728
20
-2.43209
11
4.10728
21
-2.44783
0
LINE
8
BLACK
6
CONTINUOUS
10
4.10728
20
-2.44783
11
4.10668
21
-2.45085
0
LINE
8
BLACK
6
CONTINUOUS
10
4.10668
20
-2.45085
11
4.10498
21
-2.4534
0
LINE
8
BLACK
6
CONTINUOUS
10
4.10498
20
-2.4534
11
4.10242
21
-2.45511
0
LINE
8
BLACK
6
CONTINUOUS
10
4.10242
20
-2.45511
11
4.09941
21
-2.45571
0
LINE
8
BLACK
6
CONTINUOUS
10
4.09941
20
-2.45571
11
4.07776
21
-2.45571
0
LINE
8
BLACK
6
CONTINUOUS
10
4.07776
20
-2.45571
11
4.07474
21
-2.45511
0
LINE
8
BLACK
6
CONTINUOUS
10
4.07474
20
-2.45511
11
4.07219
21
-2.4534
0
LINE
8
BLACK
6
CONTINUOUS
10
4.07219
20
-2.4534
11
4.07048
21
-2.45085
0
LINE
8
BLACK
6
CONTINUOUS
10
4.07048
20
-2.45085
11
4.06988
21
-2.44783
0
LINE
8
BLACK
6
CONTINUOUS
10
4.06988
20
-2.44783
11
4.06988
21
-2.43209
0
LINE
8
BLACK
6
CONTINUOUS
10
4.06988
20
-2.43209
11
4.07048
21
-2.42907
0
LINE
8
BLACK
6
CONTINUOUS
10
4.07048
20
-2.42907
11
4.07219
21
-2.42652
0
LINE
8
BLACK
6
CONTINUOUS
10
4.07219
20
-2.42652
11
4.07474
21
-2.42481
0
LINE
8
BLACK
6
CONTINUOUS
10
4.07474
20
-2.42481
11
4.07776
21
-2.42421
0
LINE
8
BLACK
6
CONTINUOUS
10
4.07776
20
-2.42421
11
4.09941
21
-2.42421
0
LINE
8
BLACK
6
CONTINUOUS
10
4.09941
20
-2.42421
11
4.10242
21
-2.42481
0
LINE
8
BLACK
6
CONTINUOUS
10
4.47977
20
-2.418
11
4.48264
21
-2.41992
0
LINE
8
BLACK
6
CONTINUOUS
10
4.48264
20
-2.41992
11
4.48456
21
-2.42279
0
LINE
8
BLACK
6
CONTINUOUS
10
4.48456
20
-2.42279
11
4.48524
21
-2.42618
0
LINE
8
BLACK
6
CONTINUOUS
10
4.48524
20
-2.42618
11
4.48524
21
-2.4439
0
LINE
8
BLACK
6
CONTINUOUS
10
4.48524
20
-2.4439
11
4.48456
21
-2.44729
0
LINE
8
BLACK
6
CONTINUOUS
10
4.48456
20
-2.44729
11
4.48264
21
-2.45016
0
LINE
8
BLACK
6
CONTINUOUS
10
4.48264
20
-2.45016
11
4.47977
21
-2.45208
0
LINE
8
BLACK
6
CONTINUOUS
10
4.47977
20
-2.45208
11
4.47638
21
-2.45276
0
LINE
8
BLACK
6
CONTINUOUS
10
4.47638
20
-2.45276
11
4.45669
21
-2.45276
0
LINE
8
BLACK
6
CONTINUOUS
10
4.45669
20
-2.45276
11
4.4533
21
-2.45208
0
LINE
8
BLACK
6
CONTINUOUS
10
4.4533
20
-2.45208
11
4.45043
21
-2.45016
0
LINE
8
BLACK
6
CONTINUOUS
10
4.45043
20
-2.45016
11
4.44851
21
-2.44729
0
LINE
8
BLACK
6
CONTINUOUS
10
4.44851
20
-2.44729
11
4.44783
21
-2.4439
0
LINE
8
BLACK
6
CONTINUOUS
10
4.44783
20
-2.4439
11
4.44783
21
-2.42618
0
LINE
8
BLACK
6
CONTINUOUS
10
4.44783
20
-2.42618
11
4.44851
21
-2.42279
0
LINE
8
BLACK
6
CONTINUOUS
10
4.44851
20
-2.42279
11
4.45043
21
-2.41992
0
LINE
8
BLACK
6
CONTINUOUS
10
4.45043
20
-2.41992
11
4.4533
21
-2.418
0
LINE
8
BLACK
6
CONTINUOUS
10
4.4533
20
-2.418
11
4.45669
21
-2.41732
0
LINE
8
BLACK
6
CONTINUOUS
10
4.45669
20
-2.41732
11
4.47638
21
-2.41732
0
LINE
8
BLACK
6
CONTINUOUS
10
4.47638
20
-2.41732
11
4.47977
21
-2.418
0
LINE
8
BLACK
6
CONTINUOUS
10
4.47864
20
-2.09729
11
4.49004
21
-2.09891
0
LINE
8
BLACK
6
CONTINUOUS
10
4.49004
20
-2.09891
11
4.50111
21
-2.10207
0
LINE
8
BLACK
6
CONTINUOUS
10
4.50111
20
-2.10207
11
4.51166
21
-2.10669
0
LINE
8
BLACK
6
CONTINUOUS
10
4.51166
20
-2.10669
11
4.52147
21
-2.11271
0
LINE
8
BLACK
6
CONTINUOUS
10
4.52147
20
-2.11271
11
4.53038
21
-2.12
0
LINE
8
BLACK
6
CONTINUOUS
10
4.53038
20
-2.12
11
4.53822
21
-2.12844
0
LINE
8
BLACK
6
CONTINUOUS
10
4.53822
20
-2.12844
11
4.54484
21
-2.13786
0
LINE
8
BLACK
6
CONTINUOUS
10
4.54484
20
-2.13786
11
4.55012
21
-2.14809
0
LINE
8
BLACK
6
CONTINUOUS
10
4.55012
20
-2.14809
11
4.55397
21
-2.15895
0
LINE
8
BLACK
6
CONTINUOUS
10
4.55397
20
-2.15895
11
4.5563
21
-2.17022
0
LINE
8
BLACK
6
CONTINUOUS
10
4.5563
20
-2.17022
11
4.55709
21
-2.18171
0
LINE
8
BLACK
6
CONTINUOUS
10
4.55709
20
-2.18171
11
4.55707
21
-2.18348
0
LINE
8
BLACK
6
CONTINUOUS
10
4.55707
20
-2.18348
11
4.55604
21
-2.19495
0
LINE
8
BLACK
6
CONTINUOUS
10
4.55604
20
-2.19495
11
4.55347
21
-2.20617
0
LINE
8
BLACK
6
CONTINUOUS
10
4.55347
20
-2.20617
11
4.5494
21
-2.21694
0
LINE
8
BLACK
6
CONTINUOUS
10
4.5494
20
-2.21694
11
4.54391
21
-2.22706
0
LINE
8
BLACK
6
CONTINUOUS
10
4.54391
20
-2.22706
11
4.53709
21
-2.23634
0
LINE
8
BLACK
6
CONTINUOUS
10
4.53709
20
-2.23634
11
4.52908
21
-2.24461
0
LINE
8
BLACK
6
CONTINUOUS
10
4.52908
20
-2.24461
11
4.52002
21
-2.25172
0
LINE
8
BLACK
6
CONTINUOUS
10
4.52002
20
-2.25172
11
4.51008
21
-2.25753
0
LINE
8
BLACK
6
CONTINUOUS
10
4.51008
20
-2.25753
11
4.49944
21
-2.26193
0
LINE
8
BLACK
6
CONTINUOUS
10
4.49944
20
-2.26193
11
4.4883
21
-2.26485
0
LINE
8
BLACK
6
CONTINUOUS
10
4.4883
20
-2.26485
11
4.47687
21
-2.26624
0
LINE
8
BLACK
6
CONTINUOUS
10
4.47687
20
-2.26624
11
4.46536
21
-2.26606
0
LINE
8
BLACK
6
CONTINUOUS
10
4.46536
20
-2.26606
11
4.45398
21
-2.26432
0
LINE
8
BLACK
6
CONTINUOUS
10
4.45398
20
-2.26432
11
4.44294
21
-2.26105
0
LINE
8
BLACK
6
CONTINUOUS
10
4.44294
20
-2.26105
11
4.43244
21
-2.25631
0
LINE
8
BLACK
6
CONTINUOUS
10
4.43244
20
-2.25631
11
4.42269
21
-2.25019
0
LINE
8
BLACK
6
CONTINUOUS
10
4.42269
20
-2.25019
11
4.41385
21
-2.2428
0
LINE
8
BLACK
6
CONTINUOUS
10
4.41385
20
-2.2428
11
4.4061
21
-2.23429
0
LINE
8
BLACK
6
CONTINUOUS
10
4.4061
20
-2.23429
11
4.39958
21
-2.2248
0
LINE
8
BLACK
6
CONTINUOUS
10
4.39958
20
-2.2248
11
4.39441
21
-2.21451
0
LINE
8
BLACK
6
CONTINUOUS
10
4.39441
20
-2.21451
11
4.39068
21
-2.20362
0
LINE
8
BLACK
6
CONTINUOUS
10
4.39068
20
-2.20362
11
4.38846
21
-2.19232
0
LINE
8
BLACK
6
CONTINUOUS
10
4.38846
20
-2.19232
11
4.3878
21
-2.18082
0
LINE
8
BLACK
6
CONTINUOUS
10
4.3878
20
-2.18082
11
4.3887
21
-2.16934
0
LINE
8
BLACK
6
CONTINUOUS
10
4.3887
20
-2.16934
11
4.39116
21
-2.15809
0
LINE
8
BLACK
6
CONTINUOUS
10
4.39116
20
-2.15809
11
4.39511
21
-2.14728
0
LINE
8
BLACK
6
CONTINUOUS
10
4.39511
20
-2.14728
11
4.4005
21
-2.1371
0
LINE
8
BLACK
6
CONTINUOUS
10
4.4005
20
-2.1371
11
4.40722
21
-2.12775
0
LINE
8
BLACK
6
CONTINUOUS
10
4.40722
20
-2.12775
11
4.41515
21
-2.1194
0
LINE
8
BLACK
6
CONTINUOUS
10
4.41515
20
-2.1194
11
4.42413
21
-2.1122
0
LINE
8
BLACK
6
CONTINUOUS
10
4.42413
20
-2.1122
11
4.43401
21
-2.10629
0
LINE
8
BLACK
6
CONTINUOUS
10
4.43401
20
-2.10629
11
4.4446
21
-2.10177
0
LINE
8
BLACK
6
CONTINUOUS
10
4.4446
20
-2.10177
11
4.45571
21
-2.09873
0
LINE
8
BLACK
6
CONTINUOUS
10
4.45571
20
-2.09873
11
4.46713
21
-2.09723
0
LINE
8
BLACK
6
CONTINUOUS
10
4.46713
20
-2.09723
11
4.47864
21
-2.09729
  0
ENDSEC
  0
EOF
