  0
SECTION
  2
HEADER
  9
$ANGBASE
  50
0.0
  9
$ANGDIR
  70
1
  9
$MEASUREMENT
  70
0
  0
ENDSEC
  0
SECTION
  2
TABLES
  0
TABLE
  2
LTYPE
  70
4
  0
LTYPE
  5
40F
  2
CONTINUOUS
  70
0
  3
Solid line
  72
65
  73
0
  40
0.0
  0
LTYPE
  5
410
  2
DASHDOT
 70
0
  3
Dash Dot ____ _ ____ _
 72
65
 73
4
 40
2.0
 49
1.25
 49
-0.25
 49
0.25
 49
-0.25
  0
LTYPE
  5
411
  2
DASHED
 70
0
  3
Dashed __ __ __ __ __
 72
65
 73
2
 40
0.75
 49
0.5
 49
-0.25
  0
LTYPE
  5
43B
  2
DOTTED
 70
0
  3
Dotted .  .  .  .
 72
65
 73
2
 40
0.2
 49
0.0
 49
-0.2
  0
ENDTAB
  0
TABLE
  2
STYLE
  70
4
  0
STYLE
  2
KICAD
  70
0
  40
0
  41
1
  42
1
  50
0
  71
0
  3
isocp.shx
  0
STYLE
  2
KICADB
  70
0
  40
0
  41
1
  42
1
  50
0
  71
0
  3
isocp.shx
  0
STYLE
  2
KICADI
  70
0
  40
0
  41
1
  42
1
  50
15
  71
0
  3
isocp.shx
  0
STYLE
  2
KICADBI
  70
0
  40
0
  41
1
  42
1
  50
15
  71
0
  3
isocp.shx
  0
ENDTAB
  0
TABLE
  2
LAYER
  70
1
  0
LAYER
  2
BLACK
  70
0
  62
7
  6
CONTINUOUS
  0
ENDTAB
  0
ENDSEC
  0
SECTION
  2
ENTITIES
0
LINE
8
BLACK
6
CONTINUOUS
10
5.82136
20
-3.24573
11
5.82776
21
-3.24858
0
LINE
8
BLACK
6
CONTINUOUS
10
5.82776
20
-3.24858
11
5.83342
21
-3.25269
0
LINE
8
BLACK
6
CONTINUOUS
10
5.83342
20
-3.25269
11
5.8381
21
-3.25789
0
LINE
8
BLACK
6
CONTINUOUS
10
5.8381
20
-3.25789
11
5.8416
21
-3.26395
0
LINE
8
BLACK
6
CONTINUOUS
10
5.8416
20
-3.26395
11
5.84376
21
-3.2706
0
LINE
8
BLACK
6
CONTINUOUS
10
5.84376
20
-3.2706
11
5.84449
21
-3.27756
0
LINE
8
BLACK
6
CONTINUOUS
10
5.84449
20
-3.27756
11
5.84376
21
-3.28452
0
LINE
8
BLACK
6
CONTINUOUS
10
5.84376
20
-3.28452
11
5.8416
21
-3.29117
0
LINE
8
BLACK
6
CONTINUOUS
10
5.8416
20
-3.29117
11
5.8381
21
-3.29723
0
LINE
8
BLACK
6
CONTINUOUS
10
5.8381
20
-3.29723
11
5.83342
21
-3.30243
0
LINE
8
BLACK
6
CONTINUOUS
10
5.83342
20
-3.30243
11
5.82776
21
-3.30654
0
LINE
8
BLACK
6
CONTINUOUS
10
5.82776
20
-3.30654
11
5.82136
21
-3.30939
0
LINE
8
BLACK
6
CONTINUOUS
10
5.82136
20
-3.30939
11
5.81452
21
-3.31084
0
LINE
8
BLACK
6
CONTINUOUS
10
5.81452
20
-3.31084
11
5.80753
21
-3.31084
0
LINE
8
BLACK
6
CONTINUOUS
10
5.80753
20
-3.31084
11
5.80068
21
-3.30939
0
LINE
8
BLACK
6
CONTINUOUS
10
5.80068
20
-3.30939
11
5.79429
21
-3.30654
0
LINE
8
BLACK
6
CONTINUOUS
10
5.79429
20
-3.30654
11
5.78863
21
-3.30243
0
LINE
8
BLACK
6
CONTINUOUS
10
5.78863
20
-3.30243
11
5.78395
21
-3.29723
0
LINE
8
BLACK
6
CONTINUOUS
10
5.78395
20
-3.29723
11
5.78045
21
-3.29117
0
LINE
8
BLACK
6
CONTINUOUS
10
5.78045
20
-3.29117
11
5.77829
21
-3.28452
0
LINE
8
BLACK
6
CONTINUOUS
10
5.77829
20
-3.28452
11
5.77756
21
-3.27756
0
LINE
8
BLACK
6
CONTINUOUS
10
5.77756
20
-3.27756
11
5.77829
21
-3.2706
0
LINE
8
BLACK
6
CONTINUOUS
10
5.77829
20
-3.2706
11
5.78045
21
-3.26395
0
LINE
8
BLACK
6
CONTINUOUS
10
5.78045
20
-3.26395
11
5.78395
21
-3.25789
0
LINE
8
BLACK
6
CONTINUOUS
10
5.78395
20
-3.25789
11
5.78863
21
-3.25269
0
LINE
8
BLACK
6
CONTINUOUS
10
5.78863
20
-3.25269
11
5.79429
21
-3.24858
0
LINE
8
BLACK
6
CONTINUOUS
10
5.79429
20
-3.24858
11
5.80068
21
-3.24573
0
LINE
8
BLACK
6
CONTINUOUS
10
5.80068
20
-3.24573
11
5.80753
21
-3.24428
0
LINE
8
BLACK
6
CONTINUOUS
10
5.80753
20
-3.24428
11
5.81452
21
-3.24428
0
LINE
8
BLACK
6
CONTINUOUS
10
5.81452
20
-3.24428
11
5.82136
21
-3.24573
0
LINE
8
BLACK
6
CONTINUOUS
10
5.34361
20
-3.17624
11
5.35
21
-3.17909
0
LINE
8
BLACK
6
CONTINUOUS
10
5.35
20
-3.17909
11
5.35566
21
-3.1832
0
LINE
8
BLACK
6
CONTINUOUS
10
5.35566
20
-3.1832
11
5.36034
21
-3.1884
0
LINE
8
BLACK
6
CONTINUOUS
10
5.36034
20
-3.1884
11
5.36384
21
-3.19446
0
LINE
8
BLACK
6
CONTINUOUS
10
5.36384
20
-3.19446
11
5.366
21
-3.20111
0
LINE
8
BLACK
6
CONTINUOUS
10
5.366
20
-3.20111
11
5.36673
21
-3.20807
0
LINE
8
BLACK
6
CONTINUOUS
10
5.36673
20
-3.20807
11
5.366
21
-3.21503
0
LINE
8
BLACK
6
CONTINUOUS
10
5.366
20
-3.21503
11
5.36384
21
-3.22168
0
LINE
8
BLACK
6
CONTINUOUS
10
5.36384
20
-3.22168
11
5.36034
21
-3.22774
0
LINE
8
BLACK
6
CONTINUOUS
10
5.36034
20
-3.22774
11
5.35566
21
-3.23294
0
LINE
8
BLACK
6
CONTINUOUS
10
5.35566
20
-3.23294
11
5.35
21
-3.23705
0
LINE
8
BLACK
6
CONTINUOUS
10
5.35
20
-3.23705
11
5.34361
21
-3.2399
0
LINE
8
BLACK
6
CONTINUOUS
10
5.34361
20
-3.2399
11
5.33677
21
-3.24135
0
LINE
8
BLACK
6
CONTINUOUS
10
5.33677
20
-3.24135
11
5.32977
21
-3.24135
0
LINE
8
BLACK
6
CONTINUOUS
10
5.32977
20
-3.24135
11
5.32293
21
-3.2399
0
LINE
8
BLACK
6
CONTINUOUS
10
5.32293
20
-3.2399
11
5.31654
21
-3.23705
0
LINE
8
BLACK
6
CONTINUOUS
10
5.31654
20
-3.23705
11
5.31088
21
-3.23294
0
LINE
8
BLACK
6
CONTINUOUS
10
5.31088
20
-3.23294
11
5.30619
21
-3.22774
0
LINE
8
BLACK
6
CONTINUOUS
10
5.30619
20
-3.22774
11
5.3027
21
-3.22168
0
LINE
8
BLACK
6
CONTINUOUS
10
5.3027
20
-3.22168
11
5.30053
21
-3.21503
0
LINE
8
BLACK
6
CONTINUOUS
10
5.30053
20
-3.21503
11
5.2998
21
-3.20807
0
LINE
8
BLACK
6
CONTINUOUS
10
5.2998
20
-3.20807
11
5.30053
21
-3.20111
0
LINE
8
BLACK
6
CONTINUOUS
10
5.30053
20
-3.20111
11
5.3027
21
-3.19446
0
LINE
8
BLACK
6
CONTINUOUS
10
5.3027
20
-3.19446
11
5.30619
21
-3.1884
0
LINE
8
BLACK
6
CONTINUOUS
10
5.30619
20
-3.1884
11
5.31088
21
-3.1832
0
LINE
8
BLACK
6
CONTINUOUS
10
5.31088
20
-3.1832
11
5.31654
21
-3.17909
0
LINE
8
BLACK
6
CONTINUOUS
10
5.31654
20
-3.17909
11
5.32293
21
-3.17624
0
LINE
8
BLACK
6
CONTINUOUS
10
5.32293
20
-3.17624
11
5.32977
21
-3.17479
0
LINE
8
BLACK
6
CONTINUOUS
10
5.32977
20
-3.17479
11
5.33677
21
-3.17479
0
LINE
8
BLACK
6
CONTINUOUS
10
5.33677
20
-3.17479
11
5.34361
21
-3.17624
0
LINE
8
BLACK
6
CONTINUOUS
10
5.24361
20
-3.17624
11
5.25
21
-3.17909
0
LINE
8
BLACK
6
CONTINUOUS
10
5.25
20
-3.17909
11
5.25566
21
-3.1832
0
LINE
8
BLACK
6
CONTINUOUS
10
5.25566
20
-3.1832
11
5.26034
21
-3.1884
0
LINE
8
BLACK
6
CONTINUOUS
10
5.26034
20
-3.1884
11
5.26384
21
-3.19446
0
LINE
8
BLACK
6
CONTINUOUS
10
5.26384
20
-3.19446
11
5.266
21
-3.20111
0
LINE
8
BLACK
6
CONTINUOUS
10
5.266
20
-3.20111
11
5.26673
21
-3.20807
0
LINE
8
BLACK
6
CONTINUOUS
10
5.26673
20
-3.20807
11
5.266
21
-3.21503
0
LINE
8
BLACK
6
CONTINUOUS
10
5.266
20
-3.21503
11
5.26384
21
-3.22168
0
LINE
8
BLACK
6
CONTINUOUS
10
5.26384
20
-3.22168
11
5.26034
21
-3.22774
0
LINE
8
BLACK
6
CONTINUOUS
10
5.26034
20
-3.22774
11
5.25566
21
-3.23294
0
LINE
8
BLACK
6
CONTINUOUS
10
5.25566
20
-3.23294
11
5.25
21
-3.23705
0
LINE
8
BLACK
6
CONTINUOUS
10
5.25
20
-3.23705
11
5.24361
21
-3.2399
0
LINE
8
BLACK
6
CONTINUOUS
10
5.24361
20
-3.2399
11
5.23677
21
-3.24135
0
LINE
8
BLACK
6
CONTINUOUS
10
5.23677
20
-3.24135
11
5.22977
21
-3.24135
0
LINE
8
BLACK
6
CONTINUOUS
10
5.22977
20
-3.24135
11
5.22293
21
-3.2399
0
LINE
8
BLACK
6
CONTINUOUS
10
5.22293
20
-3.2399
11
5.21654
21
-3.23705
0
LINE
8
BLACK
6
CONTINUOUS
10
5.21654
20
-3.23705
11
5.21088
21
-3.23294
0
LINE
8
BLACK
6
CONTINUOUS
10
5.21088
20
-3.23294
11
5.20619
21
-3.22774
0
LINE
8
BLACK
6
CONTINUOUS
10
5.20619
20
-3.22774
11
5.2027
21
-3.22168
0
LINE
8
BLACK
6
CONTINUOUS
10
5.2027
20
-3.22168
11
5.20053
21
-3.21503
0
LINE
8
BLACK
6
CONTINUOUS
10
5.20053
20
-3.21503
11
5.1998
21
-3.20807
0
LINE
8
BLACK
6
CONTINUOUS
10
5.1998
20
-3.20807
11
5.20053
21
-3.20111
0
LINE
8
BLACK
6
CONTINUOUS
10
5.20053
20
-3.20111
11
5.2027
21
-3.19446
0
LINE
8
BLACK
6
CONTINUOUS
10
5.2027
20
-3.19446
11
5.20619
21
-3.1884
0
LINE
8
BLACK
6
CONTINUOUS
10
5.20619
20
-3.1884
11
5.21088
21
-3.1832
0
LINE
8
BLACK
6
CONTINUOUS
10
5.21088
20
-3.1832
11
5.21654
21
-3.17909
0
LINE
8
BLACK
6
CONTINUOUS
10
5.21654
20
-3.17909
11
5.22293
21
-3.17624
0
LINE
8
BLACK
6
CONTINUOUS
10
5.22293
20
-3.17624
11
5.22977
21
-3.17479
0
LINE
8
BLACK
6
CONTINUOUS
10
5.22977
20
-3.17479
11
5.23677
21
-3.17479
0
LINE
8
BLACK
6
CONTINUOUS
10
5.23677
20
-3.17479
11
5.24361
21
-3.17624
0
LINE
8
BLACK
6
CONTINUOUS
10
5.82136
20
-3.14573
11
5.82776
21
-3.14858
0
LINE
8
BLACK
6
CONTINUOUS
10
5.82776
20
-3.14858
11
5.83342
21
-3.15269
0
LINE
8
BLACK
6
CONTINUOUS
10
5.83342
20
-3.15269
11
5.8381
21
-3.15789
0
LINE
8
BLACK
6
CONTINUOUS
10
5.8381
20
-3.15789
11
5.8416
21
-3.16395
0
LINE
8
BLACK
6
CONTINUOUS
10
5.8416
20
-3.16395
11
5.84376
21
-3.1706
0
LINE
8
BLACK
6
CONTINUOUS
10
5.84376
20
-3.1706
11
5.84449
21
-3.17756
0
LINE
8
BLACK
6
CONTINUOUS
10
5.84449
20
-3.17756
11
5.84376
21
-3.18452
0
LINE
8
BLACK
6
CONTINUOUS
10
5.84376
20
-3.18452
11
5.8416
21
-3.19117
0
LINE
8
BLACK
6
CONTINUOUS
10
5.8416
20
-3.19117
11
5.8381
21
-3.19723
0
LINE
8
BLACK
6
CONTINUOUS
10
5.8381
20
-3.19723
11
5.83342
21
-3.20243
0
LINE
8
BLACK
6
CONTINUOUS
10
5.83342
20
-3.20243
11
5.82776
21
-3.20654
0
LINE
8
BLACK
6
CONTINUOUS
10
5.82776
20
-3.20654
11
5.82136
21
-3.20939
0
LINE
8
BLACK
6
CONTINUOUS
10
5.82136
20
-3.20939
11
5.81452
21
-3.21084
0
LINE
8
BLACK
6
CONTINUOUS
10
5.81452
20
-3.21084
11
5.80753
21
-3.21084
0
LINE
8
BLACK
6
CONTINUOUS
10
5.80753
20
-3.21084
11
5.80068
21
-3.20939
0
LINE
8
BLACK
6
CONTINUOUS
10
5.80068
20
-3.20939
11
5.79429
21
-3.20654
0
LINE
8
BLACK
6
CONTINUOUS
10
5.79429
20
-3.20654
11
5.78863
21
-3.20243
0
LINE
8
BLACK
6
CONTINUOUS
10
5.78863
20
-3.20243
11
5.78395
21
-3.19723
0
LINE
8
BLACK
6
CONTINUOUS
10
5.78395
20
-3.19723
11
5.78045
21
-3.19117
0
LINE
8
BLACK
6
CONTINUOUS
10
5.78045
20
-3.19117
11
5.77829
21
-3.18452
0
LINE
8
BLACK
6
CONTINUOUS
10
5.77829
20
-3.18452
11
5.77756
21
-3.17756
0
LINE
8
BLACK
6
CONTINUOUS
10
5.77756
20
-3.17756
11
5.77829
21
-3.1706
0
LINE
8
BLACK
6
CONTINUOUS
10
5.77829
20
-3.1706
11
5.78045
21
-3.16395
0
LINE
8
BLACK
6
CONTINUOUS
10
5.78045
20
-3.16395
11
5.78395
21
-3.15789
0
LINE
8
BLACK
6
CONTINUOUS
10
5.78395
20
-3.15789
11
5.78863
21
-3.15269
0
LINE
8
BLACK
6
CONTINUOUS
10
5.78863
20
-3.15269
11
5.79429
21
-3.14858
0
LINE
8
BLACK
6
CONTINUOUS
10
5.79429
20
-3.14858
11
5.80068
21
-3.14573
0
LINE
8
BLACK
6
CONTINUOUS
10
5.80068
20
-3.14573
11
5.80753
21
-3.14428
0
LINE
8
BLACK
6
CONTINUOUS
10
5.80753
20
-3.14428
11
5.81452
21
-3.14428
0
LINE
8
BLACK
6
CONTINUOUS
10
5.81452
20
-3.14428
11
5.82136
21
-3.14573
0
LINE
8
BLACK
6
CONTINUOUS
10
5.34361
20
-3.07624
11
5.35
21
-3.07909
0
LINE
8
BLACK
6
CONTINUOUS
10
5.35
20
-3.07909
11
5.35566
21
-3.0832
0
LINE
8
BLACK
6
CONTINUOUS
10
5.35566
20
-3.0832
11
5.36034
21
-3.0884
0
LINE
8
BLACK
6
CONTINUOUS
10
5.36034
20
-3.0884
11
5.36384
21
-3.09446
0
LINE
8
BLACK
6
CONTINUOUS
10
5.36384
20
-3.09446
11
5.366
21
-3.10111
0
LINE
8
BLACK
6
CONTINUOUS
10
5.366
20
-3.10111
11
5.36673
21
-3.10807
0
LINE
8
BLACK
6
CONTINUOUS
10
5.36673
20
-3.10807
11
5.366
21
-3.11503
0
LINE
8
BLACK
6
CONTINUOUS
10
5.366
20
-3.11503
11
5.36384
21
-3.12168
0
LINE
8
BLACK
6
CONTINUOUS
10
5.36384
20
-3.12168
11
5.36034
21
-3.12774
0
LINE
8
BLACK
6
CONTINUOUS
10
5.36034
20
-3.12774
11
5.35566
21
-3.13294
0
LINE
8
BLACK
6
CONTINUOUS
10
5.35566
20
-3.13294
11
5.35
21
-3.13705
0
LINE
8
BLACK
6
CONTINUOUS
10
5.35
20
-3.13705
11
5.34361
21
-3.1399
0
LINE
8
BLACK
6
CONTINUOUS
10
5.34361
20
-3.1399
11
5.33677
21
-3.14135
0
LINE
8
BLACK
6
CONTINUOUS
10
5.33677
20
-3.14135
11
5.32977
21
-3.14135
0
LINE
8
BLACK
6
CONTINUOUS
10
5.32977
20
-3.14135
11
5.32293
21
-3.1399
0
LINE
8
BLACK
6
CONTINUOUS
10
5.32293
20
-3.1399
11
5.31654
21
-3.13705
0
LINE
8
BLACK
6
CONTINUOUS
10
5.31654
20
-3.13705
11
5.31088
21
-3.13294
0
LINE
8
BLACK
6
CONTINUOUS
10
5.31088
20
-3.13294
11
5.30619
21
-3.12774
0
LINE
8
BLACK
6
CONTINUOUS
10
5.30619
20
-3.12774
11
5.3027
21
-3.12168
0
LINE
8
BLACK
6
CONTINUOUS
10
5.3027
20
-3.12168
11
5.30053
21
-3.11503
0
LINE
8
BLACK
6
CONTINUOUS
10
5.30053
20
-3.11503
11
5.2998
21
-3.10807
0
LINE
8
BLACK
6
CONTINUOUS
10
5.2998
20
-3.10807
11
5.30053
21
-3.10111
0
LINE
8
BLACK
6
CONTINUOUS
10
5.30053
20
-3.10111
11
5.3027
21
-3.09446
0
LINE
8
BLACK
6
CONTINUOUS
10
5.3027
20
-3.09446
11
5.30619
21
-3.0884
0
LINE
8
BLACK
6
CONTINUOUS
10
5.30619
20
-3.0884
11
5.31088
21
-3.0832
0
LINE
8
BLACK
6
CONTINUOUS
10
5.31088
20
-3.0832
11
5.31654
21
-3.07909
0
LINE
8
BLACK
6
CONTINUOUS
10
5.31654
20
-3.07909
11
5.32293
21
-3.07624
0
LINE
8
BLACK
6
CONTINUOUS
10
5.32293
20
-3.07624
11
5.32977
21
-3.07479
0
LINE
8
BLACK
6
CONTINUOUS
10
5.32977
20
-3.07479
11
5.33677
21
-3.07479
0
LINE
8
BLACK
6
CONTINUOUS
10
5.33677
20
-3.07479
11
5.34361
21
-3.07624
0
LINE
8
BLACK
6
CONTINUOUS
10
5.24361
20
-3.07624
11
5.25
21
-3.07909
0
LINE
8
BLACK
6
CONTINUOUS
10
5.25
20
-3.07909
11
5.25566
21
-3.0832
0
LINE
8
BLACK
6
CONTINUOUS
10
5.25566
20
-3.0832
11
5.26034
21
-3.0884
0
LINE
8
BLACK
6
CONTINUOUS
10
5.26034
20
-3.0884
11
5.26384
21
-3.09446
0
LINE
8
BLACK
6
CONTINUOUS
10
5.26384
20
-3.09446
11
5.266
21
-3.10111
0
LINE
8
BLACK
6
CONTINUOUS
10
5.266
20
-3.10111
11
5.26673
21
-3.10807
0
LINE
8
BLACK
6
CONTINUOUS
10
5.26673
20
-3.10807
11
5.266
21
-3.11503
0
LINE
8
BLACK
6
CONTINUOUS
10
5.266
20
-3.11503
11
5.26384
21
-3.12168
0
LINE
8
BLACK
6
CONTINUOUS
10
5.26384
20
-3.12168
11
5.26034
21
-3.12774
0
LINE
8
BLACK
6
CONTINUOUS
10
5.26034
20
-3.12774
11
5.25566
21
-3.13294
0
LINE
8
BLACK
6
CONTINUOUS
10
5.25566
20
-3.13294
11
5.25
21
-3.13705
0
LINE
8
BLACK
6
CONTINUOUS
10
5.25
20
-3.13705
11
5.24361
21
-3.1399
0
LINE
8
BLACK
6
CONTINUOUS
10
5.24361
20
-3.1399
11
5.23677
21
-3.14135
0
LINE
8
BLACK
6
CONTINUOUS
10
5.23677
20
-3.14135
11
5.22977
21
-3.14135
0
LINE
8
BLACK
6
CONTINUOUS
10
5.22977
20
-3.14135
11
5.22293
21
-3.1399
0
LINE
8
BLACK
6
CONTINUOUS
10
5.22293
20
-3.1399
11
5.21654
21
-3.13705
0
LINE
8
BLACK
6
CONTINUOUS
10
5.21654
20
-3.13705
11
5.21088
21
-3.13294
0
LINE
8
BLACK
6
CONTINUOUS
10
5.21088
20
-3.13294
11
5.20619
21
-3.12774
0
LINE
8
BLACK
6
CONTINUOUS
10
5.20619
20
-3.12774
11
5.2027
21
-3.12168
0
LINE
8
BLACK
6
CONTINUOUS
10
5.2027
20
-3.12168
11
5.20053
21
-3.11503
0
LINE
8
BLACK
6
CONTINUOUS
10
5.20053
20
-3.11503
11
5.1998
21
-3.10807
0
LINE
8
BLACK
6
CONTINUOUS
10
5.1998
20
-3.10807
11
5.20053
21
-3.10111
0
LINE
8
BLACK
6
CONTINUOUS
10
5.20053
20
-3.10111
11
5.2027
21
-3.09446
0
LINE
8
BLACK
6
CONTINUOUS
10
5.2027
20
-3.09446
11
5.20619
21
-3.0884
0
LINE
8
BLACK
6
CONTINUOUS
10
5.20619
20
-3.0884
11
5.21088
21
-3.0832
0
LINE
8
BLACK
6
CONTINUOUS
10
5.21088
20
-3.0832
11
5.21654
21
-3.07909
0
LINE
8
BLACK
6
CONTINUOUS
10
5.21654
20
-3.07909
11
5.22293
21
-3.07624
0
LINE
8
BLACK
6
CONTINUOUS
10
5.22293
20
-3.07624
11
5.22977
21
-3.07479
0
LINE
8
BLACK
6
CONTINUOUS
10
5.22977
20
-3.07479
11
5.23677
21
-3.07479
0
LINE
8
BLACK
6
CONTINUOUS
10
5.23677
20
-3.07479
11
5.24361
21
-3.07624
0
LINE
8
BLACK
6
CONTINUOUS
10
5.82136
20
-3.04573
11
5.82776
21
-3.04858
0
LINE
8
BLACK
6
CONTINUOUS
10
5.82776
20
-3.04858
11
5.83342
21
-3.05269
0
LINE
8
BLACK
6
CONTINUOUS
10
5.83342
20
-3.05269
11
5.8381
21
-3.05789
0
LINE
8
BLACK
6
CONTINUOUS
10
5.8381
20
-3.05789
11
5.8416
21
-3.06395
0
LINE
8
BLACK
6
CONTINUOUS
10
5.8416
20
-3.06395
11
5.84376
21
-3.0706
0
LINE
8
BLACK
6
CONTINUOUS
10
5.84376
20
-3.0706
11
5.84449
21
-3.07756
0
LINE
8
BLACK
6
CONTINUOUS
10
5.84449
20
-3.07756
11
5.84376
21
-3.08452
0
LINE
8
BLACK
6
CONTINUOUS
10
5.84376
20
-3.08452
11
5.8416
21
-3.09117
0
LINE
8
BLACK
6
CONTINUOUS
10
5.8416
20
-3.09117
11
5.8381
21
-3.09723
0
LINE
8
BLACK
6
CONTINUOUS
10
5.8381
20
-3.09723
11
5.83342
21
-3.10243
0
LINE
8
BLACK
6
CONTINUOUS
10
5.83342
20
-3.10243
11
5.82776
21
-3.10654
0
LINE
8
BLACK
6
CONTINUOUS
10
5.82776
20
-3.10654
11
5.82136
21
-3.10939
0
LINE
8
BLACK
6
CONTINUOUS
10
5.82136
20
-3.10939
11
5.81452
21
-3.11084
0
LINE
8
BLACK
6
CONTINUOUS
10
5.81452
20
-3.11084
11
5.80753
21
-3.11084
0
LINE
8
BLACK
6
CONTINUOUS
10
5.80753
20
-3.11084
11
5.80068
21
-3.10939
0
LINE
8
BLACK
6
CONTINUOUS
10
5.80068
20
-3.10939
11
5.79429
21
-3.10654
0
LINE
8
BLACK
6
CONTINUOUS
10
5.79429
20
-3.10654
11
5.78863
21
-3.10243
0
LINE
8
BLACK
6
CONTINUOUS
10
5.78863
20
-3.10243
11
5.78395
21
-3.09723
0
LINE
8
BLACK
6
CONTINUOUS
10
5.78395
20
-3.09723
11
5.78045
21
-3.09117
0
LINE
8
BLACK
6
CONTINUOUS
10
5.78045
20
-3.09117
11
5.77829
21
-3.08452
0
LINE
8
BLACK
6
CONTINUOUS
10
5.77829
20
-3.08452
11
5.77756
21
-3.07756
0
LINE
8
BLACK
6
CONTINUOUS
10
5.77756
20
-3.07756
11
5.77829
21
-3.0706
0
LINE
8
BLACK
6
CONTINUOUS
10
5.77829
20
-3.0706
11
5.78045
21
-3.06395
0
LINE
8
BLACK
6
CONTINUOUS
10
5.78045
20
-3.06395
11
5.78395
21
-3.05789
0
LINE
8
BLACK
6
CONTINUOUS
10
5.78395
20
-3.05789
11
5.78863
21
-3.05269
0
LINE
8
BLACK
6
CONTINUOUS
10
5.78863
20
-3.05269
11
5.79429
21
-3.04858
0
LINE
8
BLACK
6
CONTINUOUS
10
5.79429
20
-3.04858
11
5.80068
21
-3.04573
0
LINE
8
BLACK
6
CONTINUOUS
10
5.80068
20
-3.04573
11
5.80753
21
-3.04428
0
LINE
8
BLACK
6
CONTINUOUS
10
5.80753
20
-3.04428
11
5.81452
21
-3.04428
0
LINE
8
BLACK
6
CONTINUOUS
10
5.81452
20
-3.04428
11
5.82136
21
-3.04573
0
LINE
8
BLACK
6
CONTINUOUS
10
5.24361
20
-2.97624
11
5.25
21
-2.97909
0
LINE
8
BLACK
6
CONTINUOUS
10
5.25
20
-2.97909
11
5.25566
21
-2.9832
0
LINE
8
BLACK
6
CONTINUOUS
10
5.25566
20
-2.9832
11
5.26034
21
-2.9884
0
LINE
8
BLACK
6
CONTINUOUS
10
5.26034
20
-2.9884
11
5.26384
21
-2.99446
0
LINE
8
BLACK
6
CONTINUOUS
10
5.26384
20
-2.99446
11
5.266
21
-3.00111
0
LINE
8
BLACK
6
CONTINUOUS
10
5.266
20
-3.00111
11
5.26673
21
-3.00807
0
LINE
8
BLACK
6
CONTINUOUS
10
5.26673
20
-3.00807
11
5.266
21
-3.01503
0
LINE
8
BLACK
6
CONTINUOUS
10
5.266
20
-3.01503
11
5.26384
21
-3.02168
0
LINE
8
BLACK
6
CONTINUOUS
10
5.26384
20
-3.02168
11
5.26034
21
-3.02774
0
LINE
8
BLACK
6
CONTINUOUS
10
5.26034
20
-3.02774
11
5.25566
21
-3.03294
0
LINE
8
BLACK
6
CONTINUOUS
10
5.25566
20
-3.03294
11
5.25
21
-3.03705
0
LINE
8
BLACK
6
CONTINUOUS
10
5.25
20
-3.03705
11
5.24361
21
-3.0399
0
LINE
8
BLACK
6
CONTINUOUS
10
5.24361
20
-3.0399
11
5.23677
21
-3.04135
0
LINE
8
BLACK
6
CONTINUOUS
10
5.23677
20
-3.04135
11
5.22977
21
-3.04135
0
LINE
8
BLACK
6
CONTINUOUS
10
5.22977
20
-3.04135
11
5.22293
21
-3.0399
0
LINE
8
BLACK
6
CONTINUOUS
10
5.22293
20
-3.0399
11
5.21654
21
-3.03705
0
LINE
8
BLACK
6
CONTINUOUS
10
5.21654
20
-3.03705
11
5.21088
21
-3.03294
0
LINE
8
BLACK
6
CONTINUOUS
10
5.21088
20
-3.03294
11
5.20619
21
-3.02774
0
LINE
8
BLACK
6
CONTINUOUS
10
5.20619
20
-3.02774
11
5.2027
21
-3.02168
0
LINE
8
BLACK
6
CONTINUOUS
10
5.2027
20
-3.02168
11
5.20053
21
-3.01503
0
LINE
8
BLACK
6
CONTINUOUS
10
5.20053
20
-3.01503
11
5.1998
21
-3.00807
0
LINE
8
BLACK
6
CONTINUOUS
10
5.1998
20
-3.00807
11
5.20053
21
-3.00111
0
LINE
8
BLACK
6
CONTINUOUS
10
5.20053
20
-3.00111
11
5.2027
21
-2.99446
0
LINE
8
BLACK
6
CONTINUOUS
10
5.2027
20
-2.99446
11
5.20619
21
-2.9884
0
LINE
8
BLACK
6
CONTINUOUS
10
5.20619
20
-2.9884
11
5.21088
21
-2.9832
0
LINE
8
BLACK
6
CONTINUOUS
10
5.21088
20
-2.9832
11
5.21654
21
-2.97909
0
LINE
8
BLACK
6
CONTINUOUS
10
5.21654
20
-2.97909
11
5.22293
21
-2.97624
0
LINE
8
BLACK
6
CONTINUOUS
10
5.22293
20
-2.97624
11
5.22977
21
-2.97479
0
LINE
8
BLACK
6
CONTINUOUS
10
5.22977
20
-2.97479
11
5.23677
21
-2.97479
0
LINE
8
BLACK
6
CONTINUOUS
10
5.23677
20
-2.97479
11
5.24361
21
-2.97624
0
LINE
8
BLACK
6
CONTINUOUS
10
5.34361
20
-2.97624
11
5.35
21
-2.97909
0
LINE
8
BLACK
6
CONTINUOUS
10
5.35
20
-2.97909
11
5.35566
21
-2.9832
0
LINE
8
BLACK
6
CONTINUOUS
10
5.35566
20
-2.9832
11
5.36034
21
-2.9884
0
LINE
8
BLACK
6
CONTINUOUS
10
5.36034
20
-2.9884
11
5.36384
21
-2.99446
0
LINE
8
BLACK
6
CONTINUOUS
10
5.36384
20
-2.99446
11
5.366
21
-3.00111
0
LINE
8
BLACK
6
CONTINUOUS
10
5.366
20
-3.00111
11
5.36673
21
-3.00807
0
LINE
8
BLACK
6
CONTINUOUS
10
5.36673
20
-3.00807
11
5.366
21
-3.01503
0
LINE
8
BLACK
6
CONTINUOUS
10
5.366
20
-3.01503
11
5.36384
21
-3.02168
0
LINE
8
BLACK
6
CONTINUOUS
10
5.36384
20
-3.02168
11
5.36034
21
-3.02774
0
LINE
8
BLACK
6
CONTINUOUS
10
5.36034
20
-3.02774
11
5.35566
21
-3.03294
0
LINE
8
BLACK
6
CONTINUOUS
10
5.35566
20
-3.03294
11
5.35
21
-3.03705
0
LINE
8
BLACK
6
CONTINUOUS
10
5.35
20
-3.03705
11
5.34361
21
-3.0399
0
LINE
8
BLACK
6
CONTINUOUS
10
5.34361
20
-3.0399
11
5.33677
21
-3.04135
0
LINE
8
BLACK
6
CONTINUOUS
10
5.33677
20
-3.04135
11
5.32977
21
-3.04135
0
LINE
8
BLACK
6
CONTINUOUS
10
5.32977
20
-3.04135
11
5.32293
21
-3.0399
0
LINE
8
BLACK
6
CONTINUOUS
10
5.32293
20
-3.0399
11
5.31654
21
-3.03705
0
LINE
8
BLACK
6
CONTINUOUS
10
5.31654
20
-3.03705
11
5.31088
21
-3.03294
0
LINE
8
BLACK
6
CONTINUOUS
10
5.31088
20
-3.03294
11
5.30619
21
-3.02774
0
LINE
8
BLACK
6
CONTINUOUS
10
5.30619
20
-3.02774
11
5.3027
21
-3.02168
0
LINE
8
BLACK
6
CONTINUOUS
10
5.3027
20
-3.02168
11
5.30053
21
-3.01503
0
LINE
8
BLACK
6
CONTINUOUS
10
5.30053
20
-3.01503
11
5.2998
21
-3.00807
0
LINE
8
BLACK
6
CONTINUOUS
10
5.2998
20
-3.00807
11
5.30053
21
-3.00111
0
LINE
8
BLACK
6
CONTINUOUS
10
5.30053
20
-3.00111
11
5.3027
21
-2.99446
0
LINE
8
BLACK
6
CONTINUOUS
10
5.3027
20
-2.99446
11
5.30619
21
-2.9884
0
LINE
8
BLACK
6
CONTINUOUS
10
5.30619
20
-2.9884
11
5.31088
21
-2.9832
0
LINE
8
BLACK
6
CONTINUOUS
10
5.31088
20
-2.9832
11
5.31654
21
-2.97909
0
LINE
8
BLACK
6
CONTINUOUS
10
5.31654
20
-2.97909
11
5.32293
21
-2.97624
0
LINE
8
BLACK
6
CONTINUOUS
10
5.32293
20
-2.97624
11
5.32977
21
-2.97479
0
LINE
8
BLACK
6
CONTINUOUS
10
5.32977
20
-2.97479
11
5.33677
21
-2.97479
0
LINE
8
BLACK
6
CONTINUOUS
10
5.33677
20
-2.97479
11
5.34361
21
-2.97624
0
LINE
8
BLACK
6
CONTINUOUS
10
5.82136
20
-2.94573
11
5.82776
21
-2.94858
0
LINE
8
BLACK
6
CONTINUOUS
10
5.82776
20
-2.94858
11
5.83342
21
-2.95269
0
LINE
8
BLACK
6
CONTINUOUS
10
5.83342
20
-2.95269
11
5.8381
21
-2.95789
0
LINE
8
BLACK
6
CONTINUOUS
10
5.8381
20
-2.95789
11
5.8416
21
-2.96395
0
LINE
8
BLACK
6
CONTINUOUS
10
5.8416
20
-2.96395
11
5.84376
21
-2.9706
0
LINE
8
BLACK
6
CONTINUOUS
10
5.84376
20
-2.9706
11
5.84449
21
-2.97756
0
LINE
8
BLACK
6
CONTINUOUS
10
5.84449
20
-2.97756
11
5.84376
21
-2.98452
0
LINE
8
BLACK
6
CONTINUOUS
10
5.84376
20
-2.98452
11
5.8416
21
-2.99117
0
LINE
8
BLACK
6
CONTINUOUS
10
5.8416
20
-2.99117
11
5.8381
21
-2.99723
0
LINE
8
BLACK
6
CONTINUOUS
10
5.8381
20
-2.99723
11
5.83342
21
-3.00243
0
LINE
8
BLACK
6
CONTINUOUS
10
5.83342
20
-3.00243
11
5.82776
21
-3.00654
0
LINE
8
BLACK
6
CONTINUOUS
10
5.82776
20
-3.00654
11
5.82136
21
-3.00939
0
LINE
8
BLACK
6
CONTINUOUS
10
5.82136
20
-3.00939
11
5.81452
21
-3.01084
0
LINE
8
BLACK
6
CONTINUOUS
10
5.81452
20
-3.01084
11
5.80753
21
-3.01084
0
LINE
8
BLACK
6
CONTINUOUS
10
5.80753
20
-3.01084
11
5.80068
21
-3.00939
0
LINE
8
BLACK
6
CONTINUOUS
10
5.80068
20
-3.00939
11
5.79429
21
-3.00654
0
LINE
8
BLACK
6
CONTINUOUS
10
5.79429
20
-3.00654
11
5.78863
21
-3.00243
0
LINE
8
BLACK
6
CONTINUOUS
10
5.78863
20
-3.00243
11
5.78395
21
-2.99723
0
LINE
8
BLACK
6
CONTINUOUS
10
5.78395
20
-2.99723
11
5.78045
21
-2.99117
0
LINE
8
BLACK
6
CONTINUOUS
10
5.78045
20
-2.99117
11
5.77829
21
-2.98452
0
LINE
8
BLACK
6
CONTINUOUS
10
5.77829
20
-2.98452
11
5.77756
21
-2.97756
0
LINE
8
BLACK
6
CONTINUOUS
10
5.77756
20
-2.97756
11
5.77829
21
-2.9706
0
LINE
8
BLACK
6
CONTINUOUS
10
5.77829
20
-2.9706
11
5.78045
21
-2.96395
0
LINE
8
BLACK
6
CONTINUOUS
10
5.78045
20
-2.96395
11
5.78395
21
-2.95789
0
LINE
8
BLACK
6
CONTINUOUS
10
5.78395
20
-2.95789
11
5.78863
21
-2.95269
0
LINE
8
BLACK
6
CONTINUOUS
10
5.78863
20
-2.95269
11
5.79429
21
-2.94858
0
LINE
8
BLACK
6
CONTINUOUS
10
5.79429
20
-2.94858
11
5.80068
21
-2.94573
0
LINE
8
BLACK
6
CONTINUOUS
10
5.80068
20
-2.94573
11
5.80753
21
-2.94428
0
LINE
8
BLACK
6
CONTINUOUS
10
5.80753
20
-2.94428
11
5.81452
21
-2.94428
0
LINE
8
BLACK
6
CONTINUOUS
10
5.81452
20
-2.94428
11
5.82136
21
-2.94573
0
LINE
8
BLACK
6
CONTINUOUS
10
5.34361
20
-2.87624
11
5.35
21
-2.87909
0
LINE
8
BLACK
6
CONTINUOUS
10
5.35
20
-2.87909
11
5.35566
21
-2.8832
0
LINE
8
BLACK
6
CONTINUOUS
10
5.35566
20
-2.8832
11
5.36034
21
-2.8884
0
LINE
8
BLACK
6
CONTINUOUS
10
5.36034
20
-2.8884
11
5.36384
21
-2.89446
0
LINE
8
BLACK
6
CONTINUOUS
10
5.36384
20
-2.89446
11
5.366
21
-2.90111
0
LINE
8
BLACK
6
CONTINUOUS
10
5.366
20
-2.90111
11
5.36673
21
-2.90807
0
LINE
8
BLACK
6
CONTINUOUS
10
5.36673
20
-2.90807
11
5.366
21
-2.91503
0
LINE
8
BLACK
6
CONTINUOUS
10
5.366
20
-2.91503
11
5.36384
21
-2.92168
0
LINE
8
BLACK
6
CONTINUOUS
10
5.36384
20
-2.92168
11
5.36034
21
-2.92774
0
LINE
8
BLACK
6
CONTINUOUS
10
5.36034
20
-2.92774
11
5.35566
21
-2.93294
0
LINE
8
BLACK
6
CONTINUOUS
10
5.35566
20
-2.93294
11
5.35
21
-2.93705
0
LINE
8
BLACK
6
CONTINUOUS
10
5.35
20
-2.93705
11
5.34361
21
-2.9399
0
LINE
8
BLACK
6
CONTINUOUS
10
5.34361
20
-2.9399
11
5.33677
21
-2.94135
0
LINE
8
BLACK
6
CONTINUOUS
10
5.33677
20
-2.94135
11
5.32977
21
-2.94135
0
LINE
8
BLACK
6
CONTINUOUS
10
5.32977
20
-2.94135
11
5.32293
21
-2.9399
0
LINE
8
BLACK
6
CONTINUOUS
10
5.32293
20
-2.9399
11
5.31654
21
-2.93705
0
LINE
8
BLACK
6
CONTINUOUS
10
5.31654
20
-2.93705
11
5.31088
21
-2.93294
0
LINE
8
BLACK
6
CONTINUOUS
10
5.31088
20
-2.93294
11
5.30619
21
-2.92774
0
LINE
8
BLACK
6
CONTINUOUS
10
5.30619
20
-2.92774
11
5.3027
21
-2.92168
0
LINE
8
BLACK
6
CONTINUOUS
10
5.3027
20
-2.92168
11
5.30053
21
-2.91503
0
LINE
8
BLACK
6
CONTINUOUS
10
5.30053
20
-2.91503
11
5.2998
21
-2.90807
0
LINE
8
BLACK
6
CONTINUOUS
10
5.2998
20
-2.90807
11
5.30053
21
-2.90111
0
LINE
8
BLACK
6
CONTINUOUS
10
5.30053
20
-2.90111
11
5.3027
21
-2.89446
0
LINE
8
BLACK
6
CONTINUOUS
10
5.3027
20
-2.89446
11
5.30619
21
-2.8884
0
LINE
8
BLACK
6
CONTINUOUS
10
5.30619
20
-2.8884
11
5.31088
21
-2.8832
0
LINE
8
BLACK
6
CONTINUOUS
10
5.31088
20
-2.8832
11
5.31654
21
-2.87909
0
LINE
8
BLACK
6
CONTINUOUS
10
5.31654
20
-2.87909
11
5.32293
21
-2.87624
0
LINE
8
BLACK
6
CONTINUOUS
10
5.32293
20
-2.87624
11
5.32977
21
-2.87479
0
LINE
8
BLACK
6
CONTINUOUS
10
5.32977
20
-2.87479
11
5.33677
21
-2.87479
0
LINE
8
BLACK
6
CONTINUOUS
10
5.33677
20
-2.87479
11
5.34361
21
-2.87624
0
LINE
8
BLACK
6
CONTINUOUS
10
5.24361
20
-2.87624
11
5.25
21
-2.87909
0
LINE
8
BLACK
6
CONTINUOUS
10
5.25
20
-2.87909
11
5.25566
21
-2.8832
0
LINE
8
BLACK
6
CONTINUOUS
10
5.25566
20
-2.8832
11
5.26034
21
-2.8884
0
LINE
8
BLACK
6
CONTINUOUS
10
5.26034
20
-2.8884
11
5.26384
21
-2.89446
0
LINE
8
BLACK
6
CONTINUOUS
10
5.26384
20
-2.89446
11
5.266
21
-2.90111
0
LINE
8
BLACK
6
CONTINUOUS
10
5.266
20
-2.90111
11
5.26673
21
-2.90807
0
LINE
8
BLACK
6
CONTINUOUS
10
5.26673
20
-2.90807
11
5.266
21
-2.91503
0
LINE
8
BLACK
6
CONTINUOUS
10
5.266
20
-2.91503
11
5.26384
21
-2.92168
0
LINE
8
BLACK
6
CONTINUOUS
10
5.26384
20
-2.92168
11
5.26034
21
-2.92774
0
LINE
8
BLACK
6
CONTINUOUS
10
5.26034
20
-2.92774
11
5.25566
21
-2.93294
0
LINE
8
BLACK
6
CONTINUOUS
10
5.25566
20
-2.93294
11
5.25
21
-2.93705
0
LINE
8
BLACK
6
CONTINUOUS
10
5.25
20
-2.93705
11
5.24361
21
-2.9399
0
LINE
8
BLACK
6
CONTINUOUS
10
5.24361
20
-2.9399
11
5.23677
21
-2.94135
0
LINE
8
BLACK
6
CONTINUOUS
10
5.23677
20
-2.94135
11
5.22977
21
-2.94135
0
LINE
8
BLACK
6
CONTINUOUS
10
5.22977
20
-2.94135
11
5.22293
21
-2.9399
0
LINE
8
BLACK
6
CONTINUOUS
10
5.22293
20
-2.9399
11
5.21654
21
-2.93705
0
LINE
8
BLACK
6
CONTINUOUS
10
5.21654
20
-2.93705
11
5.21088
21
-2.93294
0
LINE
8
BLACK
6
CONTINUOUS
10
5.21088
20
-2.93294
11
5.20619
21
-2.92774
0
LINE
8
BLACK
6
CONTINUOUS
10
5.20619
20
-2.92774
11
5.2027
21
-2.92168
0
LINE
8
BLACK
6
CONTINUOUS
10
5.2027
20
-2.92168
11
5.20053
21
-2.91503
0
LINE
8
BLACK
6
CONTINUOUS
10
5.20053
20
-2.91503
11
5.1998
21
-2.90807
0
LINE
8
BLACK
6
CONTINUOUS
10
5.1998
20
-2.90807
11
5.20053
21
-2.90111
0
LINE
8
BLACK
6
CONTINUOUS
10
5.20053
20
-2.90111
11
5.2027
21
-2.89446
0
LINE
8
BLACK
6
CONTINUOUS
10
5.2027
20
-2.89446
11
5.20619
21
-2.8884
0
LINE
8
BLACK
6
CONTINUOUS
10
5.20619
20
-2.8884
11
5.21088
21
-2.8832
0
LINE
8
BLACK
6
CONTINUOUS
10
5.21088
20
-2.8832
11
5.21654
21
-2.87909
0
LINE
8
BLACK
6
CONTINUOUS
10
5.21654
20
-2.87909
11
5.22293
21
-2.87624
0
LINE
8
BLACK
6
CONTINUOUS
10
5.22293
20
-2.87624
11
5.22977
21
-2.87479
0
LINE
8
BLACK
6
CONTINUOUS
10
5.22977
20
-2.87479
11
5.23677
21
-2.87479
0
LINE
8
BLACK
6
CONTINUOUS
10
5.23677
20
-2.87479
11
5.24361
21
-2.87624
0
LINE
8
BLACK
6
CONTINUOUS
10
5.82136
20
-2.84573
11
5.82776
21
-2.84858
0
LINE
8
BLACK
6
CONTINUOUS
10
5.82776
20
-2.84858
11
5.83342
21
-2.85269
0
LINE
8
BLACK
6
CONTINUOUS
10
5.83342
20
-2.85269
11
5.8381
21
-2.85789
0
LINE
8
BLACK
6
CONTINUOUS
10
5.8381
20
-2.85789
11
5.8416
21
-2.86395
0
LINE
8
BLACK
6
CONTINUOUS
10
5.8416
20
-2.86395
11
5.84376
21
-2.8706
0
LINE
8
BLACK
6
CONTINUOUS
10
5.84376
20
-2.8706
11
5.84449
21
-2.87756
0
LINE
8
BLACK
6
CONTINUOUS
10
5.84449
20
-2.87756
11
5.84376
21
-2.88452
0
LINE
8
BLACK
6
CONTINUOUS
10
5.84376
20
-2.88452
11
5.8416
21
-2.89117
0
LINE
8
BLACK
6
CONTINUOUS
10
5.8416
20
-2.89117
11
5.8381
21
-2.89723
0
LINE
8
BLACK
6
CONTINUOUS
10
5.8381
20
-2.89723
11
5.83342
21
-2.90243
0
LINE
8
BLACK
6
CONTINUOUS
10
5.83342
20
-2.90243
11
5.82776
21
-2.90654
0
LINE
8
BLACK
6
CONTINUOUS
10
5.82776
20
-2.90654
11
5.82136
21
-2.90939
0
LINE
8
BLACK
6
CONTINUOUS
10
5.82136
20
-2.90939
11
5.81452
21
-2.91084
0
LINE
8
BLACK
6
CONTINUOUS
10
5.81452
20
-2.91084
11
5.80753
21
-2.91084
0
LINE
8
BLACK
6
CONTINUOUS
10
5.80753
20
-2.91084
11
5.80068
21
-2.90939
0
LINE
8
BLACK
6
CONTINUOUS
10
5.80068
20
-2.90939
11
5.79429
21
-2.90654
0
LINE
8
BLACK
6
CONTINUOUS
10
5.79429
20
-2.90654
11
5.78863
21
-2.90243
0
LINE
8
BLACK
6
CONTINUOUS
10
5.78863
20
-2.90243
11
5.78395
21
-2.89723
0
LINE
8
BLACK
6
CONTINUOUS
10
5.78395
20
-2.89723
11
5.78045
21
-2.89117
0
LINE
8
BLACK
6
CONTINUOUS
10
5.78045
20
-2.89117
11
5.77829
21
-2.88452
0
LINE
8
BLACK
6
CONTINUOUS
10
5.77829
20
-2.88452
11
5.77756
21
-2.87756
0
LINE
8
BLACK
6
CONTINUOUS
10
5.77756
20
-2.87756
11
5.77829
21
-2.8706
0
LINE
8
BLACK
6
CONTINUOUS
10
5.77829
20
-2.8706
11
5.78045
21
-2.86395
0
LINE
8
BLACK
6
CONTINUOUS
10
5.78045
20
-2.86395
11
5.78395
21
-2.85789
0
LINE
8
BLACK
6
CONTINUOUS
10
5.78395
20
-2.85789
11
5.78863
21
-2.85269
0
LINE
8
BLACK
6
CONTINUOUS
10
5.78863
20
-2.85269
11
5.79429
21
-2.84858
0
LINE
8
BLACK
6
CONTINUOUS
10
5.79429
20
-2.84858
11
5.80068
21
-2.84573
0
LINE
8
BLACK
6
CONTINUOUS
10
5.80068
20
-2.84573
11
5.80753
21
-2.84428
0
LINE
8
BLACK
6
CONTINUOUS
10
5.80753
20
-2.84428
11
5.81452
21
-2.84428
0
LINE
8
BLACK
6
CONTINUOUS
10
5.81452
20
-2.84428
11
5.82136
21
-2.84573
0
LINE
8
BLACK
6
CONTINUOUS
10
5.26673
20
-2.84154
11
5.1998
21
-2.84154
0
LINE
8
BLACK
6
CONTINUOUS
10
5.1998
20
-2.84154
11
5.1998
21
-2.77461
0
LINE
8
BLACK
6
CONTINUOUS
10
5.1998
20
-2.77461
11
5.26673
21
-2.77461
0
LINE
8
BLACK
6
CONTINUOUS
10
5.26673
20
-2.77461
11
5.26673
21
-2.84154
0
LINE
8
BLACK
6
CONTINUOUS
10
5.34361
20
-2.77624
11
5.35
21
-2.77909
0
LINE
8
BLACK
6
CONTINUOUS
10
5.35
20
-2.77909
11
5.35566
21
-2.7832
0
LINE
8
BLACK
6
CONTINUOUS
10
5.35566
20
-2.7832
11
5.36034
21
-2.7884
0
LINE
8
BLACK
6
CONTINUOUS
10
5.36034
20
-2.7884
11
5.36384
21
-2.79446
0
LINE
8
BLACK
6
CONTINUOUS
10
5.36384
20
-2.79446
11
5.366
21
-2.80111
0
LINE
8
BLACK
6
CONTINUOUS
10
5.366
20
-2.80111
11
5.36673
21
-2.80807
0
LINE
8
BLACK
6
CONTINUOUS
10
5.36673
20
-2.80807
11
5.366
21
-2.81503
0
LINE
8
BLACK
6
CONTINUOUS
10
5.366
20
-2.81503
11
5.36384
21
-2.82168
0
LINE
8
BLACK
6
CONTINUOUS
10
5.36384
20
-2.82168
11
5.36034
21
-2.82774
0
LINE
8
BLACK
6
CONTINUOUS
10
5.36034
20
-2.82774
11
5.35566
21
-2.83294
0
LINE
8
BLACK
6
CONTINUOUS
10
5.35566
20
-2.83294
11
5.35
21
-2.83705
0
LINE
8
BLACK
6
CONTINUOUS
10
5.35
20
-2.83705
11
5.34361
21
-2.8399
0
LINE
8
BLACK
6
CONTINUOUS
10
5.34361
20
-2.8399
11
5.33677
21
-2.84135
0
LINE
8
BLACK
6
CONTINUOUS
10
5.33677
20
-2.84135
11
5.32977
21
-2.84135
0
LINE
8
BLACK
6
CONTINUOUS
10
5.32977
20
-2.84135
11
5.32293
21
-2.8399
0
LINE
8
BLACK
6
CONTINUOUS
10
5.32293
20
-2.8399
11
5.31654
21
-2.83705
0
LINE
8
BLACK
6
CONTINUOUS
10
5.31654
20
-2.83705
11
5.31088
21
-2.83294
0
LINE
8
BLACK
6
CONTINUOUS
10
5.31088
20
-2.83294
11
5.30619
21
-2.82774
0
LINE
8
BLACK
6
CONTINUOUS
10
5.30619
20
-2.82774
11
5.3027
21
-2.82168
0
LINE
8
BLACK
6
CONTINUOUS
10
5.3027
20
-2.82168
11
5.30053
21
-2.81503
0
LINE
8
BLACK
6
CONTINUOUS
10
5.30053
20
-2.81503
11
5.2998
21
-2.80807
0
LINE
8
BLACK
6
CONTINUOUS
10
5.2998
20
-2.80807
11
5.30053
21
-2.80111
0
LINE
8
BLACK
6
CONTINUOUS
10
5.30053
20
-2.80111
11
5.3027
21
-2.79446
0
LINE
8
BLACK
6
CONTINUOUS
10
5.3027
20
-2.79446
11
5.30619
21
-2.7884
0
LINE
8
BLACK
6
CONTINUOUS
10
5.30619
20
-2.7884
11
5.31088
21
-2.7832
0
LINE
8
BLACK
6
CONTINUOUS
10
5.31088
20
-2.7832
11
5.31654
21
-2.77909
0
LINE
8
BLACK
6
CONTINUOUS
10
5.31654
20
-2.77909
11
5.32293
21
-2.77624
0
LINE
8
BLACK
6
CONTINUOUS
10
5.32293
20
-2.77624
11
5.32977
21
-2.77479
0
LINE
8
BLACK
6
CONTINUOUS
10
5.32977
20
-2.77479
11
5.33677
21
-2.77479
0
LINE
8
BLACK
6
CONTINUOUS
10
5.33677
20
-2.77479
11
5.34361
21
-2.77624
0
LINE
8
BLACK
6
CONTINUOUS
10
5.84449
20
-2.81102
11
5.77756
21
-2.81102
0
LINE
8
BLACK
6
CONTINUOUS
10
5.77756
20
-2.81102
11
5.77756
21
-2.74409
0
LINE
8
BLACK
6
CONTINUOUS
10
5.77756
20
-2.74409
11
5.84449
21
-2.74409
0
LINE
8
BLACK
6
CONTINUOUS
10
5.84449
20
-2.74409
11
5.84449
21
-2.81102
0
LINE
8
BLACK
6
CONTINUOUS
10
4.02613
20
-3.23577
11
3.96904
21
-3.18551
0
LINE
8
BLACK
6
CONTINUOUS
10
3.96904
20
-3.18551
11
3.9685
21
-3.18504
0
LINE
8
BLACK
6
CONTINUOUS
10
3.9685
20
-3.18504
11
3.64669
21
-3.18504
0
LINE
8
BLACK
6
CONTINUOUS
10
3.64669
20
-3.18504
11
3.64401
21
-3.18425
0
LINE
8
BLACK
6
CONTINUOUS
10
3.64401
20
-3.18425
11
3.64218
21
-3.18214
0
LINE
8
BLACK
6
CONTINUOUS
10
3.64218
20
-3.18214
11
3.64173
21
-3.18008
0
LINE
8
BLACK
6
CONTINUOUS
10
3.64173
20
-3.18008
11
3.64173
21
-2.70315
0
LINE
8
BLACK
6
CONTINUOUS
10
3.64173
20
-2.70315
11
3.64252
21
-2.70047
0
LINE
8
BLACK
6
CONTINUOUS
10
3.64252
20
-2.70047
11
3.64357
21
-2.6993
0
LINE
8
BLACK
6
CONTINUOUS
10
3.64357
20
-2.6993
11
4.03407
21
-2.383
0
LINE
8
BLACK
6
CONTINUOUS
10
4.03407
20
-2.383
11
4.03665
21
-2.38192
0
LINE
8
BLACK
6
CONTINUOUS
10
4.03665
20
-2.38192
11
4.03719
21
-2.38189
0
LINE
8
BLACK
6
CONTINUOUS
10
4.03719
20
-2.38189
11
4.62413
21
-2.38189
0
LINE
8
BLACK
6
CONTINUOUS
10
4.62413
20
-2.38189
11
4.62681
21
-2.38268
0
LINE
8
BLACK
6
CONTINUOUS
10
4.62681
20
-2.38268
11
4.62738
21
-2.38311
0
LINE
8
BLACK
6
CONTINUOUS
10
4.62738
20
-2.38311
11
4.95893
21
-2.67175
0
LINE
8
BLACK
6
CONTINUOUS
10
4.95893
20
-2.67175
11
4.96043
21
-2.6741
0
LINE
8
BLACK
6
CONTINUOUS
10
4.96043
20
-2.6741
11
4.96063
21
-2.67549
0
LINE
8
BLACK
6
CONTINUOUS
10
4.96063
20
-2.67549
11
4.96063
21
-2.79921
0
LINE
8
BLACK
6
CONTINUOUS
10
4.96063
20
-2.79921
11
4.96092
21
-2.79948
0
LINE
8
BLACK
6
CONTINUOUS
10
4.96092
20
-2.79948
11
4.96092
21
-2.79948
0
LINE
8
BLACK
6
CONTINUOUS
10
4.96092
20
-2.79948
11
5.00627
21
-2.84105
0
LINE
8
BLACK
6
CONTINUOUS
10
5.00627
20
-2.84105
11
5.00771
21
-2.84344
0
LINE
8
BLACK
6
CONTINUOUS
10
5.00771
20
-2.84344
11
5.00787
21
-2.8447
0
LINE
8
BLACK
6
CONTINUOUS
10
5.00787
20
-2.8447
11
5.00787
21
-3.24626
0
LINE
8
BLACK
6
CONTINUOUS
10
5.00787
20
-3.24626
11
5.00709
21
-3.24895
0
LINE
8
BLACK
6
CONTINUOUS
10
5.00709
20
-3.24895
11
5.00676
21
-3.2494
0
LINE
8
BLACK
6
CONTINUOUS
10
5.00676
20
-3.2494
11
4.73794
21
-3.5788
0
LINE
8
BLACK
6
CONTINUOUS
10
4.73794
20
-3.5788
11
4.72984
21
-3.58873
0
LINE
8
BLACK
6
CONTINUOUS
10
4.72984
20
-3.58873
11
4.72753
21
-3.59031
0
LINE
8
BLACK
6
CONTINUOUS
10
4.72753
20
-3.59031
11
4.72599
21
-3.59055
0
LINE
8
BLACK
6
CONTINUOUS
10
4.72599
20
-3.59055
11
4.43101
21
-3.59055
0
LINE
8
BLACK
6
CONTINUOUS
10
4.43101
20
-3.59055
11
4.42832
21
-3.58976
0
LINE
8
BLACK
6
CONTINUOUS
10
4.42832
20
-3.58976
11
4.42773
21
-3.58931
0
LINE
8
BLACK
6
CONTINUOUS
10
4.42773
20
-3.58931
11
4.35341
21
-3.52389
0
LINE
8
BLACK
6
CONTINUOUS
10
4.35341
20
-3.52389
11
4.09769
21
-3.29877
0
LINE
8
BLACK
6
CONTINUOUS
10
4.09769
20
-3.29877
11
4.02613
21
-3.23577
0
LINE
8
BLACK
6
CONTINUOUS
10
4.56053
20
-3.52409
11
4.56102
21
-3.53246
0
LINE
8
BLACK
6
CONTINUOUS
10
4.56102
20
-3.53246
11
4.56103
21
-3.53267
0
LINE
8
BLACK
6
CONTINUOUS
10
4.56103
20
-3.53267
11
4.56107
21
-3.53286
0
LINE
8
BLACK
6
CONTINUOUS
10
4.56107
20
-3.53286
11
4.56107
21
-3.53286
0
LINE
8
BLACK
6
CONTINUOUS
10
4.56107
20
-3.53286
11
4.56186
21
-3.53634
0
LINE
8
BLACK
6
CONTINUOUS
10
4.56186
20
-3.53634
11
4.56296
21
-3.54125
0
LINE
8
BLACK
6
CONTINUOUS
10
4.56296
20
-3.54125
11
4.56627
21
-3.54939
0
LINE
8
BLACK
6
CONTINUOUS
10
4.56627
20
-3.54939
11
4.57087
21
-3.55689
0
LINE
8
BLACK
6
CONTINUOUS
10
4.57087
20
-3.55689
11
4.57662
21
-3.56354
0
LINE
8
BLACK
6
CONTINUOUS
10
4.57662
20
-3.56354
11
4.58339
21
-3.56916
0
LINE
8
BLACK
6
CONTINUOUS
10
4.58339
20
-3.56916
11
4.59098
21
-3.5736
0
LINE
8
BLACK
6
CONTINUOUS
10
4.59098
20
-3.5736
11
4.5992
21
-3.57673
0
LINE
8
BLACK
6
CONTINUOUS
10
4.5992
20
-3.57673
11
4.5994
21
-3.57677
0
LINE
8
BLACK
6
CONTINUOUS
10
4.5994
20
-3.57677
11
4.5994
21
-3.57677
0
LINE
8
BLACK
6
CONTINUOUS
10
4.5994
20
-3.57677
11
4.60362
21
-3.57763
0
LINE
8
BLACK
6
CONTINUOUS
10
4.60362
20
-3.57763
11
4.60782
21
-3.57849
0
LINE
8
BLACK
6
CONTINUOUS
10
4.60782
20
-3.57849
11
4.60802
21
-3.57849
0
LINE
8
BLACK
6
CONTINUOUS
10
4.60802
20
-3.57849
11
4.60802
21
-3.57849
0
LINE
8
BLACK
6
CONTINUOUS
10
4.60802
20
-3.57849
11
4.6164
21
-3.5788
0
LINE
8
BLACK
6
CONTINUOUS
10
4.6164
20
-3.5788
11
4.6164
21
-3.5788
0
LINE
8
BLACK
6
CONTINUOUS
10
4.6164
20
-3.5788
11
4.61661
21
-3.57881
0
LINE
8
BLACK
6
CONTINUOUS
10
4.61661
20
-3.57881
11
4.61681
21
-3.57878
0
LINE
8
BLACK
6
CONTINUOUS
10
4.61681
20
-3.57878
11
4.61681
21
-3.57878
0
LINE
8
BLACK
6
CONTINUOUS
10
4.61681
20
-3.57878
11
4.62513
21
-3.57772
0
LINE
8
BLACK
6
CONTINUOUS
10
4.62513
20
-3.57772
11
4.62513
21
-3.57772
0
LINE
8
BLACK
6
CONTINUOUS
10
4.62513
20
-3.57772
11
4.62533
21
-3.57769
0
LINE
8
BLACK
6
CONTINUOUS
10
4.62533
20
-3.57769
11
4.62553
21
-3.57763
0
LINE
8
BLACK
6
CONTINUOUS
10
4.62553
20
-3.57763
11
4.63356
21
-3.57522
0
LINE
8
BLACK
6
CONTINUOUS
10
4.63356
20
-3.57522
11
4.63356
21
-3.57522
0
LINE
8
BLACK
6
CONTINUOUS
10
4.63356
20
-3.57522
11
4.63376
21
-3.57516
0
LINE
8
BLACK
6
CONTINUOUS
10
4.63376
20
-3.57516
11
4.64165
21
-3.5713
0
LINE
8
BLACK
6
CONTINUOUS
10
4.64165
20
-3.5713
11
4.64881
21
-3.56619
0
LINE
8
BLACK
6
CONTINUOUS
10
4.64881
20
-3.56619
11
4.65504
21
-3.55998
0
LINE
8
BLACK
6
CONTINUOUS
10
4.65504
20
-3.55998
11
4.65739
21
-3.55672
0
LINE
8
BLACK
6
CONTINUOUS
10
4.65739
20
-3.55672
11
4.66006
21
-3.553
0
LINE
8
BLACK
6
CONTINUOUS
10
4.66006
20
-3.553
11
4.66018
21
-3.55284
0
LINE
8
BLACK
6
CONTINUOUS
10
4.66018
20
-3.55284
11
4.66407
21
-3.54495
0
LINE
8
BLACK
6
CONTINUOUS
10
4.66407
20
-3.54495
11
4.66663
21
-3.53654
0
LINE
8
BLACK
6
CONTINUOUS
10
4.66663
20
-3.53654
11
4.66778
21
-3.52782
0
LINE
8
BLACK
6
CONTINUOUS
10
4.66778
20
-3.52782
11
4.66784
21
-3.5252
0
LINE
8
BLACK
6
CONTINUOUS
10
4.66784
20
-3.5252
11
4.66712
21
-3.51643
0
LINE
8
BLACK
6
CONTINUOUS
10
4.66712
20
-3.51643
11
4.66498
21
-3.5079
0
LINE
8
BLACK
6
CONTINUOUS
10
4.66498
20
-3.5079
11
4.66147
21
-3.49984
0
LINE
8
BLACK
6
CONTINUOUS
10
4.66147
20
-3.49984
11
4.65669
21
-3.49245
0
LINE
8
BLACK
6
CONTINUOUS
10
4.65669
20
-3.49245
11
4.65656
21
-3.4923
0
LINE
8
BLACK
6
CONTINUOUS
10
4.65656
20
-3.4923
11
4.6509
21
-3.48608
0
LINE
8
BLACK
6
CONTINUOUS
10
4.6509
20
-3.48608
11
4.64968
21
-3.48357
0
LINE
8
BLACK
6
CONTINUOUS
10
4.64968
20
-3.48357
11
4.65001
21
-3.48079
0
LINE
8
BLACK
6
CONTINUOUS
10
4.65001
20
-3.48079
11
4.65178
21
-3.47864
0
LINE
8
BLACK
6
CONTINUOUS
10
4.65178
20
-3.47864
11
4.65283
21
-3.4781
0
LINE
8
BLACK
6
CONTINUOUS
10
4.65283
20
-3.4781
11
4.65702
21
-3.47653
0
LINE
8
BLACK
6
CONTINUOUS
10
4.65702
20
-3.47653
11
4.65735
21
-3.4764
0
LINE
8
BLACK
6
CONTINUOUS
10
4.65735
20
-3.4764
11
4.66194
21
-3.47296
0
LINE
8
BLACK
6
CONTINUOUS
10
4.66194
20
-3.47296
11
4.66538
21
-3.46837
0
LINE
8
BLACK
6
CONTINUOUS
10
4.66538
20
-3.46837
11
4.66739
21
-3.463
0
LINE
8
BLACK
6
CONTINUOUS
10
4.66739
20
-3.463
11
4.66766
21
-3.46056
0
LINE
8
BLACK
6
CONTINUOUS
10
4.66766
20
-3.46056
11
4.66766
21
-3.38984
0
LINE
8
BLACK
6
CONTINUOUS
10
4.66766
20
-3.38984
11
4.66739
21
-3.38739
0
LINE
8
BLACK
6
CONTINUOUS
10
4.66739
20
-3.38739
11
4.66538
21
-3.38202
0
LINE
8
BLACK
6
CONTINUOUS
10
4.66538
20
-3.38202
11
4.66194
21
-3.37743
0
LINE
8
BLACK
6
CONTINUOUS
10
4.66194
20
-3.37743
11
4.65735
21
-3.37399
0
LINE
8
BLACK
6
CONTINUOUS
10
4.65735
20
-3.37399
11
4.65198
21
-3.37198
0
LINE
8
BLACK
6
CONTINUOUS
10
4.65198
20
-3.37198
11
4.64953
21
-3.37171
0
LINE
8
BLACK
6
CONTINUOUS
10
4.64953
20
-3.37171
11
4.57881
21
-3.37171
0
LINE
8
BLACK
6
CONTINUOUS
10
4.57881
20
-3.37171
11
4.57637
21
-3.37198
0
LINE
8
BLACK
6
CONTINUOUS
10
4.57637
20
-3.37198
11
4.571
21
-3.37399
0
LINE
8
BLACK
6
CONTINUOUS
10
4.571
20
-3.37399
11
4.56641
21
-3.37743
0
LINE
8
BLACK
6
CONTINUOUS
10
4.56641
20
-3.37743
11
4.56297
21
-3.38202
0
LINE
8
BLACK
6
CONTINUOUS
10
4.56297
20
-3.38202
11
4.56095
21
-3.38739
0
LINE
8
BLACK
6
CONTINUOUS
10
4.56095
20
-3.38739
11
4.56069
21
-3.38984
0
LINE
8
BLACK
6
CONTINUOUS
10
4.56069
20
-3.38984
11
4.56069
21
-3.46056
0
LINE
8
BLACK
6
CONTINUOUS
10
4.56069
20
-3.46056
11
4.56095
21
-3.463
0
LINE
8
BLACK
6
CONTINUOUS
10
4.56095
20
-3.463
11
4.56297
21
-3.46837
0
LINE
8
BLACK
6
CONTINUOUS
10
4.56297
20
-3.46837
11
4.56641
21
-3.47296
0
LINE
8
BLACK
6
CONTINUOUS
10
4.56641
20
-3.47296
11
4.571
21
-3.4764
0
LINE
8
BLACK
6
CONTINUOUS
10
4.571
20
-3.4764
11
4.57133
21
-3.47653
0
LINE
8
BLACK
6
CONTINUOUS
10
4.57133
20
-3.47653
11
4.57133
21
-3.47653
0
LINE
8
BLACK
6
CONTINUOUS
10
4.57133
20
-3.47653
11
4.57561
21
-3.47813
0
LINE
8
BLACK
6
CONTINUOUS
10
4.57561
20
-3.47813
11
4.57784
21
-3.47981
0
LINE
8
BLACK
6
CONTINUOUS
10
4.57784
20
-3.47981
11
4.57882
21
-3.48243
0
LINE
8
BLACK
6
CONTINUOUS
10
4.57882
20
-3.48243
11
4.57822
21
-3.48516
0
LINE
8
BLACK
6
CONTINUOUS
10
4.57822
20
-3.48516
11
4.57745
21
-3.4862
0
LINE
8
BLACK
6
CONTINUOUS
10
4.57745
20
-3.4862
11
4.57247
21
-3.49142
0
LINE
8
BLACK
6
CONTINUOUS
10
4.57247
20
-3.49142
11
4.56751
21
-3.49869
0
LINE
8
BLACK
6
CONTINUOUS
10
4.56751
20
-3.49869
11
4.56689
21
-3.50002
0
LINE
8
BLACK
6
CONTINUOUS
10
4.56689
20
-3.50002
11
4.5639
21
-3.50646
0
LINE
8
BLACK
6
CONTINUOUS
10
4.5639
20
-3.50646
11
4.56381
21
-3.50667
0
LINE
8
BLACK
6
CONTINUOUS
10
4.56381
20
-3.50667
11
4.56146
21
-3.51514
0
LINE
8
BLACK
6
CONTINUOUS
10
4.56146
20
-3.51514
11
4.56052
21
-3.52389
0
LINE
8
BLACK
6
CONTINUOUS
10
4.56052
20
-3.52389
11
4.56053
21
-3.52409
0
LINE
8
BLACK
6
CONTINUOUS
10
4.56053
20
-3.52409
11
4.56053
21
-3.52409
0
LINE
8
BLACK
6
CONTINUOUS
10
4.25439
20
-3.31265
11
4.25453
21
-3.31289
0
LINE
8
BLACK
6
CONTINUOUS
10
4.25453
20
-3.31289
11
4.25453
21
-3.31289
0
LINE
8
BLACK
6
CONTINUOUS
10
4.25453
20
-3.31289
11
4.25496
21
-3.3136
0
LINE
8
BLACK
6
CONTINUOUS
10
4.25496
20
-3.3136
11
4.25809
21
-3.31876
0
LINE
8
BLACK
6
CONTINUOUS
10
4.25809
20
-3.31876
11
4.26305
21
-3.32389
0
LINE
8
BLACK
6
CONTINUOUS
10
4.26305
20
-3.32389
11
4.26902
21
-3.3278
0
LINE
8
BLACK
6
CONTINUOUS
10
4.26902
20
-3.3278
11
4.26928
21
-3.3279
0
LINE
8
BLACK
6
CONTINUOUS
10
4.26928
20
-3.3279
11
4.26928
21
-3.3279
0
LINE
8
BLACK
6
CONTINUOUS
10
4.26928
20
-3.3279
11
4.27546
21
-3.3302
0
LINE
8
BLACK
6
CONTINUOUS
10
4.27546
20
-3.3302
11
4.27546
21
-3.3302
0
LINE
8
BLACK
6
CONTINUOUS
10
4.27546
20
-3.3302
11
4.27572
21
-3.33029
0
LINE
8
BLACK
6
CONTINUOUS
10
4.27572
20
-3.33029
11
4.27902
21
-3.33073
0
LINE
8
BLACK
6
CONTINUOUS
10
4.27902
20
-3.33073
11
4.28252
21
-3.3312
0
LINE
8
BLACK
6
CONTINUOUS
10
4.28252
20
-3.3312
11
4.28252
21
-3.3312
0
LINE
8
BLACK
6
CONTINUOUS
10
4.28252
20
-3.3312
11
4.28279
21
-3.33124
0
LINE
8
BLACK
6
CONTINUOUS
10
4.28279
20
-3.33124
11
4.28307
21
-3.33121
0
LINE
8
BLACK
6
CONTINUOUS
10
4.28307
20
-3.33121
11
4.28307
21
-3.33121
0
LINE
8
BLACK
6
CONTINUOUS
10
4.28307
20
-3.33121
11
4.28868
21
-3.3307
0
LINE
8
BLACK
6
CONTINUOUS
10
4.28868
20
-3.3307
11
4.28991
21
-3.33059
0
LINE
8
BLACK
6
CONTINUOUS
10
4.28991
20
-3.33059
11
4.29017
21
-3.3305
0
LINE
8
BLACK
6
CONTINUOUS
10
4.29017
20
-3.3305
11
4.29017
21
-3.3305
0
LINE
8
BLACK
6
CONTINUOUS
10
4.29017
20
-3.3305
11
4.29643
21
-3.32847
0
LINE
8
BLACK
6
CONTINUOUS
10
4.29643
20
-3.32847
11
4.29643
21
-3.32847
0
LINE
8
BLACK
6
CONTINUOUS
10
4.29643
20
-3.32847
11
4.2967
21
-3.32838
0
LINE
8
BLACK
6
CONTINUOUS
10
4.2967
20
-3.32838
11
4.30283
21
-3.32473
0
LINE
8
BLACK
6
CONTINUOUS
10
4.30283
20
-3.32473
11
4.308
21
-3.3198
0
LINE
8
BLACK
6
CONTINUOUS
10
4.308
20
-3.3198
11
4.31195
21
-3.31385
0
LINE
8
BLACK
6
CONTINUOUS
10
4.31195
20
-3.31385
11
4.31449
21
-3.30718
0
LINE
8
BLACK
6
CONTINUOUS
10
4.31449
20
-3.30718
11
4.31453
21
-3.3069
0
LINE
8
BLACK
6
CONTINUOUS
10
4.31453
20
-3.3069
11
4.31546
21
-3.30026
0
LINE
8
BLACK
6
CONTINUOUS
10
4.31546
20
-3.30026
11
4.31546
21
-3.30026
0
LINE
8
BLACK
6
CONTINUOUS
10
4.31546
20
-3.30026
11
4.31548
21
-3.30011
0
LINE
8
BLACK
6
CONTINUOUS
10
4.31548
20
-3.30011
11
4.3155
21
-3.29921
0
LINE
8
BLACK
6
CONTINUOUS
10
4.3155
20
-3.29921
11
4.3147
21
-3.29212
0
LINE
8
BLACK
6
CONTINUOUS
10
4.3147
20
-3.29212
11
4.31461
21
-3.29185
0
LINE
8
BLACK
6
CONTINUOUS
10
4.31461
20
-3.29185
11
4.31244
21
-3.28563
0
LINE
8
BLACK
6
CONTINUOUS
10
4.31244
20
-3.28563
11
4.31244
21
-3.28563
0
LINE
8
BLACK
6
CONTINUOUS
10
4.31244
20
-3.28563
11
4.31235
21
-3.28537
0
LINE
8
BLACK
6
CONTINUOUS
10
4.31235
20
-3.28537
11
4.30857
21
-3.27932
0
LINE
8
BLACK
6
CONTINUOUS
10
4.30857
20
-3.27932
11
4.30803
21
-3.27877
0
LINE
8
BLACK
6
CONTINUOUS
10
4.30803
20
-3.27877
11
4.30373
21
-3.27445
0
LINE
8
BLACK
6
CONTINUOUS
10
4.30373
20
-3.27445
11
4.30373
21
-3.27445
0
LINE
8
BLACK
6
CONTINUOUS
10
4.30373
20
-3.27445
11
4.30354
21
-3.27425
0
LINE
8
BLACK
6
CONTINUOUS
10
4.30354
20
-3.27425
11
4.3031
21
-3.27397
0
LINE
8
BLACK
6
CONTINUOUS
10
4.3031
20
-3.27397
11
4.3012
21
-3.27277
0
LINE
8
BLACK
6
CONTINUOUS
10
4.3012
20
-3.27277
11
4.29751
21
-3.27042
0
LINE
8
BLACK
6
CONTINUOUS
10
4.29751
20
-3.27042
11
4.29636
21
-3.27001
0
LINE
8
BLACK
6
CONTINUOUS
10
4.29636
20
-3.27001
11
4.29104
21
-3.26812
0
LINE
8
BLACK
6
CONTINUOUS
10
4.29104
20
-3.26812
11
4.29104
21
-3.26812
0
LINE
8
BLACK
6
CONTINUOUS
10
4.29104
20
-3.26812
11
4.29078
21
-3.26803
0
LINE
8
BLACK
6
CONTINUOUS
10
4.29078
20
-3.26803
11
4.2905
21
-3.26799
0
LINE
8
BLACK
6
CONTINUOUS
10
4.2905
20
-3.26799
11
4.2905
21
-3.26799
0
LINE
8
BLACK
6
CONTINUOUS
10
4.2905
20
-3.26799
11
4.285
21
-3.26734
0
LINE
8
BLACK
6
CONTINUOUS
10
4.285
20
-3.26734
11
4.28369
21
-3.26718
0
LINE
8
BLACK
6
CONTINUOUS
10
4.28369
20
-3.26718
11
4.28341
21
-3.26721
0
LINE
8
BLACK
6
CONTINUOUS
10
4.28341
20
-3.26721
11
4.28341
21
-3.26721
0
LINE
8
BLACK
6
CONTINUOUS
10
4.28341
20
-3.26721
11
4.27686
21
-3.2679
0
LINE
8
BLACK
6
CONTINUOUS
10
4.27686
20
-3.2679
11
4.27686
21
-3.2679
0
LINE
8
BLACK
6
CONTINUOUS
10
4.27686
20
-3.2679
11
4.27659
21
-3.26793
0
LINE
8
BLACK
6
CONTINUOUS
10
4.27659
20
-3.26793
11
4.26983
21
-3.27023
0
LINE
8
BLACK
6
CONTINUOUS
10
4.26983
20
-3.27023
11
4.26959
21
-3.27037
0
LINE
8
BLACK
6
CONTINUOUS
10
4.26959
20
-3.27037
11
4.26398
21
-3.27383
0
LINE
8
BLACK
6
CONTINUOUS
10
4.26398
20
-3.27383
11
4.26398
21
-3.27383
0
LINE
8
BLACK
6
CONTINUOUS
10
4.26398
20
-3.27383
11
4.26374
21
-3.27397
0
LINE
8
BLACK
6
CONTINUOUS
10
4.26374
20
-3.27397
11
4.26355
21
-3.27417
0
LINE
8
BLACK
6
CONTINUOUS
10
4.26355
20
-3.27417
11
4.26355
21
-3.27417
0
LINE
8
BLACK
6
CONTINUOUS
10
4.26355
20
-3.27417
11
4.25884
21
-3.27877
0
LINE
8
BLACK
6
CONTINUOUS
10
4.25884
20
-3.27877
11
4.25864
21
-3.27897
0
LINE
8
BLACK
6
CONTINUOUS
10
4.25864
20
-3.27897
11
4.25477
21
-3.28497
0
LINE
8
BLACK
6
CONTINUOUS
10
4.25477
20
-3.28497
11
4.25468
21
-3.28523
0
LINE
8
BLACK
6
CONTINUOUS
10
4.25468
20
-3.28523
11
4.25468
21
-3.28523
0
LINE
8
BLACK
6
CONTINUOUS
10
4.25468
20
-3.28523
11
4.25243
21
-3.29142
0
LINE
8
BLACK
6
CONTINUOUS
10
4.25243
20
-3.29142
11
4.25233
21
-3.29168
0
LINE
8
BLACK
6
CONTINUOUS
10
4.25233
20
-3.29168
11
4.25144
21
-3.29877
0
LINE
8
BLACK
6
CONTINUOUS
10
4.25144
20
-3.29877
11
4.25213
21
-3.30587
0
LINE
8
BLACK
6
CONTINUOUS
10
4.25213
20
-3.30587
11
4.25439
21
-3.31265
0
LINE
8
BLACK
6
CONTINUOUS
10
4.72387
20
-3.1681
11
4.72387
21
-3.1681
0
LINE
8
BLACK
6
CONTINUOUS
10
4.72387
20
-3.1681
11
4.72414
21
-3.16932
0
LINE
8
BLACK
6
CONTINUOUS
10
4.72414
20
-3.16932
11
4.72576
21
-3.17648
0
LINE
8
BLACK
6
CONTINUOUS
10
4.72576
20
-3.17648
11
4.72722
21
-3.18008
0
LINE
8
BLACK
6
CONTINUOUS
10
4.72722
20
-3.18008
11
4.72891
21
-3.18425
0
LINE
8
BLACK
6
CONTINUOUS
10
4.72891
20
-3.18425
11
4.72907
21
-3.18463
0
LINE
8
BLACK
6
CONTINUOUS
10
4.72907
20
-3.18463
11
4.73366
21
-3.19213
0
LINE
8
BLACK
6
CONTINUOUS
10
4.73366
20
-3.19213
11
4.73942
21
-3.19878
0
LINE
8
BLACK
6
CONTINUOUS
10
4.73942
20
-3.19878
11
4.74619
21
-3.20439
0
LINE
8
BLACK
6
CONTINUOUS
10
4.74619
20
-3.20439
11
4.75378
21
-3.20883
0
LINE
8
BLACK
6
CONTINUOUS
10
4.75378
20
-3.20883
11
4.762
21
-3.21197
0
LINE
8
BLACK
6
CONTINUOUS
10
4.762
20
-3.21197
11
4.7622
21
-3.21201
0
LINE
8
BLACK
6
CONTINUOUS
10
4.7622
20
-3.21201
11
4.7622
21
-3.21201
0
LINE
8
BLACK
6
CONTINUOUS
10
4.7622
20
-3.21201
11
4.76642
21
-3.21287
0
LINE
8
BLACK
6
CONTINUOUS
10
4.76642
20
-3.21287
11
4.77061
21
-3.21372
0
LINE
8
BLACK
6
CONTINUOUS
10
4.77061
20
-3.21372
11
4.77082
21
-3.21373
0
LINE
8
BLACK
6
CONTINUOUS
10
4.77082
20
-3.21373
11
4.77082
21
-3.21373
0
LINE
8
BLACK
6
CONTINUOUS
10
4.77082
20
-3.21373
11
4.7792
21
-3.21404
0
LINE
8
BLACK
6
CONTINUOUS
10
4.7792
20
-3.21404
11
4.7792
21
-3.21404
0
LINE
8
BLACK
6
CONTINUOUS
10
4.7792
20
-3.21404
11
4.7794
21
-3.21405
0
LINE
8
BLACK
6
CONTINUOUS
10
4.7794
20
-3.21405
11
4.7796
21
-3.21402
0
LINE
8
BLACK
6
CONTINUOUS
10
4.7796
20
-3.21402
11
4.7796
21
-3.21402
0
LINE
8
BLACK
6
CONTINUOUS
10
4.7796
20
-3.21402
11
4.78792
21
-3.21295
0
LINE
8
BLACK
6
CONTINUOUS
10
4.78792
20
-3.21295
11
4.78792
21
-3.21295
0
LINE
8
BLACK
6
CONTINUOUS
10
4.78792
20
-3.21295
11
4.78813
21
-3.21293
0
LINE
8
BLACK
6
CONTINUOUS
10
4.78813
20
-3.21293
11
4.78832
21
-3.21287
0
LINE
8
BLACK
6
CONTINUOUS
10
4.78832
20
-3.21287
11
4.79636
21
-3.21046
0
LINE
8
BLACK
6
CONTINUOUS
10
4.79636
20
-3.21046
11
4.79636
21
-3.21046
0
LINE
8
BLACK
6
CONTINUOUS
10
4.79636
20
-3.21046
11
4.79655
21
-3.2104
0
LINE
8
BLACK
6
CONTINUOUS
10
4.79655
20
-3.2104
11
4.80445
21
-3.20653
0
LINE
8
BLACK
6
CONTINUOUS
10
4.80445
20
-3.20653
11
4.81161
21
-3.20142
0
LINE
8
BLACK
6
CONTINUOUS
10
4.81161
20
-3.20142
11
4.81587
21
-3.19718
0
LINE
8
BLACK
6
CONTINUOUS
10
4.81587
20
-3.19718
11
4.81833
21
-3.19584
0
LINE
8
BLACK
6
CONTINUOUS
10
4.81833
20
-3.19584
11
4.82111
21
-3.19605
0
LINE
8
BLACK
6
CONTINUOUS
10
4.82111
20
-3.19605
11
4.82335
21
-3.19773
0
LINE
8
BLACK
6
CONTINUOUS
10
4.82335
20
-3.19773
11
4.82402
21
-3.19895
0
LINE
8
BLACK
6
CONTINUOUS
10
4.82402
20
-3.19895
11
4.82576
21
-3.20361
0
LINE
8
BLACK
6
CONTINUOUS
10
4.82576
20
-3.20361
11
4.8292
21
-3.2082
0
LINE
8
BLACK
6
CONTINUOUS
10
4.8292
20
-3.2082
11
4.83379
21
-3.21164
0
LINE
8
BLACK
6
CONTINUOUS
10
4.83379
20
-3.21164
11
4.83916
21
-3.21365
0
LINE
8
BLACK
6
CONTINUOUS
10
4.83916
20
-3.21365
11
4.84161
21
-3.21392
0
LINE
8
BLACK
6
CONTINUOUS
10
4.84161
20
-3.21392
11
4.91233
21
-3.21392
0
LINE
8
BLACK
6
CONTINUOUS
10
4.91233
20
-3.21392
11
4.91478
21
-3.21365
0
LINE
8
BLACK
6
CONTINUOUS
10
4.91478
20
-3.21365
11
4.92015
21
-3.21164
0
LINE
8
BLACK
6
CONTINUOUS
10
4.92015
20
-3.21164
11
4.92473
21
-3.2082
0
LINE
8
BLACK
6
CONTINUOUS
10
4.92473
20
-3.2082
11
4.92817
21
-3.20361
0
LINE
8
BLACK
6
CONTINUOUS
10
4.92817
20
-3.20361
11
4.93019
21
-3.19824
0
LINE
8
BLACK
6
CONTINUOUS
10
4.93019
20
-3.19824
11
4.93045
21
-3.19579
0
LINE
8
BLACK
6
CONTINUOUS
10
4.93045
20
-3.19579
11
4.93045
21
-3.12507
0
LINE
8
BLACK
6
CONTINUOUS
10
4.93045
20
-3.12507
11
4.93019
21
-3.12263
0
LINE
8
BLACK
6
CONTINUOUS
10
4.93019
20
-3.12263
11
4.92817
21
-3.11726
0
LINE
8
BLACK
6
CONTINUOUS
10
4.92817
20
-3.11726
11
4.92473
21
-3.11267
0
LINE
8
BLACK
6
CONTINUOUS
10
4.92473
20
-3.11267
11
4.92015
21
-3.10923
0
LINE
8
BLACK
6
CONTINUOUS
10
4.92015
20
-3.10923
11
4.91909
21
-3.10883
0
LINE
8
BLACK
6
CONTINUOUS
10
4.91909
20
-3.10883
11
4.91548
21
-3.10748
0
LINE
8
BLACK
6
CONTINUOUS
10
4.91548
20
-3.10748
11
4.91325
21
-3.1058
0
LINE
8
BLACK
6
CONTINUOUS
10
4.91325
20
-3.1058
11
4.91227
21
-3.10318
0
LINE
8
BLACK
6
CONTINUOUS
10
4.91227
20
-3.10318
11
4.91287
21
-3.10045
0
LINE
8
BLACK
6
CONTINUOUS
10
4.91287
20
-3.10045
11
4.91372
21
-3.09932
0
LINE
8
BLACK
6
CONTINUOUS
10
4.91372
20
-3.09932
11
4.91462
21
-3.09842
0
LINE
8
BLACK
6
CONTINUOUS
10
4.91462
20
-3.09842
11
4.91784
21
-3.09522
0
LINE
8
BLACK
6
CONTINUOUS
10
4.91784
20
-3.09522
11
4.91849
21
-3.09431
0
LINE
8
BLACK
6
CONTINUOUS
10
4.91849
20
-3.09431
11
4.92285
21
-3.08824
0
LINE
8
BLACK
6
CONTINUOUS
10
4.92285
20
-3.08824
11
4.92297
21
-3.08807
0
LINE
8
BLACK
6
CONTINUOUS
10
4.92297
20
-3.08807
11
4.92333
21
-3.08735
0
LINE
8
BLACK
6
CONTINUOUS
10
4.92333
20
-3.08735
11
4.92678
21
-3.08037
0
LINE
8
BLACK
6
CONTINUOUS
10
4.92678
20
-3.08037
11
4.92678
21
-3.08037
0
LINE
8
BLACK
6
CONTINUOUS
10
4.92678
20
-3.08037
11
4.92687
21
-3.08019
0
LINE
8
BLACK
6
CONTINUOUS
10
4.92687
20
-3.08019
11
4.92903
21
-3.07307
0
LINE
8
BLACK
6
CONTINUOUS
10
4.92903
20
-3.07307
11
4.92936
21
-3.07197
0
LINE
8
BLACK
6
CONTINUOUS
10
4.92936
20
-3.07197
11
4.92936
21
-3.07197
0
LINE
8
BLACK
6
CONTINUOUS
10
4.92936
20
-3.07197
11
4.92942
21
-3.07177
0
LINE
8
BLACK
6
CONTINUOUS
10
4.92942
20
-3.07177
11
4.93057
21
-3.06305
0
LINE
8
BLACK
6
CONTINUOUS
10
4.93057
20
-3.06305
11
4.93058
21
-3.06292
0
LINE
8
BLACK
6
CONTINUOUS
10
4.93058
20
-3.06292
11
4.93063
21
-3.06057
0
LINE
8
BLACK
6
CONTINUOUS
10
4.93063
20
-3.06057
11
4.93063
21
-3.06057
0
LINE
8
BLACK
6
CONTINUOUS
10
4.93063
20
-3.06057
11
4.93064
21
-3.06043
0
LINE
8
BLACK
6
CONTINUOUS
10
4.93064
20
-3.06043
11
4.92992
21
-3.05167
0
LINE
8
BLACK
6
CONTINUOUS
10
4.92992
20
-3.05167
11
4.92777
21
-3.04314
0
LINE
8
BLACK
6
CONTINUOUS
10
4.92777
20
-3.04314
11
4.92427
21
-3.03507
0
LINE
8
BLACK
6
CONTINUOUS
10
4.92427
20
-3.03507
11
4.92153
21
-3.03085
0
LINE
8
BLACK
6
CONTINUOUS
10
4.92153
20
-3.03085
11
4.9196
21
-3.02786
0
LINE
8
BLACK
6
CONTINUOUS
10
4.9196
20
-3.02786
11
4.9196
21
-3.02786
0
LINE
8
BLACK
6
CONTINUOUS
10
4.9196
20
-3.02786
11
4.91949
21
-3.02769
0
LINE
8
BLACK
6
CONTINUOUS
10
4.91949
20
-3.02769
11
4.91357
21
-3.02118
0
LINE
8
BLACK
6
CONTINUOUS
10
4.91357
20
-3.02118
11
4.91341
21
-3.02106
0
LINE
8
BLACK
6
CONTINUOUS
10
4.91341
20
-3.02106
11
4.91341
21
-3.02106
0
LINE
8
BLACK
6
CONTINUOUS
10
4.91341
20
-3.02106
11
4.90683
21
-3.01586
0
LINE
8
BLACK
6
CONTINUOUS
10
4.90683
20
-3.01586
11
4.90683
21
-3.01586
0
LINE
8
BLACK
6
CONTINUOUS
10
4.90683
20
-3.01586
11
4.90667
21
-3.01573
0
LINE
8
BLACK
6
CONTINUOUS
10
4.90667
20
-3.01573
11
4.90504
21
-3.01483
0
LINE
8
BLACK
6
CONTINUOUS
10
4.90504
20
-3.01483
11
4.90307
21
-3.01285
0
LINE
8
BLACK
6
CONTINUOUS
10
4.90307
20
-3.01285
11
4.90249
21
-3.01011
0
LINE
8
BLACK
6
CONTINUOUS
10
4.90249
20
-3.01011
11
4.90348
21
-3.0075
0
LINE
8
BLACK
6
CONTINUOUS
10
4.90348
20
-3.0075
11
4.90456
21
-3.00645
0
LINE
8
BLACK
6
CONTINUOUS
10
4.90456
20
-3.00645
11
4.90638
21
-3.00515
0
LINE
8
BLACK
6
CONTINUOUS
10
4.90638
20
-3.00515
11
4.91161
21
-3.00142
0
LINE
8
BLACK
6
CONTINUOUS
10
4.91161
20
-3.00142
11
4.91392
21
-2.99912
0
LINE
8
BLACK
6
CONTINUOUS
10
4.91392
20
-2.99912
11
4.91699
21
-2.99606
0
LINE
8
BLACK
6
CONTINUOUS
10
4.91699
20
-2.99606
11
4.91784
21
-2.99522
0
LINE
8
BLACK
6
CONTINUOUS
10
4.91784
20
-2.99522
11
4.91818
21
-2.99474
0
LINE
8
BLACK
6
CONTINUOUS
10
4.91818
20
-2.99474
11
4.92285
21
-2.98824
0
LINE
8
BLACK
6
CONTINUOUS
10
4.92285
20
-2.98824
11
4.92297
21
-2.98807
0
LINE
8
BLACK
6
CONTINUOUS
10
4.92297
20
-2.98807
11
4.92379
21
-2.98641
0
LINE
8
BLACK
6
CONTINUOUS
10
4.92379
20
-2.98641
11
4.92678
21
-2.98037
0
LINE
8
BLACK
6
CONTINUOUS
10
4.92678
20
-2.98037
11
4.92678
21
-2.98037
0
LINE
8
BLACK
6
CONTINUOUS
10
4.92678
20
-2.98037
11
4.92687
21
-2.98019
0
LINE
8
BLACK
6
CONTINUOUS
10
4.92687
20
-2.98019
11
4.92942
21
-2.97177
0
LINE
8
BLACK
6
CONTINUOUS
10
4.92942
20
-2.97177
11
4.93057
21
-2.96305
0
LINE
8
BLACK
6
CONTINUOUS
10
4.93057
20
-2.96305
11
4.93064
21
-2.96043
0
LINE
8
BLACK
6
CONTINUOUS
10
4.93064
20
-2.96043
11
4.92992
21
-2.95167
0
LINE
8
BLACK
6
CONTINUOUS
10
4.92992
20
-2.95167
11
4.92777
21
-2.94314
0
LINE
8
BLACK
6
CONTINUOUS
10
4.92777
20
-2.94314
11
4.92427
21
-2.93507
0
LINE
8
BLACK
6
CONTINUOUS
10
4.92427
20
-2.93507
11
4.92157
21
-2.9309
0
LINE
8
BLACK
6
CONTINUOUS
10
4.92157
20
-2.9309
11
4.9196
21
-2.92786
0
LINE
8
BLACK
6
CONTINUOUS
10
4.9196
20
-2.92786
11
4.9196
21
-2.92786
0
LINE
8
BLACK
6
CONTINUOUS
10
4.9196
20
-2.92786
11
4.91949
21
-2.92769
0
LINE
8
BLACK
6
CONTINUOUS
10
4.91949
20
-2.92769
11
4.91357
21
-2.92118
0
LINE
8
BLACK
6
CONTINUOUS
10
4.91357
20
-2.92118
11
4.91341
21
-2.92106
0
LINE
8
BLACK
6
CONTINUOUS
10
4.91341
20
-2.92106
11
4.91341
21
-2.92106
0
LINE
8
BLACK
6
CONTINUOUS
10
4.91341
20
-2.92106
11
4.90683
21
-2.91586
0
LINE
8
BLACK
6
CONTINUOUS
10
4.90683
20
-2.91586
11
4.90683
21
-2.91586
0
LINE
8
BLACK
6
CONTINUOUS
10
4.90683
20
-2.91586
11
4.90667
21
-2.91573
0
LINE
8
BLACK
6
CONTINUOUS
10
4.90667
20
-2.91573
11
4.90504
21
-2.91483
0
LINE
8
BLACK
6
CONTINUOUS
10
4.90504
20
-2.91483
11
4.90307
21
-2.91285
0
LINE
8
BLACK
6
CONTINUOUS
10
4.90307
20
-2.91285
11
4.90249
21
-2.91011
0
LINE
8
BLACK
6
CONTINUOUS
10
4.90249
20
-2.91011
11
4.90348
21
-2.9075
0
LINE
8
BLACK
6
CONTINUOUS
10
4.90348
20
-2.9075
11
4.90456
21
-2.90645
0
LINE
8
BLACK
6
CONTINUOUS
10
4.90456
20
-2.90645
11
4.90721
21
-2.90456
0
LINE
8
BLACK
6
CONTINUOUS
10
4.90721
20
-2.90456
11
4.91161
21
-2.90142
0
LINE
8
BLACK
6
CONTINUOUS
10
4.91161
20
-2.90142
11
4.91279
21
-2.90025
0
LINE
8
BLACK
6
CONTINUOUS
10
4.91279
20
-2.90025
11
4.91613
21
-2.89692
0
LINE
8
BLACK
6
CONTINUOUS
10
4.91613
20
-2.89692
11
4.91784
21
-2.89522
0
LINE
8
BLACK
6
CONTINUOUS
10
4.91784
20
-2.89522
11
4.92018
21
-2.89196
0
LINE
8
BLACK
6
CONTINUOUS
10
4.92018
20
-2.89196
11
4.92285
21
-2.88824
0
LINE
8
BLACK
6
CONTINUOUS
10
4.92285
20
-2.88824
11
4.92297
21
-2.88807
0
LINE
8
BLACK
6
CONTINUOUS
10
4.92297
20
-2.88807
11
4.92379
21
-2.88641
0
LINE
8
BLACK
6
CONTINUOUS
10
4.92379
20
-2.88641
11
4.92678
21
-2.88037
0
LINE
8
BLACK
6
CONTINUOUS
10
4.92678
20
-2.88037
11
4.92678
21
-2.88037
0
LINE
8
BLACK
6
CONTINUOUS
10
4.92678
20
-2.88037
11
4.92687
21
-2.88019
0
LINE
8
BLACK
6
CONTINUOUS
10
4.92687
20
-2.88019
11
4.92942
21
-2.87177
0
LINE
8
BLACK
6
CONTINUOUS
10
4.92942
20
-2.87177
11
4.93057
21
-2.86305
0
LINE
8
BLACK
6
CONTINUOUS
10
4.93057
20
-2.86305
11
4.93064
21
-2.86043
0
LINE
8
BLACK
6
CONTINUOUS
10
4.93064
20
-2.86043
11
4.92992
21
-2.85167
0
LINE
8
BLACK
6
CONTINUOUS
10
4.92992
20
-2.85167
11
4.92777
21
-2.84314
0
LINE
8
BLACK
6
CONTINUOUS
10
4.92777
20
-2.84314
11
4.92427
21
-2.83507
0
LINE
8
BLACK
6
CONTINUOUS
10
4.92427
20
-2.83507
11
4.91949
21
-2.82769
0
LINE
8
BLACK
6
CONTINUOUS
10
4.91949
20
-2.82769
11
4.91357
21
-2.82118
0
LINE
8
BLACK
6
CONTINUOUS
10
4.91357
20
-2.82118
11
4.91341
21
-2.82106
0
LINE
8
BLACK
6
CONTINUOUS
10
4.91341
20
-2.82106
11
4.91341
21
-2.82106
0
LINE
8
BLACK
6
CONTINUOUS
10
4.91341
20
-2.82106
11
4.90683
21
-2.81586
0
LINE
8
BLACK
6
CONTINUOUS
10
4.90683
20
-2.81586
11
4.90683
21
-2.81586
0
LINE
8
BLACK
6
CONTINUOUS
10
4.90683
20
-2.81586
11
4.90667
21
-2.81573
0
LINE
8
BLACK
6
CONTINUOUS
10
4.90667
20
-2.81573
11
4.90504
21
-2.81483
0
LINE
8
BLACK
6
CONTINUOUS
10
4.90504
20
-2.81483
11
4.90307
21
-2.81285
0
LINE
8
BLACK
6
CONTINUOUS
10
4.90307
20
-2.81285
11
4.90249
21
-2.81012
0
LINE
8
BLACK
6
CONTINUOUS
10
4.90249
20
-2.81012
11
4.90348
21
-2.8075
0
LINE
8
BLACK
6
CONTINUOUS
10
4.90348
20
-2.8075
11
4.90456
21
-2.80645
0
LINE
8
BLACK
6
CONTINUOUS
10
4.90456
20
-2.80645
11
4.90628
21
-2.80522
0
LINE
8
BLACK
6
CONTINUOUS
10
4.90628
20
-2.80522
11
4.91161
21
-2.80142
0
LINE
8
BLACK
6
CONTINUOUS
10
4.91161
20
-2.80142
11
4.91784
21
-2.79522
0
LINE
8
BLACK
6
CONTINUOUS
10
4.91784
20
-2.79522
11
4.92018
21
-2.79196
0
LINE
8
BLACK
6
CONTINUOUS
10
4.92018
20
-2.79196
11
4.92285
21
-2.78824
0
LINE
8
BLACK
6
CONTINUOUS
10
4.92285
20
-2.78824
11
4.92297
21
-2.78807
0
LINE
8
BLACK
6
CONTINUOUS
10
4.92297
20
-2.78807
11
4.92687
21
-2.78019
0
LINE
8
BLACK
6
CONTINUOUS
10
4.92687
20
-2.78019
11
4.92942
21
-2.77177
0
LINE
8
BLACK
6
CONTINUOUS
10
4.92942
20
-2.77177
11
4.93057
21
-2.76305
0
LINE
8
BLACK
6
CONTINUOUS
10
4.93057
20
-2.76305
11
4.93064
21
-2.76043
0
LINE
8
BLACK
6
CONTINUOUS
10
4.93064
20
-2.76043
11
4.92992
21
-2.75167
0
LINE
8
BLACK
6
CONTINUOUS
10
4.92992
20
-2.75167
11
4.92777
21
-2.74314
0
LINE
8
BLACK
6
CONTINUOUS
10
4.92777
20
-2.74314
11
4.92427
21
-2.73507
0
LINE
8
BLACK
6
CONTINUOUS
10
4.92427
20
-2.73507
11
4.91949
21
-2.72769
0
LINE
8
BLACK
6
CONTINUOUS
10
4.91949
20
-2.72769
11
4.91357
21
-2.72118
0
LINE
8
BLACK
6
CONTINUOUS
10
4.91357
20
-2.72118
11
4.91341
21
-2.72106
0
LINE
8
BLACK
6
CONTINUOUS
10
4.91341
20
-2.72106
11
4.91341
21
-2.72106
0
LINE
8
BLACK
6
CONTINUOUS
10
4.91341
20
-2.72106
11
4.90683
21
-2.71586
0
LINE
8
BLACK
6
CONTINUOUS
10
4.90683
20
-2.71586
11
4.90683
21
-2.71586
0
LINE
8
BLACK
6
CONTINUOUS
10
4.90683
20
-2.71586
11
4.90667
21
-2.71573
0
LINE
8
BLACK
6
CONTINUOUS
10
4.90667
20
-2.71573
11
4.89897
21
-2.71148
0
LINE
8
BLACK
6
CONTINUOUS
10
4.89897
20
-2.71148
11
4.89878
21
-2.71141
0
LINE
8
BLACK
6
CONTINUOUS
10
4.89878
20
-2.71141
11
4.89878
21
-2.71141
0
LINE
8
BLACK
6
CONTINUOUS
10
4.89878
20
-2.71141
11
4.89087
21
-2.70861
0
LINE
8
BLACK
6
CONTINUOUS
10
4.89087
20
-2.70861
11
4.89087
21
-2.70861
0
LINE
8
BLACK
6
CONTINUOUS
10
4.89087
20
-2.70861
11
4.89068
21
-2.70855
0
LINE
8
BLACK
6
CONTINUOUS
10
4.89068
20
-2.70855
11
4.89048
21
-2.70851
0
LINE
8
BLACK
6
CONTINUOUS
10
4.89048
20
-2.70851
11
4.89048
21
-2.70851
0
LINE
8
BLACK
6
CONTINUOUS
10
4.89048
20
-2.70851
11
4.88222
21
-2.70704
0
LINE
8
BLACK
6
CONTINUOUS
10
4.88222
20
-2.70704
11
4.88222
21
-2.70704
0
LINE
8
BLACK
6
CONTINUOUS
10
4.88222
20
-2.70704
11
4.88202
21
-2.707
0
LINE
8
BLACK
6
CONTINUOUS
10
4.88202
20
-2.707
11
4.87911
21
-2.70697
0
LINE
8
BLACK
6
CONTINUOUS
10
4.87911
20
-2.70697
11
4.87343
21
-2.7069
0
LINE
8
BLACK
6
CONTINUOUS
10
4.87343
20
-2.7069
11
4.87343
21
-2.7069
0
LINE
8
BLACK
6
CONTINUOUS
10
4.87343
20
-2.7069
11
4.87322
21
-2.7069
0
LINE
8
BLACK
6
CONTINUOUS
10
4.87322
20
-2.7069
11
4.86453
21
-2.70823
0
LINE
8
BLACK
6
CONTINUOUS
10
4.86453
20
-2.70823
11
4.85617
21
-2.71096
0
LINE
8
BLACK
6
CONTINUOUS
10
4.85617
20
-2.71096
11
4.84837
21
-2.71502
0
LINE
8
BLACK
6
CONTINUOUS
10
4.84837
20
-2.71502
11
4.84821
21
-2.71514
0
LINE
8
BLACK
6
CONTINUOUS
10
4.84821
20
-2.71514
11
4.84821
21
-2.71514
0
LINE
8
BLACK
6
CONTINUOUS
10
4.84821
20
-2.71514
11
4.84725
21
-2.71586
0
LINE
8
BLACK
6
CONTINUOUS
10
4.84725
20
-2.71586
11
4.84134
21
-2.7203
0
LINE
8
BLACK
6
CONTINUOUS
10
4.84134
20
-2.7203
11
4.83526
21
-2.72666
0
LINE
8
BLACK
6
CONTINUOUS
10
4.83526
20
-2.72666
11
4.8303
21
-2.73392
0
LINE
8
BLACK
6
CONTINUOUS
10
4.8303
20
-2.73392
11
4.8266
21
-2.7419
0
LINE
8
BLACK
6
CONTINUOUS
10
4.8266
20
-2.7419
11
4.82425
21
-2.75038
0
LINE
8
BLACK
6
CONTINUOUS
10
4.82425
20
-2.75038
11
4.82332
21
-2.75912
0
LINE
8
BLACK
6
CONTINUOUS
10
4.82332
20
-2.75912
11
4.82333
21
-2.75932
0
LINE
8
BLACK
6
CONTINUOUS
10
4.82333
20
-2.75932
11
4.82333
21
-2.75932
0
LINE
8
BLACK
6
CONTINUOUS
10
4.82333
20
-2.75932
11
4.82354
21
-2.76305
0
LINE
8
BLACK
6
CONTINUOUS
10
4.82354
20
-2.76305
11
4.82382
21
-2.7679
0
LINE
8
BLACK
6
CONTINUOUS
10
4.82382
20
-2.7679
11
4.82387
21
-2.7681
0
LINE
8
BLACK
6
CONTINUOUS
10
4.82387
20
-2.7681
11
4.82387
21
-2.7681
0
LINE
8
BLACK
6
CONTINUOUS
10
4.82387
20
-2.7681
11
4.82465
21
-2.77157
0
LINE
8
BLACK
6
CONTINUOUS
10
4.82465
20
-2.77157
11
4.82576
21
-2.77648
0
LINE
8
BLACK
6
CONTINUOUS
10
4.82576
20
-2.77648
11
4.82907
21
-2.78463
0
LINE
8
BLACK
6
CONTINUOUS
10
4.82907
20
-2.78463
11
4.83366
21
-2.79213
0
LINE
8
BLACK
6
CONTINUOUS
10
4.83366
20
-2.79213
11
4.83942
21
-2.79878
0
LINE
8
BLACK
6
CONTINUOUS
10
4.83942
20
-2.79878
11
4.84619
21
-2.80439
0
LINE
8
BLACK
6
CONTINUOUS
10
4.84619
20
-2.80439
11
4.84896
21
-2.80602
0
LINE
8
BLACK
6
CONTINUOUS
10
4.84896
20
-2.80602
11
4.84907
21
-2.80608
0
LINE
8
BLACK
6
CONTINUOUS
10
4.84907
20
-2.80608
11
4.85099
21
-2.80811
0
LINE
8
BLACK
6
CONTINUOUS
10
4.85099
20
-2.80811
11
4.85151
21
-2.81086
0
LINE
8
BLACK
6
CONTINUOUS
10
4.85151
20
-2.81086
11
4.85045
21
-2.81345
0
LINE
8
BLACK
6
CONTINUOUS
10
4.85045
20
-2.81345
11
4.84886
21
-2.81476
0
LINE
8
BLACK
6
CONTINUOUS
10
4.84886
20
-2.81476
11
4.84837
21
-2.81502
0
LINE
8
BLACK
6
CONTINUOUS
10
4.84837
20
-2.81502
11
4.84821
21
-2.81514
0
LINE
8
BLACK
6
CONTINUOUS
10
4.84821
20
-2.81514
11
4.84821
21
-2.81514
0
LINE
8
BLACK
6
CONTINUOUS
10
4.84821
20
-2.81514
11
4.84725
21
-2.81586
0
LINE
8
BLACK
6
CONTINUOUS
10
4.84725
20
-2.81586
11
4.84134
21
-2.8203
0
LINE
8
BLACK
6
CONTINUOUS
10
4.84134
20
-2.8203
11
4.83526
21
-2.82666
0
LINE
8
BLACK
6
CONTINUOUS
10
4.83526
20
-2.82666
11
4.83103
21
-2.83286
0
LINE
8
BLACK
6
CONTINUOUS
10
4.83103
20
-2.83286
11
4.82887
21
-2.83463
0
LINE
8
BLACK
6
CONTINUOUS
10
4.82887
20
-2.83463
11
4.82609
21
-2.83495
0
LINE
8
BLACK
6
CONTINUOUS
10
4.82609
20
-2.83495
11
4.82358
21
-2.83372
0
LINE
8
BLACK
6
CONTINUOUS
10
4.82358
20
-2.83372
11
4.82277
21
-2.83276
0
LINE
8
BLACK
6
CONTINUOUS
10
4.82277
20
-2.83276
11
4.8196
21
-2.82786
0
LINE
8
BLACK
6
CONTINUOUS
10
4.8196
20
-2.82786
11
4.8196
21
-2.82786
0
LINE
8
BLACK
6
CONTINUOUS
10
4.8196
20
-2.82786
11
4.81949
21
-2.82769
0
LINE
8
BLACK
6
CONTINUOUS
10
4.81949
20
-2.82769
11
4.81357
21
-2.82118
0
LINE
8
BLACK
6
CONTINUOUS
10
4.81357
20
-2.82118
11
4.81341
21
-2.82106
0
LINE
8
BLACK
6
CONTINUOUS
10
4.81341
20
-2.82106
11
4.81341
21
-2.82106
0
LINE
8
BLACK
6
CONTINUOUS
10
4.81341
20
-2.82106
11
4.80683
21
-2.81586
0
LINE
8
BLACK
6
CONTINUOUS
10
4.80683
20
-2.81586
11
4.80683
21
-2.81586
0
LINE
8
BLACK
6
CONTINUOUS
10
4.80683
20
-2.81586
11
4.80667
21
-2.81573
0
LINE
8
BLACK
6
CONTINUOUS
10
4.80667
20
-2.81573
11
4.79897
21
-2.81148
0
LINE
8
BLACK
6
CONTINUOUS
10
4.79897
20
-2.81148
11
4.79878
21
-2.81141
0
LINE
8
BLACK
6
CONTINUOUS
10
4.79878
20
-2.81141
11
4.79878
21
-2.81141
0
LINE
8
BLACK
6
CONTINUOUS
10
4.79878
20
-2.81141
11
4.79087
21
-2.80861
0
LINE
8
BLACK
6
CONTINUOUS
10
4.79087
20
-2.80861
11
4.79087
21
-2.80861
0
LINE
8
BLACK
6
CONTINUOUS
10
4.79087
20
-2.80861
11
4.79068
21
-2.80855
0
LINE
8
BLACK
6
CONTINUOUS
10
4.79068
20
-2.80855
11
4.79048
21
-2.80851
0
LINE
8
BLACK
6
CONTINUOUS
10
4.79048
20
-2.80851
11
4.79048
21
-2.80851
0
LINE
8
BLACK
6
CONTINUOUS
10
4.79048
20
-2.80851
11
4.78222
21
-2.80704
0
LINE
8
BLACK
6
CONTINUOUS
10
4.78222
20
-2.80704
11
4.78222
21
-2.80704
0
LINE
8
BLACK
6
CONTINUOUS
10
4.78222
20
-2.80704
11
4.78202
21
-2.807
0
LINE
8
BLACK
6
CONTINUOUS
10
4.78202
20
-2.807
11
4.77911
21
-2.80697
0
LINE
8
BLACK
6
CONTINUOUS
10
4.77911
20
-2.80697
11
4.77343
21
-2.8069
0
LINE
8
BLACK
6
CONTINUOUS
10
4.77343
20
-2.8069
11
4.77343
21
-2.8069
0
LINE
8
BLACK
6
CONTINUOUS
10
4.77343
20
-2.8069
11
4.77322
21
-2.8069
0
LINE
8
BLACK
6
CONTINUOUS
10
4.77322
20
-2.8069
11
4.76453
21
-2.80823
0
LINE
8
BLACK
6
CONTINUOUS
10
4.76453
20
-2.80823
11
4.75617
21
-2.81096
0
LINE
8
BLACK
6
CONTINUOUS
10
4.75617
20
-2.81096
11
4.74837
21
-2.81502
0
LINE
8
BLACK
6
CONTINUOUS
10
4.74837
20
-2.81502
11
4.74821
21
-2.81514
0
LINE
8
BLACK
6
CONTINUOUS
10
4.74821
20
-2.81514
11
4.74821
21
-2.81514
0
LINE
8
BLACK
6
CONTINUOUS
10
4.74821
20
-2.81514
11
4.74725
21
-2.81586
0
LINE
8
BLACK
6
CONTINUOUS
10
4.74725
20
-2.81586
11
4.74134
21
-2.8203
0
LINE
8
BLACK
6
CONTINUOUS
10
4.74134
20
-2.8203
11
4.73526
21
-2.82666
0
LINE
8
BLACK
6
CONTINUOUS
10
4.73526
20
-2.82666
11
4.7303
21
-2.83392
0
LINE
8
BLACK
6
CONTINUOUS
10
4.7303
20
-2.83392
11
4.7266
21
-2.8419
0
LINE
8
BLACK
6
CONTINUOUS
10
4.7266
20
-2.8419
11
4.72425
21
-2.85038
0
LINE
8
BLACK
6
CONTINUOUS
10
4.72425
20
-2.85038
11
4.72332
21
-2.85912
0
LINE
8
BLACK
6
CONTINUOUS
10
4.72332
20
-2.85912
11
4.72333
21
-2.85932
0
LINE
8
BLACK
6
CONTINUOUS
10
4.72333
20
-2.85932
11
4.72333
21
-2.85932
0
LINE
8
BLACK
6
CONTINUOUS
10
4.72333
20
-2.85932
11
4.72354
21
-2.86305
0
LINE
8
BLACK
6
CONTINUOUS
10
4.72354
20
-2.86305
11
4.72382
21
-2.8679
0
LINE
8
BLACK
6
CONTINUOUS
10
4.72382
20
-2.8679
11
4.72387
21
-2.8681
0
LINE
8
BLACK
6
CONTINUOUS
10
4.72387
20
-2.8681
11
4.72387
21
-2.8681
0
LINE
8
BLACK
6
CONTINUOUS
10
4.72387
20
-2.8681
11
4.72404
21
-2.86885
0
LINE
8
BLACK
6
CONTINUOUS
10
4.72404
20
-2.86885
11
4.72576
21
-2.87648
0
LINE
8
BLACK
6
CONTINUOUS
10
4.72576
20
-2.87648
11
4.72742
21
-2.88058
0
LINE
8
BLACK
6
CONTINUOUS
10
4.72742
20
-2.88058
11
4.72847
21
-2.88316
0
LINE
8
BLACK
6
CONTINUOUS
10
4.72847
20
-2.88316
11
4.72907
21
-2.88463
0
LINE
8
BLACK
6
CONTINUOUS
10
4.72907
20
-2.88463
11
4.73106
21
-2.88789
0
LINE
8
BLACK
6
CONTINUOUS
10
4.73106
20
-2.88789
11
4.73355
21
-2.89196
0
LINE
8
BLACK
6
CONTINUOUS
10
4.73355
20
-2.89196
11
4.73366
21
-2.89213
0
LINE
8
BLACK
6
CONTINUOUS
10
4.73366
20
-2.89213
11
4.73942
21
-2.89878
0
LINE
8
BLACK
6
CONTINUOUS
10
4.73942
20
-2.89878
11
4.74619
21
-2.90439
0
LINE
8
BLACK
6
CONTINUOUS
10
4.74619
20
-2.90439
11
4.74647
21
-2.90456
0
LINE
8
BLACK
6
CONTINUOUS
10
4.74647
20
-2.90456
11
4.74907
21
-2.90608
0
LINE
8
BLACK
6
CONTINUOUS
10
4.74907
20
-2.90608
11
4.75099
21
-2.90811
0
LINE
8
BLACK
6
CONTINUOUS
10
4.75099
20
-2.90811
11
4.75151
21
-2.91086
0
LINE
8
BLACK
6
CONTINUOUS
10
4.75151
20
-2.91086
11
4.75045
21
-2.91345
0
LINE
8
BLACK
6
CONTINUOUS
10
4.75045
20
-2.91345
11
4.74886
21
-2.91476
0
LINE
8
BLACK
6
CONTINUOUS
10
4.74886
20
-2.91476
11
4.74837
21
-2.91502
0
LINE
8
BLACK
6
CONTINUOUS
10
4.74837
20
-2.91502
11
4.74821
21
-2.91514
0
LINE
8
BLACK
6
CONTINUOUS
10
4.74821
20
-2.91514
11
4.74821
21
-2.91514
0
LINE
8
BLACK
6
CONTINUOUS
10
4.74821
20
-2.91514
11
4.7415
21
-2.92018
0
LINE
8
BLACK
6
CONTINUOUS
10
4.7415
20
-2.92018
11
4.74134
21
-2.9203
0
LINE
8
BLACK
6
CONTINUOUS
10
4.74134
20
-2.9203
11
4.73526
21
-2.92666
0
LINE
8
BLACK
6
CONTINUOUS
10
4.73526
20
-2.92666
11
4.73515
21
-2.92683
0
LINE
8
BLACK
6
CONTINUOUS
10
4.73515
20
-2.92683
11
4.73515
21
-2.92683
0
LINE
8
BLACK
6
CONTINUOUS
10
4.73515
20
-2.92683
11
4.73388
21
-2.92868
0
LINE
8
BLACK
6
CONTINUOUS
10
4.73388
20
-2.92868
11
4.7303
21
-2.93392
0
LINE
8
BLACK
6
CONTINUOUS
10
4.7303
20
-2.93392
11
4.7266
21
-2.9419
0
LINE
8
BLACK
6
CONTINUOUS
10
4.7266
20
-2.9419
11
4.72425
21
-2.95038
0
LINE
8
BLACK
6
CONTINUOUS
10
4.72425
20
-2.95038
11
4.72332
21
-2.95912
0
LINE
8
BLACK
6
CONTINUOUS
10
4.72332
20
-2.95912
11
4.72333
21
-2.95932
0
LINE
8
BLACK
6
CONTINUOUS
10
4.72333
20
-2.95932
11
4.72333
21
-2.95932
0
LINE
8
BLACK
6
CONTINUOUS
10
4.72333
20
-2.95932
11
4.72354
21
-2.96305
0
LINE
8
BLACK
6
CONTINUOUS
10
4.72354
20
-2.96305
11
4.72382
21
-2.9679
0
LINE
8
BLACK
6
CONTINUOUS
10
4.72382
20
-2.9679
11
4.72387
21
-2.9681
0
LINE
8
BLACK
6
CONTINUOUS
10
4.72387
20
-2.9681
11
4.72387
21
-2.9681
0
LINE
8
BLACK
6
CONTINUOUS
10
4.72387
20
-2.9681
11
4.72465
21
-2.97157
0
LINE
8
BLACK
6
CONTINUOUS
10
4.72465
20
-2.97157
11
4.72576
21
-2.97648
0
LINE
8
BLACK
6
CONTINUOUS
10
4.72576
20
-2.97648
11
4.72907
21
-2.98463
0
LINE
8
BLACK
6
CONTINUOUS
10
4.72907
20
-2.98463
11
4.73106
21
-2.98789
0
LINE
8
BLACK
6
CONTINUOUS
10
4.73106
20
-2.98789
11
4.73355
21
-2.99196
0
LINE
8
BLACK
6
CONTINUOUS
10
4.73355
20
-2.99196
11
4.73366
21
-2.99213
0
LINE
8
BLACK
6
CONTINUOUS
10
4.73366
20
-2.99213
11
4.73942
21
-2.99878
0
LINE
8
BLACK
6
CONTINUOUS
10
4.73942
20
-2.99878
11
4.74619
21
-3.00439
0
LINE
8
BLACK
6
CONTINUOUS
10
4.74619
20
-3.00439
11
4.74896
21
-3.00602
0
LINE
8
BLACK
6
CONTINUOUS
10
4.74896
20
-3.00602
11
4.74907
21
-3.00608
0
LINE
8
BLACK
6
CONTINUOUS
10
4.74907
20
-3.00608
11
4.75099
21
-3.00811
0
LINE
8
BLACK
6
CONTINUOUS
10
4.75099
20
-3.00811
11
4.75151
21
-3.01086
0
LINE
8
BLACK
6
CONTINUOUS
10
4.75151
20
-3.01086
11
4.75045
21
-3.01345
0
LINE
8
BLACK
6
CONTINUOUS
10
4.75045
20
-3.01345
11
4.74886
21
-3.01476
0
LINE
8
BLACK
6
CONTINUOUS
10
4.74886
20
-3.01476
11
4.74837
21
-3.01502
0
LINE
8
BLACK
6
CONTINUOUS
10
4.74837
20
-3.01502
11
4.74821
21
-3.01514
0
LINE
8
BLACK
6
CONTINUOUS
10
4.74821
20
-3.01514
11
4.74821
21
-3.01514
0
LINE
8
BLACK
6
CONTINUOUS
10
4.74821
20
-3.01514
11
4.7415
21
-3.02018
0
LINE
8
BLACK
6
CONTINUOUS
10
4.7415
20
-3.02018
11
4.74134
21
-3.0203
0
LINE
8
BLACK
6
CONTINUOUS
10
4.74134
20
-3.0203
11
4.73526
21
-3.02666
0
LINE
8
BLACK
6
CONTINUOUS
10
4.73526
20
-3.02666
11
4.73515
21
-3.02683
0
LINE
8
BLACK
6
CONTINUOUS
10
4.73515
20
-3.02683
11
4.73515
21
-3.02683
0
LINE
8
BLACK
6
CONTINUOUS
10
4.73515
20
-3.02683
11
4.73466
21
-3.02754
0
LINE
8
BLACK
6
CONTINUOUS
10
4.73466
20
-3.02754
11
4.7303
21
-3.03392
0
LINE
8
BLACK
6
CONTINUOUS
10
4.7303
20
-3.03392
11
4.72969
21
-3.03526
0
LINE
8
BLACK
6
CONTINUOUS
10
4.72969
20
-3.03526
11
4.72743
21
-3.04011
0
LINE
8
BLACK
6
CONTINUOUS
10
4.72743
20
-3.04011
11
4.7266
21
-3.0419
0
LINE
8
BLACK
6
CONTINUOUS
10
4.7266
20
-3.0419
11
4.72425
21
-3.05038
0
LINE
8
BLACK
6
CONTINUOUS
10
4.72425
20
-3.05038
11
4.72332
21
-3.05912
0
LINE
8
BLACK
6
CONTINUOUS
10
4.72332
20
-3.05912
11
4.72333
21
-3.05932
0
LINE
8
BLACK
6
CONTINUOUS
10
4.72333
20
-3.05932
11
4.72333
21
-3.05932
0
LINE
8
BLACK
6
CONTINUOUS
10
4.72333
20
-3.05932
11
4.72374
21
-3.06638
0
LINE
8
BLACK
6
CONTINUOUS
10
4.72374
20
-3.06638
11
4.72382
21
-3.0679
0
LINE
8
BLACK
6
CONTINUOUS
10
4.72382
20
-3.0679
11
4.72387
21
-3.0681
0
LINE
8
BLACK
6
CONTINUOUS
10
4.72387
20
-3.0681
11
4.72387
21
-3.0681
0
LINE
8
BLACK
6
CONTINUOUS
10
4.72387
20
-3.0681
11
4.72462
21
-3.07142
0
LINE
8
BLACK
6
CONTINUOUS
10
4.72462
20
-3.07142
11
4.72576
21
-3.07648
0
LINE
8
BLACK
6
CONTINUOUS
10
4.72576
20
-3.07648
11
4.72907
21
-3.08463
0
LINE
8
BLACK
6
CONTINUOUS
10
4.72907
20
-3.08463
11
4.73073
21
-3.08735
0
LINE
8
BLACK
6
CONTINUOUS
10
4.73073
20
-3.08735
11
4.73355
21
-3.09196
0
LINE
8
BLACK
6
CONTINUOUS
10
4.73355
20
-3.09196
11
4.73366
21
-3.09213
0
LINE
8
BLACK
6
CONTINUOUS
10
4.73366
20
-3.09213
11
4.73942
21
-3.09878
0
LINE
8
BLACK
6
CONTINUOUS
10
4.73942
20
-3.09878
11
4.74619
21
-3.10439
0
LINE
8
BLACK
6
CONTINUOUS
10
4.74619
20
-3.10439
11
4.74678
21
-3.10474
0
LINE
8
BLACK
6
CONTINUOUS
10
4.74678
20
-3.10474
11
4.74907
21
-3.10608
0
LINE
8
BLACK
6
CONTINUOUS
10
4.74907
20
-3.10608
11
4.75099
21
-3.10811
0
LINE
8
BLACK
6
CONTINUOUS
10
4.75099
20
-3.10811
11
4.75151
21
-3.11086
0
LINE
8
BLACK
6
CONTINUOUS
10
4.75151
20
-3.11086
11
4.75045
21
-3.11345
0
LINE
8
BLACK
6
CONTINUOUS
10
4.75045
20
-3.11345
11
4.74886
21
-3.11476
0
LINE
8
BLACK
6
CONTINUOUS
10
4.74886
20
-3.11476
11
4.74837
21
-3.11502
0
LINE
8
BLACK
6
CONTINUOUS
10
4.74837
20
-3.11502
11
4.74821
21
-3.11514
0
LINE
8
BLACK
6
CONTINUOUS
10
4.74821
20
-3.11514
11
4.74821
21
-3.11514
0
LINE
8
BLACK
6
CONTINUOUS
10
4.74821
20
-3.11514
11
4.74251
21
-3.11942
0
LINE
8
BLACK
6
CONTINUOUS
10
4.74251
20
-3.11942
11
4.74134
21
-3.1203
0
LINE
8
BLACK
6
CONTINUOUS
10
4.74134
20
-3.1203
11
4.73978
21
-3.12193
0
LINE
8
BLACK
6
CONTINUOUS
10
4.73978
20
-3.12193
11
4.73765
21
-3.12416
0
LINE
8
BLACK
6
CONTINUOUS
10
4.73765
20
-3.12416
11
4.73526
21
-3.12666
0
LINE
8
BLACK
6
CONTINUOUS
10
4.73526
20
-3.12666
11
4.7303
21
-3.13392
0
LINE
8
BLACK
6
CONTINUOUS
10
4.7303
20
-3.13392
11
4.7266
21
-3.1419
0
LINE
8
BLACK
6
CONTINUOUS
10
4.7266
20
-3.1419
11
4.72425
21
-3.15038
0
LINE
8
BLACK
6
CONTINUOUS
10
4.72425
20
-3.15038
11
4.72332
21
-3.15912
0
LINE
8
BLACK
6
CONTINUOUS
10
4.72332
20
-3.15912
11
4.72382
21
-3.1679
0
LINE
8
BLACK
6
CONTINUOUS
10
4.72382
20
-3.1679
11
4.72387
21
-3.1681
0
LINE
8
BLACK
6
CONTINUOUS
10
4.0795
20
-3.04724
11
4.08126
21
-3.05329
0
LINE
8
BLACK
6
CONTINUOUS
10
4.08126
20
-3.05329
11
4.08142
21
-3.05356
0
LINE
8
BLACK
6
CONTINUOUS
10
4.08142
20
-3.05356
11
4.08431
21
-3.05845
0
LINE
8
BLACK
6
CONTINUOUS
10
4.08431
20
-3.05845
11
4.08431
21
-3.05845
0
LINE
8
BLACK
6
CONTINUOUS
10
4.08431
20
-3.05845
11
4.08447
21
-3.05872
0
LINE
8
BLACK
6
CONTINUOUS
10
4.08447
20
-3.05872
11
4.08892
21
-3.06317
0
LINE
8
BLACK
6
CONTINUOUS
10
4.08892
20
-3.06317
11
4.08919
21
-3.06333
0
LINE
8
BLACK
6
CONTINUOUS
10
4.08919
20
-3.06333
11
4.08919
21
-3.06333
0
LINE
8
BLACK
6
CONTINUOUS
10
4.08919
20
-3.06333
11
4.09288
21
-3.06551
0
LINE
8
BLACK
6
CONTINUOUS
10
4.09288
20
-3.06551
11
4.09435
21
-3.06638
0
LINE
8
BLACK
6
CONTINUOUS
10
4.09435
20
-3.06638
11
4.09465
21
-3.06647
0
LINE
8
BLACK
6
CONTINUOUS
10
4.09465
20
-3.06647
11
4.09941
21
-3.06785
0
LINE
8
BLACK
6
CONTINUOUS
10
4.09941
20
-3.06785
11
4.09941
21
-3.05906
0
LINE
8
BLACK
6
CONTINUOUS
10
4.09941
20
-3.05906
11
4.09978
21
-3.05717
0
LINE
8
BLACK
6
CONTINUOUS
10
4.09978
20
-3.05717
11
4.10085
21
-3.05558
0
LINE
8
BLACK
6
CONTINUOUS
10
4.10085
20
-3.05558
11
4.10245
21
-3.05451
0
LINE
8
BLACK
6
CONTINUOUS
10
4.10245
20
-3.05451
11
4.10433
21
-3.05413
0
LINE
8
BLACK
6
CONTINUOUS
10
4.10433
20
-3.05413
11
4.16437
21
-3.05413
0
LINE
8
BLACK
6
CONTINUOUS
10
4.16437
20
-3.05413
11
4.16625
21
-3.05451
0
LINE
8
BLACK
6
CONTINUOUS
10
4.16625
20
-3.05451
11
4.16785
21
-3.05558
0
LINE
8
BLACK
6
CONTINUOUS
10
4.16785
20
-3.05558
11
4.16892
21
-3.05717
0
LINE
8
BLACK
6
CONTINUOUS
10
4.16892
20
-3.05717
11
4.16929
21
-3.05906
0
LINE
8
BLACK
6
CONTINUOUS
10
4.16929
20
-3.05906
11
4.16929
21
-3.06785
0
LINE
8
BLACK
6
CONTINUOUS
10
4.16929
20
-3.06785
11
4.17435
21
-3.06638
0
LINE
8
BLACK
6
CONTINUOUS
10
4.17435
20
-3.06638
11
4.17466
21
-3.0662
0
LINE
8
BLACK
6
CONTINUOUS
10
4.17466
20
-3.0662
11
4.17469
21
-3.06619
0
LINE
8
BLACK
6
CONTINUOUS
10
4.17469
20
-3.06619
11
4.17491
21
-3.0661
0
LINE
8
BLACK
6
CONTINUOUS
10
4.17491
20
-3.0661
11
4.17492
21
-3.06613
0
LINE
8
BLACK
6
CONTINUOUS
10
4.17492
20
-3.06613
11
4.17737
21
-3.06551
0
LINE
8
BLACK
6
CONTINUOUS
10
4.17737
20
-3.06551
11
4.1799
21
-3.06632
0
LINE
8
BLACK
6
CONTINUOUS
10
4.1799
20
-3.06632
11
4.18241
21
-3.06796
0
LINE
8
BLACK
6
CONTINUOUS
10
4.18241
20
-3.06796
11
4.18267
21
-3.06806
0
LINE
8
BLACK
6
CONTINUOUS
10
4.18267
20
-3.06806
11
4.18267
21
-3.06806
0
LINE
8
BLACK
6
CONTINUOUS
10
4.18267
20
-3.06806
11
4.18884
21
-3.07035
0
LINE
8
BLACK
6
CONTINUOUS
10
4.18884
20
-3.07035
11
4.18884
21
-3.07035
0
LINE
8
BLACK
6
CONTINUOUS
10
4.18884
20
-3.07035
11
4.1891
21
-3.07045
0
LINE
8
BLACK
6
CONTINUOUS
10
4.1891
20
-3.07045
11
4.1924
21
-3.07089
0
LINE
8
BLACK
6
CONTINUOUS
10
4.1924
20
-3.07089
11
4.1959
21
-3.07136
0
LINE
8
BLACK
6
CONTINUOUS
10
4.1959
20
-3.07136
11
4.1959
21
-3.07136
0
LINE
8
BLACK
6
CONTINUOUS
10
4.1959
20
-3.07136
11
4.19618
21
-3.0714
0
LINE
8
BLACK
6
CONTINUOUS
10
4.19618
20
-3.0714
11
4.19646
21
-3.07137
0
LINE
8
BLACK
6
CONTINUOUS
10
4.19646
20
-3.07137
11
4.19646
21
-3.07137
0
LINE
8
BLACK
6
CONTINUOUS
10
4.19646
20
-3.07137
11
4.20207
21
-3.07086
0
LINE
8
BLACK
6
CONTINUOUS
10
4.20207
20
-3.07086
11
4.20329
21
-3.07075
0
LINE
8
BLACK
6
CONTINUOUS
10
4.20329
20
-3.07075
11
4.20356
21
-3.07066
0
LINE
8
BLACK
6
CONTINUOUS
10
4.20356
20
-3.07066
11
4.20356
21
-3.07066
0
LINE
8
BLACK
6
CONTINUOUS
10
4.20356
20
-3.07066
11
4.20982
21
-3.06863
0
LINE
8
BLACK
6
CONTINUOUS
10
4.20982
20
-3.06863
11
4.20982
21
-3.06863
0
LINE
8
BLACK
6
CONTINUOUS
10
4.20982
20
-3.06863
11
4.21008
21
-3.06854
0
LINE
8
BLACK
6
CONTINUOUS
10
4.21008
20
-3.06854
11
4.21388
21
-3.06628
0
LINE
8
BLACK
6
CONTINUOUS
10
4.21388
20
-3.06628
11
4.21598
21
-3.06503
0
LINE
8
BLACK
6
CONTINUOUS
10
4.21598
20
-3.06503
11
4.21598
21
-3.06503
0
LINE
8
BLACK
6
CONTINUOUS
10
4.21598
20
-3.06503
11
4.21622
21
-3.06488
0
LINE
8
BLACK
6
CONTINUOUS
10
4.21622
20
-3.06488
11
4.22139
21
-3.05996
0
LINE
8
BLACK
6
CONTINUOUS
10
4.22139
20
-3.05996
11
4.22534
21
-3.05401
0
LINE
8
BLACK
6
CONTINUOUS
10
4.22534
20
-3.05401
11
4.22788
21
-3.04734
0
LINE
8
BLACK
6
CONTINUOUS
10
4.22788
20
-3.04734
11
4.22807
21
-3.04592
0
LINE
8
BLACK
6
CONTINUOUS
10
4.22807
20
-3.04592
11
4.22885
21
-3.04042
0
LINE
8
BLACK
6
CONTINUOUS
10
4.22885
20
-3.04042
11
4.22885
21
-3.04042
0
LINE
8
BLACK
6
CONTINUOUS
10
4.22885
20
-3.04042
11
4.22887
21
-3.04026
0
LINE
8
BLACK
6
CONTINUOUS
10
4.22887
20
-3.04026
11
4.22888
21
-3.03937
0
LINE
8
BLACK
6
CONTINUOUS
10
4.22888
20
-3.03937
11
4.22809
21
-3.03227
0
LINE
8
BLACK
6
CONTINUOUS
10
4.22809
20
-3.03227
11
4.22766
21
-3.03104
0
LINE
8
BLACK
6
CONTINUOUS
10
4.22766
20
-3.03104
11
4.22583
21
-3.02579
0
LINE
8
BLACK
6
CONTINUOUS
10
4.22583
20
-3.02579
11
4.22583
21
-3.02579
0
LINE
8
BLACK
6
CONTINUOUS
10
4.22583
20
-3.02579
11
4.22574
21
-3.02553
0
LINE
8
BLACK
6
CONTINUOUS
10
4.22574
20
-3.02553
11
4.22195
21
-3.01947
0
LINE
8
BLACK
6
CONTINUOUS
10
4.22195
20
-3.01947
11
4.22176
21
-3.01928
0
LINE
8
BLACK
6
CONTINUOUS
10
4.22176
20
-3.01928
11
4.21712
21
-3.0146
0
LINE
8
BLACK
6
CONTINUOUS
10
4.21712
20
-3.0146
11
4.21712
21
-3.0146
0
LINE
8
BLACK
6
CONTINUOUS
10
4.21712
20
-3.0146
11
4.21692
21
-3.01441
0
LINE
8
BLACK
6
CONTINUOUS
10
4.21692
20
-3.01441
11
4.21421
21
-3.01269
0
LINE
8
BLACK
6
CONTINUOUS
10
4.21421
20
-3.01269
11
4.21237
21
-3.01058
0
LINE
8
BLACK
6
CONTINUOUS
10
4.21237
20
-3.01058
11
4.21195
21
-3.00782
0
LINE
8
BLACK
6
CONTINUOUS
10
4.21195
20
-3.00782
11
4.2131
21
-3.00527
0
LINE
8
BLACK
6
CONTINUOUS
10
4.2131
20
-3.00527
11
4.21321
21
-3.00515
0
LINE
8
BLACK
6
CONTINUOUS
10
4.21321
20
-3.00515
11
4.21331
21
-3.00503
0
LINE
8
BLACK
6
CONTINUOUS
10
4.21331
20
-3.00503
11
4.21351
21
-3.00484
0
LINE
8
BLACK
6
CONTINUOUS
10
4.21351
20
-3.00484
11
4.21747
21
-2.99889
0
LINE
8
BLACK
6
CONTINUOUS
10
4.21747
20
-2.99889
11
4.22
21
-2.99222
0
LINE
8
BLACK
6
CONTINUOUS
10
4.22
20
-2.99222
11
4.22004
21
-2.99194
0
LINE
8
BLACK
6
CONTINUOUS
10
4.22004
20
-2.99194
11
4.22097
21
-2.9853
0
LINE
8
BLACK
6
CONTINUOUS
10
4.22097
20
-2.9853
11
4.22097
21
-2.9853
0
LINE
8
BLACK
6
CONTINUOUS
10
4.22097
20
-2.9853
11
4.221
21
-2.98515
0
LINE
8
BLACK
6
CONTINUOUS
10
4.221
20
-2.98515
11
4.22101
21
-2.98425
0
LINE
8
BLACK
6
CONTINUOUS
10
4.22101
20
-2.98425
11
4.22021
21
-2.97716
0
LINE
8
BLACK
6
CONTINUOUS
10
4.22021
20
-2.97716
11
4.22012
21
-2.97689
0
LINE
8
BLACK
6
CONTINUOUS
10
4.22012
20
-2.97689
11
4.21796
21
-2.97067
0
LINE
8
BLACK
6
CONTINUOUS
10
4.21796
20
-2.97067
11
4.21796
21
-2.97067
0
LINE
8
BLACK
6
CONTINUOUS
10
4.21796
20
-2.97067
11
4.21786
21
-2.97041
0
LINE
8
BLACK
6
CONTINUOUS
10
4.21786
20
-2.97041
11
4.21408
21
-2.96436
0
LINE
8
BLACK
6
CONTINUOUS
10
4.21408
20
-2.96436
11
4.21329
21
-2.96356
0
LINE
8
BLACK
6
CONTINUOUS
10
4.21329
20
-2.96356
11
4.21196
21
-2.96111
0
LINE
8
BLACK
6
CONTINUOUS
10
4.21196
20
-2.96111
11
4.21217
21
-2.95832
0
LINE
8
BLACK
6
CONTINUOUS
10
4.21217
20
-2.95832
11
4.21385
21
-2.95609
0
LINE
8
BLACK
6
CONTINUOUS
10
4.21385
20
-2.95609
11
4.21427
21
-2.95581
0
LINE
8
BLACK
6
CONTINUOUS
10
4.21427
20
-2.95581
11
4.21622
21
-2.95465
0
LINE
8
BLACK
6
CONTINUOUS
10
4.21622
20
-2.95465
11
4.22139
21
-2.94972
0
LINE
8
BLACK
6
CONTINUOUS
10
4.22139
20
-2.94972
11
4.22534
21
-2.94378
0
LINE
8
BLACK
6
CONTINUOUS
10
4.22534
20
-2.94378
11
4.22788
21
-2.9371
0
LINE
8
BLACK
6
CONTINUOUS
10
4.22788
20
-2.9371
11
4.22835
21
-2.93376
0
LINE
8
BLACK
6
CONTINUOUS
10
4.22835
20
-2.93376
11
4.22885
21
-2.93018
0
LINE
8
BLACK
6
CONTINUOUS
10
4.22885
20
-2.93018
11
4.22885
21
-2.93018
0
LINE
8
BLACK
6
CONTINUOUS
10
4.22885
20
-2.93018
11
4.22887
21
-2.93003
0
LINE
8
BLACK
6
CONTINUOUS
10
4.22887
20
-2.93003
11
4.22888
21
-2.92913
0
LINE
8
BLACK
6
CONTINUOUS
10
4.22888
20
-2.92913
11
4.22809
21
-2.92204
0
LINE
8
BLACK
6
CONTINUOUS
10
4.22809
20
-2.92204
11
4.22783
21
-2.92129
0
LINE
8
BLACK
6
CONTINUOUS
10
4.22783
20
-2.92129
11
4.22583
21
-2.91556
0
LINE
8
BLACK
6
CONTINUOUS
10
4.22583
20
-2.91556
11
4.22583
21
-2.91556
0
LINE
8
BLACK
6
CONTINUOUS
10
4.22583
20
-2.91556
11
4.22574
21
-2.91529
0
LINE
8
BLACK
6
CONTINUOUS
10
4.22574
20
-2.91529
11
4.22195
21
-2.90924
0
LINE
8
BLACK
6
CONTINUOUS
10
4.22195
20
-2.90924
11
4.22155
21
-2.90883
0
LINE
8
BLACK
6
CONTINUOUS
10
4.22155
20
-2.90883
11
4.21712
21
-2.90437
0
LINE
8
BLACK
6
CONTINUOUS
10
4.21712
20
-2.90437
11
4.21712
21
-2.90437
0
LINE
8
BLACK
6
CONTINUOUS
10
4.21712
20
-2.90437
11
4.21692
21
-2.90417
0
LINE
8
BLACK
6
CONTINUOUS
10
4.21692
20
-2.90417
11
4.21522
21
-2.90309
0
LINE
8
BLACK
6
CONTINUOUS
10
4.21522
20
-2.90309
11
4.21246
21
-2.90134
0
LINE
8
BLACK
6
CONTINUOUS
10
4.21246
20
-2.90134
11
4.21089
21
-2.90034
0
LINE
8
BLACK
6
CONTINUOUS
10
4.21089
20
-2.90034
11
4.20974
21
-2.89993
0
LINE
8
BLACK
6
CONTINUOUS
10
4.20974
20
-2.89993
11
4.20443
21
-2.89804
0
LINE
8
BLACK
6
CONTINUOUS
10
4.20443
20
-2.89804
11
4.20443
21
-2.89804
0
LINE
8
BLACK
6
CONTINUOUS
10
4.20443
20
-2.89804
11
4.20416
21
-2.89795
0
LINE
8
BLACK
6
CONTINUOUS
10
4.20416
20
-2.89795
11
4.20389
21
-2.89792
0
LINE
8
BLACK
6
CONTINUOUS
10
4.20389
20
-2.89792
11
4.20389
21
-2.89792
0
LINE
8
BLACK
6
CONTINUOUS
10
4.20389
20
-2.89792
11
4.19781
21
-2.89719
0
LINE
8
BLACK
6
CONTINUOUS
10
4.19781
20
-2.89719
11
4.19707
21
-2.8971
0
LINE
8
BLACK
6
CONTINUOUS
10
4.19707
20
-2.8971
11
4.1968
21
-2.89713
0
LINE
8
BLACK
6
CONTINUOUS
10
4.1968
20
-2.89713
11
4.1968
21
-2.89713
0
LINE
8
BLACK
6
CONTINUOUS
10
4.1968
20
-2.89713
11
4.19205
21
-2.89763
0
LINE
8
BLACK
6
CONTINUOUS
10
4.19205
20
-2.89763
11
4.1893
21
-2.89713
0
LINE
8
BLACK
6
CONTINUOUS
10
4.1893
20
-2.89713
11
4.18726
21
-2.89522
0
LINE
8
BLACK
6
CONTINUOUS
10
4.18726
20
-2.89522
11
4.18439
21
-2.89037
0
LINE
8
BLACK
6
CONTINUOUS
10
4.18439
20
-2.89037
11
4.18439
21
-2.89037
0
LINE
8
BLACK
6
CONTINUOUS
10
4.18439
20
-2.89037
11
4.18423
21
-2.8901
0
LINE
8
BLACK
6
CONTINUOUS
10
4.18423
20
-2.8901
11
4.17978
21
-2.88565
0
LINE
8
BLACK
6
CONTINUOUS
10
4.17978
20
-2.88565
11
4.17951
21
-2.88549
0
LINE
8
BLACK
6
CONTINUOUS
10
4.17951
20
-2.88549
11
4.17951
21
-2.88549
0
LINE
8
BLACK
6
CONTINUOUS
10
4.17951
20
-2.88549
11
4.17462
21
-2.8826
0
LINE
8
BLACK
6
CONTINUOUS
10
4.17462
20
-2.8826
11
4.17462
21
-2.8826
0
LINE
8
BLACK
6
CONTINUOUS
10
4.17462
20
-2.8826
11
4.17435
21
-2.88244
0
LINE
8
BLACK
6
CONTINUOUS
10
4.17435
20
-2.88244
11
4.17405
21
-2.88235
0
LINE
8
BLACK
6
CONTINUOUS
10
4.17405
20
-2.88235
11
4.16855
21
-2.88075
0
LINE
8
BLACK
6
CONTINUOUS
10
4.16855
20
-2.88075
11
4.16855
21
-2.88075
0
LINE
8
BLACK
6
CONTINUOUS
10
4.16855
20
-2.88075
11
4.1683
21
-2.88068
0
LINE
8
BLACK
6
CONTINUOUS
10
4.1683
20
-2.88068
11
4.1678
21
-2.88064
0
LINE
8
BLACK
6
CONTINUOUS
10
4.1678
20
-2.88064
11
4.16699
21
-2.88058
0
LINE
8
BLACK
6
CONTINUOUS
10
4.16699
20
-2.88058
11
4.16699
21
-2.88058
0
LINE
8
BLACK
6
CONTINUOUS
10
4.16699
20
-2.88058
11
4.16689
21
-2.88057
0
LINE
8
BLACK
6
CONTINUOUS
10
4.16689
20
-2.88057
11
4.13437
21
-2.88057
0
LINE
8
BLACK
6
CONTINUOUS
10
4.13437
20
-2.88057
11
4.10181
21
-2.88057
0
LINE
8
BLACK
6
CONTINUOUS
10
4.10181
20
-2.88057
11
4.10151
21
-2.8806
0
LINE
8
BLACK
6
CONTINUOUS
10
4.10151
20
-2.8806
11
4.10065
21
-2.88066
0
LINE
8
BLACK
6
CONTINUOUS
10
4.10065
20
-2.88066
11
4.10065
21
-2.88066
0
LINE
8
BLACK
6
CONTINUOUS
10
4.10065
20
-2.88066
11
4.1004
21
-2.88068
0
LINE
8
BLACK
6
CONTINUOUS
10
4.1004
20
-2.88068
11
4.09435
21
-2.88244
0
LINE
8
BLACK
6
CONTINUOUS
10
4.09435
20
-2.88244
11
4.09408
21
-2.8826
0
LINE
8
BLACK
6
CONTINUOUS
10
4.09408
20
-2.8826
11
4.09408
21
-2.8826
0
LINE
8
BLACK
6
CONTINUOUS
10
4.09408
20
-2.8826
11
4.08919
21
-2.88549
0
LINE
8
BLACK
6
CONTINUOUS
10
4.08919
20
-2.88549
11
4.08919
21
-2.88549
0
LINE
8
BLACK
6
CONTINUOUS
10
4.08919
20
-2.88549
11
4.08892
21
-2.88565
0
LINE
8
BLACK
6
CONTINUOUS
10
4.08892
20
-2.88565
11
4.08447
21
-2.8901
0
LINE
8
BLACK
6
CONTINUOUS
10
4.08447
20
-2.8901
11
4.08431
21
-2.89037
0
LINE
8
BLACK
6
CONTINUOUS
10
4.08431
20
-2.89037
11
4.08431
21
-2.89037
0
LINE
8
BLACK
6
CONTINUOUS
10
4.08431
20
-2.89037
11
4.08305
21
-2.8925
0
LINE
8
BLACK
6
CONTINUOUS
10
4.08305
20
-2.8925
11
4.08126
21
-2.89553
0
LINE
8
BLACK
6
CONTINUOUS
10
4.08126
20
-2.89553
11
4.08117
21
-2.89583
0
LINE
8
BLACK
6
CONTINUOUS
10
4.08117
20
-2.89583
11
4.07959
21
-2.90128
0
LINE
8
BLACK
6
CONTINUOUS
10
4.07959
20
-2.90128
11
4.0795
21
-2.90158
0
LINE
8
BLACK
6
CONTINUOUS
10
4.0795
20
-2.90158
11
4.07948
21
-2.90183
0
LINE
8
BLACK
6
CONTINUOUS
10
4.07948
20
-2.90183
11
4.0794
21
-2.9029
0
LINE
8
BLACK
6
CONTINUOUS
10
4.0794
20
-2.9029
11
4.0794
21
-2.9029
0
LINE
8
BLACK
6
CONTINUOUS
10
4.0794
20
-2.9029
11
4.07939
21
-2.90299
0
LINE
8
BLACK
6
CONTINUOUS
10
4.07939
20
-2.90299
11
4.07939
21
-2.91787
0
LINE
8
BLACK
6
CONTINUOUS
10
4.07939
20
-2.91787
11
4.0795
21
-2.91929
0
LINE
8
BLACK
6
CONTINUOUS
10
4.0795
20
-2.91929
11
4.07957
21
-2.91953
0
LINE
8
BLACK
6
CONTINUOUS
10
4.07957
20
-2.91953
11
4.08024
21
-2.92184
0
LINE
8
BLACK
6
CONTINUOUS
10
4.08024
20
-2.92184
11
4.08024
21
-2.92461
0
LINE
8
BLACK
6
CONTINUOUS
10
4.08024
20
-2.92461
11
4.08017
21
-2.92487
0
LINE
8
BLACK
6
CONTINUOUS
10
4.08017
20
-2.92487
11
4.0795
21
-2.92717
0
LINE
8
BLACK
6
CONTINUOUS
10
4.0795
20
-2.92717
11
4.07948
21
-2.92742
0
LINE
8
BLACK
6
CONTINUOUS
10
4.07948
20
-2.92742
11
4.07948
21
-2.92742
0
LINE
8
BLACK
6
CONTINUOUS
10
4.07948
20
-2.92742
11
4.0794
21
-2.92849
0
LINE
8
BLACK
6
CONTINUOUS
10
4.0794
20
-2.92849
11
4.0794
21
-2.92849
0
LINE
8
BLACK
6
CONTINUOUS
10
4.0794
20
-2.92849
11
4.07939
21
-2.92858
0
LINE
8
BLACK
6
CONTINUOUS
10
4.07939
20
-2.92858
11
4.07939
21
-2.94346
0
LINE
8
BLACK
6
CONTINUOUS
10
4.07939
20
-2.94346
11
4.0795
21
-2.94488
0
LINE
8
BLACK
6
CONTINUOUS
10
4.0795
20
-2.94488
11
4.07957
21
-2.94512
0
LINE
8
BLACK
6
CONTINUOUS
10
4.07957
20
-2.94512
11
4.08024
21
-2.94743
0
LINE
8
BLACK
6
CONTINUOUS
10
4.08024
20
-2.94743
11
4.08024
21
-2.9502
0
LINE
8
BLACK
6
CONTINUOUS
10
4.08024
20
-2.9502
11
4.0795
21
-2.95276
0
LINE
8
BLACK
6
CONTINUOUS
10
4.0795
20
-2.95276
11
4.07948
21
-2.95301
0
LINE
8
BLACK
6
CONTINUOUS
10
4.07948
20
-2.95301
11
4.07948
21
-2.95301
0
LINE
8
BLACK
6
CONTINUOUS
10
4.07948
20
-2.95301
11
4.0794
21
-2.95408
0
LINE
8
BLACK
6
CONTINUOUS
10
4.0794
20
-2.95408
11
4.0794
21
-2.95408
0
LINE
8
BLACK
6
CONTINUOUS
10
4.0794
20
-2.95408
11
4.07939
21
-2.95417
0
LINE
8
BLACK
6
CONTINUOUS
10
4.07939
20
-2.95417
11
4.07939
21
-2.96905
0
LINE
8
BLACK
6
CONTINUOUS
10
4.07939
20
-2.96905
11
4.0795
21
-2.97047
0
LINE
8
BLACK
6
CONTINUOUS
10
4.0795
20
-2.97047
11
4.07957
21
-2.97071
0
LINE
8
BLACK
6
CONTINUOUS
10
4.07957
20
-2.97071
11
4.08024
21
-2.97303
0
LINE
8
BLACK
6
CONTINUOUS
10
4.08024
20
-2.97303
11
4.08024
21
-2.97579
0
LINE
8
BLACK
6
CONTINUOUS
10
4.08024
20
-2.97579
11
4.0795
21
-2.97835
0
LINE
8
BLACK
6
CONTINUOUS
10
4.0795
20
-2.97835
11
4.07948
21
-2.9786
0
LINE
8
BLACK
6
CONTINUOUS
10
4.07948
20
-2.9786
11
4.07948
21
-2.9786
0
LINE
8
BLACK
6
CONTINUOUS
10
4.07948
20
-2.9786
11
4.0794
21
-2.97967
0
LINE
8
BLACK
6
CONTINUOUS
10
4.0794
20
-2.97967
11
4.0794
21
-2.97967
0
LINE
8
BLACK
6
CONTINUOUS
10
4.0794
20
-2.97967
11
4.07939
21
-2.97976
0
LINE
8
BLACK
6
CONTINUOUS
10
4.07939
20
-2.97976
11
4.07939
21
-2.99464
0
LINE
8
BLACK
6
CONTINUOUS
10
4.07939
20
-2.99464
11
4.0794
21
-2.99474
0
LINE
8
BLACK
6
CONTINUOUS
10
4.0794
20
-2.99474
11
4.0794
21
-2.99474
0
LINE
8
BLACK
6
CONTINUOUS
10
4.0794
20
-2.99474
11
4.07945
21
-2.99536
0
LINE
8
BLACK
6
CONTINUOUS
10
4.07945
20
-2.99536
11
4.0795
21
-2.99606
0
LINE
8
BLACK
6
CONTINUOUS
10
4.0795
20
-2.99606
11
4.07957
21
-2.9963
0
LINE
8
BLACK
6
CONTINUOUS
10
4.07957
20
-2.9963
11
4.08024
21
-2.99862
0
LINE
8
BLACK
6
CONTINUOUS
10
4.08024
20
-2.99862
11
4.08024
21
-3.00138
0
LINE
8
BLACK
6
CONTINUOUS
10
4.08024
20
-3.00138
11
4.0795
21
-3.00394
0
LINE
8
BLACK
6
CONTINUOUS
10
4.0795
20
-3.00394
11
4.07947
21
-3.00439
0
LINE
8
BLACK
6
CONTINUOUS
10
4.07947
20
-3.00439
11
4.0794
21
-3.00526
0
LINE
8
BLACK
6
CONTINUOUS
10
4.0794
20
-3.00526
11
4.0794
21
-3.00526
0
LINE
8
BLACK
6
CONTINUOUS
10
4.0794
20
-3.00526
11
4.07939
21
-3.00536
0
LINE
8
BLACK
6
CONTINUOUS
10
4.07939
20
-3.00536
11
4.07939
21
-3.02024
0
LINE
8
BLACK
6
CONTINUOUS
10
4.07939
20
-3.02024
11
4.0795
21
-3.02165
0
LINE
8
BLACK
6
CONTINUOUS
10
4.0795
20
-3.02165
11
4.07957
21
-3.02189
0
LINE
8
BLACK
6
CONTINUOUS
10
4.07957
20
-3.02189
11
4.08024
21
-3.02421
0
LINE
8
BLACK
6
CONTINUOUS
10
4.08024
20
-3.02421
11
4.08024
21
-3.02697
0
LINE
8
BLACK
6
CONTINUOUS
10
4.08024
20
-3.02697
11
4.0795
21
-3.02953
0
LINE
8
BLACK
6
CONTINUOUS
10
4.0795
20
-3.02953
11
4.07948
21
-3.02978
0
LINE
8
BLACK
6
CONTINUOUS
10
4.07948
20
-3.02978
11
4.07948
21
-3.02978
0
LINE
8
BLACK
6
CONTINUOUS
10
4.07948
20
-3.02978
11
4.0794
21
-3.03085
0
LINE
8
BLACK
6
CONTINUOUS
10
4.0794
20
-3.03085
11
4.0794
21
-3.03085
0
LINE
8
BLACK
6
CONTINUOUS
10
4.0794
20
-3.03085
11
4.07939
21
-3.03095
0
LINE
8
BLACK
6
CONTINUOUS
10
4.07939
20
-3.03095
11
4.07939
21
-3.04583
0
LINE
8
BLACK
6
CONTINUOUS
10
4.07939
20
-3.04583
11
4.0795
21
-3.04724
0
LINE
8
BLACK
6
CONTINUOUS
10
4.54573
20
-3.24966
11
4.54587
21
-3.24989
0
LINE
8
BLACK
6
CONTINUOUS
10
4.54587
20
-3.24989
11
4.54587
21
-3.24989
0
LINE
8
BLACK
6
CONTINUOUS
10
4.54587
20
-3.24989
11
4.54755
21
-3.25267
0
LINE
8
BLACK
6
CONTINUOUS
10
4.54755
20
-3.25267
11
4.54942
21
-3.25576
0
LINE
8
BLACK
6
CONTINUOUS
10
4.54942
20
-3.25576
11
4.55439
21
-3.2609
0
LINE
8
BLACK
6
CONTINUOUS
10
4.55439
20
-3.2609
11
4.56036
21
-3.26481
0
LINE
8
BLACK
6
CONTINUOUS
10
4.56036
20
-3.26481
11
4.56062
21
-3.26491
0
LINE
8
BLACK
6
CONTINUOUS
10
4.56062
20
-3.26491
11
4.56062
21
-3.26491
0
LINE
8
BLACK
6
CONTINUOUS
10
4.56062
20
-3.26491
11
4.56679
21
-3.2672
0
LINE
8
BLACK
6
CONTINUOUS
10
4.56679
20
-3.2672
11
4.56679
21
-3.2672
0
LINE
8
BLACK
6
CONTINUOUS
10
4.56679
20
-3.2672
11
4.56705
21
-3.2673
0
LINE
8
BLACK
6
CONTINUOUS
10
4.56705
20
-3.2673
11
4.57035
21
-3.26774
0
LINE
8
BLACK
6
CONTINUOUS
10
4.57035
20
-3.26774
11
4.57386
21
-3.26821
0
LINE
8
BLACK
6
CONTINUOUS
10
4.57386
20
-3.26821
11
4.57386
21
-3.26821
0
LINE
8
BLACK
6
CONTINUOUS
10
4.57386
20
-3.26821
11
4.57413
21
-3.26825
0
LINE
8
BLACK
6
CONTINUOUS
10
4.57413
20
-3.26825
11
4.57441
21
-3.26822
0
LINE
8
BLACK
6
CONTINUOUS
10
4.57441
20
-3.26822
11
4.57441
21
-3.26822
0
LINE
8
BLACK
6
CONTINUOUS
10
4.57441
20
-3.26822
11
4.58002
21
-3.26771
0
LINE
8
BLACK
6
CONTINUOUS
10
4.58002
20
-3.26771
11
4.58124
21
-3.2676
0
LINE
8
BLACK
6
CONTINUOUS
10
4.58124
20
-3.2676
11
4.58151
21
-3.26751
0
LINE
8
BLACK
6
CONTINUOUS
10
4.58151
20
-3.26751
11
4.58151
21
-3.26751
0
LINE
8
BLACK
6
CONTINUOUS
10
4.58151
20
-3.26751
11
4.58777
21
-3.26548
0
LINE
8
BLACK
6
CONTINUOUS
10
4.58777
20
-3.26548
11
4.58777
21
-3.26548
0
LINE
8
BLACK
6
CONTINUOUS
10
4.58777
20
-3.26548
11
4.58804
21
-3.26539
0
LINE
8
BLACK
6
CONTINUOUS
10
4.58804
20
-3.26539
11
4.59417
21
-3.26173
0
LINE
8
BLACK
6
CONTINUOUS
10
4.59417
20
-3.26173
11
4.59934
21
-3.25681
0
LINE
8
BLACK
6
CONTINUOUS
10
4.59934
20
-3.25681
11
4.60329
21
-3.25086
0
LINE
8
BLACK
6
CONTINUOUS
10
4.60329
20
-3.25086
11
4.60517
21
-3.24592
0
LINE
8
BLACK
6
CONTINUOUS
10
4.60517
20
-3.24592
11
4.6063
21
-3.24417
0
LINE
8
BLACK
6
CONTINUOUS
10
4.6063
20
-3.24417
11
4.60947
21
-3.241
0
LINE
8
BLACK
6
CONTINUOUS
10
4.60947
20
-3.241
11
4.60972
21
-3.24077
0
LINE
8
BLACK
6
CONTINUOUS
10
4.60972
20
-3.24077
11
4.61121
21
-3.23947
0
LINE
8
BLACK
6
CONTINUOUS
10
4.61121
20
-3.23947
11
4.61143
21
-3.23927
0
LINE
8
BLACK
6
CONTINUOUS
10
4.61143
20
-3.23927
11
4.61288
21
-3.23722
0
LINE
8
BLACK
6
CONTINUOUS
10
4.61288
20
-3.23722
11
4.61303
21
-3.23701
0
LINE
8
BLACK
6
CONTINUOUS
10
4.61303
20
-3.23701
11
4.61459
21
-3.23503
0
LINE
8
BLACK
6
CONTINUOUS
10
4.61459
20
-3.23503
11
4.61471
21
-3.23476
0
LINE
8
BLACK
6
CONTINUOUS
10
4.61471
20
-3.23476
11
4.61476
21
-3.23467
0
LINE
8
BLACK
6
CONTINUOUS
10
4.61476
20
-3.23467
11
4.61509
21
-3.23409
0
LINE
8
BLACK
6
CONTINUOUS
10
4.61509
20
-3.23409
11
4.61514
21
-3.234
0
LINE
8
BLACK
6
CONTINUOUS
10
4.61514
20
-3.234
11
4.61531
21
-3.23375
0
LINE
8
BLACK
6
CONTINUOUS
10
4.61531
20
-3.23375
11
4.61623
21
-3.23141
0
LINE
8
BLACK
6
CONTINUOUS
10
4.61623
20
-3.23141
11
4.61633
21
-3.23117
0
LINE
8
BLACK
6
CONTINUOUS
10
4.61633
20
-3.23117
11
4.61724
21
-3.22915
0
LINE
8
BLACK
6
CONTINUOUS
10
4.61724
20
-3.22915
11
4.61736
21
-3.22888
0
LINE
8
BLACK
6
CONTINUOUS
10
4.61736
20
-3.22888
11
4.61742
21
-3.22858
0
LINE
8
BLACK
6
CONTINUOUS
10
4.61742
20
-3.22858
11
4.61745
21
-3.22848
0
LINE
8
BLACK
6
CONTINUOUS
10
4.61745
20
-3.22848
11
4.61763
21
-3.22784
0
LINE
8
BLACK
6
CONTINUOUS
10
4.61763
20
-3.22784
11
4.61766
21
-3.22774
0
LINE
8
BLACK
6
CONTINUOUS
10
4.61766
20
-3.22774
11
4.61777
21
-3.22746
0
LINE
8
BLACK
6
CONTINUOUS
10
4.61777
20
-3.22746
11
4.6181
21
-3.22497
0
LINE
8
BLACK
6
CONTINUOUS
10
4.6181
20
-3.22497
11
4.61814
21
-3.22471
0
LINE
8
BLACK
6
CONTINUOUS
10
4.61814
20
-3.22471
11
4.61854
21
-3.22253
0
LINE
8
BLACK
6
CONTINUOUS
10
4.61854
20
-3.22253
11
4.61859
21
-3.22224
0
LINE
8
BLACK
6
CONTINUOUS
10
4.61859
20
-3.22224
11
4.61845
21
-3.21979
0
LINE
8
BLACK
6
CONTINUOUS
10
4.61845
20
-3.21979
11
4.61844
21
-3.2195
0
LINE
8
BLACK
6
CONTINUOUS
10
4.61844
20
-3.2195
11
4.61844
21
-3.10355
0
LINE
8
BLACK
6
CONTINUOUS
10
4.61844
20
-3.10355
11
4.61898
21
-3.10135
0
LINE
8
BLACK
6
CONTINUOUS
10
4.61898
20
-3.10135
11
4.61904
21
-3.10126
0
LINE
8
BLACK
6
CONTINUOUS
10
4.61904
20
-3.10126
11
4.6196
21
-3.09979
0
LINE
8
BLACK
6
CONTINUOUS
10
4.6196
20
-3.09979
11
4.62148
21
-3.09484
0
LINE
8
BLACK
6
CONTINUOUS
10
4.62148
20
-3.09484
11
4.62148
21
-3.09484
0
LINE
8
BLACK
6
CONTINUOUS
10
4.62148
20
-3.09484
11
4.62158
21
-3.09458
0
LINE
8
BLACK
6
CONTINUOUS
10
4.62158
20
-3.09458
11
4.62167
21
-3.09393
0
LINE
8
BLACK
6
CONTINUOUS
10
4.62167
20
-3.09393
11
4.62255
21
-3.08766
0
LINE
8
BLACK
6
CONTINUOUS
10
4.62255
20
-3.08766
11
4.62255
21
-3.08766
0
LINE
8
BLACK
6
CONTINUOUS
10
4.62255
20
-3.08766
11
4.62257
21
-3.08751
0
LINE
8
BLACK
6
CONTINUOUS
10
4.62257
20
-3.08751
11
4.62258
21
-3.08708
0
LINE
8
BLACK
6
CONTINUOUS
10
4.62258
20
-3.08708
11
4.62258
21
-3.08677
0
LINE
8
BLACK
6
CONTINUOUS
10
4.62258
20
-3.08677
11
4.62258
21
-3.08677
0
LINE
8
BLACK
6
CONTINUOUS
10
4.62258
20
-3.08677
11
4.62258
21
-3.08661
0
LINE
8
BLACK
6
CONTINUOUS
10
4.62258
20
-3.08661
11
4.62179
21
-3.07952
0
LINE
8
BLACK
6
CONTINUOUS
10
4.62179
20
-3.07952
11
4.6217
21
-3.07926
0
LINE
8
BLACK
6
CONTINUOUS
10
4.6217
20
-3.07926
11
4.61953
21
-3.07304
0
LINE
8
BLACK
6
CONTINUOUS
10
4.61953
20
-3.07304
11
4.61953
21
-3.07304
0
LINE
8
BLACK
6
CONTINUOUS
10
4.61953
20
-3.07304
11
4.61944
21
-3.07277
0
LINE
8
BLACK
6
CONTINUOUS
10
4.61944
20
-3.07277
11
4.61649
21
-3.06806
0
LINE
8
BLACK
6
CONTINUOUS
10
4.61649
20
-3.06806
11
4.6158
21
-3.06695
0
LINE
8
BLACK
6
CONTINUOUS
10
4.6158
20
-3.06695
11
4.61565
21
-3.06672
0
LINE
8
BLACK
6
CONTINUOUS
10
4.61565
20
-3.06672
11
4.61546
21
-3.06652
0
LINE
8
BLACK
6
CONTINUOUS
10
4.61546
20
-3.06652
11
4.61082
21
-3.06185
0
LINE
8
BLACK
6
CONTINUOUS
10
4.61082
20
-3.06185
11
4.61082
21
-3.06185
0
LINE
8
BLACK
6
CONTINUOUS
10
4.61082
20
-3.06185
11
4.61062
21
-3.06165
0
LINE
8
BLACK
6
CONTINUOUS
10
4.61062
20
-3.06165
11
4.61018
21
-3.06137
0
LINE
8
BLACK
6
CONTINUOUS
10
4.61018
20
-3.06137
11
4.60605
21
-3.05875
0
LINE
8
BLACK
6
CONTINUOUS
10
4.60605
20
-3.05875
11
4.60459
21
-3.05782
0
LINE
8
BLACK
6
CONTINUOUS
10
4.60459
20
-3.05782
11
4.60344
21
-3.05741
0
LINE
8
BLACK
6
CONTINUOUS
10
4.60344
20
-3.05741
11
4.59813
21
-3.05552
0
LINE
8
BLACK
6
CONTINUOUS
10
4.59813
20
-3.05552
11
4.59813
21
-3.05552
0
LINE
8
BLACK
6
CONTINUOUS
10
4.59813
20
-3.05552
11
4.59787
21
-3.05543
0
LINE
8
BLACK
6
CONTINUOUS
10
4.59787
20
-3.05543
11
4.59759
21
-3.0554
0
LINE
8
BLACK
6
CONTINUOUS
10
4.59759
20
-3.0554
11
4.59759
21
-3.0554
0
LINE
8
BLACK
6
CONTINUOUS
10
4.59759
20
-3.0554
11
4.59274
21
-3.05482
0
LINE
8
BLACK
6
CONTINUOUS
10
4.59274
20
-3.05482
11
4.59077
21
-3.05458
0
LINE
8
BLACK
6
CONTINUOUS
10
4.59077
20
-3.05458
11
4.5905
21
-3.05461
0
LINE
8
BLACK
6
CONTINUOUS
10
4.5905
20
-3.05461
11
4.5905
21
-3.05461
0
LINE
8
BLACK
6
CONTINUOUS
10
4.5905
20
-3.05461
11
4.58395
21
-3.0553
0
LINE
8
BLACK
6
CONTINUOUS
10
4.58395
20
-3.0553
11
4.58395
21
-3.0553
0
LINE
8
BLACK
6
CONTINUOUS
10
4.58395
20
-3.0553
11
4.58367
21
-3.05533
0
LINE
8
BLACK
6
CONTINUOUS
10
4.58367
20
-3.05533
11
4.57691
21
-3.05763
0
LINE
8
BLACK
6
CONTINUOUS
10
4.57691
20
-3.05763
11
4.57509
21
-3.05875
0
LINE
8
BLACK
6
CONTINUOUS
10
4.57509
20
-3.05875
11
4.57107
21
-3.06123
0
LINE
8
BLACK
6
CONTINUOUS
10
4.57107
20
-3.06123
11
4.57107
21
-3.06123
0
LINE
8
BLACK
6
CONTINUOUS
10
4.57107
20
-3.06123
11
4.57083
21
-3.06137
0
LINE
8
BLACK
6
CONTINUOUS
10
4.57083
20
-3.06137
11
4.57063
21
-3.06157
0
LINE
8
BLACK
6
CONTINUOUS
10
4.57063
20
-3.06157
11
4.57063
21
-3.06157
0
LINE
8
BLACK
6
CONTINUOUS
10
4.57063
20
-3.06157
11
4.56597
21
-3.06613
0
LINE
8
BLACK
6
CONTINUOUS
10
4.56597
20
-3.06613
11
4.56573
21
-3.06637
0
LINE
8
BLACK
6
CONTINUOUS
10
4.56573
20
-3.06637
11
4.56186
21
-3.07237
0
LINE
8
BLACK
6
CONTINUOUS
10
4.56186
20
-3.07237
11
4.56176
21
-3.07263
0
LINE
8
BLACK
6
CONTINUOUS
10
4.56176
20
-3.07263
11
4.56176
21
-3.07263
0
LINE
8
BLACK
6
CONTINUOUS
10
4.56176
20
-3.07263
11
4.55975
21
-3.07816
0
LINE
8
BLACK
6
CONTINUOUS
10
4.55975
20
-3.07816
11
4.55942
21
-3.07908
0
LINE
8
BLACK
6
CONTINUOUS
10
4.55942
20
-3.07908
11
4.55852
21
-3.08617
0
LINE
8
BLACK
6
CONTINUOUS
10
4.55852
20
-3.08617
11
4.55922
21
-3.09327
0
LINE
8
BLACK
6
CONTINUOUS
10
4.55922
20
-3.09327
11
4.56147
21
-3.10005
0
LINE
8
BLACK
6
CONTINUOUS
10
4.56147
20
-3.10005
11
4.56162
21
-3.10029
0
LINE
8
BLACK
6
CONTINUOUS
10
4.56162
20
-3.10029
11
4.56162
21
-3.10029
0
LINE
8
BLACK
6
CONTINUOUS
10
4.56162
20
-3.10029
11
4.56194
21
-3.10082
0
LINE
8
BLACK
6
CONTINUOUS
10
4.56194
20
-3.10082
11
4.56266
21
-3.10339
0
LINE
8
BLACK
6
CONTINUOUS
10
4.56266
20
-3.10339
11
4.56266
21
-3.20355
0
LINE
8
BLACK
6
CONTINUOUS
10
4.56266
20
-3.20355
11
4.56187
21
-3.20623
0
LINE
8
BLACK
6
CONTINUOUS
10
4.56187
20
-3.20623
11
4.5603
21
-3.20777
0
LINE
8
BLACK
6
CONTINUOUS
10
4.5603
20
-3.20777
11
4.55508
21
-3.21098
0
LINE
8
BLACK
6
CONTINUOUS
10
4.55508
20
-3.21098
11
4.55488
21
-3.21117
0
LINE
8
BLACK
6
CONTINUOUS
10
4.55488
20
-3.21117
11
4.55488
21
-3.21117
0
LINE
8
BLACK
6
CONTINUOUS
10
4.55488
20
-3.21117
11
4.55198
21
-3.21402
0
LINE
8
BLACK
6
CONTINUOUS
10
4.55198
20
-3.21402
11
4.54998
21
-3.21598
0
LINE
8
BLACK
6
CONTINUOUS
10
4.54998
20
-3.21598
11
4.54611
21
-3.22198
0
LINE
8
BLACK
6
CONTINUOUS
10
4.54611
20
-3.22198
11
4.54602
21
-3.22224
0
LINE
8
BLACK
6
CONTINUOUS
10
4.54602
20
-3.22224
11
4.54602
21
-3.22224
0
LINE
8
BLACK
6
CONTINUOUS
10
4.54602
20
-3.22224
11
4.54502
21
-3.22497
0
LINE
8
BLACK
6
CONTINUOUS
10
4.54502
20
-3.22497
11
4.54367
21
-3.22869
0
LINE
8
BLACK
6
CONTINUOUS
10
4.54367
20
-3.22869
11
4.54277
21
-3.23577
0
LINE
8
BLACK
6
CONTINUOUS
10
4.54277
20
-3.23577
11
4.54347
21
-3.24288
0
LINE
8
BLACK
6
CONTINUOUS
10
4.54347
20
-3.24288
11
4.54573
21
-3.24966
0
LINE
8
BLACK
6
CONTINUOUS
10
3.91976
20
-3.02697
11
3.91976
21
-3.02421
0
LINE
8
BLACK
6
CONTINUOUS
10
3.91976
20
-3.02421
11
3.92043
21
-3.02189
0
LINE
8
BLACK
6
CONTINUOUS
10
3.92043
20
-3.02189
11
3.92043
21
-3.02189
0
LINE
8
BLACK
6
CONTINUOUS
10
3.92043
20
-3.02189
11
3.9205
21
-3.02165
0
LINE
8
BLACK
6
CONTINUOUS
10
3.9205
20
-3.02165
11
3.92059
21
-3.02045
0
LINE
8
BLACK
6
CONTINUOUS
10
3.92059
20
-3.02045
11
3.9206
21
-3.02033
0
LINE
8
BLACK
6
CONTINUOUS
10
3.9206
20
-3.02033
11
3.9206
21
-3.02033
0
LINE
8
BLACK
6
CONTINUOUS
10
3.9206
20
-3.02033
11
3.92061
21
-3.02024
0
LINE
8
BLACK
6
CONTINUOUS
10
3.92061
20
-3.02024
11
3.92061
21
-3.00536
0
LINE
8
BLACK
6
CONTINUOUS
10
3.92061
20
-3.00536
11
3.92053
21
-3.00439
0
LINE
8
BLACK
6
CONTINUOUS
10
3.92053
20
-3.00439
11
3.92052
21
-3.00419
0
LINE
8
BLACK
6
CONTINUOUS
10
3.92052
20
-3.00419
11
3.92052
21
-3.00419
0
LINE
8
BLACK
6
CONTINUOUS
10
3.92052
20
-3.00419
11
3.9205
21
-3.00394
0
LINE
8
BLACK
6
CONTINUOUS
10
3.9205
20
-3.00394
11
3.91976
21
-3.00138
0
LINE
8
BLACK
6
CONTINUOUS
10
3.91976
20
-3.00138
11
3.91976
21
-2.99862
0
LINE
8
BLACK
6
CONTINUOUS
10
3.91976
20
-2.99862
11
3.92043
21
-2.9963
0
LINE
8
BLACK
6
CONTINUOUS
10
3.92043
20
-2.9963
11
3.92043
21
-2.9963
0
LINE
8
BLACK
6
CONTINUOUS
10
3.92043
20
-2.9963
11
3.9205
21
-2.99606
0
LINE
8
BLACK
6
CONTINUOUS
10
3.9205
20
-2.99606
11
3.92057
21
-2.99522
0
LINE
8
BLACK
6
CONTINUOUS
10
3.92057
20
-2.99522
11
3.9206
21
-2.99474
0
LINE
8
BLACK
6
CONTINUOUS
10
3.9206
20
-2.99474
11
3.9206
21
-2.99474
0
LINE
8
BLACK
6
CONTINUOUS
10
3.9206
20
-2.99474
11
3.92061
21
-2.99464
0
LINE
8
BLACK
6
CONTINUOUS
10
3.92061
20
-2.99464
11
3.92061
21
-2.97976
0
LINE
8
BLACK
6
CONTINUOUS
10
3.92061
20
-2.97976
11
3.9205
21
-2.97835
0
LINE
8
BLACK
6
CONTINUOUS
10
3.9205
20
-2.97835
11
3.91976
21
-2.97579
0
LINE
8
BLACK
6
CONTINUOUS
10
3.91976
20
-2.97579
11
3.91976
21
-2.97303
0
LINE
8
BLACK
6
CONTINUOUS
10
3.91976
20
-2.97303
11
3.92043
21
-2.97071
0
LINE
8
BLACK
6
CONTINUOUS
10
3.92043
20
-2.97071
11
3.92043
21
-2.97071
0
LINE
8
BLACK
6
CONTINUOUS
10
3.92043
20
-2.97071
11
3.9205
21
-2.97047
0
LINE
8
BLACK
6
CONTINUOUS
10
3.9205
20
-2.97047
11
3.92054
21
-2.96997
0
LINE
8
BLACK
6
CONTINUOUS
10
3.92054
20
-2.96997
11
3.9206
21
-2.96915
0
LINE
8
BLACK
6
CONTINUOUS
10
3.9206
20
-2.96915
11
3.9206
21
-2.96915
0
LINE
8
BLACK
6
CONTINUOUS
10
3.9206
20
-2.96915
11
3.92061
21
-2.96905
0
LINE
8
BLACK
6
CONTINUOUS
10
3.92061
20
-2.96905
11
3.92061
21
-2.95417
0
LINE
8
BLACK
6
CONTINUOUS
10
3.92061
20
-2.95417
11
3.9205
21
-2.95276
0
LINE
8
BLACK
6
CONTINUOUS
10
3.9205
20
-2.95276
11
3.91976
21
-2.9502
0
LINE
8
BLACK
6
CONTINUOUS
10
3.91976
20
-2.9502
11
3.91976
21
-2.94743
0
LINE
8
BLACK
6
CONTINUOUS
10
3.91976
20
-2.94743
11
3.92043
21
-2.94512
0
LINE
8
BLACK
6
CONTINUOUS
10
3.92043
20
-2.94512
11
3.92043
21
-2.94512
0
LINE
8
BLACK
6
CONTINUOUS
10
3.92043
20
-2.94512
11
3.9205
21
-2.94488
0
LINE
8
BLACK
6
CONTINUOUS
10
3.9205
20
-2.94488
11
3.92056
21
-2.94416
0
LINE
8
BLACK
6
CONTINUOUS
10
3.92056
20
-2.94416
11
3.9206
21
-2.94356
0
LINE
8
BLACK
6
CONTINUOUS
10
3.9206
20
-2.94356
11
3.9206
21
-2.94356
0
LINE
8
BLACK
6
CONTINUOUS
10
3.9206
20
-2.94356
11
3.92061
21
-2.94346
0
LINE
8
BLACK
6
CONTINUOUS
10
3.92061
20
-2.94346
11
3.92061
21
-2.92858
0
LINE
8
BLACK
6
CONTINUOUS
10
3.92061
20
-2.92858
11
3.9205
21
-2.92717
0
LINE
8
BLACK
6
CONTINUOUS
10
3.9205
20
-2.92717
11
3.91983
21
-2.92487
0
LINE
8
BLACK
6
CONTINUOUS
10
3.91983
20
-2.92487
11
3.91976
21
-2.92461
0
LINE
8
BLACK
6
CONTINUOUS
10
3.91976
20
-2.92461
11
3.91976
21
-2.92184
0
LINE
8
BLACK
6
CONTINUOUS
10
3.91976
20
-2.92184
11
3.92043
21
-2.91953
0
LINE
8
BLACK
6
CONTINUOUS
10
3.92043
20
-2.91953
11
3.92043
21
-2.91953
0
LINE
8
BLACK
6
CONTINUOUS
10
3.92043
20
-2.91953
11
3.9205
21
-2.91929
0
LINE
8
BLACK
6
CONTINUOUS
10
3.9205
20
-2.91929
11
3.92054
21
-2.91879
0
LINE
8
BLACK
6
CONTINUOUS
10
3.92054
20
-2.91879
11
3.9206
21
-2.91797
0
LINE
8
BLACK
6
CONTINUOUS
10
3.9206
20
-2.91797
11
3.9206
21
-2.91797
0
LINE
8
BLACK
6
CONTINUOUS
10
3.9206
20
-2.91797
11
3.92061
21
-2.91787
0
LINE
8
BLACK
6
CONTINUOUS
10
3.92061
20
-2.91787
11
3.92061
21
-2.90299
0
LINE
8
BLACK
6
CONTINUOUS
10
3.92061
20
-2.90299
11
3.9205
21
-2.90158
0
LINE
8
BLACK
6
CONTINUOUS
10
3.9205
20
-2.90158
11
3.91874
21
-2.89553
0
LINE
8
BLACK
6
CONTINUOUS
10
3.91874
20
-2.89553
11
3.91695
21
-2.8925
0
LINE
8
BLACK
6
CONTINUOUS
10
3.91695
20
-2.8925
11
3.91569
21
-2.89037
0
LINE
8
BLACK
6
CONTINUOUS
10
3.91569
20
-2.89037
11
3.91569
21
-2.89037
0
LINE
8
BLACK
6
CONTINUOUS
10
3.91569
20
-2.89037
11
3.91553
21
-2.8901
0
LINE
8
BLACK
6
CONTINUOUS
10
3.91553
20
-2.8901
11
3.91108
21
-2.88565
0
LINE
8
BLACK
6
CONTINUOUS
10
3.91108
20
-2.88565
11
3.91081
21
-2.88549
0
LINE
8
BLACK
6
CONTINUOUS
10
3.91081
20
-2.88549
11
3.91081
21
-2.88549
0
LINE
8
BLACK
6
CONTINUOUS
10
3.91081
20
-2.88549
11
3.90592
21
-2.8826
0
LINE
8
BLACK
6
CONTINUOUS
10
3.90592
20
-2.8826
11
3.90592
21
-2.8826
0
LINE
8
BLACK
6
CONTINUOUS
10
3.90592
20
-2.8826
11
3.90565
21
-2.88244
0
LINE
8
BLACK
6
CONTINUOUS
10
3.90565
20
-2.88244
11
3.90535
21
-2.88235
0
LINE
8
BLACK
6
CONTINUOUS
10
3.90535
20
-2.88235
11
3.89985
21
-2.88075
0
LINE
8
BLACK
6
CONTINUOUS
10
3.89985
20
-2.88075
11
3.89985
21
-2.88075
0
LINE
8
BLACK
6
CONTINUOUS
10
3.89985
20
-2.88075
11
3.8996
21
-2.88068
0
LINE
8
BLACK
6
CONTINUOUS
10
3.8996
20
-2.88068
11
3.8991
21
-2.88064
0
LINE
8
BLACK
6
CONTINUOUS
10
3.8991
20
-2.88064
11
3.89828
21
-2.88058
0
LINE
8
BLACK
6
CONTINUOUS
10
3.89828
20
-2.88058
11
3.89828
21
-2.88058
0
LINE
8
BLACK
6
CONTINUOUS
10
3.89828
20
-2.88058
11
3.89819
21
-2.88057
0
LINE
8
BLACK
6
CONTINUOUS
10
3.89819
20
-2.88057
11
3.89809
21
-2.88057
0
LINE
8
BLACK
6
CONTINUOUS
10
3.89809
20
-2.88057
11
3.86565
21
-2.88057
0
LINE
8
BLACK
6
CONTINUOUS
10
3.86565
20
-2.88057
11
3.83311
21
-2.88057
0
LINE
8
BLACK
6
CONTINUOUS
10
3.83311
20
-2.88057
11
3.83301
21
-2.88058
0
LINE
8
BLACK
6
CONTINUOUS
10
3.83301
20
-2.88058
11
3.83297
21
-2.88058
0
LINE
8
BLACK
6
CONTINUOUS
10
3.83297
20
-2.88058
11
3.83026
21
-2.8799
0
LINE
8
BLACK
6
CONTINUOUS
10
3.83026
20
-2.8799
11
3.82857
21
-2.87825
0
LINE
8
BLACK
6
CONTINUOUS
10
3.82857
20
-2.87825
11
3.8284
21
-2.87798
0
LINE
8
BLACK
6
CONTINUOUS
10
3.8284
20
-2.87798
11
3.8284
21
-2.87798
0
LINE
8
BLACK
6
CONTINUOUS
10
3.8284
20
-2.87798
11
3.82825
21
-2.87774
0
LINE
8
BLACK
6
CONTINUOUS
10
3.82825
20
-2.87774
11
3.82719
21
-2.87667
0
LINE
8
BLACK
6
CONTINUOUS
10
3.82719
20
-2.87667
11
3.82342
21
-2.87287
0
LINE
8
BLACK
6
CONTINUOUS
10
3.82342
20
-2.87287
11
3.82342
21
-2.87287
0
LINE
8
BLACK
6
CONTINUOUS
10
3.82342
20
-2.87287
11
3.82322
21
-2.87267
0
LINE
8
BLACK
6
CONTINUOUS
10
3.82322
20
-2.87267
11
3.82278
21
-2.8724
0
LINE
8
BLACK
6
CONTINUOUS
10
3.82278
20
-2.8724
11
3.82089
21
-2.87119
0
LINE
8
BLACK
6
CONTINUOUS
10
3.82089
20
-2.87119
11
3.81719
21
-2.86885
0
LINE
8
BLACK
6
CONTINUOUS
10
3.81719
20
-2.86885
11
3.8151
21
-2.8681
0
LINE
8
BLACK
6
CONTINUOUS
10
3.8151
20
-2.8681
11
3.81073
21
-2.86654
0
LINE
8
BLACK
6
CONTINUOUS
10
3.81073
20
-2.86654
11
3.81073
21
-2.86654
0
LINE
8
BLACK
6
CONTINUOUS
10
3.81073
20
-2.86654
11
3.81046
21
-2.86645
0
LINE
8
BLACK
6
CONTINUOUS
10
3.81046
20
-2.86645
11
3.81019
21
-2.86642
0
LINE
8
BLACK
6
CONTINUOUS
10
3.81019
20
-2.86642
11
3.81019
21
-2.86642
0
LINE
8
BLACK
6
CONTINUOUS
10
3.81019
20
-2.86642
11
3.80534
21
-2.86584
0
LINE
8
BLACK
6
CONTINUOUS
10
3.80534
20
-2.86584
11
3.80337
21
-2.86561
0
LINE
8
BLACK
6
CONTINUOUS
10
3.80337
20
-2.86561
11
3.8031
21
-2.86564
0
LINE
8
BLACK
6
CONTINUOUS
10
3.8031
20
-2.86564
11
3.8031
21
-2.86564
0
LINE
8
BLACK
6
CONTINUOUS
10
3.8031
20
-2.86564
11
3.79655
21
-2.86632
0
LINE
8
BLACK
6
CONTINUOUS
10
3.79655
20
-2.86632
11
3.79655
21
-2.86632
0
LINE
8
BLACK
6
CONTINUOUS
10
3.79655
20
-2.86632
11
3.79627
21
-2.86635
0
LINE
8
BLACK
6
CONTINUOUS
10
3.79627
20
-2.86635
11
3.78951
21
-2.86865
0
LINE
8
BLACK
6
CONTINUOUS
10
3.78951
20
-2.86865
11
3.78927
21
-2.8688
0
LINE
8
BLACK
6
CONTINUOUS
10
3.78927
20
-2.8688
11
3.78367
21
-2.87225
0
LINE
8
BLACK
6
CONTINUOUS
10
3.78367
20
-2.87225
11
3.78367
21
-2.87225
0
LINE
8
BLACK
6
CONTINUOUS
10
3.78367
20
-2.87225
11
3.78343
21
-2.8724
0
LINE
8
BLACK
6
CONTINUOUS
10
3.78343
20
-2.8724
11
3.78323
21
-2.87259
0
LINE
8
BLACK
6
CONTINUOUS
10
3.78323
20
-2.87259
11
3.78323
21
-2.87259
0
LINE
8
BLACK
6
CONTINUOUS
10
3.78323
20
-2.87259
11
3.77852
21
-2.8772
0
LINE
8
BLACK
6
CONTINUOUS
10
3.77852
20
-2.8772
11
3.77833
21
-2.87739
0
LINE
8
BLACK
6
CONTINUOUS
10
3.77833
20
-2.87739
11
3.77446
21
-2.8834
0
LINE
8
BLACK
6
CONTINUOUS
10
3.77446
20
-2.8834
11
3.77436
21
-2.88366
0
LINE
8
BLACK
6
CONTINUOUS
10
3.77436
20
-2.88366
11
3.77436
21
-2.88366
0
LINE
8
BLACK
6
CONTINUOUS
10
3.77436
20
-2.88366
11
3.77282
21
-2.88789
0
LINE
8
BLACK
6
CONTINUOUS
10
3.77282
20
-2.88789
11
3.77202
21
-2.89011
0
LINE
8
BLACK
6
CONTINUOUS
10
3.77202
20
-2.89011
11
3.77112
21
-2.89719
0
LINE
8
BLACK
6
CONTINUOUS
10
3.77112
20
-2.89719
11
3.77182
21
-2.9043
0
LINE
8
BLACK
6
CONTINUOUS
10
3.77182
20
-2.9043
11
3.77407
21
-2.91107
0
LINE
8
BLACK
6
CONTINUOUS
10
3.77407
20
-2.91107
11
3.77422
21
-2.91131
0
LINE
8
BLACK
6
CONTINUOUS
10
3.77422
20
-2.91131
11
3.77422
21
-2.91131
0
LINE
8
BLACK
6
CONTINUOUS
10
3.77422
20
-2.91131
11
3.77763
21
-2.91694
0
LINE
8
BLACK
6
CONTINUOUS
10
3.77763
20
-2.91694
11
3.77763
21
-2.91694
0
LINE
8
BLACK
6
CONTINUOUS
10
3.77763
20
-2.91694
11
3.77777
21
-2.91718
0
LINE
8
BLACK
6
CONTINUOUS
10
3.77777
20
-2.91718
11
3.77833
21
-2.91776
0
LINE
8
BLACK
6
CONTINUOUS
10
3.77833
20
-2.91776
11
3.77963
21
-2.92024
0
LINE
8
BLACK
6
CONTINUOUS
10
3.77963
20
-2.92024
11
3.77938
21
-2.92302
0
LINE
8
BLACK
6
CONTINUOUS
10
3.77938
20
-2.92302
11
3.77861
21
-2.92434
0
LINE
8
BLACK
6
CONTINUOUS
10
3.77861
20
-2.92434
11
3.77852
21
-2.92444
0
LINE
8
BLACK
6
CONTINUOUS
10
3.77852
20
-2.92444
11
3.77833
21
-2.92464
0
LINE
8
BLACK
6
CONTINUOUS
10
3.77833
20
-2.92464
11
3.77818
21
-2.92487
0
LINE
8
BLACK
6
CONTINUOUS
10
3.77818
20
-2.92487
11
3.77553
21
-2.92898
0
LINE
8
BLACK
6
CONTINUOUS
10
3.77553
20
-2.92898
11
3.77446
21
-2.93064
0
LINE
8
BLACK
6
CONTINUOUS
10
3.77446
20
-2.93064
11
3.77436
21
-2.9309
0
LINE
8
BLACK
6
CONTINUOUS
10
3.77436
20
-2.9309
11
3.77436
21
-2.9309
0
LINE
8
BLACK
6
CONTINUOUS
10
3.77436
20
-2.9309
11
3.77289
21
-2.93495
0
LINE
8
BLACK
6
CONTINUOUS
10
3.77289
20
-2.93495
11
3.77202
21
-2.93735
0
LINE
8
BLACK
6
CONTINUOUS
10
3.77202
20
-2.93735
11
3.77112
21
-2.94443
0
LINE
8
BLACK
6
CONTINUOUS
10
3.77112
20
-2.94443
11
3.77182
21
-2.95154
0
LINE
8
BLACK
6
CONTINUOUS
10
3.77182
20
-2.95154
11
3.77407
21
-2.95832
0
LINE
8
BLACK
6
CONTINUOUS
10
3.77407
20
-2.95832
11
3.77422
21
-2.95855
0
LINE
8
BLACK
6
CONTINUOUS
10
3.77422
20
-2.95855
11
3.77422
21
-2.95856
0
LINE
8
BLACK
6
CONTINUOUS
10
3.77422
20
-2.95856
11
3.77761
21
-2.96416
0
LINE
8
BLACK
6
CONTINUOUS
10
3.77761
20
-2.96416
11
3.77777
21
-2.96443
0
LINE
8
BLACK
6
CONTINUOUS
10
3.77777
20
-2.96443
11
3.78273
21
-2.96956
0
LINE
8
BLACK
6
CONTINUOUS
10
3.78273
20
-2.96956
11
3.78871
21
-2.97347
0
LINE
8
BLACK
6
CONTINUOUS
10
3.78871
20
-2.97347
11
3.78897
21
-2.97357
0
LINE
8
BLACK
6
CONTINUOUS
10
3.78897
20
-2.97357
11
3.78897
21
-2.97357
0
LINE
8
BLACK
6
CONTINUOUS
10
3.78897
20
-2.97357
11
3.79514
21
-2.97587
0
LINE
8
BLACK
6
CONTINUOUS
10
3.79514
20
-2.97587
11
3.79514
21
-2.97587
0
LINE
8
BLACK
6
CONTINUOUS
10
3.79514
20
-2.97587
11
3.7954
21
-2.97596
0
LINE
8
BLACK
6
CONTINUOUS
10
3.7954
20
-2.97596
11
3.7987
21
-2.9764
0
LINE
8
BLACK
6
CONTINUOUS
10
3.7987
20
-2.9764
11
3.8022
21
-2.97687
0
LINE
8
BLACK
6
CONTINUOUS
10
3.8022
20
-2.97687
11
3.8022
21
-2.97687
0
LINE
8
BLACK
6
CONTINUOUS
10
3.8022
20
-2.97687
11
3.80248
21
-2.97691
0
LINE
8
BLACK
6
CONTINUOUS
10
3.80248
20
-2.97691
11
3.80275
21
-2.97688
0
LINE
8
BLACK
6
CONTINUOUS
10
3.80275
20
-2.97688
11
3.80275
21
-2.97688
0
LINE
8
BLACK
6
CONTINUOUS
10
3.80275
20
-2.97688
11
3.80375
21
-2.97679
0
LINE
8
BLACK
6
CONTINUOUS
10
3.80375
20
-2.97679
11
3.80528
21
-2.97665
0
LINE
8
BLACK
6
CONTINUOUS
10
3.80528
20
-2.97665
11
3.80802
21
-2.97719
0
LINE
8
BLACK
6
CONTINUOUS
10
3.80802
20
-2.97719
11
3.81004
21
-2.97913
0
LINE
8
BLACK
6
CONTINUOUS
10
3.81004
20
-2.97913
11
3.81069
21
-2.98159
0
LINE
8
BLACK
6
CONTINUOUS
10
3.81069
20
-2.98159
11
3.81069
21
-2.98807
0
LINE
8
BLACK
6
CONTINUOUS
10
3.81069
20
-2.98807
11
3.81069
21
-2.99464
0
LINE
8
BLACK
6
CONTINUOUS
10
3.81069
20
-2.99464
11
3.8107
21
-2.99474
0
LINE
8
BLACK
6
CONTINUOUS
10
3.8107
20
-2.99474
11
3.8107
21
-2.99474
0
LINE
8
BLACK
6
CONTINUOUS
10
3.8107
20
-2.99474
11
3.81075
21
-2.99536
0
LINE
8
BLACK
6
CONTINUOUS
10
3.81075
20
-2.99536
11
3.8108
21
-2.99606
0
LINE
8
BLACK
6
CONTINUOUS
10
3.8108
20
-2.99606
11
3.81087
21
-2.9963
0
LINE
8
BLACK
6
CONTINUOUS
10
3.81087
20
-2.9963
11
3.81154
21
-2.99862
0
LINE
8
BLACK
6
CONTINUOUS
10
3.81154
20
-2.99862
11
3.81154
21
-3.00138
0
LINE
8
BLACK
6
CONTINUOUS
10
3.81154
20
-3.00138
11
3.8108
21
-3.00394
0
LINE
8
BLACK
6
CONTINUOUS
10
3.8108
20
-3.00394
11
3.81076
21
-3.00439
0
LINE
8
BLACK
6
CONTINUOUS
10
3.81076
20
-3.00439
11
3.8107
21
-3.00526
0
LINE
8
BLACK
6
CONTINUOUS
10
3.8107
20
-3.00526
11
3.8107
21
-3.00526
0
LINE
8
BLACK
6
CONTINUOUS
10
3.8107
20
-3.00526
11
3.81069
21
-3.00536
0
LINE
8
BLACK
6
CONTINUOUS
10
3.81069
20
-3.00536
11
3.81069
21
-3.02024
0
LINE
8
BLACK
6
CONTINUOUS
10
3.81069
20
-3.02024
11
3.8108
21
-3.02165
0
LINE
8
BLACK
6
CONTINUOUS
10
3.8108
20
-3.02165
11
3.81087
21
-3.02189
0
LINE
8
BLACK
6
CONTINUOUS
10
3.81087
20
-3.02189
11
3.81154
21
-3.02421
0
LINE
8
BLACK
6
CONTINUOUS
10
3.81154
20
-3.02421
11
3.81154
21
-3.02697
0
LINE
8
BLACK
6
CONTINUOUS
10
3.81154
20
-3.02697
11
3.8108
21
-3.02953
0
LINE
8
BLACK
6
CONTINUOUS
10
3.8108
20
-3.02953
11
3.81078
21
-3.02978
0
LINE
8
BLACK
6
CONTINUOUS
10
3.81078
20
-3.02978
11
3.81078
21
-3.02978
0
LINE
8
BLACK
6
CONTINUOUS
10
3.81078
20
-3.02978
11
3.8107
21
-3.03085
0
LINE
8
BLACK
6
CONTINUOUS
10
3.8107
20
-3.03085
11
3.8107
21
-3.03085
0
LINE
8
BLACK
6
CONTINUOUS
10
3.8107
20
-3.03085
11
3.81069
21
-3.03095
0
LINE
8
BLACK
6
CONTINUOUS
10
3.81069
20
-3.03095
11
3.81069
21
-3.04583
0
LINE
8
BLACK
6
CONTINUOUS
10
3.81069
20
-3.04583
11
3.8108
21
-3.04724
0
LINE
8
BLACK
6
CONTINUOUS
10
3.8108
20
-3.04724
11
3.81087
21
-3.04748
0
LINE
8
BLACK
6
CONTINUOUS
10
3.81087
20
-3.04748
11
3.81087
21
-3.04748
0
LINE
8
BLACK
6
CONTINUOUS
10
3.81087
20
-3.04748
11
3.81154
21
-3.0498
0
LINE
8
BLACK
6
CONTINUOUS
10
3.81154
20
-3.0498
11
3.81154
21
-3.05257
0
LINE
8
BLACK
6
CONTINUOUS
10
3.81154
20
-3.05257
11
3.8108
21
-3.05512
0
LINE
8
BLACK
6
CONTINUOUS
10
3.8108
20
-3.05512
11
3.81078
21
-3.05538
0
LINE
8
BLACK
6
CONTINUOUS
10
3.81078
20
-3.05538
11
3.81078
21
-3.05538
0
LINE
8
BLACK
6
CONTINUOUS
10
3.81078
20
-3.05538
11
3.8107
21
-3.05644
0
LINE
8
BLACK
6
CONTINUOUS
10
3.8107
20
-3.05644
11
3.8107
21
-3.05644
0
LINE
8
BLACK
6
CONTINUOUS
10
3.8107
20
-3.05644
11
3.81069
21
-3.05654
0
LINE
8
BLACK
6
CONTINUOUS
10
3.81069
20
-3.05654
11
3.81069
21
-3.07142
0
LINE
8
BLACK
6
CONTINUOUS
10
3.81069
20
-3.07142
11
3.8108
21
-3.07283
0
LINE
8
BLACK
6
CONTINUOUS
10
3.8108
20
-3.07283
11
3.81087
21
-3.07307
0
LINE
8
BLACK
6
CONTINUOUS
10
3.81087
20
-3.07307
11
3.81154
21
-3.07539
0
LINE
8
BLACK
6
CONTINUOUS
10
3.81154
20
-3.07539
11
3.81154
21
-3.07816
0
LINE
8
BLACK
6
CONTINUOUS
10
3.81154
20
-3.07816
11
3.8108
21
-3.08071
0
LINE
8
BLACK
6
CONTINUOUS
10
3.8108
20
-3.08071
11
3.81078
21
-3.08097
0
LINE
8
BLACK
6
CONTINUOUS
10
3.81078
20
-3.08097
11
3.81078
21
-3.08097
0
LINE
8
BLACK
6
CONTINUOUS
10
3.81078
20
-3.08097
11
3.8107
21
-3.08203
0
LINE
8
BLACK
6
CONTINUOUS
10
3.8107
20
-3.08203
11
3.8107
21
-3.08203
0
LINE
8
BLACK
6
CONTINUOUS
10
3.8107
20
-3.08203
11
3.81069
21
-3.08213
0
LINE
8
BLACK
6
CONTINUOUS
10
3.81069
20
-3.08213
11
3.81069
21
-3.09701
0
LINE
8
BLACK
6
CONTINUOUS
10
3.81069
20
-3.09701
11
3.8108
21
-3.09842
0
LINE
8
BLACK
6
CONTINUOUS
10
3.8108
20
-3.09842
11
3.81256
21
-3.10447
0
LINE
8
BLACK
6
CONTINUOUS
10
3.81256
20
-3.10447
11
3.81272
21
-3.10474
0
LINE
8
BLACK
6
CONTINUOUS
10
3.81272
20
-3.10474
11
3.81561
21
-3.10963
0
LINE
8
BLACK
6
CONTINUOUS
10
3.81561
20
-3.10963
11
3.81561
21
-3.10963
0
LINE
8
BLACK
6
CONTINUOUS
10
3.81561
20
-3.10963
11
3.81577
21
-3.1099
0
LINE
8
BLACK
6
CONTINUOUS
10
3.81577
20
-3.1099
11
3.82022
21
-3.11435
0
LINE
8
BLACK
6
CONTINUOUS
10
3.82022
20
-3.11435
11
3.82049
21
-3.11451
0
LINE
8
BLACK
6
CONTINUOUS
10
3.82049
20
-3.11451
11
3.82049
21
-3.11451
0
LINE
8
BLACK
6
CONTINUOUS
10
3.82049
20
-3.11451
11
3.82465
21
-3.11697
0
LINE
8
BLACK
6
CONTINUOUS
10
3.82465
20
-3.11697
11
3.82565
21
-3.11756
0
LINE
8
BLACK
6
CONTINUOUS
10
3.82565
20
-3.11756
11
3.82595
21
-3.11765
0
LINE
8
BLACK
6
CONTINUOUS
10
3.82595
20
-3.11765
11
3.83145
21
-3.11925
0
LINE
8
BLACK
6
CONTINUOUS
10
3.83145
20
-3.11925
11
3.83145
21
-3.11925
0
LINE
8
BLACK
6
CONTINUOUS
10
3.83145
20
-3.11925
11
3.8317
21
-3.11932
0
LINE
8
BLACK
6
CONTINUOUS
10
3.8317
20
-3.11932
11
3.8322
21
-3.11936
0
LINE
8
BLACK
6
CONTINUOUS
10
3.8322
20
-3.11936
11
3.83301
21
-3.11942
0
LINE
8
BLACK
6
CONTINUOUS
10
3.83301
20
-3.11942
11
3.83301
21
-3.11942
0
LINE
8
BLACK
6
CONTINUOUS
10
3.83301
20
-3.11942
11
3.83311
21
-3.11943
0
LINE
8
BLACK
6
CONTINUOUS
10
3.83311
20
-3.11943
11
3.86563
21
-3.11943
0
LINE
8
BLACK
6
CONTINUOUS
10
3.86563
20
-3.11943
11
3.89819
21
-3.11943
0
LINE
8
BLACK
6
CONTINUOUS
10
3.89819
20
-3.11943
11
3.89849
21
-3.1194
0
LINE
8
BLACK
6
CONTINUOUS
10
3.89849
20
-3.1194
11
3.89935
21
-3.11934
0
LINE
8
BLACK
6
CONTINUOUS
10
3.89935
20
-3.11934
11
3.89935
21
-3.11934
0
LINE
8
BLACK
6
CONTINUOUS
10
3.89935
20
-3.11934
11
3.8996
21
-3.11932
0
LINE
8
BLACK
6
CONTINUOUS
10
3.8996
20
-3.11932
11
3.90565
21
-3.11756
0
LINE
8
BLACK
6
CONTINUOUS
10
3.90565
20
-3.11756
11
3.90665
21
-3.11697
0
LINE
8
BLACK
6
CONTINUOUS
10
3.90665
20
-3.11697
11
3.91081
21
-3.11451
0
LINE
8
BLACK
6
CONTINUOUS
10
3.91081
20
-3.11451
11
3.91081
21
-3.11451
0
LINE
8
BLACK
6
CONTINUOUS
10
3.91081
20
-3.11451
11
3.91108
21
-3.11435
0
LINE
8
BLACK
6
CONTINUOUS
10
3.91108
20
-3.11435
11
3.91553
21
-3.1099
0
LINE
8
BLACK
6
CONTINUOUS
10
3.91553
20
-3.1099
11
3.91569
21
-3.10963
0
LINE
8
BLACK
6
CONTINUOUS
10
3.91569
20
-3.10963
11
3.91569
21
-3.10963
0
LINE
8
BLACK
6
CONTINUOUS
10
3.91569
20
-3.10963
11
3.91858
21
-3.10474
0
LINE
8
BLACK
6
CONTINUOUS
10
3.91858
20
-3.10474
11
3.91874
21
-3.10447
0
LINE
8
BLACK
6
CONTINUOUS
10
3.91874
20
-3.10447
11
3.91964
21
-3.10138
0
LINE
8
BLACK
6
CONTINUOUS
10
3.91964
20
-3.10138
11
3.92043
21
-3.09866
0
LINE
8
BLACK
6
CONTINUOUS
10
3.92043
20
-3.09866
11
3.92043
21
-3.09866
0
LINE
8
BLACK
6
CONTINUOUS
10
3.92043
20
-3.09866
11
3.9205
21
-3.09842
0
LINE
8
BLACK
6
CONTINUOUS
10
3.9205
20
-3.09842
11
3.92054
21
-3.09792
0
LINE
8
BLACK
6
CONTINUOUS
10
3.92054
20
-3.09792
11
3.9206
21
-3.0971
0
LINE
8
BLACK
6
CONTINUOUS
10
3.9206
20
-3.0971
11
3.9206
21
-3.0971
0
LINE
8
BLACK
6
CONTINUOUS
10
3.9206
20
-3.0971
11
3.92061
21
-3.09701
0
LINE
8
BLACK
6
CONTINUOUS
10
3.92061
20
-3.09701
11
3.92061
21
-3.08213
0
LINE
8
BLACK
6
CONTINUOUS
10
3.92061
20
-3.08213
11
3.9205
21
-3.08071
0
LINE
8
BLACK
6
CONTINUOUS
10
3.9205
20
-3.08071
11
3.91976
21
-3.07816
0
LINE
8
BLACK
6
CONTINUOUS
10
3.91976
20
-3.07816
11
3.91976
21
-3.07539
0
LINE
8
BLACK
6
CONTINUOUS
10
3.91976
20
-3.07539
11
3.92043
21
-3.07307
0
LINE
8
BLACK
6
CONTINUOUS
10
3.92043
20
-3.07307
11
3.92043
21
-3.07307
0
LINE
8
BLACK
6
CONTINUOUS
10
3.92043
20
-3.07307
11
3.9205
21
-3.07283
0
LINE
8
BLACK
6
CONTINUOUS
10
3.9205
20
-3.07283
11
3.92058
21
-3.07177
0
LINE
8
BLACK
6
CONTINUOUS
10
3.92058
20
-3.07177
11
3.9206
21
-3.07151
0
LINE
8
BLACK
6
CONTINUOUS
10
3.9206
20
-3.07151
11
3.9206
21
-3.07151
0
LINE
8
BLACK
6
CONTINUOUS
10
3.9206
20
-3.07151
11
3.92061
21
-3.07142
0
LINE
8
BLACK
6
CONTINUOUS
10
3.92061
20
-3.07142
11
3.92061
21
-3.05654
0
LINE
8
BLACK
6
CONTINUOUS
10
3.92061
20
-3.05654
11
3.9205
21
-3.05512
0
LINE
8
BLACK
6
CONTINUOUS
10
3.9205
20
-3.05512
11
3.91976
21
-3.05257
0
LINE
8
BLACK
6
CONTINUOUS
10
3.91976
20
-3.05257
11
3.91976
21
-3.0498
0
LINE
8
BLACK
6
CONTINUOUS
10
3.91976
20
-3.0498
11
3.92043
21
-3.04748
0
LINE
8
BLACK
6
CONTINUOUS
10
3.92043
20
-3.04748
11
3.92043
21
-3.04748
0
LINE
8
BLACK
6
CONTINUOUS
10
3.92043
20
-3.04748
11
3.9205
21
-3.04724
0
LINE
8
BLACK
6
CONTINUOUS
10
3.9205
20
-3.04724
11
3.92054
21
-3.04674
0
LINE
8
BLACK
6
CONTINUOUS
10
3.92054
20
-3.04674
11
3.9206
21
-3.04592
0
LINE
8
BLACK
6
CONTINUOUS
10
3.9206
20
-3.04592
11
3.9206
21
-3.04592
0
LINE
8
BLACK
6
CONTINUOUS
10
3.9206
20
-3.04592
11
3.92061
21
-3.04583
0
LINE
8
BLACK
6
CONTINUOUS
10
3.92061
20
-3.04583
11
3.92061
21
-3.03095
0
LINE
8
BLACK
6
CONTINUOUS
10
3.92061
20
-3.03095
11
3.92061
21
-3.03095
0
LINE
8
BLACK
6
CONTINUOUS
10
3.92061
20
-3.03095
11
3.9205
21
-3.02953
0
LINE
8
BLACK
6
CONTINUOUS
10
3.9205
20
-3.02953
11
3.91976
21
-3.02697
0
LINE
8
BLACK
6
CONTINUOUS
10
4.62451
20
-3.49337
11
4.63091
21
-3.49622
0
LINE
8
BLACK
6
CONTINUOUS
10
4.63091
20
-3.49622
11
4.63657
21
-3.50033
0
LINE
8
BLACK
6
CONTINUOUS
10
4.63657
20
-3.50033
11
4.64125
21
-3.50553
0
LINE
8
BLACK
6
CONTINUOUS
10
4.64125
20
-3.50553
11
4.64474
21
-3.51159
0
LINE
8
BLACK
6
CONTINUOUS
10
4.64474
20
-3.51159
11
4.64691
21
-3.51824
0
LINE
8
BLACK
6
CONTINUOUS
10
4.64691
20
-3.51824
11
4.64764
21
-3.5252
0
LINE
8
BLACK
6
CONTINUOUS
10
4.64764
20
-3.5252
11
4.64691
21
-3.53215
0
LINE
8
BLACK
6
CONTINUOUS
10
4.64691
20
-3.53215
11
4.64474
21
-3.53881
0
LINE
8
BLACK
6
CONTINUOUS
10
4.64474
20
-3.53881
11
4.64125
21
-3.54487
0
LINE
8
BLACK
6
CONTINUOUS
10
4.64125
20
-3.54487
11
4.63657
21
-3.55007
0
LINE
8
BLACK
6
CONTINUOUS
10
4.63657
20
-3.55007
11
4.63091
21
-3.55418
0
LINE
8
BLACK
6
CONTINUOUS
10
4.63091
20
-3.55418
11
4.62451
21
-3.55702
0
LINE
8
BLACK
6
CONTINUOUS
10
4.62451
20
-3.55702
11
4.61767
21
-3.55848
0
LINE
8
BLACK
6
CONTINUOUS
10
4.61767
20
-3.55848
11
4.61068
21
-3.55848
0
LINE
8
BLACK
6
CONTINUOUS
10
4.61068
20
-3.55848
11
4.60383
21
-3.55702
0
LINE
8
BLACK
6
CONTINUOUS
10
4.60383
20
-3.55702
11
4.59744
21
-3.55418
0
LINE
8
BLACK
6
CONTINUOUS
10
4.59744
20
-3.55418
11
4.59178
21
-3.55007
0
LINE
8
BLACK
6
CONTINUOUS
10
4.59178
20
-3.55007
11
4.5871
21
-3.54487
0
LINE
8
BLACK
6
CONTINUOUS
10
4.5871
20
-3.54487
11
4.5836
21
-3.53881
0
LINE
8
BLACK
6
CONTINUOUS
10
4.5836
20
-3.53881
11
4.58144
21
-3.53215
0
LINE
8
BLACK
6
CONTINUOUS
10
4.58144
20
-3.53215
11
4.58071
21
-3.5252
0
LINE
8
BLACK
6
CONTINUOUS
10
4.58071
20
-3.5252
11
4.58144
21
-3.51824
0
LINE
8
BLACK
6
CONTINUOUS
10
4.58144
20
-3.51824
11
4.5836
21
-3.51159
0
LINE
8
BLACK
6
CONTINUOUS
10
4.5836
20
-3.51159
11
4.5871
21
-3.50553
0
LINE
8
BLACK
6
CONTINUOUS
10
4.5871
20
-3.50553
11
4.59178
21
-3.50033
0
LINE
8
BLACK
6
CONTINUOUS
10
4.59178
20
-3.50033
11
4.59744
21
-3.49622
0
LINE
8
BLACK
6
CONTINUOUS
10
4.59744
20
-3.49622
11
4.60383
21
-3.49337
0
LINE
8
BLACK
6
CONTINUOUS
10
4.60383
20
-3.49337
11
4.61068
21
-3.49192
0
LINE
8
BLACK
6
CONTINUOUS
10
4.61068
20
-3.49192
11
4.61767
21
-3.49192
0
LINE
8
BLACK
6
CONTINUOUS
10
4.61767
20
-3.49192
11
4.62451
21
-3.49337
0
LINE
8
BLACK
6
CONTINUOUS
10
4.64764
20
-3.45866
11
4.58071
21
-3.45866
0
LINE
8
BLACK
6
CONTINUOUS
10
4.58071
20
-3.45866
11
4.58071
21
-3.39173
0
LINE
8
BLACK
6
CONTINUOUS
10
4.58071
20
-3.39173
11
4.64764
21
-3.39173
0
LINE
8
BLACK
6
CONTINUOUS
10
4.64764
20
-3.39173
11
4.64764
21
-3.45866
0
LINE
8
BLACK
6
CONTINUOUS
10
4.28937
20
-3.28898
11
4.29251
21
-3.29162
0
LINE
8
BLACK
6
CONTINUOUS
10
4.29251
20
-3.29162
11
4.29456
21
-3.29517
0
LINE
8
BLACK
6
CONTINUOUS
10
4.29456
20
-3.29517
11
4.29528
21
-3.29921
0
LINE
8
BLACK
6
CONTINUOUS
10
4.29528
20
-3.29921
11
4.29456
21
-3.30325
0
LINE
8
BLACK
6
CONTINUOUS
10
4.29456
20
-3.30325
11
4.29251
21
-3.3068
0
LINE
8
BLACK
6
CONTINUOUS
10
4.29251
20
-3.3068
11
4.28937
21
-3.30944
0
LINE
8
BLACK
6
CONTINUOUS
10
4.28937
20
-3.30944
11
4.28552
21
-3.31084
0
LINE
8
BLACK
6
CONTINUOUS
10
4.28552
20
-3.31084
11
4.28141
21
-3.31084
0
LINE
8
BLACK
6
CONTINUOUS
10
4.28141
20
-3.31084
11
4.27756
21
-3.30944
0
LINE
8
BLACK
6
CONTINUOUS
10
4.27756
20
-3.30944
11
4.27442
21
-3.3068
0
LINE
8
BLACK
6
CONTINUOUS
10
4.27442
20
-3.3068
11
4.27237
21
-3.30325
0
LINE
8
BLACK
6
CONTINUOUS
10
4.27237
20
-3.30325
11
4.27165
21
-3.29921
0
LINE
8
BLACK
6
CONTINUOUS
10
4.27165
20
-3.29921
11
4.27237
21
-3.29517
0
LINE
8
BLACK
6
CONTINUOUS
10
4.27237
20
-3.29517
11
4.27442
21
-3.29162
0
LINE
8
BLACK
6
CONTINUOUS
10
4.27442
20
-3.29162
11
4.27756
21
-3.28898
0
LINE
8
BLACK
6
CONTINUOUS
10
4.27756
20
-3.28898
11
4.28141
21
-3.28758
0
LINE
8
BLACK
6
CONTINUOUS
10
4.28141
20
-3.28758
11
4.28552
21
-3.28758
0
LINE
8
BLACK
6
CONTINUOUS
10
4.28552
20
-3.28758
11
4.28937
21
-3.28898
0
LINE
8
BLACK
6
CONTINUOUS
10
4.59646
20
-3.07639
11
4.5996
21
-3.07902
0
LINE
8
BLACK
6
CONTINUOUS
10
4.5996
20
-3.07902
11
4.60165
21
-3.08257
0
LINE
8
BLACK
6
CONTINUOUS
10
4.60165
20
-3.08257
11
4.60236
21
-3.08661
0
LINE
8
BLACK
6
CONTINUOUS
10
4.60236
20
-3.08661
11
4.60165
21
-3.09065
0
LINE
8
BLACK
6
CONTINUOUS
10
4.60165
20
-3.09065
11
4.5996
21
-3.09421
0
LINE
8
BLACK
6
CONTINUOUS
10
4.5996
20
-3.09421
11
4.59843
21
-3.09519
0
LINE
8
BLACK
6
CONTINUOUS
10
4.59843
20
-3.09519
11
4.59843
21
-3.22049
0
LINE
8
BLACK
6
CONTINUOUS
10
4.59843
20
-3.22049
11
4.59813
21
-3.22177
0
LINE
8
BLACK
6
CONTINUOUS
10
4.59813
20
-3.22177
11
4.59798
21
-3.22307
0
LINE
8
BLACK
6
CONTINUOUS
10
4.59798
20
-3.22307
11
4.59774
21
-3.22346
0
LINE
8
BLACK
6
CONTINUOUS
10
4.59774
20
-3.22346
11
4.59764
21
-3.2239
0
LINE
8
BLACK
6
CONTINUOUS
10
4.59764
20
-3.2239
11
4.59682
21
-3.22493
0
LINE
8
BLACK
6
CONTINUOUS
10
4.59682
20
-3.22493
11
4.59612
21
-3.22604
0
LINE
8
BLACK
6
CONTINUOUS
10
4.59612
20
-3.22604
11
4.58651
21
-3.23565
0
LINE
8
BLACK
6
CONTINUOUS
10
4.58651
20
-3.23565
11
4.58661
21
-3.23622
0
LINE
8
BLACK
6
CONTINUOUS
10
4.58661
20
-3.23622
11
4.5859
21
-3.24026
0
LINE
8
BLACK
6
CONTINUOUS
10
4.5859
20
-3.24026
11
4.58385
21
-3.24381
0
LINE
8
BLACK
6
CONTINUOUS
10
4.58385
20
-3.24381
11
4.58071
21
-3.24645
0
LINE
8
BLACK
6
CONTINUOUS
10
4.58071
20
-3.24645
11
4.57685
21
-3.24785
0
LINE
8
BLACK
6
CONTINUOUS
10
4.57685
20
-3.24785
11
4.57275
21
-3.24785
0
LINE
8
BLACK
6
CONTINUOUS
10
4.57275
20
-3.24785
11
4.5689
21
-3.24645
0
LINE
8
BLACK
6
CONTINUOUS
10
4.5689
20
-3.24645
11
4.56576
21
-3.24381
0
LINE
8
BLACK
6
CONTINUOUS
10
4.56576
20
-3.24381
11
4.5637
21
-3.24026
0
LINE
8
BLACK
6
CONTINUOUS
10
4.5637
20
-3.24026
11
4.56299
21
-3.23622
0
LINE
8
BLACK
6
CONTINUOUS
10
4.56299
20
-3.23622
11
4.5637
21
-3.23218
0
LINE
8
BLACK
6
CONTINUOUS
10
4.5637
20
-3.23218
11
4.56576
21
-3.22863
0
LINE
8
BLACK
6
CONTINUOUS
10
4.56576
20
-3.22863
11
4.5689
21
-3.22599
0
LINE
8
BLACK
6
CONTINUOUS
10
4.5689
20
-3.22599
11
4.57275
21
-3.22459
0
LINE
8
BLACK
6
CONTINUOUS
10
4.57275
20
-3.22459
11
4.5753
21
-3.22459
0
LINE
8
BLACK
6
CONTINUOUS
10
4.5753
20
-3.22459
11
4.58268
21
-3.21721
0
LINE
8
BLACK
6
CONTINUOUS
10
4.58268
20
-3.21721
11
4.58268
21
-3.09519
0
LINE
8
BLACK
6
CONTINUOUS
10
4.58268
20
-3.09519
11
4.5815
21
-3.09421
0
LINE
8
BLACK
6
CONTINUOUS
10
4.5815
20
-3.09421
11
4.57945
21
-3.09065
0
LINE
8
BLACK
6
CONTINUOUS
10
4.57945
20
-3.09065
11
4.57874
21
-3.08661
0
LINE
8
BLACK
6
CONTINUOUS
10
4.57874
20
-3.08661
11
4.57945
21
-3.08257
0
LINE
8
BLACK
6
CONTINUOUS
10
4.57945
20
-3.08257
11
4.5815
21
-3.07902
0
LINE
8
BLACK
6
CONTINUOUS
10
4.5815
20
-3.07902
11
4.58465
21
-3.07639
0
LINE
8
BLACK
6
CONTINUOUS
10
4.58465
20
-3.07639
11
4.5885
21
-3.07498
0
LINE
8
BLACK
6
CONTINUOUS
10
4.5885
20
-3.07498
11
4.5926
21
-3.07498
0
LINE
8
BLACK
6
CONTINUOUS
10
4.5926
20
-3.07498
11
4.59646
21
-3.07639
0
LINE
8
BLACK
6
CONTINUOUS
10
4.91043
20
-3.1939
11
4.8435
21
-3.1939
0
LINE
8
BLACK
6
CONTINUOUS
10
4.8435
20
-3.1939
11
4.8435
21
-3.12697
0
LINE
8
BLACK
6
CONTINUOUS
10
4.8435
20
-3.12697
11
4.91043
21
-3.12697
0
LINE
8
BLACK
6
CONTINUOUS
10
4.91043
20
-3.12697
11
4.91043
21
-3.1939
0
LINE
8
BLACK
6
CONTINUOUS
10
4.78731
20
-3.12861
11
4.7937
21
-3.13145
0
LINE
8
BLACK
6
CONTINUOUS
10
4.7937
20
-3.13145
11
4.79936
21
-3.13556
0
LINE
8
BLACK
6
CONTINUOUS
10
4.79936
20
-3.13556
11
4.80404
21
-3.14076
0
LINE
8
BLACK
6
CONTINUOUS
10
4.80404
20
-3.14076
11
4.80754
21
-3.14682
0
LINE
8
BLACK
6
CONTINUOUS
10
4.80754
20
-3.14682
11
4.8097
21
-3.15348
0
LINE
8
BLACK
6
CONTINUOUS
10
4.8097
20
-3.15348
11
4.81043
21
-3.16043
0
LINE
8
BLACK
6
CONTINUOUS
10
4.81043
20
-3.16043
11
4.8097
21
-3.16739
0
LINE
8
BLACK
6
CONTINUOUS
10
4.8097
20
-3.16739
11
4.80754
21
-3.17404
0
LINE
8
BLACK
6
CONTINUOUS
10
4.80754
20
-3.17404
11
4.80404
21
-3.1801
0
LINE
8
BLACK
6
CONTINUOUS
10
4.80404
20
-3.1801
11
4.79936
21
-3.1853
0
LINE
8
BLACK
6
CONTINUOUS
10
4.79936
20
-3.1853
11
4.7937
21
-3.18941
0
LINE
8
BLACK
6
CONTINUOUS
10
4.7937
20
-3.18941
11
4.78731
21
-3.19226
0
LINE
8
BLACK
6
CONTINUOUS
10
4.78731
20
-3.19226
11
4.78047
21
-3.19371
0
LINE
8
BLACK
6
CONTINUOUS
10
4.78047
20
-3.19371
11
4.77347
21
-3.19371
0
LINE
8
BLACK
6
CONTINUOUS
10
4.77347
20
-3.19371
11
4.76663
21
-3.19226
0
LINE
8
BLACK
6
CONTINUOUS
10
4.76663
20
-3.19226
11
4.76024
21
-3.18941
0
LINE
8
BLACK
6
CONTINUOUS
10
4.76024
20
-3.18941
11
4.75458
21
-3.1853
0
LINE
8
BLACK
6
CONTINUOUS
10
4.75458
20
-3.1853
11
4.7499
21
-3.1801
0
LINE
8
BLACK
6
CONTINUOUS
10
4.7499
20
-3.1801
11
4.7464
21
-3.17404
0
LINE
8
BLACK
6
CONTINUOUS
10
4.7464
20
-3.17404
11
4.74424
21
-3.16739
0
LINE
8
BLACK
6
CONTINUOUS
10
4.74424
20
-3.16739
11
4.7435
21
-3.16043
0
LINE
8
BLACK
6
CONTINUOUS
10
4.7435
20
-3.16043
11
4.74424
21
-3.15348
0
LINE
8
BLACK
6
CONTINUOUS
10
4.74424
20
-3.15348
11
4.7464
21
-3.14682
0
LINE
8
BLACK
6
CONTINUOUS
10
4.7464
20
-3.14682
11
4.7499
21
-3.14076
0
LINE
8
BLACK
6
CONTINUOUS
10
4.7499
20
-3.14076
11
4.75458
21
-3.13556
0
LINE
8
BLACK
6
CONTINUOUS
10
4.75458
20
-3.13556
11
4.76024
21
-3.13145
0
LINE
8
BLACK
6
CONTINUOUS
10
4.76024
20
-3.13145
11
4.76663
21
-3.12861
0
LINE
8
BLACK
6
CONTINUOUS
10
4.76663
20
-3.12861
11
4.77347
21
-3.12715
0
LINE
8
BLACK
6
CONTINUOUS
10
4.77347
20
-3.12715
11
4.78047
21
-3.12715
0
LINE
8
BLACK
6
CONTINUOUS
10
4.78047
20
-3.12715
11
4.78731
21
-3.12861
0
LINE
8
BLACK
6
CONTINUOUS
10
3.89755
20
-3.0801
11
3.89915
21
-3.08117
0
LINE
8
BLACK
6
CONTINUOUS
10
3.89915
20
-3.08117
11
3.90022
21
-3.08276
0
LINE
8
BLACK
6
CONTINUOUS
10
3.90022
20
-3.08276
11
3.90059
21
-3.08465
0
LINE
8
BLACK
6
CONTINUOUS
10
3.90059
20
-3.08465
11
3.90059
21
-3.09449
0
LINE
8
BLACK
6
CONTINUOUS
10
3.90059
20
-3.09449
11
3.90022
21
-3.09637
0
LINE
8
BLACK
6
CONTINUOUS
10
3.90022
20
-3.09637
11
3.89915
21
-3.09797
0
LINE
8
BLACK
6
CONTINUOUS
10
3.89915
20
-3.09797
11
3.89755
21
-3.09903
0
LINE
8
BLACK
6
CONTINUOUS
10
3.89755
20
-3.09903
11
3.89567
21
-3.09941
0
LINE
8
BLACK
6
CONTINUOUS
10
3.89567
20
-3.09941
11
3.83563
21
-3.09941
0
LINE
8
BLACK
6
CONTINUOUS
10
3.83563
20
-3.09941
11
3.83375
21
-3.09903
0
LINE
8
BLACK
6
CONTINUOUS
10
3.83375
20
-3.09903
11
3.83215
21
-3.09797
0
LINE
8
BLACK
6
CONTINUOUS
10
3.83215
20
-3.09797
11
3.83108
21
-3.09637
0
LINE
8
BLACK
6
CONTINUOUS
10
3.83108
20
-3.09637
11
3.83071
21
-3.09449
0
LINE
8
BLACK
6
CONTINUOUS
10
3.83071
20
-3.09449
11
3.83071
21
-3.08465
0
LINE
8
BLACK
6
CONTINUOUS
10
3.83071
20
-3.08465
11
3.83108
21
-3.08276
0
LINE
8
BLACK
6
CONTINUOUS
10
3.83108
20
-3.08276
11
3.83215
21
-3.08117
0
LINE
8
BLACK
6
CONTINUOUS
10
3.83215
20
-3.08117
11
3.83375
21
-3.0801
0
LINE
8
BLACK
6
CONTINUOUS
10
3.83375
20
-3.0801
11
3.83563
21
-3.07972
0
LINE
8
BLACK
6
CONTINUOUS
10
3.83563
20
-3.07972
11
3.89567
21
-3.07972
0
LINE
8
BLACK
6
CONTINUOUS
10
3.89567
20
-3.07972
11
3.89755
21
-3.0801
0
LINE
8
BLACK
6
CONTINUOUS
10
3.89755
20
-3.05451
11
3.89915
21
-3.05558
0
LINE
8
BLACK
6
CONTINUOUS
10
3.89915
20
-3.05558
11
3.90022
21
-3.05717
0
LINE
8
BLACK
6
CONTINUOUS
10
3.90022
20
-3.05717
11
3.90059
21
-3.05906
0
LINE
8
BLACK
6
CONTINUOUS
10
3.90059
20
-3.05906
11
3.90059
21
-3.0689
0
LINE
8
BLACK
6
CONTINUOUS
10
3.90059
20
-3.0689
11
3.90022
21
-3.07078
0
LINE
8
BLACK
6
CONTINUOUS
10
3.90022
20
-3.07078
11
3.89915
21
-3.07238
0
LINE
8
BLACK
6
CONTINUOUS
10
3.89915
20
-3.07238
11
3.89755
21
-3.07344
0
LINE
8
BLACK
6
CONTINUOUS
10
3.89755
20
-3.07344
11
3.89567
21
-3.07382
0
LINE
8
BLACK
6
CONTINUOUS
10
3.89567
20
-3.07382
11
3.83563
21
-3.07382
0
LINE
8
BLACK
6
CONTINUOUS
10
3.83563
20
-3.07382
11
3.83375
21
-3.07344
0
LINE
8
BLACK
6
CONTINUOUS
10
3.83375
20
-3.07344
11
3.83215
21
-3.07238
0
LINE
8
BLACK
6
CONTINUOUS
10
3.83215
20
-3.07238
11
3.83108
21
-3.07078
0
LINE
8
BLACK
6
CONTINUOUS
10
3.83108
20
-3.07078
11
3.83071
21
-3.0689
0
LINE
8
BLACK
6
CONTINUOUS
10
3.83071
20
-3.0689
11
3.83071
21
-3.05906
0
LINE
8
BLACK
6
CONTINUOUS
10
3.83071
20
-3.05906
11
3.83108
21
-3.05717
0
LINE
8
BLACK
6
CONTINUOUS
10
3.83108
20
-3.05717
11
3.83215
21
-3.05558
0
LINE
8
BLACK
6
CONTINUOUS
10
3.83215
20
-3.05558
11
3.83375
21
-3.05451
0
LINE
8
BLACK
6
CONTINUOUS
10
3.83375
20
-3.05451
11
3.83563
21
-3.05413
0
LINE
8
BLACK
6
CONTINUOUS
10
3.83563
20
-3.05413
11
3.89567
21
-3.05413
0
LINE
8
BLACK
6
CONTINUOUS
10
3.89567
20
-3.05413
11
3.89755
21
-3.05451
0
LINE
8
BLACK
6
CONTINUOUS
10
4.20276
20
-3.02914
11
4.2059
21
-3.03178
0
LINE
8
BLACK
6
CONTINUOUS
10
4.2059
20
-3.03178
11
4.20795
21
-3.03533
0
LINE
8
BLACK
6
CONTINUOUS
10
4.20795
20
-3.03533
11
4.20866
21
-3.03937
0
LINE
8
BLACK
6
CONTINUOUS
10
4.20866
20
-3.03937
11
4.20795
21
-3.04341
0
LINE
8
BLACK
6
CONTINUOUS
10
4.20795
20
-3.04341
11
4.2059
21
-3.04696
0
LINE
8
BLACK
6
CONTINUOUS
10
4.2059
20
-3.04696
11
4.20276
21
-3.0496
0
LINE
8
BLACK
6
CONTINUOUS
10
4.20276
20
-3.0496
11
4.1989
21
-3.051
0
LINE
8
BLACK
6
CONTINUOUS
10
4.1989
20
-3.051
11
4.1948
21
-3.051
0
LINE
8
BLACK
6
CONTINUOUS
10
4.1948
20
-3.051
11
4.19094
21
-3.0496
0
LINE
8
BLACK
6
CONTINUOUS
10
4.19094
20
-3.0496
11
4.1878
21
-3.04696
0
LINE
8
BLACK
6
CONTINUOUS
10
4.1878
20
-3.04696
11
4.18626
21
-3.04429
0
LINE
8
BLACK
6
CONTINUOUS
10
4.18626
20
-3.04429
11
4.1691
21
-3.04429
0
LINE
8
BLACK
6
CONTINUOUS
10
4.1691
20
-3.04429
11
4.16892
21
-3.04519
0
LINE
8
BLACK
6
CONTINUOUS
10
4.16892
20
-3.04519
11
4.16785
21
-3.04679
0
LINE
8
BLACK
6
CONTINUOUS
10
4.16785
20
-3.04679
11
4.16625
21
-3.04785
0
LINE
8
BLACK
6
CONTINUOUS
10
4.16625
20
-3.04785
11
4.16437
21
-3.04823
0
LINE
8
BLACK
6
CONTINUOUS
10
4.16437
20
-3.04823
11
4.10433
21
-3.04823
0
LINE
8
BLACK
6
CONTINUOUS
10
4.10433
20
-3.04823
11
4.10245
21
-3.04785
0
LINE
8
BLACK
6
CONTINUOUS
10
4.10245
20
-3.04785
11
4.10085
21
-3.04679
0
LINE
8
BLACK
6
CONTINUOUS
10
4.10085
20
-3.04679
11
4.09978
21
-3.04519
0
LINE
8
BLACK
6
CONTINUOUS
10
4.09978
20
-3.04519
11
4.09941
21
-3.04331
0
LINE
8
BLACK
6
CONTINUOUS
10
4.09941
20
-3.04331
11
4.09941
21
-3.03346
0
LINE
8
BLACK
6
CONTINUOUS
10
4.09941
20
-3.03346
11
4.09978
21
-3.03158
0
LINE
8
BLACK
6
CONTINUOUS
10
4.09978
20
-3.03158
11
4.10085
21
-3.02998
0
LINE
8
BLACK
6
CONTINUOUS
10
4.10085
20
-3.02998
11
4.10245
21
-3.02892
0
LINE
8
BLACK
6
CONTINUOUS
10
4.10245
20
-3.02892
11
4.10433
21
-3.02854
0
LINE
8
BLACK
6
CONTINUOUS
10
4.10433
20
-3.02854
11
4.16437
21
-3.02854
0
LINE
8
BLACK
6
CONTINUOUS
10
4.16437
20
-3.02854
11
4.16625
21
-3.02892
0
LINE
8
BLACK
6
CONTINUOUS
10
4.16625
20
-3.02892
11
4.16785
21
-3.02998
0
LINE
8
BLACK
6
CONTINUOUS
10
4.16785
20
-3.02998
11
4.16892
21
-3.03158
0
LINE
8
BLACK
6
CONTINUOUS
10
4.16892
20
-3.03158
11
4.16929
21
-3.03346
0
LINE
8
BLACK
6
CONTINUOUS
10
4.16929
20
-3.03346
11
4.16929
21
-3.03445
0
LINE
8
BLACK
6
CONTINUOUS
10
4.16929
20
-3.03445
11
4.18626
21
-3.03445
0
LINE
8
BLACK
6
CONTINUOUS
10
4.18626
20
-3.03445
11
4.1878
21
-3.03178
0
LINE
8
BLACK
6
CONTINUOUS
10
4.1878
20
-3.03178
11
4.19094
21
-3.02914
0
LINE
8
BLACK
6
CONTINUOUS
10
4.19094
20
-3.02914
11
4.1948
21
-3.02774
0
LINE
8
BLACK
6
CONTINUOUS
10
4.1948
20
-3.02774
11
4.1989
21
-3.02774
0
LINE
8
BLACK
6
CONTINUOUS
10
4.1989
20
-3.02774
11
4.20276
21
-3.02914
0
LINE
8
BLACK
6
CONTINUOUS
10
3.89755
20
-3.02892
11
3.89915
21
-3.02998
0
LINE
8
BLACK
6
CONTINUOUS
10
3.89915
20
-3.02998
11
3.90022
21
-3.03158
0
LINE
8
BLACK
6
CONTINUOUS
10
3.90022
20
-3.03158
11
3.90059
21
-3.03346
0
LINE
8
BLACK
6
CONTINUOUS
10
3.90059
20
-3.03346
11
3.90059
21
-3.04331
0
LINE
8
BLACK
6
CONTINUOUS
10
3.90059
20
-3.04331
11
3.90022
21
-3.04519
0
LINE
8
BLACK
6
CONTINUOUS
10
3.90022
20
-3.04519
11
3.89915
21
-3.04679
0
LINE
8
BLACK
6
CONTINUOUS
10
3.89915
20
-3.04679
11
3.89755
21
-3.04785
0
LINE
8
BLACK
6
CONTINUOUS
10
3.89755
20
-3.04785
11
3.89567
21
-3.04823
0
LINE
8
BLACK
6
CONTINUOUS
10
3.89567
20
-3.04823
11
3.83563
21
-3.04823
0
LINE
8
BLACK
6
CONTINUOUS
10
3.83563
20
-3.04823
11
3.83375
21
-3.04785
0
LINE
8
BLACK
6
CONTINUOUS
10
3.83375
20
-3.04785
11
3.83215
21
-3.04679
0
LINE
8
BLACK
6
CONTINUOUS
10
3.83215
20
-3.04679
11
3.83108
21
-3.04519
0
LINE
8
BLACK
6
CONTINUOUS
10
3.83108
20
-3.04519
11
3.83071
21
-3.04331
0
LINE
8
BLACK
6
CONTINUOUS
10
3.83071
20
-3.04331
11
3.83071
21
-3.03346
0
LINE
8
BLACK
6
CONTINUOUS
10
3.83071
20
-3.03346
11
3.83108
21
-3.03158
0
LINE
8
BLACK
6
CONTINUOUS
10
3.83108
20
-3.03158
11
3.83215
21
-3.02998
0
LINE
8
BLACK
6
CONTINUOUS
10
3.83215
20
-3.02998
11
3.83375
21
-3.02892
0
LINE
8
BLACK
6
CONTINUOUS
10
3.83375
20
-3.02892
11
3.83563
21
-3.02854
0
LINE
8
BLACK
6
CONTINUOUS
10
3.83563
20
-3.02854
11
3.89567
21
-3.02854
0
LINE
8
BLACK
6
CONTINUOUS
10
3.89567
20
-3.02854
11
3.89755
21
-3.02892
0
LINE
8
BLACK
6
CONTINUOUS
10
3.89755
20
-3.00333
11
3.89915
21
-3.00439
0
LINE
8
BLACK
6
CONTINUOUS
10
3.89915
20
-3.00439
11
3.90022
21
-3.00599
0
LINE
8
BLACK
6
CONTINUOUS
10
3.90022
20
-3.00599
11
3.90059
21
-3.00787
0
LINE
8
BLACK
6
CONTINUOUS
10
3.90059
20
-3.00787
11
3.90059
21
-3.01772
0
LINE
8
BLACK
6
CONTINUOUS
10
3.90059
20
-3.01772
11
3.90022
21
-3.0196
0
LINE
8
BLACK
6
CONTINUOUS
10
3.90022
20
-3.0196
11
3.89915
21
-3.0212
0
LINE
8
BLACK
6
CONTINUOUS
10
3.89915
20
-3.0212
11
3.89755
21
-3.02226
0
LINE
8
BLACK
6
CONTINUOUS
10
3.89755
20
-3.02226
11
3.89567
21
-3.02264
0
LINE
8
BLACK
6
CONTINUOUS
10
3.89567
20
-3.02264
11
3.83563
21
-3.02264
0
LINE
8
BLACK
6
CONTINUOUS
10
3.83563
20
-3.02264
11
3.83375
21
-3.02226
0
LINE
8
BLACK
6
CONTINUOUS
10
3.83375
20
-3.02226
11
3.83215
21
-3.0212
0
LINE
8
BLACK
6
CONTINUOUS
10
3.83215
20
-3.0212
11
3.83108
21
-3.0196
0
LINE
8
BLACK
6
CONTINUOUS
10
3.83108
20
-3.0196
11
3.83071
21
-3.01772
0
LINE
8
BLACK
6
CONTINUOUS
10
3.83071
20
-3.01772
11
3.83071
21
-3.00787
0
LINE
8
BLACK
6
CONTINUOUS
10
3.83071
20
-3.00787
11
3.83108
21
-3.00599
0
LINE
8
BLACK
6
CONTINUOUS
10
3.83108
20
-3.00599
11
3.83215
21
-3.00439
0
LINE
8
BLACK
6
CONTINUOUS
10
3.83215
20
-3.00439
11
3.83375
21
-3.00333
0
LINE
8
BLACK
6
CONTINUOUS
10
3.83375
20
-3.00333
11
3.83563
21
-3.00295
0
LINE
8
BLACK
6
CONTINUOUS
10
3.83563
20
-3.00295
11
3.89567
21
-3.00295
0
LINE
8
BLACK
6
CONTINUOUS
10
3.89567
20
-3.00295
11
3.89755
21
-3.00333
0
LINE
8
BLACK
6
CONTINUOUS
10
4.16625
20
-3.00333
11
4.16785
21
-3.00439
0
LINE
8
BLACK
6
CONTINUOUS
10
4.16785
20
-3.00439
11
4.16892
21
-3.00599
0
LINE
8
BLACK
6
CONTINUOUS
10
4.16892
20
-3.00599
11
4.16929
21
-3.00787
0
LINE
8
BLACK
6
CONTINUOUS
10
4.16929
20
-3.00787
11
4.16929
21
-3.01772
0
LINE
8
BLACK
6
CONTINUOUS
10
4.16929
20
-3.01772
11
4.16892
21
-3.0196
0
LINE
8
BLACK
6
CONTINUOUS
10
4.16892
20
-3.0196
11
4.16785
21
-3.0212
0
LINE
8
BLACK
6
CONTINUOUS
10
4.16785
20
-3.0212
11
4.16625
21
-3.02226
0
LINE
8
BLACK
6
CONTINUOUS
10
4.16625
20
-3.02226
11
4.16437
21
-3.02264
0
LINE
8
BLACK
6
CONTINUOUS
10
4.16437
20
-3.02264
11
4.10433
21
-3.02264
0
LINE
8
BLACK
6
CONTINUOUS
10
4.10433
20
-3.02264
11
4.10245
21
-3.02226
0
LINE
8
BLACK
6
CONTINUOUS
10
4.10245
20
-3.02226
11
4.10085
21
-3.0212
0
LINE
8
BLACK
6
CONTINUOUS
10
4.10085
20
-3.0212
11
4.09978
21
-3.0196
0
LINE
8
BLACK
6
CONTINUOUS
10
4.09978
20
-3.0196
11
4.09941
21
-3.01772
0
LINE
8
BLACK
6
CONTINUOUS
10
4.09941
20
-3.01772
11
4.09941
21
-3.00787
0
LINE
8
BLACK
6
CONTINUOUS
10
4.09941
20
-3.00787
11
4.09978
21
-3.00599
0
LINE
8
BLACK
6
CONTINUOUS
10
4.09978
20
-3.00599
11
4.10085
21
-3.00439
0
LINE
8
BLACK
6
CONTINUOUS
10
4.10085
20
-3.00439
11
4.10245
21
-3.00333
0
LINE
8
BLACK
6
CONTINUOUS
10
4.10245
20
-3.00333
11
4.10433
21
-3.00295
0
LINE
8
BLACK
6
CONTINUOUS
10
4.10433
20
-3.00295
11
4.16437
21
-3.00295
0
LINE
8
BLACK
6
CONTINUOUS
10
4.16437
20
-3.00295
11
4.16625
21
-3.00333
0
LINE
8
BLACK
6
CONTINUOUS
10
3.89755
20
-2.97774
11
3.89915
21
-2.9788
0
LINE
8
BLACK
6
CONTINUOUS
10
3.89915
20
-2.9788
11
3.90022
21
-2.9804
0
LINE
8
BLACK
6
CONTINUOUS
10
3.90022
20
-2.9804
11
3.90059
21
-2.98228
0
LINE
8
BLACK
6
CONTINUOUS
10
3.90059
20
-2.98228
11
3.90059
21
-2.99213
0
LINE
8
BLACK
6
CONTINUOUS
10
3.90059
20
-2.99213
11
3.90022
21
-2.99401
0
LINE
8
BLACK
6
CONTINUOUS
10
3.90022
20
-2.99401
11
3.89915
21
-2.99561
0
LINE
8
BLACK
6
CONTINUOUS
10
3.89915
20
-2.99561
11
3.89755
21
-2.99667
0
LINE
8
BLACK
6
CONTINUOUS
10
3.89755
20
-2.99667
11
3.89567
21
-2.99705
0
LINE
8
BLACK
6
CONTINUOUS
10
3.89567
20
-2.99705
11
3.83563
21
-2.99705
0
LINE
8
BLACK
6
CONTINUOUS
10
3.83563
20
-2.99705
11
3.83375
21
-2.99667
0
LINE
8
BLACK
6
CONTINUOUS
10
3.83375
20
-2.99667
11
3.83215
21
-2.99561
0
LINE
8
BLACK
6
CONTINUOUS
10
3.83215
20
-2.99561
11
3.83108
21
-2.99401
0
LINE
8
BLACK
6
CONTINUOUS
10
3.83108
20
-2.99401
11
3.83071
21
-2.99213
0
LINE
8
BLACK
6
CONTINUOUS
10
3.83071
20
-2.99213
11
3.83071
21
-2.98228
0
LINE
8
BLACK
6
CONTINUOUS
10
3.83071
20
-2.98228
11
3.83108
21
-2.9804
0
LINE
8
BLACK
6
CONTINUOUS
10
3.83108
20
-2.9804
11
3.83215
21
-2.9788
0
LINE
8
BLACK
6
CONTINUOUS
10
3.83215
20
-2.9788
11
3.83375
21
-2.97774
0
LINE
8
BLACK
6
CONTINUOUS
10
3.83375
20
-2.97774
11
3.83563
21
-2.97736
0
LINE
8
BLACK
6
CONTINUOUS
10
3.83563
20
-2.97736
11
3.89567
21
-2.97736
0
LINE
8
BLACK
6
CONTINUOUS
10
3.89567
20
-2.97736
11
3.89755
21
-2.97774
0
LINE
8
BLACK
6
CONTINUOUS
10
4.19488
20
-2.97402
11
4.19802
21
-2.97666
0
LINE
8
BLACK
6
CONTINUOUS
10
4.19802
20
-2.97666
11
4.20008
21
-2.98021
0
LINE
8
BLACK
6
CONTINUOUS
10
4.20008
20
-2.98021
11
4.20079
21
-2.98425
0
LINE
8
BLACK
6
CONTINUOUS
10
4.20079
20
-2.98425
11
4.20008
21
-2.98829
0
LINE
8
BLACK
6
CONTINUOUS
10
4.20008
20
-2.98829
11
4.19802
21
-2.99184
0
LINE
8
BLACK
6
CONTINUOUS
10
4.19802
20
-2.99184
11
4.19488
21
-2.99448
0
LINE
8
BLACK
6
CONTINUOUS
10
4.19488
20
-2.99448
11
4.19103
21
-2.99588
0
LINE
8
BLACK
6
CONTINUOUS
10
4.19103
20
-2.99588
11
4.18693
21
-2.99588
0
LINE
8
BLACK
6
CONTINUOUS
10
4.18693
20
-2.99588
11
4.18307
21
-2.99448
0
LINE
8
BLACK
6
CONTINUOUS
10
4.18307
20
-2.99448
11
4.17993
21
-2.99184
0
LINE
8
BLACK
6
CONTINUOUS
10
4.17993
20
-2.99184
11
4.17839
21
-2.98917
0
LINE
8
BLACK
6
CONTINUOUS
10
4.17839
20
-2.98917
11
4.16929
21
-2.98917
0
LINE
8
BLACK
6
CONTINUOUS
10
4.16929
20
-2.98917
11
4.16929
21
-2.99213
0
LINE
8
BLACK
6
CONTINUOUS
10
4.16929
20
-2.99213
11
4.16892
21
-2.99401
0
LINE
8
BLACK
6
CONTINUOUS
10
4.16892
20
-2.99401
11
4.16785
21
-2.99561
0
LINE
8
BLACK
6
CONTINUOUS
10
4.16785
20
-2.99561
11
4.16625
21
-2.99667
0
LINE
8
BLACK
6
CONTINUOUS
10
4.16625
20
-2.99667
11
4.16437
21
-2.99705
0
LINE
8
BLACK
6
CONTINUOUS
10
4.16437
20
-2.99705
11
4.10433
21
-2.99705
0
LINE
8
BLACK
6
CONTINUOUS
10
4.10433
20
-2.99705
11
4.10245
21
-2.99667
0
LINE
8
BLACK
6
CONTINUOUS
10
4.10245
20
-2.99667
11
4.10085
21
-2.99561
0
LINE
8
BLACK
6
CONTINUOUS
10
4.10085
20
-2.99561
11
4.09978
21
-2.99401
0
LINE
8
BLACK
6
CONTINUOUS
10
4.09978
20
-2.99401
11
4.09941
21
-2.99213
0
LINE
8
BLACK
6
CONTINUOUS
10
4.09941
20
-2.99213
11
4.09941
21
-2.98228
0
LINE
8
BLACK
6
CONTINUOUS
10
4.09941
20
-2.98228
11
4.09978
21
-2.9804
0
LINE
8
BLACK
6
CONTINUOUS
10
4.09978
20
-2.9804
11
4.10085
21
-2.9788
0
LINE
8
BLACK
6
CONTINUOUS
10
4.10085
20
-2.9788
11
4.10245
21
-2.97774
0
LINE
8
BLACK
6
CONTINUOUS
10
4.10245
20
-2.97774
11
4.10433
21
-2.97736
0
LINE
8
BLACK
6
CONTINUOUS
10
4.10433
20
-2.97736
11
4.16437
21
-2.97736
0
LINE
8
BLACK
6
CONTINUOUS
10
4.16437
20
-2.97736
11
4.16625
21
-2.97774
0
LINE
8
BLACK
6
CONTINUOUS
10
4.16625
20
-2.97774
11
4.16785
21
-2.9788
0
LINE
8
BLACK
6
CONTINUOUS
10
4.16785
20
-2.9788
11
4.1682
21
-2.97933
0
LINE
8
BLACK
6
CONTINUOUS
10
4.1682
20
-2.97933
11
4.17839
21
-2.97933
0
LINE
8
BLACK
6
CONTINUOUS
10
4.17839
20
-2.97933
11
4.17993
21
-2.97666
0
LINE
8
BLACK
6
CONTINUOUS
10
4.17993
20
-2.97666
11
4.18307
21
-2.97402
0
LINE
8
BLACK
6
CONTINUOUS
10
4.18307
20
-2.97402
11
4.18693
21
-2.97262
0
LINE
8
BLACK
6
CONTINUOUS
10
4.18693
20
-2.97262
11
4.19103
21
-2.97262
0
LINE
8
BLACK
6
CONTINUOUS
10
4.19103
20
-2.97262
11
4.19488
21
-2.97402
0
LINE
8
BLACK
6
CONTINUOUS
10
4.20276
20
-2.91891
11
4.2059
21
-2.92154
0
LINE
8
BLACK
6
CONTINUOUS
10
4.2059
20
-2.92154
11
4.20795
21
-2.92509
0
LINE
8
BLACK
6
CONTINUOUS
10
4.20795
20
-2.92509
11
4.20866
21
-2.92913
0
LINE
8
BLACK
6
CONTINUOUS
10
4.20866
20
-2.92913
11
4.20795
21
-2.93317
0
LINE
8
BLACK
6
CONTINUOUS
10
4.20795
20
-2.93317
11
4.2059
21
-2.93673
0
LINE
8
BLACK
6
CONTINUOUS
10
4.2059
20
-2.93673
11
4.20276
21
-2.93936
0
LINE
8
BLACK
6
CONTINUOUS
10
4.20276
20
-2.93936
11
4.1989
21
-2.94077
0
LINE
8
BLACK
6
CONTINUOUS
10
4.1989
20
-2.94077
11
4.19656
21
-2.94077
0
LINE
8
BLACK
6
CONTINUOUS
10
4.19656
20
-2.94077
11
4.17224
21
-2.96509
0
LINE
8
BLACK
6
CONTINUOUS
10
4.17224
20
-2.96509
11
4.17153
21
-2.96562
0
LINE
8
BLACK
6
CONTINUOUS
10
4.17153
20
-2.96562
11
4.17141
21
-2.96576
0
LINE
8
BLACK
6
CONTINUOUS
10
4.17141
20
-2.96576
11
4.17131
21
-2.96579
0
LINE
8
BLACK
6
CONTINUOUS
10
4.17131
20
-2.96579
11
4.1711
21
-2.96594
0
LINE
8
BLACK
6
CONTINUOUS
10
4.1711
20
-2.96594
11
4.16992
21
-2.96619
0
LINE
8
BLACK
6
CONTINUOUS
10
4.16992
20
-2.96619
11
4.16929
21
-2.96638
0
LINE
8
BLACK
6
CONTINUOUS
10
4.16929
20
-2.96638
11
4.16929
21
-2.96654
0
LINE
8
BLACK
6
CONTINUOUS
10
4.16929
20
-2.96654
11
4.16892
21
-2.96842
0
LINE
8
BLACK
6
CONTINUOUS
10
4.16892
20
-2.96842
11
4.16785
21
-2.97002
0
LINE
8
BLACK
6
CONTINUOUS
10
4.16785
20
-2.97002
11
4.16625
21
-2.97108
0
LINE
8
BLACK
6
CONTINUOUS
10
4.16625
20
-2.97108
11
4.16437
21
-2.97146
0
LINE
8
BLACK
6
CONTINUOUS
10
4.16437
20
-2.97146
11
4.10433
21
-2.97146
0
LINE
8
BLACK
6
CONTINUOUS
10
4.10433
20
-2.97146
11
4.10245
21
-2.97108
0
LINE
8
BLACK
6
CONTINUOUS
10
4.10245
20
-2.97108
11
4.10085
21
-2.97002
0
LINE
8
BLACK
6
CONTINUOUS
10
4.10085
20
-2.97002
11
4.09978
21
-2.96842
0
LINE
8
BLACK
6
CONTINUOUS
10
4.09978
20
-2.96842
11
4.09941
21
-2.96654
0
LINE
8
BLACK
6
CONTINUOUS
10
4.09941
20
-2.96654
11
4.09941
21
-2.95669
0
LINE
8
BLACK
6
CONTINUOUS
10
4.09941
20
-2.95669
11
4.09978
21
-2.95481
0
LINE
8
BLACK
6
CONTINUOUS
10
4.09978
20
-2.95481
11
4.10085
21
-2.95321
0
LINE
8
BLACK
6
CONTINUOUS
10
4.10085
20
-2.95321
11
4.10245
21
-2.95215
0
LINE
8
BLACK
6
CONTINUOUS
10
4.10245
20
-2.95215
11
4.10433
21
-2.95177
0
LINE
8
BLACK
6
CONTINUOUS
10
4.10433
20
-2.95177
11
4.16437
21
-2.95177
0
LINE
8
BLACK
6
CONTINUOUS
10
4.16437
20
-2.95177
11
4.16625
21
-2.95215
0
LINE
8
BLACK
6
CONTINUOUS
10
4.16625
20
-2.95215
11
4.16785
21
-2.95321
0
LINE
8
BLACK
6
CONTINUOUS
10
4.16785
20
-2.95321
11
4.16879
21
-2.95462
0
LINE
8
BLACK
6
CONTINUOUS
10
4.16879
20
-2.95462
11
4.18739
21
-2.93602
0
LINE
8
BLACK
6
CONTINUOUS
10
4.18739
20
-2.93602
11
4.18575
21
-2.93317
0
LINE
8
BLACK
6
CONTINUOUS
10
4.18575
20
-2.93317
11
4.18504
21
-2.92913
0
LINE
8
BLACK
6
CONTINUOUS
10
4.18504
20
-2.92913
11
4.18575
21
-2.92509
0
LINE
8
BLACK
6
CONTINUOUS
10
4.18575
20
-2.92509
11
4.1878
21
-2.92154
0
LINE
8
BLACK
6
CONTINUOUS
10
4.1878
20
-2.92154
11
4.19094
21
-2.91891
0
LINE
8
BLACK
6
CONTINUOUS
10
4.19094
20
-2.91891
11
4.1948
21
-2.9175
0
LINE
8
BLACK
6
CONTINUOUS
10
4.1948
20
-2.9175
11
4.1989
21
-2.9175
0
LINE
8
BLACK
6
CONTINUOUS
10
4.1989
20
-2.9175
11
4.20276
21
-2.91891
0
LINE
8
BLACK
6
CONTINUOUS
10
3.89755
20
-2.95215
11
3.89915
21
-2.95321
0
LINE
8
BLACK
6
CONTINUOUS
10
3.89915
20
-2.95321
11
3.90022
21
-2.95481
0
LINE
8
BLACK
6
CONTINUOUS
10
3.90022
20
-2.95481
11
3.90059
21
-2.95669
0
LINE
8
BLACK
6
CONTINUOUS
10
3.90059
20
-2.95669
11
3.90059
21
-2.96654
0
LINE
8
BLACK
6
CONTINUOUS
10
3.90059
20
-2.96654
11
3.90022
21
-2.96842
0
LINE
8
BLACK
6
CONTINUOUS
10
3.90022
20
-2.96842
11
3.89915
21
-2.97002
0
LINE
8
BLACK
6
CONTINUOUS
10
3.89915
20
-2.97002
11
3.89755
21
-2.97108
0
LINE
8
BLACK
6
CONTINUOUS
10
3.89755
20
-2.97108
11
3.89567
21
-2.97146
0
LINE
8
BLACK
6
CONTINUOUS
10
3.89567
20
-2.97146
11
3.83563
21
-2.97146
0
LINE
8
BLACK
6
CONTINUOUS
10
3.83563
20
-2.97146
11
3.83375
21
-2.97108
0
LINE
8
BLACK
6
CONTINUOUS
10
3.83375
20
-2.97108
11
3.83215
21
-2.97002
0
LINE
8
BLACK
6
CONTINUOUS
10
3.83215
20
-2.97002
11
3.83108
21
-2.96842
0
LINE
8
BLACK
6
CONTINUOUS
10
3.83108
20
-2.96842
11
3.83071
21
-2.96654
0
LINE
8
BLACK
6
CONTINUOUS
10
3.83071
20
-2.96654
11
3.83071
21
-2.95669
0
LINE
8
BLACK
6
CONTINUOUS
10
3.83071
20
-2.95669
11
3.83108
21
-2.95481
0
LINE
8
BLACK
6
CONTINUOUS
10
3.83108
20
-2.95481
11
3.83215
21
-2.95321
0
LINE
8
BLACK
6
CONTINUOUS
10
3.83215
20
-2.95321
11
3.83375
21
-2.95215
0
LINE
8
BLACK
6
CONTINUOUS
10
3.83375
20
-2.95215
11
3.83563
21
-2.95177
0
LINE
8
BLACK
6
CONTINUOUS
10
3.83563
20
-2.95177
11
3.89567
21
-2.95177
0
LINE
8
BLACK
6
CONTINUOUS
10
3.89567
20
-2.95177
11
3.89755
21
-2.95215
0
LINE
8
BLACK
6
CONTINUOUS
10
3.81496
20
-2.94488
11
3.81425
21
-2.94892
0
LINE
8
BLACK
6
CONTINUOUS
10
3.81425
20
-2.94892
11
3.8122
21
-2.95247
0
LINE
8
BLACK
6
CONTINUOUS
10
3.8122
20
-2.95247
11
3.80906
21
-2.95511
0
LINE
8
BLACK
6
CONTINUOUS
10
3.80906
20
-2.95511
11
3.8052
21
-2.95651
0
LINE
8
BLACK
6
CONTINUOUS
10
3.8052
20
-2.95651
11
3.8011
21
-2.95651
0
LINE
8
BLACK
6
CONTINUOUS
10
3.8011
20
-2.95651
11
3.79724
21
-2.95511
0
LINE
8
BLACK
6
CONTINUOUS
10
3.79724
20
-2.95511
11
3.7941
21
-2.95247
0
LINE
8
BLACK
6
CONTINUOUS
10
3.7941
20
-2.95247
11
3.79205
21
-2.94892
0
LINE
8
BLACK
6
CONTINUOUS
10
3.79205
20
-2.94892
11
3.79134
21
-2.94488
0
LINE
8
BLACK
6
CONTINUOUS
10
3.79134
20
-2.94488
11
3.79205
21
-2.94084
0
LINE
8
BLACK
6
CONTINUOUS
10
3.79205
20
-2.94084
11
3.7941
21
-2.93729
0
LINE
8
BLACK
6
CONTINUOUS
10
3.7941
20
-2.93729
11
3.79724
21
-2.93465
0
LINE
8
BLACK
6
CONTINUOUS
10
3.79724
20
-2.93465
11
3.8011
21
-2.93325
0
LINE
8
BLACK
6
CONTINUOUS
10
3.8011
20
-2.93325
11
3.8052
21
-2.93325
0
LINE
8
BLACK
6
CONTINUOUS
10
3.8052
20
-2.93325
11
3.80712
21
-2.93395
0
LINE
8
BLACK
6
CONTINUOUS
10
3.80712
20
-2.93395
11
3.80853
21
-2.93254
0
LINE
8
BLACK
6
CONTINUOUS
10
3.80853
20
-2.93254
11
3.80923
21
-2.93202
0
LINE
8
BLACK
6
CONTINUOUS
10
3.80923
20
-2.93202
11
3.80935
21
-2.93188
0
LINE
8
BLACK
6
CONTINUOUS
10
3.80935
20
-2.93188
11
3.80946
21
-2.93185
0
LINE
8
BLACK
6
CONTINUOUS
10
3.80946
20
-2.93185
11
3.80966
21
-2.9317
0
LINE
8
BLACK
6
CONTINUOUS
10
3.80966
20
-2.9317
11
3.81084
21
-2.93144
0
LINE
8
BLACK
6
CONTINUOUS
10
3.81084
20
-2.93144
11
3.81201
21
-2.9311
0
LINE
8
BLACK
6
CONTINUOUS
10
3.81201
20
-2.9311
11
3.83071
21
-2.9311
0
LINE
8
BLACK
6
CONTINUOUS
10
3.83071
20
-2.9311
11
3.83108
21
-2.92922
0
LINE
8
BLACK
6
CONTINUOUS
10
3.83108
20
-2.92922
11
3.83215
21
-2.92762
0
LINE
8
BLACK
6
CONTINUOUS
10
3.83215
20
-2.92762
11
3.83375
21
-2.92656
0
LINE
8
BLACK
6
CONTINUOUS
10
3.83375
20
-2.92656
11
3.83563
21
-2.92618
0
LINE
8
BLACK
6
CONTINUOUS
10
3.83563
20
-2.92618
11
3.89567
21
-2.92618
0
LINE
8
BLACK
6
CONTINUOUS
10
3.89567
20
-2.92618
11
3.89755
21
-2.92656
0
LINE
8
BLACK
6
CONTINUOUS
10
3.89755
20
-2.92656
11
3.89915
21
-2.92762
0
LINE
8
BLACK
6
CONTINUOUS
10
3.89915
20
-2.92762
11
3.90022
21
-2.92922
0
LINE
8
BLACK
6
CONTINUOUS
10
3.90022
20
-2.92922
11
3.90059
21
-2.9311
0
LINE
8
BLACK
6
CONTINUOUS
10
3.90059
20
-2.9311
11
3.90059
21
-2.94094
0
LINE
8
BLACK
6
CONTINUOUS
10
3.90059
20
-2.94094
11
3.90022
21
-2.94283
0
LINE
8
BLACK
6
CONTINUOUS
10
3.90022
20
-2.94283
11
3.89915
21
-2.94442
0
LINE
8
BLACK
6
CONTINUOUS
10
3.89915
20
-2.94442
11
3.89755
21
-2.94549
0
LINE
8
BLACK
6
CONTINUOUS
10
3.89755
20
-2.94549
11
3.89567
21
-2.94587
0
LINE
8
BLACK
6
CONTINUOUS
10
3.89567
20
-2.94587
11
3.83563
21
-2.94587
0
LINE
8
BLACK
6
CONTINUOUS
10
3.83563
20
-2.94587
11
3.83375
21
-2.94549
0
LINE
8
BLACK
6
CONTINUOUS
10
3.83375
20
-2.94549
11
3.83215
21
-2.94442
0
LINE
8
BLACK
6
CONTINUOUS
10
3.83215
20
-2.94442
11
3.83108
21
-2.94283
0
LINE
8
BLACK
6
CONTINUOUS
10
3.83108
20
-2.94283
11
3.83071
21
-2.94094
0
LINE
8
BLACK
6
CONTINUOUS
10
3.83071
20
-2.94094
11
3.81427
21
-2.94094
0
LINE
8
BLACK
6
CONTINUOUS
10
3.81427
20
-2.94094
11
3.81496
21
-2.94488
0
LINE
8
BLACK
6
CONTINUOUS
10
4.16625
20
-2.92656
11
4.16785
21
-2.92762
0
LINE
8
BLACK
6
CONTINUOUS
10
4.16785
20
-2.92762
11
4.16892
21
-2.92922
0
LINE
8
BLACK
6
CONTINUOUS
10
4.16892
20
-2.92922
11
4.16929
21
-2.9311
0
LINE
8
BLACK
6
CONTINUOUS
10
4.16929
20
-2.9311
11
4.16929
21
-2.94094
0
LINE
8
BLACK
6
CONTINUOUS
10
4.16929
20
-2.94094
11
4.16892
21
-2.94283
0
LINE
8
BLACK
6
CONTINUOUS
10
4.16892
20
-2.94283
11
4.16785
21
-2.94442
0
LINE
8
BLACK
6
CONTINUOUS
10
4.16785
20
-2.94442
11
4.16625
21
-2.94549
0
LINE
8
BLACK
6
CONTINUOUS
10
4.16625
20
-2.94549
11
4.16437
21
-2.94587
0
LINE
8
BLACK
6
CONTINUOUS
10
4.16437
20
-2.94587
11
4.10433
21
-2.94587
0
LINE
8
BLACK
6
CONTINUOUS
10
4.10433
20
-2.94587
11
4.10245
21
-2.94549
0
LINE
8
BLACK
6
CONTINUOUS
10
4.10245
20
-2.94549
11
4.10085
21
-2.94442
0
LINE
8
BLACK
6
CONTINUOUS
10
4.10085
20
-2.94442
11
4.09978
21
-2.94283
0
LINE
8
BLACK
6
CONTINUOUS
10
4.09978
20
-2.94283
11
4.09941
21
-2.94094
0
LINE
8
BLACK
6
CONTINUOUS
10
4.09941
20
-2.94094
11
4.09941
21
-2.9311
0
LINE
8
BLACK
6
CONTINUOUS
10
4.09941
20
-2.9311
11
4.09978
21
-2.92922
0
LINE
8
BLACK
6
CONTINUOUS
10
4.09978
20
-2.92922
11
4.10085
21
-2.92762
0
LINE
8
BLACK
6
CONTINUOUS
10
4.10085
20
-2.92762
11
4.10245
21
-2.92656
0
LINE
8
BLACK
6
CONTINUOUS
10
4.10245
20
-2.92656
11
4.10433
21
-2.92618
0
LINE
8
BLACK
6
CONTINUOUS
10
4.10433
20
-2.92618
11
4.16437
21
-2.92618
0
LINE
8
BLACK
6
CONTINUOUS
10
4.16437
20
-2.92618
11
4.16625
21
-2.92656
0
LINE
8
BLACK
6
CONTINUOUS
10
4.78731
20
-3.02861
11
4.7937
21
-3.03145
0
LINE
8
BLACK
6
CONTINUOUS
10
4.7937
20
-3.03145
11
4.79936
21
-3.03556
0
LINE
8
BLACK
6
CONTINUOUS
10
4.79936
20
-3.03556
11
4.80404
21
-3.04076
0
LINE
8
BLACK
6
CONTINUOUS
10
4.80404
20
-3.04076
11
4.80754
21
-3.04682
0
LINE
8
BLACK
6
CONTINUOUS
10
4.80754
20
-3.04682
11
4.8097
21
-3.05348
0
LINE
8
BLACK
6
CONTINUOUS
10
4.8097
20
-3.05348
11
4.81043
21
-3.06043
0
LINE
8
BLACK
6
CONTINUOUS
10
4.81043
20
-3.06043
11
4.8097
21
-3.06739
0
LINE
8
BLACK
6
CONTINUOUS
10
4.8097
20
-3.06739
11
4.80754
21
-3.07404
0
LINE
8
BLACK
6
CONTINUOUS
10
4.80754
20
-3.07404
11
4.80404
21
-3.0801
0
LINE
8
BLACK
6
CONTINUOUS
10
4.80404
20
-3.0801
11
4.79936
21
-3.0853
0
LINE
8
BLACK
6
CONTINUOUS
10
4.79936
20
-3.0853
11
4.7937
21
-3.08941
0
LINE
8
BLACK
6
CONTINUOUS
10
4.7937
20
-3.08941
11
4.78731
21
-3.09226
0
LINE
8
BLACK
6
CONTINUOUS
10
4.78731
20
-3.09226
11
4.78047
21
-3.09371
0
LINE
8
BLACK
6
CONTINUOUS
10
4.78047
20
-3.09371
11
4.77347
21
-3.09371
0
LINE
8
BLACK
6
CONTINUOUS
10
4.77347
20
-3.09371
11
4.76663
21
-3.09226
0
LINE
8
BLACK
6
CONTINUOUS
10
4.76663
20
-3.09226
11
4.76024
21
-3.08941
0
LINE
8
BLACK
6
CONTINUOUS
10
4.76024
20
-3.08941
11
4.75458
21
-3.0853
0
LINE
8
BLACK
6
CONTINUOUS
10
4.75458
20
-3.0853
11
4.7499
21
-3.0801
0
LINE
8
BLACK
6
CONTINUOUS
10
4.7499
20
-3.0801
11
4.7464
21
-3.07404
0
LINE
8
BLACK
6
CONTINUOUS
10
4.7464
20
-3.07404
11
4.74424
21
-3.06739
0
LINE
8
BLACK
6
CONTINUOUS
10
4.74424
20
-3.06739
11
4.7435
21
-3.06043
0
LINE
8
BLACK
6
CONTINUOUS
10
4.7435
20
-3.06043
11
4.74424
21
-3.05348
0
LINE
8
BLACK
6
CONTINUOUS
10
4.74424
20
-3.05348
11
4.7464
21
-3.04682
0
LINE
8
BLACK
6
CONTINUOUS
10
4.7464
20
-3.04682
11
4.7499
21
-3.04076
0
LINE
8
BLACK
6
CONTINUOUS
10
4.7499
20
-3.04076
11
4.75458
21
-3.03556
0
LINE
8
BLACK
6
CONTINUOUS
10
4.75458
20
-3.03556
11
4.76024
21
-3.03145
0
LINE
8
BLACK
6
CONTINUOUS
10
4.76024
20
-3.03145
11
4.76663
21
-3.02861
0
LINE
8
BLACK
6
CONTINUOUS
10
4.76663
20
-3.02861
11
4.77347
21
-3.02715
0
LINE
8
BLACK
6
CONTINUOUS
10
4.77347
20
-3.02715
11
4.78047
21
-3.02715
0
LINE
8
BLACK
6
CONTINUOUS
10
4.78047
20
-3.02715
11
4.78731
21
-3.02861
0
LINE
8
BLACK
6
CONTINUOUS
10
4.88731
20
-3.02861
11
4.8937
21
-3.03145
0
LINE
8
BLACK
6
CONTINUOUS
10
4.8937
20
-3.03145
11
4.89936
21
-3.03556
0
LINE
8
BLACK
6
CONTINUOUS
10
4.89936
20
-3.03556
11
4.90404
21
-3.04076
0
LINE
8
BLACK
6
CONTINUOUS
10
4.90404
20
-3.04076
11
4.90754
21
-3.04682
0
LINE
8
BLACK
6
CONTINUOUS
10
4.90754
20
-3.04682
11
4.9097
21
-3.05348
0
LINE
8
BLACK
6
CONTINUOUS
10
4.9097
20
-3.05348
11
4.91043
21
-3.06043
0
LINE
8
BLACK
6
CONTINUOUS
10
4.91043
20
-3.06043
11
4.9097
21
-3.06739
0
LINE
8
BLACK
6
CONTINUOUS
10
4.9097
20
-3.06739
11
4.90754
21
-3.07404
0
LINE
8
BLACK
6
CONTINUOUS
10
4.90754
20
-3.07404
11
4.90404
21
-3.0801
0
LINE
8
BLACK
6
CONTINUOUS
10
4.90404
20
-3.0801
11
4.89936
21
-3.0853
0
LINE
8
BLACK
6
CONTINUOUS
10
4.89936
20
-3.0853
11
4.8937
21
-3.08941
0
LINE
8
BLACK
6
CONTINUOUS
10
4.8937
20
-3.08941
11
4.88731
21
-3.09226
0
LINE
8
BLACK
6
CONTINUOUS
10
4.88731
20
-3.09226
11
4.88047
21
-3.09371
0
LINE
8
BLACK
6
CONTINUOUS
10
4.88047
20
-3.09371
11
4.87347
21
-3.09371
0
LINE
8
BLACK
6
CONTINUOUS
10
4.87347
20
-3.09371
11
4.86663
21
-3.09226
0
LINE
8
BLACK
6
CONTINUOUS
10
4.86663
20
-3.09226
11
4.86024
21
-3.08941
0
LINE
8
BLACK
6
CONTINUOUS
10
4.86024
20
-3.08941
11
4.85458
21
-3.0853
0
LINE
8
BLACK
6
CONTINUOUS
10
4.85458
20
-3.0853
11
4.8499
21
-3.0801
0
LINE
8
BLACK
6
CONTINUOUS
10
4.8499
20
-3.0801
11
4.8464
21
-3.07404
0
LINE
8
BLACK
6
CONTINUOUS
10
4.8464
20
-3.07404
11
4.84424
21
-3.06739
0
LINE
8
BLACK
6
CONTINUOUS
10
4.84424
20
-3.06739
11
4.8435
21
-3.06043
0
LINE
8
BLACK
6
CONTINUOUS
10
4.8435
20
-3.06043
11
4.84424
21
-3.05348
0
LINE
8
BLACK
6
CONTINUOUS
10
4.84424
20
-3.05348
11
4.8464
21
-3.04682
0
LINE
8
BLACK
6
CONTINUOUS
10
4.8464
20
-3.04682
11
4.8499
21
-3.04076
0
LINE
8
BLACK
6
CONTINUOUS
10
4.8499
20
-3.04076
11
4.85458
21
-3.03556
0
LINE
8
BLACK
6
CONTINUOUS
10
4.85458
20
-3.03556
11
4.86024
21
-3.03145
0
LINE
8
BLACK
6
CONTINUOUS
10
4.86024
20
-3.03145
11
4.86663
21
-3.02861
0
LINE
8
BLACK
6
CONTINUOUS
10
4.86663
20
-3.02861
11
4.87347
21
-3.02715
0
LINE
8
BLACK
6
CONTINUOUS
10
4.87347
20
-3.02715
11
4.88047
21
-3.02715
0
LINE
8
BLACK
6
CONTINUOUS
10
4.88047
20
-3.02715
11
4.88731
21
-3.02861
0
LINE
8
BLACK
6
CONTINUOUS
10
4.78731
20
-2.92861
11
4.7937
21
-2.93145
0
LINE
8
BLACK
6
CONTINUOUS
10
4.7937
20
-2.93145
11
4.79936
21
-2.93556
0
LINE
8
BLACK
6
CONTINUOUS
10
4.79936
20
-2.93556
11
4.80404
21
-2.94076
0
LINE
8
BLACK
6
CONTINUOUS
10
4.80404
20
-2.94076
11
4.80754
21
-2.94682
0
LINE
8
BLACK
6
CONTINUOUS
10
4.80754
20
-2.94682
11
4.8097
21
-2.95348
0
LINE
8
BLACK
6
CONTINUOUS
10
4.8097
20
-2.95348
11
4.81043
21
-2.96043
0
LINE
8
BLACK
6
CONTINUOUS
10
4.81043
20
-2.96043
11
4.8097
21
-2.96739
0
LINE
8
BLACK
6
CONTINUOUS
10
4.8097
20
-2.96739
11
4.80754
21
-2.97404
0
LINE
8
BLACK
6
CONTINUOUS
10
4.80754
20
-2.97404
11
4.80404
21
-2.9801
0
LINE
8
BLACK
6
CONTINUOUS
10
4.80404
20
-2.9801
11
4.79936
21
-2.9853
0
LINE
8
BLACK
6
CONTINUOUS
10
4.79936
20
-2.9853
11
4.7937
21
-2.98941
0
LINE
8
BLACK
6
CONTINUOUS
10
4.7937
20
-2.98941
11
4.78731
21
-2.99226
0
LINE
8
BLACK
6
CONTINUOUS
10
4.78731
20
-2.99226
11
4.78047
21
-2.99371
0
LINE
8
BLACK
6
CONTINUOUS
10
4.78047
20
-2.99371
11
4.77347
21
-2.99371
0
LINE
8
BLACK
6
CONTINUOUS
10
4.77347
20
-2.99371
11
4.76663
21
-2.99226
0
LINE
8
BLACK
6
CONTINUOUS
10
4.76663
20
-2.99226
11
4.76024
21
-2.98941
0
LINE
8
BLACK
6
CONTINUOUS
10
4.76024
20
-2.98941
11
4.75458
21
-2.9853
0
LINE
8
BLACK
6
CONTINUOUS
10
4.75458
20
-2.9853
11
4.7499
21
-2.9801
0
LINE
8
BLACK
6
CONTINUOUS
10
4.7499
20
-2.9801
11
4.7464
21
-2.97404
0
LINE
8
BLACK
6
CONTINUOUS
10
4.7464
20
-2.97404
11
4.74424
21
-2.96739
0
LINE
8
BLACK
6
CONTINUOUS
10
4.74424
20
-2.96739
11
4.7435
21
-2.96043
0
LINE
8
BLACK
6
CONTINUOUS
10
4.7435
20
-2.96043
11
4.74424
21
-2.95348
0
LINE
8
BLACK
6
CONTINUOUS
10
4.74424
20
-2.95348
11
4.7464
21
-2.94682
0
LINE
8
BLACK
6
CONTINUOUS
10
4.7464
20
-2.94682
11
4.7499
21
-2.94076
0
LINE
8
BLACK
6
CONTINUOUS
10
4.7499
20
-2.94076
11
4.75458
21
-2.93556
0
LINE
8
BLACK
6
CONTINUOUS
10
4.75458
20
-2.93556
11
4.76024
21
-2.93145
0
LINE
8
BLACK
6
CONTINUOUS
10
4.76024
20
-2.93145
11
4.76663
21
-2.92861
0
LINE
8
BLACK
6
CONTINUOUS
10
4.76663
20
-2.92861
11
4.77347
21
-2.92715
0
LINE
8
BLACK
6
CONTINUOUS
10
4.77347
20
-2.92715
11
4.78047
21
-2.92715
0
LINE
8
BLACK
6
CONTINUOUS
10
4.78047
20
-2.92715
11
4.78731
21
-2.92861
0
LINE
8
BLACK
6
CONTINUOUS
10
4.88731
20
-2.92861
11
4.8937
21
-2.93145
0
LINE
8
BLACK
6
CONTINUOUS
10
4.8937
20
-2.93145
11
4.89936
21
-2.93556
0
LINE
8
BLACK
6
CONTINUOUS
10
4.89936
20
-2.93556
11
4.90404
21
-2.94076
0
LINE
8
BLACK
6
CONTINUOUS
10
4.90404
20
-2.94076
11
4.90754
21
-2.94682
0
LINE
8
BLACK
6
CONTINUOUS
10
4.90754
20
-2.94682
11
4.9097
21
-2.95348
0
LINE
8
BLACK
6
CONTINUOUS
10
4.9097
20
-2.95348
11
4.91043
21
-2.96043
0
LINE
8
BLACK
6
CONTINUOUS
10
4.91043
20
-2.96043
11
4.9097
21
-2.96739
0
LINE
8
BLACK
6
CONTINUOUS
10
4.9097
20
-2.96739
11
4.90754
21
-2.97404
0
LINE
8
BLACK
6
CONTINUOUS
10
4.90754
20
-2.97404
11
4.90404
21
-2.9801
0
LINE
8
BLACK
6
CONTINUOUS
10
4.90404
20
-2.9801
11
4.89936
21
-2.9853
0
LINE
8
BLACK
6
CONTINUOUS
10
4.89936
20
-2.9853
11
4.8937
21
-2.98941
0
LINE
8
BLACK
6
CONTINUOUS
10
4.8937
20
-2.98941
11
4.88731
21
-2.99226
0
LINE
8
BLACK
6
CONTINUOUS
10
4.88731
20
-2.99226
11
4.88047
21
-2.99371
0
LINE
8
BLACK
6
CONTINUOUS
10
4.88047
20
-2.99371
11
4.87347
21
-2.99371
0
LINE
8
BLACK
6
CONTINUOUS
10
4.87347
20
-2.99371
11
4.86663
21
-2.99226
0
LINE
8
BLACK
6
CONTINUOUS
10
4.86663
20
-2.99226
11
4.86024
21
-2.98941
0
LINE
8
BLACK
6
CONTINUOUS
10
4.86024
20
-2.98941
11
4.85458
21
-2.9853
0
LINE
8
BLACK
6
CONTINUOUS
10
4.85458
20
-2.9853
11
4.8499
21
-2.9801
0
LINE
8
BLACK
6
CONTINUOUS
10
4.8499
20
-2.9801
11
4.8464
21
-2.97404
0
LINE
8
BLACK
6
CONTINUOUS
10
4.8464
20
-2.97404
11
4.84424
21
-2.96739
0
LINE
8
BLACK
6
CONTINUOUS
10
4.84424
20
-2.96739
11
4.8435
21
-2.96043
0
LINE
8
BLACK
6
CONTINUOUS
10
4.8435
20
-2.96043
11
4.84424
21
-2.95348
0
LINE
8
BLACK
6
CONTINUOUS
10
4.84424
20
-2.95348
11
4.8464
21
-2.94682
0
LINE
8
BLACK
6
CONTINUOUS
10
4.8464
20
-2.94682
11
4.8499
21
-2.94076
0
LINE
8
BLACK
6
CONTINUOUS
10
4.8499
20
-2.94076
11
4.85458
21
-2.93556
0
LINE
8
BLACK
6
CONTINUOUS
10
4.85458
20
-2.93556
11
4.86024
21
-2.93145
0
LINE
8
BLACK
6
CONTINUOUS
10
4.86024
20
-2.93145
11
4.86663
21
-2.92861
0
LINE
8
BLACK
6
CONTINUOUS
10
4.86663
20
-2.92861
11
4.87347
21
-2.92715
0
LINE
8
BLACK
6
CONTINUOUS
10
4.87347
20
-2.92715
11
4.88047
21
-2.92715
0
LINE
8
BLACK
6
CONTINUOUS
10
4.88047
20
-2.92715
11
4.88731
21
-2.92861
0
LINE
8
BLACK
6
CONTINUOUS
10
4.78731
20
-2.82861
11
4.7937
21
-2.83145
0
LINE
8
BLACK
6
CONTINUOUS
10
4.7937
20
-2.83145
11
4.79936
21
-2.83556
0
LINE
8
BLACK
6
CONTINUOUS
10
4.79936
20
-2.83556
11
4.80404
21
-2.84076
0
LINE
8
BLACK
6
CONTINUOUS
10
4.80404
20
-2.84076
11
4.80754
21
-2.84682
0
LINE
8
BLACK
6
CONTINUOUS
10
4.80754
20
-2.84682
11
4.8097
21
-2.85348
0
LINE
8
BLACK
6
CONTINUOUS
10
4.8097
20
-2.85348
11
4.81043
21
-2.86043
0
LINE
8
BLACK
6
CONTINUOUS
10
4.81043
20
-2.86043
11
4.8097
21
-2.86739
0
LINE
8
BLACK
6
CONTINUOUS
10
4.8097
20
-2.86739
11
4.80754
21
-2.87404
0
LINE
8
BLACK
6
CONTINUOUS
10
4.80754
20
-2.87404
11
4.80404
21
-2.8801
0
LINE
8
BLACK
6
CONTINUOUS
10
4.80404
20
-2.8801
11
4.79936
21
-2.8853
0
LINE
8
BLACK
6
CONTINUOUS
10
4.79936
20
-2.8853
11
4.7937
21
-2.88941
0
LINE
8
BLACK
6
CONTINUOUS
10
4.7937
20
-2.88941
11
4.78731
21
-2.89226
0
LINE
8
BLACK
6
CONTINUOUS
10
4.78731
20
-2.89226
11
4.78047
21
-2.89371
0
LINE
8
BLACK
6
CONTINUOUS
10
4.78047
20
-2.89371
11
4.77347
21
-2.89371
0
LINE
8
BLACK
6
CONTINUOUS
10
4.77347
20
-2.89371
11
4.76663
21
-2.89226
0
LINE
8
BLACK
6
CONTINUOUS
10
4.76663
20
-2.89226
11
4.76024
21
-2.88941
0
LINE
8
BLACK
6
CONTINUOUS
10
4.76024
20
-2.88941
11
4.75458
21
-2.8853
0
LINE
8
BLACK
6
CONTINUOUS
10
4.75458
20
-2.8853
11
4.7499
21
-2.8801
0
LINE
8
BLACK
6
CONTINUOUS
10
4.7499
20
-2.8801
11
4.7464
21
-2.87404
0
LINE
8
BLACK
6
CONTINUOUS
10
4.7464
20
-2.87404
11
4.74424
21
-2.86739
0
LINE
8
BLACK
6
CONTINUOUS
10
4.74424
20
-2.86739
11
4.7435
21
-2.86043
0
LINE
8
BLACK
6
CONTINUOUS
10
4.7435
20
-2.86043
11
4.74424
21
-2.85348
0
LINE
8
BLACK
6
CONTINUOUS
10
4.74424
20
-2.85348
11
4.7464
21
-2.84682
0
LINE
8
BLACK
6
CONTINUOUS
10
4.7464
20
-2.84682
11
4.7499
21
-2.84076
0
LINE
8
BLACK
6
CONTINUOUS
10
4.7499
20
-2.84076
11
4.75458
21
-2.83556
0
LINE
8
BLACK
6
CONTINUOUS
10
4.75458
20
-2.83556
11
4.76024
21
-2.83145
0
LINE
8
BLACK
6
CONTINUOUS
10
4.76024
20
-2.83145
11
4.76663
21
-2.82861
0
LINE
8
BLACK
6
CONTINUOUS
10
4.76663
20
-2.82861
11
4.77347
21
-2.82715
0
LINE
8
BLACK
6
CONTINUOUS
10
4.77347
20
-2.82715
11
4.78047
21
-2.82715
0
LINE
8
BLACK
6
CONTINUOUS
10
4.78047
20
-2.82715
11
4.78731
21
-2.82861
0
LINE
8
BLACK
6
CONTINUOUS
10
4.88731
20
-2.82861
11
4.8937
21
-2.83145
0
LINE
8
BLACK
6
CONTINUOUS
10
4.8937
20
-2.83145
11
4.89936
21
-2.83556
0
LINE
8
BLACK
6
CONTINUOUS
10
4.89936
20
-2.83556
11
4.90404
21
-2.84076
0
LINE
8
BLACK
6
CONTINUOUS
10
4.90404
20
-2.84076
11
4.90754
21
-2.84682
0
LINE
8
BLACK
6
CONTINUOUS
10
4.90754
20
-2.84682
11
4.9097
21
-2.85348
0
LINE
8
BLACK
6
CONTINUOUS
10
4.9097
20
-2.85348
11
4.91043
21
-2.86043
0
LINE
8
BLACK
6
CONTINUOUS
10
4.91043
20
-2.86043
11
4.9097
21
-2.86739
0
LINE
8
BLACK
6
CONTINUOUS
10
4.9097
20
-2.86739
11
4.90754
21
-2.87404
0
LINE
8
BLACK
6
CONTINUOUS
10
4.90754
20
-2.87404
11
4.90404
21
-2.8801
0
LINE
8
BLACK
6
CONTINUOUS
10
4.90404
20
-2.8801
11
4.89936
21
-2.8853
0
LINE
8
BLACK
6
CONTINUOUS
10
4.89936
20
-2.8853
11
4.8937
21
-2.88941
0
LINE
8
BLACK
6
CONTINUOUS
10
4.8937
20
-2.88941
11
4.88731
21
-2.89226
0
LINE
8
BLACK
6
CONTINUOUS
10
4.88731
20
-2.89226
11
4.88047
21
-2.89371
0
LINE
8
BLACK
6
CONTINUOUS
10
4.88047
20
-2.89371
11
4.87347
21
-2.89371
0
LINE
8
BLACK
6
CONTINUOUS
10
4.87347
20
-2.89371
11
4.86663
21
-2.89226
0
LINE
8
BLACK
6
CONTINUOUS
10
4.86663
20
-2.89226
11
4.86024
21
-2.88941
0
LINE
8
BLACK
6
CONTINUOUS
10
4.86024
20
-2.88941
11
4.85458
21
-2.8853
0
LINE
8
BLACK
6
CONTINUOUS
10
4.85458
20
-2.8853
11
4.8499
21
-2.8801
0
LINE
8
BLACK
6
CONTINUOUS
10
4.8499
20
-2.8801
11
4.8464
21
-2.87404
0
LINE
8
BLACK
6
CONTINUOUS
10
4.8464
20
-2.87404
11
4.84424
21
-2.86739
0
LINE
8
BLACK
6
CONTINUOUS
10
4.84424
20
-2.86739
11
4.8435
21
-2.86043
0
LINE
8
BLACK
6
CONTINUOUS
10
4.8435
20
-2.86043
11
4.84424
21
-2.85348
0
LINE
8
BLACK
6
CONTINUOUS
10
4.84424
20
-2.85348
11
4.8464
21
-2.84682
0
LINE
8
BLACK
6
CONTINUOUS
10
4.8464
20
-2.84682
11
4.8499
21
-2.84076
0
LINE
8
BLACK
6
CONTINUOUS
10
4.8499
20
-2.84076
11
4.85458
21
-2.83556
0
LINE
8
BLACK
6
CONTINUOUS
10
4.85458
20
-2.83556
11
4.86024
21
-2.83145
0
LINE
8
BLACK
6
CONTINUOUS
10
4.86024
20
-2.83145
11
4.86663
21
-2.82861
0
LINE
8
BLACK
6
CONTINUOUS
10
4.86663
20
-2.82861
11
4.87347
21
-2.82715
0
LINE
8
BLACK
6
CONTINUOUS
10
4.87347
20
-2.82715
11
4.88047
21
-2.82715
0
LINE
8
BLACK
6
CONTINUOUS
10
4.88047
20
-2.82715
11
4.88731
21
-2.82861
0
LINE
8
BLACK
6
CONTINUOUS
10
4.88731
20
-2.72861
11
4.8937
21
-2.73145
0
LINE
8
BLACK
6
CONTINUOUS
10
4.8937
20
-2.73145
11
4.89936
21
-2.73556
0
LINE
8
BLACK
6
CONTINUOUS
10
4.89936
20
-2.73556
11
4.90404
21
-2.74076
0
LINE
8
BLACK
6
CONTINUOUS
10
4.90404
20
-2.74076
11
4.90754
21
-2.74682
0
LINE
8
BLACK
6
CONTINUOUS
10
4.90754
20
-2.74682
11
4.9097
21
-2.75348
0
LINE
8
BLACK
6
CONTINUOUS
10
4.9097
20
-2.75348
11
4.91043
21
-2.76043
0
LINE
8
BLACK
6
CONTINUOUS
10
4.91043
20
-2.76043
11
4.9097
21
-2.76739
0
LINE
8
BLACK
6
CONTINUOUS
10
4.9097
20
-2.76739
11
4.90754
21
-2.77404
0
LINE
8
BLACK
6
CONTINUOUS
10
4.90754
20
-2.77404
11
4.90404
21
-2.7801
0
LINE
8
BLACK
6
CONTINUOUS
10
4.90404
20
-2.7801
11
4.89936
21
-2.7853
0
LINE
8
BLACK
6
CONTINUOUS
10
4.89936
20
-2.7853
11
4.8937
21
-2.78941
0
LINE
8
BLACK
6
CONTINUOUS
10
4.8937
20
-2.78941
11
4.88731
21
-2.79226
0
LINE
8
BLACK
6
CONTINUOUS
10
4.88731
20
-2.79226
11
4.88047
21
-2.79371
0
LINE
8
BLACK
6
CONTINUOUS
10
4.88047
20
-2.79371
11
4.87347
21
-2.79371
0
LINE
8
BLACK
6
CONTINUOUS
10
4.87347
20
-2.79371
11
4.86663
21
-2.79226
0
LINE
8
BLACK
6
CONTINUOUS
10
4.86663
20
-2.79226
11
4.86024
21
-2.78941
0
LINE
8
BLACK
6
CONTINUOUS
10
4.86024
20
-2.78941
11
4.85458
21
-2.7853
0
LINE
8
BLACK
6
CONTINUOUS
10
4.85458
20
-2.7853
11
4.8499
21
-2.7801
0
LINE
8
BLACK
6
CONTINUOUS
10
4.8499
20
-2.7801
11
4.8464
21
-2.77404
0
LINE
8
BLACK
6
CONTINUOUS
10
4.8464
20
-2.77404
11
4.84424
21
-2.76739
0
LINE
8
BLACK
6
CONTINUOUS
10
4.84424
20
-2.76739
11
4.8435
21
-2.76043
0
LINE
8
BLACK
6
CONTINUOUS
10
4.8435
20
-2.76043
11
4.84424
21
-2.75348
0
LINE
8
BLACK
6
CONTINUOUS
10
4.84424
20
-2.75348
11
4.8464
21
-2.74682
0
LINE
8
BLACK
6
CONTINUOUS
10
4.8464
20
-2.74682
11
4.8499
21
-2.74076
0
LINE
8
BLACK
6
CONTINUOUS
10
4.8499
20
-2.74076
11
4.85458
21
-2.73556
0
LINE
8
BLACK
6
CONTINUOUS
10
4.85458
20
-2.73556
11
4.86024
21
-2.73145
0
LINE
8
BLACK
6
CONTINUOUS
10
4.86024
20
-2.73145
11
4.86663
21
-2.72861
0
LINE
8
BLACK
6
CONTINUOUS
10
4.86663
20
-2.72861
11
4.87347
21
-2.72715
0
LINE
8
BLACK
6
CONTINUOUS
10
4.87347
20
-2.72715
11
4.88047
21
-2.72715
0
LINE
8
BLACK
6
CONTINUOUS
10
4.88047
20
-2.72715
11
4.88731
21
-2.72861
0
LINE
8
BLACK
6
CONTINUOUS
10
4.16625
20
-2.90097
11
4.16785
21
-2.90203
0
LINE
8
BLACK
6
CONTINUOUS
10
4.16785
20
-2.90203
11
4.16892
21
-2.90363
0
LINE
8
BLACK
6
CONTINUOUS
10
4.16892
20
-2.90363
11
4.16929
21
-2.90551
0
LINE
8
BLACK
6
CONTINUOUS
10
4.16929
20
-2.90551
11
4.16929
21
-2.91535
0
LINE
8
BLACK
6
CONTINUOUS
10
4.16929
20
-2.91535
11
4.16892
21
-2.91724
0
LINE
8
BLACK
6
CONTINUOUS
10
4.16892
20
-2.91724
11
4.16785
21
-2.91883
0
LINE
8
BLACK
6
CONTINUOUS
10
4.16785
20
-2.91883
11
4.16625
21
-2.9199
0
LINE
8
BLACK
6
CONTINUOUS
10
4.16625
20
-2.9199
11
4.16437
21
-2.92028
0
LINE
8
BLACK
6
CONTINUOUS
10
4.16437
20
-2.92028
11
4.10433
21
-2.92028
0
LINE
8
BLACK
6
CONTINUOUS
10
4.10433
20
-2.92028
11
4.10245
21
-2.9199
0
LINE
8
BLACK
6
CONTINUOUS
10
4.10245
20
-2.9199
11
4.10085
21
-2.91883
0
LINE
8
BLACK
6
CONTINUOUS
10
4.10085
20
-2.91883
11
4.09978
21
-2.91724
0
LINE
8
BLACK
6
CONTINUOUS
10
4.09978
20
-2.91724
11
4.09941
21
-2.91535
0
LINE
8
BLACK
6
CONTINUOUS
10
4.09941
20
-2.91535
11
4.09941
21
-2.90551
0
LINE
8
BLACK
6
CONTINUOUS
10
4.09941
20
-2.90551
11
4.09978
21
-2.90363
0
LINE
8
BLACK
6
CONTINUOUS
10
4.09978
20
-2.90363
11
4.10085
21
-2.90203
0
LINE
8
BLACK
6
CONTINUOUS
10
4.10085
20
-2.90203
11
4.10245
21
-2.90097
0
LINE
8
BLACK
6
CONTINUOUS
10
4.10245
20
-2.90097
11
4.10433
21
-2.90059
0
LINE
8
BLACK
6
CONTINUOUS
10
4.10433
20
-2.90059
11
4.16437
21
-2.90059
0
LINE
8
BLACK
6
CONTINUOUS
10
4.16437
20
-2.90059
11
4.16625
21
-2.90097
0
LINE
8
BLACK
6
CONTINUOUS
10
3.81508
20
-2.91523
11
3.8149
21
-2.91524
0
LINE
8
BLACK
6
CONTINUOUS
10
3.8149
20
-2.91524
11
3.8148
21
-2.91519
0
LINE
8
BLACK
6
CONTINUOUS
10
3.8148
20
-2.91519
11
3.81455
21
-2.91515
0
LINE
8
BLACK
6
CONTINUOUS
10
3.81455
20
-2.91515
11
3.81353
21
-2.91449
0
LINE
8
BLACK
6
CONTINUOUS
10
3.81353
20
-2.91449
11
3.81246
21
-2.91391
0
LINE
8
BLACK
6
CONTINUOUS
10
3.81246
20
-2.91391
11
3.80712
21
-2.90857
0
LINE
8
BLACK
6
CONTINUOUS
10
3.80712
20
-2.90857
11
3.8052
21
-2.90927
0
LINE
8
BLACK
6
CONTINUOUS
10
3.8052
20
-2.90927
11
3.8011
21
-2.90927
0
LINE
8
BLACK
6
CONTINUOUS
10
3.8011
20
-2.90927
11
3.79724
21
-2.90787
0
LINE
8
BLACK
6
CONTINUOUS
10
3.79724
20
-2.90787
11
3.7941
21
-2.90523
0
LINE
8
BLACK
6
CONTINUOUS
10
3.7941
20
-2.90523
11
3.79205
21
-2.90168
0
LINE
8
BLACK
6
CONTINUOUS
10
3.79205
20
-2.90168
11
3.79134
21
-2.89764
0
LINE
8
BLACK
6
CONTINUOUS
10
3.79134
20
-2.89764
11
3.79205
21
-2.8936
0
LINE
8
BLACK
6
CONTINUOUS
10
3.79205
20
-2.8936
11
3.7941
21
-2.89005
0
LINE
8
BLACK
6
CONTINUOUS
10
3.7941
20
-2.89005
11
3.79724
21
-2.88741
0
LINE
8
BLACK
6
CONTINUOUS
10
3.79724
20
-2.88741
11
3.8011
21
-2.88601
0
LINE
8
BLACK
6
CONTINUOUS
10
3.8011
20
-2.88601
11
3.8052
21
-2.88601
0
LINE
8
BLACK
6
CONTINUOUS
10
3.8052
20
-2.88601
11
3.80906
21
-2.88741
0
LINE
8
BLACK
6
CONTINUOUS
10
3.80906
20
-2.88741
11
3.8122
21
-2.89005
0
LINE
8
BLACK
6
CONTINUOUS
10
3.8122
20
-2.89005
11
3.81425
21
-2.8936
0
LINE
8
BLACK
6
CONTINUOUS
10
3.81425
20
-2.8936
11
3.81496
21
-2.89764
0
LINE
8
BLACK
6
CONTINUOUS
10
3.81496
20
-2.89764
11
3.81425
21
-2.90168
0
LINE
8
BLACK
6
CONTINUOUS
10
3.81425
20
-2.90168
11
3.81421
21
-2.90174
0
LINE
8
BLACK
6
CONTINUOUS
10
3.81421
20
-2.90174
11
3.81798
21
-2.90551
0
LINE
8
BLACK
6
CONTINUOUS
10
3.81798
20
-2.90551
11
3.83071
21
-2.90551
0
LINE
8
BLACK
6
CONTINUOUS
10
3.83071
20
-2.90551
11
3.83108
21
-2.90363
0
LINE
8
BLACK
6
CONTINUOUS
10
3.83108
20
-2.90363
11
3.83215
21
-2.90203
0
LINE
8
BLACK
6
CONTINUOUS
10
3.83215
20
-2.90203
11
3.83375
21
-2.90097
0
LINE
8
BLACK
6
CONTINUOUS
10
3.83375
20
-2.90097
11
3.83563
21
-2.90059
0
LINE
8
BLACK
6
CONTINUOUS
10
3.83563
20
-2.90059
11
3.89567
21
-2.90059
0
LINE
8
BLACK
6
CONTINUOUS
10
3.89567
20
-2.90059
11
3.89755
21
-2.90097
0
LINE
8
BLACK
6
CONTINUOUS
10
3.89755
20
-2.90097
11
3.89915
21
-2.90203
0
LINE
8
BLACK
6
CONTINUOUS
10
3.89915
20
-2.90203
11
3.90022
21
-2.90363
0
LINE
8
BLACK
6
CONTINUOUS
10
3.90022
20
-2.90363
11
3.90059
21
-2.90551
0
LINE
8
BLACK
6
CONTINUOUS
10
3.90059
20
-2.90551
11
3.90059
21
-2.91535
0
LINE
8
BLACK
6
CONTINUOUS
10
3.90059
20
-2.91535
11
3.90022
21
-2.91724
0
LINE
8
BLACK
6
CONTINUOUS
10
3.90022
20
-2.91724
11
3.89915
21
-2.91883
0
LINE
8
BLACK
6
CONTINUOUS
10
3.89915
20
-2.91883
11
3.89755
21
-2.9199
0
LINE
8
BLACK
6
CONTINUOUS
10
3.89755
20
-2.9199
11
3.89567
21
-2.92028
0
LINE
8
BLACK
6
CONTINUOUS
10
3.89567
20
-2.92028
11
3.83563
21
-2.92028
0
LINE
8
BLACK
6
CONTINUOUS
10
3.83563
20
-2.92028
11
3.83375
21
-2.9199
0
LINE
8
BLACK
6
CONTINUOUS
10
3.83375
20
-2.9199
11
3.83215
21
-2.91883
0
LINE
8
BLACK
6
CONTINUOUS
10
3.83215
20
-2.91883
11
3.83108
21
-2.91724
0
LINE
8
BLACK
6
CONTINUOUS
10
3.83108
20
-2.91724
11
3.83071
21
-2.91535
0
LINE
8
BLACK
6
CONTINUOUS
10
3.83071
20
-2.91535
11
3.81594
21
-2.91535
0
LINE
8
BLACK
6
CONTINUOUS
10
3.81594
20
-2.91535
11
3.81508
21
-2.91523
0
CIRCLE
8
BLACK
10
3.80315
20
-2.89764
40
0.00787402
0
CIRCLE
8
BLACK
10
4.28346
20
-3.29921
40
0.00787402
0
CIRCLE
8
BLACK
10
4.52165
20
-2.43307
40
0.00787402
0
CIRCLE
8
BLACK
10
3.76378
20
-3.06299
40
0.00787402
0
CIRCLE
8
BLACK
10
4.18898
20
-3.20472
40
0.00787402
0
CIRCLE
8
BLACK
10
4.1437
20
-2.44094
40
0.00787402
0
CIRCLE
8
BLACK
10
3.76378
20
-2.77953
40
0.00787402
0
CIRCLE
8
BLACK
10
4.57677
20
-2.50394
40
0.00787402
0
CIRCLE
8
BLACK
10
4.58268
20
-2.82677
40
0.00787402
0
CIRCLE
8
BLACK
10
4.37008
20
-2.97638
40
0.00787402
0
CIRCLE
8
BLACK
10
3.76378
20
-2.77953
40
0.00787402
0
CIRCLE
8
BLACK
10
3.80315
20
-2.94488
40
0.00787402
0
CIRCLE
8
BLACK
10
4.59055
20
-3.08661
40
0.00787402
0
CIRCLE
8
BLACK
10
4.5748
20
-3.23622
40
0.00787402
0
CIRCLE
8
BLACK
10
4.19685
20
-2.92913
40
0.00787402
0
CIRCLE
8
BLACK
10
4.18898
20
-2.98425
40
0.00787402
0
CIRCLE
8
BLACK
10
4.19685
20
-3.03937
40
0.00787402
  0
ENDSEC
  0
EOF
