  0
SECTION
  2
HEADER
  9
$ANGBASE
  50
0.0
  9
$ANGDIR
  70
1
  9
$MEASUREMENT
  70
0
  0
ENDSEC
  0
SECTION
  2
TABLES
  0
TABLE
  2
LTYPE
  70
4
  0
LTYPE
  5
40F
  2
CONTINUOUS
  70
0
  3
Solid line
  72
65
  73
0
  40
0.0
  0
LTYPE
  5
410
  2
DASHDOT
 70
0
  3
Dash Dot ____ _ ____ _
 72
65
 73
4
 40
2.0
 49
1.25
 49
-0.25
 49
0.25
 49
-0.25
  0
LTYPE
  5
411
  2
DASHED
 70
0
  3
Dashed __ __ __ __ __
 72
65
 73
2
 40
0.75
 49
0.5
 49
-0.25
  0
LTYPE
  5
43B
  2
DOTTED
 70
0
  3
Dotted .  .  .  .
 72
65
 73
2
 40
0.2
 49
0.0
 49
-0.2
  0
ENDTAB
  0
TABLE
  2
STYLE
  70
4
  0
STYLE
  2
KICAD
  70
0
  40
0
  41
1
  42
1
  50
0
  71
0
  3
isocp.shx
  0
STYLE
  2
KICADB
  70
0
  40
0
  41
1
  42
1
  50
0
  71
0
  3
isocp.shx
  0
STYLE
  2
KICADI
  70
0
  40
0
  41
1
  42
1
  50
15
  71
0
  3
isocp.shx
  0
STYLE
  2
KICADBI
  70
0
  40
0
  41
1
  42
1
  50
15
  71
0
  3
isocp.shx
  0
ENDTAB
  0
TABLE
  2
LAYER
  70
1
  0
LAYER
  2
BLACK
  70
0
  62
7
  6
CONTINUOUS
  0
ENDTAB
  0
ENDSEC
  0
SECTION
  2
ENTITIES
0
LINE
8
BLACK
6
CONTINUOUS
10
2.89785
20
-2.93066
11
2.90113
21
-2.89032
0
LINE
8
BLACK
6
CONTINUOUS
10
2.90113
20
-2.89032
11
2.90589
21
-2.85013
0
LINE
8
BLACK
6
CONTINUOUS
10
2.90589
20
-2.85013
11
2.91211
21
-2.81013
0
LINE
8
BLACK
6
CONTINUOUS
10
2.91211
20
-2.81013
11
2.9198
21
-2.7704
0
LINE
8
BLACK
6
CONTINUOUS
10
2.9198
20
-2.7704
11
2.92894
21
-2.73097
0
LINE
8
BLACK
6
CONTINUOUS
10
2.92894
20
-2.73097
11
2.93952
21
-2.6919
0
LINE
8
BLACK
6
CONTINUOUS
10
2.93952
20
-2.6919
11
2.95152
21
-2.65325
0
LINE
8
BLACK
6
CONTINUOUS
10
2.95152
20
-2.65325
11
2.96493
21
-2.61506
0
LINE
8
BLACK
6
CONTINUOUS
10
2.96493
20
-2.61506
11
2.97973
21
-2.57739
0
LINE
8
BLACK
6
CONTINUOUS
10
2.97973
20
-2.57739
11
2.9959
21
-2.54029
0
LINE
8
BLACK
6
CONTINUOUS
10
2.9959
20
-2.54029
11
3.01342
21
-2.5038
0
LINE
8
BLACK
6
CONTINUOUS
10
3.01342
20
-2.5038
11
3.03227
21
-2.46798
0
LINE
8
BLACK
6
CONTINUOUS
10
3.03227
20
-2.46798
11
3.05241
21
-2.43288
0
LINE
8
BLACK
6
CONTINUOUS
10
3.05241
20
-2.43288
11
3.07383
21
-2.39854
0
LINE
8
BLACK
6
CONTINUOUS
10
3.07383
20
-2.39854
11
3.09649
21
-2.365
0
LINE
8
BLACK
6
CONTINUOUS
10
3.09649
20
-2.365
11
3.12037
21
-2.33232
0
LINE
8
BLACK
6
CONTINUOUS
10
3.12037
20
-2.33232
11
3.14542
21
-2.30054
0
LINE
8
BLACK
6
CONTINUOUS
10
3.14542
20
-2.30054
11
3.17163
21
-2.26969
0
LINE
8
BLACK
6
CONTINUOUS
10
3.17163
20
-2.26969
11
3.19895
21
-2.23983
0
LINE
8
BLACK
6
CONTINUOUS
10
3.19895
20
-2.23983
11
3.22734
21
-2.21099
0
LINE
8
BLACK
6
CONTINUOUS
10
3.22734
20
-2.21099
11
3.25677
21
-2.1832
0
LINE
8
BLACK
6
CONTINUOUS
10
3.25677
20
-2.1832
11
3.2872
21
-2.15652
0
LINE
8
BLACK
6
CONTINUOUS
10
3.2872
20
-2.15652
11
3.31859
21
-2.13096
0
LINE
8
BLACK
6
CONTINUOUS
10
3.31859
20
-2.13096
11
3.35089
21
-2.10658
0
LINE
8
BLACK
6
CONTINUOUS
10
3.35089
20
-2.10658
11
3.38406
21
-2.08339
0
LINE
8
BLACK
6
CONTINUOUS
10
3.38406
20
-2.08339
11
3.41807
21
-2.06144
0
LINE
8
BLACK
6
CONTINUOUS
10
3.41807
20
-2.06144
11
3.45285
21
-2.04074
0
LINE
8
BLACK
6
CONTINUOUS
10
3.45285
20
-2.04074
11
3.48837
21
-2.02134
0
LINE
8
BLACK
6
CONTINUOUS
10
3.48837
20
-2.02134
11
3.52457
21
-2.00325
0
LINE
8
BLACK
6
CONTINUOUS
10
3.52457
20
-2.00325
11
3.56142
21
-1.9865
0
LINE
8
BLACK
6
CONTINUOUS
10
3.56142
20
-1.9865
11
3.59885
21
-1.9711
0
LINE
8
BLACK
6
CONTINUOUS
10
3.59885
20
-1.9711
11
3.63682
21
-1.9571
0
LINE
8
BLACK
6
CONTINUOUS
10
3.63682
20
-1.9571
11
3.67528
21
-1.94449
0
LINE
8
BLACK
6
CONTINUOUS
10
3.67528
20
-1.94449
11
3.71418
21
-1.9333
0
LINE
8
BLACK
6
CONTINUOUS
10
3.71418
20
-1.9333
11
3.75346
21
-1.92354
0
LINE
8
BLACK
6
CONTINUOUS
10
3.75346
20
-1.92354
11
3.79307
21
-1.91523
0
LINE
8
BLACK
6
CONTINUOUS
10
3.79307
20
-1.91523
11
3.83296
21
-1.90838
0
LINE
8
BLACK
6
CONTINUOUS
10
3.83296
20
-1.90838
11
3.87307
21
-1.90299
0
LINE
8
BLACK
6
CONTINUOUS
10
3.87307
20
-1.90299
11
3.91336
21
-1.89907
0
LINE
8
BLACK
6
CONTINUOUS
10
3.91336
20
-1.89907
11
3.95376
21
-1.89664
0
LINE
8
BLACK
6
CONTINUOUS
10
3.95376
20
-1.89664
11
3.99422
21
-1.89568
0
LINE
8
BLACK
6
CONTINUOUS
10
3.99422
20
-1.89568
11
4.03469
21
-1.89621
0
LINE
8
BLACK
6
CONTINUOUS
10
4.03469
20
-1.89621
11
4.07511
21
-1.89823
0
LINE
8
BLACK
6
CONTINUOUS
10
4.07511
20
-1.89823
11
4.11543
21
-1.90172
0
LINE
8
BLACK
6
CONTINUOUS
10
4.11543
20
-1.90172
11
4.1556
21
-1.90669
0
LINE
8
BLACK
6
CONTINUOUS
10
4.1556
20
-1.90669
11
4.19556
21
-1.91312
0
LINE
8
BLACK
6
CONTINUOUS
10
4.19556
20
-1.91312
11
4.23526
21
-1.92102
0
LINE
8
BLACK
6
CONTINUOUS
10
4.23526
20
-1.92102
11
4.27464
21
-1.93036
0
LINE
8
BLACK
6
CONTINUOUS
10
4.27464
20
-1.93036
11
4.31365
21
-1.94115
0
LINE
8
BLACK
6
CONTINUOUS
10
4.31365
20
-1.94115
11
4.35224
21
-1.95335
0
LINE
8
BLACK
6
CONTINUOUS
10
4.35224
20
-1.95335
11
4.39035
21
-1.96696
0
LINE
8
BLACK
6
CONTINUOUS
10
4.39035
20
-1.96696
11
4.42795
21
-1.98196
0
LINE
8
BLACK
6
CONTINUOUS
10
4.42795
20
-1.98196
11
4.46496
21
-1.99832
0
LINE
8
BLACK
6
CONTINUOUS
10
4.46496
20
-1.99832
11
4.50136
21
-2.01603
0
LINE
8
BLACK
6
CONTINUOUS
10
4.50136
20
-2.01603
11
4.53708
21
-2.03507
0
LINE
8
BLACK
6
CONTINUOUS
10
4.53708
20
-2.03507
11
4.57207
21
-2.05539
0
LINE
8
BLACK
6
CONTINUOUS
10
4.57207
20
-2.05539
11
4.6063
21
-2.07699
0
LINE
8
BLACK
6
CONTINUOUS
10
4.6063
20
-2.07699
11
4.63972
21
-2.09983
0
LINE
8
BLACK
6
CONTINUOUS
10
4.63972
20
-2.09983
11
4.67227
21
-2.12388
0
LINE
8
BLACK
6
CONTINUOUS
10
4.67227
20
-2.12388
11
4.70393
21
-2.1491
0
LINE
8
BLACK
6
CONTINUOUS
10
4.70393
20
-2.1491
11
4.73463
21
-2.17546
0
LINE
8
BLACK
6
CONTINUOUS
10
4.73463
20
-2.17546
11
4.76435
21
-2.20294
0
LINE
8
BLACK
6
CONTINUOUS
10
4.76435
20
-2.20294
11
4.79305
21
-2.23148
0
LINE
8
BLACK
6
CONTINUOUS
10
4.79305
20
-2.23148
11
4.82068
21
-2.26106
0
LINE
8
BLACK
6
CONTINUOUS
10
4.82068
20
-2.26106
11
4.8472
21
-2.29163
0
LINE
8
BLACK
6
CONTINUOUS
10
4.8472
20
-2.29163
11
4.87259
21
-2.32315
0
LINE
8
BLACK
6
CONTINUOUS
10
4.87259
20
-2.32315
11
4.89681
21
-2.35558
0
LINE
8
BLACK
6
CONTINUOUS
10
4.89681
20
-2.35558
11
4.91982
21
-2.38887
0
LINE
8
BLACK
6
CONTINUOUS
10
4.91982
20
-2.38887
11
4.9416
21
-2.42299
0
LINE
8
BLACK
6
CONTINUOUS
10
4.9416
20
-2.42299
11
4.96211
21
-2.45788
0
LINE
8
BLACK
6
CONTINUOUS
10
4.96211
20
-2.45788
11
4.98133
21
-2.4935
0
LINE
8
BLACK
6
CONTINUOUS
10
4.98133
20
-2.4935
11
4.99923
21
-2.5298
0
LINE
8
BLACK
6
CONTINUOUS
10
4.99923
20
-2.5298
11
5.01579
21
-2.56673
0
LINE
8
BLACK
6
CONTINUOUS
10
5.01579
20
-2.56673
11
5.03098
21
-2.60424
0
LINE
8
BLACK
6
CONTINUOUS
10
5.03098
20
-2.60424
11
5.04479
21
-2.64229
0
LINE
8
BLACK
6
CONTINUOUS
10
5.04479
20
-2.64229
11
5.0572
21
-2.68081
0
LINE
8
BLACK
6
CONTINUOUS
10
5.0572
20
-2.68081
11
5.06818
21
-2.71977
0
LINE
8
BLACK
6
CONTINUOUS
10
5.06818
20
-2.71977
11
5.07773
21
-2.7591
0
LINE
8
BLACK
6
CONTINUOUS
10
5.07773
20
-2.7591
11
5.08584
21
-2.79875
0
LINE
8
BLACK
6
CONTINUOUS
10
5.08584
20
-2.79875
11
5.09248
21
-2.83868
0
LINE
8
BLACK
6
CONTINUOUS
10
5.09248
20
-2.83868
11
5.09766
21
-2.87882
0
LINE
8
BLACK
6
CONTINUOUS
10
5.09766
20
-2.87882
11
5.10136
21
-2.91912
0
LINE
8
BLACK
6
CONTINUOUS
10
5.10136
20
-2.91912
11
5.10359
21
-2.95953
0
LINE
8
BLACK
6
CONTINUOUS
10
5.10359
20
-2.95953
11
5.10433
21
-3
0
LINE
8
BLACK
6
CONTINUOUS
10
5.10433
20
-3
11
5.10419
21
-3.01735
0
LINE
8
BLACK
6
CONTINUOUS
10
5.10419
20
-3.01735
11
5.10282
21
-3.0578
0
LINE
8
BLACK
6
CONTINUOUS
10
5.10282
20
-3.0578
11
5.09996
21
-3.09817
0
LINE
8
BLACK
6
CONTINUOUS
10
5.09996
20
-3.09817
11
5.09562
21
-3.13841
0
LINE
8
BLACK
6
CONTINUOUS
10
5.09562
20
-3.13841
11
5.08982
21
-3.17846
0
LINE
8
BLACK
6
CONTINUOUS
10
5.08982
20
-3.17846
11
5.08254
21
-3.21828
0
LINE
8
BLACK
6
CONTINUOUS
10
5.08254
20
-3.21828
11
5.07382
21
-3.2578
0
LINE
8
BLACK
6
CONTINUOUS
10
5.07382
20
-3.2578
11
5.06365
21
-3.29698
0
LINE
8
BLACK
6
CONTINUOUS
10
5.06365
20
-3.29698
11
5.05205
21
-3.33575
0
LINE
8
BLACK
6
CONTINUOUS
10
5.05205
20
-3.33575
11
5.03904
21
-3.37408
0
LINE
8
BLACK
6
CONTINUOUS
10
5.03904
20
-3.37408
11
5.02464
21
-3.4119
0
LINE
8
BLACK
6
CONTINUOUS
10
5.02464
20
-3.4119
11
5.00886
21
-3.44917
0
LINE
8
BLACK
6
CONTINUOUS
10
5.00886
20
-3.44917
11
4.99172
21
-3.48584
0
LINE
8
BLACK
6
CONTINUOUS
10
4.99172
20
-3.48584
11
4.97325
21
-3.52185
0
LINE
8
BLACK
6
CONTINUOUS
10
4.97325
20
-3.52185
11
4.95347
21
-3.55717
0
LINE
8
BLACK
6
CONTINUOUS
10
4.95347
20
-3.55717
11
4.93242
21
-3.59173
0
LINE
8
BLACK
6
CONTINUOUS
10
4.93242
20
-3.59173
11
4.91011
21
-3.6255
0
LINE
8
BLACK
6
CONTINUOUS
10
4.91011
20
-3.6255
11
4.88658
21
-3.65843
0
LINE
8
BLACK
6
CONTINUOUS
10
4.88658
20
-3.65843
11
4.86185
21
-3.69047
0
LINE
8
BLACK
6
CONTINUOUS
10
4.86185
20
-3.69047
11
4.83597
21
-3.72159
0
LINE
8
BLACK
6
CONTINUOUS
10
4.83597
20
-3.72159
11
4.80897
21
-3.75174
0
LINE
8
BLACK
6
CONTINUOUS
10
4.80897
20
-3.75174
11
4.78088
21
-3.78088
0
LINE
8
BLACK
6
CONTINUOUS
10
4.78088
20
-3.78088
11
4.75174
21
-3.80897
0
LINE
8
BLACK
6
CONTINUOUS
10
4.75174
20
-3.80897
11
4.72159
21
-3.83597
0
LINE
8
BLACK
6
CONTINUOUS
10
4.72159
20
-3.83597
11
4.69047
21
-3.86185
0
LINE
8
BLACK
6
CONTINUOUS
10
4.69047
20
-3.86185
11
4.65843
21
-3.88658
0
LINE
8
BLACK
6
CONTINUOUS
10
4.65843
20
-3.88658
11
4.6255
21
-3.91011
0
LINE
8
BLACK
6
CONTINUOUS
10
4.6255
20
-3.91011
11
4.59173
21
-3.93242
0
LINE
8
BLACK
6
CONTINUOUS
10
4.59173
20
-3.93242
11
4.55717
21
-3.95347
0
LINE
8
BLACK
6
CONTINUOUS
10
4.55717
20
-3.95347
11
4.52185
21
-3.97325
0
LINE
8
BLACK
6
CONTINUOUS
10
4.52185
20
-3.97325
11
4.48584
21
-3.99172
0
LINE
8
BLACK
6
CONTINUOUS
10
4.48584
20
-3.99172
11
4.44917
21
-4.00886
0
LINE
8
BLACK
6
CONTINUOUS
10
4.44917
20
-4.00886
11
4.4119
21
-4.02464
0
LINE
8
BLACK
6
CONTINUOUS
10
4.4119
20
-4.02464
11
4.37408
21
-4.03904
0
LINE
8
BLACK
6
CONTINUOUS
10
4.37408
20
-4.03904
11
4.33575
21
-4.05205
0
LINE
8
BLACK
6
CONTINUOUS
10
4.33575
20
-4.05205
11
4.29698
21
-4.06365
0
LINE
8
BLACK
6
CONTINUOUS
10
4.29698
20
-4.06365
11
4.2578
21
-4.07382
0
LINE
8
BLACK
6
CONTINUOUS
10
4.2578
20
-4.07382
11
4.21828
21
-4.08254
0
LINE
8
BLACK
6
CONTINUOUS
10
4.21828
20
-4.08254
11
4.17846
21
-4.08982
0
LINE
8
BLACK
6
CONTINUOUS
10
4.17846
20
-4.08982
11
4.13841
21
-4.09562
0
LINE
8
BLACK
6
CONTINUOUS
10
4.13841
20
-4.09562
11
4.09817
21
-4.09996
0
LINE
8
BLACK
6
CONTINUOUS
10
4.09817
20
-4.09996
11
4.0578
21
-4.10282
0
LINE
8
BLACK
6
CONTINUOUS
10
4.0578
20
-4.10282
11
4.01735
21
-4.10419
0
LINE
8
BLACK
6
CONTINUOUS
10
4.01735
20
-4.10419
11
3.97687
21
-4.10409
0
LINE
8
BLACK
6
CONTINUOUS
10
3.97687
20
-4.10409
11
3.93643
21
-4.1025
0
LINE
8
BLACK
6
CONTINUOUS
10
3.93643
20
-4.1025
11
3.89607
21
-4.09943
0
LINE
8
BLACK
6
CONTINUOUS
10
3.89607
20
-4.09943
11
3.85586
21
-4.09488
0
LINE
8
BLACK
6
CONTINUOUS
10
3.85586
20
-4.09488
11
3.81583
21
-4.08887
0
LINE
8
BLACK
6
CONTINUOUS
10
3.81583
20
-4.08887
11
3.77606
21
-4.08139
0
LINE
8
BLACK
6
CONTINUOUS
10
3.77606
20
-4.08139
11
3.73658
21
-4.07245
0
LINE
8
BLACK
6
CONTINUOUS
10
3.73658
20
-4.07245
11
3.69746
21
-4.06208
0
LINE
8
BLACK
6
CONTINUOUS
10
3.69746
20
-4.06208
11
3.65874
21
-4.05028
0
LINE
8
BLACK
6
CONTINUOUS
10
3.65874
20
-4.05028
11
3.62049
21
-4.03707
0
LINE
8
BLACK
6
CONTINUOUS
10
3.62049
20
-4.03707
11
3.58274
21
-4.02247
0
LINE
8
BLACK
6
CONTINUOUS
10
3.58274
20
-4.02247
11
3.54555
21
-4.00649
0
LINE
8
BLACK
6
CONTINUOUS
10
3.54555
20
-4.00649
11
3.50898
21
-3.98916
0
LINE
8
BLACK
6
CONTINUOUS
10
3.50898
20
-3.98916
11
3.47306
21
-3.9705
0
LINE
8
BLACK
6
CONTINUOUS
10
3.47306
20
-3.9705
11
3.43785
21
-3.95054
0
LINE
8
BLACK
6
CONTINUOUS
10
3.43785
20
-3.95054
11
3.4034
21
-3.92931
0
LINE
8
BLACK
6
CONTINUOUS
10
3.4034
20
-3.92931
11
3.36974
21
-3.90682
0
LINE
8
BLACK
6
CONTINUOUS
10
3.36974
20
-3.90682
11
3.33694
21
-3.88312
0
LINE
8
BLACK
6
CONTINUOUS
10
3.33694
20
-3.88312
11
3.30502
21
-3.85823
0
LINE
8
BLACK
6
CONTINUOUS
10
3.30502
20
-3.85823
11
3.27404
21
-3.83218
0
LINE
8
BLACK
6
CONTINUOUS
10
3.27404
20
-3.83218
11
3.24403
21
-3.80502
0
LINE
8
BLACK
6
CONTINUOUS
10
3.24403
20
-3.80502
11
3.21504
21
-3.77678
0
LINE
8
BLACK
6
CONTINUOUS
10
3.21504
20
-3.77678
11
3.18711
21
-3.74749
0
LINE
8
BLACK
6
CONTINUOUS
10
3.18711
20
-3.74749
11
3.16026
21
-3.71721
0
LINE
8
BLACK
6
CONTINUOUS
10
3.16026
20
-3.71721
11
3.13454
21
-3.68595
0
LINE
8
BLACK
6
CONTINUOUS
10
3.13454
20
-3.68595
11
3.10999
21
-3.65378
0
LINE
8
BLACK
6
CONTINUOUS
10
3.10999
20
-3.65378
11
3.08663
21
-3.62073
0
LINE
8
BLACK
6
CONTINUOUS
10
3.08663
20
-3.62073
11
3.0645
21
-3.58684
0
LINE
8
BLACK
6
CONTINUOUS
10
3.0645
20
-3.58684
11
3.04362
21
-3.55217
0
LINE
8
BLACK
6
CONTINUOUS
10
3.04362
20
-3.55217
11
3.02403
21
-3.51675
0
LINE
8
BLACK
6
CONTINUOUS
10
3.02403
20
-3.51675
11
3.00575
21
-3.48064
0
LINE
8
BLACK
6
CONTINUOUS
10
3.00575
20
-3.48064
11
2.98881
21
-3.44388
0
LINE
8
BLACK
6
CONTINUOUS
10
2.98881
20
-3.44388
11
2.97322
21
-3.40653
0
LINE
8
BLACK
6
CONTINUOUS
10
2.97322
20
-3.40653
11
2.95901
21
-3.36863
0
LINE
8
BLACK
6
CONTINUOUS
10
2.95901
20
-3.36863
11
2.9462
21
-3.33024
0
LINE
8
BLACK
6
CONTINUOUS
10
2.9462
20
-3.33024
11
2.93481
21
-3.2914
0
LINE
8
BLACK
6
CONTINUOUS
10
2.93481
20
-3.2914
11
2.92485
21
-3.25217
0
LINE
8
BLACK
6
CONTINUOUS
10
2.92485
20
-3.25217
11
2.91633
21
-3.21261
0
LINE
8
BLACK
6
CONTINUOUS
10
2.91633
20
-3.21261
11
2.90927
21
-3.17276
0
LINE
8
BLACK
6
CONTINUOUS
10
2.90927
20
-3.17276
11
2.90367
21
-3.13267
0
LINE
8
BLACK
6
CONTINUOUS
10
2.90367
20
-3.13267
11
2.89954
21
-3.09241
0
LINE
8
BLACK
6
CONTINUOUS
10
2.89954
20
-3.09241
11
2.8969
21
-3.05202
0
LINE
8
BLACK
6
CONTINUOUS
10
2.8969
20
-3.05202
11
2.89573
21
-3.01156
0
LINE
8
BLACK
6
CONTINUOUS
10
2.89573
20
-3.01156
11
2.89573
21
-3.01153
0
LINE
8
BLACK
6
CONTINUOUS
10
2.89573
20
-3.01153
11
2.89605
21
-2.97109
0
LINE
8
BLACK
6
CONTINUOUS
10
2.89605
20
-2.97109
11
2.89785
21
-2.93066
0
LINE
8
BLACK
6
CONTINUOUS
10
2.90327
20
-3.0921
11
2.90738
21
-3.13222
0
LINE
8
BLACK
6
CONTINUOUS
10
2.90738
20
-3.13222
11
2.91296
21
-3.17217
0
LINE
8
BLACK
6
CONTINUOUS
10
2.91296
20
-3.17217
11
2.92
21
-3.21189
0
LINE
8
BLACK
6
CONTINUOUS
10
2.92
20
-3.21189
11
2.92849
21
-3.25132
0
LINE
8
BLACK
6
CONTINUOUS
10
2.92849
20
-3.25132
11
2.93842
21
-3.29042
0
LINE
8
BLACK
6
CONTINUOUS
10
2.93842
20
-3.29042
11
2.94977
21
-3.32912
0
LINE
8
BLACK
6
CONTINUOUS
10
2.94977
20
-3.32912
11
2.96254
21
-3.36738
0
LINE
8
BLACK
6
CONTINUOUS
10
2.96254
20
-3.36738
11
2.9767
21
-3.40515
0
LINE
8
BLACK
6
CONTINUOUS
10
2.9767
20
-3.40515
11
2.99223
21
-3.44238
0
LINE
8
BLACK
6
CONTINUOUS
10
2.99223
20
-3.44238
11
3.00912
21
-3.47901
0
LINE
8
BLACK
6
CONTINUOUS
10
3.00912
20
-3.47901
11
3.02734
21
-3.515
0
LINE
8
BLACK
6
CONTINUOUS
10
3.02734
20
-3.515
11
3.04686
21
-3.5503
0
LINE
8
BLACK
6
CONTINUOUS
10
3.04686
20
-3.5503
11
3.06767
21
-3.58485
0
LINE
8
BLACK
6
CONTINUOUS
10
3.06767
20
-3.58485
11
3.08972
21
-3.61862
0
LINE
8
BLACK
6
CONTINUOUS
10
3.08972
20
-3.61862
11
3.113
21
-3.65156
0
LINE
8
BLACK
6
CONTINUOUS
10
3.113
20
-3.65156
11
3.13747
21
-3.68363
0
LINE
8
BLACK
6
CONTINUOUS
10
3.13747
20
-3.68363
11
3.1631
21
-3.71478
0
LINE
8
BLACK
6
CONTINUOUS
10
3.1631
20
-3.71478
11
3.18986
21
-3.74496
0
LINE
8
BLACK
6
CONTINUOUS
10
3.18986
20
-3.74496
11
3.2177
21
-3.77415
0
LINE
8
BLACK
6
CONTINUOUS
10
3.2177
20
-3.77415
11
3.24659
21
-3.8023
0
LINE
8
BLACK
6
CONTINUOUS
10
3.24659
20
-3.8023
11
3.2765
21
-3.82936
0
LINE
8
BLACK
6
CONTINUOUS
10
3.2765
20
-3.82936
11
3.30738
21
-3.85532
0
LINE
8
BLACK
6
CONTINUOUS
10
3.30738
20
-3.85532
11
3.33918
21
-3.88013
0
LINE
8
BLACK
6
CONTINUOUS
10
3.33918
20
-3.88013
11
3.37188
21
-3.90375
0
LINE
8
BLACK
6
CONTINUOUS
10
3.37188
20
-3.90375
11
3.40542
21
-3.92616
0
LINE
8
BLACK
6
CONTINUOUS
10
3.40542
20
-3.92616
11
3.43975
21
-3.94732
0
LINE
8
BLACK
6
CONTINUOUS
10
3.43975
20
-3.94732
11
3.47484
21
-3.96722
0
LINE
8
BLACK
6
CONTINUOUS
10
3.47484
20
-3.96722
11
3.51064
21
-3.98581
0
LINE
8
BLACK
6
CONTINUOUS
10
3.51064
20
-3.98581
11
3.54709
21
-4.00308
0
LINE
8
BLACK
6
CONTINUOUS
10
3.54709
20
-4.00308
11
3.58415
21
-4.019
0
LINE
8
BLACK
6
CONTINUOUS
10
3.58415
20
-4.019
11
3.62177
21
-4.03356
0
LINE
8
BLACK
6
CONTINUOUS
10
3.62177
20
-4.03356
11
3.6599
21
-4.04672
0
LINE
8
BLACK
6
CONTINUOUS
10
3.6599
20
-4.04672
11
3.69848
21
-4.05848
0
LINE
8
BLACK
6
CONTINUOUS
10
3.69848
20
-4.05848
11
3.73747
21
-4.06882
0
LINE
8
BLACK
6
CONTINUOUS
10
3.73747
20
-4.06882
11
3.77681
21
-4.07772
0
LINE
8
BLACK
6
CONTINUOUS
10
3.77681
20
-4.07772
11
3.81646
21
-4.08518
0
LINE
8
BLACK
6
CONTINUOUS
10
3.81646
20
-4.08518
11
3.85634
21
-4.09118
0
LINE
8
BLACK
6
CONTINUOUS
10
3.85634
20
-4.09118
11
3.89643
21
-4.09571
0
LINE
8
BLACK
6
CONTINUOUS
10
3.89643
20
-4.09571
11
3.93665
21
-4.09877
0
LINE
8
BLACK
6
CONTINUOUS
10
3.93665
20
-4.09877
11
3.97695
21
-4.10035
0
LINE
8
BLACK
6
CONTINUOUS
10
3.97695
20
-4.10035
11
4.01729
21
-4.10046
0
LINE
8
BLACK
6
CONTINUOUS
10
4.01729
20
-4.10046
11
4.0576
21
-4.09908
0
LINE
8
BLACK
6
CONTINUOUS
10
4.0576
20
-4.09908
11
4.09784
21
-4.09623
0
LINE
8
BLACK
6
CONTINUOUS
10
4.09784
20
-4.09623
11
4.13794
21
-4.09191
0
LINE
8
BLACK
6
CONTINUOUS
10
4.13794
20
-4.09191
11
4.17786
21
-4.08612
0
LINE
8
BLACK
6
CONTINUOUS
10
4.17786
20
-4.08612
11
4.21754
21
-4.07888
0
LINE
8
BLACK
6
CONTINUOUS
10
4.21754
20
-4.07888
11
4.25693
21
-4.07018
0
LINE
8
BLACK
6
CONTINUOUS
10
4.25693
20
-4.07018
11
4.29597
21
-4.06005
0
LINE
8
BLACK
6
CONTINUOUS
10
4.29597
20
-4.06005
11
4.33462
21
-4.04849
0
LINE
8
BLACK
6
CONTINUOUS
10
4.33462
20
-4.04849
11
4.37281
21
-4.03552
0
LINE
8
BLACK
6
CONTINUOUS
10
4.37281
20
-4.03552
11
4.41051
21
-4.02117
0
LINE
8
BLACK
6
CONTINUOUS
10
4.41051
20
-4.02117
11
4.44765
21
-4.00544
0
LINE
8
BLACK
6
CONTINUOUS
10
4.44765
20
-4.00544
11
4.48419
21
-3.98836
0
LINE
8
BLACK
6
CONTINUOUS
10
4.48419
20
-3.98836
11
4.52008
21
-3.96995
0
LINE
8
BLACK
6
CONTINUOUS
10
4.52008
20
-3.96995
11
4.55528
21
-3.95025
0
LINE
8
BLACK
6
CONTINUOUS
10
4.55528
20
-3.95025
11
4.58973
21
-3.92926
0
LINE
8
BLACK
6
CONTINUOUS
10
4.58973
20
-3.92926
11
4.62338
21
-3.90703
0
LINE
8
BLACK
6
CONTINUOUS
10
4.62338
20
-3.90703
11
4.6562
21
-3.88357
0
LINE
8
BLACK
6
CONTINUOUS
10
4.6562
20
-3.88357
11
4.68814
21
-3.85893
0
LINE
8
BLACK
6
CONTINUOUS
10
4.68814
20
-3.85893
11
4.71915
21
-3.83314
0
LINE
8
BLACK
6
CONTINUOUS
10
4.71915
20
-3.83314
11
4.7492
21
-3.80623
0
LINE
8
BLACK
6
CONTINUOUS
10
4.7492
20
-3.80623
11
4.77824
21
-3.77824
0
LINE
8
BLACK
6
CONTINUOUS
10
4.77824
20
-3.77824
11
4.80623
21
-3.7492
0
LINE
8
BLACK
6
CONTINUOUS
10
4.80623
20
-3.7492
11
4.83314
21
-3.71915
0
LINE
8
BLACK
6
CONTINUOUS
10
4.83314
20
-3.71915
11
4.85893
21
-3.68814
0
LINE
8
BLACK
6
CONTINUOUS
10
4.85893
20
-3.68814
11
4.88357
21
-3.6562
0
LINE
8
BLACK
6
CONTINUOUS
10
4.88357
20
-3.6562
11
4.90703
21
-3.62338
0
LINE
8
BLACK
6
CONTINUOUS
10
4.90703
20
-3.62338
11
4.92926
21
-3.58973
0
LINE
8
BLACK
6
CONTINUOUS
10
4.92926
20
-3.58973
11
4.95025
21
-3.55528
0
LINE
8
BLACK
6
CONTINUOUS
10
4.95025
20
-3.55528
11
4.96995
21
-3.52008
0
LINE
8
BLACK
6
CONTINUOUS
10
4.96995
20
-3.52008
11
4.98836
21
-3.48419
0
LINE
8
BLACK
6
CONTINUOUS
10
4.98836
20
-3.48419
11
5.00544
21
-3.44765
0
LINE
8
BLACK
6
CONTINUOUS
10
5.00544
20
-3.44765
11
5.02117
21
-3.41051
0
LINE
8
BLACK
6
CONTINUOUS
10
5.02117
20
-3.41051
11
5.03552
21
-3.37281
0
LINE
8
BLACK
6
CONTINUOUS
10
5.03552
20
-3.37281
11
5.04849
21
-3.33462
0
LINE
8
BLACK
6
CONTINUOUS
10
5.04849
20
-3.33462
11
5.06005
21
-3.29597
0
LINE
8
BLACK
6
CONTINUOUS
10
5.06005
20
-3.29597
11
5.07018
21
-3.25693
0
LINE
8
BLACK
6
CONTINUOUS
10
5.07018
20
-3.25693
11
5.07888
21
-3.21754
0
LINE
8
BLACK
6
CONTINUOUS
10
5.07888
20
-3.21754
11
5.08612
21
-3.17786
0
LINE
8
BLACK
6
CONTINUOUS
10
5.08612
20
-3.17786
11
5.09191
21
-3.13794
0
LINE
8
BLACK
6
CONTINUOUS
10
5.09191
20
-3.13794
11
5.09623
21
-3.09784
0
LINE
8
BLACK
6
CONTINUOUS
10
5.09623
20
-3.09784
11
5.09908
21
-3.0576
0
LINE
8
BLACK
6
CONTINUOUS
10
5.09908
20
-3.0576
11
5.10046
21
-3.01729
0
LINE
8
BLACK
6
CONTINUOUS
10
5.10046
20
-3.01729
11
5.10059
21
-3
0
LINE
8
BLACK
6
CONTINUOUS
10
5.10059
20
-3
11
5.09985
21
-2.95967
0
LINE
8
BLACK
6
CONTINUOUS
10
5.09985
20
-2.95967
11
5.09764
21
-2.91939
0
LINE
8
BLACK
6
CONTINUOUS
10
5.09764
20
-2.91939
11
5.09394
21
-2.87923
0
LINE
8
BLACK
6
CONTINUOUS
10
5.09394
20
-2.87923
11
5.08878
21
-2.83922
0
LINE
8
BLACK
6
CONTINUOUS
10
5.08878
20
-2.83922
11
5.08216
21
-2.79943
0
LINE
8
BLACK
6
CONTINUOUS
10
5.08216
20
-2.79943
11
5.07409
21
-2.75991
0
LINE
8
BLACK
6
CONTINUOUS
10
5.07409
20
-2.75991
11
5.06457
21
-2.72072
0
LINE
8
BLACK
6
CONTINUOUS
10
5.06457
20
-2.72072
11
5.05362
21
-2.68189
0
LINE
8
BLACK
6
CONTINUOUS
10
5.05362
20
-2.68189
11
5.04125
21
-2.6435
0
LINE
8
BLACK
6
CONTINUOUS
10
5.04125
20
-2.6435
11
5.02749
21
-2.60558
0
LINE
8
BLACK
6
CONTINUOUS
10
5.02749
20
-2.60558
11
5.01235
21
-2.5682
0
LINE
8
BLACK
6
CONTINUOUS
10
5.01235
20
-2.5682
11
4.99584
21
-2.53139
0
LINE
8
BLACK
6
CONTINUOUS
10
4.99584
20
-2.53139
11
4.978
21
-2.49521
0
LINE
8
BLACK
6
CONTINUOUS
10
4.978
20
-2.49521
11
4.95885
21
-2.45972
0
LINE
8
BLACK
6
CONTINUOUS
10
4.95885
20
-2.45972
11
4.93841
21
-2.42494
0
LINE
8
BLACK
6
CONTINUOUS
10
4.93841
20
-2.42494
11
4.91671
21
-2.39094
0
LINE
8
BLACK
6
CONTINUOUS
10
4.91671
20
-2.39094
11
4.89377
21
-2.35776
0
LINE
8
BLACK
6
CONTINUOUS
10
4.89377
20
-2.35776
11
4.86964
21
-2.32544
0
LINE
8
BLACK
6
CONTINUOUS
10
4.86964
20
-2.32544
11
4.84433
21
-2.29403
0
LINE
8
BLACK
6
CONTINUOUS
10
4.84433
20
-2.29403
11
4.8179
21
-2.26356
0
LINE
8
BLACK
6
CONTINUOUS
10
4.8179
20
-2.26356
11
4.79036
21
-2.23408
0
LINE
8
BLACK
6
CONTINUOUS
10
4.79036
20
-2.23408
11
4.76177
21
-2.20564
0
LINE
8
BLACK
6
CONTINUOUS
10
4.76177
20
-2.20564
11
4.73215
21
-2.17826
0
LINE
8
BLACK
6
CONTINUOUS
10
4.73215
20
-2.17826
11
4.70154
21
-2.15198
0
LINE
8
BLACK
6
CONTINUOUS
10
4.70154
20
-2.15198
11
4.67
21
-2.12684
0
LINE
8
BLACK
6
CONTINUOUS
10
4.67
20
-2.12684
11
4.63755
21
-2.10288
0
LINE
8
BLACK
6
CONTINUOUS
10
4.63755
20
-2.10288
11
4.60425
21
-2.08012
0
LINE
8
BLACK
6
CONTINUOUS
10
4.60425
20
-2.08012
11
4.57014
21
-2.05859
0
LINE
8
BLACK
6
CONTINUOUS
10
4.57014
20
-2.05859
11
4.53526
21
-2.03833
0
LINE
8
BLACK
6
CONTINUOUS
10
4.53526
20
-2.03833
11
4.49966
21
-2.01937
0
LINE
8
BLACK
6
CONTINUOUS
10
4.49966
20
-2.01937
11
4.46339
21
-2.00172
0
LINE
8
BLACK
6
CONTINUOUS
10
4.46339
20
-2.00172
11
4.4265
21
-1.98541
0
LINE
8
BLACK
6
CONTINUOUS
10
4.4265
20
-1.98541
11
4.38903
21
-1.97046
0
LINE
8
BLACK
6
CONTINUOUS
10
4.38903
20
-1.97046
11
4.35104
21
-1.95689
0
LINE
8
BLACK
6
CONTINUOUS
10
4.35104
20
-1.95689
11
4.31258
21
-1.94473
0
LINE
8
BLACK
6
CONTINUOUS
10
4.31258
20
-1.94473
11
4.27371
21
-1.93399
0
LINE
8
BLACK
6
CONTINUOUS
10
4.27371
20
-1.93399
11
4.23446
21
-1.92467
0
LINE
8
BLACK
6
CONTINUOUS
10
4.23446
20
-1.92467
11
4.1949
21
-1.9168
0
LINE
8
BLACK
6
CONTINUOUS
10
4.1949
20
-1.9168
11
4.15507
21
-1.91039
0
LINE
8
BLACK
6
CONTINUOUS
10
4.15507
20
-1.91039
11
4.11504
21
-1.90544
0
LINE
8
BLACK
6
CONTINUOUS
10
4.11504
20
-1.90544
11
4.07486
21
-1.90196
0
LINE
8
BLACK
6
CONTINUOUS
10
4.07486
20
-1.90196
11
4.03457
21
-1.89995
0
LINE
8
BLACK
6
CONTINUOUS
10
4.03457
20
-1.89995
11
3.99424
21
-1.89942
0
LINE
8
BLACK
6
CONTINUOUS
10
3.99424
20
-1.89942
11
3.95391
21
-1.90037
0
LINE
8
BLACK
6
CONTINUOUS
10
3.95391
20
-1.90037
11
3.91365
21
-1.9028
0
LINE
8
BLACK
6
CONTINUOUS
10
3.91365
20
-1.9028
11
3.8735
21
-1.9067
0
LINE
8
BLACK
6
CONTINUOUS
10
3.8735
20
-1.9067
11
3.83352
21
-1.91207
0
LINE
8
BLACK
6
CONTINUOUS
10
3.83352
20
-1.91207
11
3.79377
21
-1.9189
0
LINE
8
BLACK
6
CONTINUOUS
10
3.79377
20
-1.9189
11
3.75429
21
-1.92719
0
LINE
8
BLACK
6
CONTINUOUS
10
3.75429
20
-1.92719
11
3.71515
21
-1.93691
0
LINE
8
BLACK
6
CONTINUOUS
10
3.71515
20
-1.93691
11
3.67638
21
-1.94806
0
LINE
8
BLACK
6
CONTINUOUS
10
3.67638
20
-1.94806
11
3.63805
21
-1.96063
0
LINE
8
BLACK
6
CONTINUOUS
10
3.63805
20
-1.96063
11
3.60021
21
-1.97459
0
LINE
8
BLACK
6
CONTINUOUS
10
3.60021
20
-1.97459
11
3.5629
21
-1.98993
0
LINE
8
BLACK
6
CONTINUOUS
10
3.5629
20
-1.98993
11
3.52618
21
-2.00662
0
LINE
8
BLACK
6
CONTINUOUS
10
3.52618
20
-2.00662
11
3.4901
21
-2.02465
0
LINE
8
BLACK
6
CONTINUOUS
10
3.4901
20
-2.02465
11
3.4547
21
-2.04399
0
LINE
8
BLACK
6
CONTINUOUS
10
3.4547
20
-2.04399
11
3.42004
21
-2.06462
0
LINE
8
BLACK
6
CONTINUOUS
10
3.42004
20
-2.06462
11
3.38615
21
-2.0865
0
LINE
8
BLACK
6
CONTINUOUS
10
3.38615
20
-2.0865
11
3.35309
21
-2.1096
0
LINE
8
BLACK
6
CONTINUOUS
10
3.35309
20
-2.1096
11
3.3209
21
-2.13391
0
LINE
8
BLACK
6
CONTINUOUS
10
3.3209
20
-2.13391
11
3.28962
21
-2.15937
0
LINE
8
BLACK
6
CONTINUOUS
10
3.28962
20
-2.15937
11
3.25929
21
-2.18597
0
LINE
8
BLACK
6
CONTINUOUS
10
3.25929
20
-2.18597
11
3.22996
21
-2.21366
0
LINE
8
BLACK
6
CONTINUOUS
10
3.22996
20
-2.21366
11
3.20166
21
-2.2424
0
LINE
8
BLACK
6
CONTINUOUS
10
3.20166
20
-2.2424
11
3.17443
21
-2.27217
0
LINE
8
BLACK
6
CONTINUOUS
10
3.17443
20
-2.27217
11
3.14832
21
-2.30291
0
LINE
8
BLACK
6
CONTINUOUS
10
3.14832
20
-2.30291
11
3.12335
21
-2.33458
0
LINE
8
BLACK
6
CONTINUOUS
10
3.12335
20
-2.33458
11
3.09955
21
-2.36715
0
LINE
8
BLACK
6
CONTINUOUS
10
3.09955
20
-2.36715
11
3.07697
21
-2.40058
0
LINE
8
BLACK
6
CONTINUOUS
10
3.07697
20
-2.40058
11
3.05562
21
-2.4348
0
LINE
8
BLACK
6
CONTINUOUS
10
3.05562
20
-2.4348
11
3.03554
21
-2.46979
0
LINE
8
BLACK
6
CONTINUOUS
10
3.03554
20
-2.46979
11
3.01676
21
-2.50548
0
LINE
8
BLACK
6
CONTINUOUS
10
3.01676
20
-2.50548
11
2.9993
21
-2.54185
0
LINE
8
BLACK
6
CONTINUOUS
10
2.9993
20
-2.54185
11
2.98319
21
-2.57882
0
LINE
8
BLACK
6
CONTINUOUS
10
2.98319
20
-2.57882
11
2.96844
21
-2.61636
0
LINE
8
BLACK
6
CONTINUOUS
10
2.96844
20
-2.61636
11
2.95507
21
-2.65442
0
LINE
8
BLACK
6
CONTINUOUS
10
2.95507
20
-2.65442
11
2.94311
21
-2.69294
0
LINE
8
BLACK
6
CONTINUOUS
10
2.94311
20
-2.69294
11
2.93257
21
-2.73188
0
LINE
8
BLACK
6
CONTINUOUS
10
2.93257
20
-2.73188
11
2.92346
21
-2.77117
0
LINE
8
BLACK
6
CONTINUOUS
10
2.92346
20
-2.77117
11
2.9158
21
-2.81078
0
LINE
8
BLACK
6
CONTINUOUS
10
2.9158
20
-2.81078
11
2.90959
21
-2.85063
0
LINE
8
BLACK
6
CONTINUOUS
10
2.90959
20
-2.85063
11
2.90485
21
-2.89069
0
LINE
8
BLACK
6
CONTINUOUS
10
2.90485
20
-2.89069
11
2.90158
21
-2.93089
0
LINE
8
BLACK
6
CONTINUOUS
10
2.90158
20
-2.93089
11
2.89979
21
-2.97119
0
LINE
8
BLACK
6
CONTINUOUS
10
2.89979
20
-2.97119
11
2.89947
21
-3.01153
0
LINE
8
BLACK
6
CONTINUOUS
10
2.89947
20
-3.01153
11
2.90063
21
-3.05184
0
LINE
8
BLACK
6
CONTINUOUS
10
2.90063
20
-3.05184
11
2.90327
21
-3.0921
0
LINE
8
BLACK
6
CONTINUOUS
10
4.4555
20
-3.81311
11
4.45763
21
-3.80856
0
LINE
8
BLACK
6
CONTINUOUS
10
4.45763
20
-3.80856
11
4.46096
21
-3.8048
0
LINE
8
BLACK
6
CONTINUOUS
10
4.46096
20
-3.8048
11
4.46521
21
-3.80212
0
LINE
8
BLACK
6
CONTINUOUS
10
4.46521
20
-3.80212
11
4.47004
21
-3.80074
0
LINE
8
BLACK
6
CONTINUOUS
10
4.47004
20
-3.80074
11
4.47506
21
-3.80077
0
LINE
8
BLACK
6
CONTINUOUS
10
4.47506
20
-3.80077
11
4.47987
21
-3.80221
0
LINE
8
BLACK
6
CONTINUOUS
10
4.47987
20
-3.80221
11
4.48409
21
-3.80494
0
LINE
8
BLACK
6
CONTINUOUS
10
4.48409
20
-3.80494
11
4.48737
21
-3.80875
0
LINE
8
BLACK
6
CONTINUOUS
10
4.48737
20
-3.80875
11
4.48945
21
-3.81332
0
LINE
8
BLACK
6
CONTINUOUS
10
4.48945
20
-3.81332
11
4.49016
21
-3.81829
0
LINE
8
BLACK
6
CONTINUOUS
10
4.49016
20
-3.81829
11
4.49015
21
-3.81872
0
LINE
8
BLACK
6
CONTINUOUS
10
4.49015
20
-3.81872
11
4.48932
21
-3.82368
0
LINE
8
BLACK
6
CONTINUOUS
10
4.48932
20
-3.82368
11
4.48713
21
-3.8282
0
LINE
8
BLACK
6
CONTINUOUS
10
4.48713
20
-3.8282
11
4.48376
21
-3.83192
0
LINE
8
BLACK
6
CONTINUOUS
10
4.48376
20
-3.83192
11
4.47948
21
-3.83455
0
LINE
8
BLACK
6
CONTINUOUS
10
4.47948
20
-3.83455
11
4.47463
21
-3.83587
0
LINE
8
BLACK
6
CONTINUOUS
10
4.47463
20
-3.83587
11
4.46961
21
-3.83578
0
LINE
8
BLACK
6
CONTINUOUS
10
4.46961
20
-3.83578
11
4.46481
21
-3.83428
0
LINE
8
BLACK
6
CONTINUOUS
10
4.46481
20
-3.83428
11
4.46063
21
-3.8315
0
LINE
8
BLACK
6
CONTINUOUS
10
4.46063
20
-3.8315
11
4.4574
21
-3.82765
0
LINE
8
BLACK
6
CONTINUOUS
10
4.4574
20
-3.82765
11
4.45538
21
-3.82306
0
LINE
8
BLACK
6
CONTINUOUS
10
4.45538
20
-3.82306
11
4.45475
21
-3.81829
0
LINE
8
BLACK
6
CONTINUOUS
10
4.45475
20
-3.81829
11
4.45473
21
-3.81808
0
LINE
8
BLACK
6
CONTINUOUS
10
4.45473
20
-3.81808
11
4.4555
21
-3.81311
0
LINE
8
BLACK
6
CONTINUOUS
10
4.46115
20
-3.82649
11
4.46424
21
-3.82958
0
LINE
8
BLACK
6
CONTINUOUS
10
4.46424
20
-3.82958
11
4.46813
21
-3.83156
0
LINE
8
BLACK
6
CONTINUOUS
10
4.46813
20
-3.83156
11
4.47244
21
-3.83224
0
LINE
8
BLACK
6
CONTINUOUS
10
4.47244
20
-3.83224
11
4.47675
21
-3.83156
0
LINE
8
BLACK
6
CONTINUOUS
10
4.47675
20
-3.83156
11
4.48064
21
-3.82958
0
LINE
8
BLACK
6
CONTINUOUS
10
4.48064
20
-3.82958
11
4.48373
21
-3.82649
0
LINE
8
BLACK
6
CONTINUOUS
10
4.48373
20
-3.82649
11
4.48571
21
-3.8226
0
LINE
8
BLACK
6
CONTINUOUS
10
4.48571
20
-3.8226
11
4.48639
21
-3.81829
0
LINE
8
BLACK
6
CONTINUOUS
10
4.48639
20
-3.81829
11
4.48571
21
-3.81398
0
LINE
8
BLACK
6
CONTINUOUS
10
4.48571
20
-3.81398
11
4.48373
21
-3.81009
0
LINE
8
BLACK
6
CONTINUOUS
10
4.48373
20
-3.81009
11
4.48064
21
-3.807
0
LINE
8
BLACK
6
CONTINUOUS
10
4.48064
20
-3.807
11
4.47675
21
-3.80502
0
LINE
8
BLACK
6
CONTINUOUS
10
4.47675
20
-3.80502
11
4.47244
21
-3.80434
0
LINE
8
BLACK
6
CONTINUOUS
10
4.47244
20
-3.80434
11
4.46813
21
-3.80502
0
LINE
8
BLACK
6
CONTINUOUS
10
4.46813
20
-3.80502
11
4.46424
21
-3.807
0
LINE
8
BLACK
6
CONTINUOUS
10
4.46424
20
-3.807
11
4.46115
21
-3.81009
0
LINE
8
BLACK
6
CONTINUOUS
10
4.46115
20
-3.81009
11
4.45917
21
-3.81398
0
LINE
8
BLACK
6
CONTINUOUS
10
4.45917
20
-3.81398
11
4.45849
21
-3.81829
0
LINE
8
BLACK
6
CONTINUOUS
10
4.45849
20
-3.81829
11
4.45917
21
-3.8226
0
LINE
8
BLACK
6
CONTINUOUS
10
4.45917
20
-3.8226
11
4.46115
21
-3.82649
0
LINE
8
BLACK
6
CONTINUOUS
10
3.03818
20
-2.99482
11
3.04031
21
-2.99027
0
LINE
8
BLACK
6
CONTINUOUS
10
3.04031
20
-2.99027
11
3.04364
21
-2.98651
0
LINE
8
BLACK
6
CONTINUOUS
10
3.04364
20
-2.98651
11
3.04788
21
-2.98383
0
LINE
8
BLACK
6
CONTINUOUS
10
3.04788
20
-2.98383
11
3.05271
21
-2.98245
0
LINE
8
BLACK
6
CONTINUOUS
10
3.05271
20
-2.98245
11
3.05774
21
-2.98248
0
LINE
8
BLACK
6
CONTINUOUS
10
3.05774
20
-2.98248
11
3.06255
21
-2.98392
0
LINE
8
BLACK
6
CONTINUOUS
10
3.06255
20
-2.98392
11
3.06676
21
-2.98665
0
LINE
8
BLACK
6
CONTINUOUS
10
3.06676
20
-2.98665
11
3.07004
21
-2.99045
0
LINE
8
BLACK
6
CONTINUOUS
10
3.07004
20
-2.99045
11
3.07212
21
-2.99503
0
LINE
8
BLACK
6
CONTINUOUS
10
3.07212
20
-2.99503
11
3.07283
21
-3
0
LINE
8
BLACK
6
CONTINUOUS
10
3.07283
20
-3
11
3.07283
21
-3.00043
0
LINE
8
BLACK
6
CONTINUOUS
10
3.07283
20
-3.00043
11
3.072
21
-3.00539
0
LINE
8
BLACK
6
CONTINUOUS
10
3.072
20
-3.00539
11
3.06981
21
-3.00991
0
LINE
8
BLACK
6
CONTINUOUS
10
3.06981
20
-3.00991
11
3.06643
21
-3.01363
0
LINE
8
BLACK
6
CONTINUOUS
10
3.06643
20
-3.01363
11
3.06215
21
-3.01626
0
LINE
8
BLACK
6
CONTINUOUS
10
3.06215
20
-3.01626
11
3.05731
21
-3.01758
0
LINE
8
BLACK
6
CONTINUOUS
10
3.05731
20
-3.01758
11
3.05229
21
-3.01749
0
LINE
8
BLACK
6
CONTINUOUS
10
3.05229
20
-3.01749
11
3.04749
21
-3.01599
0
LINE
8
BLACK
6
CONTINUOUS
10
3.04749
20
-3.01599
11
3.04331
21
-3.01321
0
LINE
8
BLACK
6
CONTINUOUS
10
3.04331
20
-3.01321
11
3.04008
21
-3.00936
0
LINE
8
BLACK
6
CONTINUOUS
10
3.04008
20
-3.00936
11
3.03805
21
-3.00476
0
LINE
8
BLACK
6
CONTINUOUS
10
3.03805
20
-3.00476
11
3.03743
21
-3
0
LINE
8
BLACK
6
CONTINUOUS
10
3.03743
20
-3
11
3.0374
21
-2.99978
0
LINE
8
BLACK
6
CONTINUOUS
10
3.0374
20
-2.99978
11
3.03818
21
-2.99482
0
LINE
8
BLACK
6
CONTINUOUS
10
3.04383
20
-3.0082
11
3.04692
21
-3.01129
0
LINE
8
BLACK
6
CONTINUOUS
10
3.04692
20
-3.01129
11
3.05081
21
-3.01327
0
LINE
8
BLACK
6
CONTINUOUS
10
3.05081
20
-3.01327
11
3.05512
21
-3.01395
0
LINE
8
BLACK
6
CONTINUOUS
10
3.05512
20
-3.01395
11
3.05943
21
-3.01327
0
LINE
8
BLACK
6
CONTINUOUS
10
3.05943
20
-3.01327
11
3.06332
21
-3.01129
0
LINE
8
BLACK
6
CONTINUOUS
10
3.06332
20
-3.01129
11
3.0664
21
-3.0082
0
LINE
8
BLACK
6
CONTINUOUS
10
3.0664
20
-3.0082
11
3.06839
21
-3.00431
0
LINE
8
BLACK
6
CONTINUOUS
10
3.06839
20
-3.00431
11
3.06907
21
-3
0
LINE
8
BLACK
6
CONTINUOUS
10
3.06907
20
-3
11
3.06839
21
-2.99569
0
LINE
8
BLACK
6
CONTINUOUS
10
3.06839
20
-2.99569
11
3.0664
21
-2.9918
0
LINE
8
BLACK
6
CONTINUOUS
10
3.0664
20
-2.9918
11
3.06332
21
-2.98871
0
LINE
8
BLACK
6
CONTINUOUS
10
3.06332
20
-2.98871
11
3.05943
21
-2.98673
0
LINE
8
BLACK
6
CONTINUOUS
10
3.05943
20
-2.98673
11
3.05512
21
-2.98605
0
LINE
8
BLACK
6
CONTINUOUS
10
3.05512
20
-2.98605
11
3.05081
21
-2.98673
0
LINE
8
BLACK
6
CONTINUOUS
10
3.05081
20
-2.98673
11
3.04692
21
-2.98871
0
LINE
8
BLACK
6
CONTINUOUS
10
3.04692
20
-2.98871
11
3.04383
21
-2.9918
0
LINE
8
BLACK
6
CONTINUOUS
10
3.04383
20
-2.9918
11
3.04185
21
-2.99569
0
LINE
8
BLACK
6
CONTINUOUS
10
3.04185
20
-2.99569
11
3.04117
21
-3
0
LINE
8
BLACK
6
CONTINUOUS
10
3.04117
20
-3
11
3.04185
21
-3.00431
0
LINE
8
BLACK
6
CONTINUOUS
10
3.04185
20
-3.00431
11
3.04383
21
-3.0082
0
LINE
8
BLACK
6
CONTINUOUS
10
4.4555
20
-2.17653
11
4.45763
21
-2.17198
0
LINE
8
BLACK
6
CONTINUOUS
10
4.45763
20
-2.17198
11
4.46096
21
-2.16822
0
LINE
8
BLACK
6
CONTINUOUS
10
4.46096
20
-2.16822
11
4.46521
21
-2.16554
0
LINE
8
BLACK
6
CONTINUOUS
10
4.46521
20
-2.16554
11
4.47004
21
-2.16416
0
LINE
8
BLACK
6
CONTINUOUS
10
4.47004
20
-2.16416
11
4.47506
21
-2.16419
0
LINE
8
BLACK
6
CONTINUOUS
10
4.47506
20
-2.16419
11
4.47987
21
-2.16563
0
LINE
8
BLACK
6
CONTINUOUS
10
4.47987
20
-2.16563
11
4.48409
21
-2.16836
0
LINE
8
BLACK
6
CONTINUOUS
10
4.48409
20
-2.16836
11
4.48737
21
-2.17216
0
LINE
8
BLACK
6
CONTINUOUS
10
4.48737
20
-2.17216
11
4.48945
21
-2.17674
0
LINE
8
BLACK
6
CONTINUOUS
10
4.48945
20
-2.17674
11
4.49016
21
-2.18171
0
LINE
8
BLACK
6
CONTINUOUS
10
4.49016
20
-2.18171
11
4.49015
21
-2.18214
0
LINE
8
BLACK
6
CONTINUOUS
10
4.49015
20
-2.18214
11
4.48932
21
-2.18709
0
LINE
8
BLACK
6
CONTINUOUS
10
4.48932
20
-2.18709
11
4.48713
21
-2.19162
0
LINE
8
BLACK
6
CONTINUOUS
10
4.48713
20
-2.19162
11
4.48376
21
-2.19534
0
LINE
8
BLACK
6
CONTINUOUS
10
4.48376
20
-2.19534
11
4.47948
21
-2.19797
0
LINE
8
BLACK
6
CONTINUOUS
10
4.47948
20
-2.19797
11
4.47463
21
-2.19929
0
LINE
8
BLACK
6
CONTINUOUS
10
4.47463
20
-2.19929
11
4.46961
21
-2.1992
0
LINE
8
BLACK
6
CONTINUOUS
10
4.46961
20
-2.1992
11
4.46481
21
-2.1977
0
LINE
8
BLACK
6
CONTINUOUS
10
4.46481
20
-2.1977
11
4.46063
21
-2.19492
0
LINE
8
BLACK
6
CONTINUOUS
10
4.46063
20
-2.19492
11
4.4574
21
-2.19107
0
LINE
8
BLACK
6
CONTINUOUS
10
4.4574
20
-2.19107
11
4.45538
21
-2.18647
0
LINE
8
BLACK
6
CONTINUOUS
10
4.45538
20
-2.18647
11
4.45475
21
-2.18171
0
LINE
8
BLACK
6
CONTINUOUS
10
4.45475
20
-2.18171
11
4.45473
21
-2.18149
0
LINE
8
BLACK
6
CONTINUOUS
10
4.45473
20
-2.18149
11
4.4555
21
-2.17653
0
LINE
8
BLACK
6
CONTINUOUS
10
4.46115
20
-2.18991
11
4.46424
21
-2.193
0
LINE
8
BLACK
6
CONTINUOUS
10
4.46424
20
-2.193
11
4.46813
21
-2.19498
0
LINE
8
BLACK
6
CONTINUOUS
10
4.46813
20
-2.19498
11
4.47244
21
-2.19566
0
LINE
8
BLACK
6
CONTINUOUS
10
4.47244
20
-2.19566
11
4.47675
21
-2.19498
0
LINE
8
BLACK
6
CONTINUOUS
10
4.47675
20
-2.19498
11
4.48064
21
-2.193
0
LINE
8
BLACK
6
CONTINUOUS
10
4.48064
20
-2.193
11
4.48373
21
-2.18991
0
LINE
8
BLACK
6
CONTINUOUS
10
4.48373
20
-2.18991
11
4.48571
21
-2.18602
0
LINE
8
BLACK
6
CONTINUOUS
10
4.48571
20
-2.18602
11
4.48639
21
-2.18171
0
LINE
8
BLACK
6
CONTINUOUS
10
4.48639
20
-2.18171
11
4.48571
21
-2.1774
0
LINE
8
BLACK
6
CONTINUOUS
10
4.48571
20
-2.1774
11
4.48373
21
-2.17351
0
LINE
8
BLACK
6
CONTINUOUS
10
4.48373
20
-2.17351
11
4.48064
21
-2.17042
0
LINE
8
BLACK
6
CONTINUOUS
10
4.48064
20
-2.17042
11
4.47675
21
-2.16844
0
LINE
8
BLACK
6
CONTINUOUS
10
4.47675
20
-2.16844
11
4.47244
21
-2.16776
0
LINE
8
BLACK
6
CONTINUOUS
10
4.47244
20
-2.16776
11
4.46813
21
-2.16844
0
LINE
8
BLACK
6
CONTINUOUS
10
4.46813
20
-2.16844
11
4.46424
21
-2.17042
0
LINE
8
BLACK
6
CONTINUOUS
10
4.46424
20
-2.17042
11
4.46115
21
-2.17351
0
LINE
8
BLACK
6
CONTINUOUS
10
4.46115
20
-2.17351
11
4.45917
21
-2.1774
0
LINE
8
BLACK
6
CONTINUOUS
10
4.45917
20
-2.1774
11
4.45849
21
-2.18171
0
LINE
8
BLACK
6
CONTINUOUS
10
4.45849
20
-2.18171
11
4.45917
21
-2.18602
0
LINE
8
BLACK
6
CONTINUOUS
10
4.45917
20
-2.18602
11
4.46115
21
-2.18991
  0
ENDSEC
  0
EOF
