  0
SECTION
  2
HEADER
  9
$ACADVER
  1
AC1009
  9
$DWGCODEPAGE
  3
ansi_1252
  9
$INSBASE
 10
0.0
 20
0.0
 30
0.0
  9
$EXTMIN
 10
2.89947
 20
-4.10046
 30
0.0
  9
$EXTMAX
 10
5.854993193770367
 20
-1.89942
 30
0.0
  9
$LIMMIN
 10
0.0
 20
0.0
  9
$LIMMAX
 10
12.0
 20
9.0
  9
$ORTHOMODE
 70
     0
  9
$REGENMODE
 70
     1
  9
$FILLMODE
 70
     1
  9
$QTEXTMODE
 70
     0
  9
$MIRRTEXT
 70
     1
  9
$DRAGMODE
 70
     2
  9
$LTSCALE
 40
1.0
  9
$OSMODE
 70
    37
  9
$ATTMODE
 70
     1
  9
$TEXTSIZE
 40
0.2
  9
$TRACEWID
 40
0.05
  9
$TEXTSTYLE
  7
STANDARD
  9
$CLAYER
  8
BLACK
  9
$CELTYPE
  6
BYLAYER
  9
$CECOLOR
 62
   256
  9
$DIMSCALE
 40
1.0
  9
$DIMASZ
 40
0.18
  9
$DIMEXO
 40
0.0625
  9
$DIMDLI
 40
0.38
  9
$DIMRND
 40
0.0
  9
$DIMDLE
 40
0.0
  9
$DIMEXE
 40
0.18
  9
$DIMTP
 40
0.0
  9
$DIMTM
 40
0.0
  9
$DIMTXT
 40
0.18
  9
$DIMCEN
 40
0.09
  9
$DIMTSZ
 40
0.0
  9
$DIMTOL
 70
     0
  9
$DIMLIM
 70
     0
  9
$DIMTIH
 70
     1
  9
$DIMTOH
 70
     1
  9
$DIMSE1
 70
     0
  9
$DIMSE2
 70
     0
  9
$DIMTAD
 70
     0
  9
$DIMZIN
 70
     0
  9
$DIMBLK
  1

  9
$DIMASO
 70
     1
  9
$DIMSHO
 70
     1
  9
$DIMPOST
  1

  9
$DIMAPOST
  1

  9
$DIMALT
 70
     0
  9
$DIMALTD
 70
     2
  9
$DIMALTF
 40
25.4
  9
$DIMLFAC
 40
1.0
  9
$DIMTOFL
 70
     0
  9
$DIMTVP
 40
0.0
  9
$DIMTIX
 70
     0
  9
$DIMSOXD
 70
     0
  9
$DIMSAH
 70
     0
  9
$DIMBLK1
  1

  9
$DIMBLK2
  1

  9
$DIMSTYLE
  2
STANDARD_ACAD
  9
$DIMCLRD
 70
     0
  9
$DIMCLRE
 70
     0
  9
$DIMCLRT
 70
     0
  9
$DIMTFAC
 40
1.0
  9
$DIMGAP
 40
0.09
  9
$LUNITS
 70
     2
  9
$LUPREC
 70
     3
  9
$SKETCHINC
 40
0.1
  9
$FILLETRAD
 40
0.0
  9
$AUNITS
 70
     0
  9
$AUPREC
 70
     0
  9
$MENU
  1
.
  9
$ELEVATION
 40
0.0
  9
$PELEVATION
 40
0.0
  9
$THICKNESS
 40
0.0
  9
$LIMCHECK
 70
     0
  9
$CHAMFERA
 40
0.0
  9
$CHAMFERB
 40
0.0
  9
$SKPOLY
 70
     0
  9
$TDCREATE
 40
2459886.872436227
  9
$TDUPDATE
 40
2459886.872508727
  9
$TDINDWG
 40
0.0000000116
  9
$TDUSRTIMER
 40
0.0000000116
  9
$USRTIMER
 70
     1
  9
$ANGBASE
 50
0.0
  9
$ANGDIR
 70
     0
  9
$PDMODE
 70
     0
  9
$PDSIZE
 40
0.0
  9
$PLINEWID
 40
0.0
  9
$COORDS
 70
     1
  9
$SPLFRAME
 70
     0
  9
$SPLINETYPE
 70
     6
  9
$SPLINESEGS
 70
     8
  9
$ATTDIA
 70
     0
  9
$ATTREQ
 70
     1
  9
$HANDLING
 70
     1
  9
$HANDSEED
  5
119
  9
$SURFTAB1
 70
     6
  9
$SURFTAB2
 70
     6
  9
$SURFTYPE
 70
     6
  9
$SURFU
 70
     6
  9
$SURFV
 70
     6
  9
$UCSNAME
  2

  9
$UCSORG
 10
0.0
 20
0.0
 30
0.0
  9
$UCSXDIR
 10
1.0
 20
0.0
 30
0.0
  9
$UCSYDIR
 10
0.0
 20
1.0
 30
0.0
  9
$PUCSNAME
  2

  9
$PUCSORG
 10
0.0
 20
0.0
 30
0.0
  9
$PUCSXDIR
 10
1.0
 20
0.0
 30
0.0
  9
$PUCSYDIR
 10
0.0
 20
1.0
 30
0.0
  9
$USERI1
 70
     0
  9
$USERI2
 70
     0
  9
$USERI3
 70
     0
  9
$USERI4
 70
     0
  9
$USERI5
 70
     0
  9
$USERR1
 40
0.0
  9
$USERR2
 40
0.0
  9
$USERR3
 40
0.0
  9
$USERR4
 40
0.0
  9
$USERR5
 40
0.0
  9
$WORLDVIEW
 70
     1
  9
$SHADEDGE
 70
     3
  9
$SHADEDIF
 70
    70
  9
$TILEMODE
 70
     1
  9
$MAXACTVP
 70
    64
  9
$PLIMCHECK
 70
     0
  9
$PEXTMIN
 10
1.000000000000000E+20
 20
1.000000000000000E+20
 30
1.000000000000000E+20
  9
$PEXTMAX
 10
-1.000000000000000E+20
 20
-1.000000000000000E+20
 30
-1.000000000000000E+20
  9
$PLIMMIN
 10
0.0
 20
0.0
  9
$PLIMMAX
 10
12.0
 20
9.0
  9
$UNITMODE
 70
     0
  9
$VISRETAIN
 70
     1
  9
$PLINEGEN
 70
     0
  9
$PSLTSCALE
 70
     1
  0
ENDSEC
  0
SECTION
  2
TABLES
  0
TABLE
  2
VPORT
 70
     1
  0
VPORT
  2
*ACTIVE
 70
     0
 10
0.0
 20
0.0
 11
1.0
 21
1.0
 12
10.42990654205607
 22
4.5
 13
0.0
 23
0.0
 14
0.5
 24
0.5
 15
0.5
 25
0.5
 16
0.0
 26
0.0
 36
1.0
 17
0.0
 27
0.0
 37
0.0
 40
9.0
 41
1.972972972850329
 42
50.0
 43
0.0
 44
0.0
 50
0.0
 51
0.0
 71
     0
 72
   100
 73
     1
 74
     3
 75
     0
 76
     0
 77
     0
 78
     0
  0
ENDTAB
  0
TABLE
  2
LTYPE
 70
     1
  0
LTYPE
  2
CONTINUOUS
 70
     0
  3
Solid line
 72
    65
 73
     0
 40
0.0
  0
ENDTAB
  0
TABLE
  2
LAYER
 70
     2
  0
LAYER
  2
0
 70
     0
 62
     7
  6
CONTINUOUS
  0
LAYER
  2
BLACK
 70
     0
 62
     7
  6
CONTINUOUS
  0
ENDTAB
  0
TABLE
  2
STYLE
 70
     1
  0
STYLE
  2
STANDARD
 70
     0
 40
0.0
 41
1.0
 50
0.0
 71
     0
 42
0.2
  3
txt
  4

  0
ENDTAB
  0
TABLE
  2
VIEW
 70
     0
  0
ENDTAB
  0
TABLE
  2
UCS
 70
     0
  0
ENDTAB
  0
TABLE
  2
APPID
 70
     2
  0
APPID
  2
ACAD
 70
     0
  0
APPID
  2
RHINO
 70
     0
  0
ENDTAB
  0
TABLE
  2
DIMSTYLE
 70
     1
  0
DIMSTYLE
  2
STANDARD_ACAD
 70
     0
  3

  4

  5

  6

  7

 40
1.0
 41
0.18
 42
0.0625
 43
0.38
 44
0.18
 45
0.0
 46
0.0
 47
0.0
 48
0.0
140
0.18
141
0.09
142
0.0
143
25.4
144
1.0
145
0.0
146
1.0
147
0.09
 71
     0
 72
     0
 73
     1
 74
     1
 75
     0
 76
     0
 77
     0
 78
     0
170
     0
171
     2
172
     0
173
     0
174
     0
175
     0
176
     0
177
     0
178
     0
  0
ENDTAB
  0
ENDSEC
  0
SECTION
  2
BLOCKS
  0
BLOCK
  8
0
  2
$MODEL_SPACE
 70
     0
 10
0.0
 20
0.0
 30
0.0
  3
$MODEL_SPACE
  1

  0
ENDBLK
  5
21
  8
0
  0
BLOCK
 67
     1
  8
0
  2
$PAPER_SPACE
 70
     0
 10
0.0
 20
0.0
 30
0.0
  3
$PAPER_SPACE
  1

  0
ENDBLK
  5
1D
 67
     1
  8
0
  0
ENDSEC
  0
SECTION
  2
ENTITIES
  0
LINE
  5
60
  8
BLACK
  6
CONTINUOUS
 10
5.094856769339286
 20
-3.110586886457096
 30
0.0
 11
5.137614765176679
 21
-3.110586886457096
 31
0.0
  0
LINE
  5
61
  8
BLACK
  6
CONTINUOUS
 10
5.137614765176679
 20
-3.110586886457096
 30
0.0
 11
5.137614765176679
 21
-3.325024138022364
 31
0.0
  0
LINE
  5
62
  8
BLACK
  6
CONTINUOUS
 10
5.137614765176679
 20
-3.325024138022364
 30
0.0
 11
5.159150002401608
 21
-3.346559375247294
 31
0.0
  0
LINE
  5
63
  8
BLACK
  6
CONTINUOUS
 10
5.159150002401608
 20
-3.346559375247294
 30
0.0
 11
5.833457956545438
 21
-3.346559375247294
 31
0.0
  0
LINE
  5
64
  8
BLACK
  6
CONTINUOUS
 10
5.833457956545438
 20
-3.346559375247294
 30
0.0
 11
5.854993193770367
 21
-3.325024138022364
 31
0.0
  0
LINE
  5
65
  8
BLACK
  6
CONTINUOUS
 10
5.854993193770367
 20
-3.325024138022364
 30
0.0
 11
5.854993193770367
 21
-2.674642039006041
 31
0.0
  0
LINE
  5
66
  8
BLACK
  6
CONTINUOUS
 10
5.854993193770367
 20
-2.674642039006041
 30
0.0
 11
5.833457956545438
 21
-2.65310680178111
 31
0.0
  0
LINE
  5
67
  8
BLACK
  6
CONTINUOUS
 10
5.833457956545438
 20
-2.65310680178111
 30
0.0
 11
5.159150002401608
 21
-2.653106801781111
 31
0.0
  0
LINE
  5
68
  8
BLACK
  6
CONTINUOUS
 10
5.159150002401608
 20
-2.653106801781111
 30
0.0
 11
5.137614765176679
 21
-2.67464203900604
 31
0.0
  0
LINE
  5
69
  8
BLACK
  6
CONTINUOUS
 10
5.137614765176679
 20
-2.67464203900604
 30
0.0
 11
5.137614765176679
 21
-2.907230105322903
 31
0.0
  0
LINE
  5
6A
  8
BLACK
  6
CONTINUOUS
 10
5.137614765176679
 20
-2.907230105322903
 30
0.0
 11
5.096519690978454
 21
-2.907230105322903
 31
0.0
  0
LINE
  5
6B
  8
BLACK
  6
CONTINUOUS
 10
5.096519690978454
 20
-2.907230105322903
 30
0.0
 11
5.09394
 21
-2.87923
 31
0.0
  0
LINE
  5
6C
  8
BLACK
  6
CONTINUOUS
 10
5.09394
 20
-2.87923
 30
0.0
 11
5.08878
 21
-2.83922
 31
0.0
  0
LINE
  5
6D
  8
BLACK
  6
CONTINUOUS
 10
5.08878
 20
-2.83922
 30
0.0
 11
5.08216
 21
-2.79943
 31
0.0
  0
LINE
  5
6E
  8
BLACK
  6
CONTINUOUS
 10
5.08216
 20
-2.79943
 30
0.0
 11
5.07409
 21
-2.75991
 31
0.0
  0
LINE
  5
6F
  8
BLACK
  6
CONTINUOUS
 10
5.07409
 20
-2.75991
 30
0.0
 11
5.06457
 21
-2.72072
 31
0.0
  0
LINE
  5
70
  8
BLACK
  6
CONTINUOUS
 10
5.06457
 20
-2.72072
 30
0.0
 11
5.05362
 21
-2.68189
 31
0.0
  0
LINE
  5
71
  8
BLACK
  6
CONTINUOUS
 10
5.05362
 20
-2.68189
 30
0.0
 11
5.04125
 21
-2.6435
 31
0.0
  0
LINE
  5
72
  8
BLACK
  6
CONTINUOUS
 10
5.04125
 20
-2.6435
 30
0.0
 11
5.02749
 21
-2.60558
 31
0.0
  0
LINE
  5
73
  8
BLACK
  6
CONTINUOUS
 10
5.02749
 20
-2.60558
 30
0.0
 11
5.01235
 21
-2.5682
 31
0.0
  0
LINE
  5
74
  8
BLACK
  6
CONTINUOUS
 10
5.01235
 20
-2.5682
 30
0.0
 11
4.99584
 21
-2.53139
 31
0.0
  0
LINE
  5
75
  8
BLACK
  6
CONTINUOUS
 10
4.99584
 20
-2.53139
 30
0.0
 11
4.978
 21
-2.49521
 31
0.0
  0
LINE
  5
76
  8
BLACK
  6
CONTINUOUS
 10
4.978
 20
-2.49521
 30
0.0
 11
4.95885
 21
-2.45972
 31
0.0
  0
LINE
  5
77
  8
BLACK
  6
CONTINUOUS
 10
4.95885
 20
-2.45972
 30
0.0
 11
4.93841
 21
-2.42494
 31
0.0
  0
LINE
  5
78
  8
BLACK
  6
CONTINUOUS
 10
4.93841
 20
-2.42494
 30
0.0
 11
4.91671
 21
-2.39094
 31
0.0
  0
LINE
  5
79
  8
BLACK
  6
CONTINUOUS
 10
4.91671
 20
-2.39094
 30
0.0
 11
4.89377
 21
-2.35776
 31
0.0
  0
LINE
  5
7A
  8
BLACK
  6
CONTINUOUS
 10
4.89377
 20
-2.35776
 30
0.0
 11
4.86964
 21
-2.32544
 31
0.0
  0
LINE
  5
7B
  8
BLACK
  6
CONTINUOUS
 10
4.86964
 20
-2.32544
 30
0.0
 11
4.84433
 21
-2.29403
 31
0.0
  0
LINE
  5
7C
  8
BLACK
  6
CONTINUOUS
 10
4.84433
 20
-2.29403
 30
0.0
 11
4.8179
 21
-2.26356
 31
0.0
  0
LINE
  5
7D
  8
BLACK
  6
CONTINUOUS
 10
4.8179
 20
-2.26356
 30
0.0
 11
4.79036
 21
-2.23408
 31
0.0
  0
LINE
  5
7E
  8
BLACK
  6
CONTINUOUS
 10
4.79036
 20
-2.23408
 30
0.0
 11
4.76177
 21
-2.20564
 31
0.0
  0
LINE
  5
7F
  8
BLACK
  6
CONTINUOUS
 10
4.76177
 20
-2.20564
 30
0.0
 11
4.73215
 21
-2.17826
 31
0.0
  0
LINE
  5
80
  8
BLACK
  6
CONTINUOUS
 10
4.73215
 20
-2.17826
 30
0.0
 11
4.70154
 21
-2.15198
 31
0.0
  0
LINE
  5
81
  8
BLACK
  6
CONTINUOUS
 10
4.70154
 20
-2.15198
 30
0.0
 11
4.67
 21
-2.12684
 31
0.0
  0
LINE
  5
82
  8
BLACK
  6
CONTINUOUS
 10
4.67
 20
-2.12684
 30
0.0
 11
4.63755
 21
-2.10288
 31
0.0
  0
LINE
  5
83
  8
BLACK
  6
CONTINUOUS
 10
4.63755
 20
-2.10288
 30
0.0
 11
4.60425
 21
-2.08012
 31
0.0
  0
LINE
  5
84
  8
BLACK
  6
CONTINUOUS
 10
4.60425
 20
-2.08012
 30
0.0
 11
4.57014
 21
-2.05859
 31
0.0
  0
LINE
  5
85
  8
BLACK
  6
CONTINUOUS
 10
4.57014
 20
-2.05859
 30
0.0
 11
4.53526
 21
-2.03833
 31
0.0
  0
LINE
  5
86
  8
BLACK
  6
CONTINUOUS
 10
4.53526
 20
-2.03833
 30
0.0
 11
4.49966
 21
-2.01937
 31
0.0
  0
LINE
  5
87
  8
BLACK
  6
CONTINUOUS
 10
4.49966
 20
-2.01937
 30
0.0
 11
4.46339
 21
-2.00172
 31
0.0
  0
LINE
  5
88
  8
BLACK
  6
CONTINUOUS
 10
4.46339
 20
-2.00172
 30
0.0
 11
4.4265
 21
-1.98541
 31
0.0
  0
LINE
  5
89
  8
BLACK
  6
CONTINUOUS
 10
4.4265
 20
-1.98541
 30
0.0
 11
4.38903
 21
-1.97046
 31
0.0
  0
LINE
  5
8A
  8
BLACK
  6
CONTINUOUS
 10
4.38903
 20
-1.97046
 30
0.0
 11
4.35104
 21
-1.95689
 31
0.0
  0
LINE
  5
8B
  8
BLACK
  6
CONTINUOUS
 10
4.35104
 20
-1.95689
 30
0.0
 11
4.31258
 21
-1.94473
 31
0.0
  0
LINE
  5
8C
  8
BLACK
  6
CONTINUOUS
 10
4.31258
 20
-1.94473
 30
0.0
 11
4.27371
 21
-1.93399
 31
0.0
  0
LINE
  5
8D
  8
BLACK
  6
CONTINUOUS
 10
4.27371
 20
-1.93399
 30
0.0
 11
4.23446
 21
-1.92467
 31
0.0
  0
LINE
  5
8E
  8
BLACK
  6
CONTINUOUS
 10
4.23446
 20
-1.92467
 30
0.0
 11
4.1949
 21
-1.9168
 31
0.0
  0
LINE
  5
8F
  8
BLACK
  6
CONTINUOUS
 10
4.1949
 20
-1.9168
 30
0.0
 11
4.15507
 21
-1.91039
 31
0.0
  0
LINE
  5
90
  8
BLACK
  6
CONTINUOUS
 10
4.15507
 20
-1.91039
 30
0.0
 11
4.11504
 21
-1.90544
 31
0.0
  0
LINE
  5
91
  8
BLACK
  6
CONTINUOUS
 10
4.11504
 20
-1.90544
 30
0.0
 11
4.07486
 21
-1.90196
 31
0.0
  0
LINE
  5
92
  8
BLACK
  6
CONTINUOUS
 10
4.07486
 20
-1.90196
 30
0.0
 11
4.03457
 21
-1.89995
 31
0.0
  0
LINE
  5
93
  8
BLACK
  6
CONTINUOUS
 10
4.03457
 20
-1.89995
 30
0.0
 11
3.99424
 21
-1.89942
 31
0.0
  0
LINE
  5
94
  8
BLACK
  6
CONTINUOUS
 10
3.99424
 20
-1.89942
 30
0.0
 11
3.95391
 21
-1.90037
 31
0.0
  0
LINE
  5
95
  8
BLACK
  6
CONTINUOUS
 10
3.95391
 20
-1.90037
 30
0.0
 11
3.91365
 21
-1.9028
 31
0.0
  0
LINE
  5
96
  8
BLACK
  6
CONTINUOUS
 10
3.91365
 20
-1.9028
 30
0.0
 11
3.8735
 21
-1.9067
 31
0.0
  0
LINE
  5
97
  8
BLACK
  6
CONTINUOUS
 10
3.8735
 20
-1.9067
 30
0.0
 11
3.83352
 21
-1.91207
 31
0.0
  0
LINE
  5
98
  8
BLACK
  6
CONTINUOUS
 10
3.83352
 20
-1.91207
 30
0.0
 11
3.79377
 21
-1.9189
 31
0.0
  0
LINE
  5
99
  8
BLACK
  6
CONTINUOUS
 10
3.79377
 20
-1.9189
 30
0.0
 11
3.75429
 21
-1.92719
 31
0.0
  0
LINE
  5
9A
  8
BLACK
  6
CONTINUOUS
 10
3.75429
 20
-1.92719
 30
0.0
 11
3.71515
 21
-1.93691
 31
0.0
  0
LINE
  5
9B
  8
BLACK
  6
CONTINUOUS
 10
3.71515
 20
-1.93691
 30
0.0
 11
3.67638
 21
-1.94806
 31
0.0
  0
LINE
  5
9C
  8
BLACK
  6
CONTINUOUS
 10
3.67638
 20
-1.94806
 30
0.0
 11
3.63805
 21
-1.96063
 31
0.0
  0
LINE
  5
9D
  8
BLACK
  6
CONTINUOUS
 10
3.63805
 20
-1.96063
 30
0.0
 11
3.60021
 21
-1.97459
 31
0.0
  0
LINE
  5
9E
  8
BLACK
  6
CONTINUOUS
 10
3.60021
 20
-1.97459
 30
0.0
 11
3.5629
 21
-1.98993
 31
0.0
  0
LINE
  5
9F
  8
BLACK
  6
CONTINUOUS
 10
3.5629
 20
-1.98993
 30
0.0
 11
3.52618
 21
-2.00662
 31
0.0
  0
LINE
  5
A0
  8
BLACK
  6
CONTINUOUS
 10
3.52618
 20
-2.00662
 30
0.0
 11
3.4901
 21
-2.02465
 31
0.0
  0
LINE
  5
A1
  8
BLACK
  6
CONTINUOUS
 10
3.4901
 20
-2.02465
 30
0.0
 11
3.4547
 21
-2.04399
 31
0.0
  0
LINE
  5
A2
  8
BLACK
  6
CONTINUOUS
 10
3.4547
 20
-2.04399
 30
0.0
 11
3.42004
 21
-2.06462
 31
0.0
  0
LINE
  5
A3
  8
BLACK
  6
CONTINUOUS
 10
3.42004
 20
-2.06462
 30
0.0
 11
3.38615
 21
-2.0865
 31
0.0
  0
LINE
  5
A4
  8
BLACK
  6
CONTINUOUS
 10
3.38615
 20
-2.0865
 30
0.0
 11
3.35309
 21
-2.1096
 31
0.0
  0
LINE
  5
A5
  8
BLACK
  6
CONTINUOUS
 10
3.35309
 20
-2.1096
 30
0.0
 11
3.3209
 21
-2.13391
 31
0.0
  0
LINE
  5
A6
  8
BLACK
  6
CONTINUOUS
 10
3.3209
 20
-2.13391
 30
0.0
 11
3.28962
 21
-2.15937
 31
0.0
  0
LINE
  5
A7
  8
BLACK
  6
CONTINUOUS
 10
3.28962
 20
-2.15937
 30
0.0
 11
3.25929
 21
-2.18597
 31
0.0
  0
LINE
  5
A8
  8
BLACK
  6
CONTINUOUS
 10
3.25929
 20
-2.18597
 30
0.0
 11
3.22996
 21
-2.21366
 31
0.0
  0
LINE
  5
A9
  8
BLACK
  6
CONTINUOUS
 10
3.22996
 20
-2.21366
 30
0.0
 11
3.20166
 21
-2.2424
 31
0.0
  0
LINE
  5
AA
  8
BLACK
  6
CONTINUOUS
 10
3.20166
 20
-2.2424
 30
0.0
 11
3.17443
 21
-2.27217
 31
0.0
  0
LINE
  5
AB
  8
BLACK
  6
CONTINUOUS
 10
3.17443
 20
-2.27217
 30
0.0
 11
3.14832
 21
-2.30291
 31
0.0
  0
LINE
  5
AC
  8
BLACK
  6
CONTINUOUS
 10
3.14832
 20
-2.30291
 30
0.0
 11
3.12335
 21
-2.33458
 31
0.0
  0
LINE
  5
AD
  8
BLACK
  6
CONTINUOUS
 10
3.12335
 20
-2.33458
 30
0.0
 11
3.09955
 21
-2.36715
 31
0.0
  0
LINE
  5
AE
  8
BLACK
  6
CONTINUOUS
 10
3.09955
 20
-2.36715
 30
0.0
 11
3.07697
 21
-2.40058
 31
0.0
  0
LINE
  5
AF
  8
BLACK
  6
CONTINUOUS
 10
3.07697
 20
-2.40058
 30
0.0
 11
3.05562
 21
-2.4348
 31
0.0
  0
LINE
  5
B0
  8
BLACK
  6
CONTINUOUS
 10
3.05562
 20
-2.4348
 30
0.0
 11
3.03554
 21
-2.46979
 31
0.0
  0
LINE
  5
B1
  8
BLACK
  6
CONTINUOUS
 10
3.03554
 20
-2.46979
 30
0.0
 11
3.01676
 21
-2.50548
 31
0.0
  0
LINE
  5
B2
  8
BLACK
  6
CONTINUOUS
 10
3.01676
 20
-2.50548
 30
0.0
 11
2.9993
 21
-2.54185
 31
0.0
  0
LINE
  5
B3
  8
BLACK
  6
CONTINUOUS
 10
2.9993
 20
-2.54185
 30
0.0
 11
2.98319
 21
-2.57882
 31
0.0
  0
LINE
  5
B4
  8
BLACK
  6
CONTINUOUS
 10
2.98319
 20
-2.57882
 30
0.0
 11
2.96844
 21
-2.61636
 31
0.0
  0
LINE
  5
B5
  8
BLACK
  6
CONTINUOUS
 10
2.96844
 20
-2.61636
 30
0.0
 11
2.95507
 21
-2.65442
 31
0.0
  0
LINE
  5
B6
  8
BLACK
  6
CONTINUOUS
 10
2.95507
 20
-2.65442
 30
0.0
 11
2.94311
 21
-2.69294
 31
0.0
  0
LINE
  5
B7
  8
BLACK
  6
CONTINUOUS
 10
2.94311
 20
-2.69294
 30
0.0
 11
2.93257
 21
-2.73188
 31
0.0
  0
LINE
  5
B8
  8
BLACK
  6
CONTINUOUS
 10
2.93257
 20
-2.73188
 30
0.0
 11
2.92346
 21
-2.77117
 31
0.0
  0
LINE
  5
B9
  8
BLACK
  6
CONTINUOUS
 10
2.92346
 20
-2.77117
 30
0.0
 11
2.9158
 21
-2.81078
 31
0.0
  0
LINE
  5
BA
  8
BLACK
  6
CONTINUOUS
 10
2.9158
 20
-2.81078
 30
0.0
 11
2.90959
 21
-2.85063
 31
0.0
  0
LINE
  5
BB
  8
BLACK
  6
CONTINUOUS
 10
2.90959
 20
-2.85063
 30
0.0
 11
2.90485
 21
-2.89069
 31
0.0
  0
LINE
  5
BC
  8
BLACK
  6
CONTINUOUS
 10
2.90485
 20
-2.89069
 30
0.0
 11
2.90158
 21
-2.93089
 31
0.0
  0
LINE
  5
BD
  8
BLACK
  6
CONTINUOUS
 10
2.90158
 20
-2.93089
 30
0.0
 11
2.89979
 21
-2.97119
 31
0.0
  0
LINE
  5
BE
  8
BLACK
  6
CONTINUOUS
 10
2.89979
 20
-2.97119
 30
0.0
 11
2.89947
 21
-3.01153
 31
0.0
  0
LINE
  5
BF
  8
BLACK
  6
CONTINUOUS
 10
2.89947
 20
-3.01153
 30
0.0
 11
2.90063
 21
-3.05184
 31
0.0
  0
LINE
  5
C0
  8
BLACK
  6
CONTINUOUS
 10
2.90063
 20
-3.05184
 30
0.0
 11
2.90327
 21
-3.0921
 31
0.0
  0
LINE
  5
C1
  8
BLACK
  6
CONTINUOUS
 10
2.90327
 20
-3.0921
 30
0.0
 11
2.90738
 21
-3.13222
 31
0.0
  0
LINE
  5
C2
  8
BLACK
  6
CONTINUOUS
 10
2.90738
 20
-3.13222
 30
0.0
 11
2.91296
 21
-3.17217
 31
0.0
  0
LINE
  5
C3
  8
BLACK
  6
CONTINUOUS
 10
2.91296
 20
-3.17217
 30
0.0
 11
2.92
 21
-3.21189
 31
0.0
  0
LINE
  5
C4
  8
BLACK
  6
CONTINUOUS
 10
2.92
 20
-3.21189
 30
0.0
 11
2.92849
 21
-3.25132
 31
0.0
  0
LINE
  5
C5
  8
BLACK
  6
CONTINUOUS
 10
2.92849
 20
-3.25132
 30
0.0
 11
2.93842
 21
-3.29042
 31
0.0
  0
LINE
  5
C6
  8
BLACK
  6
CONTINUOUS
 10
2.93842
 20
-3.29042
 30
0.0
 11
2.94977
 21
-3.32912
 31
0.0
  0
LINE
  5
C7
  8
BLACK
  6
CONTINUOUS
 10
2.94977
 20
-3.32912
 30
0.0
 11
2.96254
 21
-3.36738
 31
0.0
  0
LINE
  5
C8
  8
BLACK
  6
CONTINUOUS
 10
2.96254
 20
-3.36738
 30
0.0
 11
2.9767
 21
-3.40515
 31
0.0
  0
LINE
  5
C9
  8
BLACK
  6
CONTINUOUS
 10
2.9767
 20
-3.40515
 30
0.0
 11
2.99223
 21
-3.44238
 31
0.0
  0
LINE
  5
CA
  8
BLACK
  6
CONTINUOUS
 10
2.99223
 20
-3.44238
 30
0.0
 11
3.00912
 21
-3.47901
 31
0.0
  0
LINE
  5
CB
  8
BLACK
  6
CONTINUOUS
 10
3.00912
 20
-3.47901
 30
0.0
 11
3.02734
 21
-3.515
 31
0.0
  0
LINE
  5
CC
  8
BLACK
  6
CONTINUOUS
 10
3.02734
 20
-3.515
 30
0.0
 11
3.04686
 21
-3.5503
 31
0.0
  0
LINE
  5
CD
  8
BLACK
  6
CONTINUOUS
 10
3.04686
 20
-3.5503
 30
0.0
 11
3.06767
 21
-3.58485
 31
0.0
  0
LINE
  5
CE
  8
BLACK
  6
CONTINUOUS
 10
3.06767
 20
-3.58485
 30
0.0
 11
3.08972
 21
-3.61862
 31
0.0
  0
LINE
  5
CF
  8
BLACK
  6
CONTINUOUS
 10
3.08972
 20
-3.61862
 30
0.0
 11
3.113
 21
-3.65156
 31
0.0
  0
LINE
  5
D0
  8
BLACK
  6
CONTINUOUS
 10
3.113
 20
-3.65156
 30
0.0
 11
3.13747
 21
-3.68363
 31
0.0
  0
LINE
  5
D1
  8
BLACK
  6
CONTINUOUS
 10
3.13747
 20
-3.68363
 30
0.0
 11
3.1631
 21
-3.71478
 31
0.0
  0
LINE
  5
D2
  8
BLACK
  6
CONTINUOUS
 10
3.1631
 20
-3.71478
 30
0.0
 11
3.18986
 21
-3.74496
 31
0.0
  0
LINE
  5
D3
  8
BLACK
  6
CONTINUOUS
 10
3.18986
 20
-3.74496
 30
0.0
 11
3.2177
 21
-3.77415
 31
0.0
  0
LINE
  5
D4
  8
BLACK
  6
CONTINUOUS
 10
3.2177
 20
-3.77415
 30
0.0
 11
3.24659
 21
-3.8023
 31
0.0
  0
LINE
  5
D5
  8
BLACK
  6
CONTINUOUS
 10
3.24659
 20
-3.8023
 30
0.0
 11
3.2765
 21
-3.82936
 31
0.0
  0
LINE
  5
D6
  8
BLACK
  6
CONTINUOUS
 10
3.2765
 20
-3.82936
 30
0.0
 11
3.30738
 21
-3.85532
 31
0.0
  0
LINE
  5
D7
  8
BLACK
  6
CONTINUOUS
 10
3.30738
 20
-3.85532
 30
0.0
 11
3.33918
 21
-3.88013
 31
0.0
  0
LINE
  5
D8
  8
BLACK
  6
CONTINUOUS
 10
3.33918
 20
-3.88013
 30
0.0
 11
3.37188
 21
-3.90375
 31
0.0
  0
LINE
  5
D9
  8
BLACK
  6
CONTINUOUS
 10
3.37188
 20
-3.90375
 30
0.0
 11
3.40542
 21
-3.92616
 31
0.0
  0
LINE
  5
DA
  8
BLACK
  6
CONTINUOUS
 10
3.40542
 20
-3.92616
 30
0.0
 11
3.43975
 21
-3.94732
 31
0.0
  0
LINE
  5
DB
  8
BLACK
  6
CONTINUOUS
 10
3.43975
 20
-3.94732
 30
0.0
 11
3.47484
 21
-3.96722
 31
0.0
  0
LINE
  5
DC
  8
BLACK
  6
CONTINUOUS
 10
3.47484
 20
-3.96722
 30
0.0
 11
3.51064
 21
-3.98581
 31
0.0
  0
LINE
  5
DD
  8
BLACK
  6
CONTINUOUS
 10
3.51064
 20
-3.98581
 30
0.0
 11
3.54709
 21
-4.00308
 31
0.0
  0
LINE
  5
DE
  8
BLACK
  6
CONTINUOUS
 10
3.54709
 20
-4.00308
 30
0.0
 11
3.58415
 21
-4.019
 31
0.0
  0
LINE
  5
DF
  8
BLACK
  6
CONTINUOUS
 10
3.58415
 20
-4.019
 30
0.0
 11
3.62177
 21
-4.03356
 31
0.0
  0
LINE
  5
E0
  8
BLACK
  6
CONTINUOUS
 10
3.62177
 20
-4.03356
 30
0.0
 11
3.6599
 21
-4.04672
 31
0.0
  0
LINE
  5
E1
  8
BLACK
  6
CONTINUOUS
 10
3.6599
 20
-4.04672
 30
0.0
 11
3.69848
 21
-4.05848
 31
0.0
  0
LINE
  5
E2
  8
BLACK
  6
CONTINUOUS
 10
3.69848
 20
-4.05848
 30
0.0
 11
3.73747
 21
-4.06882
 31
0.0
  0
LINE
  5
E3
  8
BLACK
  6
CONTINUOUS
 10
3.73747
 20
-4.06882
 30
0.0
 11
3.77681
 21
-4.07772
 31
0.0
  0
LINE
  5
E4
  8
BLACK
  6
CONTINUOUS
 10
3.77681
 20
-4.07772
 30
0.0
 11
3.81646
 21
-4.08518
 31
0.0
  0
LINE
  5
E5
  8
BLACK
  6
CONTINUOUS
 10
3.81646
 20
-4.08518
 30
0.0
 11
3.85634
 21
-4.09118
 31
0.0
  0
LINE
  5
E6
  8
BLACK
  6
CONTINUOUS
 10
3.85634
 20
-4.09118
 30
0.0
 11
3.89643
 21
-4.09571
 31
0.0
  0
LINE
  5
E7
  8
BLACK
  6
CONTINUOUS
 10
3.89643
 20
-4.09571
 30
0.0
 11
3.93665
 21
-4.09877
 31
0.0
  0
LINE
  5
E8
  8
BLACK
  6
CONTINUOUS
 10
3.93665
 20
-4.09877
 30
0.0
 11
3.97695
 21
-4.10035
 31
0.0
  0
LINE
  5
E9
  8
BLACK
  6
CONTINUOUS
 10
3.97695
 20
-4.10035
 30
0.0
 11
4.01729
 21
-4.10046
 31
0.0
  0
LINE
  5
EA
  8
BLACK
  6
CONTINUOUS
 10
4.01729
 20
-4.10046
 30
0.0
 11
4.0576
 21
-4.09908
 31
0.0
  0
LINE
  5
EB
  8
BLACK
  6
CONTINUOUS
 10
4.0576
 20
-4.09908
 30
0.0
 11
4.09784
 21
-4.09623
 31
0.0
  0
LINE
  5
EC
  8
BLACK
  6
CONTINUOUS
 10
4.09784
 20
-4.09623
 30
0.0
 11
4.13794
 21
-4.09191
 31
0.0
  0
LINE
  5
ED
  8
BLACK
  6
CONTINUOUS
 10
4.13794
 20
-4.09191
 30
0.0
 11
4.17786
 21
-4.08612
 31
0.0
  0
LINE
  5
EE
  8
BLACK
  6
CONTINUOUS
 10
4.17786
 20
-4.08612
 30
0.0
 11
4.21754
 21
-4.07888
 31
0.0
  0
LINE
  5
EF
  8
BLACK
  6
CONTINUOUS
 10
4.21754
 20
-4.07888
 30
0.0
 11
4.25693
 21
-4.07018
 31
0.0
  0
LINE
  5
F0
  8
BLACK
  6
CONTINUOUS
 10
4.25693
 20
-4.07018
 30
0.0
 11
4.29597
 21
-4.06005
 31
0.0
  0
LINE
  5
F1
  8
BLACK
  6
CONTINUOUS
 10
4.29597
 20
-4.06005
 30
0.0
 11
4.33462
 21
-4.04849
 31
0.0
  0
LINE
  5
F2
  8
BLACK
  6
CONTINUOUS
 10
4.33462
 20
-4.04849
 30
0.0
 11
4.37281
 21
-4.03552
 31
0.0
  0
LINE
  5
F3
  8
BLACK
  6
CONTINUOUS
 10
4.37281
 20
-4.03552
 30
0.0
 11
4.41051
 21
-4.02117
 31
0.0
  0
LINE
  5
F4
  8
BLACK
  6
CONTINUOUS
 10
4.41051
 20
-4.02117
 30
0.0
 11
4.44765
 21
-4.00544
 31
0.0
  0
LINE
  5
F5
  8
BLACK
  6
CONTINUOUS
 10
4.44765
 20
-4.00544
 30
0.0
 11
4.48419
 21
-3.98836
 31
0.0
  0
LINE
  5
F6
  8
BLACK
  6
CONTINUOUS
 10
4.48419
 20
-3.98836
 30
0.0
 11
4.52008
 21
-3.96995
 31
0.0
  0
LINE
  5
F7
  8
BLACK
  6
CONTINUOUS
 10
4.52008
 20
-3.96995
 30
0.0
 11
4.55528
 21
-3.95025
 31
0.0
  0
LINE
  5
F8
  8
BLACK
  6
CONTINUOUS
 10
4.55528
 20
-3.95025
 30
0.0
 11
4.58973
 21
-3.92926
 31
0.0
  0
LINE
  5
F9
  8
BLACK
  6
CONTINUOUS
 10
4.58973
 20
-3.92926
 30
0.0
 11
4.62338
 21
-3.90703
 31
0.0
  0
LINE
  5
FA
  8
BLACK
  6
CONTINUOUS
 10
4.62338
 20
-3.90703
 30
0.0
 11
4.6562
 21
-3.88357
 31
0.0
  0
LINE
  5
FB
  8
BLACK
  6
CONTINUOUS
 10
4.6562
 20
-3.88357
 30
0.0
 11
4.68814
 21
-3.85893
 31
0.0
  0
LINE
  5
FC
  8
BLACK
  6
CONTINUOUS
 10
4.68814
 20
-3.85893
 30
0.0
 11
4.71915
 21
-3.83314
 31
0.0
  0
LINE
  5
FD
  8
BLACK
  6
CONTINUOUS
 10
4.71915
 20
-3.83314
 30
0.0
 11
4.7492
 21
-3.80623
 31
0.0
  0
LINE
  5
FE
  8
BLACK
  6
CONTINUOUS
 10
4.7492
 20
-3.80623
 30
0.0
 11
4.77824
 21
-3.77824
 31
0.0
  0
LINE
  5
FF
  8
BLACK
  6
CONTINUOUS
 10
4.77824
 20
-3.77824
 30
0.0
 11
4.80623
 21
-3.7492
 31
0.0
  0
LINE
  5
100
  8
BLACK
  6
CONTINUOUS
 10
4.80623
 20
-3.7492
 30
0.0
 11
4.83314
 21
-3.71915
 31
0.0
  0
LINE
  5
101
  8
BLACK
  6
CONTINUOUS
 10
4.83314
 20
-3.71915
 30
0.0
 11
4.85893
 21
-3.68814
 31
0.0
  0
LINE
  5
102
  8
BLACK
  6
CONTINUOUS
 10
4.85893
 20
-3.68814
 30
0.0
 11
4.88357
 21
-3.6562
 31
0.0
  0
LINE
  5
103
  8
BLACK
  6
CONTINUOUS
 10
4.88357
 20
-3.6562
 30
0.0
 11
4.90703
 21
-3.62338
 31
0.0
  0
LINE
  5
104
  8
BLACK
  6
CONTINUOUS
 10
4.90703
 20
-3.62338
 30
0.0
 11
4.92926
 21
-3.58973
 31
0.0
  0
LINE
  5
105
  8
BLACK
  6
CONTINUOUS
 10
4.92926
 20
-3.58973
 30
0.0
 11
4.95025
 21
-3.55528
 31
0.0
  0
LINE
  5
106
  8
BLACK
  6
CONTINUOUS
 10
4.95025
 20
-3.55528
 30
0.0
 11
4.96995
 21
-3.52008
 31
0.0
  0
LINE
  5
107
  8
BLACK
  6
CONTINUOUS
 10
4.96995
 20
-3.52008
 30
0.0
 11
4.98836
 21
-3.48419
 31
0.0
  0
LINE
  5
108
  8
BLACK
  6
CONTINUOUS
 10
4.98836
 20
-3.48419
 30
0.0
 11
5.00544
 21
-3.44765
 31
0.0
  0
LINE
  5
109
  8
BLACK
  6
CONTINUOUS
 10
5.00544
 20
-3.44765
 30
0.0
 11
5.02117
 21
-3.41051
 31
0.0
  0
LINE
  5
10A
  8
BLACK
  6
CONTINUOUS
 10
5.02117
 20
-3.41051
 30
0.0
 11
5.03552
 21
-3.37281
 31
0.0
  0
LINE
  5
10B
  8
BLACK
  6
CONTINUOUS
 10
5.03552
 20
-3.37281
 30
0.0
 11
5.04849
 21
-3.33462
 31
0.0
  0
LINE
  5
10C
  8
BLACK
  6
CONTINUOUS
 10
5.04849
 20
-3.33462
 30
0.0
 11
5.06005
 21
-3.29597
 31
0.0
  0
LINE
  5
10D
  8
BLACK
  6
CONTINUOUS
 10
5.06005
 20
-3.29597
 30
0.0
 11
5.07018
 21
-3.25693
 31
0.0
  0
LINE
  5
10E
  8
BLACK
  6
CONTINUOUS
 10
5.07018
 20
-3.25693
 30
0.0
 11
5.07888
 21
-3.21754
 31
0.0
  0
LINE
  5
10F
  8
BLACK
  6
CONTINUOUS
 10
5.07888
 20
-3.21754
 30
0.0
 11
5.08612
 21
-3.17786
 31
0.0
  0
LINE
  5
110
  8
BLACK
  6
CONTINUOUS
 10
5.08612
 20
-3.17786
 30
0.0
 11
5.09191
 21
-3.13794
 31
0.0
  0
LINE
  5
111
  8
BLACK
  6
CONTINUOUS
 10
5.09191
 20
-3.13794
 30
0.0
 11
5.094856769339286
 21
-3.110586886457096
 31
0.0
  0
ENDSEC
  0
EOF
