%TF.GenerationSoftware,KiCad,Pcbnew,(6.0.7-1)-1*%
%TF.CreationDate,2023-01-06T18:56:56-05:00*%
%TF.ProjectId,atmega328,61746d65-6761-4333-9238-2e6b69636164,rev?*%
%TF.SameCoordinates,Original*%
%TF.FileFunction,Legend,Top*%
%TF.FilePolarity,Positive*%
%FSLAX46Y46*%
G04 Gerber Fmt 4.6, Leading zero omitted, Abs format (unit mm)*
G04 Created by KiCad (PCBNEW (6.0.7-1)-1) date 2023-01-06 18:56:56*
%MOMM*%
%LPD*%
G01*
G04 APERTURE LIST*
%ADD10C,0.150000*%
%ADD11C,0.120000*%
%ADD12C,0.125000*%
G04 APERTURE END LIST*
D10*
X157123809Y-109002380D02*
X157123809Y-108002380D01*
X157552380Y-108954761D02*
X157695238Y-109002380D01*
X157933333Y-109002380D01*
X158028571Y-108954761D01*
X158076190Y-108907142D01*
X158123809Y-108811904D01*
X158123809Y-108716666D01*
X158076190Y-108621428D01*
X158028571Y-108573809D01*
X157933333Y-108526190D01*
X157742857Y-108478571D01*
X157647619Y-108430952D01*
X157600000Y-108383333D01*
X157552380Y-108288095D01*
X157552380Y-108192857D01*
X157600000Y-108097619D01*
X157647619Y-108050000D01*
X157742857Y-108002380D01*
X157980952Y-108002380D01*
X158123809Y-108050000D01*
X158552380Y-109002380D02*
X158552380Y-108002380D01*
X158933333Y-108002380D01*
X159028571Y-108050000D01*
X159076190Y-108097619D01*
X159123809Y-108192857D01*
X159123809Y-108335714D01*
X159076190Y-108430952D01*
X159028571Y-108478571D01*
X158933333Y-108526190D01*
X158552380Y-108526190D01*
D11*
X150350000Y-90800000D02*
X150850000Y-90100000D01*
X150950000Y-90800000D02*
X150350000Y-90800000D01*
X149750000Y-90800000D02*
X150950000Y-90800000D01*
X149850000Y-90100000D02*
X150850000Y-90100000D01*
X149850000Y-90100000D02*
X150350000Y-90800000D01*
X150350000Y-90100000D02*
X150350000Y-89600000D01*
X150350000Y-89600000D02*
X150350000Y-90100000D01*
X150350000Y-91500000D02*
X150350000Y-90800000D01*
D12*
X154226190Y-111286904D02*
X154226190Y-111525000D01*
X154464285Y-111548809D01*
X154440476Y-111525000D01*
X154416666Y-111477380D01*
X154416666Y-111358333D01*
X154440476Y-111310714D01*
X154464285Y-111286904D01*
X154511904Y-111263095D01*
X154630952Y-111263095D01*
X154678571Y-111286904D01*
X154702380Y-111310714D01*
X154726190Y-111358333D01*
X154726190Y-111477380D01*
X154702380Y-111525000D01*
X154678571Y-111548809D01*
X154226190Y-111120238D02*
X154726190Y-110953571D01*
X154226190Y-110786904D01*
X154535714Y-110620238D02*
X154535714Y-110239285D01*
X154726190Y-110001190D02*
X154226190Y-110001190D01*
X154702380Y-109786904D02*
X154726190Y-109715476D01*
X154726190Y-109596428D01*
X154702380Y-109548809D01*
X154678571Y-109525000D01*
X154630952Y-109501190D01*
X154583333Y-109501190D01*
X154535714Y-109525000D01*
X154511904Y-109548809D01*
X154488095Y-109596428D01*
X154464285Y-109691666D01*
X154440476Y-109739285D01*
X154416666Y-109763095D01*
X154369047Y-109786904D01*
X154321428Y-109786904D01*
X154273809Y-109763095D01*
X154250000Y-109739285D01*
X154226190Y-109691666D01*
X154226190Y-109572619D01*
X154250000Y-109501190D01*
X154726190Y-109286904D02*
X154226190Y-109286904D01*
X154226190Y-109096428D01*
X154250000Y-109048809D01*
X154273809Y-109025000D01*
X154321428Y-109001190D01*
X154392857Y-109001190D01*
X154440476Y-109025000D01*
X154464285Y-109048809D01*
X154488095Y-109096428D01*
X154488095Y-109286904D01*
D10*
X164217860Y-96380950D02*
X164551190Y-95380950D01*
X165884530Y-95714280D02*
X166075000Y-95714280D01*
X142384290Y-95404760D02*
X142431900Y-95357140D01*
X145928570Y-84261900D02*
X145976190Y-84357140D01*
X165694050Y-95904760D02*
X165741670Y-95809520D01*
X138885710Y-107347620D02*
X138933330Y-107442860D01*
X139361900Y-113552380D02*
X139361900Y-112552380D01*
X145988100Y-112852380D02*
X146130960Y-112804760D01*
X143345240Y-112280950D02*
X143440480Y-112233330D01*
X148380950Y-84738090D02*
X148333330Y-84642860D01*
X165332150Y-111000000D02*
X165332150Y-111600000D01*
X138885710Y-110275950D02*
X138838100Y-110323570D01*
X164932150Y-111000000D02*
X165132150Y-111428570D01*
X165217860Y-96380950D02*
X165027380Y-96380950D01*
X166189290Y-111057140D02*
X166217860Y-111028570D01*
X139885710Y-113314290D02*
X139838100Y-113409520D01*
X143440480Y-112233330D02*
X143678570Y-112233330D01*
X148333330Y-84404760D02*
X148380950Y-84309520D01*
X139361900Y-107252380D02*
X139600000Y-107252380D01*
X145607150Y-112090480D02*
X145559530Y-112280950D01*
X139361900Y-112552380D02*
X139600000Y-112552380D01*
X139885710Y-110609290D02*
X139838100Y-110704520D01*
X164551190Y-108833330D02*
X164598810Y-108785710D01*
X164170240Y-107928570D02*
X164075000Y-108023810D01*
D11*
X128600000Y-108550000D02*
X128600000Y-107850000D01*
D10*
X165265480Y-98380950D02*
X164789290Y-98380950D01*
X166075000Y-108880950D02*
X166075000Y-107880950D01*
X166551190Y-108738090D02*
X166455960Y-108833330D01*
X138885710Y-107680950D02*
X138838100Y-107728570D01*
X167217860Y-97904760D02*
X166836910Y-97904760D01*
X138885710Y-109942620D02*
X138933330Y-110037860D01*
X143821430Y-111852380D02*
X143345240Y-111852380D01*
X139933330Y-110418810D02*
X139885710Y-110609290D01*
X166075000Y-95714280D02*
X166170240Y-95761900D01*
X140452380Y-84309520D02*
X140452380Y-84452380D01*
X146178570Y-112423810D02*
X145988100Y-112423810D01*
X148952380Y-83642860D02*
X148285710Y-83404760D01*
X164455960Y-107880950D02*
X164313100Y-107880950D01*
X143003330Y-94690480D02*
X142908100Y-94738100D01*
X142289050Y-95452380D02*
X142384290Y-95404760D01*
X139361900Y-108252380D02*
X139361900Y-107252380D01*
X139933330Y-113123810D02*
X139885710Y-113314290D01*
X164932150Y-95761900D02*
X165027380Y-95714280D01*
X165789290Y-95761900D02*
X165884530Y-95714280D01*
X164389290Y-111600000D02*
X164389290Y-111000000D01*
X138361900Y-109847380D02*
X138742860Y-109847380D01*
X147178570Y-112852380D02*
X147178570Y-111852380D01*
X164075000Y-108023810D02*
X164027380Y-108119050D01*
X146130960Y-112804760D02*
X146178570Y-112757140D01*
X165598810Y-108880950D02*
X165598810Y-107880950D01*
X148904760Y-84738090D02*
X148857140Y-84785710D01*
X148428570Y-84261900D02*
X148523810Y-84214290D01*
X166836910Y-98380950D02*
X166836910Y-97380950D01*
X139933330Y-107680950D02*
X139933330Y-107823810D01*
X140314290Y-110275950D02*
X140314290Y-110656900D01*
D11*
X138780000Y-90800000D02*
G75*
G03*
X138780000Y-90800000I-380000J0D01*
G01*
D10*
X165932150Y-111257140D02*
X165903570Y-111285710D01*
X164598810Y-101190470D02*
X164598810Y-100380950D01*
X147892860Y-111852380D02*
X148035720Y-111900000D01*
X148226190Y-112423810D02*
X148178570Y-112614290D01*
X145785710Y-84166670D02*
X145880950Y-84214290D01*
X165741670Y-95809520D02*
X165789290Y-95761900D01*
X142431900Y-95357140D02*
X142479520Y-95261900D01*
X140885710Y-110656900D02*
X140885710Y-110418810D01*
X143297620Y-112328570D02*
X143345240Y-112280950D01*
X148035720Y-111900000D02*
X148130960Y-111995240D01*
X145500000Y-84261900D02*
X145547620Y-84214290D01*
X143773810Y-112280950D02*
X143821430Y-112328570D01*
X144154760Y-111852380D02*
X144488100Y-112852380D01*
D11*
X128600000Y-106650000D02*
X128600000Y-107150000D01*
D10*
X145750000Y-111900000D02*
X145654760Y-111995240D01*
X146607150Y-112852380D02*
X146607150Y-111852380D01*
X148178570Y-112090480D02*
X148226190Y-112280950D01*
X165960720Y-111114280D02*
X165960720Y-111200000D01*
X140838100Y-110752140D02*
X140885710Y-110656900D01*
X164836910Y-95904760D02*
X164884530Y-95809520D01*
X148380950Y-84309520D02*
X148428570Y-84261900D01*
X164836910Y-96190470D02*
X164836910Y-95904760D01*
X140457140Y-109942620D02*
X140361900Y-110085480D01*
X143821430Y-112757140D02*
X143773810Y-112804760D01*
X164884530Y-96285710D02*
X164836910Y-96190470D01*
X166455960Y-108833330D02*
X166313100Y-108880950D01*
X139933330Y-107823810D02*
X139885710Y-108014290D01*
D11*
X128600000Y-107150000D02*
X128600000Y-106650000D01*
D10*
X140500000Y-84214290D02*
X140452380Y-84309520D01*
X165694050Y-97380950D02*
X166027380Y-98095240D01*
X146452380Y-84166670D02*
X145976190Y-84500000D01*
X148904760Y-84309520D02*
X148952380Y-84404760D01*
X148226190Y-112280950D02*
X148226190Y-112423810D01*
X140361900Y-107252380D02*
X140314290Y-107728570D01*
X165694050Y-96190470D02*
X165694050Y-95904760D01*
X140838100Y-107252380D02*
X140361900Y-107252380D01*
X140266670Y-112552380D02*
X140933330Y-112552380D01*
X165027380Y-96380950D02*
X164932150Y-96333330D01*
X139361900Y-110847380D02*
X139361900Y-109847380D01*
X143345240Y-112804760D02*
X143297620Y-112757140D01*
X164027380Y-108642860D02*
X164075000Y-108738090D01*
X140695240Y-107633330D02*
X140790480Y-107680950D01*
X141452380Y-84357140D02*
X141404760Y-84214290D01*
X139600000Y-107252380D02*
X139742860Y-107300000D01*
X143479520Y-95452380D02*
X142908100Y-95452380D01*
X145559530Y-112423810D02*
X145607150Y-112614290D01*
X165884530Y-96380950D02*
X165789290Y-96333330D01*
X140361900Y-110085480D02*
X140314290Y-110275950D01*
X165617860Y-111600000D02*
X165617860Y-111000000D01*
X164789290Y-97857140D02*
X165122620Y-97857140D01*
X163846430Y-111000000D02*
X164189290Y-111000000D01*
X166646430Y-108309520D02*
X166646430Y-108452380D01*
X164675000Y-111600000D02*
X164389290Y-111600000D01*
X138742860Y-112552380D02*
X138838100Y-112600000D01*
X166836910Y-97380950D02*
X167217860Y-97380950D01*
X164551190Y-106380950D02*
X164789290Y-105380950D01*
X166075000Y-107880950D02*
X166313100Y-107880950D01*
X167313100Y-97428570D02*
X167360720Y-97476190D01*
X146035720Y-111852380D02*
X145892860Y-111852380D01*
X166075000Y-96380950D02*
X165884530Y-96380950D01*
X148523810Y-84214290D02*
X148761900Y-84214290D01*
X142952380Y-84880950D02*
X142952380Y-84309520D01*
X164389290Y-111285710D02*
X164589290Y-111285710D01*
X143952380Y-84595240D02*
X142952380Y-84595240D01*
X140409520Y-110275950D02*
X140361900Y-110323570D01*
X139600000Y-109847380D02*
X139742860Y-109895000D01*
X144488100Y-112852380D02*
X144821430Y-111852380D01*
X165027380Y-95714280D02*
X165217860Y-95714280D01*
X138742860Y-110371190D02*
X138361900Y-110371190D01*
X138838100Y-113028570D02*
X138742860Y-113076190D01*
X148035720Y-112804760D02*
X147892860Y-112852380D01*
X166503570Y-111257140D02*
X166160720Y-111600000D01*
X145452380Y-84738100D02*
X145452380Y-84357140D01*
X167408340Y-97714280D02*
X167360720Y-97809520D01*
X140314290Y-107728570D02*
X140361900Y-107680950D01*
X166313100Y-108880950D02*
X166075000Y-108880950D01*
X139885710Y-108014290D02*
X139838100Y-108109520D01*
X140885710Y-108061900D02*
X140838100Y-108157140D01*
X164551190Y-107928570D02*
X164455960Y-107880950D01*
X145642860Y-84166670D02*
X145785710Y-84166670D01*
X139600000Y-113552380D02*
X139361900Y-113552380D01*
X166417860Y-111000000D02*
X166475000Y-111028570D01*
X167360720Y-97809520D02*
X167313100Y-97857140D01*
X166455960Y-107928570D02*
X166551190Y-108023810D01*
X148130960Y-111995240D02*
X148178570Y-112090480D01*
X166503570Y-111057140D02*
X166532150Y-111114280D01*
X142952380Y-84071430D02*
X143952380Y-83404760D01*
X139600000Y-112552380D02*
X139742860Y-112600000D01*
X146178570Y-112757140D02*
X146178570Y-112423810D01*
X138838100Y-110323570D02*
X138742860Y-110371190D01*
X165932150Y-111057140D02*
X165960720Y-111114280D01*
X143440480Y-112852380D02*
X143345240Y-112804760D01*
X165903570Y-111285710D02*
X165846430Y-111314280D01*
X140595240Y-84690480D02*
X140690480Y-84738090D01*
X166646430Y-108452380D02*
X166598810Y-108642860D01*
X139742860Y-110799760D02*
X139600000Y-110847380D01*
X140361900Y-110752140D02*
X140409520Y-110799760D01*
X138742860Y-107252380D02*
X138838100Y-107300000D01*
X145892860Y-111852380D02*
X145750000Y-111900000D01*
X164932150Y-111600000D02*
X164932150Y-111000000D01*
X164017860Y-111600000D02*
X164017860Y-111000000D01*
X146452380Y-84738100D02*
X145452380Y-84738100D01*
X145750000Y-112804760D02*
X145892860Y-112852380D01*
X138361900Y-112552380D02*
X138742860Y-112552380D01*
X145559530Y-112280950D02*
X145559530Y-112423810D01*
X147892860Y-112852380D02*
X147654760Y-112852380D01*
X164313100Y-108880950D02*
X164408340Y-108880950D01*
X145452380Y-83833330D02*
X146452380Y-83166670D01*
X139742860Y-107300000D02*
X139838100Y-107395240D01*
X139742860Y-113504760D02*
X139600000Y-113552380D01*
X140790480Y-110799760D02*
X140838100Y-110752140D01*
X141357140Y-84166670D02*
X141023810Y-84166670D01*
X139838100Y-113409520D02*
X139742860Y-113504760D01*
X164503570Y-101333330D02*
X164551190Y-101285710D01*
X138933330Y-110180710D02*
X138885710Y-110275950D01*
X145654760Y-112709520D02*
X145750000Y-112804760D01*
X165217860Y-95714280D02*
X165313100Y-95761900D01*
X141404760Y-84595240D02*
X141452380Y-84452380D01*
X145892860Y-112852380D02*
X145988100Y-112852380D01*
X141309520Y-84690480D02*
X141404760Y-84595240D01*
X143678570Y-112852380D02*
X143440480Y-112852380D01*
X140600000Y-109847380D02*
X140504760Y-109895000D01*
X163884530Y-95380950D02*
X164217860Y-96380950D01*
X148761900Y-84214290D02*
X148857140Y-84261900D01*
X164170240Y-108833330D02*
X164313100Y-108880950D01*
X165789290Y-96333330D02*
X165741670Y-96285710D01*
X141908100Y-95261900D02*
X141955710Y-95357140D01*
X164598810Y-108452380D02*
X164408340Y-108452380D01*
X138361900Y-107252380D02*
X138742860Y-107252380D01*
X140880950Y-84785710D02*
X141023810Y-84785710D01*
X139838100Y-107395240D02*
X139885710Y-107490480D01*
X166598810Y-108642860D02*
X166551190Y-108738090D01*
X164075000Y-101285710D02*
X164122620Y-101333330D01*
X165846430Y-111314280D02*
X165617860Y-111314280D01*
X139838100Y-112695240D02*
X139885710Y-112790480D01*
X143193810Y-94452380D02*
X143098570Y-94595240D01*
X139933330Y-110275950D02*
X139933330Y-110418810D01*
X139933330Y-112980950D02*
X139933330Y-113123810D01*
X141955710Y-95357140D02*
X142003330Y-95404760D01*
X164789290Y-98380950D02*
X164789290Y-97380950D01*
X141023810Y-84785710D02*
X141214290Y-84738090D01*
X148428570Y-84785710D02*
X148380950Y-84738090D01*
X166360720Y-97380950D02*
X166360720Y-98380950D01*
X145547620Y-84214290D02*
X145642860Y-84166670D01*
X165027380Y-108880950D02*
X165027380Y-107880950D01*
X148178570Y-112614290D02*
X148130960Y-112709520D01*
X140790480Y-108204760D02*
X140695240Y-108252380D01*
X166313100Y-107880950D02*
X166455960Y-107928570D01*
X138838100Y-112600000D02*
X138885710Y-112647620D01*
X145654760Y-111995240D02*
X145607150Y-112090480D01*
X148857140Y-84261900D02*
X148904760Y-84309520D01*
X148952380Y-84404760D02*
X148952380Y-84642860D01*
X143773810Y-112804760D02*
X143678570Y-112852380D01*
X165027380Y-107880950D02*
X165598810Y-108880950D01*
X141404760Y-84214290D02*
X141357140Y-84166670D01*
X140790480Y-109847380D02*
X140600000Y-109847380D01*
X140457140Y-108252380D02*
X140361900Y-108204760D01*
X145607150Y-112614290D02*
X145654760Y-112709520D01*
X138933330Y-107442860D02*
X138933330Y-107585710D01*
X138933330Y-110037860D02*
X138933330Y-110180710D01*
X139600000Y-110847380D02*
X139361900Y-110847380D01*
X142107150Y-112471430D02*
X142869050Y-112471430D01*
X140500000Y-84595240D02*
X140595240Y-84690480D01*
X166275000Y-111000000D02*
X166417860Y-111000000D01*
X138361900Y-110847380D02*
X138361900Y-109847380D01*
X164313100Y-107880950D02*
X164170240Y-107928570D01*
X138933330Y-112885710D02*
X138885710Y-112980950D01*
D11*
X128100000Y-107150000D02*
X128600000Y-107850000D01*
X128100000Y-107150000D02*
X129100000Y-107150000D01*
D10*
X139885710Y-112790480D02*
X139933330Y-112980950D01*
X138838100Y-107300000D02*
X138885710Y-107347620D01*
X147952380Y-84738090D02*
X148428570Y-84785710D01*
X140504760Y-110847380D02*
X140695240Y-110847380D01*
X140933330Y-112552380D02*
X140504760Y-113552380D01*
X146130960Y-111900000D02*
X146035720Y-111852380D01*
X148285710Y-83880950D02*
X148952380Y-83642860D01*
X142098570Y-95452380D02*
X142289050Y-95452380D01*
X165960720Y-111200000D02*
X165932150Y-111257140D01*
X141452380Y-84452380D02*
X141452380Y-84357140D01*
X166170240Y-96333330D02*
X166075000Y-96380950D01*
X143098570Y-94595240D02*
X143003330Y-94690480D01*
X164789290Y-97380950D02*
X165265480Y-97380950D01*
D11*
X128000000Y-107850000D02*
X129200000Y-107850000D01*
D10*
X139838100Y-109990240D02*
X139885710Y-110085480D01*
X138742860Y-113076190D02*
X138361900Y-113076190D01*
X140361900Y-108204760D02*
X140314290Y-108157140D01*
X143678570Y-112233330D02*
X143773810Y-112280950D01*
X145452380Y-83166670D02*
X146452380Y-83833330D01*
X143869050Y-112423810D02*
X143869050Y-112661900D01*
X164027380Y-101190470D02*
X164075000Y-101285710D01*
X142952380Y-83404760D02*
X143952380Y-84071430D01*
X140314290Y-110656900D02*
X140361900Y-110752140D01*
X147654760Y-112852380D02*
X147654760Y-111852380D01*
X138885710Y-112980950D02*
X138838100Y-113028570D01*
X166475000Y-111028570D02*
X166503570Y-111057140D01*
X165617860Y-111000000D02*
X165846430Y-111000000D01*
X142488100Y-112852380D02*
X142488100Y-112090480D01*
X148952380Y-84642860D02*
X148904760Y-84738090D01*
X167360720Y-97476190D02*
X167408340Y-97571430D01*
X163979760Y-108452380D02*
X164027380Y-108642860D01*
X146607150Y-111852380D02*
X147178570Y-112852380D01*
X138933330Y-112742860D02*
X138933330Y-112885710D01*
X141908100Y-94452380D02*
X141908100Y-95261900D01*
X147952380Y-84261900D02*
X147952380Y-84738090D01*
X142479520Y-95261900D02*
X142479520Y-94452380D01*
X140361900Y-110323570D02*
X140314290Y-110418810D01*
X138742860Y-107776190D02*
X138361900Y-107776190D01*
X164027380Y-108119050D02*
X163979760Y-108309520D01*
X140838100Y-108157140D02*
X140790480Y-108204760D01*
X145452380Y-84357140D02*
X145500000Y-84261900D01*
X140695240Y-108252380D02*
X140457140Y-108252380D01*
X138742860Y-109847380D02*
X138838100Y-109895000D01*
X143193810Y-95452380D02*
X143193810Y-94452380D01*
X140838100Y-107728570D02*
X140885710Y-107823810D01*
X164389290Y-111000000D02*
X164675000Y-111000000D01*
X139742860Y-109895000D02*
X139838100Y-109990240D01*
X165846430Y-111000000D02*
X165903570Y-111028570D01*
X143869050Y-112661900D02*
X143821430Y-112757140D01*
X141214290Y-84738090D02*
X141309520Y-84690480D01*
X166217860Y-111028570D02*
X166275000Y-111000000D01*
X163884530Y-102880950D02*
X164217860Y-103880950D01*
X138361900Y-108252380D02*
X138361900Y-107252380D01*
X140885710Y-110418810D02*
X140838100Y-110323570D01*
X164408340Y-108880950D02*
X164551190Y-108833330D01*
X138933330Y-107585710D02*
X138885710Y-107680950D01*
X166551190Y-108023810D02*
X166598810Y-108119050D01*
X138885710Y-112647620D02*
X138933330Y-112742860D01*
X140409520Y-110799760D02*
X140504760Y-110847380D01*
X139600000Y-108252380D02*
X139361900Y-108252380D01*
X167313100Y-97857140D02*
X167217860Y-97904760D01*
X164408340Y-101380950D02*
X164503570Y-101333330D01*
X165694050Y-98380950D02*
X165694050Y-97380950D01*
X148333330Y-84642860D02*
X148333330Y-84404760D01*
X140790480Y-107680950D02*
X140838100Y-107728570D01*
X163932150Y-105380950D02*
X164170240Y-106380950D01*
X140457140Y-107633330D02*
X140695240Y-107633330D01*
X139742860Y-112600000D02*
X139838100Y-112695240D01*
X166532150Y-111171430D02*
X166503570Y-111257140D01*
X164551190Y-101285710D02*
X164598810Y-101190470D01*
X140790480Y-110275950D02*
X140695240Y-110228330D01*
X164360720Y-105666670D02*
X164551190Y-106380950D01*
X147654760Y-111852380D02*
X147892860Y-111852380D01*
X138361900Y-113552380D02*
X138361900Y-112552380D01*
X167217860Y-97380950D02*
X167313100Y-97428570D01*
X165132150Y-111428570D02*
X165332150Y-111000000D01*
X139885710Y-107490480D02*
X139933330Y-107680950D01*
X139742860Y-108204760D02*
X139600000Y-108252380D01*
X140695240Y-110847380D02*
X140790480Y-110799760D01*
X138838100Y-109895000D02*
X138885710Y-109942620D01*
X145880950Y-84214290D02*
X145928570Y-84261900D01*
X148130960Y-112709520D02*
X148035720Y-112804760D01*
X140690480Y-84738090D02*
X140880950Y-84785710D01*
X140695240Y-110228330D02*
X140504760Y-110228330D01*
X166027380Y-98095240D02*
X166360720Y-97380950D01*
X166598810Y-108119050D02*
X166646430Y-108309520D01*
X139838100Y-110704520D02*
X139742860Y-110799760D01*
X140885710Y-107823810D02*
X140885710Y-108061900D01*
X138838100Y-107728570D02*
X138742860Y-107776190D01*
X164884530Y-95809520D02*
X164932150Y-95761900D01*
X166160720Y-111600000D02*
X166532150Y-111600000D01*
X139361900Y-109847380D02*
X139600000Y-109847380D01*
X164075000Y-108738090D02*
X164170240Y-108833330D01*
X164122620Y-101333330D02*
X164217860Y-101380950D01*
X163979760Y-108309520D02*
X163979760Y-108452380D01*
X163884530Y-97380950D02*
X164455960Y-97380950D01*
X140838100Y-110323570D02*
X140790480Y-110275950D01*
X165903570Y-111028570D02*
X165932150Y-111057140D01*
X139838100Y-108109520D02*
X139742860Y-108204760D01*
X165313100Y-96333330D02*
X165217860Y-96380950D01*
X164027380Y-100380950D02*
X164027380Y-101190470D01*
D11*
X129200000Y-107850000D02*
X128600000Y-107850000D01*
D10*
X167408340Y-97571430D02*
X167408340Y-97714280D01*
X164217860Y-101380950D02*
X164408340Y-101380950D01*
X165741670Y-96285710D02*
X165694050Y-96190470D01*
D11*
X128600000Y-107850000D02*
X129100000Y-107150000D01*
D10*
X142003330Y-95404760D02*
X142098570Y-95452380D01*
X141023810Y-84166670D02*
X141023810Y-84357140D01*
X140504760Y-110228330D02*
X140409520Y-110275950D01*
X164932150Y-96333330D02*
X164884530Y-96285710D01*
X140452380Y-84452380D02*
X140500000Y-84595240D01*
X145976190Y-84357140D02*
X145976190Y-84738100D01*
X139885710Y-110085480D02*
X139933330Y-110275950D01*
X166532150Y-111114280D02*
X166532150Y-111171430D01*
X140504760Y-109895000D02*
X140457140Y-109942620D01*
X164598810Y-108785710D02*
X164598810Y-108452380D01*
X140361900Y-107680950D02*
X140457140Y-107633330D01*
X164217860Y-103880950D02*
X164551190Y-102880950D01*
X143821430Y-112328570D02*
X143869050Y-112423810D01*
D11*
X159000000Y-101000000D02*
G75*
G03*
X159000000Y-101000000I-500000J0D01*
G01*
D10*
X143345240Y-111852380D02*
X143297620Y-112328570D01*
X164170240Y-98380950D02*
X164170240Y-97380950D01*
X164170240Y-106380950D02*
X164360720Y-105666670D01*
D12*
X157272752Y-118009790D02*
X157558466Y-118009790D01*
X157415609Y-118509790D02*
X157415609Y-118009790D01*
X158010847Y-118509790D02*
X157844180Y-118271695D01*
X157725133Y-118509790D02*
X157725133Y-118009790D01*
X157915609Y-118009790D01*
X157963228Y-118033600D01*
X157987038Y-118057409D01*
X158010847Y-118105028D01*
X158010847Y-118176457D01*
X157987038Y-118224076D01*
X157963228Y-118247885D01*
X157915609Y-118271695D01*
X157725133Y-118271695D01*
X158225133Y-118509790D02*
X158225133Y-118009790D01*
X158391800Y-118366933D01*
X158558466Y-118009790D01*
X158558466Y-118509790D01*
X158772752Y-118057409D02*
X158796561Y-118033600D01*
X158844180Y-118009790D01*
X158963228Y-118009790D01*
X159010847Y-118033600D01*
X159034657Y-118057409D01*
X159058466Y-118105028D01*
X159058466Y-118152647D01*
X159034657Y-118224076D01*
X158748942Y-118509790D01*
X159058466Y-118509790D01*
X159915609Y-118033600D02*
X159867990Y-118009790D01*
X159796561Y-118009790D01*
X159725133Y-118033600D01*
X159677514Y-118081219D01*
X159653704Y-118128838D01*
X159629895Y-118224076D01*
X159629895Y-118295504D01*
X159653704Y-118390742D01*
X159677514Y-118438361D01*
X159725133Y-118485980D01*
X159796561Y-118509790D01*
X159844180Y-118509790D01*
X159915609Y-118485980D01*
X159939419Y-118462171D01*
X159939419Y-118295504D01*
X159844180Y-118295504D01*
X160153704Y-118509790D02*
X160153704Y-118009790D01*
X160439419Y-118509790D01*
X160439419Y-118009790D01*
X160677514Y-118509790D02*
X160677514Y-118009790D01*
X160796561Y-118009790D01*
X160867990Y-118033600D01*
X160915609Y-118081219D01*
X160939419Y-118128838D01*
X160963228Y-118224076D01*
X160963228Y-118295504D01*
X160939419Y-118390742D01*
X160915609Y-118438361D01*
X160867990Y-118485980D01*
X160796561Y-118509790D01*
X160677514Y-118509790D01*
D10*
X163963098Y-114130950D02*
X163963098Y-113130950D01*
X164344050Y-113130950D01*
X164439288Y-113178570D01*
X164486907Y-113226189D01*
X164534526Y-113321427D01*
X164534526Y-113464284D01*
X164486907Y-113559522D01*
X164439288Y-113607141D01*
X164344050Y-113654760D01*
X163963098Y-113654760D01*
X164867860Y-113130950D02*
X165105955Y-114130950D01*
X165296431Y-113416665D01*
X165486907Y-114130950D01*
X165725002Y-113130950D01*
X166105955Y-114130950D02*
X166105955Y-113130950D01*
X166439288Y-113845236D01*
X166772621Y-113130950D01*
X166772621Y-114130950D01*
X139392857Y-118437619D02*
X139297619Y-118390000D01*
X139202380Y-118294761D01*
X139059523Y-118151904D01*
X138964285Y-118104285D01*
X138869047Y-118104285D01*
X138916666Y-118342380D02*
X138821428Y-118294761D01*
X138726190Y-118199523D01*
X138678571Y-118009047D01*
X138678571Y-117675714D01*
X138726190Y-117485238D01*
X138821428Y-117390000D01*
X138916666Y-117342380D01*
X139107142Y-117342380D01*
X139202380Y-117390000D01*
X139297619Y-117485238D01*
X139345238Y-117675714D01*
X139345238Y-118009047D01*
X139297619Y-118199523D01*
X139202380Y-118294761D01*
X139107142Y-118342380D01*
X138916666Y-118342380D01*
X139726190Y-118294761D02*
X139869047Y-118342380D01*
X140107142Y-118342380D01*
X140202380Y-118294761D01*
X140250000Y-118247142D01*
X140297619Y-118151904D01*
X140297619Y-118056666D01*
X140250000Y-117961428D01*
X140202380Y-117913809D01*
X140107142Y-117866190D01*
X139916666Y-117818571D01*
X139821428Y-117770952D01*
X139773809Y-117723333D01*
X139726190Y-117628095D01*
X139726190Y-117532857D01*
X139773809Y-117437619D01*
X139821428Y-117390000D01*
X139916666Y-117342380D01*
X140154761Y-117342380D01*
X140297619Y-117390000D01*
X141250000Y-118342380D02*
X140678571Y-118342380D01*
X140964285Y-118342380D02*
X140964285Y-117342380D01*
X140869047Y-117485238D01*
X140773809Y-117580476D01*
X140678571Y-117628095D01*
X142107142Y-117342380D02*
X141916666Y-117342380D01*
X141821428Y-117390000D01*
X141773809Y-117437619D01*
X141678571Y-117580476D01*
X141630952Y-117770952D01*
X141630952Y-118151904D01*
X141678571Y-118247142D01*
X141726190Y-118294761D01*
X141821428Y-118342380D01*
X142011904Y-118342380D01*
X142107142Y-118294761D01*
X142154761Y-118247142D01*
X142202380Y-118151904D01*
X142202380Y-117913809D01*
X142154761Y-117818571D01*
X142107142Y-117770952D01*
X142011904Y-117723333D01*
X141821428Y-117723333D01*
X141726190Y-117770952D01*
X141678571Y-117818571D01*
X141630952Y-117913809D01*
X143107142Y-117342380D02*
X142630952Y-117342380D01*
X142583333Y-117818571D01*
X142630952Y-117770952D01*
X142726190Y-117723333D01*
X142964285Y-117723333D01*
X143059523Y-117770952D01*
X143107142Y-117818571D01*
X143154761Y-117913809D01*
X143154761Y-118151904D01*
X143107142Y-118247142D01*
X143059523Y-118294761D01*
X142964285Y-118342380D01*
X142726190Y-118342380D01*
X142630952Y-118294761D01*
X142583333Y-118247142D01*
X144345238Y-117818571D02*
X144678571Y-117818571D01*
X144821428Y-118342380D02*
X144345238Y-118342380D01*
X144345238Y-117342380D01*
X144821428Y-117342380D01*
X145250000Y-118342380D02*
X145250000Y-117342380D01*
X145821428Y-118342380D01*
X145821428Y-117342380D01*
X146869047Y-118247142D02*
X146821428Y-118294761D01*
X146678571Y-118342380D01*
X146583333Y-118342380D01*
X146440476Y-118294761D01*
X146345238Y-118199523D01*
X146297619Y-118104285D01*
X146250000Y-117913809D01*
X146250000Y-117770952D01*
X146297619Y-117580476D01*
X146345238Y-117485238D01*
X146440476Y-117390000D01*
X146583333Y-117342380D01*
X146678571Y-117342380D01*
X146821428Y-117390000D01*
X146869047Y-117437619D01*
X147488095Y-117342380D02*
X147678571Y-117342380D01*
X147773809Y-117390000D01*
X147869047Y-117485238D01*
X147916666Y-117675714D01*
X147916666Y-118009047D01*
X147869047Y-118199523D01*
X147773809Y-118294761D01*
X147678571Y-118342380D01*
X147488095Y-118342380D01*
X147392857Y-118294761D01*
X147297619Y-118199523D01*
X147250000Y-118009047D01*
X147250000Y-117675714D01*
X147297619Y-117485238D01*
X147392857Y-117390000D01*
X147488095Y-117342380D01*
X148345238Y-118342380D02*
X148345238Y-117342380D01*
X148583333Y-117342380D01*
X148726190Y-117390000D01*
X148821428Y-117485238D01*
X148869047Y-117580476D01*
X148916666Y-117770952D01*
X148916666Y-117913809D01*
X148869047Y-118104285D01*
X148821428Y-118199523D01*
X148726190Y-118294761D01*
X148583333Y-118342380D01*
X148345238Y-118342380D01*
X149345238Y-117818571D02*
X149678571Y-117818571D01*
X149821428Y-118342380D02*
X149345238Y-118342380D01*
X149345238Y-117342380D01*
X149821428Y-117342380D01*
X150821428Y-118342380D02*
X150488095Y-117866190D01*
X150250000Y-118342380D02*
X150250000Y-117342380D01*
X150630952Y-117342380D01*
X150726190Y-117390000D01*
X150773809Y-117437619D01*
X150821428Y-117532857D01*
X150821428Y-117675714D01*
X150773809Y-117770952D01*
X150726190Y-117818571D01*
X150630952Y-117866190D01*
X150250000Y-117866190D01*
X135750000Y-119666666D02*
X136226190Y-119666666D01*
X135654761Y-119952380D02*
X135988095Y-118952380D01*
X136321428Y-119952380D01*
X136511904Y-118952380D02*
X137083333Y-118952380D01*
X136797619Y-119952380D02*
X136797619Y-118952380D01*
X137416666Y-119952380D02*
X137416666Y-118952380D01*
X137750000Y-119666666D01*
X138083333Y-118952380D01*
X138083333Y-119952380D01*
X138559523Y-119428571D02*
X138892857Y-119428571D01*
X139035714Y-119952380D02*
X138559523Y-119952380D01*
X138559523Y-118952380D01*
X139035714Y-118952380D01*
X139988095Y-119000000D02*
X139892857Y-118952380D01*
X139750000Y-118952380D01*
X139607142Y-119000000D01*
X139511904Y-119095238D01*
X139464285Y-119190476D01*
X139416666Y-119380952D01*
X139416666Y-119523809D01*
X139464285Y-119714285D01*
X139511904Y-119809523D01*
X139607142Y-119904761D01*
X139750000Y-119952380D01*
X139845238Y-119952380D01*
X139988095Y-119904761D01*
X140035714Y-119857142D01*
X140035714Y-119523809D01*
X139845238Y-119523809D01*
X140464285Y-119428571D02*
X140797619Y-119428571D01*
X140940476Y-119952380D02*
X140464285Y-119952380D01*
X140464285Y-118952380D01*
X140940476Y-118952380D01*
X141273809Y-118952380D02*
X141892857Y-118952380D01*
X141559523Y-119333333D01*
X141702380Y-119333333D01*
X141797619Y-119380952D01*
X141845238Y-119428571D01*
X141892857Y-119523809D01*
X141892857Y-119761904D01*
X141845238Y-119857142D01*
X141797619Y-119904761D01*
X141702380Y-119952380D01*
X141416666Y-119952380D01*
X141321428Y-119904761D01*
X141273809Y-119857142D01*
X142273809Y-119047619D02*
X142321428Y-119000000D01*
X142416666Y-118952380D01*
X142654761Y-118952380D01*
X142750000Y-119000000D01*
X142797619Y-119047619D01*
X142845238Y-119142857D01*
X142845238Y-119238095D01*
X142797619Y-119380952D01*
X142226190Y-119952380D01*
X142845238Y-119952380D01*
X143416666Y-119380952D02*
X143321428Y-119333333D01*
X143273809Y-119285714D01*
X143226190Y-119190476D01*
X143226190Y-119142857D01*
X143273809Y-119047619D01*
X143321428Y-119000000D01*
X143416666Y-118952380D01*
X143607142Y-118952380D01*
X143702380Y-119000000D01*
X143750000Y-119047619D01*
X143797619Y-119142857D01*
X143797619Y-119190476D01*
X143750000Y-119285714D01*
X143702380Y-119333333D01*
X143607142Y-119380952D01*
X143416666Y-119380952D01*
X143321428Y-119428571D01*
X143273809Y-119476190D01*
X143226190Y-119571428D01*
X143226190Y-119761904D01*
X143273809Y-119857142D01*
X143321428Y-119904761D01*
X143416666Y-119952380D01*
X143607142Y-119952380D01*
X143702380Y-119904761D01*
X143750000Y-119857142D01*
X143797619Y-119761904D01*
X143797619Y-119571428D01*
X143750000Y-119476190D01*
X143702380Y-119428571D01*
X143607142Y-119380952D01*
X144226190Y-119285714D02*
X144226190Y-120285714D01*
X144226190Y-119333333D02*
X144321428Y-119285714D01*
X144511904Y-119285714D01*
X144607142Y-119333333D01*
X144654761Y-119380952D01*
X144702380Y-119476190D01*
X144702380Y-119761904D01*
X144654761Y-119857142D01*
X144607142Y-119904761D01*
X144511904Y-119952380D01*
X144321428Y-119952380D01*
X144226190Y-119904761D01*
X146607142Y-118904761D02*
X145750000Y-120190476D01*
X147654761Y-119666666D02*
X148130952Y-119666666D01*
X147559523Y-119952380D02*
X147892857Y-118952380D01*
X148226190Y-119952380D01*
X148511904Y-119904761D02*
X148654761Y-119952380D01*
X148892857Y-119952380D01*
X148988095Y-119904761D01*
X149035714Y-119857142D01*
X149083333Y-119761904D01*
X149083333Y-119666666D01*
X149035714Y-119571428D01*
X148988095Y-119523809D01*
X148892857Y-119476190D01*
X148702380Y-119428571D01*
X148607142Y-119380952D01*
X148559523Y-119333333D01*
X148511904Y-119238095D01*
X148511904Y-119142857D01*
X148559523Y-119047619D01*
X148607142Y-119000000D01*
X148702380Y-118952380D01*
X148940476Y-118952380D01*
X149083333Y-119000000D01*
X149988095Y-118952380D02*
X149511904Y-118952380D01*
X149464285Y-119428571D01*
X149511904Y-119380952D01*
X149607142Y-119333333D01*
X149845238Y-119333333D01*
X149940476Y-119380952D01*
X149988095Y-119428571D01*
X150035714Y-119523809D01*
X150035714Y-119761904D01*
X149988095Y-119857142D01*
X149940476Y-119904761D01*
X149845238Y-119952380D01*
X149607142Y-119952380D01*
X149511904Y-119904761D01*
X149464285Y-119857142D01*
X150654761Y-118952380D02*
X150750000Y-118952380D01*
X150845238Y-119000000D01*
X150892857Y-119047619D01*
X150940476Y-119142857D01*
X150988095Y-119333333D01*
X150988095Y-119571428D01*
X150940476Y-119761904D01*
X150892857Y-119857142D01*
X150845238Y-119904761D01*
X150750000Y-119952380D01*
X150654761Y-119952380D01*
X150559523Y-119904761D01*
X150511904Y-119857142D01*
X150464285Y-119761904D01*
X150416666Y-119571428D01*
X150416666Y-119333333D01*
X150464285Y-119142857D01*
X150511904Y-119047619D01*
X150559523Y-119000000D01*
X150654761Y-118952380D01*
X151845238Y-119285714D02*
X151845238Y-119952380D01*
X151607142Y-118904761D02*
X151369047Y-119619047D01*
X151988095Y-119619047D01*
X152511904Y-119380952D02*
X152416666Y-119333333D01*
X152369047Y-119285714D01*
X152321428Y-119190476D01*
X152321428Y-119142857D01*
X152369047Y-119047619D01*
X152416666Y-119000000D01*
X152511904Y-118952380D01*
X152702380Y-118952380D01*
X152797619Y-119000000D01*
X152845238Y-119047619D01*
X152892857Y-119142857D01*
X152892857Y-119190476D01*
X152845238Y-119285714D01*
X152797619Y-119333333D01*
X152702380Y-119380952D01*
X152511904Y-119380952D01*
X152416666Y-119428571D01*
X152369047Y-119476190D01*
X152321428Y-119571428D01*
X152321428Y-119761904D01*
X152369047Y-119857142D01*
X152416666Y-119904761D01*
X152511904Y-119952380D01*
X152702380Y-119952380D01*
X152797619Y-119904761D01*
X152845238Y-119857142D01*
X152892857Y-119761904D01*
X152892857Y-119571428D01*
X152845238Y-119476190D01*
X152797619Y-119428571D01*
X152702380Y-119380952D01*
X153273809Y-119666666D02*
X153750000Y-119666666D01*
X153178571Y-119952380D02*
X153511904Y-118952380D01*
X153845238Y-119952380D01*
X139988095Y-121514761D02*
X140130952Y-121562380D01*
X140369047Y-121562380D01*
X140464285Y-121514761D01*
X140511904Y-121467142D01*
X140559523Y-121371904D01*
X140559523Y-121276666D01*
X140511904Y-121181428D01*
X140464285Y-121133809D01*
X140369047Y-121086190D01*
X140178571Y-121038571D01*
X140083333Y-120990952D01*
X140035714Y-120943333D01*
X139988095Y-120848095D01*
X139988095Y-120752857D01*
X140035714Y-120657619D01*
X140083333Y-120610000D01*
X140178571Y-120562380D01*
X140416666Y-120562380D01*
X140559523Y-120610000D01*
X140988095Y-121038571D02*
X141321428Y-121038571D01*
X141464285Y-121562380D02*
X140988095Y-121562380D01*
X140988095Y-120562380D01*
X141464285Y-120562380D01*
X141892857Y-121562380D02*
X141892857Y-120562380D01*
X142464285Y-121562380D01*
X142464285Y-120562380D01*
X142892857Y-121514761D02*
X143035714Y-121562380D01*
X143273809Y-121562380D01*
X143369047Y-121514761D01*
X143416666Y-121467142D01*
X143464285Y-121371904D01*
X143464285Y-121276666D01*
X143416666Y-121181428D01*
X143369047Y-121133809D01*
X143273809Y-121086190D01*
X143083333Y-121038571D01*
X142988095Y-120990952D01*
X142940476Y-120943333D01*
X142892857Y-120848095D01*
X142892857Y-120752857D01*
X142940476Y-120657619D01*
X142988095Y-120610000D01*
X143083333Y-120562380D01*
X143321428Y-120562380D01*
X143464285Y-120610000D01*
X144083333Y-120562380D02*
X144273809Y-120562380D01*
X144369047Y-120610000D01*
X144464285Y-120705238D01*
X144511904Y-120895714D01*
X144511904Y-121229047D01*
X144464285Y-121419523D01*
X144369047Y-121514761D01*
X144273809Y-121562380D01*
X144083333Y-121562380D01*
X143988095Y-121514761D01*
X143892857Y-121419523D01*
X143845238Y-121229047D01*
X143845238Y-120895714D01*
X143892857Y-120705238D01*
X143988095Y-120610000D01*
X144083333Y-120562380D01*
X145511904Y-121562380D02*
X145178571Y-121086190D01*
X144940476Y-121562380D02*
X144940476Y-120562380D01*
X145321428Y-120562380D01*
X145416666Y-120610000D01*
X145464285Y-120657619D01*
X145511904Y-120752857D01*
X145511904Y-120895714D01*
X145464285Y-120990952D01*
X145416666Y-121038571D01*
X145321428Y-121086190D01*
X144940476Y-121086190D01*
X146559523Y-120562380D02*
X146892857Y-121562380D01*
X147226190Y-120562380D01*
X148083333Y-121562380D02*
X147511904Y-121562380D01*
X147797619Y-121562380D02*
X147797619Y-120562380D01*
X147702380Y-120705238D01*
X147607142Y-120800476D01*
X147511904Y-120848095D01*
X148511904Y-121467142D02*
X148559523Y-121514761D01*
X148511904Y-121562380D01*
X148464285Y-121514761D01*
X148511904Y-121467142D01*
X148511904Y-121562380D01*
X148940476Y-120657619D02*
X148988095Y-120610000D01*
X149083333Y-120562380D01*
X149321428Y-120562380D01*
X149416666Y-120610000D01*
X149464285Y-120657619D01*
X149511904Y-120752857D01*
X149511904Y-120848095D01*
X149464285Y-120990952D01*
X148892857Y-121562380D01*
X149511904Y-121562380D01*
%TO.C,*%
D11*
%TO.C,C9*%
X140710000Y-103107836D02*
X140710000Y-102892164D01*
X139990000Y-103107836D02*
X139990000Y-102892164D01*
%TO.C,Y1*%
X136884800Y-103564400D02*
X136884800Y-97814400D01*
X133284800Y-97814400D02*
X133284800Y-103564400D01*
X136884800Y-97814400D02*
X133284800Y-97814400D01*
%TO.C,J3*%
X153795000Y-116930000D02*
X156395000Y-116930000D01*
X153795000Y-114270000D02*
X156395000Y-114270000D01*
X156395000Y-116930000D02*
X156395000Y-114270000D01*
X153795000Y-116930000D02*
X153795000Y-114270000D01*
X152525000Y-116930000D02*
X151195000Y-116930000D01*
X151195000Y-116930000D02*
X151195000Y-115600000D01*
%TO.C,J6*%
X150945000Y-108970000D02*
X153545000Y-108970000D01*
X148345000Y-111630000D02*
X148345000Y-110300000D01*
X150945000Y-111630000D02*
X150945000Y-108970000D01*
X150945000Y-111630000D02*
X153545000Y-111630000D01*
X153545000Y-111630000D02*
X153545000Y-108970000D01*
X149675000Y-111630000D02*
X148345000Y-111630000D01*
%TO.C,JP1*%
X160650000Y-117700000D02*
X157850000Y-117700000D01*
X160650000Y-115700000D02*
X160650000Y-117700000D01*
X157850000Y-117700000D02*
X157850000Y-115700000D01*
X157850000Y-115700000D02*
X160650000Y-115700000D01*
%TO.C,J1*%
X139720000Y-88330000D02*
X139720000Y-87000000D01*
X142320000Y-88330000D02*
X150000000Y-88330000D01*
X142320000Y-85670000D02*
X150000000Y-85670000D01*
X150000000Y-88330000D02*
X150000000Y-85670000D01*
X141050000Y-88330000D02*
X139720000Y-88330000D01*
X142320000Y-88330000D02*
X142320000Y-85670000D01*
%TO.C,J5*%
X160537860Y-114888570D02*
X163197860Y-114888570D01*
X160537860Y-94448570D02*
X161867860Y-94448570D01*
X160537860Y-97048570D02*
X163197860Y-97048570D01*
X163197860Y-97048570D02*
X163197860Y-114888570D01*
X160537860Y-95778570D02*
X160537860Y-94448570D01*
X160537860Y-97048570D02*
X160537860Y-114888570D01*
%TO.C,D2*%
X131061800Y-108825200D02*
X131061800Y-106540200D01*
X129591800Y-108825200D02*
X131061800Y-108825200D01*
X129591800Y-106540200D02*
X129591800Y-108825200D01*
%TO.C,R1*%
X158972542Y-90311900D02*
X159447058Y-90311900D01*
X158972542Y-91356900D02*
X159447058Y-91356900D01*
D10*
%TO.C,U1*%
X146295000Y-98885000D02*
X145970000Y-98885000D01*
X139045000Y-98885000D02*
X139045000Y-98560000D01*
X146295000Y-91635000D02*
X145970000Y-91635000D01*
X146295000Y-91635000D02*
X146295000Y-91960000D01*
X139045000Y-91635000D02*
X139370000Y-91635000D01*
X139045000Y-91860000D02*
X137620000Y-91860000D01*
X139045000Y-98885000D02*
X139370000Y-98885000D01*
X146295000Y-98885000D02*
X146295000Y-98560000D01*
X139045000Y-91635000D02*
X139045000Y-91860000D01*
D11*
%TO.C,C5*%
X136157836Y-96165000D02*
X135942164Y-96165000D01*
X136157836Y-96885000D02*
X135942164Y-96885000D01*
%TO.C,C3*%
X148230000Y-97682164D02*
X148230000Y-97897836D01*
X148950000Y-97682164D02*
X148950000Y-97897836D01*
%TO.C,C1*%
X159059220Y-93134400D02*
X159340380Y-93134400D01*
X159059220Y-92114400D02*
X159340380Y-92114400D01*
%TO.C,ISP1*%
X158565800Y-102104000D02*
X157235800Y-102104000D01*
X158565800Y-107304000D02*
X158565800Y-104704000D01*
X158565800Y-103434000D02*
X158565800Y-102104000D01*
X158565800Y-107304000D02*
X150825800Y-107304000D01*
X150825800Y-107304000D02*
X150825800Y-102104000D01*
X155965800Y-102104000D02*
X150825800Y-102104000D01*
X158565800Y-104704000D02*
X155965800Y-104704000D01*
X155965800Y-104704000D02*
X155965800Y-102104000D01*
%TO.C,C6*%
X131974800Y-98707236D02*
X131974800Y-98491564D01*
X132694800Y-98707236D02*
X132694800Y-98491564D01*
%TO.C,C2*%
X154264800Y-94314400D02*
X154264800Y-96184400D01*
X158174800Y-94314400D02*
X154264800Y-94314400D01*
X154264800Y-96184400D02*
X158174800Y-96184400D01*
%TO.C,R2*%
X151337742Y-98677500D02*
X151812258Y-98677500D01*
X151337742Y-99722500D02*
X151812258Y-99722500D01*
%TO.C,C7*%
X131900000Y-102407836D02*
X131900000Y-102192164D01*
X132620000Y-102407836D02*
X132620000Y-102192164D01*
%TO.C,R3*%
X131827300Y-107162142D02*
X131827300Y-107636658D01*
X132872300Y-107162142D02*
X132872300Y-107636658D01*
%TO.C,C4*%
X136147836Y-94570000D02*
X135932164Y-94570000D01*
X136147836Y-95290000D02*
X135932164Y-95290000D01*
%TO.C,C8*%
X139990000Y-104992164D02*
X139990000Y-105207836D01*
X140710000Y-104992164D02*
X140710000Y-105207836D01*
%TO.C,Q1*%
X153614800Y-91934400D02*
X153614800Y-92584400D01*
X153614800Y-91934400D02*
X153614800Y-91284400D01*
X156734800Y-91934400D02*
X156734800Y-92584400D01*
X156734800Y-91934400D02*
X156734800Y-90259400D01*
%TO.C,D1*%
X153250000Y-93200000D02*
X153250000Y-88900000D01*
X151250000Y-93200000D02*
X153250000Y-93200000D01*
X151250000Y-88900000D02*
X151250000Y-93200000D01*
%TO.C,J4*%
X135194400Y-108930000D02*
X135194400Y-114070000D01*
X135194400Y-114070000D02*
X137854400Y-114070000D01*
X137854400Y-108930000D02*
X137854400Y-114070000D01*
X135194400Y-107660000D02*
X135194400Y-106330000D01*
X135194400Y-106330000D02*
X136524400Y-106330000D01*
X135194400Y-108930000D02*
X137854400Y-108930000D01*
%TD*%
M02*
