%TF.GenerationSoftware,KiCad,Pcbnew,(6.0.7-1)-1*%
%TF.CreationDate,2023-01-22T12:43:28-05:00*%
%TF.ProjectId,atmega328,61746d65-6761-4333-9238-2e6b69636164,rev?*%
%TF.SameCoordinates,Original*%
%TF.FileFunction,Legend,Top*%
%TF.FilePolarity,Positive*%
%FSLAX46Y46*%
G04 Gerber Fmt 4.6, Leading zero omitted, Abs format (unit mm)*
G04 Created by KiCad (PCBNEW (6.0.7-1)-1) date 2023-01-22 12:43:28*
%MOMM*%
%LPD*%
G01*
G04 APERTURE LIST*
%ADD10C,0.150000*%
%ADD11C,0.120000*%
%ADD12C,0.125000*%
%ADD13C,0.080000*%
G04 APERTURE END LIST*
D10*
X164217860Y-96380950D02*
X164551190Y-95380950D01*
X165884530Y-95714280D02*
X166075000Y-95714280D01*
X165694050Y-95904760D02*
X165741670Y-95809520D01*
D11*
X146625200Y-93715600D02*
X147625200Y-93715600D01*
D10*
X165332150Y-111000000D02*
X165332150Y-111600000D01*
X164932150Y-111000000D02*
X165132150Y-111428570D01*
X165217860Y-96380950D02*
X165027380Y-96380950D01*
X166189290Y-111057140D02*
X166217860Y-111028570D01*
X164551190Y-108833330D02*
X164598810Y-108785710D01*
X164170240Y-107928570D02*
X164075000Y-108023810D01*
X165265480Y-98380950D02*
X164789290Y-98380950D01*
X166075000Y-108880950D02*
X166075000Y-107880950D01*
X166551190Y-108738090D02*
X166455960Y-108833330D01*
X167217860Y-97904760D02*
X166836910Y-97904760D01*
X166075000Y-95714280D02*
X166170240Y-95761900D01*
X164455960Y-107880950D02*
X164313100Y-107880950D01*
X164932150Y-95761900D02*
X165027380Y-95714280D01*
X165789290Y-95761900D02*
X165884530Y-95714280D01*
X164389290Y-111600000D02*
X164389290Y-111000000D01*
X164075000Y-108023810D02*
X164027380Y-108119050D01*
X165598810Y-108880950D02*
X165598810Y-107880950D01*
X166836910Y-98380950D02*
X166836910Y-97380950D01*
D11*
X147125200Y-93215600D02*
X147125200Y-93715600D01*
D10*
X165932150Y-111257140D02*
X165903570Y-111285710D01*
X164598810Y-101190470D02*
X164598810Y-100380950D01*
X165741670Y-95809520D02*
X165789290Y-95761900D01*
D11*
X145607685Y-104575000D02*
G75*
G03*
X145607685Y-104575000I-745185J0D01*
G01*
D10*
X165960720Y-111114280D02*
X165960720Y-111200000D01*
X164836910Y-95904760D02*
X164884530Y-95809520D01*
X164836910Y-96190470D02*
X164836910Y-95904760D01*
X164884530Y-96285710D02*
X164836910Y-96190470D01*
X166455960Y-108833330D02*
X166313100Y-108880950D01*
X165694050Y-97380950D02*
X166027380Y-98095240D01*
D11*
X145100000Y-88100000D02*
X145800000Y-88600000D01*
D10*
X165694050Y-96190470D02*
X165694050Y-95904760D01*
X165027380Y-96380950D02*
X164932150Y-96333330D01*
X164027380Y-108642860D02*
X164075000Y-108738090D01*
X165884530Y-96380950D02*
X165789290Y-96333330D01*
X165617860Y-111600000D02*
X165617860Y-111000000D01*
X164789290Y-97857140D02*
X165122620Y-97857140D01*
X163846430Y-111000000D02*
X164189290Y-111000000D01*
X166646430Y-108309520D02*
X166646430Y-108452380D01*
X164675000Y-111600000D02*
X164389290Y-111600000D01*
X166836910Y-97380950D02*
X167217860Y-97380950D01*
X164551190Y-106380950D02*
X164789290Y-105380950D01*
X166075000Y-107880950D02*
X166313100Y-107880950D01*
X167313100Y-97428570D02*
X167360720Y-97476190D01*
X166075000Y-96380950D02*
X165884530Y-96380950D01*
D11*
X145100000Y-88700000D02*
X145100000Y-88100000D01*
D10*
X164389290Y-111285710D02*
X164589290Y-111285710D01*
X165027380Y-95714280D02*
X165217860Y-95714280D01*
X166503570Y-111257140D02*
X166160720Y-111600000D01*
D11*
X145800000Y-87600000D02*
X145100000Y-88100000D01*
D10*
X167408340Y-97714280D02*
X167360720Y-97809520D01*
X166313100Y-108880950D02*
X166075000Y-108880950D01*
X164551190Y-107928570D02*
X164455960Y-107880950D01*
X166417860Y-111000000D02*
X166475000Y-111028570D01*
X167360720Y-97809520D02*
X167313100Y-97857140D01*
X166455960Y-107928570D02*
X166551190Y-108023810D01*
X166503570Y-111057140D02*
X166532150Y-111114280D01*
X165932150Y-111057140D02*
X165960720Y-111114280D01*
X165903570Y-111285710D02*
X165846430Y-111314280D01*
X166646430Y-108452380D02*
X166598810Y-108642860D01*
X164932150Y-111600000D02*
X164932150Y-111000000D01*
X164017860Y-111600000D02*
X164017860Y-111000000D01*
D11*
X145800000Y-88100000D02*
X146300000Y-88100000D01*
X145100000Y-87500000D02*
X145100000Y-88700000D01*
D10*
X164313100Y-108880950D02*
X164408340Y-108880950D01*
X164503570Y-101333330D02*
X164551190Y-101285710D01*
X165217860Y-95714280D02*
X165313100Y-95761900D01*
X163884530Y-95380950D02*
X164217860Y-96380950D01*
X164170240Y-108833330D02*
X164313100Y-108880950D01*
X165789290Y-96333330D02*
X165741670Y-96285710D01*
X164598810Y-108452380D02*
X164408340Y-108452380D01*
X166598810Y-108642860D02*
X166551190Y-108738090D01*
X164075000Y-101285710D02*
X164122620Y-101333330D01*
X165846430Y-111314280D02*
X165617860Y-111314280D01*
D11*
X139600000Y-100200000D02*
X142300000Y-100200000D01*
X144400000Y-88100000D02*
X145100000Y-88100000D01*
D10*
X164789290Y-98380950D02*
X164789290Y-97380950D01*
D11*
X147125200Y-94415600D02*
X147625200Y-93715600D01*
D10*
X166360720Y-97380950D02*
X166360720Y-98380950D01*
X165027380Y-108880950D02*
X165027380Y-107880950D01*
X166313100Y-107880950D02*
X166455960Y-107928570D01*
X165027380Y-107880950D02*
X165598810Y-108880950D01*
D11*
X146300000Y-88100000D02*
X145800000Y-88100000D01*
D10*
X166275000Y-111000000D02*
X166417860Y-111000000D01*
X164313100Y-107880950D02*
X164170240Y-107928570D01*
D11*
X147125200Y-93715600D02*
X147125200Y-93215600D01*
X147125200Y-95115600D02*
X147125200Y-94415600D01*
D10*
X165960720Y-111200000D02*
X165932150Y-111257140D01*
X166170240Y-96333330D02*
X166075000Y-96380950D01*
X164789290Y-97380950D02*
X165265480Y-97380950D01*
X164027380Y-101190470D02*
X164075000Y-101285710D01*
D11*
X146625200Y-93715600D02*
X147125200Y-94415600D01*
D10*
X166475000Y-111028570D02*
X166503570Y-111057140D01*
X165617860Y-111000000D02*
X165846430Y-111000000D01*
X167360720Y-97476190D02*
X167408340Y-97571430D01*
X163979760Y-108452380D02*
X164027380Y-108642860D01*
X164027380Y-108119050D02*
X163979760Y-108309520D01*
D11*
X145800000Y-87600000D02*
X145800000Y-88600000D01*
D10*
X164389290Y-111000000D02*
X164675000Y-111000000D01*
D11*
X142300000Y-100200000D02*
X142300000Y-107200000D01*
D10*
X165846430Y-111000000D02*
X165903570Y-111028570D01*
X166217860Y-111028570D02*
X166275000Y-111000000D01*
X163884530Y-102880950D02*
X164217860Y-103880950D01*
D11*
X142300000Y-107200000D02*
X139600000Y-107200000D01*
D10*
X164408340Y-108880950D02*
X164551190Y-108833330D01*
D11*
X146525200Y-94415600D02*
X147725200Y-94415600D01*
D10*
X166551190Y-108023810D02*
X166598810Y-108119050D01*
X167313100Y-97857140D02*
X167217860Y-97904760D01*
X164408340Y-101380950D02*
X164503570Y-101333330D01*
X165694050Y-98380950D02*
X165694050Y-97380950D01*
X163932150Y-105380950D02*
X164170240Y-106380950D01*
X166532150Y-111171430D02*
X166503570Y-111257140D01*
X164551190Y-101285710D02*
X164598810Y-101190470D01*
X164360720Y-105666670D02*
X164551190Y-106380950D01*
X167217860Y-97380950D02*
X167313100Y-97428570D01*
X165132150Y-111428570D02*
X165332150Y-111000000D01*
X166027380Y-98095240D02*
X166360720Y-97380950D01*
X166598810Y-108119050D02*
X166646430Y-108309520D01*
X164884530Y-95809520D02*
X164932150Y-95761900D01*
X166160720Y-111600000D02*
X166532150Y-111600000D01*
X164075000Y-108738090D02*
X164170240Y-108833330D01*
X164122620Y-101333330D02*
X164217860Y-101380950D01*
X163979760Y-108309520D02*
X163979760Y-108452380D01*
X163884530Y-97380950D02*
X164455960Y-97380950D01*
X165903570Y-111028570D02*
X165932150Y-111057140D01*
X165313100Y-96333330D02*
X165217860Y-96380950D01*
X164027380Y-100380950D02*
X164027380Y-101190470D01*
X167408340Y-97571430D02*
X167408340Y-97714280D01*
X164217860Y-101380950D02*
X164408340Y-101380950D01*
X165741670Y-96285710D02*
X165694050Y-96190470D01*
X164932150Y-96333330D02*
X164884530Y-96285710D01*
X166532150Y-111114280D02*
X166532150Y-111171430D01*
X164598810Y-108785710D02*
X164598810Y-108452380D01*
X164217860Y-103880950D02*
X164551190Y-102880950D01*
D11*
X147725200Y-94415600D02*
X147125200Y-94415600D01*
D10*
X164170240Y-98380950D02*
X164170240Y-97380950D01*
X164170240Y-106380950D02*
X164360720Y-105666670D01*
D12*
X155480952Y-118126190D02*
X155766666Y-118126190D01*
X155623809Y-118626190D02*
X155623809Y-118126190D01*
X156219047Y-118626190D02*
X156052380Y-118388095D01*
X155933333Y-118626190D02*
X155933333Y-118126190D01*
X156123809Y-118126190D01*
X156171428Y-118150000D01*
X156195238Y-118173809D01*
X156219047Y-118221428D01*
X156219047Y-118292857D01*
X156195238Y-118340476D01*
X156171428Y-118364285D01*
X156123809Y-118388095D01*
X155933333Y-118388095D01*
X156433333Y-118626190D02*
X156433333Y-118126190D01*
X156600000Y-118483333D01*
X156766666Y-118126190D01*
X156766666Y-118626190D01*
X156980952Y-118173809D02*
X157004761Y-118150000D01*
X157052380Y-118126190D01*
X157171428Y-118126190D01*
X157219047Y-118150000D01*
X157242857Y-118173809D01*
X157266666Y-118221428D01*
X157266666Y-118269047D01*
X157242857Y-118340476D01*
X156957142Y-118626190D01*
X157266666Y-118626190D01*
X158123809Y-118150000D02*
X158076190Y-118126190D01*
X158004761Y-118126190D01*
X157933333Y-118150000D01*
X157885714Y-118197619D01*
X157861904Y-118245238D01*
X157838095Y-118340476D01*
X157838095Y-118411904D01*
X157861904Y-118507142D01*
X157885714Y-118554761D01*
X157933333Y-118602380D01*
X158004761Y-118626190D01*
X158052380Y-118626190D01*
X158123809Y-118602380D01*
X158147619Y-118578571D01*
X158147619Y-118411904D01*
X158052380Y-118411904D01*
X158361904Y-118626190D02*
X158361904Y-118126190D01*
X158647619Y-118626190D01*
X158647619Y-118126190D01*
X158885714Y-118626190D02*
X158885714Y-118126190D01*
X159004761Y-118126190D01*
X159076190Y-118150000D01*
X159123809Y-118197619D01*
X159147619Y-118245238D01*
X159171428Y-118340476D01*
X159171428Y-118411904D01*
X159147619Y-118507142D01*
X159123809Y-118554761D01*
X159076190Y-118602380D01*
X159004761Y-118626190D01*
X158885714Y-118626190D01*
D13*
X135761904Y-101851190D02*
X135761904Y-102308333D01*
X135761904Y-102079761D02*
X134961904Y-102079761D01*
X135076190Y-102155952D01*
X135152380Y-102232142D01*
X135190476Y-102308333D01*
X135228571Y-101165476D02*
X135761904Y-101165476D01*
X135228571Y-101508333D02*
X135647619Y-101508333D01*
X135723809Y-101470238D01*
X135761904Y-101394047D01*
X135761904Y-101279761D01*
X135723809Y-101203571D01*
X135685714Y-101165476D01*
X135342857Y-100517857D02*
X135342857Y-100784523D01*
X135761904Y-100784523D02*
X134961904Y-100784523D01*
X134961904Y-100403571D01*
D10*
X163963098Y-114130950D02*
X163963098Y-113130950D01*
X164344050Y-113130950D01*
X164439288Y-113178570D01*
X164486907Y-113226189D01*
X164534526Y-113321427D01*
X164534526Y-113464284D01*
X164486907Y-113559522D01*
X164439288Y-113607141D01*
X164344050Y-113654760D01*
X163963098Y-113654760D01*
X164867860Y-113130950D02*
X165105955Y-114130950D01*
X165296431Y-113416665D01*
X165486907Y-114130950D01*
X165725002Y-113130950D01*
X166105955Y-114130950D02*
X166105955Y-113130950D01*
X166439288Y-113845236D01*
X166772621Y-113130950D01*
X166772621Y-114130950D01*
X139363095Y-105952380D02*
X139982142Y-105952380D01*
X139648809Y-106333333D01*
X139791666Y-106333333D01*
X139886904Y-106380952D01*
X139934523Y-106428571D01*
X139982142Y-106523809D01*
X139982142Y-106761904D01*
X139934523Y-106857142D01*
X139886904Y-106904761D01*
X139791666Y-106952380D01*
X139505952Y-106952380D01*
X139410714Y-106904761D01*
X139363095Y-106857142D01*
X140267857Y-105952380D02*
X140601190Y-106952380D01*
X140934523Y-105952380D01*
D13*
X135661904Y-106795238D02*
X135661904Y-107252380D01*
X135661904Y-107023809D02*
X134861904Y-107023809D01*
X134976190Y-107100000D01*
X135052380Y-107176190D01*
X135090476Y-107252380D01*
X134861904Y-106300000D02*
X134861904Y-106223809D01*
X134900000Y-106147619D01*
X134938095Y-106109523D01*
X135014285Y-106071428D01*
X135166666Y-106033333D01*
X135357142Y-106033333D01*
X135509523Y-106071428D01*
X135585714Y-106109523D01*
X135623809Y-106147619D01*
X135661904Y-106223809D01*
X135661904Y-106300000D01*
X135623809Y-106376190D01*
X135585714Y-106414285D01*
X135509523Y-106452380D01*
X135357142Y-106490476D01*
X135166666Y-106490476D01*
X135014285Y-106452380D01*
X134938095Y-106414285D01*
X134900000Y-106376190D01*
X134861904Y-106300000D01*
X134861904Y-105538095D02*
X134861904Y-105461904D01*
X134900000Y-105385714D01*
X134938095Y-105347619D01*
X135014285Y-105309523D01*
X135166666Y-105271428D01*
X135357142Y-105271428D01*
X135509523Y-105309523D01*
X135585714Y-105347619D01*
X135623809Y-105385714D01*
X135661904Y-105461904D01*
X135661904Y-105538095D01*
X135623809Y-105614285D01*
X135585714Y-105652380D01*
X135509523Y-105690476D01*
X135357142Y-105728571D01*
X135166666Y-105728571D01*
X135014285Y-105690476D01*
X134938095Y-105652380D01*
X134900000Y-105614285D01*
X134861904Y-105538095D01*
X135128571Y-104928571D02*
X135661904Y-104928571D01*
X135204761Y-104928571D02*
X135166666Y-104890476D01*
X135128571Y-104814285D01*
X135128571Y-104700000D01*
X135166666Y-104623809D01*
X135242857Y-104585714D01*
X135661904Y-104585714D01*
D10*
X129489285Y-90902380D02*
X129822619Y-91902380D01*
X130155952Y-90902380D01*
X130917857Y-91854761D02*
X130822619Y-91902380D01*
X130632142Y-91902380D01*
X130536904Y-91854761D01*
X130489285Y-91807142D01*
X130441666Y-91711904D01*
X130441666Y-91426190D01*
X130489285Y-91330952D01*
X130536904Y-91283333D01*
X130632142Y-91235714D01*
X130822619Y-91235714D01*
X130917857Y-91283333D01*
X131775000Y-91854761D02*
X131679761Y-91902380D01*
X131489285Y-91902380D01*
X131394047Y-91854761D01*
X131346428Y-91807142D01*
X131298809Y-91711904D01*
X131298809Y-91426190D01*
X131346428Y-91330952D01*
X131394047Y-91283333D01*
X131489285Y-91235714D01*
X131679761Y-91235714D01*
X131775000Y-91283333D01*
X132965476Y-91902380D02*
X132965476Y-90902380D01*
X133298809Y-91616666D01*
X133632142Y-90902380D01*
X133632142Y-91902380D01*
X134298809Y-90902380D02*
X134489285Y-90902380D01*
X134584523Y-90950000D01*
X134679761Y-91045238D01*
X134727380Y-91235714D01*
X134727380Y-91569047D01*
X134679761Y-91759523D01*
X134584523Y-91854761D01*
X134489285Y-91902380D01*
X134298809Y-91902380D01*
X134203571Y-91854761D01*
X134108333Y-91759523D01*
X134060714Y-91569047D01*
X134060714Y-91235714D01*
X134108333Y-91045238D01*
X134203571Y-90950000D01*
X134298809Y-90902380D01*
X135108333Y-91854761D02*
X135251190Y-91902380D01*
X135489285Y-91902380D01*
X135584523Y-91854761D01*
X135632142Y-91807142D01*
X135679761Y-91711904D01*
X135679761Y-91616666D01*
X135632142Y-91521428D01*
X135584523Y-91473809D01*
X135489285Y-91426190D01*
X135298809Y-91378571D01*
X135203571Y-91330952D01*
X135155952Y-91283333D01*
X135108333Y-91188095D01*
X135108333Y-91092857D01*
X135155952Y-90997619D01*
X135203571Y-90950000D01*
X135298809Y-90902380D01*
X135536904Y-90902380D01*
X135679761Y-90950000D01*
X136108333Y-91902380D02*
X136108333Y-90902380D01*
X137870238Y-90950000D02*
X137775000Y-90902380D01*
X137632142Y-90902380D01*
X137489285Y-90950000D01*
X137394047Y-91045238D01*
X137346428Y-91140476D01*
X137298809Y-91330952D01*
X137298809Y-91473809D01*
X137346428Y-91664285D01*
X137394047Y-91759523D01*
X137489285Y-91854761D01*
X137632142Y-91902380D01*
X137727380Y-91902380D01*
X137870238Y-91854761D01*
X137917857Y-91807142D01*
X137917857Y-91473809D01*
X137727380Y-91473809D01*
X138346428Y-91902380D02*
X138346428Y-90902380D01*
X138917857Y-91902380D01*
X138917857Y-90902380D01*
X139394047Y-91902380D02*
X139394047Y-90902380D01*
X139632142Y-90902380D01*
X139775000Y-90950000D01*
X139870238Y-91045238D01*
X139917857Y-91140476D01*
X139965476Y-91330952D01*
X139965476Y-91473809D01*
X139917857Y-91664285D01*
X139870238Y-91759523D01*
X139775000Y-91854761D01*
X139632142Y-91902380D01*
X139394047Y-91902380D01*
X141077380Y-105730952D02*
X142077380Y-105397619D01*
X141077380Y-105064285D01*
X142029761Y-104016666D02*
X142077380Y-103873809D01*
X142077380Y-103635714D01*
X142029761Y-103540476D01*
X141982142Y-103492857D01*
X141886904Y-103445238D01*
X141791666Y-103445238D01*
X141696428Y-103492857D01*
X141648809Y-103540476D01*
X141601190Y-103635714D01*
X141553571Y-103826190D01*
X141505952Y-103921428D01*
X141458333Y-103969047D01*
X141363095Y-104016666D01*
X141267857Y-104016666D01*
X141172619Y-103969047D01*
X141125000Y-103921428D01*
X141077380Y-103826190D01*
X141077380Y-103588095D01*
X141125000Y-103445238D01*
X142029761Y-102635714D02*
X142077380Y-102730952D01*
X142077380Y-102921428D01*
X142029761Y-103016666D01*
X141934523Y-103064285D01*
X141553571Y-103064285D01*
X141458333Y-103016666D01*
X141410714Y-102921428D01*
X141410714Y-102730952D01*
X141458333Y-102635714D01*
X141553571Y-102588095D01*
X141648809Y-102588095D01*
X141744047Y-103064285D01*
X142077380Y-102016666D02*
X142029761Y-102111904D01*
X141934523Y-102159523D01*
X141077380Y-102159523D01*
D13*
X155217857Y-93136904D02*
X154760714Y-93136904D01*
X154989285Y-93136904D02*
X154989285Y-92336904D01*
X154913095Y-92451190D01*
X154836904Y-92527380D01*
X154760714Y-92565476D01*
X155713095Y-92336904D02*
X155789285Y-92336904D01*
X155865476Y-92375000D01*
X155903571Y-92413095D01*
X155941666Y-92489285D01*
X155979761Y-92641666D01*
X155979761Y-92832142D01*
X155941666Y-92984523D01*
X155903571Y-93060714D01*
X155865476Y-93098809D01*
X155789285Y-93136904D01*
X155713095Y-93136904D01*
X155636904Y-93098809D01*
X155598809Y-93060714D01*
X155560714Y-92984523D01*
X155522619Y-92832142D01*
X155522619Y-92641666D01*
X155560714Y-92489285D01*
X155598809Y-92413095D01*
X155636904Y-92375000D01*
X155713095Y-92336904D01*
X156475000Y-92336904D02*
X156551190Y-92336904D01*
X156627380Y-92375000D01*
X156665476Y-92413095D01*
X156703571Y-92489285D01*
X156741666Y-92641666D01*
X156741666Y-92832142D01*
X156703571Y-92984523D01*
X156665476Y-93060714D01*
X156627380Y-93098809D01*
X156551190Y-93136904D01*
X156475000Y-93136904D01*
X156398809Y-93098809D01*
X156360714Y-93060714D01*
X156322619Y-92984523D01*
X156284523Y-92832142D01*
X156284523Y-92641666D01*
X156322619Y-92489285D01*
X156360714Y-92413095D01*
X156398809Y-92375000D01*
X156475000Y-92336904D01*
X157084523Y-93136904D02*
X157084523Y-92336904D01*
X157160714Y-92832142D02*
X157389285Y-93136904D01*
X157389285Y-92603571D02*
X157084523Y-92908333D01*
X139239285Y-92771428D02*
X139125000Y-92771428D01*
X139067857Y-92800000D01*
X139039285Y-92828571D01*
X138982142Y-92914285D01*
X138953571Y-93028571D01*
X138953571Y-93257142D01*
X138982142Y-93314285D01*
X139010714Y-93342857D01*
X139067857Y-93371428D01*
X139182142Y-93371428D01*
X139239285Y-93342857D01*
X139267857Y-93314285D01*
X139296428Y-93257142D01*
X139296428Y-93114285D01*
X139267857Y-93057142D01*
X139239285Y-93028571D01*
X139182142Y-93000000D01*
X139067857Y-93000000D01*
X139010714Y-93028571D01*
X138982142Y-93057142D01*
X138953571Y-93114285D01*
X130221428Y-96671428D02*
X129878571Y-96671428D01*
X130050000Y-96671428D02*
X130050000Y-96071428D01*
X129992857Y-96157142D01*
X129935714Y-96214285D01*
X129878571Y-96242857D01*
X156379761Y-97986904D02*
X155922619Y-97986904D01*
X156151190Y-97986904D02*
X156151190Y-97186904D01*
X156075000Y-97301190D01*
X155998809Y-97377380D01*
X155922619Y-97415476D01*
X156875000Y-97186904D02*
X156951190Y-97186904D01*
X157027380Y-97225000D01*
X157065476Y-97263095D01*
X157103571Y-97339285D01*
X157141666Y-97491666D01*
X157141666Y-97682142D01*
X157103571Y-97834523D01*
X157065476Y-97910714D01*
X157027380Y-97948809D01*
X156951190Y-97986904D01*
X156875000Y-97986904D01*
X156798809Y-97948809D01*
X156760714Y-97910714D01*
X156722619Y-97834523D01*
X156684523Y-97682142D01*
X156684523Y-97491666D01*
X156722619Y-97339285D01*
X156760714Y-97263095D01*
X156798809Y-97225000D01*
X156875000Y-97186904D01*
X157636904Y-97186904D02*
X157713095Y-97186904D01*
X157789285Y-97225000D01*
X157827380Y-97263095D01*
X157865476Y-97339285D01*
X157903571Y-97491666D01*
X157903571Y-97682142D01*
X157865476Y-97834523D01*
X157827380Y-97910714D01*
X157789285Y-97948809D01*
X157713095Y-97986904D01*
X157636904Y-97986904D01*
X157560714Y-97948809D01*
X157522619Y-97910714D01*
X157484523Y-97834523D01*
X157446428Y-97682142D01*
X157446428Y-97491666D01*
X157484523Y-97339285D01*
X157522619Y-97263095D01*
X157560714Y-97225000D01*
X157636904Y-97186904D01*
X158246428Y-97453571D02*
X158246428Y-97986904D01*
X158246428Y-97529761D02*
X158284523Y-97491666D01*
X158360714Y-97453571D01*
X158475000Y-97453571D01*
X158551190Y-97491666D01*
X158589285Y-97567857D01*
X158589285Y-97986904D01*
X151401190Y-100378571D02*
X151401190Y-100911904D01*
X151210714Y-100073809D02*
X151020238Y-100645238D01*
X151515476Y-100645238D01*
X151820238Y-100835714D02*
X151858333Y-100873809D01*
X151820238Y-100911904D01*
X151782142Y-100873809D01*
X151820238Y-100835714D01*
X151820238Y-100911904D01*
X152125000Y-100111904D02*
X152658333Y-100111904D01*
X152315476Y-100911904D01*
X153305952Y-100378571D02*
X153305952Y-100911904D01*
X152963095Y-100378571D02*
X152963095Y-100797619D01*
X153001190Y-100873809D01*
X153077380Y-100911904D01*
X153191666Y-100911904D01*
X153267857Y-100873809D01*
X153305952Y-100835714D01*
X153953571Y-100492857D02*
X153686904Y-100492857D01*
X153686904Y-100911904D02*
X153686904Y-100111904D01*
X154067857Y-100111904D01*
D10*
X158710714Y-108048285D02*
X158882142Y-108105428D01*
X158939285Y-108162571D01*
X158996428Y-108276857D01*
X158996428Y-108448285D01*
X158939285Y-108562571D01*
X158882142Y-108619714D01*
X158767857Y-108676857D01*
X158310714Y-108676857D01*
X158310714Y-107476857D01*
X158710714Y-107476857D01*
X158825000Y-107534000D01*
X158882142Y-107591142D01*
X158939285Y-107705428D01*
X158939285Y-107819714D01*
X158882142Y-107934000D01*
X158825000Y-107991142D01*
X158710714Y-108048285D01*
X158310714Y-108048285D01*
X158339285Y-110266000D02*
X158910714Y-110266000D01*
X158225000Y-110608857D02*
X158625000Y-109408857D01*
X159025000Y-110608857D01*
D13*
X150195238Y-99557142D02*
X150804761Y-99557142D01*
X150500000Y-99861904D02*
X150500000Y-99252380D01*
D10*
X140109523Y-100452380D02*
X139633333Y-100452380D01*
X139585714Y-100928571D01*
X139633333Y-100880952D01*
X139728571Y-100833333D01*
X139966666Y-100833333D01*
X140061904Y-100880952D01*
X140109523Y-100928571D01*
X140157142Y-101023809D01*
X140157142Y-101261904D01*
X140109523Y-101357142D01*
X140061904Y-101404761D01*
X139966666Y-101452380D01*
X139728571Y-101452380D01*
X139633333Y-101404761D01*
X139585714Y-101357142D01*
X140442857Y-100452380D02*
X140776190Y-101452380D01*
X141109523Y-100452380D01*
X139226190Y-118437619D02*
X139130952Y-118390000D01*
X139035714Y-118294761D01*
X138892857Y-118151904D01*
X138797619Y-118104285D01*
X138702380Y-118104285D01*
X138750000Y-118342380D02*
X138654761Y-118294761D01*
X138559523Y-118199523D01*
X138511904Y-118009047D01*
X138511904Y-117675714D01*
X138559523Y-117485238D01*
X138654761Y-117390000D01*
X138750000Y-117342380D01*
X138940476Y-117342380D01*
X139035714Y-117390000D01*
X139130952Y-117485238D01*
X139178571Y-117675714D01*
X139178571Y-118009047D01*
X139130952Y-118199523D01*
X139035714Y-118294761D01*
X138940476Y-118342380D01*
X138750000Y-118342380D01*
X139559523Y-118294761D02*
X139702380Y-118342380D01*
X139940476Y-118342380D01*
X140035714Y-118294761D01*
X140083333Y-118247142D01*
X140130952Y-118151904D01*
X140130952Y-118056666D01*
X140083333Y-117961428D01*
X140035714Y-117913809D01*
X139940476Y-117866190D01*
X139750000Y-117818571D01*
X139654761Y-117770952D01*
X139607142Y-117723333D01*
X139559523Y-117628095D01*
X139559523Y-117532857D01*
X139607142Y-117437619D01*
X139654761Y-117390000D01*
X139750000Y-117342380D01*
X139988095Y-117342380D01*
X140130952Y-117390000D01*
X141083333Y-118342380D02*
X140511904Y-118342380D01*
X140797619Y-118342380D02*
X140797619Y-117342380D01*
X140702380Y-117485238D01*
X140607142Y-117580476D01*
X140511904Y-117628095D01*
X141940476Y-117342380D02*
X141750000Y-117342380D01*
X141654761Y-117390000D01*
X141607142Y-117437619D01*
X141511904Y-117580476D01*
X141464285Y-117770952D01*
X141464285Y-118151904D01*
X141511904Y-118247142D01*
X141559523Y-118294761D01*
X141654761Y-118342380D01*
X141845238Y-118342380D01*
X141940476Y-118294761D01*
X141988095Y-118247142D01*
X142035714Y-118151904D01*
X142035714Y-117913809D01*
X141988095Y-117818571D01*
X141940476Y-117770952D01*
X141845238Y-117723333D01*
X141654761Y-117723333D01*
X141559523Y-117770952D01*
X141511904Y-117818571D01*
X141464285Y-117913809D01*
X142940476Y-117342380D02*
X142464285Y-117342380D01*
X142416666Y-117818571D01*
X142464285Y-117770952D01*
X142559523Y-117723333D01*
X142797619Y-117723333D01*
X142892857Y-117770952D01*
X142940476Y-117818571D01*
X142988095Y-117913809D01*
X142988095Y-118151904D01*
X142940476Y-118247142D01*
X142892857Y-118294761D01*
X142797619Y-118342380D01*
X142559523Y-118342380D01*
X142464285Y-118294761D01*
X142416666Y-118247142D01*
X144130952Y-118056666D02*
X144607142Y-118056666D01*
X144035714Y-118342380D02*
X144369047Y-117342380D01*
X144702380Y-118342380D01*
X144988095Y-118294761D02*
X145130952Y-118342380D01*
X145369047Y-118342380D01*
X145464285Y-118294761D01*
X145511904Y-118247142D01*
X145559523Y-118151904D01*
X145559523Y-118056666D01*
X145511904Y-117961428D01*
X145464285Y-117913809D01*
X145369047Y-117866190D01*
X145178571Y-117818571D01*
X145083333Y-117770952D01*
X145035714Y-117723333D01*
X144988095Y-117628095D01*
X144988095Y-117532857D01*
X145035714Y-117437619D01*
X145083333Y-117390000D01*
X145178571Y-117342380D01*
X145416666Y-117342380D01*
X145559523Y-117390000D01*
X146464285Y-117342380D02*
X145988095Y-117342380D01*
X145940476Y-117818571D01*
X145988095Y-117770952D01*
X146083333Y-117723333D01*
X146321428Y-117723333D01*
X146416666Y-117770952D01*
X146464285Y-117818571D01*
X146511904Y-117913809D01*
X146511904Y-118151904D01*
X146464285Y-118247142D01*
X146416666Y-118294761D01*
X146321428Y-118342380D01*
X146083333Y-118342380D01*
X145988095Y-118294761D01*
X145940476Y-118247142D01*
X147130952Y-117342380D02*
X147226190Y-117342380D01*
X147321428Y-117390000D01*
X147369047Y-117437619D01*
X147416666Y-117532857D01*
X147464285Y-117723333D01*
X147464285Y-117961428D01*
X147416666Y-118151904D01*
X147369047Y-118247142D01*
X147321428Y-118294761D01*
X147226190Y-118342380D01*
X147130952Y-118342380D01*
X147035714Y-118294761D01*
X146988095Y-118247142D01*
X146940476Y-118151904D01*
X146892857Y-117961428D01*
X146892857Y-117723333D01*
X146940476Y-117532857D01*
X146988095Y-117437619D01*
X147035714Y-117390000D01*
X147130952Y-117342380D01*
X148321428Y-117675714D02*
X148321428Y-118342380D01*
X148083333Y-117294761D02*
X147845238Y-118009047D01*
X148464285Y-118009047D01*
X148750000Y-117342380D02*
X149416666Y-117342380D01*
X148988095Y-118342380D01*
X149750000Y-118056666D02*
X150226190Y-118056666D01*
X149654761Y-118342380D02*
X149988095Y-117342380D01*
X150321428Y-118342380D01*
X139107142Y-119952380D02*
X139107142Y-118952380D01*
X139488095Y-118952380D01*
X139583333Y-119000000D01*
X139630952Y-119047619D01*
X139678571Y-119142857D01*
X139678571Y-119285714D01*
X139630952Y-119380952D01*
X139583333Y-119428571D01*
X139488095Y-119476190D01*
X139107142Y-119476190D01*
X140678571Y-119952380D02*
X140345238Y-119476190D01*
X140107142Y-119952380D02*
X140107142Y-118952380D01*
X140488095Y-118952380D01*
X140583333Y-119000000D01*
X140630952Y-119047619D01*
X140678571Y-119142857D01*
X140678571Y-119285714D01*
X140630952Y-119380952D01*
X140583333Y-119428571D01*
X140488095Y-119476190D01*
X140107142Y-119476190D01*
X141297619Y-118952380D02*
X141488095Y-118952380D01*
X141583333Y-119000000D01*
X141678571Y-119095238D01*
X141726190Y-119285714D01*
X141726190Y-119619047D01*
X141678571Y-119809523D01*
X141583333Y-119904761D01*
X141488095Y-119952380D01*
X141297619Y-119952380D01*
X141202380Y-119904761D01*
X141107142Y-119809523D01*
X141059523Y-119619047D01*
X141059523Y-119285714D01*
X141107142Y-119095238D01*
X141202380Y-119000000D01*
X141297619Y-118952380D01*
X142678571Y-119000000D02*
X142583333Y-118952380D01*
X142440476Y-118952380D01*
X142297619Y-119000000D01*
X142202380Y-119095238D01*
X142154761Y-119190476D01*
X142107142Y-119380952D01*
X142107142Y-119523809D01*
X142154761Y-119714285D01*
X142202380Y-119809523D01*
X142297619Y-119904761D01*
X142440476Y-119952380D01*
X142535714Y-119952380D01*
X142678571Y-119904761D01*
X142726190Y-119857142D01*
X142726190Y-119523809D01*
X142535714Y-119523809D01*
X143726190Y-119952380D02*
X143392857Y-119476190D01*
X143154761Y-119952380D02*
X143154761Y-118952380D01*
X143535714Y-118952380D01*
X143630952Y-119000000D01*
X143678571Y-119047619D01*
X143726190Y-119142857D01*
X143726190Y-119285714D01*
X143678571Y-119380952D01*
X143630952Y-119428571D01*
X143535714Y-119476190D01*
X143154761Y-119476190D01*
X144107142Y-119666666D02*
X144583333Y-119666666D01*
X144011904Y-119952380D02*
X144345238Y-118952380D01*
X144678571Y-119952380D01*
X145011904Y-119952380D02*
X145011904Y-118952380D01*
X145345238Y-119666666D01*
X145678571Y-118952380D01*
X145678571Y-119952380D01*
X146154761Y-119952380D02*
X146154761Y-118952380D01*
X146488095Y-119666666D01*
X146821428Y-118952380D01*
X146821428Y-119952380D01*
X147250000Y-119666666D02*
X147726190Y-119666666D01*
X147154761Y-119952380D02*
X147488095Y-118952380D01*
X147821428Y-119952380D01*
X148488095Y-119428571D02*
X148630952Y-119476190D01*
X148678571Y-119523809D01*
X148726190Y-119619047D01*
X148726190Y-119761904D01*
X148678571Y-119857142D01*
X148630952Y-119904761D01*
X148535714Y-119952380D01*
X148154761Y-119952380D01*
X148154761Y-118952380D01*
X148488095Y-118952380D01*
X148583333Y-119000000D01*
X148630952Y-119047619D01*
X148678571Y-119142857D01*
X148678571Y-119238095D01*
X148630952Y-119333333D01*
X148583333Y-119380952D01*
X148488095Y-119428571D01*
X148154761Y-119428571D01*
X149630952Y-119952380D02*
X149154761Y-119952380D01*
X149154761Y-118952380D01*
X149964285Y-119428571D02*
X150297619Y-119428571D01*
X150440476Y-119952380D02*
X149964285Y-119952380D01*
X149964285Y-118952380D01*
X150440476Y-118952380D01*
X139988095Y-121514761D02*
X140130952Y-121562380D01*
X140369047Y-121562380D01*
X140464285Y-121514761D01*
X140511904Y-121467142D01*
X140559523Y-121371904D01*
X140559523Y-121276666D01*
X140511904Y-121181428D01*
X140464285Y-121133809D01*
X140369047Y-121086190D01*
X140178571Y-121038571D01*
X140083333Y-120990952D01*
X140035714Y-120943333D01*
X139988095Y-120848095D01*
X139988095Y-120752857D01*
X140035714Y-120657619D01*
X140083333Y-120610000D01*
X140178571Y-120562380D01*
X140416666Y-120562380D01*
X140559523Y-120610000D01*
X140988095Y-121038571D02*
X141321428Y-121038571D01*
X141464285Y-121562380D02*
X140988095Y-121562380D01*
X140988095Y-120562380D01*
X141464285Y-120562380D01*
X141892857Y-121562380D02*
X141892857Y-120562380D01*
X142464285Y-121562380D01*
X142464285Y-120562380D01*
X142892857Y-121514761D02*
X143035714Y-121562380D01*
X143273809Y-121562380D01*
X143369047Y-121514761D01*
X143416666Y-121467142D01*
X143464285Y-121371904D01*
X143464285Y-121276666D01*
X143416666Y-121181428D01*
X143369047Y-121133809D01*
X143273809Y-121086190D01*
X143083333Y-121038571D01*
X142988095Y-120990952D01*
X142940476Y-120943333D01*
X142892857Y-120848095D01*
X142892857Y-120752857D01*
X142940476Y-120657619D01*
X142988095Y-120610000D01*
X143083333Y-120562380D01*
X143321428Y-120562380D01*
X143464285Y-120610000D01*
X144083333Y-120562380D02*
X144273809Y-120562380D01*
X144369047Y-120610000D01*
X144464285Y-120705238D01*
X144511904Y-120895714D01*
X144511904Y-121229047D01*
X144464285Y-121419523D01*
X144369047Y-121514761D01*
X144273809Y-121562380D01*
X144083333Y-121562380D01*
X143988095Y-121514761D01*
X143892857Y-121419523D01*
X143845238Y-121229047D01*
X143845238Y-120895714D01*
X143892857Y-120705238D01*
X143988095Y-120610000D01*
X144083333Y-120562380D01*
X145511904Y-121562380D02*
X145178571Y-121086190D01*
X144940476Y-121562380D02*
X144940476Y-120562380D01*
X145321428Y-120562380D01*
X145416666Y-120610000D01*
X145464285Y-120657619D01*
X145511904Y-120752857D01*
X145511904Y-120895714D01*
X145464285Y-120990952D01*
X145416666Y-121038571D01*
X145321428Y-121086190D01*
X144940476Y-121086190D01*
X146559523Y-120562380D02*
X146892857Y-121562380D01*
X147226190Y-120562380D01*
X148083333Y-121562380D02*
X147511904Y-121562380D01*
X147797619Y-121562380D02*
X147797619Y-120562380D01*
X147702380Y-120705238D01*
X147607142Y-120800476D01*
X147511904Y-120848095D01*
X148511904Y-121467142D02*
X148559523Y-121514761D01*
X148511904Y-121562380D01*
X148464285Y-121514761D01*
X148511904Y-121467142D01*
X148511904Y-121562380D01*
X149178571Y-120562380D02*
X149273809Y-120562380D01*
X149369047Y-120610000D01*
X149416666Y-120657619D01*
X149464285Y-120752857D01*
X149511904Y-120943333D01*
X149511904Y-121181428D01*
X149464285Y-121371904D01*
X149416666Y-121467142D01*
X149369047Y-121514761D01*
X149273809Y-121562380D01*
X149178571Y-121562380D01*
X149083333Y-121514761D01*
X149035714Y-121467142D01*
X148988095Y-121371904D01*
X148940476Y-121181428D01*
X148940476Y-120943333D01*
X148988095Y-120752857D01*
X149035714Y-120657619D01*
X149083333Y-120610000D01*
X149178571Y-120562380D01*
X150986904Y-113435714D02*
X151367857Y-113435714D01*
X151129761Y-113102380D02*
X151129761Y-113959523D01*
X151177380Y-114054761D01*
X151272619Y-114102380D01*
X151367857Y-114102380D01*
X151701190Y-114102380D02*
X151701190Y-113102380D01*
X152129761Y-114102380D02*
X152129761Y-113578571D01*
X152082142Y-113483333D01*
X151986904Y-113435714D01*
X151844047Y-113435714D01*
X151748809Y-113483333D01*
X151701190Y-113530952D01*
X152986904Y-114054761D02*
X152891666Y-114102380D01*
X152701190Y-114102380D01*
X152605952Y-114054761D01*
X152558333Y-113959523D01*
X152558333Y-113578571D01*
X152605952Y-113483333D01*
X152701190Y-113435714D01*
X152891666Y-113435714D01*
X152986904Y-113483333D01*
X153034523Y-113578571D01*
X153034523Y-113673809D01*
X152558333Y-113769047D01*
X153463095Y-114102380D02*
X153463095Y-113435714D01*
X153463095Y-113626190D02*
X153510714Y-113530952D01*
X153558333Y-113483333D01*
X153653571Y-113435714D01*
X153748809Y-113435714D01*
X154082142Y-114102380D02*
X154082142Y-113435714D01*
X154082142Y-113530952D02*
X154129761Y-113483333D01*
X154225000Y-113435714D01*
X154367857Y-113435714D01*
X154463095Y-113483333D01*
X154510714Y-113578571D01*
X154510714Y-114102380D01*
X154510714Y-113578571D02*
X154558333Y-113483333D01*
X154653571Y-113435714D01*
X154796428Y-113435714D01*
X154891666Y-113483333D01*
X154939285Y-113578571D01*
X154939285Y-114102380D01*
X155415476Y-114102380D02*
X155415476Y-113435714D01*
X155415476Y-113102380D02*
X155367857Y-113150000D01*
X155415476Y-113197619D01*
X155463095Y-113150000D01*
X155415476Y-113102380D01*
X155415476Y-113197619D01*
X155844047Y-114054761D02*
X155939285Y-114102380D01*
X156129761Y-114102380D01*
X156225000Y-114054761D01*
X156272619Y-113959523D01*
X156272619Y-113911904D01*
X156225000Y-113816666D01*
X156129761Y-113769047D01*
X155986904Y-113769047D01*
X155891666Y-113721428D01*
X155844047Y-113626190D01*
X155844047Y-113578571D01*
X155891666Y-113483333D01*
X155986904Y-113435714D01*
X156129761Y-113435714D01*
X156225000Y-113483333D01*
X156558333Y-113435714D02*
X156939285Y-113435714D01*
X156701190Y-113102380D02*
X156701190Y-113959523D01*
X156748809Y-114054761D01*
X156844047Y-114102380D01*
X156939285Y-114102380D01*
X157415476Y-114102380D02*
X157320238Y-114054761D01*
X157272619Y-114007142D01*
X157225000Y-113911904D01*
X157225000Y-113626190D01*
X157272619Y-113530952D01*
X157320238Y-113483333D01*
X157415476Y-113435714D01*
X157558333Y-113435714D01*
X157653571Y-113483333D01*
X157701190Y-113530952D01*
X157748809Y-113626190D01*
X157748809Y-113911904D01*
X157701190Y-114007142D01*
X157653571Y-114054761D01*
X157558333Y-114102380D01*
X157415476Y-114102380D01*
X158177380Y-114102380D02*
X158177380Y-113435714D01*
X158177380Y-113626190D02*
X158225000Y-113530952D01*
X158272619Y-113483333D01*
X158367857Y-113435714D01*
X158463095Y-113435714D01*
X129664285Y-98702380D02*
X129664285Y-97702380D01*
X129997619Y-98416666D01*
X130330952Y-97702380D01*
X130330952Y-98702380D01*
X130807142Y-98702380D02*
X130807142Y-97702380D01*
X131235714Y-98654761D02*
X131378571Y-98702380D01*
X131616666Y-98702380D01*
X131711904Y-98654761D01*
X131759523Y-98607142D01*
X131807142Y-98511904D01*
X131807142Y-98416666D01*
X131759523Y-98321428D01*
X131711904Y-98273809D01*
X131616666Y-98226190D01*
X131426190Y-98178571D01*
X131330952Y-98130952D01*
X131283333Y-98083333D01*
X131235714Y-97988095D01*
X131235714Y-97892857D01*
X131283333Y-97797619D01*
X131330952Y-97750000D01*
X131426190Y-97702380D01*
X131664285Y-97702380D01*
X131807142Y-97750000D01*
X132426190Y-97702380D02*
X132616666Y-97702380D01*
X132711904Y-97750000D01*
X132807142Y-97845238D01*
X132854761Y-98035714D01*
X132854761Y-98369047D01*
X132807142Y-98559523D01*
X132711904Y-98654761D01*
X132616666Y-98702380D01*
X132426190Y-98702380D01*
X132330952Y-98654761D01*
X132235714Y-98559523D01*
X132188095Y-98369047D01*
X132188095Y-98035714D01*
X132235714Y-97845238D01*
X132330952Y-97750000D01*
X132426190Y-97702380D01*
X133997619Y-98654761D02*
X134140476Y-98702380D01*
X134378571Y-98702380D01*
X134473809Y-98654761D01*
X134521428Y-98607142D01*
X134569047Y-98511904D01*
X134569047Y-98416666D01*
X134521428Y-98321428D01*
X134473809Y-98273809D01*
X134378571Y-98226190D01*
X134188095Y-98178571D01*
X134092857Y-98130952D01*
X134045238Y-98083333D01*
X133997619Y-97988095D01*
X133997619Y-97892857D01*
X134045238Y-97797619D01*
X134092857Y-97750000D01*
X134188095Y-97702380D01*
X134426190Y-97702380D01*
X134569047Y-97750000D01*
X135569047Y-98607142D02*
X135521428Y-98654761D01*
X135378571Y-98702380D01*
X135283333Y-98702380D01*
X135140476Y-98654761D01*
X135045238Y-98559523D01*
X134997619Y-98464285D01*
X134950000Y-98273809D01*
X134950000Y-98130952D01*
X134997619Y-97940476D01*
X135045238Y-97845238D01*
X135140476Y-97750000D01*
X135283333Y-97702380D01*
X135378571Y-97702380D01*
X135521428Y-97750000D01*
X135569047Y-97797619D01*
X135997619Y-98702380D02*
X135997619Y-97702380D01*
X136569047Y-98702380D02*
X136140476Y-98130952D01*
X136569047Y-97702380D02*
X135997619Y-98273809D01*
X138330952Y-98607142D02*
X138283333Y-98654761D01*
X138140476Y-98702380D01*
X138045238Y-98702380D01*
X137902380Y-98654761D01*
X137807142Y-98559523D01*
X137759523Y-98464285D01*
X137711904Y-98273809D01*
X137711904Y-98130952D01*
X137759523Y-97940476D01*
X137807142Y-97845238D01*
X137902380Y-97750000D01*
X138045238Y-97702380D01*
X138140476Y-97702380D01*
X138283333Y-97750000D01*
X138330952Y-97797619D01*
X138711904Y-98654761D02*
X138854761Y-98702380D01*
X139092857Y-98702380D01*
X139188095Y-98654761D01*
X139235714Y-98607142D01*
X139283333Y-98511904D01*
X139283333Y-98416666D01*
X139235714Y-98321428D01*
X139188095Y-98273809D01*
X139092857Y-98226190D01*
X138902380Y-98178571D01*
X138807142Y-98130952D01*
X138759523Y-98083333D01*
X138711904Y-97988095D01*
X138711904Y-97892857D01*
X138759523Y-97797619D01*
X138807142Y-97750000D01*
X138902380Y-97702380D01*
X139140476Y-97702380D01*
X139283333Y-97750000D01*
D13*
X140541666Y-87788095D02*
X140579761Y-87750000D01*
X140655952Y-87711904D01*
X140846428Y-87711904D01*
X140922619Y-87750000D01*
X140960714Y-87788095D01*
X140998809Y-87864285D01*
X140998809Y-87940476D01*
X140960714Y-88054761D01*
X140503571Y-88511904D01*
X140998809Y-88511904D01*
X141494047Y-87711904D02*
X141570238Y-87711904D01*
X141646428Y-87750000D01*
X141684523Y-87788095D01*
X141722619Y-87864285D01*
X141760714Y-88016666D01*
X141760714Y-88207142D01*
X141722619Y-88359523D01*
X141684523Y-88435714D01*
X141646428Y-88473809D01*
X141570238Y-88511904D01*
X141494047Y-88511904D01*
X141417857Y-88473809D01*
X141379761Y-88435714D01*
X141341666Y-88359523D01*
X141303571Y-88207142D01*
X141303571Y-88016666D01*
X141341666Y-87864285D01*
X141379761Y-87788095D01*
X141417857Y-87750000D01*
X141494047Y-87711904D01*
X142103571Y-88511904D02*
X142103571Y-87711904D01*
X142179761Y-88207142D02*
X142408333Y-88511904D01*
X142408333Y-87978571D02*
X142103571Y-88283333D01*
D11*
%TO.C,J3*%
X154330000Y-117080000D02*
X154330000Y-114480000D01*
X151670000Y-117080000D02*
X151670000Y-114480000D01*
X154330000Y-119680000D02*
X153000000Y-119680000D01*
X154330000Y-117080000D02*
X151670000Y-117080000D01*
X154330000Y-114480000D02*
X151670000Y-114480000D01*
X154330000Y-118350000D02*
X154330000Y-119680000D01*
%TO.C,C1*%
X155813948Y-95430600D02*
X156336452Y-95430600D01*
X155813948Y-96900600D02*
X156336452Y-96900600D01*
%TO.C,JP2*%
X156300000Y-117800000D02*
X156300000Y-115000000D01*
X158300000Y-117800000D02*
X156300000Y-117800000D01*
X156300000Y-115000000D02*
X158300000Y-115000000D01*
X158300000Y-115000000D02*
X158300000Y-117800000D01*
%TO.C,J1*%
X155170000Y-108855000D02*
X155170000Y-106255000D01*
X157830000Y-108855000D02*
X157830000Y-106255000D01*
X157830000Y-111455000D02*
X156500000Y-111455000D01*
X157830000Y-106255000D02*
X155170000Y-106255000D01*
X157830000Y-110125000D02*
X157830000Y-111455000D01*
X157830000Y-108855000D02*
X155170000Y-108855000D01*
%TO.C,J5*%
X160537860Y-114888570D02*
X163197860Y-114888570D01*
X160537860Y-94448570D02*
X161867860Y-94448570D01*
X160537860Y-97048570D02*
X163197860Y-97048570D01*
X163197860Y-97048570D02*
X163197860Y-114888570D01*
X160537860Y-95778570D02*
X160537860Y-94448570D01*
X160537860Y-97048570D02*
X160537860Y-114888570D01*
%TO.C,C3*%
X137635000Y-101711252D02*
X137635000Y-101188748D01*
X136165000Y-101711252D02*
X136165000Y-101188748D01*
%TO.C,D2*%
X143827500Y-88940000D02*
X143827500Y-90860000D01*
X146512500Y-88940000D02*
X143827500Y-88940000D01*
X143827500Y-90860000D02*
X146512500Y-90860000D01*
%TO.C,R1*%
X155848136Y-93480600D02*
X156302264Y-93480600D01*
X155848136Y-94950600D02*
X156302264Y-94950600D01*
%TO.C,JP1*%
X138900000Y-101600000D02*
X139500000Y-101600000D01*
X139500000Y-105700000D02*
X138900000Y-105700000D01*
X138200000Y-105050000D02*
X138200000Y-102250000D01*
X140200000Y-102250000D02*
X140200000Y-105050000D01*
X137700000Y-102150000D02*
X137700000Y-102750000D01*
X138000000Y-102450000D02*
X137700000Y-102150000D01*
X138000000Y-102450000D02*
X137700000Y-102750000D01*
X139500000Y-105700000D02*
G75*
G03*
X140200000Y-105000000I0J700000D01*
G01*
X138900000Y-101600000D02*
G75*
G03*
X138200000Y-102300000I-1J-699999D01*
G01*
X138200000Y-105000000D02*
G75*
G03*
X138900000Y-105700000I700000J0D01*
G01*
X140200000Y-102300000D02*
G75*
G03*
X139500000Y-101600000I-699999J1D01*
G01*
%TO.C,PRG1*%
X130930000Y-97380000D02*
X132260000Y-97380000D01*
X130930000Y-92180000D02*
X130930000Y-94780000D01*
X130930000Y-96050000D02*
X130930000Y-97380000D01*
X130930000Y-92180000D02*
X138670000Y-92180000D01*
X138670000Y-92180000D02*
X138670000Y-97380000D01*
X133530000Y-97380000D02*
X138670000Y-97380000D01*
X130930000Y-94780000D02*
X133530000Y-94780000D01*
X133530000Y-94780000D02*
X133530000Y-97380000D01*
%TO.C,C2*%
X151040000Y-97930000D02*
X151040000Y-99800000D01*
X154950000Y-97930000D02*
X151040000Y-97930000D01*
X151040000Y-99800000D02*
X154950000Y-99800000D01*
%TO.C,R3*%
X141385436Y-89165000D02*
X141839564Y-89165000D01*
X141385436Y-90635000D02*
X141839564Y-90635000D01*
%TO.C,Q1*%
X150390000Y-95550000D02*
X150390000Y-96200000D01*
X150390000Y-95550000D02*
X150390000Y-94900000D01*
X153510000Y-95550000D02*
X153510000Y-96200000D01*
X153510000Y-95550000D02*
X153510000Y-93875000D01*
%TO.C,D1*%
X150025200Y-96815600D02*
X150025200Y-92515600D01*
X148025200Y-96815600D02*
X150025200Y-96815600D01*
X148025200Y-92515600D02*
X148025200Y-96815600D01*
%TO.C,C4*%
X136115000Y-105638748D02*
X136115000Y-106161252D01*
X137585000Y-105638748D02*
X137585000Y-106161252D01*
%TD*%
M02*
