M48
; DRILL file {KiCad (6.0.7-1)-1} date Sunday, January 22, 2023 at 12:43:32 PM
; FORMAT={-:-/ absolute / metric / decimal}
; #@! TF.CreationDate,2023-01-22T12:43:32-05:00
; #@! TF.GenerationSoftware,Kicad,Pcbnew,(6.0.7-1)-1
; #@! TF.FileFunction,Plated,1,2,PTH
FMAT,2
METRIC
; #@! TA.AperFunction,Plated,PTH,ViaDrill
T1C0.400
; #@! TA.AperFunction,Plated,PTH,ComponentDrill
T2C0.650
; #@! TA.AperFunction,Plated,PTH,ComponentDrill
T3C1.000
%
G90
G05
T1
X138.15Y-106.85
X138.25Y-100.5
X139.425Y-90.0
X140.703Y-104.648
X140.719Y-103.649
X142.655Y-97.945
X143.3Y-104.95
X143.3Y-105.95
X143.3Y-106.949
X144.475Y-117.425
X145.325Y-117.425
X146.403Y-104.979
X146.45Y-102.25
X146.45Y-103.4
X149.1Y-104.25
X152.625Y-107.65
X154.75Y-100.25
X158.2Y-94.2
X158.2Y-96.2
X158.9Y-116.625
X160.175Y-105.825
T2
X143.625Y-114.225
X146.225Y-114.225
T3
X132.26Y-93.51
X132.26Y-96.05
X134.8Y-93.51
X134.8Y-96.05
X137.34Y-93.51
X137.34Y-96.05
X153.0Y-115.81
X153.0Y-118.35
X156.5Y-107.585
X156.5Y-110.125
X161.868Y-95.779
X161.868Y-98.319
X161.868Y-100.859
X161.868Y-103.399
X161.868Y-105.939
X161.868Y-108.479
X161.868Y-111.019
X161.868Y-113.559
T0
M30
