%TF.GenerationSoftware,KiCad,Pcbnew,(6.0.7-1)-1*%
%TF.CreationDate,2023-01-22T12:43:28-05:00*%
%TF.ProjectId,atmega328,61746d65-6761-4333-9238-2e6b69636164,rev?*%
%TF.SameCoordinates,Original*%
%TF.FileFunction,Soldermask,Top*%
%TF.FilePolarity,Negative*%
%FSLAX46Y46*%
G04 Gerber Fmt 4.6, Leading zero omitted, Abs format (unit mm)*
G04 Created by KiCad (PCBNEW (6.0.7-1)-1) date 2023-01-22 12:43:28*
%MOMM*%
%LPD*%
G01*
G04 APERTURE LIST*
G04 Aperture macros list*
%AMRoundRect*
0 Rectangle with rounded corners*
0 $1 Rounding radius*
0 $2 $3 $4 $5 $6 $7 $8 $9 X,Y pos of 4 corners*
0 Add a 4 corners polygon primitive as box body*
4,1,4,$2,$3,$4,$5,$6,$7,$8,$9,$2,$3,0*
0 Add four circle primitives for the rounded corners*
1,1,$1+$1,$2,$3*
1,1,$1+$1,$4,$5*
1,1,$1+$1,$6,$7*
1,1,$1+$1,$8,$9*
0 Add four rect primitives between the rounded corners*
20,1,$1+$1,$2,$3,$4,$5,0*
20,1,$1+$1,$4,$5,$6,$7,0*
20,1,$1+$1,$6,$7,$8,$9,0*
20,1,$1+$1,$8,$9,$2,$3,0*%
%AMFreePoly0*
4,1,22,0.550000,-0.750000,0.000000,-0.750000,0.000000,-0.745033,-0.079941,-0.743568,-0.215256,-0.701293,-0.333266,-0.622738,-0.424486,-0.514219,-0.481581,-0.384460,-0.499164,-0.250000,-0.500000,-0.250000,-0.500000,0.250000,-0.499164,0.250000,-0.499963,0.256109,-0.478152,0.396186,-0.417904,0.524511,-0.324060,0.630769,-0.204165,0.706417,-0.067858,0.745374,0.000000,0.744959,0.000000,0.750000,
0.550000,0.750000,0.550000,-0.750000,0.550000,-0.750000,$1*%
%AMFreePoly1*
4,1,20,0.000000,0.744959,0.073905,0.744508,0.209726,0.703889,0.328688,0.626782,0.421226,0.519385,0.479903,0.390333,0.500000,0.250000,0.500000,-0.250000,0.499851,-0.262216,0.476331,-0.402017,0.414519,-0.529596,0.319384,-0.634700,0.198574,-0.708877,0.061801,-0.746166,0.000000,-0.745033,0.000000,-0.750000,-0.550000,-0.750000,-0.550000,0.750000,0.000000,0.750000,0.000000,0.744959,
0.000000,0.744959,$1*%
G04 Aperture macros list end*
%ADD10C,2.150000*%
%ADD11C,0.000000*%
%ADD12R,1.700000X1.700000*%
%ADD13O,1.700000X1.700000*%
%ADD14RoundRect,0.250000X-0.250000X-0.475000X0.250000X-0.475000X0.250000X0.475000X-0.250000X0.475000X0*%
%ADD15R,1.500000X1.000000*%
%ADD16O,1.000000X1.000000*%
%ADD17RoundRect,0.250000X0.475000X-0.250000X0.475000X0.250000X-0.475000X0.250000X-0.475000X-0.250000X0*%
%ADD18C,4.300000*%
%ADD19RoundRect,0.243750X-0.243750X-0.456250X0.243750X-0.456250X0.243750X0.456250X-0.243750X0.456250X0*%
%ADD20RoundRect,0.250000X-0.262500X-0.450000X0.262500X-0.450000X0.262500X0.450000X-0.262500X0.450000X0*%
%ADD21FreePoly0,270.000000*%
%ADD22FreePoly1,270.000000*%
%ADD23RoundRect,0.250000X-0.450000X-0.425000X0.450000X-0.425000X0.450000X0.425000X-0.450000X0.425000X0*%
%ADD24RoundRect,0.150000X-0.150000X0.587500X-0.150000X-0.587500X0.150000X-0.587500X0.150000X0.587500X0*%
%ADD25R,1.700000X1.300000*%
%ADD26RoundRect,0.250000X-0.475000X0.250000X-0.475000X-0.250000X0.475000X-0.250000X0.475000X0.250000X0*%
G04 APERTURE END LIST*
D10*
X157915000Y-125320000D02*
G75*
G03*
X157915000Y-125320000I-1075000J0D01*
G01*
X121925000Y-104560000D02*
G75*
G03*
X121925000Y-104560000I-1075000J0D01*
G01*
X157925000Y-83750000D02*
G75*
G03*
X157925000Y-83750000I-1075000J0D01*
G01*
D11*
G36*
X162722860Y-96613570D02*
G01*
X161022860Y-96613570D01*
X161022860Y-94913570D01*
X162722860Y-94913570D01*
X162722860Y-96613570D01*
G37*
G36*
X161956170Y-110157660D02*
G01*
X162038690Y-110169900D01*
X162119600Y-110190170D01*
X162198140Y-110218270D01*
X162273550Y-110253940D01*
X162345090Y-110296820D01*
X162412090Y-110346510D01*
X162473900Y-110402530D01*
X162529920Y-110464340D01*
X162579610Y-110531340D01*
X162622490Y-110602880D01*
X162658160Y-110678290D01*
X162686260Y-110756830D01*
X162706530Y-110837740D01*
X162718770Y-110920260D01*
X162722860Y-111003570D01*
X162718770Y-111086880D01*
X162706530Y-111169400D01*
X162686260Y-111250310D01*
X162658160Y-111328850D01*
X162622490Y-111404260D01*
X162579610Y-111475800D01*
X162529920Y-111542800D01*
X162473900Y-111604610D01*
X162412090Y-111660630D01*
X162345090Y-111710320D01*
X162273550Y-111753200D01*
X162198140Y-111788870D01*
X162119600Y-111816970D01*
X162038690Y-111837240D01*
X161956170Y-111849480D01*
X161872860Y-111853570D01*
X161789550Y-111849480D01*
X161707030Y-111837240D01*
X161626120Y-111816970D01*
X161547580Y-111788870D01*
X161472170Y-111753200D01*
X161400630Y-111710320D01*
X161333630Y-111660630D01*
X161271820Y-111604610D01*
X161215800Y-111542800D01*
X161166110Y-111475800D01*
X161123230Y-111404260D01*
X161087560Y-111328850D01*
X161059460Y-111250310D01*
X161039190Y-111169400D01*
X161026950Y-111086880D01*
X161022860Y-111003570D01*
X161026950Y-110920260D01*
X161039190Y-110837740D01*
X161059460Y-110756830D01*
X161087560Y-110678290D01*
X161123230Y-110602880D01*
X161166110Y-110531340D01*
X161215800Y-110464340D01*
X161271820Y-110402530D01*
X161333630Y-110346510D01*
X161400630Y-110296820D01*
X161472170Y-110253940D01*
X161547580Y-110218270D01*
X161626120Y-110190170D01*
X161707030Y-110169900D01*
X161789550Y-110157660D01*
X161872860Y-110153570D01*
X161956170Y-110157660D01*
G37*
D12*
%TO.C,J3*%
X153000000Y-118350000D03*
D13*
X153000000Y-115810000D03*
%TD*%
D14*
%TO.C,C1*%
X155125200Y-96165600D03*
X157025200Y-96165600D03*
%TD*%
D15*
%TO.C,JP2*%
X157300000Y-117050000D03*
X157300000Y-115750000D03*
%TD*%
D12*
%TO.C,J1*%
X156500000Y-110125000D03*
D13*
X156500000Y-107585000D03*
%TD*%
D16*
%TO.C,REF\u002A\u002A*%
X146225000Y-114225000D03*
%TD*%
D12*
%TO.C,J5*%
X161867860Y-95778570D03*
D13*
X161867860Y-98318570D03*
X161867860Y-100858570D03*
X161867860Y-103398570D03*
X161867860Y-105938570D03*
X161867860Y-108478570D03*
X161867860Y-111018570D03*
X161867860Y-113558570D03*
%TD*%
D17*
%TO.C,C3*%
X136900000Y-102400000D03*
X136900000Y-100500000D03*
%TD*%
D18*
%TO.C,REF\u002A\u002A*%
X156840000Y-125275000D03*
%TD*%
%TO.C,REF\u002A\u002A*%
X156850000Y-83750000D03*
%TD*%
D19*
%TO.C,D2*%
X144575000Y-89900000D03*
X146450000Y-89900000D03*
%TD*%
D18*
%TO.C,REF\u002A\u002A*%
X120850000Y-104560000D03*
%TD*%
D20*
%TO.C,R1*%
X155162700Y-94215600D03*
X156987700Y-94215600D03*
%TD*%
D16*
%TO.C,REF\u002A\u002A*%
X143625000Y-114225000D03*
%TD*%
D21*
%TO.C,JP1*%
X139200000Y-102350000D03*
D15*
X139200000Y-103650000D03*
D22*
X139200000Y-104950000D03*
%TD*%
D12*
%TO.C,PRG1*%
X132260000Y-96050000D03*
D13*
X132260000Y-93510000D03*
X134800000Y-96050000D03*
X134800000Y-93510000D03*
X137340000Y-96050000D03*
X137340000Y-93510000D03*
%TD*%
D23*
%TO.C,C2*%
X152000000Y-98865000D03*
X154700000Y-98865000D03*
%TD*%
D20*
%TO.C,R3*%
X140700000Y-89900000D03*
X142525000Y-89900000D03*
%TD*%
D24*
%TO.C,Q1*%
X152900000Y-94612500D03*
X151000000Y-94612500D03*
X151950000Y-96487500D03*
%TD*%
D25*
%TO.C,D1*%
X149025200Y-96015600D03*
X149025200Y-92515600D03*
%TD*%
D26*
%TO.C,C4*%
X136850000Y-104950000D03*
X136850000Y-106850000D03*
%TD*%
M02*
