%TF.GenerationSoftware,KiCad,Pcbnew,(6.0.7-1)-1*%
%TF.CreationDate,2023-01-22T12:43:28-05:00*%
%TF.ProjectId,atmega328,61746d65-6761-4333-9238-2e6b69636164,rev?*%
%TF.SameCoordinates,Original*%
%TF.FileFunction,Copper,L1,Top*%
%TF.FilePolarity,Positive*%
%FSLAX46Y46*%
G04 Gerber Fmt 4.6, Leading zero omitted, Abs format (unit mm)*
G04 Created by KiCad (PCBNEW (6.0.7-1)-1) date 2023-01-22 12:43:28*
%MOMM*%
%LPD*%
G01*
G04 APERTURE LIST*
G04 Aperture macros list*
%AMRoundRect*
0 Rectangle with rounded corners*
0 $1 Rounding radius*
0 $2 $3 $4 $5 $6 $7 $8 $9 X,Y pos of 4 corners*
0 Add a 4 corners polygon primitive as box body*
4,1,4,$2,$3,$4,$5,$6,$7,$8,$9,$2,$3,0*
0 Add four circle primitives for the rounded corners*
1,1,$1+$1,$2,$3*
1,1,$1+$1,$4,$5*
1,1,$1+$1,$6,$7*
1,1,$1+$1,$8,$9*
0 Add four rect primitives between the rounded corners*
20,1,$1+$1,$2,$3,$4,$5,0*
20,1,$1+$1,$4,$5,$6,$7,0*
20,1,$1+$1,$6,$7,$8,$9,0*
20,1,$1+$1,$8,$9,$2,$3,0*%
%AMFreePoly0*
4,1,22,0.550000,-0.750000,0.000000,-0.750000,0.000000,-0.745033,-0.079941,-0.743568,-0.215256,-0.701293,-0.333266,-0.622738,-0.424486,-0.514219,-0.481581,-0.384460,-0.499164,-0.250000,-0.500000,-0.250000,-0.500000,0.250000,-0.499164,0.250000,-0.499963,0.256109,-0.478152,0.396186,-0.417904,0.524511,-0.324060,0.630769,-0.204165,0.706417,-0.067858,0.745374,0.000000,0.744959,0.000000,0.750000,
0.550000,0.750000,0.550000,-0.750000,0.550000,-0.750000,$1*%
%AMFreePoly1*
4,1,20,0.000000,0.744959,0.073905,0.744508,0.209726,0.703889,0.328688,0.626782,0.421226,0.519385,0.479903,0.390333,0.500000,0.250000,0.500000,-0.250000,0.499851,-0.262216,0.476331,-0.402017,0.414519,-0.529596,0.319384,-0.634700,0.198574,-0.708877,0.061801,-0.746166,0.000000,-0.745033,0.000000,-0.750000,-0.550000,-0.750000,-0.550000,0.750000,0.000000,0.750000,0.000000,0.744959,
0.000000,0.744959,$1*%
G04 Aperture macros list end*
%TA.AperFunction,ComponentPad*%
%ADD10R,1.700000X1.700000*%
%TD*%
%TA.AperFunction,ComponentPad*%
%ADD11O,1.700000X1.700000*%
%TD*%
%TA.AperFunction,SMDPad,CuDef*%
%ADD12RoundRect,0.250000X-0.250000X-0.475000X0.250000X-0.475000X0.250000X0.475000X-0.250000X0.475000X0*%
%TD*%
%TA.AperFunction,SMDPad,CuDef*%
%ADD13R,1.500000X1.000000*%
%TD*%
%TA.AperFunction,ComponentPad*%
%ADD14O,1.000000X1.000000*%
%TD*%
%TA.AperFunction,SMDPad,CuDef*%
%ADD15RoundRect,0.250000X0.475000X-0.250000X0.475000X0.250000X-0.475000X0.250000X-0.475000X-0.250000X0*%
%TD*%
%TA.AperFunction,SMDPad,CuDef*%
%ADD16RoundRect,0.243750X-0.243750X-0.456250X0.243750X-0.456250X0.243750X0.456250X-0.243750X0.456250X0*%
%TD*%
%TA.AperFunction,SMDPad,CuDef*%
%ADD17RoundRect,0.250000X-0.262500X-0.450000X0.262500X-0.450000X0.262500X0.450000X-0.262500X0.450000X0*%
%TD*%
%TA.AperFunction,SMDPad,CuDef*%
%ADD18FreePoly0,270.000000*%
%TD*%
%TA.AperFunction,SMDPad,CuDef*%
%ADD19FreePoly1,270.000000*%
%TD*%
%TA.AperFunction,SMDPad,CuDef*%
%ADD20RoundRect,0.250000X-0.450000X-0.425000X0.450000X-0.425000X0.450000X0.425000X-0.450000X0.425000X0*%
%TD*%
%TA.AperFunction,SMDPad,CuDef*%
%ADD21RoundRect,0.150000X-0.150000X0.587500X-0.150000X-0.587500X0.150000X-0.587500X0.150000X0.587500X0*%
%TD*%
%TA.AperFunction,SMDPad,CuDef*%
%ADD22R,1.700000X1.300000*%
%TD*%
%TA.AperFunction,SMDPad,CuDef*%
%ADD23RoundRect,0.250000X-0.475000X0.250000X-0.475000X-0.250000X0.475000X-0.250000X0.475000X0.250000X0*%
%TD*%
%TA.AperFunction,ViaPad*%
%ADD24C,0.800000*%
%TD*%
%TA.AperFunction,Conductor*%
%ADD25C,0.800000*%
%TD*%
%TA.AperFunction,Conductor*%
%ADD26C,0.250000*%
%TD*%
G04 APERTURE END LIST*
D10*
%TO.P,J3,1,Pin_1*%
%TO.N,TRM1*%
X153000000Y-118350000D03*
D11*
%TO.P,J3,2,Pin_2*%
%TO.N,TRM2*%
X153000000Y-115810000D03*
%TD*%
D12*
%TO.P,C1,1*%
%TO.N,Vin*%
X155125200Y-96165600D03*
%TO.P,C1,2*%
%TO.N,GND*%
X157025200Y-96165600D03*
%TD*%
D13*
%TO.P,JP2,1,A*%
%TO.N,GND*%
X157300000Y-117050000D03*
%TO.P,JP2,2,B*%
%TO.N,TRM2*%
X157300000Y-115750000D03*
%TD*%
D10*
%TO.P,J1,1,Pin_1*%
%TO.N,A*%
X156500000Y-110125000D03*
D11*
%TO.P,J1,2,Pin_2*%
%TO.N,B*%
X156500000Y-107585000D03*
%TD*%
D14*
%TO.P,REF\u002A\u002A,1*%
%TO.N,N/C*%
X146225000Y-114225000D03*
%TD*%
D10*
%TO.P,J5,1,Pin_1*%
%TO.N,Vin*%
X161867860Y-95778570D03*
D11*
%TO.P,J5,2,Pin_2*%
%TO.N,TRM1*%
X161867860Y-98318570D03*
%TO.P,J5,3,Pin_3*%
%TO.N,U*%
X161867860Y-100858570D03*
%TO.P,J5,4,Pin_4*%
%TO.N,V*%
X161867860Y-103398570D03*
%TO.P,J5,5,Pin_5*%
%TO.N,W*%
X161867860Y-105938570D03*
%TO.P,J5,6,Pin_6*%
%TO.N,GND*%
X161867860Y-108478570D03*
%TO.P,J5,7,Pin_7*%
%TO.N,TRM2*%
X161867860Y-111018570D03*
%TO.P,J5,8,Pin_8*%
%TO.N,PWM*%
X161867860Y-113558570D03*
%TD*%
D15*
%TO.P,C3,1*%
%TO.N,Net-(C3-Pad1)*%
X136900000Y-102400000D03*
%TO.P,C3,2*%
%TO.N,GND*%
X136900000Y-100500000D03*
%TD*%
D16*
%TO.P,D2,1,K*%
%TO.N,Net-(D2-Pad1)*%
X144575000Y-89900000D03*
%TO.P,D2,2,A*%
%TO.N,VCC*%
X146450000Y-89900000D03*
%TD*%
D17*
%TO.P,R1,1*%
%TO.N,Net-(D1-Pad2)*%
X155162700Y-94215600D03*
%TO.P,R1,2*%
%TO.N,GND*%
X156987700Y-94215600D03*
%TD*%
D14*
%TO.P,REF\u002A\u002A,1*%
%TO.N,N/C*%
X143625000Y-114225000D03*
%TD*%
D18*
%TO.P,JP1,1,A*%
%TO.N,Net-(C3-Pad1)*%
X139200000Y-102350000D03*
D13*
%TO.P,JP1,2,C*%
%TO.N,Net-(U1-Pad12)*%
X139200000Y-103650000D03*
D19*
%TO.P,JP1,3,B*%
%TO.N,VCC*%
X139200000Y-104950000D03*
%TD*%
D10*
%TO.P,PRG1,1,Pin_1*%
%TO.N,MISO*%
X132260000Y-96050000D03*
D11*
%TO.P,PRG1,2,Pin_2*%
%TO.N,VCC*%
X132260000Y-93510000D03*
%TO.P,PRG1,3,Pin_3*%
%TO.N,SCK*%
X134800000Y-96050000D03*
%TO.P,PRG1,4,Pin_4*%
%TO.N,MOSI*%
X134800000Y-93510000D03*
%TO.P,PRG1,5,Pin_5*%
%TO.N,CS*%
X137340000Y-96050000D03*
%TO.P,PRG1,6,Pin_6*%
%TO.N,GND*%
X137340000Y-93510000D03*
%TD*%
D20*
%TO.P,C2,1*%
%TO.N,Vin*%
X152000000Y-98865000D03*
%TO.P,C2,2*%
%TO.N,GND*%
X154700000Y-98865000D03*
%TD*%
D17*
%TO.P,R3,1*%
%TO.N,GND*%
X140700000Y-89900000D03*
%TO.P,R3,2*%
%TO.N,Net-(D2-Pad1)*%
X142525000Y-89900000D03*
%TD*%
D21*
%TO.P,Q1,1,G*%
%TO.N,Net-(D1-Pad2)*%
X152900000Y-94612500D03*
%TO.P,Q1,2,S*%
%TO.N,VCC*%
X151000000Y-94612500D03*
%TO.P,Q1,3,D*%
%TO.N,Vin*%
X151950000Y-96487500D03*
%TD*%
D22*
%TO.P,D1,1,K*%
%TO.N,VCC*%
X149025200Y-96015600D03*
%TO.P,D1,2,A*%
%TO.N,Net-(D1-Pad2)*%
X149025200Y-92515600D03*
%TD*%
D23*
%TO.P,C4,1*%
%TO.N,VCC*%
X136850000Y-104950000D03*
%TO.P,C4,2*%
%TO.N,GND*%
X136850000Y-106850000D03*
%TD*%
D24*
%TO.N,GND*%
X145325000Y-117425000D03*
X158200000Y-94200000D03*
X158200000Y-96200000D03*
X158900000Y-116625000D03*
X138150000Y-106850000D03*
X144475000Y-117425000D03*
X138250000Y-100500000D03*
X139425000Y-90000000D03*
X154750000Y-100250000D03*
%TO.N,MISO*%
X142655497Y-97944503D03*
X149100000Y-104250000D03*
%TO.N,SCK*%
X146450000Y-103400000D03*
%TO.N,MOSI*%
X146403314Y-104979429D03*
%TO.N,VCC*%
X140702533Y-104648121D03*
%TO.N,Net-(U1-Pad12)*%
X140718792Y-103648753D03*
%TO.N,U*%
X143300000Y-104950000D03*
%TO.N,V*%
X143300000Y-105949503D03*
%TO.N,W*%
X143300000Y-106949006D03*
%TO.N,PWM*%
X152625000Y-107650000D03*
X160175000Y-105825000D03*
%TO.N,CS*%
X146450000Y-102250000D03*
%TD*%
D25*
%TO.N,GND*%
X157025200Y-94398100D02*
X157025200Y-96133100D01*
X154700000Y-100200000D02*
X154750000Y-100250000D01*
X158165600Y-96165600D02*
X158200000Y-96200000D01*
D26*
X136850000Y-106850000D02*
X138150000Y-106850000D01*
X158475000Y-117050000D02*
X158900000Y-116625000D01*
D25*
X157025200Y-96165600D02*
X158165600Y-96165600D01*
D26*
X140700000Y-89900000D02*
X139525000Y-89900000D01*
X157300000Y-117050000D02*
X158475000Y-117050000D01*
D25*
X156987700Y-94215600D02*
X158184400Y-94215600D01*
X158184400Y-94215600D02*
X158200000Y-94200000D01*
D26*
X139525000Y-89900000D02*
X139425000Y-90000000D01*
X136900000Y-100500000D02*
X138250000Y-100500000D01*
D25*
X154700000Y-98865000D02*
X154700000Y-100200000D01*
%TO.N,Vin*%
X152165200Y-96275600D02*
X151927700Y-96513100D01*
X155170200Y-96275600D02*
X152165200Y-96275600D01*
X161867860Y-95778570D02*
X159996430Y-97650000D01*
X151927700Y-96513100D02*
X151927700Y-98828100D01*
X156050000Y-97650000D02*
X155125200Y-96725200D01*
X155200000Y-96740400D02*
X155200000Y-96240000D01*
X159996430Y-97650000D02*
X156050000Y-97650000D01*
X155125200Y-96725200D02*
X155125200Y-96165600D01*
X151927700Y-98828100D02*
X151985200Y-98885600D01*
D26*
%TO.N,Net-(C3-Pad1)*%
X138900000Y-102400000D02*
X136900000Y-102400000D01*
D25*
%TO.N,Net-(D1-Pad2)*%
X152900000Y-94612500D02*
X152900000Y-94365400D01*
X151050200Y-92515600D02*
X149025200Y-92515600D01*
X152877700Y-94638100D02*
X152877700Y-94293230D01*
X153040200Y-94475600D02*
X152877700Y-94638100D01*
X152900000Y-94365400D02*
X151050200Y-92515600D01*
X155135200Y-94475600D02*
X153040200Y-94475600D01*
%TO.N,Net-(D2-Pad1)*%
X142525000Y-89900000D02*
X144575000Y-89900000D01*
D26*
%TO.N,MISO*%
X145800000Y-101400000D02*
X145750000Y-101400000D01*
X149100000Y-104250000D02*
X149100000Y-103874695D01*
X142655497Y-98332705D02*
X142655497Y-97944503D01*
X146450000Y-101400000D02*
X145800000Y-101400000D01*
X145722792Y-101400000D02*
X142655497Y-98332705D01*
X149100000Y-103874695D02*
X146625305Y-101400000D01*
X146625305Y-101400000D02*
X146450000Y-101400000D01*
X146450000Y-101400000D02*
X145722792Y-101400000D01*
%TO.N,SCK*%
X134800000Y-96050000D02*
X136450000Y-97700000D01*
X136450000Y-97700000D02*
X140750000Y-97700000D01*
X140750000Y-97700000D02*
X146450000Y-103400000D01*
%TO.N,MOSI*%
X135150000Y-98150000D02*
X133625000Y-96625000D01*
X140563604Y-98150000D02*
X135150000Y-98150000D01*
X146403314Y-104979429D02*
X145950000Y-104526115D01*
X133625000Y-94685000D02*
X134800000Y-93510000D01*
X145725000Y-103311396D02*
X140563604Y-98150000D01*
X145950000Y-104250000D02*
X145725000Y-104025000D01*
X145950000Y-104526115D02*
X145950000Y-104250000D01*
X133625000Y-96625000D02*
X133625000Y-94685000D01*
X145725000Y-104025000D02*
X145725000Y-103311396D01*
%TO.N,VCC*%
X136850000Y-104950000D02*
X135600000Y-104950000D01*
D25*
X149025200Y-96015600D02*
X147365600Y-96015600D01*
D26*
X140400654Y-104950000D02*
X140702533Y-104648121D01*
X138900000Y-105000000D02*
X136900000Y-105000000D01*
D25*
X149025200Y-97775200D02*
X149050000Y-97800000D01*
X149025200Y-96015600D02*
X149025200Y-97775200D01*
X150428300Y-94612500D02*
X149025200Y-96015600D01*
X151000000Y-94612500D02*
X150428300Y-94612500D01*
X147365600Y-96015600D02*
X147350000Y-96000000D01*
D26*
X139200000Y-104950000D02*
X140400654Y-104950000D01*
X136900000Y-105000000D02*
X136850000Y-104950000D01*
%TO.N,TRM2*%
X157240000Y-115810000D02*
X157300000Y-115750000D01*
X153000000Y-115810000D02*
X157240000Y-115810000D01*
X157300000Y-115586430D02*
X157300000Y-115750000D01*
X161867860Y-111018570D02*
X157300000Y-115586430D01*
%TO.N,Net-(U1-Pad12)*%
X140650000Y-103650000D02*
X139200000Y-103650000D01*
X138901247Y-103698753D02*
X138900000Y-103700000D01*
X140718792Y-103648753D02*
X139201247Y-103648753D01*
%TO.N,U*%
X143300000Y-104950000D02*
X145348580Y-104950000D01*
X156250000Y-102850000D02*
X159876430Y-102850000D01*
X145348580Y-104950000D02*
X146148580Y-105750000D01*
X146148580Y-105750000D02*
X153350000Y-105750000D01*
X159876430Y-102850000D02*
X161867860Y-100858570D01*
X153350000Y-105750000D02*
X156250000Y-102850000D01*
%TO.N,V*%
X156398570Y-103398570D02*
X161867860Y-103398570D01*
X153536396Y-106200000D02*
X156368198Y-103368198D01*
X145962184Y-106200000D02*
X153536396Y-106200000D01*
X145711687Y-105949503D02*
X145962184Y-106200000D01*
X156368198Y-103368198D02*
X156398570Y-103398570D01*
X143300000Y-105949503D02*
X145711687Y-105949503D01*
%TO.N,W*%
X143599006Y-106650000D02*
X143300000Y-106949006D01*
X161867860Y-105938570D02*
X159777860Y-103848570D01*
X153722792Y-106650000D02*
X143599006Y-106650000D01*
X156524222Y-103848570D02*
X153722792Y-106650000D01*
X159777860Y-103848570D02*
X156524222Y-103848570D01*
%TO.N,PWM*%
X152625000Y-107650000D02*
X153359188Y-107650000D01*
X160175000Y-104898570D02*
X160175000Y-105825000D01*
X156710618Y-104298570D02*
X159575000Y-104298570D01*
X159575000Y-104298570D02*
X160175000Y-104898570D01*
X153359188Y-107650000D02*
X153954594Y-107054594D01*
X153954594Y-107054594D02*
X156710618Y-104298570D01*
%TO.N,CS*%
X145936396Y-102250000D02*
X140936396Y-97250000D01*
X140936396Y-97250000D02*
X137950000Y-97250000D01*
X137340000Y-96640000D02*
X137340000Y-96050000D01*
X146450000Y-102250000D02*
X145936396Y-102250000D01*
X137950000Y-97250000D02*
X137340000Y-96640000D01*
%TD*%
%TA.AperFunction,Conductor*%
%TO.N,VCC*%
G36*
X147271445Y-88508066D02*
G01*
X149529553Y-89357384D01*
X163918358Y-94769293D01*
X163975076Y-94811995D01*
X163999703Y-94878583D01*
X164000000Y-94887226D01*
X164000000Y-114036204D01*
X163979998Y-114104325D01*
X163948582Y-114137760D01*
X156033189Y-119950627D01*
X155966446Y-119974825D01*
X155958832Y-119975069D01*
X141080447Y-119999866D01*
X141012293Y-119979977D01*
X140966025Y-119927079D01*
X140716396Y-119391288D01*
X140636474Y-119219748D01*
X151949500Y-119219748D01*
X151961133Y-119278231D01*
X152005448Y-119344552D01*
X152071769Y-119388867D01*
X152083938Y-119391288D01*
X152083939Y-119391288D01*
X152124184Y-119399293D01*
X152130252Y-119400500D01*
X153869748Y-119400500D01*
X153875816Y-119399293D01*
X153916061Y-119391288D01*
X153916062Y-119391288D01*
X153928231Y-119388867D01*
X153994552Y-119344552D01*
X154038867Y-119278231D01*
X154050500Y-119219748D01*
X154050500Y-117480252D01*
X154038867Y-117421769D01*
X153994552Y-117355448D01*
X153928231Y-117311133D01*
X153916062Y-117308712D01*
X153916061Y-117308712D01*
X153875816Y-117300707D01*
X153869748Y-117299500D01*
X152130252Y-117299500D01*
X152124184Y-117300707D01*
X152083939Y-117308712D01*
X152083938Y-117308712D01*
X152071769Y-117311133D01*
X152005448Y-117355448D01*
X151961133Y-117421769D01*
X151949500Y-117480252D01*
X151949500Y-119219748D01*
X140636474Y-119219748D01*
X139800285Y-117425000D01*
X143869318Y-117425000D01*
X143889956Y-117581762D01*
X143950464Y-117727841D01*
X144046718Y-117853282D01*
X144172159Y-117949536D01*
X144318238Y-118010044D01*
X144475000Y-118030682D01*
X144483188Y-118029604D01*
X144623574Y-118011122D01*
X144631762Y-118010044D01*
X144777841Y-117949536D01*
X144823296Y-117914657D01*
X144889516Y-117889056D01*
X144959065Y-117903321D01*
X144976703Y-117914656D01*
X145022159Y-117949536D01*
X145168238Y-118010044D01*
X145325000Y-118030682D01*
X145333188Y-118029604D01*
X145473574Y-118011122D01*
X145481762Y-118010044D01*
X145627841Y-117949536D01*
X145753282Y-117853282D01*
X145849536Y-117727841D01*
X145910044Y-117581762D01*
X145930682Y-117425000D01*
X145910044Y-117268238D01*
X145849536Y-117122159D01*
X145753282Y-116996718D01*
X145627841Y-116900464D01*
X145481762Y-116839956D01*
X145325000Y-116819318D01*
X145168238Y-116839956D01*
X145022159Y-116900464D01*
X144986481Y-116927841D01*
X144976704Y-116935343D01*
X144910484Y-116960944D01*
X144840935Y-116946679D01*
X144823296Y-116935343D01*
X144813519Y-116927841D01*
X144777841Y-116900464D01*
X144631762Y-116839956D01*
X144475000Y-116819318D01*
X144318238Y-116839956D01*
X144172159Y-116900464D01*
X144046718Y-116996718D01*
X143950464Y-117122159D01*
X143889956Y-117268238D01*
X143869318Y-117425000D01*
X139800285Y-117425000D01*
X139040975Y-115795262D01*
X151944520Y-115795262D01*
X151961759Y-116000553D01*
X151963458Y-116006478D01*
X151972749Y-116038878D01*
X152018544Y-116198586D01*
X152021359Y-116204063D01*
X152021360Y-116204066D01*
X152097159Y-116351555D01*
X152112712Y-116381818D01*
X152240677Y-116543270D01*
X152245370Y-116547264D01*
X152245371Y-116547265D01*
X152346331Y-116633188D01*
X152397564Y-116676791D01*
X152577398Y-116777297D01*
X152672238Y-116808113D01*
X152767471Y-116839056D01*
X152767475Y-116839057D01*
X152773329Y-116840959D01*
X152977894Y-116865351D01*
X152984029Y-116864879D01*
X152984031Y-116864879D01*
X153040039Y-116860569D01*
X153183300Y-116849546D01*
X153189230Y-116847890D01*
X153189232Y-116847890D01*
X153375797Y-116795800D01*
X153375796Y-116795800D01*
X153381725Y-116794145D01*
X153387214Y-116791372D01*
X153387220Y-116791370D01*
X153560116Y-116704033D01*
X153565610Y-116701258D01*
X153587202Y-116684389D01*
X153663216Y-116625000D01*
X153727951Y-116574424D01*
X153760739Y-116536439D01*
X153858540Y-116423134D01*
X153858540Y-116423133D01*
X153862564Y-116418472D01*
X153876153Y-116394552D01*
X153950566Y-116263561D01*
X153964323Y-116239344D01*
X153970184Y-116221726D01*
X154010666Y-116163403D01*
X154076254Y-116136224D01*
X154089741Y-116135500D01*
X156223500Y-116135500D01*
X156291621Y-116155502D01*
X156338114Y-116209158D01*
X156348614Y-116257426D01*
X156348893Y-116257398D01*
X156349129Y-116259795D01*
X156349500Y-116261500D01*
X156349500Y-116269748D01*
X156361133Y-116328231D01*
X156368026Y-116338547D01*
X156372777Y-116350017D01*
X156369063Y-116351555D01*
X156383528Y-116397751D01*
X156368688Y-116448289D01*
X156372777Y-116449983D01*
X156368026Y-116461453D01*
X156361133Y-116471769D01*
X156349500Y-116530252D01*
X156349500Y-117569748D01*
X156361133Y-117628231D01*
X156405448Y-117694552D01*
X156471769Y-117738867D01*
X156483938Y-117741288D01*
X156483939Y-117741288D01*
X156524184Y-117749293D01*
X156530252Y-117750500D01*
X158069748Y-117750500D01*
X158075816Y-117749293D01*
X158116061Y-117741288D01*
X158116062Y-117741288D01*
X158128231Y-117738867D01*
X158194552Y-117694552D01*
X158238867Y-117628231D01*
X158250500Y-117569748D01*
X158250500Y-117501500D01*
X158270502Y-117433379D01*
X158324158Y-117386886D01*
X158376500Y-117375500D01*
X158455290Y-117375500D01*
X158466272Y-117375980D01*
X158492820Y-117378303D01*
X158492822Y-117378303D01*
X158503807Y-117379264D01*
X158540215Y-117369508D01*
X158550942Y-117367130D01*
X158554301Y-117366538D01*
X158588045Y-117360588D01*
X158597590Y-117355077D01*
X158600866Y-117353885D01*
X158604034Y-117352408D01*
X158614684Y-117349554D01*
X158645544Y-117327945D01*
X158654815Y-117322039D01*
X158677906Y-117308707D01*
X158687455Y-117303194D01*
X158711685Y-117274317D01*
X158719111Y-117266215D01*
X158727617Y-117257709D01*
X158789929Y-117223683D01*
X158833157Y-117221882D01*
X158900000Y-117230682D01*
X158908188Y-117229604D01*
X159048574Y-117211122D01*
X159056762Y-117210044D01*
X159202841Y-117149536D01*
X159328282Y-117053282D01*
X159424536Y-116927841D01*
X159485044Y-116781762D01*
X159505682Y-116625000D01*
X159485044Y-116468238D01*
X159424536Y-116322159D01*
X159328282Y-116196718D01*
X159202841Y-116100464D01*
X159056762Y-116039956D01*
X158900000Y-116019318D01*
X158743238Y-116039956D01*
X158597159Y-116100464D01*
X158471718Y-116196718D01*
X158466695Y-116203264D01*
X158465595Y-116204364D01*
X158403283Y-116238390D01*
X158332468Y-116233325D01*
X158275632Y-116190778D01*
X158250821Y-116124258D01*
X158250500Y-116115269D01*
X158250500Y-115230252D01*
X158241407Y-115184540D01*
X158247735Y-115113829D01*
X158275891Y-115070865D01*
X159802924Y-113543832D01*
X160812380Y-113543832D01*
X160812896Y-113549976D01*
X160820279Y-113637892D01*
X160829619Y-113749123D01*
X160831318Y-113755048D01*
X160874368Y-113905180D01*
X160886404Y-113947156D01*
X160889219Y-113952633D01*
X160889220Y-113952636D01*
X160977757Y-114124911D01*
X160980572Y-114130388D01*
X161108537Y-114291840D01*
X161113230Y-114295834D01*
X161113231Y-114295835D01*
X161219334Y-114386135D01*
X161265424Y-114425361D01*
X161445258Y-114525867D01*
X161540098Y-114556682D01*
X161635331Y-114587626D01*
X161635335Y-114587627D01*
X161641189Y-114589529D01*
X161845754Y-114613921D01*
X161851889Y-114613449D01*
X161851891Y-114613449D01*
X161907899Y-114609139D01*
X162051160Y-114598116D01*
X162057090Y-114596460D01*
X162057092Y-114596460D01*
X162243657Y-114544370D01*
X162243656Y-114544370D01*
X162249585Y-114542715D01*
X162255074Y-114539942D01*
X162255080Y-114539940D01*
X162427976Y-114452603D01*
X162433470Y-114449828D01*
X162595811Y-114322994D01*
X162664116Y-114243862D01*
X162726400Y-114171704D01*
X162726400Y-114171703D01*
X162730424Y-114167042D01*
X162751247Y-114130388D01*
X162804750Y-114036204D01*
X162832183Y-113987914D01*
X162897211Y-113792433D01*
X162923031Y-113588044D01*
X162923443Y-113558570D01*
X162903340Y-113353540D01*
X162843795Y-113156319D01*
X162747078Y-112974419D01*
X162673719Y-112884472D01*
X162620766Y-112819545D01*
X162620763Y-112819542D01*
X162616871Y-112814770D01*
X162562292Y-112769618D01*
X162462885Y-112687381D01*
X162462881Y-112687379D01*
X162458135Y-112683452D01*
X162276915Y-112585467D01*
X162080114Y-112524547D01*
X162073989Y-112523903D01*
X162073988Y-112523903D01*
X161881358Y-112503657D01*
X161881356Y-112503657D01*
X161875229Y-112503013D01*
X161788389Y-112510916D01*
X161676202Y-112521125D01*
X161676199Y-112521126D01*
X161670063Y-112521684D01*
X161472432Y-112579850D01*
X161289862Y-112675296D01*
X161285061Y-112679156D01*
X161285058Y-112679158D01*
X161134114Y-112800520D01*
X161129307Y-112804385D01*
X160996884Y-112962200D01*
X160993916Y-112967598D01*
X160993913Y-112967603D01*
X160987175Y-112979860D01*
X160897636Y-113142732D01*
X160835344Y-113339102D01*
X160834658Y-113345219D01*
X160834657Y-113345223D01*
X160814506Y-113524879D01*
X160812380Y-113543832D01*
X159802924Y-113543832D01*
X161326982Y-112019774D01*
X161389294Y-111985748D01*
X161455011Y-111989036D01*
X161641189Y-112049529D01*
X161845754Y-112073921D01*
X161851889Y-112073449D01*
X161851891Y-112073449D01*
X161907899Y-112069139D01*
X162051160Y-112058116D01*
X162057090Y-112056460D01*
X162057092Y-112056460D01*
X162243657Y-112004370D01*
X162243656Y-112004370D01*
X162249585Y-112002715D01*
X162255074Y-111999942D01*
X162255080Y-111999940D01*
X162427976Y-111912603D01*
X162433470Y-111909828D01*
X162595811Y-111782994D01*
X162730424Y-111627042D01*
X162832183Y-111447914D01*
X162897211Y-111252433D01*
X162923031Y-111048044D01*
X162923443Y-111018570D01*
X162903340Y-110813540D01*
X162843795Y-110616319D01*
X162747078Y-110434419D01*
X162673719Y-110344472D01*
X162620766Y-110279545D01*
X162620763Y-110279542D01*
X162616871Y-110274770D01*
X162599646Y-110260520D01*
X162462885Y-110147381D01*
X162462881Y-110147379D01*
X162458135Y-110143452D01*
X162276915Y-110045467D01*
X162080114Y-109984547D01*
X162073989Y-109983903D01*
X162073988Y-109983903D01*
X161881358Y-109963657D01*
X161881356Y-109963657D01*
X161875229Y-109963013D01*
X161788389Y-109970916D01*
X161676202Y-109981125D01*
X161676199Y-109981126D01*
X161670063Y-109981684D01*
X161472432Y-110039850D01*
X161289862Y-110135296D01*
X161285061Y-110139156D01*
X161285058Y-110139158D01*
X161274831Y-110147381D01*
X161129307Y-110264385D01*
X160996884Y-110422200D01*
X160993916Y-110427598D01*
X160993913Y-110427603D01*
X160987175Y-110439860D01*
X160897636Y-110602732D01*
X160835344Y-110799102D01*
X160834658Y-110805219D01*
X160834657Y-110805223D01*
X160821551Y-110922070D01*
X160812380Y-111003832D01*
X160812896Y-111009976D01*
X160826796Y-111175500D01*
X160829619Y-111209123D01*
X160886404Y-111407156D01*
X160889222Y-111412639D01*
X160889225Y-111412647D01*
X160889405Y-111412998D01*
X160889444Y-111413200D01*
X160891490Y-111418369D01*
X160890507Y-111418758D01*
X160902746Y-111482730D01*
X160876269Y-111548604D01*
X160866428Y-111559676D01*
X157413509Y-115012595D01*
X157351197Y-115046621D01*
X157324414Y-115049500D01*
X156530252Y-115049500D01*
X156524184Y-115050707D01*
X156483939Y-115058712D01*
X156483938Y-115058712D01*
X156471769Y-115061133D01*
X156405448Y-115105448D01*
X156361133Y-115171769D01*
X156358712Y-115183938D01*
X156358712Y-115183939D01*
X156352806Y-115213630D01*
X156349500Y-115230252D01*
X156349500Y-115358500D01*
X156329498Y-115426621D01*
X156275842Y-115473114D01*
X156223500Y-115484500D01*
X154091269Y-115484500D01*
X154023148Y-115464498D01*
X153976008Y-115407991D01*
X153975935Y-115407749D01*
X153879218Y-115225849D01*
X153789432Y-115115761D01*
X153752906Y-115070975D01*
X153752903Y-115070972D01*
X153749011Y-115066200D01*
X153731786Y-115051950D01*
X153595025Y-114938811D01*
X153595021Y-114938809D01*
X153590275Y-114934882D01*
X153409055Y-114836897D01*
X153212254Y-114775977D01*
X153206129Y-114775333D01*
X153206128Y-114775333D01*
X153013498Y-114755087D01*
X153013496Y-114755087D01*
X153007369Y-114754443D01*
X152920529Y-114762346D01*
X152808342Y-114772555D01*
X152808339Y-114772556D01*
X152802203Y-114773114D01*
X152604572Y-114831280D01*
X152422002Y-114926726D01*
X152417201Y-114930586D01*
X152417198Y-114930588D01*
X152315202Y-115012595D01*
X152261447Y-115055815D01*
X152129024Y-115213630D01*
X152126056Y-115219028D01*
X152126053Y-115219033D01*
X152049381Y-115358500D01*
X152029776Y-115394162D01*
X151967484Y-115590532D01*
X151944520Y-115795262D01*
X139040975Y-115795262D01*
X138305933Y-114217611D01*
X142919394Y-114217611D01*
X142937999Y-114386135D01*
X142962323Y-114452603D01*
X142988034Y-114522860D01*
X142996266Y-114545356D01*
X143000502Y-114551659D01*
X143000502Y-114551660D01*
X143013574Y-114571113D01*
X143090830Y-114686083D01*
X143096442Y-114691190D01*
X143096445Y-114691193D01*
X143210612Y-114795077D01*
X143210616Y-114795080D01*
X143216233Y-114800191D01*
X143222906Y-114803814D01*
X143222910Y-114803817D01*
X143358558Y-114877467D01*
X143358560Y-114877468D01*
X143365235Y-114881092D01*
X143372584Y-114883020D01*
X143521883Y-114922188D01*
X143521885Y-114922188D01*
X143529233Y-114924116D01*
X143615609Y-114925473D01*
X143691161Y-114926660D01*
X143691164Y-114926660D01*
X143698760Y-114926779D01*
X143706165Y-114925083D01*
X143706166Y-114925083D01*
X143766586Y-114911245D01*
X143864029Y-114888928D01*
X144015498Y-114812747D01*
X144144423Y-114702634D01*
X144243361Y-114564947D01*
X144253414Y-114539940D01*
X144303766Y-114414687D01*
X144303767Y-114414685D01*
X144306601Y-114407634D01*
X144330490Y-114239778D01*
X144330645Y-114225000D01*
X144329751Y-114217611D01*
X145519394Y-114217611D01*
X145537999Y-114386135D01*
X145562323Y-114452603D01*
X145588034Y-114522860D01*
X145596266Y-114545356D01*
X145600502Y-114551659D01*
X145600502Y-114551660D01*
X145613574Y-114571113D01*
X145690830Y-114686083D01*
X145696442Y-114691190D01*
X145696445Y-114691193D01*
X145810612Y-114795077D01*
X145810616Y-114795080D01*
X145816233Y-114800191D01*
X145822906Y-114803814D01*
X145822910Y-114803817D01*
X145958558Y-114877467D01*
X145958560Y-114877468D01*
X145965235Y-114881092D01*
X145972584Y-114883020D01*
X146121883Y-114922188D01*
X146121885Y-114922188D01*
X146129233Y-114924116D01*
X146215609Y-114925473D01*
X146291161Y-114926660D01*
X146291164Y-114926660D01*
X146298760Y-114926779D01*
X146306165Y-114925083D01*
X146306166Y-114925083D01*
X146366586Y-114911245D01*
X146464029Y-114888928D01*
X146615498Y-114812747D01*
X146744423Y-114702634D01*
X146843361Y-114564947D01*
X146853414Y-114539940D01*
X146903766Y-114414687D01*
X146903767Y-114414685D01*
X146906601Y-114407634D01*
X146930490Y-114239778D01*
X146930645Y-114225000D01*
X146928840Y-114210080D01*
X146919780Y-114135216D01*
X146910276Y-114056680D01*
X146850345Y-113898077D01*
X146841584Y-113885330D01*
X146758614Y-113764608D01*
X146758613Y-113764607D01*
X146754312Y-113758349D01*
X146742514Y-113747837D01*
X146633392Y-113650612D01*
X146633388Y-113650610D01*
X146627721Y-113645560D01*
X146477881Y-113566224D01*
X146313441Y-113524919D01*
X146305843Y-113524879D01*
X146305841Y-113524879D01*
X146228668Y-113524475D01*
X146143895Y-113524031D01*
X146136508Y-113525805D01*
X146136504Y-113525805D01*
X146014636Y-113555064D01*
X145979032Y-113563612D01*
X145972288Y-113567093D01*
X145972285Y-113567094D01*
X145835117Y-113637892D01*
X145828369Y-113641375D01*
X145700604Y-113752831D01*
X145603113Y-113891547D01*
X145541524Y-114049513D01*
X145540532Y-114057046D01*
X145540532Y-114057047D01*
X145525438Y-114171704D01*
X145519394Y-114217611D01*
X144329751Y-114217611D01*
X144328840Y-114210080D01*
X144319780Y-114135216D01*
X144310276Y-114056680D01*
X144250345Y-113898077D01*
X144241584Y-113885330D01*
X144158614Y-113764608D01*
X144158613Y-113764607D01*
X144154312Y-113758349D01*
X144142514Y-113747837D01*
X144033392Y-113650612D01*
X144033388Y-113650610D01*
X144027721Y-113645560D01*
X143877881Y-113566224D01*
X143713441Y-113524919D01*
X143705843Y-113524879D01*
X143705841Y-113524879D01*
X143628668Y-113524475D01*
X143543895Y-113524031D01*
X143536508Y-113525805D01*
X143536504Y-113525805D01*
X143414636Y-113555064D01*
X143379032Y-113563612D01*
X143372288Y-113567093D01*
X143372285Y-113567094D01*
X143235117Y-113637892D01*
X143228369Y-113641375D01*
X143100604Y-113752831D01*
X143003113Y-113891547D01*
X142941524Y-114049513D01*
X142940532Y-114057046D01*
X142940532Y-114057047D01*
X142925438Y-114171704D01*
X142919394Y-114217611D01*
X138305933Y-114217611D01*
X136804372Y-110994748D01*
X155449500Y-110994748D01*
X155461133Y-111053231D01*
X155505448Y-111119552D01*
X155571769Y-111163867D01*
X155583938Y-111166288D01*
X155583939Y-111166288D01*
X155624184Y-111174293D01*
X155630252Y-111175500D01*
X157369748Y-111175500D01*
X157375816Y-111174293D01*
X157416061Y-111166288D01*
X157416062Y-111166288D01*
X157428231Y-111163867D01*
X157494552Y-111119552D01*
X157538867Y-111053231D01*
X157550500Y-110994748D01*
X157550500Y-109255252D01*
X157547135Y-109238336D01*
X157541288Y-109208939D01*
X157541288Y-109208938D01*
X157538867Y-109196769D01*
X157494552Y-109130448D01*
X157428231Y-109086133D01*
X157416062Y-109083712D01*
X157416061Y-109083712D01*
X157375816Y-109075707D01*
X157369748Y-109074500D01*
X155630252Y-109074500D01*
X155624184Y-109075707D01*
X155583939Y-109083712D01*
X155583938Y-109083712D01*
X155571769Y-109086133D01*
X155505448Y-109130448D01*
X155461133Y-109196769D01*
X155458712Y-109208938D01*
X155458712Y-109208939D01*
X155452865Y-109238336D01*
X155449500Y-109255252D01*
X155449500Y-110994748D01*
X136804372Y-110994748D01*
X135014855Y-107153834D01*
X135924500Y-107153834D01*
X135927481Y-107185369D01*
X135972366Y-107313184D01*
X135977958Y-107320754D01*
X135977959Y-107320757D01*
X136021695Y-107379970D01*
X136052850Y-107422150D01*
X136060421Y-107427742D01*
X136154243Y-107497041D01*
X136154246Y-107497042D01*
X136161816Y-107502634D01*
X136289631Y-107547519D01*
X136297277Y-107548242D01*
X136297278Y-107548242D01*
X136303248Y-107548806D01*
X136321166Y-107550500D01*
X137378834Y-107550500D01*
X137396752Y-107548806D01*
X137402722Y-107548242D01*
X137402723Y-107548242D01*
X137410369Y-107547519D01*
X137538184Y-107502634D01*
X137545754Y-107497042D01*
X137545757Y-107497041D01*
X137639579Y-107427742D01*
X137647150Y-107422150D01*
X137652742Y-107414579D01*
X137652745Y-107414576D01*
X137665704Y-107397031D01*
X137722265Y-107354120D01*
X137793047Y-107348600D01*
X137832629Y-107366808D01*
X137833454Y-107365379D01*
X137840607Y-107369509D01*
X137847159Y-107374536D01*
X137993238Y-107435044D01*
X138150000Y-107455682D01*
X138158188Y-107454604D01*
X138298574Y-107436122D01*
X138306762Y-107435044D01*
X138452841Y-107374536D01*
X138578282Y-107278282D01*
X138593540Y-107258398D01*
X138606059Y-107242082D01*
X138674536Y-107152841D01*
X138735044Y-107006762D01*
X138755682Y-106850000D01*
X138745363Y-106771619D01*
X138736122Y-106701426D01*
X138735044Y-106693238D01*
X138674536Y-106547159D01*
X138578282Y-106421718D01*
X138452841Y-106325464D01*
X138306762Y-106264956D01*
X138150000Y-106244318D01*
X137993238Y-106264956D01*
X137847159Y-106325464D01*
X137840607Y-106330491D01*
X137833454Y-106334621D01*
X137832243Y-106332524D01*
X137777541Y-106353673D01*
X137707992Y-106339409D01*
X137665704Y-106302969D01*
X137652745Y-106285424D01*
X137652742Y-106285421D01*
X137647150Y-106277850D01*
X137601752Y-106244318D01*
X137545757Y-106202959D01*
X137545754Y-106202958D01*
X137538184Y-106197366D01*
X137410369Y-106152481D01*
X137402723Y-106151758D01*
X137402722Y-106151758D01*
X137396752Y-106151194D01*
X137378834Y-106149500D01*
X136321166Y-106149500D01*
X136303248Y-106151194D01*
X136297278Y-106151758D01*
X136297277Y-106151758D01*
X136289631Y-106152481D01*
X136161816Y-106197366D01*
X136154246Y-106202958D01*
X136154243Y-106202959D01*
X136098248Y-106244318D01*
X136052850Y-106277850D01*
X136047258Y-106285421D01*
X135977959Y-106379243D01*
X135977958Y-106379246D01*
X135972366Y-106386816D01*
X135927481Y-106514631D01*
X135924500Y-106546166D01*
X135924500Y-107153834D01*
X135014855Y-107153834D01*
X132941559Y-102703834D01*
X135974500Y-102703834D01*
X135977481Y-102735369D01*
X136022366Y-102863184D01*
X136027958Y-102870754D01*
X136027959Y-102870757D01*
X136090335Y-102955206D01*
X136102850Y-102972150D01*
X136110421Y-102977742D01*
X136204243Y-103047041D01*
X136204246Y-103047042D01*
X136211816Y-103052634D01*
X136339631Y-103097519D01*
X136347277Y-103098242D01*
X136347278Y-103098242D01*
X136353248Y-103098806D01*
X136371166Y-103100500D01*
X137428834Y-103100500D01*
X137446752Y-103098806D01*
X137452722Y-103098242D01*
X137452723Y-103098242D01*
X137460369Y-103097519D01*
X137588184Y-103052634D01*
X137595754Y-103047042D01*
X137595757Y-103047041D01*
X137689579Y-102977742D01*
X137697150Y-102972150D01*
X137709665Y-102955206D01*
X137772041Y-102870757D01*
X137772042Y-102870754D01*
X137777634Y-102863184D01*
X137796398Y-102809751D01*
X137837842Y-102752106D01*
X137903871Y-102726018D01*
X137915281Y-102725500D01*
X138119572Y-102725500D01*
X138187693Y-102745502D01*
X138234186Y-102799158D01*
X138245572Y-102851500D01*
X138245572Y-102900000D01*
X138261133Y-102978231D01*
X138263726Y-102982112D01*
X138270743Y-103047370D01*
X138265496Y-103065239D01*
X138261133Y-103071769D01*
X138249500Y-103130252D01*
X138249500Y-104074000D01*
X138229498Y-104142121D01*
X138175842Y-104188614D01*
X138123500Y-104200000D01*
X137850000Y-104200000D01*
X137848266Y-104200098D01*
X137848255Y-104200098D01*
X136516750Y-104275113D01*
X136075000Y-104300000D01*
X136075000Y-105550000D01*
X139700000Y-105550000D01*
X139800000Y-105450000D01*
X139910076Y-105312405D01*
X139962170Y-105247288D01*
X140020343Y-105206590D01*
X140060559Y-105200000D01*
X140600000Y-105200000D01*
X141004314Y-105031536D01*
X141183278Y-104956968D01*
X141183279Y-104956967D01*
X141200000Y-104950000D01*
X141200000Y-104200000D01*
X141194681Y-104200000D01*
X141194548Y-104199548D01*
X141159762Y-104145419D01*
X141159763Y-104074422D01*
X141180696Y-104033218D01*
X141228907Y-103970388D01*
X141243328Y-103951594D01*
X141303836Y-103805515D01*
X141324474Y-103648753D01*
X141303836Y-103491991D01*
X141243328Y-103345912D01*
X141147074Y-103220471D01*
X141021633Y-103124217D01*
X140875554Y-103063709D01*
X140718792Y-103043071D01*
X140562030Y-103063709D01*
X140415951Y-103124217D01*
X140409400Y-103129244D01*
X140409395Y-103129247D01*
X140345362Y-103178381D01*
X140279142Y-103203982D01*
X140209593Y-103189717D01*
X140158797Y-103140116D01*
X140145079Y-103102999D01*
X140141289Y-103083942D01*
X140141288Y-103083939D01*
X140138867Y-103071769D01*
X140136274Y-103067888D01*
X140129257Y-103002630D01*
X140134504Y-102984761D01*
X140138867Y-102978231D01*
X140154428Y-102900000D01*
X140154428Y-102359084D01*
X140154430Y-102358314D01*
X140154865Y-102287179D01*
X140154865Y-102287173D01*
X140154892Y-102282693D01*
X140147026Y-102225268D01*
X140107669Y-102087559D01*
X140084001Y-102034649D01*
X140081615Y-102030867D01*
X140081611Y-102030860D01*
X140027878Y-101945699D01*
X140007575Y-101913521D01*
X139970008Y-101869380D01*
X139862657Y-101774572D01*
X139829212Y-101752603D01*
X139817965Y-101745215D01*
X139817962Y-101745214D01*
X139814215Y-101742752D01*
X139810159Y-101740848D01*
X139810156Y-101740846D01*
X139688625Y-101683787D01*
X139684570Y-101681883D01*
X139680287Y-101680574D01*
X139680283Y-101680572D01*
X139633427Y-101666247D01*
X139629139Y-101664936D01*
X139624716Y-101664247D01*
X139624710Y-101664246D01*
X139492042Y-101643590D01*
X139492037Y-101643590D01*
X139487621Y-101642902D01*
X139483155Y-101642847D01*
X139483150Y-101642847D01*
X139456042Y-101642516D01*
X139429665Y-101642194D01*
X139425223Y-101642775D01*
X139425220Y-101642775D01*
X139411969Y-101644508D01*
X139395632Y-101645572D01*
X139014520Y-101645572D01*
X138995137Y-101644072D01*
X138993633Y-101643838D01*
X138987621Y-101642902D01*
X138983155Y-101642847D01*
X138983150Y-101642847D01*
X138956042Y-101642516D01*
X138929665Y-101642194D01*
X138925223Y-101642775D01*
X138925220Y-101642775D01*
X138864583Y-101650704D01*
X138787651Y-101660764D01*
X138783335Y-101661969D01*
X138783330Y-101661970D01*
X138759737Y-101668557D01*
X138731823Y-101676351D01*
X138727718Y-101678157D01*
X138727716Y-101678158D01*
X138678579Y-101699779D01*
X138600730Y-101734034D01*
X138575356Y-101749828D01*
X138555339Y-101762287D01*
X138555335Y-101762290D01*
X138551524Y-101764662D01*
X138548092Y-101767547D01*
X138548085Y-101767552D01*
X138478711Y-101825867D01*
X138441889Y-101856819D01*
X138438901Y-101860161D01*
X138406247Y-101896682D01*
X138406243Y-101896687D01*
X138403255Y-101900029D01*
X138400770Y-101903762D01*
X138400767Y-101903766D01*
X138324514Y-102018319D01*
X138270116Y-102063942D01*
X138219627Y-102074500D01*
X137915281Y-102074500D01*
X137847160Y-102054498D01*
X137800667Y-102000842D01*
X137796398Y-101990249D01*
X137780753Y-101945699D01*
X137777634Y-101936816D01*
X137772042Y-101929246D01*
X137772041Y-101929243D01*
X137702742Y-101835421D01*
X137697150Y-101827850D01*
X137680206Y-101815335D01*
X137595757Y-101752959D01*
X137595754Y-101752958D01*
X137588184Y-101747366D01*
X137460369Y-101702481D01*
X137452723Y-101701758D01*
X137452722Y-101701758D01*
X137446752Y-101701194D01*
X137428834Y-101699500D01*
X136371166Y-101699500D01*
X136353248Y-101701194D01*
X136347278Y-101701758D01*
X136347277Y-101701758D01*
X136339631Y-101702481D01*
X136211816Y-101747366D01*
X136204246Y-101752958D01*
X136204243Y-101752959D01*
X136119794Y-101815335D01*
X136102850Y-101827850D01*
X136097258Y-101835421D01*
X136027959Y-101929243D01*
X136027958Y-101929246D01*
X136022366Y-101936816D01*
X135977481Y-102064631D01*
X135974500Y-102096166D01*
X135974500Y-102703834D01*
X132941559Y-102703834D01*
X132056332Y-100803834D01*
X135974500Y-100803834D01*
X135977481Y-100835369D01*
X136022366Y-100963184D01*
X136027958Y-100970754D01*
X136027959Y-100970757D01*
X136077327Y-101037595D01*
X136102850Y-101072150D01*
X136110421Y-101077742D01*
X136204243Y-101147041D01*
X136204246Y-101147042D01*
X136211816Y-101152634D01*
X136339631Y-101197519D01*
X136347277Y-101198242D01*
X136347278Y-101198242D01*
X136353248Y-101198806D01*
X136371166Y-101200500D01*
X137428834Y-101200500D01*
X137446752Y-101198806D01*
X137452722Y-101198242D01*
X137452723Y-101198242D01*
X137460369Y-101197519D01*
X137588184Y-101152634D01*
X137595754Y-101147042D01*
X137595757Y-101147041D01*
X137689579Y-101077742D01*
X137697150Y-101072150D01*
X137702742Y-101064579D01*
X137702745Y-101064576D01*
X137733791Y-101022543D01*
X137790352Y-100979632D01*
X137861133Y-100974112D01*
X137911847Y-100997440D01*
X137940607Y-101019509D01*
X137940610Y-101019511D01*
X137947159Y-101024536D01*
X138093238Y-101085044D01*
X138101426Y-101086122D01*
X138126416Y-101089412D01*
X138250000Y-101105682D01*
X138258188Y-101104604D01*
X138289772Y-101100446D01*
X138373584Y-101089412D01*
X138398574Y-101086122D01*
X138406762Y-101085044D01*
X138552841Y-101024536D01*
X138678282Y-100928282D01*
X138774536Y-100802841D01*
X138835044Y-100656762D01*
X138855682Y-100500000D01*
X138835044Y-100343238D01*
X138774536Y-100197159D01*
X138701078Y-100101426D01*
X138683305Y-100078264D01*
X138678282Y-100071718D01*
X138552841Y-99975464D01*
X138406762Y-99914956D01*
X138250000Y-99894318D01*
X138093238Y-99914956D01*
X137947159Y-99975464D01*
X137940610Y-99980489D01*
X137940607Y-99980491D01*
X137911847Y-100002560D01*
X137845626Y-100028161D01*
X137776078Y-100013897D01*
X137733791Y-99977457D01*
X137702745Y-99935424D01*
X137702742Y-99935421D01*
X137697150Y-99927850D01*
X137651752Y-99894318D01*
X137595757Y-99852959D01*
X137595754Y-99852958D01*
X137588184Y-99847366D01*
X137460369Y-99802481D01*
X137452723Y-99801758D01*
X137452722Y-99801758D01*
X137446752Y-99801194D01*
X137428834Y-99799500D01*
X136371166Y-99799500D01*
X136353248Y-99801194D01*
X136347278Y-99801758D01*
X136347277Y-99801758D01*
X136339631Y-99802481D01*
X136211816Y-99847366D01*
X136204246Y-99852958D01*
X136204243Y-99852959D01*
X136148248Y-99894318D01*
X136102850Y-99927850D01*
X136097258Y-99935421D01*
X136027959Y-100029243D01*
X136027958Y-100029246D01*
X136022366Y-100036816D01*
X135977481Y-100164631D01*
X135974500Y-100196166D01*
X135974500Y-100803834D01*
X132056332Y-100803834D01*
X131387234Y-99367722D01*
X130761788Y-98025301D01*
X130750000Y-97972088D01*
X130750000Y-96919748D01*
X131209500Y-96919748D01*
X131210707Y-96925816D01*
X131218054Y-96962750D01*
X131221133Y-96978231D01*
X131265448Y-97044552D01*
X131331769Y-97088867D01*
X131343938Y-97091288D01*
X131343939Y-97091288D01*
X131384184Y-97099293D01*
X131390252Y-97100500D01*
X133129748Y-97100500D01*
X133135816Y-97099293D01*
X133176061Y-97091288D01*
X133176062Y-97091288D01*
X133188231Y-97088867D01*
X133254552Y-97044552D01*
X133298867Y-96978231D01*
X133301613Y-96980066D01*
X133333567Y-96940423D01*
X133400934Y-96918011D01*
X133469723Y-96935577D01*
X133494510Y-96954836D01*
X134905889Y-98366215D01*
X134913316Y-98374319D01*
X134937545Y-98403194D01*
X134947094Y-98408707D01*
X134970185Y-98422039D01*
X134979456Y-98427945D01*
X135010316Y-98449554D01*
X135020966Y-98452408D01*
X135024134Y-98453885D01*
X135027410Y-98455077D01*
X135036955Y-98460588D01*
X135070699Y-98466538D01*
X135074058Y-98467130D01*
X135084785Y-98469508D01*
X135121193Y-98479264D01*
X135132169Y-98478304D01*
X135132172Y-98478304D01*
X135158743Y-98475979D01*
X135169724Y-98475500D01*
X140376588Y-98475500D01*
X140444709Y-98495502D01*
X140465683Y-98512405D01*
X145362595Y-103409318D01*
X145396621Y-103471630D01*
X145399500Y-103498413D01*
X145399500Y-104005290D01*
X145399020Y-104016272D01*
X145395736Y-104053807D01*
X145404258Y-104085609D01*
X145405491Y-104090210D01*
X145407870Y-104100942D01*
X145414412Y-104138045D01*
X145419923Y-104147590D01*
X145421115Y-104150866D01*
X145422592Y-104154034D01*
X145425446Y-104164684D01*
X145447055Y-104195544D01*
X145452961Y-104204815D01*
X145456269Y-104210544D01*
X145471806Y-104237455D01*
X145500304Y-104261368D01*
X145500682Y-104261685D01*
X145508785Y-104269111D01*
X145587595Y-104347921D01*
X145621621Y-104410233D01*
X145624500Y-104437016D01*
X145624500Y-104506405D01*
X145624022Y-104517368D01*
X145622801Y-104531323D01*
X145596940Y-104597439D01*
X145539437Y-104639080D01*
X145468550Y-104643022D01*
X145467161Y-104642608D01*
X145461625Y-104639412D01*
X145428421Y-104633558D01*
X145424522Y-104632870D01*
X145413795Y-104630492D01*
X145377387Y-104620736D01*
X145366402Y-104621697D01*
X145366400Y-104621697D01*
X145339852Y-104624020D01*
X145328870Y-104624500D01*
X143869286Y-104624500D01*
X143801165Y-104604498D01*
X143769323Y-104575204D01*
X143733305Y-104528264D01*
X143728282Y-104521718D01*
X143602841Y-104425464D01*
X143456762Y-104364956D01*
X143300000Y-104344318D01*
X143143238Y-104364956D01*
X142997159Y-104425464D01*
X142871718Y-104521718D01*
X142775464Y-104647159D01*
X142714956Y-104793238D01*
X142694318Y-104950000D01*
X142714956Y-105106762D01*
X142775464Y-105252841D01*
X142780491Y-105259392D01*
X142780493Y-105259396D01*
X142867701Y-105373049D01*
X142893301Y-105439269D01*
X142879036Y-105508818D01*
X142867701Y-105526456D01*
X142775464Y-105646662D01*
X142714956Y-105792741D01*
X142694318Y-105949503D01*
X142714956Y-106106265D01*
X142775464Y-106252344D01*
X142780491Y-106258895D01*
X142780493Y-106258899D01*
X142867701Y-106372552D01*
X142893301Y-106438772D01*
X142879036Y-106508321D01*
X142867701Y-106525959D01*
X142855635Y-106541684D01*
X142775464Y-106646165D01*
X142714956Y-106792244D01*
X142694318Y-106949006D01*
X142714956Y-107105768D01*
X142775464Y-107251847D01*
X142871718Y-107377288D01*
X142997159Y-107473542D01*
X143143238Y-107534050D01*
X143300000Y-107554688D01*
X143308188Y-107553610D01*
X143448574Y-107535128D01*
X143456762Y-107534050D01*
X143602841Y-107473542D01*
X143728282Y-107377288D01*
X143824536Y-107251847D01*
X143885044Y-107105768D01*
X143887771Y-107085054D01*
X143916493Y-107020127D01*
X143975758Y-106981035D01*
X144012693Y-106975500D01*
X152146411Y-106975500D01*
X152214532Y-106995502D01*
X152261025Y-107049158D01*
X152271129Y-107119432D01*
X152241635Y-107184012D01*
X152223115Y-107201463D01*
X152196718Y-107221718D01*
X152191695Y-107228264D01*
X152179454Y-107244217D01*
X152100464Y-107347159D01*
X152039956Y-107493238D01*
X152019318Y-107650000D01*
X152039956Y-107806762D01*
X152100464Y-107952841D01*
X152196718Y-108078282D01*
X152322159Y-108174536D01*
X152468238Y-108235044D01*
X152625000Y-108255682D01*
X152633188Y-108254604D01*
X152773574Y-108236122D01*
X152781762Y-108235044D01*
X152927841Y-108174536D01*
X153053282Y-108078282D01*
X153094323Y-108024796D01*
X153151661Y-107982929D01*
X153194286Y-107975500D01*
X153339478Y-107975500D01*
X153350460Y-107975980D01*
X153377008Y-107978303D01*
X153377010Y-107978303D01*
X153387995Y-107979264D01*
X153424403Y-107969508D01*
X153435130Y-107967130D01*
X153438489Y-107966538D01*
X153472233Y-107960588D01*
X153481778Y-107955077D01*
X153485054Y-107953885D01*
X153488222Y-107952408D01*
X153498872Y-107949554D01*
X153529732Y-107927945D01*
X153539003Y-107922039D01*
X153562094Y-107908707D01*
X153571643Y-107903194D01*
X153595867Y-107874325D01*
X153603294Y-107866220D01*
X153899252Y-107570262D01*
X155444520Y-107570262D01*
X155461759Y-107775553D01*
X155463458Y-107781478D01*
X155516693Y-107967130D01*
X155518544Y-107973586D01*
X155521359Y-107979063D01*
X155521360Y-107979066D01*
X155609897Y-108151341D01*
X155612712Y-108156818D01*
X155740677Y-108318270D01*
X155897564Y-108451791D01*
X155902942Y-108454797D01*
X155902944Y-108454798D01*
X155930102Y-108469976D01*
X156077398Y-108552297D01*
X156172238Y-108583113D01*
X156267471Y-108614056D01*
X156267475Y-108614057D01*
X156273329Y-108615959D01*
X156477894Y-108640351D01*
X156484029Y-108639879D01*
X156484031Y-108639879D01*
X156540039Y-108635569D01*
X156683300Y-108624546D01*
X156689230Y-108622890D01*
X156689232Y-108622890D01*
X156875797Y-108570800D01*
X156875796Y-108570800D01*
X156881725Y-108569145D01*
X156887214Y-108566372D01*
X156887220Y-108566370D01*
X157019952Y-108499322D01*
X157065610Y-108476258D01*
X157081515Y-108463832D01*
X160812380Y-108463832D01*
X160813913Y-108482092D01*
X160827142Y-108639622D01*
X160829619Y-108669123D01*
X160886404Y-108867156D01*
X160889219Y-108872633D01*
X160889220Y-108872636D01*
X160910107Y-108913277D01*
X160980572Y-109050388D01*
X161108537Y-109211840D01*
X161265424Y-109345361D01*
X161445258Y-109445867D01*
X161540098Y-109476683D01*
X161635331Y-109507626D01*
X161635335Y-109507627D01*
X161641189Y-109509529D01*
X161845754Y-109533921D01*
X161851889Y-109533449D01*
X161851891Y-109533449D01*
X161907899Y-109529139D01*
X162051160Y-109518116D01*
X162057090Y-109516460D01*
X162057092Y-109516460D01*
X162243657Y-109464370D01*
X162243656Y-109464370D01*
X162249585Y-109462715D01*
X162255074Y-109459942D01*
X162255080Y-109459940D01*
X162427976Y-109372603D01*
X162433470Y-109369828D01*
X162595811Y-109242994D01*
X162625207Y-109208939D01*
X162726400Y-109091704D01*
X162726400Y-109091703D01*
X162730424Y-109087042D01*
X162751247Y-109050388D01*
X162829136Y-108913277D01*
X162832183Y-108907914D01*
X162897211Y-108712433D01*
X162923031Y-108508044D01*
X162923443Y-108478570D01*
X162903340Y-108273540D01*
X162843795Y-108076319D01*
X162747078Y-107894419D01*
X162673719Y-107804472D01*
X162620766Y-107739545D01*
X162620763Y-107739542D01*
X162616871Y-107734770D01*
X162599646Y-107720520D01*
X162462885Y-107607381D01*
X162462881Y-107607379D01*
X162458135Y-107603452D01*
X162276915Y-107505467D01*
X162080114Y-107444547D01*
X162073989Y-107443903D01*
X162073988Y-107443903D01*
X161881358Y-107423657D01*
X161881356Y-107423657D01*
X161875229Y-107423013D01*
X161788389Y-107430916D01*
X161676202Y-107441125D01*
X161676199Y-107441126D01*
X161670063Y-107441684D01*
X161472432Y-107499850D01*
X161289862Y-107595296D01*
X161285061Y-107599156D01*
X161285058Y-107599158D01*
X161134114Y-107720520D01*
X161129307Y-107724385D01*
X160996884Y-107882200D01*
X160993916Y-107887598D01*
X160993913Y-107887603D01*
X160941508Y-107982929D01*
X160897636Y-108062732D01*
X160835344Y-108259102D01*
X160834658Y-108265219D01*
X160834657Y-108265223D01*
X160829249Y-108313439D01*
X160812380Y-108463832D01*
X157081515Y-108463832D01*
X157089355Y-108457707D01*
X157223101Y-108353213D01*
X157227951Y-108349424D01*
X157362564Y-108193472D01*
X157383387Y-108156818D01*
X157401056Y-108125714D01*
X157464323Y-108014344D01*
X157529351Y-107818863D01*
X157555171Y-107614474D01*
X157555583Y-107585000D01*
X157535480Y-107379970D01*
X157475935Y-107182749D01*
X157379218Y-107000849D01*
X157263089Y-106858461D01*
X157252906Y-106845975D01*
X157252903Y-106845972D01*
X157249011Y-106841200D01*
X157209324Y-106808368D01*
X157095025Y-106713811D01*
X157095021Y-106713809D01*
X157090275Y-106709882D01*
X156909055Y-106611897D01*
X156712254Y-106550977D01*
X156706129Y-106550333D01*
X156706128Y-106550333D01*
X156513498Y-106530087D01*
X156513496Y-106530087D01*
X156507369Y-106529443D01*
X156420529Y-106537346D01*
X156308342Y-106547555D01*
X156308339Y-106547556D01*
X156302203Y-106548114D01*
X156104572Y-106606280D01*
X155922002Y-106701726D01*
X155917201Y-106705586D01*
X155917198Y-106705588D01*
X155767387Y-106826039D01*
X155761447Y-106830815D01*
X155629024Y-106988630D01*
X155626056Y-106994028D01*
X155626053Y-106994033D01*
X155538203Y-107153834D01*
X155529776Y-107169162D01*
X155467484Y-107365532D01*
X155466798Y-107371649D01*
X155466797Y-107371653D01*
X155452097Y-107502707D01*
X155444520Y-107570262D01*
X153899252Y-107570262D01*
X154204892Y-107264623D01*
X154204901Y-107264613D01*
X156808539Y-104660975D01*
X156870851Y-104626949D01*
X156897634Y-104624070D01*
X159387984Y-104624070D01*
X159456105Y-104644072D01*
X159477079Y-104660975D01*
X159812595Y-104996491D01*
X159846621Y-105058803D01*
X159849500Y-105085586D01*
X159849500Y-105255714D01*
X159829498Y-105323835D01*
X159800204Y-105355677D01*
X159746718Y-105396718D01*
X159650464Y-105522159D01*
X159589956Y-105668238D01*
X159569318Y-105825000D01*
X159589956Y-105981762D01*
X159650464Y-106127841D01*
X159676088Y-106161235D01*
X159740144Y-106244714D01*
X159746718Y-106253282D01*
X159872159Y-106349536D01*
X160018238Y-106410044D01*
X160175000Y-106430682D01*
X160183188Y-106429604D01*
X160193367Y-106428264D01*
X160331762Y-106410044D01*
X160477841Y-106349536D01*
X160603282Y-106253282D01*
X160608305Y-106246736D01*
X160608308Y-106246733D01*
X160641786Y-106203103D01*
X160699124Y-106161235D01*
X160769995Y-106157013D01*
X160831898Y-106191777D01*
X160862868Y-106245076D01*
X160874438Y-106285424D01*
X160886404Y-106327156D01*
X160889219Y-106332633D01*
X160889220Y-106332636D01*
X160949154Y-106449255D01*
X160980572Y-106510388D01*
X161108537Y-106671840D01*
X161113230Y-106675834D01*
X161113231Y-106675835D01*
X161250012Y-106792244D01*
X161265424Y-106805361D01*
X161445258Y-106905867D01*
X161540098Y-106936682D01*
X161635331Y-106967626D01*
X161635335Y-106967627D01*
X161641189Y-106969529D01*
X161845754Y-106993921D01*
X161851889Y-106993449D01*
X161851891Y-106993449D01*
X161914517Y-106988630D01*
X162051160Y-106978116D01*
X162057090Y-106976460D01*
X162057092Y-106976460D01*
X162243657Y-106924370D01*
X162243656Y-106924370D01*
X162249585Y-106922715D01*
X162255074Y-106919942D01*
X162255080Y-106919940D01*
X162401504Y-106845975D01*
X162433470Y-106829828D01*
X162471096Y-106800432D01*
X162581966Y-106713811D01*
X162595811Y-106702994D01*
X162610818Y-106685609D01*
X162726400Y-106551704D01*
X162726400Y-106551703D01*
X162730424Y-106547042D01*
X162751247Y-106510388D01*
X162829136Y-106373277D01*
X162832183Y-106367914D01*
X162897211Y-106172433D01*
X162923031Y-105968044D01*
X162923443Y-105938570D01*
X162903340Y-105733540D01*
X162843795Y-105536319D01*
X162747078Y-105354419D01*
X162658010Y-105245211D01*
X162620766Y-105199545D01*
X162620763Y-105199542D01*
X162616871Y-105194770D01*
X162612122Y-105190841D01*
X162462885Y-105067381D01*
X162462881Y-105067379D01*
X162458135Y-105063452D01*
X162276915Y-104965467D01*
X162080114Y-104904547D01*
X162073989Y-104903903D01*
X162073988Y-104903903D01*
X161881358Y-104883657D01*
X161881356Y-104883657D01*
X161875229Y-104883013D01*
X161788389Y-104890916D01*
X161676202Y-104901125D01*
X161676199Y-104901126D01*
X161670063Y-104901684D01*
X161472432Y-104959850D01*
X161466973Y-104962704D01*
X161462636Y-104964456D01*
X161391983Y-104971428D01*
X161326342Y-104936725D01*
X160827733Y-104438116D01*
X160328781Y-103939165D01*
X160294756Y-103876853D01*
X160299820Y-103806038D01*
X160342367Y-103749202D01*
X160408887Y-103724391D01*
X160417876Y-103724070D01*
X160777071Y-103724070D01*
X160845192Y-103744072D01*
X160889138Y-103792476D01*
X160964526Y-103939165D01*
X160980572Y-103970388D01*
X161108537Y-104131840D01*
X161113230Y-104135834D01*
X161113231Y-104135835D01*
X161240961Y-104244541D01*
X161265424Y-104265361D01*
X161270802Y-104268367D01*
X161270804Y-104268368D01*
X161340381Y-104307253D01*
X161445258Y-104365867D01*
X161533027Y-104394385D01*
X161635331Y-104427626D01*
X161635335Y-104427627D01*
X161641189Y-104429529D01*
X161845754Y-104453921D01*
X161851889Y-104453449D01*
X161851891Y-104453449D01*
X161907899Y-104449139D01*
X162051160Y-104438116D01*
X162057090Y-104436460D01*
X162057092Y-104436460D01*
X162196470Y-104397545D01*
X162249585Y-104382715D01*
X162255074Y-104379942D01*
X162255080Y-104379940D01*
X162404806Y-104304307D01*
X162433470Y-104289828D01*
X162595811Y-104162994D01*
X162606478Y-104150637D01*
X162726400Y-104011704D01*
X162726400Y-104011703D01*
X162730424Y-104007042D01*
X162734730Y-103999463D01*
X162804382Y-103876853D01*
X162832183Y-103827914D01*
X162897211Y-103632433D01*
X162923031Y-103428044D01*
X162923443Y-103398570D01*
X162903340Y-103193540D01*
X162843795Y-102996319D01*
X162747078Y-102814419D01*
X162636047Y-102678282D01*
X162620766Y-102659545D01*
X162620763Y-102659542D01*
X162616871Y-102654770D01*
X162546805Y-102596806D01*
X162462885Y-102527381D01*
X162462881Y-102527379D01*
X162458135Y-102523452D01*
X162276915Y-102425467D01*
X162080114Y-102364547D01*
X162073989Y-102363903D01*
X162073988Y-102363903D01*
X161881358Y-102343657D01*
X161881356Y-102343657D01*
X161875229Y-102343013D01*
X161788389Y-102350916D01*
X161676202Y-102361125D01*
X161676199Y-102361126D01*
X161670063Y-102361684D01*
X161472432Y-102419850D01*
X161289862Y-102515296D01*
X161285061Y-102519156D01*
X161285058Y-102519158D01*
X161177976Y-102605254D01*
X161129307Y-102644385D01*
X160996884Y-102802200D01*
X160993916Y-102807598D01*
X160993913Y-102807603D01*
X160956607Y-102875464D01*
X160897636Y-102982732D01*
X160895774Y-102988601D01*
X160893345Y-102994269D01*
X160891318Y-102993400D01*
X160857202Y-103044051D01*
X160792000Y-103072145D01*
X160776761Y-103073070D01*
X160417876Y-103073070D01*
X160349755Y-103053068D01*
X160303262Y-102999412D01*
X160293158Y-102929138D01*
X160322652Y-102864558D01*
X160328781Y-102857975D01*
X160757718Y-102429039D01*
X161326982Y-101859775D01*
X161389294Y-101825749D01*
X161455013Y-101829037D01*
X161635331Y-101887626D01*
X161635335Y-101887627D01*
X161641189Y-101889529D01*
X161845754Y-101913921D01*
X161851889Y-101913449D01*
X161851891Y-101913449D01*
X161907899Y-101909139D01*
X162051160Y-101898116D01*
X162057090Y-101896460D01*
X162057092Y-101896460D01*
X162243657Y-101844370D01*
X162243656Y-101844370D01*
X162249585Y-101842715D01*
X162255074Y-101839942D01*
X162255080Y-101839940D01*
X162398382Y-101767552D01*
X162433470Y-101749828D01*
X162439375Y-101745215D01*
X162542127Y-101664936D01*
X162595811Y-101622994D01*
X162658994Y-101549796D01*
X162726400Y-101471704D01*
X162726400Y-101471703D01*
X162730424Y-101467042D01*
X162832183Y-101287914D01*
X162897211Y-101092433D01*
X162923031Y-100888044D01*
X162923443Y-100858570D01*
X162903340Y-100653540D01*
X162843795Y-100456319D01*
X162747078Y-100274419D01*
X162647546Y-100152381D01*
X162620766Y-100119545D01*
X162620763Y-100119542D01*
X162616871Y-100114770D01*
X162599646Y-100100520D01*
X162462885Y-99987381D01*
X162462881Y-99987379D01*
X162458135Y-99983452D01*
X162276915Y-99885467D01*
X162080114Y-99824547D01*
X162073989Y-99823903D01*
X162073988Y-99823903D01*
X161881358Y-99803657D01*
X161881356Y-99803657D01*
X161875229Y-99803013D01*
X161788389Y-99810916D01*
X161676202Y-99821125D01*
X161676199Y-99821126D01*
X161670063Y-99821684D01*
X161472432Y-99879850D01*
X161289862Y-99975296D01*
X161285061Y-99979156D01*
X161285058Y-99979158D01*
X161161795Y-100078264D01*
X161129307Y-100104385D01*
X160996884Y-100262200D01*
X160993916Y-100267598D01*
X160993913Y-100267603D01*
X160900603Y-100437335D01*
X160897636Y-100442732D01*
X160835344Y-100639102D01*
X160834658Y-100645219D01*
X160834657Y-100645223D01*
X160820153Y-100774536D01*
X160812380Y-100843832D01*
X160812896Y-100849976D01*
X160827820Y-101027696D01*
X160829619Y-101049123D01*
X160831318Y-101055048D01*
X160873026Y-101200500D01*
X160886404Y-101247156D01*
X160889222Y-101252638D01*
X160889223Y-101252642D01*
X160889401Y-101252989D01*
X160889439Y-101253189D01*
X160891490Y-101258369D01*
X160890505Y-101258759D01*
X160902747Y-101322720D01*
X160876274Y-101388597D01*
X160866428Y-101399675D01*
X159778509Y-102487595D01*
X159716197Y-102521620D01*
X159689414Y-102524500D01*
X156269710Y-102524500D01*
X156258728Y-102524020D01*
X156232175Y-102521697D01*
X156232170Y-102521697D01*
X156221193Y-102520737D01*
X156184783Y-102530492D01*
X156174076Y-102532866D01*
X156136955Y-102539412D01*
X156127411Y-102544922D01*
X156124135Y-102546114D01*
X156120964Y-102547593D01*
X156110316Y-102550446D01*
X156101287Y-102556768D01*
X156079449Y-102572059D01*
X156070179Y-102577964D01*
X156047096Y-102591291D01*
X156047093Y-102591293D01*
X156037545Y-102596806D01*
X156030457Y-102605253D01*
X156030456Y-102605254D01*
X156013326Y-102625669D01*
X156005900Y-102633773D01*
X154619071Y-104020603D01*
X153252079Y-105387595D01*
X153189767Y-105421621D01*
X153162984Y-105424500D01*
X147057509Y-105424500D01*
X146989388Y-105404498D01*
X146942895Y-105350842D01*
X146932791Y-105280568D01*
X146941100Y-105250282D01*
X146985198Y-105143820D01*
X146988358Y-105136191D01*
X147008996Y-104979429D01*
X146996303Y-104883013D01*
X146989436Y-104830855D01*
X146988358Y-104822667D01*
X146927850Y-104676588D01*
X146831596Y-104551147D01*
X146706155Y-104454893D01*
X146560076Y-104394385D01*
X146531129Y-104390574D01*
X146411502Y-104374825D01*
X146403314Y-104373747D01*
X146400788Y-104374080D01*
X146335206Y-104354823D01*
X146288713Y-104301167D01*
X146277807Y-104237841D01*
X146278303Y-104232178D01*
X146278303Y-104232177D01*
X146279264Y-104221193D01*
X146269508Y-104184785D01*
X146267130Y-104174059D01*
X146265179Y-104162994D01*
X146262229Y-104146264D01*
X146270098Y-104075707D01*
X146314864Y-104020603D01*
X146382316Y-103998448D01*
X146402761Y-103999463D01*
X146441812Y-104004604D01*
X146450000Y-104005682D01*
X146458188Y-104004604D01*
X146598574Y-103986122D01*
X146606762Y-103985044D01*
X146752841Y-103924536D01*
X146878282Y-103828282D01*
X146974536Y-103702841D01*
X147035044Y-103556762D01*
X147055682Y-103400000D01*
X147035044Y-103243238D01*
X146974536Y-103097159D01*
X146894919Y-102993400D01*
X146883305Y-102978264D01*
X146878282Y-102971718D01*
X146871736Y-102966695D01*
X146871732Y-102966691D01*
X146817350Y-102924962D01*
X146775483Y-102867624D01*
X146771261Y-102796753D01*
X146806025Y-102734850D01*
X146817350Y-102725038D01*
X146871732Y-102683309D01*
X146871736Y-102683305D01*
X146878282Y-102678282D01*
X146974536Y-102552841D01*
X147002919Y-102484319D01*
X147047466Y-102429039D01*
X147114829Y-102406618D01*
X147183621Y-102424176D01*
X147208422Y-102443443D01*
X147886035Y-103121057D01*
X148557914Y-103792936D01*
X148591940Y-103855248D01*
X148586875Y-103926064D01*
X148579275Y-103942193D01*
X148575464Y-103947159D01*
X148514956Y-104093238D01*
X148494318Y-104250000D01*
X148495396Y-104258188D01*
X148510610Y-104373747D01*
X148514956Y-104406762D01*
X148575464Y-104552841D01*
X148671718Y-104678282D01*
X148797159Y-104774536D01*
X148943238Y-104835044D01*
X149100000Y-104855682D01*
X149108188Y-104854604D01*
X149117372Y-104853395D01*
X149256762Y-104835044D01*
X149402841Y-104774536D01*
X149528282Y-104678282D01*
X149624536Y-104552841D01*
X149685044Y-104406762D01*
X149689391Y-104373747D01*
X149704604Y-104258188D01*
X149705682Y-104250000D01*
X149685044Y-104093238D01*
X149624536Y-103947159D01*
X149528282Y-103821718D01*
X149490773Y-103792936D01*
X149402841Y-103725464D01*
X149404246Y-103723633D01*
X149367322Y-103686710D01*
X149358705Y-103671785D01*
X149353194Y-103662240D01*
X149324323Y-103638015D01*
X149316218Y-103630587D01*
X146869416Y-101183785D01*
X146861989Y-101175681D01*
X146844846Y-101155251D01*
X146844847Y-101155251D01*
X146837760Y-101146806D01*
X146828211Y-101141293D01*
X146805120Y-101127961D01*
X146795849Y-101122055D01*
X146774020Y-101106770D01*
X146764989Y-101100446D01*
X146754339Y-101097592D01*
X146751171Y-101096115D01*
X146747895Y-101094923D01*
X146738350Y-101089412D01*
X146704606Y-101083462D01*
X146701247Y-101082870D01*
X146690520Y-101080492D01*
X146654112Y-101070736D01*
X146643127Y-101071697D01*
X146643125Y-101071697D01*
X146616577Y-101074020D01*
X146605595Y-101074500D01*
X145909809Y-101074500D01*
X145841688Y-101054498D01*
X145820714Y-101037595D01*
X144515095Y-99731976D01*
X143192862Y-98409744D01*
X143158836Y-98347432D01*
X143163901Y-98276617D01*
X143172840Y-98257646D01*
X143175005Y-98253897D01*
X143180033Y-98247344D01*
X143184682Y-98236122D01*
X143237381Y-98108894D01*
X143240541Y-98101265D01*
X143261179Y-97944503D01*
X143240541Y-97787741D01*
X143180033Y-97641662D01*
X143083779Y-97516221D01*
X142958338Y-97419967D01*
X142812259Y-97359459D01*
X142655497Y-97338821D01*
X142498735Y-97359459D01*
X142352656Y-97419967D01*
X142227215Y-97516221D01*
X142130961Y-97641662D01*
X142127801Y-97649292D01*
X142102786Y-97709683D01*
X142058238Y-97764964D01*
X141990875Y-97787385D01*
X141922083Y-97769827D01*
X141897282Y-97750560D01*
X141180507Y-97033785D01*
X141173080Y-97025681D01*
X141155937Y-97005251D01*
X141155938Y-97005251D01*
X141148851Y-96996806D01*
X141130926Y-96986457D01*
X141116211Y-96977961D01*
X141106940Y-96972055D01*
X141085111Y-96956770D01*
X141076080Y-96950446D01*
X141065430Y-96947592D01*
X141062262Y-96946115D01*
X141058986Y-96944923D01*
X141049441Y-96939412D01*
X141015697Y-96933462D01*
X141012338Y-96932870D01*
X141001611Y-96930492D01*
X140965203Y-96920736D01*
X140954218Y-96921697D01*
X140954216Y-96921697D01*
X140927668Y-96924020D01*
X140916686Y-96924500D01*
X138248144Y-96924500D01*
X138180023Y-96904498D01*
X138167980Y-96890600D01*
X147925200Y-96890600D01*
X150000200Y-96865600D01*
X150000200Y-95906797D01*
X150020202Y-95838676D01*
X150073858Y-95792183D01*
X150116014Y-95781210D01*
X150851018Y-95721615D01*
X151320392Y-95683558D01*
X151389907Y-95697990D01*
X151440584Y-95747712D01*
X151456334Y-95816940D01*
X151455256Y-95827327D01*
X151449500Y-95866782D01*
X151449500Y-96107102D01*
X151429498Y-96175223D01*
X151423472Y-96183793D01*
X151403164Y-96210259D01*
X151342656Y-96356338D01*
X151322018Y-96513100D01*
X151323096Y-96521288D01*
X151326122Y-96544273D01*
X151327200Y-96560719D01*
X151327200Y-97980891D01*
X151307198Y-98049012D01*
X151276061Y-98082241D01*
X151227850Y-98117850D01*
X151222255Y-98125425D01*
X151222254Y-98125426D01*
X151152959Y-98219243D01*
X151152958Y-98219246D01*
X151147366Y-98226816D01*
X151102481Y-98354631D01*
X151099500Y-98386166D01*
X151099500Y-99343834D01*
X151102481Y-99375369D01*
X151147366Y-99503184D01*
X151152958Y-99510754D01*
X151152959Y-99510757D01*
X151189202Y-99559825D01*
X151227850Y-99612150D01*
X151235421Y-99617742D01*
X151329243Y-99687041D01*
X151329246Y-99687042D01*
X151336816Y-99692634D01*
X151464631Y-99737519D01*
X151472277Y-99738242D01*
X151472278Y-99738242D01*
X151478248Y-99738806D01*
X151496166Y-99740500D01*
X152503834Y-99740500D01*
X152521752Y-99738806D01*
X152527722Y-99738242D01*
X152527723Y-99738242D01*
X152535369Y-99737519D01*
X152663184Y-99692634D01*
X152670754Y-99687042D01*
X152670757Y-99687041D01*
X152764579Y-99617742D01*
X152772150Y-99612150D01*
X152810798Y-99559825D01*
X152847041Y-99510757D01*
X152847042Y-99510754D01*
X152852634Y-99503184D01*
X152897519Y-99375369D01*
X152900500Y-99343834D01*
X152900500Y-98386166D01*
X152897519Y-98354631D01*
X152852634Y-98226816D01*
X152847042Y-98219246D01*
X152847041Y-98219243D01*
X152777742Y-98125421D01*
X152772150Y-98117850D01*
X152718580Y-98078282D01*
X152670757Y-98042959D01*
X152670754Y-98042958D01*
X152663184Y-98037366D01*
X152654297Y-98034245D01*
X152612451Y-98019549D01*
X152554806Y-97978106D01*
X152528718Y-97912076D01*
X152528200Y-97900667D01*
X152528200Y-97002100D01*
X152548202Y-96933979D01*
X152601858Y-96887486D01*
X152654200Y-96876100D01*
X154425472Y-96876100D01*
X154493593Y-96896102D01*
X154526819Y-96927236D01*
X154553050Y-96962750D01*
X154560626Y-96968346D01*
X154567288Y-96975008D01*
X154565031Y-96977265D01*
X154593238Y-97013341D01*
X154593376Y-97013261D01*
X154593940Y-97014238D01*
X154596080Y-97016975D01*
X154597002Y-97019201D01*
X154600664Y-97028041D01*
X154614921Y-97046621D01*
X154686479Y-97139877D01*
X154696918Y-97153482D01*
X154703464Y-97158505D01*
X154721871Y-97172629D01*
X154734262Y-97183497D01*
X155327915Y-97777150D01*
X155361941Y-97839462D01*
X155356876Y-97910277D01*
X155314329Y-97967113D01*
X155247809Y-97991924D01*
X155226964Y-97991686D01*
X155206786Y-97989779D01*
X155206785Y-97989779D01*
X155203834Y-97989500D01*
X154196166Y-97989500D01*
X154178248Y-97991194D01*
X154172278Y-97991758D01*
X154172277Y-97991758D01*
X154164631Y-97992481D01*
X154036816Y-98037366D01*
X154029246Y-98042958D01*
X154029243Y-98042959D01*
X153981420Y-98078282D01*
X153927850Y-98117850D01*
X153922258Y-98125421D01*
X153852959Y-98219243D01*
X153852958Y-98219246D01*
X153847366Y-98226816D01*
X153802481Y-98354631D01*
X153799500Y-98386166D01*
X153799500Y-99343834D01*
X153802481Y-99375369D01*
X153847366Y-99503184D01*
X153852958Y-99510754D01*
X153852959Y-99510757D01*
X153889202Y-99559825D01*
X153927850Y-99612150D01*
X154035305Y-99691518D01*
X154035306Y-99691519D01*
X154036816Y-99692634D01*
X154036663Y-99692841D01*
X154083301Y-99738294D01*
X154099500Y-99800097D01*
X154099500Y-100152381D01*
X154098422Y-100168827D01*
X154094318Y-100200000D01*
X154099500Y-100239361D01*
X154114956Y-100356762D01*
X154175464Y-100502841D01*
X154271718Y-100628282D01*
X154278264Y-100633305D01*
X154278266Y-100633307D01*
X154286848Y-100639892D01*
X154310108Y-100663152D01*
X154321718Y-100678282D01*
X154447159Y-100774536D01*
X154593238Y-100835044D01*
X154601426Y-100836122D01*
X154650753Y-100842616D01*
X154750000Y-100855682D01*
X154758188Y-100854604D01*
X154793342Y-100849976D01*
X154849247Y-100842616D01*
X154898574Y-100836122D01*
X154906762Y-100835044D01*
X155052841Y-100774536D01*
X155178282Y-100678282D01*
X155183307Y-100671734D01*
X155269509Y-100559392D01*
X155274536Y-100552841D01*
X155335044Y-100406762D01*
X155355682Y-100250000D01*
X155335044Y-100093238D01*
X155310090Y-100032995D01*
X155300500Y-99984779D01*
X155300500Y-99800097D01*
X155320502Y-99731976D01*
X155363234Y-99692702D01*
X155363184Y-99692634D01*
X155472150Y-99612150D01*
X155510798Y-99559825D01*
X155547041Y-99510757D01*
X155547042Y-99510754D01*
X155552634Y-99503184D01*
X155597519Y-99375369D01*
X155600500Y-99343834D01*
X155600500Y-98386166D01*
X155597519Y-98354631D01*
X155594974Y-98347384D01*
X155594973Y-98347378D01*
X155591476Y-98337420D01*
X155587778Y-98266520D01*
X155622999Y-98204876D01*
X155685956Y-98172060D01*
X155758575Y-98179265D01*
X155893238Y-98235044D01*
X155901426Y-98236122D01*
X155971619Y-98245363D01*
X156050000Y-98255682D01*
X156058188Y-98254604D01*
X156081173Y-98251578D01*
X156097619Y-98250500D01*
X159948811Y-98250500D01*
X159965257Y-98251578D01*
X159996430Y-98255682D01*
X160004618Y-98254604D01*
X160035791Y-98250500D01*
X160059764Y-98247344D01*
X160145004Y-98236122D01*
X160153192Y-98235044D01*
X160299271Y-98174536D01*
X160328549Y-98152070D01*
X160424712Y-98078282D01*
X160443860Y-98053328D01*
X160454727Y-98040938D01*
X160673717Y-97821948D01*
X160736029Y-97787922D01*
X160806844Y-97792987D01*
X160863680Y-97835534D01*
X160888491Y-97902054D01*
X160882914Y-97949141D01*
X160851233Y-98049012D01*
X160835344Y-98099102D01*
X160834658Y-98105219D01*
X160834657Y-98105223D01*
X160816565Y-98266520D01*
X160812380Y-98303832D01*
X160812896Y-98309976D01*
X160827112Y-98479264D01*
X160829619Y-98509123D01*
X160886404Y-98707156D01*
X160889219Y-98712633D01*
X160889220Y-98712636D01*
X160910107Y-98753277D01*
X160980572Y-98890388D01*
X161108537Y-99051840D01*
X161265424Y-99185361D01*
X161445258Y-99285867D01*
X161540098Y-99316683D01*
X161635331Y-99347626D01*
X161635335Y-99347627D01*
X161641189Y-99349529D01*
X161845754Y-99373921D01*
X161851889Y-99373449D01*
X161851891Y-99373449D01*
X161907899Y-99369139D01*
X162051160Y-99358116D01*
X162057090Y-99356460D01*
X162057092Y-99356460D01*
X162243657Y-99304370D01*
X162243656Y-99304370D01*
X162249585Y-99302715D01*
X162255074Y-99299942D01*
X162255080Y-99299940D01*
X162427976Y-99212603D01*
X162433470Y-99209828D01*
X162595811Y-99082994D01*
X162730424Y-98927042D01*
X162751247Y-98890388D01*
X162829136Y-98753277D01*
X162832183Y-98747914D01*
X162897211Y-98552433D01*
X162923031Y-98348044D01*
X162923443Y-98318570D01*
X162903340Y-98113540D01*
X162843795Y-97916319D01*
X162747078Y-97734419D01*
X162645119Y-97609405D01*
X162620766Y-97579545D01*
X162620763Y-97579542D01*
X162616871Y-97574770D01*
X162604318Y-97564385D01*
X162462885Y-97447381D01*
X162462881Y-97447379D01*
X162458135Y-97443452D01*
X162276915Y-97345467D01*
X162080114Y-97284547D01*
X162073989Y-97283903D01*
X162073988Y-97283903D01*
X161881358Y-97263657D01*
X161881356Y-97263657D01*
X161875229Y-97263013D01*
X161788389Y-97270916D01*
X161676202Y-97281125D01*
X161676199Y-97281126D01*
X161670063Y-97281684D01*
X161497969Y-97332334D01*
X161426974Y-97332379D01*
X161367223Y-97294033D01*
X161337689Y-97229471D01*
X161347748Y-97159191D01*
X161373300Y-97122365D01*
X161629690Y-96865975D01*
X161692002Y-96831949D01*
X161718785Y-96829070D01*
X162737608Y-96829070D01*
X162743676Y-96827863D01*
X162783921Y-96819858D01*
X162783922Y-96819858D01*
X162796091Y-96817437D01*
X162862412Y-96773122D01*
X162906727Y-96706801D01*
X162909777Y-96691471D01*
X162917153Y-96654386D01*
X162918360Y-96648318D01*
X162918360Y-94908822D01*
X162913892Y-94886361D01*
X162909148Y-94862509D01*
X162909148Y-94862508D01*
X162906727Y-94850339D01*
X162862412Y-94784018D01*
X162823797Y-94758216D01*
X162806407Y-94746596D01*
X162796091Y-94739703D01*
X162783922Y-94737282D01*
X162783921Y-94737282D01*
X162743676Y-94729277D01*
X162737608Y-94728070D01*
X160998112Y-94728070D01*
X160992044Y-94729277D01*
X160951799Y-94737282D01*
X160951798Y-94737282D01*
X160939629Y-94739703D01*
X160929313Y-94746596D01*
X160911923Y-94758216D01*
X160873308Y-94784018D01*
X160828993Y-94850339D01*
X160826572Y-94862508D01*
X160826572Y-94862509D01*
X160821828Y-94886361D01*
X160817360Y-94908822D01*
X160817360Y-95927645D01*
X160797358Y-95995766D01*
X160780455Y-96016740D01*
X159784600Y-97012595D01*
X159722288Y-97046621D01*
X159695505Y-97049500D01*
X158270407Y-97049500D01*
X158202286Y-97029498D01*
X158198222Y-97024808D01*
X158149008Y-97047995D01*
X158129593Y-97049500D01*
X157781909Y-97049500D01*
X157713788Y-97029498D01*
X157667295Y-96975842D01*
X157657191Y-96905568D01*
X157670554Y-96864542D01*
X157672240Y-96861358D01*
X157677834Y-96853784D01*
X157680954Y-96844899D01*
X157685362Y-96836574D01*
X157687958Y-96837949D01*
X157720477Y-96792711D01*
X157786505Y-96766618D01*
X157797922Y-96766100D01*
X157972440Y-96766100D01*
X158020658Y-96775691D01*
X158043238Y-96785044D01*
X158051426Y-96786122D01*
X158146039Y-96798578D01*
X158202387Y-96823505D01*
X158234909Y-96802604D01*
X158253961Y-96798578D01*
X158348574Y-96786122D01*
X158356762Y-96785044D01*
X158502841Y-96724536D01*
X158628282Y-96628282D01*
X158724536Y-96502841D01*
X158785044Y-96356762D01*
X158805682Y-96200000D01*
X158785044Y-96043238D01*
X158724536Y-95897159D01*
X158679151Y-95838012D01*
X158628282Y-95771718D01*
X158621735Y-95766694D01*
X158615893Y-95760852D01*
X158615921Y-95760824D01*
X158604776Y-95749679D01*
X158604748Y-95749707D01*
X158598906Y-95743865D01*
X158593882Y-95737318D01*
X158468441Y-95641064D01*
X158322362Y-95580556D01*
X158204961Y-95565100D01*
X158165600Y-95559918D01*
X158157412Y-95560996D01*
X158134427Y-95564022D01*
X158117981Y-95565100D01*
X157797922Y-95565100D01*
X157729801Y-95545098D01*
X157685846Y-95494371D01*
X157685363Y-95494627D01*
X157684256Y-95492536D01*
X157683308Y-95491442D01*
X157682135Y-95488530D01*
X157680953Y-95486297D01*
X157677834Y-95477416D01*
X157672242Y-95469846D01*
X157672241Y-95469843D01*
X157650349Y-95440205D01*
X157625966Y-95373527D01*
X157625700Y-95365345D01*
X157625700Y-94957008D01*
X157643842Y-94895223D01*
X157642830Y-94894687D01*
X157645454Y-94889730D01*
X157645702Y-94888887D01*
X157646558Y-94887646D01*
X157647240Y-94886357D01*
X157651718Y-94880295D01*
X157651720Y-94880293D01*
X157652838Y-94878779D01*
X157653046Y-94878932D01*
X157698494Y-94832299D01*
X157760297Y-94816100D01*
X158136781Y-94816100D01*
X158153227Y-94817178D01*
X158184400Y-94821282D01*
X158192588Y-94820204D01*
X158223761Y-94816100D01*
X158332974Y-94801722D01*
X158341162Y-94800644D01*
X158487241Y-94740136D01*
X158612682Y-94643882D01*
X158617704Y-94637337D01*
X158621737Y-94633304D01*
X158628282Y-94628282D01*
X158638877Y-94614475D01*
X158671503Y-94571955D01*
X158724536Y-94502841D01*
X158785044Y-94356762D01*
X158805682Y-94200000D01*
X158785044Y-94043238D01*
X158724536Y-93897159D01*
X158628282Y-93771718D01*
X158502841Y-93675464D01*
X158356762Y-93614956D01*
X158200000Y-93594318D01*
X158191812Y-93595396D01*
X158050332Y-93614022D01*
X158033886Y-93615100D01*
X157760297Y-93615100D01*
X157692176Y-93595098D01*
X157652902Y-93552366D01*
X157652834Y-93552416D01*
X157652366Y-93551783D01*
X157647241Y-93544843D01*
X157647240Y-93544842D01*
X157577942Y-93451021D01*
X157572350Y-93443450D01*
X157555406Y-93430935D01*
X157470957Y-93368559D01*
X157470954Y-93368558D01*
X157463384Y-93362966D01*
X157335569Y-93318081D01*
X157327923Y-93317358D01*
X157327922Y-93317358D01*
X157321952Y-93316794D01*
X157304034Y-93315100D01*
X156671366Y-93315100D01*
X156653448Y-93316794D01*
X156647478Y-93317358D01*
X156647477Y-93317358D01*
X156639831Y-93318081D01*
X156512016Y-93362966D01*
X156504446Y-93368558D01*
X156504443Y-93368559D01*
X156419994Y-93430935D01*
X156403050Y-93443450D01*
X156397458Y-93451021D01*
X156328159Y-93544843D01*
X156328158Y-93544846D01*
X156322566Y-93552416D01*
X156277681Y-93680231D01*
X156274700Y-93711766D01*
X156274700Y-94719434D01*
X156277681Y-94750969D01*
X156322566Y-94878784D01*
X156328157Y-94886354D01*
X156328161Y-94886361D01*
X156400051Y-94983691D01*
X156424434Y-95050369D01*
X156424700Y-95058550D01*
X156424700Y-95365345D01*
X156404698Y-95433466D01*
X156400051Y-95440205D01*
X156378159Y-95469843D01*
X156378158Y-95469846D01*
X156372566Y-95477416D01*
X156327681Y-95605231D01*
X156324700Y-95636766D01*
X156324700Y-96694434D01*
X156327681Y-96725969D01*
X156330226Y-96733216D01*
X156335072Y-96747016D01*
X156338770Y-96817917D01*
X156303550Y-96879561D01*
X156240593Y-96912378D01*
X156169888Y-96905949D01*
X156127094Y-96877859D01*
X155862605Y-96613370D01*
X155828579Y-96551058D01*
X155825700Y-96524275D01*
X155825700Y-95636766D01*
X155822719Y-95605231D01*
X155777834Y-95477416D01*
X155772242Y-95469846D01*
X155772241Y-95469843D01*
X155702942Y-95376021D01*
X155697350Y-95368450D01*
X155594287Y-95292326D01*
X155551377Y-95235765D01*
X155545857Y-95164983D01*
X155579481Y-95102454D01*
X155621281Y-95075968D01*
X155621173Y-95075763D01*
X155623799Y-95074373D01*
X155627395Y-95072094D01*
X155629496Y-95071356D01*
X155629500Y-95071354D01*
X155638384Y-95068234D01*
X155645954Y-95062642D01*
X155645957Y-95062641D01*
X155731442Y-94999500D01*
X155747350Y-94987750D01*
X155776817Y-94947855D01*
X155822241Y-94886357D01*
X155822242Y-94886354D01*
X155827834Y-94878784D01*
X155872719Y-94750969D01*
X155875700Y-94719434D01*
X155875700Y-93711766D01*
X155872719Y-93680231D01*
X155827834Y-93552416D01*
X155822242Y-93544846D01*
X155822241Y-93544843D01*
X155752942Y-93451021D01*
X155747350Y-93443450D01*
X155730406Y-93430935D01*
X155645957Y-93368559D01*
X155645954Y-93368558D01*
X155638384Y-93362966D01*
X155510569Y-93318081D01*
X155502923Y-93317358D01*
X155502922Y-93317358D01*
X155496952Y-93316794D01*
X155479034Y-93315100D01*
X154846366Y-93315100D01*
X154828448Y-93316794D01*
X154822478Y-93317358D01*
X154822477Y-93317358D01*
X154814831Y-93318081D01*
X154687016Y-93362966D01*
X154679446Y-93368558D01*
X154679443Y-93368559D01*
X154594994Y-93430935D01*
X154578050Y-93443450D01*
X154572458Y-93451021D01*
X154503159Y-93544843D01*
X154503158Y-93544846D01*
X154497566Y-93552416D01*
X154452681Y-93680231D01*
X154449700Y-93711766D01*
X154449700Y-93749100D01*
X154429698Y-93817221D01*
X154376042Y-93863714D01*
X154323700Y-93875100D01*
X153442360Y-93875100D01*
X153374239Y-93855098D01*
X153342039Y-93824472D01*
X153338932Y-93818145D01*
X153287392Y-93766695D01*
X153263721Y-93743065D01*
X153263720Y-93743065D01*
X153256350Y-93735707D01*
X153151518Y-93684464D01*
X153095439Y-93676283D01*
X153030919Y-93646657D01*
X153024533Y-93640698D01*
X151508497Y-92124662D01*
X151497629Y-92112271D01*
X151483505Y-92093864D01*
X151478482Y-92087318D01*
X151353041Y-91991064D01*
X151206962Y-91930556D01*
X151089561Y-91915100D01*
X151050200Y-91909918D01*
X151042012Y-91910996D01*
X151019027Y-91914022D01*
X151002581Y-91915100D01*
X150192880Y-91915100D01*
X150124759Y-91895098D01*
X150078266Y-91841442D01*
X150069301Y-91813682D01*
X150066488Y-91799539D01*
X150066488Y-91799538D01*
X150064067Y-91787369D01*
X150019752Y-91721048D01*
X149953431Y-91676733D01*
X149941262Y-91674312D01*
X149941261Y-91674312D01*
X149901016Y-91666307D01*
X149894948Y-91665100D01*
X148155452Y-91665100D01*
X148149384Y-91666307D01*
X148109139Y-91674312D01*
X148109138Y-91674312D01*
X148096969Y-91676733D01*
X148030648Y-91721048D01*
X147986333Y-91787369D01*
X147974700Y-91845852D01*
X147974700Y-93185348D01*
X147986333Y-93243831D01*
X148030648Y-93310152D01*
X148096969Y-93354467D01*
X148109138Y-93356888D01*
X148109139Y-93356888D01*
X148139696Y-93362966D01*
X148155452Y-93366100D01*
X149894948Y-93366100D01*
X149910704Y-93362966D01*
X149941261Y-93356888D01*
X149941262Y-93356888D01*
X149953431Y-93354467D01*
X150019752Y-93310152D01*
X150064067Y-93243831D01*
X150069301Y-93217518D01*
X150102209Y-93154608D01*
X150163904Y-93119477D01*
X150192880Y-93116100D01*
X150749275Y-93116100D01*
X150817396Y-93136102D01*
X150838370Y-93153005D01*
X151129678Y-93444313D01*
X151163704Y-93506625D01*
X151158639Y-93577440D01*
X151116092Y-93634276D01*
X151049572Y-93659087D01*
X151039596Y-93659404D01*
X150148860Y-93652378D01*
X150148896Y-93666256D01*
X150148896Y-93666257D01*
X150150051Y-94108483D01*
X150130226Y-94176656D01*
X150107342Y-94203356D01*
X149134760Y-95060155D01*
X149070424Y-95090175D01*
X149054155Y-95091580D01*
X147925200Y-95115600D01*
X147925200Y-96890600D01*
X138167980Y-96890600D01*
X138133530Y-96850842D01*
X138123426Y-96780568D01*
X138152762Y-96716170D01*
X138198536Y-96663140D01*
X138198542Y-96663132D01*
X138202564Y-96658472D01*
X138223387Y-96621818D01*
X138241241Y-96590389D01*
X138304323Y-96479344D01*
X138369351Y-96283863D01*
X138395171Y-96079474D01*
X138395583Y-96050000D01*
X138375480Y-95844970D01*
X138315935Y-95647749D01*
X138219218Y-95465849D01*
X138135220Y-95362858D01*
X138092906Y-95310975D01*
X138092903Y-95310972D01*
X138089011Y-95306200D01*
X138084262Y-95302271D01*
X137935025Y-95178811D01*
X137935021Y-95178809D01*
X137930275Y-95174882D01*
X137749055Y-95076897D01*
X137552254Y-95015977D01*
X137546129Y-95015333D01*
X137546128Y-95015333D01*
X137353498Y-94995087D01*
X137353496Y-94995087D01*
X137347369Y-94994443D01*
X137260529Y-95002346D01*
X137148342Y-95012555D01*
X137148339Y-95012556D01*
X137142203Y-95013114D01*
X136944572Y-95071280D01*
X136939107Y-95074137D01*
X136905742Y-95091580D01*
X136762002Y-95166726D01*
X136757201Y-95170586D01*
X136757198Y-95170588D01*
X136615381Y-95284612D01*
X136601447Y-95295815D01*
X136469024Y-95453630D01*
X136466056Y-95459028D01*
X136466053Y-95459033D01*
X136399246Y-95580556D01*
X136369776Y-95634162D01*
X136307484Y-95830532D01*
X136306798Y-95836649D01*
X136306797Y-95836653D01*
X136296591Y-95927645D01*
X136284520Y-96035262D01*
X136285036Y-96041406D01*
X136298354Y-96200000D01*
X136301759Y-96240553D01*
X136303458Y-96246478D01*
X136337308Y-96364526D01*
X136358544Y-96438586D01*
X136361359Y-96444063D01*
X136361360Y-96444066D01*
X136429404Y-96576465D01*
X136452712Y-96621818D01*
X136580677Y-96783270D01*
X136585370Y-96787264D01*
X136585371Y-96787265D01*
X136724825Y-96905949D01*
X136737564Y-96916791D01*
X136742942Y-96919797D01*
X136742944Y-96919798D01*
X136797782Y-96950446D01*
X136917398Y-97017297D01*
X136992346Y-97041649D01*
X137107471Y-97079056D01*
X137107475Y-97079057D01*
X137113329Y-97080959D01*
X137189311Y-97090019D01*
X137305373Y-97103858D01*
X137370647Y-97131785D01*
X137379550Y-97139877D01*
X137399078Y-97159405D01*
X137433104Y-97221717D01*
X137428039Y-97292532D01*
X137385492Y-97349368D01*
X137318972Y-97374179D01*
X137309983Y-97374500D01*
X136637018Y-97374500D01*
X136568897Y-97354498D01*
X136547923Y-97337596D01*
X136176388Y-96966061D01*
X135800715Y-96590389D01*
X135766690Y-96528076D01*
X135770252Y-96461521D01*
X135805242Y-96356338D01*
X135829351Y-96283863D01*
X135855171Y-96079474D01*
X135855583Y-96050000D01*
X135835480Y-95844970D01*
X135775935Y-95647749D01*
X135679218Y-95465849D01*
X135595220Y-95362858D01*
X135552906Y-95310975D01*
X135552903Y-95310972D01*
X135549011Y-95306200D01*
X135544262Y-95302271D01*
X135395025Y-95178811D01*
X135395021Y-95178809D01*
X135390275Y-95174882D01*
X135209055Y-95076897D01*
X135012254Y-95015977D01*
X135006129Y-95015333D01*
X135006128Y-95015333D01*
X134813498Y-94995087D01*
X134813496Y-94995087D01*
X134807369Y-94994443D01*
X134720529Y-95002346D01*
X134608342Y-95012555D01*
X134608339Y-95012556D01*
X134602203Y-95013114D01*
X134404572Y-95071280D01*
X134399107Y-95074137D01*
X134365742Y-95091580D01*
X134222002Y-95166726D01*
X134205179Y-95180252D01*
X134155452Y-95220233D01*
X134089829Y-95247329D01*
X134019975Y-95234645D01*
X133968067Y-95186209D01*
X133950500Y-95122036D01*
X133950500Y-94872016D01*
X133970502Y-94803895D01*
X133987405Y-94782921D01*
X134259122Y-94511204D01*
X134321434Y-94477178D01*
X134387151Y-94480466D01*
X134573329Y-94540959D01*
X134777894Y-94565351D01*
X134784029Y-94564879D01*
X134784031Y-94564879D01*
X134840039Y-94560569D01*
X134983300Y-94549546D01*
X134989230Y-94547890D01*
X134989232Y-94547890D01*
X135175797Y-94495800D01*
X135175796Y-94495800D01*
X135181725Y-94494145D01*
X135187214Y-94491372D01*
X135187220Y-94491370D01*
X135360116Y-94404033D01*
X135365610Y-94401258D01*
X135527951Y-94274424D01*
X135612342Y-94176656D01*
X135658540Y-94123134D01*
X135658540Y-94123133D01*
X135662564Y-94118472D01*
X135683387Y-94081818D01*
X135737741Y-93986136D01*
X135764323Y-93939344D01*
X135829351Y-93743863D01*
X135855171Y-93539474D01*
X135855583Y-93510000D01*
X135854138Y-93495262D01*
X136284520Y-93495262D01*
X136285036Y-93501406D01*
X136300769Y-93688760D01*
X136301759Y-93700553D01*
X136303458Y-93706478D01*
X136351810Y-93875100D01*
X136358544Y-93898586D01*
X136361359Y-93904063D01*
X136361360Y-93904066D01*
X136440495Y-94058047D01*
X136452712Y-94081818D01*
X136580677Y-94243270D01*
X136585370Y-94247264D01*
X136585371Y-94247265D01*
X136723616Y-94364920D01*
X136737564Y-94376791D01*
X136917398Y-94477297D01*
X136996014Y-94502841D01*
X137107471Y-94539056D01*
X137107475Y-94539057D01*
X137113329Y-94540959D01*
X137317894Y-94565351D01*
X137324029Y-94564879D01*
X137324031Y-94564879D01*
X137380039Y-94560569D01*
X137523300Y-94549546D01*
X137529230Y-94547890D01*
X137529232Y-94547890D01*
X137715797Y-94495800D01*
X137715796Y-94495800D01*
X137721725Y-94494145D01*
X137727214Y-94491372D01*
X137727220Y-94491370D01*
X137900116Y-94404033D01*
X137905610Y-94401258D01*
X138067951Y-94274424D01*
X138152342Y-94176656D01*
X138198540Y-94123134D01*
X138198540Y-94123133D01*
X138202564Y-94118472D01*
X138223387Y-94081818D01*
X138277741Y-93986136D01*
X138304323Y-93939344D01*
X138369351Y-93743863D01*
X138395171Y-93539474D01*
X138395583Y-93510000D01*
X138375480Y-93304970D01*
X138315935Y-93107749D01*
X138219218Y-92925849D01*
X138145859Y-92835902D01*
X138092906Y-92770975D01*
X138092903Y-92770972D01*
X138089011Y-92766200D01*
X138011789Y-92702316D01*
X137935025Y-92638811D01*
X137935021Y-92638809D01*
X137930275Y-92634882D01*
X137749055Y-92536897D01*
X137552254Y-92475977D01*
X137546129Y-92475333D01*
X137546128Y-92475333D01*
X137353498Y-92455087D01*
X137353496Y-92455087D01*
X137347369Y-92454443D01*
X137260529Y-92462346D01*
X137148342Y-92472555D01*
X137148339Y-92472556D01*
X137142203Y-92473114D01*
X136944572Y-92531280D01*
X136762002Y-92626726D01*
X136757201Y-92630586D01*
X136757198Y-92630588D01*
X136606254Y-92751950D01*
X136601447Y-92755815D01*
X136469024Y-92913630D01*
X136466056Y-92919028D01*
X136466053Y-92919033D01*
X136459315Y-92931290D01*
X136369776Y-93094162D01*
X136307484Y-93290532D01*
X136306798Y-93296649D01*
X136306797Y-93296653D01*
X136290235Y-93444313D01*
X136284520Y-93495262D01*
X135854138Y-93495262D01*
X135835480Y-93304970D01*
X135775935Y-93107749D01*
X135679218Y-92925849D01*
X135605859Y-92835902D01*
X135552906Y-92770975D01*
X135552903Y-92770972D01*
X135549011Y-92766200D01*
X135471789Y-92702316D01*
X135395025Y-92638811D01*
X135395021Y-92638809D01*
X135390275Y-92634882D01*
X135209055Y-92536897D01*
X135012254Y-92475977D01*
X135006129Y-92475333D01*
X135006128Y-92475333D01*
X134813498Y-92455087D01*
X134813496Y-92455087D01*
X134807369Y-92454443D01*
X134720529Y-92462346D01*
X134608342Y-92472555D01*
X134608339Y-92472556D01*
X134602203Y-92473114D01*
X134404572Y-92531280D01*
X134222002Y-92626726D01*
X134217201Y-92630586D01*
X134217198Y-92630588D01*
X134066254Y-92751950D01*
X134061447Y-92755815D01*
X133929024Y-92913630D01*
X133926056Y-92919028D01*
X133926053Y-92919033D01*
X133919315Y-92931290D01*
X133829776Y-93094162D01*
X133767484Y-93290532D01*
X133766798Y-93296649D01*
X133766797Y-93296653D01*
X133750235Y-93444313D01*
X133744520Y-93495262D01*
X133745036Y-93501406D01*
X133760769Y-93688760D01*
X133761759Y-93700553D01*
X133763458Y-93706478D01*
X133811810Y-93875100D01*
X133818544Y-93898586D01*
X133821362Y-93904069D01*
X133821365Y-93904077D01*
X133821545Y-93904428D01*
X133821584Y-93904630D01*
X133823630Y-93909799D01*
X133822647Y-93910188D01*
X133834886Y-93974160D01*
X133808409Y-94040034D01*
X133798568Y-94051106D01*
X133408785Y-94440889D01*
X133400681Y-94448316D01*
X133371806Y-94472545D01*
X133366293Y-94482094D01*
X133352961Y-94505185D01*
X133347055Y-94514456D01*
X133325446Y-94545316D01*
X133322592Y-94555966D01*
X133321115Y-94559134D01*
X133319923Y-94562410D01*
X133314412Y-94571955D01*
X133310907Y-94591835D01*
X133307870Y-94609058D01*
X133305492Y-94619785D01*
X133295736Y-94656193D01*
X133296697Y-94667178D01*
X133296697Y-94667180D01*
X133299020Y-94693728D01*
X133299500Y-94704710D01*
X133299500Y-94879734D01*
X133279498Y-94947855D01*
X133225842Y-94994348D01*
X133148921Y-95003313D01*
X133135821Y-95000708D01*
X133129748Y-94999500D01*
X131390252Y-94999500D01*
X131384184Y-95000707D01*
X131343939Y-95008712D01*
X131343938Y-95008712D01*
X131331769Y-95011133D01*
X131265448Y-95055448D01*
X131221133Y-95121769D01*
X131218712Y-95133938D01*
X131218712Y-95133939D01*
X131212759Y-95163869D01*
X131209500Y-95180252D01*
X131209500Y-96919748D01*
X130750000Y-96919748D01*
X130750000Y-92082406D01*
X130770002Y-92014285D01*
X130825497Y-91966970D01*
X131088197Y-91852039D01*
X135321428Y-90000000D01*
X138819318Y-90000000D01*
X138839956Y-90156762D01*
X138900464Y-90302841D01*
X138905491Y-90309392D01*
X138980221Y-90406782D01*
X138996718Y-90428282D01*
X139122159Y-90524536D01*
X139268238Y-90585044D01*
X139425000Y-90605682D01*
X139433188Y-90604604D01*
X139573574Y-90586122D01*
X139581762Y-90585044D01*
X139727841Y-90524536D01*
X139734394Y-90519508D01*
X139734397Y-90519506D01*
X139821037Y-90453025D01*
X139887257Y-90427424D01*
X139956806Y-90441689D01*
X140007602Y-90491290D01*
X140016623Y-90511238D01*
X140031745Y-90554297D01*
X140034866Y-90563184D01*
X140040458Y-90570754D01*
X140040459Y-90570757D01*
X140102835Y-90655206D01*
X140115350Y-90672150D01*
X140122921Y-90677742D01*
X140216743Y-90747041D01*
X140216746Y-90747042D01*
X140224316Y-90752634D01*
X140352131Y-90797519D01*
X140359777Y-90798242D01*
X140359778Y-90798242D01*
X140365748Y-90798806D01*
X140383666Y-90800500D01*
X141016334Y-90800500D01*
X141034252Y-90798806D01*
X141040222Y-90798242D01*
X141040223Y-90798242D01*
X141047869Y-90797519D01*
X141175684Y-90752634D01*
X141183254Y-90747042D01*
X141183257Y-90747041D01*
X141277079Y-90677742D01*
X141284650Y-90672150D01*
X141297165Y-90655206D01*
X141359541Y-90570757D01*
X141359542Y-90570754D01*
X141365134Y-90563184D01*
X141410019Y-90435369D01*
X141413000Y-90403834D01*
X141812000Y-90403834D01*
X141814981Y-90435369D01*
X141859866Y-90563184D01*
X141865458Y-90570754D01*
X141865459Y-90570757D01*
X141927835Y-90655206D01*
X141940350Y-90672150D01*
X141947921Y-90677742D01*
X142041743Y-90747041D01*
X142041746Y-90747042D01*
X142049316Y-90752634D01*
X142177131Y-90797519D01*
X142184777Y-90798242D01*
X142184778Y-90798242D01*
X142190748Y-90798806D01*
X142208666Y-90800500D01*
X142841334Y-90800500D01*
X142859252Y-90798806D01*
X142865222Y-90798242D01*
X142865223Y-90798242D01*
X142872869Y-90797519D01*
X143000684Y-90752634D01*
X143008254Y-90747042D01*
X143008257Y-90747041D01*
X143102079Y-90677742D01*
X143109650Y-90672150D01*
X143184541Y-90570757D01*
X143190134Y-90563184D01*
X143190341Y-90563337D01*
X143235794Y-90516699D01*
X143297597Y-90500500D01*
X143824996Y-90500500D01*
X143893117Y-90520502D01*
X143933479Y-90564417D01*
X143934202Y-90566476D01*
X144013570Y-90673930D01*
X144021141Y-90679522D01*
X144113451Y-90747705D01*
X144113454Y-90747706D01*
X144121024Y-90753298D01*
X144247066Y-90797560D01*
X144254712Y-90798283D01*
X144254713Y-90798283D01*
X144260382Y-90798819D01*
X144278167Y-90800500D01*
X144574849Y-90800500D01*
X144871832Y-90800499D01*
X144874782Y-90800220D01*
X144874787Y-90800220D01*
X144885148Y-90799241D01*
X144902934Y-90797560D01*
X144910182Y-90795015D01*
X145020094Y-90756417D01*
X145028976Y-90753298D01*
X145036546Y-90747706D01*
X145036549Y-90747705D01*
X145128859Y-90679522D01*
X145136430Y-90673930D01*
X145187636Y-90604604D01*
X145210205Y-90574049D01*
X145210206Y-90574046D01*
X145215798Y-90566476D01*
X145260060Y-90440434D01*
X145263000Y-90409333D01*
X145262999Y-89390668D01*
X145260060Y-89359566D01*
X145215798Y-89233524D01*
X145210206Y-89225954D01*
X145210205Y-89225951D01*
X145142022Y-89133641D01*
X145136430Y-89126070D01*
X145113847Y-89109390D01*
X145036549Y-89052295D01*
X145036546Y-89052294D01*
X145028976Y-89046702D01*
X144902934Y-89002440D01*
X144895288Y-89001717D01*
X144895287Y-89001717D01*
X144889618Y-89001181D01*
X144871833Y-88999500D01*
X144575151Y-88999500D01*
X144278168Y-88999501D01*
X144275218Y-88999780D01*
X144275213Y-88999780D01*
X144264852Y-89000759D01*
X144247066Y-89002440D01*
X144239825Y-89004983D01*
X144239824Y-89004983D01*
X144239702Y-89005026D01*
X144121024Y-89046702D01*
X144113454Y-89052294D01*
X144113451Y-89052295D01*
X144036153Y-89109390D01*
X144013570Y-89126070D01*
X143934202Y-89233524D01*
X143933577Y-89235305D01*
X143886799Y-89283302D01*
X143824996Y-89299500D01*
X143297597Y-89299500D01*
X143229476Y-89279498D01*
X143190202Y-89236766D01*
X143190134Y-89236816D01*
X143189666Y-89236183D01*
X143184541Y-89229243D01*
X143184540Y-89229242D01*
X143115242Y-89135421D01*
X143109650Y-89127850D01*
X143092706Y-89115335D01*
X143008257Y-89052959D01*
X143008254Y-89052958D01*
X143000684Y-89047366D01*
X142872869Y-89002481D01*
X142865223Y-89001758D01*
X142865222Y-89001758D01*
X142859252Y-89001194D01*
X142841334Y-88999500D01*
X142208666Y-88999500D01*
X142190748Y-89001194D01*
X142184778Y-89001758D01*
X142184777Y-89001758D01*
X142177131Y-89002481D01*
X142049316Y-89047366D01*
X142041746Y-89052958D01*
X142041743Y-89052959D01*
X141957294Y-89115335D01*
X141940350Y-89127850D01*
X141934758Y-89135421D01*
X141865459Y-89229243D01*
X141865458Y-89229246D01*
X141859866Y-89236816D01*
X141814981Y-89364631D01*
X141812000Y-89396166D01*
X141812000Y-90403834D01*
X141413000Y-90403834D01*
X141413000Y-89396166D01*
X141410019Y-89364631D01*
X141365134Y-89236816D01*
X141359542Y-89229246D01*
X141359541Y-89229243D01*
X141290242Y-89135421D01*
X141284650Y-89127850D01*
X141267706Y-89115335D01*
X141183257Y-89052959D01*
X141183254Y-89052958D01*
X141175684Y-89047366D01*
X141047869Y-89002481D01*
X141040223Y-89001758D01*
X141040222Y-89001758D01*
X141034252Y-89001194D01*
X141016334Y-88999500D01*
X140383666Y-88999500D01*
X140365748Y-89001194D01*
X140359778Y-89001758D01*
X140359777Y-89001758D01*
X140352131Y-89002481D01*
X140224316Y-89047366D01*
X140216746Y-89052958D01*
X140216743Y-89052959D01*
X140132294Y-89115335D01*
X140115350Y-89127850D01*
X140109758Y-89135421D01*
X140040459Y-89229243D01*
X140040458Y-89229246D01*
X140034866Y-89236816D01*
X139989981Y-89364631D01*
X139987000Y-89396166D01*
X139987000Y-89418820D01*
X139966998Y-89486941D01*
X139913342Y-89533434D01*
X139843068Y-89543538D01*
X139784297Y-89518783D01*
X139734396Y-89480493D01*
X139734392Y-89480491D01*
X139727841Y-89475464D01*
X139581762Y-89414956D01*
X139425000Y-89394318D01*
X139268238Y-89414956D01*
X139122159Y-89475464D01*
X138996718Y-89571718D01*
X138900464Y-89697159D01*
X138839956Y-89843238D01*
X138819318Y-90000000D01*
X135321428Y-90000000D01*
X135661026Y-89851426D01*
X138725854Y-88510564D01*
X138776357Y-88500000D01*
X147227088Y-88500000D01*
X147271445Y-88508066D01*
G37*
%TD.AperFunction*%
%TD*%
M02*
