%TF.GenerationSoftware,KiCad,Pcbnew,(6.0.7-1)-1*%
%TF.CreationDate,2023-01-22T12:43:28-05:00*%
%TF.ProjectId,atmega328,61746d65-6761-4333-9238-2e6b69636164,rev?*%
%TF.SameCoordinates,Original*%
%TF.FileFunction,Copper,L2,Bot*%
%TF.FilePolarity,Positive*%
%FSLAX46Y46*%
G04 Gerber Fmt 4.6, Leading zero omitted, Abs format (unit mm)*
G04 Created by KiCad (PCBNEW (6.0.7-1)-1) date 2023-01-22 12:43:28*
%MOMM*%
%LPD*%
G01*
G04 APERTURE LIST*
G04 Aperture macros list*
%AMRoundRect*
0 Rectangle with rounded corners*
0 $1 Rounding radius*
0 $2 $3 $4 $5 $6 $7 $8 $9 X,Y pos of 4 corners*
0 Add a 4 corners polygon primitive as box body*
4,1,4,$2,$3,$4,$5,$6,$7,$8,$9,$2,$3,0*
0 Add four circle primitives for the rounded corners*
1,1,$1+$1,$2,$3*
1,1,$1+$1,$4,$5*
1,1,$1+$1,$6,$7*
1,1,$1+$1,$8,$9*
0 Add four rect primitives between the rounded corners*
20,1,$1+$1,$2,$3,$4,$5,0*
20,1,$1+$1,$4,$5,$6,$7,0*
20,1,$1+$1,$6,$7,$8,$9,0*
20,1,$1+$1,$8,$9,$2,$3,0*%
G04 Aperture macros list end*
%TA.AperFunction,ComponentPad*%
%ADD10R,1.700000X1.700000*%
%TD*%
%TA.AperFunction,ComponentPad*%
%ADD11O,1.700000X1.700000*%
%TD*%
%TA.AperFunction,ComponentPad*%
%ADD12O,1.000000X1.000000*%
%TD*%
%TA.AperFunction,SMDPad,CuDef*%
%ADD13RoundRect,0.100000X0.637500X0.100000X-0.637500X0.100000X-0.637500X-0.100000X0.637500X-0.100000X0*%
%TD*%
%TA.AperFunction,ViaPad*%
%ADD14C,0.800000*%
%TD*%
%TA.AperFunction,Conductor*%
%ADD15C,0.250000*%
%TD*%
G04 APERTURE END LIST*
D10*
%TO.P,J3,1,Pin_1*%
%TO.N,TRM1*%
X153000000Y-118350000D03*
D11*
%TO.P,J3,2,Pin_2*%
%TO.N,TRM2*%
X153000000Y-115810000D03*
%TD*%
D10*
%TO.P,J1,1,Pin_1*%
%TO.N,A*%
X156500000Y-110125000D03*
D11*
%TO.P,J1,2,Pin_2*%
%TO.N,B*%
X156500000Y-107585000D03*
%TD*%
D12*
%TO.P,REF\u002A\u002A,1*%
%TO.N,N/C*%
X146225000Y-114225000D03*
%TD*%
D10*
%TO.P,J5,1,Pin_1*%
%TO.N,Vin*%
X161867860Y-95778570D03*
D11*
%TO.P,J5,2,Pin_2*%
%TO.N,TRM1*%
X161867860Y-98318570D03*
%TO.P,J5,3,Pin_3*%
%TO.N,U*%
X161867860Y-100858570D03*
%TO.P,J5,4,Pin_4*%
%TO.N,V*%
X161867860Y-103398570D03*
%TO.P,J5,5,Pin_5*%
%TO.N,W*%
X161867860Y-105938570D03*
%TO.P,J5,6,Pin_6*%
%TO.N,GND*%
X161867860Y-108478570D03*
%TO.P,J5,7,Pin_7*%
%TO.N,TRM2*%
X161867860Y-111018570D03*
%TO.P,J5,8,Pin_8*%
%TO.N,PWM*%
X161867860Y-113558570D03*
%TD*%
D12*
%TO.P,REF\u002A\u002A,1*%
%TO.N,N/C*%
X143625000Y-114225000D03*
%TD*%
D10*
%TO.P,PRG1,1,Pin_1*%
%TO.N,MISO*%
X132260000Y-96050000D03*
D11*
%TO.P,PRG1,2,Pin_2*%
%TO.N,VCC*%
X132260000Y-93510000D03*
%TO.P,PRG1,3,Pin_3*%
%TO.N,SCK*%
X134800000Y-96050000D03*
%TO.P,PRG1,4,Pin_4*%
%TO.N,MOSI*%
X134800000Y-93510000D03*
%TO.P,PRG1,5,Pin_5*%
%TO.N,CS*%
X137340000Y-96050000D03*
%TO.P,PRG1,6,Pin_6*%
%TO.N,GND*%
X137340000Y-93510000D03*
%TD*%
D13*
%TO.P,U1,1,~{CS}*%
%TO.N,CS*%
X147725000Y-102625000D03*
%TO.P,U1,2,CLK*%
%TO.N,SCK*%
X147725000Y-103275000D03*
%TO.P,U1,3,MISO*%
%TO.N,MISO*%
X147725000Y-103925000D03*
%TO.P,U1,4,MOSI*%
%TO.N,MOSI*%
X147725000Y-104575000D03*
%TO.P,U1,5,TST*%
%TO.N,GND*%
X147725000Y-105225000D03*
%TO.P,U1,6,B*%
%TO.N,B*%
X147725000Y-105875000D03*
%TO.P,U1,7,A*%
%TO.N,A*%
X147725000Y-106525000D03*
%TO.P,U1,8,W/PWM*%
%TO.N,W*%
X142000000Y-106525000D03*
%TO.P,U1,9,V*%
%TO.N,V*%
X142000000Y-105875000D03*
%TO.P,U1,10,U*%
%TO.N,U*%
X142000000Y-105225000D03*
%TO.P,U1,11,VDD*%
%TO.N,VCC*%
X142000000Y-104575000D03*
%TO.P,U1,12,VDD3V3*%
%TO.N,Net-(U1-Pad12)*%
X142000000Y-103925000D03*
%TO.P,U1,13,GND*%
%TO.N,GND*%
X142000000Y-103275000D03*
%TO.P,U1,14,I/PWM*%
%TO.N,PWM*%
X142000000Y-102625000D03*
%TD*%
D14*
%TO.N,GND*%
X145325000Y-117425000D03*
X158200000Y-94200000D03*
X158200000Y-96200000D03*
X158900000Y-116625000D03*
X138150000Y-106850000D03*
X144475000Y-117425000D03*
X138250000Y-100500000D03*
X139425000Y-90000000D03*
X154750000Y-100250000D03*
%TO.N,MISO*%
X142655497Y-97944503D03*
X149100000Y-104250000D03*
%TO.N,SCK*%
X146450000Y-103400000D03*
%TO.N,MOSI*%
X146403314Y-104979429D03*
%TO.N,VCC*%
X140702533Y-104648121D03*
%TO.N,Net-(U1-Pad12)*%
X140718792Y-103648753D03*
%TO.N,U*%
X143300000Y-104950000D03*
%TO.N,V*%
X143300000Y-105949503D03*
%TO.N,W*%
X143300000Y-106949006D03*
%TO.N,PWM*%
X152625000Y-107650000D03*
X160175000Y-105825000D03*
%TO.N,CS*%
X146450000Y-102250000D03*
%TD*%
D15*
%TO.N,MISO*%
X132925000Y-96050000D02*
X134450000Y-97575000D01*
X134450000Y-97575000D02*
X142275000Y-97575000D01*
X147725000Y-103925000D02*
X148775000Y-103925000D01*
X142275000Y-97575000D02*
X142650000Y-97950000D01*
X132260000Y-96050000D02*
X132925000Y-96050000D01*
X142650000Y-97950000D02*
X142655497Y-97944503D01*
X148775000Y-103925000D02*
X149100000Y-104250000D01*
%TO.N,SCK*%
X147725000Y-103275000D02*
X146575000Y-103275000D01*
X146575000Y-103275000D02*
X146450000Y-103400000D01*
%TO.N,MOSI*%
X147725000Y-104575000D02*
X146807743Y-104575000D01*
X146807743Y-104575000D02*
X146403314Y-104979429D01*
%TO.N,VCC*%
X140702533Y-104648121D02*
X141926879Y-104648121D01*
X141926879Y-104648121D02*
X142000000Y-104575000D01*
%TO.N,A*%
X147725000Y-106525000D02*
X152525000Y-106525000D01*
X152525000Y-106525000D02*
X156125000Y-110125000D01*
X156125000Y-110125000D02*
X156500000Y-110125000D01*
%TO.N,B*%
X152725000Y-106075000D02*
X154235000Y-107585000D01*
X149350000Y-106075000D02*
X152725000Y-106075000D01*
X147725000Y-105875000D02*
X149150000Y-105875000D01*
X149150000Y-105875000D02*
X149350000Y-106075000D01*
X154235000Y-107585000D02*
X156500000Y-107585000D01*
%TO.N,TRM1*%
X161867860Y-98318570D02*
X163504303Y-99955013D01*
X163504303Y-99955013D02*
X163504303Y-113645697D01*
X158800000Y-118350000D02*
X153000000Y-118350000D01*
X163504303Y-113645697D02*
X158800000Y-118350000D01*
%TO.N,Net-(U1-Pad12)*%
X142000000Y-103925000D02*
X140925000Y-103925000D01*
X140718792Y-103718792D02*
X140718792Y-103648753D01*
X140925000Y-103925000D02*
X140718792Y-103718792D01*
%TO.N,U*%
X143025000Y-105225000D02*
X143300000Y-104950000D01*
X142000000Y-105225000D02*
X143025000Y-105225000D01*
%TO.N,V*%
X142000000Y-105875000D02*
X143225497Y-105875000D01*
X143225497Y-105875000D02*
X143300000Y-105949503D01*
%TO.N,W*%
X142000000Y-106525000D02*
X142424006Y-106949006D01*
X142424006Y-106949006D02*
X143300000Y-106949006D01*
%TO.N,PWM*%
X160175000Y-111865710D02*
X160175000Y-105825000D01*
X145375000Y-105311459D02*
X145375000Y-106100000D01*
X145375000Y-106100000D02*
X146325000Y-107050000D01*
X142688541Y-102625000D02*
X145375000Y-105311459D01*
X161867860Y-113558570D02*
X160175000Y-111865710D01*
X152644302Y-107630698D02*
X152625000Y-107650000D01*
X152644302Y-107280698D02*
X152644302Y-107630698D01*
X142000000Y-102625000D02*
X142688541Y-102625000D01*
X146325000Y-107050000D02*
X152413604Y-107050000D01*
X152413604Y-107050000D02*
X152644302Y-107280698D01*
%TO.N,CS*%
X146825000Y-102625000D02*
X146450000Y-102250000D01*
X147725000Y-102625000D02*
X146825000Y-102625000D01*
%TD*%
%TA.AperFunction,Conductor*%
%TO.N,GND*%
G36*
X147362228Y-88812489D02*
G01*
X162695706Y-94483894D01*
X162752657Y-94526286D01*
X162777650Y-94592738D01*
X162762748Y-94662153D01*
X162712683Y-94712492D01*
X162651996Y-94728070D01*
X160998112Y-94728070D01*
X160992044Y-94729277D01*
X160951799Y-94737282D01*
X160951798Y-94737282D01*
X160939629Y-94739703D01*
X160873308Y-94784018D01*
X160828993Y-94850339D01*
X160817360Y-94908822D01*
X160817360Y-96648318D01*
X160828993Y-96706801D01*
X160873308Y-96773122D01*
X160939629Y-96817437D01*
X160951798Y-96819858D01*
X160951799Y-96819858D01*
X160992044Y-96827863D01*
X160998112Y-96829070D01*
X162737608Y-96829070D01*
X162743676Y-96827863D01*
X162783921Y-96819858D01*
X162783922Y-96819858D01*
X162796091Y-96817437D01*
X162862412Y-96773122D01*
X162906727Y-96706801D01*
X162918360Y-96648318D01*
X162918360Y-94908822D01*
X162906727Y-94850339D01*
X162866522Y-94790169D01*
X162845307Y-94722416D01*
X162864090Y-94653949D01*
X162916906Y-94606505D01*
X162986989Y-94595148D01*
X163014995Y-94601990D01*
X163177656Y-94662153D01*
X164008372Y-94969411D01*
X164065324Y-95011803D01*
X164090316Y-95078255D01*
X164090661Y-95088179D01*
X164070544Y-99373449D01*
X164068354Y-99839840D01*
X164048032Y-99907866D01*
X163994159Y-99954106D01*
X163923838Y-99963880D01*
X163859396Y-99934084D01*
X163821294Y-99874178D01*
X163818269Y-99861127D01*
X163816805Y-99852822D01*
X163816805Y-99852821D01*
X163814891Y-99841968D01*
X163809381Y-99832424D01*
X163808188Y-99829147D01*
X163806711Y-99825979D01*
X163803857Y-99815329D01*
X163782248Y-99784469D01*
X163776342Y-99775198D01*
X163763010Y-99752107D01*
X163757497Y-99742558D01*
X163728620Y-99718328D01*
X163720518Y-99710902D01*
X162868575Y-98858959D01*
X162834549Y-98796647D01*
X162838112Y-98730092D01*
X162895264Y-98558285D01*
X162897211Y-98552433D01*
X162923031Y-98348044D01*
X162923443Y-98318570D01*
X162903340Y-98113540D01*
X162843795Y-97916319D01*
X162747078Y-97734419D01*
X162666084Y-97635111D01*
X162620766Y-97579545D01*
X162620763Y-97579542D01*
X162616871Y-97574770D01*
X162599646Y-97560520D01*
X162462885Y-97447381D01*
X162462881Y-97447379D01*
X162458135Y-97443452D01*
X162294339Y-97354888D01*
X162282334Y-97348397D01*
X162276915Y-97345467D01*
X162080114Y-97284547D01*
X162073989Y-97283903D01*
X162073988Y-97283903D01*
X161881358Y-97263657D01*
X161881356Y-97263657D01*
X161875229Y-97263013D01*
X161788389Y-97270916D01*
X161676202Y-97281125D01*
X161676199Y-97281126D01*
X161670063Y-97281684D01*
X161472432Y-97339850D01*
X161289862Y-97435296D01*
X161285061Y-97439156D01*
X161285058Y-97439158D01*
X161134114Y-97560520D01*
X161129307Y-97564385D01*
X160996884Y-97722200D01*
X160993916Y-97727598D01*
X160993913Y-97727603D01*
X160913127Y-97874554D01*
X160897636Y-97902732D01*
X160835344Y-98099102D01*
X160834658Y-98105219D01*
X160834657Y-98105223D01*
X160819572Y-98239714D01*
X160812380Y-98303832D01*
X160829619Y-98509123D01*
X160886404Y-98707156D01*
X160889219Y-98712633D01*
X160889220Y-98712636D01*
X160932396Y-98796647D01*
X160980572Y-98890388D01*
X161108537Y-99051840D01*
X161265424Y-99185361D01*
X161445258Y-99285867D01*
X161520212Y-99310221D01*
X161635331Y-99347626D01*
X161635335Y-99347627D01*
X161641189Y-99349529D01*
X161845754Y-99373921D01*
X161851889Y-99373449D01*
X161851891Y-99373449D01*
X161907899Y-99369139D01*
X162051160Y-99358116D01*
X162057090Y-99356460D01*
X162057092Y-99356460D01*
X162243657Y-99304370D01*
X162243656Y-99304370D01*
X162249585Y-99302715D01*
X162255081Y-99299939D01*
X162262582Y-99296150D01*
X162332404Y-99283291D01*
X162398095Y-99310221D01*
X162408486Y-99319522D01*
X163141898Y-100052934D01*
X163175924Y-100115246D01*
X163178803Y-100142029D01*
X163178803Y-113458681D01*
X163158801Y-113526802D01*
X163141898Y-113547776D01*
X163130469Y-113559205D01*
X163068157Y-113593231D01*
X162997342Y-113588166D01*
X162940506Y-113545619D01*
X162915975Y-113482405D01*
X162903941Y-113359673D01*
X162903340Y-113353540D01*
X162843795Y-113156319D01*
X162747078Y-112974419D01*
X162673719Y-112884472D01*
X162620766Y-112819545D01*
X162620763Y-112819542D01*
X162616871Y-112814770D01*
X162562292Y-112769618D01*
X162462885Y-112687381D01*
X162462881Y-112687379D01*
X162458135Y-112683452D01*
X162276915Y-112585467D01*
X162080114Y-112524547D01*
X162073989Y-112523903D01*
X162073988Y-112523903D01*
X161881358Y-112503657D01*
X161881356Y-112503657D01*
X161875229Y-112503013D01*
X161788389Y-112510916D01*
X161676202Y-112521125D01*
X161676199Y-112521126D01*
X161670063Y-112521684D01*
X161472432Y-112579850D01*
X161466968Y-112582707D01*
X161462641Y-112584455D01*
X161391988Y-112591430D01*
X161326342Y-112556726D01*
X160537405Y-111767789D01*
X160503379Y-111705477D01*
X160500500Y-111678694D01*
X160500500Y-111003832D01*
X160812380Y-111003832D01*
X160812896Y-111009976D01*
X160826796Y-111175500D01*
X160829619Y-111209123D01*
X160886404Y-111407156D01*
X160889219Y-111412633D01*
X160889220Y-111412636D01*
X160910107Y-111453277D01*
X160980572Y-111590388D01*
X161108537Y-111751840D01*
X161113230Y-111755834D01*
X161113231Y-111755835D01*
X161225633Y-111851496D01*
X161265424Y-111885361D01*
X161270802Y-111888367D01*
X161270804Y-111888368D01*
X161314168Y-111912603D01*
X161445258Y-111985867D01*
X161505356Y-112005394D01*
X161635331Y-112047626D01*
X161635335Y-112047627D01*
X161641189Y-112049529D01*
X161845754Y-112073921D01*
X161851889Y-112073449D01*
X161851891Y-112073449D01*
X161914699Y-112068616D01*
X162051160Y-112058116D01*
X162057090Y-112056460D01*
X162057092Y-112056460D01*
X162207644Y-112014425D01*
X162249585Y-112002715D01*
X162255074Y-111999942D01*
X162255080Y-111999940D01*
X162427976Y-111912603D01*
X162433470Y-111909828D01*
X162453068Y-111894517D01*
X162590961Y-111786783D01*
X162595811Y-111782994D01*
X162608936Y-111767789D01*
X162726400Y-111631704D01*
X162726400Y-111631703D01*
X162730424Y-111627042D01*
X162751247Y-111590388D01*
X162829136Y-111453277D01*
X162832183Y-111447914D01*
X162897211Y-111252433D01*
X162923031Y-111048044D01*
X162923443Y-111018570D01*
X162903340Y-110813540D01*
X162843795Y-110616319D01*
X162747078Y-110434419D01*
X162673719Y-110344472D01*
X162620766Y-110279545D01*
X162620763Y-110279542D01*
X162616871Y-110274770D01*
X162599646Y-110260520D01*
X162462885Y-110147381D01*
X162462881Y-110147379D01*
X162458135Y-110143452D01*
X162276915Y-110045467D01*
X162080114Y-109984547D01*
X162073989Y-109983903D01*
X162073988Y-109983903D01*
X161881358Y-109963657D01*
X161881356Y-109963657D01*
X161875229Y-109963013D01*
X161788389Y-109970916D01*
X161676202Y-109981125D01*
X161676199Y-109981126D01*
X161670063Y-109981684D01*
X161472432Y-110039850D01*
X161289862Y-110135296D01*
X161285061Y-110139156D01*
X161285058Y-110139158D01*
X161274831Y-110147381D01*
X161129307Y-110264385D01*
X160996884Y-110422200D01*
X160993916Y-110427598D01*
X160993913Y-110427603D01*
X160987175Y-110439860D01*
X160897636Y-110602732D01*
X160835344Y-110799102D01*
X160834658Y-110805219D01*
X160834657Y-110805223D01*
X160821551Y-110922070D01*
X160812380Y-111003832D01*
X160500500Y-111003832D01*
X160500500Y-106394286D01*
X160520502Y-106326165D01*
X160549796Y-106294323D01*
X160596736Y-106258305D01*
X160603282Y-106253282D01*
X160608305Y-106246736D01*
X160608308Y-106246733D01*
X160641786Y-106203103D01*
X160699124Y-106161235D01*
X160769995Y-106157013D01*
X160831898Y-106191777D01*
X160862868Y-106245076D01*
X160882189Y-106312455D01*
X160886404Y-106327156D01*
X160889219Y-106332633D01*
X160889220Y-106332636D01*
X160977757Y-106504911D01*
X160980572Y-106510388D01*
X161108537Y-106671840D01*
X161113230Y-106675834D01*
X161113231Y-106675835D01*
X161256955Y-106798153D01*
X161265424Y-106805361D01*
X161445258Y-106905867D01*
X161504374Y-106925075D01*
X161635331Y-106967626D01*
X161635335Y-106967627D01*
X161641189Y-106969529D01*
X161845754Y-106993921D01*
X161851889Y-106993449D01*
X161851891Y-106993449D01*
X161914517Y-106988630D01*
X162051160Y-106978116D01*
X162057090Y-106976460D01*
X162057092Y-106976460D01*
X162243657Y-106924370D01*
X162243656Y-106924370D01*
X162249585Y-106922715D01*
X162255074Y-106919942D01*
X162255080Y-106919940D01*
X162427976Y-106832603D01*
X162433470Y-106829828D01*
X162471096Y-106800432D01*
X162582858Y-106713114D01*
X162595811Y-106702994D01*
X162621397Y-106673353D01*
X162726400Y-106551704D01*
X162726400Y-106551703D01*
X162730424Y-106547042D01*
X162751247Y-106510388D01*
X162797683Y-106428645D01*
X162832183Y-106367914D01*
X162897211Y-106172433D01*
X162923031Y-105968044D01*
X162923443Y-105938570D01*
X162903340Y-105733540D01*
X162843795Y-105536319D01*
X162747078Y-105354419D01*
X162664138Y-105252725D01*
X162620766Y-105199545D01*
X162620763Y-105199542D01*
X162616871Y-105194770D01*
X162589075Y-105171775D01*
X162462885Y-105067381D01*
X162462881Y-105067379D01*
X162458135Y-105063452D01*
X162320951Y-104989277D01*
X162282334Y-104968397D01*
X162276915Y-104965467D01*
X162080114Y-104904547D01*
X162073989Y-104903903D01*
X162073988Y-104903903D01*
X161881358Y-104883657D01*
X161881356Y-104883657D01*
X161875229Y-104883013D01*
X161788389Y-104890916D01*
X161676202Y-104901125D01*
X161676199Y-104901126D01*
X161670063Y-104901684D01*
X161472432Y-104959850D01*
X161466967Y-104962707D01*
X161434981Y-104979429D01*
X161289862Y-105055296D01*
X161285061Y-105059156D01*
X161285058Y-105059158D01*
X161235500Y-105099004D01*
X161129307Y-105184385D01*
X160996884Y-105342200D01*
X160993916Y-105347598D01*
X160993913Y-105347603D01*
X160932731Y-105458895D01*
X160910972Y-105498475D01*
X160908070Y-105503753D01*
X160857725Y-105553811D01*
X160788308Y-105568705D01*
X160721858Y-105543704D01*
X160697692Y-105519756D01*
X160682432Y-105499868D01*
X160622005Y-105421118D01*
X160608305Y-105403264D01*
X160603282Y-105396718D01*
X160477841Y-105300464D01*
X160331762Y-105239956D01*
X160175000Y-105219318D01*
X160018238Y-105239956D01*
X159872159Y-105300464D01*
X159746718Y-105396718D01*
X159741695Y-105403264D01*
X159727995Y-105421118D01*
X159650464Y-105522159D01*
X159589956Y-105668238D01*
X159569318Y-105825000D01*
X159589956Y-105981762D01*
X159650464Y-106127841D01*
X159684681Y-106172433D01*
X159740144Y-106244714D01*
X159746718Y-106253282D01*
X159753264Y-106258305D01*
X159800204Y-106294323D01*
X159842071Y-106351661D01*
X159849500Y-106394286D01*
X159849500Y-111846000D01*
X159849020Y-111856982D01*
X159845736Y-111894517D01*
X159855491Y-111930920D01*
X159857870Y-111941652D01*
X159864412Y-111978755D01*
X159869923Y-111988300D01*
X159871115Y-111991576D01*
X159872592Y-111994744D01*
X159875446Y-112005394D01*
X159881770Y-112014425D01*
X159897055Y-112036254D01*
X159902961Y-112045525D01*
X159909275Y-112056460D01*
X159921806Y-112078165D01*
X159930251Y-112085251D01*
X159950682Y-112102395D01*
X159958785Y-112109821D01*
X160866117Y-113017153D01*
X160900143Y-113079465D01*
X160897124Y-113144346D01*
X160835344Y-113339102D01*
X160834658Y-113345219D01*
X160834657Y-113345223D01*
X160814506Y-113524879D01*
X160812380Y-113543832D01*
X160812896Y-113549976D01*
X160826856Y-113716216D01*
X160829619Y-113749123D01*
X160831318Y-113755048D01*
X160874368Y-113905180D01*
X160886404Y-113947156D01*
X160980572Y-114130388D01*
X161108537Y-114291840D01*
X161113230Y-114295834D01*
X161113231Y-114295835D01*
X161219334Y-114386135D01*
X161265424Y-114425361D01*
X161445258Y-114525867D01*
X161540098Y-114556682D01*
X161635331Y-114587626D01*
X161635335Y-114587627D01*
X161641189Y-114589529D01*
X161647301Y-114590258D01*
X161647302Y-114590258D01*
X161793588Y-114607701D01*
X161858861Y-114635628D01*
X161898674Y-114694411D01*
X161900386Y-114765387D01*
X161867764Y-114821910D01*
X158702079Y-117987595D01*
X158639767Y-118021621D01*
X158612984Y-118024500D01*
X154176500Y-118024500D01*
X154108379Y-118004498D01*
X154061886Y-117950842D01*
X154050500Y-117898500D01*
X154050500Y-117480252D01*
X154038867Y-117421769D01*
X153994552Y-117355448D01*
X153928231Y-117311133D01*
X153916062Y-117308712D01*
X153916061Y-117308712D01*
X153875816Y-117300707D01*
X153869748Y-117299500D01*
X152130252Y-117299500D01*
X152124184Y-117300707D01*
X152083939Y-117308712D01*
X152083938Y-117308712D01*
X152071769Y-117311133D01*
X152005448Y-117355448D01*
X151961133Y-117421769D01*
X151949500Y-117480252D01*
X151949500Y-119219748D01*
X151961133Y-119278231D01*
X152005448Y-119344552D01*
X152071769Y-119388867D01*
X152083938Y-119391288D01*
X152083939Y-119391288D01*
X152124184Y-119399293D01*
X152130252Y-119400500D01*
X153869748Y-119400500D01*
X153875816Y-119399293D01*
X153916061Y-119391288D01*
X153916062Y-119391288D01*
X153928231Y-119388867D01*
X153994552Y-119344552D01*
X154038867Y-119278231D01*
X154050500Y-119219748D01*
X154050500Y-118801500D01*
X154070502Y-118733379D01*
X154124158Y-118686886D01*
X154176500Y-118675500D01*
X158734821Y-118675500D01*
X158802942Y-118695502D01*
X158849435Y-118749158D01*
X158859539Y-118819432D01*
X158830045Y-118884012D01*
X158817396Y-118896671D01*
X158313081Y-119334239D01*
X157235516Y-120269185D01*
X157170954Y-120298720D01*
X157152982Y-120300014D01*
X141171399Y-120304642D01*
X141103274Y-120284660D01*
X141057152Y-120231855D01*
X140358999Y-118733379D01*
X138990104Y-115795262D01*
X151944520Y-115795262D01*
X151961759Y-116000553D01*
X152018544Y-116198586D01*
X152021359Y-116204063D01*
X152021360Y-116204066D01*
X152042247Y-116244707D01*
X152112712Y-116381818D01*
X152240677Y-116543270D01*
X152397564Y-116676791D01*
X152577398Y-116777297D01*
X152672238Y-116808113D01*
X152767471Y-116839056D01*
X152767475Y-116839057D01*
X152773329Y-116840959D01*
X152977894Y-116865351D01*
X152984029Y-116864879D01*
X152984031Y-116864879D01*
X153040039Y-116860569D01*
X153183300Y-116849546D01*
X153189230Y-116847890D01*
X153189232Y-116847890D01*
X153375797Y-116795800D01*
X153375796Y-116795800D01*
X153381725Y-116794145D01*
X153387214Y-116791372D01*
X153387220Y-116791370D01*
X153560116Y-116704033D01*
X153565610Y-116701258D01*
X153587202Y-116684389D01*
X153723101Y-116578213D01*
X153727951Y-116574424D01*
X153862564Y-116418472D01*
X153883387Y-116381818D01*
X153961276Y-116244707D01*
X153964323Y-116239344D01*
X154029351Y-116043863D01*
X154055171Y-115839474D01*
X154055583Y-115810000D01*
X154035480Y-115604970D01*
X153975935Y-115407749D01*
X153879218Y-115225849D01*
X153805859Y-115135902D01*
X153752906Y-115070975D01*
X153752903Y-115070972D01*
X153749011Y-115066200D01*
X153609397Y-114950701D01*
X153595025Y-114938811D01*
X153595021Y-114938809D01*
X153590275Y-114934882D01*
X153409055Y-114836897D01*
X153212254Y-114775977D01*
X153206129Y-114775333D01*
X153206128Y-114775333D01*
X153013498Y-114755087D01*
X153013496Y-114755087D01*
X153007369Y-114754443D01*
X152920529Y-114762346D01*
X152808342Y-114772555D01*
X152808339Y-114772556D01*
X152802203Y-114773114D01*
X152604572Y-114831280D01*
X152422002Y-114926726D01*
X152417201Y-114930586D01*
X152417198Y-114930588D01*
X152266254Y-115051950D01*
X152261447Y-115055815D01*
X152129024Y-115213630D01*
X152126056Y-115219028D01*
X152126053Y-115219033D01*
X152119315Y-115231290D01*
X152029776Y-115394162D01*
X151967484Y-115590532D01*
X151966798Y-115596649D01*
X151966797Y-115596653D01*
X151952335Y-115725591D01*
X151944520Y-115795262D01*
X138990104Y-115795262D01*
X138255062Y-114217611D01*
X142919394Y-114217611D01*
X142937999Y-114386135D01*
X142948448Y-114414687D01*
X142988034Y-114522860D01*
X142996266Y-114545356D01*
X143000502Y-114551659D01*
X143000502Y-114551660D01*
X143013574Y-114571113D01*
X143090830Y-114686083D01*
X143096442Y-114691190D01*
X143096445Y-114691193D01*
X143210612Y-114795077D01*
X143210616Y-114795080D01*
X143216233Y-114800191D01*
X143222906Y-114803814D01*
X143222910Y-114803817D01*
X143358558Y-114877467D01*
X143358560Y-114877468D01*
X143365235Y-114881092D01*
X143372584Y-114883020D01*
X143521883Y-114922188D01*
X143521885Y-114922188D01*
X143529233Y-114924116D01*
X143615609Y-114925473D01*
X143691161Y-114926660D01*
X143691164Y-114926660D01*
X143698760Y-114926779D01*
X143706165Y-114925083D01*
X143706166Y-114925083D01*
X143766586Y-114911245D01*
X143864029Y-114888928D01*
X144015498Y-114812747D01*
X144144423Y-114702634D01*
X144243361Y-114564947D01*
X144251237Y-114545356D01*
X144303766Y-114414687D01*
X144303767Y-114414685D01*
X144306601Y-114407634D01*
X144330490Y-114239778D01*
X144330645Y-114225000D01*
X144329751Y-114217611D01*
X145519394Y-114217611D01*
X145537999Y-114386135D01*
X145548448Y-114414687D01*
X145588034Y-114522860D01*
X145596266Y-114545356D01*
X145600502Y-114551659D01*
X145600502Y-114551660D01*
X145613574Y-114571113D01*
X145690830Y-114686083D01*
X145696442Y-114691190D01*
X145696445Y-114691193D01*
X145810612Y-114795077D01*
X145810616Y-114795080D01*
X145816233Y-114800191D01*
X145822906Y-114803814D01*
X145822910Y-114803817D01*
X145958558Y-114877467D01*
X145958560Y-114877468D01*
X145965235Y-114881092D01*
X145972584Y-114883020D01*
X146121883Y-114922188D01*
X146121885Y-114922188D01*
X146129233Y-114924116D01*
X146215609Y-114925473D01*
X146291161Y-114926660D01*
X146291164Y-114926660D01*
X146298760Y-114926779D01*
X146306165Y-114925083D01*
X146306166Y-114925083D01*
X146366586Y-114911245D01*
X146464029Y-114888928D01*
X146615498Y-114812747D01*
X146744423Y-114702634D01*
X146843361Y-114564947D01*
X146851237Y-114545356D01*
X146903766Y-114414687D01*
X146903767Y-114414685D01*
X146906601Y-114407634D01*
X146930490Y-114239778D01*
X146930645Y-114225000D01*
X146928840Y-114210080D01*
X146919780Y-114135216D01*
X146910276Y-114056680D01*
X146850345Y-113898077D01*
X146844662Y-113889808D01*
X146758614Y-113764608D01*
X146758613Y-113764607D01*
X146754312Y-113758349D01*
X146742514Y-113747837D01*
X146633392Y-113650612D01*
X146633388Y-113650610D01*
X146627721Y-113645560D01*
X146601150Y-113631491D01*
X146519092Y-113588044D01*
X146477881Y-113566224D01*
X146313441Y-113524919D01*
X146305843Y-113524879D01*
X146305841Y-113524879D01*
X146228668Y-113524475D01*
X146143895Y-113524031D01*
X146136508Y-113525805D01*
X146136504Y-113525805D01*
X146000033Y-113558570D01*
X145979032Y-113563612D01*
X145972288Y-113567093D01*
X145972285Y-113567094D01*
X145921646Y-113593231D01*
X145828369Y-113641375D01*
X145700604Y-113752831D01*
X145603113Y-113891547D01*
X145541524Y-114049513D01*
X145519394Y-114217611D01*
X144329751Y-114217611D01*
X144328840Y-114210080D01*
X144319780Y-114135216D01*
X144310276Y-114056680D01*
X144250345Y-113898077D01*
X144244662Y-113889808D01*
X144158614Y-113764608D01*
X144158613Y-113764607D01*
X144154312Y-113758349D01*
X144142514Y-113747837D01*
X144033392Y-113650612D01*
X144033388Y-113650610D01*
X144027721Y-113645560D01*
X144001150Y-113631491D01*
X143919092Y-113588044D01*
X143877881Y-113566224D01*
X143713441Y-113524919D01*
X143705843Y-113524879D01*
X143705841Y-113524879D01*
X143628668Y-113524475D01*
X143543895Y-113524031D01*
X143536508Y-113525805D01*
X143536504Y-113525805D01*
X143400033Y-113558570D01*
X143379032Y-113563612D01*
X143372288Y-113567093D01*
X143372285Y-113567094D01*
X143321646Y-113593231D01*
X143228369Y-113641375D01*
X143100604Y-113752831D01*
X143003113Y-113891547D01*
X142941524Y-114049513D01*
X142919394Y-114217611D01*
X138255062Y-114217611D01*
X133796549Y-104648121D01*
X140096851Y-104648121D01*
X140117489Y-104804883D01*
X140177997Y-104950962D01*
X140274251Y-105076403D01*
X140399692Y-105172657D01*
X140545771Y-105233165D01*
X140702533Y-105253803D01*
X140710721Y-105252725D01*
X140851107Y-105234243D01*
X140859295Y-105233165D01*
X140866923Y-105230005D01*
X140866928Y-105230004D01*
X140887781Y-105221366D01*
X140958371Y-105213776D01*
X141021858Y-105245555D01*
X141058086Y-105306612D01*
X141062000Y-105337774D01*
X141062000Y-105369646D01*
X141065118Y-105395846D01*
X141068956Y-105404486D01*
X141068956Y-105404487D01*
X141110561Y-105498153D01*
X141106699Y-105499868D01*
X141121853Y-105546146D01*
X141107546Y-105601088D01*
X141110259Y-105602287D01*
X141064994Y-105704673D01*
X141062000Y-105730354D01*
X141062000Y-106019646D01*
X141065118Y-106045846D01*
X141068956Y-106054486D01*
X141068956Y-106054487D01*
X141110561Y-106148153D01*
X141106699Y-106149868D01*
X141121853Y-106196146D01*
X141107546Y-106251088D01*
X141110259Y-106252287D01*
X141064994Y-106354673D01*
X141062000Y-106380354D01*
X141062000Y-106669646D01*
X141062441Y-106673350D01*
X141062441Y-106673353D01*
X141063321Y-106680746D01*
X141065118Y-106695846D01*
X141068956Y-106704486D01*
X141068956Y-106704487D01*
X141104548Y-106784615D01*
X141110561Y-106798153D01*
X141189787Y-106877241D01*
X141200424Y-106881944D01*
X141200426Y-106881945D01*
X141247735Y-106902860D01*
X141292173Y-106922506D01*
X141317854Y-106925500D01*
X141887984Y-106925500D01*
X141956105Y-106945502D01*
X141977079Y-106962405D01*
X142179895Y-107165221D01*
X142187322Y-107173325D01*
X142211551Y-107202200D01*
X142221100Y-107207713D01*
X142244191Y-107221045D01*
X142253462Y-107226951D01*
X142284322Y-107248560D01*
X142294972Y-107251414D01*
X142298140Y-107252891D01*
X142301416Y-107254083D01*
X142310961Y-107259594D01*
X142344705Y-107265544D01*
X142348064Y-107266136D01*
X142358791Y-107268514D01*
X142395199Y-107278270D01*
X142406184Y-107277309D01*
X142406186Y-107277309D01*
X142432734Y-107274986D01*
X142443716Y-107274506D01*
X142730714Y-107274506D01*
X142798835Y-107294508D01*
X142830677Y-107323802D01*
X142863924Y-107367130D01*
X142871718Y-107377288D01*
X142997159Y-107473542D01*
X143143238Y-107534050D01*
X143300000Y-107554688D01*
X143308188Y-107553610D01*
X143448574Y-107535128D01*
X143456762Y-107534050D01*
X143602841Y-107473542D01*
X143728282Y-107377288D01*
X143736077Y-107367130D01*
X143807149Y-107274506D01*
X143824536Y-107251847D01*
X143885044Y-107105768D01*
X143905682Y-106949006D01*
X143885044Y-106792244D01*
X143824536Y-106646165D01*
X143744365Y-106541684D01*
X143732299Y-106525959D01*
X143706699Y-106459738D01*
X143720964Y-106390190D01*
X143732299Y-106372552D01*
X143819507Y-106258899D01*
X143819509Y-106258895D01*
X143824536Y-106252344D01*
X143885044Y-106106265D01*
X143905682Y-105949503D01*
X143888145Y-105816293D01*
X143886122Y-105800929D01*
X143885044Y-105792741D01*
X143824536Y-105646662D01*
X143732299Y-105526456D01*
X143706699Y-105460235D01*
X143720964Y-105390687D01*
X143732299Y-105373049D01*
X143819507Y-105259396D01*
X143819509Y-105259392D01*
X143824536Y-105252841D01*
X143885044Y-105106762D01*
X143905682Y-104950000D01*
X143885044Y-104793238D01*
X143824536Y-104647159D01*
X143728282Y-104521718D01*
X143602841Y-104425464D01*
X143456762Y-104364956D01*
X143300000Y-104344318D01*
X143143238Y-104364956D01*
X143135611Y-104368115D01*
X143135608Y-104368116D01*
X143066053Y-104396927D01*
X142995463Y-104404516D01*
X142931976Y-104372737D01*
X142902686Y-104331670D01*
X142889439Y-104301847D01*
X142893301Y-104300131D01*
X142878147Y-104253854D01*
X142892454Y-104198912D01*
X142889741Y-104197713D01*
X142917097Y-104135835D01*
X142935006Y-104095327D01*
X142938000Y-104069646D01*
X142938000Y-103780354D01*
X142934882Y-103754154D01*
X142922139Y-103725464D01*
X142894163Y-103662482D01*
X142889439Y-103651847D01*
X142878138Y-103640565D01*
X142831932Y-103594440D01*
X142810213Y-103572759D01*
X142799576Y-103568056D01*
X142799574Y-103568055D01*
X142716492Y-103531325D01*
X142716493Y-103531325D01*
X142707827Y-103527494D01*
X142682146Y-103524500D01*
X141401492Y-103524500D01*
X141333371Y-103504498D01*
X141285083Y-103446718D01*
X141280609Y-103435916D01*
X141243328Y-103345912D01*
X141147074Y-103220471D01*
X141147985Y-103219772D01*
X141117729Y-103164363D01*
X141122794Y-103093548D01*
X141165341Y-103036712D01*
X141231861Y-103011901D01*
X141273552Y-103019172D01*
X141274367Y-103016183D01*
X141283507Y-103018675D01*
X141292173Y-103022506D01*
X141317854Y-103025500D01*
X142576525Y-103025500D01*
X142644646Y-103045502D01*
X142665620Y-103062405D01*
X145012595Y-105409380D01*
X145046621Y-105471692D01*
X145049500Y-105498475D01*
X145049500Y-106080290D01*
X145049020Y-106091272D01*
X145045736Y-106128807D01*
X145054426Y-106161235D01*
X145055491Y-106165210D01*
X145057870Y-106175942D01*
X145064412Y-106213045D01*
X145069923Y-106222590D01*
X145071115Y-106225866D01*
X145072592Y-106229034D01*
X145075446Y-106239684D01*
X145084271Y-106252287D01*
X145097055Y-106270544D01*
X145102961Y-106279815D01*
X145116293Y-106302906D01*
X145121806Y-106312455D01*
X145130251Y-106319541D01*
X145150682Y-106336685D01*
X145158785Y-106344111D01*
X146080889Y-107266215D01*
X146088316Y-107274319D01*
X146112545Y-107303194D01*
X146122094Y-107308707D01*
X146145185Y-107322039D01*
X146154456Y-107327945D01*
X146185316Y-107349554D01*
X146195966Y-107352408D01*
X146199134Y-107353885D01*
X146202410Y-107355077D01*
X146211955Y-107360588D01*
X146245699Y-107366538D01*
X146249058Y-107367130D01*
X146259785Y-107369508D01*
X146296193Y-107379264D01*
X146307169Y-107378304D01*
X146307172Y-107378304D01*
X146333743Y-107375979D01*
X146344724Y-107375500D01*
X151911781Y-107375500D01*
X151979902Y-107395502D01*
X152026395Y-107449158D01*
X152036703Y-107517946D01*
X152019318Y-107650000D01*
X152039956Y-107806762D01*
X152100464Y-107952841D01*
X152196718Y-108078282D01*
X152322159Y-108174536D01*
X152468238Y-108235044D01*
X152625000Y-108255682D01*
X152633188Y-108254604D01*
X152773574Y-108236122D01*
X152781762Y-108235044D01*
X152927841Y-108174536D01*
X153053282Y-108078282D01*
X153149536Y-107952841D01*
X153177829Y-107884536D01*
X153222378Y-107829255D01*
X153289741Y-107806834D01*
X153358532Y-107824392D01*
X153383333Y-107843659D01*
X155412595Y-109872921D01*
X155446621Y-109935233D01*
X155449500Y-109962016D01*
X155449500Y-110994748D01*
X155461133Y-111053231D01*
X155505448Y-111119552D01*
X155571769Y-111163867D01*
X155583938Y-111166288D01*
X155583939Y-111166288D01*
X155624184Y-111174293D01*
X155630252Y-111175500D01*
X157369748Y-111175500D01*
X157375816Y-111174293D01*
X157416061Y-111166288D01*
X157416062Y-111166288D01*
X157428231Y-111163867D01*
X157494552Y-111119552D01*
X157538867Y-111053231D01*
X157550500Y-110994748D01*
X157550500Y-109255252D01*
X157538867Y-109196769D01*
X157494552Y-109130448D01*
X157428231Y-109086133D01*
X157416062Y-109083712D01*
X157416061Y-109083712D01*
X157375816Y-109075707D01*
X157369748Y-109074500D01*
X155630252Y-109074500D01*
X155624184Y-109075707D01*
X155616707Y-109077194D01*
X155545993Y-109070863D01*
X155503035Y-109042709D01*
X154585921Y-108125595D01*
X154551895Y-108063283D01*
X154556960Y-107992468D01*
X154599507Y-107935632D01*
X154666027Y-107910821D01*
X154675016Y-107910500D01*
X155409211Y-107910500D01*
X155477332Y-107930502D01*
X155521278Y-107978906D01*
X155596666Y-108125595D01*
X155612712Y-108156818D01*
X155740677Y-108318270D01*
X155897564Y-108451791D01*
X156077398Y-108552297D01*
X156172238Y-108583113D01*
X156267471Y-108614056D01*
X156267475Y-108614057D01*
X156273329Y-108615959D01*
X156477894Y-108640351D01*
X156484029Y-108639879D01*
X156484031Y-108639879D01*
X156540039Y-108635569D01*
X156683300Y-108624546D01*
X156689230Y-108622890D01*
X156689232Y-108622890D01*
X156875797Y-108570800D01*
X156875796Y-108570800D01*
X156881725Y-108569145D01*
X156887214Y-108566372D01*
X156887220Y-108566370D01*
X157060116Y-108479033D01*
X157065610Y-108476258D01*
X157227951Y-108349424D01*
X157362564Y-108193472D01*
X157383387Y-108156818D01*
X157401124Y-108125595D01*
X157464323Y-108014344D01*
X157529351Y-107818863D01*
X157555171Y-107614474D01*
X157555583Y-107585000D01*
X157535480Y-107379970D01*
X157475935Y-107182749D01*
X157379218Y-107000849D01*
X157282242Y-106881945D01*
X157252906Y-106845975D01*
X157252903Y-106845972D01*
X157249011Y-106841200D01*
X157209324Y-106808368D01*
X157095025Y-106713811D01*
X157095021Y-106713809D01*
X157090275Y-106709882D01*
X156909055Y-106611897D01*
X156712254Y-106550977D01*
X156706129Y-106550333D01*
X156706128Y-106550333D01*
X156513498Y-106530087D01*
X156513496Y-106530087D01*
X156507369Y-106529443D01*
X156420529Y-106537346D01*
X156308342Y-106547555D01*
X156308339Y-106547556D01*
X156302203Y-106548114D01*
X156104572Y-106606280D01*
X155922002Y-106701726D01*
X155917201Y-106705586D01*
X155917198Y-106705588D01*
X155767387Y-106826039D01*
X155761447Y-106830815D01*
X155629024Y-106988630D01*
X155626056Y-106994028D01*
X155626053Y-106994033D01*
X155569128Y-107097580D01*
X155529776Y-107169162D01*
X155527914Y-107175031D01*
X155525485Y-107180699D01*
X155523458Y-107179830D01*
X155489342Y-107230481D01*
X155424140Y-107258575D01*
X155408901Y-107259500D01*
X154422017Y-107259500D01*
X154353896Y-107239498D01*
X154332922Y-107222595D01*
X152969110Y-105858784D01*
X152961683Y-105850680D01*
X152937455Y-105821806D01*
X152927906Y-105816293D01*
X152904815Y-105802961D01*
X152895544Y-105797055D01*
X152873715Y-105781770D01*
X152864684Y-105775446D01*
X152854034Y-105772592D01*
X152850866Y-105771115D01*
X152847590Y-105769923D01*
X152838045Y-105764412D01*
X152804301Y-105758462D01*
X152800942Y-105757870D01*
X152790215Y-105755492D01*
X152753807Y-105745736D01*
X152742822Y-105746697D01*
X152742820Y-105746697D01*
X152716272Y-105749020D01*
X152705290Y-105749500D01*
X149537016Y-105749500D01*
X149468895Y-105729498D01*
X149447921Y-105712595D01*
X149394111Y-105658785D01*
X149386684Y-105650681D01*
X149369541Y-105630251D01*
X149369542Y-105630251D01*
X149362455Y-105621806D01*
X149352906Y-105616293D01*
X149329815Y-105602961D01*
X149320544Y-105597055D01*
X149289684Y-105575446D01*
X149279034Y-105572592D01*
X149275866Y-105571115D01*
X149272590Y-105569923D01*
X149263045Y-105564412D01*
X149229301Y-105558462D01*
X149225942Y-105557870D01*
X149215215Y-105555492D01*
X149178807Y-105545736D01*
X149167822Y-105546697D01*
X149167820Y-105546697D01*
X149141272Y-105549020D01*
X149130290Y-105549500D01*
X148609501Y-105549500D01*
X148540651Y-105528188D01*
X148535213Y-105522759D01*
X148432827Y-105477494D01*
X148407146Y-105474500D01*
X147042854Y-105474500D01*
X147040681Y-105474759D01*
X146971811Y-105458895D01*
X146922225Y-105408084D01*
X146907981Y-105338531D01*
X146924059Y-105287210D01*
X146927850Y-105282270D01*
X146939642Y-105253803D01*
X146985198Y-105143820D01*
X146988358Y-105136191D01*
X146995090Y-105085053D01*
X147023812Y-105020127D01*
X147083077Y-104981035D01*
X147120012Y-104975500D01*
X148407146Y-104975500D01*
X148410850Y-104975059D01*
X148410853Y-104975059D01*
X148418246Y-104974179D01*
X148433346Y-104972382D01*
X148465302Y-104958188D01*
X148525018Y-104931663D01*
X148535653Y-104926939D01*
X148614741Y-104847713D01*
X148619444Y-104837074D01*
X148619446Y-104837072D01*
X148621315Y-104832844D01*
X148667154Y-104778629D01*
X148735027Y-104757803D01*
X148796192Y-104773794D01*
X148797159Y-104774536D01*
X148943238Y-104835044D01*
X149100000Y-104855682D01*
X149108188Y-104854604D01*
X149117372Y-104853395D01*
X149256762Y-104835044D01*
X149402841Y-104774536D01*
X149528282Y-104678282D01*
X149624536Y-104552841D01*
X149685044Y-104406762D01*
X149689391Y-104373747D01*
X149702332Y-104275446D01*
X149705682Y-104250000D01*
X149685044Y-104093238D01*
X149624536Y-103947159D01*
X149528282Y-103821718D01*
X149402841Y-103725464D01*
X149256762Y-103664956D01*
X149184724Y-103655472D01*
X149108188Y-103645396D01*
X149100000Y-103644318D01*
X149015279Y-103655472D01*
X148945130Y-103644533D01*
X148926566Y-103633766D01*
X148914684Y-103625446D01*
X148904034Y-103622592D01*
X148900866Y-103621115D01*
X148897590Y-103619923D01*
X148888045Y-103614412D01*
X148854301Y-103608462D01*
X148850942Y-103607870D01*
X148840215Y-103605492D01*
X148803807Y-103595736D01*
X148792820Y-103596697D01*
X148781844Y-103595737D01*
X148781957Y-103594440D01*
X148723474Y-103582688D01*
X148672481Y-103533290D01*
X148656289Y-103464164D01*
X148658961Y-103447690D01*
X148660006Y-103445327D01*
X148663000Y-103419646D01*
X148663000Y-103383832D01*
X160812380Y-103383832D01*
X160812896Y-103389976D01*
X160829079Y-103582688D01*
X160829619Y-103589123D01*
X160831318Y-103595048D01*
X160884454Y-103780354D01*
X160886404Y-103787156D01*
X160889219Y-103792633D01*
X160889220Y-103792636D01*
X160977757Y-103964911D01*
X160980572Y-103970388D01*
X161108537Y-104131840D01*
X161113230Y-104135834D01*
X161113231Y-104135835D01*
X161253517Y-104255227D01*
X161265424Y-104265361D01*
X161270802Y-104268367D01*
X161270804Y-104268368D01*
X161327637Y-104300131D01*
X161445258Y-104365867D01*
X161533027Y-104394385D01*
X161635331Y-104427626D01*
X161635335Y-104427627D01*
X161641189Y-104429529D01*
X161845754Y-104453921D01*
X161851889Y-104453449D01*
X161851891Y-104453449D01*
X161907899Y-104449139D01*
X162051160Y-104438116D01*
X162057090Y-104436460D01*
X162057092Y-104436460D01*
X162198683Y-104396927D01*
X162249585Y-104382715D01*
X162255074Y-104379942D01*
X162255080Y-104379940D01*
X162412911Y-104300213D01*
X162433470Y-104289828D01*
X162489906Y-104245736D01*
X162590961Y-104166783D01*
X162595811Y-104162994D01*
X162625970Y-104128055D01*
X162726400Y-104011704D01*
X162726400Y-104011703D01*
X162730424Y-104007042D01*
X162744968Y-103981441D01*
X162829136Y-103833277D01*
X162832183Y-103827914D01*
X162897211Y-103632433D01*
X162923031Y-103428044D01*
X162923443Y-103398570D01*
X162903340Y-103193540D01*
X162843795Y-102996319D01*
X162747078Y-102814419D01*
X162636047Y-102678282D01*
X162620766Y-102659545D01*
X162620763Y-102659542D01*
X162616871Y-102654770D01*
X162599646Y-102640520D01*
X162462885Y-102527381D01*
X162462881Y-102527379D01*
X162458135Y-102523452D01*
X162276915Y-102425467D01*
X162080114Y-102364547D01*
X162073989Y-102363903D01*
X162073988Y-102363903D01*
X161881358Y-102343657D01*
X161881356Y-102343657D01*
X161875229Y-102343013D01*
X161788389Y-102350916D01*
X161676202Y-102361125D01*
X161676199Y-102361126D01*
X161670063Y-102361684D01*
X161472432Y-102419850D01*
X161289862Y-102515296D01*
X161285061Y-102519156D01*
X161285058Y-102519158D01*
X161274831Y-102527381D01*
X161129307Y-102644385D01*
X160996884Y-102802200D01*
X160993916Y-102807598D01*
X160993913Y-102807603D01*
X160943716Y-102898912D01*
X160897636Y-102982732D01*
X160835344Y-103179102D01*
X160834658Y-103185219D01*
X160834657Y-103185223D01*
X160813067Y-103377707D01*
X160812380Y-103383832D01*
X148663000Y-103383832D01*
X148663000Y-103130354D01*
X148659882Y-103104154D01*
X148653131Y-103088954D01*
X148614439Y-103001847D01*
X148618301Y-103000132D01*
X148603147Y-102953854D01*
X148617454Y-102898912D01*
X148614741Y-102897713D01*
X148634399Y-102853247D01*
X148660006Y-102795327D01*
X148663000Y-102769646D01*
X148663000Y-102480354D01*
X148659882Y-102454154D01*
X148646331Y-102423645D01*
X148619163Y-102362482D01*
X148614439Y-102351847D01*
X148535213Y-102272759D01*
X148524576Y-102268056D01*
X148524574Y-102268055D01*
X148465038Y-102241735D01*
X148432827Y-102227494D01*
X148407146Y-102224500D01*
X147162824Y-102224500D01*
X147094703Y-102204498D01*
X147048210Y-102150842D01*
X147037902Y-102114947D01*
X147036122Y-102101426D01*
X147035044Y-102093238D01*
X146974536Y-101947159D01*
X146878282Y-101821718D01*
X146752841Y-101725464D01*
X146606762Y-101664956D01*
X146450000Y-101644318D01*
X146293238Y-101664956D01*
X146147159Y-101725464D01*
X146021718Y-101821718D01*
X145925464Y-101947159D01*
X145864956Y-102093238D01*
X145844318Y-102250000D01*
X145864956Y-102406762D01*
X145868116Y-102414391D01*
X145870377Y-102419850D01*
X145925464Y-102552841D01*
X146021718Y-102678282D01*
X146028264Y-102683305D01*
X146028268Y-102683309D01*
X146082650Y-102725038D01*
X146124517Y-102782376D01*
X146128739Y-102853247D01*
X146093975Y-102915150D01*
X146082650Y-102924962D01*
X146028268Y-102966691D01*
X146028264Y-102966695D01*
X146021718Y-102971718D01*
X146016695Y-102978264D01*
X146002841Y-102996319D01*
X145925464Y-103097159D01*
X145864956Y-103243238D01*
X145844318Y-103400000D01*
X145864956Y-103556762D01*
X145925464Y-103702841D01*
X146021718Y-103828282D01*
X146147159Y-103924536D01*
X146244633Y-103964911D01*
X146280448Y-103979746D01*
X146293238Y-103985044D01*
X146450000Y-104005682D01*
X146458188Y-104004604D01*
X146598574Y-103986122D01*
X146606762Y-103985044D01*
X146615256Y-103981526D01*
X146616044Y-103981441D01*
X146622370Y-103979746D01*
X146622634Y-103980732D01*
X146685843Y-103973934D01*
X146749332Y-104005711D01*
X146785562Y-104066767D01*
X146788594Y-104083040D01*
X146790118Y-104095846D01*
X146793959Y-104104492D01*
X146794614Y-104106877D01*
X146793382Y-104177863D01*
X146753968Y-104236915D01*
X146714640Y-104255227D01*
X146715914Y-104258727D01*
X146705552Y-104262498D01*
X146694698Y-104264412D01*
X146685154Y-104269922D01*
X146681877Y-104271115D01*
X146678709Y-104272592D01*
X146668059Y-104275446D01*
X146659028Y-104281770D01*
X146637199Y-104297055D01*
X146627928Y-104302961D01*
X146604837Y-104316293D01*
X146595288Y-104321806D01*
X146581376Y-104338386D01*
X146522266Y-104377713D01*
X146468409Y-104382317D01*
X146403314Y-104373747D01*
X146246552Y-104394385D01*
X146100473Y-104454893D01*
X145975032Y-104551147D01*
X145878778Y-104676588D01*
X145818270Y-104822667D01*
X145817192Y-104830855D01*
X145813889Y-104855945D01*
X145797632Y-104979429D01*
X145796189Y-104979239D01*
X145778708Y-105038774D01*
X145725052Y-105085267D01*
X145654778Y-105095371D01*
X145590198Y-105065877D01*
X145583615Y-105059748D01*
X142932652Y-102408785D01*
X142925226Y-102400682D01*
X142902544Y-102373651D01*
X142895225Y-102364026D01*
X142894161Y-102362478D01*
X142889439Y-102351847D01*
X142810213Y-102272759D01*
X142799576Y-102268056D01*
X142799574Y-102268055D01*
X142740038Y-102241735D01*
X142707827Y-102227494D01*
X142682146Y-102224500D01*
X141317854Y-102224500D01*
X141314150Y-102224941D01*
X141314147Y-102224941D01*
X141306754Y-102225821D01*
X141291654Y-102227618D01*
X141283014Y-102231456D01*
X141283013Y-102231456D01*
X141222831Y-102258188D01*
X141189347Y-102273061D01*
X141110259Y-102352287D01*
X141105556Y-102362924D01*
X141105555Y-102362926D01*
X141085281Y-102408785D01*
X141064994Y-102454673D01*
X141062000Y-102480354D01*
X141062000Y-102769646D01*
X141065118Y-102795846D01*
X141068956Y-102804486D01*
X141068956Y-102804487D01*
X141100483Y-102875464D01*
X141110561Y-102898153D01*
X141118795Y-102906373D01*
X141125384Y-102915960D01*
X141121962Y-102918312D01*
X141145455Y-102961274D01*
X141140434Y-103032092D01*
X141097922Y-103088954D01*
X141031418Y-103113806D01*
X140974133Y-103104542D01*
X140973197Y-103104154D01*
X140875554Y-103063709D01*
X140718792Y-103043071D01*
X140562030Y-103063709D01*
X140415951Y-103124217D01*
X140290510Y-103220471D01*
X140194256Y-103345912D01*
X140133748Y-103491991D01*
X140113110Y-103648753D01*
X140114188Y-103656941D01*
X140130436Y-103780354D01*
X140133748Y-103805515D01*
X140194256Y-103951594D01*
X140199284Y-103958147D01*
X140199286Y-103958150D01*
X140278846Y-104061835D01*
X140304447Y-104128055D01*
X140290182Y-104197604D01*
X140273926Y-104219590D01*
X140274251Y-104219839D01*
X140177997Y-104345280D01*
X140117489Y-104491359D01*
X140096851Y-104648121D01*
X133796549Y-104648121D01*
X132294826Y-101424911D01*
X132024096Y-100843832D01*
X160812380Y-100843832D01*
X160829619Y-101049123D01*
X160886404Y-101247156D01*
X160889219Y-101252633D01*
X160889220Y-101252636D01*
X160910107Y-101293277D01*
X160980572Y-101430388D01*
X161108537Y-101591840D01*
X161113230Y-101595834D01*
X161113231Y-101595835D01*
X161193182Y-101663878D01*
X161265424Y-101725361D01*
X161445258Y-101825867D01*
X161540098Y-101856682D01*
X161635331Y-101887626D01*
X161635335Y-101887627D01*
X161641189Y-101889529D01*
X161845754Y-101913921D01*
X161851889Y-101913449D01*
X161851891Y-101913449D01*
X161907899Y-101909139D01*
X162051160Y-101898116D01*
X162057090Y-101896460D01*
X162057092Y-101896460D01*
X162243657Y-101844370D01*
X162243656Y-101844370D01*
X162249585Y-101842715D01*
X162255074Y-101839942D01*
X162255080Y-101839940D01*
X162427976Y-101752603D01*
X162433470Y-101749828D01*
X162458221Y-101730491D01*
X162542102Y-101664956D01*
X162595811Y-101622994D01*
X162658994Y-101549796D01*
X162726400Y-101471704D01*
X162726400Y-101471703D01*
X162730424Y-101467042D01*
X162751247Y-101430388D01*
X162829136Y-101293277D01*
X162832183Y-101287914D01*
X162897211Y-101092433D01*
X162923031Y-100888044D01*
X162923443Y-100858570D01*
X162903340Y-100653540D01*
X162843795Y-100456319D01*
X162747078Y-100274419D01*
X162639103Y-100142029D01*
X162620766Y-100119545D01*
X162620763Y-100119542D01*
X162616871Y-100114770D01*
X162586735Y-100089839D01*
X162462885Y-99987381D01*
X162462881Y-99987379D01*
X162458135Y-99983452D01*
X162276915Y-99885467D01*
X162080114Y-99824547D01*
X162073989Y-99823903D01*
X162073988Y-99823903D01*
X161881358Y-99803657D01*
X161881356Y-99803657D01*
X161875229Y-99803013D01*
X161788389Y-99810916D01*
X161676202Y-99821125D01*
X161676199Y-99821126D01*
X161670063Y-99821684D01*
X161472432Y-99879850D01*
X161289862Y-99975296D01*
X161285061Y-99979156D01*
X161285058Y-99979158D01*
X161134114Y-100100520D01*
X161129307Y-100104385D01*
X160996884Y-100262200D01*
X160993916Y-100267598D01*
X160993913Y-100267603D01*
X160987175Y-100279860D01*
X160897636Y-100442732D01*
X160835344Y-100639102D01*
X160834658Y-100645219D01*
X160834657Y-100645223D01*
X160819363Y-100781579D01*
X160812380Y-100843832D01*
X132024096Y-100843832D01*
X130852863Y-98329966D01*
X130841075Y-98276753D01*
X130841075Y-96919748D01*
X131209500Y-96919748D01*
X131210707Y-96925816D01*
X131214331Y-96944033D01*
X131221133Y-96978231D01*
X131265448Y-97044552D01*
X131331769Y-97088867D01*
X131343938Y-97091288D01*
X131343939Y-97091288D01*
X131384184Y-97099293D01*
X131390252Y-97100500D01*
X133129748Y-97100500D01*
X133135816Y-97099293D01*
X133176061Y-97091288D01*
X133176062Y-97091288D01*
X133188231Y-97088867D01*
X133254552Y-97044552D01*
X133261443Y-97034239D01*
X133266083Y-97029599D01*
X133328395Y-96995573D01*
X133399210Y-97000638D01*
X133444273Y-97029599D01*
X134205889Y-97791215D01*
X134213316Y-97799319D01*
X134237545Y-97828194D01*
X134247094Y-97833707D01*
X134270185Y-97847039D01*
X134279456Y-97852945D01*
X134310316Y-97874554D01*
X134320966Y-97877408D01*
X134324134Y-97878885D01*
X134327410Y-97880077D01*
X134336955Y-97885588D01*
X134370699Y-97891538D01*
X134374058Y-97892130D01*
X134384785Y-97894508D01*
X134421193Y-97904264D01*
X134432169Y-97903304D01*
X134432172Y-97903304D01*
X134458743Y-97900979D01*
X134469724Y-97900500D01*
X141933523Y-97900500D01*
X142001644Y-97920502D01*
X142048137Y-97974158D01*
X142058445Y-98010053D01*
X142070453Y-98101265D01*
X142130961Y-98247344D01*
X142227215Y-98372785D01*
X142352656Y-98469039D01*
X142498735Y-98529547D01*
X142655497Y-98550185D01*
X142663685Y-98549107D01*
X142804071Y-98530625D01*
X142812259Y-98529547D01*
X142958338Y-98469039D01*
X143083779Y-98372785D01*
X143180033Y-98247344D01*
X143240541Y-98101265D01*
X143261179Y-97944503D01*
X143240541Y-97787741D01*
X143180033Y-97641662D01*
X143083779Y-97516221D01*
X142958338Y-97419967D01*
X142812259Y-97359459D01*
X142655497Y-97338821D01*
X142580164Y-97348739D01*
X142510017Y-97337800D01*
X142490276Y-97325168D01*
X142487455Y-97321806D01*
X142477906Y-97316293D01*
X142454815Y-97302961D01*
X142445544Y-97297055D01*
X142427681Y-97284547D01*
X142414684Y-97275446D01*
X142404034Y-97272592D01*
X142400866Y-97271115D01*
X142397590Y-97269923D01*
X142388045Y-97264412D01*
X142354301Y-97258462D01*
X142350942Y-97257870D01*
X142340215Y-97255492D01*
X142303807Y-97245736D01*
X142292822Y-97246697D01*
X142292820Y-97246697D01*
X142266272Y-97249020D01*
X142255290Y-97249500D01*
X137824288Y-97249500D01*
X137756167Y-97229498D01*
X137709674Y-97175842D01*
X137699570Y-97105568D01*
X137729064Y-97040988D01*
X137767477Y-97011034D01*
X137788058Y-97000638D01*
X137905610Y-96941258D01*
X138067951Y-96814424D01*
X138112504Y-96762809D01*
X138198540Y-96663134D01*
X138198540Y-96663133D01*
X138202564Y-96658472D01*
X138223387Y-96621818D01*
X138241056Y-96590714D01*
X138304323Y-96479344D01*
X138369351Y-96283863D01*
X138395171Y-96079474D01*
X138395583Y-96050000D01*
X138375480Y-95844970D01*
X138315935Y-95647749D01*
X138219218Y-95465849D01*
X138145859Y-95375902D01*
X138092906Y-95310975D01*
X138092903Y-95310972D01*
X138089011Y-95306200D01*
X138071786Y-95291950D01*
X137935025Y-95178811D01*
X137935021Y-95178809D01*
X137930275Y-95174882D01*
X137749055Y-95076897D01*
X137552254Y-95015977D01*
X137546129Y-95015333D01*
X137546128Y-95015333D01*
X137353498Y-94995087D01*
X137353496Y-94995087D01*
X137347369Y-94994443D01*
X137260529Y-95002346D01*
X137148342Y-95012555D01*
X137148339Y-95012556D01*
X137142203Y-95013114D01*
X136944572Y-95071280D01*
X136762002Y-95166726D01*
X136757201Y-95170586D01*
X136757198Y-95170588D01*
X136606254Y-95291950D01*
X136601447Y-95295815D01*
X136469024Y-95453630D01*
X136466056Y-95459028D01*
X136466053Y-95459033D01*
X136459315Y-95471290D01*
X136369776Y-95634162D01*
X136307484Y-95830532D01*
X136306798Y-95836649D01*
X136306797Y-95836653D01*
X136297114Y-95922984D01*
X136284520Y-96035262D01*
X136285036Y-96041406D01*
X136300096Y-96220745D01*
X136301759Y-96240553D01*
X136358544Y-96438586D01*
X136361359Y-96444063D01*
X136361360Y-96444066D01*
X136382247Y-96484707D01*
X136452712Y-96621818D01*
X136580677Y-96783270D01*
X136737564Y-96916791D01*
X136887591Y-97000638D01*
X136910626Y-97013512D01*
X136960332Y-97064205D01*
X136974740Y-97133725D01*
X136949277Y-97199998D01*
X136892025Y-97241983D01*
X136849156Y-97249500D01*
X135284288Y-97249500D01*
X135216167Y-97229498D01*
X135169674Y-97175842D01*
X135159570Y-97105568D01*
X135189064Y-97040988D01*
X135227477Y-97011034D01*
X135248058Y-97000638D01*
X135365610Y-96941258D01*
X135527951Y-96814424D01*
X135572504Y-96762809D01*
X135658540Y-96663134D01*
X135658540Y-96663133D01*
X135662564Y-96658472D01*
X135683387Y-96621818D01*
X135701056Y-96590714D01*
X135764323Y-96479344D01*
X135829351Y-96283863D01*
X135855171Y-96079474D01*
X135855583Y-96050000D01*
X135835480Y-95844970D01*
X135775935Y-95647749D01*
X135679218Y-95465849D01*
X135605859Y-95375902D01*
X135552906Y-95310975D01*
X135552903Y-95310972D01*
X135549011Y-95306200D01*
X135531786Y-95291950D01*
X135395025Y-95178811D01*
X135395021Y-95178809D01*
X135390275Y-95174882D01*
X135209055Y-95076897D01*
X135012254Y-95015977D01*
X135006129Y-95015333D01*
X135006128Y-95015333D01*
X134813498Y-94995087D01*
X134813496Y-94995087D01*
X134807369Y-94994443D01*
X134720529Y-95002346D01*
X134608342Y-95012555D01*
X134608339Y-95012556D01*
X134602203Y-95013114D01*
X134404572Y-95071280D01*
X134222002Y-95166726D01*
X134217201Y-95170586D01*
X134217198Y-95170588D01*
X134066254Y-95291950D01*
X134061447Y-95295815D01*
X133929024Y-95453630D01*
X133926056Y-95459028D01*
X133926053Y-95459033D01*
X133919315Y-95471290D01*
X133829776Y-95634162D01*
X133767484Y-95830532D01*
X133766798Y-95836649D01*
X133766797Y-95836653D01*
X133757114Y-95922984D01*
X133744520Y-96035262D01*
X133745036Y-96041406D01*
X133745036Y-96041407D01*
X133749987Y-96100370D01*
X133735755Y-96169925D01*
X133686178Y-96220745D01*
X133616996Y-96236694D01*
X133550174Y-96212708D01*
X133535334Y-96200008D01*
X133347405Y-96012079D01*
X133313379Y-95949767D01*
X133310500Y-95922984D01*
X133310500Y-95180252D01*
X133298867Y-95121769D01*
X133254552Y-95055448D01*
X133188231Y-95011133D01*
X133176062Y-95008712D01*
X133176061Y-95008712D01*
X133135816Y-95000707D01*
X133129748Y-94999500D01*
X131390252Y-94999500D01*
X131384184Y-95000707D01*
X131343939Y-95008712D01*
X131343938Y-95008712D01*
X131331769Y-95011133D01*
X131265448Y-95055448D01*
X131221133Y-95121769D01*
X131209500Y-95180252D01*
X131209500Y-96919748D01*
X130841075Y-96919748D01*
X130841075Y-93495262D01*
X131204520Y-93495262D01*
X131221759Y-93700553D01*
X131278544Y-93898586D01*
X131281359Y-93904063D01*
X131281360Y-93904066D01*
X131302247Y-93944707D01*
X131372712Y-94081818D01*
X131500677Y-94243270D01*
X131657564Y-94376791D01*
X131837398Y-94477297D01*
X131932238Y-94508113D01*
X132027471Y-94539056D01*
X132027475Y-94539057D01*
X132033329Y-94540959D01*
X132237894Y-94565351D01*
X132244029Y-94564879D01*
X132244031Y-94564879D01*
X132300039Y-94560569D01*
X132443300Y-94549546D01*
X132449230Y-94547890D01*
X132449232Y-94547890D01*
X132635797Y-94495800D01*
X132635796Y-94495800D01*
X132641725Y-94494145D01*
X132647214Y-94491372D01*
X132647220Y-94491370D01*
X132820116Y-94404033D01*
X132825610Y-94401258D01*
X132987951Y-94274424D01*
X133122564Y-94118472D01*
X133143387Y-94081818D01*
X133221276Y-93944707D01*
X133224323Y-93939344D01*
X133289351Y-93743863D01*
X133315171Y-93539474D01*
X133315583Y-93510000D01*
X133314138Y-93495262D01*
X133744520Y-93495262D01*
X133761759Y-93700553D01*
X133818544Y-93898586D01*
X133821359Y-93904063D01*
X133821360Y-93904066D01*
X133842247Y-93944707D01*
X133912712Y-94081818D01*
X134040677Y-94243270D01*
X134197564Y-94376791D01*
X134377398Y-94477297D01*
X134472238Y-94508113D01*
X134567471Y-94539056D01*
X134567475Y-94539057D01*
X134573329Y-94540959D01*
X134777894Y-94565351D01*
X134784029Y-94564879D01*
X134784031Y-94564879D01*
X134840039Y-94560569D01*
X134983300Y-94549546D01*
X134989230Y-94547890D01*
X134989232Y-94547890D01*
X135175797Y-94495800D01*
X135175796Y-94495800D01*
X135181725Y-94494145D01*
X135187214Y-94491372D01*
X135187220Y-94491370D01*
X135360116Y-94404033D01*
X135365610Y-94401258D01*
X135527951Y-94274424D01*
X135662564Y-94118472D01*
X135683387Y-94081818D01*
X135761276Y-93944707D01*
X135764323Y-93939344D01*
X135829351Y-93743863D01*
X135855171Y-93539474D01*
X135855583Y-93510000D01*
X135835480Y-93304970D01*
X135775935Y-93107749D01*
X135679218Y-92925849D01*
X135605859Y-92835902D01*
X135552906Y-92770975D01*
X135552903Y-92770972D01*
X135549011Y-92766200D01*
X135471789Y-92702316D01*
X135395025Y-92638811D01*
X135395021Y-92638809D01*
X135390275Y-92634882D01*
X135209055Y-92536897D01*
X135012254Y-92475977D01*
X135006129Y-92475333D01*
X135006128Y-92475333D01*
X134813498Y-92455087D01*
X134813496Y-92455087D01*
X134807369Y-92454443D01*
X134720529Y-92462346D01*
X134608342Y-92472555D01*
X134608339Y-92472556D01*
X134602203Y-92473114D01*
X134404572Y-92531280D01*
X134222002Y-92626726D01*
X134217201Y-92630586D01*
X134217198Y-92630588D01*
X134066254Y-92751950D01*
X134061447Y-92755815D01*
X133929024Y-92913630D01*
X133926056Y-92919028D01*
X133926053Y-92919033D01*
X133919315Y-92931290D01*
X133829776Y-93094162D01*
X133767484Y-93290532D01*
X133766798Y-93296649D01*
X133766797Y-93296653D01*
X133745207Y-93489137D01*
X133744520Y-93495262D01*
X133314138Y-93495262D01*
X133295480Y-93304970D01*
X133235935Y-93107749D01*
X133139218Y-92925849D01*
X133065859Y-92835902D01*
X133012906Y-92770975D01*
X133012903Y-92770972D01*
X133009011Y-92766200D01*
X132931789Y-92702316D01*
X132855025Y-92638811D01*
X132855021Y-92638809D01*
X132850275Y-92634882D01*
X132669055Y-92536897D01*
X132472254Y-92475977D01*
X132466129Y-92475333D01*
X132466128Y-92475333D01*
X132273498Y-92455087D01*
X132273496Y-92455087D01*
X132267369Y-92454443D01*
X132180529Y-92462346D01*
X132068342Y-92472555D01*
X132068339Y-92472556D01*
X132062203Y-92473114D01*
X131864572Y-92531280D01*
X131682002Y-92626726D01*
X131677201Y-92630586D01*
X131677198Y-92630588D01*
X131526254Y-92751950D01*
X131521447Y-92755815D01*
X131389024Y-92913630D01*
X131386056Y-92919028D01*
X131386053Y-92919033D01*
X131379315Y-92931290D01*
X131289776Y-93094162D01*
X131227484Y-93290532D01*
X131226798Y-93296649D01*
X131226797Y-93296653D01*
X131205207Y-93489137D01*
X131204520Y-93495262D01*
X130841075Y-93495262D01*
X130841075Y-92387071D01*
X130861077Y-92318950D01*
X130916572Y-92271635D01*
X138816929Y-88815229D01*
X138867432Y-88804665D01*
X147318518Y-88804665D01*
X147362228Y-88812489D01*
G37*
%TD.AperFunction*%
%TD*%
M02*
