%TF.GenerationSoftware,KiCad,Pcbnew,(6.0.7-1)-1*%
%TF.CreationDate,2023-01-22T12:43:28-05:00*%
%TF.ProjectId,atmega328,61746d65-6761-4333-9238-2e6b69636164,rev?*%
%TF.SameCoordinates,Original*%
%TF.FileFunction,Legend,Bot*%
%TF.FilePolarity,Positive*%
%FSLAX46Y46*%
G04 Gerber Fmt 4.6, Leading zero omitted, Abs format (unit mm)*
G04 Created by KiCad (PCBNEW (6.0.7-1)-1) date 2023-01-22 12:43:28*
%MOMM*%
%LPD*%
G01*
G04 APERTURE LIST*
%ADD10C,0.150000*%
%ADD11C,0.120000*%
G04 APERTURE END LIST*
D10*
X148257142Y-111952380D02*
X148352380Y-111904761D01*
X148400000Y-111809523D01*
X148400000Y-110952380D01*
X147971428Y-111285714D02*
X147733333Y-111952380D01*
X147495238Y-111285714D02*
X147733333Y-111952380D01*
X147828571Y-112190476D01*
X147876190Y-112238095D01*
X147971428Y-112285714D01*
X146971428Y-111952380D02*
X147066666Y-111904761D01*
X147114285Y-111857142D01*
X147161904Y-111761904D01*
X147161904Y-111476190D01*
X147114285Y-111380952D01*
X147066666Y-111333333D01*
X146971428Y-111285714D01*
X146828571Y-111285714D01*
X146733333Y-111333333D01*
X146685714Y-111380952D01*
X146638095Y-111476190D01*
X146638095Y-111761904D01*
X146685714Y-111857142D01*
X146733333Y-111904761D01*
X146828571Y-111952380D01*
X146971428Y-111952380D01*
X146352380Y-111285714D02*
X145971428Y-111285714D01*
X146209523Y-110952380D02*
X146209523Y-111809523D01*
X146161904Y-111904761D01*
X146066666Y-111952380D01*
X145971428Y-111952380D01*
X145638095Y-111952380D02*
X145638095Y-111285714D01*
X145638095Y-111380952D02*
X145590476Y-111333333D01*
X145495238Y-111285714D01*
X145352380Y-111285714D01*
X145257142Y-111333333D01*
X145209523Y-111428571D01*
X145209523Y-111952380D01*
X145209523Y-111428571D02*
X145161904Y-111333333D01*
X145066666Y-111285714D01*
X144923809Y-111285714D01*
X144828571Y-111333333D01*
X144780952Y-111428571D01*
X144780952Y-111952380D01*
X144161904Y-111952380D02*
X144257142Y-111904761D01*
X144304761Y-111857142D01*
X144352380Y-111761904D01*
X144352380Y-111476190D01*
X144304761Y-111380952D01*
X144257142Y-111333333D01*
X144161904Y-111285714D01*
X144019047Y-111285714D01*
X143923809Y-111333333D01*
X143876190Y-111380952D01*
X143828571Y-111476190D01*
X143828571Y-111761904D01*
X143876190Y-111857142D01*
X143923809Y-111904761D01*
X144019047Y-111952380D01*
X144161904Y-111952380D01*
X143400000Y-111285714D02*
X143400000Y-111952380D01*
X143400000Y-111380952D02*
X143352380Y-111333333D01*
X143257142Y-111285714D01*
X143114285Y-111285714D01*
X143019047Y-111333333D01*
X142971428Y-111428571D01*
X142971428Y-111952380D01*
X142495238Y-111952380D02*
X142495238Y-110952380D01*
X142400000Y-111571428D02*
X142114285Y-111952380D01*
X142114285Y-111285714D02*
X142495238Y-111666666D01*
X141780952Y-111285714D02*
X141542857Y-111952380D01*
X141304761Y-111285714D02*
X141542857Y-111952380D01*
X141638095Y-112190476D01*
X141685714Y-112238095D01*
X141780952Y-112285714D01*
D11*
%TO.C,U1*%
X144862500Y-107185000D02*
X142662500Y-107185000D01*
X144862500Y-101965000D02*
X142662500Y-101965000D01*
X144862500Y-107185000D02*
X147062500Y-107185000D01*
X144862500Y-101965000D02*
X148462500Y-101965000D01*
%TO.C,G\u002A\u002A\u002A*%
G36*
X147013125Y-114312137D02*
G01*
X146952764Y-114453581D01*
X146919880Y-114499422D01*
X146895721Y-114511469D01*
X146873756Y-114484020D01*
X146852246Y-114457640D01*
X146827106Y-114468201D01*
X146785391Y-114521379D01*
X146705560Y-114606996D01*
X146560417Y-114704368D01*
X146373378Y-114784678D01*
X146315745Y-114806484D01*
X146279907Y-114826904D01*
X146292681Y-114835338D01*
X146332852Y-114842750D01*
X146374772Y-114869983D01*
X146377224Y-114877840D01*
X146356492Y-114889991D01*
X146292725Y-114892649D01*
X146179503Y-114886352D01*
X146050511Y-114870033D01*
X145855370Y-114811312D01*
X145697616Y-114712809D01*
X145573882Y-114572780D01*
X145528056Y-114497394D01*
X145492017Y-114403683D01*
X145482057Y-114301524D01*
X145483052Y-114260559D01*
X145492067Y-114210400D01*
X145912862Y-114210400D01*
X145914638Y-114295197D01*
X145939228Y-114396692D01*
X145992275Y-114485908D01*
X146021196Y-114510929D01*
X146118515Y-114548658D01*
X146238117Y-114548215D01*
X146369608Y-114513126D01*
X146502591Y-114446915D01*
X146626672Y-114353109D01*
X146731455Y-114235232D01*
X146792170Y-114149966D01*
X146695123Y-114068879D01*
X146664701Y-114045671D01*
X146526502Y-113972533D01*
X146362866Y-113923106D01*
X146196774Y-113904950D01*
X146135442Y-113907096D01*
X146083641Y-113922185D01*
X146040670Y-113962219D01*
X145987922Y-114039155D01*
X145983304Y-114046379D01*
X145933315Y-114135971D01*
X145912862Y-114210400D01*
X145492067Y-114210400D01*
X145517943Y-114066431D01*
X145601317Y-113897887D01*
X145609236Y-113887110D01*
X145648910Y-113845117D01*
X145684804Y-113820111D01*
X145704096Y-113818938D01*
X145693960Y-113848443D01*
X145686082Y-113866098D01*
X145697876Y-113876785D01*
X145732938Y-113860683D01*
X145776752Y-113822365D01*
X145817909Y-113788673D01*
X145904397Y-113735416D01*
X146014886Y-113677052D01*
X146133252Y-113621514D01*
X146243369Y-113576733D01*
X146329112Y-113550642D01*
X146388257Y-113540445D01*
X146408482Y-113546308D01*
X146391987Y-113573029D01*
X146380017Y-113594806D01*
X146393731Y-113613495D01*
X146445031Y-113630633D01*
X146543098Y-113650956D01*
X146651444Y-113679798D01*
X146772035Y-113728172D01*
X146880207Y-113786456D01*
X146961791Y-113846917D01*
X147002622Y-113901819D01*
X147005025Y-113920953D01*
X146983164Y-113921342D01*
X146983086Y-113921294D01*
X146960346Y-113909938D01*
X146954105Y-113920667D01*
X146965305Y-113963818D01*
X146994891Y-114049729D01*
X147018699Y-114149966D01*
X147020499Y-114157546D01*
X147013125Y-114312137D01*
G37*
G36*
X144408324Y-114314453D02*
G01*
X144400971Y-114417114D01*
X144376239Y-114494970D01*
X144326172Y-114575085D01*
X144220290Y-114694313D01*
X144056620Y-114806108D01*
X143857475Y-114874838D01*
X143840668Y-114878166D01*
X143759120Y-114887728D01*
X143670203Y-114890815D01*
X143589836Y-114887861D01*
X143533939Y-114879302D01*
X143518431Y-114865573D01*
X143540708Y-114848375D01*
X143597796Y-114834526D01*
X143615518Y-114831868D01*
X143607143Y-114818703D01*
X143544315Y-114795298D01*
X143502358Y-114781170D01*
X143324723Y-114699301D01*
X143181128Y-114595517D01*
X143082605Y-114477415D01*
X143077501Y-114468974D01*
X143052038Y-114444037D01*
X143026663Y-114468206D01*
X142999558Y-114489721D01*
X142957993Y-114474757D01*
X142916172Y-114416531D01*
X142880862Y-114321836D01*
X142868203Y-114262603D01*
X142868302Y-114176415D01*
X142876200Y-114145456D01*
X143123113Y-114145456D01*
X143133213Y-114187805D01*
X143177971Y-114253751D01*
X143249676Y-114331451D01*
X143384730Y-114435791D01*
X143540951Y-114520365D01*
X143547167Y-114522939D01*
X143633526Y-114545514D01*
X143729151Y-114554783D01*
X143800955Y-114543624D01*
X143895424Y-114488320D01*
X143960427Y-114397449D01*
X143984616Y-114283081D01*
X143978277Y-114224833D01*
X143944525Y-114114356D01*
X143891591Y-114009037D01*
X143830781Y-113934499D01*
X143787339Y-113914449D01*
X143693363Y-113906870D01*
X143574609Y-113920558D01*
X143445481Y-113951781D01*
X143320383Y-113996812D01*
X143213718Y-114051921D01*
X143139890Y-114113379D01*
X143123113Y-114145456D01*
X142876200Y-114145456D01*
X142894786Y-114072599D01*
X142897315Y-114064859D01*
X142925934Y-113973620D01*
X142936618Y-113925595D01*
X142930150Y-113911323D01*
X142907313Y-113921342D01*
X142891203Y-113926790D01*
X142888358Y-113901819D01*
X142903939Y-113874030D01*
X142969598Y-113814161D01*
X143070682Y-113753489D01*
X143194040Y-113699306D01*
X143326521Y-113658904D01*
X143425102Y-113634156D01*
X143484911Y-113613185D01*
X143505856Y-113593545D01*
X143496597Y-113570747D01*
X143482273Y-113548134D01*
X143499199Y-113540632D01*
X143561366Y-113551177D01*
X143564007Y-113551743D01*
X143732767Y-113604492D01*
X143908230Y-113686356D01*
X144060980Y-113783648D01*
X144104274Y-113816112D01*
X144174517Y-113863822D01*
X144204832Y-113874392D01*
X144196518Y-113848443D01*
X144189326Y-113833080D01*
X144199231Y-113820153D01*
X144233122Y-113834100D01*
X144275822Y-113870667D01*
X144343398Y-113976491D01*
X144391297Y-114125718D01*
X144407181Y-114283081D01*
X144408420Y-114295354D01*
X144408324Y-114314453D01*
G37*
G36*
X148038309Y-118831909D02*
G01*
X147955649Y-118946457D01*
X147873097Y-119053272D01*
X147798069Y-119141475D01*
X147618220Y-119316034D01*
X147383447Y-119502807D01*
X147121453Y-119677779D01*
X146847208Y-119831014D01*
X146575681Y-119952580D01*
X146443764Y-119999540D01*
X146204653Y-120070659D01*
X145952932Y-120131391D01*
X145715535Y-120174775D01*
X145617527Y-120185152D01*
X145458790Y-120194277D01*
X145266860Y-120199890D01*
X145054373Y-120202072D01*
X144833966Y-120200905D01*
X144618277Y-120196474D01*
X144419942Y-120188859D01*
X144251599Y-120178143D01*
X144125884Y-120164409D01*
X143825119Y-120105907D01*
X143435274Y-119990780D01*
X143065359Y-119836860D01*
X142721036Y-119647790D01*
X142407969Y-119427210D01*
X142131820Y-119178762D01*
X141898252Y-118906088D01*
X141731516Y-118642242D01*
X143113312Y-118642242D01*
X143149686Y-118727862D01*
X143223485Y-118845183D01*
X143389770Y-119052581D01*
X143605358Y-119250573D01*
X143852763Y-119422720D01*
X144119802Y-119560587D01*
X144394293Y-119655742D01*
X144410275Y-119659725D01*
X144579674Y-119689348D01*
X144780321Y-119707380D01*
X144990732Y-119713161D01*
X145189425Y-119706029D01*
X145354916Y-119685323D01*
X145397078Y-119676635D01*
X145708134Y-119584505D01*
X145999311Y-119449423D01*
X146262610Y-119276531D01*
X146490026Y-119070972D01*
X146673559Y-118837889D01*
X146696344Y-118802433D01*
X146755368Y-118701349D01*
X146781519Y-118625455D01*
X146770810Y-118565690D01*
X146719256Y-118512992D01*
X146622869Y-118458299D01*
X146477664Y-118392550D01*
X146313499Y-118324529D01*
X145957532Y-118195295D01*
X145589053Y-118082978D01*
X145236481Y-117996643D01*
X144945239Y-117935532D01*
X144641512Y-117999261D01*
X144539126Y-118022243D01*
X144297893Y-118085321D01*
X144040412Y-118162684D01*
X143784680Y-118248446D01*
X143548696Y-118336717D01*
X143350457Y-118421612D01*
X143262035Y-118464488D01*
X143166156Y-118521664D01*
X143117691Y-118577212D01*
X143113312Y-118642242D01*
X141731516Y-118642242D01*
X141712928Y-118612828D01*
X141680908Y-118557553D01*
X141646105Y-118513976D01*
X141627584Y-118513940D01*
X141620971Y-118535489D01*
X141601259Y-118604555D01*
X141577002Y-118693125D01*
X141539247Y-118833580D01*
X141460273Y-118698821D01*
X141370063Y-118524266D01*
X141308448Y-118350021D01*
X141271068Y-118158543D01*
X141252859Y-117931090D01*
X141249131Y-117791122D01*
X141252799Y-117653545D01*
X141267078Y-117535100D01*
X141293573Y-117415462D01*
X141298656Y-117395604D01*
X141319715Y-117301674D01*
X141329566Y-117235595D01*
X141326105Y-117210623D01*
X141316979Y-117213445D01*
X141267154Y-117237886D01*
X141186650Y-117282006D01*
X141087693Y-117339212D01*
X141040365Y-117366667D01*
X140950275Y-117415677D01*
X140885014Y-117446663D01*
X140856244Y-117453849D01*
X140854068Y-117448641D01*
X140848698Y-117400433D01*
X140845716Y-117314555D01*
X140845722Y-117205185D01*
X140852614Y-117081013D01*
X140868957Y-116931135D01*
X140892725Y-116766496D01*
X140921903Y-116597221D01*
X140931958Y-116546663D01*
X143447797Y-116546663D01*
X143461924Y-116560790D01*
X143476051Y-116546663D01*
X143461924Y-116532536D01*
X143447797Y-116546663D01*
X140931958Y-116546663D01*
X140954476Y-116433434D01*
X140988430Y-116285261D01*
X141021750Y-116162825D01*
X141052422Y-116076251D01*
X141078432Y-116035664D01*
X141093032Y-116014587D01*
X141103616Y-115958733D01*
X141107297Y-115934826D01*
X141128818Y-115860141D01*
X141165233Y-115756861D01*
X141211532Y-115639794D01*
X141318579Y-115382758D01*
X141189824Y-115314878D01*
X141033952Y-115211921D01*
X140863668Y-115048430D01*
X140715816Y-114850293D01*
X140598841Y-114629109D01*
X140521190Y-114396477D01*
X140494566Y-114233041D01*
X140493976Y-114192804D01*
X140770900Y-114192804D01*
X140804984Y-114372930D01*
X140893262Y-114557304D01*
X141036500Y-114748491D01*
X141097804Y-114814999D01*
X141190872Y-114907024D01*
X141272640Y-114978882D01*
X141385283Y-115068097D01*
X141385843Y-114945645D01*
X141386006Y-114930136D01*
X141397387Y-114761392D01*
X141427131Y-114555209D01*
X141430394Y-114538639D01*
X142204649Y-114538639D01*
X142209490Y-114585044D01*
X142220917Y-114598970D01*
X142239980Y-114588878D01*
X142248590Y-114582283D01*
X142273382Y-114577200D01*
X142293412Y-114608952D01*
X142315969Y-114686945D01*
X142356951Y-114819927D01*
X142477131Y-115066546D01*
X142648250Y-115290616D01*
X142670529Y-115314449D01*
X142742432Y-115388066D01*
X142797526Y-115439532D01*
X142825343Y-115458899D01*
X142835958Y-115437425D01*
X142831929Y-115381969D01*
X142817223Y-115305039D01*
X142913545Y-115386334D01*
X142944704Y-115410842D01*
X143063099Y-115486553D01*
X143202746Y-115558125D01*
X143341877Y-115615141D01*
X143458722Y-115647186D01*
X143568535Y-115665131D01*
X143551969Y-115879868D01*
X143546039Y-115940871D01*
X143495148Y-116208909D01*
X143404845Y-116490156D01*
X143407266Y-116505992D01*
X143442875Y-116484774D01*
X143509819Y-116425129D01*
X143636551Y-116303596D01*
X143554453Y-116546663D01*
X143519159Y-116651158D01*
X143497816Y-116713357D01*
X143359705Y-117073397D01*
X143211561Y-117391422D01*
X143056682Y-117660238D01*
X143011696Y-117732724D01*
X142932029Y-117892751D01*
X142895271Y-118031856D01*
X142898887Y-118158034D01*
X142905800Y-118185403D01*
X142956356Y-118277126D01*
X143034106Y-118343476D01*
X143122683Y-118369021D01*
X143137177Y-118366967D01*
X143203142Y-118349721D01*
X143309691Y-118317219D01*
X143448280Y-118272202D01*
X143610365Y-118217415D01*
X143787403Y-118155600D01*
X143978627Y-118088734D01*
X144260945Y-117994526D01*
X144496318Y-117922566D01*
X144687538Y-117872076D01*
X144837394Y-117842280D01*
X144948679Y-117832401D01*
X145003179Y-117835641D01*
X145143087Y-117859304D01*
X145329898Y-117905213D01*
X145560687Y-117972545D01*
X145832532Y-118060478D01*
X146142510Y-118168190D01*
X146191173Y-118185509D01*
X146358985Y-118243927D01*
X146509429Y-118294355D01*
X146633583Y-118333925D01*
X146722528Y-118359769D01*
X146767342Y-118369021D01*
X146796611Y-118365962D01*
X146883084Y-118325714D01*
X146955129Y-118251556D01*
X146994985Y-118159812D01*
X147001240Y-118104883D01*
X146992885Y-118009927D01*
X146958650Y-117899908D01*
X146895219Y-117765284D01*
X146799276Y-117596507D01*
X146773345Y-117552447D01*
X146647193Y-117316392D01*
X146529131Y-117061923D01*
X146428284Y-116809842D01*
X146353778Y-116580950D01*
X146350847Y-116570470D01*
X146319364Y-116467796D01*
X146289661Y-116386170D01*
X146267816Y-116342451D01*
X146246382Y-116314074D01*
X146245847Y-116302702D01*
X146274164Y-116321098D01*
X146323978Y-116364109D01*
X146387935Y-116426585D01*
X146442825Y-116479282D01*
X146479419Y-116504622D01*
X146483993Y-116490156D01*
X146474679Y-116464292D01*
X146411929Y-116257195D01*
X146368642Y-116052461D01*
X146349805Y-115873024D01*
X146343793Y-115679697D01*
X146499188Y-115630553D01*
X146570562Y-115606492D01*
X146798412Y-115505495D01*
X146980224Y-115383320D01*
X147073254Y-115305039D01*
X147058548Y-115381969D01*
X147053456Y-115435107D01*
X147062027Y-115458899D01*
X147063994Y-115458704D01*
X147101692Y-115434826D01*
X147162578Y-115379138D01*
X147235941Y-115303181D01*
X147311070Y-115218497D01*
X147377252Y-115136627D01*
X147423778Y-115069113D01*
X147464612Y-114988832D01*
X147514314Y-114871536D01*
X147557067Y-114751834D01*
X147576175Y-114693689D01*
X147606673Y-114616460D01*
X147630767Y-114583952D01*
X147652509Y-114589262D01*
X147666536Y-114594998D01*
X147677993Y-114569123D01*
X147684061Y-114500491D01*
X147685839Y-114382272D01*
X147684286Y-114307152D01*
X147653213Y-114065905D01*
X147579869Y-113853293D01*
X147461116Y-113659215D01*
X147450819Y-113644630D01*
X148255707Y-113644630D01*
X148271661Y-113725106D01*
X148307402Y-113848443D01*
X148319843Y-113891081D01*
X148353736Y-114019536D01*
X148389610Y-114168816D01*
X148421517Y-114314628D01*
X148431691Y-114366181D01*
X148434482Y-114382272D01*
X148460055Y-114529736D01*
X148484336Y-114696486D01*
X148500154Y-114837319D01*
X148520734Y-115077475D01*
X148748058Y-114851446D01*
X148751459Y-114848061D01*
X148896754Y-114693464D01*
X148999811Y-114557927D01*
X149066219Y-114430805D01*
X149101566Y-114301455D01*
X149111438Y-114159233D01*
X149109824Y-114102396D01*
X149087663Y-113957613D01*
X149033294Y-113838141D01*
X148938685Y-113723734D01*
X148875392Y-113667656D01*
X148716383Y-113579176D01*
X148535878Y-113541229D01*
X148339204Y-113555312D01*
X148337943Y-113555565D01*
X148287711Y-113570339D01*
X148260678Y-113596534D01*
X148255707Y-113644630D01*
X147450819Y-113644630D01*
X147409449Y-113586033D01*
X147385681Y-113538827D01*
X147397797Y-113529535D01*
X147419441Y-113535332D01*
X147428846Y-113525894D01*
X147404295Y-113495790D01*
X147354257Y-113452106D01*
X147287198Y-113401926D01*
X147211586Y-113352334D01*
X147135889Y-113310414D01*
X146973676Y-113243326D01*
X146787381Y-113196814D01*
X146577623Y-113176017D01*
X146329899Y-113178563D01*
X146293897Y-113180323D01*
X146176365Y-113185288D01*
X146106555Y-113185753D01*
X146077466Y-113180834D01*
X146082092Y-113169652D01*
X146113431Y-113151323D01*
X146116208Y-113149863D01*
X146172125Y-113115426D01*
X146175807Y-113099467D01*
X146128524Y-113102398D01*
X146031544Y-113124634D01*
X145965768Y-113143435D01*
X145679819Y-113259914D01*
X145399706Y-113431589D01*
X145124427Y-113659052D01*
X144949340Y-113822832D01*
X144798958Y-113678440D01*
X144616451Y-113520422D01*
X144368557Y-113349243D01*
X144111317Y-113214525D01*
X143858934Y-113124634D01*
X143854916Y-113123578D01*
X143759571Y-113101992D01*
X143713965Y-113099697D01*
X143719367Y-113116278D01*
X143777047Y-113151323D01*
X143786609Y-113156410D01*
X143812189Y-113172947D01*
X143809380Y-113182549D01*
X143771178Y-113186099D01*
X143690579Y-113184476D01*
X143560579Y-113178563D01*
X143332282Y-113175358D01*
X143119854Y-113194072D01*
X142932125Y-113238300D01*
X142754588Y-113310414D01*
X142713767Y-113331850D01*
X142636059Y-113379232D01*
X142563929Y-113430043D01*
X142505651Y-113477305D01*
X142469495Y-113514040D01*
X142463734Y-113533269D01*
X142496639Y-113528016D01*
X142518858Y-113526837D01*
X142508327Y-113555496D01*
X142491864Y-113577856D01*
X142460870Y-113619952D01*
X142377246Y-113737117D01*
X142287329Y-113914691D01*
X142233223Y-114111047D01*
X142209346Y-114342218D01*
X142205343Y-114451294D01*
X142204649Y-114538639D01*
X141430394Y-114538639D01*
X141476094Y-114306570D01*
X141545129Y-114010458D01*
X141563885Y-113933125D01*
X141595215Y-113796693D01*
X141618453Y-113685437D01*
X141631606Y-113609208D01*
X141632679Y-113577856D01*
X141612319Y-113570077D01*
X141548333Y-113557601D01*
X141459127Y-113546117D01*
X141335164Y-113545135D01*
X141160556Y-113586523D01*
X141008078Y-113674524D01*
X140886308Y-113803613D01*
X140803823Y-113968264D01*
X140790247Y-114014364D01*
X140770900Y-114192804D01*
X140493976Y-114192804D01*
X140491452Y-114020659D01*
X140520590Y-113815339D01*
X140579231Y-113628406D01*
X140664625Y-113471182D01*
X140774024Y-113354992D01*
X140791838Y-113341744D01*
X140958275Y-113244799D01*
X141136577Y-113182087D01*
X141314376Y-113155595D01*
X141479307Y-113167309D01*
X141619003Y-113219217D01*
X141725582Y-113282205D01*
X141948505Y-113116917D01*
X142044834Y-113048657D01*
X142188056Y-112953327D01*
X142343728Y-112854674D01*
X142491760Y-112765689D01*
X142522301Y-112748026D01*
X142834681Y-112576491D01*
X143118201Y-112440539D01*
X143383810Y-112336967D01*
X143642457Y-112262573D01*
X143905091Y-112214155D01*
X144182662Y-112188511D01*
X144486118Y-112182439D01*
X144626445Y-112183610D01*
X144748208Y-112184583D01*
X144842866Y-112185166D01*
X144924352Y-112185353D01*
X145006603Y-112185137D01*
X145103554Y-112184510D01*
X145229140Y-112183467D01*
X145397297Y-112182000D01*
X145467074Y-112181798D01*
X145765743Y-112191976D01*
X146041809Y-112222665D01*
X146305801Y-112277001D01*
X146568251Y-112358118D01*
X146839690Y-112469151D01*
X147130650Y-112613234D01*
X147451662Y-112793503D01*
X147503036Y-112824262D01*
X147653692Y-112919197D01*
X147807612Y-113021664D01*
X147938410Y-113114276D01*
X148164896Y-113282205D01*
X148257348Y-113228352D01*
X148258932Y-113227436D01*
X148354012Y-113184390D01*
X148452863Y-113155698D01*
X148495293Y-113150163D01*
X148655258Y-113158833D01*
X148826455Y-113204706D01*
X148992515Y-113280756D01*
X149137069Y-113379954D01*
X149243750Y-113495273D01*
X149336974Y-113676074D01*
X149392473Y-113891338D01*
X149405284Y-114123072D01*
X149400937Y-114159233D01*
X149376546Y-114362128D01*
X149307397Y-114599362D01*
X149198976Y-114825628D01*
X149052423Y-115031780D01*
X149027179Y-115058849D01*
X148947660Y-115131219D01*
X148848449Y-115210973D01*
X148744849Y-115286683D01*
X148652165Y-115346923D01*
X148585701Y-115380265D01*
X148576778Y-115386355D01*
X148577036Y-115425605D01*
X148612275Y-115502901D01*
X148673617Y-115632150D01*
X148746434Y-115819138D01*
X148820293Y-116039831D01*
X148891547Y-116282496D01*
X148956545Y-116535403D01*
X149011639Y-116786819D01*
X149023834Y-116867549D01*
X149034742Y-116979590D01*
X149042809Y-117104074D01*
X149047522Y-117227260D01*
X149048370Y-117335413D01*
X149044840Y-117414793D01*
X149036420Y-117451663D01*
X149028252Y-117451918D01*
X148980843Y-117433523D01*
X148902466Y-117393855D01*
X148804870Y-117338647D01*
X148760305Y-117312598D01*
X148667395Y-117260367D01*
X148597868Y-117224165D01*
X148564193Y-117210623D01*
X148558932Y-117215657D01*
X148561016Y-117257349D01*
X148580311Y-117327461D01*
X148583705Y-117337442D01*
X148644810Y-117603210D01*
X148658922Y-117884952D01*
X148627403Y-118169995D01*
X148551615Y-118445664D01*
X148432920Y-118699285D01*
X148355108Y-118832062D01*
X148317566Y-118706493D01*
X148307600Y-118671439D01*
X148287705Y-118587897D01*
X148279594Y-118531480D01*
X148275081Y-118505377D01*
X148250912Y-118482036D01*
X148239961Y-118484915D01*
X148222658Y-118518661D01*
X148212776Y-118550647D01*
X148174289Y-118623125D01*
X148172838Y-118625455D01*
X148113661Y-118720505D01*
X148038309Y-118831909D01*
G37*
G36*
X145388604Y-115943720D02*
G01*
X145411153Y-115977025D01*
X145417156Y-116045833D01*
X145413967Y-116065201D01*
X145419877Y-116100474D01*
X145458880Y-116099218D01*
X145484570Y-116095375D01*
X145493710Y-116108396D01*
X145466664Y-116139375D01*
X145410825Y-116180866D01*
X145333585Y-116225422D01*
X145251512Y-116282071D01*
X145194411Y-116365529D01*
X145182353Y-116396778D01*
X145157465Y-116429243D01*
X145126556Y-116417587D01*
X145125643Y-116416808D01*
X145093778Y-116366750D01*
X145070589Y-116292772D01*
X145067649Y-116263165D01*
X145083250Y-116173901D01*
X145126756Y-116085054D01*
X145188605Y-116007119D01*
X145259237Y-115950589D01*
X145329090Y-115925958D01*
X145388604Y-115943720D01*
G37*
G36*
X143609352Y-114146925D02*
G01*
X143669790Y-114175602D01*
X143695405Y-114226682D01*
X143675792Y-114284006D01*
X143651225Y-114308170D01*
X143591396Y-114325893D01*
X143533684Y-114287731D01*
X143527697Y-114279982D01*
X143506589Y-114217234D01*
X143528398Y-114166184D01*
X143586373Y-114145106D01*
X143609352Y-114146925D01*
G37*
G36*
X144649340Y-115954605D02*
G01*
X144718109Y-116020671D01*
X144779527Y-116118357D01*
X144801555Y-116165019D01*
X144821815Y-116225659D01*
X144817759Y-116278334D01*
X144790693Y-116350141D01*
X144743547Y-116461902D01*
X144705169Y-116371695D01*
X144653005Y-116296100D01*
X144553649Y-116223767D01*
X144496383Y-116192162D01*
X144436342Y-116149488D01*
X144416844Y-116119840D01*
X144443183Y-116108732D01*
X144468346Y-116091879D01*
X144480168Y-116034615D01*
X144489231Y-115971393D01*
X144525869Y-115927440D01*
X144582249Y-115922686D01*
X144649340Y-115954605D01*
G37*
G36*
X145316400Y-115423451D02*
G01*
X145447809Y-115500571D01*
X145476307Y-115529241D01*
X145534639Y-115605105D01*
X145596415Y-115700529D01*
X145652176Y-115799413D01*
X145692464Y-115885659D01*
X145707821Y-115943165D01*
X145698416Y-115944707D01*
X145668695Y-115908025D01*
X145625759Y-115838985D01*
X145593743Y-115788312D01*
X145511026Y-115679897D01*
X145425364Y-115589233D01*
X145361688Y-115534189D01*
X145306383Y-115500950D01*
X145247463Y-115491989D01*
X145161320Y-115499263D01*
X145088039Y-115507318D01*
X144971263Y-115515085D01*
X144862172Y-115512400D01*
X144729158Y-115499263D01*
X144653648Y-115492249D01*
X144591876Y-115498309D01*
X144537372Y-115527601D01*
X144466248Y-115588208D01*
X144427000Y-115626422D01*
X144342755Y-115723176D01*
X144277031Y-115816769D01*
X144250722Y-115860635D01*
X144214362Y-115917114D01*
X144196264Y-115939210D01*
X144198316Y-115924966D01*
X144216796Y-115871411D01*
X144248392Y-115791720D01*
X144311895Y-115667839D01*
X144421043Y-115532488D01*
X144549991Y-115439728D01*
X144691740Y-115394193D01*
X144839288Y-115400517D01*
X144840410Y-115400770D01*
X144945968Y-115410567D01*
X145051190Y-115400517D01*
X145167840Y-115391131D01*
X145316400Y-115423451D01*
G37*
G36*
X146352003Y-114161412D02*
G01*
X146381582Y-114212545D01*
X146379145Y-114260196D01*
X146353328Y-114303936D01*
X146342551Y-114310069D01*
X146276991Y-114321990D01*
X146222486Y-114298590D01*
X146194187Y-114251457D01*
X146207242Y-114192181D01*
X146237218Y-114161191D01*
X146296646Y-114143449D01*
X146352003Y-114161412D01*
G37*
%TD*%
M02*
