  0
SECTION
  2
HEADER
  9
$ANGBASE
  50
0.0
  9
$ANGDIR
  70
1
  9
$MEASUREMENT
  70
1
  0
ENDSEC
  0
SECTION
  2
TABLES
  0
TABLE
  2
LTYPE
  70
4
  0
LTYPE
  5
40F
  2
CONTINUOUS
  70
0
  3
Solid line
  72
65
  73
0
  40
0.0
  0
LTYPE
  5
410
  2
DASHDOT
 70
0
  3
Dash Dot ____ _ ____ _
 72
65
 73
4
 40
2.0
 49
1.25
 49
-0.25
 49
0.25
 49
-0.25
  0
LTYPE
  5
411
  2
DASHED
 70
0
  3
Dashed __ __ __ __ __
 72
65
 73
2
 40
0.75
 49
0.5
 49
-0.25
  0
LTYPE
  5
43B
  2
DOTTED
 70
0
  3
Dotted .  .  .  .
 72
65
 73
2
 40
0.2
 49
0.0
 49
-0.2
  0
ENDTAB
  0
TABLE
  2
STYLE
  70
4
  0
STYLE
  2
KICAD
  70
0
  40
0
  41
1
  42
1
  50
0
  71
0
  3
isocp.shx
  0
STYLE
  2
KICADB
  70
0
  40
0
  41
1
  42
1
  50
0
  71
0
  3
isocp.shx
  0
STYLE
  2
KICADI
  70
0
  40
0
  41
1
  42
1
  50
15
  71
0
  3
isocp.shx
  0
STYLE
  2
KICADBI
  70
0
  40
0
  41
1
  42
1
  50
15
  71
0
  3
isocp.shx
  0
ENDTAB
  0
TABLE
  2
LAYER
  70
1
  0
LAYER
  2
BLACK
  70
0
  62
7
  6
CONTINUOUS
  0
ENDTAB
  0
ENDSEC
  0
SECTION
  2
ENTITIES
0
LINE
8
BLACK
6
CONTINUOUS
10
132.701
20
-107.84
11
132.766
21
-107.883
0
LINE
8
BLACK
6
CONTINUOUS
10
132.766
20
-107.883
11
132.81
21
-107.948
0
LINE
8
BLACK
6
CONTINUOUS
10
132.81
20
-107.948
11
132.825
21
-108.024
0
LINE
8
BLACK
6
CONTINUOUS
10
132.825
20
-108.024
11
132.825
21
-108.424
0
LINE
8
BLACK
6
CONTINUOUS
10
132.825
20
-108.424
11
132.81
21
-108.501
0
LINE
8
BLACK
6
CONTINUOUS
10
132.81
20
-108.501
11
132.766
21
-108.566
0
LINE
8
BLACK
6
CONTINUOUS
10
132.766
20
-108.566
11
132.701
21
-108.609
0
LINE
8
BLACK
6
CONTINUOUS
10
132.701
20
-108.609
11
132.625
21
-108.624
0
LINE
8
BLACK
6
CONTINUOUS
10
132.625
20
-108.624
11
132.075
21
-108.624
0
LINE
8
BLACK
6
CONTINUOUS
10
132.075
20
-108.624
11
131.998
21
-108.609
0
LINE
8
BLACK
6
CONTINUOUS
10
131.998
20
-108.609
11
131.933
21
-108.566
0
LINE
8
BLACK
6
CONTINUOUS
10
131.933
20
-108.566
11
131.89
21
-108.501
0
LINE
8
BLACK
6
CONTINUOUS
10
131.89
20
-108.501
11
131.875
21
-108.424
0
LINE
8
BLACK
6
CONTINUOUS
10
131.875
20
-108.424
11
131.875
21
-108.024
0
LINE
8
BLACK
6
CONTINUOUS
10
131.875
20
-108.024
11
131.89
21
-107.948
0
LINE
8
BLACK
6
CONTINUOUS
10
131.89
20
-107.948
11
131.933
21
-107.883
0
LINE
8
BLACK
6
CONTINUOUS
10
131.933
20
-107.883
11
131.998
21
-107.84
0
LINE
8
BLACK
6
CONTINUOUS
10
131.998
20
-107.84
11
132.075
21
-107.824
0
LINE
8
BLACK
6
CONTINUOUS
10
132.075
20
-107.824
11
132.625
21
-107.824
0
LINE
8
BLACK
6
CONTINUOUS
10
132.625
20
-107.824
11
132.701
21
-107.84
0
LINE
8
BLACK
6
CONTINUOUS
10
130.667
20
-107.707
11
130.738
21
-107.754
0
LINE
8
BLACK
6
CONTINUOUS
10
130.738
20
-107.754
11
130.785
21
-107.825
0
LINE
8
BLACK
6
CONTINUOUS
10
130.785
20
-107.825
11
130.802
21
-107.909
0
LINE
8
BLACK
6
CONTINUOUS
10
130.802
20
-107.909
11
130.802
21
-108.346
0
LINE
8
BLACK
6
CONTINUOUS
10
130.802
20
-108.346
11
130.785
21
-108.43
0
LINE
8
BLACK
6
CONTINUOUS
10
130.785
20
-108.43
11
130.738
21
-108.501
0
LINE
8
BLACK
6
CONTINUOUS
10
130.738
20
-108.501
11
130.667
21
-108.549
0
LINE
8
BLACK
6
CONTINUOUS
10
130.667
20
-108.549
11
130.583
21
-108.565
0
LINE
8
BLACK
6
CONTINUOUS
10
130.583
20
-108.565
11
130.071
21
-108.565
0
LINE
8
BLACK
6
CONTINUOUS
10
130.071
20
-108.565
11
129.987
21
-108.549
0
LINE
8
BLACK
6
CONTINUOUS
10
129.987
20
-108.549
11
129.916
21
-108.501
0
LINE
8
BLACK
6
CONTINUOUS
10
129.916
20
-108.501
11
129.868
21
-108.43
0
LINE
8
BLACK
6
CONTINUOUS
10
129.868
20
-108.43
11
129.852
21
-108.346
0
LINE
8
BLACK
6
CONTINUOUS
10
129.852
20
-108.346
11
129.852
21
-107.909
0
LINE
8
BLACK
6
CONTINUOUS
10
129.852
20
-107.909
11
129.868
21
-107.825
0
LINE
8
BLACK
6
CONTINUOUS
10
129.868
20
-107.825
11
129.916
21
-107.754
0
LINE
8
BLACK
6
CONTINUOUS
10
129.916
20
-107.754
11
129.987
21
-107.707
0
LINE
8
BLACK
6
CONTINUOUS
10
129.987
20
-107.707
11
130.071
21
-107.69
0
LINE
8
BLACK
6
CONTINUOUS
10
130.071
20
-107.69
11
130.583
21
-107.69
0
LINE
8
BLACK
6
CONTINUOUS
10
130.583
20
-107.69
11
130.667
21
-107.707
0
LINE
8
BLACK
6
CONTINUOUS
10
130.667
20
-106.132
11
130.738
21
-106.179
0
LINE
8
BLACK
6
CONTINUOUS
10
130.738
20
-106.179
11
130.785
21
-106.25
0
LINE
8
BLACK
6
CONTINUOUS
10
130.785
20
-106.25
11
130.802
21
-106.334
0
LINE
8
BLACK
6
CONTINUOUS
10
130.802
20
-106.334
11
130.802
21
-106.771
0
LINE
8
BLACK
6
CONTINUOUS
10
130.802
20
-106.771
11
130.785
21
-106.855
0
LINE
8
BLACK
6
CONTINUOUS
10
130.785
20
-106.855
11
130.738
21
-106.926
0
LINE
8
BLACK
6
CONTINUOUS
10
130.738
20
-106.926
11
130.667
21
-106.974
0
LINE
8
BLACK
6
CONTINUOUS
10
130.667
20
-106.974
11
130.583
21
-106.99
0
LINE
8
BLACK
6
CONTINUOUS
10
130.583
20
-106.99
11
130.071
21
-106.99
0
LINE
8
BLACK
6
CONTINUOUS
10
130.071
20
-106.99
11
129.987
21
-106.974
0
LINE
8
BLACK
6
CONTINUOUS
10
129.987
20
-106.974
11
129.916
21
-106.926
0
LINE
8
BLACK
6
CONTINUOUS
10
129.916
20
-106.926
11
129.868
21
-106.855
0
LINE
8
BLACK
6
CONTINUOUS
10
129.868
20
-106.855
11
129.852
21
-106.771
0
LINE
8
BLACK
6
CONTINUOUS
10
129.852
20
-106.771
11
129.852
21
-106.334
0
LINE
8
BLACK
6
CONTINUOUS
10
129.852
20
-106.334
11
129.868
21
-106.25
0
LINE
8
BLACK
6
CONTINUOUS
10
129.868
20
-106.25
11
129.916
21
-106.179
0
LINE
8
BLACK
6
CONTINUOUS
10
129.916
20
-106.179
11
129.987
21
-106.132
0
LINE
8
BLACK
6
CONTINUOUS
10
129.987
20
-106.132
11
130.071
21
-106.115
0
LINE
8
BLACK
6
CONTINUOUS
10
130.071
20
-106.115
11
130.583
21
-106.115
0
LINE
8
BLACK
6
CONTINUOUS
10
130.583
20
-106.115
11
130.667
21
-106.132
0
LINE
8
BLACK
6
CONTINUOUS
10
132.701
20
-106.19
11
132.766
21
-106.233
0
LINE
8
BLACK
6
CONTINUOUS
10
132.766
20
-106.233
11
132.81
21
-106.298
0
LINE
8
BLACK
6
CONTINUOUS
10
132.81
20
-106.298
11
132.825
21
-106.374
0
LINE
8
BLACK
6
CONTINUOUS
10
132.825
20
-106.374
11
132.825
21
-106.774
0
LINE
8
BLACK
6
CONTINUOUS
10
132.825
20
-106.774
11
132.81
21
-106.851
0
LINE
8
BLACK
6
CONTINUOUS
10
132.81
20
-106.851
11
132.766
21
-106.916
0
LINE
8
BLACK
6
CONTINUOUS
10
132.766
20
-106.916
11
132.701
21
-106.959
0
LINE
8
BLACK
6
CONTINUOUS
10
132.701
20
-106.959
11
132.625
21
-106.974
0
LINE
8
BLACK
6
CONTINUOUS
10
132.625
20
-106.974
11
132.075
21
-106.974
0
LINE
8
BLACK
6
CONTINUOUS
10
132.075
20
-106.974
11
131.998
21
-106.959
0
LINE
8
BLACK
6
CONTINUOUS
10
131.998
20
-106.959
11
131.933
21
-106.916
0
LINE
8
BLACK
6
CONTINUOUS
10
131.933
20
-106.916
11
131.89
21
-106.851
0
LINE
8
BLACK
6
CONTINUOUS
10
131.89
20
-106.851
11
131.875
21
-106.774
0
LINE
8
BLACK
6
CONTINUOUS
10
131.875
20
-106.774
11
131.875
21
-106.374
0
LINE
8
BLACK
6
CONTINUOUS
10
131.875
20
-106.374
11
131.89
21
-106.298
0
LINE
8
BLACK
6
CONTINUOUS
10
131.89
20
-106.298
11
131.933
21
-106.233
0
LINE
8
BLACK
6
CONTINUOUS
10
131.933
20
-106.233
11
131.998
21
-106.19
0
LINE
8
BLACK
6
CONTINUOUS
10
131.998
20
-106.19
11
132.075
21
-106.174
0
LINE
8
BLACK
6
CONTINUOUS
10
132.075
20
-106.174
11
132.625
21
-106.174
0
LINE
8
BLACK
6
CONTINUOUS
10
132.625
20
-106.174
11
132.701
21
-106.19
0
LINE
8
BLACK
6
CONTINUOUS
10
140.574
20
-105.311
11
140.619
21
-105.341
0
LINE
8
BLACK
6
CONTINUOUS
10
140.619
20
-105.341
11
140.649
21
-105.386
0
LINE
8
BLACK
6
CONTINUOUS
10
140.649
20
-105.386
11
140.66
21
-105.44
0
LINE
8
BLACK
6
CONTINUOUS
10
140.66
20
-105.44
11
140.66
21
-105.72
0
LINE
8
BLACK
6
CONTINUOUS
10
140.66
20
-105.72
11
140.649
21
-105.774
0
LINE
8
BLACK
6
CONTINUOUS
10
140.649
20
-105.774
11
140.619
21
-105.819
0
LINE
8
BLACK
6
CONTINUOUS
10
140.619
20
-105.819
11
140.574
21
-105.849
0
LINE
8
BLACK
6
CONTINUOUS
10
140.574
20
-105.849
11
140.52
21
-105.86
0
LINE
8
BLACK
6
CONTINUOUS
10
140.52
20
-105.86
11
140.18
21
-105.86
0
LINE
8
BLACK
6
CONTINUOUS
10
140.18
20
-105.86
11
140.126
21
-105.849
0
LINE
8
BLACK
6
CONTINUOUS
10
140.126
20
-105.849
11
140.081
21
-105.819
0
LINE
8
BLACK
6
CONTINUOUS
10
140.081
20
-105.819
11
140.051
21
-105.774
0
LINE
8
BLACK
6
CONTINUOUS
10
140.051
20
-105.774
11
140.04
21
-105.72
0
LINE
8
BLACK
6
CONTINUOUS
10
140.04
20
-105.72
11
140.04
21
-105.44
0
LINE
8
BLACK
6
CONTINUOUS
10
140.04
20
-105.44
11
140.051
21
-105.386
0
LINE
8
BLACK
6
CONTINUOUS
10
140.051
20
-105.386
11
140.081
21
-105.341
0
LINE
8
BLACK
6
CONTINUOUS
10
140.081
20
-105.341
11
140.126
21
-105.311
0
LINE
8
BLACK
6
CONTINUOUS
10
140.126
20
-105.311
11
140.18
21
-105.3
0
LINE
8
BLACK
6
CONTINUOUS
10
140.18
20
-105.3
11
140.52
21
-105.3
0
LINE
8
BLACK
6
CONTINUOUS
10
140.52
20
-105.3
11
140.574
21
-105.311
0
LINE
8
BLACK
6
CONTINUOUS
10
140.574
20
-104.351
11
140.619
21
-104.381
0
LINE
8
BLACK
6
CONTINUOUS
10
140.619
20
-104.381
11
140.649
21
-104.426
0
LINE
8
BLACK
6
CONTINUOUS
10
140.649
20
-104.426
11
140.66
21
-104.48
0
LINE
8
BLACK
6
CONTINUOUS
10
140.66
20
-104.48
11
140.66
21
-104.76
0
LINE
8
BLACK
6
CONTINUOUS
10
140.66
20
-104.76
11
140.649
21
-104.814
0
LINE
8
BLACK
6
CONTINUOUS
10
140.649
20
-104.814
11
140.619
21
-104.859
0
LINE
8
BLACK
6
CONTINUOUS
10
140.619
20
-104.859
11
140.574
21
-104.889
0
LINE
8
BLACK
6
CONTINUOUS
10
140.574
20
-104.889
11
140.52
21
-104.9
0
LINE
8
BLACK
6
CONTINUOUS
10
140.52
20
-104.9
11
140.18
21
-104.9
0
LINE
8
BLACK
6
CONTINUOUS
10
140.18
20
-104.9
11
140.126
21
-104.889
0
LINE
8
BLACK
6
CONTINUOUS
10
140.126
20
-104.889
11
140.081
21
-104.859
0
LINE
8
BLACK
6
CONTINUOUS
10
140.081
20
-104.859
11
140.051
21
-104.814
0
LINE
8
BLACK
6
CONTINUOUS
10
140.051
20
-104.814
11
140.04
21
-104.76
0
LINE
8
BLACK
6
CONTINUOUS
10
140.04
20
-104.76
11
140.04
21
-104.48
0
LINE
8
BLACK
6
CONTINUOUS
10
140.04
20
-104.48
11
140.051
21
-104.426
0
LINE
8
BLACK
6
CONTINUOUS
10
140.051
20
-104.426
11
140.081
21
-104.381
0
LINE
8
BLACK
6
CONTINUOUS
10
140.081
20
-104.381
11
140.126
21
-104.351
0
LINE
8
BLACK
6
CONTINUOUS
10
140.126
20
-104.351
11
140.18
21
-104.34
0
LINE
8
BLACK
6
CONTINUOUS
10
140.18
20
-104.34
11
140.52
21
-104.34
0
LINE
8
BLACK
6
CONTINUOUS
10
140.52
20
-104.34
11
140.574
21
-104.351
0
LINE
8
BLACK
6
CONTINUOUS
10
140.574
20
-103.211
11
140.619
21
-103.241
0
LINE
8
BLACK
6
CONTINUOUS
10
140.619
20
-103.241
11
140.649
21
-103.286
0
LINE
8
BLACK
6
CONTINUOUS
10
140.649
20
-103.286
11
140.66
21
-103.34
0
LINE
8
BLACK
6
CONTINUOUS
10
140.66
20
-103.34
11
140.66
21
-103.62
0
LINE
8
BLACK
6
CONTINUOUS
10
140.66
20
-103.62
11
140.649
21
-103.674
0
LINE
8
BLACK
6
CONTINUOUS
10
140.649
20
-103.674
11
140.619
21
-103.719
0
LINE
8
BLACK
6
CONTINUOUS
10
140.619
20
-103.719
11
140.574
21
-103.749
0
LINE
8
BLACK
6
CONTINUOUS
10
140.574
20
-103.749
11
140.52
21
-103.76
0
LINE
8
BLACK
6
CONTINUOUS
10
140.52
20
-103.76
11
140.18
21
-103.76
0
LINE
8
BLACK
6
CONTINUOUS
10
140.18
20
-103.76
11
140.126
21
-103.749
0
LINE
8
BLACK
6
CONTINUOUS
10
140.126
20
-103.749
11
140.081
21
-103.719
0
LINE
8
BLACK
6
CONTINUOUS
10
140.081
20
-103.719
11
140.051
21
-103.674
0
LINE
8
BLACK
6
CONTINUOUS
10
140.051
20
-103.674
11
140.04
21
-103.62
0
LINE
8
BLACK
6
CONTINUOUS
10
140.04
20
-103.62
11
140.04
21
-103.34
0
LINE
8
BLACK
6
CONTINUOUS
10
140.04
20
-103.34
11
140.051
21
-103.286
0
LINE
8
BLACK
6
CONTINUOUS
10
140.051
20
-103.286
11
140.081
21
-103.241
0
LINE
8
BLACK
6
CONTINUOUS
10
140.081
20
-103.241
11
140.126
21
-103.211
0
LINE
8
BLACK
6
CONTINUOUS
10
140.126
20
-103.211
11
140.18
21
-103.2
0
LINE
8
BLACK
6
CONTINUOUS
10
140.18
20
-103.2
11
140.52
21
-103.2
0
LINE
8
BLACK
6
CONTINUOUS
10
140.52
20
-103.2
11
140.574
21
-103.211
0
LINE
8
BLACK
6
CONTINUOUS
10
136.285
20
-103.714
11
133.885
21
-103.714
0
LINE
8
BLACK
6
CONTINUOUS
10
133.885
20
-103.714
11
133.885
21
-101.714
0
LINE
8
BLACK
6
CONTINUOUS
10
133.885
20
-101.714
11
136.285
21
-101.714
0
LINE
8
BLACK
6
CONTINUOUS
10
136.285
20
-101.714
11
136.285
21
-103.714
0
LINE
8
BLACK
6
CONTINUOUS
10
132.484
20
-102.511
11
132.529
21
-102.541
0
LINE
8
BLACK
6
CONTINUOUS
10
132.529
20
-102.541
11
132.559
21
-102.586
0
LINE
8
BLACK
6
CONTINUOUS
10
132.559
20
-102.586
11
132.57
21
-102.64
0
LINE
8
BLACK
6
CONTINUOUS
10
132.57
20
-102.64
11
132.57
21
-102.92
0
LINE
8
BLACK
6
CONTINUOUS
10
132.57
20
-102.92
11
132.559
21
-102.974
0
LINE
8
BLACK
6
CONTINUOUS
10
132.559
20
-102.974
11
132.529
21
-103.019
0
LINE
8
BLACK
6
CONTINUOUS
10
132.529
20
-103.019
11
132.484
21
-103.049
0
LINE
8
BLACK
6
CONTINUOUS
10
132.484
20
-103.049
11
132.43
21
-103.06
0
LINE
8
BLACK
6
CONTINUOUS
10
132.43
20
-103.06
11
132.09
21
-103.06
0
LINE
8
BLACK
6
CONTINUOUS
10
132.09
20
-103.06
11
132.036
21
-103.049
0
LINE
8
BLACK
6
CONTINUOUS
10
132.036
20
-103.049
11
131.991
21
-103.019
0
LINE
8
BLACK
6
CONTINUOUS
10
131.991
20
-103.019
11
131.961
21
-102.974
0
LINE
8
BLACK
6
CONTINUOUS
10
131.961
20
-102.974
11
131.95
21
-102.92
0
LINE
8
BLACK
6
CONTINUOUS
10
131.95
20
-102.92
11
131.95
21
-102.64
0
LINE
8
BLACK
6
CONTINUOUS
10
131.95
20
-102.64
11
131.961
21
-102.586
0
LINE
8
BLACK
6
CONTINUOUS
10
131.961
20
-102.586
11
131.991
21
-102.541
0
LINE
8
BLACK
6
CONTINUOUS
10
131.991
20
-102.541
11
132.036
21
-102.511
0
LINE
8
BLACK
6
CONTINUOUS
10
132.036
20
-102.511
11
132.09
21
-102.5
0
LINE
8
BLACK
6
CONTINUOUS
10
132.09
20
-102.5
11
132.43
21
-102.5
0
LINE
8
BLACK
6
CONTINUOUS
10
132.43
20
-102.5
11
132.484
21
-102.511
0
LINE
8
BLACK
6
CONTINUOUS
10
140.574
20
-102.251
11
140.619
21
-102.281
0
LINE
8
BLACK
6
CONTINUOUS
10
140.619
20
-102.281
11
140.649
21
-102.326
0
LINE
8
BLACK
6
CONTINUOUS
10
140.649
20
-102.326
11
140.66
21
-102.38
0
LINE
8
BLACK
6
CONTINUOUS
10
140.66
20
-102.38
11
140.66
21
-102.66
0
LINE
8
BLACK
6
CONTINUOUS
10
140.66
20
-102.66
11
140.649
21
-102.714
0
LINE
8
BLACK
6
CONTINUOUS
10
140.649
20
-102.714
11
140.619
21
-102.759
0
LINE
8
BLACK
6
CONTINUOUS
10
140.619
20
-102.759
11
140.574
21
-102.789
0
LINE
8
BLACK
6
CONTINUOUS
10
140.574
20
-102.789
11
140.52
21
-102.8
0
LINE
8
BLACK
6
CONTINUOUS
10
140.52
20
-102.8
11
140.18
21
-102.8
0
LINE
8
BLACK
6
CONTINUOUS
10
140.18
20
-102.8
11
140.126
21
-102.789
0
LINE
8
BLACK
6
CONTINUOUS
10
140.126
20
-102.789
11
140.081
21
-102.759
0
LINE
8
BLACK
6
CONTINUOUS
10
140.081
20
-102.759
11
140.051
21
-102.714
0
LINE
8
BLACK
6
CONTINUOUS
10
140.051
20
-102.714
11
140.04
21
-102.66
0
LINE
8
BLACK
6
CONTINUOUS
10
140.04
20
-102.66
11
140.04
21
-102.38
0
LINE
8
BLACK
6
CONTINUOUS
10
140.04
20
-102.38
11
140.051
21
-102.326
0
LINE
8
BLACK
6
CONTINUOUS
10
140.051
20
-102.326
11
140.081
21
-102.281
0
LINE
8
BLACK
6
CONTINUOUS
10
140.081
20
-102.281
11
140.126
21
-102.251
0
LINE
8
BLACK
6
CONTINUOUS
10
140.126
20
-102.251
11
140.18
21
-102.24
0
LINE
8
BLACK
6
CONTINUOUS
10
140.18
20
-102.24
11
140.52
21
-102.24
0
LINE
8
BLACK
6
CONTINUOUS
10
140.52
20
-102.24
11
140.574
21
-102.251
0
LINE
8
BLACK
6
CONTINUOUS
10
132.484
20
-101.551
11
132.529
21
-101.581
0
LINE
8
BLACK
6
CONTINUOUS
10
132.529
20
-101.581
11
132.559
21
-101.626
0
LINE
8
BLACK
6
CONTINUOUS
10
132.559
20
-101.626
11
132.57
21
-101.68
0
LINE
8
BLACK
6
CONTINUOUS
10
132.57
20
-101.68
11
132.57
21
-101.96
0
LINE
8
BLACK
6
CONTINUOUS
10
132.57
20
-101.96
11
132.559
21
-102.014
0
LINE
8
BLACK
6
CONTINUOUS
10
132.559
20
-102.014
11
132.529
21
-102.059
0
LINE
8
BLACK
6
CONTINUOUS
10
132.529
20
-102.059
11
132.484
21
-102.089
0
LINE
8
BLACK
6
CONTINUOUS
10
132.484
20
-102.089
11
132.43
21
-102.1
0
LINE
8
BLACK
6
CONTINUOUS
10
132.43
20
-102.1
11
132.09
21
-102.1
0
LINE
8
BLACK
6
CONTINUOUS
10
132.09
20
-102.1
11
132.036
21
-102.089
0
LINE
8
BLACK
6
CONTINUOUS
10
132.036
20
-102.089
11
131.991
21
-102.059
0
LINE
8
BLACK
6
CONTINUOUS
10
131.991
20
-102.059
11
131.961
21
-102.014
0
LINE
8
BLACK
6
CONTINUOUS
10
131.961
20
-102.014
11
131.95
21
-101.96
0
LINE
8
BLACK
6
CONTINUOUS
10
131.95
20
-101.96
11
131.95
21
-101.68
0
LINE
8
BLACK
6
CONTINUOUS
10
131.95
20
-101.68
11
131.961
21
-101.626
0
LINE
8
BLACK
6
CONTINUOUS
10
131.961
20
-101.626
11
131.991
21
-101.581
0
LINE
8
BLACK
6
CONTINUOUS
10
131.991
20
-101.581
11
132.036
21
-101.551
0
LINE
8
BLACK
6
CONTINUOUS
10
132.036
20
-101.551
11
132.09
21
-101.54
0
LINE
8
BLACK
6
CONTINUOUS
10
132.09
20
-101.54
11
132.43
21
-101.54
0
LINE
8
BLACK
6
CONTINUOUS
10
132.43
20
-101.54
11
132.484
21
-101.551
0
LINE
8
BLACK
6
CONTINUOUS
10
140.145
20
-100.31
11
139.595
21
-100.31
0
LINE
8
BLACK
6
CONTINUOUS
10
139.595
20
-100.31
11
139.595
21
-98.71
0
LINE
8
BLACK
6
CONTINUOUS
10
139.595
20
-98.71
11
140.145
21
-98.71
0
LINE
8
BLACK
6
CONTINUOUS
10
140.145
20
-98.71
11
140.145
21
-100.31
0
LINE
8
BLACK
6
CONTINUOUS
10
140.945
20
-100.31
11
140.395
21
-100.31
0
LINE
8
BLACK
6
CONTINUOUS
10
140.395
20
-100.31
11
140.395
21
-98.71
0
LINE
8
BLACK
6
CONTINUOUS
10
140.395
20
-98.71
11
140.945
21
-98.71
0
LINE
8
BLACK
6
CONTINUOUS
10
140.945
20
-98.71
11
140.945
21
-100.31
0
LINE
8
BLACK
6
CONTINUOUS
10
141.745
20
-100.31
11
141.195
21
-100.31
0
LINE
8
BLACK
6
CONTINUOUS
10
141.195
20
-100.31
11
141.195
21
-98.71
0
LINE
8
BLACK
6
CONTINUOUS
10
141.195
20
-98.71
11
141.745
21
-98.71
0
LINE
8
BLACK
6
CONTINUOUS
10
141.745
20
-98.71
11
141.745
21
-100.31
0
LINE
8
BLACK
6
CONTINUOUS
10
142.545
20
-100.31
11
141.995
21
-100.31
0
LINE
8
BLACK
6
CONTINUOUS
10
141.995
20
-100.31
11
141.995
21
-98.71
0
LINE
8
BLACK
6
CONTINUOUS
10
141.995
20
-98.71
11
142.545
21
-98.71
0
LINE
8
BLACK
6
CONTINUOUS
10
142.545
20
-98.71
11
142.545
21
-100.31
0
LINE
8
BLACK
6
CONTINUOUS
10
143.345
20
-100.31
11
142.795
21
-100.31
0
LINE
8
BLACK
6
CONTINUOUS
10
142.795
20
-100.31
11
142.795
21
-98.71
0
LINE
8
BLACK
6
CONTINUOUS
10
142.795
20
-98.71
11
143.345
21
-98.71
0
LINE
8
BLACK
6
CONTINUOUS
10
143.345
20
-98.71
11
143.345
21
-100.31
0
LINE
8
BLACK
6
CONTINUOUS
10
144.145
20
-100.31
11
143.595
21
-100.31
0
LINE
8
BLACK
6
CONTINUOUS
10
143.595
20
-100.31
11
143.595
21
-98.71
0
LINE
8
BLACK
6
CONTINUOUS
10
143.595
20
-98.71
11
144.145
21
-98.71
0
LINE
8
BLACK
6
CONTINUOUS
10
144.145
20
-98.71
11
144.145
21
-100.31
0
LINE
8
BLACK
6
CONTINUOUS
10
144.945
20
-100.31
11
144.395
21
-100.31
0
LINE
8
BLACK
6
CONTINUOUS
10
144.395
20
-100.31
11
144.395
21
-98.71
0
LINE
8
BLACK
6
CONTINUOUS
10
144.395
20
-98.71
11
144.945
21
-98.71
0
LINE
8
BLACK
6
CONTINUOUS
10
144.945
20
-98.71
11
144.945
21
-100.31
0
LINE
8
BLACK
6
CONTINUOUS
10
145.745
20
-100.31
11
145.195
21
-100.31
0
LINE
8
BLACK
6
CONTINUOUS
10
145.195
20
-100.31
11
145.195
21
-98.71
0
LINE
8
BLACK
6
CONTINUOUS
10
145.195
20
-98.71
11
145.745
21
-98.71
0
LINE
8
BLACK
6
CONTINUOUS
10
145.745
20
-98.71
11
145.745
21
-100.31
0
LINE
8
BLACK
6
CONTINUOUS
10
136.285
20
-100.014
11
133.885
21
-100.014
0
LINE
8
BLACK
6
CONTINUOUS
10
133.885
20
-100.014
11
133.885
21
-98.0144
0
LINE
8
BLACK
6
CONTINUOUS
10
133.885
20
-98.0144
11
136.285
21
-98.0144
0
LINE
8
BLACK
6
CONTINUOUS
10
136.285
20
-98.0144
11
136.285
21
-100.014
0
LINE
8
BLACK
6
CONTINUOUS
10
152.677
20
-98.7402
11
152.741
21
-98.7836
0
LINE
8
BLACK
6
CONTINUOUS
10
152.741
20
-98.7836
11
152.785
21
-98.8485
0
LINE
8
BLACK
6
CONTINUOUS
10
152.785
20
-98.8485
11
152.8
21
-98.925
0
LINE
8
BLACK
6
CONTINUOUS
10
152.8
20
-98.925
11
152.8
21
-99.475
0
LINE
8
BLACK
6
CONTINUOUS
10
152.8
20
-99.475
11
152.785
21
-99.5515
0
LINE
8
BLACK
6
CONTINUOUS
10
152.785
20
-99.5515
11
152.741
21
-99.6164
0
LINE
8
BLACK
6
CONTINUOUS
10
152.741
20
-99.6164
11
152.677
21
-99.6598
0
LINE
8
BLACK
6
CONTINUOUS
10
152.677
20
-99.6598
11
152.6
21
-99.675
0
LINE
8
BLACK
6
CONTINUOUS
10
152.6
20
-99.675
11
152.2
21
-99.675
0
LINE
8
BLACK
6
CONTINUOUS
10
152.2
20
-99.675
11
152.123
21
-99.6598
0
LINE
8
BLACK
6
CONTINUOUS
10
152.123
20
-99.6598
11
152.059
21
-99.6164
0
LINE
8
BLACK
6
CONTINUOUS
10
152.059
20
-99.6164
11
152.015
21
-99.5515
0
LINE
8
BLACK
6
CONTINUOUS
10
152.015
20
-99.5515
11
152
21
-99.475
0
LINE
8
BLACK
6
CONTINUOUS
10
152
20
-99.475
11
152
21
-98.925
0
LINE
8
BLACK
6
CONTINUOUS
10
152
20
-98.925
11
152.015
21
-98.8485
0
LINE
8
BLACK
6
CONTINUOUS
10
152.015
20
-98.8485
11
152.059
21
-98.7836
0
LINE
8
BLACK
6
CONTINUOUS
10
152.059
20
-98.7836
11
152.123
21
-98.7402
0
LINE
8
BLACK
6
CONTINUOUS
10
152.123
20
-98.7402
11
152.2
21
-98.725
0
LINE
8
BLACK
6
CONTINUOUS
10
152.2
20
-98.725
11
152.6
21
-98.725
0
LINE
8
BLACK
6
CONTINUOUS
10
152.6
20
-98.725
11
152.677
21
-98.7402
0
LINE
8
BLACK
6
CONTINUOUS
10
151.027
20
-98.7402
11
151.091
21
-98.7836
0
LINE
8
BLACK
6
CONTINUOUS
10
151.091
20
-98.7836
11
151.135
21
-98.8485
0
LINE
8
BLACK
6
CONTINUOUS
10
151.135
20
-98.8485
11
151.15
21
-98.925
0
LINE
8
BLACK
6
CONTINUOUS
10
151.15
20
-98.925
11
151.15
21
-99.475
0
LINE
8
BLACK
6
CONTINUOUS
10
151.15
20
-99.475
11
151.135
21
-99.5515
0
LINE
8
BLACK
6
CONTINUOUS
10
151.135
20
-99.5515
11
151.091
21
-99.6164
0
LINE
8
BLACK
6
CONTINUOUS
10
151.091
20
-99.6164
11
151.027
21
-99.6598
0
LINE
8
BLACK
6
CONTINUOUS
10
151.027
20
-99.6598
11
150.95
21
-99.675
0
LINE
8
BLACK
6
CONTINUOUS
10
150.95
20
-99.675
11
150.55
21
-99.675
0
LINE
8
BLACK
6
CONTINUOUS
10
150.55
20
-99.675
11
150.473
21
-99.6598
0
LINE
8
BLACK
6
CONTINUOUS
10
150.473
20
-99.6598
11
150.409
21
-99.6164
0
LINE
8
BLACK
6
CONTINUOUS
10
150.409
20
-99.6164
11
150.365
21
-99.5515
0
LINE
8
BLACK
6
CONTINUOUS
10
150.365
20
-99.5515
11
150.35
21
-99.475
0
LINE
8
BLACK
6
CONTINUOUS
10
150.35
20
-99.475
11
150.35
21
-98.925
0
LINE
8
BLACK
6
CONTINUOUS
10
150.35
20
-98.925
11
150.365
21
-98.8485
0
LINE
8
BLACK
6
CONTINUOUS
10
150.365
20
-98.8485
11
150.409
21
-98.7836
0
LINE
8
BLACK
6
CONTINUOUS
10
150.409
20
-98.7836
11
150.473
21
-98.7402
0
LINE
8
BLACK
6
CONTINUOUS
10
150.473
20
-98.7402
11
150.55
21
-98.725
0
LINE
8
BLACK
6
CONTINUOUS
10
150.55
20
-98.725
11
150.95
21
-98.725
0
LINE
8
BLACK
6
CONTINUOUS
10
150.95
20
-98.725
11
151.027
21
-98.7402
0
LINE
8
BLACK
6
CONTINUOUS
10
132.558
20
-98.8101
11
132.604
21
-98.8404
0
LINE
8
BLACK
6
CONTINUOUS
10
132.604
20
-98.8404
11
132.634
21
-98.8858
0
LINE
8
BLACK
6
CONTINUOUS
10
132.634
20
-98.8858
11
132.645
21
-98.9394
0
LINE
8
BLACK
6
CONTINUOUS
10
132.645
20
-98.9394
11
132.645
21
-99.2194
0
LINE
8
BLACK
6
CONTINUOUS
10
132.645
20
-99.2194
11
132.634
21
-99.273
0
LINE
8
BLACK
6
CONTINUOUS
10
132.634
20
-99.273
11
132.604
21
-99.3184
0
LINE
8
BLACK
6
CONTINUOUS
10
132.604
20
-99.3184
11
132.558
21
-99.3487
0
LINE
8
BLACK
6
CONTINUOUS
10
132.558
20
-99.3487
11
132.505
21
-99.3594
0
LINE
8
BLACK
6
CONTINUOUS
10
132.505
20
-99.3594
11
132.165
21
-99.3594
0
LINE
8
BLACK
6
CONTINUOUS
10
132.165
20
-99.3594
11
132.111
21
-99.3487
0
LINE
8
BLACK
6
CONTINUOUS
10
132.111
20
-99.3487
11
132.066
21
-99.3184
0
LINE
8
BLACK
6
CONTINUOUS
10
132.066
20
-99.3184
11
132.035
21
-99.273
0
LINE
8
BLACK
6
CONTINUOUS
10
132.035
20
-99.273
11
132.025
21
-99.2194
0
LINE
8
BLACK
6
CONTINUOUS
10
132.025
20
-99.2194
11
132.025
21
-98.9394
0
LINE
8
BLACK
6
CONTINUOUS
10
132.025
20
-98.9394
11
132.035
21
-98.8858
0
LINE
8
BLACK
6
CONTINUOUS
10
132.035
20
-98.8858
11
132.066
21
-98.8404
0
LINE
8
BLACK
6
CONTINUOUS
10
132.066
20
-98.8404
11
132.111
21
-98.8101
0
LINE
8
BLACK
6
CONTINUOUS
10
132.111
20
-98.8101
11
132.165
21
-98.7994
0
LINE
8
BLACK
6
CONTINUOUS
10
132.165
20
-98.7994
11
132.505
21
-98.7994
0
LINE
8
BLACK
6
CONTINUOUS
10
132.505
20
-98.7994
11
132.558
21
-98.8101
0
LINE
8
BLACK
6
CONTINUOUS
10
148.814
20
-98.0007
11
148.859
21
-98.031
0
LINE
8
BLACK
6
CONTINUOUS
10
148.859
20
-98.031
11
148.889
21
-98.0764
0
LINE
8
BLACK
6
CONTINUOUS
10
148.889
20
-98.0764
11
148.9
21
-98.13
0
LINE
8
BLACK
6
CONTINUOUS
10
148.9
20
-98.13
11
148.9
21
-98.41
0
LINE
8
BLACK
6
CONTINUOUS
10
148.9
20
-98.41
11
148.889
21
-98.4636
0
LINE
8
BLACK
6
CONTINUOUS
10
148.889
20
-98.4636
11
148.859
21
-98.509
0
LINE
8
BLACK
6
CONTINUOUS
10
148.859
20
-98.509
11
148.814
21
-98.5393
0
LINE
8
BLACK
6
CONTINUOUS
10
148.814
20
-98.5393
11
148.76
21
-98.55
0
LINE
8
BLACK
6
CONTINUOUS
10
148.76
20
-98.55
11
148.42
21
-98.55
0
LINE
8
BLACK
6
CONTINUOUS
10
148.42
20
-98.55
11
148.366
21
-98.5393
0
LINE
8
BLACK
6
CONTINUOUS
10
148.366
20
-98.5393
11
148.321
21
-98.509
0
LINE
8
BLACK
6
CONTINUOUS
10
148.321
20
-98.509
11
148.291
21
-98.4636
0
LINE
8
BLACK
6
CONTINUOUS
10
148.291
20
-98.4636
11
148.28
21
-98.41
0
LINE
8
BLACK
6
CONTINUOUS
10
148.28
20
-98.41
11
148.28
21
-98.13
0
LINE
8
BLACK
6
CONTINUOUS
10
148.28
20
-98.13
11
148.291
21
-98.0764
0
LINE
8
BLACK
6
CONTINUOUS
10
148.291
20
-98.0764
11
148.321
21
-98.031
0
LINE
8
BLACK
6
CONTINUOUS
10
148.321
20
-98.031
11
148.366
21
-98.0007
0
LINE
8
BLACK
6
CONTINUOUS
10
148.366
20
-98.0007
11
148.42
21
-97.99
0
LINE
8
BLACK
6
CONTINUOUS
10
148.42
20
-97.99
11
148.76
21
-97.99
0
LINE
8
BLACK
6
CONTINUOUS
10
148.76
20
-97.99
11
148.814
21
-98.0007
0
LINE
8
BLACK
6
CONTINUOUS
10
132.558
20
-97.8501
11
132.604
21
-97.8804
0
LINE
8
BLACK
6
CONTINUOUS
10
132.604
20
-97.8804
11
132.634
21
-97.9258
0
LINE
8
BLACK
6
CONTINUOUS
10
132.634
20
-97.9258
11
132.645
21
-97.9794
0
LINE
8
BLACK
6
CONTINUOUS
10
132.645
20
-97.9794
11
132.645
21
-98.2594
0
LINE
8
BLACK
6
CONTINUOUS
10
132.645
20
-98.2594
11
132.634
21
-98.313
0
LINE
8
BLACK
6
CONTINUOUS
10
132.634
20
-98.313
11
132.604
21
-98.3584
0
LINE
8
BLACK
6
CONTINUOUS
10
132.604
20
-98.3584
11
132.558
21
-98.3887
0
LINE
8
BLACK
6
CONTINUOUS
10
132.558
20
-98.3887
11
132.505
21
-98.3994
0
LINE
8
BLACK
6
CONTINUOUS
10
132.505
20
-98.3994
11
132.165
21
-98.3994
0
LINE
8
BLACK
6
CONTINUOUS
10
132.165
20
-98.3994
11
132.111
21
-98.3887
0
LINE
8
BLACK
6
CONTINUOUS
10
132.111
20
-98.3887
11
132.066
21
-98.3584
0
LINE
8
BLACK
6
CONTINUOUS
10
132.066
20
-98.3584
11
132.035
21
-98.313
0
LINE
8
BLACK
6
CONTINUOUS
10
132.035
20
-98.313
11
132.025
21
-98.2594
0
LINE
8
BLACK
6
CONTINUOUS
10
132.025
20
-98.2594
11
132.025
21
-97.9794
0
LINE
8
BLACK
6
CONTINUOUS
10
132.025
20
-97.9794
11
132.035
21
-97.9258
0
LINE
8
BLACK
6
CONTINUOUS
10
132.035
20
-97.9258
11
132.066
21
-97.8804
0
LINE
8
BLACK
6
CONTINUOUS
10
132.066
20
-97.8804
11
132.111
21
-97.8501
0
LINE
8
BLACK
6
CONTINUOUS
10
132.111
20
-97.8501
11
132.165
21
-97.8394
0
LINE
8
BLACK
6
CONTINUOUS
10
132.165
20
-97.8394
11
132.505
21
-97.8394
0
LINE
8
BLACK
6
CONTINUOUS
10
132.505
20
-97.8394
11
132.558
21
-97.8501
0
LINE
8
BLACK
6
CONTINUOUS
10
139.22
20
-98.335
11
137.62
21
-98.335
0
LINE
8
BLACK
6
CONTINUOUS
10
137.62
20
-98.335
11
137.62
21
-97.785
0
LINE
8
BLACK
6
CONTINUOUS
10
137.62
20
-97.785
11
139.22
21
-97.785
0
LINE
8
BLACK
6
CONTINUOUS
10
139.22
20
-97.785
11
139.22
21
-98.335
0
LINE
8
BLACK
6
CONTINUOUS
10
147.72
20
-98.335
11
146.12
21
-98.335
0
LINE
8
BLACK
6
CONTINUOUS
10
146.12
20
-98.335
11
146.12
21
-97.785
0
LINE
8
BLACK
6
CONTINUOUS
10
146.12
20
-97.785
11
147.72
21
-97.785
0
LINE
8
BLACK
6
CONTINUOUS
10
147.72
20
-97.785
11
147.72
21
-98.335
0
LINE
8
BLACK
6
CONTINUOUS
10
148.814
20
-97.0407
11
148.859
21
-97.071
0
LINE
8
BLACK
6
CONTINUOUS
10
148.859
20
-97.071
11
148.889
21
-97.1164
0
LINE
8
BLACK
6
CONTINUOUS
10
148.889
20
-97.1164
11
148.9
21
-97.17
0
LINE
8
BLACK
6
CONTINUOUS
10
148.9
20
-97.17
11
148.9
21
-97.45
0
LINE
8
BLACK
6
CONTINUOUS
10
148.9
20
-97.45
11
148.889
21
-97.5036
0
LINE
8
BLACK
6
CONTINUOUS
10
148.889
20
-97.5036
11
148.859
21
-97.549
0
LINE
8
BLACK
6
CONTINUOUS
10
148.859
20
-97.549
11
148.814
21
-97.5793
0
LINE
8
BLACK
6
CONTINUOUS
10
148.814
20
-97.5793
11
148.76
21
-97.59
0
LINE
8
BLACK
6
CONTINUOUS
10
148.76
20
-97.59
11
148.42
21
-97.59
0
LINE
8
BLACK
6
CONTINUOUS
10
148.42
20
-97.59
11
148.366
21
-97.5793
0
LINE
8
BLACK
6
CONTINUOUS
10
148.366
20
-97.5793
11
148.321
21
-97.549
0
LINE
8
BLACK
6
CONTINUOUS
10
148.321
20
-97.549
11
148.291
21
-97.5036
0
LINE
8
BLACK
6
CONTINUOUS
10
148.291
20
-97.5036
11
148.28
21
-97.45
0
LINE
8
BLACK
6
CONTINUOUS
10
148.28
20
-97.45
11
148.28
21
-97.17
0
LINE
8
BLACK
6
CONTINUOUS
10
148.28
20
-97.17
11
148.291
21
-97.1164
0
LINE
8
BLACK
6
CONTINUOUS
10
148.291
20
-97.1164
11
148.321
21
-97.071
0
LINE
8
BLACK
6
CONTINUOUS
10
148.321
20
-97.071
11
148.366
21
-97.0407
0
LINE
8
BLACK
6
CONTINUOUS
10
148.366
20
-97.0407
11
148.42
21
-97.03
0
LINE
8
BLACK
6
CONTINUOUS
10
148.42
20
-97.03
11
148.76
21
-97.03
0
LINE
8
BLACK
6
CONTINUOUS
10
148.76
20
-97.03
11
148.814
21
-97.0407
0
LINE
8
BLACK
6
CONTINUOUS
10
139.22
20
-97.535
11
137.62
21
-97.535
0
LINE
8
BLACK
6
CONTINUOUS
10
137.62
20
-97.535
11
137.62
21
-96.985
0
LINE
8
BLACK
6
CONTINUOUS
10
137.62
20
-96.985
11
139.22
21
-96.985
0
LINE
8
BLACK
6
CONTINUOUS
10
139.22
20
-96.985
11
139.22
21
-97.535
0
LINE
8
BLACK
6
CONTINUOUS
10
147.72
20
-97.535
11
146.12
21
-97.535
0
LINE
8
BLACK
6
CONTINUOUS
10
146.12
20
-97.535
11
146.12
21
-96.985
0
LINE
8
BLACK
6
CONTINUOUS
10
146.12
20
-96.985
11
147.72
21
-96.985
0
LINE
8
BLACK
6
CONTINUOUS
10
147.72
20
-96.985
11
147.72
21
-97.535
0
LINE
8
BLACK
6
CONTINUOUS
10
136.724
20
-96.2257
11
136.769
21
-96.256
0
LINE
8
BLACK
6
CONTINUOUS
10
136.769
20
-96.256
11
136.799
21
-96.3014
0
LINE
8
BLACK
6
CONTINUOUS
10
136.799
20
-96.3014
11
136.81
21
-96.355
0
LINE
8
BLACK
6
CONTINUOUS
10
136.81
20
-96.355
11
136.81
21
-96.695
0
LINE
8
BLACK
6
CONTINUOUS
10
136.81
20
-96.695
11
136.799
21
-96.7486
0
LINE
8
BLACK
6
CONTINUOUS
10
136.799
20
-96.7486
11
136.769
21
-96.794
0
LINE
8
BLACK
6
CONTINUOUS
10
136.769
20
-96.794
11
136.724
21
-96.8243
0
LINE
8
BLACK
6
CONTINUOUS
10
136.724
20
-96.8243
11
136.67
21
-96.835
0
LINE
8
BLACK
6
CONTINUOUS
10
136.67
20
-96.835
11
136.39
21
-96.835
0
LINE
8
BLACK
6
CONTINUOUS
10
136.39
20
-96.835
11
136.336
21
-96.8243
0
LINE
8
BLACK
6
CONTINUOUS
10
136.336
20
-96.8243
11
136.291
21
-96.794
0
LINE
8
BLACK
6
CONTINUOUS
10
136.291
20
-96.794
11
136.261
21
-96.7486
0
LINE
8
BLACK
6
CONTINUOUS
10
136.261
20
-96.7486
11
136.25
21
-96.695
0
LINE
8
BLACK
6
CONTINUOUS
10
136.25
20
-96.695
11
136.25
21
-96.355
0
LINE
8
BLACK
6
CONTINUOUS
10
136.25
20
-96.355
11
136.261
21
-96.3014
0
LINE
8
BLACK
6
CONTINUOUS
10
136.261
20
-96.3014
11
136.291
21
-96.256
0
LINE
8
BLACK
6
CONTINUOUS
10
136.291
20
-96.256
11
136.336
21
-96.2257
0
LINE
8
BLACK
6
CONTINUOUS
10
136.336
20
-96.2257
11
136.39
21
-96.215
0
LINE
8
BLACK
6
CONTINUOUS
10
136.39
20
-96.215
11
136.67
21
-96.215
0
LINE
8
BLACK
6
CONTINUOUS
10
136.67
20
-96.215
11
136.724
21
-96.2257
0
LINE
8
BLACK
6
CONTINUOUS
10
135.764
20
-96.2257
11
135.809
21
-96.256
0
LINE
8
BLACK
6
CONTINUOUS
10
135.809
20
-96.256
11
135.839
21
-96.3014
0
LINE
8
BLACK
6
CONTINUOUS
10
135.839
20
-96.3014
11
135.85
21
-96.355
0
LINE
8
BLACK
6
CONTINUOUS
10
135.85
20
-96.355
11
135.85
21
-96.695
0
LINE
8
BLACK
6
CONTINUOUS
10
135.85
20
-96.695
11
135.839
21
-96.7486
0
LINE
8
BLACK
6
CONTINUOUS
10
135.839
20
-96.7486
11
135.809
21
-96.794
0
LINE
8
BLACK
6
CONTINUOUS
10
135.809
20
-96.794
11
135.764
21
-96.8243
0
LINE
8
BLACK
6
CONTINUOUS
10
135.764
20
-96.8243
11
135.71
21
-96.835
0
LINE
8
BLACK
6
CONTINUOUS
10
135.71
20
-96.835
11
135.43
21
-96.835
0
LINE
8
BLACK
6
CONTINUOUS
10
135.43
20
-96.835
11
135.376
21
-96.8243
0
LINE
8
BLACK
6
CONTINUOUS
10
135.376
20
-96.8243
11
135.331
21
-96.794
0
LINE
8
BLACK
6
CONTINUOUS
10
135.331
20
-96.794
11
135.301
21
-96.7486
0
LINE
8
BLACK
6
CONTINUOUS
10
135.301
20
-96.7486
11
135.29
21
-96.695
0
LINE
8
BLACK
6
CONTINUOUS
10
135.29
20
-96.695
11
135.29
21
-96.355
0
LINE
8
BLACK
6
CONTINUOUS
10
135.29
20
-96.355
11
135.301
21
-96.3014
0
LINE
8
BLACK
6
CONTINUOUS
10
135.301
20
-96.3014
11
135.331
21
-96.256
0
LINE
8
BLACK
6
CONTINUOUS
10
135.331
20
-96.256
11
135.376
21
-96.2257
0
LINE
8
BLACK
6
CONTINUOUS
10
135.376
20
-96.2257
11
135.43
21
-96.215
0
LINE
8
BLACK
6
CONTINUOUS
10
135.43
20
-96.215
11
135.71
21
-96.215
0
LINE
8
BLACK
6
CONTINUOUS
10
135.71
20
-96.215
11
135.764
21
-96.2257
0
LINE
8
BLACK
6
CONTINUOUS
10
139.22
20
-96.735
11
137.62
21
-96.735
0
LINE
8
BLACK
6
CONTINUOUS
10
137.62
20
-96.735
11
137.62
21
-96.185
0
LINE
8
BLACK
6
CONTINUOUS
10
137.62
20
-96.185
11
139.22
21
-96.185
0
LINE
8
BLACK
6
CONTINUOUS
10
139.22
20
-96.185
11
139.22
21
-96.735
0
LINE
8
BLACK
6
CONTINUOUS
10
147.72
20
-96.735
11
146.12
21
-96.735
0
LINE
8
BLACK
6
CONTINUOUS
10
146.12
20
-96.735
11
146.12
21
-96.185
0
LINE
8
BLACK
6
CONTINUOUS
10
146.12
20
-96.185
11
147.72
21
-96.185
0
LINE
8
BLACK
6
CONTINUOUS
10
147.72
20
-96.185
11
147.72
21
-96.735
0
LINE
8
BLACK
6
CONTINUOUS
10
147.72
20
-95.935
11
146.12
21
-95.935
0
LINE
8
BLACK
6
CONTINUOUS
10
146.12
20
-95.935
11
146.12
21
-95.385
0
LINE
8
BLACK
6
CONTINUOUS
10
146.12
20
-95.385
11
147.72
21
-95.385
0
LINE
8
BLACK
6
CONTINUOUS
10
147.72
20
-95.385
11
147.72
21
-95.935
0
LINE
8
BLACK
6
CONTINUOUS
10
139.22
20
-95.935
11
137.62
21
-95.935
0
LINE
8
BLACK
6
CONTINUOUS
10
137.62
20
-95.935
11
137.62
21
-95.385
0
LINE
8
BLACK
6
CONTINUOUS
10
137.62
20
-95.385
11
139.22
21
-95.385
0
LINE
8
BLACK
6
CONTINUOUS
10
139.22
20
-95.385
11
139.22
21
-95.935
0
LINE
8
BLACK
6
CONTINUOUS
10
158.47
20
-94.5934
11
158.552
21
-94.6476
0
LINE
8
BLACK
6
CONTINUOUS
10
158.552
20
-94.6476
11
158.606
21
-94.7287
0
LINE
8
BLACK
6
CONTINUOUS
10
158.606
20
-94.7287
11
158.625
21
-94.8244
0
LINE
8
BLACK
6
CONTINUOUS
10
158.625
20
-94.8244
11
158.625
21
-95.6744
0
LINE
8
BLACK
6
CONTINUOUS
10
158.625
20
-95.6744
11
158.606
21
-95.7701
0
LINE
8
BLACK
6
CONTINUOUS
10
158.606
20
-95.7701
11
158.552
21
-95.8512
0
LINE
8
BLACK
6
CONTINUOUS
10
158.552
20
-95.8512
11
158.47
21
-95.9054
0
LINE
8
BLACK
6
CONTINUOUS
10
158.47
20
-95.9054
11
158.375
21
-95.9244
0
LINE
8
BLACK
6
CONTINUOUS
10
158.375
20
-95.9244
11
157.475
21
-95.9244
0
LINE
8
BLACK
6
CONTINUOUS
10
157.475
20
-95.9244
11
157.379
21
-95.9054
0
LINE
8
BLACK
6
CONTINUOUS
10
157.379
20
-95.9054
11
157.298
21
-95.8512
0
LINE
8
BLACK
6
CONTINUOUS
10
157.298
20
-95.8512
11
157.244
21
-95.7701
0
LINE
8
BLACK
6
CONTINUOUS
10
157.244
20
-95.7701
11
157.225
21
-95.6744
0
LINE
8
BLACK
6
CONTINUOUS
10
157.225
20
-95.6744
11
157.225
21
-94.8244
0
LINE
8
BLACK
6
CONTINUOUS
10
157.225
20
-94.8244
11
157.244
21
-94.7287
0
LINE
8
BLACK
6
CONTINUOUS
10
157.244
20
-94.7287
11
157.298
21
-94.6476
0
LINE
8
BLACK
6
CONTINUOUS
10
157.298
20
-94.6476
11
157.379
21
-94.5934
0
LINE
8
BLACK
6
CONTINUOUS
10
157.379
20
-94.5934
11
157.475
21
-94.5744
0
LINE
8
BLACK
6
CONTINUOUS
10
157.475
20
-94.5744
11
158.375
21
-94.5744
0
LINE
8
BLACK
6
CONTINUOUS
10
158.375
20
-94.5744
11
158.47
21
-94.5934
0
LINE
8
BLACK
6
CONTINUOUS
10
155.77
20
-94.5934
11
155.852
21
-94.6476
0
LINE
8
BLACK
6
CONTINUOUS
10
155.852
20
-94.6476
11
155.906
21
-94.7287
0
LINE
8
BLACK
6
CONTINUOUS
10
155.906
20
-94.7287
11
155.925
21
-94.8244
0
LINE
8
BLACK
6
CONTINUOUS
10
155.925
20
-94.8244
11
155.925
21
-95.6744
0
LINE
8
BLACK
6
CONTINUOUS
10
155.925
20
-95.6744
11
155.906
21
-95.7701
0
LINE
8
BLACK
6
CONTINUOUS
10
155.906
20
-95.7701
11
155.852
21
-95.8512
0
LINE
8
BLACK
6
CONTINUOUS
10
155.852
20
-95.8512
11
155.77
21
-95.9054
0
LINE
8
BLACK
6
CONTINUOUS
10
155.77
20
-95.9054
11
155.675
21
-95.9244
0
LINE
8
BLACK
6
CONTINUOUS
10
155.675
20
-95.9244
11
154.775
21
-95.9244
0
LINE
8
BLACK
6
CONTINUOUS
10
154.775
20
-95.9244
11
154.679
21
-95.9054
0
LINE
8
BLACK
6
CONTINUOUS
10
154.679
20
-95.9054
11
154.598
21
-95.8512
0
LINE
8
BLACK
6
CONTINUOUS
10
154.598
20
-95.8512
11
154.544
21
-95.7701
0
LINE
8
BLACK
6
CONTINUOUS
10
154.544
20
-95.7701
11
154.525
21
-95.6744
0
LINE
8
BLACK
6
CONTINUOUS
10
154.525
20
-95.6744
11
154.525
21
-94.8244
0
LINE
8
BLACK
6
CONTINUOUS
10
154.525
20
-94.8244
11
154.544
21
-94.7287
0
LINE
8
BLACK
6
CONTINUOUS
10
154.544
20
-94.7287
11
154.598
21
-94.6476
0
LINE
8
BLACK
6
CONTINUOUS
10
154.598
20
-94.6476
11
154.679
21
-94.5934
0
LINE
8
BLACK
6
CONTINUOUS
10
154.679
20
-94.5934
11
154.775
21
-94.5744
0
LINE
8
BLACK
6
CONTINUOUS
10
154.775
20
-94.5744
11
155.675
21
-94.5744
0
LINE
8
BLACK
6
CONTINUOUS
10
155.675
20
-94.5744
11
155.77
21
-94.5934
0
LINE
8
BLACK
6
CONTINUOUS
10
135.754
20
-94.6307
11
135.799
21
-94.661
0
LINE
8
BLACK
6
CONTINUOUS
10
135.799
20
-94.661
11
135.829
21
-94.7064
0
LINE
8
BLACK
6
CONTINUOUS
10
135.829
20
-94.7064
11
135.84
21
-94.76
0
LINE
8
BLACK
6
CONTINUOUS
10
135.84
20
-94.76
11
135.84
21
-95.1
0
LINE
8
BLACK
6
CONTINUOUS
10
135.84
20
-95.1
11
135.829
21
-95.1536
0
LINE
8
BLACK
6
CONTINUOUS
10
135.829
20
-95.1536
11
135.799
21
-95.199
0
LINE
8
BLACK
6
CONTINUOUS
10
135.799
20
-95.199
11
135.754
21
-95.2293
0
LINE
8
BLACK
6
CONTINUOUS
10
135.754
20
-95.2293
11
135.7
21
-95.24
0
LINE
8
BLACK
6
CONTINUOUS
10
135.7
20
-95.24
11
135.42
21
-95.24
0
LINE
8
BLACK
6
CONTINUOUS
10
135.42
20
-95.24
11
135.366
21
-95.2293
0
LINE
8
BLACK
6
CONTINUOUS
10
135.366
20
-95.2293
11
135.321
21
-95.199
0
LINE
8
BLACK
6
CONTINUOUS
10
135.321
20
-95.199
11
135.291
21
-95.1536
0
LINE
8
BLACK
6
CONTINUOUS
10
135.291
20
-95.1536
11
135.28
21
-95.1
0
LINE
8
BLACK
6
CONTINUOUS
10
135.28
20
-95.1
11
135.28
21
-94.76
0
LINE
8
BLACK
6
CONTINUOUS
10
135.28
20
-94.76
11
135.291
21
-94.7064
0
LINE
8
BLACK
6
CONTINUOUS
10
135.291
20
-94.7064
11
135.321
21
-94.661
0
LINE
8
BLACK
6
CONTINUOUS
10
135.321
20
-94.661
11
135.366
21
-94.6307
0
LINE
8
BLACK
6
CONTINUOUS
10
135.366
20
-94.6307
11
135.42
21
-94.62
0
LINE
8
BLACK
6
CONTINUOUS
10
135.42
20
-94.62
11
135.7
21
-94.62
0
LINE
8
BLACK
6
CONTINUOUS
10
135.7
20
-94.62
11
135.754
21
-94.6307
0
LINE
8
BLACK
6
CONTINUOUS
10
136.714
20
-94.6307
11
136.759
21
-94.661
0
LINE
8
BLACK
6
CONTINUOUS
10
136.759
20
-94.661
11
136.789
21
-94.7064
0
LINE
8
BLACK
6
CONTINUOUS
10
136.789
20
-94.7064
11
136.8
21
-94.76
0
LINE
8
BLACK
6
CONTINUOUS
10
136.8
20
-94.76
11
136.8
21
-95.1
0
LINE
8
BLACK
6
CONTINUOUS
10
136.8
20
-95.1
11
136.789
21
-95.1536
0
LINE
8
BLACK
6
CONTINUOUS
10
136.789
20
-95.1536
11
136.759
21
-95.199
0
LINE
8
BLACK
6
CONTINUOUS
10
136.759
20
-95.199
11
136.714
21
-95.2293
0
LINE
8
BLACK
6
CONTINUOUS
10
136.714
20
-95.2293
11
136.66
21
-95.24
0
LINE
8
BLACK
6
CONTINUOUS
10
136.66
20
-95.24
11
136.38
21
-95.24
0
LINE
8
BLACK
6
CONTINUOUS
10
136.38
20
-95.24
11
136.326
21
-95.2293
0
LINE
8
BLACK
6
CONTINUOUS
10
136.326
20
-95.2293
11
136.281
21
-95.199
0
LINE
8
BLACK
6
CONTINUOUS
10
136.281
20
-95.199
11
136.251
21
-95.1536
0
LINE
8
BLACK
6
CONTINUOUS
10
136.251
20
-95.1536
11
136.24
21
-95.1
0
LINE
8
BLACK
6
CONTINUOUS
10
136.24
20
-95.1
11
136.24
21
-94.76
0
LINE
8
BLACK
6
CONTINUOUS
10
136.24
20
-94.76
11
136.251
21
-94.7064
0
LINE
8
BLACK
6
CONTINUOUS
10
136.251
20
-94.7064
11
136.281
21
-94.661
0
LINE
8
BLACK
6
CONTINUOUS
10
136.281
20
-94.661
11
136.326
21
-94.6307
0
LINE
8
BLACK
6
CONTINUOUS
10
136.326
20
-94.6307
11
136.38
21
-94.62
0
LINE
8
BLACK
6
CONTINUOUS
10
136.38
20
-94.62
11
136.66
21
-94.62
0
LINE
8
BLACK
6
CONTINUOUS
10
136.66
20
-94.62
11
136.714
21
-94.6307
0
LINE
8
BLACK
6
CONTINUOUS
10
147.72
20
-95.135
11
146.12
21
-95.135
0
LINE
8
BLACK
6
CONTINUOUS
10
146.12
20
-95.135
11
146.12
21
-94.585
0
LINE
8
BLACK
6
CONTINUOUS
10
146.12
20
-94.585
11
147.72
21
-94.585
0
LINE
8
BLACK
6
CONTINUOUS
10
147.72
20
-94.585
11
147.72
21
-95.135
0
LINE
8
BLACK
6
CONTINUOUS
10
139.22
20
-95.135
11
137.62
21
-95.135
0
LINE
8
BLACK
6
CONTINUOUS
10
137.62
20
-95.135
11
137.62
21
-94.585
0
LINE
8
BLACK
6
CONTINUOUS
10
137.62
20
-94.585
11
139.22
21
-94.585
0
LINE
8
BLACK
6
CONTINUOUS
10
139.22
20
-94.585
11
139.22
21
-95.135
0
LINE
8
BLACK
6
CONTINUOUS
10
147.72
20
-94.335
11
146.12
21
-94.335
0
LINE
8
BLACK
6
CONTINUOUS
10
146.12
20
-94.335
11
146.12
21
-93.785
0
LINE
8
BLACK
6
CONTINUOUS
10
146.12
20
-93.785
11
147.72
21
-93.785
0
LINE
8
BLACK
6
CONTINUOUS
10
147.72
20
-93.785
11
147.72
21
-94.335
0
LINE
8
BLACK
6
CONTINUOUS
10
139.22
20
-94.335
11
137.62
21
-94.335
0
LINE
8
BLACK
6
CONTINUOUS
10
137.62
20
-94.335
11
137.62
21
-93.785
0
LINE
8
BLACK
6
CONTINUOUS
10
137.62
20
-93.785
11
139.22
21
-93.785
0
LINE
8
BLACK
6
CONTINUOUS
10
139.22
20
-93.785
11
139.22
21
-94.335
0
LINE
8
BLACK
6
CONTINUOUS
10
155.382
20
-92.1458
11
155.431
21
-92.1783
0
LINE
8
BLACK
6
CONTINUOUS
10
155.431
20
-92.1783
11
155.463
21
-92.227
0
LINE
8
BLACK
6
CONTINUOUS
10
155.463
20
-92.227
11
155.475
21
-92.2844
0
LINE
8
BLACK
6
CONTINUOUS
10
155.475
20
-92.2844
11
155.475
21
-93.4594
0
LINE
8
BLACK
6
CONTINUOUS
10
155.475
20
-93.4594
11
155.463
21
-93.5168
0
LINE
8
BLACK
6
CONTINUOUS
10
155.463
20
-93.5168
11
155.431
21
-93.5655
0
LINE
8
BLACK
6
CONTINUOUS
10
155.431
20
-93.5655
11
155.382
21
-93.598
0
LINE
8
BLACK
6
CONTINUOUS
10
155.382
20
-93.598
11
155.325
21
-93.6094
0
LINE
8
BLACK
6
CONTINUOUS
10
155.325
20
-93.6094
11
155.025
21
-93.6094
0
LINE
8
BLACK
6
CONTINUOUS
10
155.025
20
-93.6094
11
154.967
21
-93.598
0
LINE
8
BLACK
6
CONTINUOUS
10
154.967
20
-93.598
11
154.919
21
-93.5655
0
LINE
8
BLACK
6
CONTINUOUS
10
154.919
20
-93.5655
11
154.886
21
-93.5168
0
LINE
8
BLACK
6
CONTINUOUS
10
154.886
20
-93.5168
11
154.875
21
-93.4594
0
LINE
8
BLACK
6
CONTINUOUS
10
154.875
20
-93.4594
11
154.875
21
-92.2844
0
LINE
8
BLACK
6
CONTINUOUS
10
154.875
20
-92.2844
11
154.886
21
-92.227
0
LINE
8
BLACK
6
CONTINUOUS
10
154.886
20
-92.227
11
154.919
21
-92.1783
0
LINE
8
BLACK
6
CONTINUOUS
10
154.919
20
-92.1783
11
154.967
21
-92.1458
0
LINE
8
BLACK
6
CONTINUOUS
10
154.967
20
-92.1458
11
155.025
21
-92.1344
0
LINE
8
BLACK
6
CONTINUOUS
10
155.025
20
-92.1344
11
155.325
21
-92.1344
0
LINE
8
BLACK
6
CONTINUOUS
10
155.325
20
-92.1344
11
155.382
21
-92.1458
0
LINE
8
BLACK
6
CONTINUOUS
10
139.22
20
-93.535
11
137.62
21
-93.535
0
LINE
8
BLACK
6
CONTINUOUS
10
137.62
20
-93.535
11
137.62
21
-92.985
0
LINE
8
BLACK
6
CONTINUOUS
10
137.62
20
-92.985
11
139.22
21
-92.985
0
LINE
8
BLACK
6
CONTINUOUS
10
139.22
20
-92.985
11
139.22
21
-93.535
0
LINE
8
BLACK
6
CONTINUOUS
10
147.72
20
-93.535
11
146.12
21
-93.535
0
LINE
8
BLACK
6
CONTINUOUS
10
146.12
20
-93.535
11
146.12
21
-92.985
0
LINE
8
BLACK
6
CONTINUOUS
10
146.12
20
-92.985
11
147.72
21
-92.985
0
LINE
8
BLACK
6
CONTINUOUS
10
147.72
20
-92.985
11
147.72
21
-93.535
0
LINE
8
BLACK
6
CONTINUOUS
10
158.736
20
-92.1665
11
158.809
21
-92.2153
0
LINE
8
BLACK
6
CONTINUOUS
10
158.809
20
-92.2153
11
158.858
21
-92.2883
0
LINE
8
BLACK
6
CONTINUOUS
10
158.858
20
-92.2883
11
158.875
21
-92.3744
0
LINE
8
BLACK
6
CONTINUOUS
10
158.875
20
-92.3744
11
158.875
21
-92.8744
0
LINE
8
BLACK
6
CONTINUOUS
10
158.875
20
-92.8744
11
158.858
21
-92.9605
0
LINE
8
BLACK
6
CONTINUOUS
10
158.858
20
-92.9605
11
158.809
21
-93.0335
0
LINE
8
BLACK
6
CONTINUOUS
10
158.809
20
-93.0335
11
158.736
21
-93.0823
0
LINE
8
BLACK
6
CONTINUOUS
10
158.736
20
-93.0823
11
158.65
21
-93.0994
0
LINE
8
BLACK
6
CONTINUOUS
10
158.65
20
-93.0994
11
158.2
21
-93.0994
0
LINE
8
BLACK
6
CONTINUOUS
10
158.2
20
-93.0994
11
158.114
21
-93.0823
0
LINE
8
BLACK
6
CONTINUOUS
10
158.114
20
-93.0823
11
158.041
21
-93.0335
0
LINE
8
BLACK
6
CONTINUOUS
10
158.041
20
-93.0335
11
157.992
21
-92.9605
0
LINE
8
BLACK
6
CONTINUOUS
10
157.992
20
-92.9605
11
157.975
21
-92.8744
0
LINE
8
BLACK
6
CONTINUOUS
10
157.975
20
-92.8744
11
157.975
21
-92.3744
0
LINE
8
BLACK
6
CONTINUOUS
10
157.975
20
-92.3744
11
157.992
21
-92.2883
0
LINE
8
BLACK
6
CONTINUOUS
10
157.992
20
-92.2883
11
158.041
21
-92.2153
0
LINE
8
BLACK
6
CONTINUOUS
10
158.041
20
-92.2153
11
158.114
21
-92.1665
0
LINE
8
BLACK
6
CONTINUOUS
10
158.114
20
-92.1665
11
158.2
21
-92.1494
0
LINE
8
BLACK
6
CONTINUOUS
10
158.2
20
-92.1494
11
158.65
21
-92.1494
0
LINE
8
BLACK
6
CONTINUOUS
10
158.65
20
-92.1494
11
158.736
21
-92.1665
0
LINE
8
BLACK
6
CONTINUOUS
10
160.286
20
-92.1665
11
160.359
21
-92.2153
0
LINE
8
BLACK
6
CONTINUOUS
10
160.359
20
-92.2153
11
160.408
21
-92.2883
0
LINE
8
BLACK
6
CONTINUOUS
10
160.408
20
-92.2883
11
160.425
21
-92.3744
0
LINE
8
BLACK
6
CONTINUOUS
10
160.425
20
-92.3744
11
160.425
21
-92.8744
0
LINE
8
BLACK
6
CONTINUOUS
10
160.425
20
-92.8744
11
160.408
21
-92.9605
0
LINE
8
BLACK
6
CONTINUOUS
10
160.408
20
-92.9605
11
160.359
21
-93.0335
0
LINE
8
BLACK
6
CONTINUOUS
10
160.359
20
-93.0335
11
160.286
21
-93.0823
0
LINE
8
BLACK
6
CONTINUOUS
10
160.286
20
-93.0823
11
160.2
21
-93.0994
0
LINE
8
BLACK
6
CONTINUOUS
10
160.2
20
-93.0994
11
159.75
21
-93.0994
0
LINE
8
BLACK
6
CONTINUOUS
10
159.75
20
-93.0994
11
159.664
21
-93.0823
0
LINE
8
BLACK
6
CONTINUOUS
10
159.664
20
-93.0823
11
159.591
21
-93.0335
0
LINE
8
BLACK
6
CONTINUOUS
10
159.591
20
-93.0335
11
159.542
21
-92.9605
0
LINE
8
BLACK
6
CONTINUOUS
10
159.542
20
-92.9605
11
159.525
21
-92.8744
0
LINE
8
BLACK
6
CONTINUOUS
10
159.525
20
-92.8744
11
159.525
21
-92.3744
0
LINE
8
BLACK
6
CONTINUOUS
10
159.525
20
-92.3744
11
159.542
21
-92.2883
0
LINE
8
BLACK
6
CONTINUOUS
10
159.542
20
-92.2883
11
159.591
21
-92.2153
0
LINE
8
BLACK
6
CONTINUOUS
10
159.591
20
-92.2153
11
159.664
21
-92.1665
0
LINE
8
BLACK
6
CONTINUOUS
10
159.664
20
-92.1665
11
159.75
21
-92.1494
0
LINE
8
BLACK
6
CONTINUOUS
10
159.75
20
-92.1494
11
160.2
21
-92.1494
0
LINE
8
BLACK
6
CONTINUOUS
10
160.2
20
-92.1494
11
160.286
21
-92.1665
0
LINE
8
BLACK
6
CONTINUOUS
10
153.1
20
-93.05
11
151.4
21
-93.05
0
LINE
8
BLACK
6
CONTINUOUS
10
151.4
20
-93.05
11
151.4
21
-91.75
0
LINE
8
BLACK
6
CONTINUOUS
10
151.4
20
-91.75
11
153.1
21
-91.75
0
LINE
8
BLACK
6
CONTINUOUS
10
153.1
20
-91.75
11
153.1
21
-93.05
0
LINE
8
BLACK
6
CONTINUOUS
10
139.22
20
-92.735
11
137.62
21
-92.735
0
LINE
8
BLACK
6
CONTINUOUS
10
137.62
20
-92.735
11
137.62
21
-92.185
0
LINE
8
BLACK
6
CONTINUOUS
10
137.62
20
-92.185
11
139.22
21
-92.185
0
LINE
8
BLACK
6
CONTINUOUS
10
139.22
20
-92.185
11
139.22
21
-92.735
0
LINE
8
BLACK
6
CONTINUOUS
10
147.72
20
-92.735
11
146.12
21
-92.735
0
LINE
8
BLACK
6
CONTINUOUS
10
146.12
20
-92.735
11
146.12
21
-92.185
0
LINE
8
BLACK
6
CONTINUOUS
10
146.12
20
-92.185
11
147.72
21
-92.185
0
LINE
8
BLACK
6
CONTINUOUS
10
147.72
20
-92.185
11
147.72
21
-92.735
0
LINE
8
BLACK
6
CONTINUOUS
10
140.145
20
-91.81
11
139.595
21
-91.81
0
LINE
8
BLACK
6
CONTINUOUS
10
139.595
20
-91.81
11
139.595
21
-90.21
0
LINE
8
BLACK
6
CONTINUOUS
10
139.595
20
-90.21
11
140.145
21
-90.21
0
LINE
8
BLACK
6
CONTINUOUS
10
140.145
20
-90.21
11
140.145
21
-91.81
0
LINE
8
BLACK
6
CONTINUOUS
10
140.945
20
-91.81
11
140.395
21
-91.81
0
LINE
8
BLACK
6
CONTINUOUS
10
140.395
20
-91.81
11
140.395
21
-90.21
0
LINE
8
BLACK
6
CONTINUOUS
10
140.395
20
-90.21
11
140.945
21
-90.21
0
LINE
8
BLACK
6
CONTINUOUS
10
140.945
20
-90.21
11
140.945
21
-91.81
0
LINE
8
BLACK
6
CONTINUOUS
10
141.745
20
-91.81
11
141.195
21
-91.81
0
LINE
8
BLACK
6
CONTINUOUS
10
141.195
20
-91.81
11
141.195
21
-90.21
0
LINE
8
BLACK
6
CONTINUOUS
10
141.195
20
-90.21
11
141.745
21
-90.21
0
LINE
8
BLACK
6
CONTINUOUS
10
141.745
20
-90.21
11
141.745
21
-91.81
0
LINE
8
BLACK
6
CONTINUOUS
10
142.545
20
-91.81
11
141.995
21
-91.81
0
LINE
8
BLACK
6
CONTINUOUS
10
141.995
20
-91.81
11
141.995
21
-90.21
0
LINE
8
BLACK
6
CONTINUOUS
10
141.995
20
-90.21
11
142.545
21
-90.21
0
LINE
8
BLACK
6
CONTINUOUS
10
142.545
20
-90.21
11
142.545
21
-91.81
0
LINE
8
BLACK
6
CONTINUOUS
10
143.345
20
-91.81
11
142.795
21
-91.81
0
LINE
8
BLACK
6
CONTINUOUS
10
142.795
20
-91.81
11
142.795
21
-90.21
0
LINE
8
BLACK
6
CONTINUOUS
10
142.795
20
-90.21
11
143.345
21
-90.21
0
LINE
8
BLACK
6
CONTINUOUS
10
143.345
20
-90.21
11
143.345
21
-91.81
0
LINE
8
BLACK
6
CONTINUOUS
10
144.145
20
-91.81
11
143.595
21
-91.81
0
LINE
8
BLACK
6
CONTINUOUS
10
143.595
20
-91.81
11
143.595
21
-90.21
0
LINE
8
BLACK
6
CONTINUOUS
10
143.595
20
-90.21
11
144.145
21
-90.21
0
LINE
8
BLACK
6
CONTINUOUS
10
144.145
20
-90.21
11
144.145
21
-91.81
0
LINE
8
BLACK
6
CONTINUOUS
10
144.945
20
-91.81
11
144.395
21
-91.81
0
LINE
8
BLACK
6
CONTINUOUS
10
144.395
20
-91.81
11
144.395
21
-90.21
0
LINE
8
BLACK
6
CONTINUOUS
10
144.395
20
-90.21
11
144.945
21
-90.21
0
LINE
8
BLACK
6
CONTINUOUS
10
144.945
20
-90.21
11
144.945
21
-91.81
0
LINE
8
BLACK
6
CONTINUOUS
10
145.745
20
-91.81
11
145.195
21
-91.81
0
LINE
8
BLACK
6
CONTINUOUS
10
145.195
20
-91.81
11
145.195
21
-90.21
0
LINE
8
BLACK
6
CONTINUOUS
10
145.195
20
-90.21
11
145.745
21
-90.21
0
LINE
8
BLACK
6
CONTINUOUS
10
145.745
20
-90.21
11
145.745
21
-91.81
0
LINE
8
BLACK
6
CONTINUOUS
10
156.332
20
-90.2708
11
156.381
21
-90.3033
0
LINE
8
BLACK
6
CONTINUOUS
10
156.381
20
-90.3033
11
156.413
21
-90.352
0
LINE
8
BLACK
6
CONTINUOUS
10
156.413
20
-90.352
11
156.425
21
-90.4094
0
LINE
8
BLACK
6
CONTINUOUS
10
156.425
20
-90.4094
11
156.425
21
-91.5844
0
LINE
8
BLACK
6
CONTINUOUS
10
156.425
20
-91.5844
11
156.413
21
-91.6418
0
LINE
8
BLACK
6
CONTINUOUS
10
156.413
20
-91.6418
11
156.381
21
-91.6905
0
LINE
8
BLACK
6
CONTINUOUS
10
156.381
20
-91.6905
11
156.332
21
-91.723
0
LINE
8
BLACK
6
CONTINUOUS
10
156.332
20
-91.723
11
156.275
21
-91.7344
0
LINE
8
BLACK
6
CONTINUOUS
10
156.275
20
-91.7344
11
155.975
21
-91.7344
0
LINE
8
BLACK
6
CONTINUOUS
10
155.975
20
-91.7344
11
155.917
21
-91.723
0
LINE
8
BLACK
6
CONTINUOUS
10
155.917
20
-91.723
11
155.869
21
-91.6905
0
LINE
8
BLACK
6
CONTINUOUS
10
155.869
20
-91.6905
11
155.836
21
-91.6418
0
LINE
8
BLACK
6
CONTINUOUS
10
155.836
20
-91.6418
11
155.825
21
-91.5844
0
LINE
8
BLACK
6
CONTINUOUS
10
155.825
20
-91.5844
11
155.825
21
-90.4094
0
LINE
8
BLACK
6
CONTINUOUS
10
155.825
20
-90.4094
11
155.836
21
-90.352
0
LINE
8
BLACK
6
CONTINUOUS
10
155.836
20
-90.352
11
155.869
21
-90.3033
0
LINE
8
BLACK
6
CONTINUOUS
10
155.869
20
-90.3033
11
155.917
21
-90.2708
0
LINE
8
BLACK
6
CONTINUOUS
10
155.917
20
-90.2708
11
155.975
21
-90.2594
0
LINE
8
BLACK
6
CONTINUOUS
10
155.975
20
-90.2594
11
156.275
21
-90.2594
0
LINE
8
BLACK
6
CONTINUOUS
10
156.275
20
-90.2594
11
156.332
21
-90.2708
0
LINE
8
BLACK
6
CONTINUOUS
10
154.432
20
-90.2708
11
154.481
21
-90.3033
0
LINE
8
BLACK
6
CONTINUOUS
10
154.481
20
-90.3033
11
154.513
21
-90.352
0
LINE
8
BLACK
6
CONTINUOUS
10
154.513
20
-90.352
11
154.525
21
-90.4094
0
LINE
8
BLACK
6
CONTINUOUS
10
154.525
20
-90.4094
11
154.525
21
-91.5844
0
LINE
8
BLACK
6
CONTINUOUS
10
154.525
20
-91.5844
11
154.513
21
-91.6418
0
LINE
8
BLACK
6
CONTINUOUS
10
154.513
20
-91.6418
11
154.481
21
-91.6905
0
LINE
8
BLACK
6
CONTINUOUS
10
154.481
20
-91.6905
11
154.432
21
-91.723
0
LINE
8
BLACK
6
CONTINUOUS
10
154.432
20
-91.723
11
154.375
21
-91.7344
0
LINE
8
BLACK
6
CONTINUOUS
10
154.375
20
-91.7344
11
154.075
21
-91.7344
0
LINE
8
BLACK
6
CONTINUOUS
10
154.075
20
-91.7344
11
154.017
21
-91.723
0
LINE
8
BLACK
6
CONTINUOUS
10
154.017
20
-91.723
11
153.969
21
-91.6905
0
LINE
8
BLACK
6
CONTINUOUS
10
153.969
20
-91.6905
11
153.936
21
-91.6418
0
LINE
8
BLACK
6
CONTINUOUS
10
153.936
20
-91.6418
11
153.925
21
-91.5844
0
LINE
8
BLACK
6
CONTINUOUS
10
153.925
20
-91.5844
11
153.925
21
-90.4094
0
LINE
8
BLACK
6
CONTINUOUS
10
153.925
20
-90.4094
11
153.936
21
-90.352
0
LINE
8
BLACK
6
CONTINUOUS
10
153.936
20
-90.352
11
153.969
21
-90.3033
0
LINE
8
BLACK
6
CONTINUOUS
10
153.969
20
-90.3033
11
154.017
21
-90.2708
0
LINE
8
BLACK
6
CONTINUOUS
10
154.017
20
-90.2708
11
154.075
21
-90.2594
0
LINE
8
BLACK
6
CONTINUOUS
10
154.075
20
-90.2594
11
154.375
21
-90.2594
0
LINE
8
BLACK
6
CONTINUOUS
10
154.375
20
-90.2594
11
154.432
21
-90.2708
0
LINE
8
BLACK
6
CONTINUOUS
10
160.311
20
-90.3746
11
160.376
21
-90.418
0
LINE
8
BLACK
6
CONTINUOUS
10
160.376
20
-90.418
11
160.42
21
-90.4829
0
LINE
8
BLACK
6
CONTINUOUS
10
160.42
20
-90.4829
11
160.435
21
-90.5594
0
LINE
8
BLACK
6
CONTINUOUS
10
160.435
20
-90.5594
11
160.435
21
-91.1094
0
LINE
8
BLACK
6
CONTINUOUS
10
160.435
20
-91.1094
11
160.42
21
-91.1859
0
LINE
8
BLACK
6
CONTINUOUS
10
160.42
20
-91.1859
11
160.376
21
-91.2508
0
LINE
8
BLACK
6
CONTINUOUS
10
160.376
20
-91.2508
11
160.311
21
-91.2942
0
LINE
8
BLACK
6
CONTINUOUS
10
160.311
20
-91.2942
11
160.235
21
-91.3094
0
LINE
8
BLACK
6
CONTINUOUS
10
160.235
20
-91.3094
11
159.835
21
-91.3094
0
LINE
8
BLACK
6
CONTINUOUS
10
159.835
20
-91.3094
11
159.758
21
-91.2942
0
LINE
8
BLACK
6
CONTINUOUS
10
159.758
20
-91.2942
11
159.693
21
-91.2508
0
LINE
8
BLACK
6
CONTINUOUS
10
159.693
20
-91.2508
11
159.65
21
-91.1859
0
LINE
8
BLACK
6
CONTINUOUS
10
159.65
20
-91.1859
11
159.635
21
-91.1094
0
LINE
8
BLACK
6
CONTINUOUS
10
159.635
20
-91.1094
11
159.635
21
-90.5594
0
LINE
8
BLACK
6
CONTINUOUS
10
159.635
20
-90.5594
11
159.65
21
-90.4829
0
LINE
8
BLACK
6
CONTINUOUS
10
159.65
20
-90.4829
11
159.693
21
-90.418
0
LINE
8
BLACK
6
CONTINUOUS
10
159.693
20
-90.418
11
159.758
21
-90.3746
0
LINE
8
BLACK
6
CONTINUOUS
10
159.758
20
-90.3746
11
159.835
21
-90.3594
0
LINE
8
BLACK
6
CONTINUOUS
10
159.835
20
-90.3594
11
160.235
21
-90.3594
0
LINE
8
BLACK
6
CONTINUOUS
10
160.235
20
-90.3594
11
160.311
21
-90.3746
0
LINE
8
BLACK
6
CONTINUOUS
10
158.661
20
-90.3746
11
158.726
21
-90.418
0
LINE
8
BLACK
6
CONTINUOUS
10
158.726
20
-90.418
11
158.77
21
-90.4829
0
LINE
8
BLACK
6
CONTINUOUS
10
158.77
20
-90.4829
11
158.785
21
-90.5594
0
LINE
8
BLACK
6
CONTINUOUS
10
158.785
20
-90.5594
11
158.785
21
-91.1094
0
LINE
8
BLACK
6
CONTINUOUS
10
158.785
20
-91.1094
11
158.77
21
-91.1859
0
LINE
8
BLACK
6
CONTINUOUS
10
158.77
20
-91.1859
11
158.726
21
-91.2508
0
LINE
8
BLACK
6
CONTINUOUS
10
158.726
20
-91.2508
11
158.661
21
-91.2942
0
LINE
8
BLACK
6
CONTINUOUS
10
158.661
20
-91.2942
11
158.585
21
-91.3094
0
LINE
8
BLACK
6
CONTINUOUS
10
158.585
20
-91.3094
11
158.185
21
-91.3094
0
LINE
8
BLACK
6
CONTINUOUS
10
158.185
20
-91.3094
11
158.108
21
-91.2942
0
LINE
8
BLACK
6
CONTINUOUS
10
158.108
20
-91.2942
11
158.043
21
-91.2508
0
LINE
8
BLACK
6
CONTINUOUS
10
158.043
20
-91.2508
11
158
21
-91.1859
0
LINE
8
BLACK
6
CONTINUOUS
10
158
20
-91.1859
11
157.985
21
-91.1094
0
LINE
8
BLACK
6
CONTINUOUS
10
157.985
20
-91.1094
11
157.985
21
-90.5594
0
LINE
8
BLACK
6
CONTINUOUS
10
157.985
20
-90.5594
11
158
21
-90.4829
0
LINE
8
BLACK
6
CONTINUOUS
10
158
20
-90.4829
11
158.043
21
-90.418
0
LINE
8
BLACK
6
CONTINUOUS
10
158.043
20
-90.418
11
158.108
21
-90.3746
0
LINE
8
BLACK
6
CONTINUOUS
10
158.108
20
-90.3746
11
158.185
21
-90.3594
0
LINE
8
BLACK
6
CONTINUOUS
10
158.185
20
-90.3594
11
158.585
21
-90.3594
0
LINE
8
BLACK
6
CONTINUOUS
10
158.585
20
-90.3594
11
158.661
21
-90.3746
0
LINE
8
BLACK
6
CONTINUOUS
10
153.1
20
-89.55
11
151.4
21
-89.55
0
LINE
8
BLACK
6
CONTINUOUS
10
151.4
20
-89.55
11
151.4
21
-88.25
0
LINE
8
BLACK
6
CONTINUOUS
10
151.4
20
-88.25
11
153.1
21
-88.25
0
LINE
8
BLACK
6
CONTINUOUS
10
153.1
20
-88.25
11
153.1
21
-89.55
  0
ENDSEC
  0
EOF
