  0
SECTION
  2
HEADER
  9
$ANGBASE
  50
0.0
  9
$ANGDIR
  70
1
  9
$MEASUREMENT
  70
1
  0
ENDSEC
  0
SECTION
  2
TABLES
  0
TABLE
  2
LTYPE
  70
4
  0
LTYPE
  5
40F
  2
CONTINUOUS
  70
0
  3
Solid line
  72
65
  73
0
  40
0.0
  0
LTYPE
  5
410
  2
DASHDOT
 70
0
  3
Dash Dot ____ _ ____ _
 72
65
 73
4
 40
2.0
 49
1.25
 49
-0.25
 49
0.25
 49
-0.25
  0
LTYPE
  5
411
  2
DASHED
 70
0
  3
Dashed __ __ __ __ __
 72
65
 73
2
 40
0.75
 49
0.5
 49
-0.25
  0
LTYPE
  5
43B
  2
DOTTED
 70
0
  3
Dotted .  .  .  .
 72
65
 73
2
 40
0.2
 49
0.0
 49
-0.2
  0
ENDTAB
  0
TABLE
  2
STYLE
  70
4
  0
STYLE
  2
KICAD
  70
0
  40
0
  41
1
  42
1
  50
0
  71
0
  3
isocp.shx
  0
STYLE
  2
KICADB
  70
0
  40
0
  41
1
  42
1
  50
0
  71
0
  3
isocp.shx
  0
STYLE
  2
KICADI
  70
0
  40
0
  41
1
  42
1
  50
15
  71
0
  3
isocp.shx
  0
STYLE
  2
KICADBI
  70
0
  40
0
  41
1
  42
1
  50
15
  71
0
  3
isocp.shx
  0
ENDTAB
  0
TABLE
  2
LAYER
  70
1
  0
LAYER
  2
BLACK
  70
0
  62
7
  6
CONTINUOUS
  0
ENDTAB
  0
ENDSEC
  0
SECTION
  2
ENTITIES
0
LINE
8
BLACK
6
CONTINUOUS
10
156.997
20
-123.131
11
157.287
21
-123.172
0
LINE
8
BLACK
6
CONTINUOUS
10
157.287
20
-123.172
11
157.568
21
-123.252
0
LINE
8
BLACK
6
CONTINUOUS
10
157.568
20
-123.252
11
157.836
21
-123.37
0
LINE
8
BLACK
6
CONTINUOUS
10
157.836
20
-123.37
11
158.085
21
-123.522
0
LINE
8
BLACK
6
CONTINUOUS
10
158.085
20
-123.522
11
158.312
21
-123.708
0
LINE
8
BLACK
6
CONTINUOUS
10
158.312
20
-123.708
11
158.511
21
-123.922
0
LINE
8
BLACK
6
CONTINUOUS
10
158.511
20
-123.922
11
158.679
21
-124.161
0
LINE
8
BLACK
6
CONTINUOUS
10
158.679
20
-124.161
11
158.813
21
-124.421
0
LINE
8
BLACK
6
CONTINUOUS
10
158.813
20
-124.421
11
158.911
21
-124.697
0
LINE
8
BLACK
6
CONTINUOUS
10
158.911
20
-124.697
11
158.97
21
-124.983
0
LINE
8
BLACK
6
CONTINUOUS
10
158.97
20
-124.983
11
158.99
21
-125.275
0
LINE
8
BLACK
6
CONTINUOUS
10
158.99
20
-125.275
11
158.99
21
-125.314
0
LINE
8
BLACK
6
CONTINUOUS
10
158.99
20
-125.314
11
158.99
21
-125.32
0
LINE
8
BLACK
6
CONTINUOUS
10
158.99
20
-125.32
11
158.99
21
-125.365
0
LINE
8
BLACK
6
CONTINUOUS
10
158.99
20
-125.365
11
158.964
21
-125.656
0
LINE
8
BLACK
6
CONTINUOUS
10
158.964
20
-125.656
11
158.898
21
-125.941
0
LINE
8
BLACK
6
CONTINUOUS
10
158.898
20
-125.941
11
158.795
21
-126.215
0
LINE
8
BLACK
6
CONTINUOUS
10
158.795
20
-126.215
11
158.655
21
-126.472
0
LINE
8
BLACK
6
CONTINUOUS
10
158.655
20
-126.472
11
158.482
21
-126.708
0
LINE
8
BLACK
6
CONTINUOUS
10
158.482
20
-126.708
11
158.279
21
-126.918
0
LINE
8
BLACK
6
CONTINUOUS
10
158.279
20
-126.918
11
158.048
21
-127.098
0
LINE
8
BLACK
6
CONTINUOUS
10
158.048
20
-127.098
11
157.796
21
-127.246
0
LINE
8
BLACK
6
CONTINUOUS
10
157.796
20
-127.246
11
157.526
21
-127.358
0
LINE
8
BLACK
6
CONTINUOUS
10
157.526
20
-127.358
11
157.243
21
-127.432
0
LINE
8
BLACK
6
CONTINUOUS
10
157.243
20
-127.432
11
156.953
21
-127.467
0
LINE
8
BLACK
6
CONTINUOUS
10
156.953
20
-127.467
11
156.66
21
-127.462
0
LINE
8
BLACK
6
CONTINUOUS
10
156.66
20
-127.462
11
156.371
21
-127.418
0
LINE
8
BLACK
6
CONTINUOUS
10
156.371
20
-127.418
11
156.091
21
-127.335
0
LINE
8
BLACK
6
CONTINUOUS
10
156.091
20
-127.335
11
155.824
21
-127.215
0
LINE
8
BLACK
6
CONTINUOUS
10
155.824
20
-127.215
11
155.576
21
-127.059
0
LINE
8
BLACK
6
CONTINUOUS
10
155.576
20
-127.059
11
155.352
21
-126.872
0
LINE
8
BLACK
6
CONTINUOUS
10
155.352
20
-126.872
11
155.155
21
-126.655
0
LINE
8
BLACK
6
CONTINUOUS
10
155.155
20
-126.655
11
154.989
21
-126.414
0
LINE
8
BLACK
6
CONTINUOUS
10
154.989
20
-126.414
11
154.858
21
-126.153
0
LINE
8
BLACK
6
CONTINUOUS
10
154.858
20
-126.153
11
154.763
21
-125.876
0
LINE
8
BLACK
6
CONTINUOUS
10
154.763
20
-125.876
11
154.707
21
-125.589
0
LINE
8
BLACK
6
CONTINUOUS
10
154.707
20
-125.589
11
154.69
21
-125.297
0
LINE
8
BLACK
6
CONTINUOUS
10
154.69
20
-125.297
11
154.692
21
-125.278
0
LINE
8
BLACK
6
CONTINUOUS
10
154.692
20
-125.278
11
154.69
21
-125.252
0
LINE
8
BLACK
6
CONTINUOUS
10
154.69
20
-125.252
11
154.713
21
-124.961
0
LINE
8
BLACK
6
CONTINUOUS
10
154.713
20
-124.961
11
154.775
21
-124.675
0
LINE
8
BLACK
6
CONTINUOUS
10
154.775
20
-124.675
11
154.876
21
-124.401
0
LINE
8
BLACK
6
CONTINUOUS
10
154.876
20
-124.401
11
155.013
21
-124.142
0
LINE
8
BLACK
6
CONTINUOUS
10
155.013
20
-124.142
11
155.183
21
-123.905
0
LINE
8
BLACK
6
CONTINUOUS
10
155.183
20
-123.905
11
155.385
21
-123.692
0
LINE
8
BLACK
6
CONTINUOUS
10
155.385
20
-123.692
11
155.613
21
-123.51
0
LINE
8
BLACK
6
CONTINUOUS
10
155.613
20
-123.51
11
155.864
21
-123.359
0
LINE
8
BLACK
6
CONTINUOUS
10
155.864
20
-123.359
11
156.133
21
-123.245
0
LINE
8
BLACK
6
CONTINUOUS
10
156.133
20
-123.245
11
156.415
21
-123.167
0
LINE
8
BLACK
6
CONTINUOUS
10
156.415
20
-123.167
11
156.705
21
-123.129
0
LINE
8
BLACK
6
CONTINUOUS
10
156.705
20
-123.129
11
156.997
21
-123.131
0
LINE
8
BLACK
6
CONTINUOUS
10
160.4
20
-117.45
11
159.4
21
-117.45
0
LINE
8
BLACK
6
CONTINUOUS
10
159.4
20
-117.45
11
159.4
21
-115.95
0
LINE
8
BLACK
6
CONTINUOUS
10
159.4
20
-115.95
11
160.4
21
-115.95
0
LINE
8
BLACK
6
CONTINUOUS
10
160.4
20
-115.95
11
160.4
21
-117.45
0
LINE
8
BLACK
6
CONTINUOUS
10
159.1
20
-117.45
11
158.1
21
-117.45
0
LINE
8
BLACK
6
CONTINUOUS
10
158.1
20
-117.45
11
158.1
21
-115.95
0
LINE
8
BLACK
6
CONTINUOUS
10
158.1
20
-115.95
11
159.1
21
-115.95
0
LINE
8
BLACK
6
CONTINUOUS
10
159.1
20
-115.95
11
159.1
21
-117.45
0
LINE
8
BLACK
6
CONTINUOUS
10
153.375
20
-116.45
11
151.675
21
-116.45
0
LINE
8
BLACK
6
CONTINUOUS
10
151.675
20
-116.45
11
151.675
21
-114.75
0
LINE
8
BLACK
6
CONTINUOUS
10
151.675
20
-114.75
11
153.375
21
-114.75
0
LINE
8
BLACK
6
CONTINUOUS
10
153.375
20
-114.75
11
153.375
21
-116.45
0
LINE
8
BLACK
6
CONTINUOUS
10
155.328
20
-114.792
11
155.49
21
-114.864
0
LINE
8
BLACK
6
CONTINUOUS
10
155.49
20
-114.864
11
155.634
21
-114.968
0
LINE
8
BLACK
6
CONTINUOUS
10
155.634
20
-114.968
11
155.753
21
-115.1
0
LINE
8
BLACK
6
CONTINUOUS
10
155.753
20
-115.1
11
155.842
21
-115.254
0
LINE
8
BLACK
6
CONTINUOUS
10
155.842
20
-115.254
11
155.896
21
-115.423
0
LINE
8
BLACK
6
CONTINUOUS
10
155.896
20
-115.423
11
155.915
21
-115.6
0
LINE
8
BLACK
6
CONTINUOUS
10
155.915
20
-115.6
11
155.896
21
-115.777
0
LINE
8
BLACK
6
CONTINUOUS
10
155.896
20
-115.777
11
155.842
21
-115.946
0
LINE
8
BLACK
6
CONTINUOUS
10
155.842
20
-115.946
11
155.753
21
-116.1
0
LINE
8
BLACK
6
CONTINUOUS
10
155.753
20
-116.1
11
155.634
21
-116.232
0
LINE
8
BLACK
6
CONTINUOUS
10
155.634
20
-116.232
11
155.49
21
-116.336
0
LINE
8
BLACK
6
CONTINUOUS
10
155.49
20
-116.336
11
155.328
21
-116.408
0
LINE
8
BLACK
6
CONTINUOUS
10
155.328
20
-116.408
11
155.154
21
-116.445
0
LINE
8
BLACK
6
CONTINUOUS
10
155.154
20
-116.445
11
154.976
21
-116.445
0
LINE
8
BLACK
6
CONTINUOUS
10
154.976
20
-116.445
11
154.802
21
-116.408
0
LINE
8
BLACK
6
CONTINUOUS
10
154.802
20
-116.408
11
154.64
21
-116.336
0
LINE
8
BLACK
6
CONTINUOUS
10
154.64
20
-116.336
11
154.496
21
-116.232
0
LINE
8
BLACK
6
CONTINUOUS
10
154.496
20
-116.232
11
154.377
21
-116.1
0
LINE
8
BLACK
6
CONTINUOUS
10
154.377
20
-116.1
11
154.288
21
-115.946
0
LINE
8
BLACK
6
CONTINUOUS
10
154.288
20
-115.946
11
154.234
21
-115.777
0
LINE
8
BLACK
6
CONTINUOUS
10
154.234
20
-115.777
11
154.215
21
-115.6
0
LINE
8
BLACK
6
CONTINUOUS
10
154.215
20
-115.6
11
154.234
21
-115.423
0
LINE
8
BLACK
6
CONTINUOUS
10
154.234
20
-115.423
11
154.288
21
-115.254
0
LINE
8
BLACK
6
CONTINUOUS
10
154.288
20
-115.254
11
154.377
21
-115.1
0
LINE
8
BLACK
6
CONTINUOUS
10
154.377
20
-115.1
11
154.496
21
-114.968
0
LINE
8
BLACK
6
CONTINUOUS
10
154.496
20
-114.968
11
154.64
21
-114.864
0
LINE
8
BLACK
6
CONTINUOUS
10
154.64
20
-114.864
11
154.802
21
-114.792
0
LINE
8
BLACK
6
CONTINUOUS
10
154.802
20
-114.792
11
154.976
21
-114.755
0
LINE
8
BLACK
6
CONTINUOUS
10
154.976
20
-114.755
11
155.154
21
-114.755
0
LINE
8
BLACK
6
CONTINUOUS
10
155.154
20
-114.755
11
155.328
21
-114.792
0
LINE
8
BLACK
6
CONTINUOUS
10
143.993
20
-113.492
11
144.155
21
-113.564
0
LINE
8
BLACK
6
CONTINUOUS
10
144.155
20
-113.564
11
144.299
21
-113.668
0
LINE
8
BLACK
6
CONTINUOUS
10
144.299
20
-113.668
11
144.418
21
-113.8
0
LINE
8
BLACK
6
CONTINUOUS
10
144.418
20
-113.8
11
144.507
21
-113.954
0
LINE
8
BLACK
6
CONTINUOUS
10
144.507
20
-113.954
11
144.561
21
-114.123
0
LINE
8
BLACK
6
CONTINUOUS
10
144.561
20
-114.123
11
144.58
21
-114.3
0
LINE
8
BLACK
6
CONTINUOUS
10
144.58
20
-114.3
11
144.561
21
-114.477
0
LINE
8
BLACK
6
CONTINUOUS
10
144.561
20
-114.477
11
144.507
21
-114.646
0
LINE
8
BLACK
6
CONTINUOUS
10
144.507
20
-114.646
11
144.418
21
-114.8
0
LINE
8
BLACK
6
CONTINUOUS
10
144.418
20
-114.8
11
144.299
21
-114.932
0
LINE
8
BLACK
6
CONTINUOUS
10
144.299
20
-114.932
11
144.155
21
-115.036
0
LINE
8
BLACK
6
CONTINUOUS
10
144.155
20
-115.036
11
143.993
21
-115.108
0
LINE
8
BLACK
6
CONTINUOUS
10
143.993
20
-115.108
11
143.819
21
-115.145
0
LINE
8
BLACK
6
CONTINUOUS
10
143.819
20
-115.145
11
143.641
21
-115.145
0
LINE
8
BLACK
6
CONTINUOUS
10
143.641
20
-115.145
11
143.467
21
-115.108
0
LINE
8
BLACK
6
CONTINUOUS
10
143.467
20
-115.108
11
143.305
21
-115.036
0
LINE
8
BLACK
6
CONTINUOUS
10
143.305
20
-115.036
11
143.161
21
-114.932
0
LINE
8
BLACK
6
CONTINUOUS
10
143.161
20
-114.932
11
143.042
21
-114.8
0
LINE
8
BLACK
6
CONTINUOUS
10
143.042
20
-114.8
11
142.953
21
-114.646
0
LINE
8
BLACK
6
CONTINUOUS
10
142.953
20
-114.646
11
142.899
21
-114.477
0
LINE
8
BLACK
6
CONTINUOUS
10
142.899
20
-114.477
11
142.88
21
-114.3
0
LINE
8
BLACK
6
CONTINUOUS
10
142.88
20
-114.3
11
142.899
21
-114.123
0
LINE
8
BLACK
6
CONTINUOUS
10
142.899
20
-114.123
11
142.953
21
-113.954
0
LINE
8
BLACK
6
CONTINUOUS
10
142.953
20
-113.954
11
143.042
21
-113.8
0
LINE
8
BLACK
6
CONTINUOUS
10
143.042
20
-113.8
11
143.161
21
-113.668
0
LINE
8
BLACK
6
CONTINUOUS
10
143.161
20
-113.668
11
143.305
21
-113.564
0
LINE
8
BLACK
6
CONTINUOUS
10
143.305
20
-113.564
11
143.467
21
-113.492
0
LINE
8
BLACK
6
CONTINUOUS
10
143.467
20
-113.492
11
143.641
21
-113.455
0
LINE
8
BLACK
6
CONTINUOUS
10
143.641
20
-113.455
11
143.819
21
-113.455
0
LINE
8
BLACK
6
CONTINUOUS
10
143.819
20
-113.455
11
143.993
21
-113.492
0
LINE
8
BLACK
6
CONTINUOUS
10
146.533
20
-113.492
11
146.695
21
-113.564
0
LINE
8
BLACK
6
CONTINUOUS
10
146.695
20
-113.564
11
146.839
21
-113.668
0
LINE
8
BLACK
6
CONTINUOUS
10
146.839
20
-113.668
11
146.958
21
-113.8
0
LINE
8
BLACK
6
CONTINUOUS
10
146.958
20
-113.8
11
147.047
21
-113.954
0
LINE
8
BLACK
6
CONTINUOUS
10
147.047
20
-113.954
11
147.101
21
-114.123
0
LINE
8
BLACK
6
CONTINUOUS
10
147.101
20
-114.123
11
147.12
21
-114.3
0
LINE
8
BLACK
6
CONTINUOUS
10
147.12
20
-114.3
11
147.101
21
-114.477
0
LINE
8
BLACK
6
CONTINUOUS
10
147.101
20
-114.477
11
147.047
21
-114.646
0
LINE
8
BLACK
6
CONTINUOUS
10
147.047
20
-114.646
11
146.958
21
-114.8
0
LINE
8
BLACK
6
CONTINUOUS
10
146.958
20
-114.8
11
146.839
21
-114.932
0
LINE
8
BLACK
6
CONTINUOUS
10
146.839
20
-114.932
11
146.695
21
-115.036
0
LINE
8
BLACK
6
CONTINUOUS
10
146.695
20
-115.036
11
146.533
21
-115.108
0
LINE
8
BLACK
6
CONTINUOUS
10
146.533
20
-115.108
11
146.359
21
-115.145
0
LINE
8
BLACK
6
CONTINUOUS
10
146.359
20
-115.145
11
146.181
21
-115.145
0
LINE
8
BLACK
6
CONTINUOUS
10
146.181
20
-115.145
11
146.007
21
-115.108
0
LINE
8
BLACK
6
CONTINUOUS
10
146.007
20
-115.108
11
145.845
21
-115.036
0
LINE
8
BLACK
6
CONTINUOUS
10
145.845
20
-115.036
11
145.701
21
-114.932
0
LINE
8
BLACK
6
CONTINUOUS
10
145.701
20
-114.932
11
145.582
21
-114.8
0
LINE
8
BLACK
6
CONTINUOUS
10
145.582
20
-114.8
11
145.493
21
-114.646
0
LINE
8
BLACK
6
CONTINUOUS
10
145.493
20
-114.646
11
145.439
21
-114.477
0
LINE
8
BLACK
6
CONTINUOUS
10
145.439
20
-114.477
11
145.42
21
-114.3
0
LINE
8
BLACK
6
CONTINUOUS
10
145.42
20
-114.3
11
145.439
21
-114.123
0
LINE
8
BLACK
6
CONTINUOUS
10
145.439
20
-114.123
11
145.493
21
-113.954
0
LINE
8
BLACK
6
CONTINUOUS
10
145.493
20
-113.954
11
145.582
21
-113.8
0
LINE
8
BLACK
6
CONTINUOUS
10
145.582
20
-113.8
11
145.701
21
-113.668
0
LINE
8
BLACK
6
CONTINUOUS
10
145.701
20
-113.668
11
145.845
21
-113.564
0
LINE
8
BLACK
6
CONTINUOUS
10
145.845
20
-113.564
11
146.007
21
-113.492
0
LINE
8
BLACK
6
CONTINUOUS
10
146.007
20
-113.492
11
146.181
21
-113.455
0
LINE
8
BLACK
6
CONTINUOUS
10
146.181
20
-113.455
11
146.359
21
-113.455
0
LINE
8
BLACK
6
CONTINUOUS
10
146.359
20
-113.455
11
146.533
21
-113.492
0
LINE
8
BLACK
6
CONTINUOUS
10
162.131
20
-112.75
11
162.293
21
-112.822
0
LINE
8
BLACK
6
CONTINUOUS
10
162.293
20
-112.822
11
162.437
21
-112.927
0
LINE
8
BLACK
6
CONTINUOUS
10
162.437
20
-112.927
11
162.556
21
-113.059
0
LINE
8
BLACK
6
CONTINUOUS
10
162.556
20
-113.059
11
162.644
21
-113.213
0
LINE
8
BLACK
6
CONTINUOUS
10
162.644
20
-113.213
11
162.699
21
-113.382
0
LINE
8
BLACK
6
CONTINUOUS
10
162.699
20
-113.382
11
162.718
21
-113.559
0
LINE
8
BLACK
6
CONTINUOUS
10
162.718
20
-113.559
11
162.699
21
-113.735
0
LINE
8
BLACK
6
CONTINUOUS
10
162.699
20
-113.735
11
162.644
21
-113.904
0
LINE
8
BLACK
6
CONTINUOUS
10
162.644
20
-113.904
11
162.556
21
-114.058
0
LINE
8
BLACK
6
CONTINUOUS
10
162.556
20
-114.058
11
162.437
21
-114.19
0
LINE
8
BLACK
6
CONTINUOUS
10
162.437
20
-114.19
11
162.293
21
-114.295
0
LINE
8
BLACK
6
CONTINUOUS
10
162.293
20
-114.295
11
162.131
21
-114.367
0
LINE
8
BLACK
6
CONTINUOUS
10
162.131
20
-114.367
11
161.957
21
-114.404
0
LINE
8
BLACK
6
CONTINUOUS
10
161.957
20
-114.404
11
161.779
21
-114.404
0
LINE
8
BLACK
6
CONTINUOUS
10
161.779
20
-114.404
11
161.605
21
-114.367
0
LINE
8
BLACK
6
CONTINUOUS
10
161.605
20
-114.367
11
161.443
21
-114.295
0
LINE
8
BLACK
6
CONTINUOUS
10
161.443
20
-114.295
11
161.299
21
-114.19
0
LINE
8
BLACK
6
CONTINUOUS
10
161.299
20
-114.19
11
161.18
21
-114.058
0
LINE
8
BLACK
6
CONTINUOUS
10
161.18
20
-114.058
11
161.091
21
-113.904
0
LINE
8
BLACK
6
CONTINUOUS
10
161.091
20
-113.904
11
161.036
21
-113.735
0
LINE
8
BLACK
6
CONTINUOUS
10
161.036
20
-113.735
11
161.018
21
-113.559
0
LINE
8
BLACK
6
CONTINUOUS
10
161.018
20
-113.559
11
161.036
21
-113.382
0
LINE
8
BLACK
6
CONTINUOUS
10
161.036
20
-113.382
11
161.091
21
-113.213
0
LINE
8
BLACK
6
CONTINUOUS
10
161.091
20
-113.213
11
161.18
21
-113.059
0
LINE
8
BLACK
6
CONTINUOUS
10
161.18
20
-113.059
11
161.299
21
-112.927
0
LINE
8
BLACK
6
CONTINUOUS
10
161.299
20
-112.927
11
161.443
21
-112.822
0
LINE
8
BLACK
6
CONTINUOUS
10
161.443
20
-112.822
11
161.605
21
-112.75
0
LINE
8
BLACK
6
CONTINUOUS
10
161.605
20
-112.75
11
161.779
21
-112.713
0
LINE
8
BLACK
6
CONTINUOUS
10
161.779
20
-112.713
11
161.957
21
-112.713
0
LINE
8
BLACK
6
CONTINUOUS
10
161.957
20
-112.713
11
162.131
21
-112.75
0
LINE
8
BLACK
6
CONTINUOUS
10
136.787
20
-111.932
11
136.949
21
-112.004
0
LINE
8
BLACK
6
CONTINUOUS
10
136.949
20
-112.004
11
137.093
21
-112.108
0
LINE
8
BLACK
6
CONTINUOUS
10
137.093
20
-112.108
11
137.212
21
-112.24
0
LINE
8
BLACK
6
CONTINUOUS
10
137.212
20
-112.24
11
137.301
21
-112.394
0
LINE
8
BLACK
6
CONTINUOUS
10
137.301
20
-112.394
11
137.356
21
-112.563
0
LINE
8
BLACK
6
CONTINUOUS
10
137.356
20
-112.563
11
137.374
21
-112.74
0
LINE
8
BLACK
6
CONTINUOUS
10
137.374
20
-112.74
11
137.356
21
-112.917
0
LINE
8
BLACK
6
CONTINUOUS
10
137.356
20
-112.917
11
137.301
21
-113.086
0
LINE
8
BLACK
6
CONTINUOUS
10
137.301
20
-113.086
11
137.266
21
-113.147
0
LINE
8
BLACK
6
CONTINUOUS
10
137.266
20
-113.147
11
137.25
21
-113.181
0
LINE
8
BLACK
6
CONTINUOUS
10
137.25
20
-113.181
11
137.207
21
-113.252
0
LINE
8
BLACK
6
CONTINUOUS
10
137.207
20
-113.252
11
137.157
21
-113.319
0
LINE
8
BLACK
6
CONTINUOUS
10
137.157
20
-113.319
11
137.101
21
-113.381
0
LINE
8
BLACK
6
CONTINUOUS
10
137.101
20
-113.381
11
137.039
21
-113.437
0
LINE
8
BLACK
6
CONTINUOUS
10
137.039
20
-113.437
11
136.972
21
-113.487
0
LINE
8
BLACK
6
CONTINUOUS
10
136.972
20
-113.487
11
136.901
21
-113.53
0
LINE
8
BLACK
6
CONTINUOUS
10
136.901
20
-113.53
11
136.825
21
-113.565
0
LINE
8
BLACK
6
CONTINUOUS
10
136.825
20
-113.565
11
136.747
21
-113.593
0
LINE
8
BLACK
6
CONTINUOUS
10
136.747
20
-113.593
11
136.666
21
-113.614
0
LINE
8
BLACK
6
CONTINUOUS
10
136.666
20
-113.614
11
136.583
21
-113.626
0
LINE
8
BLACK
6
CONTINUOUS
10
136.583
20
-113.626
11
136.5
21
-113.63
0
LINE
8
BLACK
6
CONTINUOUS
10
136.5
20
-113.63
11
136.417
21
-113.626
0
LINE
8
BLACK
6
CONTINUOUS
10
136.417
20
-113.626
11
136.334
21
-113.614
0
LINE
8
BLACK
6
CONTINUOUS
10
136.334
20
-113.614
11
136.253
21
-113.593
0
LINE
8
BLACK
6
CONTINUOUS
10
136.253
20
-113.593
11
136.175
21
-113.565
0
LINE
8
BLACK
6
CONTINUOUS
10
136.175
20
-113.565
11
136.099
21
-113.53
0
LINE
8
BLACK
6
CONTINUOUS
10
136.099
20
-113.53
11
136.028
21
-113.487
0
LINE
8
BLACK
6
CONTINUOUS
10
136.028
20
-113.487
11
135.961
21
-113.437
0
LINE
8
BLACK
6
CONTINUOUS
10
135.961
20
-113.437
11
135.899
21
-113.381
0
LINE
8
BLACK
6
CONTINUOUS
10
135.899
20
-113.381
11
135.843
21
-113.319
0
LINE
8
BLACK
6
CONTINUOUS
10
135.843
20
-113.319
11
135.793
21
-113.252
0
LINE
8
BLACK
6
CONTINUOUS
10
135.793
20
-113.252
11
135.75
21
-113.181
0
LINE
8
BLACK
6
CONTINUOUS
10
135.75
20
-113.181
11
135.715
21
-113.105
0
LINE
8
BLACK
6
CONTINUOUS
10
135.715
20
-113.105
11
135.687
21
-113.027
0
LINE
8
BLACK
6
CONTINUOUS
10
135.687
20
-113.027
11
135.666
21
-112.946
0
LINE
8
BLACK
6
CONTINUOUS
10
135.666
20
-112.946
11
135.654
21
-112.863
0
LINE
8
BLACK
6
CONTINUOUS
10
135.654
20
-112.863
11
135.65
21
-112.78
0
LINE
8
BLACK
6
CONTINUOUS
10
135.65
20
-112.78
11
135.654
21
-112.697
0
LINE
8
BLACK
6
CONTINUOUS
10
135.654
20
-112.697
11
135.666
21
-112.614
0
LINE
8
BLACK
6
CONTINUOUS
10
135.666
20
-112.614
11
135.687
21
-112.533
0
LINE
8
BLACK
6
CONTINUOUS
10
135.687
20
-112.533
11
135.715
21
-112.455
0
LINE
8
BLACK
6
CONTINUOUS
10
135.715
20
-112.455
11
135.75
21
-112.379
0
LINE
8
BLACK
6
CONTINUOUS
10
135.75
20
-112.379
11
135.793
21
-112.308
0
LINE
8
BLACK
6
CONTINUOUS
10
135.793
20
-112.308
11
135.814
21
-112.28
0
LINE
8
BLACK
6
CONTINUOUS
10
135.814
20
-112.28
11
135.837
21
-112.24
0
LINE
8
BLACK
6
CONTINUOUS
10
135.837
20
-112.24
11
135.956
21
-112.108
0
LINE
8
BLACK
6
CONTINUOUS
10
135.956
20
-112.108
11
136.099
21
-112.004
0
LINE
8
BLACK
6
CONTINUOUS
10
136.099
20
-112.004
11
136.262
21
-111.932
0
LINE
8
BLACK
6
CONTINUOUS
10
136.262
20
-111.932
11
136.436
21
-111.895
0
LINE
8
BLACK
6
CONTINUOUS
10
136.436
20
-111.895
11
136.613
21
-111.895
0
LINE
8
BLACK
6
CONTINUOUS
10
136.613
20
-111.895
11
136.787
21
-111.932
0
LINE
8
BLACK
6
CONTINUOUS
10
161.956
20
-110.158
11
162.039
21
-110.17
0
LINE
8
BLACK
6
CONTINUOUS
10
162.039
20
-110.17
11
162.12
21
-110.19
0
LINE
8
BLACK
6
CONTINUOUS
10
162.12
20
-110.19
11
162.198
21
-110.218
0
LINE
8
BLACK
6
CONTINUOUS
10
162.198
20
-110.218
11
162.274
21
-110.254
0
LINE
8
BLACK
6
CONTINUOUS
10
162.274
20
-110.254
11
162.345
21
-110.297
0
LINE
8
BLACK
6
CONTINUOUS
10
162.345
20
-110.297
11
162.412
21
-110.347
0
LINE
8
BLACK
6
CONTINUOUS
10
162.412
20
-110.347
11
162.474
21
-110.403
0
LINE
8
BLACK
6
CONTINUOUS
10
162.474
20
-110.403
11
162.53
21
-110.464
0
LINE
8
BLACK
6
CONTINUOUS
10
162.53
20
-110.464
11
162.58
21
-110.531
0
LINE
8
BLACK
6
CONTINUOUS
10
162.58
20
-110.531
11
162.622
21
-110.603
0
LINE
8
BLACK
6
CONTINUOUS
10
162.622
20
-110.603
11
162.658
21
-110.678
0
LINE
8
BLACK
6
CONTINUOUS
10
162.658
20
-110.678
11
162.686
21
-110.757
0
LINE
8
BLACK
6
CONTINUOUS
10
162.686
20
-110.757
11
162.707
21
-110.838
0
LINE
8
BLACK
6
CONTINUOUS
10
162.707
20
-110.838
11
162.719
21
-110.92
0
LINE
8
BLACK
6
CONTINUOUS
10
162.719
20
-110.92
11
162.723
21
-111.004
0
LINE
8
BLACK
6
CONTINUOUS
10
162.723
20
-111.004
11
162.719
21
-111.087
0
LINE
8
BLACK
6
CONTINUOUS
10
162.719
20
-111.087
11
162.707
21
-111.169
0
LINE
8
BLACK
6
CONTINUOUS
10
162.707
20
-111.169
11
162.686
21
-111.25
0
LINE
8
BLACK
6
CONTINUOUS
10
162.686
20
-111.25
11
162.658
21
-111.329
0
LINE
8
BLACK
6
CONTINUOUS
10
162.658
20
-111.329
11
162.651
21
-111.344
0
LINE
8
BLACK
6
CONTINUOUS
10
162.651
20
-111.344
11
162.644
21
-111.364
0
LINE
8
BLACK
6
CONTINUOUS
10
162.644
20
-111.364
11
162.628
21
-111.393
0
LINE
8
BLACK
6
CONTINUOUS
10
162.628
20
-111.393
11
162.622
21
-111.404
0
LINE
8
BLACK
6
CONTINUOUS
10
162.622
20
-111.404
11
162.59
21
-111.458
0
LINE
8
BLACK
6
CONTINUOUS
10
162.59
20
-111.458
11
162.556
21
-111.518
0
LINE
8
BLACK
6
CONTINUOUS
10
162.556
20
-111.518
11
162.437
21
-111.65
0
LINE
8
BLACK
6
CONTINUOUS
10
162.437
20
-111.65
11
162.293
21
-111.755
0
LINE
8
BLACK
6
CONTINUOUS
10
162.293
20
-111.755
11
162.131
21
-111.827
0
LINE
8
BLACK
6
CONTINUOUS
10
162.131
20
-111.827
11
161.957
21
-111.864
0
LINE
8
BLACK
6
CONTINUOUS
10
161.957
20
-111.864
11
161.779
21
-111.864
0
LINE
8
BLACK
6
CONTINUOUS
10
161.779
20
-111.864
11
161.605
21
-111.827
0
LINE
8
BLACK
6
CONTINUOUS
10
161.605
20
-111.827
11
161.443
21
-111.755
0
LINE
8
BLACK
6
CONTINUOUS
10
161.443
20
-111.755
11
161.299
21
-111.65
0
LINE
8
BLACK
6
CONTINUOUS
10
161.299
20
-111.65
11
161.18
21
-111.518
0
LINE
8
BLACK
6
CONTINUOUS
10
161.18
20
-111.518
11
161.091
21
-111.364
0
LINE
8
BLACK
6
CONTINUOUS
10
161.091
20
-111.364
11
161.036
21
-111.195
0
LINE
8
BLACK
6
CONTINUOUS
10
161.036
20
-111.195
11
161.018
21
-111.019
0
LINE
8
BLACK
6
CONTINUOUS
10
161.018
20
-111.019
11
161.026
21
-110.942
0
LINE
8
BLACK
6
CONTINUOUS
10
161.026
20
-110.942
11
161.027
21
-110.92
0
LINE
8
BLACK
6
CONTINUOUS
10
161.027
20
-110.92
11
161.031
21
-110.891
0
LINE
8
BLACK
6
CONTINUOUS
10
161.031
20
-110.891
11
161.036
21
-110.842
0
LINE
8
BLACK
6
CONTINUOUS
10
161.036
20
-110.842
11
161.044
21
-110.819
0
LINE
8
BLACK
6
CONTINUOUS
10
161.044
20
-110.819
11
161.059
21
-110.757
0
LINE
8
BLACK
6
CONTINUOUS
10
161.059
20
-110.757
11
161.088
21
-110.678
0
LINE
8
BLACK
6
CONTINUOUS
10
161.088
20
-110.678
11
161.123
21
-110.603
0
LINE
8
BLACK
6
CONTINUOUS
10
161.123
20
-110.603
11
161.166
21
-110.531
0
LINE
8
BLACK
6
CONTINUOUS
10
161.166
20
-110.531
11
161.216
21
-110.464
0
LINE
8
BLACK
6
CONTINUOUS
10
161.216
20
-110.464
11
161.272
21
-110.403
0
LINE
8
BLACK
6
CONTINUOUS
10
161.272
20
-110.403
11
161.334
21
-110.347
0
LINE
8
BLACK
6
CONTINUOUS
10
161.334
20
-110.347
11
161.401
21
-110.297
0
LINE
8
BLACK
6
CONTINUOUS
10
161.401
20
-110.297
11
161.472
21
-110.254
0
LINE
8
BLACK
6
CONTINUOUS
10
161.472
20
-110.254
11
161.548
21
-110.218
0
LINE
8
BLACK
6
CONTINUOUS
10
161.548
20
-110.218
11
161.626
21
-110.19
0
LINE
8
BLACK
6
CONTINUOUS
10
161.626
20
-110.19
11
161.707
21
-110.17
0
LINE
8
BLACK
6
CONTINUOUS
10
161.707
20
-110.17
11
161.79
21
-110.158
0
LINE
8
BLACK
6
CONTINUOUS
10
161.79
20
-110.158
11
161.873
21
-110.154
0
LINE
8
BLACK
6
CONTINUOUS
10
161.873
20
-110.154
11
161.956
21
-110.158
0
LINE
8
BLACK
6
CONTINUOUS
10
150.525
20
-111.15
11
148.825
21
-111.15
0
LINE
8
BLACK
6
CONTINUOUS
10
148.825
20
-111.15
11
148.825
21
-109.45
0
LINE
8
BLACK
6
CONTINUOUS
10
148.825
20
-109.45
11
150.525
21
-109.45
0
LINE
8
BLACK
6
CONTINUOUS
10
150.525
20
-109.45
11
150.525
21
-111.15
0
LINE
8
BLACK
6
CONTINUOUS
10
152.478
20
-109.492
11
152.64
21
-109.564
0
LINE
8
BLACK
6
CONTINUOUS
10
152.64
20
-109.564
11
152.784
21
-109.668
0
LINE
8
BLACK
6
CONTINUOUS
10
152.784
20
-109.668
11
152.903
21
-109.8
0
LINE
8
BLACK
6
CONTINUOUS
10
152.903
20
-109.8
11
152.992
21
-109.954
0
LINE
8
BLACK
6
CONTINUOUS
10
152.992
20
-109.954
11
153.046
21
-110.123
0
LINE
8
BLACK
6
CONTINUOUS
10
153.046
20
-110.123
11
153.065
21
-110.3
0
LINE
8
BLACK
6
CONTINUOUS
10
153.065
20
-110.3
11
153.046
21
-110.477
0
LINE
8
BLACK
6
CONTINUOUS
10
153.046
20
-110.477
11
152.992
21
-110.646
0
LINE
8
BLACK
6
CONTINUOUS
10
152.992
20
-110.646
11
152.903
21
-110.8
0
LINE
8
BLACK
6
CONTINUOUS
10
152.903
20
-110.8
11
152.784
21
-110.932
0
LINE
8
BLACK
6
CONTINUOUS
10
152.784
20
-110.932
11
152.64
21
-111.036
0
LINE
8
BLACK
6
CONTINUOUS
10
152.64
20
-111.036
11
152.478
21
-111.108
0
LINE
8
BLACK
6
CONTINUOUS
10
152.478
20
-111.108
11
152.304
21
-111.145
0
LINE
8
BLACK
6
CONTINUOUS
10
152.304
20
-111.145
11
152.126
21
-111.145
0
LINE
8
BLACK
6
CONTINUOUS
10
152.126
20
-111.145
11
151.952
21
-111.108
0
LINE
8
BLACK
6
CONTINUOUS
10
151.952
20
-111.108
11
151.79
21
-111.036
0
LINE
8
BLACK
6
CONTINUOUS
10
151.79
20
-111.036
11
151.646
21
-110.932
0
LINE
8
BLACK
6
CONTINUOUS
10
151.646
20
-110.932
11
151.527
21
-110.8
0
LINE
8
BLACK
6
CONTINUOUS
10
151.527
20
-110.8
11
151.438
21
-110.646
0
LINE
8
BLACK
6
CONTINUOUS
10
151.438
20
-110.646
11
151.384
21
-110.477
0
LINE
8
BLACK
6
CONTINUOUS
10
151.384
20
-110.477
11
151.365
21
-110.3
0
LINE
8
BLACK
6
CONTINUOUS
10
151.365
20
-110.3
11
151.384
21
-110.123
0
LINE
8
BLACK
6
CONTINUOUS
10
151.384
20
-110.123
11
151.438
21
-109.954
0
LINE
8
BLACK
6
CONTINUOUS
10
151.438
20
-109.954
11
151.527
21
-109.8
0
LINE
8
BLACK
6
CONTINUOUS
10
151.527
20
-109.8
11
151.646
21
-109.668
0
LINE
8
BLACK
6
CONTINUOUS
10
151.646
20
-109.668
11
151.79
21
-109.564
0
LINE
8
BLACK
6
CONTINUOUS
10
151.79
20
-109.564
11
151.952
21
-109.492
0
LINE
8
BLACK
6
CONTINUOUS
10
151.952
20
-109.492
11
152.126
21
-109.455
0
LINE
8
BLACK
6
CONTINUOUS
10
152.126
20
-109.455
11
152.304
21
-109.455
0
LINE
8
BLACK
6
CONTINUOUS
10
152.304
20
-109.455
11
152.478
21
-109.492
0
LINE
8
BLACK
6
CONTINUOUS
10
136.787
20
-109.392
11
136.949
21
-109.464
0
LINE
8
BLACK
6
CONTINUOUS
10
136.949
20
-109.464
11
137.093
21
-109.568
0
LINE
8
BLACK
6
CONTINUOUS
10
137.093
20
-109.568
11
137.212
21
-109.7
0
LINE
8
BLACK
6
CONTINUOUS
10
137.212
20
-109.7
11
137.301
21
-109.854
0
LINE
8
BLACK
6
CONTINUOUS
10
137.301
20
-109.854
11
137.356
21
-110.023
0
LINE
8
BLACK
6
CONTINUOUS
10
137.356
20
-110.023
11
137.374
21
-110.2
0
LINE
8
BLACK
6
CONTINUOUS
10
137.374
20
-110.2
11
137.356
21
-110.377
0
LINE
8
BLACK
6
CONTINUOUS
10
137.356
20
-110.377
11
137.301
21
-110.546
0
LINE
8
BLACK
6
CONTINUOUS
10
137.301
20
-110.546
11
137.266
21
-110.607
0
LINE
8
BLACK
6
CONTINUOUS
10
137.266
20
-110.607
11
137.25
21
-110.641
0
LINE
8
BLACK
6
CONTINUOUS
10
137.25
20
-110.641
11
137.207
21
-110.712
0
LINE
8
BLACK
6
CONTINUOUS
10
137.207
20
-110.712
11
137.157
21
-110.779
0
LINE
8
BLACK
6
CONTINUOUS
10
137.157
20
-110.779
11
137.101
21
-110.841
0
LINE
8
BLACK
6
CONTINUOUS
10
137.101
20
-110.841
11
137.039
21
-110.897
0
LINE
8
BLACK
6
CONTINUOUS
10
137.039
20
-110.897
11
136.972
21
-110.947
0
LINE
8
BLACK
6
CONTINUOUS
10
136.972
20
-110.947
11
136.901
21
-110.99
0
LINE
8
BLACK
6
CONTINUOUS
10
136.901
20
-110.99
11
136.825
21
-111.025
0
LINE
8
BLACK
6
CONTINUOUS
10
136.825
20
-111.025
11
136.747
21
-111.053
0
LINE
8
BLACK
6
CONTINUOUS
10
136.747
20
-111.053
11
136.666
21
-111.074
0
LINE
8
BLACK
6
CONTINUOUS
10
136.666
20
-111.074
11
136.583
21
-111.086
0
LINE
8
BLACK
6
CONTINUOUS
10
136.583
20
-111.086
11
136.5
21
-111.09
0
LINE
8
BLACK
6
CONTINUOUS
10
136.5
20
-111.09
11
136.417
21
-111.086
0
LINE
8
BLACK
6
CONTINUOUS
10
136.417
20
-111.086
11
136.334
21
-111.074
0
LINE
8
BLACK
6
CONTINUOUS
10
136.334
20
-111.074
11
136.253
21
-111.053
0
LINE
8
BLACK
6
CONTINUOUS
10
136.253
20
-111.053
11
136.175
21
-111.025
0
LINE
8
BLACK
6
CONTINUOUS
10
136.175
20
-111.025
11
136.099
21
-110.99
0
LINE
8
BLACK
6
CONTINUOUS
10
136.099
20
-110.99
11
136.028
21
-110.947
0
LINE
8
BLACK
6
CONTINUOUS
10
136.028
20
-110.947
11
135.961
21
-110.897
0
LINE
8
BLACK
6
CONTINUOUS
10
135.961
20
-110.897
11
135.899
21
-110.841
0
LINE
8
BLACK
6
CONTINUOUS
10
135.899
20
-110.841
11
135.843
21
-110.779
0
LINE
8
BLACK
6
CONTINUOUS
10
135.843
20
-110.779
11
135.793
21
-110.712
0
LINE
8
BLACK
6
CONTINUOUS
10
135.793
20
-110.712
11
135.75
21
-110.641
0
LINE
8
BLACK
6
CONTINUOUS
10
135.75
20
-110.641
11
135.715
21
-110.565
0
LINE
8
BLACK
6
CONTINUOUS
10
135.715
20
-110.565
11
135.687
21
-110.487
0
LINE
8
BLACK
6
CONTINUOUS
10
135.687
20
-110.487
11
135.666
21
-110.406
0
LINE
8
BLACK
6
CONTINUOUS
10
135.666
20
-110.406
11
135.654
21
-110.323
0
LINE
8
BLACK
6
CONTINUOUS
10
135.654
20
-110.323
11
135.65
21
-110.24
0
LINE
8
BLACK
6
CONTINUOUS
10
135.65
20
-110.24
11
135.654
21
-110.157
0
LINE
8
BLACK
6
CONTINUOUS
10
135.654
20
-110.157
11
135.666
21
-110.074
0
LINE
8
BLACK
6
CONTINUOUS
10
135.666
20
-110.074
11
135.687
21
-109.993
0
LINE
8
BLACK
6
CONTINUOUS
10
135.687
20
-109.993
11
135.715
21
-109.915
0
LINE
8
BLACK
6
CONTINUOUS
10
135.715
20
-109.915
11
135.75
21
-109.839
0
LINE
8
BLACK
6
CONTINUOUS
10
135.75
20
-109.839
11
135.793
21
-109.768
0
LINE
8
BLACK
6
CONTINUOUS
10
135.793
20
-109.768
11
135.814
21
-109.74
0
LINE
8
BLACK
6
CONTINUOUS
10
135.814
20
-109.74
11
135.837
21
-109.7
0
LINE
8
BLACK
6
CONTINUOUS
10
135.837
20
-109.7
11
135.956
21
-109.568
0
LINE
8
BLACK
6
CONTINUOUS
10
135.956
20
-109.568
11
136.099
21
-109.464
0
LINE
8
BLACK
6
CONTINUOUS
10
136.099
20
-109.464
11
136.262
21
-109.392
0
LINE
8
BLACK
6
CONTINUOUS
10
136.262
20
-109.392
11
136.436
21
-109.355
0
LINE
8
BLACK
6
CONTINUOUS
10
136.436
20
-109.355
11
136.613
21
-109.355
0
LINE
8
BLACK
6
CONTINUOUS
10
136.613
20
-109.355
11
136.787
21
-109.392
0
LINE
8
BLACK
6
CONTINUOUS
10
162.131
20
-107.67
11
162.293
21
-107.742
0
LINE
8
BLACK
6
CONTINUOUS
10
162.293
20
-107.742
11
162.437
21
-107.847
0
LINE
8
BLACK
6
CONTINUOUS
10
162.437
20
-107.847
11
162.556
21
-107.979
0
LINE
8
BLACK
6
CONTINUOUS
10
162.556
20
-107.979
11
162.644
21
-108.133
0
LINE
8
BLACK
6
CONTINUOUS
10
162.644
20
-108.133
11
162.699
21
-108.302
0
LINE
8
BLACK
6
CONTINUOUS
10
162.699
20
-108.302
11
162.718
21
-108.479
0
LINE
8
BLACK
6
CONTINUOUS
10
162.718
20
-108.479
11
162.699
21
-108.655
0
LINE
8
BLACK
6
CONTINUOUS
10
162.699
20
-108.655
11
162.644
21
-108.824
0
LINE
8
BLACK
6
CONTINUOUS
10
162.644
20
-108.824
11
162.556
21
-108.978
0
LINE
8
BLACK
6
CONTINUOUS
10
162.556
20
-108.978
11
162.437
21
-109.11
0
LINE
8
BLACK
6
CONTINUOUS
10
162.437
20
-109.11
11
162.293
21
-109.215
0
LINE
8
BLACK
6
CONTINUOUS
10
162.293
20
-109.215
11
162.131
21
-109.287
0
LINE
8
BLACK
6
CONTINUOUS
10
162.131
20
-109.287
11
161.957
21
-109.324
0
LINE
8
BLACK
6
CONTINUOUS
10
161.957
20
-109.324
11
161.779
21
-109.324
0
LINE
8
BLACK
6
CONTINUOUS
10
161.779
20
-109.324
11
161.605
21
-109.287
0
LINE
8
BLACK
6
CONTINUOUS
10
161.605
20
-109.287
11
161.443
21
-109.215
0
LINE
8
BLACK
6
CONTINUOUS
10
161.443
20
-109.215
11
161.299
21
-109.11
0
LINE
8
BLACK
6
CONTINUOUS
10
161.299
20
-109.11
11
161.18
21
-108.978
0
LINE
8
BLACK
6
CONTINUOUS
10
161.18
20
-108.978
11
161.091
21
-108.824
0
LINE
8
BLACK
6
CONTINUOUS
10
161.091
20
-108.824
11
161.036
21
-108.655
0
LINE
8
BLACK
6
CONTINUOUS
10
161.036
20
-108.655
11
161.018
21
-108.479
0
LINE
8
BLACK
6
CONTINUOUS
10
161.018
20
-108.479
11
161.036
21
-108.302
0
LINE
8
BLACK
6
CONTINUOUS
10
161.036
20
-108.302
11
161.091
21
-108.133
0
LINE
8
BLACK
6
CONTINUOUS
10
161.091
20
-108.133
11
161.18
21
-107.979
0
LINE
8
BLACK
6
CONTINUOUS
10
161.18
20
-107.979
11
161.299
21
-107.847
0
LINE
8
BLACK
6
CONTINUOUS
10
161.299
20
-107.847
11
161.443
21
-107.742
0
LINE
8
BLACK
6
CONTINUOUS
10
161.443
20
-107.742
11
161.605
21
-107.67
0
LINE
8
BLACK
6
CONTINUOUS
10
161.605
20
-107.67
11
161.779
21
-107.633
0
LINE
8
BLACK
6
CONTINUOUS
10
161.779
20
-107.633
11
161.957
21
-107.633
0
LINE
8
BLACK
6
CONTINUOUS
10
161.957
20
-107.633
11
162.131
21
-107.67
0
LINE
8
BLACK
6
CONTINUOUS
10
132.701
20
-107.84
11
132.766
21
-107.883
0
LINE
8
BLACK
6
CONTINUOUS
10
132.766
20
-107.883
11
132.81
21
-107.948
0
LINE
8
BLACK
6
CONTINUOUS
10
132.81
20
-107.948
11
132.825
21
-108.024
0
LINE
8
BLACK
6
CONTINUOUS
10
132.825
20
-108.024
11
132.825
21
-108.424
0
LINE
8
BLACK
6
CONTINUOUS
10
132.825
20
-108.424
11
132.81
21
-108.501
0
LINE
8
BLACK
6
CONTINUOUS
10
132.81
20
-108.501
11
132.766
21
-108.566
0
LINE
8
BLACK
6
CONTINUOUS
10
132.766
20
-108.566
11
132.701
21
-108.609
0
LINE
8
BLACK
6
CONTINUOUS
10
132.701
20
-108.609
11
132.625
21
-108.624
0
LINE
8
BLACK
6
CONTINUOUS
10
132.625
20
-108.624
11
132.075
21
-108.624
0
LINE
8
BLACK
6
CONTINUOUS
10
132.075
20
-108.624
11
131.998
21
-108.609
0
LINE
8
BLACK
6
CONTINUOUS
10
131.998
20
-108.609
11
131.933
21
-108.566
0
LINE
8
BLACK
6
CONTINUOUS
10
131.933
20
-108.566
11
131.89
21
-108.501
0
LINE
8
BLACK
6
CONTINUOUS
10
131.89
20
-108.501
11
131.875
21
-108.424
0
LINE
8
BLACK
6
CONTINUOUS
10
131.875
20
-108.424
11
131.875
21
-108.024
0
LINE
8
BLACK
6
CONTINUOUS
10
131.875
20
-108.024
11
131.89
21
-107.948
0
LINE
8
BLACK
6
CONTINUOUS
10
131.89
20
-107.948
11
131.933
21
-107.883
0
LINE
8
BLACK
6
CONTINUOUS
10
131.933
20
-107.883
11
131.998
21
-107.84
0
LINE
8
BLACK
6
CONTINUOUS
10
131.998
20
-107.84
11
132.075
21
-107.824
0
LINE
8
BLACK
6
CONTINUOUS
10
132.075
20
-107.824
11
132.625
21
-107.824
0
LINE
8
BLACK
6
CONTINUOUS
10
132.625
20
-107.824
11
132.701
21
-107.84
0
LINE
8
BLACK
6
CONTINUOUS
10
130.667
20
-107.707
11
130.738
21
-107.754
0
LINE
8
BLACK
6
CONTINUOUS
10
130.738
20
-107.754
11
130.785
21
-107.825
0
LINE
8
BLACK
6
CONTINUOUS
10
130.785
20
-107.825
11
130.802
21
-107.909
0
LINE
8
BLACK
6
CONTINUOUS
10
130.802
20
-107.909
11
130.802
21
-108.346
0
LINE
8
BLACK
6
CONTINUOUS
10
130.802
20
-108.346
11
130.785
21
-108.43
0
LINE
8
BLACK
6
CONTINUOUS
10
130.785
20
-108.43
11
130.738
21
-108.501
0
LINE
8
BLACK
6
CONTINUOUS
10
130.738
20
-108.501
11
130.667
21
-108.549
0
LINE
8
BLACK
6
CONTINUOUS
10
130.667
20
-108.549
11
130.583
21
-108.565
0
LINE
8
BLACK
6
CONTINUOUS
10
130.583
20
-108.565
11
130.071
21
-108.565
0
LINE
8
BLACK
6
CONTINUOUS
10
130.071
20
-108.565
11
129.987
21
-108.549
0
LINE
8
BLACK
6
CONTINUOUS
10
129.987
20
-108.549
11
129.916
21
-108.501
0
LINE
8
BLACK
6
CONTINUOUS
10
129.916
20
-108.501
11
129.868
21
-108.43
0
LINE
8
BLACK
6
CONTINUOUS
10
129.868
20
-108.43
11
129.852
21
-108.346
0
LINE
8
BLACK
6
CONTINUOUS
10
129.852
20
-108.346
11
129.852
21
-107.909
0
LINE
8
BLACK
6
CONTINUOUS
10
129.852
20
-107.909
11
129.868
21
-107.825
0
LINE
8
BLACK
6
CONTINUOUS
10
129.868
20
-107.825
11
129.916
21
-107.754
0
LINE
8
BLACK
6
CONTINUOUS
10
129.916
20
-107.754
11
129.987
21
-107.707
0
LINE
8
BLACK
6
CONTINUOUS
10
129.987
20
-107.707
11
130.071
21
-107.69
0
LINE
8
BLACK
6
CONTINUOUS
10
130.071
20
-107.69
11
130.583
21
-107.69
0
LINE
8
BLACK
6
CONTINUOUS
10
130.583
20
-107.69
11
130.667
21
-107.707
0
LINE
8
BLACK
6
CONTINUOUS
10
137.374
20
-108.51
11
135.674
21
-108.51
0
LINE
8
BLACK
6
CONTINUOUS
10
135.674
20
-108.51
11
135.674
21
-106.81
0
LINE
8
BLACK
6
CONTINUOUS
10
135.674
20
-106.81
11
137.374
21
-106.81
0
LINE
8
BLACK
6
CONTINUOUS
10
137.374
20
-106.81
11
137.374
21
-108.51
0
LINE
8
BLACK
6
CONTINUOUS
10
130.667
20
-106.132
11
130.738
21
-106.179
0
LINE
8
BLACK
6
CONTINUOUS
10
130.738
20
-106.179
11
130.785
21
-106.25
0
LINE
8
BLACK
6
CONTINUOUS
10
130.785
20
-106.25
11
130.802
21
-106.334
0
LINE
8
BLACK
6
CONTINUOUS
10
130.802
20
-106.334
11
130.802
21
-106.771
0
LINE
8
BLACK
6
CONTINUOUS
10
130.802
20
-106.771
11
130.785
21
-106.855
0
LINE
8
BLACK
6
CONTINUOUS
10
130.785
20
-106.855
11
130.738
21
-106.926
0
LINE
8
BLACK
6
CONTINUOUS
10
130.738
20
-106.926
11
130.667
21
-106.974
0
LINE
8
BLACK
6
CONTINUOUS
10
130.667
20
-106.974
11
130.583
21
-106.99
0
LINE
8
BLACK
6
CONTINUOUS
10
130.583
20
-106.99
11
130.071
21
-106.99
0
LINE
8
BLACK
6
CONTINUOUS
10
130.071
20
-106.99
11
129.987
21
-106.974
0
LINE
8
BLACK
6
CONTINUOUS
10
129.987
20
-106.974
11
129.916
21
-106.926
0
LINE
8
BLACK
6
CONTINUOUS
10
129.916
20
-106.926
11
129.868
21
-106.855
0
LINE
8
BLACK
6
CONTINUOUS
10
129.868
20
-106.855
11
129.852
21
-106.771
0
LINE
8
BLACK
6
CONTINUOUS
10
129.852
20
-106.771
11
129.852
21
-106.334
0
LINE
8
BLACK
6
CONTINUOUS
10
129.852
20
-106.334
11
129.868
21
-106.25
0
LINE
8
BLACK
6
CONTINUOUS
10
129.868
20
-106.25
11
129.916
21
-106.179
0
LINE
8
BLACK
6
CONTINUOUS
10
129.916
20
-106.179
11
129.987
21
-106.132
0
LINE
8
BLACK
6
CONTINUOUS
10
129.987
20
-106.132
11
130.071
21
-106.115
0
LINE
8
BLACK
6
CONTINUOUS
10
130.071
20
-106.115
11
130.583
21
-106.115
0
LINE
8
BLACK
6
CONTINUOUS
10
130.583
20
-106.115
11
130.667
21
-106.132
0
LINE
8
BLACK
6
CONTINUOUS
10
132.701
20
-106.19
11
132.766
21
-106.233
0
LINE
8
BLACK
6
CONTINUOUS
10
132.766
20
-106.233
11
132.81
21
-106.298
0
LINE
8
BLACK
6
CONTINUOUS
10
132.81
20
-106.298
11
132.825
21
-106.374
0
LINE
8
BLACK
6
CONTINUOUS
10
132.825
20
-106.374
11
132.825
21
-106.774
0
LINE
8
BLACK
6
CONTINUOUS
10
132.825
20
-106.774
11
132.81
21
-106.851
0
LINE
8
BLACK
6
CONTINUOUS
10
132.81
20
-106.851
11
132.766
21
-106.916
0
LINE
8
BLACK
6
CONTINUOUS
10
132.766
20
-106.916
11
132.701
21
-106.959
0
LINE
8
BLACK
6
CONTINUOUS
10
132.701
20
-106.959
11
132.625
21
-106.974
0
LINE
8
BLACK
6
CONTINUOUS
10
132.625
20
-106.974
11
132.075
21
-106.974
0
LINE
8
BLACK
6
CONTINUOUS
10
132.075
20
-106.974
11
131.998
21
-106.959
0
LINE
8
BLACK
6
CONTINUOUS
10
131.998
20
-106.959
11
131.933
21
-106.916
0
LINE
8
BLACK
6
CONTINUOUS
10
131.933
20
-106.916
11
131.89
21
-106.851
0
LINE
8
BLACK
6
CONTINUOUS
10
131.89
20
-106.851
11
131.875
21
-106.774
0
LINE
8
BLACK
6
CONTINUOUS
10
131.875
20
-106.774
11
131.875
21
-106.374
0
LINE
8
BLACK
6
CONTINUOUS
10
131.875
20
-106.374
11
131.89
21
-106.298
0
LINE
8
BLACK
6
CONTINUOUS
10
131.89
20
-106.298
11
131.933
21
-106.233
0
LINE
8
BLACK
6
CONTINUOUS
10
131.933
20
-106.233
11
131.998
21
-106.19
0
LINE
8
BLACK
6
CONTINUOUS
10
131.998
20
-106.19
11
132.075
21
-106.174
0
LINE
8
BLACK
6
CONTINUOUS
10
132.075
20
-106.174
11
132.625
21
-106.174
0
LINE
8
BLACK
6
CONTINUOUS
10
132.625
20
-106.174
11
132.701
21
-106.19
0
LINE
8
BLACK
6
CONTINUOUS
10
152.418
20
-105.166
11
152.581
21
-105.238
0
LINE
8
BLACK
6
CONTINUOUS
10
152.581
20
-105.238
11
152.725
21
-105.342
0
LINE
8
BLACK
6
CONTINUOUS
10
152.725
20
-105.342
11
152.843
21
-105.474
0
LINE
8
BLACK
6
CONTINUOUS
10
152.843
20
-105.474
11
152.932
21
-105.628
0
LINE
8
BLACK
6
CONTINUOUS
10
152.932
20
-105.628
11
152.987
21
-105.797
0
LINE
8
BLACK
6
CONTINUOUS
10
152.987
20
-105.797
11
153.006
21
-105.974
0
LINE
8
BLACK
6
CONTINUOUS
10
153.006
20
-105.974
11
152.999
21
-106.039
0
LINE
8
BLACK
6
CONTINUOUS
10
152.999
20
-106.039
11
153
21
-106.06
0
LINE
8
BLACK
6
CONTINUOUS
10
153
20
-106.06
11
152.996
21
-106.143
0
LINE
8
BLACK
6
CONTINUOUS
10
152.996
20
-106.143
11
152.984
21
-106.226
0
LINE
8
BLACK
6
CONTINUOUS
10
152.984
20
-106.226
11
152.963
21
-106.307
0
LINE
8
BLACK
6
CONTINUOUS
10
152.963
20
-106.307
11
152.935
21
-106.385
0
LINE
8
BLACK
6
CONTINUOUS
10
152.935
20
-106.385
11
152.9
21
-106.461
0
LINE
8
BLACK
6
CONTINUOUS
10
152.9
20
-106.461
11
152.857
21
-106.532
0
LINE
8
BLACK
6
CONTINUOUS
10
152.857
20
-106.532
11
152.807
21
-106.599
0
LINE
8
BLACK
6
CONTINUOUS
10
152.807
20
-106.599
11
152.751
21
-106.661
0
LINE
8
BLACK
6
CONTINUOUS
10
152.751
20
-106.661
11
152.689
21
-106.717
0
LINE
8
BLACK
6
CONTINUOUS
10
152.689
20
-106.717
11
152.622
21
-106.767
0
LINE
8
BLACK
6
CONTINUOUS
10
152.622
20
-106.767
11
152.551
21
-106.81
0
LINE
8
BLACK
6
CONTINUOUS
10
152.551
20
-106.81
11
152.475
21
-106.845
0
LINE
8
BLACK
6
CONTINUOUS
10
152.475
20
-106.845
11
152.397
21
-106.873
0
LINE
8
BLACK
6
CONTINUOUS
10
152.397
20
-106.873
11
152.316
21
-106.894
0
LINE
8
BLACK
6
CONTINUOUS
10
152.316
20
-106.894
11
152.233
21
-106.906
0
LINE
8
BLACK
6
CONTINUOUS
10
152.233
20
-106.906
11
152.15
21
-106.91
0
LINE
8
BLACK
6
CONTINUOUS
10
152.15
20
-106.91
11
152.067
21
-106.906
0
LINE
8
BLACK
6
CONTINUOUS
10
152.067
20
-106.906
11
151.984
21
-106.894
0
LINE
8
BLACK
6
CONTINUOUS
10
151.984
20
-106.894
11
151.903
21
-106.873
0
LINE
8
BLACK
6
CONTINUOUS
10
151.903
20
-106.873
11
151.825
21
-106.845
0
LINE
8
BLACK
6
CONTINUOUS
10
151.825
20
-106.845
11
151.749
21
-106.81
0
LINE
8
BLACK
6
CONTINUOUS
10
151.749
20
-106.81
11
151.678
21
-106.767
0
LINE
8
BLACK
6
CONTINUOUS
10
151.678
20
-106.767
11
151.611
21
-106.717
0
LINE
8
BLACK
6
CONTINUOUS
10
151.611
20
-106.717
11
151.549
21
-106.661
0
LINE
8
BLACK
6
CONTINUOUS
10
151.549
20
-106.661
11
151.493
21
-106.599
0
LINE
8
BLACK
6
CONTINUOUS
10
151.493
20
-106.599
11
151.443
21
-106.532
0
LINE
8
BLACK
6
CONTINUOUS
10
151.443
20
-106.532
11
151.4
21
-106.461
0
LINE
8
BLACK
6
CONTINUOUS
10
151.4
20
-106.461
11
151.365
21
-106.385
0
LINE
8
BLACK
6
CONTINUOUS
10
151.365
20
-106.385
11
151.337
21
-106.307
0
LINE
8
BLACK
6
CONTINUOUS
10
151.337
20
-106.307
11
151.316
21
-106.226
0
LINE
8
BLACK
6
CONTINUOUS
10
151.316
20
-106.226
11
151.304
21
-106.143
0
LINE
8
BLACK
6
CONTINUOUS
10
151.304
20
-106.143
11
151.3
21
-106.06
0
LINE
8
BLACK
6
CONTINUOUS
10
151.3
20
-106.06
11
151.304
21
-105.977
0
LINE
8
BLACK
6
CONTINUOUS
10
151.304
20
-105.977
11
151.309
21
-105.944
0
LINE
8
BLACK
6
CONTINUOUS
10
151.309
20
-105.944
11
151.324
21
-105.797
0
LINE
8
BLACK
6
CONTINUOUS
10
151.324
20
-105.797
11
151.379
21
-105.628
0
LINE
8
BLACK
6
CONTINUOUS
10
151.379
20
-105.628
11
151.468
21
-105.474
0
LINE
8
BLACK
6
CONTINUOUS
10
151.468
20
-105.474
11
151.587
21
-105.342
0
LINE
8
BLACK
6
CONTINUOUS
10
151.587
20
-105.342
11
151.731
21
-105.238
0
LINE
8
BLACK
6
CONTINUOUS
10
151.731
20
-105.238
11
151.893
21
-105.166
0
LINE
8
BLACK
6
CONTINUOUS
10
151.893
20
-105.166
11
152.067
21
-105.129
0
LINE
8
BLACK
6
CONTINUOUS
10
152.067
20
-105.129
11
152.245
21
-105.129
0
LINE
8
BLACK
6
CONTINUOUS
10
152.245
20
-105.129
11
152.418
21
-105.166
0
LINE
8
BLACK
6
CONTINUOUS
10
157.498
20
-105.166
11
157.661
21
-105.238
0
LINE
8
BLACK
6
CONTINUOUS
10
157.661
20
-105.238
11
157.805
21
-105.342
0
LINE
8
BLACK
6
CONTINUOUS
10
157.805
20
-105.342
11
157.923
21
-105.474
0
LINE
8
BLACK
6
CONTINUOUS
10
157.923
20
-105.474
11
158.012
21
-105.628
0
LINE
8
BLACK
6
CONTINUOUS
10
158.012
20
-105.628
11
158.067
21
-105.797
0
LINE
8
BLACK
6
CONTINUOUS
10
158.067
20
-105.797
11
158.086
21
-105.974
0
LINE
8
BLACK
6
CONTINUOUS
10
158.086
20
-105.974
11
158.079
21
-106.039
0
LINE
8
BLACK
6
CONTINUOUS
10
158.079
20
-106.039
11
158.08
21
-106.06
0
LINE
8
BLACK
6
CONTINUOUS
10
158.08
20
-106.06
11
158.076
21
-106.143
0
LINE
8
BLACK
6
CONTINUOUS
10
158.076
20
-106.143
11
158.064
21
-106.226
0
LINE
8
BLACK
6
CONTINUOUS
10
158.064
20
-106.226
11
158.043
21
-106.307
0
LINE
8
BLACK
6
CONTINUOUS
10
158.043
20
-106.307
11
158.015
21
-106.385
0
LINE
8
BLACK
6
CONTINUOUS
10
158.015
20
-106.385
11
157.98
21
-106.461
0
LINE
8
BLACK
6
CONTINUOUS
10
157.98
20
-106.461
11
157.937
21
-106.532
0
LINE
8
BLACK
6
CONTINUOUS
10
157.937
20
-106.532
11
157.887
21
-106.599
0
LINE
8
BLACK
6
CONTINUOUS
10
157.887
20
-106.599
11
157.831
21
-106.661
0
LINE
8
BLACK
6
CONTINUOUS
10
157.831
20
-106.661
11
157.769
21
-106.717
0
LINE
8
BLACK
6
CONTINUOUS
10
157.769
20
-106.717
11
157.702
21
-106.767
0
LINE
8
BLACK
6
CONTINUOUS
10
157.702
20
-106.767
11
157.631
21
-106.81
0
LINE
8
BLACK
6
CONTINUOUS
10
157.631
20
-106.81
11
157.555
21
-106.845
0
LINE
8
BLACK
6
CONTINUOUS
10
157.555
20
-106.845
11
157.477
21
-106.873
0
LINE
8
BLACK
6
CONTINUOUS
10
157.477
20
-106.873
11
157.396
21
-106.894
0
LINE
8
BLACK
6
CONTINUOUS
10
157.396
20
-106.894
11
157.313
21
-106.906
0
LINE
8
BLACK
6
CONTINUOUS
10
157.313
20
-106.906
11
157.23
21
-106.91
0
LINE
8
BLACK
6
CONTINUOUS
10
157.23
20
-106.91
11
157.147
21
-106.906
0
LINE
8
BLACK
6
CONTINUOUS
10
157.147
20
-106.906
11
157.064
21
-106.894
0
LINE
8
BLACK
6
CONTINUOUS
10
157.064
20
-106.894
11
156.983
21
-106.873
0
LINE
8
BLACK
6
CONTINUOUS
10
156.983
20
-106.873
11
156.905
21
-106.845
0
LINE
8
BLACK
6
CONTINUOUS
10
156.905
20
-106.845
11
156.829
21
-106.81
0
LINE
8
BLACK
6
CONTINUOUS
10
156.829
20
-106.81
11
156.758
21
-106.767
0
LINE
8
BLACK
6
CONTINUOUS
10
156.758
20
-106.767
11
156.691
21
-106.717
0
LINE
8
BLACK
6
CONTINUOUS
10
156.691
20
-106.717
11
156.629
21
-106.661
0
LINE
8
BLACK
6
CONTINUOUS
10
156.629
20
-106.661
11
156.573
21
-106.599
0
LINE
8
BLACK
6
CONTINUOUS
10
156.573
20
-106.599
11
156.523
21
-106.532
0
LINE
8
BLACK
6
CONTINUOUS
10
156.523
20
-106.532
11
156.48
21
-106.461
0
LINE
8
BLACK
6
CONTINUOUS
10
156.48
20
-106.461
11
156.445
21
-106.385
0
LINE
8
BLACK
6
CONTINUOUS
10
156.445
20
-106.385
11
156.417
21
-106.307
0
LINE
8
BLACK
6
CONTINUOUS
10
156.417
20
-106.307
11
156.396
21
-106.226
0
LINE
8
BLACK
6
CONTINUOUS
10
156.396
20
-106.226
11
156.384
21
-106.143
0
LINE
8
BLACK
6
CONTINUOUS
10
156.384
20
-106.143
11
156.38
21
-106.06
0
LINE
8
BLACK
6
CONTINUOUS
10
156.38
20
-106.06
11
156.384
21
-105.977
0
LINE
8
BLACK
6
CONTINUOUS
10
156.384
20
-105.977
11
156.389
21
-105.944
0
LINE
8
BLACK
6
CONTINUOUS
10
156.389
20
-105.944
11
156.404
21
-105.797
0
LINE
8
BLACK
6
CONTINUOUS
10
156.404
20
-105.797
11
156.459
21
-105.628
0
LINE
8
BLACK
6
CONTINUOUS
10
156.459
20
-105.628
11
156.548
21
-105.474
0
LINE
8
BLACK
6
CONTINUOUS
10
156.548
20
-105.474
11
156.667
21
-105.342
0
LINE
8
BLACK
6
CONTINUOUS
10
156.667
20
-105.342
11
156.811
21
-105.238
0
LINE
8
BLACK
6
CONTINUOUS
10
156.811
20
-105.238
11
156.973
21
-105.166
0
LINE
8
BLACK
6
CONTINUOUS
10
156.973
20
-105.166
11
157.147
21
-105.129
0
LINE
8
BLACK
6
CONTINUOUS
10
157.147
20
-105.129
11
157.325
21
-105.129
0
LINE
8
BLACK
6
CONTINUOUS
10
157.325
20
-105.129
11
157.498
21
-105.166
0
LINE
8
BLACK
6
CONTINUOUS
10
154.958
20
-105.166
11
155.121
21
-105.238
0
LINE
8
BLACK
6
CONTINUOUS
10
155.121
20
-105.238
11
155.265
21
-105.342
0
LINE
8
BLACK
6
CONTINUOUS
10
155.265
20
-105.342
11
155.383
21
-105.474
0
LINE
8
BLACK
6
CONTINUOUS
10
155.383
20
-105.474
11
155.472
21
-105.628
0
LINE
8
BLACK
6
CONTINUOUS
10
155.472
20
-105.628
11
155.527
21
-105.797
0
LINE
8
BLACK
6
CONTINUOUS
10
155.527
20
-105.797
11
155.546
21
-105.974
0
LINE
8
BLACK
6
CONTINUOUS
10
155.546
20
-105.974
11
155.539
21
-106.039
0
LINE
8
BLACK
6
CONTINUOUS
10
155.539
20
-106.039
11
155.54
21
-106.06
0
LINE
8
BLACK
6
CONTINUOUS
10
155.54
20
-106.06
11
155.536
21
-106.143
0
LINE
8
BLACK
6
CONTINUOUS
10
155.536
20
-106.143
11
155.524
21
-106.226
0
LINE
8
BLACK
6
CONTINUOUS
10
155.524
20
-106.226
11
155.503
21
-106.307
0
LINE
8
BLACK
6
CONTINUOUS
10
155.503
20
-106.307
11
155.475
21
-106.385
0
LINE
8
BLACK
6
CONTINUOUS
10
155.475
20
-106.385
11
155.44
21
-106.461
0
LINE
8
BLACK
6
CONTINUOUS
10
155.44
20
-106.461
11
155.397
21
-106.532
0
LINE
8
BLACK
6
CONTINUOUS
10
155.397
20
-106.532
11
155.347
21
-106.599
0
LINE
8
BLACK
6
CONTINUOUS
10
155.347
20
-106.599
11
155.291
21
-106.661
0
LINE
8
BLACK
6
CONTINUOUS
10
155.291
20
-106.661
11
155.229
21
-106.717
0
LINE
8
BLACK
6
CONTINUOUS
10
155.229
20
-106.717
11
155.162
21
-106.767
0
LINE
8
BLACK
6
CONTINUOUS
10
155.162
20
-106.767
11
155.091
21
-106.81
0
LINE
8
BLACK
6
CONTINUOUS
10
155.091
20
-106.81
11
155.015
21
-106.845
0
LINE
8
BLACK
6
CONTINUOUS
10
155.015
20
-106.845
11
154.937
21
-106.873
0
LINE
8
BLACK
6
CONTINUOUS
10
154.937
20
-106.873
11
154.856
21
-106.894
0
LINE
8
BLACK
6
CONTINUOUS
10
154.856
20
-106.894
11
154.773
21
-106.906
0
LINE
8
BLACK
6
CONTINUOUS
10
154.773
20
-106.906
11
154.69
21
-106.91
0
LINE
8
BLACK
6
CONTINUOUS
10
154.69
20
-106.91
11
154.607
21
-106.906
0
LINE
8
BLACK
6
CONTINUOUS
10
154.607
20
-106.906
11
154.524
21
-106.894
0
LINE
8
BLACK
6
CONTINUOUS
10
154.524
20
-106.894
11
154.443
21
-106.873
0
LINE
8
BLACK
6
CONTINUOUS
10
154.443
20
-106.873
11
154.365
21
-106.845
0
LINE
8
BLACK
6
CONTINUOUS
10
154.365
20
-106.845
11
154.289
21
-106.81
0
LINE
8
BLACK
6
CONTINUOUS
10
154.289
20
-106.81
11
154.218
21
-106.767
0
LINE
8
BLACK
6
CONTINUOUS
10
154.218
20
-106.767
11
154.151
21
-106.717
0
LINE
8
BLACK
6
CONTINUOUS
10
154.151
20
-106.717
11
154.089
21
-106.661
0
LINE
8
BLACK
6
CONTINUOUS
10
154.089
20
-106.661
11
154.033
21
-106.599
0
LINE
8
BLACK
6
CONTINUOUS
10
154.033
20
-106.599
11
153.983
21
-106.532
0
LINE
8
BLACK
6
CONTINUOUS
10
153.983
20
-106.532
11
153.94
21
-106.461
0
LINE
8
BLACK
6
CONTINUOUS
10
153.94
20
-106.461
11
153.905
21
-106.385
0
LINE
8
BLACK
6
CONTINUOUS
10
153.905
20
-106.385
11
153.877
21
-106.307
0
LINE
8
BLACK
6
CONTINUOUS
10
153.877
20
-106.307
11
153.856
21
-106.226
0
LINE
8
BLACK
6
CONTINUOUS
10
153.856
20
-106.226
11
153.844
21
-106.143
0
LINE
8
BLACK
6
CONTINUOUS
10
153.844
20
-106.143
11
153.84
21
-106.06
0
LINE
8
BLACK
6
CONTINUOUS
10
153.84
20
-106.06
11
153.844
21
-105.977
0
LINE
8
BLACK
6
CONTINUOUS
10
153.844
20
-105.977
11
153.849
21
-105.944
0
LINE
8
BLACK
6
CONTINUOUS
10
153.849
20
-105.944
11
153.864
21
-105.797
0
LINE
8
BLACK
6
CONTINUOUS
10
153.864
20
-105.797
11
153.919
21
-105.628
0
LINE
8
BLACK
6
CONTINUOUS
10
153.919
20
-105.628
11
154.008
21
-105.474
0
LINE
8
BLACK
6
CONTINUOUS
10
154.008
20
-105.474
11
154.127
21
-105.342
0
LINE
8
BLACK
6
CONTINUOUS
10
154.127
20
-105.342
11
154.271
21
-105.238
0
LINE
8
BLACK
6
CONTINUOUS
10
154.271
20
-105.238
11
154.433
21
-105.166
0
LINE
8
BLACK
6
CONTINUOUS
10
154.433
20
-105.166
11
154.607
21
-105.129
0
LINE
8
BLACK
6
CONTINUOUS
10
154.607
20
-105.129
11
154.785
21
-105.129
0
LINE
8
BLACK
6
CONTINUOUS
10
154.785
20
-105.129
11
154.958
21
-105.166
0
LINE
8
BLACK
6
CONTINUOUS
10
162.131
20
-105.13
11
162.293
21
-105.202
0
LINE
8
BLACK
6
CONTINUOUS
10
162.293
20
-105.202
11
162.437
21
-105.307
0
LINE
8
BLACK
6
CONTINUOUS
10
162.437
20
-105.307
11
162.556
21
-105.439
0
LINE
8
BLACK
6
CONTINUOUS
10
162.556
20
-105.439
11
162.644
21
-105.593
0
LINE
8
BLACK
6
CONTINUOUS
10
162.644
20
-105.593
11
162.699
21
-105.762
0
LINE
8
BLACK
6
CONTINUOUS
10
162.699
20
-105.762
11
162.718
21
-105.939
0
LINE
8
BLACK
6
CONTINUOUS
10
162.718
20
-105.939
11
162.699
21
-106.115
0
LINE
8
BLACK
6
CONTINUOUS
10
162.699
20
-106.115
11
162.644
21
-106.284
0
LINE
8
BLACK
6
CONTINUOUS
10
162.644
20
-106.284
11
162.556
21
-106.438
0
LINE
8
BLACK
6
CONTINUOUS
10
162.556
20
-106.438
11
162.437
21
-106.57
0
LINE
8
BLACK
6
CONTINUOUS
10
162.437
20
-106.57
11
162.293
21
-106.675
0
LINE
8
BLACK
6
CONTINUOUS
10
162.293
20
-106.675
11
162.131
21
-106.747
0
LINE
8
BLACK
6
CONTINUOUS
10
162.131
20
-106.747
11
161.957
21
-106.784
0
LINE
8
BLACK
6
CONTINUOUS
10
161.957
20
-106.784
11
161.779
21
-106.784
0
LINE
8
BLACK
6
CONTINUOUS
10
161.779
20
-106.784
11
161.605
21
-106.747
0
LINE
8
BLACK
6
CONTINUOUS
10
161.605
20
-106.747
11
161.443
21
-106.675
0
LINE
8
BLACK
6
CONTINUOUS
10
161.443
20
-106.675
11
161.299
21
-106.57
0
LINE
8
BLACK
6
CONTINUOUS
10
161.299
20
-106.57
11
161.18
21
-106.438
0
LINE
8
BLACK
6
CONTINUOUS
10
161.18
20
-106.438
11
161.091
21
-106.284
0
LINE
8
BLACK
6
CONTINUOUS
10
161.091
20
-106.284
11
161.036
21
-106.115
0
LINE
8
BLACK
6
CONTINUOUS
10
161.036
20
-106.115
11
161.018
21
-105.939
0
LINE
8
BLACK
6
CONTINUOUS
10
161.018
20
-105.939
11
161.036
21
-105.762
0
LINE
8
BLACK
6
CONTINUOUS
10
161.036
20
-105.762
11
161.091
21
-105.593
0
LINE
8
BLACK
6
CONTINUOUS
10
161.091
20
-105.593
11
161.18
21
-105.439
0
LINE
8
BLACK
6
CONTINUOUS
10
161.18
20
-105.439
11
161.299
21
-105.307
0
LINE
8
BLACK
6
CONTINUOUS
10
161.299
20
-105.307
11
161.443
21
-105.202
0
LINE
8
BLACK
6
CONTINUOUS
10
161.443
20
-105.202
11
161.605
21
-105.13
0
LINE
8
BLACK
6
CONTINUOUS
10
161.605
20
-105.13
11
161.779
21
-105.093
0
LINE
8
BLACK
6
CONTINUOUS
10
161.779
20
-105.093
11
161.957
21
-105.093
0
LINE
8
BLACK
6
CONTINUOUS
10
161.957
20
-105.093
11
162.131
21
-105.13
0
LINE
8
BLACK
6
CONTINUOUS
10
121.007
20
-102.416
11
121.297
21
-102.457
0
LINE
8
BLACK
6
CONTINUOUS
10
121.297
20
-102.457
11
121.578
21
-102.537
0
LINE
8
BLACK
6
CONTINUOUS
10
121.578
20
-102.537
11
121.846
21
-102.655
0
LINE
8
BLACK
6
CONTINUOUS
10
121.846
20
-102.655
11
122.095
21
-102.807
0
LINE
8
BLACK
6
CONTINUOUS
10
122.095
20
-102.807
11
122.322
21
-102.993
0
LINE
8
BLACK
6
CONTINUOUS
10
122.322
20
-102.993
11
122.521
21
-103.207
0
LINE
8
BLACK
6
CONTINUOUS
10
122.521
20
-103.207
11
122.689
21
-103.446
0
LINE
8
BLACK
6
CONTINUOUS
10
122.689
20
-103.446
11
122.823
21
-103.706
0
LINE
8
BLACK
6
CONTINUOUS
10
122.823
20
-103.706
11
122.921
21
-103.982
0
LINE
8
BLACK
6
CONTINUOUS
10
122.921
20
-103.982
11
122.98
21
-104.268
0
LINE
8
BLACK
6
CONTINUOUS
10
122.98
20
-104.268
11
123
21
-104.56
0
LINE
8
BLACK
6
CONTINUOUS
10
123
20
-104.56
11
123
21
-104.605
0
LINE
8
BLACK
6
CONTINUOUS
10
123
20
-104.605
11
122.974
21
-104.896
0
LINE
8
BLACK
6
CONTINUOUS
10
122.974
20
-104.896
11
122.908
21
-105.181
0
LINE
8
BLACK
6
CONTINUOUS
10
122.908
20
-105.181
11
122.805
21
-105.455
0
LINE
8
BLACK
6
CONTINUOUS
10
122.805
20
-105.455
11
122.665
21
-105.712
0
LINE
8
BLACK
6
CONTINUOUS
10
122.665
20
-105.712
11
122.492
21
-105.948
0
LINE
8
BLACK
6
CONTINUOUS
10
122.492
20
-105.948
11
122.289
21
-106.158
0
LINE
8
BLACK
6
CONTINUOUS
10
122.289
20
-106.158
11
122.058
21
-106.338
0
LINE
8
BLACK
6
CONTINUOUS
10
122.058
20
-106.338
11
121.806
21
-106.486
0
LINE
8
BLACK
6
CONTINUOUS
10
121.806
20
-106.486
11
121.536
21
-106.598
0
LINE
8
BLACK
6
CONTINUOUS
10
121.536
20
-106.598
11
121.253
21
-106.672
0
LINE
8
BLACK
6
CONTINUOUS
10
121.253
20
-106.672
11
120.963
21
-106.707
0
LINE
8
BLACK
6
CONTINUOUS
10
120.963
20
-106.707
11
120.67
21
-106.702
0
LINE
8
BLACK
6
CONTINUOUS
10
120.67
20
-106.702
11
120.381
21
-106.658
0
LINE
8
BLACK
6
CONTINUOUS
10
120.381
20
-106.658
11
120.101
21
-106.575
0
LINE
8
BLACK
6
CONTINUOUS
10
120.101
20
-106.575
11
119.834
21
-106.455
0
LINE
8
BLACK
6
CONTINUOUS
10
119.834
20
-106.455
11
119.586
21
-106.299
0
LINE
8
BLACK
6
CONTINUOUS
10
119.586
20
-106.299
11
119.362
21
-106.112
0
LINE
8
BLACK
6
CONTINUOUS
10
119.362
20
-106.112
11
119.165
21
-105.895
0
LINE
8
BLACK
6
CONTINUOUS
10
119.165
20
-105.895
11
118.999
21
-105.654
0
LINE
8
BLACK
6
CONTINUOUS
10
118.999
20
-105.654
11
118.868
21
-105.393
0
LINE
8
BLACK
6
CONTINUOUS
10
118.868
20
-105.393
11
118.773
21
-105.116
0
LINE
8
BLACK
6
CONTINUOUS
10
118.773
20
-105.116
11
118.717
21
-104.829
0
LINE
8
BLACK
6
CONTINUOUS
10
118.717
20
-104.829
11
118.7
21
-104.537
0
LINE
8
BLACK
6
CONTINUOUS
10
118.7
20
-104.537
11
118.723
21
-104.246
0
LINE
8
BLACK
6
CONTINUOUS
10
118.723
20
-104.246
11
118.785
21
-103.96
0
LINE
8
BLACK
6
CONTINUOUS
10
118.785
20
-103.96
11
118.886
21
-103.686
0
LINE
8
BLACK
6
CONTINUOUS
10
118.886
20
-103.686
11
119.023
21
-103.427
0
LINE
8
BLACK
6
CONTINUOUS
10
119.023
20
-103.427
11
119.193
21
-103.19
0
LINE
8
BLACK
6
CONTINUOUS
10
119.193
20
-103.19
11
119.395
21
-102.977
0
LINE
8
BLACK
6
CONTINUOUS
10
119.395
20
-102.977
11
119.623
21
-102.795
0
LINE
8
BLACK
6
CONTINUOUS
10
119.623
20
-102.795
11
119.874
21
-102.644
0
LINE
8
BLACK
6
CONTINUOUS
10
119.874
20
-102.644
11
120.143
21
-102.53
0
LINE
8
BLACK
6
CONTINUOUS
10
120.143
20
-102.53
11
120.425
21
-102.452
0
LINE
8
BLACK
6
CONTINUOUS
10
120.425
20
-102.452
11
120.715
21
-102.414
0
LINE
8
BLACK
6
CONTINUOUS
10
120.715
20
-102.414
11
121.007
21
-102.416
0
LINE
8
BLACK
6
CONTINUOUS
10
140.574
20
-105.311
11
140.619
21
-105.341
0
LINE
8
BLACK
6
CONTINUOUS
10
140.619
20
-105.341
11
140.649
21
-105.386
0
LINE
8
BLACK
6
CONTINUOUS
10
140.649
20
-105.386
11
140.66
21
-105.44
0
LINE
8
BLACK
6
CONTINUOUS
10
140.66
20
-105.44
11
140.66
21
-105.72
0
LINE
8
BLACK
6
CONTINUOUS
10
140.66
20
-105.72
11
140.649
21
-105.774
0
LINE
8
BLACK
6
CONTINUOUS
10
140.649
20
-105.774
11
140.619
21
-105.819
0
LINE
8
BLACK
6
CONTINUOUS
10
140.619
20
-105.819
11
140.574
21
-105.849
0
LINE
8
BLACK
6
CONTINUOUS
10
140.574
20
-105.849
11
140.52
21
-105.86
0
LINE
8
BLACK
6
CONTINUOUS
10
140.52
20
-105.86
11
140.18
21
-105.86
0
LINE
8
BLACK
6
CONTINUOUS
10
140.18
20
-105.86
11
140.126
21
-105.849
0
LINE
8
BLACK
6
CONTINUOUS
10
140.126
20
-105.849
11
140.081
21
-105.819
0
LINE
8
BLACK
6
CONTINUOUS
10
140.081
20
-105.819
11
140.051
21
-105.774
0
LINE
8
BLACK
6
CONTINUOUS
10
140.051
20
-105.774
11
140.04
21
-105.72
0
LINE
8
BLACK
6
CONTINUOUS
10
140.04
20
-105.72
11
140.04
21
-105.44
0
LINE
8
BLACK
6
CONTINUOUS
10
140.04
20
-105.44
11
140.051
21
-105.386
0
LINE
8
BLACK
6
CONTINUOUS
10
140.051
20
-105.386
11
140.081
21
-105.341
0
LINE
8
BLACK
6
CONTINUOUS
10
140.081
20
-105.341
11
140.126
21
-105.311
0
LINE
8
BLACK
6
CONTINUOUS
10
140.126
20
-105.311
11
140.18
21
-105.3
0
LINE
8
BLACK
6
CONTINUOUS
10
140.18
20
-105.3
11
140.52
21
-105.3
0
LINE
8
BLACK
6
CONTINUOUS
10
140.52
20
-105.3
11
140.574
21
-105.311
0
LINE
8
BLACK
6
CONTINUOUS
10
140.574
20
-104.351
11
140.619
21
-104.381
0
LINE
8
BLACK
6
CONTINUOUS
10
140.619
20
-104.381
11
140.649
21
-104.426
0
LINE
8
BLACK
6
CONTINUOUS
10
140.649
20
-104.426
11
140.66
21
-104.48
0
LINE
8
BLACK
6
CONTINUOUS
10
140.66
20
-104.48
11
140.66
21
-104.76
0
LINE
8
BLACK
6
CONTINUOUS
10
140.66
20
-104.76
11
140.649
21
-104.814
0
LINE
8
BLACK
6
CONTINUOUS
10
140.649
20
-104.814
11
140.619
21
-104.859
0
LINE
8
BLACK
6
CONTINUOUS
10
140.619
20
-104.859
11
140.574
21
-104.889
0
LINE
8
BLACK
6
CONTINUOUS
10
140.574
20
-104.889
11
140.52
21
-104.9
0
LINE
8
BLACK
6
CONTINUOUS
10
140.52
20
-104.9
11
140.18
21
-104.9
0
LINE
8
BLACK
6
CONTINUOUS
10
140.18
20
-104.9
11
140.126
21
-104.889
0
LINE
8
BLACK
6
CONTINUOUS
10
140.126
20
-104.889
11
140.081
21
-104.859
0
LINE
8
BLACK
6
CONTINUOUS
10
140.081
20
-104.859
11
140.051
21
-104.814
0
LINE
8
BLACK
6
CONTINUOUS
10
140.051
20
-104.814
11
140.04
21
-104.76
0
LINE
8
BLACK
6
CONTINUOUS
10
140.04
20
-104.76
11
140.04
21
-104.48
0
LINE
8
BLACK
6
CONTINUOUS
10
140.04
20
-104.48
11
140.051
21
-104.426
0
LINE
8
BLACK
6
CONTINUOUS
10
140.051
20
-104.426
11
140.081
21
-104.381
0
LINE
8
BLACK
6
CONTINUOUS
10
140.081
20
-104.381
11
140.126
21
-104.351
0
LINE
8
BLACK
6
CONTINUOUS
10
140.126
20
-104.351
11
140.18
21
-104.34
0
LINE
8
BLACK
6
CONTINUOUS
10
140.18
20
-104.34
11
140.52
21
-104.34
0
LINE
8
BLACK
6
CONTINUOUS
10
140.52
20
-104.34
11
140.574
21
-104.351
0
LINE
8
BLACK
6
CONTINUOUS
10
158.086
20
-104.284
11
158.08
21
-104.284
0
LINE
8
BLACK
6
CONTINUOUS
10
158.08
20
-104.284
11
158.08
21
-104.37
0
LINE
8
BLACK
6
CONTINUOUS
10
158.08
20
-104.37
11
156.38
21
-104.37
0
LINE
8
BLACK
6
CONTINUOUS
10
156.38
20
-104.37
11
156.38
21
-102.67
0
LINE
8
BLACK
6
CONTINUOUS
10
156.38
20
-102.67
11
156.386
21
-102.67
0
LINE
8
BLACK
6
CONTINUOUS
10
156.386
20
-102.67
11
156.386
21
-102.584
0
LINE
8
BLACK
6
CONTINUOUS
10
156.386
20
-102.584
11
158.086
21
-102.584
0
LINE
8
BLACK
6
CONTINUOUS
10
158.086
20
-102.584
11
158.086
21
-104.284
0
LINE
8
BLACK
6
CONTINUOUS
10
154.958
20
-102.626
11
155.121
21
-102.698
0
LINE
8
BLACK
6
CONTINUOUS
10
155.121
20
-102.698
11
155.265
21
-102.802
0
LINE
8
BLACK
6
CONTINUOUS
10
155.265
20
-102.802
11
155.383
21
-102.934
0
LINE
8
BLACK
6
CONTINUOUS
10
155.383
20
-102.934
11
155.472
21
-103.088
0
LINE
8
BLACK
6
CONTINUOUS
10
155.472
20
-103.088
11
155.527
21
-103.257
0
LINE
8
BLACK
6
CONTINUOUS
10
155.527
20
-103.257
11
155.546
21
-103.434
0
LINE
8
BLACK
6
CONTINUOUS
10
155.546
20
-103.434
11
155.539
21
-103.499
0
LINE
8
BLACK
6
CONTINUOUS
10
155.539
20
-103.499
11
155.54
21
-103.52
0
LINE
8
BLACK
6
CONTINUOUS
10
155.54
20
-103.52
11
155.536
21
-103.603
0
LINE
8
BLACK
6
CONTINUOUS
10
155.536
20
-103.603
11
155.524
21
-103.686
0
LINE
8
BLACK
6
CONTINUOUS
10
155.524
20
-103.686
11
155.503
21
-103.767
0
LINE
8
BLACK
6
CONTINUOUS
10
155.503
20
-103.767
11
155.475
21
-103.845
0
LINE
8
BLACK
6
CONTINUOUS
10
155.475
20
-103.845
11
155.44
21
-103.921
0
LINE
8
BLACK
6
CONTINUOUS
10
155.44
20
-103.921
11
155.397
21
-103.992
0
LINE
8
BLACK
6
CONTINUOUS
10
155.397
20
-103.992
11
155.347
21
-104.059
0
LINE
8
BLACK
6
CONTINUOUS
10
155.347
20
-104.059
11
155.291
21
-104.121
0
LINE
8
BLACK
6
CONTINUOUS
10
155.291
20
-104.121
11
155.229
21
-104.177
0
LINE
8
BLACK
6
CONTINUOUS
10
155.229
20
-104.177
11
155.162
21
-104.227
0
LINE
8
BLACK
6
CONTINUOUS
10
155.162
20
-104.227
11
155.091
21
-104.27
0
LINE
8
BLACK
6
CONTINUOUS
10
155.091
20
-104.27
11
155.015
21
-104.305
0
LINE
8
BLACK
6
CONTINUOUS
10
155.015
20
-104.305
11
154.937
21
-104.333
0
LINE
8
BLACK
6
CONTINUOUS
10
154.937
20
-104.333
11
154.856
21
-104.354
0
LINE
8
BLACK
6
CONTINUOUS
10
154.856
20
-104.354
11
154.773
21
-104.366
0
LINE
8
BLACK
6
CONTINUOUS
10
154.773
20
-104.366
11
154.69
21
-104.37
0
LINE
8
BLACK
6
CONTINUOUS
10
154.69
20
-104.37
11
154.607
21
-104.366
0
LINE
8
BLACK
6
CONTINUOUS
10
154.607
20
-104.366
11
154.524
21
-104.354
0
LINE
8
BLACK
6
CONTINUOUS
10
154.524
20
-104.354
11
154.443
21
-104.333
0
LINE
8
BLACK
6
CONTINUOUS
10
154.443
20
-104.333
11
154.365
21
-104.305
0
LINE
8
BLACK
6
CONTINUOUS
10
154.365
20
-104.305
11
154.289
21
-104.27
0
LINE
8
BLACK
6
CONTINUOUS
10
154.289
20
-104.27
11
154.218
21
-104.227
0
LINE
8
BLACK
6
CONTINUOUS
10
154.218
20
-104.227
11
154.151
21
-104.177
0
LINE
8
BLACK
6
CONTINUOUS
10
154.151
20
-104.177
11
154.089
21
-104.121
0
LINE
8
BLACK
6
CONTINUOUS
10
154.089
20
-104.121
11
154.033
21
-104.059
0
LINE
8
BLACK
6
CONTINUOUS
10
154.033
20
-104.059
11
153.983
21
-103.992
0
LINE
8
BLACK
6
CONTINUOUS
10
153.983
20
-103.992
11
153.94
21
-103.921
0
LINE
8
BLACK
6
CONTINUOUS
10
153.94
20
-103.921
11
153.905
21
-103.845
0
LINE
8
BLACK
6
CONTINUOUS
10
153.905
20
-103.845
11
153.877
21
-103.767
0
LINE
8
BLACK
6
CONTINUOUS
10
153.877
20
-103.767
11
153.856
21
-103.686
0
LINE
8
BLACK
6
CONTINUOUS
10
153.856
20
-103.686
11
153.844
21
-103.603
0
LINE
8
BLACK
6
CONTINUOUS
10
153.844
20
-103.603
11
153.84
21
-103.52
0
LINE
8
BLACK
6
CONTINUOUS
10
153.84
20
-103.52
11
153.844
21
-103.437
0
LINE
8
BLACK
6
CONTINUOUS
10
153.844
20
-103.437
11
153.849
21
-103.404
0
LINE
8
BLACK
6
CONTINUOUS
10
153.849
20
-103.404
11
153.864
21
-103.257
0
LINE
8
BLACK
6
CONTINUOUS
10
153.864
20
-103.257
11
153.919
21
-103.088
0
LINE
8
BLACK
6
CONTINUOUS
10
153.919
20
-103.088
11
154.008
21
-102.934
0
LINE
8
BLACK
6
CONTINUOUS
10
154.008
20
-102.934
11
154.127
21
-102.802
0
LINE
8
BLACK
6
CONTINUOUS
10
154.127
20
-102.802
11
154.271
21
-102.698
0
LINE
8
BLACK
6
CONTINUOUS
10
154.271
20
-102.698
11
154.433
21
-102.626
0
LINE
8
BLACK
6
CONTINUOUS
10
154.433
20
-102.626
11
154.607
21
-102.589
0
LINE
8
BLACK
6
CONTINUOUS
10
154.607
20
-102.589
11
154.785
21
-102.589
0
LINE
8
BLACK
6
CONTINUOUS
10
154.785
20
-102.589
11
154.958
21
-102.626
0
LINE
8
BLACK
6
CONTINUOUS
10
152.418
20
-102.626
11
152.581
21
-102.698
0
LINE
8
BLACK
6
CONTINUOUS
10
152.581
20
-102.698
11
152.725
21
-102.802
0
LINE
8
BLACK
6
CONTINUOUS
10
152.725
20
-102.802
11
152.843
21
-102.934
0
LINE
8
BLACK
6
CONTINUOUS
10
152.843
20
-102.934
11
152.932
21
-103.088
0
LINE
8
BLACK
6
CONTINUOUS
10
152.932
20
-103.088
11
152.987
21
-103.257
0
LINE
8
BLACK
6
CONTINUOUS
10
152.987
20
-103.257
11
153.006
21
-103.434
0
LINE
8
BLACK
6
CONTINUOUS
10
153.006
20
-103.434
11
152.999
21
-103.499
0
LINE
8
BLACK
6
CONTINUOUS
10
152.999
20
-103.499
11
153
21
-103.52
0
LINE
8
BLACK
6
CONTINUOUS
10
153
20
-103.52
11
152.996
21
-103.603
0
LINE
8
BLACK
6
CONTINUOUS
10
152.996
20
-103.603
11
152.984
21
-103.686
0
LINE
8
BLACK
6
CONTINUOUS
10
152.984
20
-103.686
11
152.963
21
-103.767
0
LINE
8
BLACK
6
CONTINUOUS
10
152.963
20
-103.767
11
152.935
21
-103.845
0
LINE
8
BLACK
6
CONTINUOUS
10
152.935
20
-103.845
11
152.9
21
-103.921
0
LINE
8
BLACK
6
CONTINUOUS
10
152.9
20
-103.921
11
152.857
21
-103.992
0
LINE
8
BLACK
6
CONTINUOUS
10
152.857
20
-103.992
11
152.807
21
-104.059
0
LINE
8
BLACK
6
CONTINUOUS
10
152.807
20
-104.059
11
152.751
21
-104.121
0
LINE
8
BLACK
6
CONTINUOUS
10
152.751
20
-104.121
11
152.689
21
-104.177
0
LINE
8
BLACK
6
CONTINUOUS
10
152.689
20
-104.177
11
152.622
21
-104.227
0
LINE
8
BLACK
6
CONTINUOUS
10
152.622
20
-104.227
11
152.551
21
-104.27
0
LINE
8
BLACK
6
CONTINUOUS
10
152.551
20
-104.27
11
152.475
21
-104.305
0
LINE
8
BLACK
6
CONTINUOUS
10
152.475
20
-104.305
11
152.397
21
-104.333
0
LINE
8
BLACK
6
CONTINUOUS
10
152.397
20
-104.333
11
152.316
21
-104.354
0
LINE
8
BLACK
6
CONTINUOUS
10
152.316
20
-104.354
11
152.233
21
-104.366
0
LINE
8
BLACK
6
CONTINUOUS
10
152.233
20
-104.366
11
152.15
21
-104.37
0
LINE
8
BLACK
6
CONTINUOUS
10
152.15
20
-104.37
11
152.067
21
-104.366
0
LINE
8
BLACK
6
CONTINUOUS
10
152.067
20
-104.366
11
151.984
21
-104.354
0
LINE
8
BLACK
6
CONTINUOUS
10
151.984
20
-104.354
11
151.903
21
-104.333
0
LINE
8
BLACK
6
CONTINUOUS
10
151.903
20
-104.333
11
151.825
21
-104.305
0
LINE
8
BLACK
6
CONTINUOUS
10
151.825
20
-104.305
11
151.749
21
-104.27
0
LINE
8
BLACK
6
CONTINUOUS
10
151.749
20
-104.27
11
151.678
21
-104.227
0
LINE
8
BLACK
6
CONTINUOUS
10
151.678
20
-104.227
11
151.611
21
-104.177
0
LINE
8
BLACK
6
CONTINUOUS
10
151.611
20
-104.177
11
151.549
21
-104.121
0
LINE
8
BLACK
6
CONTINUOUS
10
151.549
20
-104.121
11
151.493
21
-104.059
0
LINE
8
BLACK
6
CONTINUOUS
10
151.493
20
-104.059
11
151.443
21
-103.992
0
LINE
8
BLACK
6
CONTINUOUS
10
151.443
20
-103.992
11
151.4
21
-103.921
0
LINE
8
BLACK
6
CONTINUOUS
10
151.4
20
-103.921
11
151.365
21
-103.845
0
LINE
8
BLACK
6
CONTINUOUS
10
151.365
20
-103.845
11
151.337
21
-103.767
0
LINE
8
BLACK
6
CONTINUOUS
10
151.337
20
-103.767
11
151.316
21
-103.686
0
LINE
8
BLACK
6
CONTINUOUS
10
151.316
20
-103.686
11
151.304
21
-103.603
0
LINE
8
BLACK
6
CONTINUOUS
10
151.304
20
-103.603
11
151.3
21
-103.52
0
LINE
8
BLACK
6
CONTINUOUS
10
151.3
20
-103.52
11
151.304
21
-103.437
0
LINE
8
BLACK
6
CONTINUOUS
10
151.304
20
-103.437
11
151.309
21
-103.404
0
LINE
8
BLACK
6
CONTINUOUS
10
151.309
20
-103.404
11
151.324
21
-103.257
0
LINE
8
BLACK
6
CONTINUOUS
10
151.324
20
-103.257
11
151.379
21
-103.088
0
LINE
8
BLACK
6
CONTINUOUS
10
151.379
20
-103.088
11
151.468
21
-102.934
0
LINE
8
BLACK
6
CONTINUOUS
10
151.468
20
-102.934
11
151.587
21
-102.802
0
LINE
8
BLACK
6
CONTINUOUS
10
151.587
20
-102.802
11
151.731
21
-102.698
0
LINE
8
BLACK
6
CONTINUOUS
10
151.731
20
-102.698
11
151.893
21
-102.626
0
LINE
8
BLACK
6
CONTINUOUS
10
151.893
20
-102.626
11
152.067
21
-102.589
0
LINE
8
BLACK
6
CONTINUOUS
10
152.067
20
-102.589
11
152.245
21
-102.589
0
LINE
8
BLACK
6
CONTINUOUS
10
152.245
20
-102.589
11
152.418
21
-102.626
0
LINE
8
BLACK
6
CONTINUOUS
10
162.131
20
-102.59
11
162.293
21
-102.662
0
LINE
8
BLACK
6
CONTINUOUS
10
162.293
20
-102.662
11
162.437
21
-102.767
0
LINE
8
BLACK
6
CONTINUOUS
10
162.437
20
-102.767
11
162.556
21
-102.899
0
LINE
8
BLACK
6
CONTINUOUS
10
162.556
20
-102.899
11
162.644
21
-103.053
0
LINE
8
BLACK
6
CONTINUOUS
10
162.644
20
-103.053
11
162.699
21
-103.222
0
LINE
8
BLACK
6
CONTINUOUS
10
162.699
20
-103.222
11
162.718
21
-103.399
0
LINE
8
BLACK
6
CONTINUOUS
10
162.718
20
-103.399
11
162.699
21
-103.575
0
LINE
8
BLACK
6
CONTINUOUS
10
162.699
20
-103.575
11
162.644
21
-103.744
0
LINE
8
BLACK
6
CONTINUOUS
10
162.644
20
-103.744
11
162.556
21
-103.898
0
LINE
8
BLACK
6
CONTINUOUS
10
162.556
20
-103.898
11
162.437
21
-104.03
0
LINE
8
BLACK
6
CONTINUOUS
10
162.437
20
-104.03
11
162.293
21
-104.135
0
LINE
8
BLACK
6
CONTINUOUS
10
162.293
20
-104.135
11
162.131
21
-104.207
0
LINE
8
BLACK
6
CONTINUOUS
10
162.131
20
-104.207
11
161.957
21
-104.244
0
LINE
8
BLACK
6
CONTINUOUS
10
161.957
20
-104.244
11
161.779
21
-104.244
0
LINE
8
BLACK
6
CONTINUOUS
10
161.779
20
-104.244
11
161.605
21
-104.207
0
LINE
8
BLACK
6
CONTINUOUS
10
161.605
20
-104.207
11
161.443
21
-104.135
0
LINE
8
BLACK
6
CONTINUOUS
10
161.443
20
-104.135
11
161.299
21
-104.03
0
LINE
8
BLACK
6
CONTINUOUS
10
161.299
20
-104.03
11
161.18
21
-103.898
0
LINE
8
BLACK
6
CONTINUOUS
10
161.18
20
-103.898
11
161.091
21
-103.744
0
LINE
8
BLACK
6
CONTINUOUS
10
161.091
20
-103.744
11
161.036
21
-103.575
0
LINE
8
BLACK
6
CONTINUOUS
10
161.036
20
-103.575
11
161.018
21
-103.399
0
LINE
8
BLACK
6
CONTINUOUS
10
161.018
20
-103.399
11
161.036
21
-103.222
0
LINE
8
BLACK
6
CONTINUOUS
10
161.036
20
-103.222
11
161.091
21
-103.053
0
LINE
8
BLACK
6
CONTINUOUS
10
161.091
20
-103.053
11
161.18
21
-102.899
0
LINE
8
BLACK
6
CONTINUOUS
10
161.18
20
-102.899
11
161.299
21
-102.767
0
LINE
8
BLACK
6
CONTINUOUS
10
161.299
20
-102.767
11
161.443
21
-102.662
0
LINE
8
BLACK
6
CONTINUOUS
10
161.443
20
-102.662
11
161.605
21
-102.59
0
LINE
8
BLACK
6
CONTINUOUS
10
161.605
20
-102.59
11
161.779
21
-102.553
0
LINE
8
BLACK
6
CONTINUOUS
10
161.779
20
-102.553
11
161.957
21
-102.553
0
LINE
8
BLACK
6
CONTINUOUS
10
161.957
20
-102.553
11
162.131
21
-102.59
0
LINE
8
BLACK
6
CONTINUOUS
10
140.574
20
-103.211
11
140.619
21
-103.241
0
LINE
8
BLACK
6
CONTINUOUS
10
140.619
20
-103.241
11
140.649
21
-103.286
0
LINE
8
BLACK
6
CONTINUOUS
10
140.649
20
-103.286
11
140.66
21
-103.34
0
LINE
8
BLACK
6
CONTINUOUS
10
140.66
20
-103.34
11
140.66
21
-103.62
0
LINE
8
BLACK
6
CONTINUOUS
10
140.66
20
-103.62
11
140.649
21
-103.674
0
LINE
8
BLACK
6
CONTINUOUS
10
140.649
20
-103.674
11
140.619
21
-103.719
0
LINE
8
BLACK
6
CONTINUOUS
10
140.619
20
-103.719
11
140.574
21
-103.749
0
LINE
8
BLACK
6
CONTINUOUS
10
140.574
20
-103.749
11
140.52
21
-103.76
0
LINE
8
BLACK
6
CONTINUOUS
10
140.52
20
-103.76
11
140.18
21
-103.76
0
LINE
8
BLACK
6
CONTINUOUS
10
140.18
20
-103.76
11
140.126
21
-103.749
0
LINE
8
BLACK
6
CONTINUOUS
10
140.126
20
-103.749
11
140.081
21
-103.719
0
LINE
8
BLACK
6
CONTINUOUS
10
140.081
20
-103.719
11
140.051
21
-103.674
0
LINE
8
BLACK
6
CONTINUOUS
10
140.051
20
-103.674
11
140.04
21
-103.62
0
LINE
8
BLACK
6
CONTINUOUS
10
140.04
20
-103.62
11
140.04
21
-103.34
0
LINE
8
BLACK
6
CONTINUOUS
10
140.04
20
-103.34
11
140.051
21
-103.286
0
LINE
8
BLACK
6
CONTINUOUS
10
140.051
20
-103.286
11
140.081
21
-103.241
0
LINE
8
BLACK
6
CONTINUOUS
10
140.081
20
-103.241
11
140.126
21
-103.211
0
LINE
8
BLACK
6
CONTINUOUS
10
140.126
20
-103.211
11
140.18
21
-103.2
0
LINE
8
BLACK
6
CONTINUOUS
10
140.18
20
-103.2
11
140.52
21
-103.2
0
LINE
8
BLACK
6
CONTINUOUS
10
140.52
20
-103.2
11
140.574
21
-103.211
0
LINE
8
BLACK
6
CONTINUOUS
10
136.285
20
-103.714
11
133.885
21
-103.714
0
LINE
8
BLACK
6
CONTINUOUS
10
133.885
20
-103.714
11
133.885
21
-101.714
0
LINE
8
BLACK
6
CONTINUOUS
10
133.885
20
-101.714
11
136.285
21
-101.714
0
LINE
8
BLACK
6
CONTINUOUS
10
136.285
20
-101.714
11
136.285
21
-103.714
0
LINE
8
BLACK
6
CONTINUOUS
10
132.484
20
-102.511
11
132.529
21
-102.541
0
LINE
8
BLACK
6
CONTINUOUS
10
132.529
20
-102.541
11
132.559
21
-102.586
0
LINE
8
BLACK
6
CONTINUOUS
10
132.559
20
-102.586
11
132.57
21
-102.64
0
LINE
8
BLACK
6
CONTINUOUS
10
132.57
20
-102.64
11
132.57
21
-102.92
0
LINE
8
BLACK
6
CONTINUOUS
10
132.57
20
-102.92
11
132.559
21
-102.974
0
LINE
8
BLACK
6
CONTINUOUS
10
132.559
20
-102.974
11
132.529
21
-103.019
0
LINE
8
BLACK
6
CONTINUOUS
10
132.529
20
-103.019
11
132.484
21
-103.049
0
LINE
8
BLACK
6
CONTINUOUS
10
132.484
20
-103.049
11
132.43
21
-103.06
0
LINE
8
BLACK
6
CONTINUOUS
10
132.43
20
-103.06
11
132.09
21
-103.06
0
LINE
8
BLACK
6
CONTINUOUS
10
132.09
20
-103.06
11
132.036
21
-103.049
0
LINE
8
BLACK
6
CONTINUOUS
10
132.036
20
-103.049
11
131.991
21
-103.019
0
LINE
8
BLACK
6
CONTINUOUS
10
131.991
20
-103.019
11
131.961
21
-102.974
0
LINE
8
BLACK
6
CONTINUOUS
10
131.961
20
-102.974
11
131.95
21
-102.92
0
LINE
8
BLACK
6
CONTINUOUS
10
131.95
20
-102.92
11
131.95
21
-102.64
0
LINE
8
BLACK
6
CONTINUOUS
10
131.95
20
-102.64
11
131.961
21
-102.586
0
LINE
8
BLACK
6
CONTINUOUS
10
131.961
20
-102.586
11
131.991
21
-102.541
0
LINE
8
BLACK
6
CONTINUOUS
10
131.991
20
-102.541
11
132.036
21
-102.511
0
LINE
8
BLACK
6
CONTINUOUS
10
132.036
20
-102.511
11
132.09
21
-102.5
0
LINE
8
BLACK
6
CONTINUOUS
10
132.09
20
-102.5
11
132.43
21
-102.5
0
LINE
8
BLACK
6
CONTINUOUS
10
132.43
20
-102.5
11
132.484
21
-102.511
0
LINE
8
BLACK
6
CONTINUOUS
10
140.574
20
-102.251
11
140.619
21
-102.281
0
LINE
8
BLACK
6
CONTINUOUS
10
140.619
20
-102.281
11
140.649
21
-102.326
0
LINE
8
BLACK
6
CONTINUOUS
10
140.649
20
-102.326
11
140.66
21
-102.38
0
LINE
8
BLACK
6
CONTINUOUS
10
140.66
20
-102.38
11
140.66
21
-102.66
0
LINE
8
BLACK
6
CONTINUOUS
10
140.66
20
-102.66
11
140.649
21
-102.714
0
LINE
8
BLACK
6
CONTINUOUS
10
140.649
20
-102.714
11
140.619
21
-102.759
0
LINE
8
BLACK
6
CONTINUOUS
10
140.619
20
-102.759
11
140.574
21
-102.789
0
LINE
8
BLACK
6
CONTINUOUS
10
140.574
20
-102.789
11
140.52
21
-102.8
0
LINE
8
BLACK
6
CONTINUOUS
10
140.52
20
-102.8
11
140.18
21
-102.8
0
LINE
8
BLACK
6
CONTINUOUS
10
140.18
20
-102.8
11
140.126
21
-102.789
0
LINE
8
BLACK
6
CONTINUOUS
10
140.126
20
-102.789
11
140.081
21
-102.759
0
LINE
8
BLACK
6
CONTINUOUS
10
140.081
20
-102.759
11
140.051
21
-102.714
0
LINE
8
BLACK
6
CONTINUOUS
10
140.051
20
-102.714
11
140.04
21
-102.66
0
LINE
8
BLACK
6
CONTINUOUS
10
140.04
20
-102.66
11
140.04
21
-102.38
0
LINE
8
BLACK
6
CONTINUOUS
10
140.04
20
-102.38
11
140.051
21
-102.326
0
LINE
8
BLACK
6
CONTINUOUS
10
140.051
20
-102.326
11
140.081
21
-102.281
0
LINE
8
BLACK
6
CONTINUOUS
10
140.081
20
-102.281
11
140.126
21
-102.251
0
LINE
8
BLACK
6
CONTINUOUS
10
140.126
20
-102.251
11
140.18
21
-102.24
0
LINE
8
BLACK
6
CONTINUOUS
10
140.18
20
-102.24
11
140.52
21
-102.24
0
LINE
8
BLACK
6
CONTINUOUS
10
140.52
20
-102.24
11
140.574
21
-102.251
0
LINE
8
BLACK
6
CONTINUOUS
10
132.484
20
-101.551
11
132.529
21
-101.581
0
LINE
8
BLACK
6
CONTINUOUS
10
132.529
20
-101.581
11
132.559
21
-101.626
0
LINE
8
BLACK
6
CONTINUOUS
10
132.559
20
-101.626
11
132.57
21
-101.68
0
LINE
8
BLACK
6
CONTINUOUS
10
132.57
20
-101.68
11
132.57
21
-101.96
0
LINE
8
BLACK
6
CONTINUOUS
10
132.57
20
-101.96
11
132.559
21
-102.014
0
LINE
8
BLACK
6
CONTINUOUS
10
132.559
20
-102.014
11
132.529
21
-102.059
0
LINE
8
BLACK
6
CONTINUOUS
10
132.529
20
-102.059
11
132.484
21
-102.089
0
LINE
8
BLACK
6
CONTINUOUS
10
132.484
20
-102.089
11
132.43
21
-102.1
0
LINE
8
BLACK
6
CONTINUOUS
10
132.43
20
-102.1
11
132.09
21
-102.1
0
LINE
8
BLACK
6
CONTINUOUS
10
132.09
20
-102.1
11
132.036
21
-102.089
0
LINE
8
BLACK
6
CONTINUOUS
10
132.036
20
-102.089
11
131.991
21
-102.059
0
LINE
8
BLACK
6
CONTINUOUS
10
131.991
20
-102.059
11
131.961
21
-102.014
0
LINE
8
BLACK
6
CONTINUOUS
10
131.961
20
-102.014
11
131.95
21
-101.96
0
LINE
8
BLACK
6
CONTINUOUS
10
131.95
20
-101.96
11
131.95
21
-101.68
0
LINE
8
BLACK
6
CONTINUOUS
10
131.95
20
-101.68
11
131.961
21
-101.626
0
LINE
8
BLACK
6
CONTINUOUS
10
131.961
20
-101.626
11
131.991
21
-101.581
0
LINE
8
BLACK
6
CONTINUOUS
10
131.991
20
-101.581
11
132.036
21
-101.551
0
LINE
8
BLACK
6
CONTINUOUS
10
132.036
20
-101.551
11
132.09
21
-101.54
0
LINE
8
BLACK
6
CONTINUOUS
10
132.09
20
-101.54
11
132.43
21
-101.54
0
LINE
8
BLACK
6
CONTINUOUS
10
132.43
20
-101.54
11
132.484
21
-101.551
0
LINE
8
BLACK
6
CONTINUOUS
10
162.131
20
-100.05
11
162.293
21
-100.122
0
LINE
8
BLACK
6
CONTINUOUS
10
162.293
20
-100.122
11
162.437
21
-100.227
0
LINE
8
BLACK
6
CONTINUOUS
10
162.437
20
-100.227
11
162.556
21
-100.359
0
LINE
8
BLACK
6
CONTINUOUS
10
162.556
20
-100.359
11
162.644
21
-100.513
0
LINE
8
BLACK
6
CONTINUOUS
10
162.644
20
-100.513
11
162.699
21
-100.682
0
LINE
8
BLACK
6
CONTINUOUS
10
162.699
20
-100.682
11
162.718
21
-100.859
0
LINE
8
BLACK
6
CONTINUOUS
10
162.718
20
-100.859
11
162.699
21
-101.035
0
LINE
8
BLACK
6
CONTINUOUS
10
162.699
20
-101.035
11
162.644
21
-101.204
0
LINE
8
BLACK
6
CONTINUOUS
10
162.644
20
-101.204
11
162.556
21
-101.358
0
LINE
8
BLACK
6
CONTINUOUS
10
162.556
20
-101.358
11
162.437
21
-101.49
0
LINE
8
BLACK
6
CONTINUOUS
10
162.437
20
-101.49
11
162.293
21
-101.595
0
LINE
8
BLACK
6
CONTINUOUS
10
162.293
20
-101.595
11
162.131
21
-101.667
0
LINE
8
BLACK
6
CONTINUOUS
10
162.131
20
-101.667
11
161.957
21
-101.704
0
LINE
8
BLACK
6
CONTINUOUS
10
161.957
20
-101.704
11
161.779
21
-101.704
0
LINE
8
BLACK
6
CONTINUOUS
10
161.779
20
-101.704
11
161.605
21
-101.667
0
LINE
8
BLACK
6
CONTINUOUS
10
161.605
20
-101.667
11
161.443
21
-101.595
0
LINE
8
BLACK
6
CONTINUOUS
10
161.443
20
-101.595
11
161.299
21
-101.49
0
LINE
8
BLACK
6
CONTINUOUS
10
161.299
20
-101.49
11
161.18
21
-101.358
0
LINE
8
BLACK
6
CONTINUOUS
10
161.18
20
-101.358
11
161.091
21
-101.204
0
LINE
8
BLACK
6
CONTINUOUS
10
161.091
20
-101.204
11
161.036
21
-101.035
0
LINE
8
BLACK
6
CONTINUOUS
10
161.036
20
-101.035
11
161.018
21
-100.859
0
LINE
8
BLACK
6
CONTINUOUS
10
161.018
20
-100.859
11
161.036
21
-100.682
0
LINE
8
BLACK
6
CONTINUOUS
10
161.036
20
-100.682
11
161.091
21
-100.513
0
LINE
8
BLACK
6
CONTINUOUS
10
161.091
20
-100.513
11
161.18
21
-100.359
0
LINE
8
BLACK
6
CONTINUOUS
10
161.18
20
-100.359
11
161.299
21
-100.227
0
LINE
8
BLACK
6
CONTINUOUS
10
161.299
20
-100.227
11
161.443
21
-100.122
0
LINE
8
BLACK
6
CONTINUOUS
10
161.443
20
-100.122
11
161.605
21
-100.05
0
LINE
8
BLACK
6
CONTINUOUS
10
161.605
20
-100.05
11
161.779
21
-100.013
0
LINE
8
BLACK
6
CONTINUOUS
10
161.779
20
-100.013
11
161.957
21
-100.013
0
LINE
8
BLACK
6
CONTINUOUS
10
161.957
20
-100.013
11
162.131
21
-100.05
0
LINE
8
BLACK
6
CONTINUOUS
10
144.145
20
-100.31
11
143.595
21
-100.31
0
LINE
8
BLACK
6
CONTINUOUS
10
143.595
20
-100.31
11
143.595
21
-98.71
0
LINE
8
BLACK
6
CONTINUOUS
10
143.595
20
-98.71
11
144.145
21
-98.71
0
LINE
8
BLACK
6
CONTINUOUS
10
144.145
20
-98.71
11
144.145
21
-100.31
0
LINE
8
BLACK
6
CONTINUOUS
10
144.945
20
-100.31
11
144.395
21
-100.31
0
LINE
8
BLACK
6
CONTINUOUS
10
144.395
20
-100.31
11
144.395
21
-98.71
0
LINE
8
BLACK
6
CONTINUOUS
10
144.395
20
-98.71
11
144.945
21
-98.71
0
LINE
8
BLACK
6
CONTINUOUS
10
144.945
20
-98.71
11
144.945
21
-100.31
0
LINE
8
BLACK
6
CONTINUOUS
10
145.745
20
-100.31
11
145.195
21
-100.31
0
LINE
8
BLACK
6
CONTINUOUS
10
145.195
20
-100.31
11
145.195
21
-98.71
0
LINE
8
BLACK
6
CONTINUOUS
10
145.195
20
-98.71
11
145.745
21
-98.71
0
LINE
8
BLACK
6
CONTINUOUS
10
145.745
20
-98.71
11
145.745
21
-100.31
0
LINE
8
BLACK
6
CONTINUOUS
10
142.545
20
-100.31
11
141.995
21
-100.31
0
LINE
8
BLACK
6
CONTINUOUS
10
141.995
20
-100.31
11
141.995
21
-98.71
0
LINE
8
BLACK
6
CONTINUOUS
10
141.995
20
-98.71
11
142.545
21
-98.71
0
LINE
8
BLACK
6
CONTINUOUS
10
142.545
20
-98.71
11
142.545
21
-100.31
0
LINE
8
BLACK
6
CONTINUOUS
10
141.745
20
-100.31
11
141.195
21
-100.31
0
LINE
8
BLACK
6
CONTINUOUS
10
141.195
20
-100.31
11
141.195
21
-98.71
0
LINE
8
BLACK
6
CONTINUOUS
10
141.195
20
-98.71
11
141.745
21
-98.71
0
LINE
8
BLACK
6
CONTINUOUS
10
141.745
20
-98.71
11
141.745
21
-100.31
0
LINE
8
BLACK
6
CONTINUOUS
10
143.345
20
-100.31
11
142.795
21
-100.31
0
LINE
8
BLACK
6
CONTINUOUS
10
142.795
20
-100.31
11
142.795
21
-98.71
0
LINE
8
BLACK
6
CONTINUOUS
10
142.795
20
-98.71
11
143.345
21
-98.71
0
LINE
8
BLACK
6
CONTINUOUS
10
143.345
20
-98.71
11
143.345
21
-100.31
0
LINE
8
BLACK
6
CONTINUOUS
10
140.945
20
-100.31
11
140.395
21
-100.31
0
LINE
8
BLACK
6
CONTINUOUS
10
140.395
20
-100.31
11
140.395
21
-98.71
0
LINE
8
BLACK
6
CONTINUOUS
10
140.395
20
-98.71
11
140.945
21
-98.71
0
LINE
8
BLACK
6
CONTINUOUS
10
140.945
20
-98.71
11
140.945
21
-100.31
0
LINE
8
BLACK
6
CONTINUOUS
10
140.145
20
-100.31
11
139.595
21
-100.31
0
LINE
8
BLACK
6
CONTINUOUS
10
139.595
20
-100.31
11
139.595
21
-98.71
0
LINE
8
BLACK
6
CONTINUOUS
10
139.595
20
-98.71
11
140.145
21
-98.71
0
LINE
8
BLACK
6
CONTINUOUS
10
140.145
20
-98.71
11
140.145
21
-100.31
0
LINE
8
BLACK
6
CONTINUOUS
10
136.285
20
-100.014
11
133.885
21
-100.014
0
LINE
8
BLACK
6
CONTINUOUS
10
133.885
20
-100.014
11
133.885
21
-98.0144
0
LINE
8
BLACK
6
CONTINUOUS
10
133.885
20
-98.0144
11
136.285
21
-98.0144
0
LINE
8
BLACK
6
CONTINUOUS
10
136.285
20
-98.0144
11
136.285
21
-100.014
0
LINE
8
BLACK
6
CONTINUOUS
10
152.677
20
-98.7402
11
152.741
21
-98.7836
0
LINE
8
BLACK
6
CONTINUOUS
10
152.741
20
-98.7836
11
152.785
21
-98.8485
0
LINE
8
BLACK
6
CONTINUOUS
10
152.785
20
-98.8485
11
152.8
21
-98.925
0
LINE
8
BLACK
6
CONTINUOUS
10
152.8
20
-98.925
11
152.8
21
-99.475
0
LINE
8
BLACK
6
CONTINUOUS
10
152.8
20
-99.475
11
152.785
21
-99.5515
0
LINE
8
BLACK
6
CONTINUOUS
10
152.785
20
-99.5515
11
152.741
21
-99.6164
0
LINE
8
BLACK
6
CONTINUOUS
10
152.741
20
-99.6164
11
152.677
21
-99.6598
0
LINE
8
BLACK
6
CONTINUOUS
10
152.677
20
-99.6598
11
152.6
21
-99.675
0
LINE
8
BLACK
6
CONTINUOUS
10
152.6
20
-99.675
11
152.2
21
-99.675
0
LINE
8
BLACK
6
CONTINUOUS
10
152.2
20
-99.675
11
152.123
21
-99.6598
0
LINE
8
BLACK
6
CONTINUOUS
10
152.123
20
-99.6598
11
152.059
21
-99.6164
0
LINE
8
BLACK
6
CONTINUOUS
10
152.059
20
-99.6164
11
152.015
21
-99.5515
0
LINE
8
BLACK
6
CONTINUOUS
10
152.015
20
-99.5515
11
152
21
-99.475
0
LINE
8
BLACK
6
CONTINUOUS
10
152
20
-99.475
11
152
21
-98.925
0
LINE
8
BLACK
6
CONTINUOUS
10
152
20
-98.925
11
152.015
21
-98.8485
0
LINE
8
BLACK
6
CONTINUOUS
10
152.015
20
-98.8485
11
152.059
21
-98.7836
0
LINE
8
BLACK
6
CONTINUOUS
10
152.059
20
-98.7836
11
152.123
21
-98.7402
0
LINE
8
BLACK
6
CONTINUOUS
10
152.123
20
-98.7402
11
152.2
21
-98.725
0
LINE
8
BLACK
6
CONTINUOUS
10
152.2
20
-98.725
11
152.6
21
-98.725
0
LINE
8
BLACK
6
CONTINUOUS
10
152.6
20
-98.725
11
152.677
21
-98.7402
0
LINE
8
BLACK
6
CONTINUOUS
10
151.027
20
-98.7402
11
151.091
21
-98.7836
0
LINE
8
BLACK
6
CONTINUOUS
10
151.091
20
-98.7836
11
151.135
21
-98.8485
0
LINE
8
BLACK
6
CONTINUOUS
10
151.135
20
-98.8485
11
151.15
21
-98.925
0
LINE
8
BLACK
6
CONTINUOUS
10
151.15
20
-98.925
11
151.15
21
-99.475
0
LINE
8
BLACK
6
CONTINUOUS
10
151.15
20
-99.475
11
151.135
21
-99.5515
0
LINE
8
BLACK
6
CONTINUOUS
10
151.135
20
-99.5515
11
151.091
21
-99.6164
0
LINE
8
BLACK
6
CONTINUOUS
10
151.091
20
-99.6164
11
151.027
21
-99.6598
0
LINE
8
BLACK
6
CONTINUOUS
10
151.027
20
-99.6598
11
150.95
21
-99.675
0
LINE
8
BLACK
6
CONTINUOUS
10
150.95
20
-99.675
11
150.55
21
-99.675
0
LINE
8
BLACK
6
CONTINUOUS
10
150.55
20
-99.675
11
150.473
21
-99.6598
0
LINE
8
BLACK
6
CONTINUOUS
10
150.473
20
-99.6598
11
150.409
21
-99.6164
0
LINE
8
BLACK
6
CONTINUOUS
10
150.409
20
-99.6164
11
150.365
21
-99.5515
0
LINE
8
BLACK
6
CONTINUOUS
10
150.365
20
-99.5515
11
150.35
21
-99.475
0
LINE
8
BLACK
6
CONTINUOUS
10
150.35
20
-99.475
11
150.35
21
-98.925
0
LINE
8
BLACK
6
CONTINUOUS
10
150.35
20
-98.925
11
150.365
21
-98.8485
0
LINE
8
BLACK
6
CONTINUOUS
10
150.365
20
-98.8485
11
150.409
21
-98.7836
0
LINE
8
BLACK
6
CONTINUOUS
10
150.409
20
-98.7836
11
150.473
21
-98.7402
0
LINE
8
BLACK
6
CONTINUOUS
10
150.473
20
-98.7402
11
150.55
21
-98.725
0
LINE
8
BLACK
6
CONTINUOUS
10
150.55
20
-98.725
11
150.95
21
-98.725
0
LINE
8
BLACK
6
CONTINUOUS
10
150.95
20
-98.725
11
151.027
21
-98.7402
0
LINE
8
BLACK
6
CONTINUOUS
10
132.558
20
-98.8101
11
132.604
21
-98.8404
0
LINE
8
BLACK
6
CONTINUOUS
10
132.604
20
-98.8404
11
132.634
21
-98.8858
0
LINE
8
BLACK
6
CONTINUOUS
10
132.634
20
-98.8858
11
132.645
21
-98.9394
0
LINE
8
BLACK
6
CONTINUOUS
10
132.645
20
-98.9394
11
132.645
21
-99.2194
0
LINE
8
BLACK
6
CONTINUOUS
10
132.645
20
-99.2194
11
132.634
21
-99.273
0
LINE
8
BLACK
6
CONTINUOUS
10
132.634
20
-99.273
11
132.604
21
-99.3184
0
LINE
8
BLACK
6
CONTINUOUS
10
132.604
20
-99.3184
11
132.558
21
-99.3487
0
LINE
8
BLACK
6
CONTINUOUS
10
132.558
20
-99.3487
11
132.505
21
-99.3594
0
LINE
8
BLACK
6
CONTINUOUS
10
132.505
20
-99.3594
11
132.165
21
-99.3594
0
LINE
8
BLACK
6
CONTINUOUS
10
132.165
20
-99.3594
11
132.111
21
-99.3487
0
LINE
8
BLACK
6
CONTINUOUS
10
132.111
20
-99.3487
11
132.066
21
-99.3184
0
LINE
8
BLACK
6
CONTINUOUS
10
132.066
20
-99.3184
11
132.035
21
-99.273
0
LINE
8
BLACK
6
CONTINUOUS
10
132.035
20
-99.273
11
132.025
21
-99.2194
0
LINE
8
BLACK
6
CONTINUOUS
10
132.025
20
-99.2194
11
132.025
21
-98.9394
0
LINE
8
BLACK
6
CONTINUOUS
10
132.025
20
-98.9394
11
132.035
21
-98.8858
0
LINE
8
BLACK
6
CONTINUOUS
10
132.035
20
-98.8858
11
132.066
21
-98.8404
0
LINE
8
BLACK
6
CONTINUOUS
10
132.066
20
-98.8404
11
132.111
21
-98.8101
0
LINE
8
BLACK
6
CONTINUOUS
10
132.111
20
-98.8101
11
132.165
21
-98.7994
0
LINE
8
BLACK
6
CONTINUOUS
10
132.165
20
-98.7994
11
132.505
21
-98.7994
0
LINE
8
BLACK
6
CONTINUOUS
10
132.505
20
-98.7994
11
132.558
21
-98.8101
0
LINE
8
BLACK
6
CONTINUOUS
10
162.131
20
-97.5102
11
162.293
21
-97.5824
0
LINE
8
BLACK
6
CONTINUOUS
10
162.293
20
-97.5824
11
162.437
21
-97.6869
0
LINE
8
BLACK
6
CONTINUOUS
10
162.437
20
-97.6869
11
162.556
21
-97.819
0
LINE
8
BLACK
6
CONTINUOUS
10
162.556
20
-97.819
11
162.644
21
-97.9728
0
LINE
8
BLACK
6
CONTINUOUS
10
162.644
20
-97.9728
11
162.699
21
-98.1418
0
LINE
8
BLACK
6
CONTINUOUS
10
162.699
20
-98.1418
11
162.718
21
-98.3186
0
LINE
8
BLACK
6
CONTINUOUS
10
162.718
20
-98.3186
11
162.699
21
-98.4953
0
LINE
8
BLACK
6
CONTINUOUS
10
162.699
20
-98.4953
11
162.644
21
-98.6643
0
LINE
8
BLACK
6
CONTINUOUS
10
162.644
20
-98.6643
11
162.556
21
-98.8182
0
LINE
8
BLACK
6
CONTINUOUS
10
162.556
20
-98.8182
11
162.437
21
-98.9502
0
LINE
8
BLACK
6
CONTINUOUS
10
162.437
20
-98.9502
11
162.293
21
-99.0547
0
LINE
8
BLACK
6
CONTINUOUS
10
162.293
20
-99.0547
11
162.131
21
-99.127
0
LINE
8
BLACK
6
CONTINUOUS
10
162.131
20
-99.127
11
161.957
21
-99.1639
0
LINE
8
BLACK
6
CONTINUOUS
10
161.957
20
-99.1639
11
161.779
21
-99.1639
0
LINE
8
BLACK
6
CONTINUOUS
10
161.779
20
-99.1639
11
161.605
21
-99.127
0
LINE
8
BLACK
6
CONTINUOUS
10
161.605
20
-99.127
11
161.443
21
-99.0547
0
LINE
8
BLACK
6
CONTINUOUS
10
161.443
20
-99.0547
11
161.299
21
-98.9502
0
LINE
8
BLACK
6
CONTINUOUS
10
161.299
20
-98.9502
11
161.18
21
-98.8182
0
LINE
8
BLACK
6
CONTINUOUS
10
161.18
20
-98.8182
11
161.091
21
-98.6643
0
LINE
8
BLACK
6
CONTINUOUS
10
161.091
20
-98.6643
11
161.036
21
-98.4953
0
LINE
8
BLACK
6
CONTINUOUS
10
161.036
20
-98.4953
11
161.018
21
-98.3186
0
LINE
8
BLACK
6
CONTINUOUS
10
161.018
20
-98.3186
11
161.036
21
-98.1418
0
LINE
8
BLACK
6
CONTINUOUS
10
161.036
20
-98.1418
11
161.091
21
-97.9728
0
LINE
8
BLACK
6
CONTINUOUS
10
161.091
20
-97.9728
11
161.18
21
-97.819
0
LINE
8
BLACK
6
CONTINUOUS
10
161.18
20
-97.819
11
161.299
21
-97.6869
0
LINE
8
BLACK
6
CONTINUOUS
10
161.299
20
-97.6869
11
161.443
21
-97.5824
0
LINE
8
BLACK
6
CONTINUOUS
10
161.443
20
-97.5824
11
161.605
21
-97.5102
0
LINE
8
BLACK
6
CONTINUOUS
10
161.605
20
-97.5102
11
161.779
21
-97.4732
0
LINE
8
BLACK
6
CONTINUOUS
10
161.779
20
-97.4732
11
161.957
21
-97.4732
0
LINE
8
BLACK
6
CONTINUOUS
10
161.957
20
-97.4732
11
162.131
21
-97.5102
0
LINE
8
BLACK
6
CONTINUOUS
10
148.814
20
-98.0007
11
148.859
21
-98.031
0
LINE
8
BLACK
6
CONTINUOUS
10
148.859
20
-98.031
11
148.889
21
-98.0764
0
LINE
8
BLACK
6
CONTINUOUS
10
148.889
20
-98.0764
11
148.9
21
-98.13
0
LINE
8
BLACK
6
CONTINUOUS
10
148.9
20
-98.13
11
148.9
21
-98.41
0
LINE
8
BLACK
6
CONTINUOUS
10
148.9
20
-98.41
11
148.889
21
-98.4636
0
LINE
8
BLACK
6
CONTINUOUS
10
148.889
20
-98.4636
11
148.859
21
-98.509
0
LINE
8
BLACK
6
CONTINUOUS
10
148.859
20
-98.509
11
148.814
21
-98.5393
0
LINE
8
BLACK
6
CONTINUOUS
10
148.814
20
-98.5393
11
148.76
21
-98.55
0
LINE
8
BLACK
6
CONTINUOUS
10
148.76
20
-98.55
11
148.42
21
-98.55
0
LINE
8
BLACK
6
CONTINUOUS
10
148.42
20
-98.55
11
148.366
21
-98.5393
0
LINE
8
BLACK
6
CONTINUOUS
10
148.366
20
-98.5393
11
148.321
21
-98.509
0
LINE
8
BLACK
6
CONTINUOUS
10
148.321
20
-98.509
11
148.291
21
-98.4636
0
LINE
8
BLACK
6
CONTINUOUS
10
148.291
20
-98.4636
11
148.28
21
-98.41
0
LINE
8
BLACK
6
CONTINUOUS
10
148.28
20
-98.41
11
148.28
21
-98.13
0
LINE
8
BLACK
6
CONTINUOUS
10
148.28
20
-98.13
11
148.291
21
-98.0764
0
LINE
8
BLACK
6
CONTINUOUS
10
148.291
20
-98.0764
11
148.321
21
-98.031
0
LINE
8
BLACK
6
CONTINUOUS
10
148.321
20
-98.031
11
148.366
21
-98.0007
0
LINE
8
BLACK
6
CONTINUOUS
10
148.366
20
-98.0007
11
148.42
21
-97.99
0
LINE
8
BLACK
6
CONTINUOUS
10
148.42
20
-97.99
11
148.76
21
-97.99
0
LINE
8
BLACK
6
CONTINUOUS
10
148.76
20
-97.99
11
148.814
21
-98.0007
0
LINE
8
BLACK
6
CONTINUOUS
10
132.558
20
-97.8501
11
132.604
21
-97.8804
0
LINE
8
BLACK
6
CONTINUOUS
10
132.604
20
-97.8804
11
132.634
21
-97.9258
0
LINE
8
BLACK
6
CONTINUOUS
10
132.634
20
-97.9258
11
132.645
21
-97.9794
0
LINE
8
BLACK
6
CONTINUOUS
10
132.645
20
-97.9794
11
132.645
21
-98.2594
0
LINE
8
BLACK
6
CONTINUOUS
10
132.645
20
-98.2594
11
132.634
21
-98.313
0
LINE
8
BLACK
6
CONTINUOUS
10
132.634
20
-98.313
11
132.604
21
-98.3584
0
LINE
8
BLACK
6
CONTINUOUS
10
132.604
20
-98.3584
11
132.558
21
-98.3887
0
LINE
8
BLACK
6
CONTINUOUS
10
132.558
20
-98.3887
11
132.505
21
-98.3994
0
LINE
8
BLACK
6
CONTINUOUS
10
132.505
20
-98.3994
11
132.165
21
-98.3994
0
LINE
8
BLACK
6
CONTINUOUS
10
132.165
20
-98.3994
11
132.111
21
-98.3887
0
LINE
8
BLACK
6
CONTINUOUS
10
132.111
20
-98.3887
11
132.066
21
-98.3584
0
LINE
8
BLACK
6
CONTINUOUS
10
132.066
20
-98.3584
11
132.035
21
-98.313
0
LINE
8
BLACK
6
CONTINUOUS
10
132.035
20
-98.313
11
132.025
21
-98.2594
0
LINE
8
BLACK
6
CONTINUOUS
10
132.025
20
-98.2594
11
132.025
21
-97.9794
0
LINE
8
BLACK
6
CONTINUOUS
10
132.025
20
-97.9794
11
132.035
21
-97.9258
0
LINE
8
BLACK
6
CONTINUOUS
10
132.035
20
-97.9258
11
132.066
21
-97.8804
0
LINE
8
BLACK
6
CONTINUOUS
10
132.066
20
-97.8804
11
132.111
21
-97.8501
0
LINE
8
BLACK
6
CONTINUOUS
10
132.111
20
-97.8501
11
132.165
21
-97.8394
0
LINE
8
BLACK
6
CONTINUOUS
10
132.165
20
-97.8394
11
132.505
21
-97.8394
0
LINE
8
BLACK
6
CONTINUOUS
10
132.505
20
-97.8394
11
132.558
21
-97.8501
0
LINE
8
BLACK
6
CONTINUOUS
10
147.72
20
-98.335
11
146.12
21
-98.335
0
LINE
8
BLACK
6
CONTINUOUS
10
146.12
20
-98.335
11
146.12
21
-97.785
0
LINE
8
BLACK
6
CONTINUOUS
10
146.12
20
-97.785
11
147.72
21
-97.785
0
LINE
8
BLACK
6
CONTINUOUS
10
147.72
20
-97.785
11
147.72
21
-98.335
0
LINE
8
BLACK
6
CONTINUOUS
10
139.22
20
-98.335
11
137.62
21
-98.335
0
LINE
8
BLACK
6
CONTINUOUS
10
137.62
20
-98.335
11
137.62
21
-97.785
0
LINE
8
BLACK
6
CONTINUOUS
10
137.62
20
-97.785
11
139.22
21
-97.785
0
LINE
8
BLACK
6
CONTINUOUS
10
139.22
20
-97.785
11
139.22
21
-98.335
0
LINE
8
BLACK
6
CONTINUOUS
10
148.814
20
-97.0407
11
148.859
21
-97.071
0
LINE
8
BLACK
6
CONTINUOUS
10
148.859
20
-97.071
11
148.889
21
-97.1164
0
LINE
8
BLACK
6
CONTINUOUS
10
148.889
20
-97.1164
11
148.9
21
-97.17
0
LINE
8
BLACK
6
CONTINUOUS
10
148.9
20
-97.17
11
148.9
21
-97.45
0
LINE
8
BLACK
6
CONTINUOUS
10
148.9
20
-97.45
11
148.889
21
-97.5036
0
LINE
8
BLACK
6
CONTINUOUS
10
148.889
20
-97.5036
11
148.859
21
-97.549
0
LINE
8
BLACK
6
CONTINUOUS
10
148.859
20
-97.549
11
148.814
21
-97.5793
0
LINE
8
BLACK
6
CONTINUOUS
10
148.814
20
-97.5793
11
148.76
21
-97.59
0
LINE
8
BLACK
6
CONTINUOUS
10
148.76
20
-97.59
11
148.42
21
-97.59
0
LINE
8
BLACK
6
CONTINUOUS
10
148.42
20
-97.59
11
148.366
21
-97.5793
0
LINE
8
BLACK
6
CONTINUOUS
10
148.366
20
-97.5793
11
148.321
21
-97.549
0
LINE
8
BLACK
6
CONTINUOUS
10
148.321
20
-97.549
11
148.291
21
-97.5036
0
LINE
8
BLACK
6
CONTINUOUS
10
148.291
20
-97.5036
11
148.28
21
-97.45
0
LINE
8
BLACK
6
CONTINUOUS
10
148.28
20
-97.45
11
148.28
21
-97.17
0
LINE
8
BLACK
6
CONTINUOUS
10
148.28
20
-97.17
11
148.291
21
-97.1164
0
LINE
8
BLACK
6
CONTINUOUS
10
148.291
20
-97.1164
11
148.321
21
-97.071
0
LINE
8
BLACK
6
CONTINUOUS
10
148.321
20
-97.071
11
148.366
21
-97.0407
0
LINE
8
BLACK
6
CONTINUOUS
10
148.366
20
-97.0407
11
148.42
21
-97.03
0
LINE
8
BLACK
6
CONTINUOUS
10
148.42
20
-97.03
11
148.76
21
-97.03
0
LINE
8
BLACK
6
CONTINUOUS
10
148.76
20
-97.03
11
148.814
21
-97.0407
0
LINE
8
BLACK
6
CONTINUOUS
10
147.72
20
-97.535
11
146.12
21
-97.535
0
LINE
8
BLACK
6
CONTINUOUS
10
146.12
20
-97.535
11
146.12
21
-96.985
0
LINE
8
BLACK
6
CONTINUOUS
10
146.12
20
-96.985
11
147.72
21
-96.985
0
LINE
8
BLACK
6
CONTINUOUS
10
147.72
20
-96.985
11
147.72
21
-97.535
0
LINE
8
BLACK
6
CONTINUOUS
10
139.22
20
-97.535
11
137.62
21
-97.535
0
LINE
8
BLACK
6
CONTINUOUS
10
137.62
20
-97.535
11
137.62
21
-96.985
0
LINE
8
BLACK
6
CONTINUOUS
10
137.62
20
-96.985
11
139.22
21
-96.985
0
LINE
8
BLACK
6
CONTINUOUS
10
139.22
20
-96.985
11
139.22
21
-97.535
0
LINE
8
BLACK
6
CONTINUOUS
10
136.724
20
-96.2257
11
136.769
21
-96.256
0
LINE
8
BLACK
6
CONTINUOUS
10
136.769
20
-96.256
11
136.799
21
-96.3014
0
LINE
8
BLACK
6
CONTINUOUS
10
136.799
20
-96.3014
11
136.81
21
-96.355
0
LINE
8
BLACK
6
CONTINUOUS
10
136.81
20
-96.355
11
136.81
21
-96.695
0
LINE
8
BLACK
6
CONTINUOUS
10
136.81
20
-96.695
11
136.799
21
-96.7486
0
LINE
8
BLACK
6
CONTINUOUS
10
136.799
20
-96.7486
11
136.769
21
-96.794
0
LINE
8
BLACK
6
CONTINUOUS
10
136.769
20
-96.794
11
136.724
21
-96.8243
0
LINE
8
BLACK
6
CONTINUOUS
10
136.724
20
-96.8243
11
136.67
21
-96.835
0
LINE
8
BLACK
6
CONTINUOUS
10
136.67
20
-96.835
11
136.39
21
-96.835
0
LINE
8
BLACK
6
CONTINUOUS
10
136.39
20
-96.835
11
136.336
21
-96.8243
0
LINE
8
BLACK
6
CONTINUOUS
10
136.336
20
-96.8243
11
136.291
21
-96.794
0
LINE
8
BLACK
6
CONTINUOUS
10
136.291
20
-96.794
11
136.261
21
-96.7486
0
LINE
8
BLACK
6
CONTINUOUS
10
136.261
20
-96.7486
11
136.25
21
-96.695
0
LINE
8
BLACK
6
CONTINUOUS
10
136.25
20
-96.695
11
136.25
21
-96.355
0
LINE
8
BLACK
6
CONTINUOUS
10
136.25
20
-96.355
11
136.261
21
-96.3014
0
LINE
8
BLACK
6
CONTINUOUS
10
136.261
20
-96.3014
11
136.291
21
-96.256
0
LINE
8
BLACK
6
CONTINUOUS
10
136.291
20
-96.256
11
136.336
21
-96.2257
0
LINE
8
BLACK
6
CONTINUOUS
10
136.336
20
-96.2257
11
136.39
21
-96.215
0
LINE
8
BLACK
6
CONTINUOUS
10
136.39
20
-96.215
11
136.67
21
-96.215
0
LINE
8
BLACK
6
CONTINUOUS
10
136.67
20
-96.215
11
136.724
21
-96.2257
0
LINE
8
BLACK
6
CONTINUOUS
10
135.764
20
-96.2257
11
135.809
21
-96.256
0
LINE
8
BLACK
6
CONTINUOUS
10
135.809
20
-96.256
11
135.839
21
-96.3014
0
LINE
8
BLACK
6
CONTINUOUS
10
135.839
20
-96.3014
11
135.85
21
-96.355
0
LINE
8
BLACK
6
CONTINUOUS
10
135.85
20
-96.355
11
135.85
21
-96.695
0
LINE
8
BLACK
6
CONTINUOUS
10
135.85
20
-96.695
11
135.839
21
-96.7486
0
LINE
8
BLACK
6
CONTINUOUS
10
135.839
20
-96.7486
11
135.809
21
-96.794
0
LINE
8
BLACK
6
CONTINUOUS
10
135.809
20
-96.794
11
135.764
21
-96.8243
0
LINE
8
BLACK
6
CONTINUOUS
10
135.764
20
-96.8243
11
135.71
21
-96.835
0
LINE
8
BLACK
6
CONTINUOUS
10
135.71
20
-96.835
11
135.43
21
-96.835
0
LINE
8
BLACK
6
CONTINUOUS
10
135.43
20
-96.835
11
135.376
21
-96.8243
0
LINE
8
BLACK
6
CONTINUOUS
10
135.376
20
-96.8243
11
135.331
21
-96.794
0
LINE
8
BLACK
6
CONTINUOUS
10
135.331
20
-96.794
11
135.301
21
-96.7486
0
LINE
8
BLACK
6
CONTINUOUS
10
135.301
20
-96.7486
11
135.29
21
-96.695
0
LINE
8
BLACK
6
CONTINUOUS
10
135.29
20
-96.695
11
135.29
21
-96.355
0
LINE
8
BLACK
6
CONTINUOUS
10
135.29
20
-96.355
11
135.301
21
-96.3014
0
LINE
8
BLACK
6
CONTINUOUS
10
135.301
20
-96.3014
11
135.331
21
-96.256
0
LINE
8
BLACK
6
CONTINUOUS
10
135.331
20
-96.256
11
135.376
21
-96.2257
0
LINE
8
BLACK
6
CONTINUOUS
10
135.376
20
-96.2257
11
135.43
21
-96.215
0
LINE
8
BLACK
6
CONTINUOUS
10
135.43
20
-96.215
11
135.71
21
-96.215
0
LINE
8
BLACK
6
CONTINUOUS
10
135.71
20
-96.215
11
135.764
21
-96.2257
0
LINE
8
BLACK
6
CONTINUOUS
10
147.72
20
-96.735
11
146.12
21
-96.735
0
LINE
8
BLACK
6
CONTINUOUS
10
146.12
20
-96.735
11
146.12
21
-96.185
0
LINE
8
BLACK
6
CONTINUOUS
10
146.12
20
-96.185
11
147.72
21
-96.185
0
LINE
8
BLACK
6
CONTINUOUS
10
147.72
20
-96.185
11
147.72
21
-96.735
0
LINE
8
BLACK
6
CONTINUOUS
10
139.22
20
-96.735
11
137.62
21
-96.735
0
LINE
8
BLACK
6
CONTINUOUS
10
137.62
20
-96.735
11
137.62
21
-96.185
0
LINE
8
BLACK
6
CONTINUOUS
10
137.62
20
-96.185
11
139.22
21
-96.185
0
LINE
8
BLACK
6
CONTINUOUS
10
139.22
20
-96.185
11
139.22
21
-96.735
0
LINE
8
BLACK
6
CONTINUOUS
10
162.723
20
-96.6136
11
162.718
21
-96.6136
0
LINE
8
BLACK
6
CONTINUOUS
10
162.718
20
-96.6136
11
162.718
21
-96.6286
0
LINE
8
BLACK
6
CONTINUOUS
10
162.718
20
-96.6286
11
161.018
21
-96.6286
0
LINE
8
BLACK
6
CONTINUOUS
10
161.018
20
-96.6286
11
161.018
21
-94.9286
0
LINE
8
BLACK
6
CONTINUOUS
10
161.018
20
-94.9286
11
161.023
21
-94.9286
0
LINE
8
BLACK
6
CONTINUOUS
10
161.023
20
-94.9286
11
161.023
21
-94.9136
0
LINE
8
BLACK
6
CONTINUOUS
10
161.023
20
-94.9136
11
162.723
21
-94.9136
0
LINE
8
BLACK
6
CONTINUOUS
10
162.723
20
-94.9136
11
162.723
21
-96.6136
0
LINE
8
BLACK
6
CONTINUOUS
10
147.72
20
-95.935
11
146.12
21
-95.935
0
LINE
8
BLACK
6
CONTINUOUS
10
146.12
20
-95.935
11
146.12
21
-95.385
0
LINE
8
BLACK
6
CONTINUOUS
10
146.12
20
-95.385
11
147.72
21
-95.385
0
LINE
8
BLACK
6
CONTINUOUS
10
147.72
20
-95.385
11
147.72
21
-95.935
0
LINE
8
BLACK
6
CONTINUOUS
10
139.22
20
-95.935
11
137.62
21
-95.935
0
LINE
8
BLACK
6
CONTINUOUS
10
137.62
20
-95.935
11
137.62
21
-95.385
0
LINE
8
BLACK
6
CONTINUOUS
10
137.62
20
-95.385
11
139.22
21
-95.385
0
LINE
8
BLACK
6
CONTINUOUS
10
139.22
20
-95.385
11
139.22
21
-95.935
0
LINE
8
BLACK
6
CONTINUOUS
10
158.47
20
-94.5934
11
158.552
21
-94.6476
0
LINE
8
BLACK
6
CONTINUOUS
10
158.552
20
-94.6476
11
158.606
21
-94.7287
0
LINE
8
BLACK
6
CONTINUOUS
10
158.606
20
-94.7287
11
158.625
21
-94.8244
0
LINE
8
BLACK
6
CONTINUOUS
10
158.625
20
-94.8244
11
158.625
21
-95.6744
0
LINE
8
BLACK
6
CONTINUOUS
10
158.625
20
-95.6744
11
158.606
21
-95.7701
0
LINE
8
BLACK
6
CONTINUOUS
10
158.606
20
-95.7701
11
158.552
21
-95.8512
0
LINE
8
BLACK
6
CONTINUOUS
10
158.552
20
-95.8512
11
158.47
21
-95.9054
0
LINE
8
BLACK
6
CONTINUOUS
10
158.47
20
-95.9054
11
158.375
21
-95.9244
0
LINE
8
BLACK
6
CONTINUOUS
10
158.375
20
-95.9244
11
157.475
21
-95.9244
0
LINE
8
BLACK
6
CONTINUOUS
10
157.475
20
-95.9244
11
157.379
21
-95.9054
0
LINE
8
BLACK
6
CONTINUOUS
10
157.379
20
-95.9054
11
157.298
21
-95.8512
0
LINE
8
BLACK
6
CONTINUOUS
10
157.298
20
-95.8512
11
157.244
21
-95.7701
0
LINE
8
BLACK
6
CONTINUOUS
10
157.244
20
-95.7701
11
157.225
21
-95.6744
0
LINE
8
BLACK
6
CONTINUOUS
10
157.225
20
-95.6744
11
157.225
21
-94.8244
0
LINE
8
BLACK
6
CONTINUOUS
10
157.225
20
-94.8244
11
157.244
21
-94.7287
0
LINE
8
BLACK
6
CONTINUOUS
10
157.244
20
-94.7287
11
157.298
21
-94.6476
0
LINE
8
BLACK
6
CONTINUOUS
10
157.298
20
-94.6476
11
157.379
21
-94.5934
0
LINE
8
BLACK
6
CONTINUOUS
10
157.379
20
-94.5934
11
157.475
21
-94.5744
0
LINE
8
BLACK
6
CONTINUOUS
10
157.475
20
-94.5744
11
158.375
21
-94.5744
0
LINE
8
BLACK
6
CONTINUOUS
10
158.375
20
-94.5744
11
158.47
21
-94.5934
0
LINE
8
BLACK
6
CONTINUOUS
10
155.77
20
-94.5934
11
155.852
21
-94.6476
0
LINE
8
BLACK
6
CONTINUOUS
10
155.852
20
-94.6476
11
155.906
21
-94.7287
0
LINE
8
BLACK
6
CONTINUOUS
10
155.906
20
-94.7287
11
155.925
21
-94.8244
0
LINE
8
BLACK
6
CONTINUOUS
10
155.925
20
-94.8244
11
155.925
21
-95.6744
0
LINE
8
BLACK
6
CONTINUOUS
10
155.925
20
-95.6744
11
155.906
21
-95.7701
0
LINE
8
BLACK
6
CONTINUOUS
10
155.906
20
-95.7701
11
155.852
21
-95.8512
0
LINE
8
BLACK
6
CONTINUOUS
10
155.852
20
-95.8512
11
155.77
21
-95.9054
0
LINE
8
BLACK
6
CONTINUOUS
10
155.77
20
-95.9054
11
155.675
21
-95.9244
0
LINE
8
BLACK
6
CONTINUOUS
10
155.675
20
-95.9244
11
154.775
21
-95.9244
0
LINE
8
BLACK
6
CONTINUOUS
10
154.775
20
-95.9244
11
154.679
21
-95.9054
0
LINE
8
BLACK
6
CONTINUOUS
10
154.679
20
-95.9054
11
154.598
21
-95.8512
0
LINE
8
BLACK
6
CONTINUOUS
10
154.598
20
-95.8512
11
154.544
21
-95.7701
0
LINE
8
BLACK
6
CONTINUOUS
10
154.544
20
-95.7701
11
154.525
21
-95.6744
0
LINE
8
BLACK
6
CONTINUOUS
10
154.525
20
-95.6744
11
154.525
21
-94.8244
0
LINE
8
BLACK
6
CONTINUOUS
10
154.525
20
-94.8244
11
154.544
21
-94.7287
0
LINE
8
BLACK
6
CONTINUOUS
10
154.544
20
-94.7287
11
154.598
21
-94.6476
0
LINE
8
BLACK
6
CONTINUOUS
10
154.598
20
-94.6476
11
154.679
21
-94.5934
0
LINE
8
BLACK
6
CONTINUOUS
10
154.679
20
-94.5934
11
154.775
21
-94.5744
0
LINE
8
BLACK
6
CONTINUOUS
10
154.775
20
-94.5744
11
155.675
21
-94.5744
0
LINE
8
BLACK
6
CONTINUOUS
10
155.675
20
-94.5744
11
155.77
21
-94.5934
0
LINE
8
BLACK
6
CONTINUOUS
10
136.714
20
-94.6307
11
136.759
21
-94.661
0
LINE
8
BLACK
6
CONTINUOUS
10
136.759
20
-94.661
11
136.789
21
-94.7064
0
LINE
8
BLACK
6
CONTINUOUS
10
136.789
20
-94.7064
11
136.8
21
-94.76
0
LINE
8
BLACK
6
CONTINUOUS
10
136.8
20
-94.76
11
136.8
21
-95.1
0
LINE
8
BLACK
6
CONTINUOUS
10
136.8
20
-95.1
11
136.789
21
-95.1536
0
LINE
8
BLACK
6
CONTINUOUS
10
136.789
20
-95.1536
11
136.759
21
-95.199
0
LINE
8
BLACK
6
CONTINUOUS
10
136.759
20
-95.199
11
136.714
21
-95.2293
0
LINE
8
BLACK
6
CONTINUOUS
10
136.714
20
-95.2293
11
136.66
21
-95.24
0
LINE
8
BLACK
6
CONTINUOUS
10
136.66
20
-95.24
11
136.38
21
-95.24
0
LINE
8
BLACK
6
CONTINUOUS
10
136.38
20
-95.24
11
136.326
21
-95.2293
0
LINE
8
BLACK
6
CONTINUOUS
10
136.326
20
-95.2293
11
136.281
21
-95.199
0
LINE
8
BLACK
6
CONTINUOUS
10
136.281
20
-95.199
11
136.251
21
-95.1536
0
LINE
8
BLACK
6
CONTINUOUS
10
136.251
20
-95.1536
11
136.24
21
-95.1
0
LINE
8
BLACK
6
CONTINUOUS
10
136.24
20
-95.1
11
136.24
21
-94.76
0
LINE
8
BLACK
6
CONTINUOUS
10
136.24
20
-94.76
11
136.251
21
-94.7064
0
LINE
8
BLACK
6
CONTINUOUS
10
136.251
20
-94.7064
11
136.281
21
-94.661
0
LINE
8
BLACK
6
CONTINUOUS
10
136.281
20
-94.661
11
136.326
21
-94.6307
0
LINE
8
BLACK
6
CONTINUOUS
10
136.326
20
-94.6307
11
136.38
21
-94.62
0
LINE
8
BLACK
6
CONTINUOUS
10
136.38
20
-94.62
11
136.66
21
-94.62
0
LINE
8
BLACK
6
CONTINUOUS
10
136.66
20
-94.62
11
136.714
21
-94.6307
0
LINE
8
BLACK
6
CONTINUOUS
10
135.754
20
-94.6307
11
135.799
21
-94.661
0
LINE
8
BLACK
6
CONTINUOUS
10
135.799
20
-94.661
11
135.829
21
-94.7064
0
LINE
8
BLACK
6
CONTINUOUS
10
135.829
20
-94.7064
11
135.84
21
-94.76
0
LINE
8
BLACK
6
CONTINUOUS
10
135.84
20
-94.76
11
135.84
21
-95.1
0
LINE
8
BLACK
6
CONTINUOUS
10
135.84
20
-95.1
11
135.829
21
-95.1536
0
LINE
8
BLACK
6
CONTINUOUS
10
135.829
20
-95.1536
11
135.799
21
-95.199
0
LINE
8
BLACK
6
CONTINUOUS
10
135.799
20
-95.199
11
135.754
21
-95.2293
0
LINE
8
BLACK
6
CONTINUOUS
10
135.754
20
-95.2293
11
135.7
21
-95.24
0
LINE
8
BLACK
6
CONTINUOUS
10
135.7
20
-95.24
11
135.42
21
-95.24
0
LINE
8
BLACK
6
CONTINUOUS
10
135.42
20
-95.24
11
135.366
21
-95.2293
0
LINE
8
BLACK
6
CONTINUOUS
10
135.366
20
-95.2293
11
135.321
21
-95.199
0
LINE
8
BLACK
6
CONTINUOUS
10
135.321
20
-95.199
11
135.291
21
-95.1536
0
LINE
8
BLACK
6
CONTINUOUS
10
135.291
20
-95.1536
11
135.28
21
-95.1
0
LINE
8
BLACK
6
CONTINUOUS
10
135.28
20
-95.1
11
135.28
21
-94.76
0
LINE
8
BLACK
6
CONTINUOUS
10
135.28
20
-94.76
11
135.291
21
-94.7064
0
LINE
8
BLACK
6
CONTINUOUS
10
135.291
20
-94.7064
11
135.321
21
-94.661
0
LINE
8
BLACK
6
CONTINUOUS
10
135.321
20
-94.661
11
135.366
21
-94.6307
0
LINE
8
BLACK
6
CONTINUOUS
10
135.366
20
-94.6307
11
135.42
21
-94.62
0
LINE
8
BLACK
6
CONTINUOUS
10
135.42
20
-94.62
11
135.7
21
-94.62
0
LINE
8
BLACK
6
CONTINUOUS
10
135.7
20
-94.62
11
135.754
21
-94.6307
0
LINE
8
BLACK
6
CONTINUOUS
10
147.72
20
-95.135
11
146.12
21
-95.135
0
LINE
8
BLACK
6
CONTINUOUS
10
146.12
20
-95.135
11
146.12
21
-94.585
0
LINE
8
BLACK
6
CONTINUOUS
10
146.12
20
-94.585
11
147.72
21
-94.585
0
LINE
8
BLACK
6
CONTINUOUS
10
147.72
20
-94.585
11
147.72
21
-95.135
0
LINE
8
BLACK
6
CONTINUOUS
10
139.22
20
-95.135
11
137.62
21
-95.135
0
LINE
8
BLACK
6
CONTINUOUS
10
137.62
20
-95.135
11
137.62
21
-94.585
0
LINE
8
BLACK
6
CONTINUOUS
10
137.62
20
-94.585
11
139.22
21
-94.585
0
LINE
8
BLACK
6
CONTINUOUS
10
139.22
20
-94.585
11
139.22
21
-95.135
0
LINE
8
BLACK
6
CONTINUOUS
10
139.22
20
-94.335
11
137.62
21
-94.335
0
LINE
8
BLACK
6
CONTINUOUS
10
137.62
20
-94.335
11
137.62
21
-93.785
0
LINE
8
BLACK
6
CONTINUOUS
10
137.62
20
-93.785
11
139.22
21
-93.785
0
LINE
8
BLACK
6
CONTINUOUS
10
139.22
20
-93.785
11
139.22
21
-94.335
0
LINE
8
BLACK
6
CONTINUOUS
10
147.72
20
-94.335
11
146.12
21
-94.335
0
LINE
8
BLACK
6
CONTINUOUS
10
146.12
20
-94.335
11
146.12
21
-93.785
0
LINE
8
BLACK
6
CONTINUOUS
10
146.12
20
-93.785
11
147.72
21
-93.785
0
LINE
8
BLACK
6
CONTINUOUS
10
147.72
20
-93.785
11
147.72
21
-94.335
0
LINE
8
BLACK
6
CONTINUOUS
10
155.382
20
-92.1458
11
155.431
21
-92.1783
0
LINE
8
BLACK
6
CONTINUOUS
10
155.431
20
-92.1783
11
155.463
21
-92.227
0
LINE
8
BLACK
6
CONTINUOUS
10
155.463
20
-92.227
11
155.475
21
-92.2844
0
LINE
8
BLACK
6
CONTINUOUS
10
155.475
20
-92.2844
11
155.475
21
-93.4594
0
LINE
8
BLACK
6
CONTINUOUS
10
155.475
20
-93.4594
11
155.463
21
-93.5168
0
LINE
8
BLACK
6
CONTINUOUS
10
155.463
20
-93.5168
11
155.431
21
-93.5655
0
LINE
8
BLACK
6
CONTINUOUS
10
155.431
20
-93.5655
11
155.382
21
-93.598
0
LINE
8
BLACK
6
CONTINUOUS
10
155.382
20
-93.598
11
155.325
21
-93.6094
0
LINE
8
BLACK
6
CONTINUOUS
10
155.325
20
-93.6094
11
155.025
21
-93.6094
0
LINE
8
BLACK
6
CONTINUOUS
10
155.025
20
-93.6094
11
154.967
21
-93.598
0
LINE
8
BLACK
6
CONTINUOUS
10
154.967
20
-93.598
11
154.919
21
-93.5655
0
LINE
8
BLACK
6
CONTINUOUS
10
154.919
20
-93.5655
11
154.886
21
-93.5168
0
LINE
8
BLACK
6
CONTINUOUS
10
154.886
20
-93.5168
11
154.875
21
-93.4594
0
LINE
8
BLACK
6
CONTINUOUS
10
154.875
20
-93.4594
11
154.875
21
-92.2844
0
LINE
8
BLACK
6
CONTINUOUS
10
154.875
20
-92.2844
11
154.886
21
-92.227
0
LINE
8
BLACK
6
CONTINUOUS
10
154.886
20
-92.227
11
154.919
21
-92.1783
0
LINE
8
BLACK
6
CONTINUOUS
10
154.919
20
-92.1783
11
154.967
21
-92.1458
0
LINE
8
BLACK
6
CONTINUOUS
10
154.967
20
-92.1458
11
155.025
21
-92.1344
0
LINE
8
BLACK
6
CONTINUOUS
10
155.025
20
-92.1344
11
155.325
21
-92.1344
0
LINE
8
BLACK
6
CONTINUOUS
10
155.325
20
-92.1344
11
155.382
21
-92.1458
0
LINE
8
BLACK
6
CONTINUOUS
10
139.22
20
-93.535
11
137.62
21
-93.535
0
LINE
8
BLACK
6
CONTINUOUS
10
137.62
20
-93.535
11
137.62
21
-92.985
0
LINE
8
BLACK
6
CONTINUOUS
10
137.62
20
-92.985
11
139.22
21
-92.985
0
LINE
8
BLACK
6
CONTINUOUS
10
139.22
20
-92.985
11
139.22
21
-93.535
0
LINE
8
BLACK
6
CONTINUOUS
10
147.72
20
-93.535
11
146.12
21
-93.535
0
LINE
8
BLACK
6
CONTINUOUS
10
146.12
20
-93.535
11
146.12
21
-92.985
0
LINE
8
BLACK
6
CONTINUOUS
10
146.12
20
-92.985
11
147.72
21
-92.985
0
LINE
8
BLACK
6
CONTINUOUS
10
147.72
20
-92.985
11
147.72
21
-93.535
0
LINE
8
BLACK
6
CONTINUOUS
10
160.286
20
-92.1665
11
160.359
21
-92.2153
0
LINE
8
BLACK
6
CONTINUOUS
10
160.359
20
-92.2153
11
160.408
21
-92.2883
0
LINE
8
BLACK
6
CONTINUOUS
10
160.408
20
-92.2883
11
160.425
21
-92.3744
0
LINE
8
BLACK
6
CONTINUOUS
10
160.425
20
-92.3744
11
160.425
21
-92.8744
0
LINE
8
BLACK
6
CONTINUOUS
10
160.425
20
-92.8744
11
160.408
21
-92.9605
0
LINE
8
BLACK
6
CONTINUOUS
10
160.408
20
-92.9605
11
160.359
21
-93.0335
0
LINE
8
BLACK
6
CONTINUOUS
10
160.359
20
-93.0335
11
160.286
21
-93.0823
0
LINE
8
BLACK
6
CONTINUOUS
10
160.286
20
-93.0823
11
160.2
21
-93.0994
0
LINE
8
BLACK
6
CONTINUOUS
10
160.2
20
-93.0994
11
159.75
21
-93.0994
0
LINE
8
BLACK
6
CONTINUOUS
10
159.75
20
-93.0994
11
159.664
21
-93.0823
0
LINE
8
BLACK
6
CONTINUOUS
10
159.664
20
-93.0823
11
159.591
21
-93.0335
0
LINE
8
BLACK
6
CONTINUOUS
10
159.591
20
-93.0335
11
159.542
21
-92.9605
0
LINE
8
BLACK
6
CONTINUOUS
10
159.542
20
-92.9605
11
159.525
21
-92.8744
0
LINE
8
BLACK
6
CONTINUOUS
10
159.525
20
-92.8744
11
159.525
21
-92.3744
0
LINE
8
BLACK
6
CONTINUOUS
10
159.525
20
-92.3744
11
159.542
21
-92.2883
0
LINE
8
BLACK
6
CONTINUOUS
10
159.542
20
-92.2883
11
159.591
21
-92.2153
0
LINE
8
BLACK
6
CONTINUOUS
10
159.591
20
-92.2153
11
159.664
21
-92.1665
0
LINE
8
BLACK
6
CONTINUOUS
10
159.664
20
-92.1665
11
159.75
21
-92.1494
0
LINE
8
BLACK
6
CONTINUOUS
10
159.75
20
-92.1494
11
160.2
21
-92.1494
0
LINE
8
BLACK
6
CONTINUOUS
10
160.2
20
-92.1494
11
160.286
21
-92.1665
0
LINE
8
BLACK
6
CONTINUOUS
10
158.736
20
-92.1665
11
158.809
21
-92.2153
0
LINE
8
BLACK
6
CONTINUOUS
10
158.809
20
-92.2153
11
158.858
21
-92.2883
0
LINE
8
BLACK
6
CONTINUOUS
10
158.858
20
-92.2883
11
158.875
21
-92.3744
0
LINE
8
BLACK
6
CONTINUOUS
10
158.875
20
-92.3744
11
158.875
21
-92.8744
0
LINE
8
BLACK
6
CONTINUOUS
10
158.875
20
-92.8744
11
158.858
21
-92.9605
0
LINE
8
BLACK
6
CONTINUOUS
10
158.858
20
-92.9605
11
158.809
21
-93.0335
0
LINE
8
BLACK
6
CONTINUOUS
10
158.809
20
-93.0335
11
158.736
21
-93.0823
0
LINE
8
BLACK
6
CONTINUOUS
10
158.736
20
-93.0823
11
158.65
21
-93.0994
0
LINE
8
BLACK
6
CONTINUOUS
10
158.65
20
-93.0994
11
158.2
21
-93.0994
0
LINE
8
BLACK
6
CONTINUOUS
10
158.2
20
-93.0994
11
158.114
21
-93.0823
0
LINE
8
BLACK
6
CONTINUOUS
10
158.114
20
-93.0823
11
158.041
21
-93.0335
0
LINE
8
BLACK
6
CONTINUOUS
10
158.041
20
-93.0335
11
157.992
21
-92.9605
0
LINE
8
BLACK
6
CONTINUOUS
10
157.992
20
-92.9605
11
157.975
21
-92.8744
0
LINE
8
BLACK
6
CONTINUOUS
10
157.975
20
-92.8744
11
157.975
21
-92.3744
0
LINE
8
BLACK
6
CONTINUOUS
10
157.975
20
-92.3744
11
157.992
21
-92.2883
0
LINE
8
BLACK
6
CONTINUOUS
10
157.992
20
-92.2883
11
158.041
21
-92.2153
0
LINE
8
BLACK
6
CONTINUOUS
10
158.041
20
-92.2153
11
158.114
21
-92.1665
0
LINE
8
BLACK
6
CONTINUOUS
10
158.114
20
-92.1665
11
158.2
21
-92.1494
0
LINE
8
BLACK
6
CONTINUOUS
10
158.2
20
-92.1494
11
158.65
21
-92.1494
0
LINE
8
BLACK
6
CONTINUOUS
10
158.65
20
-92.1494
11
158.736
21
-92.1665
0
LINE
8
BLACK
6
CONTINUOUS
10
153.1
20
-93.05
11
151.4
21
-93.05
0
LINE
8
BLACK
6
CONTINUOUS
10
151.4
20
-93.05
11
151.4
21
-91.75
0
LINE
8
BLACK
6
CONTINUOUS
10
151.4
20
-91.75
11
153.1
21
-91.75
0
LINE
8
BLACK
6
CONTINUOUS
10
153.1
20
-91.75
11
153.1
21
-93.05
0
LINE
8
BLACK
6
CONTINUOUS
10
139.22
20
-92.735
11
137.62
21
-92.735
0
LINE
8
BLACK
6
CONTINUOUS
10
137.62
20
-92.735
11
137.62
21
-92.185
0
LINE
8
BLACK
6
CONTINUOUS
10
137.62
20
-92.185
11
139.22
21
-92.185
0
LINE
8
BLACK
6
CONTINUOUS
10
139.22
20
-92.185
11
139.22
21
-92.735
0
LINE
8
BLACK
6
CONTINUOUS
10
147.72
20
-92.735
11
146.12
21
-92.735
0
LINE
8
BLACK
6
CONTINUOUS
10
146.12
20
-92.735
11
146.12
21
-92.185
0
LINE
8
BLACK
6
CONTINUOUS
10
146.12
20
-92.185
11
147.72
21
-92.185
0
LINE
8
BLACK
6
CONTINUOUS
10
147.72
20
-92.185
11
147.72
21
-92.735
0
LINE
8
BLACK
6
CONTINUOUS
10
141.745
20
-91.81
11
141.195
21
-91.81
0
LINE
8
BLACK
6
CONTINUOUS
10
141.195
20
-91.81
11
141.195
21
-90.21
0
LINE
8
BLACK
6
CONTINUOUS
10
141.195
20
-90.21
11
141.745
21
-90.21
0
LINE
8
BLACK
6
CONTINUOUS
10
141.745
20
-90.21
11
141.745
21
-91.81
0
LINE
8
BLACK
6
CONTINUOUS
10
140.145
20
-91.81
11
139.595
21
-91.81
0
LINE
8
BLACK
6
CONTINUOUS
10
139.595
20
-91.81
11
139.595
21
-90.21
0
LINE
8
BLACK
6
CONTINUOUS
10
139.595
20
-90.21
11
140.145
21
-90.21
0
LINE
8
BLACK
6
CONTINUOUS
10
140.145
20
-90.21
11
140.145
21
-91.81
0
LINE
8
BLACK
6
CONTINUOUS
10
140.945
20
-91.81
11
140.395
21
-91.81
0
LINE
8
BLACK
6
CONTINUOUS
10
140.395
20
-91.81
11
140.395
21
-90.21
0
LINE
8
BLACK
6
CONTINUOUS
10
140.395
20
-90.21
11
140.945
21
-90.21
0
LINE
8
BLACK
6
CONTINUOUS
10
140.945
20
-90.21
11
140.945
21
-91.81
0
LINE
8
BLACK
6
CONTINUOUS
10
145.745
20
-91.81
11
145.195
21
-91.81
0
LINE
8
BLACK
6
CONTINUOUS
10
145.195
20
-91.81
11
145.195
21
-90.21
0
LINE
8
BLACK
6
CONTINUOUS
10
145.195
20
-90.21
11
145.745
21
-90.21
0
LINE
8
BLACK
6
CONTINUOUS
10
145.745
20
-90.21
11
145.745
21
-91.81
0
LINE
8
BLACK
6
CONTINUOUS
10
144.945
20
-91.81
11
144.395
21
-91.81
0
LINE
8
BLACK
6
CONTINUOUS
10
144.395
20
-91.81
11
144.395
21
-90.21
0
LINE
8
BLACK
6
CONTINUOUS
10
144.395
20
-90.21
11
144.945
21
-90.21
0
LINE
8
BLACK
6
CONTINUOUS
10
144.945
20
-90.21
11
144.945
21
-91.81
0
LINE
8
BLACK
6
CONTINUOUS
10
144.145
20
-91.81
11
143.595
21
-91.81
0
LINE
8
BLACK
6
CONTINUOUS
10
143.595
20
-91.81
11
143.595
21
-90.21
0
LINE
8
BLACK
6
CONTINUOUS
10
143.595
20
-90.21
11
144.145
21
-90.21
0
LINE
8
BLACK
6
CONTINUOUS
10
144.145
20
-90.21
11
144.145
21
-91.81
0
LINE
8
BLACK
6
CONTINUOUS
10
142.545
20
-91.81
11
141.995
21
-91.81
0
LINE
8
BLACK
6
CONTINUOUS
10
141.995
20
-91.81
11
141.995
21
-90.21
0
LINE
8
BLACK
6
CONTINUOUS
10
141.995
20
-90.21
11
142.545
21
-90.21
0
LINE
8
BLACK
6
CONTINUOUS
10
142.545
20
-90.21
11
142.545
21
-91.81
0
LINE
8
BLACK
6
CONTINUOUS
10
143.345
20
-91.81
11
142.795
21
-91.81
0
LINE
8
BLACK
6
CONTINUOUS
10
142.795
20
-91.81
11
142.795
21
-90.21
0
LINE
8
BLACK
6
CONTINUOUS
10
142.795
20
-90.21
11
143.345
21
-90.21
0
LINE
8
BLACK
6
CONTINUOUS
10
143.345
20
-90.21
11
143.345
21
-91.81
0
LINE
8
BLACK
6
CONTINUOUS
10
156.332
20
-90.2708
11
156.381
21
-90.3033
0
LINE
8
BLACK
6
CONTINUOUS
10
156.381
20
-90.3033
11
156.413
21
-90.352
0
LINE
8
BLACK
6
CONTINUOUS
10
156.413
20
-90.352
11
156.425
21
-90.4094
0
LINE
8
BLACK
6
CONTINUOUS
10
156.425
20
-90.4094
11
156.425
21
-91.5844
0
LINE
8
BLACK
6
CONTINUOUS
10
156.425
20
-91.5844
11
156.413
21
-91.6418
0
LINE
8
BLACK
6
CONTINUOUS
10
156.413
20
-91.6418
11
156.381
21
-91.6905
0
LINE
8
BLACK
6
CONTINUOUS
10
156.381
20
-91.6905
11
156.332
21
-91.723
0
LINE
8
BLACK
6
CONTINUOUS
10
156.332
20
-91.723
11
156.275
21
-91.7344
0
LINE
8
BLACK
6
CONTINUOUS
10
156.275
20
-91.7344
11
155.975
21
-91.7344
0
LINE
8
BLACK
6
CONTINUOUS
10
155.975
20
-91.7344
11
155.917
21
-91.723
0
LINE
8
BLACK
6
CONTINUOUS
10
155.917
20
-91.723
11
155.869
21
-91.6905
0
LINE
8
BLACK
6
CONTINUOUS
10
155.869
20
-91.6905
11
155.836
21
-91.6418
0
LINE
8
BLACK
6
CONTINUOUS
10
155.836
20
-91.6418
11
155.825
21
-91.5844
0
LINE
8
BLACK
6
CONTINUOUS
10
155.825
20
-91.5844
11
155.825
21
-90.4094
0
LINE
8
BLACK
6
CONTINUOUS
10
155.825
20
-90.4094
11
155.836
21
-90.352
0
LINE
8
BLACK
6
CONTINUOUS
10
155.836
20
-90.352
11
155.869
21
-90.3033
0
LINE
8
BLACK
6
CONTINUOUS
10
155.869
20
-90.3033
11
155.917
21
-90.2708
0
LINE
8
BLACK
6
CONTINUOUS
10
155.917
20
-90.2708
11
155.975
21
-90.2594
0
LINE
8
BLACK
6
CONTINUOUS
10
155.975
20
-90.2594
11
156.275
21
-90.2594
0
LINE
8
BLACK
6
CONTINUOUS
10
156.275
20
-90.2594
11
156.332
21
-90.2708
0
LINE
8
BLACK
6
CONTINUOUS
10
154.432
20
-90.2708
11
154.481
21
-90.3033
0
LINE
8
BLACK
6
CONTINUOUS
10
154.481
20
-90.3033
11
154.513
21
-90.352
0
LINE
8
BLACK
6
CONTINUOUS
10
154.513
20
-90.352
11
154.525
21
-90.4094
0
LINE
8
BLACK
6
CONTINUOUS
10
154.525
20
-90.4094
11
154.525
21
-91.5844
0
LINE
8
BLACK
6
CONTINUOUS
10
154.525
20
-91.5844
11
154.513
21
-91.6418
0
LINE
8
BLACK
6
CONTINUOUS
10
154.513
20
-91.6418
11
154.481
21
-91.6905
0
LINE
8
BLACK
6
CONTINUOUS
10
154.481
20
-91.6905
11
154.432
21
-91.723
0
LINE
8
BLACK
6
CONTINUOUS
10
154.432
20
-91.723
11
154.375
21
-91.7344
0
LINE
8
BLACK
6
CONTINUOUS
10
154.375
20
-91.7344
11
154.075
21
-91.7344
0
LINE
8
BLACK
6
CONTINUOUS
10
154.075
20
-91.7344
11
154.017
21
-91.723
0
LINE
8
BLACK
6
CONTINUOUS
10
154.017
20
-91.723
11
153.969
21
-91.6905
0
LINE
8
BLACK
6
CONTINUOUS
10
153.969
20
-91.6905
11
153.936
21
-91.6418
0
LINE
8
BLACK
6
CONTINUOUS
10
153.936
20
-91.6418
11
153.925
21
-91.5844
0
LINE
8
BLACK
6
CONTINUOUS
10
153.925
20
-91.5844
11
153.925
21
-90.4094
0
LINE
8
BLACK
6
CONTINUOUS
10
153.925
20
-90.4094
11
153.936
21
-90.352
0
LINE
8
BLACK
6
CONTINUOUS
10
153.936
20
-90.352
11
153.969
21
-90.3033
0
LINE
8
BLACK
6
CONTINUOUS
10
153.969
20
-90.3033
11
154.017
21
-90.2708
0
LINE
8
BLACK
6
CONTINUOUS
10
154.017
20
-90.2708
11
154.075
21
-90.2594
0
LINE
8
BLACK
6
CONTINUOUS
10
154.075
20
-90.2594
11
154.375
21
-90.2594
0
LINE
8
BLACK
6
CONTINUOUS
10
154.375
20
-90.2594
11
154.432
21
-90.2708
0
LINE
8
BLACK
6
CONTINUOUS
10
160.311
20
-90.3746
11
160.376
21
-90.418
0
LINE
8
BLACK
6
CONTINUOUS
10
160.376
20
-90.418
11
160.42
21
-90.4829
0
LINE
8
BLACK
6
CONTINUOUS
10
160.42
20
-90.4829
11
160.435
21
-90.5594
0
LINE
8
BLACK
6
CONTINUOUS
10
160.435
20
-90.5594
11
160.435
21
-91.1094
0
LINE
8
BLACK
6
CONTINUOUS
10
160.435
20
-91.1094
11
160.42
21
-91.1859
0
LINE
8
BLACK
6
CONTINUOUS
10
160.42
20
-91.1859
11
160.376
21
-91.2508
0
LINE
8
BLACK
6
CONTINUOUS
10
160.376
20
-91.2508
11
160.311
21
-91.2942
0
LINE
8
BLACK
6
CONTINUOUS
10
160.311
20
-91.2942
11
160.235
21
-91.3094
0
LINE
8
BLACK
6
CONTINUOUS
10
160.235
20
-91.3094
11
159.835
21
-91.3094
0
LINE
8
BLACK
6
CONTINUOUS
10
159.835
20
-91.3094
11
159.758
21
-91.2942
0
LINE
8
BLACK
6
CONTINUOUS
10
159.758
20
-91.2942
11
159.693
21
-91.2508
0
LINE
8
BLACK
6
CONTINUOUS
10
159.693
20
-91.2508
11
159.65
21
-91.1859
0
LINE
8
BLACK
6
CONTINUOUS
10
159.65
20
-91.1859
11
159.635
21
-91.1094
0
LINE
8
BLACK
6
CONTINUOUS
10
159.635
20
-91.1094
11
159.635
21
-90.5594
0
LINE
8
BLACK
6
CONTINUOUS
10
159.635
20
-90.5594
11
159.65
21
-90.4829
0
LINE
8
BLACK
6
CONTINUOUS
10
159.65
20
-90.4829
11
159.693
21
-90.418
0
LINE
8
BLACK
6
CONTINUOUS
10
159.693
20
-90.418
11
159.758
21
-90.3746
0
LINE
8
BLACK
6
CONTINUOUS
10
159.758
20
-90.3746
11
159.835
21
-90.3594
0
LINE
8
BLACK
6
CONTINUOUS
10
159.835
20
-90.3594
11
160.235
21
-90.3594
0
LINE
8
BLACK
6
CONTINUOUS
10
160.235
20
-90.3594
11
160.311
21
-90.3746
0
LINE
8
BLACK
6
CONTINUOUS
10
158.661
20
-90.3746
11
158.726
21
-90.418
0
LINE
8
BLACK
6
CONTINUOUS
10
158.726
20
-90.418
11
158.77
21
-90.4829
0
LINE
8
BLACK
6
CONTINUOUS
10
158.77
20
-90.4829
11
158.785
21
-90.5594
0
LINE
8
BLACK
6
CONTINUOUS
10
158.785
20
-90.5594
11
158.785
21
-91.1094
0
LINE
8
BLACK
6
CONTINUOUS
10
158.785
20
-91.1094
11
158.77
21
-91.1859
0
LINE
8
BLACK
6
CONTINUOUS
10
158.77
20
-91.1859
11
158.726
21
-91.2508
0
LINE
8
BLACK
6
CONTINUOUS
10
158.726
20
-91.2508
11
158.661
21
-91.2942
0
LINE
8
BLACK
6
CONTINUOUS
10
158.661
20
-91.2942
11
158.585
21
-91.3094
0
LINE
8
BLACK
6
CONTINUOUS
10
158.585
20
-91.3094
11
158.185
21
-91.3094
0
LINE
8
BLACK
6
CONTINUOUS
10
158.185
20
-91.3094
11
158.108
21
-91.2942
0
LINE
8
BLACK
6
CONTINUOUS
10
158.108
20
-91.2942
11
158.043
21
-91.2508
0
LINE
8
BLACK
6
CONTINUOUS
10
158.043
20
-91.2508
11
158
21
-91.1859
0
LINE
8
BLACK
6
CONTINUOUS
10
158
20
-91.1859
11
157.985
21
-91.1094
0
LINE
8
BLACK
6
CONTINUOUS
10
157.985
20
-91.1094
11
157.985
21
-90.5594
0
LINE
8
BLACK
6
CONTINUOUS
10
157.985
20
-90.5594
11
158
21
-90.4829
0
LINE
8
BLACK
6
CONTINUOUS
10
158
20
-90.4829
11
158.043
21
-90.418
0
LINE
8
BLACK
6
CONTINUOUS
10
158.043
20
-90.418
11
158.108
21
-90.3746
0
LINE
8
BLACK
6
CONTINUOUS
10
158.108
20
-90.3746
11
158.185
21
-90.3594
0
LINE
8
BLACK
6
CONTINUOUS
10
158.185
20
-90.3594
11
158.585
21
-90.3594
0
LINE
8
BLACK
6
CONTINUOUS
10
158.585
20
-90.3594
11
158.661
21
-90.3746
0
LINE
8
BLACK
6
CONTINUOUS
10
153.1
20
-89.55
11
151.4
21
-89.55
0
LINE
8
BLACK
6
CONTINUOUS
10
151.4
20
-89.55
11
151.4
21
-88.25
0
LINE
8
BLACK
6
CONTINUOUS
10
151.4
20
-88.25
11
153.1
21
-88.25
0
LINE
8
BLACK
6
CONTINUOUS
10
153.1
20
-88.25
11
153.1
21
-89.55
0
LINE
8
BLACK
6
CONTINUOUS
10
143.853
20
-86.1916
11
144.015
21
-86.2639
0
LINE
8
BLACK
6
CONTINUOUS
10
144.015
20
-86.2639
11
144.159
21
-86.3683
0
LINE
8
BLACK
6
CONTINUOUS
10
144.159
20
-86.3683
11
144.278
21
-86.5004
0
LINE
8
BLACK
6
CONTINUOUS
10
144.278
20
-86.5004
11
144.367
21
-86.6543
0
LINE
8
BLACK
6
CONTINUOUS
10
144.367
20
-86.6543
11
144.421
21
-86.8233
0
LINE
8
BLACK
6
CONTINUOUS
10
144.421
20
-86.8233
11
144.44
21
-87
0
LINE
8
BLACK
6
CONTINUOUS
10
144.44
20
-87
11
144.421
21
-87.1767
0
LINE
8
BLACK
6
CONTINUOUS
10
144.421
20
-87.1767
11
144.367
21
-87.3457
0
LINE
8
BLACK
6
CONTINUOUS
10
144.367
20
-87.3457
11
144.278
21
-87.4996
0
LINE
8
BLACK
6
CONTINUOUS
10
144.278
20
-87.4996
11
144.159
21
-87.6317
0
LINE
8
BLACK
6
CONTINUOUS
10
144.159
20
-87.6317
11
144.128
21
-87.6537
0
LINE
8
BLACK
6
CONTINUOUS
10
144.128
20
-87.6537
11
144.119
21
-87.6621
0
LINE
8
BLACK
6
CONTINUOUS
10
144.119
20
-87.6621
11
144.052
21
-87.7117
0
LINE
8
BLACK
6
CONTINUOUS
10
144.052
20
-87.7117
11
144.031
21
-87.7244
0
LINE
8
BLACK
6
CONTINUOUS
10
144.031
20
-87.7244
11
144.015
21
-87.7361
0
LINE
8
BLACK
6
CONTINUOUS
10
144.015
20
-87.7361
11
144.002
21
-87.7421
0
LINE
8
BLACK
6
CONTINUOUS
10
144.002
20
-87.7421
11
143.981
21
-87.7546
0
LINE
8
BLACK
6
CONTINUOUS
10
143.981
20
-87.7546
11
143.905
21
-87.7903
0
LINE
8
BLACK
6
CONTINUOUS
10
143.905
20
-87.7903
11
143.827
21
-87.8184
0
LINE
8
BLACK
6
CONTINUOUS
10
143.827
20
-87.8184
11
143.746
21
-87.8387
0
LINE
8
BLACK
6
CONTINUOUS
10
143.746
20
-87.8387
11
143.663
21
-87.8509
0
LINE
8
BLACK
6
CONTINUOUS
10
143.663
20
-87.8509
11
143.58
21
-87.855
0
LINE
8
BLACK
6
CONTINUOUS
10
143.58
20
-87.855
11
143.497
21
-87.8509
0
LINE
8
BLACK
6
CONTINUOUS
10
143.497
20
-87.8509
11
143.414
21
-87.8387
0
LINE
8
BLACK
6
CONTINUOUS
10
143.414
20
-87.8387
11
143.333
21
-87.8184
0
LINE
8
BLACK
6
CONTINUOUS
10
143.333
20
-87.8184
11
143.255
21
-87.7903
0
LINE
8
BLACK
6
CONTINUOUS
10
143.255
20
-87.7903
11
143.179
21
-87.7546
0
LINE
8
BLACK
6
CONTINUOUS
10
143.179
20
-87.7546
11
143.108
21
-87.7117
0
LINE
8
BLACK
6
CONTINUOUS
10
143.108
20
-87.7117
11
143.041
21
-87.6621
0
LINE
8
BLACK
6
CONTINUOUS
10
143.041
20
-87.6621
11
142.979
21
-87.606
0
LINE
8
BLACK
6
CONTINUOUS
10
142.979
20
-87.606
11
142.923
21
-87.5442
0
LINE
8
BLACK
6
CONTINUOUS
10
142.923
20
-87.5442
11
142.873
21
-87.4772
0
LINE
8
BLACK
6
CONTINUOUS
10
142.873
20
-87.4772
11
142.83
21
-87.4057
0
LINE
8
BLACK
6
CONTINUOUS
10
142.83
20
-87.4057
11
142.795
21
-87.3303
0
LINE
8
BLACK
6
CONTINUOUS
10
142.795
20
-87.3303
11
142.767
21
-87.2517
0
LINE
8
BLACK
6
CONTINUOUS
10
142.767
20
-87.2517
11
142.746
21
-87.1708
0
LINE
8
BLACK
6
CONTINUOUS
10
142.746
20
-87.1708
11
142.734
21
-87.0883
0
LINE
8
BLACK
6
CONTINUOUS
10
142.734
20
-87.0883
11
142.73
21
-87.005
0
LINE
8
BLACK
6
CONTINUOUS
10
142.73
20
-87.005
11
142.734
21
-86.9217
0
LINE
8
BLACK
6
CONTINUOUS
10
142.734
20
-86.9217
11
142.746
21
-86.8392
0
LINE
8
BLACK
6
CONTINUOUS
10
142.746
20
-86.8392
11
142.767
21
-86.7583
0
LINE
8
BLACK
6
CONTINUOUS
10
142.767
20
-86.7583
11
142.795
21
-86.6797
0
LINE
8
BLACK
6
CONTINUOUS
10
142.795
20
-86.6797
11
142.83
21
-86.6043
0
LINE
8
BLACK
6
CONTINUOUS
10
142.83
20
-86.6043
11
142.873
21
-86.5328
0
LINE
8
BLACK
6
CONTINUOUS
10
142.873
20
-86.5328
11
142.923
21
-86.4658
0
LINE
8
BLACK
6
CONTINUOUS
10
142.923
20
-86.4658
11
142.979
21
-86.404
0
LINE
8
BLACK
6
CONTINUOUS
10
142.979
20
-86.404
11
143.041
21
-86.3479
0
LINE
8
BLACK
6
CONTINUOUS
10
143.041
20
-86.3479
11
143.108
21
-86.2982
0
LINE
8
BLACK
6
CONTINUOUS
10
143.108
20
-86.2982
11
143.164
21
-86.2643
0
LINE
8
BLACK
6
CONTINUOUS
10
143.164
20
-86.2643
11
143.165
21
-86.2639
0
LINE
8
BLACK
6
CONTINUOUS
10
143.165
20
-86.2639
11
143.165
21
-86.2637
0
LINE
8
BLACK
6
CONTINUOUS
10
143.165
20
-86.2637
11
143.179
21
-86.2554
0
LINE
8
BLACK
6
CONTINUOUS
10
143.179
20
-86.2554
11
143.255
21
-86.2197
0
LINE
8
BLACK
6
CONTINUOUS
10
143.255
20
-86.2197
11
143.303
21
-86.2024
0
LINE
8
BLACK
6
CONTINUOUS
10
143.303
20
-86.2024
11
143.327
21
-86.1916
0
LINE
8
BLACK
6
CONTINUOUS
10
143.327
20
-86.1916
11
143.366
21
-86.1833
0
LINE
8
BLACK
6
CONTINUOUS
10
143.366
20
-86.1833
11
143.414
21
-86.1713
0
LINE
8
BLACK
6
CONTINUOUS
10
143.414
20
-86.1713
11
143.442
21
-86.1671
0
LINE
8
BLACK
6
CONTINUOUS
10
143.442
20
-86.1671
11
143.501
21
-86.1547
0
LINE
8
BLACK
6
CONTINUOUS
10
143.501
20
-86.1547
11
143.679
21
-86.1547
0
LINE
8
BLACK
6
CONTINUOUS
10
143.679
20
-86.1547
11
143.853
21
-86.1916
0
LINE
8
BLACK
6
CONTINUOUS
10
148.933
20
-86.1916
11
149.095
21
-86.2639
0
LINE
8
BLACK
6
CONTINUOUS
10
149.095
20
-86.2639
11
149.239
21
-86.3683
0
LINE
8
BLACK
6
CONTINUOUS
10
149.239
20
-86.3683
11
149.358
21
-86.5004
0
LINE
8
BLACK
6
CONTINUOUS
10
149.358
20
-86.5004
11
149.447
21
-86.6543
0
LINE
8
BLACK
6
CONTINUOUS
10
149.447
20
-86.6543
11
149.501
21
-86.8233
0
LINE
8
BLACK
6
CONTINUOUS
10
149.501
20
-86.8233
11
149.52
21
-87
0
LINE
8
BLACK
6
CONTINUOUS
10
149.52
20
-87
11
149.501
21
-87.1767
0
LINE
8
BLACK
6
CONTINUOUS
10
149.501
20
-87.1767
11
149.447
21
-87.3457
0
LINE
8
BLACK
6
CONTINUOUS
10
149.447
20
-87.3457
11
149.358
21
-87.4996
0
LINE
8
BLACK
6
CONTINUOUS
10
149.358
20
-87.4996
11
149.239
21
-87.6317
0
LINE
8
BLACK
6
CONTINUOUS
10
149.239
20
-87.6317
11
149.208
21
-87.6537
0
LINE
8
BLACK
6
CONTINUOUS
10
149.208
20
-87.6537
11
149.199
21
-87.6621
0
LINE
8
BLACK
6
CONTINUOUS
10
149.199
20
-87.6621
11
149.132
21
-87.7117
0
LINE
8
BLACK
6
CONTINUOUS
10
149.132
20
-87.7117
11
149.111
21
-87.7244
0
LINE
8
BLACK
6
CONTINUOUS
10
149.111
20
-87.7244
11
149.095
21
-87.7361
0
LINE
8
BLACK
6
CONTINUOUS
10
149.095
20
-87.7361
11
149.082
21
-87.7421
0
LINE
8
BLACK
6
CONTINUOUS
10
149.082
20
-87.7421
11
149.061
21
-87.7546
0
LINE
8
BLACK
6
CONTINUOUS
10
149.061
20
-87.7546
11
148.985
21
-87.7903
0
LINE
8
BLACK
6
CONTINUOUS
10
148.985
20
-87.7903
11
148.907
21
-87.8184
0
LINE
8
BLACK
6
CONTINUOUS
10
148.907
20
-87.8184
11
148.826
21
-87.8387
0
LINE
8
BLACK
6
CONTINUOUS
10
148.826
20
-87.8387
11
148.743
21
-87.8509
0
LINE
8
BLACK
6
CONTINUOUS
10
148.743
20
-87.8509
11
148.66
21
-87.855
0
LINE
8
BLACK
6
CONTINUOUS
10
148.66
20
-87.855
11
148.577
21
-87.8509
0
LINE
8
BLACK
6
CONTINUOUS
10
148.577
20
-87.8509
11
148.494
21
-87.8387
0
LINE
8
BLACK
6
CONTINUOUS
10
148.494
20
-87.8387
11
148.413
21
-87.8184
0
LINE
8
BLACK
6
CONTINUOUS
10
148.413
20
-87.8184
11
148.335
21
-87.7903
0
LINE
8
BLACK
6
CONTINUOUS
10
148.335
20
-87.7903
11
148.259
21
-87.7546
0
LINE
8
BLACK
6
CONTINUOUS
10
148.259
20
-87.7546
11
148.188
21
-87.7117
0
LINE
8
BLACK
6
CONTINUOUS
10
148.188
20
-87.7117
11
148.121
21
-87.6621
0
LINE
8
BLACK
6
CONTINUOUS
10
148.121
20
-87.6621
11
148.059
21
-87.606
0
LINE
8
BLACK
6
CONTINUOUS
10
148.059
20
-87.606
11
148.003
21
-87.5442
0
LINE
8
BLACK
6
CONTINUOUS
10
148.003
20
-87.5442
11
147.953
21
-87.4772
0
LINE
8
BLACK
6
CONTINUOUS
10
147.953
20
-87.4772
11
147.91
21
-87.4057
0
LINE
8
BLACK
6
CONTINUOUS
10
147.91
20
-87.4057
11
147.875
21
-87.3303
0
LINE
8
BLACK
6
CONTINUOUS
10
147.875
20
-87.3303
11
147.847
21
-87.2517
0
LINE
8
BLACK
6
CONTINUOUS
10
147.847
20
-87.2517
11
147.826
21
-87.1708
0
LINE
8
BLACK
6
CONTINUOUS
10
147.826
20
-87.1708
11
147.814
21
-87.0883
0
LINE
8
BLACK
6
CONTINUOUS
10
147.814
20
-87.0883
11
147.81
21
-87.005
0
LINE
8
BLACK
6
CONTINUOUS
10
147.81
20
-87.005
11
147.814
21
-86.9217
0
LINE
8
BLACK
6
CONTINUOUS
10
147.814
20
-86.9217
11
147.826
21
-86.8392
0
LINE
8
BLACK
6
CONTINUOUS
10
147.826
20
-86.8392
11
147.847
21
-86.7583
0
LINE
8
BLACK
6
CONTINUOUS
10
147.847
20
-86.7583
11
147.875
21
-86.6797
0
LINE
8
BLACK
6
CONTINUOUS
10
147.875
20
-86.6797
11
147.91
21
-86.6043
0
LINE
8
BLACK
6
CONTINUOUS
10
147.91
20
-86.6043
11
147.953
21
-86.5328
0
LINE
8
BLACK
6
CONTINUOUS
10
147.953
20
-86.5328
11
148.003
21
-86.4658
0
LINE
8
BLACK
6
CONTINUOUS
10
148.003
20
-86.4658
11
148.059
21
-86.404
0
LINE
8
BLACK
6
CONTINUOUS
10
148.059
20
-86.404
11
148.121
21
-86.3479
0
LINE
8
BLACK
6
CONTINUOUS
10
148.121
20
-86.3479
11
148.188
21
-86.2982
0
LINE
8
BLACK
6
CONTINUOUS
10
148.188
20
-86.2982
11
148.244
21
-86.2643
0
LINE
8
BLACK
6
CONTINUOUS
10
148.244
20
-86.2643
11
148.245
21
-86.2639
0
LINE
8
BLACK
6
CONTINUOUS
10
148.245
20
-86.2639
11
148.245
21
-86.2637
0
LINE
8
BLACK
6
CONTINUOUS
10
148.245
20
-86.2637
11
148.259
21
-86.2554
0
LINE
8
BLACK
6
CONTINUOUS
10
148.259
20
-86.2554
11
148.335
21
-86.2197
0
LINE
8
BLACK
6
CONTINUOUS
10
148.335
20
-86.2197
11
148.383
21
-86.2024
0
LINE
8
BLACK
6
CONTINUOUS
10
148.383
20
-86.2024
11
148.407
21
-86.1916
0
LINE
8
BLACK
6
CONTINUOUS
10
148.407
20
-86.1916
11
148.446
21
-86.1833
0
LINE
8
BLACK
6
CONTINUOUS
10
148.446
20
-86.1833
11
148.494
21
-86.1713
0
LINE
8
BLACK
6
CONTINUOUS
10
148.494
20
-86.1713
11
148.522
21
-86.1671
0
LINE
8
BLACK
6
CONTINUOUS
10
148.522
20
-86.1671
11
148.581
21
-86.1547
0
LINE
8
BLACK
6
CONTINUOUS
10
148.581
20
-86.1547
11
148.759
21
-86.1547
0
LINE
8
BLACK
6
CONTINUOUS
10
148.759
20
-86.1547
11
148.933
21
-86.1916
0
LINE
8
BLACK
6
CONTINUOUS
10
141.9
20
-87.85
11
141.89
21
-87.85
0
LINE
8
BLACK
6
CONTINUOUS
10
141.89
20
-87.85
11
141.89
21
-87.855
0
LINE
8
BLACK
6
CONTINUOUS
10
141.89
20
-87.855
11
140.19
21
-87.855
0
LINE
8
BLACK
6
CONTINUOUS
10
140.19
20
-87.855
11
140.19
21
-86.155
0
LINE
8
BLACK
6
CONTINUOUS
10
140.19
20
-86.155
11
140.2
21
-86.155
0
LINE
8
BLACK
6
CONTINUOUS
10
140.2
20
-86.155
11
140.2
21
-86.15
0
LINE
8
BLACK
6
CONTINUOUS
10
140.2
20
-86.15
11
141.9
21
-86.15
0
LINE
8
BLACK
6
CONTINUOUS
10
141.9
20
-86.15
11
141.9
21
-87.85
0
LINE
8
BLACK
6
CONTINUOUS
10
146.393
20
-86.1916
11
146.555
21
-86.2639
0
LINE
8
BLACK
6
CONTINUOUS
10
146.555
20
-86.2639
11
146.699
21
-86.3683
0
LINE
8
BLACK
6
CONTINUOUS
10
146.699
20
-86.3683
11
146.818
21
-86.5004
0
LINE
8
BLACK
6
CONTINUOUS
10
146.818
20
-86.5004
11
146.907
21
-86.6543
0
LINE
8
BLACK
6
CONTINUOUS
10
146.907
20
-86.6543
11
146.961
21
-86.8233
0
LINE
8
BLACK
6
CONTINUOUS
10
146.961
20
-86.8233
11
146.98
21
-87
0
LINE
8
BLACK
6
CONTINUOUS
10
146.98
20
-87
11
146.961
21
-87.1767
0
LINE
8
BLACK
6
CONTINUOUS
10
146.961
20
-87.1767
11
146.907
21
-87.3457
0
LINE
8
BLACK
6
CONTINUOUS
10
146.907
20
-87.3457
11
146.818
21
-87.4996
0
LINE
8
BLACK
6
CONTINUOUS
10
146.818
20
-87.4996
11
146.699
21
-87.6317
0
LINE
8
BLACK
6
CONTINUOUS
10
146.699
20
-87.6317
11
146.668
21
-87.6537
0
LINE
8
BLACK
6
CONTINUOUS
10
146.668
20
-87.6537
11
146.659
21
-87.6621
0
LINE
8
BLACK
6
CONTINUOUS
10
146.659
20
-87.6621
11
146.592
21
-87.7117
0
LINE
8
BLACK
6
CONTINUOUS
10
146.592
20
-87.7117
11
146.571
21
-87.7244
0
LINE
8
BLACK
6
CONTINUOUS
10
146.571
20
-87.7244
11
146.555
21
-87.7361
0
LINE
8
BLACK
6
CONTINUOUS
10
146.555
20
-87.7361
11
146.542
21
-87.7421
0
LINE
8
BLACK
6
CONTINUOUS
10
146.542
20
-87.7421
11
146.521
21
-87.7546
0
LINE
8
BLACK
6
CONTINUOUS
10
146.521
20
-87.7546
11
146.445
21
-87.7903
0
LINE
8
BLACK
6
CONTINUOUS
10
146.445
20
-87.7903
11
146.367
21
-87.8184
0
LINE
8
BLACK
6
CONTINUOUS
10
146.367
20
-87.8184
11
146.286
21
-87.8387
0
LINE
8
BLACK
6
CONTINUOUS
10
146.286
20
-87.8387
11
146.203
21
-87.8509
0
LINE
8
BLACK
6
CONTINUOUS
10
146.203
20
-87.8509
11
146.12
21
-87.855
0
LINE
8
BLACK
6
CONTINUOUS
10
146.12
20
-87.855
11
146.037
21
-87.8509
0
LINE
8
BLACK
6
CONTINUOUS
10
146.037
20
-87.8509
11
145.954
21
-87.8387
0
LINE
8
BLACK
6
CONTINUOUS
10
145.954
20
-87.8387
11
145.873
21
-87.8184
0
LINE
8
BLACK
6
CONTINUOUS
10
145.873
20
-87.8184
11
145.795
21
-87.7903
0
LINE
8
BLACK
6
CONTINUOUS
10
145.795
20
-87.7903
11
145.719
21
-87.7546
0
LINE
8
BLACK
6
CONTINUOUS
10
145.719
20
-87.7546
11
145.648
21
-87.7117
0
LINE
8
BLACK
6
CONTINUOUS
10
145.648
20
-87.7117
11
145.581
21
-87.6621
0
LINE
8
BLACK
6
CONTINUOUS
10
145.581
20
-87.6621
11
145.519
21
-87.606
0
LINE
8
BLACK
6
CONTINUOUS
10
145.519
20
-87.606
11
145.463
21
-87.5442
0
LINE
8
BLACK
6
CONTINUOUS
10
145.463
20
-87.5442
11
145.413
21
-87.4772
0
LINE
8
BLACK
6
CONTINUOUS
10
145.413
20
-87.4772
11
145.37
21
-87.4057
0
LINE
8
BLACK
6
CONTINUOUS
10
145.37
20
-87.4057
11
145.335
21
-87.3303
0
LINE
8
BLACK
6
CONTINUOUS
10
145.335
20
-87.3303
11
145.307
21
-87.2517
0
LINE
8
BLACK
6
CONTINUOUS
10
145.307
20
-87.2517
11
145.286
21
-87.1708
0
LINE
8
BLACK
6
CONTINUOUS
10
145.286
20
-87.1708
11
145.274
21
-87.0883
0
LINE
8
BLACK
6
CONTINUOUS
10
145.274
20
-87.0883
11
145.27
21
-87.005
0
LINE
8
BLACK
6
CONTINUOUS
10
145.27
20
-87.005
11
145.274
21
-86.9217
0
LINE
8
BLACK
6
CONTINUOUS
10
145.274
20
-86.9217
11
145.286
21
-86.8392
0
LINE
8
BLACK
6
CONTINUOUS
10
145.286
20
-86.8392
11
145.307
21
-86.7583
0
LINE
8
BLACK
6
CONTINUOUS
10
145.307
20
-86.7583
11
145.335
21
-86.6797
0
LINE
8
BLACK
6
CONTINUOUS
10
145.335
20
-86.6797
11
145.37
21
-86.6043
0
LINE
8
BLACK
6
CONTINUOUS
10
145.37
20
-86.6043
11
145.413
21
-86.5328
0
LINE
8
BLACK
6
CONTINUOUS
10
145.413
20
-86.5328
11
145.463
21
-86.4658
0
LINE
8
BLACK
6
CONTINUOUS
10
145.463
20
-86.4658
11
145.519
21
-86.404
0
LINE
8
BLACK
6
CONTINUOUS
10
145.519
20
-86.404
11
145.581
21
-86.3479
0
LINE
8
BLACK
6
CONTINUOUS
10
145.581
20
-86.3479
11
145.648
21
-86.2982
0
LINE
8
BLACK
6
CONTINUOUS
10
145.648
20
-86.2982
11
145.704
21
-86.2643
0
LINE
8
BLACK
6
CONTINUOUS
10
145.704
20
-86.2643
11
145.705
21
-86.2639
0
LINE
8
BLACK
6
CONTINUOUS
10
145.705
20
-86.2639
11
145.705
21
-86.2637
0
LINE
8
BLACK
6
CONTINUOUS
10
145.705
20
-86.2637
11
145.719
21
-86.2554
0
LINE
8
BLACK
6
CONTINUOUS
10
145.719
20
-86.2554
11
145.795
21
-86.2197
0
LINE
8
BLACK
6
CONTINUOUS
10
145.795
20
-86.2197
11
145.843
21
-86.2024
0
LINE
8
BLACK
6
CONTINUOUS
10
145.843
20
-86.2024
11
145.867
21
-86.1916
0
LINE
8
BLACK
6
CONTINUOUS
10
145.867
20
-86.1916
11
145.906
21
-86.1833
0
LINE
8
BLACK
6
CONTINUOUS
10
145.906
20
-86.1833
11
145.954
21
-86.1713
0
LINE
8
BLACK
6
CONTINUOUS
10
145.954
20
-86.1713
11
145.982
21
-86.1671
0
LINE
8
BLACK
6
CONTINUOUS
10
145.982
20
-86.1671
11
146.041
21
-86.1547
0
LINE
8
BLACK
6
CONTINUOUS
10
146.041
20
-86.1547
11
146.219
21
-86.1547
0
LINE
8
BLACK
6
CONTINUOUS
10
146.219
20
-86.1547
11
146.393
21
-86.1916
0
LINE
8
BLACK
6
CONTINUOUS
10
157.007
20
-81.6058
11
157.297
21
-81.647
0
LINE
8
BLACK
6
CONTINUOUS
10
157.297
20
-81.647
11
157.578
21
-81.7271
0
LINE
8
BLACK
6
CONTINUOUS
10
157.578
20
-81.7271
11
157.846
21
-81.8447
0
LINE
8
BLACK
6
CONTINUOUS
10
157.846
20
-81.8447
11
158.095
21
-81.9975
0
LINE
8
BLACK
6
CONTINUOUS
10
158.095
20
-81.9975
11
158.322
21
-82.1827
0
LINE
8
BLACK
6
CONTINUOUS
10
158.322
20
-82.1827
11
158.521
21
-82.397
0
LINE
8
BLACK
6
CONTINUOUS
10
158.521
20
-82.397
11
158.689
21
-82.6362
0
LINE
8
BLACK
6
CONTINUOUS
10
158.689
20
-82.6362
11
158.823
21
-82.8961
0
LINE
8
BLACK
6
CONTINUOUS
10
158.823
20
-82.8961
11
158.921
21
-83.1718
0
LINE
8
BLACK
6
CONTINUOUS
10
158.921
20
-83.1718
11
158.98
21
-83.4582
0
LINE
8
BLACK
6
CONTINUOUS
10
158.98
20
-83.4582
11
159
21
-83.75
0
LINE
8
BLACK
6
CONTINUOUS
10
159
20
-83.75
11
159
21
-83.795
0
LINE
8
BLACK
6
CONTINUOUS
10
159
20
-83.795
11
158.974
21
-84.0863
0
LINE
8
BLACK
6
CONTINUOUS
10
158.974
20
-84.0863
11
158.908
21
-84.3714
0
LINE
8
BLACK
6
CONTINUOUS
10
158.908
20
-84.3714
11
158.805
21
-84.645
0
LINE
8
BLACK
6
CONTINUOUS
10
158.805
20
-84.645
11
158.665
21
-84.902
0
LINE
8
BLACK
6
CONTINUOUS
10
158.665
20
-84.902
11
158.492
21
-85.1377
0
LINE
8
BLACK
6
CONTINUOUS
10
158.492
20
-85.1377
11
158.289
21
-85.3478
0
LINE
8
BLACK
6
CONTINUOUS
10
158.289
20
-85.3478
11
158.058
21
-85.5282
0
LINE
8
BLACK
6
CONTINUOUS
10
158.058
20
-85.5282
11
157.806
21
-85.6758
0
LINE
8
BLACK
6
CONTINUOUS
10
157.806
20
-85.6758
11
157.536
21
-85.7877
0
LINE
8
BLACK
6
CONTINUOUS
10
157.536
20
-85.7877
11
157.253
21
-85.8619
0
LINE
8
BLACK
6
CONTINUOUS
10
157.253
20
-85.8619
11
156.963
21
-85.8971
0
LINE
8
BLACK
6
CONTINUOUS
10
156.963
20
-85.8971
11
156.67
21
-85.8925
0
LINE
8
BLACK
6
CONTINUOUS
10
156.67
20
-85.8925
11
156.381
21
-85.8482
0
LINE
8
BLACK
6
CONTINUOUS
10
156.381
20
-85.8482
11
156.101
21
-85.7652
0
LINE
8
BLACK
6
CONTINUOUS
10
156.101
20
-85.7652
11
155.834
21
-85.6448
0
LINE
8
BLACK
6
CONTINUOUS
10
155.834
20
-85.6448
11
155.586
21
-85.4894
0
LINE
8
BLACK
6
CONTINUOUS
10
155.586
20
-85.4894
11
155.362
21
-85.3018
0
LINE
8
BLACK
6
CONTINUOUS
10
155.362
20
-85.3018
11
155.165
21
-85.0855
0
LINE
8
BLACK
6
CONTINUOUS
10
155.165
20
-85.0855
11
154.999
21
-84.8444
0
LINE
8
BLACK
6
CONTINUOUS
10
154.999
20
-84.8444
11
154.868
21
-84.5832
0
LINE
8
BLACK
6
CONTINUOUS
10
154.868
20
-84.5832
11
154.773
21
-84.3065
0
LINE
8
BLACK
6
CONTINUOUS
10
154.773
20
-84.3065
11
154.717
21
-84.0195
0
LINE
8
BLACK
6
CONTINUOUS
10
154.717
20
-84.0195
11
154.7
21
-83.7275
0
LINE
8
BLACK
6
CONTINUOUS
10
154.7
20
-83.7275
11
154.723
21
-83.4359
0
LINE
8
BLACK
6
CONTINUOUS
10
154.723
20
-83.4359
11
154.785
21
-83.1502
0
LINE
8
BLACK
6
CONTINUOUS
10
154.785
20
-83.1502
11
154.886
21
-82.8755
0
LINE
8
BLACK
6
CONTINUOUS
10
154.886
20
-82.8755
11
155.023
21
-82.617
0
LINE
8
BLACK
6
CONTINUOUS
10
155.023
20
-82.617
11
155.193
21
-82.3795
0
LINE
8
BLACK
6
CONTINUOUS
10
155.193
20
-82.3795
11
155.395
21
-82.1674
0
LINE
8
BLACK
6
CONTINUOUS
10
155.395
20
-82.1674
11
155.623
21
-81.9845
0
LINE
8
BLACK
6
CONTINUOUS
10
155.623
20
-81.9845
11
155.874
21
-81.8343
0
LINE
8
BLACK
6
CONTINUOUS
10
155.874
20
-81.8343
11
156.143
21
-81.7196
0
LINE
8
BLACK
6
CONTINUOUS
10
156.143
20
-81.7196
11
156.425
21
-81.6424
0
LINE
8
BLACK
6
CONTINUOUS
10
156.425
20
-81.6424
11
156.715
21
-81.6042
0
LINE
8
BLACK
6
CONTINUOUS
10
156.715
20
-81.6042
11
157.007
21
-81.6058
  0
ENDSEC
  0
EOF
