  0
SECTION
  2
HEADER
  9
$ANGBASE
  50
0.0
  9
$ANGDIR
  70
1
  9
$MEASUREMENT
  70
1
  0
ENDSEC
  0
SECTION
  2
TABLES
  0
TABLE
  2
LTYPE
  70
4
  0
LTYPE
  5
40F
  2
CONTINUOUS
  70
0
  3
Solid line
  72
65
  73
0
  40
0.0
  0
LTYPE
  5
410
  2
DASHDOT
 70
0
  3
Dash Dot ____ _ ____ _
 72
65
 73
4
 40
2.0
 49
1.25
 49
-0.25
 49
0.25
 49
-0.25
  0
LTYPE
  5
411
  2
DASHED
 70
0
  3
Dashed __ __ __ __ __
 72
65
 73
2
 40
0.75
 49
0.5
 49
-0.25
  0
LTYPE
  5
43B
  2
DOTTED
 70
0
  3
Dotted .  .  .  .
 72
65
 73
2
 40
0.2
 49
0.0
 49
-0.2
  0
ENDTAB
  0
TABLE
  2
STYLE
  70
4
  0
STYLE
  2
KICAD
  70
0
  40
0
  41
1
  42
1
  50
0
  71
0
  3
isocp.shx
  0
STYLE
  2
KICADB
  70
0
  40
0
  41
1
  42
1
  50
0
  71
0
  3
isocp.shx
  0
STYLE
  2
KICADI
  70
0
  40
0
  41
1
  42
1
  50
15
  71
0
  3
isocp.shx
  0
STYLE
  2
KICADBI
  70
0
  40
0
  41
1
  42
1
  50
15
  71
0
  3
isocp.shx
  0
ENDTAB
  0
TABLE
  2
LAYER
  70
1
  0
LAYER
  2
BLACK
  70
0
  62
7
  6
CONTINUOUS
  0
ENDTAB
  0
ENDSEC
  0
SECTION
  2
ENTITIES
0
LINE
8
BLACK
6
CONTINUOUS
10
148.038
20
-118.832
11
147.956
21
-118.946
0
LINE
8
BLACK
6
CONTINUOUS
10
147.956
20
-118.946
11
147.873
21
-119.053
0
LINE
8
BLACK
6
CONTINUOUS
10
147.873
20
-119.053
11
147.798
21
-119.141
0
LINE
8
BLACK
6
CONTINUOUS
10
147.798
20
-119.141
11
147.618
21
-119.316
0
LINE
8
BLACK
6
CONTINUOUS
10
147.618
20
-119.316
11
147.383
21
-119.503
0
LINE
8
BLACK
6
CONTINUOUS
10
147.383
20
-119.503
11
147.121
21
-119.678
0
LINE
8
BLACK
6
CONTINUOUS
10
147.121
20
-119.678
11
146.847
21
-119.831
0
LINE
8
BLACK
6
CONTINUOUS
10
146.847
20
-119.831
11
146.576
21
-119.953
0
LINE
8
BLACK
6
CONTINUOUS
10
146.576
20
-119.953
11
146.444
21
-120
0
LINE
8
BLACK
6
CONTINUOUS
10
146.444
20
-120
11
146.205
21
-120.071
0
LINE
8
BLACK
6
CONTINUOUS
10
146.205
20
-120.071
11
145.953
21
-120.131
0
LINE
8
BLACK
6
CONTINUOUS
10
145.953
20
-120.131
11
145.716
21
-120.175
0
LINE
8
BLACK
6
CONTINUOUS
10
145.716
20
-120.175
11
145.618
21
-120.185
0
LINE
8
BLACK
6
CONTINUOUS
10
145.618
20
-120.185
11
145.459
21
-120.194
0
LINE
8
BLACK
6
CONTINUOUS
10
145.459
20
-120.194
11
145.267
21
-120.2
0
LINE
8
BLACK
6
CONTINUOUS
10
145.267
20
-120.2
11
145.054
21
-120.202
0
LINE
8
BLACK
6
CONTINUOUS
10
145.054
20
-120.202
11
144.834
21
-120.201
0
LINE
8
BLACK
6
CONTINUOUS
10
144.834
20
-120.201
11
144.618
21
-120.196
0
LINE
8
BLACK
6
CONTINUOUS
10
144.618
20
-120.196
11
144.42
21
-120.189
0
LINE
8
BLACK
6
CONTINUOUS
10
144.42
20
-120.189
11
144.252
21
-120.178
0
LINE
8
BLACK
6
CONTINUOUS
10
144.252
20
-120.178
11
144.126
21
-120.164
0
LINE
8
BLACK
6
CONTINUOUS
10
144.126
20
-120.164
11
143.825
21
-120.106
0
LINE
8
BLACK
6
CONTINUOUS
10
143.825
20
-120.106
11
143.435
21
-119.991
0
LINE
8
BLACK
6
CONTINUOUS
10
143.435
20
-119.991
11
143.065
21
-119.837
0
LINE
8
BLACK
6
CONTINUOUS
10
143.065
20
-119.837
11
142.721
21
-119.648
0
LINE
8
BLACK
6
CONTINUOUS
10
142.721
20
-119.648
11
142.408
21
-119.427
0
LINE
8
BLACK
6
CONTINUOUS
10
142.408
20
-119.427
11
142.132
21
-119.179
0
LINE
8
BLACK
6
CONTINUOUS
10
142.132
20
-119.179
11
141.898
21
-118.906
0
LINE
8
BLACK
6
CONTINUOUS
10
141.898
20
-118.906
11
141.713
21
-118.613
0
LINE
8
BLACK
6
CONTINUOUS
10
141.713
20
-118.613
11
141.681
21
-118.558
0
LINE
8
BLACK
6
CONTINUOUS
10
141.681
20
-118.558
11
141.646
21
-118.514
0
LINE
8
BLACK
6
CONTINUOUS
10
141.646
20
-118.514
11
141.628
21
-118.514
0
LINE
8
BLACK
6
CONTINUOUS
10
141.628
20
-118.514
11
141.621
21
-118.535
0
LINE
8
BLACK
6
CONTINUOUS
10
141.621
20
-118.535
11
141.601
21
-118.605
0
LINE
8
BLACK
6
CONTINUOUS
10
141.601
20
-118.605
11
141.577
21
-118.693
0
LINE
8
BLACK
6
CONTINUOUS
10
141.577
20
-118.693
11
141.539
21
-118.834
0
LINE
8
BLACK
6
CONTINUOUS
10
141.539
20
-118.834
11
141.46
21
-118.699
0
LINE
8
BLACK
6
CONTINUOUS
10
141.46
20
-118.699
11
141.37
21
-118.524
0
LINE
8
BLACK
6
CONTINUOUS
10
141.37
20
-118.524
11
141.308
21
-118.35
0
LINE
8
BLACK
6
CONTINUOUS
10
141.308
20
-118.35
11
141.271
21
-118.159
0
LINE
8
BLACK
6
CONTINUOUS
10
141.271
20
-118.159
11
141.253
21
-117.931
0
LINE
8
BLACK
6
CONTINUOUS
10
141.253
20
-117.931
11
141.249
21
-117.791
0
LINE
8
BLACK
6
CONTINUOUS
10
141.249
20
-117.791
11
141.253
21
-117.654
0
LINE
8
BLACK
6
CONTINUOUS
10
141.253
20
-117.654
11
141.267
21
-117.535
0
LINE
8
BLACK
6
CONTINUOUS
10
141.267
20
-117.535
11
141.294
21
-117.415
0
LINE
8
BLACK
6
CONTINUOUS
10
141.294
20
-117.415
11
141.299
21
-117.396
0
LINE
8
BLACK
6
CONTINUOUS
10
141.299
20
-117.396
11
141.32
21
-117.302
0
LINE
8
BLACK
6
CONTINUOUS
10
141.32
20
-117.302
11
141.33
21
-117.236
0
LINE
8
BLACK
6
CONTINUOUS
10
141.33
20
-117.236
11
141.326
21
-117.211
0
LINE
8
BLACK
6
CONTINUOUS
10
141.326
20
-117.211
11
141.317
21
-117.213
0
LINE
8
BLACK
6
CONTINUOUS
10
141.317
20
-117.213
11
141.267
21
-117.238
0
LINE
8
BLACK
6
CONTINUOUS
10
141.267
20
-117.238
11
141.187
21
-117.282
0
LINE
8
BLACK
6
CONTINUOUS
10
141.187
20
-117.282
11
141.088
21
-117.339
0
LINE
8
BLACK
6
CONTINUOUS
10
141.088
20
-117.339
11
141.04
21
-117.367
0
LINE
8
BLACK
6
CONTINUOUS
10
141.04
20
-117.367
11
140.95
21
-117.416
0
LINE
8
BLACK
6
CONTINUOUS
10
140.95
20
-117.416
11
140.885
21
-117.447
0
LINE
8
BLACK
6
CONTINUOUS
10
140.885
20
-117.447
11
140.856
21
-117.454
0
LINE
8
BLACK
6
CONTINUOUS
10
140.856
20
-117.454
11
140.854
21
-117.449
0
LINE
8
BLACK
6
CONTINUOUS
10
140.854
20
-117.449
11
140.849
21
-117.4
0
LINE
8
BLACK
6
CONTINUOUS
10
140.849
20
-117.4
11
140.846
21
-117.315
0
LINE
8
BLACK
6
CONTINUOUS
10
140.846
20
-117.315
11
140.846
21
-117.205
0
LINE
8
BLACK
6
CONTINUOUS
10
140.846
20
-117.205
11
140.853
21
-117.081
0
LINE
8
BLACK
6
CONTINUOUS
10
140.853
20
-117.081
11
140.869
21
-116.931
0
LINE
8
BLACK
6
CONTINUOUS
10
140.869
20
-116.931
11
140.893
21
-116.766
0
LINE
8
BLACK
6
CONTINUOUS
10
140.893
20
-116.766
11
140.922
21
-116.597
0
LINE
8
BLACK
6
CONTINUOUS
10
140.922
20
-116.597
11
140.954
21
-116.433
0
LINE
8
BLACK
6
CONTINUOUS
10
140.954
20
-116.433
11
140.988
21
-116.285
0
LINE
8
BLACK
6
CONTINUOUS
10
140.988
20
-116.285
11
141.022
21
-116.163
0
LINE
8
BLACK
6
CONTINUOUS
10
141.022
20
-116.163
11
141.052
21
-116.076
0
LINE
8
BLACK
6
CONTINUOUS
10
141.052
20
-116.076
11
141.078
21
-116.036
0
LINE
8
BLACK
6
CONTINUOUS
10
141.078
20
-116.036
11
141.093
21
-116.015
0
LINE
8
BLACK
6
CONTINUOUS
10
141.093
20
-116.015
11
141.104
21
-115.959
0
LINE
8
BLACK
6
CONTINUOUS
10
141.104
20
-115.959
11
141.107
21
-115.935
0
LINE
8
BLACK
6
CONTINUOUS
10
141.107
20
-115.935
11
141.129
21
-115.86
0
LINE
8
BLACK
6
CONTINUOUS
10
141.129
20
-115.86
11
141.165
21
-115.757
0
LINE
8
BLACK
6
CONTINUOUS
10
141.165
20
-115.757
11
141.212
21
-115.64
0
LINE
8
BLACK
6
CONTINUOUS
10
141.212
20
-115.64
11
141.319
21
-115.383
0
LINE
8
BLACK
6
CONTINUOUS
10
141.319
20
-115.383
11
141.19
21
-115.315
0
LINE
8
BLACK
6
CONTINUOUS
10
141.19
20
-115.315
11
141.034
21
-115.212
0
LINE
8
BLACK
6
CONTINUOUS
10
141.034
20
-115.212
11
140.864
21
-115.048
0
LINE
8
BLACK
6
CONTINUOUS
10
140.864
20
-115.048
11
140.716
21
-114.85
0
LINE
8
BLACK
6
CONTINUOUS
10
140.716
20
-114.85
11
140.599
21
-114.629
0
LINE
8
BLACK
6
CONTINUOUS
10
140.599
20
-114.629
11
140.521
21
-114.396
0
LINE
8
BLACK
6
CONTINUOUS
10
140.521
20
-114.396
11
140.495
21
-114.233
0
LINE
8
BLACK
6
CONTINUOUS
10
140.495
20
-114.233
11
140.491
21
-114.021
0
LINE
8
BLACK
6
CONTINUOUS
10
140.491
20
-114.021
11
140.521
21
-113.815
0
LINE
8
BLACK
6
CONTINUOUS
10
140.521
20
-113.815
11
140.579
21
-113.628
0
LINE
8
BLACK
6
CONTINUOUS
10
140.579
20
-113.628
11
140.665
21
-113.471
0
LINE
8
BLACK
6
CONTINUOUS
10
140.665
20
-113.471
11
140.774
21
-113.355
0
LINE
8
BLACK
6
CONTINUOUS
10
140.774
20
-113.355
11
140.792
21
-113.342
0
LINE
8
BLACK
6
CONTINUOUS
10
140.792
20
-113.342
11
140.958
21
-113.245
0
LINE
8
BLACK
6
CONTINUOUS
10
140.958
20
-113.245
11
141.137
21
-113.182
0
LINE
8
BLACK
6
CONTINUOUS
10
141.137
20
-113.182
11
141.314
21
-113.156
0
LINE
8
BLACK
6
CONTINUOUS
10
141.314
20
-113.156
11
141.479
21
-113.167
0
LINE
8
BLACK
6
CONTINUOUS
10
141.479
20
-113.167
11
141.619
21
-113.219
0
LINE
8
BLACK
6
CONTINUOUS
10
141.619
20
-113.219
11
141.726
21
-113.282
0
LINE
8
BLACK
6
CONTINUOUS
10
141.726
20
-113.282
11
141.949
21
-113.117
0
LINE
8
BLACK
6
CONTINUOUS
10
141.949
20
-113.117
11
142.045
21
-113.049
0
LINE
8
BLACK
6
CONTINUOUS
10
142.045
20
-113.049
11
142.188
21
-112.953
0
LINE
8
BLACK
6
CONTINUOUS
10
142.188
20
-112.953
11
142.344
21
-112.855
0
LINE
8
BLACK
6
CONTINUOUS
10
142.344
20
-112.855
11
142.492
21
-112.766
0
LINE
8
BLACK
6
CONTINUOUS
10
142.492
20
-112.766
11
142.522
21
-112.748
0
LINE
8
BLACK
6
CONTINUOUS
10
142.522
20
-112.748
11
142.835
21
-112.576
0
LINE
8
BLACK
6
CONTINUOUS
10
142.835
20
-112.576
11
143.118
21
-112.441
0
LINE
8
BLACK
6
CONTINUOUS
10
143.118
20
-112.441
11
143.384
21
-112.337
0
LINE
8
BLACK
6
CONTINUOUS
10
143.384
20
-112.337
11
143.642
21
-112.263
0
LINE
8
BLACK
6
CONTINUOUS
10
143.642
20
-112.263
11
143.905
21
-112.214
0
LINE
8
BLACK
6
CONTINUOUS
10
143.905
20
-112.214
11
144.183
21
-112.189
0
LINE
8
BLACK
6
CONTINUOUS
10
144.183
20
-112.189
11
144.486
21
-112.182
0
LINE
8
BLACK
6
CONTINUOUS
10
144.486
20
-112.182
11
144.626
21
-112.184
0
LINE
8
BLACK
6
CONTINUOUS
10
144.626
20
-112.184
11
144.748
21
-112.185
0
LINE
8
BLACK
6
CONTINUOUS
10
144.748
20
-112.185
11
144.843
21
-112.185
0
LINE
8
BLACK
6
CONTINUOUS
10
144.843
20
-112.185
11
144.924
21
-112.185
0
LINE
8
BLACK
6
CONTINUOUS
10
144.924
20
-112.185
11
145.007
21
-112.185
0
LINE
8
BLACK
6
CONTINUOUS
10
145.007
20
-112.185
11
145.104
21
-112.185
0
LINE
8
BLACK
6
CONTINUOUS
10
145.104
20
-112.185
11
145.229
21
-112.183
0
LINE
8
BLACK
6
CONTINUOUS
10
145.229
20
-112.183
11
145.397
21
-112.182
0
LINE
8
BLACK
6
CONTINUOUS
10
145.397
20
-112.182
11
145.467
21
-112.182
0
LINE
8
BLACK
6
CONTINUOUS
10
145.467
20
-112.182
11
145.766
21
-112.192
0
LINE
8
BLACK
6
CONTINUOUS
10
145.766
20
-112.192
11
146.042
21
-112.223
0
LINE
8
BLACK
6
CONTINUOUS
10
146.042
20
-112.223
11
146.306
21
-112.277
0
LINE
8
BLACK
6
CONTINUOUS
10
146.306
20
-112.277
11
146.568
21
-112.358
0
LINE
8
BLACK
6
CONTINUOUS
10
146.568
20
-112.358
11
146.84
21
-112.469
0
LINE
8
BLACK
6
CONTINUOUS
10
146.84
20
-112.469
11
147.131
21
-112.613
0
LINE
8
BLACK
6
CONTINUOUS
10
147.131
20
-112.613
11
147.452
21
-112.794
0
LINE
8
BLACK
6
CONTINUOUS
10
147.452
20
-112.794
11
147.503
21
-112.824
0
LINE
8
BLACK
6
CONTINUOUS
10
147.503
20
-112.824
11
147.654
21
-112.919
0
LINE
8
BLACK
6
CONTINUOUS
10
147.654
20
-112.919
11
147.808
21
-113.022
0
LINE
8
BLACK
6
CONTINUOUS
10
147.808
20
-113.022
11
147.938
21
-113.114
0
LINE
8
BLACK
6
CONTINUOUS
10
147.938
20
-113.114
11
148.165
21
-113.282
0
LINE
8
BLACK
6
CONTINUOUS
10
148.165
20
-113.282
11
148.257
21
-113.228
0
LINE
8
BLACK
6
CONTINUOUS
10
148.257
20
-113.228
11
148.259
21
-113.227
0
LINE
8
BLACK
6
CONTINUOUS
10
148.259
20
-113.227
11
148.354
21
-113.184
0
LINE
8
BLACK
6
CONTINUOUS
10
148.354
20
-113.184
11
148.453
21
-113.156
0
LINE
8
BLACK
6
CONTINUOUS
10
148.453
20
-113.156
11
148.495
21
-113.15
0
LINE
8
BLACK
6
CONTINUOUS
10
148.495
20
-113.15
11
148.655
21
-113.159
0
LINE
8
BLACK
6
CONTINUOUS
10
148.655
20
-113.159
11
148.826
21
-113.205
0
LINE
8
BLACK
6
CONTINUOUS
10
148.826
20
-113.205
11
148.993
21
-113.281
0
LINE
8
BLACK
6
CONTINUOUS
10
148.993
20
-113.281
11
149.137
21
-113.38
0
LINE
8
BLACK
6
CONTINUOUS
10
149.137
20
-113.38
11
149.244
21
-113.495
0
LINE
8
BLACK
6
CONTINUOUS
10
149.244
20
-113.495
11
149.337
21
-113.676
0
LINE
8
BLACK
6
CONTINUOUS
10
149.337
20
-113.676
11
149.392
21
-113.891
0
LINE
8
BLACK
6
CONTINUOUS
10
149.392
20
-113.891
11
149.405
21
-114.123
0
LINE
8
BLACK
6
CONTINUOUS
10
149.405
20
-114.123
11
149.401
21
-114.159
0
LINE
8
BLACK
6
CONTINUOUS
10
149.401
20
-114.159
11
149.377
21
-114.362
0
LINE
8
BLACK
6
CONTINUOUS
10
149.377
20
-114.362
11
149.307
21
-114.599
0
LINE
8
BLACK
6
CONTINUOUS
10
149.307
20
-114.599
11
149.199
21
-114.826
0
LINE
8
BLACK
6
CONTINUOUS
10
149.199
20
-114.826
11
149.052
21
-115.032
0
LINE
8
BLACK
6
CONTINUOUS
10
149.052
20
-115.032
11
149.027
21
-115.059
0
LINE
8
BLACK
6
CONTINUOUS
10
149.027
20
-115.059
11
148.948
21
-115.131
0
LINE
8
BLACK
6
CONTINUOUS
10
148.948
20
-115.131
11
148.848
21
-115.211
0
LINE
8
BLACK
6
CONTINUOUS
10
148.848
20
-115.211
11
148.745
21
-115.287
0
LINE
8
BLACK
6
CONTINUOUS
10
148.745
20
-115.287
11
148.652
21
-115.347
0
LINE
8
BLACK
6
CONTINUOUS
10
148.652
20
-115.347
11
148.586
21
-115.38
0
LINE
8
BLACK
6
CONTINUOUS
10
148.586
20
-115.38
11
148.577
21
-115.386
0
LINE
8
BLACK
6
CONTINUOUS
10
148.577
20
-115.386
11
148.577
21
-115.426
0
LINE
8
BLACK
6
CONTINUOUS
10
148.577
20
-115.426
11
148.612
21
-115.503
0
LINE
8
BLACK
6
CONTINUOUS
10
148.612
20
-115.503
11
148.674
21
-115.632
0
LINE
8
BLACK
6
CONTINUOUS
10
148.674
20
-115.632
11
148.746
21
-115.819
0
LINE
8
BLACK
6
CONTINUOUS
10
148.746
20
-115.819
11
148.82
21
-116.04
0
LINE
8
BLACK
6
CONTINUOUS
10
148.82
20
-116.04
11
148.892
21
-116.282
0
LINE
8
BLACK
6
CONTINUOUS
10
148.892
20
-116.282
11
148.957
21
-116.535
0
LINE
8
BLACK
6
CONTINUOUS
10
148.957
20
-116.535
11
149.012
21
-116.787
0
LINE
8
BLACK
6
CONTINUOUS
10
149.012
20
-116.787
11
149.024
21
-116.868
0
LINE
8
BLACK
6
CONTINUOUS
10
149.024
20
-116.868
11
149.035
21
-116.98
0
LINE
8
BLACK
6
CONTINUOUS
10
149.035
20
-116.98
11
149.043
21
-117.104
0
LINE
8
BLACK
6
CONTINUOUS
10
149.043
20
-117.104
11
149.048
21
-117.227
0
LINE
8
BLACK
6
CONTINUOUS
10
149.048
20
-117.227
11
149.048
21
-117.335
0
LINE
8
BLACK
6
CONTINUOUS
10
149.048
20
-117.335
11
149.045
21
-117.415
0
LINE
8
BLACK
6
CONTINUOUS
10
149.045
20
-117.415
11
149.036
21
-117.452
0
LINE
8
BLACK
6
CONTINUOUS
10
149.036
20
-117.452
11
149.028
21
-117.452
0
LINE
8
BLACK
6
CONTINUOUS
10
149.028
20
-117.452
11
148.981
21
-117.434
0
LINE
8
BLACK
6
CONTINUOUS
10
148.981
20
-117.434
11
148.902
21
-117.394
0
LINE
8
BLACK
6
CONTINUOUS
10
148.902
20
-117.394
11
148.805
21
-117.339
0
LINE
8
BLACK
6
CONTINUOUS
10
148.805
20
-117.339
11
148.76
21
-117.313
0
LINE
8
BLACK
6
CONTINUOUS
10
148.76
20
-117.313
11
148.667
21
-117.26
0
LINE
8
BLACK
6
CONTINUOUS
10
148.667
20
-117.26
11
148.598
21
-117.224
0
LINE
8
BLACK
6
CONTINUOUS
10
148.598
20
-117.224
11
148.564
21
-117.211
0
LINE
8
BLACK
6
CONTINUOUS
10
148.564
20
-117.211
11
148.559
21
-117.216
0
LINE
8
BLACK
6
CONTINUOUS
10
148.559
20
-117.216
11
148.561
21
-117.257
0
LINE
8
BLACK
6
CONTINUOUS
10
148.561
20
-117.257
11
148.58
21
-117.327
0
LINE
8
BLACK
6
CONTINUOUS
10
148.58
20
-117.327
11
148.584
21
-117.337
0
LINE
8
BLACK
6
CONTINUOUS
10
148.584
20
-117.337
11
148.645
21
-117.603
0
LINE
8
BLACK
6
CONTINUOUS
10
148.645
20
-117.603
11
148.659
21
-117.885
0
LINE
8
BLACK
6
CONTINUOUS
10
148.659
20
-117.885
11
148.627
21
-118.17
0
LINE
8
BLACK
6
CONTINUOUS
10
148.627
20
-118.17
11
148.552
21
-118.446
0
LINE
8
BLACK
6
CONTINUOUS
10
148.552
20
-118.446
11
148.433
21
-118.699
0
LINE
8
BLACK
6
CONTINUOUS
10
148.433
20
-118.699
11
148.355
21
-118.832
0
LINE
8
BLACK
6
CONTINUOUS
10
148.355
20
-118.832
11
148.318
21
-118.706
0
LINE
8
BLACK
6
CONTINUOUS
10
148.318
20
-118.706
11
148.308
21
-118.671
0
LINE
8
BLACK
6
CONTINUOUS
10
148.308
20
-118.671
11
148.288
21
-118.588
0
LINE
8
BLACK
6
CONTINUOUS
10
148.288
20
-118.588
11
148.28
21
-118.531
0
LINE
8
BLACK
6
CONTINUOUS
10
148.28
20
-118.531
11
148.275
21
-118.505
0
LINE
8
BLACK
6
CONTINUOUS
10
148.275
20
-118.505
11
148.251
21
-118.482
0
LINE
8
BLACK
6
CONTINUOUS
10
148.251
20
-118.482
11
148.24
21
-118.485
0
LINE
8
BLACK
6
CONTINUOUS
10
148.24
20
-118.485
11
148.223
21
-118.519
0
LINE
8
BLACK
6
CONTINUOUS
10
148.223
20
-118.519
11
148.213
21
-118.551
0
LINE
8
BLACK
6
CONTINUOUS
10
148.213
20
-118.551
11
148.174
21
-118.623
0
LINE
8
BLACK
6
CONTINUOUS
10
148.174
20
-118.623
11
148.173
21
-118.625
0
LINE
8
BLACK
6
CONTINUOUS
10
148.173
20
-118.625
11
148.114
21
-118.721
0
LINE
8
BLACK
6
CONTINUOUS
10
148.114
20
-118.721
11
148.038
21
-118.832
0
LINE
8
BLACK
6
CONTINUOUS
10
146.719
20
-118.513
11
146.623
21
-118.458
0
LINE
8
BLACK
6
CONTINUOUS
10
146.623
20
-118.458
11
146.478
21
-118.393
0
LINE
8
BLACK
6
CONTINUOUS
10
146.478
20
-118.393
11
146.313
21
-118.325
0
LINE
8
BLACK
6
CONTINUOUS
10
146.313
20
-118.325
11
145.958
21
-118.195
0
LINE
8
BLACK
6
CONTINUOUS
10
145.958
20
-118.195
11
145.589
21
-118.083
0
LINE
8
BLACK
6
CONTINUOUS
10
145.589
20
-118.083
11
145.236
21
-117.997
0
LINE
8
BLACK
6
CONTINUOUS
10
145.236
20
-117.997
11
144.945
21
-117.936
0
LINE
8
BLACK
6
CONTINUOUS
10
144.945
20
-117.936
11
144.642
21
-117.999
0
LINE
8
BLACK
6
CONTINUOUS
10
144.642
20
-117.999
11
144.539
21
-118.022
0
LINE
8
BLACK
6
CONTINUOUS
10
144.539
20
-118.022
11
144.298
21
-118.085
0
LINE
8
BLACK
6
CONTINUOUS
10
144.298
20
-118.085
11
144.04
21
-118.163
0
LINE
8
BLACK
6
CONTINUOUS
10
144.04
20
-118.163
11
143.785
21
-118.248
0
LINE
8
BLACK
6
CONTINUOUS
10
143.785
20
-118.248
11
143.549
21
-118.337
0
LINE
8
BLACK
6
CONTINUOUS
10
143.549
20
-118.337
11
143.35
21
-118.422
0
LINE
8
BLACK
6
CONTINUOUS
10
143.35
20
-118.422
11
143.262
21
-118.464
0
LINE
8
BLACK
6
CONTINUOUS
10
143.262
20
-118.464
11
143.166
21
-118.522
0
LINE
8
BLACK
6
CONTINUOUS
10
143.166
20
-118.522
11
143.118
21
-118.577
0
LINE
8
BLACK
6
CONTINUOUS
10
143.118
20
-118.577
11
143.113
21
-118.642
0
LINE
8
BLACK
6
CONTINUOUS
10
143.113
20
-118.642
11
143.15
21
-118.728
0
LINE
8
BLACK
6
CONTINUOUS
10
143.15
20
-118.728
11
143.223
21
-118.845
0
LINE
8
BLACK
6
CONTINUOUS
10
143.223
20
-118.845
11
143.39
21
-119.053
0
LINE
8
BLACK
6
CONTINUOUS
10
143.39
20
-119.053
11
143.605
21
-119.251
0
LINE
8
BLACK
6
CONTINUOUS
10
143.605
20
-119.251
11
143.853
21
-119.423
0
LINE
8
BLACK
6
CONTINUOUS
10
143.853
20
-119.423
11
144.12
21
-119.561
0
LINE
8
BLACK
6
CONTINUOUS
10
144.12
20
-119.561
11
144.394
21
-119.656
0
LINE
8
BLACK
6
CONTINUOUS
10
144.394
20
-119.656
11
144.41
21
-119.66
0
LINE
8
BLACK
6
CONTINUOUS
10
144.41
20
-119.66
11
144.58
21
-119.689
0
LINE
8
BLACK
6
CONTINUOUS
10
144.58
20
-119.689
11
144.78
21
-119.707
0
LINE
8
BLACK
6
CONTINUOUS
10
144.78
20
-119.707
11
144.991
21
-119.713
0
LINE
8
BLACK
6
CONTINUOUS
10
144.991
20
-119.713
11
145.189
21
-119.706
0
LINE
8
BLACK
6
CONTINUOUS
10
145.189
20
-119.706
11
145.355
21
-119.685
0
LINE
8
BLACK
6
CONTINUOUS
10
145.355
20
-119.685
11
145.397
21
-119.677
0
LINE
8
BLACK
6
CONTINUOUS
10
145.397
20
-119.677
11
145.708
21
-119.585
0
LINE
8
BLACK
6
CONTINUOUS
10
145.708
20
-119.585
11
145.999
21
-119.449
0
LINE
8
BLACK
6
CONTINUOUS
10
145.999
20
-119.449
11
146.263
21
-119.277
0
LINE
8
BLACK
6
CONTINUOUS
10
146.263
20
-119.277
11
146.49
21
-119.071
0
LINE
8
BLACK
6
CONTINUOUS
10
146.49
20
-119.071
11
146.674
21
-118.838
0
LINE
8
BLACK
6
CONTINUOUS
10
146.674
20
-118.838
11
146.696
21
-118.802
0
LINE
8
BLACK
6
CONTINUOUS
10
146.696
20
-118.802
11
146.755
21
-118.701
0
LINE
8
BLACK
6
CONTINUOUS
10
146.755
20
-118.701
11
146.782
21
-118.625
0
LINE
8
BLACK
6
CONTINUOUS
10
146.782
20
-118.625
11
146.771
21
-118.566
0
LINE
8
BLACK
6
CONTINUOUS
10
146.771
20
-118.566
11
146.719
21
-118.513
0
LINE
8
BLACK
6
CONTINUOUS
10
143.448
20
-116.547
11
143.462
21
-116.561
0
LINE
8
BLACK
6
CONTINUOUS
10
143.462
20
-116.561
11
143.476
21
-116.547
0
LINE
8
BLACK
6
CONTINUOUS
10
143.476
20
-116.547
11
143.462
21
-116.533
0
LINE
8
BLACK
6
CONTINUOUS
10
143.462
20
-116.533
11
143.448
21
-116.547
0
LINE
8
BLACK
6
CONTINUOUS
10
143.498
20
-116.713
11
143.36
21
-117.073
0
LINE
8
BLACK
6
CONTINUOUS
10
143.36
20
-117.073
11
143.212
21
-117.391
0
LINE
8
BLACK
6
CONTINUOUS
10
143.212
20
-117.391
11
143.057
21
-117.66
0
LINE
8
BLACK
6
CONTINUOUS
10
143.057
20
-117.66
11
143.012
21
-117.733
0
LINE
8
BLACK
6
CONTINUOUS
10
143.012
20
-117.733
11
142.932
21
-117.893
0
LINE
8
BLACK
6
CONTINUOUS
10
142.932
20
-117.893
11
142.895
21
-118.032
0
LINE
8
BLACK
6
CONTINUOUS
10
142.895
20
-118.032
11
142.899
21
-118.158
0
LINE
8
BLACK
6
CONTINUOUS
10
142.899
20
-118.158
11
142.906
21
-118.185
0
LINE
8
BLACK
6
CONTINUOUS
10
142.906
20
-118.185
11
142.956
21
-118.277
0
LINE
8
BLACK
6
CONTINUOUS
10
142.956
20
-118.277
11
143.034
21
-118.343
0
LINE
8
BLACK
6
CONTINUOUS
10
143.034
20
-118.343
11
143.123
21
-118.369
0
LINE
8
BLACK
6
CONTINUOUS
10
143.123
20
-118.369
11
143.137
21
-118.367
0
LINE
8
BLACK
6
CONTINUOUS
10
143.137
20
-118.367
11
143.203
21
-118.35
0
LINE
8
BLACK
6
CONTINUOUS
10
143.203
20
-118.35
11
143.31
21
-118.317
0
LINE
8
BLACK
6
CONTINUOUS
10
143.31
20
-118.317
11
143.448
21
-118.272
0
LINE
8
BLACK
6
CONTINUOUS
10
143.448
20
-118.272
11
143.61
21
-118.217
0
LINE
8
BLACK
6
CONTINUOUS
10
143.61
20
-118.217
11
143.787
21
-118.156
0
LINE
8
BLACK
6
CONTINUOUS
10
143.787
20
-118.156
11
143.979
21
-118.089
0
LINE
8
BLACK
6
CONTINUOUS
10
143.979
20
-118.089
11
144.261
21
-117.995
0
LINE
8
BLACK
6
CONTINUOUS
10
144.261
20
-117.995
11
144.496
21
-117.923
0
LINE
8
BLACK
6
CONTINUOUS
10
144.496
20
-117.923
11
144.688
21
-117.872
0
LINE
8
BLACK
6
CONTINUOUS
10
144.688
20
-117.872
11
144.837
21
-117.842
0
LINE
8
BLACK
6
CONTINUOUS
10
144.837
20
-117.842
11
144.949
21
-117.832
0
LINE
8
BLACK
6
CONTINUOUS
10
144.949
20
-117.832
11
145.003
21
-117.836
0
LINE
8
BLACK
6
CONTINUOUS
10
145.003
20
-117.836
11
145.143
21
-117.859
0
LINE
8
BLACK
6
CONTINUOUS
10
145.143
20
-117.859
11
145.33
21
-117.905
0
LINE
8
BLACK
6
CONTINUOUS
10
145.33
20
-117.905
11
145.561
21
-117.973
0
LINE
8
BLACK
6
CONTINUOUS
10
145.561
20
-117.973
11
145.833
21
-118.06
0
LINE
8
BLACK
6
CONTINUOUS
10
145.833
20
-118.06
11
146.143
21
-118.168
0
LINE
8
BLACK
6
CONTINUOUS
10
146.143
20
-118.168
11
146.191
21
-118.186
0
LINE
8
BLACK
6
CONTINUOUS
10
146.191
20
-118.186
11
146.359
21
-118.244
0
LINE
8
BLACK
6
CONTINUOUS
10
146.359
20
-118.244
11
146.509
21
-118.294
0
LINE
8
BLACK
6
CONTINUOUS
10
146.509
20
-118.294
11
146.634
21
-118.334
0
LINE
8
BLACK
6
CONTINUOUS
10
146.634
20
-118.334
11
146.723
21
-118.36
0
LINE
8
BLACK
6
CONTINUOUS
10
146.723
20
-118.36
11
146.767
21
-118.369
0
LINE
8
BLACK
6
CONTINUOUS
10
146.767
20
-118.369
11
146.797
21
-118.366
0
LINE
8
BLACK
6
CONTINUOUS
10
146.797
20
-118.366
11
146.883
21
-118.326
0
LINE
8
BLACK
6
CONTINUOUS
10
146.883
20
-118.326
11
146.955
21
-118.252
0
LINE
8
BLACK
6
CONTINUOUS
10
146.955
20
-118.252
11
146.995
21
-118.16
0
LINE
8
BLACK
6
CONTINUOUS
10
146.995
20
-118.16
11
147.001
21
-118.105
0
LINE
8
BLACK
6
CONTINUOUS
10
147.001
20
-118.105
11
146.993
21
-118.01
0
LINE
8
BLACK
6
CONTINUOUS
10
146.993
20
-118.01
11
146.959
21
-117.9
0
LINE
8
BLACK
6
CONTINUOUS
10
146.959
20
-117.9
11
146.895
21
-117.765
0
LINE
8
BLACK
6
CONTINUOUS
10
146.895
20
-117.765
11
146.799
21
-117.597
0
LINE
8
BLACK
6
CONTINUOUS
10
146.799
20
-117.597
11
146.773
21
-117.552
0
LINE
8
BLACK
6
CONTINUOUS
10
146.773
20
-117.552
11
146.647
21
-117.316
0
LINE
8
BLACK
6
CONTINUOUS
10
146.647
20
-117.316
11
146.529
21
-117.062
0
LINE
8
BLACK
6
CONTINUOUS
10
146.529
20
-117.062
11
146.428
21
-116.81
0
LINE
8
BLACK
6
CONTINUOUS
10
146.428
20
-116.81
11
146.354
21
-116.581
0
LINE
8
BLACK
6
CONTINUOUS
10
146.354
20
-116.581
11
146.351
21
-116.57
0
LINE
8
BLACK
6
CONTINUOUS
10
146.351
20
-116.57
11
146.319
21
-116.468
0
LINE
8
BLACK
6
CONTINUOUS
10
146.319
20
-116.468
11
146.29
21
-116.386
0
LINE
8
BLACK
6
CONTINUOUS
10
146.29
20
-116.386
11
146.268
21
-116.342
0
LINE
8
BLACK
6
CONTINUOUS
10
146.268
20
-116.342
11
146.246
21
-116.314
0
LINE
8
BLACK
6
CONTINUOUS
10
146.246
20
-116.314
11
146.246
21
-116.303
0
LINE
8
BLACK
6
CONTINUOUS
10
146.246
20
-116.303
11
146.274
21
-116.321
0
LINE
8
BLACK
6
CONTINUOUS
10
146.274
20
-116.321
11
146.324
21
-116.364
0
LINE
8
BLACK
6
CONTINUOUS
10
146.324
20
-116.364
11
146.388
21
-116.427
0
LINE
8
BLACK
6
CONTINUOUS
10
146.388
20
-116.427
11
146.443
21
-116.479
0
LINE
8
BLACK
6
CONTINUOUS
10
146.443
20
-116.479
11
146.479
21
-116.505
0
LINE
8
BLACK
6
CONTINUOUS
10
146.479
20
-116.505
11
146.484
21
-116.49
0
LINE
8
BLACK
6
CONTINUOUS
10
146.484
20
-116.49
11
146.475
21
-116.464
0
LINE
8
BLACK
6
CONTINUOUS
10
146.475
20
-116.464
11
146.412
21
-116.257
0
LINE
8
BLACK
6
CONTINUOUS
10
146.412
20
-116.257
11
146.369
21
-116.052
0
LINE
8
BLACK
6
CONTINUOUS
10
146.369
20
-116.052
11
146.35
21
-115.873
0
LINE
8
BLACK
6
CONTINUOUS
10
146.35
20
-115.873
11
146.344
21
-115.68
0
LINE
8
BLACK
6
CONTINUOUS
10
146.344
20
-115.68
11
146.499
21
-115.631
0
LINE
8
BLACK
6
CONTINUOUS
10
146.499
20
-115.631
11
146.571
21
-115.606
0
LINE
8
BLACK
6
CONTINUOUS
10
146.571
20
-115.606
11
146.798
21
-115.505
0
LINE
8
BLACK
6
CONTINUOUS
10
146.798
20
-115.505
11
146.98
21
-115.383
0
LINE
8
BLACK
6
CONTINUOUS
10
146.98
20
-115.383
11
147.073
21
-115.305
0
LINE
8
BLACK
6
CONTINUOUS
10
147.073
20
-115.305
11
147.059
21
-115.382
0
LINE
8
BLACK
6
CONTINUOUS
10
147.059
20
-115.382
11
147.053
21
-115.435
0
LINE
8
BLACK
6
CONTINUOUS
10
147.053
20
-115.435
11
147.062
21
-115.459
0
LINE
8
BLACK
6
CONTINUOUS
10
147.062
20
-115.459
11
147.064
21
-115.459
0
LINE
8
BLACK
6
CONTINUOUS
10
147.064
20
-115.459
11
147.102
21
-115.435
0
LINE
8
BLACK
6
CONTINUOUS
10
147.102
20
-115.435
11
147.163
21
-115.379
0
LINE
8
BLACK
6
CONTINUOUS
10
147.163
20
-115.379
11
147.236
21
-115.303
0
LINE
8
BLACK
6
CONTINUOUS
10
147.236
20
-115.303
11
147.311
21
-115.218
0
LINE
8
BLACK
6
CONTINUOUS
10
147.311
20
-115.218
11
147.377
21
-115.137
0
LINE
8
BLACK
6
CONTINUOUS
10
147.377
20
-115.137
11
147.424
21
-115.069
0
LINE
8
BLACK
6
CONTINUOUS
10
147.424
20
-115.069
11
147.465
21
-114.989
0
LINE
8
BLACK
6
CONTINUOUS
10
147.465
20
-114.989
11
147.514
21
-114.872
0
LINE
8
BLACK
6
CONTINUOUS
10
147.514
20
-114.872
11
147.557
21
-114.752
0
LINE
8
BLACK
6
CONTINUOUS
10
147.557
20
-114.752
11
147.576
21
-114.694
0
LINE
8
BLACK
6
CONTINUOUS
10
147.576
20
-114.694
11
147.607
21
-114.616
0
LINE
8
BLACK
6
CONTINUOUS
10
147.607
20
-114.616
11
147.631
21
-114.584
0
LINE
8
BLACK
6
CONTINUOUS
10
147.631
20
-114.584
11
147.653
21
-114.589
0
LINE
8
BLACK
6
CONTINUOUS
10
147.653
20
-114.589
11
147.667
21
-114.595
0
LINE
8
BLACK
6
CONTINUOUS
10
147.667
20
-114.595
11
147.678
21
-114.569
0
LINE
8
BLACK
6
CONTINUOUS
10
147.678
20
-114.569
11
147.684
21
-114.5
0
LINE
8
BLACK
6
CONTINUOUS
10
147.684
20
-114.5
11
147.686
21
-114.382
0
LINE
8
BLACK
6
CONTINUOUS
10
147.686
20
-114.382
11
147.684
21
-114.307
0
LINE
8
BLACK
6
CONTINUOUS
10
147.684
20
-114.307
11
147.653
21
-114.066
0
LINE
8
BLACK
6
CONTINUOUS
10
147.653
20
-114.066
11
147.58
21
-113.853
0
LINE
8
BLACK
6
CONTINUOUS
10
147.58
20
-113.853
11
147.461
21
-113.659
0
LINE
8
BLACK
6
CONTINUOUS
10
147.461
20
-113.659
11
147.409
21
-113.586
0
LINE
8
BLACK
6
CONTINUOUS
10
147.409
20
-113.586
11
147.386
21
-113.539
0
LINE
8
BLACK
6
CONTINUOUS
10
147.386
20
-113.539
11
147.398
21
-113.53
0
LINE
8
BLACK
6
CONTINUOUS
10
147.398
20
-113.53
11
147.419
21
-113.535
0
LINE
8
BLACK
6
CONTINUOUS
10
147.419
20
-113.535
11
147.429
21
-113.526
0
LINE
8
BLACK
6
CONTINUOUS
10
147.429
20
-113.526
11
147.404
21
-113.496
0
LINE
8
BLACK
6
CONTINUOUS
10
147.404
20
-113.496
11
147.354
21
-113.452
0
LINE
8
BLACK
6
CONTINUOUS
10
147.354
20
-113.452
11
147.287
21
-113.402
0
LINE
8
BLACK
6
CONTINUOUS
10
147.287
20
-113.402
11
147.212
21
-113.352
0
LINE
8
BLACK
6
CONTINUOUS
10
147.212
20
-113.352
11
147.136
21
-113.31
0
LINE
8
BLACK
6
CONTINUOUS
10
147.136
20
-113.31
11
146.974
21
-113.243
0
LINE
8
BLACK
6
CONTINUOUS
10
146.974
20
-113.243
11
146.787
21
-113.197
0
LINE
8
BLACK
6
CONTINUOUS
10
146.787
20
-113.197
11
146.578
21
-113.176
0
LINE
8
BLACK
6
CONTINUOUS
10
146.578
20
-113.176
11
146.33
21
-113.179
0
LINE
8
BLACK
6
CONTINUOUS
10
146.33
20
-113.179
11
146.294
21
-113.18
0
LINE
8
BLACK
6
CONTINUOUS
10
146.294
20
-113.18
11
146.176
21
-113.185
0
LINE
8
BLACK
6
CONTINUOUS
10
146.176
20
-113.185
11
146.107
21
-113.186
0
LINE
8
BLACK
6
CONTINUOUS
10
146.107
20
-113.186
11
146.077
21
-113.181
0
LINE
8
BLACK
6
CONTINUOUS
10
146.077
20
-113.181
11
146.082
21
-113.17
0
LINE
8
BLACK
6
CONTINUOUS
10
146.082
20
-113.17
11
146.113
21
-113.151
0
LINE
8
BLACK
6
CONTINUOUS
10
146.113
20
-113.151
11
146.116
21
-113.15
0
LINE
8
BLACK
6
CONTINUOUS
10
146.116
20
-113.15
11
146.172
21
-113.115
0
LINE
8
BLACK
6
CONTINUOUS
10
146.172
20
-113.115
11
146.176
21
-113.099
0
LINE
8
BLACK
6
CONTINUOUS
10
146.176
20
-113.099
11
146.129
21
-113.102
0
LINE
8
BLACK
6
CONTINUOUS
10
146.129
20
-113.102
11
146.032
21
-113.125
0
LINE
8
BLACK
6
CONTINUOUS
10
146.032
20
-113.125
11
145.966
21
-113.143
0
LINE
8
BLACK
6
CONTINUOUS
10
145.966
20
-113.143
11
145.68
21
-113.26
0
LINE
8
BLACK
6
CONTINUOUS
10
145.68
20
-113.26
11
145.4
21
-113.432
0
LINE
8
BLACK
6
CONTINUOUS
10
145.4
20
-113.432
11
145.124
21
-113.659
0
LINE
8
BLACK
6
CONTINUOUS
10
145.124
20
-113.659
11
144.949
21
-113.823
0
LINE
8
BLACK
6
CONTINUOUS
10
144.949
20
-113.823
11
144.799
21
-113.678
0
LINE
8
BLACK
6
CONTINUOUS
10
144.799
20
-113.678
11
144.616
21
-113.52
0
LINE
8
BLACK
6
CONTINUOUS
10
144.616
20
-113.52
11
144.369
21
-113.349
0
LINE
8
BLACK
6
CONTINUOUS
10
144.369
20
-113.349
11
144.111
21
-113.215
0
LINE
8
BLACK
6
CONTINUOUS
10
144.111
20
-113.215
11
143.859
21
-113.125
0
LINE
8
BLACK
6
CONTINUOUS
10
143.859
20
-113.125
11
143.855
21
-113.124
0
LINE
8
BLACK
6
CONTINUOUS
10
143.855
20
-113.124
11
143.76
21
-113.102
0
LINE
8
BLACK
6
CONTINUOUS
10
143.76
20
-113.102
11
143.714
21
-113.1
0
LINE
8
BLACK
6
CONTINUOUS
10
143.714
20
-113.1
11
143.719
21
-113.116
0
LINE
8
BLACK
6
CONTINUOUS
10
143.719
20
-113.116
11
143.777
21
-113.151
0
LINE
8
BLACK
6
CONTINUOUS
10
143.777
20
-113.151
11
143.787
21
-113.156
0
LINE
8
BLACK
6
CONTINUOUS
10
143.787
20
-113.156
11
143.812
21
-113.173
0
LINE
8
BLACK
6
CONTINUOUS
10
143.812
20
-113.173
11
143.809
21
-113.183
0
LINE
8
BLACK
6
CONTINUOUS
10
143.809
20
-113.183
11
143.771
21
-113.186
0
LINE
8
BLACK
6
CONTINUOUS
10
143.771
20
-113.186
11
143.691
21
-113.184
0
LINE
8
BLACK
6
CONTINUOUS
10
143.691
20
-113.184
11
143.561
21
-113.179
0
LINE
8
BLACK
6
CONTINUOUS
10
143.561
20
-113.179
11
143.332
21
-113.175
0
LINE
8
BLACK
6
CONTINUOUS
10
143.332
20
-113.175
11
143.12
21
-113.194
0
LINE
8
BLACK
6
CONTINUOUS
10
143.12
20
-113.194
11
142.932
21
-113.238
0
LINE
8
BLACK
6
CONTINUOUS
10
142.932
20
-113.238
11
142.755
21
-113.31
0
LINE
8
BLACK
6
CONTINUOUS
10
142.755
20
-113.31
11
142.714
21
-113.332
0
LINE
8
BLACK
6
CONTINUOUS
10
142.714
20
-113.332
11
142.636
21
-113.379
0
LINE
8
BLACK
6
CONTINUOUS
10
142.636
20
-113.379
11
142.564
21
-113.43
0
LINE
8
BLACK
6
CONTINUOUS
10
142.564
20
-113.43
11
142.506
21
-113.477
0
LINE
8
BLACK
6
CONTINUOUS
10
142.506
20
-113.477
11
142.469
21
-113.514
0
LINE
8
BLACK
6
CONTINUOUS
10
142.469
20
-113.514
11
142.464
21
-113.533
0
LINE
8
BLACK
6
CONTINUOUS
10
142.464
20
-113.533
11
142.497
21
-113.528
0
LINE
8
BLACK
6
CONTINUOUS
10
142.497
20
-113.528
11
142.519
21
-113.527
0
LINE
8
BLACK
6
CONTINUOUS
10
142.519
20
-113.527
11
142.508
21
-113.555
0
LINE
8
BLACK
6
CONTINUOUS
10
142.508
20
-113.555
11
142.492
21
-113.578
0
LINE
8
BLACK
6
CONTINUOUS
10
142.492
20
-113.578
11
142.461
21
-113.62
0
LINE
8
BLACK
6
CONTINUOUS
10
142.461
20
-113.62
11
142.377
21
-113.737
0
LINE
8
BLACK
6
CONTINUOUS
10
142.377
20
-113.737
11
142.287
21
-113.915
0
LINE
8
BLACK
6
CONTINUOUS
10
142.287
20
-113.915
11
142.233
21
-114.111
0
LINE
8
BLACK
6
CONTINUOUS
10
142.233
20
-114.111
11
142.209
21
-114.342
0
LINE
8
BLACK
6
CONTINUOUS
10
142.209
20
-114.342
11
142.205
21
-114.451
0
LINE
8
BLACK
6
CONTINUOUS
10
142.205
20
-114.451
11
142.205
21
-114.539
0
LINE
8
BLACK
6
CONTINUOUS
10
142.205
20
-114.539
11
142.209
21
-114.585
0
LINE
8
BLACK
6
CONTINUOUS
10
142.209
20
-114.585
11
142.221
21
-114.599
0
LINE
8
BLACK
6
CONTINUOUS
10
142.221
20
-114.599
11
142.24
21
-114.589
0
LINE
8
BLACK
6
CONTINUOUS
10
142.24
20
-114.589
11
142.249
21
-114.582
0
LINE
8
BLACK
6
CONTINUOUS
10
142.249
20
-114.582
11
142.273
21
-114.577
0
LINE
8
BLACK
6
CONTINUOUS
10
142.273
20
-114.577
11
142.293
21
-114.609
0
LINE
8
BLACK
6
CONTINUOUS
10
142.293
20
-114.609
11
142.316
21
-114.687
0
LINE
8
BLACK
6
CONTINUOUS
10
142.316
20
-114.687
11
142.357
21
-114.82
0
LINE
8
BLACK
6
CONTINUOUS
10
142.357
20
-114.82
11
142.477
21
-115.067
0
LINE
8
BLACK
6
CONTINUOUS
10
142.477
20
-115.067
11
142.648
21
-115.291
0
LINE
8
BLACK
6
CONTINUOUS
10
142.648
20
-115.291
11
142.671
21
-115.314
0
LINE
8
BLACK
6
CONTINUOUS
10
142.671
20
-115.314
11
142.742
21
-115.388
0
LINE
8
BLACK
6
CONTINUOUS
10
142.742
20
-115.388
11
142.798
21
-115.44
0
LINE
8
BLACK
6
CONTINUOUS
10
142.798
20
-115.44
11
142.825
21
-115.459
0
LINE
8
BLACK
6
CONTINUOUS
10
142.825
20
-115.459
11
142.836
21
-115.437
0
LINE
8
BLACK
6
CONTINUOUS
10
142.836
20
-115.437
11
142.832
21
-115.382
0
LINE
8
BLACK
6
CONTINUOUS
10
142.832
20
-115.382
11
142.817
21
-115.305
0
LINE
8
BLACK
6
CONTINUOUS
10
142.817
20
-115.305
11
142.914
21
-115.386
0
LINE
8
BLACK
6
CONTINUOUS
10
142.914
20
-115.386
11
142.945
21
-115.411
0
LINE
8
BLACK
6
CONTINUOUS
10
142.945
20
-115.411
11
143.063
21
-115.487
0
LINE
8
BLACK
6
CONTINUOUS
10
143.063
20
-115.487
11
143.203
21
-115.558
0
LINE
8
BLACK
6
CONTINUOUS
10
143.203
20
-115.558
11
143.342
21
-115.615
0
LINE
8
BLACK
6
CONTINUOUS
10
143.342
20
-115.615
11
143.459
21
-115.647
0
LINE
8
BLACK
6
CONTINUOUS
10
143.459
20
-115.647
11
143.569
21
-115.665
0
LINE
8
BLACK
6
CONTINUOUS
10
143.569
20
-115.665
11
143.552
21
-115.88
0
LINE
8
BLACK
6
CONTINUOUS
10
143.552
20
-115.88
11
143.546
21
-115.941
0
LINE
8
BLACK
6
CONTINUOUS
10
143.546
20
-115.941
11
143.495
21
-116.209
0
LINE
8
BLACK
6
CONTINUOUS
10
143.495
20
-116.209
11
143.405
21
-116.49
0
LINE
8
BLACK
6
CONTINUOUS
10
143.405
20
-116.49
11
143.407
21
-116.506
0
LINE
8
BLACK
6
CONTINUOUS
10
143.407
20
-116.506
11
143.443
21
-116.485
0
LINE
8
BLACK
6
CONTINUOUS
10
143.443
20
-116.485
11
143.51
21
-116.425
0
LINE
8
BLACK
6
CONTINUOUS
10
143.51
20
-116.425
11
143.637
21
-116.304
0
LINE
8
BLACK
6
CONTINUOUS
10
143.637
20
-116.304
11
143.554
21
-116.547
0
LINE
8
BLACK
6
CONTINUOUS
10
143.554
20
-116.547
11
143.519
21
-116.651
0
LINE
8
BLACK
6
CONTINUOUS
10
143.519
20
-116.651
11
143.498
21
-116.713
0
LINE
8
BLACK
6
CONTINUOUS
10
148.484
20
-114.696
11
148.5
21
-114.837
0
LINE
8
BLACK
6
CONTINUOUS
10
148.5
20
-114.837
11
148.521
21
-115.077
0
LINE
8
BLACK
6
CONTINUOUS
10
148.521
20
-115.077
11
148.748
21
-114.851
0
LINE
8
BLACK
6
CONTINUOUS
10
148.748
20
-114.851
11
148.751
21
-114.848
0
LINE
8
BLACK
6
CONTINUOUS
10
148.751
20
-114.848
11
148.897
21
-114.693
0
LINE
8
BLACK
6
CONTINUOUS
10
148.897
20
-114.693
11
149
21
-114.558
0
LINE
8
BLACK
6
CONTINUOUS
10
149
20
-114.558
11
149.066
21
-114.431
0
LINE
8
BLACK
6
CONTINUOUS
10
149.066
20
-114.431
11
149.102
21
-114.301
0
LINE
8
BLACK
6
CONTINUOUS
10
149.102
20
-114.301
11
149.111
21
-114.159
0
LINE
8
BLACK
6
CONTINUOUS
10
149.111
20
-114.159
11
149.11
21
-114.102
0
LINE
8
BLACK
6
CONTINUOUS
10
149.11
20
-114.102
11
149.088
21
-113.958
0
LINE
8
BLACK
6
CONTINUOUS
10
149.088
20
-113.958
11
149.033
21
-113.838
0
LINE
8
BLACK
6
CONTINUOUS
10
149.033
20
-113.838
11
148.939
21
-113.724
0
LINE
8
BLACK
6
CONTINUOUS
10
148.939
20
-113.724
11
148.875
21
-113.668
0
LINE
8
BLACK
6
CONTINUOUS
10
148.875
20
-113.668
11
148.716
21
-113.579
0
LINE
8
BLACK
6
CONTINUOUS
10
148.716
20
-113.579
11
148.536
21
-113.541
0
LINE
8
BLACK
6
CONTINUOUS
10
148.536
20
-113.541
11
148.339
21
-113.555
0
LINE
8
BLACK
6
CONTINUOUS
10
148.339
20
-113.555
11
148.338
21
-113.556
0
LINE
8
BLACK
6
CONTINUOUS
10
148.338
20
-113.556
11
148.288
21
-113.57
0
LINE
8
BLACK
6
CONTINUOUS
10
148.288
20
-113.57
11
148.261
21
-113.597
0
LINE
8
BLACK
6
CONTINUOUS
10
148.261
20
-113.597
11
148.256
21
-113.645
0
LINE
8
BLACK
6
CONTINUOUS
10
148.256
20
-113.645
11
148.272
21
-113.725
0
LINE
8
BLACK
6
CONTINUOUS
10
148.272
20
-113.725
11
148.307
21
-113.848
0
LINE
8
BLACK
6
CONTINUOUS
10
148.307
20
-113.848
11
148.32
21
-113.891
0
LINE
8
BLACK
6
CONTINUOUS
10
148.32
20
-113.891
11
148.354
21
-114.02
0
LINE
8
BLACK
6
CONTINUOUS
10
148.354
20
-114.02
11
148.39
21
-114.169
0
LINE
8
BLACK
6
CONTINUOUS
10
148.39
20
-114.169
11
148.422
21
-114.315
0
LINE
8
BLACK
6
CONTINUOUS
10
148.422
20
-114.315
11
148.432
21
-114.366
0
LINE
8
BLACK
6
CONTINUOUS
10
148.432
20
-114.366
11
148.434
21
-114.382
0
LINE
8
BLACK
6
CONTINUOUS
10
148.434
20
-114.382
11
148.46
21
-114.53
0
LINE
8
BLACK
6
CONTINUOUS
10
148.46
20
-114.53
11
148.484
21
-114.696
0
LINE
8
BLACK
6
CONTINUOUS
10
141.548
20
-113.558
11
141.459
21
-113.546
0
LINE
8
BLACK
6
CONTINUOUS
10
141.459
20
-113.546
11
141.335
21
-113.545
0
LINE
8
BLACK
6
CONTINUOUS
10
141.335
20
-113.545
11
141.161
21
-113.587
0
LINE
8
BLACK
6
CONTINUOUS
10
141.161
20
-113.587
11
141.008
21
-113.675
0
LINE
8
BLACK
6
CONTINUOUS
10
141.008
20
-113.675
11
140.886
21
-113.804
0
LINE
8
BLACK
6
CONTINUOUS
10
140.886
20
-113.804
11
140.804
21
-113.968
0
LINE
8
BLACK
6
CONTINUOUS
10
140.804
20
-113.968
11
140.79
21
-114.014
0
LINE
8
BLACK
6
CONTINUOUS
10
140.79
20
-114.014
11
140.771
21
-114.193
0
LINE
8
BLACK
6
CONTINUOUS
10
140.771
20
-114.193
11
140.805
21
-114.373
0
LINE
8
BLACK
6
CONTINUOUS
10
140.805
20
-114.373
11
140.893
21
-114.557
0
LINE
8
BLACK
6
CONTINUOUS
10
140.893
20
-114.557
11
141.036
21
-114.748
0
LINE
8
BLACK
6
CONTINUOUS
10
141.036
20
-114.748
11
141.098
21
-114.815
0
LINE
8
BLACK
6
CONTINUOUS
10
141.098
20
-114.815
11
141.191
21
-114.907
0
LINE
8
BLACK
6
CONTINUOUS
10
141.191
20
-114.907
11
141.273
21
-114.979
0
LINE
8
BLACK
6
CONTINUOUS
10
141.273
20
-114.979
11
141.385
21
-115.068
0
LINE
8
BLACK
6
CONTINUOUS
10
141.385
20
-115.068
11
141.386
21
-114.946
0
LINE
8
BLACK
6
CONTINUOUS
10
141.386
20
-114.946
11
141.386
21
-114.93
0
LINE
8
BLACK
6
CONTINUOUS
10
141.386
20
-114.93
11
141.397
21
-114.761
0
LINE
8
BLACK
6
CONTINUOUS
10
141.397
20
-114.761
11
141.427
21
-114.555
0
LINE
8
BLACK
6
CONTINUOUS
10
141.427
20
-114.555
11
141.476
21
-114.307
0
LINE
8
BLACK
6
CONTINUOUS
10
141.476
20
-114.307
11
141.545
21
-114.01
0
LINE
8
BLACK
6
CONTINUOUS
10
141.545
20
-114.01
11
141.564
21
-113.933
0
LINE
8
BLACK
6
CONTINUOUS
10
141.564
20
-113.933
11
141.595
21
-113.797
0
LINE
8
BLACK
6
CONTINUOUS
10
141.595
20
-113.797
11
141.618
21
-113.685
0
LINE
8
BLACK
6
CONTINUOUS
10
141.618
20
-113.685
11
141.632
21
-113.609
0
LINE
8
BLACK
6
CONTINUOUS
10
141.632
20
-113.609
11
141.633
21
-113.578
0
LINE
8
BLACK
6
CONTINUOUS
10
141.633
20
-113.578
11
141.612
21
-113.57
0
LINE
8
BLACK
6
CONTINUOUS
10
141.612
20
-113.57
11
141.548
21
-113.558
0
LINE
8
BLACK
6
CONTINUOUS
10
144.649
20
-115.955
11
144.718
21
-116.021
0
LINE
8
BLACK
6
CONTINUOUS
10
144.718
20
-116.021
11
144.78
21
-116.118
0
LINE
8
BLACK
6
CONTINUOUS
10
144.78
20
-116.118
11
144.802
21
-116.165
0
LINE
8
BLACK
6
CONTINUOUS
10
144.802
20
-116.165
11
144.822
21
-116.226
0
LINE
8
BLACK
6
CONTINUOUS
10
144.822
20
-116.226
11
144.818
21
-116.278
0
LINE
8
BLACK
6
CONTINUOUS
10
144.818
20
-116.278
11
144.791
21
-116.35
0
LINE
8
BLACK
6
CONTINUOUS
10
144.791
20
-116.35
11
144.744
21
-116.462
0
LINE
8
BLACK
6
CONTINUOUS
10
144.744
20
-116.462
11
144.705
21
-116.372
0
LINE
8
BLACK
6
CONTINUOUS
10
144.705
20
-116.372
11
144.653
21
-116.296
0
LINE
8
BLACK
6
CONTINUOUS
10
144.653
20
-116.296
11
144.554
21
-116.224
0
LINE
8
BLACK
6
CONTINUOUS
10
144.554
20
-116.224
11
144.496
21
-116.192
0
LINE
8
BLACK
6
CONTINUOUS
10
144.496
20
-116.192
11
144.436
21
-116.149
0
LINE
8
BLACK
6
CONTINUOUS
10
144.436
20
-116.149
11
144.417
21
-116.12
0
LINE
8
BLACK
6
CONTINUOUS
10
144.417
20
-116.12
11
144.443
21
-116.109
0
LINE
8
BLACK
6
CONTINUOUS
10
144.443
20
-116.109
11
144.468
21
-116.092
0
LINE
8
BLACK
6
CONTINUOUS
10
144.468
20
-116.092
11
144.48
21
-116.035
0
LINE
8
BLACK
6
CONTINUOUS
10
144.48
20
-116.035
11
144.489
21
-115.971
0
LINE
8
BLACK
6
CONTINUOUS
10
144.489
20
-115.971
11
144.526
21
-115.927
0
LINE
8
BLACK
6
CONTINUOUS
10
144.526
20
-115.927
11
144.582
21
-115.923
0
LINE
8
BLACK
6
CONTINUOUS
10
144.582
20
-115.923
11
144.649
21
-115.955
0
LINE
8
BLACK
6
CONTINUOUS
10
145.389
20
-115.944
11
145.411
21
-115.977
0
LINE
8
BLACK
6
CONTINUOUS
10
145.411
20
-115.977
11
145.417
21
-116.046
0
LINE
8
BLACK
6
CONTINUOUS
10
145.417
20
-116.046
11
145.414
21
-116.065
0
LINE
8
BLACK
6
CONTINUOUS
10
145.414
20
-116.065
11
145.42
21
-116.1
0
LINE
8
BLACK
6
CONTINUOUS
10
145.42
20
-116.1
11
145.459
21
-116.099
0
LINE
8
BLACK
6
CONTINUOUS
10
145.459
20
-116.099
11
145.485
21
-116.095
0
LINE
8
BLACK
6
CONTINUOUS
10
145.485
20
-116.095
11
145.494
21
-116.108
0
LINE
8
BLACK
6
CONTINUOUS
10
145.494
20
-116.108
11
145.467
21
-116.139
0
LINE
8
BLACK
6
CONTINUOUS
10
145.467
20
-116.139
11
145.411
21
-116.181
0
LINE
8
BLACK
6
CONTINUOUS
10
145.411
20
-116.181
11
145.334
21
-116.225
0
LINE
8
BLACK
6
CONTINUOUS
10
145.334
20
-116.225
11
145.252
21
-116.282
0
LINE
8
BLACK
6
CONTINUOUS
10
145.252
20
-116.282
11
145.194
21
-116.366
0
LINE
8
BLACK
6
CONTINUOUS
10
145.194
20
-116.366
11
145.182
21
-116.397
0
LINE
8
BLACK
6
CONTINUOUS
10
145.182
20
-116.397
11
145.157
21
-116.429
0
LINE
8
BLACK
6
CONTINUOUS
10
145.157
20
-116.429
11
145.127
21
-116.418
0
LINE
8
BLACK
6
CONTINUOUS
10
145.127
20
-116.418
11
145.126
21
-116.417
0
LINE
8
BLACK
6
CONTINUOUS
10
145.126
20
-116.417
11
145.094
21
-116.367
0
LINE
8
BLACK
6
CONTINUOUS
10
145.094
20
-116.367
11
145.071
21
-116.293
0
LINE
8
BLACK
6
CONTINUOUS
10
145.071
20
-116.293
11
145.068
21
-116.263
0
LINE
8
BLACK
6
CONTINUOUS
10
145.068
20
-116.263
11
145.083
21
-116.174
0
LINE
8
BLACK
6
CONTINUOUS
10
145.083
20
-116.174
11
145.127
21
-116.085
0
LINE
8
BLACK
6
CONTINUOUS
10
145.127
20
-116.085
11
145.189
21
-116.007
0
LINE
8
BLACK
6
CONTINUOUS
10
145.189
20
-116.007
11
145.259
21
-115.951
0
LINE
8
BLACK
6
CONTINUOUS
10
145.259
20
-115.951
11
145.329
21
-115.926
0
LINE
8
BLACK
6
CONTINUOUS
10
145.329
20
-115.926
11
145.389
21
-115.944
0
LINE
8
BLACK
6
CONTINUOUS
10
145.316
20
-115.423
11
145.448
21
-115.501
0
LINE
8
BLACK
6
CONTINUOUS
10
145.448
20
-115.501
11
145.476
21
-115.529
0
LINE
8
BLACK
6
CONTINUOUS
10
145.476
20
-115.529
11
145.535
21
-115.605
0
LINE
8
BLACK
6
CONTINUOUS
10
145.535
20
-115.605
11
145.596
21
-115.701
0
LINE
8
BLACK
6
CONTINUOUS
10
145.596
20
-115.701
11
145.652
21
-115.799
0
LINE
8
BLACK
6
CONTINUOUS
10
145.652
20
-115.799
11
145.692
21
-115.886
0
LINE
8
BLACK
6
CONTINUOUS
10
145.692
20
-115.886
11
145.708
21
-115.943
0
LINE
8
BLACK
6
CONTINUOUS
10
145.708
20
-115.943
11
145.698
21
-115.945
0
LINE
8
BLACK
6
CONTINUOUS
10
145.698
20
-115.945
11
145.669
21
-115.908
0
LINE
8
BLACK
6
CONTINUOUS
10
145.669
20
-115.908
11
145.626
21
-115.839
0
LINE
8
BLACK
6
CONTINUOUS
10
145.626
20
-115.839
11
145.594
21
-115.788
0
LINE
8
BLACK
6
CONTINUOUS
10
145.594
20
-115.788
11
145.511
21
-115.68
0
LINE
8
BLACK
6
CONTINUOUS
10
145.511
20
-115.68
11
145.425
21
-115.589
0
LINE
8
BLACK
6
CONTINUOUS
10
145.425
20
-115.589
11
145.362
21
-115.534
0
LINE
8
BLACK
6
CONTINUOUS
10
145.362
20
-115.534
11
145.306
21
-115.501
0
LINE
8
BLACK
6
CONTINUOUS
10
145.306
20
-115.501
11
145.247
21
-115.492
0
LINE
8
BLACK
6
CONTINUOUS
10
145.247
20
-115.492
11
145.161
21
-115.499
0
LINE
8
BLACK
6
CONTINUOUS
10
145.161
20
-115.499
11
145.088
21
-115.507
0
LINE
8
BLACK
6
CONTINUOUS
10
145.088
20
-115.507
11
144.971
21
-115.515
0
LINE
8
BLACK
6
CONTINUOUS
10
144.971
20
-115.515
11
144.862
21
-115.512
0
LINE
8
BLACK
6
CONTINUOUS
10
144.862
20
-115.512
11
144.729
21
-115.499
0
LINE
8
BLACK
6
CONTINUOUS
10
144.729
20
-115.499
11
144.654
21
-115.492
0
LINE
8
BLACK
6
CONTINUOUS
10
144.654
20
-115.492
11
144.592
21
-115.498
0
LINE
8
BLACK
6
CONTINUOUS
10
144.592
20
-115.498
11
144.537
21
-115.528
0
LINE
8
BLACK
6
CONTINUOUS
10
144.537
20
-115.528
11
144.466
21
-115.588
0
LINE
8
BLACK
6
CONTINUOUS
10
144.466
20
-115.588
11
144.427
21
-115.626
0
LINE
8
BLACK
6
CONTINUOUS
10
144.427
20
-115.626
11
144.343
21
-115.723
0
LINE
8
BLACK
6
CONTINUOUS
10
144.343
20
-115.723
11
144.277
21
-115.817
0
LINE
8
BLACK
6
CONTINUOUS
10
144.277
20
-115.817
11
144.251
21
-115.861
0
LINE
8
BLACK
6
CONTINUOUS
10
144.251
20
-115.861
11
144.214
21
-115.917
0
LINE
8
BLACK
6
CONTINUOUS
10
144.214
20
-115.917
11
144.196
21
-115.939
0
LINE
8
BLACK
6
CONTINUOUS
10
144.196
20
-115.939
11
144.198
21
-115.925
0
LINE
8
BLACK
6
CONTINUOUS
10
144.198
20
-115.925
11
144.217
21
-115.871
0
LINE
8
BLACK
6
CONTINUOUS
10
144.217
20
-115.871
11
144.248
21
-115.792
0
LINE
8
BLACK
6
CONTINUOUS
10
144.248
20
-115.792
11
144.312
21
-115.668
0
LINE
8
BLACK
6
CONTINUOUS
10
144.312
20
-115.668
11
144.421
21
-115.532
0
LINE
8
BLACK
6
CONTINUOUS
10
144.421
20
-115.532
11
144.55
21
-115.44
0
LINE
8
BLACK
6
CONTINUOUS
10
144.55
20
-115.44
11
144.692
21
-115.394
0
LINE
8
BLACK
6
CONTINUOUS
10
144.692
20
-115.394
11
144.839
21
-115.401
0
LINE
8
BLACK
6
CONTINUOUS
10
144.839
20
-115.401
11
144.84
21
-115.401
0
LINE
8
BLACK
6
CONTINUOUS
10
144.84
20
-115.401
11
144.946
21
-115.411
0
LINE
8
BLACK
6
CONTINUOUS
10
144.946
20
-115.411
11
145.051
21
-115.401
0
LINE
8
BLACK
6
CONTINUOUS
10
145.051
20
-115.401
11
145.168
21
-115.391
0
LINE
8
BLACK
6
CONTINUOUS
10
145.168
20
-115.391
11
145.316
21
-115.423
0
LINE
8
BLACK
6
CONTINUOUS
10
147.013
20
-114.312
11
146.953
21
-114.454
0
LINE
8
BLACK
6
CONTINUOUS
10
146.953
20
-114.454
11
146.92
21
-114.499
0
LINE
8
BLACK
6
CONTINUOUS
10
146.92
20
-114.499
11
146.896
21
-114.511
0
LINE
8
BLACK
6
CONTINUOUS
10
146.896
20
-114.511
11
146.874
21
-114.484
0
LINE
8
BLACK
6
CONTINUOUS
10
146.874
20
-114.484
11
146.852
21
-114.458
0
LINE
8
BLACK
6
CONTINUOUS
10
146.852
20
-114.458
11
146.827
21
-114.468
0
LINE
8
BLACK
6
CONTINUOUS
10
146.827
20
-114.468
11
146.785
21
-114.521
0
LINE
8
BLACK
6
CONTINUOUS
10
146.785
20
-114.521
11
146.706
21
-114.607
0
LINE
8
BLACK
6
CONTINUOUS
10
146.706
20
-114.607
11
146.56
21
-114.704
0
LINE
8
BLACK
6
CONTINUOUS
10
146.56
20
-114.704
11
146.373
21
-114.785
0
LINE
8
BLACK
6
CONTINUOUS
10
146.373
20
-114.785
11
146.316
21
-114.806
0
LINE
8
BLACK
6
CONTINUOUS
10
146.316
20
-114.806
11
146.28
21
-114.827
0
LINE
8
BLACK
6
CONTINUOUS
10
146.28
20
-114.827
11
146.293
21
-114.835
0
LINE
8
BLACK
6
CONTINUOUS
10
146.293
20
-114.835
11
146.333
21
-114.843
0
LINE
8
BLACK
6
CONTINUOUS
10
146.333
20
-114.843
11
146.375
21
-114.87
0
LINE
8
BLACK
6
CONTINUOUS
10
146.375
20
-114.87
11
146.377
21
-114.878
0
LINE
8
BLACK
6
CONTINUOUS
10
146.377
20
-114.878
11
146.356
21
-114.89
0
LINE
8
BLACK
6
CONTINUOUS
10
146.356
20
-114.89
11
146.293
21
-114.893
0
LINE
8
BLACK
6
CONTINUOUS
10
146.293
20
-114.893
11
146.18
21
-114.886
0
LINE
8
BLACK
6
CONTINUOUS
10
146.18
20
-114.886
11
146.051
21
-114.87
0
LINE
8
BLACK
6
CONTINUOUS
10
146.051
20
-114.87
11
145.855
21
-114.811
0
LINE
8
BLACK
6
CONTINUOUS
10
145.855
20
-114.811
11
145.698
21
-114.713
0
LINE
8
BLACK
6
CONTINUOUS
10
145.698
20
-114.713
11
145.574
21
-114.573
0
LINE
8
BLACK
6
CONTINUOUS
10
145.574
20
-114.573
11
145.528
21
-114.497
0
LINE
8
BLACK
6
CONTINUOUS
10
145.528
20
-114.497
11
145.492
21
-114.404
0
LINE
8
BLACK
6
CONTINUOUS
10
145.492
20
-114.404
11
145.482
21
-114.302
0
LINE
8
BLACK
6
CONTINUOUS
10
145.482
20
-114.302
11
145.483
21
-114.261
0
LINE
8
BLACK
6
CONTINUOUS
10
145.483
20
-114.261
11
145.518
21
-114.066
0
LINE
8
BLACK
6
CONTINUOUS
10
145.518
20
-114.066
11
145.601
21
-113.898
0
LINE
8
BLACK
6
CONTINUOUS
10
145.601
20
-113.898
11
145.609
21
-113.887
0
LINE
8
BLACK
6
CONTINUOUS
10
145.609
20
-113.887
11
145.649
21
-113.845
0
LINE
8
BLACK
6
CONTINUOUS
10
145.649
20
-113.845
11
145.685
21
-113.82
0
LINE
8
BLACK
6
CONTINUOUS
10
145.685
20
-113.82
11
145.704
21
-113.819
0
LINE
8
BLACK
6
CONTINUOUS
10
145.704
20
-113.819
11
145.694
21
-113.848
0
LINE
8
BLACK
6
CONTINUOUS
10
145.694
20
-113.848
11
145.686
21
-113.866
0
LINE
8
BLACK
6
CONTINUOUS
10
145.686
20
-113.866
11
145.698
21
-113.877
0
LINE
8
BLACK
6
CONTINUOUS
10
145.698
20
-113.877
11
145.733
21
-113.861
0
LINE
8
BLACK
6
CONTINUOUS
10
145.733
20
-113.861
11
145.777
21
-113.822
0
LINE
8
BLACK
6
CONTINUOUS
10
145.777
20
-113.822
11
145.818
21
-113.789
0
LINE
8
BLACK
6
CONTINUOUS
10
145.818
20
-113.789
11
145.904
21
-113.735
0
LINE
8
BLACK
6
CONTINUOUS
10
145.904
20
-113.735
11
146.015
21
-113.677
0
LINE
8
BLACK
6
CONTINUOUS
10
146.015
20
-113.677
11
146.133
21
-113.622
0
LINE
8
BLACK
6
CONTINUOUS
10
146.133
20
-113.622
11
146.243
21
-113.577
0
LINE
8
BLACK
6
CONTINUOUS
10
146.243
20
-113.577
11
146.329
21
-113.551
0
LINE
8
BLACK
6
CONTINUOUS
10
146.329
20
-113.551
11
146.388
21
-113.54
0
LINE
8
BLACK
6
CONTINUOUS
10
146.388
20
-113.54
11
146.408
21
-113.546
0
LINE
8
BLACK
6
CONTINUOUS
10
146.408
20
-113.546
11
146.392
21
-113.573
0
LINE
8
BLACK
6
CONTINUOUS
10
146.392
20
-113.573
11
146.38
21
-113.595
0
LINE
8
BLACK
6
CONTINUOUS
10
146.38
20
-113.595
11
146.394
21
-113.613
0
LINE
8
BLACK
6
CONTINUOUS
10
146.394
20
-113.613
11
146.445
21
-113.631
0
LINE
8
BLACK
6
CONTINUOUS
10
146.445
20
-113.631
11
146.543
21
-113.651
0
LINE
8
BLACK
6
CONTINUOUS
10
146.543
20
-113.651
11
146.651
21
-113.68
0
LINE
8
BLACK
6
CONTINUOUS
10
146.651
20
-113.68
11
146.772
21
-113.728
0
LINE
8
BLACK
6
CONTINUOUS
10
146.772
20
-113.728
11
146.88
21
-113.786
0
LINE
8
BLACK
6
CONTINUOUS
10
146.88
20
-113.786
11
146.962
21
-113.847
0
LINE
8
BLACK
6
CONTINUOUS
10
146.962
20
-113.847
11
147.003
21
-113.902
0
LINE
8
BLACK
6
CONTINUOUS
10
147.003
20
-113.902
11
147.005
21
-113.921
0
LINE
8
BLACK
6
CONTINUOUS
10
147.005
20
-113.921
11
146.983
21
-113.921
0
LINE
8
BLACK
6
CONTINUOUS
10
146.983
20
-113.921
11
146.983
21
-113.921
0
LINE
8
BLACK
6
CONTINUOUS
10
146.983
20
-113.921
11
146.96
21
-113.91
0
LINE
8
BLACK
6
CONTINUOUS
10
146.96
20
-113.91
11
146.954
21
-113.921
0
LINE
8
BLACK
6
CONTINUOUS
10
146.954
20
-113.921
11
146.965
21
-113.964
0
LINE
8
BLACK
6
CONTINUOUS
10
146.965
20
-113.964
11
146.995
21
-114.05
0
LINE
8
BLACK
6
CONTINUOUS
10
146.995
20
-114.05
11
147.019
21
-114.15
0
LINE
8
BLACK
6
CONTINUOUS
10
147.019
20
-114.15
11
147.02
21
-114.158
0
LINE
8
BLACK
6
CONTINUOUS
10
147.02
20
-114.158
11
147.013
21
-114.312
0
LINE
8
BLACK
6
CONTINUOUS
10
146.665
20
-114.046
11
146.527
21
-113.973
0
LINE
8
BLACK
6
CONTINUOUS
10
146.527
20
-113.973
11
146.363
21
-113.923
0
LINE
8
BLACK
6
CONTINUOUS
10
146.363
20
-113.923
11
146.197
21
-113.905
0
LINE
8
BLACK
6
CONTINUOUS
10
146.197
20
-113.905
11
146.135
21
-113.907
0
LINE
8
BLACK
6
CONTINUOUS
10
146.135
20
-113.907
11
146.084
21
-113.922
0
LINE
8
BLACK
6
CONTINUOUS
10
146.084
20
-113.922
11
146.041
21
-113.962
0
LINE
8
BLACK
6
CONTINUOUS
10
146.041
20
-113.962
11
145.988
21
-114.039
0
LINE
8
BLACK
6
CONTINUOUS
10
145.988
20
-114.039
11
145.983
21
-114.046
0
LINE
8
BLACK
6
CONTINUOUS
10
145.983
20
-114.046
11
145.933
21
-114.136
0
LINE
8
BLACK
6
CONTINUOUS
10
145.933
20
-114.136
11
145.913
21
-114.21
0
LINE
8
BLACK
6
CONTINUOUS
10
145.913
20
-114.21
11
145.915
21
-114.295
0
LINE
8
BLACK
6
CONTINUOUS
10
145.915
20
-114.295
11
145.939
21
-114.397
0
LINE
8
BLACK
6
CONTINUOUS
10
145.939
20
-114.397
11
145.992
21
-114.486
0
LINE
8
BLACK
6
CONTINUOUS
10
145.992
20
-114.486
11
146.021
21
-114.511
0
LINE
8
BLACK
6
CONTINUOUS
10
146.021
20
-114.511
11
146.119
21
-114.549
0
LINE
8
BLACK
6
CONTINUOUS
10
146.119
20
-114.549
11
146.238
21
-114.548
0
LINE
8
BLACK
6
CONTINUOUS
10
146.238
20
-114.548
11
146.37
21
-114.513
0
LINE
8
BLACK
6
CONTINUOUS
10
146.37
20
-114.513
11
146.503
21
-114.447
0
LINE
8
BLACK
6
CONTINUOUS
10
146.503
20
-114.447
11
146.627
21
-114.353
0
LINE
8
BLACK
6
CONTINUOUS
10
146.627
20
-114.353
11
146.731
21
-114.235
0
LINE
8
BLACK
6
CONTINUOUS
10
146.731
20
-114.235
11
146.792
21
-114.15
0
LINE
8
BLACK
6
CONTINUOUS
10
146.792
20
-114.15
11
146.695
21
-114.069
0
LINE
8
BLACK
6
CONTINUOUS
10
146.695
20
-114.069
11
146.665
21
-114.046
0
LINE
8
BLACK
6
CONTINUOUS
10
146.352
20
-114.161
11
146.382
21
-114.213
0
LINE
8
BLACK
6
CONTINUOUS
10
146.382
20
-114.213
11
146.379
21
-114.26
0
LINE
8
BLACK
6
CONTINUOUS
10
146.379
20
-114.26
11
146.353
21
-114.304
0
LINE
8
BLACK
6
CONTINUOUS
10
146.353
20
-114.304
11
146.343
21
-114.31
0
LINE
8
BLACK
6
CONTINUOUS
10
146.343
20
-114.31
11
146.277
21
-114.322
0
LINE
8
BLACK
6
CONTINUOUS
10
146.277
20
-114.322
11
146.222
21
-114.299
0
LINE
8
BLACK
6
CONTINUOUS
10
146.222
20
-114.299
11
146.194
21
-114.251
0
LINE
8
BLACK
6
CONTINUOUS
10
146.194
20
-114.251
11
146.207
21
-114.192
0
LINE
8
BLACK
6
CONTINUOUS
10
146.207
20
-114.192
11
146.237
21
-114.161
0
LINE
8
BLACK
6
CONTINUOUS
10
146.237
20
-114.161
11
146.297
21
-114.143
0
LINE
8
BLACK
6
CONTINUOUS
10
146.297
20
-114.143
11
146.352
21
-114.161
0
LINE
8
BLACK
6
CONTINUOUS
10
144.408
20
-114.314
11
144.401
21
-114.417
0
LINE
8
BLACK
6
CONTINUOUS
10
144.401
20
-114.417
11
144.376
21
-114.495
0
LINE
8
BLACK
6
CONTINUOUS
10
144.376
20
-114.495
11
144.326
21
-114.575
0
LINE
8
BLACK
6
CONTINUOUS
10
144.326
20
-114.575
11
144.22
21
-114.694
0
LINE
8
BLACK
6
CONTINUOUS
10
144.22
20
-114.694
11
144.057
21
-114.806
0
LINE
8
BLACK
6
CONTINUOUS
10
144.057
20
-114.806
11
143.857
21
-114.875
0
LINE
8
BLACK
6
CONTINUOUS
10
143.857
20
-114.875
11
143.841
21
-114.878
0
LINE
8
BLACK
6
CONTINUOUS
10
143.841
20
-114.878
11
143.759
21
-114.888
0
LINE
8
BLACK
6
CONTINUOUS
10
143.759
20
-114.888
11
143.67
21
-114.891
0
LINE
8
BLACK
6
CONTINUOUS
10
143.67
20
-114.891
11
143.59
21
-114.888
0
LINE
8
BLACK
6
CONTINUOUS
10
143.59
20
-114.888
11
143.534
21
-114.879
0
LINE
8
BLACK
6
CONTINUOUS
10
143.534
20
-114.879
11
143.518
21
-114.866
0
LINE
8
BLACK
6
CONTINUOUS
10
143.518
20
-114.866
11
143.541
21
-114.848
0
LINE
8
BLACK
6
CONTINUOUS
10
143.541
20
-114.848
11
143.598
21
-114.835
0
LINE
8
BLACK
6
CONTINUOUS
10
143.598
20
-114.835
11
143.616
21
-114.832
0
LINE
8
BLACK
6
CONTINUOUS
10
143.616
20
-114.832
11
143.607
21
-114.819
0
LINE
8
BLACK
6
CONTINUOUS
10
143.607
20
-114.819
11
143.544
21
-114.795
0
LINE
8
BLACK
6
CONTINUOUS
10
143.544
20
-114.795
11
143.502
21
-114.781
0
LINE
8
BLACK
6
CONTINUOUS
10
143.502
20
-114.781
11
143.325
21
-114.699
0
LINE
8
BLACK
6
CONTINUOUS
10
143.325
20
-114.699
11
143.181
21
-114.596
0
LINE
8
BLACK
6
CONTINUOUS
10
143.181
20
-114.596
11
143.083
21
-114.477
0
LINE
8
BLACK
6
CONTINUOUS
10
143.083
20
-114.477
11
143.078
21
-114.469
0
LINE
8
BLACK
6
CONTINUOUS
10
143.078
20
-114.469
11
143.052
21
-114.444
0
LINE
8
BLACK
6
CONTINUOUS
10
143.052
20
-114.444
11
143.027
21
-114.468
0
LINE
8
BLACK
6
CONTINUOUS
10
143.027
20
-114.468
11
143
21
-114.49
0
LINE
8
BLACK
6
CONTINUOUS
10
143
20
-114.49
11
142.958
21
-114.475
0
LINE
8
BLACK
6
CONTINUOUS
10
142.958
20
-114.475
11
142.916
21
-114.417
0
LINE
8
BLACK
6
CONTINUOUS
10
142.916
20
-114.417
11
142.881
21
-114.322
0
LINE
8
BLACK
6
CONTINUOUS
10
142.881
20
-114.322
11
142.868
21
-114.263
0
LINE
8
BLACK
6
CONTINUOUS
10
142.868
20
-114.263
11
142.868
21
-114.176
0
LINE
8
BLACK
6
CONTINUOUS
10
142.868
20
-114.176
11
142.895
21
-114.073
0
LINE
8
BLACK
6
CONTINUOUS
10
142.895
20
-114.073
11
142.897
21
-114.065
0
LINE
8
BLACK
6
CONTINUOUS
10
142.897
20
-114.065
11
142.926
21
-113.974
0
LINE
8
BLACK
6
CONTINUOUS
10
142.926
20
-113.974
11
142.937
21
-113.926
0
LINE
8
BLACK
6
CONTINUOUS
10
142.937
20
-113.926
11
142.93
21
-113.911
0
LINE
8
BLACK
6
CONTINUOUS
10
142.93
20
-113.911
11
142.907
21
-113.921
0
LINE
8
BLACK
6
CONTINUOUS
10
142.907
20
-113.921
11
142.891
21
-113.927
0
LINE
8
BLACK
6
CONTINUOUS
10
142.891
20
-113.927
11
142.888
21
-113.902
0
LINE
8
BLACK
6
CONTINUOUS
10
142.888
20
-113.902
11
142.904
21
-113.874
0
LINE
8
BLACK
6
CONTINUOUS
10
142.904
20
-113.874
11
142.97
21
-113.814
0
LINE
8
BLACK
6
CONTINUOUS
10
142.97
20
-113.814
11
143.071
21
-113.753
0
LINE
8
BLACK
6
CONTINUOUS
10
143.071
20
-113.753
11
143.194
21
-113.699
0
LINE
8
BLACK
6
CONTINUOUS
10
143.194
20
-113.699
11
143.327
21
-113.659
0
LINE
8
BLACK
6
CONTINUOUS
10
143.327
20
-113.659
11
143.425
21
-113.634
0
LINE
8
BLACK
6
CONTINUOUS
10
143.425
20
-113.634
11
143.485
21
-113.613
0
LINE
8
BLACK
6
CONTINUOUS
10
143.485
20
-113.613
11
143.506
21
-113.594
0
LINE
8
BLACK
6
CONTINUOUS
10
143.506
20
-113.594
11
143.497
21
-113.571
0
LINE
8
BLACK
6
CONTINUOUS
10
143.497
20
-113.571
11
143.482
21
-113.548
0
LINE
8
BLACK
6
CONTINUOUS
10
143.482
20
-113.548
11
143.499
21
-113.541
0
LINE
8
BLACK
6
CONTINUOUS
10
143.499
20
-113.541
11
143.561
21
-113.551
0
LINE
8
BLACK
6
CONTINUOUS
10
143.561
20
-113.551
11
143.564
21
-113.552
0
LINE
8
BLACK
6
CONTINUOUS
10
143.564
20
-113.552
11
143.733
21
-113.604
0
LINE
8
BLACK
6
CONTINUOUS
10
143.733
20
-113.604
11
143.908
21
-113.686
0
LINE
8
BLACK
6
CONTINUOUS
10
143.908
20
-113.686
11
144.061
21
-113.784
0
LINE
8
BLACK
6
CONTINUOUS
10
144.061
20
-113.784
11
144.104
21
-113.816
0
LINE
8
BLACK
6
CONTINUOUS
10
144.104
20
-113.816
11
144.175
21
-113.864
0
LINE
8
BLACK
6
CONTINUOUS
10
144.175
20
-113.864
11
144.205
21
-113.874
0
LINE
8
BLACK
6
CONTINUOUS
10
144.205
20
-113.874
11
144.197
21
-113.848
0
LINE
8
BLACK
6
CONTINUOUS
10
144.197
20
-113.848
11
144.189
21
-113.833
0
LINE
8
BLACK
6
CONTINUOUS
10
144.189
20
-113.833
11
144.199
21
-113.82
0
LINE
8
BLACK
6
CONTINUOUS
10
144.199
20
-113.82
11
144.233
21
-113.834
0
LINE
8
BLACK
6
CONTINUOUS
10
144.233
20
-113.834
11
144.276
21
-113.871
0
LINE
8
BLACK
6
CONTINUOUS
10
144.276
20
-113.871
11
144.343
21
-113.976
0
LINE
8
BLACK
6
CONTINUOUS
10
144.343
20
-113.976
11
144.391
21
-114.126
0
LINE
8
BLACK
6
CONTINUOUS
10
144.391
20
-114.126
11
144.407
21
-114.283
0
LINE
8
BLACK
6
CONTINUOUS
10
144.407
20
-114.283
11
144.408
21
-114.295
0
LINE
8
BLACK
6
CONTINUOUS
10
144.408
20
-114.295
11
144.408
21
-114.314
0
LINE
8
BLACK
6
CONTINUOUS
10
143.945
20
-114.114
11
143.892
21
-114.009
0
LINE
8
BLACK
6
CONTINUOUS
10
143.892
20
-114.009
11
143.831
21
-113.934
0
LINE
8
BLACK
6
CONTINUOUS
10
143.831
20
-113.934
11
143.787
21
-113.914
0
LINE
8
BLACK
6
CONTINUOUS
10
143.787
20
-113.914
11
143.693
21
-113.907
0
LINE
8
BLACK
6
CONTINUOUS
10
143.693
20
-113.907
11
143.575
21
-113.921
0
LINE
8
BLACK
6
CONTINUOUS
10
143.575
20
-113.921
11
143.445
21
-113.952
0
LINE
8
BLACK
6
CONTINUOUS
10
143.445
20
-113.952
11
143.32
21
-113.997
0
LINE
8
BLACK
6
CONTINUOUS
10
143.32
20
-113.997
11
143.214
21
-114.052
0
LINE
8
BLACK
6
CONTINUOUS
10
143.214
20
-114.052
11
143.14
21
-114.113
0
LINE
8
BLACK
6
CONTINUOUS
10
143.14
20
-114.113
11
143.123
21
-114.145
0
LINE
8
BLACK
6
CONTINUOUS
10
143.123
20
-114.145
11
143.133
21
-114.188
0
LINE
8
BLACK
6
CONTINUOUS
10
143.133
20
-114.188
11
143.178
21
-114.254
0
LINE
8
BLACK
6
CONTINUOUS
10
143.178
20
-114.254
11
143.25
21
-114.331
0
LINE
8
BLACK
6
CONTINUOUS
10
143.25
20
-114.331
11
143.385
21
-114.436
0
LINE
8
BLACK
6
CONTINUOUS
10
143.385
20
-114.436
11
143.541
21
-114.52
0
LINE
8
BLACK
6
CONTINUOUS
10
143.541
20
-114.52
11
143.547
21
-114.523
0
LINE
8
BLACK
6
CONTINUOUS
10
143.547
20
-114.523
11
143.634
21
-114.546
0
LINE
8
BLACK
6
CONTINUOUS
10
143.634
20
-114.546
11
143.729
21
-114.555
0
LINE
8
BLACK
6
CONTINUOUS
10
143.729
20
-114.555
11
143.801
21
-114.544
0
LINE
8
BLACK
6
CONTINUOUS
10
143.801
20
-114.544
11
143.895
21
-114.488
0
LINE
8
BLACK
6
CONTINUOUS
10
143.895
20
-114.488
11
143.96
21
-114.397
0
LINE
8
BLACK
6
CONTINUOUS
10
143.96
20
-114.397
11
143.985
21
-114.283
0
LINE
8
BLACK
6
CONTINUOUS
10
143.985
20
-114.283
11
143.978
21
-114.225
0
LINE
8
BLACK
6
CONTINUOUS
10
143.978
20
-114.225
11
143.945
21
-114.114
0
LINE
8
BLACK
6
CONTINUOUS
10
143.609
20
-114.147
11
143.67
21
-114.176
0
LINE
8
BLACK
6
CONTINUOUS
10
143.67
20
-114.176
11
143.695
21
-114.227
0
LINE
8
BLACK
6
CONTINUOUS
10
143.695
20
-114.227
11
143.676
21
-114.284
0
LINE
8
BLACK
6
CONTINUOUS
10
143.676
20
-114.284
11
143.651
21
-114.308
0
LINE
8
BLACK
6
CONTINUOUS
10
143.651
20
-114.308
11
143.591
21
-114.326
0
LINE
8
BLACK
6
CONTINUOUS
10
143.591
20
-114.326
11
143.534
21
-114.288
0
LINE
8
BLACK
6
CONTINUOUS
10
143.534
20
-114.288
11
143.528
21
-114.28
0
LINE
8
BLACK
6
CONTINUOUS
10
143.528
20
-114.28
11
143.507
21
-114.217
0
LINE
8
BLACK
6
CONTINUOUS
10
143.507
20
-114.217
11
143.528
21
-114.166
0
LINE
8
BLACK
6
CONTINUOUS
10
143.528
20
-114.166
11
143.586
21
-114.145
0
LINE
8
BLACK
6
CONTINUOUS
10
143.586
20
-114.145
11
143.609
21
-114.147
0
LINE
8
BLACK
6
CONTINUOUS
10
141.343
20
-111.221
11
141.375
21
-111.26
0
LINE
8
BLACK
6
CONTINUOUS
10
141.375
20
-111.26
11
141.543
21
-111.729
0
LINE
8
BLACK
6
CONTINUOUS
10
141.543
20
-111.729
11
141.71
21
-111.26
0
LINE
8
BLACK
6
CONTINUOUS
10
141.71
20
-111.26
11
141.723
21
-111.238
0
LINE
8
BLACK
6
CONTINUOUS
10
141.723
20
-111.238
11
141.767
21
-111.212
0
LINE
8
BLACK
6
CONTINUOUS
10
141.767
20
-111.212
11
141.818
21
-111.221
0
LINE
8
BLACK
6
CONTINUOUS
10
141.818
20
-111.221
11
141.851
21
-111.26
0
LINE
8
BLACK
6
CONTINUOUS
10
141.851
20
-111.26
11
141.852
21
-111.311
0
LINE
8
BLACK
6
CONTINUOUS
10
141.852
20
-111.311
11
141.623
21
-111.951
0
LINE
8
BLACK
6
CONTINUOUS
10
141.623
20
-111.951
11
141.702
21
-112.148
0
LINE
8
BLACK
6
CONTINUOUS
10
141.702
20
-112.148
11
141.73
21
-112.176
0
LINE
8
BLACK
6
CONTINUOUS
10
141.73
20
-112.176
11
141.814
21
-112.219
0
LINE
8
BLACK
6
CONTINUOUS
10
141.814
20
-112.219
11
141.835
21
-112.234
0
LINE
8
BLACK
6
CONTINUOUS
10
141.835
20
-112.234
11
141.856
21
-112.281
0
LINE
8
BLACK
6
CONTINUOUS
10
141.856
20
-112.281
11
141.841
21
-112.33
0
LINE
8
BLACK
6
CONTINUOUS
10
141.841
20
-112.33
11
141.798
21
-112.359
0
LINE
8
BLACK
6
CONTINUOUS
10
141.798
20
-112.359
11
141.747
21
-112.353
0
LINE
8
BLACK
6
CONTINUOUS
10
141.747
20
-112.353
11
141.652
21
-112.305
0
LINE
8
BLACK
6
CONTINUOUS
10
141.652
20
-112.305
11
141.634
21
-112.292
0
LINE
8
BLACK
6
CONTINUOUS
10
141.634
20
-112.292
11
141.633
21
-112.291
0
LINE
8
BLACK
6
CONTINUOUS
10
141.633
20
-112.291
11
141.585
21
-112.244
0
LINE
8
BLACK
6
CONTINUOUS
10
141.585
20
-112.244
11
141.57
21
-112.222
0
LINE
8
BLACK
6
CONTINUOUS
10
141.57
20
-112.222
11
141.57
21
-112.22
0
LINE
8
BLACK
6
CONTINUOUS
10
141.57
20
-112.22
11
141.568
21
-112.218
0
LINE
8
BLACK
6
CONTINUOUS
10
141.568
20
-112.218
11
141.473
21
-111.98
0
LINE
8
BLACK
6
CONTINUOUS
10
141.473
20
-111.98
11
141.473
21
-111.979
0
LINE
8
BLACK
6
CONTINUOUS
10
141.473
20
-111.979
11
141.473
21
-111.978
0
LINE
8
BLACK
6
CONTINUOUS
10
141.473
20
-111.978
11
141.473
21
-111.978
0
LINE
8
BLACK
6
CONTINUOUS
10
141.473
20
-111.978
11
141.472
21
-111.978
0
LINE
8
BLACK
6
CONTINUOUS
10
141.472
20
-111.978
11
141.234
21
-111.311
0
LINE
8
BLACK
6
CONTINUOUS
10
141.234
20
-111.311
11
141.23
21
-111.285
0
LINE
8
BLACK
6
CONTINUOUS
10
141.23
20
-111.285
11
141.248
21
-111.237
0
LINE
8
BLACK
6
CONTINUOUS
10
141.248
20
-111.237
11
141.292
21
-111.212
0
LINE
8
BLACK
6
CONTINUOUS
10
141.292
20
-111.212
11
141.343
21
-111.221
0
LINE
8
BLACK
6
CONTINUOUS
10
147.533
20
-111.221
11
147.566
21
-111.26
0
LINE
8
BLACK
6
CONTINUOUS
10
147.566
20
-111.26
11
147.733
21
-111.729
0
LINE
8
BLACK
6
CONTINUOUS
10
147.733
20
-111.729
11
147.901
21
-111.26
0
LINE
8
BLACK
6
CONTINUOUS
10
147.901
20
-111.26
11
147.914
21
-111.238
0
LINE
8
BLACK
6
CONTINUOUS
10
147.914
20
-111.238
11
147.958
21
-111.212
0
LINE
8
BLACK
6
CONTINUOUS
10
147.958
20
-111.212
11
148.009
21
-111.221
0
LINE
8
BLACK
6
CONTINUOUS
10
148.009
20
-111.221
11
148.042
21
-111.26
0
LINE
8
BLACK
6
CONTINUOUS
10
148.042
20
-111.26
11
148.042
21
-111.311
0
LINE
8
BLACK
6
CONTINUOUS
10
148.042
20
-111.311
11
147.814
21
-111.951
0
LINE
8
BLACK
6
CONTINUOUS
10
147.814
20
-111.951
11
147.892
21
-112.148
0
LINE
8
BLACK
6
CONTINUOUS
10
147.892
20
-112.148
11
147.921
21
-112.176
0
LINE
8
BLACK
6
CONTINUOUS
10
147.921
20
-112.176
11
148.005
21
-112.219
0
LINE
8
BLACK
6
CONTINUOUS
10
148.005
20
-112.219
11
148.026
21
-112.234
0
LINE
8
BLACK
6
CONTINUOUS
10
148.026
20
-112.234
11
148.046
21
-112.281
0
LINE
8
BLACK
6
CONTINUOUS
10
148.046
20
-112.281
11
148.032
21
-112.33
0
LINE
8
BLACK
6
CONTINUOUS
10
148.032
20
-112.33
11
147.989
21
-112.359
0
LINE
8
BLACK
6
CONTINUOUS
10
147.989
20
-112.359
11
147.938
21
-112.353
0
LINE
8
BLACK
6
CONTINUOUS
10
147.938
20
-112.353
11
147.843
21
-112.305
0
LINE
8
BLACK
6
CONTINUOUS
10
147.843
20
-112.305
11
147.825
21
-112.292
0
LINE
8
BLACK
6
CONTINUOUS
10
147.825
20
-112.292
11
147.823
21
-112.291
0
LINE
8
BLACK
6
CONTINUOUS
10
147.823
20
-112.291
11
147.776
21
-112.244
0
LINE
8
BLACK
6
CONTINUOUS
10
147.776
20
-112.244
11
147.761
21
-112.222
0
LINE
8
BLACK
6
CONTINUOUS
10
147.761
20
-112.222
11
147.76
21
-112.22
0
LINE
8
BLACK
6
CONTINUOUS
10
147.76
20
-112.22
11
147.759
21
-112.218
0
LINE
8
BLACK
6
CONTINUOUS
10
147.759
20
-112.218
11
147.664
21
-111.98
0
LINE
8
BLACK
6
CONTINUOUS
10
147.664
20
-111.98
11
147.663
21
-111.979
0
LINE
8
BLACK
6
CONTINUOUS
10
147.663
20
-111.979
11
147.663
21
-111.978
0
LINE
8
BLACK
6
CONTINUOUS
10
147.663
20
-111.978
11
147.663
21
-111.978
0
LINE
8
BLACK
6
CONTINUOUS
10
147.663
20
-111.978
11
147.663
21
-111.978
0
LINE
8
BLACK
6
CONTINUOUS
10
147.663
20
-111.978
11
147.425
21
-111.311
0
LINE
8
BLACK
6
CONTINUOUS
10
147.425
20
-111.311
11
147.42
21
-111.285
0
LINE
8
BLACK
6
CONTINUOUS
10
147.42
20
-111.285
11
147.438
21
-111.237
0
LINE
8
BLACK
6
CONTINUOUS
10
147.438
20
-111.237
11
147.483
21
-111.212
0
LINE
8
BLACK
6
CONTINUOUS
10
147.483
20
-111.212
11
147.533
21
-111.221
0
LINE
8
BLACK
6
CONTINUOUS
10
146.997
20
-111.215
11
147.001
21
-111.218
0
LINE
8
BLACK
6
CONTINUOUS
10
147.001
20
-111.218
11
147.005
21
-111.219
0
LINE
8
BLACK
6
CONTINUOUS
10
147.005
20
-111.219
11
147.1
21
-111.266
0
LINE
8
BLACK
6
CONTINUOUS
10
147.1
20
-111.266
11
147.118
21
-111.28
0
LINE
8
BLACK
6
CONTINUOUS
10
147.118
20
-111.28
11
147.12
21
-111.28
0
LINE
8
BLACK
6
CONTINUOUS
10
147.12
20
-111.28
11
147.167
21
-111.328
0
LINE
8
BLACK
6
CONTINUOUS
10
147.167
20
-111.328
11
147.18
21
-111.346
0
LINE
8
BLACK
6
CONTINUOUS
10
147.18
20
-111.346
11
147.181
21
-111.347
0
LINE
8
BLACK
6
CONTINUOUS
10
147.181
20
-111.347
11
147.229
21
-111.443
0
LINE
8
BLACK
6
CONTINUOUS
10
147.229
20
-111.443
11
147.236
21
-111.468
0
LINE
8
BLACK
6
CONTINUOUS
10
147.236
20
-111.468
11
147.235
21
-111.472
0
LINE
8
BLACK
6
CONTINUOUS
10
147.235
20
-111.472
11
147.237
21
-111.476
0
LINE
8
BLACK
6
CONTINUOUS
10
147.237
20
-111.476
11
147.237
21
-111.762
0
LINE
8
BLACK
6
CONTINUOUS
10
147.237
20
-111.762
11
147.232
21
-111.788
0
LINE
8
BLACK
6
CONTINUOUS
10
147.232
20
-111.788
11
147.229
21
-111.791
0
LINE
8
BLACK
6
CONTINUOUS
10
147.229
20
-111.791
11
147.229
21
-111.795
0
LINE
8
BLACK
6
CONTINUOUS
10
147.229
20
-111.795
11
147.181
21
-111.891
0
LINE
8
BLACK
6
CONTINUOUS
10
147.181
20
-111.891
11
147.168
21
-111.909
0
LINE
8
BLACK
6
CONTINUOUS
10
147.168
20
-111.909
11
147.167
21
-111.91
0
LINE
8
BLACK
6
CONTINUOUS
10
147.167
20
-111.91
11
147.12
21
-111.958
0
LINE
8
BLACK
6
CONTINUOUS
10
147.12
20
-111.958
11
147.101
21
-111.971
0
LINE
8
BLACK
6
CONTINUOUS
10
147.101
20
-111.971
11
147.1
21
-111.972
0
LINE
8
BLACK
6
CONTINUOUS
10
147.1
20
-111.972
11
147.005
21
-112.019
0
LINE
8
BLACK
6
CONTINUOUS
10
147.005
20
-112.019
11
146.98
21
-112.027
0
LINE
8
BLACK
6
CONTINUOUS
10
146.98
20
-112.027
11
146.976
21
-112.026
0
LINE
8
BLACK
6
CONTINUOUS
10
146.976
20
-112.026
11
146.971
21
-112.027
0
LINE
8
BLACK
6
CONTINUOUS
10
146.971
20
-112.027
11
146.829
21
-112.027
0
LINE
8
BLACK
6
CONTINUOUS
10
146.829
20
-112.027
11
146.803
21
-112.023
0
LINE
8
BLACK
6
CONTINUOUS
10
146.803
20
-112.023
11
146.799
21
-112.02
0
LINE
8
BLACK
6
CONTINUOUS
10
146.799
20
-112.02
11
146.795
21
-112.019
0
LINE
8
BLACK
6
CONTINUOUS
10
146.795
20
-112.019
11
146.7
21
-111.972
0
LINE
8
BLACK
6
CONTINUOUS
10
146.7
20
-111.972
11
146.682
21
-111.958
0
LINE
8
BLACK
6
CONTINUOUS
10
146.682
20
-111.958
11
146.68
21
-111.958
0
LINE
8
BLACK
6
CONTINUOUS
10
146.68
20
-111.958
11
146.633
21
-111.91
0
LINE
8
BLACK
6
CONTINUOUS
10
146.633
20
-111.91
11
146.62
21
-111.892
0
LINE
8
BLACK
6
CONTINUOUS
10
146.62
20
-111.892
11
146.619
21
-111.891
0
LINE
8
BLACK
6
CONTINUOUS
10
146.619
20
-111.891
11
146.571
21
-111.795
0
LINE
8
BLACK
6
CONTINUOUS
10
146.571
20
-111.795
11
146.564
21
-111.77
0
LINE
8
BLACK
6
CONTINUOUS
10
146.564
20
-111.77
11
146.565
21
-111.766
0
LINE
8
BLACK
6
CONTINUOUS
10
146.565
20
-111.766
11
146.563
21
-111.762
0
LINE
8
BLACK
6
CONTINUOUS
10
146.563
20
-111.762
11
146.563
21
-111.476
0
LINE
8
BLACK
6
CONTINUOUS
10
146.563
20
-111.476
11
146.568
21
-111.451
0
LINE
8
BLACK
6
CONTINUOUS
10
146.568
20
-111.451
11
146.57
21
-111.447
0
LINE
8
BLACK
6
CONTINUOUS
10
146.57
20
-111.447
11
146.571
21
-111.443
0
LINE
8
BLACK
6
CONTINUOUS
10
146.571
20
-111.443
11
146.619
21
-111.347
0
LINE
8
BLACK
6
CONTINUOUS
10
146.619
20
-111.347
11
146.632
21
-111.329
0
LINE
8
BLACK
6
CONTINUOUS
10
146.632
20
-111.329
11
146.633
21
-111.328
0
LINE
8
BLACK
6
CONTINUOUS
10
146.633
20
-111.328
11
146.68
21
-111.28
0
LINE
8
BLACK
6
CONTINUOUS
10
146.68
20
-111.28
11
146.699
21
-111.267
0
LINE
8
BLACK
6
CONTINUOUS
10
146.699
20
-111.267
11
146.7
21
-111.266
0
LINE
8
BLACK
6
CONTINUOUS
10
146.7
20
-111.266
11
146.795
21
-111.219
0
LINE
8
BLACK
6
CONTINUOUS
10
146.795
20
-111.219
11
146.82
21
-111.211
0
LINE
8
BLACK
6
CONTINUOUS
10
146.82
20
-111.211
11
146.824
21
-111.212
0
LINE
8
BLACK
6
CONTINUOUS
10
146.824
20
-111.212
11
146.829
21
-111.211
0
LINE
8
BLACK
6
CONTINUOUS
10
146.829
20
-111.211
11
146.971
21
-111.211
0
LINE
8
BLACK
6
CONTINUOUS
10
146.971
20
-111.211
11
146.997
21
-111.215
0
LINE
8
BLACK
6
CONTINUOUS
10
146.846
20
-111.361
11
146.778
21
-111.395
0
LINE
8
BLACK
6
CONTINUOUS
10
146.778
20
-111.395
11
146.747
21
-111.425
0
LINE
8
BLACK
6
CONTINUOUS
10
146.747
20
-111.425
11
146.713
21
-111.494
0
LINE
8
BLACK
6
CONTINUOUS
10
146.713
20
-111.494
11
146.713
21
-111.744
0
LINE
8
BLACK
6
CONTINUOUS
10
146.713
20
-111.744
11
146.747
21
-111.813
0
LINE
8
BLACK
6
CONTINUOUS
10
146.747
20
-111.813
11
146.778
21
-111.843
0
LINE
8
BLACK
6
CONTINUOUS
10
146.778
20
-111.843
11
146.846
21
-111.877
0
LINE
8
BLACK
6
CONTINUOUS
10
146.846
20
-111.877
11
146.954
21
-111.877
0
LINE
8
BLACK
6
CONTINUOUS
10
146.954
20
-111.877
11
147.022
21
-111.843
0
LINE
8
BLACK
6
CONTINUOUS
10
147.022
20
-111.843
11
147.053
21
-111.813
0
LINE
8
BLACK
6
CONTINUOUS
10
147.053
20
-111.813
11
147.087
21
-111.744
0
LINE
8
BLACK
6
CONTINUOUS
10
147.087
20
-111.744
11
147.087
21
-111.494
0
LINE
8
BLACK
6
CONTINUOUS
10
147.087
20
-111.494
11
147.053
21
-111.425
0
LINE
8
BLACK
6
CONTINUOUS
10
147.053
20
-111.425
11
147.022
21
-111.395
0
LINE
8
BLACK
6
CONTINUOUS
10
147.022
20
-111.395
11
146.954
21
-111.361
0
LINE
8
BLACK
6
CONTINUOUS
10
146.954
20
-111.361
11
146.846
21
-111.361
0
LINE
8
BLACK
6
CONTINUOUS
10
146.267
20
-110.904
11
146.285
21
-110.952
0
LINE
8
BLACK
6
CONTINUOUS
10
146.285
20
-110.952
11
146.285
21
-111.211
0
LINE
8
BLACK
6
CONTINUOUS
10
146.285
20
-111.211
11
146.352
21
-111.211
0
LINE
8
BLACK
6
CONTINUOUS
10
146.352
20
-111.211
11
146.378
21
-111.215
0
LINE
8
BLACK
6
CONTINUOUS
10
146.378
20
-111.215
11
146.417
21
-111.248
0
LINE
8
BLACK
6
CONTINUOUS
10
146.417
20
-111.248
11
146.426
21
-111.299
0
LINE
8
BLACK
6
CONTINUOUS
10
146.426
20
-111.299
11
146.401
21
-111.343
0
LINE
8
BLACK
6
CONTINUOUS
10
146.401
20
-111.343
11
146.352
21
-111.361
0
LINE
8
BLACK
6
CONTINUOUS
10
146.352
20
-111.361
11
146.285
21
-111.361
0
LINE
8
BLACK
6
CONTINUOUS
10
146.285
20
-111.361
11
146.285
21
-111.81
0
LINE
8
BLACK
6
CONTINUOUS
10
146.285
20
-111.81
11
146.28
21
-111.835
0
LINE
8
BLACK
6
CONTINUOUS
10
146.28
20
-111.835
11
146.277
21
-111.839
0
LINE
8
BLACK
6
CONTINUOUS
10
146.277
20
-111.839
11
146.277
21
-111.843
0
LINE
8
BLACK
6
CONTINUOUS
10
146.277
20
-111.843
11
146.229
21
-111.938
0
LINE
8
BLACK
6
CONTINUOUS
10
146.229
20
-111.938
11
146.213
21
-111.959
0
LINE
8
BLACK
6
CONTINUOUS
10
146.213
20
-111.959
11
146.203
21
-111.964
0
LINE
8
BLACK
6
CONTINUOUS
10
146.203
20
-111.964
11
146.195
21
-111.972
0
LINE
8
BLACK
6
CONTINUOUS
10
146.195
20
-111.972
11
146.1
21
-112.019
0
LINE
8
BLACK
6
CONTINUOUS
10
146.1
20
-112.019
11
146.075
21
-112.027
0
LINE
8
BLACK
6
CONTINUOUS
10
146.075
20
-112.027
11
146.071
21
-112.026
0
LINE
8
BLACK
6
CONTINUOUS
10
146.071
20
-112.026
11
146.067
21
-112.027
0
LINE
8
BLACK
6
CONTINUOUS
10
146.067
20
-112.027
11
145.971
21
-112.027
0
LINE
8
BLACK
6
CONTINUOUS
10
145.971
20
-112.027
11
145.946
21
-112.023
0
LINE
8
BLACK
6
CONTINUOUS
10
145.946
20
-112.023
11
145.906
21
-111.99
0
LINE
8
BLACK
6
CONTINUOUS
10
145.906
20
-111.99
11
145.898
21
-111.939
0
LINE
8
BLACK
6
CONTINUOUS
10
145.898
20
-111.939
11
145.923
21
-111.895
0
LINE
8
BLACK
6
CONTINUOUS
10
145.923
20
-111.895
11
145.971
21
-111.877
0
LINE
8
BLACK
6
CONTINUOUS
10
145.971
20
-111.877
11
146.049
21
-111.877
0
LINE
8
BLACK
6
CONTINUOUS
10
146.049
20
-111.877
11
146.106
21
-111.849
0
LINE
8
BLACK
6
CONTINUOUS
10
146.106
20
-111.849
11
146.135
21
-111.792
0
LINE
8
BLACK
6
CONTINUOUS
10
146.135
20
-111.792
11
146.135
21
-111.361
0
LINE
8
BLACK
6
CONTINUOUS
10
146.135
20
-111.361
11
145.971
21
-111.361
0
LINE
8
BLACK
6
CONTINUOUS
10
145.971
20
-111.361
11
145.946
21
-111.356
0
LINE
8
BLACK
6
CONTINUOUS
10
145.946
20
-111.356
11
145.906
21
-111.323
0
LINE
8
BLACK
6
CONTINUOUS
10
145.906
20
-111.323
11
145.898
21
-111.273
0
LINE
8
BLACK
6
CONTINUOUS
10
145.898
20
-111.273
11
145.923
21
-111.228
0
LINE
8
BLACK
6
CONTINUOUS
10
145.923
20
-111.228
11
145.971
21
-111.211
0
LINE
8
BLACK
6
CONTINUOUS
10
145.971
20
-111.211
11
146.135
21
-111.211
0
LINE
8
BLACK
6
CONTINUOUS
10
146.135
20
-111.211
11
146.135
21
-110.952
0
LINE
8
BLACK
6
CONTINUOUS
10
146.135
20
-110.952
11
146.139
21
-110.927
0
LINE
8
BLACK
6
CONTINUOUS
10
146.139
20
-110.927
11
146.172
21
-110.887
0
LINE
8
BLACK
6
CONTINUOUS
10
146.172
20
-110.887
11
146.223
21
-110.879
0
LINE
8
BLACK
6
CONTINUOUS
10
146.223
20
-110.879
11
146.267
21
-110.904
0
LINE
8
BLACK
6
CONTINUOUS
10
144.188
20
-111.215
11
144.191
21
-111.218
0
LINE
8
BLACK
6
CONTINUOUS
10
144.191
20
-111.218
11
144.195
21
-111.219
0
LINE
8
BLACK
6
CONTINUOUS
10
144.195
20
-111.219
11
144.291
21
-111.266
0
LINE
8
BLACK
6
CONTINUOUS
10
144.291
20
-111.266
11
144.309
21
-111.28
0
LINE
8
BLACK
6
CONTINUOUS
10
144.309
20
-111.28
11
144.31
21
-111.28
0
LINE
8
BLACK
6
CONTINUOUS
10
144.31
20
-111.28
11
144.358
21
-111.328
0
LINE
8
BLACK
6
CONTINUOUS
10
144.358
20
-111.328
11
144.371
21
-111.346
0
LINE
8
BLACK
6
CONTINUOUS
10
144.371
20
-111.346
11
144.372
21
-111.347
0
LINE
8
BLACK
6
CONTINUOUS
10
144.372
20
-111.347
11
144.419
21
-111.443
0
LINE
8
BLACK
6
CONTINUOUS
10
144.419
20
-111.443
11
144.427
21
-111.468
0
LINE
8
BLACK
6
CONTINUOUS
10
144.427
20
-111.468
11
144.426
21
-111.472
0
LINE
8
BLACK
6
CONTINUOUS
10
144.426
20
-111.472
11
144.427
21
-111.476
0
LINE
8
BLACK
6
CONTINUOUS
10
144.427
20
-111.476
11
144.427
21
-111.762
0
LINE
8
BLACK
6
CONTINUOUS
10
144.427
20
-111.762
11
144.423
21
-111.788
0
LINE
8
BLACK
6
CONTINUOUS
10
144.423
20
-111.788
11
144.42
21
-111.791
0
LINE
8
BLACK
6
CONTINUOUS
10
144.42
20
-111.791
11
144.419
21
-111.795
0
LINE
8
BLACK
6
CONTINUOUS
10
144.419
20
-111.795
11
144.372
21
-111.891
0
LINE
8
BLACK
6
CONTINUOUS
10
144.372
20
-111.891
11
144.358
21
-111.909
0
LINE
8
BLACK
6
CONTINUOUS
10
144.358
20
-111.909
11
144.358
21
-111.91
0
LINE
8
BLACK
6
CONTINUOUS
10
144.358
20
-111.91
11
144.31
21
-111.958
0
LINE
8
BLACK
6
CONTINUOUS
10
144.31
20
-111.958
11
144.292
21
-111.971
0
LINE
8
BLACK
6
CONTINUOUS
10
144.292
20
-111.971
11
144.291
21
-111.972
0
LINE
8
BLACK
6
CONTINUOUS
10
144.291
20
-111.972
11
144.195
21
-112.019
0
LINE
8
BLACK
6
CONTINUOUS
10
144.195
20
-112.019
11
144.17
21
-112.027
0
LINE
8
BLACK
6
CONTINUOUS
10
144.17
20
-112.027
11
144.166
21
-112.026
0
LINE
8
BLACK
6
CONTINUOUS
10
144.166
20
-112.026
11
144.162
21
-112.027
0
LINE
8
BLACK
6
CONTINUOUS
10
144.162
20
-112.027
11
144.019
21
-112.027
0
LINE
8
BLACK
6
CONTINUOUS
10
144.019
20
-112.027
11
143.993
21
-112.023
0
LINE
8
BLACK
6
CONTINUOUS
10
143.993
20
-112.023
11
143.99
21
-112.02
0
LINE
8
BLACK
6
CONTINUOUS
10
143.99
20
-112.02
11
143.986
21
-112.019
0
LINE
8
BLACK
6
CONTINUOUS
10
143.986
20
-112.019
11
143.89
21
-111.972
0
LINE
8
BLACK
6
CONTINUOUS
10
143.89
20
-111.972
11
143.872
21
-111.958
0
LINE
8
BLACK
6
CONTINUOUS
10
143.872
20
-111.958
11
143.871
21
-111.958
0
LINE
8
BLACK
6
CONTINUOUS
10
143.871
20
-111.958
11
143.823
21
-111.91
0
LINE
8
BLACK
6
CONTINUOUS
10
143.823
20
-111.91
11
143.81
21
-111.892
0
LINE
8
BLACK
6
CONTINUOUS
10
143.81
20
-111.892
11
143.809
21
-111.891
0
LINE
8
BLACK
6
CONTINUOUS
10
143.809
20
-111.891
11
143.761
21
-111.795
0
LINE
8
BLACK
6
CONTINUOUS
10
143.761
20
-111.795
11
143.754
21
-111.77
0
LINE
8
BLACK
6
CONTINUOUS
10
143.754
20
-111.77
11
143.755
21
-111.766
0
LINE
8
BLACK
6
CONTINUOUS
10
143.755
20
-111.766
11
143.754
21
-111.762
0
LINE
8
BLACK
6
CONTINUOUS
10
143.754
20
-111.762
11
143.754
21
-111.476
0
LINE
8
BLACK
6
CONTINUOUS
10
143.754
20
-111.476
11
143.758
21
-111.451
0
LINE
8
BLACK
6
CONTINUOUS
10
143.758
20
-111.451
11
143.761
21
-111.447
0
LINE
8
BLACK
6
CONTINUOUS
10
143.761
20
-111.447
11
143.761
21
-111.443
0
LINE
8
BLACK
6
CONTINUOUS
10
143.761
20
-111.443
11
143.809
21
-111.347
0
LINE
8
BLACK
6
CONTINUOUS
10
143.809
20
-111.347
11
143.822
21
-111.329
0
LINE
8
BLACK
6
CONTINUOUS
10
143.822
20
-111.329
11
143.823
21
-111.328
0
LINE
8
BLACK
6
CONTINUOUS
10
143.823
20
-111.328
11
143.871
21
-111.28
0
LINE
8
BLACK
6
CONTINUOUS
10
143.871
20
-111.28
11
143.889
21
-111.267
0
LINE
8
BLACK
6
CONTINUOUS
10
143.889
20
-111.267
11
143.89
21
-111.266
0
LINE
8
BLACK
6
CONTINUOUS
10
143.89
20
-111.266
11
143.986
21
-111.219
0
LINE
8
BLACK
6
CONTINUOUS
10
143.986
20
-111.219
11
144.01
21
-111.211
0
LINE
8
BLACK
6
CONTINUOUS
10
144.01
20
-111.211
11
144.015
21
-111.212
0
LINE
8
BLACK
6
CONTINUOUS
10
144.015
20
-111.212
11
144.019
21
-111.211
0
LINE
8
BLACK
6
CONTINUOUS
10
144.019
20
-111.211
11
144.162
21
-111.211
0
LINE
8
BLACK
6
CONTINUOUS
10
144.162
20
-111.211
11
144.188
21
-111.215
0
LINE
8
BLACK
6
CONTINUOUS
10
144.037
20
-111.361
11
143.968
21
-111.395
0
LINE
8
BLACK
6
CONTINUOUS
10
143.968
20
-111.395
11
143.938
21
-111.425
0
LINE
8
BLACK
6
CONTINUOUS
10
143.938
20
-111.425
11
143.904
21
-111.494
0
LINE
8
BLACK
6
CONTINUOUS
10
143.904
20
-111.494
11
143.904
21
-111.744
0
LINE
8
BLACK
6
CONTINUOUS
10
143.904
20
-111.744
11
143.938
21
-111.813
0
LINE
8
BLACK
6
CONTINUOUS
10
143.938
20
-111.813
11
143.968
21
-111.843
0
LINE
8
BLACK
6
CONTINUOUS
10
143.968
20
-111.843
11
144.037
21
-111.877
0
LINE
8
BLACK
6
CONTINUOUS
10
144.037
20
-111.877
11
144.144
21
-111.877
0
LINE
8
BLACK
6
CONTINUOUS
10
144.144
20
-111.877
11
144.213
21
-111.843
0
LINE
8
BLACK
6
CONTINUOUS
10
144.213
20
-111.843
11
144.243
21
-111.813
0
LINE
8
BLACK
6
CONTINUOUS
10
144.243
20
-111.813
11
144.277
21
-111.744
0
LINE
8
BLACK
6
CONTINUOUS
10
144.277
20
-111.744
11
144.277
21
-111.494
0
LINE
8
BLACK
6
CONTINUOUS
10
144.277
20
-111.494
11
144.243
21
-111.425
0
LINE
8
BLACK
6
CONTINUOUS
10
144.243
20
-111.425
11
144.213
21
-111.395
0
LINE
8
BLACK
6
CONTINUOUS
10
144.213
20
-111.395
11
144.144
21
-111.361
0
LINE
8
BLACK
6
CONTINUOUS
10
144.144
20
-111.361
11
144.037
21
-111.361
0
LINE
8
BLACK
6
CONTINUOUS
10
148.457
20
-110.904
11
148.475
21
-110.952
0
LINE
8
BLACK
6
CONTINUOUS
10
148.475
20
-110.952
11
148.475
21
-111.81
0
LINE
8
BLACK
6
CONTINUOUS
10
148.475
20
-111.81
11
148.47
21
-111.835
0
LINE
8
BLACK
6
CONTINUOUS
10
148.47
20
-111.835
11
148.468
21
-111.839
0
LINE
8
BLACK
6
CONTINUOUS
10
148.468
20
-111.839
11
148.467
21
-111.843
0
LINE
8
BLACK
6
CONTINUOUS
10
148.467
20
-111.843
11
148.419
21
-111.938
0
LINE
8
BLACK
6
CONTINUOUS
10
148.419
20
-111.938
11
148.404
21
-111.959
0
LINE
8
BLACK
6
CONTINUOUS
10
148.404
20
-111.959
11
148.394
21
-111.964
0
LINE
8
BLACK
6
CONTINUOUS
10
148.394
20
-111.964
11
148.386
21
-111.972
0
LINE
8
BLACK
6
CONTINUOUS
10
148.386
20
-111.972
11
148.291
21
-112.019
0
LINE
8
BLACK
6
CONTINUOUS
10
148.291
20
-112.019
11
148.266
21
-112.027
0
LINE
8
BLACK
6
CONTINUOUS
10
148.266
20
-112.027
11
148.216
21
-112.015
0
LINE
8
BLACK
6
CONTINUOUS
10
148.216
20
-112.015
11
148.185
21
-111.974
0
LINE
8
BLACK
6
CONTINUOUS
10
148.185
20
-111.974
11
148.188
21
-111.923
0
LINE
8
BLACK
6
CONTINUOUS
10
148.188
20
-111.923
11
148.224
21
-111.885
0
LINE
8
BLACK
6
CONTINUOUS
10
148.224
20
-111.885
11
148.296
21
-111.849
0
LINE
8
BLACK
6
CONTINUOUS
10
148.296
20
-111.849
11
148.325
21
-111.792
0
LINE
8
BLACK
6
CONTINUOUS
10
148.325
20
-111.792
11
148.325
21
-110.952
0
LINE
8
BLACK
6
CONTINUOUS
10
148.325
20
-110.952
11
148.33
21
-110.927
0
LINE
8
BLACK
6
CONTINUOUS
10
148.33
20
-110.927
11
148.362
21
-110.887
0
LINE
8
BLACK
6
CONTINUOUS
10
148.362
20
-110.887
11
148.413
21
-110.879
0
LINE
8
BLACK
6
CONTINUOUS
10
148.413
20
-110.879
11
148.457
21
-110.904
0
LINE
8
BLACK
6
CONTINUOUS
10
142.553
20
-110.904
11
142.57
21
-110.952
0
LINE
8
BLACK
6
CONTINUOUS
10
142.57
20
-110.952
11
142.57
21
-111.952
0
LINE
8
BLACK
6
CONTINUOUS
10
142.57
20
-111.952
11
142.566
21
-111.978
0
LINE
8
BLACK
6
CONTINUOUS
10
142.566
20
-111.978
11
142.533
21
-112.017
0
LINE
8
BLACK
6
CONTINUOUS
10
142.533
20
-112.017
11
142.482
21
-112.026
0
LINE
8
BLACK
6
CONTINUOUS
10
142.482
20
-112.026
11
142.438
21
-112.001
0
LINE
8
BLACK
6
CONTINUOUS
10
142.438
20
-112.001
11
142.42
21
-111.952
0
LINE
8
BLACK
6
CONTINUOUS
10
142.42
20
-111.952
11
142.42
21
-111.698
0
LINE
8
BLACK
6
CONTINUOUS
10
142.42
20
-111.698
11
142.408
21
-111.686
0
LINE
8
BLACK
6
CONTINUOUS
10
142.408
20
-111.686
11
142.174
21
-111.997
0
LINE
8
BLACK
6
CONTINUOUS
10
142.174
20
-111.997
11
142.155
21
-112.015
0
LINE
8
BLACK
6
CONTINUOUS
10
142.155
20
-112.015
11
142.105
21
-112.027
0
LINE
8
BLACK
6
CONTINUOUS
10
142.105
20
-112.027
11
142.06
21
-112.004
0
LINE
8
BLACK
6
CONTINUOUS
10
142.06
20
-112.004
11
142.039
21
-111.956
0
LINE
8
BLACK
6
CONTINUOUS
10
142.039
20
-111.956
11
142.054
21
-111.907
0
LINE
8
BLACK
6
CONTINUOUS
10
142.054
20
-111.907
11
142.301
21
-111.578
0
LINE
8
BLACK
6
CONTINUOUS
10
142.301
20
-111.578
11
142.061
21
-111.339
0
LINE
8
BLACK
6
CONTINUOUS
10
142.061
20
-111.339
11
142.046
21
-111.317
0
LINE
8
BLACK
6
CONTINUOUS
10
142.046
20
-111.317
11
142.042
21
-111.266
0
LINE
8
BLACK
6
CONTINUOUS
10
142.042
20
-111.266
11
142.071
21
-111.224
0
LINE
8
BLACK
6
CONTINUOUS
10
142.071
20
-111.224
11
142.121
21
-111.211
0
LINE
8
BLACK
6
CONTINUOUS
10
142.121
20
-111.211
11
142.167
21
-111.233
0
LINE
8
BLACK
6
CONTINUOUS
10
142.167
20
-111.233
11
142.42
21
-111.486
0
LINE
8
BLACK
6
CONTINUOUS
10
142.42
20
-111.486
11
142.42
21
-110.952
0
LINE
8
BLACK
6
CONTINUOUS
10
142.42
20
-110.952
11
142.425
21
-110.927
0
LINE
8
BLACK
6
CONTINUOUS
10
142.425
20
-110.927
11
142.458
21
-110.887
0
LINE
8
BLACK
6
CONTINUOUS
10
142.458
20
-110.887
11
142.508
21
-110.879
0
LINE
8
BLACK
6
CONTINUOUS
10
142.508
20
-110.879
11
142.553
21
-110.904
0
LINE
8
BLACK
6
CONTINUOUS
10
145.092
20
-111.215
11
145.096
21
-111.218
0
LINE
8
BLACK
6
CONTINUOUS
10
145.096
20
-111.218
11
145.1
21
-111.219
0
LINE
8
BLACK
6
CONTINUOUS
10
145.1
20
-111.219
11
145.195
21
-111.266
0
LINE
8
BLACK
6
CONTINUOUS
10
145.195
20
-111.266
11
145.21
21
-111.277
0
LINE
8
BLACK
6
CONTINUOUS
10
145.21
20
-111.277
11
145.216
21
-111.274
0
LINE
8
BLACK
6
CONTINUOUS
10
145.216
20
-111.274
11
145.224
21
-111.266
0
LINE
8
BLACK
6
CONTINUOUS
10
145.224
20
-111.266
11
145.319
21
-111.219
0
LINE
8
BLACK
6
CONTINUOUS
10
145.319
20
-111.219
11
145.344
21
-111.211
0
LINE
8
BLACK
6
CONTINUOUS
10
145.344
20
-111.211
11
145.348
21
-111.212
0
LINE
8
BLACK
6
CONTINUOUS
10
145.348
20
-111.212
11
145.352
21
-111.211
0
LINE
8
BLACK
6
CONTINUOUS
10
145.352
20
-111.211
11
145.495
21
-111.211
0
LINE
8
BLACK
6
CONTINUOUS
10
145.495
20
-111.211
11
145.521
21
-111.215
0
LINE
8
BLACK
6
CONTINUOUS
10
145.521
20
-111.215
11
145.524
21
-111.218
0
LINE
8
BLACK
6
CONTINUOUS
10
145.524
20
-111.218
11
145.529
21
-111.219
0
LINE
8
BLACK
6
CONTINUOUS
10
145.529
20
-111.219
11
145.581
21
-111.245
0
LINE
8
BLACK
6
CONTINUOUS
10
145.581
20
-111.245
11
145.601
21
-111.221
0
LINE
8
BLACK
6
CONTINUOUS
10
145.601
20
-111.221
11
145.651
21
-111.212
0
LINE
8
BLACK
6
CONTINUOUS
10
145.651
20
-111.212
11
145.696
21
-111.238
0
LINE
8
BLACK
6
CONTINUOUS
10
145.696
20
-111.238
11
145.713
21
-111.286
0
LINE
8
BLACK
6
CONTINUOUS
10
145.713
20
-111.286
11
145.713
21
-111.952
0
LINE
8
BLACK
6
CONTINUOUS
10
145.713
20
-111.952
11
145.709
21
-111.978
0
LINE
8
BLACK
6
CONTINUOUS
10
145.709
20
-111.978
11
145.676
21
-112.017
0
LINE
8
BLACK
6
CONTINUOUS
10
145.676
20
-112.017
11
145.625
21
-112.026
0
LINE
8
BLACK
6
CONTINUOUS
10
145.625
20
-112.026
11
145.581
21
-112.001
0
LINE
8
BLACK
6
CONTINUOUS
10
145.581
20
-112.001
11
145.563
21
-111.952
0
LINE
8
BLACK
6
CONTINUOUS
10
145.563
20
-111.952
11
145.563
21
-111.412
0
LINE
8
BLACK
6
CONTINUOUS
10
145.563
20
-111.412
11
145.546
21
-111.395
0
LINE
8
BLACK
6
CONTINUOUS
10
145.546
20
-111.395
11
145.478
21
-111.361
0
LINE
8
BLACK
6
CONTINUOUS
10
145.478
20
-111.361
11
145.37
21
-111.361
0
LINE
8
BLACK
6
CONTINUOUS
10
145.37
20
-111.361
11
145.313
21
-111.389
0
LINE
8
BLACK
6
CONTINUOUS
10
145.313
20
-111.389
11
145.285
21
-111.446
0
LINE
8
BLACK
6
CONTINUOUS
10
145.285
20
-111.446
11
145.285
21
-111.952
0
LINE
8
BLACK
6
CONTINUOUS
10
145.285
20
-111.952
11
145.28
21
-111.978
0
LINE
8
BLACK
6
CONTINUOUS
10
145.28
20
-111.978
11
145.247
21
-112.017
0
LINE
8
BLACK
6
CONTINUOUS
10
145.247
20
-112.017
11
145.196
21
-112.026
0
LINE
8
BLACK
6
CONTINUOUS
10
145.196
20
-112.026
11
145.152
21
-112.001
0
LINE
8
BLACK
6
CONTINUOUS
10
145.152
20
-112.001
11
145.135
21
-111.952
0
LINE
8
BLACK
6
CONTINUOUS
10
145.135
20
-111.952
11
145.135
21
-111.446
0
LINE
8
BLACK
6
CONTINUOUS
10
145.135
20
-111.446
11
145.106
21
-111.389
0
LINE
8
BLACK
6
CONTINUOUS
10
145.106
20
-111.389
11
145.049
21
-111.361
0
LINE
8
BLACK
6
CONTINUOUS
10
145.049
20
-111.361
11
144.942
21
-111.361
0
LINE
8
BLACK
6
CONTINUOUS
10
144.942
20
-111.361
11
144.884
21
-111.389
0
LINE
8
BLACK
6
CONTINUOUS
10
144.884
20
-111.389
11
144.856
21
-111.446
0
LINE
8
BLACK
6
CONTINUOUS
10
144.856
20
-111.446
11
144.856
21
-111.952
0
LINE
8
BLACK
6
CONTINUOUS
10
144.856
20
-111.952
11
144.851
21
-111.978
0
LINE
8
BLACK
6
CONTINUOUS
10
144.851
20
-111.978
11
144.818
21
-112.017
0
LINE
8
BLACK
6
CONTINUOUS
10
144.818
20
-112.017
11
144.768
21
-112.026
0
LINE
8
BLACK
6
CONTINUOUS
10
144.768
20
-112.026
11
144.723
21
-112.001
0
LINE
8
BLACK
6
CONTINUOUS
10
144.723
20
-112.001
11
144.706
21
-111.952
0
LINE
8
BLACK
6
CONTINUOUS
10
144.706
20
-111.952
11
144.706
21
-111.429
0
LINE
8
BLACK
6
CONTINUOUS
10
144.706
20
-111.429
11
144.71
21
-111.403
0
LINE
8
BLACK
6
CONTINUOUS
10
144.71
20
-111.403
11
144.713
21
-111.399
0
LINE
8
BLACK
6
CONTINUOUS
10
144.713
20
-111.399
11
144.714
21
-111.395
0
LINE
8
BLACK
6
CONTINUOUS
10
144.714
20
-111.395
11
144.761
21
-111.3
0
LINE
8
BLACK
6
CONTINUOUS
10
144.761
20
-111.3
11
144.777
21
-111.279
0
LINE
8
BLACK
6
CONTINUOUS
10
144.777
20
-111.279
11
144.787
21
-111.274
0
LINE
8
BLACK
6
CONTINUOUS
10
144.787
20
-111.274
11
144.795
21
-111.266
0
LINE
8
BLACK
6
CONTINUOUS
10
144.795
20
-111.266
11
144.89
21
-111.219
0
LINE
8
BLACK
6
CONTINUOUS
10
144.89
20
-111.219
11
144.915
21
-111.211
0
LINE
8
BLACK
6
CONTINUOUS
10
144.915
20
-111.211
11
144.92
21
-111.212
0
LINE
8
BLACK
6
CONTINUOUS
10
144.92
20
-111.212
11
144.924
21
-111.211
0
LINE
8
BLACK
6
CONTINUOUS
10
144.924
20
-111.211
11
145.067
21
-111.211
0
LINE
8
BLACK
6
CONTINUOUS
10
145.067
20
-111.211
11
145.092
21
-111.215
0
LINE
8
BLACK
6
CONTINUOUS
10
143.283
20
-111.215
11
143.286
21
-111.218
0
LINE
8
BLACK
6
CONTINUOUS
10
143.286
20
-111.218
11
143.291
21
-111.219
0
LINE
8
BLACK
6
CONTINUOUS
10
143.291
20
-111.219
11
143.343
21
-111.245
0
LINE
8
BLACK
6
CONTINUOUS
10
143.343
20
-111.245
11
143.362
21
-111.221
0
LINE
8
BLACK
6
CONTINUOUS
10
143.362
20
-111.221
11
143.413
21
-111.212
0
LINE
8
BLACK
6
CONTINUOUS
10
143.413
20
-111.212
11
143.457
21
-111.238
0
LINE
8
BLACK
6
CONTINUOUS
10
143.457
20
-111.238
11
143.475
21
-111.286
0
LINE
8
BLACK
6
CONTINUOUS
10
143.475
20
-111.286
11
143.475
21
-111.952
0
LINE
8
BLACK
6
CONTINUOUS
10
143.475
20
-111.952
11
143.47
21
-111.978
0
LINE
8
BLACK
6
CONTINUOUS
10
143.47
20
-111.978
11
143.438
21
-112.017
0
LINE
8
BLACK
6
CONTINUOUS
10
143.438
20
-112.017
11
143.387
21
-112.026
0
LINE
8
BLACK
6
CONTINUOUS
10
143.387
20
-112.026
11
143.343
21
-112.001
0
LINE
8
BLACK
6
CONTINUOUS
10
143.343
20
-112.001
11
143.325
21
-111.952
0
LINE
8
BLACK
6
CONTINUOUS
10
143.325
20
-111.952
11
143.325
21
-111.412
0
LINE
8
BLACK
6
CONTINUOUS
10
143.325
20
-111.412
11
143.308
21
-111.395
0
LINE
8
BLACK
6
CONTINUOUS
10
143.308
20
-111.395
11
143.239
21
-111.361
0
LINE
8
BLACK
6
CONTINUOUS
10
143.239
20
-111.361
11
143.132
21
-111.361
0
LINE
8
BLACK
6
CONTINUOUS
10
143.132
20
-111.361
11
143.075
21
-111.389
0
LINE
8
BLACK
6
CONTINUOUS
10
143.075
20
-111.389
11
143.046
21
-111.446
0
LINE
8
BLACK
6
CONTINUOUS
10
143.046
20
-111.446
11
143.046
21
-111.952
0
LINE
8
BLACK
6
CONTINUOUS
10
143.046
20
-111.952
11
143.042
21
-111.978
0
LINE
8
BLACK
6
CONTINUOUS
10
143.042
20
-111.978
11
143.009
21
-112.017
0
LINE
8
BLACK
6
CONTINUOUS
10
143.009
20
-112.017
11
142.958
21
-112.026
0
LINE
8
BLACK
6
CONTINUOUS
10
142.958
20
-112.026
11
142.914
21
-112.001
0
LINE
8
BLACK
6
CONTINUOUS
10
142.914
20
-112.001
11
142.896
21
-111.952
0
LINE
8
BLACK
6
CONTINUOUS
10
142.896
20
-111.952
11
142.896
21
-111.429
0
LINE
8
BLACK
6
CONTINUOUS
10
142.896
20
-111.429
11
142.901
21
-111.403
0
LINE
8
BLACK
6
CONTINUOUS
10
142.901
20
-111.403
11
142.904
21
-111.399
0
LINE
8
BLACK
6
CONTINUOUS
10
142.904
20
-111.399
11
142.904
21
-111.395
0
LINE
8
BLACK
6
CONTINUOUS
10
142.904
20
-111.395
11
142.952
21
-111.3
0
LINE
8
BLACK
6
CONTINUOUS
10
142.952
20
-111.3
11
142.967
21
-111.279
0
LINE
8
BLACK
6
CONTINUOUS
10
142.967
20
-111.279
11
142.978
21
-111.274
0
LINE
8
BLACK
6
CONTINUOUS
10
142.978
20
-111.274
11
142.986
21
-111.266
0
LINE
8
BLACK
6
CONTINUOUS
10
142.986
20
-111.266
11
143.081
21
-111.219
0
LINE
8
BLACK
6
CONTINUOUS
10
143.081
20
-111.219
11
143.106
21
-111.211
0
LINE
8
BLACK
6
CONTINUOUS
10
143.106
20
-111.211
11
143.11
21
-111.212
0
LINE
8
BLACK
6
CONTINUOUS
10
143.11
20
-111.212
11
143.114
21
-111.211
0
LINE
8
BLACK
6
CONTINUOUS
10
143.114
20
-111.211
11
143.257
21
-111.211
0
LINE
8
BLACK
6
CONTINUOUS
10
143.257
20
-111.211
11
143.283
21
-111.215
0
LINE
8
BLACK
6
CONTINUOUS
10
142.62
20
-107.227
11
142.602
21
-107.185
0
LINE
8
BLACK
6
CONTINUOUS
10
142.602
20
-107.185
11
142.62
21
-107.143
0
LINE
8
BLACK
6
CONTINUOUS
10
142.62
20
-107.143
11
142.662
21
-107.125
0
LINE
8
BLACK
6
CONTINUOUS
10
142.662
20
-107.125
11
147.062
21
-107.125
0
LINE
8
BLACK
6
CONTINUOUS
10
147.062
20
-107.125
11
147.105
21
-107.143
0
LINE
8
BLACK
6
CONTINUOUS
10
147.105
20
-107.143
11
147.123
21
-107.185
0
LINE
8
BLACK
6
CONTINUOUS
10
147.123
20
-107.185
11
147.105
21
-107.227
0
LINE
8
BLACK
6
CONTINUOUS
10
147.105
20
-107.227
11
147.062
21
-107.245
0
LINE
8
BLACK
6
CONTINUOUS
10
147.062
20
-107.245
11
142.662
21
-107.245
0
LINE
8
BLACK
6
CONTINUOUS
10
142.662
20
-107.245
11
142.62
21
-107.227
0
LINE
8
BLACK
6
CONTINUOUS
10
144.645
20
-103.882
11
144.648
21
-103.885
0
LINE
8
BLACK
6
CONTINUOUS
10
144.648
20
-103.885
11
144.653
21
-103.885
0
LINE
8
BLACK
6
CONTINUOUS
10
144.653
20
-103.885
11
144.748
21
-103.933
0
LINE
8
BLACK
6
CONTINUOUS
10
144.748
20
-103.933
11
144.766
21
-103.946
0
LINE
8
BLACK
6
CONTINUOUS
10
144.766
20
-103.946
11
144.767
21
-103.947
0
LINE
8
BLACK
6
CONTINUOUS
10
144.767
20
-103.947
11
144.815
21
-103.995
0
LINE
8
BLACK
6
CONTINUOUS
10
144.815
20
-103.995
11
144.83
21
-104.016
0
LINE
8
BLACK
6
CONTINUOUS
10
144.83
20
-104.016
11
144.834
21
-104.067
0
LINE
8
BLACK
6
CONTINUOUS
10
144.834
20
-104.067
11
144.805
21
-104.109
0
LINE
8
BLACK
6
CONTINUOUS
10
144.805
20
-104.109
11
144.755
21
-104.122
0
LINE
8
BLACK
6
CONTINUOUS
10
144.755
20
-104.122
11
144.709
21
-104.101
0
LINE
8
BLACK
6
CONTINUOUS
10
144.709
20
-104.101
11
144.67
21
-104.062
0
LINE
8
BLACK
6
CONTINUOUS
10
144.67
20
-104.062
11
144.601
21
-104.027
0
LINE
8
BLACK
6
CONTINUOUS
10
144.601
20
-104.027
11
144.399
21
-104.027
0
LINE
8
BLACK
6
CONTINUOUS
10
144.399
20
-104.027
11
144.33
21
-104.062
0
LINE
8
BLACK
6
CONTINUOUS
10
144.33
20
-104.062
11
144.3
21
-104.092
0
LINE
8
BLACK
6
CONTINUOUS
10
144.3
20
-104.092
11
144.265
21
-104.161
0
LINE
8
BLACK
6
CONTINUOUS
10
144.265
20
-104.161
11
144.265
21
-104.226
0
LINE
8
BLACK
6
CONTINUOUS
10
144.265
20
-104.226
11
144.304
21
-104.34
0
LINE
8
BLACK
6
CONTINUOUS
10
144.304
20
-104.34
11
144.863
21
-104.899
0
LINE
8
BLACK
6
CONTINUOUS
10
144.863
20
-104.899
11
144.872
21
-104.913
0
LINE
8
BLACK
6
CONTINUOUS
10
144.872
20
-104.913
11
144.874
21
-104.915
0
LINE
8
BLACK
6
CONTINUOUS
10
144.874
20
-104.915
11
144.875
21
-104.917
0
LINE
8
BLACK
6
CONTINUOUS
10
144.875
20
-104.917
11
144.877
21
-104.921
0
LINE
8
BLACK
6
CONTINUOUS
10
144.877
20
-104.921
11
144.879
21
-104.943
0
LINE
8
BLACK
6
CONTINUOUS
10
144.879
20
-104.943
11
144.883
21
-104.965
0
LINE
8
BLACK
6
CONTINUOUS
10
144.883
20
-104.965
11
144.882
21
-104.968
0
LINE
8
BLACK
6
CONTINUOUS
10
144.882
20
-104.968
11
144.882
21
-104.972
0
LINE
8
BLACK
6
CONTINUOUS
10
144.882
20
-104.972
11
144.869
21
-104.99
0
LINE
8
BLACK
6
CONTINUOUS
10
144.869
20
-104.99
11
144.858
21
-105.01
0
LINE
8
BLACK
6
CONTINUOUS
10
144.858
20
-105.01
11
144.855
21
-105.011
0
LINE
8
BLACK
6
CONTINUOUS
10
144.855
20
-105.011
11
144.853
21
-105.014
0
LINE
8
BLACK
6
CONTINUOUS
10
144.853
20
-105.014
11
144.831
21
-105.02
0
LINE
8
BLACK
6
CONTINUOUS
10
144.831
20
-105.02
11
144.81
21
-105.027
0
LINE
8
BLACK
6
CONTINUOUS
10
144.81
20
-105.027
11
144.19
21
-105.027
0
LINE
8
BLACK
6
CONTINUOUS
10
144.19
20
-105.027
11
144.165
21
-105.023
0
LINE
8
BLACK
6
CONTINUOUS
10
144.165
20
-105.023
11
144.126
21
-104.99
0
LINE
8
BLACK
6
CONTINUOUS
10
144.126
20
-104.99
11
144.117
21
-104.939
0
LINE
8
BLACK
6
CONTINUOUS
10
144.117
20
-104.939
11
144.142
21
-104.895
0
LINE
8
BLACK
6
CONTINUOUS
10
144.142
20
-104.895
11
144.19
21
-104.877
0
LINE
8
BLACK
6
CONTINUOUS
10
144.19
20
-104.877
11
144.628
21
-104.877
0
LINE
8
BLACK
6
CONTINUOUS
10
144.628
20
-104.877
11
144.185
21
-104.434
0
LINE
8
BLACK
6
CONTINUOUS
10
144.185
20
-104.434
11
144.17
21
-104.413
0
LINE
8
BLACK
6
CONTINUOUS
10
144.17
20
-104.413
11
144.17
21
-104.408
0
LINE
8
BLACK
6
CONTINUOUS
10
144.17
20
-104.408
11
144.167
21
-104.405
0
LINE
8
BLACK
6
CONTINUOUS
10
144.167
20
-104.405
11
144.119
21
-104.262
0
LINE
8
BLACK
6
CONTINUOUS
10
144.119
20
-104.262
11
144.116
21
-104.24
0
LINE
8
BLACK
6
CONTINUOUS
10
144.116
20
-104.24
11
144.115
21
-104.238
0
LINE
8
BLACK
6
CONTINUOUS
10
144.115
20
-104.238
11
144.115
21
-104.143
0
LINE
8
BLACK
6
CONTINUOUS
10
144.115
20
-104.143
11
144.12
21
-104.117
0
LINE
8
BLACK
6
CONTINUOUS
10
144.12
20
-104.117
11
144.123
21
-104.114
0
LINE
8
BLACK
6
CONTINUOUS
10
144.123
20
-104.114
11
144.123
21
-104.109
0
LINE
8
BLACK
6
CONTINUOUS
10
144.123
20
-104.109
11
144.171
21
-104.014
0
LINE
8
BLACK
6
CONTINUOUS
10
144.171
20
-104.014
11
144.184
21
-103.996
0
LINE
8
BLACK
6
CONTINUOUS
10
144.184
20
-103.996
11
144.185
21
-103.995
0
LINE
8
BLACK
6
CONTINUOUS
10
144.185
20
-103.995
11
144.233
21
-103.947
0
LINE
8
BLACK
6
CONTINUOUS
10
144.233
20
-103.947
11
144.251
21
-103.934
0
LINE
8
BLACK
6
CONTINUOUS
10
144.251
20
-103.934
11
144.252
21
-103.933
0
LINE
8
BLACK
6
CONTINUOUS
10
144.252
20
-103.933
11
144.347
21
-103.885
0
LINE
8
BLACK
6
CONTINUOUS
10
144.347
20
-103.885
11
144.372
21
-103.878
0
LINE
8
BLACK
6
CONTINUOUS
10
144.372
20
-103.878
11
144.377
21
-103.879
0
LINE
8
BLACK
6
CONTINUOUS
10
144.377
20
-103.879
11
144.381
21
-103.877
0
LINE
8
BLACK
6
CONTINUOUS
10
144.381
20
-103.877
11
144.619
21
-103.877
0
LINE
8
BLACK
6
CONTINUOUS
10
144.619
20
-103.877
11
144.645
21
-103.882
0
LINE
8
BLACK
6
CONTINUOUS
10
145.819
20
-103.904
11
145.837
21
-103.952
0
LINE
8
BLACK
6
CONTINUOUS
10
145.837
20
-103.952
11
145.837
21
-104.762
0
LINE
8
BLACK
6
CONTINUOUS
10
145.837
20
-104.762
11
145.832
21
-104.788
0
LINE
8
BLACK
6
CONTINUOUS
10
145.832
20
-104.788
11
145.829
21
-104.791
0
LINE
8
BLACK
6
CONTINUOUS
10
145.829
20
-104.791
11
145.829
21
-104.795
0
LINE
8
BLACK
6
CONTINUOUS
10
145.829
20
-104.795
11
145.781
21
-104.891
0
LINE
8
BLACK
6
CONTINUOUS
10
145.781
20
-104.891
11
145.768
21
-104.909
0
LINE
8
BLACK
6
CONTINUOUS
10
145.768
20
-104.909
11
145.767
21
-104.91
0
LINE
8
BLACK
6
CONTINUOUS
10
145.767
20
-104.91
11
145.72
21
-104.958
0
LINE
8
BLACK
6
CONTINUOUS
10
145.72
20
-104.958
11
145.701
21
-104.971
0
LINE
8
BLACK
6
CONTINUOUS
10
145.701
20
-104.971
11
145.7
21
-104.972
0
LINE
8
BLACK
6
CONTINUOUS
10
145.7
20
-104.972
11
145.605
21
-105.019
0
LINE
8
BLACK
6
CONTINUOUS
10
145.605
20
-105.019
11
145.58
21
-105.027
0
LINE
8
BLACK
6
CONTINUOUS
10
145.58
20
-105.027
11
145.576
21
-105.026
0
LINE
8
BLACK
6
CONTINUOUS
10
145.576
20
-105.026
11
145.571
21
-105.027
0
LINE
8
BLACK
6
CONTINUOUS
10
145.571
20
-105.027
11
145.381
21
-105.027
0
LINE
8
BLACK
6
CONTINUOUS
10
145.381
20
-105.027
11
145.355
21
-105.023
0
LINE
8
BLACK
6
CONTINUOUS
10
145.355
20
-105.023
11
145.352
21
-105.02
0
LINE
8
BLACK
6
CONTINUOUS
10
145.352
20
-105.02
11
145.347
21
-105.019
0
LINE
8
BLACK
6
CONTINUOUS
10
145.347
20
-105.019
11
145.252
21
-104.972
0
LINE
8
BLACK
6
CONTINUOUS
10
145.252
20
-104.972
11
145.234
21
-104.958
0
LINE
8
BLACK
6
CONTINUOUS
10
145.234
20
-104.958
11
145.233
21
-104.958
0
LINE
8
BLACK
6
CONTINUOUS
10
145.233
20
-104.958
11
145.185
21
-104.91
0
LINE
8
BLACK
6
CONTINUOUS
10
145.185
20
-104.91
11
145.172
21
-104.892
0
LINE
8
BLACK
6
CONTINUOUS
10
145.172
20
-104.892
11
145.171
21
-104.891
0
LINE
8
BLACK
6
CONTINUOUS
10
145.171
20
-104.891
11
145.123
21
-104.795
0
LINE
8
BLACK
6
CONTINUOUS
10
145.123
20
-104.795
11
145.116
21
-104.77
0
LINE
8
BLACK
6
CONTINUOUS
10
145.116
20
-104.77
11
145.117
21
-104.766
0
LINE
8
BLACK
6
CONTINUOUS
10
145.117
20
-104.766
11
145.115
21
-104.762
0
LINE
8
BLACK
6
CONTINUOUS
10
145.115
20
-104.762
11
145.115
21
-103.952
0
LINE
8
BLACK
6
CONTINUOUS
10
145.115
20
-103.952
11
145.12
21
-103.927
0
LINE
8
BLACK
6
CONTINUOUS
10
145.12
20
-103.927
11
145.153
21
-103.887
0
LINE
8
BLACK
6
CONTINUOUS
10
145.153
20
-103.887
11
145.204
21
-103.879
0
LINE
8
BLACK
6
CONTINUOUS
10
145.204
20
-103.879
11
145.248
21
-103.904
0
LINE
8
BLACK
6
CONTINUOUS
10
145.248
20
-103.904
11
145.265
21
-103.952
0
LINE
8
BLACK
6
CONTINUOUS
10
145.265
20
-103.952
11
145.265
21
-104.744
0
LINE
8
BLACK
6
CONTINUOUS
10
145.265
20
-104.744
11
145.3
21
-104.813
0
LINE
8
BLACK
6
CONTINUOUS
10
145.3
20
-104.813
11
145.33
21
-104.843
0
LINE
8
BLACK
6
CONTINUOUS
10
145.33
20
-104.843
11
145.399
21
-104.877
0
LINE
8
BLACK
6
CONTINUOUS
10
145.399
20
-104.877
11
145.554
21
-104.877
0
LINE
8
BLACK
6
CONTINUOUS
10
145.554
20
-104.877
11
145.622
21
-104.843
0
LINE
8
BLACK
6
CONTINUOUS
10
145.622
20
-104.843
11
145.653
21
-104.813
0
LINE
8
BLACK
6
CONTINUOUS
10
145.653
20
-104.813
11
145.687
21
-104.744
0
LINE
8
BLACK
6
CONTINUOUS
10
145.687
20
-104.744
11
145.687
21
-103.952
0
LINE
8
BLACK
6
CONTINUOUS
10
145.687
20
-103.952
11
145.691
21
-103.927
0
LINE
8
BLACK
6
CONTINUOUS
10
145.691
20
-103.927
11
145.724
21
-103.887
0
LINE
8
BLACK
6
CONTINUOUS
10
145.724
20
-103.887
11
145.775
21
-103.879
0
LINE
8
BLACK
6
CONTINUOUS
10
145.775
20
-103.879
11
145.819
21
-103.904
0
LINE
8
BLACK
6
CONTINUOUS
10
142.62
20
-102.007
11
142.602
21
-101.965
0
LINE
8
BLACK
6
CONTINUOUS
10
142.602
20
-101.965
11
142.62
21
-101.923
0
LINE
8
BLACK
6
CONTINUOUS
10
142.62
20
-101.923
11
142.662
21
-101.905
0
LINE
8
BLACK
6
CONTINUOUS
10
142.662
20
-101.905
11
148.463
21
-101.905
0
LINE
8
BLACK
6
CONTINUOUS
10
148.463
20
-101.905
11
148.505
21
-101.923
0
LINE
8
BLACK
6
CONTINUOUS
10
148.505
20
-101.923
11
148.522
21
-101.965
0
LINE
8
BLACK
6
CONTINUOUS
10
148.522
20
-101.965
11
148.505
21
-102.007
0
LINE
8
BLACK
6
CONTINUOUS
10
148.505
20
-102.007
11
148.463
21
-102.025
0
LINE
8
BLACK
6
CONTINUOUS
10
148.463
20
-102.025
11
142.662
21
-102.025
0
LINE
8
BLACK
6
CONTINUOUS
10
142.662
20
-102.025
11
142.62
21
-102.007
0
LINE
8
BLACK
6
CONTINUOUS
10
148.515
20
-101.22
11
148.604
21
-101.104
0
LINE
8
BLACK
6
CONTINUOUS
10
148.604
20
-101.104
11
148.72
21
-101.015
0
LINE
8
BLACK
6
CONTINUOUS
10
148.72
20
-101.015
11
148.855
21
-100.959
0
LINE
8
BLACK
6
CONTINUOUS
10
148.855
20
-100.959
11
149
21
-100.94
0
LINE
8
BLACK
6
CONTINUOUS
10
149
20
-100.94
11
149.145
21
-100.959
0
LINE
8
BLACK
6
CONTINUOUS
10
149.145
20
-100.959
11
149.28
21
-101.015
0
LINE
8
BLACK
6
CONTINUOUS
10
149.28
20
-101.015
11
149.396
21
-101.104
0
LINE
8
BLACK
6
CONTINUOUS
10
149.396
20
-101.104
11
149.485
21
-101.22
0
LINE
8
BLACK
6
CONTINUOUS
10
149.485
20
-101.22
11
149.541
21
-101.355
0
LINE
8
BLACK
6
CONTINUOUS
10
149.541
20
-101.355
11
149.56
21
-101.5
0
LINE
8
BLACK
6
CONTINUOUS
10
149.56
20
-101.5
11
149.541
21
-101.645
0
LINE
8
BLACK
6
CONTINUOUS
10
149.541
20
-101.645
11
149.485
21
-101.78
0
LINE
8
BLACK
6
CONTINUOUS
10
149.485
20
-101.78
11
149.396
21
-101.896
0
LINE
8
BLACK
6
CONTINUOUS
10
149.396
20
-101.896
11
149.28
21
-101.985
0
LINE
8
BLACK
6
CONTINUOUS
10
149.28
20
-101.985
11
149.145
21
-102.041
0
LINE
8
BLACK
6
CONTINUOUS
10
149.145
20
-102.041
11
149
21
-102.06
0
LINE
8
BLACK
6
CONTINUOUS
10
149
20
-102.06
11
148.855
21
-102.041
0
LINE
8
BLACK
6
CONTINUOUS
10
148.855
20
-102.041
11
148.72
21
-101.985
0
LINE
8
BLACK
6
CONTINUOUS
10
148.72
20
-101.985
11
148.604
21
-101.896
0
LINE
8
BLACK
6
CONTINUOUS
10
148.604
20
-101.896
11
148.515
21
-101.78
0
LINE
8
BLACK
6
CONTINUOUS
10
148.515
20
-101.78
11
148.459
21
-101.645
0
LINE
8
BLACK
6
CONTINUOUS
10
148.459
20
-101.645
11
148.44
21
-101.5
0
LINE
8
BLACK
6
CONTINUOUS
10
148.44
20
-101.5
11
148.441
21
-101.495
0
LINE
8
BLACK
6
CONTINUOUS
10
148.441
20
-101.495
11
148.459
21
-101.355
0
LINE
8
BLACK
6
CONTINUOUS
10
148.459
20
-101.355
11
148.515
21
-101.22
0
LINE
8
BLACK
6
CONTINUOUS
10
148.623
20
-101.735
11
148.704
21
-101.831
0
LINE
8
BLACK
6
CONTINUOUS
10
148.704
20
-101.831
11
148.809
21
-101.901
0
LINE
8
BLACK
6
CONTINUOUS
10
148.809
20
-101.901
11
148.929
21
-101.939
0
LINE
8
BLACK
6
CONTINUOUS
10
148.929
20
-101.939
11
149.055
21
-101.941
0
LINE
8
BLACK
6
CONTINUOUS
10
149.055
20
-101.941
11
149.177
21
-101.908
0
LINE
8
BLACK
6
CONTINUOUS
10
149.177
20
-101.908
11
149.284
21
-101.842
0
LINE
8
BLACK
6
CONTINUOUS
10
149.284
20
-101.842
11
149.369
21
-101.749
0
LINE
8
BLACK
6
CONTINUOUS
10
149.369
20
-101.749
11
149.423
21
-101.635
0
LINE
8
BLACK
6
CONTINUOUS
10
149.423
20
-101.635
11
149.444
21
-101.511
0
LINE
8
BLACK
6
CONTINUOUS
10
149.444
20
-101.511
11
149.445
21
-101.5
0
LINE
8
BLACK
6
CONTINUOUS
10
149.445
20
-101.5
11
149.427
21
-101.375
0
LINE
8
BLACK
6
CONTINUOUS
10
149.427
20
-101.375
11
149.374
21
-101.261
0
LINE
8
BLACK
6
CONTINUOUS
10
149.374
20
-101.261
11
149.292
21
-101.165
0
LINE
8
BLACK
6
CONTINUOUS
10
149.292
20
-101.165
11
149.186
21
-101.096
0
LINE
8
BLACK
6
CONTINUOUS
10
149.186
20
-101.096
11
149.066
21
-101.06
0
LINE
8
BLACK
6
CONTINUOUS
10
149.066
20
-101.06
11
148.94
21
-101.06
0
LINE
8
BLACK
6
CONTINUOUS
10
148.94
20
-101.06
11
148.818
21
-101.094
0
LINE
8
BLACK
6
CONTINUOUS
10
148.818
20
-101.094
11
148.712
21
-101.161
0
LINE
8
BLACK
6
CONTINUOUS
10
148.712
20
-101.161
11
148.628
21
-101.256
0
LINE
8
BLACK
6
CONTINUOUS
10
148.628
20
-101.256
11
148.575
21
-101.37
0
LINE
8
BLACK
6
CONTINUOUS
10
148.575
20
-101.37
11
148.556
21
-101.495
0
LINE
8
BLACK
6
CONTINUOUS
10
148.556
20
-101.495
11
148.572
21
-101.62
0
LINE
8
BLACK
6
CONTINUOUS
10
148.572
20
-101.62
11
148.623
21
-101.735
  0
ENDSEC
  0
EOF
