  0
SECTION
  2
HEADER
  9
$ANGBASE
  50
0.0
  9
$ANGDIR
  70
1
  9
$MEASUREMENT
  70
1
  0
ENDSEC
  0
SECTION
  2
TABLES
  0
TABLE
  2
LTYPE
  70
4
  0
LTYPE
  5
40F
  2
CONTINUOUS
  70
0
  3
Solid line
  72
65
  73
0
  40
0.0
  0
LTYPE
  5
410
  2
DASHDOT
 70
0
  3
Dash Dot ____ _ ____ _
 72
65
 73
4
 40
2.0
 49
1.25
 49
-0.25
 49
0.25
 49
-0.25
  0
LTYPE
  5
411
  2
DASHED
 70
0
  3
Dashed __ __ __ __ __
 72
65
 73
2
 40
0.75
 49
0.5
 49
-0.25
  0
LTYPE
  5
43B
  2
DOTTED
 70
0
  3
Dotted .  .  .  .
 72
65
 73
2
 40
0.2
 49
0.0
 49
-0.2
  0
ENDTAB
  0
TABLE
  2
STYLE
  70
4
  0
STYLE
  2
KICAD
  70
0
  40
0
  41
1
  42
1
  50
0
  71
0
  3
isocp.shx
  0
STYLE
  2
KICADB
  70
0
  40
0
  41
1
  42
1
  50
0
  71
0
  3
isocp.shx
  0
STYLE
  2
KICADI
  70
0
  40
0
  41
1
  42
1
  50
15
  71
0
  3
isocp.shx
  0
STYLE
  2
KICADBI
  70
0
  40
0
  41
1
  42
1
  50
15
  71
0
  3
isocp.shx
  0
ENDTAB
  0
TABLE
  2
LAYER
  70
1
  0
LAYER
  2
BLACK
  70
0
  62
7
  6
CONTINUOUS
  0
ENDTAB
  0
ENDSEC
  0
SECTION
  2
ENTITIES
0
LINE
8
BLACK
6
CONTINUOUS
10
148.401
20
-106.333
11
148.433
21
-106.354
0
LINE
8
BLACK
6
CONTINUOUS
10
148.433
20
-106.354
11
148.455
21
-106.387
0
LINE
8
BLACK
6
CONTINUOUS
10
148.455
20
-106.387
11
148.463
21
-106.425
0
LINE
8
BLACK
6
CONTINUOUS
10
148.463
20
-106.425
11
148.463
21
-106.625
0
LINE
8
BLACK
6
CONTINUOUS
10
148.463
20
-106.625
11
148.455
21
-106.663
0
LINE
8
BLACK
6
CONTINUOUS
10
148.455
20
-106.663
11
148.433
21
-106.696
0
LINE
8
BLACK
6
CONTINUOUS
10
148.433
20
-106.696
11
148.401
21
-106.717
0
LINE
8
BLACK
6
CONTINUOUS
10
148.401
20
-106.717
11
148.362
21
-106.725
0
LINE
8
BLACK
6
CONTINUOUS
10
148.362
20
-106.725
11
147.088
21
-106.725
0
LINE
8
BLACK
6
CONTINUOUS
10
147.088
20
-106.725
11
147.049
21
-106.717
0
LINE
8
BLACK
6
CONTINUOUS
10
147.049
20
-106.717
11
147.017
21
-106.696
0
LINE
8
BLACK
6
CONTINUOUS
10
147.017
20
-106.696
11
146.995
21
-106.663
0
LINE
8
BLACK
6
CONTINUOUS
10
146.995
20
-106.663
11
146.987
21
-106.625
0
LINE
8
BLACK
6
CONTINUOUS
10
146.987
20
-106.625
11
146.987
21
-106.425
0
LINE
8
BLACK
6
CONTINUOUS
10
146.987
20
-106.425
11
146.995
21
-106.387
0
LINE
8
BLACK
6
CONTINUOUS
10
146.995
20
-106.387
11
147.017
21
-106.354
0
LINE
8
BLACK
6
CONTINUOUS
10
147.017
20
-106.354
11
147.049
21
-106.333
0
LINE
8
BLACK
6
CONTINUOUS
10
147.049
20
-106.333
11
147.088
21
-106.325
0
LINE
8
BLACK
6
CONTINUOUS
10
147.088
20
-106.325
11
148.362
21
-106.325
0
LINE
8
BLACK
6
CONTINUOUS
10
148.362
20
-106.325
11
148.401
21
-106.333
0
LINE
8
BLACK
6
CONTINUOUS
10
142.676
20
-106.333
11
142.708
21
-106.354
0
LINE
8
BLACK
6
CONTINUOUS
10
142.708
20
-106.354
11
142.73
21
-106.387
0
LINE
8
BLACK
6
CONTINUOUS
10
142.73
20
-106.387
11
142.737
21
-106.425
0
LINE
8
BLACK
6
CONTINUOUS
10
142.737
20
-106.425
11
142.737
21
-106.625
0
LINE
8
BLACK
6
CONTINUOUS
10
142.737
20
-106.625
11
142.73
21
-106.663
0
LINE
8
BLACK
6
CONTINUOUS
10
142.73
20
-106.663
11
142.708
21
-106.696
0
LINE
8
BLACK
6
CONTINUOUS
10
142.708
20
-106.696
11
142.676
21
-106.717
0
LINE
8
BLACK
6
CONTINUOUS
10
142.676
20
-106.717
11
142.637
21
-106.725
0
LINE
8
BLACK
6
CONTINUOUS
10
142.637
20
-106.725
11
141.362
21
-106.725
0
LINE
8
BLACK
6
CONTINUOUS
10
141.362
20
-106.725
11
141.324
21
-106.717
0
LINE
8
BLACK
6
CONTINUOUS
10
141.324
20
-106.717
11
141.292
21
-106.696
0
LINE
8
BLACK
6
CONTINUOUS
10
141.292
20
-106.696
11
141.27
21
-106.663
0
LINE
8
BLACK
6
CONTINUOUS
10
141.27
20
-106.663
11
141.262
21
-106.625
0
LINE
8
BLACK
6
CONTINUOUS
10
141.262
20
-106.625
11
141.262
21
-106.425
0
LINE
8
BLACK
6
CONTINUOUS
10
141.262
20
-106.425
11
141.27
21
-106.387
0
LINE
8
BLACK
6
CONTINUOUS
10
141.27
20
-106.387
11
141.292
21
-106.354
0
LINE
8
BLACK
6
CONTINUOUS
10
141.292
20
-106.354
11
141.324
21
-106.333
0
LINE
8
BLACK
6
CONTINUOUS
10
141.324
20
-106.333
11
141.362
21
-106.325
0
LINE
8
BLACK
6
CONTINUOUS
10
141.362
20
-106.325
11
142.637
21
-106.325
0
LINE
8
BLACK
6
CONTINUOUS
10
142.637
20
-106.325
11
142.676
21
-106.333
0
LINE
8
BLACK
6
CONTINUOUS
10
148.401
20
-105.683
11
148.433
21
-105.704
0
LINE
8
BLACK
6
CONTINUOUS
10
148.433
20
-105.704
11
148.455
21
-105.737
0
LINE
8
BLACK
6
CONTINUOUS
10
148.455
20
-105.737
11
148.463
21
-105.775
0
LINE
8
BLACK
6
CONTINUOUS
10
148.463
20
-105.775
11
148.463
21
-105.975
0
LINE
8
BLACK
6
CONTINUOUS
10
148.463
20
-105.975
11
148.455
21
-106.013
0
LINE
8
BLACK
6
CONTINUOUS
10
148.455
20
-106.013
11
148.433
21
-106.046
0
LINE
8
BLACK
6
CONTINUOUS
10
148.433
20
-106.046
11
148.401
21
-106.067
0
LINE
8
BLACK
6
CONTINUOUS
10
148.401
20
-106.067
11
148.362
21
-106.075
0
LINE
8
BLACK
6
CONTINUOUS
10
148.362
20
-106.075
11
147.088
21
-106.075
0
LINE
8
BLACK
6
CONTINUOUS
10
147.088
20
-106.075
11
147.049
21
-106.067
0
LINE
8
BLACK
6
CONTINUOUS
10
147.049
20
-106.067
11
147.017
21
-106.046
0
LINE
8
BLACK
6
CONTINUOUS
10
147.017
20
-106.046
11
146.995
21
-106.013
0
LINE
8
BLACK
6
CONTINUOUS
10
146.995
20
-106.013
11
146.987
21
-105.975
0
LINE
8
BLACK
6
CONTINUOUS
10
146.987
20
-105.975
11
146.987
21
-105.775
0
LINE
8
BLACK
6
CONTINUOUS
10
146.987
20
-105.775
11
146.995
21
-105.737
0
LINE
8
BLACK
6
CONTINUOUS
10
146.995
20
-105.737
11
147.017
21
-105.704
0
LINE
8
BLACK
6
CONTINUOUS
10
147.017
20
-105.704
11
147.049
21
-105.683
0
LINE
8
BLACK
6
CONTINUOUS
10
147.049
20
-105.683
11
147.088
21
-105.675
0
LINE
8
BLACK
6
CONTINUOUS
10
147.088
20
-105.675
11
148.362
21
-105.675
0
LINE
8
BLACK
6
CONTINUOUS
10
148.362
20
-105.675
11
148.401
21
-105.683
0
LINE
8
BLACK
6
CONTINUOUS
10
142.676
20
-105.683
11
142.708
21
-105.704
0
LINE
8
BLACK
6
CONTINUOUS
10
142.708
20
-105.704
11
142.73
21
-105.737
0
LINE
8
BLACK
6
CONTINUOUS
10
142.73
20
-105.737
11
142.737
21
-105.775
0
LINE
8
BLACK
6
CONTINUOUS
10
142.737
20
-105.775
11
142.737
21
-105.975
0
LINE
8
BLACK
6
CONTINUOUS
10
142.737
20
-105.975
11
142.73
21
-106.013
0
LINE
8
BLACK
6
CONTINUOUS
10
142.73
20
-106.013
11
142.708
21
-106.046
0
LINE
8
BLACK
6
CONTINUOUS
10
142.708
20
-106.046
11
142.676
21
-106.067
0
LINE
8
BLACK
6
CONTINUOUS
10
142.676
20
-106.067
11
142.637
21
-106.075
0
LINE
8
BLACK
6
CONTINUOUS
10
142.637
20
-106.075
11
141.362
21
-106.075
0
LINE
8
BLACK
6
CONTINUOUS
10
141.362
20
-106.075
11
141.324
21
-106.067
0
LINE
8
BLACK
6
CONTINUOUS
10
141.324
20
-106.067
11
141.292
21
-106.046
0
LINE
8
BLACK
6
CONTINUOUS
10
141.292
20
-106.046
11
141.27
21
-106.013
0
LINE
8
BLACK
6
CONTINUOUS
10
141.27
20
-106.013
11
141.262
21
-105.975
0
LINE
8
BLACK
6
CONTINUOUS
10
141.262
20
-105.975
11
141.262
21
-105.775
0
LINE
8
BLACK
6
CONTINUOUS
10
141.262
20
-105.775
11
141.27
21
-105.737
0
LINE
8
BLACK
6
CONTINUOUS
10
141.27
20
-105.737
11
141.292
21
-105.704
0
LINE
8
BLACK
6
CONTINUOUS
10
141.292
20
-105.704
11
141.324
21
-105.683
0
LINE
8
BLACK
6
CONTINUOUS
10
141.324
20
-105.683
11
141.362
21
-105.675
0
LINE
8
BLACK
6
CONTINUOUS
10
141.362
20
-105.675
11
142.637
21
-105.675
0
LINE
8
BLACK
6
CONTINUOUS
10
142.637
20
-105.675
11
142.676
21
-105.683
0
LINE
8
BLACK
6
CONTINUOUS
10
148.401
20
-105.033
11
148.433
21
-105.054
0
LINE
8
BLACK
6
CONTINUOUS
10
148.433
20
-105.054
11
148.455
21
-105.087
0
LINE
8
BLACK
6
CONTINUOUS
10
148.455
20
-105.087
11
148.463
21
-105.125
0
LINE
8
BLACK
6
CONTINUOUS
10
148.463
20
-105.125
11
148.463
21
-105.325
0
LINE
8
BLACK
6
CONTINUOUS
10
148.463
20
-105.325
11
148.455
21
-105.363
0
LINE
8
BLACK
6
CONTINUOUS
10
148.455
20
-105.363
11
148.433
21
-105.396
0
LINE
8
BLACK
6
CONTINUOUS
10
148.433
20
-105.396
11
148.401
21
-105.417
0
LINE
8
BLACK
6
CONTINUOUS
10
148.401
20
-105.417
11
148.362
21
-105.425
0
LINE
8
BLACK
6
CONTINUOUS
10
148.362
20
-105.425
11
147.088
21
-105.425
0
LINE
8
BLACK
6
CONTINUOUS
10
147.088
20
-105.425
11
147.049
21
-105.417
0
LINE
8
BLACK
6
CONTINUOUS
10
147.049
20
-105.417
11
147.017
21
-105.396
0
LINE
8
BLACK
6
CONTINUOUS
10
147.017
20
-105.396
11
146.995
21
-105.363
0
LINE
8
BLACK
6
CONTINUOUS
10
146.995
20
-105.363
11
146.987
21
-105.325
0
LINE
8
BLACK
6
CONTINUOUS
10
146.987
20
-105.325
11
146.987
21
-105.125
0
LINE
8
BLACK
6
CONTINUOUS
10
146.987
20
-105.125
11
146.995
21
-105.087
0
LINE
8
BLACK
6
CONTINUOUS
10
146.995
20
-105.087
11
147.017
21
-105.054
0
LINE
8
BLACK
6
CONTINUOUS
10
147.017
20
-105.054
11
147.049
21
-105.033
0
LINE
8
BLACK
6
CONTINUOUS
10
147.049
20
-105.033
11
147.088
21
-105.025
0
LINE
8
BLACK
6
CONTINUOUS
10
147.088
20
-105.025
11
148.362
21
-105.025
0
LINE
8
BLACK
6
CONTINUOUS
10
148.362
20
-105.025
11
148.401
21
-105.033
0
LINE
8
BLACK
6
CONTINUOUS
10
142.676
20
-105.033
11
142.708
21
-105.054
0
LINE
8
BLACK
6
CONTINUOUS
10
142.708
20
-105.054
11
142.73
21
-105.087
0
LINE
8
BLACK
6
CONTINUOUS
10
142.73
20
-105.087
11
142.737
21
-105.125
0
LINE
8
BLACK
6
CONTINUOUS
10
142.737
20
-105.125
11
142.737
21
-105.325
0
LINE
8
BLACK
6
CONTINUOUS
10
142.737
20
-105.325
11
142.73
21
-105.363
0
LINE
8
BLACK
6
CONTINUOUS
10
142.73
20
-105.363
11
142.708
21
-105.396
0
LINE
8
BLACK
6
CONTINUOUS
10
142.708
20
-105.396
11
142.676
21
-105.417
0
LINE
8
BLACK
6
CONTINUOUS
10
142.676
20
-105.417
11
142.637
21
-105.425
0
LINE
8
BLACK
6
CONTINUOUS
10
142.637
20
-105.425
11
141.362
21
-105.425
0
LINE
8
BLACK
6
CONTINUOUS
10
141.362
20
-105.425
11
141.324
21
-105.417
0
LINE
8
BLACK
6
CONTINUOUS
10
141.324
20
-105.417
11
141.292
21
-105.396
0
LINE
8
BLACK
6
CONTINUOUS
10
141.292
20
-105.396
11
141.27
21
-105.363
0
LINE
8
BLACK
6
CONTINUOUS
10
141.27
20
-105.363
11
141.262
21
-105.325
0
LINE
8
BLACK
6
CONTINUOUS
10
141.262
20
-105.325
11
141.262
21
-105.125
0
LINE
8
BLACK
6
CONTINUOUS
10
141.262
20
-105.125
11
141.27
21
-105.087
0
LINE
8
BLACK
6
CONTINUOUS
10
141.27
20
-105.087
11
141.292
21
-105.054
0
LINE
8
BLACK
6
CONTINUOUS
10
141.292
20
-105.054
11
141.324
21
-105.033
0
LINE
8
BLACK
6
CONTINUOUS
10
141.324
20
-105.033
11
141.362
21
-105.025
0
LINE
8
BLACK
6
CONTINUOUS
10
141.362
20
-105.025
11
142.637
21
-105.025
0
LINE
8
BLACK
6
CONTINUOUS
10
142.637
20
-105.025
11
142.676
21
-105.033
0
LINE
8
BLACK
6
CONTINUOUS
10
148.401
20
-104.383
11
148.433
21
-104.404
0
LINE
8
BLACK
6
CONTINUOUS
10
148.433
20
-104.404
11
148.455
21
-104.437
0
LINE
8
BLACK
6
CONTINUOUS
10
148.455
20
-104.437
11
148.463
21
-104.475
0
LINE
8
BLACK
6
CONTINUOUS
10
148.463
20
-104.475
11
148.463
21
-104.675
0
LINE
8
BLACK
6
CONTINUOUS
10
148.463
20
-104.675
11
148.455
21
-104.713
0
LINE
8
BLACK
6
CONTINUOUS
10
148.455
20
-104.713
11
148.433
21
-104.746
0
LINE
8
BLACK
6
CONTINUOUS
10
148.433
20
-104.746
11
148.401
21
-104.767
0
LINE
8
BLACK
6
CONTINUOUS
10
148.401
20
-104.767
11
148.362
21
-104.775
0
LINE
8
BLACK
6
CONTINUOUS
10
148.362
20
-104.775
11
147.088
21
-104.775
0
LINE
8
BLACK
6
CONTINUOUS
10
147.088
20
-104.775
11
147.049
21
-104.767
0
LINE
8
BLACK
6
CONTINUOUS
10
147.049
20
-104.767
11
147.017
21
-104.746
0
LINE
8
BLACK
6
CONTINUOUS
10
147.017
20
-104.746
11
146.995
21
-104.713
0
LINE
8
BLACK
6
CONTINUOUS
10
146.995
20
-104.713
11
146.987
21
-104.675
0
LINE
8
BLACK
6
CONTINUOUS
10
146.987
20
-104.675
11
146.987
21
-104.475
0
LINE
8
BLACK
6
CONTINUOUS
10
146.987
20
-104.475
11
146.995
21
-104.437
0
LINE
8
BLACK
6
CONTINUOUS
10
146.995
20
-104.437
11
147.017
21
-104.404
0
LINE
8
BLACK
6
CONTINUOUS
10
147.017
20
-104.404
11
147.049
21
-104.383
0
LINE
8
BLACK
6
CONTINUOUS
10
147.049
20
-104.383
11
147.088
21
-104.375
0
LINE
8
BLACK
6
CONTINUOUS
10
147.088
20
-104.375
11
148.362
21
-104.375
0
LINE
8
BLACK
6
CONTINUOUS
10
148.362
20
-104.375
11
148.401
21
-104.383
0
LINE
8
BLACK
6
CONTINUOUS
10
142.676
20
-104.383
11
142.708
21
-104.404
0
LINE
8
BLACK
6
CONTINUOUS
10
142.708
20
-104.404
11
142.73
21
-104.437
0
LINE
8
BLACK
6
CONTINUOUS
10
142.73
20
-104.437
11
142.737
21
-104.475
0
LINE
8
BLACK
6
CONTINUOUS
10
142.737
20
-104.475
11
142.737
21
-104.675
0
LINE
8
BLACK
6
CONTINUOUS
10
142.737
20
-104.675
11
142.73
21
-104.713
0
LINE
8
BLACK
6
CONTINUOUS
10
142.73
20
-104.713
11
142.708
21
-104.746
0
LINE
8
BLACK
6
CONTINUOUS
10
142.708
20
-104.746
11
142.676
21
-104.767
0
LINE
8
BLACK
6
CONTINUOUS
10
142.676
20
-104.767
11
142.637
21
-104.775
0
LINE
8
BLACK
6
CONTINUOUS
10
142.637
20
-104.775
11
141.362
21
-104.775
0
LINE
8
BLACK
6
CONTINUOUS
10
141.362
20
-104.775
11
141.324
21
-104.767
0
LINE
8
BLACK
6
CONTINUOUS
10
141.324
20
-104.767
11
141.292
21
-104.746
0
LINE
8
BLACK
6
CONTINUOUS
10
141.292
20
-104.746
11
141.27
21
-104.713
0
LINE
8
BLACK
6
CONTINUOUS
10
141.27
20
-104.713
11
141.262
21
-104.675
0
LINE
8
BLACK
6
CONTINUOUS
10
141.262
20
-104.675
11
141.262
21
-104.475
0
LINE
8
BLACK
6
CONTINUOUS
10
141.262
20
-104.475
11
141.27
21
-104.437
0
LINE
8
BLACK
6
CONTINUOUS
10
141.27
20
-104.437
11
141.292
21
-104.404
0
LINE
8
BLACK
6
CONTINUOUS
10
141.292
20
-104.404
11
141.324
21
-104.383
0
LINE
8
BLACK
6
CONTINUOUS
10
141.324
20
-104.383
11
141.362
21
-104.375
0
LINE
8
BLACK
6
CONTINUOUS
10
141.362
20
-104.375
11
142.637
21
-104.375
0
LINE
8
BLACK
6
CONTINUOUS
10
142.637
20
-104.375
11
142.676
21
-104.383
0
LINE
8
BLACK
6
CONTINUOUS
10
148.401
20
-103.733
11
148.433
21
-103.754
0
LINE
8
BLACK
6
CONTINUOUS
10
148.433
20
-103.754
11
148.455
21
-103.787
0
LINE
8
BLACK
6
CONTINUOUS
10
148.455
20
-103.787
11
148.463
21
-103.825
0
LINE
8
BLACK
6
CONTINUOUS
10
148.463
20
-103.825
11
148.463
21
-104.025
0
LINE
8
BLACK
6
CONTINUOUS
10
148.463
20
-104.025
11
148.455
21
-104.063
0
LINE
8
BLACK
6
CONTINUOUS
10
148.455
20
-104.063
11
148.433
21
-104.096
0
LINE
8
BLACK
6
CONTINUOUS
10
148.433
20
-104.096
11
148.401
21
-104.117
0
LINE
8
BLACK
6
CONTINUOUS
10
148.401
20
-104.117
11
148.362
21
-104.125
0
LINE
8
BLACK
6
CONTINUOUS
10
148.362
20
-104.125
11
147.088
21
-104.125
0
LINE
8
BLACK
6
CONTINUOUS
10
147.088
20
-104.125
11
147.049
21
-104.117
0
LINE
8
BLACK
6
CONTINUOUS
10
147.049
20
-104.117
11
147.017
21
-104.096
0
LINE
8
BLACK
6
CONTINUOUS
10
147.017
20
-104.096
11
146.995
21
-104.063
0
LINE
8
BLACK
6
CONTINUOUS
10
146.995
20
-104.063
11
146.987
21
-104.025
0
LINE
8
BLACK
6
CONTINUOUS
10
146.987
20
-104.025
11
146.987
21
-103.825
0
LINE
8
BLACK
6
CONTINUOUS
10
146.987
20
-103.825
11
146.995
21
-103.787
0
LINE
8
BLACK
6
CONTINUOUS
10
146.995
20
-103.787
11
147.017
21
-103.754
0
LINE
8
BLACK
6
CONTINUOUS
10
147.017
20
-103.754
11
147.049
21
-103.733
0
LINE
8
BLACK
6
CONTINUOUS
10
147.049
20
-103.733
11
147.088
21
-103.725
0
LINE
8
BLACK
6
CONTINUOUS
10
147.088
20
-103.725
11
148.362
21
-103.725
0
LINE
8
BLACK
6
CONTINUOUS
10
148.362
20
-103.725
11
148.401
21
-103.733
0
LINE
8
BLACK
6
CONTINUOUS
10
142.676
20
-103.733
11
142.708
21
-103.754
0
LINE
8
BLACK
6
CONTINUOUS
10
142.708
20
-103.754
11
142.73
21
-103.787
0
LINE
8
BLACK
6
CONTINUOUS
10
142.73
20
-103.787
11
142.737
21
-103.825
0
LINE
8
BLACK
6
CONTINUOUS
10
142.737
20
-103.825
11
142.737
21
-104.025
0
LINE
8
BLACK
6
CONTINUOUS
10
142.737
20
-104.025
11
142.73
21
-104.063
0
LINE
8
BLACK
6
CONTINUOUS
10
142.73
20
-104.063
11
142.708
21
-104.096
0
LINE
8
BLACK
6
CONTINUOUS
10
142.708
20
-104.096
11
142.676
21
-104.117
0
LINE
8
BLACK
6
CONTINUOUS
10
142.676
20
-104.117
11
142.637
21
-104.125
0
LINE
8
BLACK
6
CONTINUOUS
10
142.637
20
-104.125
11
141.362
21
-104.125
0
LINE
8
BLACK
6
CONTINUOUS
10
141.362
20
-104.125
11
141.324
21
-104.117
0
LINE
8
BLACK
6
CONTINUOUS
10
141.324
20
-104.117
11
141.292
21
-104.096
0
LINE
8
BLACK
6
CONTINUOUS
10
141.292
20
-104.096
11
141.27
21
-104.063
0
LINE
8
BLACK
6
CONTINUOUS
10
141.27
20
-104.063
11
141.262
21
-104.025
0
LINE
8
BLACK
6
CONTINUOUS
10
141.262
20
-104.025
11
141.262
21
-103.825
0
LINE
8
BLACK
6
CONTINUOUS
10
141.262
20
-103.825
11
141.27
21
-103.787
0
LINE
8
BLACK
6
CONTINUOUS
10
141.27
20
-103.787
11
141.292
21
-103.754
0
LINE
8
BLACK
6
CONTINUOUS
10
141.292
20
-103.754
11
141.324
21
-103.733
0
LINE
8
BLACK
6
CONTINUOUS
10
141.324
20
-103.733
11
141.362
21
-103.725
0
LINE
8
BLACK
6
CONTINUOUS
10
141.362
20
-103.725
11
142.637
21
-103.725
0
LINE
8
BLACK
6
CONTINUOUS
10
142.637
20
-103.725
11
142.676
21
-103.733
0
LINE
8
BLACK
6
CONTINUOUS
10
148.401
20
-103.083
11
148.433
21
-103.104
0
LINE
8
BLACK
6
CONTINUOUS
10
148.433
20
-103.104
11
148.455
21
-103.137
0
LINE
8
BLACK
6
CONTINUOUS
10
148.455
20
-103.137
11
148.463
21
-103.175
0
LINE
8
BLACK
6
CONTINUOUS
10
148.463
20
-103.175
11
148.463
21
-103.375
0
LINE
8
BLACK
6
CONTINUOUS
10
148.463
20
-103.375
11
148.455
21
-103.413
0
LINE
8
BLACK
6
CONTINUOUS
10
148.455
20
-103.413
11
148.433
21
-103.446
0
LINE
8
BLACK
6
CONTINUOUS
10
148.433
20
-103.446
11
148.401
21
-103.467
0
LINE
8
BLACK
6
CONTINUOUS
10
148.401
20
-103.467
11
148.362
21
-103.475
0
LINE
8
BLACK
6
CONTINUOUS
10
148.362
20
-103.475
11
147.088
21
-103.475
0
LINE
8
BLACK
6
CONTINUOUS
10
147.088
20
-103.475
11
147.049
21
-103.467
0
LINE
8
BLACK
6
CONTINUOUS
10
147.049
20
-103.467
11
147.017
21
-103.446
0
LINE
8
BLACK
6
CONTINUOUS
10
147.017
20
-103.446
11
146.995
21
-103.413
0
LINE
8
BLACK
6
CONTINUOUS
10
146.995
20
-103.413
11
146.987
21
-103.375
0
LINE
8
BLACK
6
CONTINUOUS
10
146.987
20
-103.375
11
146.987
21
-103.175
0
LINE
8
BLACK
6
CONTINUOUS
10
146.987
20
-103.175
11
146.995
21
-103.137
0
LINE
8
BLACK
6
CONTINUOUS
10
146.995
20
-103.137
11
147.017
21
-103.104
0
LINE
8
BLACK
6
CONTINUOUS
10
147.017
20
-103.104
11
147.049
21
-103.083
0
LINE
8
BLACK
6
CONTINUOUS
10
147.049
20
-103.083
11
147.088
21
-103.075
0
LINE
8
BLACK
6
CONTINUOUS
10
147.088
20
-103.075
11
148.362
21
-103.075
0
LINE
8
BLACK
6
CONTINUOUS
10
148.362
20
-103.075
11
148.401
21
-103.083
0
LINE
8
BLACK
6
CONTINUOUS
10
142.676
20
-103.083
11
142.708
21
-103.104
0
LINE
8
BLACK
6
CONTINUOUS
10
142.708
20
-103.104
11
142.73
21
-103.137
0
LINE
8
BLACK
6
CONTINUOUS
10
142.73
20
-103.137
11
142.737
21
-103.175
0
LINE
8
BLACK
6
CONTINUOUS
10
142.737
20
-103.175
11
142.737
21
-103.375
0
LINE
8
BLACK
6
CONTINUOUS
10
142.737
20
-103.375
11
142.73
21
-103.413
0
LINE
8
BLACK
6
CONTINUOUS
10
142.73
20
-103.413
11
142.708
21
-103.446
0
LINE
8
BLACK
6
CONTINUOUS
10
142.708
20
-103.446
11
142.676
21
-103.467
0
LINE
8
BLACK
6
CONTINUOUS
10
142.676
20
-103.467
11
142.637
21
-103.475
0
LINE
8
BLACK
6
CONTINUOUS
10
142.637
20
-103.475
11
141.362
21
-103.475
0
LINE
8
BLACK
6
CONTINUOUS
10
141.362
20
-103.475
11
141.324
21
-103.467
0
LINE
8
BLACK
6
CONTINUOUS
10
141.324
20
-103.467
11
141.292
21
-103.446
0
LINE
8
BLACK
6
CONTINUOUS
10
141.292
20
-103.446
11
141.27
21
-103.413
0
LINE
8
BLACK
6
CONTINUOUS
10
141.27
20
-103.413
11
141.262
21
-103.375
0
LINE
8
BLACK
6
CONTINUOUS
10
141.262
20
-103.375
11
141.262
21
-103.175
0
LINE
8
BLACK
6
CONTINUOUS
10
141.262
20
-103.175
11
141.27
21
-103.137
0
LINE
8
BLACK
6
CONTINUOUS
10
141.27
20
-103.137
11
141.292
21
-103.104
0
LINE
8
BLACK
6
CONTINUOUS
10
141.292
20
-103.104
11
141.324
21
-103.083
0
LINE
8
BLACK
6
CONTINUOUS
10
141.324
20
-103.083
11
141.362
21
-103.075
0
LINE
8
BLACK
6
CONTINUOUS
10
141.362
20
-103.075
11
142.637
21
-103.075
0
LINE
8
BLACK
6
CONTINUOUS
10
142.637
20
-103.075
11
142.676
21
-103.083
0
LINE
8
BLACK
6
CONTINUOUS
10
148.401
20
-102.433
11
148.433
21
-102.454
0
LINE
8
BLACK
6
CONTINUOUS
10
148.433
20
-102.454
11
148.455
21
-102.487
0
LINE
8
BLACK
6
CONTINUOUS
10
148.455
20
-102.487
11
148.463
21
-102.525
0
LINE
8
BLACK
6
CONTINUOUS
10
148.463
20
-102.525
11
148.463
21
-102.725
0
LINE
8
BLACK
6
CONTINUOUS
10
148.463
20
-102.725
11
148.455
21
-102.763
0
LINE
8
BLACK
6
CONTINUOUS
10
148.455
20
-102.763
11
148.433
21
-102.796
0
LINE
8
BLACK
6
CONTINUOUS
10
148.433
20
-102.796
11
148.401
21
-102.817
0
LINE
8
BLACK
6
CONTINUOUS
10
148.401
20
-102.817
11
148.362
21
-102.825
0
LINE
8
BLACK
6
CONTINUOUS
10
148.362
20
-102.825
11
147.088
21
-102.825
0
LINE
8
BLACK
6
CONTINUOUS
10
147.088
20
-102.825
11
147.049
21
-102.817
0
LINE
8
BLACK
6
CONTINUOUS
10
147.049
20
-102.817
11
147.017
21
-102.796
0
LINE
8
BLACK
6
CONTINUOUS
10
147.017
20
-102.796
11
146.995
21
-102.763
0
LINE
8
BLACK
6
CONTINUOUS
10
146.995
20
-102.763
11
146.987
21
-102.725
0
LINE
8
BLACK
6
CONTINUOUS
10
146.987
20
-102.725
11
146.987
21
-102.525
0
LINE
8
BLACK
6
CONTINUOUS
10
146.987
20
-102.525
11
146.995
21
-102.487
0
LINE
8
BLACK
6
CONTINUOUS
10
146.995
20
-102.487
11
147.017
21
-102.454
0
LINE
8
BLACK
6
CONTINUOUS
10
147.017
20
-102.454
11
147.049
21
-102.433
0
LINE
8
BLACK
6
CONTINUOUS
10
147.049
20
-102.433
11
147.088
21
-102.425
0
LINE
8
BLACK
6
CONTINUOUS
10
147.088
20
-102.425
11
148.362
21
-102.425
0
LINE
8
BLACK
6
CONTINUOUS
10
148.362
20
-102.425
11
148.401
21
-102.433
0
LINE
8
BLACK
6
CONTINUOUS
10
142.676
20
-102.433
11
142.708
21
-102.454
0
LINE
8
BLACK
6
CONTINUOUS
10
142.708
20
-102.454
11
142.73
21
-102.487
0
LINE
8
BLACK
6
CONTINUOUS
10
142.73
20
-102.487
11
142.737
21
-102.525
0
LINE
8
BLACK
6
CONTINUOUS
10
142.737
20
-102.525
11
142.737
21
-102.725
0
LINE
8
BLACK
6
CONTINUOUS
10
142.737
20
-102.725
11
142.73
21
-102.763
0
LINE
8
BLACK
6
CONTINUOUS
10
142.73
20
-102.763
11
142.708
21
-102.796
0
LINE
8
BLACK
6
CONTINUOUS
10
142.708
20
-102.796
11
142.676
21
-102.817
0
LINE
8
BLACK
6
CONTINUOUS
10
142.676
20
-102.817
11
142.637
21
-102.825
0
LINE
8
BLACK
6
CONTINUOUS
10
142.637
20
-102.825
11
141.362
21
-102.825
0
LINE
8
BLACK
6
CONTINUOUS
10
141.362
20
-102.825
11
141.324
21
-102.817
0
LINE
8
BLACK
6
CONTINUOUS
10
141.324
20
-102.817
11
141.292
21
-102.796
0
LINE
8
BLACK
6
CONTINUOUS
10
141.292
20
-102.796
11
141.27
21
-102.763
0
LINE
8
BLACK
6
CONTINUOUS
10
141.27
20
-102.763
11
141.262
21
-102.725
0
LINE
8
BLACK
6
CONTINUOUS
10
141.262
20
-102.725
11
141.262
21
-102.525
0
LINE
8
BLACK
6
CONTINUOUS
10
141.262
20
-102.525
11
141.27
21
-102.487
0
LINE
8
BLACK
6
CONTINUOUS
10
141.27
20
-102.487
11
141.292
21
-102.454
0
LINE
8
BLACK
6
CONTINUOUS
10
141.292
20
-102.454
11
141.324
21
-102.433
0
LINE
8
BLACK
6
CONTINUOUS
10
141.324
20
-102.433
11
141.362
21
-102.425
0
LINE
8
BLACK
6
CONTINUOUS
10
141.362
20
-102.425
11
142.637
21
-102.425
0
LINE
8
BLACK
6
CONTINUOUS
10
142.637
20
-102.425
11
142.676
21
-102.433
  0
ENDSEC
  0
EOF
