  0
SECTION
  2
HEADER
  9
$ANGBASE
  50
0.0
  9
$ANGDIR
  70
1
  9
$MEASUREMENT
  70
1
  0
ENDSEC
  0
SECTION
  2
TABLES
  0
TABLE
  2
LTYPE
  70
4
  0
LTYPE
  5
40F
  2
CONTINUOUS
  70
0
  3
Solid line
  72
65
  73
0
  40
0.0
  0
LTYPE
  5
410
  2
DASHDOT
 70
0
  3
Dash Dot ____ _ ____ _
 72
65
 73
4
 40
2.0
 49
1.25
 49
-0.25
 49
0.25
 49
-0.25
  0
LTYPE
  5
411
  2
DASHED
 70
0
  3
Dashed __ __ __ __ __
 72
65
 73
2
 40
0.75
 49
0.5
 49
-0.25
  0
LTYPE
  5
43B
  2
DOTTED
 70
0
  3
Dotted .  .  .  .
 72
65
 73
2
 40
0.2
 49
0.0
 49
-0.2
  0
ENDTAB
  0
TABLE
  2
STYLE
  70
4
  0
STYLE
  2
KICAD
  70
0
  40
0
  41
1
  42
1
  50
0
  71
0
  3
isocp.shx
  0
STYLE
  2
KICADB
  70
0
  40
0
  41
1
  42
1
  50
0
  71
0
  3
isocp.shx
  0
STYLE
  2
KICADI
  70
0
  40
0
  41
1
  42
1
  50
15
  71
0
  3
isocp.shx
  0
STYLE
  2
KICADBI
  70
0
  40
0
  41
1
  42
1
  50
15
  71
0
  3
isocp.shx
  0
ENDTAB
  0
TABLE
  2
LAYER
  70
1
  0
LAYER
  2
BLACK
  70
0
  62
7
  6
CONTINUOUS
  0
ENDTAB
  0
ENDSEC
  0
SECTION
  2
ENTITIES
0
LINE
8
BLACK
6
CONTINUOUS
10
117.237
20
-102.824
11
117.319
21
-101.814
0
LINE
8
BLACK
6
CONTINUOUS
10
117.319
20
-101.814
11
117.438
21
-100.807
0
LINE
8
BLACK
6
CONTINUOUS
10
117.438
20
-100.807
11
117.594
21
-99.8048
0
LINE
8
BLACK
6
CONTINUOUS
10
117.594
20
-99.8048
11
117.787
21
-98.8092
0
LINE
8
BLACK
6
CONTINUOUS
10
117.787
20
-98.8092
11
118.016
21
-97.8214
0
LINE
8
BLACK
6
CONTINUOUS
10
118.016
20
-97.8214
11
118.281
21
-96.8426
0
LINE
8
BLACK
6
CONTINUOUS
10
118.281
20
-96.8426
11
118.581
21
-95.8742
0
LINE
8
BLACK
6
CONTINUOUS
10
118.581
20
-95.8742
11
118.917
21
-94.9175
0
LINE
8
BLACK
6
CONTINUOUS
10
118.917
20
-94.9175
11
119.288
21
-93.9737
0
LINE
8
BLACK
6
CONTINUOUS
10
119.288
20
-93.9737
11
119.693
21
-93.0441
0
LINE
8
BLACK
6
CONTINUOUS
10
119.693
20
-93.0441
11
120.132
21
-92.13
0
LINE
8
BLACK
6
CONTINUOUS
10
120.132
20
-92.13
11
120.604
21
-91.2326
0
LINE
8
BLACK
6
CONTINUOUS
10
120.604
20
-91.2326
11
121.109
21
-90.3531
0
LINE
8
BLACK
6
CONTINUOUS
10
121.109
20
-90.3531
11
121.646
21
-89.4927
0
LINE
8
BLACK
6
CONTINUOUS
10
121.646
20
-89.4927
11
122.213
21
-88.6525
0
LINE
8
BLACK
6
CONTINUOUS
10
122.213
20
-88.6525
11
122.812
21
-87.8337
0
LINE
8
BLACK
6
CONTINUOUS
10
122.812
20
-87.8337
11
123.439
21
-87.0374
0
LINE
8
BLACK
6
CONTINUOUS
10
123.439
20
-87.0374
11
124.096
21
-86.2646
0
LINE
8
BLACK
6
CONTINUOUS
10
124.096
20
-86.2646
11
124.78
21
-85.5164
0
LINE
8
BLACK
6
CONTINUOUS
10
124.78
20
-85.5164
11
125.492
21
-84.7937
0
LINE
8
BLACK
6
CONTINUOUS
10
125.492
20
-84.7937
11
126.229
21
-84.0977
0
LINE
8
BLACK
6
CONTINUOUS
10
126.229
20
-84.0977
11
126.992
21
-83.4291
0
LINE
8
BLACK
6
CONTINUOUS
10
126.992
20
-83.4291
11
127.778
21
-82.7889
0
LINE
8
BLACK
6
CONTINUOUS
10
127.778
20
-82.7889
11
128.587
21
-82.1779
0
LINE
8
BLACK
6
CONTINUOUS
10
128.587
20
-82.1779
11
129.418
21
-81.597
0
LINE
8
BLACK
6
CONTINUOUS
10
129.418
20
-81.597
11
130.27
21
-81.047
0
LINE
8
BLACK
6
CONTINUOUS
10
130.27
20
-81.047
11
131.142
21
-80.5285
0
LINE
8
BLACK
6
CONTINUOUS
10
131.142
20
-80.5285
11
132.032
21
-80.0423
0
LINE
8
BLACK
6
CONTINUOUS
10
132.032
20
-80.0423
11
132.939
21
-79.5891
0
LINE
8
BLACK
6
CONTINUOUS
10
132.939
20
-79.5891
11
133.862
21
-79.1694
0
LINE
8
BLACK
6
CONTINUOUS
10
133.862
20
-79.1694
11
134.8
21
-78.7838
0
LINE
8
BLACK
6
CONTINUOUS
10
134.8
20
-78.7838
11
135.751
21
-78.4328
0
LINE
8
BLACK
6
CONTINUOUS
10
135.751
20
-78.4328
11
136.715
21
-78.1169
0
LINE
8
BLACK
6
CONTINUOUS
10
136.715
20
-78.1169
11
137.689
21
-77.8366
0
LINE
8
BLACK
6
CONTINUOUS
10
137.689
20
-77.8366
11
138.673
21
-77.5921
0
LINE
8
BLACK
6
CONTINUOUS
10
138.673
20
-77.5921
11
139.666
21
-77.3839
0
LINE
8
BLACK
6
CONTINUOUS
10
139.666
20
-77.3839
11
140.665
21
-77.2121
0
LINE
8
BLACK
6
CONTINUOUS
10
140.665
20
-77.2121
11
141.67
21
-77.0772
0
LINE
8
BLACK
6
CONTINUOUS
10
141.67
20
-77.0772
11
142.679
21
-76.9791
0
LINE
8
BLACK
6
CONTINUOUS
10
142.679
20
-76.9791
11
143.691
21
-76.9181
0
LINE
8
BLACK
6
CONTINUOUS
10
143.691
20
-76.9181
11
144.705
21
-76.8942
0
LINE
8
BLACK
6
CONTINUOUS
10
144.705
20
-76.8942
11
145.719
21
-76.9075
0
LINE
8
BLACK
6
CONTINUOUS
10
145.719
20
-76.9075
11
146.732
21
-76.9579
0
LINE
8
BLACK
6
CONTINUOUS
10
146.732
20
-76.9579
11
147.742
21
-77.0454
0
LINE
8
BLACK
6
CONTINUOUS
10
147.742
20
-77.0454
11
148.748
21
-77.1698
0
LINE
8
BLACK
6
CONTINUOUS
10
148.748
20
-77.1698
11
149.75
21
-77.3311
0
LINE
8
BLACK
6
CONTINUOUS
10
149.75
20
-77.3311
11
150.744
21
-77.5289
0
LINE
8
BLACK
6
CONTINUOUS
10
150.744
20
-77.5289
11
151.731
21
-77.763
0
LINE
8
BLACK
6
CONTINUOUS
10
151.731
20
-77.763
11
152.708
21
-78.0332
0
LINE
8
BLACK
6
CONTINUOUS
10
152.708
20
-78.0332
11
153.675
21
-78.3389
0
LINE
8
BLACK
6
CONTINUOUS
10
153.675
20
-78.3389
11
154.63
21
-78.6799
0
LINE
8
BLACK
6
CONTINUOUS
10
154.63
20
-78.6799
11
155.572
21
-79.0557
0
LINE
8
BLACK
6
CONTINUOUS
10
155.572
20
-79.0557
11
156.499
21
-79.4657
0
LINE
8
BLACK
6
CONTINUOUS
10
156.499
20
-79.4657
11
157.411
21
-79.9094
0
LINE
8
BLACK
6
CONTINUOUS
10
157.411
20
-79.9094
11
158.306
21
-80.3863
0
LINE
8
BLACK
6
CONTINUOUS
10
158.306
20
-80.3863
11
159.183
21
-80.8956
0
LINE
8
BLACK
6
CONTINUOUS
10
159.183
20
-80.8956
11
160.04
21
-81.4367
0
LINE
8
BLACK
6
CONTINUOUS
10
160.04
20
-81.4367
11
160.878
21
-82.0088
0
LINE
8
BLACK
6
CONTINUOUS
10
160.878
20
-82.0088
11
161.693
21
-82.6113
0
LINE
8
BLACK
6
CONTINUOUS
10
161.693
20
-82.6113
11
162.486
21
-83.2432
0
LINE
8
BLACK
6
CONTINUOUS
10
162.486
20
-83.2432
11
163.256
21
-83.9038
0
LINE
8
BLACK
6
CONTINUOUS
10
163.256
20
-83.9038
11
164
21
-84.5921
0
LINE
8
BLACK
6
CONTINUOUS
10
164
20
-84.5921
11
164.719
21
-85.3073
0
LINE
8
BLACK
6
CONTINUOUS
10
164.719
20
-85.3073
11
165.411
21
-86.0483
0
LINE
8
BLACK
6
CONTINUOUS
10
165.411
20
-86.0483
11
166.076
21
-86.8141
0
LINE
8
BLACK
6
CONTINUOUS
10
166.076
20
-86.8141
11
166.712
21
-87.6039
0
LINE
8
BLACK
6
CONTINUOUS
10
166.712
20
-87.6039
11
167.319
21
-88.4163
0
LINE
8
BLACK
6
CONTINUOUS
10
167.319
20
-88.4163
11
167.895
21
-89.2505
0
LINE
8
BLACK
6
CONTINUOUS
10
167.895
20
-89.2505
11
168.441
21
-90.1053
0
LINE
8
BLACK
6
CONTINUOUS
10
168.441
20
-90.1053
11
168.955
21
-90.9794
0
LINE
8
BLACK
6
CONTINUOUS
10
168.955
20
-90.9794
11
169.436
21
-91.8718
0
LINE
8
BLACK
6
CONTINUOUS
10
169.436
20
-91.8718
11
169.885
21
-92.7813
0
LINE
8
BLACK
6
CONTINUOUS
10
169.885
20
-92.7813
11
170.3
21
-93.7066
0
LINE
8
BLACK
6
CONTINUOUS
10
170.3
20
-93.7066
11
170.68
21
-94.6464
0
LINE
8
BLACK
6
CONTINUOUS
10
170.68
20
-94.6464
11
171.026
21
-95.5996
0
LINE
8
BLACK
6
CONTINUOUS
10
171.026
20
-95.5996
11
171.337
21
-96.5648
0
LINE
8
BLACK
6
CONTINUOUS
10
171.337
20
-96.5648
11
171.612
21
-97.5408
0
LINE
8
BLACK
6
CONTINUOUS
10
171.612
20
-97.5408
11
171.852
21
-98.5262
0
LINE
8
BLACK
6
CONTINUOUS
10
171.852
20
-98.5262
11
172.055
21
-99.5196
0
LINE
8
BLACK
6
CONTINUOUS
10
172.055
20
-99.5196
11
172.221
21
-100.52
0
LINE
8
BLACK
6
CONTINUOUS
10
172.221
20
-100.52
11
172.351
21
-101.526
0
LINE
8
BLACK
6
CONTINUOUS
10
172.351
20
-101.526
11
172.444
21
-102.535
0
LINE
8
BLACK
6
CONTINUOUS
10
172.444
20
-102.535
11
172.499
21
-103.548
0
LINE
8
BLACK
6
CONTINUOUS
10
172.499
20
-103.548
11
172.518
21
-104.562
0
LINE
8
BLACK
6
CONTINUOUS
10
172.518
20
-104.562
11
172.515
21
-104.996
0
LINE
8
BLACK
6
CONTINUOUS
10
172.515
20
-104.996
11
172.48
21
-106.01
0
LINE
8
BLACK
6
CONTINUOUS
10
172.48
20
-106.01
11
172.408
21
-107.021
0
LINE
8
BLACK
6
CONTINUOUS
10
172.408
20
-107.021
11
172.3
21
-108.029
0
LINE
8
BLACK
6
CONTINUOUS
10
172.3
20
-108.029
11
172.154
21
-109.033
0
LINE
8
BLACK
6
CONTINUOUS
10
172.154
20
-109.033
11
171.972
21
-110.03
0
LINE
8
BLACK
6
CONTINUOUS
10
171.972
20
-110.03
11
171.753
21
-111.021
0
LINE
8
BLACK
6
CONTINUOUS
10
171.753
20
-111.021
11
171.499
21
-112.002
0
LINE
8
BLACK
6
CONTINUOUS
10
171.499
20
-112.002
11
171.208
21
-112.974
0
LINE
8
BLACK
6
CONTINUOUS
10
171.208
20
-112.974
11
170.882
21
-113.934
0
LINE
8
BLACK
6
CONTINUOUS
10
170.882
20
-113.934
11
170.521
21
-114.882
0
LINE
8
BLACK
6
CONTINUOUS
10
170.521
20
-114.882
11
170.126
21
-115.815
0
LINE
8
BLACK
6
CONTINUOUS
10
170.126
20
-115.815
11
169.697
21
-116.734
0
LINE
8
BLACK
6
CONTINUOUS
10
169.697
20
-116.734
11
169.234
21
-117.636
0
LINE
8
BLACK
6
CONTINUOUS
10
169.234
20
-117.636
11
168.738
21
-118.521
0
LINE
8
BLACK
6
CONTINUOUS
10
168.738
20
-118.521
11
168.211
21
-119.387
0
LINE
8
BLACK
6
CONTINUOUS
10
168.211
20
-119.387
11
167.652
21
-120.233
0
LINE
8
BLACK
6
CONTINUOUS
10
167.652
20
-120.233
11
167.062
21
-121.058
0
LINE
8
BLACK
6
CONTINUOUS
10
167.062
20
-121.058
11
166.443
21
-121.861
0
LINE
8
BLACK
6
CONTINUOUS
10
166.443
20
-121.861
11
165.794
21
-122.641
0
LINE
8
BLACK
6
CONTINUOUS
10
165.794
20
-122.641
11
165.118
21
-123.396
0
LINE
8
BLACK
6
CONTINUOUS
10
165.118
20
-123.396
11
164.414
21
-124.126
0
LINE
8
BLACK
6
CONTINUOUS
10
164.414
20
-124.126
11
163.684
21
-124.83
0
LINE
8
BLACK
6
CONTINUOUS
10
163.684
20
-124.83
11
162.929
21
-125.506
0
LINE
8
BLACK
6
CONTINUOUS
10
162.929
20
-125.506
11
162.149
21
-126.155
0
LINE
8
BLACK
6
CONTINUOUS
10
162.149
20
-126.155
11
161.346
21
-126.774
0
LINE
8
BLACK
6
CONTINUOUS
10
161.346
20
-126.774
11
160.521
21
-127.364
0
LINE
8
BLACK
6
CONTINUOUS
10
160.521
20
-127.364
11
159.675
21
-127.923
0
LINE
8
BLACK
6
CONTINUOUS
10
159.675
20
-127.923
11
158.809
21
-128.45
0
LINE
8
BLACK
6
CONTINUOUS
10
158.809
20
-128.45
11
157.924
21
-128.946
0
LINE
8
BLACK
6
CONTINUOUS
10
157.924
20
-128.946
11
157.022
21
-129.408
0
LINE
8
BLACK
6
CONTINUOUS
10
157.022
20
-129.408
11
156.104
21
-129.838
0
LINE
8
BLACK
6
CONTINUOUS
10
156.104
20
-129.838
11
155.17
21
-130.233
0
LINE
8
BLACK
6
CONTINUOUS
10
155.17
20
-130.233
11
154.222
21
-130.594
0
LINE
8
BLACK
6
CONTINUOUS
10
154.222
20
-130.594
11
153.262
21
-130.92
0
LINE
8
BLACK
6
CONTINUOUS
10
153.262
20
-130.92
11
152.29
21
-131.21
0
LINE
8
BLACK
6
CONTINUOUS
10
152.29
20
-131.21
11
151.309
21
-131.465
0
LINE
8
BLACK
6
CONTINUOUS
10
151.309
20
-131.465
11
150.319
21
-131.684
0
LINE
8
BLACK
6
CONTINUOUS
10
150.319
20
-131.684
11
149.321
21
-131.866
0
LINE
8
BLACK
6
CONTINUOUS
10
149.321
20
-131.866
11
148.318
21
-132.011
0
LINE
8
BLACK
6
CONTINUOUS
10
148.318
20
-132.011
11
147.31
21
-132.12
0
LINE
8
BLACK
6
CONTINUOUS
10
147.31
20
-132.12
11
146.298
21
-132.192
0
LINE
8
BLACK
6
CONTINUOUS
10
146.298
20
-132.192
11
145.285
21
-132.226
0
LINE
8
BLACK
6
CONTINUOUS
10
145.285
20
-132.226
11
144.271
21
-132.224
0
LINE
8
BLACK
6
CONTINUOUS
10
144.271
20
-132.224
11
143.257
21
-132.184
0
LINE
8
BLACK
6
CONTINUOUS
10
143.257
20
-132.184
11
142.246
21
-132.107
0
LINE
8
BLACK
6
CONTINUOUS
10
142.246
20
-132.107
11
141.239
21
-131.993
0
LINE
8
BLACK
6
CONTINUOUS
10
141.239
20
-131.993
11
140.236
21
-131.842
0
LINE
8
BLACK
6
CONTINUOUS
10
140.236
20
-131.842
11
139.239
21
-131.655
0
LINE
8
BLACK
6
CONTINUOUS
10
139.239
20
-131.655
11
138.25
21
-131.431
0
LINE
8
BLACK
6
CONTINUOUS
10
138.25
20
-131.431
11
137.27
21
-131.171
0
LINE
8
BLACK
6
CONTINUOUS
10
137.27
20
-131.171
11
136.3
21
-130.875
0
LINE
8
BLACK
6
CONTINUOUS
10
136.3
20
-130.875
11
135.342
21
-130.545
0
LINE
8
BLACK
6
CONTINUOUS
10
135.342
20
-130.545
11
134.396
21
-130.179
0
LINE
8
BLACK
6
CONTINUOUS
10
134.396
20
-130.179
11
133.464
21
-129.778
0
LINE
8
BLACK
6
CONTINUOUS
10
133.464
20
-129.778
11
132.548
21
-129.344
0
LINE
8
BLACK
6
CONTINUOUS
10
132.548
20
-129.344
11
131.648
21
-128.877
0
LINE
8
BLACK
6
CONTINUOUS
10
131.648
20
-128.877
11
130.766
21
-128.377
0
LINE
8
BLACK
6
CONTINUOUS
10
130.766
20
-128.377
11
129.903
21
-127.845
0
LINE
8
BLACK
6
CONTINUOUS
10
129.903
20
-127.845
11
129.06
21
-127.281
0
LINE
8
BLACK
6
CONTINUOUS
10
129.06
20
-127.281
11
128.238
21
-126.687
0
LINE
8
BLACK
6
CONTINUOUS
10
128.238
20
-126.687
11
127.438
21
-126.064
0
LINE
8
BLACK
6
CONTINUOUS
10
127.438
20
-126.064
11
126.662
21
-125.411
0
LINE
8
BLACK
6
CONTINUOUS
10
126.662
20
-125.411
11
125.91
21
-124.731
0
LINE
8
BLACK
6
CONTINUOUS
10
125.91
20
-124.731
11
125.184
21
-124.023
0
LINE
8
BLACK
6
CONTINUOUS
10
125.184
20
-124.023
11
124.484
21
-123.289
0
LINE
8
BLACK
6
CONTINUOUS
10
124.484
20
-123.289
11
123.811
21
-122.531
0
LINE
8
BLACK
6
CONTINUOUS
10
123.811
20
-122.531
11
123.167
21
-121.748
0
LINE
8
BLACK
6
CONTINUOUS
10
123.167
20
-121.748
11
122.552
21
-120.941
0
LINE
8
BLACK
6
CONTINUOUS
10
122.552
20
-120.941
11
121.966
21
-120.113
0
LINE
8
BLACK
6
CONTINUOUS
10
121.966
20
-120.113
11
121.412
21
-119.264
0
LINE
8
BLACK
6
CONTINUOUS
10
121.412
20
-119.264
11
120.889
21
-118.396
0
LINE
8
BLACK
6
CONTINUOUS
10
120.889
20
-118.396
11
120.398
21
-117.508
0
LINE
8
BLACK
6
CONTINUOUS
10
120.398
20
-117.508
11
119.94
21
-116.604
0
LINE
8
BLACK
6
CONTINUOUS
10
119.94
20
-116.604
11
119.516
21
-115.683
0
LINE
8
BLACK
6
CONTINUOUS
10
119.516
20
-115.683
11
119.125
21
-114.747
0
LINE
8
BLACK
6
CONTINUOUS
10
119.125
20
-114.747
11
118.769
21
-113.797
0
LINE
8
BLACK
6
CONTINUOUS
10
118.769
20
-113.797
11
118.448
21
-112.836
0
LINE
8
BLACK
6
CONTINUOUS
10
118.448
20
-112.836
11
118.163
21
-111.863
0
LINE
8
BLACK
6
CONTINUOUS
10
118.163
20
-111.863
11
117.913
21
-110.88
0
LINE
8
BLACK
6
CONTINUOUS
10
117.913
20
-110.88
11
117.7
21
-109.888
0
LINE
8
BLACK
6
CONTINUOUS
10
117.7
20
-109.888
11
117.523
21
-108.89
0
LINE
8
BLACK
6
CONTINUOUS
10
117.523
20
-108.89
11
117.382
21
-107.886
0
LINE
8
BLACK
6
CONTINUOUS
10
117.382
20
-107.886
11
117.279
21
-106.877
0
LINE
8
BLACK
6
CONTINUOUS
10
117.279
20
-106.877
11
117.213
21
-105.865
0
LINE
8
BLACK
6
CONTINUOUS
10
117.213
20
-105.865
11
117.184
21
-104.851
0
LINE
8
BLACK
6
CONTINUOUS
10
117.184
20
-104.851
11
117.184
21
-104.851
0
LINE
8
BLACK
6
CONTINUOUS
10
117.184
20
-104.851
11
117.192
21
-103.837
0
LINE
8
BLACK
6
CONTINUOUS
10
117.192
20
-103.837
11
117.237
21
-102.824
0
LINE
8
BLACK
6
CONTINUOUS
10
117.314
20
-106.874
11
117.417
21
-107.881
0
LINE
8
BLACK
6
CONTINUOUS
10
117.417
20
-107.881
11
117.557
21
-108.884
0
LINE
8
BLACK
6
CONTINUOUS
10
117.557
20
-108.884
11
117.734
21
-109.882
0
LINE
8
BLACK
6
CONTINUOUS
10
117.734
20
-109.882
11
117.947
21
-110.872
0
LINE
8
BLACK
6
CONTINUOUS
10
117.947
20
-110.872
11
118.197
21
-111.853
0
LINE
8
BLACK
6
CONTINUOUS
10
118.197
20
-111.853
11
118.482
21
-112.825
0
LINE
8
BLACK
6
CONTINUOUS
10
118.482
20
-112.825
11
118.802
21
-113.786
0
LINE
8
BLACK
6
CONTINUOUS
10
118.802
20
-113.786
11
119.158
21
-114.734
0
LINE
8
BLACK
6
CONTINUOUS
10
119.158
20
-114.734
11
119.548
21
-115.669
0
LINE
8
BLACK
6
CONTINUOUS
10
119.548
20
-115.669
11
119.972
21
-116.588
0
LINE
8
BLACK
6
CONTINUOUS
10
119.972
20
-116.588
11
120.429
21
-117.492
0
LINE
8
BLACK
6
CONTINUOUS
10
120.429
20
-117.492
11
120.919
21
-118.378
0
LINE
8
BLACK
6
CONTINUOUS
10
120.919
20
-118.378
11
121.442
21
-119.246
0
LINE
8
BLACK
6
CONTINUOUS
10
121.442
20
-119.246
11
121.995
21
-120.094
0
LINE
8
BLACK
6
CONTINUOUS
10
121.995
20
-120.094
11
122.58
21
-120.921
0
LINE
8
BLACK
6
CONTINUOUS
10
122.58
20
-120.921
11
123.194
21
-121.726
0
LINE
8
BLACK
6
CONTINUOUS
10
123.194
20
-121.726
11
123.838
21
-122.508
0
LINE
8
BLACK
6
CONTINUOUS
10
123.838
20
-122.508
11
124.51
21
-123.266
0
LINE
8
BLACK
6
CONTINUOUS
10
124.51
20
-123.266
11
125.209
21
-123.999
0
LINE
8
BLACK
6
CONTINUOUS
10
125.209
20
-123.999
11
125.934
21
-124.705
0
LINE
8
BLACK
6
CONTINUOUS
10
125.934
20
-124.705
11
126.685
21
-125.385
0
LINE
8
BLACK
6
CONTINUOUS
10
126.685
20
-125.385
11
127.46
21
-126.036
0
LINE
8
BLACK
6
CONTINUOUS
10
127.46
20
-126.036
11
128.259
21
-126.659
0
LINE
8
BLACK
6
CONTINUOUS
10
128.259
20
-126.659
11
129.08
21
-127.252
0
LINE
8
BLACK
6
CONTINUOUS
10
129.08
20
-127.252
11
129.922
21
-127.815
0
LINE
8
BLACK
6
CONTINUOUS
10
129.922
20
-127.815
11
130.784
21
-128.346
0
LINE
8
BLACK
6
CONTINUOUS
10
130.784
20
-128.346
11
131.665
21
-128.846
0
LINE
8
BLACK
6
CONTINUOUS
10
131.665
20
-128.846
11
132.563
21
-129.313
0
LINE
8
BLACK
6
CONTINUOUS
10
132.563
20
-129.313
11
133.479
21
-129.746
0
LINE
8
BLACK
6
CONTINUOUS
10
133.479
20
-129.746
11
134.409
21
-130.146
0
LINE
8
BLACK
6
CONTINUOUS
10
134.409
20
-130.146
11
135.354
21
-130.512
0
LINE
8
BLACK
6
CONTINUOUS
10
135.354
20
-130.512
11
136.311
21
-130.842
0
LINE
8
BLACK
6
CONTINUOUS
10
136.311
20
-130.842
11
137.28
21
-131.137
0
LINE
8
BLACK
6
CONTINUOUS
10
137.28
20
-131.137
11
138.259
21
-131.397
0
LINE
8
BLACK
6
CONTINUOUS
10
138.259
20
-131.397
11
139.246
21
-131.62
0
LINE
8
BLACK
6
CONTINUOUS
10
139.246
20
-131.62
11
140.242
21
-131.808
0
LINE
8
BLACK
6
CONTINUOUS
10
140.242
20
-131.808
11
141.243
21
-131.958
0
LINE
8
BLACK
6
CONTINUOUS
10
141.243
20
-131.958
11
142.25
21
-132.072
0
LINE
8
BLACK
6
CONTINUOUS
10
142.25
20
-132.072
11
143.259
21
-132.149
0
LINE
8
BLACK
6
CONTINUOUS
10
143.259
20
-132.149
11
144.271
21
-132.189
0
LINE
8
BLACK
6
CONTINUOUS
10
144.271
20
-132.189
11
145.284
21
-132.191
0
LINE
8
BLACK
6
CONTINUOUS
10
145.284
20
-132.191
11
146.296
21
-132.157
0
LINE
8
BLACK
6
CONTINUOUS
10
146.296
20
-132.157
11
147.306
21
-132.085
0
LINE
8
BLACK
6
CONTINUOUS
10
147.306
20
-132.085
11
148.313
21
-131.977
0
LINE
8
BLACK
6
CONTINUOUS
10
148.313
20
-131.977
11
149.316
21
-131.831
0
LINE
8
BLACK
6
CONTINUOUS
10
149.316
20
-131.831
11
150.312
21
-131.649
0
LINE
8
BLACK
6
CONTINUOUS
10
150.312
20
-131.649
11
151.301
21
-131.431
0
LINE
8
BLACK
6
CONTINUOUS
10
151.301
20
-131.431
11
152.281
21
-131.177
0
LINE
8
BLACK
6
CONTINUOUS
10
152.281
20
-131.177
11
153.251
21
-130.886
0
LINE
8
BLACK
6
CONTINUOUS
10
153.251
20
-130.886
11
154.21
21
-130.561
0
LINE
8
BLACK
6
CONTINUOUS
10
154.21
20
-130.561
11
155.157
21
-130.2
0
LINE
8
BLACK
6
CONTINUOUS
10
155.157
20
-130.2
11
156.089
21
-129.806
0
LINE
8
BLACK
6
CONTINUOUS
10
156.089
20
-129.806
11
157.007
21
-129.377
0
LINE
8
BLACK
6
CONTINUOUS
10
157.007
20
-129.377
11
157.908
21
-128.915
0
LINE
8
BLACK
6
CONTINUOUS
10
157.908
20
-128.915
11
158.792
21
-128.42
0
LINE
8
BLACK
6
CONTINUOUS
10
158.792
20
-128.42
11
159.656
21
-127.893
0
LINE
8
BLACK
6
CONTINUOUS
10
159.656
20
-127.893
11
160.501
21
-127.335
0
LINE
8
BLACK
6
CONTINUOUS
10
160.501
20
-127.335
11
161.325
21
-126.746
0
LINE
8
BLACK
6
CONTINUOUS
10
161.325
20
-126.746
11
162.127
21
-126.127
0
LINE
8
BLACK
6
CONTINUOUS
10
162.127
20
-126.127
11
162.906
21
-125.48
0
LINE
8
BLACK
6
CONTINUOUS
10
162.906
20
-125.48
11
163.66
21
-124.804
0
LINE
8
BLACK
6
CONTINUOUS
10
163.66
20
-124.804
11
164.389
21
-124.101
0
LINE
8
BLACK
6
CONTINUOUS
10
164.389
20
-124.101
11
165.092
21
-123.372
0
LINE
8
BLACK
6
CONTINUOUS
10
165.092
20
-123.372
11
165.768
21
-122.618
0
LINE
8
BLACK
6
CONTINUOUS
10
165.768
20
-122.618
11
166.416
21
-121.839
0
LINE
8
BLACK
6
CONTINUOUS
10
166.416
20
-121.839
11
167.034
21
-121.037
0
LINE
8
BLACK
6
CONTINUOUS
10
167.034
20
-121.037
11
167.623
21
-120.213
0
LINE
8
BLACK
6
CONTINUOUS
10
167.623
20
-120.213
11
168.181
21
-119.368
0
LINE
8
BLACK
6
CONTINUOUS
10
168.181
20
-119.368
11
168.708
21
-118.503
0
LINE
8
BLACK
6
CONTINUOUS
10
168.708
20
-118.503
11
169.203
21
-117.62
0
LINE
8
BLACK
6
CONTINUOUS
10
169.203
20
-117.62
11
169.665
21
-116.719
0
LINE
8
BLACK
6
CONTINUOUS
10
169.665
20
-116.719
11
170.094
21
-115.801
0
LINE
8
BLACK
6
CONTINUOUS
10
170.094
20
-115.801
11
170.489
21
-114.868
0
LINE
8
BLACK
6
CONTINUOUS
10
170.489
20
-114.868
11
170.849
21
-113.922
0
LINE
8
BLACK
6
CONTINUOUS
10
170.849
20
-113.922
11
171.175
21
-112.963
0
LINE
8
BLACK
6
CONTINUOUS
10
171.175
20
-112.963
11
171.465
21
-111.993
0
LINE
8
BLACK
6
CONTINUOUS
10
171.465
20
-111.993
11
171.719
21
-111.012
0
LINE
8
BLACK
6
CONTINUOUS
10
171.719
20
-111.012
11
171.938
21
-110.024
0
LINE
8
BLACK
6
CONTINUOUS
10
171.938
20
-110.024
11
172.12
21
-109.027
0
LINE
8
BLACK
6
CONTINUOUS
10
172.12
20
-109.027
11
172.265
21
-108.025
0
LINE
8
BLACK
6
CONTINUOUS
10
172.265
20
-108.025
11
172.373
21
-107.018
0
LINE
8
BLACK
6
CONTINUOUS
10
172.373
20
-107.018
11
172.445
21
-106.008
0
LINE
8
BLACK
6
CONTINUOUS
10
172.445
20
-106.008
11
172.479
21
-104.996
0
LINE
8
BLACK
6
CONTINUOUS
10
172.479
20
-104.996
11
172.483
21
-104.562
0
LINE
8
BLACK
6
CONTINUOUS
10
172.483
20
-104.562
11
172.464
21
-103.549
0
LINE
8
BLACK
6
CONTINUOUS
10
172.464
20
-103.549
11
172.409
21
-102.538
0
LINE
8
BLACK
6
CONTINUOUS
10
172.409
20
-102.538
11
172.316
21
-101.529
0
LINE
8
BLACK
6
CONTINUOUS
10
172.316
20
-101.529
11
172.186
21
-100.525
0
LINE
8
BLACK
6
CONTINUOUS
10
172.186
20
-100.525
11
172.02
21
-99.526
0
LINE
8
BLACK
6
CONTINUOUS
10
172.02
20
-99.526
11
171.817
21
-98.5338
0
LINE
8
BLACK
6
CONTINUOUS
10
171.817
20
-98.5338
11
171.578
21
-97.5497
0
LINE
8
BLACK
6
CONTINUOUS
10
171.578
20
-97.5497
11
171.303
21
-96.5749
0
LINE
8
BLACK
6
CONTINUOUS
10
171.303
20
-96.5749
11
170.993
21
-95.611
0
LINE
8
BLACK
6
CONTINUOUS
10
170.993
20
-95.611
11
170.648
21
-94.659
0
LINE
8
BLACK
6
CONTINUOUS
10
170.648
20
-94.659
11
170.267
21
-93.7203
0
LINE
8
BLACK
6
CONTINUOUS
10
170.267
20
-93.7203
11
169.853
21
-92.7962
0
LINE
8
BLACK
6
CONTINUOUS
10
169.853
20
-92.7962
11
169.405
21
-91.8879
0
LINE
8
BLACK
6
CONTINUOUS
10
169.405
20
-91.8879
11
168.924
21
-90.9966
0
LINE
8
BLACK
6
CONTINUOUS
10
168.924
20
-90.9966
11
168.411
21
-90.1236
0
LINE
8
BLACK
6
CONTINUOUS
10
168.411
20
-90.1236
11
167.866
21
-89.2699
0
LINE
8
BLACK
6
CONTINUOUS
10
167.866
20
-89.2699
11
167.29
21
-88.4368
0
LINE
8
BLACK
6
CONTINUOUS
10
167.29
20
-88.4368
11
166.684
21
-87.6253
0
LINE
8
BLACK
6
CONTINUOUS
10
166.684
20
-87.6253
11
166.049
21
-86.8366
0
LINE
8
BLACK
6
CONTINUOUS
10
166.049
20
-86.8366
11
165.385
21
-86.0717
0
LINE
8
BLACK
6
CONTINUOUS
10
165.385
20
-86.0717
11
164.694
21
-85.3317
0
LINE
8
BLACK
6
CONTINUOUS
10
164.694
20
-85.3317
11
163.976
21
-84.6174
0
LINE
8
BLACK
6
CONTINUOUS
10
163.976
20
-84.6174
11
163.232
21
-83.93
0
LINE
8
BLACK
6
CONTINUOUS
10
163.232
20
-83.93
11
162.464
21
-83.2702
0
LINE
8
BLACK
6
CONTINUOUS
10
162.464
20
-83.2702
11
161.672
21
-82.6391
0
LINE
8
BLACK
6
CONTINUOUS
10
161.672
20
-82.6391
11
160.857
21
-82.0374
0
LINE
8
BLACK
6
CONTINUOUS
10
160.857
20
-82.0374
11
160.021
21
-81.466
0
LINE
8
BLACK
6
CONTINUOUS
10
160.021
20
-81.466
11
159.165
21
-80.9256
0
LINE
8
BLACK
6
CONTINUOUS
10
159.165
20
-80.9256
11
158.289
21
-80.4169
0
LINE
8
BLACK
6
CONTINUOUS
10
158.289
20
-80.4169
11
157.395
21
-79.9407
0
LINE
8
BLACK
6
CONTINUOUS
10
157.395
20
-79.9407
11
156.484
21
-79.4975
0
LINE
8
BLACK
6
CONTINUOUS
10
156.484
20
-79.4975
11
155.558
21
-79.088
0
LINE
8
BLACK
6
CONTINUOUS
10
155.558
20
-79.088
11
154.618
21
-78.7127
0
LINE
8
BLACK
6
CONTINUOUS
10
154.618
20
-78.7127
11
153.664
21
-78.3722
0
LINE
8
BLACK
6
CONTINUOUS
10
153.664
20
-78.3722
11
152.698
21
-78.0668
0
LINE
8
BLACK
6
CONTINUOUS
10
152.698
20
-78.0668
11
151.722
21
-77.797
0
LINE
8
BLACK
6
CONTINUOUS
10
151.722
20
-77.797
11
150.737
21
-77.5631
0
LINE
8
BLACK
6
CONTINUOUS
10
150.737
20
-77.5631
11
149.743
21
-77.3656
0
LINE
8
BLACK
6
CONTINUOUS
10
149.743
20
-77.3656
11
148.744
21
-77.2045
0
LINE
8
BLACK
6
CONTINUOUS
10
148.744
20
-77.2045
11
147.738
21
-77.0802
0
LINE
8
BLACK
6
CONTINUOUS
10
147.738
20
-77.0802
11
146.729
21
-76.9928
0
LINE
8
BLACK
6
CONTINUOUS
10
146.729
20
-76.9928
11
145.718
21
-76.9425
0
LINE
8
BLACK
6
CONTINUOUS
10
145.718
20
-76.9425
11
144.705
21
-76.9292
0
LINE
8
BLACK
6
CONTINUOUS
10
144.705
20
-76.9292
11
143.693
21
-76.9531
0
LINE
8
BLACK
6
CONTINUOUS
10
143.693
20
-76.9531
11
142.682
21
-77.014
0
LINE
8
BLACK
6
CONTINUOUS
10
142.682
20
-77.014
11
141.674
21
-77.112
0
LINE
8
BLACK
6
CONTINUOUS
10
141.674
20
-77.112
11
140.67
21
-77.2468
0
LINE
8
BLACK
6
CONTINUOUS
10
140.67
20
-77.2468
11
139.672
21
-77.4183
0
LINE
8
BLACK
6
CONTINUOUS
10
139.672
20
-77.4183
11
138.681
21
-77.6263
0
LINE
8
BLACK
6
CONTINUOUS
10
138.681
20
-77.6263
11
137.698
21
-77.8704
0
LINE
8
BLACK
6
CONTINUOUS
10
137.698
20
-77.8704
11
136.725
21
-78.1504
0
LINE
8
BLACK
6
CONTINUOUS
10
136.725
20
-78.1504
11
135.762
21
-78.4659
0
LINE
8
BLACK
6
CONTINUOUS
10
135.762
20
-78.4659
11
134.812
21
-78.8164
0
LINE
8
BLACK
6
CONTINUOUS
10
134.812
20
-78.8164
11
133.876
21
-79.2015
0
LINE
8
BLACK
6
CONTINUOUS
10
133.876
20
-79.2015
11
132.954
21
-79.6207
0
LINE
8
BLACK
6
CONTINUOUS
10
132.954
20
-79.6207
11
132.048
21
-80.0734
0
LINE
8
BLACK
6
CONTINUOUS
10
132.048
20
-80.0734
11
131.159
21
-80.5589
0
LINE
8
BLACK
6
CONTINUOUS
10
131.159
20
-80.5589
11
130.289
21
-81.0767
0
LINE
8
BLACK
6
CONTINUOUS
10
130.289
20
-81.0767
11
129.438
21
-81.6261
0
LINE
8
BLACK
6
CONTINUOUS
10
129.438
20
-81.6261
11
128.608
21
-82.2063
0
LINE
8
BLACK
6
CONTINUOUS
10
128.608
20
-82.2063
11
127.8
21
-82.8164
0
LINE
8
BLACK
6
CONTINUOUS
10
127.8
20
-82.8164
11
127.014
21
-83.4558
0
LINE
8
BLACK
6
CONTINUOUS
10
127.014
20
-83.4558
11
126.253
21
-84.1236
0
LINE
8
BLACK
6
CONTINUOUS
10
126.253
20
-84.1236
11
125.516
21
-84.8188
0
LINE
8
BLACK
6
CONTINUOUS
10
125.516
20
-84.8188
11
124.806
21
-85.5405
0
LINE
8
BLACK
6
CONTINUOUS
10
124.806
20
-85.5405
11
124.122
21
-86.2878
0
LINE
8
BLACK
6
CONTINUOUS
10
124.122
20
-86.2878
11
123.467
21
-87.0596
0
LINE
8
BLACK
6
CONTINUOUS
10
123.467
20
-87.0596
11
122.84
21
-87.8549
0
LINE
8
BLACK
6
CONTINUOUS
10
122.84
20
-87.8549
11
122.242
21
-88.6727
0
LINE
8
BLACK
6
CONTINUOUS
10
122.242
20
-88.6727
11
121.675
21
-89.5118
0
LINE
8
BLACK
6
CONTINUOUS
10
121.675
20
-89.5118
11
121.139
21
-90.3711
0
LINE
8
BLACK
6
CONTINUOUS
10
121.139
20
-90.3711
11
120.635
21
-91.2495
0
LINE
8
BLACK
6
CONTINUOUS
10
120.635
20
-91.2495
11
120.164
21
-92.1457
0
LINE
8
BLACK
6
CONTINUOUS
10
120.164
20
-92.1457
11
119.725
21
-93.0587
0
LINE
8
BLACK
6
CONTINUOUS
10
119.725
20
-93.0587
11
119.321
21
-93.9871
0
LINE
8
BLACK
6
CONTINUOUS
10
119.321
20
-93.9871
11
118.95
21
-94.9297
0
LINE
8
BLACK
6
CONTINUOUS
10
118.95
20
-94.9297
11
118.615
21
-95.8852
0
LINE
8
BLACK
6
CONTINUOUS
10
118.615
20
-95.8852
11
118.314
21
-96.8524
0
LINE
8
BLACK
6
CONTINUOUS
10
118.314
20
-96.8524
11
118.05
21
-97.8299
0
LINE
8
BLACK
6
CONTINUOUS
10
118.05
20
-97.8299
11
117.821
21
-98.8165
0
LINE
8
BLACK
6
CONTINUOUS
10
117.821
20
-98.8165
11
117.629
21
-99.8108
0
LINE
8
BLACK
6
CONTINUOUS
10
117.629
20
-99.8108
11
117.473
21
-100.812
0
LINE
8
BLACK
6
CONTINUOUS
10
117.473
20
-100.812
11
117.354
21
-101.817
0
LINE
8
BLACK
6
CONTINUOUS
10
117.354
20
-101.817
11
117.272
21
-102.827
0
LINE
8
BLACK
6
CONTINUOUS
10
117.272
20
-102.827
11
117.227
21
-103.838
0
LINE
8
BLACK
6
CONTINUOUS
10
117.227
20
-103.838
11
117.219
21
-104.851
0
LINE
8
BLACK
6
CONTINUOUS
10
117.219
20
-104.851
11
117.248
21
-105.863
0
LINE
8
BLACK
6
CONTINUOUS
10
117.248
20
-105.863
11
117.314
21
-106.874
  0
ENDSEC
  0
EOF
