M48
; DRILL file {KiCad (6.0.7-1)-1} date Sunday, January 08, 2023 at 04:55:36 PM
; FORMAT={-:-/ absolute / metric / decimal}
; #@! TF.CreationDate,2023-01-08T16:55:36-05:00
; #@! TF.GenerationSoftware,Kicad,Pcbnew,(6.0.7-1)-1
; #@! TF.FileFunction,Plated,1,2,PTH
FMAT,2
METRIC
; #@! TA.AperFunction,Plated,PTH,ViaDrill
T1C0.400
; #@! TA.AperFunction,Plated,PTH,ComponentDrill
T2C1.000
%
G90
G05
T1
X132.3Y-101.1
X132.375Y-97.325
X133.8Y-106.7
X134.8Y-94.9
X134.9Y-96.5
X139.64Y-106.61
X139.8Y-94.1
X139.8Y-95.7
X140.59Y-104.61
X141.5Y-98.0
X142.61Y-92.39
X143.075Y-98.225
X145.24Y-102.17
X145.54Y-94.93
X145.98Y-100.94
X146.6Y-107.6
X147.35Y-98.97
X148.37Y-94.63
X148.59Y-99.09
X149.48Y-104.16
X156.48Y-109.619
X156.94Y-108.17
X157.722Y-108.889
X159.83Y-96.12
X161.44Y-92.66
X161.5Y-117.1
T2
X136.524Y-107.66
X136.524Y-110.2
X136.524Y-112.74
X141.05Y-87.0
X143.59Y-87.0
X143.73Y-114.3
X146.13Y-87.0
X146.27Y-114.3
X148.67Y-87.0
X149.675Y-110.3
X152.156Y-103.434
X152.156Y-105.974
X152.215Y-110.3
X152.525Y-115.6
X154.696Y-103.434
X154.696Y-105.974
X155.065Y-115.6
X157.236Y-103.434
X157.236Y-105.974
X161.868Y-95.779
X161.868Y-98.319
X161.868Y-100.859
X161.868Y-103.399
X161.868Y-105.939
X161.868Y-108.479
X161.868Y-111.019
X161.868Y-113.559
T0
M30
