%TF.GenerationSoftware,KiCad,Pcbnew,(6.0.7-1)-1*%
%TF.CreationDate,2023-01-08T16:55:42-05:00*%
%TF.ProjectId,atmega328,61746d65-6761-4333-9238-2e6b69636164,rev?*%
%TF.SameCoordinates,Original*%
%TF.FileFunction,Soldermask,Bot*%
%TF.FilePolarity,Negative*%
%FSLAX46Y46*%
G04 Gerber Fmt 4.6, Leading zero omitted, Abs format (unit mm)*
G04 Created by KiCad (PCBNEW (6.0.7-1)-1) date 2023-01-08 16:55:42*
%MOMM*%
%LPD*%
G01*
G04 APERTURE LIST*
G04 Aperture macros list*
%AMRoundRect*
0 Rectangle with rounded corners*
0 $1 Rounding radius*
0 $2 $3 $4 $5 $6 $7 $8 $9 X,Y pos of 4 corners*
0 Add a 4 corners polygon primitive as box body*
4,1,4,$2,$3,$4,$5,$6,$7,$8,$9,$2,$3,0*
0 Add four circle primitives for the rounded corners*
1,1,$1+$1,$2,$3*
1,1,$1+$1,$4,$5*
1,1,$1+$1,$6,$7*
1,1,$1+$1,$8,$9*
0 Add four rect primitives between the rounded corners*
20,1,$1+$1,$2,$3,$4,$5,0*
20,1,$1+$1,$4,$5,$6,$7,0*
20,1,$1+$1,$6,$7,$8,$9,0*
20,1,$1+$1,$8,$9,$2,$3,0*%
G04 Aperture macros list end*
%ADD10C,0.000000*%
%ADD11C,2.150000*%
%ADD12RoundRect,0.100000X0.637500X0.100000X-0.637500X0.100000X-0.637500X-0.100000X0.637500X-0.100000X0*%
%ADD13R,1.700000X1.700000*%
%ADD14O,1.700000X1.700000*%
%ADD15C,1.700000*%
%ADD16C,4.300000*%
G04 APERTURE END LIST*
D10*
G36*
X162722860Y-96613570D02*
G01*
X161022860Y-96613570D01*
X161022860Y-94913570D01*
X162722860Y-94913570D01*
X162722860Y-96613570D01*
G37*
D11*
X157915000Y-125320000D02*
G75*
G03*
X157915000Y-125320000I-1075000J0D01*
G01*
D10*
G36*
X136583310Y-109394090D02*
G01*
X136665830Y-109406330D01*
X136746740Y-109426600D01*
X136825280Y-109454700D01*
X136900690Y-109490370D01*
X136972230Y-109533250D01*
X137039230Y-109582940D01*
X137101040Y-109638960D01*
X137157060Y-109700770D01*
X137206750Y-109767770D01*
X137249630Y-109839310D01*
X137285300Y-109914720D01*
X137313400Y-109993260D01*
X137333670Y-110074170D01*
X137345910Y-110156690D01*
X137350000Y-110240000D01*
X137345910Y-110323310D01*
X137333670Y-110405830D01*
X137313400Y-110486740D01*
X137285300Y-110565280D01*
X137249630Y-110640690D01*
X137206750Y-110712230D01*
X137157060Y-110779230D01*
X137101040Y-110841040D01*
X137039230Y-110897060D01*
X136972230Y-110946750D01*
X136900690Y-110989630D01*
X136825280Y-111025300D01*
X136746740Y-111053400D01*
X136665830Y-111073670D01*
X136583310Y-111085910D01*
X136500000Y-111090000D01*
X136416690Y-111085910D01*
X136334170Y-111073670D01*
X136253260Y-111053400D01*
X136174720Y-111025300D01*
X136099310Y-110989630D01*
X136027770Y-110946750D01*
X135960770Y-110897060D01*
X135898960Y-110841040D01*
X135842940Y-110779230D01*
X135793250Y-110712230D01*
X135750370Y-110640690D01*
X135714700Y-110565280D01*
X135686600Y-110486740D01*
X135666330Y-110405830D01*
X135654090Y-110323310D01*
X135650000Y-110240000D01*
X135654090Y-110156690D01*
X135666330Y-110074170D01*
X135686600Y-109993260D01*
X135714700Y-109914720D01*
X135750370Y-109839310D01*
X135793250Y-109767770D01*
X135842940Y-109700770D01*
X135898960Y-109638960D01*
X135960770Y-109582940D01*
X136027770Y-109533250D01*
X136099310Y-109490370D01*
X136174720Y-109454700D01*
X136253260Y-109426600D01*
X136334170Y-109406330D01*
X136416690Y-109394090D01*
X136500000Y-109390000D01*
X136583310Y-109394090D01*
G37*
G36*
X158080000Y-104370000D02*
G01*
X156380000Y-104370000D01*
X156380000Y-102670000D01*
X158080000Y-102670000D01*
X158080000Y-104370000D01*
G37*
G36*
X154773310Y-102674090D02*
G01*
X154855830Y-102686330D01*
X154936740Y-102706600D01*
X155015280Y-102734700D01*
X155090690Y-102770370D01*
X155162230Y-102813250D01*
X155229230Y-102862940D01*
X155291040Y-102918960D01*
X155347060Y-102980770D01*
X155396750Y-103047770D01*
X155439630Y-103119310D01*
X155475300Y-103194720D01*
X155503400Y-103273260D01*
X155523670Y-103354170D01*
X155535910Y-103436690D01*
X155540000Y-103520000D01*
X155535910Y-103603310D01*
X155523670Y-103685830D01*
X155503400Y-103766740D01*
X155475300Y-103845280D01*
X155439630Y-103920690D01*
X155396750Y-103992230D01*
X155347060Y-104059230D01*
X155291040Y-104121040D01*
X155229230Y-104177060D01*
X155162230Y-104226750D01*
X155090690Y-104269630D01*
X155015280Y-104305300D01*
X154936740Y-104333400D01*
X154855830Y-104353670D01*
X154773310Y-104365910D01*
X154690000Y-104370000D01*
X154606690Y-104365910D01*
X154524170Y-104353670D01*
X154443260Y-104333400D01*
X154364720Y-104305300D01*
X154289310Y-104269630D01*
X154217770Y-104226750D01*
X154150770Y-104177060D01*
X154088960Y-104121040D01*
X154032940Y-104059230D01*
X153983250Y-103992230D01*
X153940370Y-103920690D01*
X153904700Y-103845280D01*
X153876600Y-103766740D01*
X153856330Y-103685830D01*
X153844090Y-103603310D01*
X153840000Y-103520000D01*
X153844090Y-103436690D01*
X153856330Y-103354170D01*
X153876600Y-103273260D01*
X153904700Y-103194720D01*
X153940370Y-103119310D01*
X153983250Y-103047770D01*
X154032940Y-102980770D01*
X154088960Y-102918960D01*
X154150770Y-102862940D01*
X154217770Y-102813250D01*
X154289310Y-102770370D01*
X154364720Y-102734700D01*
X154443260Y-102706600D01*
X154524170Y-102686330D01*
X154606690Y-102674090D01*
X154690000Y-102670000D01*
X154773310Y-102674090D01*
G37*
G36*
X146203310Y-86159090D02*
G01*
X146285830Y-86171330D01*
X146366740Y-86191600D01*
X146445280Y-86219700D01*
X146520690Y-86255370D01*
X146592230Y-86298250D01*
X146659230Y-86347940D01*
X146721040Y-86403960D01*
X146777060Y-86465770D01*
X146826750Y-86532770D01*
X146869630Y-86604310D01*
X146905300Y-86679720D01*
X146933400Y-86758260D01*
X146953670Y-86839170D01*
X146965910Y-86921690D01*
X146970000Y-87005000D01*
X146965910Y-87088310D01*
X146953670Y-87170830D01*
X146933400Y-87251740D01*
X146905300Y-87330280D01*
X146869630Y-87405690D01*
X146826750Y-87477230D01*
X146777060Y-87544230D01*
X146721040Y-87606040D01*
X146659230Y-87662060D01*
X146592230Y-87711750D01*
X146520690Y-87754630D01*
X146445280Y-87790300D01*
X146366740Y-87818400D01*
X146285830Y-87838670D01*
X146203310Y-87850910D01*
X146120000Y-87855000D01*
X146036690Y-87850910D01*
X145954170Y-87838670D01*
X145873260Y-87818400D01*
X145794720Y-87790300D01*
X145719310Y-87754630D01*
X145647770Y-87711750D01*
X145580770Y-87662060D01*
X145518960Y-87606040D01*
X145462940Y-87544230D01*
X145413250Y-87477230D01*
X145370370Y-87405690D01*
X145334700Y-87330280D01*
X145306600Y-87251740D01*
X145286330Y-87170830D01*
X145274090Y-87088310D01*
X145270000Y-87005000D01*
X145274090Y-86921690D01*
X145286330Y-86839170D01*
X145306600Y-86758260D01*
X145334700Y-86679720D01*
X145370370Y-86604310D01*
X145413250Y-86532770D01*
X145462940Y-86465770D01*
X145518960Y-86403960D01*
X145580770Y-86347940D01*
X145647770Y-86298250D01*
X145719310Y-86255370D01*
X145794720Y-86219700D01*
X145873260Y-86191600D01*
X145954170Y-86171330D01*
X146036690Y-86159090D01*
X146120000Y-86155000D01*
X146203310Y-86159090D01*
G37*
G36*
X148743310Y-86159090D02*
G01*
X148825830Y-86171330D01*
X148906740Y-86191600D01*
X148985280Y-86219700D01*
X149060690Y-86255370D01*
X149132230Y-86298250D01*
X149199230Y-86347940D01*
X149261040Y-86403960D01*
X149317060Y-86465770D01*
X149366750Y-86532770D01*
X149409630Y-86604310D01*
X149445300Y-86679720D01*
X149473400Y-86758260D01*
X149493670Y-86839170D01*
X149505910Y-86921690D01*
X149510000Y-87005000D01*
X149505910Y-87088310D01*
X149493670Y-87170830D01*
X149473400Y-87251740D01*
X149445300Y-87330280D01*
X149409630Y-87405690D01*
X149366750Y-87477230D01*
X149317060Y-87544230D01*
X149261040Y-87606040D01*
X149199230Y-87662060D01*
X149132230Y-87711750D01*
X149060690Y-87754630D01*
X148985280Y-87790300D01*
X148906740Y-87818400D01*
X148825830Y-87838670D01*
X148743310Y-87850910D01*
X148660000Y-87855000D01*
X148576690Y-87850910D01*
X148494170Y-87838670D01*
X148413260Y-87818400D01*
X148334720Y-87790300D01*
X148259310Y-87754630D01*
X148187770Y-87711750D01*
X148120770Y-87662060D01*
X148058960Y-87606040D01*
X148002940Y-87544230D01*
X147953250Y-87477230D01*
X147910370Y-87405690D01*
X147874700Y-87330280D01*
X147846600Y-87251740D01*
X147826330Y-87170830D01*
X147814090Y-87088310D01*
X147810000Y-87005000D01*
X147814090Y-86921690D01*
X147826330Y-86839170D01*
X147846600Y-86758260D01*
X147874700Y-86679720D01*
X147910370Y-86604310D01*
X147953250Y-86532770D01*
X148002940Y-86465770D01*
X148058960Y-86403960D01*
X148120770Y-86347940D01*
X148187770Y-86298250D01*
X148259310Y-86255370D01*
X148334720Y-86219700D01*
X148413260Y-86191600D01*
X148494170Y-86171330D01*
X148576690Y-86159090D01*
X148660000Y-86155000D01*
X148743310Y-86159090D01*
G37*
G36*
X136583310Y-111934090D02*
G01*
X136665830Y-111946330D01*
X136746740Y-111966600D01*
X136825280Y-111994700D01*
X136900690Y-112030370D01*
X136972230Y-112073250D01*
X137039230Y-112122940D01*
X137101040Y-112178960D01*
X137157060Y-112240770D01*
X137206750Y-112307770D01*
X137249630Y-112379310D01*
X137285300Y-112454720D01*
X137313400Y-112533260D01*
X137333670Y-112614170D01*
X137345910Y-112696690D01*
X137350000Y-112780000D01*
X137345910Y-112863310D01*
X137333670Y-112945830D01*
X137313400Y-113026740D01*
X137285300Y-113105280D01*
X137249630Y-113180690D01*
X137206750Y-113252230D01*
X137157060Y-113319230D01*
X137101040Y-113381040D01*
X137039230Y-113437060D01*
X136972230Y-113486750D01*
X136900690Y-113529630D01*
X136825280Y-113565300D01*
X136746740Y-113593400D01*
X136665830Y-113613670D01*
X136583310Y-113625910D01*
X136500000Y-113630000D01*
X136416690Y-113625910D01*
X136334170Y-113613670D01*
X136253260Y-113593400D01*
X136174720Y-113565300D01*
X136099310Y-113529630D01*
X136027770Y-113486750D01*
X135960770Y-113437060D01*
X135898960Y-113381040D01*
X135842940Y-113319230D01*
X135793250Y-113252230D01*
X135750370Y-113180690D01*
X135714700Y-113105280D01*
X135686600Y-113026740D01*
X135666330Y-112945830D01*
X135654090Y-112863310D01*
X135650000Y-112780000D01*
X135654090Y-112696690D01*
X135666330Y-112614170D01*
X135686600Y-112533260D01*
X135714700Y-112454720D01*
X135750370Y-112379310D01*
X135793250Y-112307770D01*
X135842940Y-112240770D01*
X135898960Y-112178960D01*
X135960770Y-112122940D01*
X136027770Y-112073250D01*
X136099310Y-112030370D01*
X136174720Y-111994700D01*
X136253260Y-111966600D01*
X136334170Y-111946330D01*
X136416690Y-111934090D01*
X136500000Y-111930000D01*
X136583310Y-111934090D01*
G37*
G36*
X161956170Y-110157660D02*
G01*
X162038690Y-110169900D01*
X162119600Y-110190170D01*
X162198140Y-110218270D01*
X162273550Y-110253940D01*
X162345090Y-110296820D01*
X162412090Y-110346510D01*
X162473900Y-110402530D01*
X162529920Y-110464340D01*
X162579610Y-110531340D01*
X162622490Y-110602880D01*
X162658160Y-110678290D01*
X162686260Y-110756830D01*
X162706530Y-110837740D01*
X162718770Y-110920260D01*
X162722860Y-111003570D01*
X162718770Y-111086880D01*
X162706530Y-111169400D01*
X162686260Y-111250310D01*
X162658160Y-111328850D01*
X162622490Y-111404260D01*
X162579610Y-111475800D01*
X162529920Y-111542800D01*
X162473900Y-111604610D01*
X162412090Y-111660630D01*
X162345090Y-111710320D01*
X162273550Y-111753200D01*
X162198140Y-111788870D01*
X162119600Y-111816970D01*
X162038690Y-111837240D01*
X161956170Y-111849480D01*
X161872860Y-111853570D01*
X161789550Y-111849480D01*
X161707030Y-111837240D01*
X161626120Y-111816970D01*
X161547580Y-111788870D01*
X161472170Y-111753200D01*
X161400630Y-111710320D01*
X161333630Y-111660630D01*
X161271820Y-111604610D01*
X161215800Y-111542800D01*
X161166110Y-111475800D01*
X161123230Y-111404260D01*
X161087560Y-111328850D01*
X161059460Y-111250310D01*
X161039190Y-111169400D01*
X161026950Y-111086880D01*
X161022860Y-111003570D01*
X161026950Y-110920260D01*
X161039190Y-110837740D01*
X161059460Y-110756830D01*
X161087560Y-110678290D01*
X161123230Y-110602880D01*
X161166110Y-110531340D01*
X161215800Y-110464340D01*
X161271820Y-110402530D01*
X161333630Y-110346510D01*
X161400630Y-110296820D01*
X161472170Y-110253940D01*
X161547580Y-110218270D01*
X161626120Y-110190170D01*
X161707030Y-110169900D01*
X161789550Y-110157660D01*
X161872860Y-110153570D01*
X161956170Y-110157660D01*
G37*
G36*
X157313310Y-105214090D02*
G01*
X157395830Y-105226330D01*
X157476740Y-105246600D01*
X157555280Y-105274700D01*
X157630690Y-105310370D01*
X157702230Y-105353250D01*
X157769230Y-105402940D01*
X157831040Y-105458960D01*
X157887060Y-105520770D01*
X157936750Y-105587770D01*
X157979630Y-105659310D01*
X158015300Y-105734720D01*
X158043400Y-105813260D01*
X158063670Y-105894170D01*
X158075910Y-105976690D01*
X158080000Y-106060000D01*
X158075910Y-106143310D01*
X158063670Y-106225830D01*
X158043400Y-106306740D01*
X158015300Y-106385280D01*
X157979630Y-106460690D01*
X157936750Y-106532230D01*
X157887060Y-106599230D01*
X157831040Y-106661040D01*
X157769230Y-106717060D01*
X157702230Y-106766750D01*
X157630690Y-106809630D01*
X157555280Y-106845300D01*
X157476740Y-106873400D01*
X157395830Y-106893670D01*
X157313310Y-106905910D01*
X157230000Y-106910000D01*
X157146690Y-106905910D01*
X157064170Y-106893670D01*
X156983260Y-106873400D01*
X156904720Y-106845300D01*
X156829310Y-106809630D01*
X156757770Y-106766750D01*
X156690770Y-106717060D01*
X156628960Y-106661040D01*
X156572940Y-106599230D01*
X156523250Y-106532230D01*
X156480370Y-106460690D01*
X156444700Y-106385280D01*
X156416600Y-106306740D01*
X156396330Y-106225830D01*
X156384090Y-106143310D01*
X156380000Y-106060000D01*
X156384090Y-105976690D01*
X156396330Y-105894170D01*
X156416600Y-105813260D01*
X156444700Y-105734720D01*
X156480370Y-105659310D01*
X156523250Y-105587770D01*
X156572940Y-105520770D01*
X156628960Y-105458960D01*
X156690770Y-105402940D01*
X156757770Y-105353250D01*
X156829310Y-105310370D01*
X156904720Y-105274700D01*
X156983260Y-105246600D01*
X157064170Y-105226330D01*
X157146690Y-105214090D01*
X157230000Y-105210000D01*
X157313310Y-105214090D01*
G37*
D11*
X121925000Y-104560000D02*
G75*
G03*
X121925000Y-104560000I-1075000J0D01*
G01*
D10*
G36*
X154773310Y-105214090D02*
G01*
X154855830Y-105226330D01*
X154936740Y-105246600D01*
X155015280Y-105274700D01*
X155090690Y-105310370D01*
X155162230Y-105353250D01*
X155229230Y-105402940D01*
X155291040Y-105458960D01*
X155347060Y-105520770D01*
X155396750Y-105587770D01*
X155439630Y-105659310D01*
X155475300Y-105734720D01*
X155503400Y-105813260D01*
X155523670Y-105894170D01*
X155535910Y-105976690D01*
X155540000Y-106060000D01*
X155535910Y-106143310D01*
X155523670Y-106225830D01*
X155503400Y-106306740D01*
X155475300Y-106385280D01*
X155439630Y-106460690D01*
X155396750Y-106532230D01*
X155347060Y-106599230D01*
X155291040Y-106661040D01*
X155229230Y-106717060D01*
X155162230Y-106766750D01*
X155090690Y-106809630D01*
X155015280Y-106845300D01*
X154936740Y-106873400D01*
X154855830Y-106893670D01*
X154773310Y-106905910D01*
X154690000Y-106910000D01*
X154606690Y-106905910D01*
X154524170Y-106893670D01*
X154443260Y-106873400D01*
X154364720Y-106845300D01*
X154289310Y-106809630D01*
X154217770Y-106766750D01*
X154150770Y-106717060D01*
X154088960Y-106661040D01*
X154032940Y-106599230D01*
X153983250Y-106532230D01*
X153940370Y-106460690D01*
X153904700Y-106385280D01*
X153876600Y-106306740D01*
X153856330Y-106225830D01*
X153844090Y-106143310D01*
X153840000Y-106060000D01*
X153844090Y-105976690D01*
X153856330Y-105894170D01*
X153876600Y-105813260D01*
X153904700Y-105734720D01*
X153940370Y-105659310D01*
X153983250Y-105587770D01*
X154032940Y-105520770D01*
X154088960Y-105458960D01*
X154150770Y-105402940D01*
X154217770Y-105353250D01*
X154289310Y-105310370D01*
X154364720Y-105274700D01*
X154443260Y-105246600D01*
X154524170Y-105226330D01*
X154606690Y-105214090D01*
X154690000Y-105210000D01*
X154773310Y-105214090D01*
G37*
G36*
X143663310Y-86159090D02*
G01*
X143745830Y-86171330D01*
X143826740Y-86191600D01*
X143905280Y-86219700D01*
X143980690Y-86255370D01*
X144052230Y-86298250D01*
X144119230Y-86347940D01*
X144181040Y-86403960D01*
X144237060Y-86465770D01*
X144286750Y-86532770D01*
X144329630Y-86604310D01*
X144365300Y-86679720D01*
X144393400Y-86758260D01*
X144413670Y-86839170D01*
X144425910Y-86921690D01*
X144430000Y-87005000D01*
X144425910Y-87088310D01*
X144413670Y-87170830D01*
X144393400Y-87251740D01*
X144365300Y-87330280D01*
X144329630Y-87405690D01*
X144286750Y-87477230D01*
X144237060Y-87544230D01*
X144181040Y-87606040D01*
X144119230Y-87662060D01*
X144052230Y-87711750D01*
X143980690Y-87754630D01*
X143905280Y-87790300D01*
X143826740Y-87818400D01*
X143745830Y-87838670D01*
X143663310Y-87850910D01*
X143580000Y-87855000D01*
X143496690Y-87850910D01*
X143414170Y-87838670D01*
X143333260Y-87818400D01*
X143254720Y-87790300D01*
X143179310Y-87754630D01*
X143107770Y-87711750D01*
X143040770Y-87662060D01*
X142978960Y-87606040D01*
X142922940Y-87544230D01*
X142873250Y-87477230D01*
X142830370Y-87405690D01*
X142794700Y-87330280D01*
X142766600Y-87251740D01*
X142746330Y-87170830D01*
X142734090Y-87088310D01*
X142730000Y-87005000D01*
X142734090Y-86921690D01*
X142746330Y-86839170D01*
X142766600Y-86758260D01*
X142794700Y-86679720D01*
X142830370Y-86604310D01*
X142873250Y-86532770D01*
X142922940Y-86465770D01*
X142978960Y-86403960D01*
X143040770Y-86347940D01*
X143107770Y-86298250D01*
X143179310Y-86255370D01*
X143254720Y-86219700D01*
X143333260Y-86191600D01*
X143414170Y-86171330D01*
X143496690Y-86159090D01*
X143580000Y-86155000D01*
X143663310Y-86159090D01*
G37*
G36*
X152233310Y-102674090D02*
G01*
X152315830Y-102686330D01*
X152396740Y-102706600D01*
X152475280Y-102734700D01*
X152550690Y-102770370D01*
X152622230Y-102813250D01*
X152689230Y-102862940D01*
X152751040Y-102918960D01*
X152807060Y-102980770D01*
X152856750Y-103047770D01*
X152899630Y-103119310D01*
X152935300Y-103194720D01*
X152963400Y-103273260D01*
X152983670Y-103354170D01*
X152995910Y-103436690D01*
X153000000Y-103520000D01*
X152995910Y-103603310D01*
X152983670Y-103685830D01*
X152963400Y-103766740D01*
X152935300Y-103845280D01*
X152899630Y-103920690D01*
X152856750Y-103992230D01*
X152807060Y-104059230D01*
X152751040Y-104121040D01*
X152689230Y-104177060D01*
X152622230Y-104226750D01*
X152550690Y-104269630D01*
X152475280Y-104305300D01*
X152396740Y-104333400D01*
X152315830Y-104353670D01*
X152233310Y-104365910D01*
X152150000Y-104370000D01*
X152066690Y-104365910D01*
X151984170Y-104353670D01*
X151903260Y-104333400D01*
X151824720Y-104305300D01*
X151749310Y-104269630D01*
X151677770Y-104226750D01*
X151610770Y-104177060D01*
X151548960Y-104121040D01*
X151492940Y-104059230D01*
X151443250Y-103992230D01*
X151400370Y-103920690D01*
X151364700Y-103845280D01*
X151336600Y-103766740D01*
X151316330Y-103685830D01*
X151304090Y-103603310D01*
X151300000Y-103520000D01*
X151304090Y-103436690D01*
X151316330Y-103354170D01*
X151336600Y-103273260D01*
X151364700Y-103194720D01*
X151400370Y-103119310D01*
X151443250Y-103047770D01*
X151492940Y-102980770D01*
X151548960Y-102918960D01*
X151610770Y-102862940D01*
X151677770Y-102813250D01*
X151749310Y-102770370D01*
X151824720Y-102734700D01*
X151903260Y-102706600D01*
X151984170Y-102686330D01*
X152066690Y-102674090D01*
X152150000Y-102670000D01*
X152233310Y-102674090D01*
G37*
D11*
X157925000Y-83750000D02*
G75*
G03*
X157925000Y-83750000I-1075000J0D01*
G01*
D10*
G36*
X152233310Y-105214090D02*
G01*
X152315830Y-105226330D01*
X152396740Y-105246600D01*
X152475280Y-105274700D01*
X152550690Y-105310370D01*
X152622230Y-105353250D01*
X152689230Y-105402940D01*
X152751040Y-105458960D01*
X152807060Y-105520770D01*
X152856750Y-105587770D01*
X152899630Y-105659310D01*
X152935300Y-105734720D01*
X152963400Y-105813260D01*
X152983670Y-105894170D01*
X152995910Y-105976690D01*
X153000000Y-106060000D01*
X152995910Y-106143310D01*
X152983670Y-106225830D01*
X152963400Y-106306740D01*
X152935300Y-106385280D01*
X152899630Y-106460690D01*
X152856750Y-106532230D01*
X152807060Y-106599230D01*
X152751040Y-106661040D01*
X152689230Y-106717060D01*
X152622230Y-106766750D01*
X152550690Y-106809630D01*
X152475280Y-106845300D01*
X152396740Y-106873400D01*
X152315830Y-106893670D01*
X152233310Y-106905910D01*
X152150000Y-106910000D01*
X152066690Y-106905910D01*
X151984170Y-106893670D01*
X151903260Y-106873400D01*
X151824720Y-106845300D01*
X151749310Y-106809630D01*
X151677770Y-106766750D01*
X151610770Y-106717060D01*
X151548960Y-106661040D01*
X151492940Y-106599230D01*
X151443250Y-106532230D01*
X151400370Y-106460690D01*
X151364700Y-106385280D01*
X151336600Y-106306740D01*
X151316330Y-106225830D01*
X151304090Y-106143310D01*
X151300000Y-106060000D01*
X151304090Y-105976690D01*
X151316330Y-105894170D01*
X151336600Y-105813260D01*
X151364700Y-105734720D01*
X151400370Y-105659310D01*
X151443250Y-105587770D01*
X151492940Y-105520770D01*
X151548960Y-105458960D01*
X151610770Y-105402940D01*
X151677770Y-105353250D01*
X151749310Y-105310370D01*
X151824720Y-105274700D01*
X151903260Y-105246600D01*
X151984170Y-105226330D01*
X152066690Y-105214090D01*
X152150000Y-105210000D01*
X152233310Y-105214090D01*
G37*
G36*
X141890000Y-87855000D02*
G01*
X140190000Y-87855000D01*
X140190000Y-86155000D01*
X141890000Y-86155000D01*
X141890000Y-87855000D01*
G37*
D12*
%TO.C,U2*%
X147725000Y-102625000D03*
X147725000Y-103275000D03*
X147725000Y-103925000D03*
X147725000Y-104575000D03*
X147725000Y-105225000D03*
X147725000Y-105875000D03*
X147725000Y-106525000D03*
X142000000Y-106525000D03*
X142000000Y-105875000D03*
X142000000Y-105225000D03*
X142000000Y-104575000D03*
X142000000Y-103925000D03*
X142000000Y-103275000D03*
X142000000Y-102625000D03*
%TD*%
D13*
%TO.C,J1*%
X141050000Y-87000000D03*
D14*
X143590000Y-87000000D03*
X146130000Y-87000000D03*
X148670000Y-87000000D03*
%TD*%
D13*
%TO.C,J5*%
X161867860Y-95778570D03*
D14*
X161867860Y-98318570D03*
X161867860Y-100858570D03*
X161867860Y-103398570D03*
X161867860Y-105938570D03*
X161867860Y-108478570D03*
X161867860Y-111018570D03*
X161867860Y-113558570D03*
%TD*%
D15*
%TO.C,J2*%
X143730000Y-114300000D03*
D14*
X146270000Y-114300000D03*
%TD*%
D16*
%TO.C,REF\u002A\u002A*%
X156840000Y-125275000D03*
%TD*%
%TO.C,REF\u002A\u002A*%
X156850000Y-83750000D03*
%TD*%
%TO.C,REF\u002A\u002A*%
X120850000Y-104560000D03*
%TD*%
D13*
%TO.C,ISP1*%
X157235800Y-103434000D03*
D14*
X157235800Y-105974000D03*
X154695800Y-103434000D03*
X154695800Y-105974000D03*
X152155800Y-103434000D03*
X152155800Y-105974000D03*
%TD*%
D13*
%TO.C,J6*%
X149675000Y-110300000D03*
D14*
X152215000Y-110300000D03*
%TD*%
D13*
%TO.C,J4*%
X136524400Y-107660000D03*
D14*
X136524400Y-110200000D03*
X136524400Y-112740000D03*
%TD*%
D13*
%TO.C,J3*%
X152525000Y-115600000D03*
D14*
X155065000Y-115600000D03*
%TD*%
M02*
