  0
SECTION
  2
HEADER
  9
$ANGBASE
  50
0.0
  9
$ANGDIR
  70
1
  9
$MEASUREMENT
  70
0
  0
ENDSEC
  0
SECTION
  2
TABLES
  0
TABLE
  2
LTYPE
  70
4
  0
LTYPE
  5
40F
  2
CONTINUOUS
  70
0
  3
Solid line
  72
65
  73
0
  40
0.0
  0
LTYPE
  5
410
  2
DASHDOT
 70
0
  3
Dash Dot ____ _ ____ _
 72
65
 73
4
 40
2.0
 49
1.25
 49
-0.25
 49
0.25
 49
-0.25
  0
LTYPE
  5
411
  2
DASHED
 70
0
  3
Dashed __ __ __ __ __
 72
65
 73
2
 40
0.75
 49
0.5
 49
-0.25
  0
LTYPE
  5
43B
  2
DOTTED
 70
0
  3
Dotted .  .  .  .
 72
65
 73
2
 40
0.2
 49
0.0
 49
-0.2
  0
ENDTAB
  0
TABLE
  2
STYLE
  70
4
  0
STYLE
  2
KICAD
  70
0
  40
0
  41
1
  42
1
  50
0
  71
0
  3
isocp.shx
  0
STYLE
  2
KICADB
  70
0
  40
0
  41
1
  42
1
  50
0
  71
0
  3
isocp.shx
  0
STYLE
  2
KICADI
  70
0
  40
0
  41
1
  42
1
  50
15
  71
0
  3
isocp.shx
  0
STYLE
  2
KICADBI
  70
0
  40
0
  41
1
  42
1
  50
15
  71
0
  3
isocp.shx
  0
ENDTAB
  0
TABLE
  2
LAYER
  70
1
  0
LAYER
  2
BLACK
  70
0
  62
7
  6
CONTINUOUS
  0
ENDTAB
  0
ENDSEC
  0
SECTION
  2
ENTITIES
0
LINE
8
BLACK
6
CONTINUOUS
10
4.16625
20
-3.0801
11
4.16785
21
-3.08117
0
LINE
8
BLACK
6
CONTINUOUS
10
4.16785
20
-3.08117
11
4.16892
21
-3.08276
0
LINE
8
BLACK
6
CONTINUOUS
10
4.16892
20
-3.08276
11
4.16929
21
-3.08465
0
LINE
8
BLACK
6
CONTINUOUS
10
4.16929
20
-3.08465
11
4.16929
21
-3.09449
0
LINE
8
BLACK
6
CONTINUOUS
10
4.16929
20
-3.09449
11
4.16892
21
-3.09637
0
LINE
8
BLACK
6
CONTINUOUS
10
4.16892
20
-3.09637
11
4.16785
21
-3.09797
0
LINE
8
BLACK
6
CONTINUOUS
10
4.16785
20
-3.09797
11
4.16625
21
-3.09903
0
LINE
8
BLACK
6
CONTINUOUS
10
4.16625
20
-3.09903
11
4.16437
21
-3.09941
0
LINE
8
BLACK
6
CONTINUOUS
10
4.16437
20
-3.09941
11
4.10433
21
-3.09941
0
LINE
8
BLACK
6
CONTINUOUS
10
4.10433
20
-3.09941
11
4.10245
21
-3.09903
0
LINE
8
BLACK
6
CONTINUOUS
10
4.10245
20
-3.09903
11
4.10085
21
-3.09797
0
LINE
8
BLACK
6
CONTINUOUS
10
4.10085
20
-3.09797
11
4.09978
21
-3.09637
0
LINE
8
BLACK
6
CONTINUOUS
10
4.09978
20
-3.09637
11
4.09941
21
-3.09449
0
LINE
8
BLACK
6
CONTINUOUS
10
4.09941
20
-3.09449
11
4.09941
21
-3.08465
0
LINE
8
BLACK
6
CONTINUOUS
10
4.09941
20
-3.08465
11
4.09978
21
-3.08276
0
LINE
8
BLACK
6
CONTINUOUS
10
4.09978
20
-3.08276
11
4.10085
21
-3.08117
0
LINE
8
BLACK
6
CONTINUOUS
10
4.10085
20
-3.08117
11
4.10245
21
-3.0801
0
LINE
8
BLACK
6
CONTINUOUS
10
4.10245
20
-3.0801
11
4.10433
21
-3.07972
0
LINE
8
BLACK
6
CONTINUOUS
10
4.10433
20
-3.07972
11
4.16437
21
-3.07972
0
LINE
8
BLACK
6
CONTINUOUS
10
4.16437
20
-3.07972
11
4.16625
21
-3.0801
0
LINE
8
BLACK
6
CONTINUOUS
10
3.89755
20
-3.0801
11
3.89915
21
-3.08117
0
LINE
8
BLACK
6
CONTINUOUS
10
3.89915
20
-3.08117
11
3.90022
21
-3.08276
0
LINE
8
BLACK
6
CONTINUOUS
10
3.90022
20
-3.08276
11
3.90059
21
-3.08465
0
LINE
8
BLACK
6
CONTINUOUS
10
3.90059
20
-3.08465
11
3.90059
21
-3.09449
0
LINE
8
BLACK
6
CONTINUOUS
10
3.90059
20
-3.09449
11
3.90022
21
-3.09637
0
LINE
8
BLACK
6
CONTINUOUS
10
3.90022
20
-3.09637
11
3.89915
21
-3.09797
0
LINE
8
BLACK
6
CONTINUOUS
10
3.89915
20
-3.09797
11
3.89755
21
-3.09903
0
LINE
8
BLACK
6
CONTINUOUS
10
3.89755
20
-3.09903
11
3.89567
21
-3.09941
0
LINE
8
BLACK
6
CONTINUOUS
10
3.89567
20
-3.09941
11
3.83563
21
-3.09941
0
LINE
8
BLACK
6
CONTINUOUS
10
3.83563
20
-3.09941
11
3.83375
21
-3.09903
0
LINE
8
BLACK
6
CONTINUOUS
10
3.83375
20
-3.09903
11
3.83215
21
-3.09797
0
LINE
8
BLACK
6
CONTINUOUS
10
3.83215
20
-3.09797
11
3.83108
21
-3.09637
0
LINE
8
BLACK
6
CONTINUOUS
10
3.83108
20
-3.09637
11
3.83071
21
-3.09449
0
LINE
8
BLACK
6
CONTINUOUS
10
3.83071
20
-3.09449
11
3.83071
21
-3.08465
0
LINE
8
BLACK
6
CONTINUOUS
10
3.83071
20
-3.08465
11
3.83108
21
-3.08276
0
LINE
8
BLACK
6
CONTINUOUS
10
3.83108
20
-3.08276
11
3.83215
21
-3.08117
0
LINE
8
BLACK
6
CONTINUOUS
10
3.83215
20
-3.08117
11
3.83375
21
-3.0801
0
LINE
8
BLACK
6
CONTINUOUS
10
3.83375
20
-3.0801
11
3.83563
21
-3.07972
0
LINE
8
BLACK
6
CONTINUOUS
10
3.83563
20
-3.07972
11
3.89567
21
-3.07972
0
LINE
8
BLACK
6
CONTINUOUS
10
3.89567
20
-3.07972
11
3.89755
21
-3.0801
0
LINE
8
BLACK
6
CONTINUOUS
10
4.16625
20
-3.05451
11
4.16785
21
-3.05558
0
LINE
8
BLACK
6
CONTINUOUS
10
4.16785
20
-3.05558
11
4.16892
21
-3.05717
0
LINE
8
BLACK
6
CONTINUOUS
10
4.16892
20
-3.05717
11
4.16929
21
-3.05906
0
LINE
8
BLACK
6
CONTINUOUS
10
4.16929
20
-3.05906
11
4.16929
21
-3.0689
0
LINE
8
BLACK
6
CONTINUOUS
10
4.16929
20
-3.0689
11
4.16892
21
-3.07078
0
LINE
8
BLACK
6
CONTINUOUS
10
4.16892
20
-3.07078
11
4.16785
21
-3.07238
0
LINE
8
BLACK
6
CONTINUOUS
10
4.16785
20
-3.07238
11
4.16625
21
-3.07344
0
LINE
8
BLACK
6
CONTINUOUS
10
4.16625
20
-3.07344
11
4.16437
21
-3.07382
0
LINE
8
BLACK
6
CONTINUOUS
10
4.16437
20
-3.07382
11
4.10433
21
-3.07382
0
LINE
8
BLACK
6
CONTINUOUS
10
4.10433
20
-3.07382
11
4.10245
21
-3.07344
0
LINE
8
BLACK
6
CONTINUOUS
10
4.10245
20
-3.07344
11
4.10085
21
-3.07238
0
LINE
8
BLACK
6
CONTINUOUS
10
4.10085
20
-3.07238
11
4.09978
21
-3.07078
0
LINE
8
BLACK
6
CONTINUOUS
10
4.09978
20
-3.07078
11
4.09941
21
-3.0689
0
LINE
8
BLACK
6
CONTINUOUS
10
4.09941
20
-3.0689
11
4.09941
21
-3.05906
0
LINE
8
BLACK
6
CONTINUOUS
10
4.09941
20
-3.05906
11
4.09978
21
-3.05717
0
LINE
8
BLACK
6
CONTINUOUS
10
4.09978
20
-3.05717
11
4.10085
21
-3.05558
0
LINE
8
BLACK
6
CONTINUOUS
10
4.10085
20
-3.05558
11
4.10245
21
-3.05451
0
LINE
8
BLACK
6
CONTINUOUS
10
4.10245
20
-3.05451
11
4.10433
21
-3.05413
0
LINE
8
BLACK
6
CONTINUOUS
10
4.10433
20
-3.05413
11
4.16437
21
-3.05413
0
LINE
8
BLACK
6
CONTINUOUS
10
4.16437
20
-3.05413
11
4.16625
21
-3.05451
0
LINE
8
BLACK
6
CONTINUOUS
10
3.89755
20
-3.05451
11
3.89915
21
-3.05558
0
LINE
8
BLACK
6
CONTINUOUS
10
3.89915
20
-3.05558
11
3.90022
21
-3.05717
0
LINE
8
BLACK
6
CONTINUOUS
10
3.90022
20
-3.05717
11
3.90059
21
-3.05906
0
LINE
8
BLACK
6
CONTINUOUS
10
3.90059
20
-3.05906
11
3.90059
21
-3.0689
0
LINE
8
BLACK
6
CONTINUOUS
10
3.90059
20
-3.0689
11
3.90022
21
-3.07078
0
LINE
8
BLACK
6
CONTINUOUS
10
3.90022
20
-3.07078
11
3.89915
21
-3.07238
0
LINE
8
BLACK
6
CONTINUOUS
10
3.89915
20
-3.07238
11
3.89755
21
-3.07344
0
LINE
8
BLACK
6
CONTINUOUS
10
3.89755
20
-3.07344
11
3.89567
21
-3.07382
0
LINE
8
BLACK
6
CONTINUOUS
10
3.89567
20
-3.07382
11
3.83563
21
-3.07382
0
LINE
8
BLACK
6
CONTINUOUS
10
3.83563
20
-3.07382
11
3.83375
21
-3.07344
0
LINE
8
BLACK
6
CONTINUOUS
10
3.83375
20
-3.07344
11
3.83215
21
-3.07238
0
LINE
8
BLACK
6
CONTINUOUS
10
3.83215
20
-3.07238
11
3.83108
21
-3.07078
0
LINE
8
BLACK
6
CONTINUOUS
10
3.83108
20
-3.07078
11
3.83071
21
-3.0689
0
LINE
8
BLACK
6
CONTINUOUS
10
3.83071
20
-3.0689
11
3.83071
21
-3.05906
0
LINE
8
BLACK
6
CONTINUOUS
10
3.83071
20
-3.05906
11
3.83108
21
-3.05717
0
LINE
8
BLACK
6
CONTINUOUS
10
3.83108
20
-3.05717
11
3.83215
21
-3.05558
0
LINE
8
BLACK
6
CONTINUOUS
10
3.83215
20
-3.05558
11
3.83375
21
-3.05451
0
LINE
8
BLACK
6
CONTINUOUS
10
3.83375
20
-3.05451
11
3.83563
21
-3.05413
0
LINE
8
BLACK
6
CONTINUOUS
10
3.83563
20
-3.05413
11
3.89567
21
-3.05413
0
LINE
8
BLACK
6
CONTINUOUS
10
3.89567
20
-3.05413
11
3.89755
21
-3.05451
0
LINE
8
BLACK
6
CONTINUOUS
10
4.16625
20
-3.02892
11
4.16785
21
-3.02998
0
LINE
8
BLACK
6
CONTINUOUS
10
4.16785
20
-3.02998
11
4.16892
21
-3.03158
0
LINE
8
BLACK
6
CONTINUOUS
10
4.16892
20
-3.03158
11
4.16929
21
-3.03346
0
LINE
8
BLACK
6
CONTINUOUS
10
4.16929
20
-3.03346
11
4.16929
21
-3.04331
0
LINE
8
BLACK
6
CONTINUOUS
10
4.16929
20
-3.04331
11
4.16892
21
-3.04519
0
LINE
8
BLACK
6
CONTINUOUS
10
4.16892
20
-3.04519
11
4.16785
21
-3.04679
0
LINE
8
BLACK
6
CONTINUOUS
10
4.16785
20
-3.04679
11
4.16625
21
-3.04785
0
LINE
8
BLACK
6
CONTINUOUS
10
4.16625
20
-3.04785
11
4.16437
21
-3.04823
0
LINE
8
BLACK
6
CONTINUOUS
10
4.16437
20
-3.04823
11
4.10433
21
-3.04823
0
LINE
8
BLACK
6
CONTINUOUS
10
4.10433
20
-3.04823
11
4.10245
21
-3.04785
0
LINE
8
BLACK
6
CONTINUOUS
10
4.10245
20
-3.04785
11
4.10085
21
-3.04679
0
LINE
8
BLACK
6
CONTINUOUS
10
4.10085
20
-3.04679
11
4.09978
21
-3.04519
0
LINE
8
BLACK
6
CONTINUOUS
10
4.09978
20
-3.04519
11
4.09941
21
-3.04331
0
LINE
8
BLACK
6
CONTINUOUS
10
4.09941
20
-3.04331
11
4.09941
21
-3.03346
0
LINE
8
BLACK
6
CONTINUOUS
10
4.09941
20
-3.03346
11
4.09978
21
-3.03158
0
LINE
8
BLACK
6
CONTINUOUS
10
4.09978
20
-3.03158
11
4.10085
21
-3.02998
0
LINE
8
BLACK
6
CONTINUOUS
10
4.10085
20
-3.02998
11
4.10245
21
-3.02892
0
LINE
8
BLACK
6
CONTINUOUS
10
4.10245
20
-3.02892
11
4.10433
21
-3.02854
0
LINE
8
BLACK
6
CONTINUOUS
10
4.10433
20
-3.02854
11
4.16437
21
-3.02854
0
LINE
8
BLACK
6
CONTINUOUS
10
4.16437
20
-3.02854
11
4.16625
21
-3.02892
0
LINE
8
BLACK
6
CONTINUOUS
10
3.89755
20
-3.02892
11
3.89915
21
-3.02998
0
LINE
8
BLACK
6
CONTINUOUS
10
3.89915
20
-3.02998
11
3.90022
21
-3.03158
0
LINE
8
BLACK
6
CONTINUOUS
10
3.90022
20
-3.03158
11
3.90059
21
-3.03346
0
LINE
8
BLACK
6
CONTINUOUS
10
3.90059
20
-3.03346
11
3.90059
21
-3.04331
0
LINE
8
BLACK
6
CONTINUOUS
10
3.90059
20
-3.04331
11
3.90022
21
-3.04519
0
LINE
8
BLACK
6
CONTINUOUS
10
3.90022
20
-3.04519
11
3.89915
21
-3.04679
0
LINE
8
BLACK
6
CONTINUOUS
10
3.89915
20
-3.04679
11
3.89755
21
-3.04785
0
LINE
8
BLACK
6
CONTINUOUS
10
3.89755
20
-3.04785
11
3.89567
21
-3.04823
0
LINE
8
BLACK
6
CONTINUOUS
10
3.89567
20
-3.04823
11
3.83563
21
-3.04823
0
LINE
8
BLACK
6
CONTINUOUS
10
3.83563
20
-3.04823
11
3.83375
21
-3.04785
0
LINE
8
BLACK
6
CONTINUOUS
10
3.83375
20
-3.04785
11
3.83215
21
-3.04679
0
LINE
8
BLACK
6
CONTINUOUS
10
3.83215
20
-3.04679
11
3.83108
21
-3.04519
0
LINE
8
BLACK
6
CONTINUOUS
10
3.83108
20
-3.04519
11
3.83071
21
-3.04331
0
LINE
8
BLACK
6
CONTINUOUS
10
3.83071
20
-3.04331
11
3.83071
21
-3.03346
0
LINE
8
BLACK
6
CONTINUOUS
10
3.83071
20
-3.03346
11
3.83108
21
-3.03158
0
LINE
8
BLACK
6
CONTINUOUS
10
3.83108
20
-3.03158
11
3.83215
21
-3.02998
0
LINE
8
BLACK
6
CONTINUOUS
10
3.83215
20
-3.02998
11
3.83375
21
-3.02892
0
LINE
8
BLACK
6
CONTINUOUS
10
3.83375
20
-3.02892
11
3.83563
21
-3.02854
0
LINE
8
BLACK
6
CONTINUOUS
10
3.83563
20
-3.02854
11
3.89567
21
-3.02854
0
LINE
8
BLACK
6
CONTINUOUS
10
3.89567
20
-3.02854
11
3.89755
21
-3.02892
0
LINE
8
BLACK
6
CONTINUOUS
10
4.16625
20
-3.00333
11
4.16785
21
-3.00439
0
LINE
8
BLACK
6
CONTINUOUS
10
4.16785
20
-3.00439
11
4.16892
21
-3.00599
0
LINE
8
BLACK
6
CONTINUOUS
10
4.16892
20
-3.00599
11
4.16929
21
-3.00787
0
LINE
8
BLACK
6
CONTINUOUS
10
4.16929
20
-3.00787
11
4.16929
21
-3.01772
0
LINE
8
BLACK
6
CONTINUOUS
10
4.16929
20
-3.01772
11
4.16892
21
-3.0196
0
LINE
8
BLACK
6
CONTINUOUS
10
4.16892
20
-3.0196
11
4.16785
21
-3.0212
0
LINE
8
BLACK
6
CONTINUOUS
10
4.16785
20
-3.0212
11
4.16625
21
-3.02226
0
LINE
8
BLACK
6
CONTINUOUS
10
4.16625
20
-3.02226
11
4.16437
21
-3.02264
0
LINE
8
BLACK
6
CONTINUOUS
10
4.16437
20
-3.02264
11
4.10433
21
-3.02264
0
LINE
8
BLACK
6
CONTINUOUS
10
4.10433
20
-3.02264
11
4.10245
21
-3.02226
0
LINE
8
BLACK
6
CONTINUOUS
10
4.10245
20
-3.02226
11
4.10085
21
-3.0212
0
LINE
8
BLACK
6
CONTINUOUS
10
4.10085
20
-3.0212
11
4.09978
21
-3.0196
0
LINE
8
BLACK
6
CONTINUOUS
10
4.09978
20
-3.0196
11
4.09941
21
-3.01772
0
LINE
8
BLACK
6
CONTINUOUS
10
4.09941
20
-3.01772
11
4.09941
21
-3.00787
0
LINE
8
BLACK
6
CONTINUOUS
10
4.09941
20
-3.00787
11
4.09978
21
-3.00599
0
LINE
8
BLACK
6
CONTINUOUS
10
4.09978
20
-3.00599
11
4.10085
21
-3.00439
0
LINE
8
BLACK
6
CONTINUOUS
10
4.10085
20
-3.00439
11
4.10245
21
-3.00333
0
LINE
8
BLACK
6
CONTINUOUS
10
4.10245
20
-3.00333
11
4.10433
21
-3.00295
0
LINE
8
BLACK
6
CONTINUOUS
10
4.10433
20
-3.00295
11
4.16437
21
-3.00295
0
LINE
8
BLACK
6
CONTINUOUS
10
4.16437
20
-3.00295
11
4.16625
21
-3.00333
0
LINE
8
BLACK
6
CONTINUOUS
10
3.89755
20
-3.00333
11
3.89915
21
-3.00439
0
LINE
8
BLACK
6
CONTINUOUS
10
3.89915
20
-3.00439
11
3.90022
21
-3.00599
0
LINE
8
BLACK
6
CONTINUOUS
10
3.90022
20
-3.00599
11
3.90059
21
-3.00787
0
LINE
8
BLACK
6
CONTINUOUS
10
3.90059
20
-3.00787
11
3.90059
21
-3.01772
0
LINE
8
BLACK
6
CONTINUOUS
10
3.90059
20
-3.01772
11
3.90022
21
-3.0196
0
LINE
8
BLACK
6
CONTINUOUS
10
3.90022
20
-3.0196
11
3.89915
21
-3.0212
0
LINE
8
BLACK
6
CONTINUOUS
10
3.89915
20
-3.0212
11
3.89755
21
-3.02226
0
LINE
8
BLACK
6
CONTINUOUS
10
3.89755
20
-3.02226
11
3.89567
21
-3.02264
0
LINE
8
BLACK
6
CONTINUOUS
10
3.89567
20
-3.02264
11
3.83563
21
-3.02264
0
LINE
8
BLACK
6
CONTINUOUS
10
3.83563
20
-3.02264
11
3.83375
21
-3.02226
0
LINE
8
BLACK
6
CONTINUOUS
10
3.83375
20
-3.02226
11
3.83215
21
-3.0212
0
LINE
8
BLACK
6
CONTINUOUS
10
3.83215
20
-3.0212
11
3.83108
21
-3.0196
0
LINE
8
BLACK
6
CONTINUOUS
10
3.83108
20
-3.0196
11
3.83071
21
-3.01772
0
LINE
8
BLACK
6
CONTINUOUS
10
3.83071
20
-3.01772
11
3.83071
21
-3.00787
0
LINE
8
BLACK
6
CONTINUOUS
10
3.83071
20
-3.00787
11
3.83108
21
-3.00599
0
LINE
8
BLACK
6
CONTINUOUS
10
3.83108
20
-3.00599
11
3.83215
21
-3.00439
0
LINE
8
BLACK
6
CONTINUOUS
10
3.83215
20
-3.00439
11
3.83375
21
-3.00333
0
LINE
8
BLACK
6
CONTINUOUS
10
3.83375
20
-3.00333
11
3.83563
21
-3.00295
0
LINE
8
BLACK
6
CONTINUOUS
10
3.83563
20
-3.00295
11
3.89567
21
-3.00295
0
LINE
8
BLACK
6
CONTINUOUS
10
3.89567
20
-3.00295
11
3.89755
21
-3.00333
0
LINE
8
BLACK
6
CONTINUOUS
10
4.16625
20
-2.97774
11
4.16785
21
-2.9788
0
LINE
8
BLACK
6
CONTINUOUS
10
4.16785
20
-2.9788
11
4.16892
21
-2.9804
0
LINE
8
BLACK
6
CONTINUOUS
10
4.16892
20
-2.9804
11
4.16929
21
-2.98228
0
LINE
8
BLACK
6
CONTINUOUS
10
4.16929
20
-2.98228
11
4.16929
21
-2.99213
0
LINE
8
BLACK
6
CONTINUOUS
10
4.16929
20
-2.99213
11
4.16892
21
-2.99401
0
LINE
8
BLACK
6
CONTINUOUS
10
4.16892
20
-2.99401
11
4.16785
21
-2.99561
0
LINE
8
BLACK
6
CONTINUOUS
10
4.16785
20
-2.99561
11
4.16625
21
-2.99667
0
LINE
8
BLACK
6
CONTINUOUS
10
4.16625
20
-2.99667
11
4.16437
21
-2.99705
0
LINE
8
BLACK
6
CONTINUOUS
10
4.16437
20
-2.99705
11
4.10433
21
-2.99705
0
LINE
8
BLACK
6
CONTINUOUS
10
4.10433
20
-2.99705
11
4.10245
21
-2.99667
0
LINE
8
BLACK
6
CONTINUOUS
10
4.10245
20
-2.99667
11
4.10085
21
-2.99561
0
LINE
8
BLACK
6
CONTINUOUS
10
4.10085
20
-2.99561
11
4.09978
21
-2.99401
0
LINE
8
BLACK
6
CONTINUOUS
10
4.09978
20
-2.99401
11
4.09941
21
-2.99213
0
LINE
8
BLACK
6
CONTINUOUS
10
4.09941
20
-2.99213
11
4.09941
21
-2.98228
0
LINE
8
BLACK
6
CONTINUOUS
10
4.09941
20
-2.98228
11
4.09978
21
-2.9804
0
LINE
8
BLACK
6
CONTINUOUS
10
4.09978
20
-2.9804
11
4.10085
21
-2.9788
0
LINE
8
BLACK
6
CONTINUOUS
10
4.10085
20
-2.9788
11
4.10245
21
-2.97774
0
LINE
8
BLACK
6
CONTINUOUS
10
4.10245
20
-2.97774
11
4.10433
21
-2.97736
0
LINE
8
BLACK
6
CONTINUOUS
10
4.10433
20
-2.97736
11
4.16437
21
-2.97736
0
LINE
8
BLACK
6
CONTINUOUS
10
4.16437
20
-2.97736
11
4.16625
21
-2.97774
0
LINE
8
BLACK
6
CONTINUOUS
10
3.89755
20
-2.97774
11
3.89915
21
-2.9788
0
LINE
8
BLACK
6
CONTINUOUS
10
3.89915
20
-2.9788
11
3.90022
21
-2.9804
0
LINE
8
BLACK
6
CONTINUOUS
10
3.90022
20
-2.9804
11
3.90059
21
-2.98228
0
LINE
8
BLACK
6
CONTINUOUS
10
3.90059
20
-2.98228
11
3.90059
21
-2.99213
0
LINE
8
BLACK
6
CONTINUOUS
10
3.90059
20
-2.99213
11
3.90022
21
-2.99401
0
LINE
8
BLACK
6
CONTINUOUS
10
3.90022
20
-2.99401
11
3.89915
21
-2.99561
0
LINE
8
BLACK
6
CONTINUOUS
10
3.89915
20
-2.99561
11
3.89755
21
-2.99667
0
LINE
8
BLACK
6
CONTINUOUS
10
3.89755
20
-2.99667
11
3.89567
21
-2.99705
0
LINE
8
BLACK
6
CONTINUOUS
10
3.89567
20
-2.99705
11
3.83563
21
-2.99705
0
LINE
8
BLACK
6
CONTINUOUS
10
3.83563
20
-2.99705
11
3.83375
21
-2.99667
0
LINE
8
BLACK
6
CONTINUOUS
10
3.83375
20
-2.99667
11
3.83215
21
-2.99561
0
LINE
8
BLACK
6
CONTINUOUS
10
3.83215
20
-2.99561
11
3.83108
21
-2.99401
0
LINE
8
BLACK
6
CONTINUOUS
10
3.83108
20
-2.99401
11
3.83071
21
-2.99213
0
LINE
8
BLACK
6
CONTINUOUS
10
3.83071
20
-2.99213
11
3.83071
21
-2.98228
0
LINE
8
BLACK
6
CONTINUOUS
10
3.83071
20
-2.98228
11
3.83108
21
-2.9804
0
LINE
8
BLACK
6
CONTINUOUS
10
3.83108
20
-2.9804
11
3.83215
21
-2.9788
0
LINE
8
BLACK
6
CONTINUOUS
10
3.83215
20
-2.9788
11
3.83375
21
-2.97774
0
LINE
8
BLACK
6
CONTINUOUS
10
3.83375
20
-2.97774
11
3.83563
21
-2.97736
0
LINE
8
BLACK
6
CONTINUOUS
10
3.83563
20
-2.97736
11
3.89567
21
-2.97736
0
LINE
8
BLACK
6
CONTINUOUS
10
3.89567
20
-2.97736
11
3.89755
21
-2.97774
0
LINE
8
BLACK
6
CONTINUOUS
10
4.16625
20
-2.95215
11
4.16785
21
-2.95321
0
LINE
8
BLACK
6
CONTINUOUS
10
4.16785
20
-2.95321
11
4.16892
21
-2.95481
0
LINE
8
BLACK
6
CONTINUOUS
10
4.16892
20
-2.95481
11
4.16929
21
-2.95669
0
LINE
8
BLACK
6
CONTINUOUS
10
4.16929
20
-2.95669
11
4.16929
21
-2.96654
0
LINE
8
BLACK
6
CONTINUOUS
10
4.16929
20
-2.96654
11
4.16892
21
-2.96842
0
LINE
8
BLACK
6
CONTINUOUS
10
4.16892
20
-2.96842
11
4.16785
21
-2.97002
0
LINE
8
BLACK
6
CONTINUOUS
10
4.16785
20
-2.97002
11
4.16625
21
-2.97108
0
LINE
8
BLACK
6
CONTINUOUS
10
4.16625
20
-2.97108
11
4.16437
21
-2.97146
0
LINE
8
BLACK
6
CONTINUOUS
10
4.16437
20
-2.97146
11
4.10433
21
-2.97146
0
LINE
8
BLACK
6
CONTINUOUS
10
4.10433
20
-2.97146
11
4.10245
21
-2.97108
0
LINE
8
BLACK
6
CONTINUOUS
10
4.10245
20
-2.97108
11
4.10085
21
-2.97002
0
LINE
8
BLACK
6
CONTINUOUS
10
4.10085
20
-2.97002
11
4.09978
21
-2.96842
0
LINE
8
BLACK
6
CONTINUOUS
10
4.09978
20
-2.96842
11
4.09941
21
-2.96654
0
LINE
8
BLACK
6
CONTINUOUS
10
4.09941
20
-2.96654
11
4.09941
21
-2.95669
0
LINE
8
BLACK
6
CONTINUOUS
10
4.09941
20
-2.95669
11
4.09978
21
-2.95481
0
LINE
8
BLACK
6
CONTINUOUS
10
4.09978
20
-2.95481
11
4.10085
21
-2.95321
0
LINE
8
BLACK
6
CONTINUOUS
10
4.10085
20
-2.95321
11
4.10245
21
-2.95215
0
LINE
8
BLACK
6
CONTINUOUS
10
4.10245
20
-2.95215
11
4.10433
21
-2.95177
0
LINE
8
BLACK
6
CONTINUOUS
10
4.10433
20
-2.95177
11
4.16437
21
-2.95177
0
LINE
8
BLACK
6
CONTINUOUS
10
4.16437
20
-2.95177
11
4.16625
21
-2.95215
0
LINE
8
BLACK
6
CONTINUOUS
10
3.89755
20
-2.95215
11
3.89915
21
-2.95321
0
LINE
8
BLACK
6
CONTINUOUS
10
3.89915
20
-2.95321
11
3.90022
21
-2.95481
0
LINE
8
BLACK
6
CONTINUOUS
10
3.90022
20
-2.95481
11
3.90059
21
-2.95669
0
LINE
8
BLACK
6
CONTINUOUS
10
3.90059
20
-2.95669
11
3.90059
21
-2.96654
0
LINE
8
BLACK
6
CONTINUOUS
10
3.90059
20
-2.96654
11
3.90022
21
-2.96842
0
LINE
8
BLACK
6
CONTINUOUS
10
3.90022
20
-2.96842
11
3.89915
21
-2.97002
0
LINE
8
BLACK
6
CONTINUOUS
10
3.89915
20
-2.97002
11
3.89755
21
-2.97108
0
LINE
8
BLACK
6
CONTINUOUS
10
3.89755
20
-2.97108
11
3.89567
21
-2.97146
0
LINE
8
BLACK
6
CONTINUOUS
10
3.89567
20
-2.97146
11
3.83563
21
-2.97146
0
LINE
8
BLACK
6
CONTINUOUS
10
3.83563
20
-2.97146
11
3.83375
21
-2.97108
0
LINE
8
BLACK
6
CONTINUOUS
10
3.83375
20
-2.97108
11
3.83215
21
-2.97002
0
LINE
8
BLACK
6
CONTINUOUS
10
3.83215
20
-2.97002
11
3.83108
21
-2.96842
0
LINE
8
BLACK
6
CONTINUOUS
10
3.83108
20
-2.96842
11
3.83071
21
-2.96654
0
LINE
8
BLACK
6
CONTINUOUS
10
3.83071
20
-2.96654
11
3.83071
21
-2.95669
0
LINE
8
BLACK
6
CONTINUOUS
10
3.83071
20
-2.95669
11
3.83108
21
-2.95481
0
LINE
8
BLACK
6
CONTINUOUS
10
3.83108
20
-2.95481
11
3.83215
21
-2.95321
0
LINE
8
BLACK
6
CONTINUOUS
10
3.83215
20
-2.95321
11
3.83375
21
-2.95215
0
LINE
8
BLACK
6
CONTINUOUS
10
3.83375
20
-2.95215
11
3.83563
21
-2.95177
0
LINE
8
BLACK
6
CONTINUOUS
10
3.83563
20
-2.95177
11
3.89567
21
-2.95177
0
LINE
8
BLACK
6
CONTINUOUS
10
3.89567
20
-2.95177
11
3.89755
21
-2.95215
0
LINE
8
BLACK
6
CONTINUOUS
10
4.16625
20
-2.92656
11
4.16785
21
-2.92762
0
LINE
8
BLACK
6
CONTINUOUS
10
4.16785
20
-2.92762
11
4.16892
21
-2.92922
0
LINE
8
BLACK
6
CONTINUOUS
10
4.16892
20
-2.92922
11
4.16929
21
-2.9311
0
LINE
8
BLACK
6
CONTINUOUS
10
4.16929
20
-2.9311
11
4.16929
21
-2.94094
0
LINE
8
BLACK
6
CONTINUOUS
10
4.16929
20
-2.94094
11
4.16892
21
-2.94283
0
LINE
8
BLACK
6
CONTINUOUS
10
4.16892
20
-2.94283
11
4.16785
21
-2.94442
0
LINE
8
BLACK
6
CONTINUOUS
10
4.16785
20
-2.94442
11
4.16625
21
-2.94549
0
LINE
8
BLACK
6
CONTINUOUS
10
4.16625
20
-2.94549
11
4.16437
21
-2.94587
0
LINE
8
BLACK
6
CONTINUOUS
10
4.16437
20
-2.94587
11
4.10433
21
-2.94587
0
LINE
8
BLACK
6
CONTINUOUS
10
4.10433
20
-2.94587
11
4.10245
21
-2.94549
0
LINE
8
BLACK
6
CONTINUOUS
10
4.10245
20
-2.94549
11
4.10085
21
-2.94442
0
LINE
8
BLACK
6
CONTINUOUS
10
4.10085
20
-2.94442
11
4.09978
21
-2.94283
0
LINE
8
BLACK
6
CONTINUOUS
10
4.09978
20
-2.94283
11
4.09941
21
-2.94094
0
LINE
8
BLACK
6
CONTINUOUS
10
4.09941
20
-2.94094
11
4.09941
21
-2.9311
0
LINE
8
BLACK
6
CONTINUOUS
10
4.09941
20
-2.9311
11
4.09978
21
-2.92922
0
LINE
8
BLACK
6
CONTINUOUS
10
4.09978
20
-2.92922
11
4.10085
21
-2.92762
0
LINE
8
BLACK
6
CONTINUOUS
10
4.10085
20
-2.92762
11
4.10245
21
-2.92656
0
LINE
8
BLACK
6
CONTINUOUS
10
4.10245
20
-2.92656
11
4.10433
21
-2.92618
0
LINE
8
BLACK
6
CONTINUOUS
10
4.10433
20
-2.92618
11
4.16437
21
-2.92618
0
LINE
8
BLACK
6
CONTINUOUS
10
4.16437
20
-2.92618
11
4.16625
21
-2.92656
0
LINE
8
BLACK
6
CONTINUOUS
10
3.89755
20
-2.92656
11
3.89915
21
-2.92762
0
LINE
8
BLACK
6
CONTINUOUS
10
3.89915
20
-2.92762
11
3.90022
21
-2.92922
0
LINE
8
BLACK
6
CONTINUOUS
10
3.90022
20
-2.92922
11
3.90059
21
-2.9311
0
LINE
8
BLACK
6
CONTINUOUS
10
3.90059
20
-2.9311
11
3.90059
21
-2.94094
0
LINE
8
BLACK
6
CONTINUOUS
10
3.90059
20
-2.94094
11
3.90022
21
-2.94283
0
LINE
8
BLACK
6
CONTINUOUS
10
3.90022
20
-2.94283
11
3.89915
21
-2.94442
0
LINE
8
BLACK
6
CONTINUOUS
10
3.89915
20
-2.94442
11
3.89755
21
-2.94549
0
LINE
8
BLACK
6
CONTINUOUS
10
3.89755
20
-2.94549
11
3.89567
21
-2.94587
0
LINE
8
BLACK
6
CONTINUOUS
10
3.89567
20
-2.94587
11
3.83563
21
-2.94587
0
LINE
8
BLACK
6
CONTINUOUS
10
3.83563
20
-2.94587
11
3.83375
21
-2.94549
0
LINE
8
BLACK
6
CONTINUOUS
10
3.83375
20
-2.94549
11
3.83215
21
-2.94442
0
LINE
8
BLACK
6
CONTINUOUS
10
3.83215
20
-2.94442
11
3.83108
21
-2.94283
0
LINE
8
BLACK
6
CONTINUOUS
10
3.83108
20
-2.94283
11
3.83071
21
-2.94094
0
LINE
8
BLACK
6
CONTINUOUS
10
3.83071
20
-2.94094
11
3.83071
21
-2.9311
0
LINE
8
BLACK
6
CONTINUOUS
10
3.83071
20
-2.9311
11
3.83108
21
-2.92922
0
LINE
8
BLACK
6
CONTINUOUS
10
3.83108
20
-2.92922
11
3.83215
21
-2.92762
0
LINE
8
BLACK
6
CONTINUOUS
10
3.83215
20
-2.92762
11
3.83375
21
-2.92656
0
LINE
8
BLACK
6
CONTINUOUS
10
3.83375
20
-2.92656
11
3.83563
21
-2.92618
0
LINE
8
BLACK
6
CONTINUOUS
10
3.83563
20
-2.92618
11
3.89567
21
-2.92618
0
LINE
8
BLACK
6
CONTINUOUS
10
3.89567
20
-2.92618
11
3.89755
21
-2.92656
0
LINE
8
BLACK
6
CONTINUOUS
10
4.16625
20
-2.90097
11
4.16785
21
-2.90203
0
LINE
8
BLACK
6
CONTINUOUS
10
4.16785
20
-2.90203
11
4.16892
21
-2.90363
0
LINE
8
BLACK
6
CONTINUOUS
10
4.16892
20
-2.90363
11
4.16929
21
-2.90551
0
LINE
8
BLACK
6
CONTINUOUS
10
4.16929
20
-2.90551
11
4.16929
21
-2.91535
0
LINE
8
BLACK
6
CONTINUOUS
10
4.16929
20
-2.91535
11
4.16892
21
-2.91724
0
LINE
8
BLACK
6
CONTINUOUS
10
4.16892
20
-2.91724
11
4.16785
21
-2.91883
0
LINE
8
BLACK
6
CONTINUOUS
10
4.16785
20
-2.91883
11
4.16625
21
-2.9199
0
LINE
8
BLACK
6
CONTINUOUS
10
4.16625
20
-2.9199
11
4.16437
21
-2.92028
0
LINE
8
BLACK
6
CONTINUOUS
10
4.16437
20
-2.92028
11
4.10433
21
-2.92028
0
LINE
8
BLACK
6
CONTINUOUS
10
4.10433
20
-2.92028
11
4.10245
21
-2.9199
0
LINE
8
BLACK
6
CONTINUOUS
10
4.10245
20
-2.9199
11
4.10085
21
-2.91883
0
LINE
8
BLACK
6
CONTINUOUS
10
4.10085
20
-2.91883
11
4.09978
21
-2.91724
0
LINE
8
BLACK
6
CONTINUOUS
10
4.09978
20
-2.91724
11
4.09941
21
-2.91535
0
LINE
8
BLACK
6
CONTINUOUS
10
4.09941
20
-2.91535
11
4.09941
21
-2.90551
0
LINE
8
BLACK
6
CONTINUOUS
10
4.09941
20
-2.90551
11
4.09978
21
-2.90363
0
LINE
8
BLACK
6
CONTINUOUS
10
4.09978
20
-2.90363
11
4.10085
21
-2.90203
0
LINE
8
BLACK
6
CONTINUOUS
10
4.10085
20
-2.90203
11
4.10245
21
-2.90097
0
LINE
8
BLACK
6
CONTINUOUS
10
4.10245
20
-2.90097
11
4.10433
21
-2.90059
0
LINE
8
BLACK
6
CONTINUOUS
10
4.10433
20
-2.90059
11
4.16437
21
-2.90059
0
LINE
8
BLACK
6
CONTINUOUS
10
4.16437
20
-2.90059
11
4.16625
21
-2.90097
0
LINE
8
BLACK
6
CONTINUOUS
10
3.89755
20
-2.90097
11
3.89915
21
-2.90203
0
LINE
8
BLACK
6
CONTINUOUS
10
3.89915
20
-2.90203
11
3.90022
21
-2.90363
0
LINE
8
BLACK
6
CONTINUOUS
10
3.90022
20
-2.90363
11
3.90059
21
-2.90551
0
LINE
8
BLACK
6
CONTINUOUS
10
3.90059
20
-2.90551
11
3.90059
21
-2.91535
0
LINE
8
BLACK
6
CONTINUOUS
10
3.90059
20
-2.91535
11
3.90022
21
-2.91724
0
LINE
8
BLACK
6
CONTINUOUS
10
3.90022
20
-2.91724
11
3.89915
21
-2.91883
0
LINE
8
BLACK
6
CONTINUOUS
10
3.89915
20
-2.91883
11
3.89755
21
-2.9199
0
LINE
8
BLACK
6
CONTINUOUS
10
3.89755
20
-2.9199
11
3.89567
21
-2.92028
0
LINE
8
BLACK
6
CONTINUOUS
10
3.89567
20
-2.92028
11
3.83563
21
-2.92028
0
LINE
8
BLACK
6
CONTINUOUS
10
3.83563
20
-2.92028
11
3.83375
21
-2.9199
0
LINE
8
BLACK
6
CONTINUOUS
10
3.83375
20
-2.9199
11
3.83215
21
-2.91883
0
LINE
8
BLACK
6
CONTINUOUS
10
3.83215
20
-2.91883
11
3.83108
21
-2.91724
0
LINE
8
BLACK
6
CONTINUOUS
10
3.83108
20
-2.91724
11
3.83071
21
-2.91535
0
LINE
8
BLACK
6
CONTINUOUS
10
3.83071
20
-2.91535
11
3.83071
21
-2.90551
0
LINE
8
BLACK
6
CONTINUOUS
10
3.83071
20
-2.90551
11
3.83108
21
-2.90363
0
LINE
8
BLACK
6
CONTINUOUS
10
3.83108
20
-2.90363
11
3.83215
21
-2.90203
0
LINE
8
BLACK
6
CONTINUOUS
10
3.83215
20
-2.90203
11
3.83375
21
-2.90097
0
LINE
8
BLACK
6
CONTINUOUS
10
3.83375
20
-2.90097
11
3.83563
21
-2.90059
0
LINE
8
BLACK
6
CONTINUOUS
10
3.83563
20
-2.90059
11
3.89567
21
-2.90059
0
LINE
8
BLACK
6
CONTINUOUS
10
3.89567
20
-2.90059
11
3.89755
21
-2.90097
  0
ENDSEC
  0
EOF
