  0
SECTION
  2
HEADER
  9
$ANGBASE
  50
0.0
  9
$ANGDIR
  70
1
  9
$MEASUREMENT
  70
0
  0
ENDSEC
  0
SECTION
  2
TABLES
  0
TABLE
  2
LTYPE
  70
4
  0
LTYPE
  5
40F
  2
CONTINUOUS
  70
0
  3
Solid line
  72
65
  73
0
  40
0.0
  0
LTYPE
  5
410
  2
DASHDOT
 70
0
  3
Dash Dot ____ _ ____ _
 72
65
 73
4
 40
2.0
 49
1.25
 49
-0.25
 49
0.25
 49
-0.25
  0
LTYPE
  5
411
  2
DASHED
 70
0
  3
Dashed __ __ __ __ __
 72
65
 73
2
 40
0.75
 49
0.5
 49
-0.25
  0
LTYPE
  5
43B
  2
DOTTED
 70
0
  3
Dotted .  .  .  .
 72
65
 73
2
 40
0.2
 49
0.0
 49
-0.2
  0
ENDTAB
  0
TABLE
  2
STYLE
  70
4
  0
STYLE
  2
KICAD
  70
0
  40
0
  41
1
  42
1
  50
0
  71
0
  3
isocp.shx
  0
STYLE
  2
KICADB
  70
0
  40
0
  41
1
  42
1
  50
0
  71
0
  3
isocp.shx
  0
STYLE
  2
KICADI
  70
0
  40
0
  41
1
  42
1
  50
15
  71
0
  3
isocp.shx
  0
STYLE
  2
KICADBI
  70
0
  40
0
  41
1
  42
1
  50
15
  71
0
  3
isocp.shx
  0
ENDTAB
  0
TABLE
  2
LAYER
  70
1
  0
LAYER
  2
BLACK
  70
0
  62
7
  6
CONTINUOUS
  0
ENDTAB
  0
ENDSEC
  0
SECTION
  2
ENTITIES
0
LINE
8
BLACK
6
CONTINUOUS
10
5.85555
20
-2.67409
11
5.85578
21
-2.67464
0
LINE
8
BLACK
6
CONTINUOUS
10
5.85578
20
-2.67464
11
5.85578
21
-3.32502
0
LINE
8
BLACK
6
CONTINUOUS
10
5.85578
20
-3.32502
11
5.85555
21
-3.32558
0
LINE
8
BLACK
6
CONTINUOUS
10
5.85555
20
-3.32558
11
5.83401
21
-3.34712
0
LINE
8
BLACK
6
CONTINUOUS
10
5.83401
20
-3.34712
11
5.83346
21
-3.34735
0
LINE
8
BLACK
6
CONTINUOUS
10
5.83346
20
-3.34735
11
5.15915
21
-3.34735
0
LINE
8
BLACK
6
CONTINUOUS
10
5.15915
20
-3.34735
11
5.15859
21
-3.34712
0
LINE
8
BLACK
6
CONTINUOUS
10
5.15859
20
-3.34712
11
5.13706
21
-3.32558
0
LINE
8
BLACK
6
CONTINUOUS
10
5.13706
20
-3.32558
11
5.13683
21
-3.32502
0
LINE
8
BLACK
6
CONTINUOUS
10
5.13683
20
-3.32502
11
5.13683
21
-3.11137
0
LINE
8
BLACK
6
CONTINUOUS
10
5.13683
20
-3.11137
11
5.09556
21
-3.11137
0
LINE
8
BLACK
6
CONTINUOUS
10
5.09556
20
-3.11137
11
5.09269
21
-3.13802
0
LINE
8
BLACK
6
CONTINUOUS
10
5.09269
20
-3.13802
11
5.09269
21
-3.13804
0
LINE
8
BLACK
6
CONTINUOUS
10
5.09269
20
-3.13804
11
5.09269
21
-3.13805
0
LINE
8
BLACK
6
CONTINUOUS
10
5.09269
20
-3.13805
11
5.0869
21
-3.17797
0
LINE
8
BLACK
6
CONTINUOUS
10
5.0869
20
-3.17797
11
5.08689
21
-3.17799
0
LINE
8
BLACK
6
CONTINUOUS
10
5.08689
20
-3.17799
11
5.08689
21
-3.178
0
LINE
8
BLACK
6
CONTINUOUS
10
5.08689
20
-3.178
11
5.07965
21
-3.21768
0
LINE
8
BLACK
6
CONTINUOUS
10
5.07965
20
-3.21768
11
5.07965
21
-3.21769
0
LINE
8
BLACK
6
CONTINUOUS
10
5.07965
20
-3.21769
11
5.07965
21
-3.21771
0
LINE
8
BLACK
6
CONTINUOUS
10
5.07965
20
-3.21771
11
5.07095
21
-3.2571
0
LINE
8
BLACK
6
CONTINUOUS
10
5.07095
20
-3.2571
11
5.07094
21
-3.25711
0
LINE
8
BLACK
6
CONTINUOUS
10
5.07094
20
-3.25711
11
5.07094
21
-3.25713
0
LINE
8
BLACK
6
CONTINUOUS
10
5.07094
20
-3.25713
11
5.06081
21
-3.29617
0
LINE
8
BLACK
6
CONTINUOUS
10
5.06081
20
-3.29617
11
5.0608
21
-3.29618
0
LINE
8
BLACK
6
CONTINUOUS
10
5.0608
20
-3.29618
11
5.0608
21
-3.2962
0
LINE
8
BLACK
6
CONTINUOUS
10
5.0608
20
-3.2962
11
5.04924
21
-3.33485
0
LINE
8
BLACK
6
CONTINUOUS
10
5.04924
20
-3.33485
11
5.04923
21
-3.33486
0
LINE
8
BLACK
6
CONTINUOUS
10
5.04923
20
-3.33486
11
5.04924
21
-3.33487
0
LINE
8
BLACK
6
CONTINUOUS
10
5.04924
20
-3.33487
11
5.03627
21
-3.37306
0
LINE
8
BLACK
6
CONTINUOUS
10
5.03627
20
-3.37306
11
5.03626
21
-3.37307
0
LINE
8
BLACK
6
CONTINUOUS
10
5.03626
20
-3.37307
11
5.03626
21
-3.37309
0
LINE
8
BLACK
6
CONTINUOUS
10
5.03626
20
-3.37309
11
5.02191
21
-3.41079
0
LINE
8
BLACK
6
CONTINUOUS
10
5.02191
20
-3.41079
11
5.0219
21
-3.4108
0
LINE
8
BLACK
6
CONTINUOUS
10
5.0219
20
-3.4108
11
5.0219
21
-3.41082
0
LINE
8
BLACK
6
CONTINUOUS
10
5.0219
20
-3.41082
11
5.00617
21
-3.44796
0
LINE
8
BLACK
6
CONTINUOUS
10
5.00617
20
-3.44796
11
5.00615
21
-3.44797
0
LINE
8
BLACK
6
CONTINUOUS
10
5.00615
20
-3.44797
11
5.00615
21
-3.44798
0
LINE
8
BLACK
6
CONTINUOUS
10
5.00615
20
-3.44798
11
4.98907
21
-3.48452
0
LINE
8
BLACK
6
CONTINUOUS
10
4.98907
20
-3.48452
11
4.98906
21
-3.48453
0
LINE
8
BLACK
6
CONTINUOUS
10
4.98906
20
-3.48453
11
4.98906
21
-3.48455
0
LINE
8
BLACK
6
CONTINUOUS
10
4.98906
20
-3.48455
11
4.97065
21
-3.52044
0
LINE
8
BLACK
6
CONTINUOUS
10
4.97065
20
-3.52044
11
4.97064
21
-3.52045
0
LINE
8
BLACK
6
CONTINUOUS
10
4.97064
20
-3.52045
11
4.97064
21
-3.52046
0
LINE
8
BLACK
6
CONTINUOUS
10
4.97064
20
-3.52046
11
4.95094
21
-3.55566
0
LINE
8
BLACK
6
CONTINUOUS
10
4.95094
20
-3.55566
11
4.95092
21
-3.55567
0
LINE
8
BLACK
6
CONTINUOUS
10
4.95092
20
-3.55567
11
4.95092
21
-3.55569
0
LINE
8
BLACK
6
CONTINUOUS
10
4.95092
20
-3.55569
11
4.92993
21
-3.59014
0
LINE
8
BLACK
6
CONTINUOUS
10
4.92993
20
-3.59014
11
4.92992
21
-3.59015
0
LINE
8
BLACK
6
CONTINUOUS
10
4.92992
20
-3.59015
11
4.92992
21
-3.59016
0
LINE
8
BLACK
6
CONTINUOUS
10
4.92992
20
-3.59016
11
4.90769
21
-3.62381
0
LINE
8
BLACK
6
CONTINUOUS
10
4.90769
20
-3.62381
11
4.90767
21
-3.62382
0
LINE
8
BLACK
6
CONTINUOUS
10
4.90767
20
-3.62382
11
4.90767
21
-3.62384
0
LINE
8
BLACK
6
CONTINUOUS
10
4.90767
20
-3.62384
11
4.88421
21
-3.65666
0
LINE
8
BLACK
6
CONTINUOUS
10
4.88421
20
-3.65666
11
4.8842
21
-3.65667
0
LINE
8
BLACK
6
CONTINUOUS
10
4.8842
20
-3.65667
11
4.88419
21
-3.65668
0
LINE
8
BLACK
6
CONTINUOUS
10
4.88419
20
-3.65668
11
4.85955
21
-3.68862
0
LINE
8
BLACK
6
CONTINUOUS
10
4.85955
20
-3.68862
11
4.85954
21
-3.68863
0
LINE
8
BLACK
6
CONTINUOUS
10
4.85954
20
-3.68863
11
4.85954
21
-3.68864
0
LINE
8
BLACK
6
CONTINUOUS
10
4.85954
20
-3.68864
11
4.83375
21
-3.71965
0
LINE
8
BLACK
6
CONTINUOUS
10
4.83375
20
-3.71965
11
4.83373
21
-3.71966
0
LINE
8
BLACK
6
CONTINUOUS
10
4.83373
20
-3.71966
11
4.83373
21
-3.71968
0
LINE
8
BLACK
6
CONTINUOUS
10
4.83373
20
-3.71968
11
4.80682
21
-3.74973
0
LINE
8
BLACK
6
CONTINUOUS
10
4.80682
20
-3.74973
11
4.8068
21
-3.74973
0
LINE
8
BLACK
6
CONTINUOUS
10
4.8068
20
-3.74973
11
4.8068
21
-3.74975
0
LINE
8
BLACK
6
CONTINUOUS
10
4.8068
20
-3.74975
11
4.77881
21
-3.77879
0
LINE
8
BLACK
6
CONTINUOUS
10
4.77881
20
-3.77879
11
4.77879
21
-3.77879
0
LINE
8
BLACK
6
CONTINUOUS
10
4.77879
20
-3.77879
11
4.77879
21
-3.77881
0
LINE
8
BLACK
6
CONTINUOUS
10
4.77879
20
-3.77881
11
4.74975
21
-3.8068
0
LINE
8
BLACK
6
CONTINUOUS
10
4.74975
20
-3.8068
11
4.74973
21
-3.8068
0
LINE
8
BLACK
6
CONTINUOUS
10
4.74973
20
-3.8068
11
4.74973
21
-3.80682
0
LINE
8
BLACK
6
CONTINUOUS
10
4.74973
20
-3.80682
11
4.71968
21
-3.83373
0
LINE
8
BLACK
6
CONTINUOUS
10
4.71968
20
-3.83373
11
4.71966
21
-3.83373
0
LINE
8
BLACK
6
CONTINUOUS
10
4.71966
20
-3.83373
11
4.71965
21
-3.83375
0
LINE
8
BLACK
6
CONTINUOUS
10
4.71965
20
-3.83375
11
4.68864
21
-3.85954
0
LINE
8
BLACK
6
CONTINUOUS
10
4.68864
20
-3.85954
11
4.68863
21
-3.85954
0
LINE
8
BLACK
6
CONTINUOUS
10
4.68863
20
-3.85954
11
4.68862
21
-3.85955
0
LINE
8
BLACK
6
CONTINUOUS
10
4.68862
20
-3.85955
11
4.65668
21
-3.88419
0
LINE
8
BLACK
6
CONTINUOUS
10
4.65668
20
-3.88419
11
4.65667
21
-3.8842
0
LINE
8
BLACK
6
CONTINUOUS
10
4.65667
20
-3.8842
11
4.65666
21
-3.88421
0
LINE
8
BLACK
6
CONTINUOUS
10
4.65666
20
-3.88421
11
4.62384
21
-3.90767
0
LINE
8
BLACK
6
CONTINUOUS
10
4.62384
20
-3.90767
11
4.62382
21
-3.90767
0
LINE
8
BLACK
6
CONTINUOUS
10
4.62382
20
-3.90767
11
4.62381
21
-3.90769
0
LINE
8
BLACK
6
CONTINUOUS
10
4.62381
20
-3.90769
11
4.59016
21
-3.92992
0
LINE
8
BLACK
6
CONTINUOUS
10
4.59016
20
-3.92992
11
4.59015
21
-3.92992
0
LINE
8
BLACK
6
CONTINUOUS
10
4.59015
20
-3.92992
11
4.59014
21
-3.92993
0
LINE
8
BLACK
6
CONTINUOUS
10
4.59014
20
-3.92993
11
4.55569
21
-3.95092
0
LINE
8
BLACK
6
CONTINUOUS
10
4.55569
20
-3.95092
11
4.55567
21
-3.95092
0
LINE
8
BLACK
6
CONTINUOUS
10
4.55567
20
-3.95092
11
4.55566
21
-3.95094
0
LINE
8
BLACK
6
CONTINUOUS
10
4.55566
20
-3.95094
11
4.52046
21
-3.97064
0
LINE
8
BLACK
6
CONTINUOUS
10
4.52046
20
-3.97064
11
4.52045
21
-3.97064
0
LINE
8
BLACK
6
CONTINUOUS
10
4.52045
20
-3.97064
11
4.52044
21
-3.97065
0
LINE
8
BLACK
6
CONTINUOUS
10
4.52044
20
-3.97065
11
4.48455
21
-3.98906
0
LINE
8
BLACK
6
CONTINUOUS
10
4.48455
20
-3.98906
11
4.48453
21
-3.98906
0
LINE
8
BLACK
6
CONTINUOUS
10
4.48453
20
-3.98906
11
4.48452
21
-3.98907
0
LINE
8
BLACK
6
CONTINUOUS
10
4.48452
20
-3.98907
11
4.44798
21
-4.00615
0
LINE
8
BLACK
6
CONTINUOUS
10
4.44798
20
-4.00615
11
4.44797
21
-4.00615
0
LINE
8
BLACK
6
CONTINUOUS
10
4.44797
20
-4.00615
11
4.44796
21
-4.00617
0
LINE
8
BLACK
6
CONTINUOUS
10
4.44796
20
-4.00617
11
4.41082
21
-4.0219
0
LINE
8
BLACK
6
CONTINUOUS
10
4.41082
20
-4.0219
11
4.4108
21
-4.0219
0
LINE
8
BLACK
6
CONTINUOUS
10
4.4108
20
-4.0219
11
4.41079
21
-4.02191
0
LINE
8
BLACK
6
CONTINUOUS
10
4.41079
20
-4.02191
11
4.37309
21
-4.03626
0
LINE
8
BLACK
6
CONTINUOUS
10
4.37309
20
-4.03626
11
4.37307
21
-4.03626
0
LINE
8
BLACK
6
CONTINUOUS
10
4.37307
20
-4.03626
11
4.37306
21
-4.03627
0
LINE
8
BLACK
6
CONTINUOUS
10
4.37306
20
-4.03627
11
4.33487
21
-4.04924
0
LINE
8
BLACK
6
CONTINUOUS
10
4.33487
20
-4.04924
11
4.33486
21
-4.04923
0
LINE
8
BLACK
6
CONTINUOUS
10
4.33486
20
-4.04923
11
4.33485
21
-4.04924
0
LINE
8
BLACK
6
CONTINUOUS
10
4.33485
20
-4.04924
11
4.2962
21
-4.0608
0
LINE
8
BLACK
6
CONTINUOUS
10
4.2962
20
-4.0608
11
4.29618
21
-4.0608
0
LINE
8
BLACK
6
CONTINUOUS
10
4.29618
20
-4.0608
11
4.29617
21
-4.06081
0
LINE
8
BLACK
6
CONTINUOUS
10
4.29617
20
-4.06081
11
4.25713
21
-4.07094
0
LINE
8
BLACK
6
CONTINUOUS
10
4.25713
20
-4.07094
11
4.25711
21
-4.07094
0
LINE
8
BLACK
6
CONTINUOUS
10
4.25711
20
-4.07094
11
4.2571
21
-4.07095
0
LINE
8
BLACK
6
CONTINUOUS
10
4.2571
20
-4.07095
11
4.21771
21
-4.07965
0
LINE
8
BLACK
6
CONTINUOUS
10
4.21771
20
-4.07965
11
4.21769
21
-4.07965
0
LINE
8
BLACK
6
CONTINUOUS
10
4.21769
20
-4.07965
11
4.21768
21
-4.07965
0
LINE
8
BLACK
6
CONTINUOUS
10
4.21768
20
-4.07965
11
4.178
21
-4.08689
0
LINE
8
BLACK
6
CONTINUOUS
10
4.178
20
-4.08689
11
4.17799
21
-4.08689
0
LINE
8
BLACK
6
CONTINUOUS
10
4.17799
20
-4.08689
11
4.17797
21
-4.0869
0
LINE
8
BLACK
6
CONTINUOUS
10
4.17797
20
-4.0869
11
4.13805
21
-4.09269
0
LINE
8
BLACK
6
CONTINUOUS
10
4.13805
20
-4.09269
11
4.13804
21
-4.09269
0
LINE
8
BLACK
6
CONTINUOUS
10
4.13804
20
-4.09269
11
4.13802
21
-4.09269
0
LINE
8
BLACK
6
CONTINUOUS
10
4.13802
20
-4.09269
11
4.09792
21
-4.09701
0
LINE
8
BLACK
6
CONTINUOUS
10
4.09792
20
-4.09701
11
4.09791
21
-4.09701
0
LINE
8
BLACK
6
CONTINUOUS
10
4.09791
20
-4.09701
11
4.0979
21
-4.09702
0
LINE
8
BLACK
6
CONTINUOUS
10
4.0979
20
-4.09702
11
4.05766
21
-4.09987
0
LINE
8
BLACK
6
CONTINUOUS
10
4.05766
20
-4.09987
11
4.05764
21
-4.09986
0
LINE
8
BLACK
6
CONTINUOUS
10
4.05764
20
-4.09986
11
4.05763
21
-4.09987
0
LINE
8
BLACK
6
CONTINUOUS
10
4.05763
20
-4.09987
11
4.01732
21
-4.10125
0
LINE
8
BLACK
6
CONTINUOUS
10
4.01732
20
-4.10125
11
4.0173
21
-4.10124
0
LINE
8
BLACK
6
CONTINUOUS
10
4.0173
20
-4.10124
11
4.01729
21
-4.10125
0
LINE
8
BLACK
6
CONTINUOUS
10
4.01729
20
-4.10125
11
3.97695
21
-4.10114
0
LINE
8
BLACK
6
CONTINUOUS
10
3.97695
20
-4.10114
11
3.97693
21
-4.10113
0
LINE
8
BLACK
6
CONTINUOUS
10
3.97693
20
-4.10113
11
3.97692
21
-4.10114
0
LINE
8
BLACK
6
CONTINUOUS
10
3.97692
20
-4.10114
11
3.93662
21
-4.09956
0
LINE
8
BLACK
6
CONTINUOUS
10
3.93662
20
-4.09956
11
3.9366
21
-4.09955
0
LINE
8
BLACK
6
CONTINUOUS
10
3.9366
20
-4.09955
11
3.93659
21
-4.09956
0
LINE
8
BLACK
6
CONTINUOUS
10
3.93659
20
-4.09956
11
3.89637
21
-4.0965
0
LINE
8
BLACK
6
CONTINUOUS
10
3.89637
20
-4.0965
11
3.89636
21
-4.09649
0
LINE
8
BLACK
6
CONTINUOUS
10
3.89636
20
-4.09649
11
3.89634
21
-4.09649
0
LINE
8
BLACK
6
CONTINUOUS
10
3.89634
20
-4.09649
11
3.85625
21
-4.09196
0
LINE
8
BLACK
6
CONTINUOUS
10
3.85625
20
-4.09196
11
3.85624
21
-4.09195
0
LINE
8
BLACK
6
CONTINUOUS
10
3.85624
20
-4.09195
11
3.85622
21
-4.09196
0
LINE
8
BLACK
6
CONTINUOUS
10
3.85622
20
-4.09196
11
3.81634
21
-4.08596
0
LINE
8
BLACK
6
CONTINUOUS
10
3.81634
20
-4.08596
11
3.81633
21
-4.08595
0
LINE
8
BLACK
6
CONTINUOUS
10
3.81633
20
-4.08595
11
3.81631
21
-4.08595
0
LINE
8
BLACK
6
CONTINUOUS
10
3.81631
20
-4.08595
11
3.77666
21
-4.07849
0
LINE
8
BLACK
6
CONTINUOUS
10
3.77666
20
-4.07849
11
3.77665
21
-4.07849
0
LINE
8
BLACK
6
CONTINUOUS
10
3.77665
20
-4.07849
11
3.77664
21
-4.07849
0
LINE
8
BLACK
6
CONTINUOUS
10
3.77664
20
-4.07849
11
3.7373
21
-4.06959
0
LINE
8
BLACK
6
CONTINUOUS
10
3.7373
20
-4.06959
11
3.73728
21
-4.06958
0
LINE
8
BLACK
6
CONTINUOUS
10
3.73728
20
-4.06958
11
3.73727
21
-4.06958
0
LINE
8
BLACK
6
CONTINUOUS
10
3.73727
20
-4.06958
11
3.69828
21
-4.05924
0
LINE
8
BLACK
6
CONTINUOUS
10
3.69828
20
-4.05924
11
3.69827
21
-4.05923
0
LINE
8
BLACK
6
CONTINUOUS
10
3.69827
20
-4.05923
11
3.69825
21
-4.05923
0
LINE
8
BLACK
6
CONTINUOUS
10
3.69825
20
-4.05923
11
3.65967
21
-4.04747
0
LINE
8
BLACK
6
CONTINUOUS
10
3.65967
20
-4.04747
11
3.65966
21
-4.04746
0
LINE
8
BLACK
6
CONTINUOUS
10
3.65966
20
-4.04746
11
3.65964
21
-4.04746
0
LINE
8
BLACK
6
CONTINUOUS
10
3.65964
20
-4.04746
11
3.62151
21
-4.0343
0
LINE
8
BLACK
6
CONTINUOUS
10
3.62151
20
-4.0343
11
3.6215
21
-4.03429
0
LINE
8
BLACK
6
CONTINUOUS
10
3.6215
20
-4.03429
11
3.62149
21
-4.03429
0
LINE
8
BLACK
6
CONTINUOUS
10
3.62149
20
-4.03429
11
3.58387
21
-4.01973
0
LINE
8
BLACK
6
CONTINUOUS
10
3.58387
20
-4.01973
11
3.58385
21
-4.01972
0
LINE
8
BLACK
6
CONTINUOUS
10
3.58385
20
-4.01972
11
3.58384
21
-4.01972
0
LINE
8
BLACK
6
CONTINUOUS
10
3.58384
20
-4.01972
11
3.54678
21
-4.0038
0
LINE
8
BLACK
6
CONTINUOUS
10
3.54678
20
-4.0038
11
3.54677
21
-4.00379
0
LINE
8
BLACK
6
CONTINUOUS
10
3.54677
20
-4.00379
11
3.54675
21
-4.00379
0
LINE
8
BLACK
6
CONTINUOUS
10
3.54675
20
-4.00379
11
3.5103
21
-3.98652
0
LINE
8
BLACK
6
CONTINUOUS
10
3.5103
20
-3.98652
11
3.51029
21
-3.98651
0
LINE
8
BLACK
6
CONTINUOUS
10
3.51029
20
-3.98651
11
3.51028
21
-3.98651
0
LINE
8
BLACK
6
CONTINUOUS
10
3.51028
20
-3.98651
11
3.47448
21
-3.96792
0
LINE
8
BLACK
6
CONTINUOUS
10
3.47448
20
-3.96792
11
3.47447
21
-3.96791
0
LINE
8
BLACK
6
CONTINUOUS
10
3.47447
20
-3.96791
11
3.47445
21
-3.9679
0
LINE
8
BLACK
6
CONTINUOUS
10
3.47445
20
-3.9679
11
3.43936
21
-3.948
0
LINE
8
BLACK
6
CONTINUOUS
10
3.43936
20
-3.948
11
3.43935
21
-3.94799
0
LINE
8
BLACK
6
CONTINUOUS
10
3.43935
20
-3.94799
11
3.43934
21
-3.94799
0
LINE
8
BLACK
6
CONTINUOUS
10
3.43934
20
-3.94799
11
3.40501
21
-3.92683
0
LINE
8
BLACK
6
CONTINUOUS
10
3.40501
20
-3.92683
11
3.405
21
-3.92682
0
LINE
8
BLACK
6
CONTINUOUS
10
3.405
20
-3.92682
11
3.40498
21
-3.92681
0
LINE
8
BLACK
6
CONTINUOUS
10
3.40498
20
-3.92681
11
3.37144
21
-3.9044
0
LINE
8
BLACK
6
CONTINUOUS
10
3.37144
20
-3.9044
11
3.37143
21
-3.90439
0
LINE
8
BLACK
6
CONTINUOUS
10
3.37143
20
-3.90439
11
3.37142
21
-3.90439
0
LINE
8
BLACK
6
CONTINUOUS
10
3.37142
20
-3.90439
11
3.33872
21
-3.88077
0
LINE
8
BLACK
6
CONTINUOUS
10
3.33872
20
-3.88077
11
3.33871
21
-3.88075
0
LINE
8
BLACK
6
CONTINUOUS
10
3.33871
20
-3.88075
11
3.3387
21
-3.88075
0
LINE
8
BLACK
6
CONTINUOUS
10
3.3387
20
-3.88075
11
3.3069
21
-3.85594
0
LINE
8
BLACK
6
CONTINUOUS
10
3.3069
20
-3.85594
11
3.30689
21
-3.85593
0
LINE
8
BLACK
6
CONTINUOUS
10
3.30689
20
-3.85593
11
3.30687
21
-3.85592
0
LINE
8
BLACK
6
CONTINUOUS
10
3.30687
20
-3.85592
11
3.27599
21
-3.82996
0
LINE
8
BLACK
6
CONTINUOUS
10
3.27599
20
-3.82996
11
3.27599
21
-3.82995
0
LINE
8
BLACK
6
CONTINUOUS
10
3.27599
20
-3.82995
11
3.27597
21
-3.82994
0
LINE
8
BLACK
6
CONTINUOUS
10
3.27597
20
-3.82994
11
3.24606
21
-3.80288
0
LINE
8
BLACK
6
CONTINUOUS
10
3.24606
20
-3.80288
11
3.24606
21
-3.80287
0
LINE
8
BLACK
6
CONTINUOUS
10
3.24606
20
-3.80287
11
3.24604
21
-3.80286
0
LINE
8
BLACK
6
CONTINUOUS
10
3.24604
20
-3.80286
11
3.21715
21
-3.77471
0
LINE
8
BLACK
6
CONTINUOUS
10
3.21715
20
-3.77471
11
3.21714
21
-3.7747
0
LINE
8
BLACK
6
CONTINUOUS
10
3.21714
20
-3.7747
11
3.21713
21
-3.77469
0
LINE
8
BLACK
6
CONTINUOUS
10
3.21713
20
-3.77469
11
3.18929
21
-3.7455
0
LINE
8
BLACK
6
CONTINUOUS
10
3.18929
20
-3.7455
11
3.18928
21
-3.74549
0
LINE
8
BLACK
6
CONTINUOUS
10
3.18928
20
-3.74549
11
3.18927
21
-3.74548
0
LINE
8
BLACK
6
CONTINUOUS
10
3.18927
20
-3.74548
11
3.16251
21
-3.7153
0
LINE
8
BLACK
6
CONTINUOUS
10
3.16251
20
-3.7153
11
3.16251
21
-3.71529
0
LINE
8
BLACK
6
CONTINUOUS
10
3.16251
20
-3.71529
11
3.16249
21
-3.71528
0
LINE
8
BLACK
6
CONTINUOUS
10
3.16249
20
-3.71528
11
3.13686
21
-3.68413
0
LINE
8
BLACK
6
CONTINUOUS
10
3.13686
20
-3.68413
11
3.13686
21
-3.68412
0
LINE
8
BLACK
6
CONTINUOUS
10
3.13686
20
-3.68412
11
3.13684
21
-3.68411
0
LINE
8
BLACK
6
CONTINUOUS
10
3.13684
20
-3.68411
11
3.11237
21
-3.65204
0
LINE
8
BLACK
6
CONTINUOUS
10
3.11237
20
-3.65204
11
3.11237
21
-3.65202
0
LINE
8
BLACK
6
CONTINUOUS
10
3.11237
20
-3.65202
11
3.11236
21
-3.65201
0
LINE
8
BLACK
6
CONTINUOUS
10
3.11236
20
-3.65201
11
3.08908
21
-3.61907
0
LINE
8
BLACK
6
CONTINUOUS
10
3.08908
20
-3.61907
11
3.08907
21
-3.61906
0
LINE
8
BLACK
6
CONTINUOUS
10
3.08907
20
-3.61906
11
3.08906
21
-3.61905
0
LINE
8
BLACK
6
CONTINUOUS
10
3.08906
20
-3.61905
11
3.06701
21
-3.58528
0
LINE
8
BLACK
6
CONTINUOUS
10
3.06701
20
-3.58528
11
3.06701
21
-3.58527
0
LINE
8
BLACK
6
CONTINUOUS
10
3.06701
20
-3.58527
11
3.067
21
-3.58526
0
LINE
8
BLACK
6
CONTINUOUS
10
3.067
20
-3.58526
11
3.04619
21
-3.55071
0
LINE
8
BLACK
6
CONTINUOUS
10
3.04619
20
-3.55071
11
3.04618
21
-3.55069
0
LINE
8
BLACK
6
CONTINUOUS
10
3.04618
20
-3.55069
11
3.04617
21
-3.55068
0
LINE
8
BLACK
6
CONTINUOUS
10
3.04617
20
-3.55068
11
3.02665
21
-3.51538
0
LINE
8
BLACK
6
CONTINUOUS
10
3.02665
20
-3.51538
11
3.02665
21
-3.51537
0
LINE
8
BLACK
6
CONTINUOUS
10
3.02665
20
-3.51537
11
3.02664
21
-3.51536
0
LINE
8
BLACK
6
CONTINUOUS
10
3.02664
20
-3.51536
11
3.00842
21
-3.47937
0
LINE
8
BLACK
6
CONTINUOUS
10
3.00842
20
-3.47937
11
3.00842
21
-3.47935
0
LINE
8
BLACK
6
CONTINUOUS
10
3.00842
20
-3.47935
11
3.0084
21
-3.47934
0
LINE
8
BLACK
6
CONTINUOUS
10
3.0084
20
-3.47934
11
2.99151
21
-3.44271
0
LINE
8
BLACK
6
CONTINUOUS
10
2.99151
20
-3.44271
11
2.99151
21
-3.44269
0
LINE
8
BLACK
6
CONTINUOUS
10
2.99151
20
-3.44269
11
2.9915
21
-3.44268
0
LINE
8
BLACK
6
CONTINUOUS
10
2.9915
20
-3.44268
11
2.97597
21
-3.40545
0
LINE
8
BLACK
6
CONTINUOUS
10
2.97597
20
-3.40545
11
2.97597
21
-3.40544
0
LINE
8
BLACK
6
CONTINUOUS
10
2.97597
20
-3.40544
11
2.97596
21
-3.40543
0
LINE
8
BLACK
6
CONTINUOUS
10
2.97596
20
-3.40543
11
2.9618
21
-3.36766
0
LINE
8
BLACK
6
CONTINUOUS
10
2.9618
20
-3.36766
11
2.9618
21
-3.36764
0
LINE
8
BLACK
6
CONTINUOUS
10
2.9618
20
-3.36764
11
2.96179
21
-3.36763
0
LINE
8
BLACK
6
CONTINUOUS
10
2.96179
20
-3.36763
11
2.94902
21
-3.32937
0
LINE
8
BLACK
6
CONTINUOUS
10
2.94902
20
-3.32937
11
2.94902
21
-3.32935
0
LINE
8
BLACK
6
CONTINUOUS
10
2.94902
20
-3.32935
11
2.94901
21
-3.32934
0
LINE
8
BLACK
6
CONTINUOUS
10
2.94901
20
-3.32934
11
2.93766
21
-3.29064
0
LINE
8
BLACK
6
CONTINUOUS
10
2.93766
20
-3.29064
11
2.93767
21
-3.29063
0
LINE
8
BLACK
6
CONTINUOUS
10
2.93767
20
-3.29063
11
2.93766
21
-3.29061
0
LINE
8
BLACK
6
CONTINUOUS
10
2.93766
20
-3.29061
11
2.92773
21
-3.25151
0
LINE
8
BLACK
6
CONTINUOUS
10
2.92773
20
-3.25151
11
2.92773
21
-3.2515
0
LINE
8
BLACK
6
CONTINUOUS
10
2.92773
20
-3.2515
11
2.92772
21
-3.25149
0
LINE
8
BLACK
6
CONTINUOUS
10
2.92772
20
-3.25149
11
2.91923
21
-3.21206
0
LINE
8
BLACK
6
CONTINUOUS
10
2.91923
20
-3.21206
11
2.91923
21
-3.21204
0
LINE
8
BLACK
6
CONTINUOUS
10
2.91923
20
-3.21204
11
2.91922
21
-3.21203
0
LINE
8
BLACK
6
CONTINUOUS
10
2.91922
20
-3.21203
11
2.91218
21
-3.17231
0
LINE
8
BLACK
6
CONTINUOUS
10
2.91218
20
-3.17231
11
2.91219
21
-3.17229
0
LINE
8
BLACK
6
CONTINUOUS
10
2.91219
20
-3.17229
11
2.91218
21
-3.17228
0
LINE
8
BLACK
6
CONTINUOUS
10
2.91218
20
-3.17228
11
2.9066
21
-3.13233
0
LINE
8
BLACK
6
CONTINUOUS
10
2.9066
20
-3.13233
11
2.9066
21
-3.13231
0
LINE
8
BLACK
6
CONTINUOUS
10
2.9066
20
-3.13231
11
2.9066
21
-3.1323
0
LINE
8
BLACK
6
CONTINUOUS
10
2.9066
20
-3.1323
11
2.90249
21
-3.09218
0
LINE
8
BLACK
6
CONTINUOUS
10
2.90249
20
-3.09218
11
2.90249
21
-3.09217
0
LINE
8
BLACK
6
CONTINUOUS
10
2.90249
20
-3.09217
11
2.90248
21
-3.09215
0
LINE
8
BLACK
6
CONTINUOUS
10
2.90248
20
-3.09215
11
2.89984
21
-3.05189
0
LINE
8
BLACK
6
CONTINUOUS
10
2.89984
20
-3.05189
11
2.89985
21
-3.05188
0
LINE
8
BLACK
6
CONTINUOUS
10
2.89985
20
-3.05188
11
2.89984
21
-3.05186
0
LINE
8
BLACK
6
CONTINUOUS
10
2.89984
20
-3.05186
11
2.89868
21
-3.01155
0
LINE
8
BLACK
6
CONTINUOUS
10
2.89868
20
-3.01155
11
2.89869
21
-3.01154
0
LINE
8
BLACK
6
CONTINUOUS
10
2.89869
20
-3.01154
11
2.89868
21
-3.01152
0
LINE
8
BLACK
6
CONTINUOUS
10
2.89868
20
-3.01152
11
2.899
21
-2.97118
0
LINE
8
BLACK
6
CONTINUOUS
10
2.899
20
-2.97118
11
2.89901
21
-2.97117
0
LINE
8
BLACK
6
CONTINUOUS
10
2.89901
20
-2.97117
11
2.899
21
-2.97116
0
LINE
8
BLACK
6
CONTINUOUS
10
2.899
20
-2.97116
11
2.90079
21
-2.93086
0
LINE
8
BLACK
6
CONTINUOUS
10
2.90079
20
-2.93086
11
2.9008
21
-2.93084
0
LINE
8
BLACK
6
CONTINUOUS
10
2.9008
20
-2.93084
11
2.9008
21
-2.93083
0
LINE
8
BLACK
6
CONTINUOUS
10
2.9008
20
-2.93083
11
2.90407
21
-2.89063
0
LINE
8
BLACK
6
CONTINUOUS
10
2.90407
20
-2.89063
11
2.90407
21
-2.89061
0
LINE
8
BLACK
6
CONTINUOUS
10
2.90407
20
-2.89061
11
2.90407
21
-2.8906
0
LINE
8
BLACK
6
CONTINUOUS
10
2.90407
20
-2.8906
11
2.90881
21
-2.85054
0
LINE
8
BLACK
6
CONTINUOUS
10
2.90881
20
-2.85054
11
2.90882
21
-2.85052
0
LINE
8
BLACK
6
CONTINUOUS
10
2.90882
20
-2.85052
11
2.90881
21
-2.85051
0
LINE
8
BLACK
6
CONTINUOUS
10
2.90881
20
-2.85051
11
2.91502
21
-2.81066
0
LINE
8
BLACK
6
CONTINUOUS
10
2.91502
20
-2.81066
11
2.91503
21
-2.81065
0
LINE
8
BLACK
6
CONTINUOUS
10
2.91503
20
-2.81065
11
2.91503
21
-2.81063
0
LINE
8
BLACK
6
CONTINUOUS
10
2.91503
20
-2.81063
11
2.92269
21
-2.77102
0
LINE
8
BLACK
6
CONTINUOUS
10
2.92269
20
-2.77102
11
2.9227
21
-2.77101
0
LINE
8
BLACK
6
CONTINUOUS
10
2.9227
20
-2.77101
11
2.92269
21
-2.77099
0
LINE
8
BLACK
6
CONTINUOUS
10
2.92269
20
-2.77099
11
2.9318
21
-2.7317
0
LINE
8
BLACK
6
CONTINUOUS
10
2.9318
20
-2.7317
11
2.93181
21
-2.73169
0
LINE
8
BLACK
6
CONTINUOUS
10
2.93181
20
-2.73169
11
2.93181
21
-2.73167
0
LINE
8
BLACK
6
CONTINUOUS
10
2.93181
20
-2.73167
11
2.94235
21
-2.69273
0
LINE
8
BLACK
6
CONTINUOUS
10
2.94235
20
-2.69273
11
2.94236
21
-2.69272
0
LINE
8
BLACK
6
CONTINUOUS
10
2.94236
20
-2.69272
11
2.94236
21
-2.69271
0
LINE
8
BLACK
6
CONTINUOUS
10
2.94236
20
-2.69271
11
2.95432
21
-2.65419
0
LINE
8
BLACK
6
CONTINUOUS
10
2.95432
20
-2.65419
11
2.95433
21
-2.65417
0
LINE
8
BLACK
6
CONTINUOUS
10
2.95433
20
-2.65417
11
2.95433
21
-2.65416
0
LINE
8
BLACK
6
CONTINUOUS
10
2.95433
20
-2.65416
11
2.9677
21
-2.6161
0
LINE
8
BLACK
6
CONTINUOUS
10
2.9677
20
-2.6161
11
2.96771
21
-2.61609
0
LINE
8
BLACK
6
CONTINUOUS
10
2.96771
20
-2.61609
11
2.96771
21
-2.61607
0
LINE
8
BLACK
6
CONTINUOUS
10
2.96771
20
-2.61607
11
2.98246
21
-2.57853
0
LINE
8
BLACK
6
CONTINUOUS
10
2.98246
20
-2.57853
11
2.98247
21
-2.57852
0
LINE
8
BLACK
6
CONTINUOUS
10
2.98247
20
-2.57852
11
2.98247
21
-2.57851
0
LINE
8
BLACK
6
CONTINUOUS
10
2.98247
20
-2.57851
11
2.99858
21
-2.54154
0
LINE
8
BLACK
6
CONTINUOUS
10
2.99858
20
-2.54154
11
2.99859
21
-2.54152
0
LINE
8
BLACK
6
CONTINUOUS
10
2.99859
20
-2.54152
11
2.99859
21
-2.54151
0
LINE
8
BLACK
6
CONTINUOUS
10
2.99859
20
-2.54151
11
3.01605
21
-2.50514
0
LINE
8
BLACK
6
CONTINUOUS
10
3.01605
20
-2.50514
11
3.01606
21
-2.50513
0
LINE
8
BLACK
6
CONTINUOUS
10
3.01606
20
-2.50513
11
3.01606
21
-2.50511
0
LINE
8
BLACK
6
CONTINUOUS
10
3.01606
20
-2.50511
11
3.03484
21
-2.46942
0
LINE
8
BLACK
6
CONTINUOUS
10
3.03484
20
-2.46942
11
3.03486
21
-2.46941
0
LINE
8
BLACK
6
CONTINUOUS
10
3.03486
20
-2.46941
11
3.03486
21
-2.4694
0
LINE
8
BLACK
6
CONTINUOUS
10
3.03486
20
-2.4694
11
3.05494
21
-2.43441
0
LINE
8
BLACK
6
CONTINUOUS
10
3.05494
20
-2.43441
11
3.05495
21
-2.4344
0
LINE
8
BLACK
6
CONTINUOUS
10
3.05495
20
-2.4344
11
3.05495
21
-2.43438
0
LINE
8
BLACK
6
CONTINUOUS
10
3.05495
20
-2.43438
11
3.0763
21
-2.40016
0
LINE
8
BLACK
6
CONTINUOUS
10
3.0763
20
-2.40016
11
3.07631
21
-2.40015
0
LINE
8
BLACK
6
CONTINUOUS
10
3.07631
20
-2.40015
11
3.07632
21
-2.40014
0
LINE
8
BLACK
6
CONTINUOUS
10
3.07632
20
-2.40014
11
3.0989
21
-2.36671
0
LINE
8
BLACK
6
CONTINUOUS
10
3.0989
20
-2.36671
11
3.09891
21
-2.3667
0
LINE
8
BLACK
6
CONTINUOUS
10
3.09891
20
-2.3667
11
3.09891
21
-2.36669
0
LINE
8
BLACK
6
CONTINUOUS
10
3.09891
20
-2.36669
11
3.12271
21
-2.33412
0
LINE
8
BLACK
6
CONTINUOUS
10
3.12271
20
-2.33412
11
3.12273
21
-2.33411
0
LINE
8
BLACK
6
CONTINUOUS
10
3.12273
20
-2.33411
11
3.12273
21
-2.33409
0
LINE
8
BLACK
6
CONTINUOUS
10
3.12273
20
-2.33409
11
3.1477
21
-2.30242
0
LINE
8
BLACK
6
CONTINUOUS
10
3.1477
20
-2.30242
11
3.14772
21
-2.30241
0
LINE
8
BLACK
6
CONTINUOUS
10
3.14772
20
-2.30241
11
3.14772
21
-2.3024
0
LINE
8
BLACK
6
CONTINUOUS
10
3.14772
20
-2.3024
11
3.17383
21
-2.27166
0
LINE
8
BLACK
6
CONTINUOUS
10
3.17383
20
-2.27166
11
3.17384
21
-2.27165
0
LINE
8
BLACK
6
CONTINUOUS
10
3.17384
20
-2.27165
11
3.17385
21
-2.27164
0
LINE
8
BLACK
6
CONTINUOUS
10
3.17385
20
-2.27164
11
3.20108
21
-2.24187
0
LINE
8
BLACK
6
CONTINUOUS
10
3.20108
20
-2.24187
11
3.20109
21
-2.24186
0
LINE
8
BLACK
6
CONTINUOUS
10
3.20109
20
-2.24186
11
3.2011
21
-2.24185
0
LINE
8
BLACK
6
CONTINUOUS
10
3.2011
20
-2.24185
11
3.2294
21
-2.21311
0
LINE
8
BLACK
6
CONTINUOUS
10
3.2294
20
-2.21311
11
3.22941
21
-2.2131
0
LINE
8
BLACK
6
CONTINUOUS
10
3.22941
20
-2.2131
11
3.22942
21
-2.21309
0
LINE
8
BLACK
6
CONTINUOUS
10
3.22942
20
-2.21309
11
3.25875
21
-2.1854
0
LINE
8
BLACK
6
CONTINUOUS
10
3.25875
20
-2.1854
11
3.25876
21
-2.18539
0
LINE
8
BLACK
6
CONTINUOUS
10
3.25876
20
-2.18539
11
3.25877
21
-2.18538
0
LINE
8
BLACK
6
CONTINUOUS
10
3.25877
20
-2.18538
11
3.2891
21
-2.15878
0
LINE
8
BLACK
6
CONTINUOUS
10
3.2891
20
-2.15878
11
3.28912
21
-2.15877
0
LINE
8
BLACK
6
CONTINUOUS
10
3.28912
20
-2.15877
11
3.28912
21
-2.15876
0
LINE
8
BLACK
6
CONTINUOUS
10
3.28912
20
-2.15876
11
3.3204
21
-2.1333
0
LINE
8
BLACK
6
CONTINUOUS
10
3.3204
20
-2.1333
11
3.32042
21
-2.13329
0
LINE
8
BLACK
6
CONTINUOUS
10
3.32042
20
-2.13329
11
3.32043
21
-2.13328
0
LINE
8
BLACK
6
CONTINUOUS
10
3.32043
20
-2.13328
11
3.35262
21
-2.10897
0
LINE
8
BLACK
6
CONTINUOUS
10
3.35262
20
-2.10897
11
3.35263
21
-2.10897
0
LINE
8
BLACK
6
CONTINUOUS
10
3.35263
20
-2.10897
11
3.35264
21
-2.10895
0
LINE
8
BLACK
6
CONTINUOUS
10
3.35264
20
-2.10895
11
3.3857
21
-2.08585
0
LINE
8
BLACK
6
CONTINUOUS
10
3.3857
20
-2.08585
11
3.38571
21
-2.08585
0
LINE
8
BLACK
6
CONTINUOUS
10
3.38571
20
-2.08585
11
3.38572
21
-2.08584
0
LINE
8
BLACK
6
CONTINUOUS
10
3.38572
20
-2.08584
11
3.41961
21
-2.06396
0
LINE
8
BLACK
6
CONTINUOUS
10
3.41961
20
-2.06396
11
3.41963
21
-2.06396
0
LINE
8
BLACK
6
CONTINUOUS
10
3.41963
20
-2.06396
11
3.41964
21
-2.06394
0
LINE
8
BLACK
6
CONTINUOUS
10
3.41964
20
-2.06394
11
3.4543
21
-2.04331
0
LINE
8
BLACK
6
CONTINUOUS
10
3.4543
20
-2.04331
11
3.45431
21
-2.04331
0
LINE
8
BLACK
6
CONTINUOUS
10
3.45431
20
-2.04331
11
3.45432
21
-2.0433
0
LINE
8
BLACK
6
CONTINUOUS
10
3.45432
20
-2.0433
11
3.48972
21
-2.02396
0
LINE
8
BLACK
6
CONTINUOUS
10
3.48972
20
-2.02396
11
3.48974
21
-2.02396
0
LINE
8
BLACK
6
CONTINUOUS
10
3.48974
20
-2.02396
11
3.48975
21
-2.02395
0
LINE
8
BLACK
6
CONTINUOUS
10
3.48975
20
-2.02395
11
3.52583
21
-2.00592
0
LINE
8
BLACK
6
CONTINUOUS
10
3.52583
20
-2.00592
11
3.52584
21
-2.00591
0
LINE
8
BLACK
6
CONTINUOUS
10
3.52584
20
-2.00591
11
3.52585
21
-2.0059
0
LINE
8
BLACK
6
CONTINUOUS
10
3.52585
20
-2.0059
11
3.56257
21
-1.98921
0
LINE
8
BLACK
6
CONTINUOUS
10
3.56257
20
-1.98921
11
3.56259
21
-1.98921
0
LINE
8
BLACK
6
CONTINUOUS
10
3.56259
20
-1.98921
11
3.5626
21
-1.9892
0
LINE
8
BLACK
6
CONTINUOUS
10
3.5626
20
-1.9892
11
3.59991
21
-1.97386
0
LINE
8
BLACK
6
CONTINUOUS
10
3.59991
20
-1.97386
11
3.59993
21
-1.97386
0
LINE
8
BLACK
6
CONTINUOUS
10
3.59993
20
-1.97386
11
3.59994
21
-1.97385
0
LINE
8
BLACK
6
CONTINUOUS
10
3.59994
20
-1.97385
11
3.63778
21
-1.95989
0
LINE
8
BLACK
6
CONTINUOUS
10
3.63778
20
-1.95989
11
3.63779
21
-1.95989
0
LINE
8
BLACK
6
CONTINUOUS
10
3.63779
20
-1.95989
11
3.6378
21
-1.95988
0
LINE
8
BLACK
6
CONTINUOUS
10
3.6378
20
-1.95988
11
3.67613
21
-1.94731
0
LINE
8
BLACK
6
CONTINUOUS
10
3.67613
20
-1.94731
11
3.67615
21
-1.94731
0
LINE
8
BLACK
6
CONTINUOUS
10
3.67615
20
-1.94731
11
3.67616
21
-1.9473
0
LINE
8
BLACK
6
CONTINUOUS
10
3.67616
20
-1.9473
11
3.71493
21
-1.93615
0
LINE
8
BLACK
6
CONTINUOUS
10
3.71493
20
-1.93615
11
3.71495
21
-1.93615
0
LINE
8
BLACK
6
CONTINUOUS
10
3.71495
20
-1.93615
11
3.71496
21
-1.93615
0
LINE
8
BLACK
6
CONTINUOUS
10
3.71496
20
-1.93615
11
3.7541
21
-1.92643
0
LINE
8
BLACK
6
CONTINUOUS
10
3.7541
20
-1.92643
11
3.75412
21
-1.92643
0
LINE
8
BLACK
6
CONTINUOUS
10
3.75412
20
-1.92643
11
3.75413
21
-1.92642
0
LINE
8
BLACK
6
CONTINUOUS
10
3.75413
20
-1.92642
11
3.79361
21
-1.91813
0
LINE
8
BLACK
6
CONTINUOUS
10
3.79361
20
-1.91813
11
3.79362
21
-1.91813
0
LINE
8
BLACK
6
CONTINUOUS
10
3.79362
20
-1.91813
11
3.79364
21
-1.91812
0
LINE
8
BLACK
6
CONTINUOUS
10
3.79364
20
-1.91812
11
3.83339
21
-1.91129
0
LINE
8
BLACK
6
CONTINUOUS
10
3.83339
20
-1.91129
11
3.8334
21
-1.9113
0
LINE
8
BLACK
6
CONTINUOUS
10
3.8334
20
-1.9113
11
3.83342
21
-1.91129
0
LINE
8
BLACK
6
CONTINUOUS
10
3.83342
20
-1.91129
11
3.8734
21
-1.90592
0
LINE
8
BLACK
6
CONTINUOUS
10
3.8734
20
-1.90592
11
3.87341
21
-1.90592
0
LINE
8
BLACK
6
CONTINUOUS
10
3.87341
20
-1.90592
11
3.87342
21
-1.90592
0
LINE
8
BLACK
6
CONTINUOUS
10
3.87342
20
-1.90592
11
3.91357
21
-1.90202
0
LINE
8
BLACK
6
CONTINUOUS
10
3.91357
20
-1.90202
11
3.91359
21
-1.90202
0
LINE
8
BLACK
6
CONTINUOUS
10
3.91359
20
-1.90202
11
3.9136
21
-1.90201
0
LINE
8
BLACK
6
CONTINUOUS
10
3.9136
20
-1.90201
11
3.95386
21
-1.89958
0
LINE
8
BLACK
6
CONTINUOUS
10
3.95386
20
-1.89958
11
3.95388
21
-1.89959
0
LINE
8
BLACK
6
CONTINUOUS
10
3.95388
20
-1.89959
11
3.95389
21
-1.89958
0
LINE
8
BLACK
6
CONTINUOUS
10
3.95389
20
-1.89958
11
3.99422
21
-1.89863
0
LINE
8
BLACK
6
CONTINUOUS
10
3.99422
20
-1.89863
11
3.99424
21
-1.89864
0
LINE
8
BLACK
6
CONTINUOUS
10
3.99424
20
-1.89864
11
3.99425
21
-1.89863
0
LINE
8
BLACK
6
CONTINUOUS
10
3.99425
20
-1.89863
11
4.03458
21
-1.89916
0
LINE
8
BLACK
6
CONTINUOUS
10
4.03458
20
-1.89916
11
4.03459
21
-1.89917
0
LINE
8
BLACK
6
CONTINUOUS
10
4.03459
20
-1.89917
11
4.03461
21
-1.89916
0
LINE
8
BLACK
6
CONTINUOUS
10
4.03461
20
-1.89916
11
4.0749
21
-1.90117
0
LINE
8
BLACK
6
CONTINUOUS
10
4.0749
20
-1.90117
11
4.07491
21
-1.90118
0
LINE
8
BLACK
6
CONTINUOUS
10
4.07491
20
-1.90118
11
4.07493
21
-1.90118
0
LINE
8
BLACK
6
CONTINUOUS
10
4.07493
20
-1.90118
11
4.11511
21
-1.90466
0
LINE
8
BLACK
6
CONTINUOUS
10
4.11511
20
-1.90466
11
4.11512
21
-1.90466
0
LINE
8
BLACK
6
CONTINUOUS
10
4.11512
20
-1.90466
11
4.11514
21
-1.90466
0
LINE
8
BLACK
6
CONTINUOUS
10
4.11514
20
-1.90466
11
4.15517
21
-1.90961
0
LINE
8
BLACK
6
CONTINUOUS
10
4.15517
20
-1.90961
11
4.15518
21
-1.90962
0
LINE
8
BLACK
6
CONTINUOUS
10
4.15518
20
-1.90962
11
4.1552
21
-1.90961
0
LINE
8
BLACK
6
CONTINUOUS
10
4.1552
20
-1.90961
11
4.19503
21
-1.91602
0
LINE
8
BLACK
6
CONTINUOUS
10
4.19503
20
-1.91602
11
4.19504
21
-1.91603
0
LINE
8
BLACK
6
CONTINUOUS
10
4.19504
20
-1.91603
11
4.19505
21
-1.91603
0
LINE
8
BLACK
6
CONTINUOUS
10
4.19505
20
-1.91603
11
4.23461
21
-1.9239
0
LINE
8
BLACK
6
CONTINUOUS
10
4.23461
20
-1.9239
11
4.23463
21
-1.92391
0
LINE
8
BLACK
6
CONTINUOUS
10
4.23463
20
-1.92391
11
4.23464
21
-1.9239
0
LINE
8
BLACK
6
CONTINUOUS
10
4.23464
20
-1.9239
11
4.27389
21
-1.93322
0
LINE
8
BLACK
6
CONTINUOUS
10
4.27389
20
-1.93322
11
4.2739
21
-1.93323
0
LINE
8
BLACK
6
CONTINUOUS
10
4.2739
20
-1.93323
11
4.27392
21
-1.93323
0
LINE
8
BLACK
6
CONTINUOUS
10
4.27392
20
-1.93323
11
4.31279
21
-1.94397
0
LINE
8
BLACK
6
CONTINUOUS
10
4.31279
20
-1.94397
11
4.3128
21
-1.94398
0
LINE
8
BLACK
6
CONTINUOUS
10
4.3128
20
-1.94398
11
4.31282
21
-1.94398
0
LINE
8
BLACK
6
CONTINUOUS
10
4.31282
20
-1.94398
11
4.35128
21
-1.95614
0
LINE
8
BLACK
6
CONTINUOUS
10
4.35128
20
-1.95614
11
4.35129
21
-1.95615
0
LINE
8
BLACK
6
CONTINUOUS
10
4.35129
20
-1.95615
11
4.3513
21
-1.95615
0
LINE
8
BLACK
6
CONTINUOUS
10
4.3513
20
-1.95615
11
4.38929
21
-1.96972
0
LINE
8
BLACK
6
CONTINUOUS
10
4.38929
20
-1.96972
11
4.38931
21
-1.96973
0
LINE
8
BLACK
6
CONTINUOUS
10
4.38931
20
-1.96973
11
4.38932
21
-1.96973
0
LINE
8
BLACK
6
CONTINUOUS
10
4.38932
20
-1.96973
11
4.42679
21
-1.98468
0
LINE
8
BLACK
6
CONTINUOUS
10
4.42679
20
-1.98468
11
4.4268
21
-1.98469
0
LINE
8
BLACK
6
CONTINUOUS
10
4.4268
20
-1.98469
11
4.42682
21
-1.98469
0
LINE
8
BLACK
6
CONTINUOUS
10
4.42682
20
-1.98469
11
4.46371
21
-2.001
0
LINE
8
BLACK
6
CONTINUOUS
10
4.46371
20
-2.001
11
4.46372
21
-2.00101
0
LINE
8
BLACK
6
CONTINUOUS
10
4.46372
20
-2.00101
11
4.46373
21
-2.00101
0
LINE
8
BLACK
6
CONTINUOUS
10
4.46373
20
-2.00101
11
4.5
21
-2.01866
0
LINE
8
BLACK
6
CONTINUOUS
10
4.5
20
-2.01866
11
4.50001
21
-2.01867
0
LINE
8
BLACK
6
CONTINUOUS
10
4.50001
20
-2.01867
11
4.50003
21
-2.01867
0
LINE
8
BLACK
6
CONTINUOUS
10
4.50003
20
-2.01867
11
4.53563
21
-2.03764
0
LINE
8
BLACK
6
CONTINUOUS
10
4.53563
20
-2.03764
11
4.53564
21
-2.03765
0
LINE
8
BLACK
6
CONTINUOUS
10
4.53564
20
-2.03765
11
4.53566
21
-2.03765
0
LINE
8
BLACK
6
CONTINUOUS
10
4.53566
20
-2.03765
11
4.57054
21
-2.05791
0
LINE
8
BLACK
6
CONTINUOUS
10
4.57054
20
-2.05791
11
4.57054
21
-2.05792
0
LINE
8
BLACK
6
CONTINUOUS
10
4.57054
20
-2.05792
11
4.57056
21
-2.05792
0
LINE
8
BLACK
6
CONTINUOUS
10
4.57056
20
-2.05792
11
4.60467
21
-2.07945
0
LINE
8
BLACK
6
CONTINUOUS
10
4.60467
20
-2.07945
11
4.60468
21
-2.07947
0
LINE
8
BLACK
6
CONTINUOUS
10
4.60468
20
-2.07947
11
4.60469
21
-2.07947
0
LINE
8
BLACK
6
CONTINUOUS
10
4.60469
20
-2.07947
11
4.63799
21
-2.10223
0
LINE
8
BLACK
6
CONTINUOUS
10
4.63799
20
-2.10223
11
4.638
21
-2.10224
0
LINE
8
BLACK
6
CONTINUOUS
10
4.638
20
-2.10224
11
4.63802
21
-2.10225
0
LINE
8
BLACK
6
CONTINUOUS
10
4.63802
20
-2.10225
11
4.67047
21
-2.12621
0
LINE
8
BLACK
6
CONTINUOUS
10
4.67047
20
-2.12621
11
4.67048
21
-2.12622
0
LINE
8
BLACK
6
CONTINUOUS
10
4.67048
20
-2.12622
11
4.67049
21
-2.12622
0
LINE
8
BLACK
6
CONTINUOUS
10
4.67049
20
-2.12622
11
4.70203
21
-2.15136
0
LINE
8
BLACK
6
CONTINUOUS
10
4.70203
20
-2.15136
11
4.70204
21
-2.15138
0
LINE
8
BLACK
6
CONTINUOUS
10
4.70204
20
-2.15138
11
4.70205
21
-2.15138
0
LINE
8
BLACK
6
CONTINUOUS
10
4.70205
20
-2.15138
11
4.73266
21
-2.17766
0
LINE
8
BLACK
6
CONTINUOUS
10
4.73266
20
-2.17766
11
4.73267
21
-2.17768
0
LINE
8
BLACK
6
CONTINUOUS
10
4.73267
20
-2.17768
11
4.73268
21
-2.17768
0
LINE
8
BLACK
6
CONTINUOUS
10
4.73268
20
-2.17768
11
4.7623
21
-2.20506
0
LINE
8
BLACK
6
CONTINUOUS
10
4.7623
20
-2.20506
11
4.76231
21
-2.20508
0
LINE
8
BLACK
6
CONTINUOUS
10
4.76231
20
-2.20508
11
4.76233
21
-2.20508
0
LINE
8
BLACK
6
CONTINUOUS
10
4.76233
20
-2.20508
11
4.79092
21
-2.23352
0
LINE
8
BLACK
6
CONTINUOUS
10
4.79092
20
-2.23352
11
4.79092
21
-2.23354
0
LINE
8
BLACK
6
CONTINUOUS
10
4.79092
20
-2.23354
11
4.79094
21
-2.23354
0
LINE
8
BLACK
6
CONTINUOUS
10
4.79094
20
-2.23354
11
4.81848
21
-2.26302
0
LINE
8
BLACK
6
CONTINUOUS
10
4.81848
20
-2.26302
11
4.81848
21
-2.26304
0
LINE
8
BLACK
6
CONTINUOUS
10
4.81848
20
-2.26304
11
4.81849
21
-2.26304
0
LINE
8
BLACK
6
CONTINUOUS
10
4.81849
20
-2.26304
11
4.84492
21
-2.29351
0
LINE
8
BLACK
6
CONTINUOUS
10
4.84492
20
-2.29351
11
4.84493
21
-2.29353
0
LINE
8
BLACK
6
CONTINUOUS
10
4.84493
20
-2.29353
11
4.84494
21
-2.29354
0
LINE
8
BLACK
6
CONTINUOUS
10
4.84494
20
-2.29354
11
4.87025
21
-2.32495
0
LINE
8
BLACK
6
CONTINUOUS
10
4.87025
20
-2.32495
11
4.87026
21
-2.32496
0
LINE
8
BLACK
6
CONTINUOUS
10
4.87026
20
-2.32496
11
4.87027
21
-2.32497
0
LINE
8
BLACK
6
CONTINUOUS
10
4.87027
20
-2.32497
11
4.8944
21
-2.35729
0
LINE
8
BLACK
6
CONTINUOUS
10
4.8944
20
-2.35729
11
4.8944
21
-2.3573
0
LINE
8
BLACK
6
CONTINUOUS
10
4.8944
20
-2.3573
11
4.89442
21
-2.35731
0
LINE
8
BLACK
6
CONTINUOUS
10
4.89442
20
-2.35731
11
4.91736
21
-2.39049
0
LINE
8
BLACK
6
CONTINUOUS
10
4.91736
20
-2.39049
11
4.91736
21
-2.39051
0
LINE
8
BLACK
6
CONTINUOUS
10
4.91736
20
-2.39051
11
4.91737
21
-2.39052
0
LINE
8
BLACK
6
CONTINUOUS
10
4.91737
20
-2.39052
11
4.93907
21
-2.42452
0
LINE
8
BLACK
6
CONTINUOUS
10
4.93907
20
-2.42452
11
4.93908
21
-2.42453
0
LINE
8
BLACK
6
CONTINUOUS
10
4.93908
20
-2.42453
11
4.93909
21
-2.42454
0
LINE
8
BLACK
6
CONTINUOUS
10
4.93909
20
-2.42454
11
4.95953
21
-2.45932
0
LINE
8
BLACK
6
CONTINUOUS
10
4.95953
20
-2.45932
11
4.95953
21
-2.45934
0
LINE
8
BLACK
6
CONTINUOUS
10
4.95953
20
-2.45934
11
4.95954
21
-2.45935
0
LINE
8
BLACK
6
CONTINUOUS
10
4.95954
20
-2.45935
11
4.97869
21
-2.49484
0
LINE
8
BLACK
6
CONTINUOUS
10
4.97869
20
-2.49484
11
4.97869
21
-2.49485
0
LINE
8
BLACK
6
CONTINUOUS
10
4.97869
20
-2.49485
11
4.97871
21
-2.49486
0
LINE
8
BLACK
6
CONTINUOUS
10
4.97871
20
-2.49486
11
4.99655
21
-2.53104
0
LINE
8
BLACK
6
CONTINUOUS
10
4.99655
20
-2.53104
11
4.99655
21
-2.53106
0
LINE
8
BLACK
6
CONTINUOUS
10
4.99655
20
-2.53106
11
4.99656
21
-2.53107
0
LINE
8
BLACK
6
CONTINUOUS
10
4.99656
20
-2.53107
11
5.01307
21
-2.56788
0
LINE
8
BLACK
6
CONTINUOUS
10
5.01307
20
-2.56788
11
5.01307
21
-2.56789
0
LINE
8
BLACK
6
CONTINUOUS
10
5.01307
20
-2.56789
11
5.01308
21
-2.5679
0
LINE
8
BLACK
6
CONTINUOUS
10
5.01308
20
-2.5679
11
5.02822
21
-2.60528
0
LINE
8
BLACK
6
CONTINUOUS
10
5.02822
20
-2.60528
11
5.02822
21
-2.6053
0
LINE
8
BLACK
6
CONTINUOUS
10
5.02822
20
-2.6053
11
5.02823
21
-2.60531
0
LINE
8
BLACK
6
CONTINUOUS
10
5.02823
20
-2.60531
11
5.04199
21
-2.64323
0
LINE
8
BLACK
6
CONTINUOUS
10
5.04199
20
-2.64323
11
5.04199
21
-2.64325
0
LINE
8
BLACK
6
CONTINUOUS
10
5.04199
20
-2.64325
11
5.042
21
-2.64326
0
LINE
8
BLACK
6
CONTINUOUS
10
5.042
20
-2.64326
11
5.05437
21
-2.68165
0
LINE
8
BLACK
6
CONTINUOUS
10
5.05437
20
-2.68165
11
5.05437
21
-2.68166
0
LINE
8
BLACK
6
CONTINUOUS
10
5.05437
20
-2.68166
11
5.05438
21
-2.68168
0
LINE
8
BLACK
6
CONTINUOUS
10
5.05438
20
-2.68168
11
5.06533
21
-2.72051
0
LINE
8
BLACK
6
CONTINUOUS
10
5.06533
20
-2.72051
11
5.06533
21
-2.72052
0
LINE
8
BLACK
6
CONTINUOUS
10
5.06533
20
-2.72052
11
5.06534
21
-2.72053
0
LINE
8
BLACK
6
CONTINUOUS
10
5.06534
20
-2.72053
11
5.07486
21
-2.75972
0
LINE
8
BLACK
6
CONTINUOUS
10
5.07486
20
-2.75972
11
5.07485
21
-2.75974
0
LINE
8
BLACK
6
CONTINUOUS
10
5.07485
20
-2.75974
11
5.07486
21
-2.75975
0
LINE
8
BLACK
6
CONTINUOUS
10
5.07486
20
-2.75975
11
5.08293
21
-2.79927
0
LINE
8
BLACK
6
CONTINUOUS
10
5.08293
20
-2.79927
11
5.08293
21
-2.79929
0
LINE
8
BLACK
6
CONTINUOUS
10
5.08293
20
-2.79929
11
5.08294
21
-2.7993
0
LINE
8
BLACK
6
CONTINUOUS
10
5.08294
20
-2.7993
11
5.08956
21
-2.83909
0
LINE
8
BLACK
6
CONTINUOUS
10
5.08956
20
-2.83909
11
5.08955
21
-2.83911
0
LINE
8
BLACK
6
CONTINUOUS
10
5.08955
20
-2.83911
11
5.08956
21
-2.83912
0
LINE
8
BLACK
6
CONTINUOUS
10
5.08956
20
-2.83912
11
5.09472
21
-2.87913
0
LINE
8
BLACK
6
CONTINUOUS
10
5.09472
20
-2.87913
11
5.09472
21
-2.87914
0
LINE
8
BLACK
6
CONTINUOUS
10
5.09472
20
-2.87914
11
5.09472
21
-2.87916
0
LINE
8
BLACK
6
CONTINUOUS
10
5.09472
20
-2.87916
11
5.09724
21
-2.90644
0
LINE
8
BLACK
6
CONTINUOUS
10
5.09724
20
-2.90644
11
5.13683
21
-2.90644
0
LINE
8
BLACK
6
CONTINUOUS
10
5.13683
20
-2.90644
11
5.13683
21
-2.67464
0
LINE
8
BLACK
6
CONTINUOUS
10
5.13683
20
-2.67464
11
5.13706
21
-2.67409
0
LINE
8
BLACK
6
CONTINUOUS
10
5.13706
20
-2.67409
11
5.15859
21
-2.65255
0
LINE
8
BLACK
6
CONTINUOUS
10
5.15859
20
-2.65255
11
5.15915
21
-2.65232
0
LINE
8
BLACK
6
CONTINUOUS
10
5.15915
20
-2.65232
11
5.83346
21
-2.65232
0
LINE
8
BLACK
6
CONTINUOUS
10
5.83346
20
-2.65232
11
5.83401
21
-2.65255
0
LINE
8
BLACK
6
CONTINUOUS
10
5.83401
20
-2.65255
11
5.85555
21
-2.67409
0
LINE
8
BLACK
6
CONTINUOUS
10
5.1384
20
-3.11059
11
5.1384
21
-3.3247
0
LINE
8
BLACK
6
CONTINUOUS
10
5.1384
20
-3.3247
11
5.15948
21
-3.34577
0
LINE
8
BLACK
6
CONTINUOUS
10
5.15948
20
-3.34577
11
5.83313
21
-3.34577
0
LINE
8
BLACK
6
CONTINUOUS
10
5.83313
20
-3.34577
11
5.85421
21
-3.3247
0
LINE
8
BLACK
6
CONTINUOUS
10
5.85421
20
-3.3247
11
5.85421
21
-2.67497
0
LINE
8
BLACK
6
CONTINUOUS
10
5.85421
20
-2.67497
11
5.83313
21
-2.65389
0
LINE
8
BLACK
6
CONTINUOUS
10
5.83313
20
-2.65389
11
5.15948
21
-2.65389
0
LINE
8
BLACK
6
CONTINUOUS
10
5.15948
20
-2.65389
11
5.1384
21
-2.67497
0
LINE
8
BLACK
6
CONTINUOUS
10
5.1384
20
-2.67497
11
5.1384
21
-2.90723
0
LINE
8
BLACK
6
CONTINUOUS
10
5.1384
20
-2.90723
11
5.13817
21
-2.90779
0
LINE
8
BLACK
6
CONTINUOUS
10
5.13817
20
-2.90779
11
5.13761
21
-2.90802
0
LINE
8
BLACK
6
CONTINUOUS
10
5.13761
20
-2.90802
11
5.09652
21
-2.90802
0
LINE
8
BLACK
6
CONTINUOUS
10
5.09652
20
-2.90802
11
5.09627
21
-2.90792
0
LINE
8
BLACK
6
CONTINUOUS
10
5.09627
20
-2.90792
11
5.09602
21
-2.90784
0
LINE
8
BLACK
6
CONTINUOUS
10
5.09602
20
-2.90784
11
5.096
21
-2.9078
0
LINE
8
BLACK
6
CONTINUOUS
10
5.096
20
-2.9078
11
5.09596
21
-2.90779
0
LINE
8
BLACK
6
CONTINUOUS
10
5.09596
20
-2.90779
11
5.09586
21
-2.90754
0
LINE
8
BLACK
6
CONTINUOUS
10
5.09586
20
-2.90754
11
5.09574
21
-2.9073
0
LINE
8
BLACK
6
CONTINUOUS
10
5.09574
20
-2.9073
11
5.09316
21
-2.87932
0
LINE
8
BLACK
6
CONTINUOUS
10
5.09316
20
-2.87932
11
5.088
21
-2.83933
0
LINE
8
BLACK
6
CONTINUOUS
10
5.088
20
-2.83933
11
5.08139
21
-2.79957
0
LINE
8
BLACK
6
CONTINUOUS
10
5.08139
20
-2.79957
11
5.07332
21
-2.76008
0
LINE
8
BLACK
6
CONTINUOUS
10
5.07332
20
-2.76008
11
5.06381
21
-2.72092
0
LINE
8
BLACK
6
CONTINUOUS
10
5.06381
20
-2.72092
11
5.05287
21
-2.68212
0
LINE
8
BLACK
6
CONTINUOUS
10
5.05287
20
-2.68212
11
5.0405
21
-2.64375
0
LINE
8
BLACK
6
CONTINUOUS
10
5.0405
20
-2.64375
11
5.02675
21
-2.60586
0
LINE
8
BLACK
6
CONTINUOUS
10
5.02675
20
-2.60586
11
5.01163
21
-2.56851
0
LINE
8
BLACK
6
CONTINUOUS
10
5.01163
20
-2.56851
11
4.99513
21
-2.53172
0
LINE
8
BLACK
6
CONTINUOUS
10
4.99513
20
-2.53172
11
4.9773
21
-2.49557
0
LINE
8
BLACK
6
CONTINUOUS
10
4.9773
20
-2.49557
11
4.95816
21
-2.46011
0
LINE
8
BLACK
6
CONTINUOUS
10
4.95816
20
-2.46011
11
4.93774
21
-2.42535
0
LINE
8
BLACK
6
CONTINUOUS
10
4.93774
20
-2.42535
11
4.91605
21
-2.39138
0
LINE
8
BLACK
6
CONTINUOUS
10
4.91605
20
-2.39138
11
4.89313
21
-2.35822
0
LINE
8
BLACK
6
CONTINUOUS
10
4.89313
20
-2.35822
11
4.86902
21
-2.32592
0
LINE
8
BLACK
6
CONTINUOUS
10
4.86902
20
-2.32592
11
4.84373
21
-2.29454
0
LINE
8
BLACK
6
CONTINUOUS
10
4.84373
20
-2.29454
11
4.81731
21
-2.26409
0
LINE
8
BLACK
6
CONTINUOUS
10
4.81731
20
-2.26409
11
4.78979
21
-2.23463
0
LINE
8
BLACK
6
CONTINUOUS
10
4.78979
20
-2.23463
11
4.76122
21
-2.20621
0
LINE
8
BLACK
6
CONTINUOUS
10
4.76122
20
-2.20621
11
4.73163
21
-2.17885
0
LINE
8
BLACK
6
CONTINUOUS
10
4.73163
20
-2.17885
11
4.70104
21
-2.15259
0
LINE
8
BLACK
6
CONTINUOUS
10
4.70104
20
-2.15259
11
4.66952
21
-2.12746
0
LINE
8
BLACK
6
CONTINUOUS
10
4.66952
20
-2.12746
11
4.63709
21
-2.10352
0
LINE
8
BLACK
6
CONTINUOUS
10
4.63709
20
-2.10352
11
4.60382
21
-2.08078
0
LINE
8
BLACK
6
CONTINUOUS
10
4.60382
20
-2.08078
11
4.56973
21
-2.05926
0
LINE
8
BLACK
6
CONTINUOUS
10
4.56973
20
-2.05926
11
4.53488
21
-2.03902
0
LINE
8
BLACK
6
CONTINUOUS
10
4.53488
20
-2.03902
11
4.4993
21
-2.02007
0
LINE
8
BLACK
6
CONTINUOUS
10
4.4993
20
-2.02007
11
4.46306
21
-2.00243
0
LINE
8
BLACK
6
CONTINUOUS
10
4.46306
20
-2.00243
11
4.42619
21
-1.98614
0
LINE
8
BLACK
6
CONTINUOUS
10
4.42619
20
-1.98614
11
4.38875
21
-1.9712
0
LINE
8
BLACK
6
CONTINUOUS
10
4.38875
20
-1.9712
11
4.35079
21
-1.95764
0
LINE
8
BLACK
6
CONTINUOUS
10
4.35079
20
-1.95764
11
4.31236
21
-1.94549
0
LINE
8
BLACK
6
CONTINUOUS
10
4.31236
20
-1.94549
11
4.27351
21
-1.93475
0
LINE
8
BLACK
6
CONTINUOUS
10
4.27351
20
-1.93475
11
4.23429
21
-1.92544
0
LINE
8
BLACK
6
CONTINUOUS
10
4.23429
20
-1.92544
11
4.19476
21
-1.91758
0
LINE
8
BLACK
6
CONTINUOUS
10
4.19476
20
-1.91758
11
4.15496
21
-1.91117
0
LINE
8
BLACK
6
CONTINUOUS
10
4.15496
20
-1.91117
11
4.11496
21
-1.90622
0
LINE
8
BLACK
6
CONTINUOUS
10
4.11496
20
-1.90622
11
4.07481
21
-1.90275
0
LINE
8
BLACK
6
CONTINUOUS
10
4.07481
20
-1.90275
11
4.03455
21
-1.90074
0
LINE
8
BLACK
6
CONTINUOUS
10
4.03455
20
-1.90074
11
3.99424
21
-1.90021
0
LINE
8
BLACK
6
CONTINUOUS
10
3.99424
20
-1.90021
11
3.95394
21
-1.90116
0
LINE
8
BLACK
6
CONTINUOUS
10
3.95394
20
-1.90116
11
3.91371
21
-1.90359
0
LINE
8
BLACK
6
CONTINUOUS
10
3.91371
20
-1.90359
11
3.87359
21
-1.90748
0
LINE
8
BLACK
6
CONTINUOUS
10
3.87359
20
-1.90748
11
3.83364
21
-1.91285
0
LINE
8
BLACK
6
CONTINUOUS
10
3.83364
20
-1.91285
11
3.79392
21
-1.91967
0
LINE
8
BLACK
6
CONTINUOUS
10
3.79392
20
-1.91967
11
3.75447
21
-1.92796
0
LINE
8
BLACK
6
CONTINUOUS
10
3.75447
20
-1.92796
11
3.71535
21
-1.93767
0
LINE
8
BLACK
6
CONTINUOUS
10
3.71535
20
-1.93767
11
3.67661
21
-1.94881
0
LINE
8
BLACK
6
CONTINUOUS
10
3.67661
20
-1.94881
11
3.63831
21
-1.96137
0
LINE
8
BLACK
6
CONTINUOUS
10
3.63831
20
-1.96137
11
3.6005
21
-1.97532
0
LINE
8
BLACK
6
CONTINUOUS
10
3.6005
20
-1.97532
11
3.56321
21
-1.99065
0
LINE
8
BLACK
6
CONTINUOUS
10
3.56321
20
-1.99065
11
3.52652
21
-2.00733
0
LINE
8
BLACK
6
CONTINUOUS
10
3.52652
20
-2.00733
11
3.49047
21
-2.02535
0
LINE
8
BLACK
6
CONTINUOUS
10
3.49047
20
-2.02535
11
3.45509
21
-2.04467
0
LINE
8
BLACK
6
CONTINUOUS
10
3.45509
20
-2.04467
11
3.42045
21
-2.06529
0
LINE
8
BLACK
6
CONTINUOUS
10
3.42045
20
-2.06529
11
3.38659
21
-2.08715
0
LINE
8
BLACK
6
CONTINUOUS
10
3.38659
20
-2.08715
11
3.35355
21
-2.11024
0
LINE
8
BLACK
6
CONTINUOUS
10
3.35355
20
-2.11024
11
3.32139
21
-2.13453
0
LINE
8
BLACK
6
CONTINUOUS
10
3.32139
20
-2.13453
11
3.29013
21
-2.15997
0
LINE
8
BLACK
6
CONTINUOUS
10
3.29013
20
-2.15997
11
3.25982
21
-2.18655
0
LINE
8
BLACK
6
CONTINUOUS
10
3.25982
20
-2.18655
11
3.23051
21
-2.21422
0
LINE
8
BLACK
6
CONTINUOUS
10
3.23051
20
-2.21422
11
3.20223
21
-2.24294
0
LINE
8
BLACK
6
CONTINUOUS
10
3.20223
20
-2.24294
11
3.17502
21
-2.27269
0
LINE
8
BLACK
6
CONTINUOUS
10
3.17502
20
-2.27269
11
3.14893
21
-2.30341
0
LINE
8
BLACK
6
CONTINUOUS
10
3.14893
20
-2.30341
11
3.12398
21
-2.33506
0
LINE
8
BLACK
6
CONTINUOUS
10
3.12398
20
-2.33506
11
3.10019
21
-2.3676
0
LINE
8
BLACK
6
CONTINUOUS
10
3.10019
20
-2.3676
11
3.07763
21
-2.40101
0
LINE
8
BLACK
6
CONTINUOUS
10
3.07763
20
-2.40101
11
3.0563
21
-2.4352
0
LINE
8
BLACK
6
CONTINUOUS
10
3.0563
20
-2.4352
11
3.03623
21
-2.47017
0
LINE
8
BLACK
6
CONTINUOUS
10
3.03623
20
-2.47017
11
3.01746
21
-2.50583
0
LINE
8
BLACK
6
CONTINUOUS
10
3.01746
20
-2.50583
11
3.00002
21
-2.54218
0
LINE
8
BLACK
6
CONTINUOUS
10
3.00002
20
-2.54218
11
2.98392
21
-2.57912
0
LINE
8
BLACK
6
CONTINUOUS
10
2.98392
20
-2.57912
11
2.96918
21
-2.61663
0
LINE
8
BLACK
6
CONTINUOUS
10
2.96918
20
-2.61663
11
2.95582
21
-2.65467
0
LINE
8
BLACK
6
CONTINUOUS
10
2.95582
20
-2.65467
11
2.94387
21
-2.69316
0
LINE
8
BLACK
6
CONTINUOUS
10
2.94387
20
-2.69316
11
2.93333
21
-2.73207
0
LINE
8
BLACK
6
CONTINUOUS
10
2.93333
20
-2.73207
11
2.92423
21
-2.77133
0
LINE
8
BLACK
6
CONTINUOUS
10
2.92423
20
-2.77133
11
2.91658
21
-2.81092
0
LINE
8
BLACK
6
CONTINUOUS
10
2.91658
20
-2.81092
11
2.91037
21
-2.85074
0
LINE
8
BLACK
6
CONTINUOUS
10
2.91037
20
-2.85074
11
2.90563
21
-2.89077
0
LINE
8
BLACK
6
CONTINUOUS
10
2.90563
20
-2.89077
11
2.90237
21
-2.93094
0
LINE
8
BLACK
6
CONTINUOUS
10
2.90237
20
-2.93094
11
2.90058
21
-2.97121
0
LINE
8
BLACK
6
CONTINUOUS
10
2.90058
20
-2.97121
11
2.90026
21
-3.01152
0
LINE
8
BLACK
6
CONTINUOUS
10
2.90026
20
-3.01152
11
2.90142
21
-3.0518
0
LINE
8
BLACK
6
CONTINUOUS
10
2.90142
20
-3.0518
11
2.90405
21
-3.09203
0
LINE
8
BLACK
6
CONTINUOUS
10
2.90405
20
-3.09203
11
2.90816
21
-3.13213
0
LINE
8
BLACK
6
CONTINUOUS
10
2.90816
20
-3.13213
11
2.91374
21
-3.17205
0
LINE
8
BLACK
6
CONTINUOUS
10
2.91374
20
-3.17205
11
2.92077
21
-3.21174
0
LINE
8
BLACK
6
CONTINUOUS
10
2.92077
20
-3.21174
11
2.92926
21
-3.25114
0
LINE
8
BLACK
6
CONTINUOUS
10
2.92926
20
-3.25114
11
2.93918
21
-3.29021
0
LINE
8
BLACK
6
CONTINUOUS
10
2.93918
20
-3.29021
11
2.95052
21
-3.32889
0
LINE
8
BLACK
6
CONTINUOUS
10
2.95052
20
-3.32889
11
2.96328
21
-3.36712
0
LINE
8
BLACK
6
CONTINUOUS
10
2.96328
20
-3.36712
11
2.97743
21
-3.40486
0
LINE
8
BLACK
6
CONTINUOUS
10
2.97743
20
-3.40486
11
2.99295
21
-3.44206
0
LINE
8
BLACK
6
CONTINUOUS
10
2.99295
20
-3.44206
11
3.00983
21
-3.47867
0
LINE
8
BLACK
6
CONTINUOUS
10
3.00983
20
-3.47867
11
3.02804
21
-3.51463
0
LINE
8
BLACK
6
CONTINUOUS
10
3.02804
20
-3.51463
11
3.04754
21
-3.54991
0
LINE
8
BLACK
6
CONTINUOUS
10
3.04754
20
-3.54991
11
3.06834
21
-3.58443
0
LINE
8
BLACK
6
CONTINUOUS
10
3.06834
20
-3.58443
11
3.09037
21
-3.61818
0
LINE
8
BLACK
6
CONTINUOUS
10
3.09037
20
-3.61818
11
3.11363
21
-3.65109
0
LINE
8
BLACK
6
CONTINUOUS
10
3.11363
20
-3.65109
11
3.13809
21
-3.68314
0
LINE
8
BLACK
6
CONTINUOUS
10
3.13809
20
-3.68314
11
3.1637
21
-3.71427
0
LINE
8
BLACK
6
CONTINUOUS
10
3.1637
20
-3.71427
11
3.19044
21
-3.74443
0
LINE
8
BLACK
6
CONTINUOUS
10
3.19044
20
-3.74443
11
3.21826
21
-3.7736
0
LINE
8
BLACK
6
CONTINUOUS
10
3.21826
20
-3.7736
11
3.24713
21
-3.80173
0
LINE
8
BLACK
6
CONTINUOUS
10
3.24713
20
-3.80173
11
3.27702
21
-3.82877
0
LINE
8
BLACK
6
CONTINUOUS
10
3.27702
20
-3.82877
11
3.30788
21
-3.85471
0
LINE
8
BLACK
6
CONTINUOUS
10
3.30788
20
-3.85471
11
3.33965
21
-3.8795
0
LINE
8
BLACK
6
CONTINUOUS
10
3.33965
20
-3.8795
11
3.37233
21
-3.9031
0
LINE
8
BLACK
6
CONTINUOUS
10
3.37233
20
-3.9031
11
3.40584
21
-3.9255
0
LINE
8
BLACK
6
CONTINUOUS
10
3.40584
20
-3.9255
11
3.44015
21
-3.94664
0
LINE
8
BLACK
6
CONTINUOUS
10
3.44015
20
-3.94664
11
3.47522
21
-3.96653
0
LINE
8
BLACK
6
CONTINUOUS
10
3.47522
20
-3.96653
11
3.51099
21
-3.9851
0
LINE
8
BLACK
6
CONTINUOUS
10
3.51099
20
-3.9851
11
3.54741
21
-4.00236
0
LINE
8
BLACK
6
CONTINUOUS
10
3.54741
20
-4.00236
11
3.58445
21
-4.01827
0
LINE
8
BLACK
6
CONTINUOUS
10
3.58445
20
-4.01827
11
3.62204
21
-4.03282
0
LINE
8
BLACK
6
CONTINUOUS
10
3.62204
20
-4.03282
11
3.66014
21
-4.04597
0
LINE
8
BLACK
6
CONTINUOUS
10
3.66014
20
-4.04597
11
3.6987
21
-4.05772
0
LINE
8
BLACK
6
CONTINUOUS
10
3.6987
20
-4.05772
11
3.73766
21
-4.06806
0
LINE
8
BLACK
6
CONTINUOUS
10
3.73766
20
-4.06806
11
3.77697
21
-4.07695
0
LINE
8
BLACK
6
CONTINUOUS
10
3.77697
20
-4.07695
11
3.81659
21
-4.0844
0
LINE
8
BLACK
6
CONTINUOUS
10
3.81659
20
-4.0844
11
3.85644
21
-4.0904
0
LINE
8
BLACK
6
CONTINUOUS
10
3.85644
20
-4.0904
11
3.8965
21
-4.09493
0
LINE
8
BLACK
6
CONTINUOUS
10
3.8965
20
-4.09493
11
3.93669
21
-4.09798
0
LINE
8
BLACK
6
CONTINUOUS
10
3.93669
20
-4.09798
11
3.97697
21
-4.09956
0
LINE
8
BLACK
6
CONTINUOUS
10
3.97697
20
-4.09956
11
4.01728
21
-4.09967
0
LINE
8
BLACK
6
CONTINUOUS
10
4.01728
20
-4.09967
11
4.05756
21
-4.09829
0
LINE
8
BLACK
6
CONTINUOUS
10
4.05756
20
-4.09829
11
4.09777
21
-4.09545
0
LINE
8
BLACK
6
CONTINUOUS
10
4.09777
20
-4.09545
11
4.13784
21
-4.09113
0
LINE
8
BLACK
6
CONTINUOUS
10
4.13784
20
-4.09113
11
4.17773
21
-4.08534
0
LINE
8
BLACK
6
CONTINUOUS
10
4.17773
20
-4.08534
11
4.21738
21
-4.07811
0
LINE
8
BLACK
6
CONTINUOUS
10
4.21738
20
-4.07811
11
4.25675
21
-4.06941
0
LINE
8
BLACK
6
CONTINUOUS
10
4.25675
20
-4.06941
11
4.29576
21
-4.05929
0
LINE
8
BLACK
6
CONTINUOUS
10
4.29576
20
-4.05929
11
4.33438
21
-4.04774
0
LINE
8
BLACK
6
CONTINUOUS
10
4.33438
20
-4.04774
11
4.37254
21
-4.03478
0
LINE
8
BLACK
6
CONTINUOUS
10
4.37254
20
-4.03478
11
4.41022
21
-4.02044
0
LINE
8
BLACK
6
CONTINUOUS
10
4.41022
20
-4.02044
11
4.44733
21
-4.00472
0
LINE
8
BLACK
6
CONTINUOUS
10
4.44733
20
-4.00472
11
4.48384
21
-3.98765
0
LINE
8
BLACK
6
CONTINUOUS
10
4.48384
20
-3.98765
11
4.51971
21
-3.96926
0
LINE
8
BLACK
6
CONTINUOUS
10
4.51971
20
-3.96926
11
4.55488
21
-3.94957
0
LINE
8
BLACK
6
CONTINUOUS
10
4.55488
20
-3.94957
11
4.58931
21
-3.9286
0
LINE
8
BLACK
6
CONTINUOUS
10
4.58931
20
-3.9286
11
4.62293
21
-3.90638
0
LINE
8
BLACK
6
CONTINUOUS
10
4.62293
20
-3.90638
11
4.65573
21
-3.88294
0
LINE
8
BLACK
6
CONTINUOUS
10
4.65573
20
-3.88294
11
4.68765
21
-3.85832
0
LINE
8
BLACK
6
CONTINUOUS
10
4.68765
20
-3.85832
11
4.71864
21
-3.83254
0
LINE
8
BLACK
6
CONTINUOUS
10
4.71864
20
-3.83254
11
4.74866
21
-3.80565
0
LINE
8
BLACK
6
CONTINUOUS
10
4.74866
20
-3.80565
11
4.77768
21
-3.77768
0
LINE
8
BLACK
6
CONTINUOUS
10
4.77768
20
-3.77768
11
4.80565
21
-3.74866
0
LINE
8
BLACK
6
CONTINUOUS
10
4.80565
20
-3.74866
11
4.83254
21
-3.71864
0
LINE
8
BLACK
6
CONTINUOUS
10
4.83254
20
-3.71864
11
4.85831
21
-3.68765
0
LINE
8
BLACK
6
CONTINUOUS
10
4.85831
20
-3.68765
11
4.88294
21
-3.65573
0
LINE
8
BLACK
6
CONTINUOUS
10
4.88294
20
-3.65573
11
4.90638
21
-3.62293
0
LINE
8
BLACK
6
CONTINUOUS
10
4.90638
20
-3.62293
11
4.9286
21
-3.58931
0
LINE
8
BLACK
6
CONTINUOUS
10
4.9286
20
-3.58931
11
4.94957
21
-3.55488
0
LINE
8
BLACK
6
CONTINUOUS
10
4.94957
20
-3.55488
11
4.96926
21
-3.51971
0
LINE
8
BLACK
6
CONTINUOUS
10
4.96926
20
-3.51971
11
4.98765
21
-3.48384
0
LINE
8
BLACK
6
CONTINUOUS
10
4.98765
20
-3.48384
11
5.00472
21
-3.44733
0
LINE
8
BLACK
6
CONTINUOUS
10
5.00472
20
-3.44733
11
5.02044
21
-3.41022
0
LINE
8
BLACK
6
CONTINUOUS
10
5.02044
20
-3.41022
11
5.03478
21
-3.37254
0
LINE
8
BLACK
6
CONTINUOUS
10
5.03478
20
-3.37254
11
5.04774
21
-3.33438
0
LINE
8
BLACK
6
CONTINUOUS
10
5.04774
20
-3.33438
11
5.05929
21
-3.29576
0
LINE
8
BLACK
6
CONTINUOUS
10
5.05929
20
-3.29576
11
5.06941
21
-3.25675
0
LINE
8
BLACK
6
CONTINUOUS
10
5.06941
20
-3.25675
11
5.07811
21
-3.21738
0
LINE
8
BLACK
6
CONTINUOUS
10
5.07811
20
-3.21738
11
5.08534
21
-3.17773
0
LINE
8
BLACK
6
CONTINUOUS
10
5.08534
20
-3.17773
11
5.09113
21
-3.13784
0
LINE
8
BLACK
6
CONTINUOUS
10
5.09113
20
-3.13784
11
5.09407
21
-3.1105
0
LINE
8
BLACK
6
CONTINUOUS
10
5.09407
20
-3.1105
11
5.0942
21
-3.11027
0
LINE
8
BLACK
6
CONTINUOUS
10
5.0942
20
-3.11027
11
5.0943
21
-3.11003
0
LINE
8
BLACK
6
CONTINUOUS
10
5.0943
20
-3.11003
11
5.09434
21
-3.11001
0
LINE
8
BLACK
6
CONTINUOUS
10
5.09434
20
-3.11001
11
5.09436
21
-3.10997
0
LINE
8
BLACK
6
CONTINUOUS
10
5.09436
20
-3.10997
11
5.09461
21
-3.1099
0
LINE
8
BLACK
6
CONTINUOUS
10
5.09461
20
-3.1099
11
5.09486
21
-3.1098
0
LINE
8
BLACK
6
CONTINUOUS
10
5.09486
20
-3.1098
11
5.13761
21
-3.1098
0
LINE
8
BLACK
6
CONTINUOUS
10
5.13761
20
-3.1098
11
5.13817
21
-3.11003
0
LINE
8
BLACK
6
CONTINUOUS
10
5.13817
20
-3.11003
11
5.1384
21
-3.11059
0
LINE
8
BLACK
6
CONTINUOUS
10
4.4555
20
-3.81311
11
4.45763
21
-3.80856
0
LINE
8
BLACK
6
CONTINUOUS
10
4.45763
20
-3.80856
11
4.46096
21
-3.8048
0
LINE
8
BLACK
6
CONTINUOUS
10
4.46096
20
-3.8048
11
4.46521
21
-3.80212
0
LINE
8
BLACK
6
CONTINUOUS
10
4.46521
20
-3.80212
11
4.47004
21
-3.80074
0
LINE
8
BLACK
6
CONTINUOUS
10
4.47004
20
-3.80074
11
4.47506
21
-3.80077
0
LINE
8
BLACK
6
CONTINUOUS
10
4.47506
20
-3.80077
11
4.47987
21
-3.80221
0
LINE
8
BLACK
6
CONTINUOUS
10
4.47987
20
-3.80221
11
4.48409
21
-3.80494
0
LINE
8
BLACK
6
CONTINUOUS
10
4.48409
20
-3.80494
11
4.48737
21
-3.80875
0
LINE
8
BLACK
6
CONTINUOUS
10
4.48737
20
-3.80875
11
4.48945
21
-3.81332
0
LINE
8
BLACK
6
CONTINUOUS
10
4.48945
20
-3.81332
11
4.49016
21
-3.81829
0
LINE
8
BLACK
6
CONTINUOUS
10
4.49016
20
-3.81829
11
4.49015
21
-3.81872
0
LINE
8
BLACK
6
CONTINUOUS
10
4.49015
20
-3.81872
11
4.48932
21
-3.82368
0
LINE
8
BLACK
6
CONTINUOUS
10
4.48932
20
-3.82368
11
4.48713
21
-3.8282
0
LINE
8
BLACK
6
CONTINUOUS
10
4.48713
20
-3.8282
11
4.48376
21
-3.83192
0
LINE
8
BLACK
6
CONTINUOUS
10
4.48376
20
-3.83192
11
4.47948
21
-3.83455
0
LINE
8
BLACK
6
CONTINUOUS
10
4.47948
20
-3.83455
11
4.47463
21
-3.83587
0
LINE
8
BLACK
6
CONTINUOUS
10
4.47463
20
-3.83587
11
4.46961
21
-3.83578
0
LINE
8
BLACK
6
CONTINUOUS
10
4.46961
20
-3.83578
11
4.46481
21
-3.83428
0
LINE
8
BLACK
6
CONTINUOUS
10
4.46481
20
-3.83428
11
4.46063
21
-3.8315
0
LINE
8
BLACK
6
CONTINUOUS
10
4.46063
20
-3.8315
11
4.4574
21
-3.82765
0
LINE
8
BLACK
6
CONTINUOUS
10
4.4574
20
-3.82765
11
4.45538
21
-3.82306
0
LINE
8
BLACK
6
CONTINUOUS
10
4.45538
20
-3.82306
11
4.45475
21
-3.81829
0
LINE
8
BLACK
6
CONTINUOUS
10
4.45475
20
-3.81829
11
4.45473
21
-3.81808
0
LINE
8
BLACK
6
CONTINUOUS
10
4.45473
20
-3.81808
11
4.4555
21
-3.81311
0
LINE
8
BLACK
6
CONTINUOUS
10
4.46115
20
-3.82649
11
4.46424
21
-3.82958
0
LINE
8
BLACK
6
CONTINUOUS
10
4.46424
20
-3.82958
11
4.46813
21
-3.83156
0
LINE
8
BLACK
6
CONTINUOUS
10
4.46813
20
-3.83156
11
4.47244
21
-3.83224
0
LINE
8
BLACK
6
CONTINUOUS
10
4.47244
20
-3.83224
11
4.47675
21
-3.83156
0
LINE
8
BLACK
6
CONTINUOUS
10
4.47675
20
-3.83156
11
4.48064
21
-3.82958
0
LINE
8
BLACK
6
CONTINUOUS
10
4.48064
20
-3.82958
11
4.48373
21
-3.82649
0
LINE
8
BLACK
6
CONTINUOUS
10
4.48373
20
-3.82649
11
4.48571
21
-3.8226
0
LINE
8
BLACK
6
CONTINUOUS
10
4.48571
20
-3.8226
11
4.48639
21
-3.81829
0
LINE
8
BLACK
6
CONTINUOUS
10
4.48639
20
-3.81829
11
4.48571
21
-3.81398
0
LINE
8
BLACK
6
CONTINUOUS
10
4.48571
20
-3.81398
11
4.48373
21
-3.81009
0
LINE
8
BLACK
6
CONTINUOUS
10
4.48373
20
-3.81009
11
4.48064
21
-3.807
0
LINE
8
BLACK
6
CONTINUOUS
10
4.48064
20
-3.807
11
4.47675
21
-3.80502
0
LINE
8
BLACK
6
CONTINUOUS
10
4.47675
20
-3.80502
11
4.47244
21
-3.80434
0
LINE
8
BLACK
6
CONTINUOUS
10
4.47244
20
-3.80434
11
4.46813
21
-3.80502
0
LINE
8
BLACK
6
CONTINUOUS
10
4.46813
20
-3.80502
11
4.46424
21
-3.807
0
LINE
8
BLACK
6
CONTINUOUS
10
4.46424
20
-3.807
11
4.46115
21
-3.81009
0
LINE
8
BLACK
6
CONTINUOUS
10
4.46115
20
-3.81009
11
4.45917
21
-3.81398
0
LINE
8
BLACK
6
CONTINUOUS
10
4.45917
20
-3.81398
11
4.45849
21
-3.81829
0
LINE
8
BLACK
6
CONTINUOUS
10
4.45849
20
-3.81829
11
4.45917
21
-3.8226
0
LINE
8
BLACK
6
CONTINUOUS
10
4.45917
20
-3.8226
11
4.46115
21
-3.82649
0
LINE
8
BLACK
6
CONTINUOUS
10
3.03818
20
-2.99482
11
3.04031
21
-2.99027
0
LINE
8
BLACK
6
CONTINUOUS
10
3.04031
20
-2.99027
11
3.04364
21
-2.98651
0
LINE
8
BLACK
6
CONTINUOUS
10
3.04364
20
-2.98651
11
3.04788
21
-2.98383
0
LINE
8
BLACK
6
CONTINUOUS
10
3.04788
20
-2.98383
11
3.05271
21
-2.98245
0
LINE
8
BLACK
6
CONTINUOUS
10
3.05271
20
-2.98245
11
3.05774
21
-2.98248
0
LINE
8
BLACK
6
CONTINUOUS
10
3.05774
20
-2.98248
11
3.06255
21
-2.98392
0
LINE
8
BLACK
6
CONTINUOUS
10
3.06255
20
-2.98392
11
3.06676
21
-2.98665
0
LINE
8
BLACK
6
CONTINUOUS
10
3.06676
20
-2.98665
11
3.07004
21
-2.99045
0
LINE
8
BLACK
6
CONTINUOUS
10
3.07004
20
-2.99045
11
3.07212
21
-2.99503
0
LINE
8
BLACK
6
CONTINUOUS
10
3.07212
20
-2.99503
11
3.07283
21
-3
0
LINE
8
BLACK
6
CONTINUOUS
10
3.07283
20
-3
11
3.07283
21
-3.00043
0
LINE
8
BLACK
6
CONTINUOUS
10
3.07283
20
-3.00043
11
3.072
21
-3.00539
0
LINE
8
BLACK
6
CONTINUOUS
10
3.072
20
-3.00539
11
3.06981
21
-3.00991
0
LINE
8
BLACK
6
CONTINUOUS
10
3.06981
20
-3.00991
11
3.06643
21
-3.01363
0
LINE
8
BLACK
6
CONTINUOUS
10
3.06643
20
-3.01363
11
3.06215
21
-3.01626
0
LINE
8
BLACK
6
CONTINUOUS
10
3.06215
20
-3.01626
11
3.05731
21
-3.01758
0
LINE
8
BLACK
6
CONTINUOUS
10
3.05731
20
-3.01758
11
3.05229
21
-3.01749
0
LINE
8
BLACK
6
CONTINUOUS
10
3.05229
20
-3.01749
11
3.04749
21
-3.01599
0
LINE
8
BLACK
6
CONTINUOUS
10
3.04749
20
-3.01599
11
3.04331
21
-3.01321
0
LINE
8
BLACK
6
CONTINUOUS
10
3.04331
20
-3.01321
11
3.04008
21
-3.00936
0
LINE
8
BLACK
6
CONTINUOUS
10
3.04008
20
-3.00936
11
3.03805
21
-3.00476
0
LINE
8
BLACK
6
CONTINUOUS
10
3.03805
20
-3.00476
11
3.03743
21
-3
0
LINE
8
BLACK
6
CONTINUOUS
10
3.03743
20
-3
11
3.0374
21
-2.99978
0
LINE
8
BLACK
6
CONTINUOUS
10
3.0374
20
-2.99978
11
3.03818
21
-2.99482
0
LINE
8
BLACK
6
CONTINUOUS
10
3.04383
20
-3.0082
11
3.04692
21
-3.01129
0
LINE
8
BLACK
6
CONTINUOUS
10
3.04692
20
-3.01129
11
3.05081
21
-3.01327
0
LINE
8
BLACK
6
CONTINUOUS
10
3.05081
20
-3.01327
11
3.05512
21
-3.01395
0
LINE
8
BLACK
6
CONTINUOUS
10
3.05512
20
-3.01395
11
3.05943
21
-3.01327
0
LINE
8
BLACK
6
CONTINUOUS
10
3.05943
20
-3.01327
11
3.06332
21
-3.01129
0
LINE
8
BLACK
6
CONTINUOUS
10
3.06332
20
-3.01129
11
3.0664
21
-3.0082
0
LINE
8
BLACK
6
CONTINUOUS
10
3.0664
20
-3.0082
11
3.06839
21
-3.00431
0
LINE
8
BLACK
6
CONTINUOUS
10
3.06839
20
-3.00431
11
3.06907
21
-3
0
LINE
8
BLACK
6
CONTINUOUS
10
3.06907
20
-3
11
3.06839
21
-2.99569
0
LINE
8
BLACK
6
CONTINUOUS
10
3.06839
20
-2.99569
11
3.0664
21
-2.9918
0
LINE
8
BLACK
6
CONTINUOUS
10
3.0664
20
-2.9918
11
3.06332
21
-2.98871
0
LINE
8
BLACK
6
CONTINUOUS
10
3.06332
20
-2.98871
11
3.05943
21
-2.98673
0
LINE
8
BLACK
6
CONTINUOUS
10
3.05943
20
-2.98673
11
3.05512
21
-2.98605
0
LINE
8
BLACK
6
CONTINUOUS
10
3.05512
20
-2.98605
11
3.05081
21
-2.98673
0
LINE
8
BLACK
6
CONTINUOUS
10
3.05081
20
-2.98673
11
3.04692
21
-2.98871
0
LINE
8
BLACK
6
CONTINUOUS
10
3.04692
20
-2.98871
11
3.04383
21
-2.9918
0
LINE
8
BLACK
6
CONTINUOUS
10
3.04383
20
-2.9918
11
3.04185
21
-2.99569
0
LINE
8
BLACK
6
CONTINUOUS
10
3.04185
20
-2.99569
11
3.04117
21
-3
0
LINE
8
BLACK
6
CONTINUOUS
10
3.04117
20
-3
11
3.04185
21
-3.00431
0
LINE
8
BLACK
6
CONTINUOUS
10
3.04185
20
-3.00431
11
3.04383
21
-3.0082
0
LINE
8
BLACK
6
CONTINUOUS
10
4.4555
20
-2.17653
11
4.45763
21
-2.17198
0
LINE
8
BLACK
6
CONTINUOUS
10
4.45763
20
-2.17198
11
4.46096
21
-2.16822
0
LINE
8
BLACK
6
CONTINUOUS
10
4.46096
20
-2.16822
11
4.46521
21
-2.16554
0
LINE
8
BLACK
6
CONTINUOUS
10
4.46521
20
-2.16554
11
4.47004
21
-2.16416
0
LINE
8
BLACK
6
CONTINUOUS
10
4.47004
20
-2.16416
11
4.47506
21
-2.16419
0
LINE
8
BLACK
6
CONTINUOUS
10
4.47506
20
-2.16419
11
4.47987
21
-2.16563
0
LINE
8
BLACK
6
CONTINUOUS
10
4.47987
20
-2.16563
11
4.48409
21
-2.16836
0
LINE
8
BLACK
6
CONTINUOUS
10
4.48409
20
-2.16836
11
4.48737
21
-2.17216
0
LINE
8
BLACK
6
CONTINUOUS
10
4.48737
20
-2.17216
11
4.48945
21
-2.17674
0
LINE
8
BLACK
6
CONTINUOUS
10
4.48945
20
-2.17674
11
4.49016
21
-2.18171
0
LINE
8
BLACK
6
CONTINUOUS
10
4.49016
20
-2.18171
11
4.49015
21
-2.18214
0
LINE
8
BLACK
6
CONTINUOUS
10
4.49015
20
-2.18214
11
4.48932
21
-2.18709
0
LINE
8
BLACK
6
CONTINUOUS
10
4.48932
20
-2.18709
11
4.48713
21
-2.19162
0
LINE
8
BLACK
6
CONTINUOUS
10
4.48713
20
-2.19162
11
4.48376
21
-2.19534
0
LINE
8
BLACK
6
CONTINUOUS
10
4.48376
20
-2.19534
11
4.47948
21
-2.19797
0
LINE
8
BLACK
6
CONTINUOUS
10
4.47948
20
-2.19797
11
4.47463
21
-2.19929
0
LINE
8
BLACK
6
CONTINUOUS
10
4.47463
20
-2.19929
11
4.46961
21
-2.1992
0
LINE
8
BLACK
6
CONTINUOUS
10
4.46961
20
-2.1992
11
4.46481
21
-2.1977
0
LINE
8
BLACK
6
CONTINUOUS
10
4.46481
20
-2.1977
11
4.46063
21
-2.19492
0
LINE
8
BLACK
6
CONTINUOUS
10
4.46063
20
-2.19492
11
4.4574
21
-2.19107
0
LINE
8
BLACK
6
CONTINUOUS
10
4.4574
20
-2.19107
11
4.45538
21
-2.18647
0
LINE
8
BLACK
6
CONTINUOUS
10
4.45538
20
-2.18647
11
4.45475
21
-2.18171
0
LINE
8
BLACK
6
CONTINUOUS
10
4.45475
20
-2.18171
11
4.45473
21
-2.18149
0
LINE
8
BLACK
6
CONTINUOUS
10
4.45473
20
-2.18149
11
4.4555
21
-2.17653
0
LINE
8
BLACK
6
CONTINUOUS
10
4.46115
20
-2.18991
11
4.46424
21
-2.193
0
LINE
8
BLACK
6
CONTINUOUS
10
4.46424
20
-2.193
11
4.46813
21
-2.19498
0
LINE
8
BLACK
6
CONTINUOUS
10
4.46813
20
-2.19498
11
4.47244
21
-2.19566
0
LINE
8
BLACK
6
CONTINUOUS
10
4.47244
20
-2.19566
11
4.47675
21
-2.19498
0
LINE
8
BLACK
6
CONTINUOUS
10
4.47675
20
-2.19498
11
4.48064
21
-2.193
0
LINE
8
BLACK
6
CONTINUOUS
10
4.48064
20
-2.193
11
4.48373
21
-2.18991
0
LINE
8
BLACK
6
CONTINUOUS
10
4.48373
20
-2.18991
11
4.48571
21
-2.18602
0
LINE
8
BLACK
6
CONTINUOUS
10
4.48571
20
-2.18602
11
4.48639
21
-2.18171
0
LINE
8
BLACK
6
CONTINUOUS
10
4.48639
20
-2.18171
11
4.48571
21
-2.1774
0
LINE
8
BLACK
6
CONTINUOUS
10
4.48571
20
-2.1774
11
4.48373
21
-2.17351
0
LINE
8
BLACK
6
CONTINUOUS
10
4.48373
20
-2.17351
11
4.48064
21
-2.17042
0
LINE
8
BLACK
6
CONTINUOUS
10
4.48064
20
-2.17042
11
4.47675
21
-2.16844
0
LINE
8
BLACK
6
CONTINUOUS
10
4.47675
20
-2.16844
11
4.47244
21
-2.16776
0
LINE
8
BLACK
6
CONTINUOUS
10
4.47244
20
-2.16776
11
4.46813
21
-2.16844
0
LINE
8
BLACK
6
CONTINUOUS
10
4.46813
20
-2.16844
11
4.46424
21
-2.17042
0
LINE
8
BLACK
6
CONTINUOUS
10
4.46424
20
-2.17042
11
4.46115
21
-2.17351
0
LINE
8
BLACK
6
CONTINUOUS
10
4.46115
20
-2.17351
11
4.45917
21
-2.1774
0
LINE
8
BLACK
6
CONTINUOUS
10
4.45917
20
-2.1774
11
4.45849
21
-2.18171
0
LINE
8
BLACK
6
CONTINUOUS
10
4.45849
20
-2.18171
11
4.45917
21
-2.18602
0
LINE
8
BLACK
6
CONTINUOUS
10
4.45917
20
-2.18602
11
4.46115
21
-2.18991
  0
ENDSEC
  0
EOF
