M48
; DRILL file {KiCad (6.0.7-1)-1} date Thursday, November 03, 2022 at 05:34:57 PM
; FORMAT={-:-/ absolute / metric / decimal}
; #@! TF.CreationDate,2022-11-03T17:34:57-04:00
; #@! TF.GenerationSoftware,Kicad,Pcbnew,(6.0.7-1)-1
; #@! TF.FileFunction,Plated,1,2,PTH
FMAT,2
METRIC
; #@! TA.AperFunction,Plated,PTH,ViaDrill
T1C0.400
; #@! TA.AperFunction,Plated,PTH,ComponentDrill
T2C0.750
; #@! TA.AperFunction,Plated,PTH,ComponentDrill
T3C1.000
%
G90
G05
T1
X95.6Y-70.6
X95.6Y-77.8
X96.6Y-73.6
X96.6Y-74.8
X105.25Y-62.0
X106.4Y-75.8
X106.4Y-81.4
X106.6Y-74.4
X106.6Y-77.2
X111.0Y-75.6
X114.85Y-61.8
X116.2Y-82.2
X116.25Y-63.6
X116.4Y-71.8
X116.6Y-78.4
X132.2Y-83.7
X136.725Y-74.675
X137.025Y-77.475
X137.225Y-83.875
X140.025Y-68.775
X140.325Y-74.175
X141.9Y-80.7
X142.525Y-70.775
X145.025Y-70.875
T2
X147.225Y-70.475
X147.225Y-72.475
X147.225Y-74.475
X147.225Y-76.475
X147.225Y-78.475
X147.225Y-80.475
T3
X117.2Y-87.0
X117.2Y-89.54
X121.335Y-70.115
X121.335Y-72.655
X121.335Y-75.195
X121.335Y-77.735
X121.335Y-80.275
X123.875Y-70.115
X123.875Y-72.655
X123.875Y-75.195
X123.875Y-77.735
X123.875Y-80.275
X132.51Y-70.86
X132.51Y-73.4
X132.51Y-75.94
X132.51Y-78.48
X132.51Y-81.02
X135.05Y-70.86
X135.05Y-73.4
X135.05Y-75.94
X135.05Y-78.48
X135.05Y-81.02
T0
M30
