%TF.GenerationSoftware,KiCad,Pcbnew,(6.0.7-1)-1*%
%TF.CreationDate,2022-11-03T17:35:00-04:00*%
%TF.ProjectId,encoder_driver,656e636f-6465-4725-9f64-72697665722e,rev?*%
%TF.SameCoordinates,Original*%
%TF.FileFunction,Legend,Bot*%
%TF.FilePolarity,Positive*%
%FSLAX46Y46*%
G04 Gerber Fmt 4.6, Leading zero omitted, Abs format (unit mm)*
G04 Created by KiCad (PCBNEW (6.0.7-1)-1) date 2022-11-03 17:35:00*
%MOMM*%
%LPD*%
G01*
G04 APERTURE LIST*
%ADD10C,0.150000*%
%ADD11C,0.100000*%
%ADD12C,0.120000*%
G04 APERTURE END LIST*
D10*
X106260555Y-72700000D02*
G75*
G03*
X106260555Y-72700000I-360555J0D01*
G01*
D11*
X145457142Y-78700000D02*
X145742857Y-78700000D01*
X145400000Y-78871428D02*
X145600000Y-78271428D01*
X145800000Y-78871428D01*
X145528571Y-72171428D02*
X145871428Y-72171428D01*
X145700000Y-72771428D02*
X145700000Y-72171428D01*
X147714285Y-69242857D02*
X147257142Y-69242857D01*
X147485714Y-69471428D02*
X147485714Y-69014285D01*
X146685714Y-68871428D02*
X146971428Y-68871428D01*
X147000000Y-69157142D01*
X146971428Y-69128571D01*
X146914285Y-69100000D01*
X146771428Y-69100000D01*
X146714285Y-69128571D01*
X146685714Y-69157142D01*
X146657142Y-69214285D01*
X146657142Y-69357142D01*
X146685714Y-69414285D01*
X146714285Y-69442857D01*
X146771428Y-69471428D01*
X146914285Y-69471428D01*
X146971428Y-69442857D01*
X147000000Y-69414285D01*
X145700000Y-74671428D02*
X145700000Y-74071428D01*
X147657142Y-81700000D02*
X147714285Y-81671428D01*
X147800000Y-81671428D01*
X147885714Y-81700000D01*
X147942857Y-81757142D01*
X147971428Y-81814285D01*
X148000000Y-81928571D01*
X148000000Y-82014285D01*
X147971428Y-82128571D01*
X147942857Y-82185714D01*
X147885714Y-82242857D01*
X147800000Y-82271428D01*
X147742857Y-82271428D01*
X147657142Y-82242857D01*
X147628571Y-82214285D01*
X147628571Y-82014285D01*
X147742857Y-82014285D01*
X147371428Y-82271428D02*
X147371428Y-81671428D01*
X147028571Y-82271428D01*
X147028571Y-81671428D01*
X146742857Y-82271428D02*
X146742857Y-81671428D01*
X146600000Y-81671428D01*
X146514285Y-81700000D01*
X146457142Y-81757142D01*
X146428571Y-81814285D01*
X146400000Y-81928571D01*
X146400000Y-82014285D01*
X146428571Y-82128571D01*
X146457142Y-82185714D01*
X146514285Y-82242857D01*
X146600000Y-82271428D01*
X146742857Y-82271428D01*
X145557142Y-76557142D02*
X145471428Y-76585714D01*
X145442857Y-76614285D01*
X145414285Y-76671428D01*
X145414285Y-76757142D01*
X145442857Y-76814285D01*
X145471428Y-76842857D01*
X145528571Y-76871428D01*
X145757142Y-76871428D01*
X145757142Y-76271428D01*
X145557142Y-76271428D01*
X145500000Y-76300000D01*
X145471428Y-76328571D01*
X145442857Y-76385714D01*
X145442857Y-76442857D01*
X145471428Y-76500000D01*
X145500000Y-76528571D01*
X145557142Y-76557142D01*
X145757142Y-76557142D01*
D10*
X114300000Y-83000000D02*
X119900000Y-83000000D01*
X119900000Y-83000000D02*
X119900000Y-67250000D01*
X119900000Y-67250000D02*
X114300000Y-67250000D01*
X114300000Y-67250000D02*
X114300000Y-83000000D01*
X142900000Y-72100000D02*
X137100000Y-72100000D01*
X137100000Y-72100000D02*
X137100000Y-80300000D01*
X137100000Y-80300000D02*
X142900000Y-80300000D01*
X142900000Y-80300000D02*
X142900000Y-72100000D01*
X142385714Y-73146666D02*
X141909523Y-73146666D01*
X142480952Y-73432380D02*
X142147619Y-72432380D01*
X141814285Y-73432380D01*
X141480952Y-73051428D02*
X140719047Y-73051428D01*
X139528571Y-73146666D02*
X139052380Y-73146666D01*
X139623809Y-73432380D02*
X139290476Y-72432380D01*
X138957142Y-73432380D01*
X138623809Y-73051428D02*
X137861904Y-73051428D01*
X138242857Y-73432380D02*
X138242857Y-72670476D01*
X142147619Y-74518571D02*
X142004761Y-74566190D01*
X141957142Y-74613809D01*
X141909523Y-74709047D01*
X141909523Y-74851904D01*
X141957142Y-74947142D01*
X142004761Y-74994761D01*
X142100000Y-75042380D01*
X142480952Y-75042380D01*
X142480952Y-74042380D01*
X142147619Y-74042380D01*
X142052380Y-74090000D01*
X142004761Y-74137619D01*
X141957142Y-74232857D01*
X141957142Y-74328095D01*
X142004761Y-74423333D01*
X142052380Y-74470952D01*
X142147619Y-74518571D01*
X142480952Y-74518571D01*
X141480952Y-74661428D02*
X140719047Y-74661428D01*
X139147619Y-74518571D02*
X139004761Y-74566190D01*
X138957142Y-74613809D01*
X138909523Y-74709047D01*
X138909523Y-74851904D01*
X138957142Y-74947142D01*
X139004761Y-74994761D01*
X139100000Y-75042380D01*
X139480952Y-75042380D01*
X139480952Y-74042380D01*
X139147619Y-74042380D01*
X139052380Y-74090000D01*
X139004761Y-74137619D01*
X138957142Y-74232857D01*
X138957142Y-74328095D01*
X139004761Y-74423333D01*
X139052380Y-74470952D01*
X139147619Y-74518571D01*
X139480952Y-74518571D01*
X138480952Y-74661428D02*
X137719047Y-74661428D01*
X138100000Y-75042380D02*
X138100000Y-74280476D01*
X141909523Y-76557142D02*
X141957142Y-76604761D01*
X142100000Y-76652380D01*
X142195238Y-76652380D01*
X142338095Y-76604761D01*
X142433333Y-76509523D01*
X142480952Y-76414285D01*
X142528571Y-76223809D01*
X142528571Y-76080952D01*
X142480952Y-75890476D01*
X142433333Y-75795238D01*
X142338095Y-75700000D01*
X142195238Y-75652380D01*
X142100000Y-75652380D01*
X141957142Y-75700000D01*
X141909523Y-75747619D01*
X141480952Y-76271428D02*
X140719047Y-76271428D01*
X138909523Y-76557142D02*
X138957142Y-76604761D01*
X139100000Y-76652380D01*
X139195238Y-76652380D01*
X139338095Y-76604761D01*
X139433333Y-76509523D01*
X139480952Y-76414285D01*
X139528571Y-76223809D01*
X139528571Y-76080952D01*
X139480952Y-75890476D01*
X139433333Y-75795238D01*
X139338095Y-75700000D01*
X139195238Y-75652380D01*
X139100000Y-75652380D01*
X138957142Y-75700000D01*
X138909523Y-75747619D01*
X138480952Y-76271428D02*
X137719047Y-76271428D01*
X138100000Y-76652380D02*
X138100000Y-75890476D01*
X142100000Y-77262380D02*
X141528571Y-77262380D01*
X141814285Y-78262380D02*
X141814285Y-77262380D01*
X141242857Y-77357619D02*
X141195238Y-77310000D01*
X141100000Y-77262380D01*
X140861904Y-77262380D01*
X140766666Y-77310000D01*
X140719047Y-77357619D01*
X140671428Y-77452857D01*
X140671428Y-77548095D01*
X140719047Y-77690952D01*
X141290476Y-78262380D01*
X140671428Y-78262380D01*
X139623809Y-77262380D02*
X139052380Y-77262380D01*
X139338095Y-78262380D02*
X139338095Y-77262380D01*
X138766666Y-77357619D02*
X138719047Y-77310000D01*
X138623809Y-77262380D01*
X138385714Y-77262380D01*
X138290476Y-77310000D01*
X138242857Y-77357619D01*
X138195238Y-77452857D01*
X138195238Y-77548095D01*
X138242857Y-77690952D01*
X138814285Y-78262380D01*
X138195238Y-78262380D01*
X142338095Y-78872380D02*
X142004761Y-79872380D01*
X141671428Y-78872380D01*
X141338095Y-79872380D02*
X141338095Y-78872380D01*
X140766666Y-79872380D01*
X140766666Y-78872380D01*
X139004761Y-78920000D02*
X139100000Y-78872380D01*
X139242857Y-78872380D01*
X139385714Y-78920000D01*
X139480952Y-79015238D01*
X139528571Y-79110476D01*
X139576190Y-79300952D01*
X139576190Y-79443809D01*
X139528571Y-79634285D01*
X139480952Y-79729523D01*
X139385714Y-79824761D01*
X139242857Y-79872380D01*
X139147619Y-79872380D01*
X139004761Y-79824761D01*
X138957142Y-79777142D01*
X138957142Y-79443809D01*
X139147619Y-79443809D01*
X138528571Y-79872380D02*
X138528571Y-78872380D01*
X138290476Y-78872380D01*
X138147619Y-78920000D01*
X138052380Y-79015238D01*
X138004761Y-79110476D01*
X137957142Y-79300952D01*
X137957142Y-79443809D01*
X138004761Y-79634285D01*
X138052380Y-79729523D01*
X138147619Y-79824761D01*
X138290476Y-79872380D01*
X138528571Y-79872380D01*
X119238095Y-68012380D02*
X118904761Y-69012380D01*
X118571428Y-68012380D01*
X118238095Y-69012380D02*
X118238095Y-68012380D01*
X117666666Y-69012380D01*
X117666666Y-68012380D01*
X115904761Y-68060000D02*
X116000000Y-68012380D01*
X116142857Y-68012380D01*
X116285714Y-68060000D01*
X116380952Y-68155238D01*
X116428571Y-68250476D01*
X116476190Y-68440952D01*
X116476190Y-68583809D01*
X116428571Y-68774285D01*
X116380952Y-68869523D01*
X116285714Y-68964761D01*
X116142857Y-69012380D01*
X116047619Y-69012380D01*
X115904761Y-68964761D01*
X115857142Y-68917142D01*
X115857142Y-68583809D01*
X116047619Y-68583809D01*
X115428571Y-69012380D02*
X115428571Y-68012380D01*
X115190476Y-68012380D01*
X115047619Y-68060000D01*
X114952380Y-68155238D01*
X114904761Y-68250476D01*
X114857142Y-68440952D01*
X114857142Y-68583809D01*
X114904761Y-68774285D01*
X114952380Y-68869523D01*
X115047619Y-68964761D01*
X115190476Y-69012380D01*
X115428571Y-69012380D01*
X119000000Y-71232380D02*
X118428571Y-71232380D01*
X118714285Y-72232380D02*
X118714285Y-71232380D01*
X117571428Y-72232380D02*
X118142857Y-72232380D01*
X117857142Y-72232380D02*
X117857142Y-71232380D01*
X117952380Y-71375238D01*
X118047619Y-71470476D01*
X118142857Y-71518095D01*
X116523809Y-71232380D02*
X115952380Y-71232380D01*
X116238095Y-72232380D02*
X116238095Y-71232380D01*
X115666666Y-71327619D02*
X115619047Y-71280000D01*
X115523809Y-71232380D01*
X115285714Y-71232380D01*
X115190476Y-71280000D01*
X115142857Y-71327619D01*
X115095238Y-71422857D01*
X115095238Y-71518095D01*
X115142857Y-71660952D01*
X115714285Y-72232380D01*
X115095238Y-72232380D01*
X118857142Y-75452380D02*
X118857142Y-74452380D01*
X118380952Y-75071428D02*
X117619047Y-75071428D01*
X118000000Y-75452380D02*
X118000000Y-74690476D01*
X116380952Y-75452380D02*
X116380952Y-74452380D01*
X115904761Y-75071428D02*
X115142857Y-75071428D01*
X119047619Y-78148571D02*
X118904761Y-78196190D01*
X118857142Y-78243809D01*
X118809523Y-78339047D01*
X118809523Y-78481904D01*
X118857142Y-78577142D01*
X118904761Y-78624761D01*
X119000000Y-78672380D01*
X119380952Y-78672380D01*
X119380952Y-77672380D01*
X119047619Y-77672380D01*
X118952380Y-77720000D01*
X118904761Y-77767619D01*
X118857142Y-77862857D01*
X118857142Y-77958095D01*
X118904761Y-78053333D01*
X118952380Y-78100952D01*
X119047619Y-78148571D01*
X119380952Y-78148571D01*
X118380952Y-78291428D02*
X117619047Y-78291428D01*
X118000000Y-78672380D02*
X118000000Y-77910476D01*
X116047619Y-78148571D02*
X115904761Y-78196190D01*
X115857142Y-78243809D01*
X115809523Y-78339047D01*
X115809523Y-78481904D01*
X115857142Y-78577142D01*
X115904761Y-78624761D01*
X116000000Y-78672380D01*
X116380952Y-78672380D01*
X116380952Y-77672380D01*
X116047619Y-77672380D01*
X115952380Y-77720000D01*
X115904761Y-77767619D01*
X115857142Y-77862857D01*
X115857142Y-77958095D01*
X115904761Y-78053333D01*
X115952380Y-78100952D01*
X116047619Y-78148571D01*
X116380952Y-78148571D01*
X115380952Y-78291428D02*
X114619047Y-78291428D01*
X119285714Y-81606666D02*
X118809523Y-81606666D01*
X119380952Y-81892380D02*
X119047619Y-80892380D01*
X118714285Y-81892380D01*
X118380952Y-81511428D02*
X117619047Y-81511428D01*
X118000000Y-81892380D02*
X118000000Y-81130476D01*
X116428571Y-81606666D02*
X115952380Y-81606666D01*
X116523809Y-81892380D02*
X116190476Y-80892380D01*
X115857142Y-81892380D01*
X115523809Y-81511428D02*
X114761904Y-81511428D01*
D12*
%TO.C,U1*%
X101600000Y-72990000D02*
X104360000Y-72990000D01*
X98840000Y-72990000D02*
X98840000Y-73415000D01*
X101600000Y-79410000D02*
X104360000Y-79410000D01*
X104360000Y-73415000D02*
X105900000Y-73415000D01*
X98840000Y-79410000D02*
X98840000Y-78985000D01*
X101600000Y-79410000D02*
X98840000Y-79410000D01*
X101600000Y-72990000D02*
X98840000Y-72990000D01*
X104360000Y-72990000D02*
X104360000Y-73415000D01*
X104360000Y-79410000D02*
X104360000Y-78985000D01*
%TD*%
M02*
