%TF.GenerationSoftware,KiCad,Pcbnew,(6.0.7-1)-1*%
%TF.CreationDate,2022-11-03T17:35:01-04:00*%
%TF.ProjectId,encoder_driver,656e636f-6465-4725-9f64-72697665722e,rev?*%
%TF.SameCoordinates,Original*%
%TF.FileFunction,Profile,NP*%
%FSLAX46Y46*%
G04 Gerber Fmt 4.6, Leading zero omitted, Abs format (unit mm)*
G04 Created by KiCad (PCBNEW (6.0.7-1)-1) date 2022-11-03 17:35:01*
%MOMM*%
%LPD*%
G01*
G04 APERTURE LIST*
%TA.AperFunction,Profile*%
%ADD10C,0.040000*%
%TD*%
%TA.AperFunction,Profile*%
%ADD11C,0.100000*%
%TD*%
G04 APERTURE END LIST*
D10*
X129334514Y-79703676D02*
X129409362Y-79008907D01*
X129187448Y-80717644D02*
X129334514Y-79703676D01*
X129003552Y-81725516D02*
X129187448Y-80717644D01*
X128782572Y-82726022D02*
X129003552Y-81725516D01*
X128525270Y-83717638D02*
X128782572Y-82726022D01*
X128231646Y-84699348D02*
X128525270Y-83717638D01*
X127902208Y-85669374D02*
X128231646Y-84699348D01*
X127537718Y-86626954D02*
X127902208Y-85669374D01*
X127138176Y-87570310D02*
X127537718Y-86626954D01*
X126704344Y-88498426D02*
X127138176Y-87570310D01*
X126236730Y-89410032D02*
X126704344Y-88498426D01*
X125736350Y-90304112D02*
X126236730Y-89410032D01*
X125203204Y-91179142D02*
X125736350Y-90304112D01*
X124638562Y-92033852D02*
X125203204Y-91179142D01*
X124042678Y-92867480D02*
X124638562Y-92033852D01*
X123416822Y-93678756D02*
X124042678Y-92867480D01*
X122761756Y-94466410D02*
X123416822Y-93678756D01*
X122078242Y-95229680D02*
X122761756Y-94466410D01*
X121367296Y-95967296D02*
X122078242Y-95229680D01*
X120629680Y-96678242D02*
X121367296Y-95967296D01*
X119866410Y-97361756D02*
X120629680Y-96678242D01*
X119078756Y-98016822D02*
X119866410Y-97361756D01*
X118267480Y-98642678D02*
X119078756Y-98016822D01*
X117433852Y-99238562D02*
X118267480Y-98642678D01*
X116579142Y-99803204D02*
X117433852Y-99238562D01*
X115704112Y-100336350D02*
X116579142Y-99803204D01*
X114810032Y-100836730D02*
X115704112Y-100336350D01*
X113898426Y-101304344D02*
X114810032Y-100836730D01*
X112970310Y-101738176D02*
X113898426Y-101304344D01*
X112026954Y-102137718D02*
X112970310Y-101738176D01*
X111069374Y-102502208D02*
X112026954Y-102137718D01*
X110099348Y-102831646D02*
X111069374Y-102502208D01*
X109117638Y-103125270D02*
X110099348Y-102831646D01*
X108126022Y-103382572D02*
X109117638Y-103125270D01*
X107125516Y-103603552D02*
X108126022Y-103382572D01*
X106117644Y-103787448D02*
X107125516Y-103603552D01*
X105103676Y-103934514D02*
X106117644Y-103787448D01*
X104085136Y-104044242D02*
X105103676Y-103934514D01*
X103063040Y-104116632D02*
X104085136Y-104044242D01*
X102039166Y-104151684D02*
X103063040Y-104116632D01*
X101014530Y-104148890D02*
X102039166Y-104151684D01*
X99990910Y-104108758D02*
X101014530Y-104148890D01*
X98969322Y-104031034D02*
X99990910Y-104108758D01*
X97951036Y-103915972D02*
X98969322Y-104031034D01*
X96938084Y-103763572D02*
X97951036Y-103915972D01*
X95930974Y-103574088D02*
X96938084Y-103763572D01*
X94931738Y-103348028D02*
X95930974Y-103574088D01*
X93941392Y-103085392D02*
X94931738Y-103348028D01*
X92961460Y-102786688D02*
X93941392Y-103085392D01*
X91992958Y-102452424D02*
X92961460Y-102786688D01*
X91037410Y-102082600D02*
X91992958Y-102452424D01*
X90096086Y-101678232D02*
X91037410Y-102082600D01*
X89170256Y-101239574D02*
X90096086Y-101678232D01*
X88260936Y-100767388D02*
X89170256Y-101239574D01*
X87369650Y-100261928D02*
X88260936Y-100767388D01*
X86497668Y-99724464D02*
X87369650Y-100261928D01*
X85645752Y-99155250D02*
X86497668Y-99724464D01*
X84815172Y-98555302D02*
X85645752Y-99155250D01*
X84007452Y-97925128D02*
X84815172Y-98555302D01*
X83223100Y-97265744D02*
X84007452Y-97925128D01*
X82463386Y-96578420D02*
X83223100Y-97265744D01*
X81729580Y-95863410D02*
X82463386Y-96578420D01*
X81022444Y-95121984D02*
X81729580Y-95863410D01*
X80342740Y-94355412D02*
X81022444Y-95121984D01*
X79691738Y-93564202D02*
X80342740Y-94355412D01*
X79070200Y-92749624D02*
X79691738Y-93564202D01*
X78478888Y-91912948D02*
X79070200Y-92749624D01*
X77918818Y-91055190D02*
X78478888Y-91912948D01*
X77390244Y-90177620D02*
X77918818Y-91055190D01*
X76894436Y-89281000D02*
X77390244Y-90177620D01*
X76431648Y-88366854D02*
X76894436Y-89281000D01*
X76002642Y-87436452D02*
X76431648Y-88366854D01*
X75608180Y-86490810D02*
X76002642Y-87436452D01*
X75248516Y-85531452D02*
X75608180Y-86490810D01*
X74924158Y-84559648D02*
X75248516Y-85531452D01*
X74635868Y-83576668D02*
X74924158Y-84559648D01*
X74383646Y-82583528D02*
X74635868Y-83576668D01*
X74168000Y-81582006D02*
X74383646Y-82583528D01*
X73989184Y-80573118D02*
X74168000Y-81582006D01*
X73847452Y-79558388D02*
X73989184Y-80573118D01*
X73743058Y-78539340D02*
X73847452Y-79558388D01*
X73676002Y-77516736D02*
X73743058Y-78539340D01*
X73646538Y-76492862D02*
X73676002Y-77516736D01*
X73654666Y-75468226D02*
X73646538Y-76492862D01*
X73700132Y-74444606D02*
X73654666Y-75468226D01*
X73783190Y-73423526D02*
X73700132Y-74444606D01*
X73903586Y-72406002D02*
X73783190Y-73423526D01*
X74061320Y-71393812D02*
X73903586Y-72406002D01*
X74255884Y-70387718D02*
X74061320Y-71393812D01*
X74487278Y-69389752D02*
X74255884Y-70387718D01*
X74754994Y-68400676D02*
X74487278Y-69389752D01*
X75058778Y-67422268D02*
X74754994Y-68400676D01*
X75398376Y-66455544D02*
X75058778Y-67422268D01*
X75773026Y-65502028D02*
X75398376Y-66455544D01*
X76182220Y-64562990D02*
X75773026Y-65502028D01*
X76625704Y-63639192D02*
X76182220Y-64562990D01*
X77102716Y-62732666D02*
X76625704Y-63639192D01*
X77612748Y-61843920D02*
X77102716Y-62732666D01*
X78155038Y-60974732D02*
X77612748Y-61843920D01*
X78728570Y-60125610D02*
X78155038Y-60974732D01*
X79333090Y-59298332D02*
X78728570Y-60125610D01*
X79967328Y-58493914D02*
X79333090Y-59298332D01*
X80630522Y-57713118D02*
X79967328Y-58493914D01*
X81322164Y-56956960D02*
X80630522Y-57713118D01*
X82040984Y-56226964D02*
X81322164Y-56956960D01*
X82785966Y-55523638D02*
X82040984Y-56226964D01*
X83556348Y-54847998D02*
X82785966Y-55523638D01*
X84350860Y-54201314D02*
X83556348Y-54847998D01*
X85168486Y-53583840D02*
X84350860Y-54201314D01*
X86008210Y-52997100D02*
X85168486Y-53583840D01*
X86869016Y-52441348D02*
X86008210Y-52997100D01*
X87749380Y-51917346D02*
X86869016Y-52441348D01*
X88648540Y-51426110D02*
X87749380Y-51917346D01*
X89564972Y-50968148D02*
X88648540Y-51426110D01*
X90497660Y-50544222D02*
X89564972Y-50968148D01*
X91445334Y-50154586D02*
X90497660Y-50544222D01*
X92406470Y-49800002D02*
X91445334Y-50154586D01*
X93380052Y-49480724D02*
X92406470Y-49800002D01*
X94364810Y-49197514D02*
X93380052Y-49480724D01*
X95358966Y-48950626D02*
X94364810Y-49197514D01*
X96361758Y-48740060D02*
X95358966Y-48950626D01*
X97371408Y-48566578D02*
X96361758Y-48740060D01*
X98386900Y-48430180D02*
X97371408Y-48566578D01*
X99406710Y-48331120D02*
X98386900Y-48430180D01*
X100429314Y-48269398D02*
X99406710Y-48331120D01*
X101453696Y-48245268D02*
X100429314Y-48269398D01*
X102478078Y-48258730D02*
X101453696Y-48245268D01*
X103501444Y-48309784D02*
X102478078Y-48258730D01*
X104522016Y-48398176D02*
X103501444Y-48309784D01*
X105538778Y-48523906D02*
X104522016Y-48398176D01*
X106550460Y-48686720D02*
X105538778Y-48523906D01*
X107555284Y-48886618D02*
X106550460Y-48686720D01*
X108552234Y-49123346D02*
X107555284Y-48886618D01*
X109539532Y-49396142D02*
X108552234Y-49123346D01*
X110516416Y-49705006D02*
X109539532Y-49396142D01*
X111481362Y-50049684D02*
X110516416Y-49705006D01*
X112433100Y-50429414D02*
X111481362Y-50049684D01*
X113370106Y-50843688D02*
X112433100Y-50429414D01*
X114291364Y-51291998D02*
X113370106Y-50843688D01*
X115195604Y-51773582D02*
X114291364Y-51291998D01*
X116081556Y-52288186D02*
X115195604Y-51773582D01*
X116947950Y-52835048D02*
X116081556Y-52288186D01*
X117793770Y-53413152D02*
X116947950Y-52835048D01*
X118618000Y-54021736D02*
X117793770Y-53413152D01*
X119419116Y-54660292D02*
X118618000Y-54021736D01*
X120196610Y-55327804D02*
X119419116Y-54660292D01*
X120948958Y-56023256D02*
X120196610Y-55327804D01*
X121675144Y-56745632D02*
X120948958Y-56023256D01*
X122374660Y-57494424D02*
X121675144Y-56745632D01*
X123045982Y-58268362D02*
X122374660Y-57494424D01*
X123688856Y-59066176D02*
X123045982Y-58268362D01*
X124301758Y-59887104D02*
X123688856Y-59066176D01*
X124884434Y-60729876D02*
X124301758Y-59887104D01*
X125435614Y-61593476D02*
X124884434Y-60729876D01*
X125954790Y-62476888D02*
X125435614Y-61593476D01*
X126441200Y-63378334D02*
X125954790Y-62476888D01*
X126894336Y-64297306D02*
X126441200Y-63378334D01*
X127313690Y-65232280D02*
X126894336Y-64297306D01*
X127698246Y-66181732D02*
X127313690Y-65232280D01*
X128047750Y-67144900D02*
X127698246Y-66181732D01*
X128361948Y-68120006D02*
X128047750Y-67144900D01*
X128640078Y-69106288D02*
X128361948Y-68120006D01*
X128881886Y-70101714D02*
X128640078Y-69106288D01*
X129086864Y-71105522D02*
X128881886Y-70101714D01*
X129255012Y-72116188D02*
X129086864Y-71105522D01*
X129386076Y-73132442D02*
X129255012Y-72116188D01*
X129451600Y-73843645D02*
X129386076Y-73132442D01*
X130495415Y-73843645D02*
X129451600Y-73843645D01*
X130495415Y-67935908D02*
X130495415Y-73843645D01*
X131042410Y-67388913D02*
X130495415Y-67935908D01*
X148169832Y-67388913D02*
X131042410Y-67388913D01*
X148716827Y-67935908D02*
X148169832Y-67388913D01*
X148716827Y-84455613D02*
X148716827Y-67935908D01*
X148169832Y-85002608D02*
X148716827Y-84455613D01*
X131042410Y-85002608D02*
X148169832Y-85002608D01*
X130495415Y-84455613D02*
X131042410Y-85002608D01*
X130495415Y-79008907D02*
X130495415Y-84455613D01*
X129409362Y-79008907D02*
X130495415Y-79008907D01*
D11*
X114000000Y-96984610D02*
G75*
G03*
X114000000Y-96984610I-400000J0D01*
G01*
X78000000Y-76200000D02*
G75*
G03*
X78000000Y-76200000I-400000J0D01*
G01*
X114000000Y-55415390D02*
G75*
G03*
X114000000Y-55415390I-400000J0D01*
G01*
M02*
