  0
SECTION
  2
HEADER
  9
$ANGBASE
  50
0.0
  9
$ANGDIR
  70
1
  9
$MEASUREMENT
  70
0
  0
ENDSEC
  0
SECTION
  2
TABLES
  0
TABLE
  2
LTYPE
  70
4
  0
LTYPE
  5
40F
  2
CONTINUOUS
  70
0
  3
Solid line
  72
65
  73
0
  40
0.0
  0
LTYPE
  5
410
  2
DASHDOT
 70
0
  3
Dash Dot ____ _ ____ _
 72
65
 73
4
 40
2.0
 49
1.25
 49
-0.25
 49
0.25
 49
-0.25
  0
LTYPE
  5
411
  2
DASHED
 70
0
  3
Dashed __ __ __ __ __
 72
65
 73
2
 40
0.75
 49
0.5
 49
-0.25
  0
LTYPE
  5
43B
  2
DOTTED
 70
0
  3
Dotted .  .  .  .
 72
65
 73
2
 40
0.2
 49
0.0
 49
-0.2
  0
ENDTAB
  0
TABLE
  2
STYLE
  70
4
  0
STYLE
  2
KICAD
  70
0
  40
0
  41
1
  42
1
  50
0
  71
0
  3
isocp.shx
  0
STYLE
  2
KICADB
  70
0
  40
0
  41
1
  42
1
  50
0
  71
0
  3
isocp.shx
  0
STYLE
  2
KICADI
  70
0
  40
0
  41
1
  42
1
  50
15
  71
0
  3
isocp.shx
  0
STYLE
  2
KICADBI
  70
0
  40
0
  41
1
  42
1
  50
15
  71
0
  3
isocp.shx
  0
ENDTAB
  0
TABLE
  2
LAYER
  70
1
  0
LAYER
  2
BLACK
  70
0
  62
7
  6
CONTINUOUS
  0
ENDTAB
  0
ENDSEC
  0
SECTION
  2
ENTITIES
0
LINE
8
BLACK
6
CONTINUOUS
10
5.3229
20
-3.28111
11
5.32545
21
-3.28282
0
LINE
8
BLACK
6
CONTINUOUS
10
5.32545
20
-3.28282
11
5.32716
21
-3.28537
0
LINE
8
BLACK
6
CONTINUOUS
10
5.32716
20
-3.28537
11
5.32776
21
-3.28839
0
LINE
8
BLACK
6
CONTINUOUS
10
5.32776
20
-3.28839
11
5.32776
21
-3.31004
0
LINE
8
BLACK
6
CONTINUOUS
10
5.32776
20
-3.31004
11
5.32716
21
-3.31305
0
LINE
8
BLACK
6
CONTINUOUS
10
5.32716
20
-3.31305
11
5.32545
21
-3.31561
0
LINE
8
BLACK
6
CONTINUOUS
10
5.32545
20
-3.31561
11
5.3229
21
-3.31731
0
LINE
8
BLACK
6
CONTINUOUS
10
5.3229
20
-3.31731
11
5.31988
21
-3.31791
0
LINE
8
BLACK
6
CONTINUOUS
10
5.31988
20
-3.31791
11
5.30413
21
-3.31791
0
LINE
8
BLACK
6
CONTINUOUS
10
5.30413
20
-3.31791
11
5.30112
21
-3.31731
0
LINE
8
BLACK
6
CONTINUOUS
10
5.30112
20
-3.31731
11
5.29857
21
-3.31561
0
LINE
8
BLACK
6
CONTINUOUS
10
5.29857
20
-3.31561
11
5.29686
21
-3.31305
0
LINE
8
BLACK
6
CONTINUOUS
10
5.29686
20
-3.31305
11
5.29626
21
-3.31004
0
LINE
8
BLACK
6
CONTINUOUS
10
5.29626
20
-3.31004
11
5.29626
21
-3.28839
0
LINE
8
BLACK
6
CONTINUOUS
10
5.29626
20
-3.28839
11
5.29686
21
-3.28537
0
LINE
8
BLACK
6
CONTINUOUS
10
5.29686
20
-3.28537
11
5.29857
21
-3.28282
0
LINE
8
BLACK
6
CONTINUOUS
10
5.29857
20
-3.28282
11
5.30112
21
-3.28111
0
LINE
8
BLACK
6
CONTINUOUS
10
5.30112
20
-3.28111
11
5.30413
21
-3.28051
0
LINE
8
BLACK
6
CONTINUOUS
10
5.30413
20
-3.28051
11
5.31988
21
-3.28051
0
LINE
8
BLACK
6
CONTINUOUS
10
5.31988
20
-3.28051
11
5.3229
21
-3.28111
0
LINE
8
BLACK
6
CONTINUOUS
10
5.25793
20
-3.28111
11
5.26049
21
-3.28282
0
LINE
8
BLACK
6
CONTINUOUS
10
5.26049
20
-3.28282
11
5.2622
21
-3.28537
0
LINE
8
BLACK
6
CONTINUOUS
10
5.2622
20
-3.28537
11
5.2628
21
-3.28839
0
LINE
8
BLACK
6
CONTINUOUS
10
5.2628
20
-3.28839
11
5.2628
21
-3.31004
0
LINE
8
BLACK
6
CONTINUOUS
10
5.2628
20
-3.31004
11
5.2622
21
-3.31305
0
LINE
8
BLACK
6
CONTINUOUS
10
5.2622
20
-3.31305
11
5.26049
21
-3.31561
0
LINE
8
BLACK
6
CONTINUOUS
10
5.26049
20
-3.31561
11
5.25793
21
-3.31731
0
LINE
8
BLACK
6
CONTINUOUS
10
5.25793
20
-3.31731
11
5.25492
21
-3.31791
0
LINE
8
BLACK
6
CONTINUOUS
10
5.25492
20
-3.31791
11
5.23917
21
-3.31791
0
LINE
8
BLACK
6
CONTINUOUS
10
5.23917
20
-3.31791
11
5.23616
21
-3.31731
0
LINE
8
BLACK
6
CONTINUOUS
10
5.23616
20
-3.31731
11
5.23361
21
-3.31561
0
LINE
8
BLACK
6
CONTINUOUS
10
5.23361
20
-3.31561
11
5.2319
21
-3.31305
0
LINE
8
BLACK
6
CONTINUOUS
10
5.2319
20
-3.31305
11
5.2313
21
-3.31004
0
LINE
8
BLACK
6
CONTINUOUS
10
5.2313
20
-3.31004
11
5.2313
21
-3.28839
0
LINE
8
BLACK
6
CONTINUOUS
10
5.2313
20
-3.28839
11
5.2319
21
-3.28537
0
LINE
8
BLACK
6
CONTINUOUS
10
5.2319
20
-3.28537
11
5.23361
21
-3.28282
0
LINE
8
BLACK
6
CONTINUOUS
10
5.23361
20
-3.28282
11
5.23616
21
-3.28111
0
LINE
8
BLACK
6
CONTINUOUS
10
5.23616
20
-3.28111
11
5.23917
21
-3.28051
0
LINE
8
BLACK
6
CONTINUOUS
10
5.23917
20
-3.28051
11
5.25492
21
-3.28051
0
LINE
8
BLACK
6
CONTINUOUS
10
5.25492
20
-3.28051
11
5.25793
21
-3.28111
0
LINE
8
BLACK
6
CONTINUOUS
10
5.45811
20
-3.25796
11
5.46099
21
-3.25988
0
LINE
8
BLACK
6
CONTINUOUS
10
5.46099
20
-3.25988
11
5.46291
21
-3.26275
0
LINE
8
BLACK
6
CONTINUOUS
10
5.46291
20
-3.26275
11
5.46358
21
-3.26614
0
LINE
8
BLACK
6
CONTINUOUS
10
5.46358
20
-3.26614
11
5.46358
21
-3.28583
0
LINE
8
BLACK
6
CONTINUOUS
10
5.46358
20
-3.28583
11
5.46291
21
-3.28922
0
LINE
8
BLACK
6
CONTINUOUS
10
5.46291
20
-3.28922
11
5.46099
21
-3.29209
0
LINE
8
BLACK
6
CONTINUOUS
10
5.46099
20
-3.29209
11
5.45811
21
-3.29401
0
LINE
8
BLACK
6
CONTINUOUS
10
5.45811
20
-3.29401
11
5.45472
21
-3.29469
0
LINE
8
BLACK
6
CONTINUOUS
10
5.45472
20
-3.29469
11
5.43701
21
-3.29469
0
LINE
8
BLACK
6
CONTINUOUS
10
5.43701
20
-3.29469
11
5.43362
21
-3.29401
0
LINE
8
BLACK
6
CONTINUOUS
10
5.43362
20
-3.29401
11
5.43074
21
-3.29209
0
LINE
8
BLACK
6
CONTINUOUS
10
5.43074
20
-3.29209
11
5.42882
21
-3.28922
0
LINE
8
BLACK
6
CONTINUOUS
10
5.42882
20
-3.28922
11
5.42815
21
-3.28583
0
LINE
8
BLACK
6
CONTINUOUS
10
5.42815
20
-3.28583
11
5.42815
21
-3.26614
0
LINE
8
BLACK
6
CONTINUOUS
10
5.42815
20
-3.26614
11
5.42882
21
-3.26275
0
LINE
8
BLACK
6
CONTINUOUS
10
5.42882
20
-3.26275
11
5.43074
21
-3.25988
0
LINE
8
BLACK
6
CONTINUOUS
10
5.43074
20
-3.25988
11
5.43362
21
-3.25796
0
LINE
8
BLACK
6
CONTINUOUS
10
5.43362
20
-3.25796
11
5.43701
21
-3.25728
0
LINE
8
BLACK
6
CONTINUOUS
10
5.43701
20
-3.25728
11
5.45472
21
-3.25728
0
LINE
8
BLACK
6
CONTINUOUS
10
5.45472
20
-3.25728
11
5.45811
21
-3.25796
0
LINE
8
BLACK
6
CONTINUOUS
10
5.51914
20
-3.25796
11
5.52201
21
-3.25988
0
LINE
8
BLACK
6
CONTINUOUS
10
5.52201
20
-3.25988
11
5.52393
21
-3.26275
0
LINE
8
BLACK
6
CONTINUOUS
10
5.52393
20
-3.26275
11
5.52461
21
-3.26614
0
LINE
8
BLACK
6
CONTINUOUS
10
5.52461
20
-3.26614
11
5.52461
21
-3.28583
0
LINE
8
BLACK
6
CONTINUOUS
10
5.52461
20
-3.28583
11
5.52393
21
-3.28922
0
LINE
8
BLACK
6
CONTINUOUS
10
5.52393
20
-3.28922
11
5.52201
21
-3.29209
0
LINE
8
BLACK
6
CONTINUOUS
10
5.52201
20
-3.29209
11
5.51914
21
-3.29401
0
LINE
8
BLACK
6
CONTINUOUS
10
5.51914
20
-3.29401
11
5.51575
21
-3.29469
0
LINE
8
BLACK
6
CONTINUOUS
10
5.51575
20
-3.29469
11
5.49803
21
-3.29469
0
LINE
8
BLACK
6
CONTINUOUS
10
5.49803
20
-3.29469
11
5.49464
21
-3.29401
0
LINE
8
BLACK
6
CONTINUOUS
10
5.49464
20
-3.29401
11
5.49177
21
-3.29209
0
LINE
8
BLACK
6
CONTINUOUS
10
5.49177
20
-3.29209
11
5.48985
21
-3.28922
0
LINE
8
BLACK
6
CONTINUOUS
10
5.48985
20
-3.28922
11
5.48917
21
-3.28583
0
LINE
8
BLACK
6
CONTINUOUS
10
5.48917
20
-3.28583
11
5.48917
21
-3.26614
0
LINE
8
BLACK
6
CONTINUOUS
10
5.48917
20
-3.26614
11
5.48985
21
-3.26275
0
LINE
8
BLACK
6
CONTINUOUS
10
5.48985
20
-3.26275
11
5.49177
21
-3.25988
0
LINE
8
BLACK
6
CONTINUOUS
10
5.49177
20
-3.25988
11
5.49464
21
-3.25796
0
LINE
8
BLACK
6
CONTINUOUS
10
5.49464
20
-3.25796
11
5.49803
21
-3.25728
0
LINE
8
BLACK
6
CONTINUOUS
10
5.49803
20
-3.25728
11
5.51575
21
-3.25728
0
LINE
8
BLACK
6
CONTINUOUS
10
5.51575
20
-3.25728
11
5.51914
21
-3.25796
0
LINE
8
BLACK
6
CONTINUOUS
10
4.26323
20
-3.23394
11
4.26611
21
-3.23586
0
LINE
8
BLACK
6
CONTINUOUS
10
4.26611
20
-3.23586
11
4.26803
21
-3.23874
0
LINE
8
BLACK
6
CONTINUOUS
10
4.26803
20
-3.23874
11
4.2687
21
-3.24213
0
LINE
8
BLACK
6
CONTINUOUS
10
4.2687
20
-3.24213
11
4.2687
21
-3.26181
0
LINE
8
BLACK
6
CONTINUOUS
10
4.2687
20
-3.26181
11
4.26803
21
-3.2652
0
LINE
8
BLACK
6
CONTINUOUS
10
4.26803
20
-3.2652
11
4.26611
21
-3.26807
0
LINE
8
BLACK
6
CONTINUOUS
10
4.26611
20
-3.26807
11
4.26323
21
-3.26999
0
LINE
8
BLACK
6
CONTINUOUS
10
4.26323
20
-3.26999
11
4.25984
21
-3.27067
0
LINE
8
BLACK
6
CONTINUOUS
10
4.25984
20
-3.27067
11
4.24213
21
-3.27067
0
LINE
8
BLACK
6
CONTINUOUS
10
4.24213
20
-3.27067
11
4.23874
21
-3.26999
0
LINE
8
BLACK
6
CONTINUOUS
10
4.23874
20
-3.26999
11
4.23586
21
-3.26807
0
LINE
8
BLACK
6
CONTINUOUS
10
4.23586
20
-3.26807
11
4.23394
21
-3.2652
0
LINE
8
BLACK
6
CONTINUOUS
10
4.23394
20
-3.2652
11
4.23327
21
-3.26181
0
LINE
8
BLACK
6
CONTINUOUS
10
4.23327
20
-3.26181
11
4.23327
21
-3.24213
0
LINE
8
BLACK
6
CONTINUOUS
10
4.23327
20
-3.24213
11
4.23394
21
-3.23874
0
LINE
8
BLACK
6
CONTINUOUS
10
4.23394
20
-3.23874
11
4.23586
21
-3.23586
0
LINE
8
BLACK
6
CONTINUOUS
10
4.23586
20
-3.23586
11
4.23874
21
-3.23394
0
LINE
8
BLACK
6
CONTINUOUS
10
4.23874
20
-3.23394
11
4.24213
21
-3.23327
0
LINE
8
BLACK
6
CONTINUOUS
10
4.24213
20
-3.23327
11
4.25984
21
-3.23327
0
LINE
8
BLACK
6
CONTINUOUS
10
4.25984
20
-3.23327
11
4.26323
21
-3.23394
0
LINE
8
BLACK
6
CONTINUOUS
10
4.38982
20
-3.23387
11
4.39238
21
-3.23557
0
LINE
8
BLACK
6
CONTINUOUS
10
4.39238
20
-3.23557
11
4.39409
21
-3.23813
0
LINE
8
BLACK
6
CONTINUOUS
10
4.39409
20
-3.23813
11
4.39469
21
-3.24114
0
LINE
8
BLACK
6
CONTINUOUS
10
4.39469
20
-3.24114
11
4.39469
21
-3.2628
0
LINE
8
BLACK
6
CONTINUOUS
10
4.39469
20
-3.2628
11
4.39409
21
-3.26581
0
LINE
8
BLACK
6
CONTINUOUS
10
4.39409
20
-3.26581
11
4.39238
21
-3.26836
0
LINE
8
BLACK
6
CONTINUOUS
10
4.39238
20
-3.26836
11
4.38982
21
-3.27007
0
LINE
8
BLACK
6
CONTINUOUS
10
4.38982
20
-3.27007
11
4.38681
21
-3.27067
0
LINE
8
BLACK
6
CONTINUOUS
10
4.38681
20
-3.27067
11
4.37106
21
-3.27067
0
LINE
8
BLACK
6
CONTINUOUS
10
4.37106
20
-3.27067
11
4.36805
21
-3.27007
0
LINE
8
BLACK
6
CONTINUOUS
10
4.36805
20
-3.27007
11
4.3655
21
-3.26836
0
LINE
8
BLACK
6
CONTINUOUS
10
4.3655
20
-3.26836
11
4.36379
21
-3.26581
0
LINE
8
BLACK
6
CONTINUOUS
10
4.36379
20
-3.26581
11
4.36319
21
-3.2628
0
LINE
8
BLACK
6
CONTINUOUS
10
4.36319
20
-3.2628
11
4.36319
21
-3.24114
0
LINE
8
BLACK
6
CONTINUOUS
10
4.36319
20
-3.24114
11
4.36379
21
-3.23813
0
LINE
8
BLACK
6
CONTINUOUS
10
4.36379
20
-3.23813
11
4.3655
21
-3.23557
0
LINE
8
BLACK
6
CONTINUOUS
10
4.3655
20
-3.23557
11
4.36805
21
-3.23387
0
LINE
8
BLACK
6
CONTINUOUS
10
4.36805
20
-3.23387
11
4.37106
21
-3.23327
0
LINE
8
BLACK
6
CONTINUOUS
10
4.37106
20
-3.23327
11
4.38681
21
-3.23327
0
LINE
8
BLACK
6
CONTINUOUS
10
4.38681
20
-3.23327
11
4.38982
21
-3.23387
0
LINE
8
BLACK
6
CONTINUOUS
10
4.32486
20
-3.23387
11
4.32742
21
-3.23557
0
LINE
8
BLACK
6
CONTINUOUS
10
4.32742
20
-3.23557
11
4.32913
21
-3.23813
0
LINE
8
BLACK
6
CONTINUOUS
10
4.32913
20
-3.23813
11
4.32972
21
-3.24114
0
LINE
8
BLACK
6
CONTINUOUS
10
4.32972
20
-3.24114
11
4.32972
21
-3.2628
0
LINE
8
BLACK
6
CONTINUOUS
10
4.32972
20
-3.2628
11
4.32913
21
-3.26581
0
LINE
8
BLACK
6
CONTINUOUS
10
4.32913
20
-3.26581
11
4.32742
21
-3.26836
0
LINE
8
BLACK
6
CONTINUOUS
10
4.32742
20
-3.26836
11
4.32486
21
-3.27007
0
LINE
8
BLACK
6
CONTINUOUS
10
4.32486
20
-3.27007
11
4.32185
21
-3.27067
0
LINE
8
BLACK
6
CONTINUOUS
10
4.32185
20
-3.27067
11
4.3061
21
-3.27067
0
LINE
8
BLACK
6
CONTINUOUS
10
4.3061
20
-3.27067
11
4.30309
21
-3.27007
0
LINE
8
BLACK
6
CONTINUOUS
10
4.30309
20
-3.27007
11
4.30053
21
-3.26836
0
LINE
8
BLACK
6
CONTINUOUS
10
4.30053
20
-3.26836
11
4.29883
21
-3.26581
0
LINE
8
BLACK
6
CONTINUOUS
10
4.29883
20
-3.26581
11
4.29823
21
-3.2628
0
LINE
8
BLACK
6
CONTINUOUS
10
4.29823
20
-3.2628
11
4.29823
21
-3.24114
0
LINE
8
BLACK
6
CONTINUOUS
10
4.29823
20
-3.24114
11
4.29883
21
-3.23813
0
LINE
8
BLACK
6
CONTINUOUS
10
4.29883
20
-3.23813
11
4.30053
21
-3.23557
0
LINE
8
BLACK
6
CONTINUOUS
10
4.30053
20
-3.23557
11
4.30309
21
-3.23387
0
LINE
8
BLACK
6
CONTINUOUS
10
4.30309
20
-3.23387
11
4.3061
21
-3.23327
0
LINE
8
BLACK
6
CONTINUOUS
10
4.3061
20
-3.23327
11
4.32185
21
-3.23327
0
LINE
8
BLACK
6
CONTINUOUS
10
4.32185
20
-3.23327
11
4.32486
21
-3.23387
0
LINE
8
BLACK
6
CONTINUOUS
10
4.20221
20
-3.23394
11
4.20508
21
-3.23586
0
LINE
8
BLACK
6
CONTINUOUS
10
4.20508
20
-3.23586
11
4.207
21
-3.23874
0
LINE
8
BLACK
6
CONTINUOUS
10
4.207
20
-3.23874
11
4.20768
21
-3.24213
0
LINE
8
BLACK
6
CONTINUOUS
10
4.20768
20
-3.24213
11
4.20768
21
-3.26181
0
LINE
8
BLACK
6
CONTINUOUS
10
4.20768
20
-3.26181
11
4.207
21
-3.2652
0
LINE
8
BLACK
6
CONTINUOUS
10
4.207
20
-3.2652
11
4.20508
21
-3.26807
0
LINE
8
BLACK
6
CONTINUOUS
10
4.20508
20
-3.26807
11
4.20221
21
-3.26999
0
LINE
8
BLACK
6
CONTINUOUS
10
4.20221
20
-3.26999
11
4.19882
21
-3.27067
0
LINE
8
BLACK
6
CONTINUOUS
10
4.19882
20
-3.27067
11
4.1811
21
-3.27067
0
LINE
8
BLACK
6
CONTINUOUS
10
4.1811
20
-3.27067
11
4.17771
21
-3.26999
0
LINE
8
BLACK
6
CONTINUOUS
10
4.17771
20
-3.26999
11
4.17484
21
-3.26807
0
LINE
8
BLACK
6
CONTINUOUS
10
4.17484
20
-3.26807
11
4.17292
21
-3.2652
0
LINE
8
BLACK
6
CONTINUOUS
10
4.17292
20
-3.2652
11
4.17224
21
-3.26181
0
LINE
8
BLACK
6
CONTINUOUS
10
4.17224
20
-3.26181
11
4.17224
21
-3.24213
0
LINE
8
BLACK
6
CONTINUOUS
10
4.17224
20
-3.24213
11
4.17292
21
-3.23874
0
LINE
8
BLACK
6
CONTINUOUS
10
4.17292
20
-3.23874
11
4.17484
21
-3.23586
0
LINE
8
BLACK
6
CONTINUOUS
10
4.17484
20
-3.23586
11
4.17771
21
-3.23394
0
LINE
8
BLACK
6
CONTINUOUS
10
4.17771
20
-3.23394
11
4.1811
21
-3.23327
0
LINE
8
BLACK
6
CONTINUOUS
10
4.1811
20
-3.23327
11
4.19882
21
-3.23327
0
LINE
8
BLACK
6
CONTINUOUS
10
4.19882
20
-3.23327
11
4.20221
21
-3.23394
0
LINE
8
BLACK
6
CONTINUOUS
10
5.49734
20
-3.19021
11
5.49925
21
-3.19149
0
LINE
8
BLACK
6
CONTINUOUS
10
5.49925
20
-3.19149
11
5.50053
21
-3.19341
0
LINE
8
BLACK
6
CONTINUOUS
10
5.50053
20
-3.19341
11
5.50098
21
-3.19567
0
LINE
8
BLACK
6
CONTINUOUS
10
5.50098
20
-3.19567
11
5.50098
21
-3.20748
0
LINE
8
BLACK
6
CONTINUOUS
10
5.50098
20
-3.20748
11
5.50053
21
-3.20974
0
LINE
8
BLACK
6
CONTINUOUS
10
5.50053
20
-3.20974
11
5.49925
21
-3.21166
0
LINE
8
BLACK
6
CONTINUOUS
10
5.49925
20
-3.21166
11
5.49734
21
-3.21294
0
LINE
8
BLACK
6
CONTINUOUS
10
5.49734
20
-3.21294
11
5.49508
21
-3.21339
0
LINE
8
BLACK
6
CONTINUOUS
10
5.49508
20
-3.21339
11
5.43012
21
-3.21339
0
LINE
8
BLACK
6
CONTINUOUS
10
5.43012
20
-3.21339
11
5.42786
21
-3.21294
0
LINE
8
BLACK
6
CONTINUOUS
10
5.42786
20
-3.21294
11
5.42594
21
-3.21166
0
LINE
8
BLACK
6
CONTINUOUS
10
5.42594
20
-3.21166
11
5.42466
21
-3.20974
0
LINE
8
BLACK
6
CONTINUOUS
10
5.42466
20
-3.20974
11
5.42421
21
-3.20748
0
LINE
8
BLACK
6
CONTINUOUS
10
5.42421
20
-3.20748
11
5.42421
21
-3.19567
0
LINE
8
BLACK
6
CONTINUOUS
10
5.42421
20
-3.19567
11
5.42466
21
-3.19341
0
LINE
8
BLACK
6
CONTINUOUS
10
5.42466
20
-3.19341
11
5.42594
21
-3.19149
0
LINE
8
BLACK
6
CONTINUOUS
10
5.42594
20
-3.19149
11
5.42786
21
-3.19021
0
LINE
8
BLACK
6
CONTINUOUS
10
5.42786
20
-3.19021
11
5.43012
21
-3.18976
0
LINE
8
BLACK
6
CONTINUOUS
10
5.43012
20
-3.18976
11
5.49508
21
-3.18976
0
LINE
8
BLACK
6
CONTINUOUS
10
5.49508
20
-3.18976
11
5.49734
21
-3.19021
0
LINE
8
BLACK
6
CONTINUOUS
10
5.69222
20
-3.19021
11
5.69414
21
-3.19149
0
LINE
8
BLACK
6
CONTINUOUS
10
5.69414
20
-3.19149
11
5.69542
21
-3.19341
0
LINE
8
BLACK
6
CONTINUOUS
10
5.69542
20
-3.19341
11
5.69587
21
-3.19567
0
LINE
8
BLACK
6
CONTINUOUS
10
5.69587
20
-3.19567
11
5.69587
21
-3.20748
0
LINE
8
BLACK
6
CONTINUOUS
10
5.69587
20
-3.20748
11
5.69542
21
-3.20974
0
LINE
8
BLACK
6
CONTINUOUS
10
5.69542
20
-3.20974
11
5.69414
21
-3.21166
0
LINE
8
BLACK
6
CONTINUOUS
10
5.69414
20
-3.21166
11
5.69222
21
-3.21294
0
LINE
8
BLACK
6
CONTINUOUS
10
5.69222
20
-3.21294
11
5.68996
21
-3.21339
0
LINE
8
BLACK
6
CONTINUOUS
10
5.68996
20
-3.21339
11
5.625
21
-3.21339
0
LINE
8
BLACK
6
CONTINUOUS
10
5.625
20
-3.21339
11
5.62274
21
-3.21294
0
LINE
8
BLACK
6
CONTINUOUS
10
5.62274
20
-3.21294
11
5.62082
21
-3.21166
0
LINE
8
BLACK
6
CONTINUOUS
10
5.62082
20
-3.21166
11
5.61954
21
-3.20974
0
LINE
8
BLACK
6
CONTINUOUS
10
5.61954
20
-3.20974
11
5.61909
21
-3.20748
0
LINE
8
BLACK
6
CONTINUOUS
10
5.61909
20
-3.20748
11
5.61909
21
-3.19567
0
LINE
8
BLACK
6
CONTINUOUS
10
5.61909
20
-3.19567
11
5.61954
21
-3.19341
0
LINE
8
BLACK
6
CONTINUOUS
10
5.61954
20
-3.19341
11
5.62082
21
-3.19149
0
LINE
8
BLACK
6
CONTINUOUS
10
5.62082
20
-3.19149
11
5.62274
21
-3.19021
0
LINE
8
BLACK
6
CONTINUOUS
10
5.62274
20
-3.19021
11
5.625
21
-3.18976
0
LINE
8
BLACK
6
CONTINUOUS
10
5.625
20
-3.18976
11
5.68996
21
-3.18976
0
LINE
8
BLACK
6
CONTINUOUS
10
5.68996
20
-3.18976
11
5.69222
21
-3.19021
0
LINE
8
BLACK
6
CONTINUOUS
10
4.33887
20
-3.16364
11
4.34079
21
-3.16492
0
LINE
8
BLACK
6
CONTINUOUS
10
4.34079
20
-3.16492
11
4.34207
21
-3.16683
0
LINE
8
BLACK
6
CONTINUOUS
10
4.34207
20
-3.16683
11
4.34252
21
-3.16909
0
LINE
8
BLACK
6
CONTINUOUS
10
4.34252
20
-3.16909
11
4.34252
21
-3.18091
0
LINE
8
BLACK
6
CONTINUOUS
10
4.34252
20
-3.18091
11
4.34207
21
-3.18317
0
LINE
8
BLACK
6
CONTINUOUS
10
4.34207
20
-3.18317
11
4.34079
21
-3.18508
0
LINE
8
BLACK
6
CONTINUOUS
10
4.34079
20
-3.18508
11
4.33887
21
-3.18636
0
LINE
8
BLACK
6
CONTINUOUS
10
4.33887
20
-3.18636
11
4.33661
21
-3.18681
0
LINE
8
BLACK
6
CONTINUOUS
10
4.33661
20
-3.18681
11
4.27165
21
-3.18681
0
LINE
8
BLACK
6
CONTINUOUS
10
4.27165
20
-3.18681
11
4.26939
21
-3.18636
0
LINE
8
BLACK
6
CONTINUOUS
10
4.26939
20
-3.18636
11
4.26748
21
-3.18508
0
LINE
8
BLACK
6
CONTINUOUS
10
4.26748
20
-3.18508
11
4.2662
21
-3.18317
0
LINE
8
BLACK
6
CONTINUOUS
10
4.2662
20
-3.18317
11
4.26575
21
-3.18091
0
LINE
8
BLACK
6
CONTINUOUS
10
4.26575
20
-3.18091
11
4.26575
21
-3.16909
0
LINE
8
BLACK
6
CONTINUOUS
10
4.26575
20
-3.16909
11
4.2662
21
-3.16683
0
LINE
8
BLACK
6
CONTINUOUS
10
4.2662
20
-3.16683
11
4.26748
21
-3.16492
0
LINE
8
BLACK
6
CONTINUOUS
10
4.26748
20
-3.16492
11
4.26939
21
-3.16364
0
LINE
8
BLACK
6
CONTINUOUS
10
4.26939
20
-3.16364
11
4.27165
21
-3.16319
0
LINE
8
BLACK
6
CONTINUOUS
10
4.27165
20
-3.16319
11
4.33661
21
-3.16319
0
LINE
8
BLACK
6
CONTINUOUS
10
4.33661
20
-3.16319
11
4.33887
21
-3.16364
0
LINE
8
BLACK
6
CONTINUOUS
10
4.53376
20
-3.16364
11
4.53567
21
-3.16492
0
LINE
8
BLACK
6
CONTINUOUS
10
4.53567
20
-3.16492
11
4.53695
21
-3.16683
0
LINE
8
BLACK
6
CONTINUOUS
10
4.53695
20
-3.16683
11
4.5374
21
-3.16909
0
LINE
8
BLACK
6
CONTINUOUS
10
4.5374
20
-3.16909
11
4.5374
21
-3.18091
0
LINE
8
BLACK
6
CONTINUOUS
10
4.5374
20
-3.18091
11
4.53695
21
-3.18317
0
LINE
8
BLACK
6
CONTINUOUS
10
4.53695
20
-3.18317
11
4.53567
21
-3.18508
0
LINE
8
BLACK
6
CONTINUOUS
10
4.53567
20
-3.18508
11
4.53376
21
-3.18636
0
LINE
8
BLACK
6
CONTINUOUS
10
4.53376
20
-3.18636
11
4.5315
21
-3.18681
0
LINE
8
BLACK
6
CONTINUOUS
10
4.5315
20
-3.18681
11
4.46654
21
-3.18681
0
LINE
8
BLACK
6
CONTINUOUS
10
4.46654
20
-3.18681
11
4.46428
21
-3.18636
0
LINE
8
BLACK
6
CONTINUOUS
10
4.46428
20
-3.18636
11
4.46236
21
-3.18508
0
LINE
8
BLACK
6
CONTINUOUS
10
4.46236
20
-3.18508
11
4.46108
21
-3.18317
0
LINE
8
BLACK
6
CONTINUOUS
10
4.46108
20
-3.18317
11
4.46063
21
-3.18091
0
LINE
8
BLACK
6
CONTINUOUS
10
4.46063
20
-3.18091
11
4.46063
21
-3.16909
0
LINE
8
BLACK
6
CONTINUOUS
10
4.46063
20
-3.16909
11
4.46108
21
-3.16683
0
LINE
8
BLACK
6
CONTINUOUS
10
4.46108
20
-3.16683
11
4.46236
21
-3.16492
0
LINE
8
BLACK
6
CONTINUOUS
10
4.46236
20
-3.16492
11
4.46428
21
-3.16364
0
LINE
8
BLACK
6
CONTINUOUS
10
4.46428
20
-3.16364
11
4.46654
21
-3.16319
0
LINE
8
BLACK
6
CONTINUOUS
10
4.46654
20
-3.16319
11
4.5315
21
-3.16319
0
LINE
8
BLACK
6
CONTINUOUS
10
4.5315
20
-3.16319
11
4.53376
21
-3.16364
0
LINE
8
BLACK
6
CONTINUOUS
10
5.49734
20
-3.14021
11
5.49925
21
-3.14149
0
LINE
8
BLACK
6
CONTINUOUS
10
5.49925
20
-3.14149
11
5.50053
21
-3.14341
0
LINE
8
BLACK
6
CONTINUOUS
10
5.50053
20
-3.14341
11
5.50098
21
-3.14567
0
LINE
8
BLACK
6
CONTINUOUS
10
5.50098
20
-3.14567
11
5.50098
21
-3.15748
0
LINE
8
BLACK
6
CONTINUOUS
10
5.50098
20
-3.15748
11
5.50053
21
-3.15974
0
LINE
8
BLACK
6
CONTINUOUS
10
5.50053
20
-3.15974
11
5.49925
21
-3.16166
0
LINE
8
BLACK
6
CONTINUOUS
10
5.49925
20
-3.16166
11
5.49734
21
-3.16294
0
LINE
8
BLACK
6
CONTINUOUS
10
5.49734
20
-3.16294
11
5.49508
21
-3.16339
0
LINE
8
BLACK
6
CONTINUOUS
10
5.49508
20
-3.16339
11
5.43012
21
-3.16339
0
LINE
8
BLACK
6
CONTINUOUS
10
5.43012
20
-3.16339
11
5.42786
21
-3.16294
0
LINE
8
BLACK
6
CONTINUOUS
10
5.42786
20
-3.16294
11
5.42594
21
-3.16166
0
LINE
8
BLACK
6
CONTINUOUS
10
5.42594
20
-3.16166
11
5.42466
21
-3.15974
0
LINE
8
BLACK
6
CONTINUOUS
10
5.42466
20
-3.15974
11
5.42421
21
-3.15748
0
LINE
8
BLACK
6
CONTINUOUS
10
5.42421
20
-3.15748
11
5.42421
21
-3.14567
0
LINE
8
BLACK
6
CONTINUOUS
10
5.42421
20
-3.14567
11
5.42466
21
-3.14341
0
LINE
8
BLACK
6
CONTINUOUS
10
5.42466
20
-3.14341
11
5.42594
21
-3.14149
0
LINE
8
BLACK
6
CONTINUOUS
10
5.42594
20
-3.14149
11
5.42786
21
-3.14021
0
LINE
8
BLACK
6
CONTINUOUS
10
5.42786
20
-3.14021
11
5.43012
21
-3.13976
0
LINE
8
BLACK
6
CONTINUOUS
10
5.43012
20
-3.13976
11
5.49508
21
-3.13976
0
LINE
8
BLACK
6
CONTINUOUS
10
5.49508
20
-3.13976
11
5.49734
21
-3.14021
0
LINE
8
BLACK
6
CONTINUOUS
10
5.69222
20
-3.14021
11
5.69414
21
-3.14149
0
LINE
8
BLACK
6
CONTINUOUS
10
5.69414
20
-3.14149
11
5.69542
21
-3.14341
0
LINE
8
BLACK
6
CONTINUOUS
10
5.69542
20
-3.14341
11
5.69587
21
-3.14567
0
LINE
8
BLACK
6
CONTINUOUS
10
5.69587
20
-3.14567
11
5.69587
21
-3.15748
0
LINE
8
BLACK
6
CONTINUOUS
10
5.69587
20
-3.15748
11
5.69542
21
-3.15974
0
LINE
8
BLACK
6
CONTINUOUS
10
5.69542
20
-3.15974
11
5.69414
21
-3.16166
0
LINE
8
BLACK
6
CONTINUOUS
10
5.69414
20
-3.16166
11
5.69222
21
-3.16294
0
LINE
8
BLACK
6
CONTINUOUS
10
5.69222
20
-3.16294
11
5.68996
21
-3.16339
0
LINE
8
BLACK
6
CONTINUOUS
10
5.68996
20
-3.16339
11
5.625
21
-3.16339
0
LINE
8
BLACK
6
CONTINUOUS
10
5.625
20
-3.16339
11
5.62274
21
-3.16294
0
LINE
8
BLACK
6
CONTINUOUS
10
5.62274
20
-3.16294
11
5.62082
21
-3.16166
0
LINE
8
BLACK
6
CONTINUOUS
10
5.62082
20
-3.16166
11
5.61954
21
-3.15974
0
LINE
8
BLACK
6
CONTINUOUS
10
5.61954
20
-3.15974
11
5.61909
21
-3.15748
0
LINE
8
BLACK
6
CONTINUOUS
10
5.61909
20
-3.15748
11
5.61909
21
-3.14567
0
LINE
8
BLACK
6
CONTINUOUS
10
5.61909
20
-3.14567
11
5.61954
21
-3.14341
0
LINE
8
BLACK
6
CONTINUOUS
10
5.61954
20
-3.14341
11
5.62082
21
-3.14149
0
LINE
8
BLACK
6
CONTINUOUS
10
5.62082
20
-3.14149
11
5.62274
21
-3.14021
0
LINE
8
BLACK
6
CONTINUOUS
10
5.62274
20
-3.14021
11
5.625
21
-3.13976
0
LINE
8
BLACK
6
CONTINUOUS
10
5.625
20
-3.13976
11
5.68996
21
-3.13976
0
LINE
8
BLACK
6
CONTINUOUS
10
5.68996
20
-3.13976
11
5.69222
21
-3.14021
0
LINE
8
BLACK
6
CONTINUOUS
10
4.53376
20
-3.11364
11
4.53567
21
-3.11492
0
LINE
8
BLACK
6
CONTINUOUS
10
4.53567
20
-3.11492
11
4.53695
21
-3.11683
0
LINE
8
BLACK
6
CONTINUOUS
10
4.53695
20
-3.11683
11
4.5374
21
-3.11909
0
LINE
8
BLACK
6
CONTINUOUS
10
4.5374
20
-3.11909
11
4.5374
21
-3.13091
0
LINE
8
BLACK
6
CONTINUOUS
10
4.5374
20
-3.13091
11
4.53695
21
-3.13317
0
LINE
8
BLACK
6
CONTINUOUS
10
4.53695
20
-3.13317
11
4.53567
21
-3.13508
0
LINE
8
BLACK
6
CONTINUOUS
10
4.53567
20
-3.13508
11
4.53376
21
-3.13636
0
LINE
8
BLACK
6
CONTINUOUS
10
4.53376
20
-3.13636
11
4.5315
21
-3.13681
0
LINE
8
BLACK
6
CONTINUOUS
10
4.5315
20
-3.13681
11
4.46654
21
-3.13681
0
LINE
8
BLACK
6
CONTINUOUS
10
4.46654
20
-3.13681
11
4.46428
21
-3.13636
0
LINE
8
BLACK
6
CONTINUOUS
10
4.46428
20
-3.13636
11
4.46236
21
-3.13508
0
LINE
8
BLACK
6
CONTINUOUS
10
4.46236
20
-3.13508
11
4.46108
21
-3.13317
0
LINE
8
BLACK
6
CONTINUOUS
10
4.46108
20
-3.13317
11
4.46063
21
-3.13091
0
LINE
8
BLACK
6
CONTINUOUS
10
4.46063
20
-3.13091
11
4.46063
21
-3.11909
0
LINE
8
BLACK
6
CONTINUOUS
10
4.46063
20
-3.11909
11
4.46108
21
-3.11683
0
LINE
8
BLACK
6
CONTINUOUS
10
4.46108
20
-3.11683
11
4.46236
21
-3.11492
0
LINE
8
BLACK
6
CONTINUOUS
10
4.46236
20
-3.11492
11
4.46428
21
-3.11364
0
LINE
8
BLACK
6
CONTINUOUS
10
4.46428
20
-3.11364
11
4.46654
21
-3.11319
0
LINE
8
BLACK
6
CONTINUOUS
10
4.46654
20
-3.11319
11
4.5315
21
-3.11319
0
LINE
8
BLACK
6
CONTINUOUS
10
4.5315
20
-3.11319
11
4.53376
21
-3.11364
0
LINE
8
BLACK
6
CONTINUOUS
10
4.33887
20
-3.11364
11
4.34079
21
-3.11492
0
LINE
8
BLACK
6
CONTINUOUS
10
4.34079
20
-3.11492
11
4.34207
21
-3.11683
0
LINE
8
BLACK
6
CONTINUOUS
10
4.34207
20
-3.11683
11
4.34252
21
-3.11909
0
LINE
8
BLACK
6
CONTINUOUS
10
4.34252
20
-3.11909
11
4.34252
21
-3.13091
0
LINE
8
BLACK
6
CONTINUOUS
10
4.34252
20
-3.13091
11
4.34207
21
-3.13317
0
LINE
8
BLACK
6
CONTINUOUS
10
4.34207
20
-3.13317
11
4.34079
21
-3.13508
0
LINE
8
BLACK
6
CONTINUOUS
10
4.34079
20
-3.13508
11
4.33887
21
-3.13636
0
LINE
8
BLACK
6
CONTINUOUS
10
4.33887
20
-3.13636
11
4.33661
21
-3.13681
0
LINE
8
BLACK
6
CONTINUOUS
10
4.33661
20
-3.13681
11
4.27165
21
-3.13681
0
LINE
8
BLACK
6
CONTINUOUS
10
4.27165
20
-3.13681
11
4.26939
21
-3.13636
0
LINE
8
BLACK
6
CONTINUOUS
10
4.26939
20
-3.13636
11
4.26748
21
-3.13508
0
LINE
8
BLACK
6
CONTINUOUS
10
4.26748
20
-3.13508
11
4.2662
21
-3.13317
0
LINE
8
BLACK
6
CONTINUOUS
10
4.2662
20
-3.13317
11
4.26575
21
-3.13091
0
LINE
8
BLACK
6
CONTINUOUS
10
4.26575
20
-3.13091
11
4.26575
21
-3.11909
0
LINE
8
BLACK
6
CONTINUOUS
10
4.26575
20
-3.11909
11
4.2662
21
-3.11683
0
LINE
8
BLACK
6
CONTINUOUS
10
4.2662
20
-3.11683
11
4.26748
21
-3.11492
0
LINE
8
BLACK
6
CONTINUOUS
10
4.26748
20
-3.11492
11
4.26939
21
-3.11364
0
LINE
8
BLACK
6
CONTINUOUS
10
4.26939
20
-3.11364
11
4.27165
21
-3.11319
0
LINE
8
BLACK
6
CONTINUOUS
10
4.27165
20
-3.11319
11
4.33661
21
-3.11319
0
LINE
8
BLACK
6
CONTINUOUS
10
4.33661
20
-3.11319
11
4.33887
21
-3.11364
0
LINE
8
BLACK
6
CONTINUOUS
10
5.49734
20
-3.09021
11
5.49925
21
-3.09149
0
LINE
8
BLACK
6
CONTINUOUS
10
5.49925
20
-3.09149
11
5.50053
21
-3.09341
0
LINE
8
BLACK
6
CONTINUOUS
10
5.50053
20
-3.09341
11
5.50098
21
-3.09567
0
LINE
8
BLACK
6
CONTINUOUS
10
5.50098
20
-3.09567
11
5.50098
21
-3.10748
0
LINE
8
BLACK
6
CONTINUOUS
10
5.50098
20
-3.10748
11
5.50053
21
-3.10974
0
LINE
8
BLACK
6
CONTINUOUS
10
5.50053
20
-3.10974
11
5.49925
21
-3.11166
0
LINE
8
BLACK
6
CONTINUOUS
10
5.49925
20
-3.11166
11
5.49734
21
-3.11294
0
LINE
8
BLACK
6
CONTINUOUS
10
5.49734
20
-3.11294
11
5.49508
21
-3.11339
0
LINE
8
BLACK
6
CONTINUOUS
10
5.49508
20
-3.11339
11
5.43012
21
-3.11339
0
LINE
8
BLACK
6
CONTINUOUS
10
5.43012
20
-3.11339
11
5.42786
21
-3.11294
0
LINE
8
BLACK
6
CONTINUOUS
10
5.42786
20
-3.11294
11
5.42594
21
-3.11166
0
LINE
8
BLACK
6
CONTINUOUS
10
5.42594
20
-3.11166
11
5.42466
21
-3.10974
0
LINE
8
BLACK
6
CONTINUOUS
10
5.42466
20
-3.10974
11
5.42421
21
-3.10748
0
LINE
8
BLACK
6
CONTINUOUS
10
5.42421
20
-3.10748
11
5.42421
21
-3.09567
0
LINE
8
BLACK
6
CONTINUOUS
10
5.42421
20
-3.09567
11
5.42466
21
-3.09341
0
LINE
8
BLACK
6
CONTINUOUS
10
5.42466
20
-3.09341
11
5.42594
21
-3.09149
0
LINE
8
BLACK
6
CONTINUOUS
10
5.42594
20
-3.09149
11
5.42786
21
-3.09021
0
LINE
8
BLACK
6
CONTINUOUS
10
5.42786
20
-3.09021
11
5.43012
21
-3.08976
0
LINE
8
BLACK
6
CONTINUOUS
10
5.43012
20
-3.08976
11
5.49508
21
-3.08976
0
LINE
8
BLACK
6
CONTINUOUS
10
5.49508
20
-3.08976
11
5.49734
21
-3.09021
0
LINE
8
BLACK
6
CONTINUOUS
10
5.69222
20
-3.09021
11
5.69414
21
-3.09149
0
LINE
8
BLACK
6
CONTINUOUS
10
5.69414
20
-3.09149
11
5.69542
21
-3.09341
0
LINE
8
BLACK
6
CONTINUOUS
10
5.69542
20
-3.09341
11
5.69587
21
-3.09567
0
LINE
8
BLACK
6
CONTINUOUS
10
5.69587
20
-3.09567
11
5.69587
21
-3.10748
0
LINE
8
BLACK
6
CONTINUOUS
10
5.69587
20
-3.10748
11
5.69542
21
-3.10974
0
LINE
8
BLACK
6
CONTINUOUS
10
5.69542
20
-3.10974
11
5.69414
21
-3.11166
0
LINE
8
BLACK
6
CONTINUOUS
10
5.69414
20
-3.11166
11
5.69222
21
-3.11294
0
LINE
8
BLACK
6
CONTINUOUS
10
5.69222
20
-3.11294
11
5.68996
21
-3.11339
0
LINE
8
BLACK
6
CONTINUOUS
10
5.68996
20
-3.11339
11
5.625
21
-3.11339
0
LINE
8
BLACK
6
CONTINUOUS
10
5.625
20
-3.11339
11
5.62274
21
-3.11294
0
LINE
8
BLACK
6
CONTINUOUS
10
5.62274
20
-3.11294
11
5.62082
21
-3.11166
0
LINE
8
BLACK
6
CONTINUOUS
10
5.62082
20
-3.11166
11
5.61954
21
-3.10974
0
LINE
8
BLACK
6
CONTINUOUS
10
5.61954
20
-3.10974
11
5.61909
21
-3.10748
0
LINE
8
BLACK
6
CONTINUOUS
10
5.61909
20
-3.10748
11
5.61909
21
-3.09567
0
LINE
8
BLACK
6
CONTINUOUS
10
5.61909
20
-3.09567
11
5.61954
21
-3.09341
0
LINE
8
BLACK
6
CONTINUOUS
10
5.61954
20
-3.09341
11
5.62082
21
-3.09149
0
LINE
8
BLACK
6
CONTINUOUS
10
5.62082
20
-3.09149
11
5.62274
21
-3.09021
0
LINE
8
BLACK
6
CONTINUOUS
10
5.62274
20
-3.09021
11
5.625
21
-3.08976
0
LINE
8
BLACK
6
CONTINUOUS
10
5.625
20
-3.08976
11
5.68996
21
-3.08976
0
LINE
8
BLACK
6
CONTINUOUS
10
5.68996
20
-3.08976
11
5.69222
21
-3.09021
0
LINE
8
BLACK
6
CONTINUOUS
10
4.53376
20
-3.06364
11
4.53567
21
-3.06492
0
LINE
8
BLACK
6
CONTINUOUS
10
4.53567
20
-3.06492
11
4.53695
21
-3.06683
0
LINE
8
BLACK
6
CONTINUOUS
10
4.53695
20
-3.06683
11
4.5374
21
-3.06909
0
LINE
8
BLACK
6
CONTINUOUS
10
4.5374
20
-3.06909
11
4.5374
21
-3.08091
0
LINE
8
BLACK
6
CONTINUOUS
10
4.5374
20
-3.08091
11
4.53695
21
-3.08317
0
LINE
8
BLACK
6
CONTINUOUS
10
4.53695
20
-3.08317
11
4.53567
21
-3.08508
0
LINE
8
BLACK
6
CONTINUOUS
10
4.53567
20
-3.08508
11
4.53376
21
-3.08636
0
LINE
8
BLACK
6
CONTINUOUS
10
4.53376
20
-3.08636
11
4.5315
21
-3.08681
0
LINE
8
BLACK
6
CONTINUOUS
10
4.5315
20
-3.08681
11
4.46654
21
-3.08681
0
LINE
8
BLACK
6
CONTINUOUS
10
4.46654
20
-3.08681
11
4.46428
21
-3.08636
0
LINE
8
BLACK
6
CONTINUOUS
10
4.46428
20
-3.08636
11
4.46236
21
-3.08508
0
LINE
8
BLACK
6
CONTINUOUS
10
4.46236
20
-3.08508
11
4.46108
21
-3.08317
0
LINE
8
BLACK
6
CONTINUOUS
10
4.46108
20
-3.08317
11
4.46063
21
-3.08091
0
LINE
8
BLACK
6
CONTINUOUS
10
4.46063
20
-3.08091
11
4.46063
21
-3.06909
0
LINE
8
BLACK
6
CONTINUOUS
10
4.46063
20
-3.06909
11
4.46108
21
-3.06683
0
LINE
8
BLACK
6
CONTINUOUS
10
4.46108
20
-3.06683
11
4.46236
21
-3.06492
0
LINE
8
BLACK
6
CONTINUOUS
10
4.46236
20
-3.06492
11
4.46428
21
-3.06364
0
LINE
8
BLACK
6
CONTINUOUS
10
4.46428
20
-3.06364
11
4.46654
21
-3.06319
0
LINE
8
BLACK
6
CONTINUOUS
10
4.46654
20
-3.06319
11
4.5315
21
-3.06319
0
LINE
8
BLACK
6
CONTINUOUS
10
4.5315
20
-3.06319
11
4.53376
21
-3.06364
0
LINE
8
BLACK
6
CONTINUOUS
10
4.33887
20
-3.06364
11
4.34079
21
-3.06492
0
LINE
8
BLACK
6
CONTINUOUS
10
4.34079
20
-3.06492
11
4.34207
21
-3.06683
0
LINE
8
BLACK
6
CONTINUOUS
10
4.34207
20
-3.06683
11
4.34252
21
-3.06909
0
LINE
8
BLACK
6
CONTINUOUS
10
4.34252
20
-3.06909
11
4.34252
21
-3.08091
0
LINE
8
BLACK
6
CONTINUOUS
10
4.34252
20
-3.08091
11
4.34207
21
-3.08317
0
LINE
8
BLACK
6
CONTINUOUS
10
4.34207
20
-3.08317
11
4.34079
21
-3.08508
0
LINE
8
BLACK
6
CONTINUOUS
10
4.34079
20
-3.08508
11
4.33887
21
-3.08636
0
LINE
8
BLACK
6
CONTINUOUS
10
4.33887
20
-3.08636
11
4.33661
21
-3.08681
0
LINE
8
BLACK
6
CONTINUOUS
10
4.33661
20
-3.08681
11
4.27165
21
-3.08681
0
LINE
8
BLACK
6
CONTINUOUS
10
4.27165
20
-3.08681
11
4.26939
21
-3.08636
0
LINE
8
BLACK
6
CONTINUOUS
10
4.26939
20
-3.08636
11
4.26748
21
-3.08508
0
LINE
8
BLACK
6
CONTINUOUS
10
4.26748
20
-3.08508
11
4.2662
21
-3.08317
0
LINE
8
BLACK
6
CONTINUOUS
10
4.2662
20
-3.08317
11
4.26575
21
-3.08091
0
LINE
8
BLACK
6
CONTINUOUS
10
4.26575
20
-3.08091
11
4.26575
21
-3.06909
0
LINE
8
BLACK
6
CONTINUOUS
10
4.26575
20
-3.06909
11
4.2662
21
-3.06683
0
LINE
8
BLACK
6
CONTINUOUS
10
4.2662
20
-3.06683
11
4.26748
21
-3.06492
0
LINE
8
BLACK
6
CONTINUOUS
10
4.26748
20
-3.06492
11
4.26939
21
-3.06364
0
LINE
8
BLACK
6
CONTINUOUS
10
4.26939
20
-3.06364
11
4.27165
21
-3.06319
0
LINE
8
BLACK
6
CONTINUOUS
10
4.27165
20
-3.06319
11
4.33661
21
-3.06319
0
LINE
8
BLACK
6
CONTINUOUS
10
4.33661
20
-3.06319
11
4.33887
21
-3.06364
0
LINE
8
BLACK
6
CONTINUOUS
10
5.49734
20
-3.04021
11
5.49925
21
-3.04149
0
LINE
8
BLACK
6
CONTINUOUS
10
5.49925
20
-3.04149
11
5.50053
21
-3.04341
0
LINE
8
BLACK
6
CONTINUOUS
10
5.50053
20
-3.04341
11
5.50098
21
-3.04567
0
LINE
8
BLACK
6
CONTINUOUS
10
5.50098
20
-3.04567
11
5.50098
21
-3.05748
0
LINE
8
BLACK
6
CONTINUOUS
10
5.50098
20
-3.05748
11
5.50053
21
-3.05974
0
LINE
8
BLACK
6
CONTINUOUS
10
5.50053
20
-3.05974
11
5.49925
21
-3.06166
0
LINE
8
BLACK
6
CONTINUOUS
10
5.49925
20
-3.06166
11
5.49734
21
-3.06294
0
LINE
8
BLACK
6
CONTINUOUS
10
5.49734
20
-3.06294
11
5.49508
21
-3.06339
0
LINE
8
BLACK
6
CONTINUOUS
10
5.49508
20
-3.06339
11
5.43012
21
-3.06339
0
LINE
8
BLACK
6
CONTINUOUS
10
5.43012
20
-3.06339
11
5.42786
21
-3.06294
0
LINE
8
BLACK
6
CONTINUOUS
10
5.42786
20
-3.06294
11
5.42594
21
-3.06166
0
LINE
8
BLACK
6
CONTINUOUS
10
5.42594
20
-3.06166
11
5.42466
21
-3.05974
0
LINE
8
BLACK
6
CONTINUOUS
10
5.42466
20
-3.05974
11
5.42421
21
-3.05748
0
LINE
8
BLACK
6
CONTINUOUS
10
5.42421
20
-3.05748
11
5.42421
21
-3.04567
0
LINE
8
BLACK
6
CONTINUOUS
10
5.42421
20
-3.04567
11
5.42466
21
-3.04341
0
LINE
8
BLACK
6
CONTINUOUS
10
5.42466
20
-3.04341
11
5.42594
21
-3.04149
0
LINE
8
BLACK
6
CONTINUOUS
10
5.42594
20
-3.04149
11
5.42786
21
-3.04021
0
LINE
8
BLACK
6
CONTINUOUS
10
5.42786
20
-3.04021
11
5.43012
21
-3.03976
0
LINE
8
BLACK
6
CONTINUOUS
10
5.43012
20
-3.03976
11
5.49508
21
-3.03976
0
LINE
8
BLACK
6
CONTINUOUS
10
5.49508
20
-3.03976
11
5.49734
21
-3.04021
0
LINE
8
BLACK
6
CONTINUOUS
10
5.69222
20
-3.04021
11
5.69414
21
-3.04149
0
LINE
8
BLACK
6
CONTINUOUS
10
5.69414
20
-3.04149
11
5.69542
21
-3.04341
0
LINE
8
BLACK
6
CONTINUOUS
10
5.69542
20
-3.04341
11
5.69587
21
-3.04567
0
LINE
8
BLACK
6
CONTINUOUS
10
5.69587
20
-3.04567
11
5.69587
21
-3.05748
0
LINE
8
BLACK
6
CONTINUOUS
10
5.69587
20
-3.05748
11
5.69542
21
-3.05974
0
LINE
8
BLACK
6
CONTINUOUS
10
5.69542
20
-3.05974
11
5.69414
21
-3.06166
0
LINE
8
BLACK
6
CONTINUOUS
10
5.69414
20
-3.06166
11
5.69222
21
-3.06294
0
LINE
8
BLACK
6
CONTINUOUS
10
5.69222
20
-3.06294
11
5.68996
21
-3.06339
0
LINE
8
BLACK
6
CONTINUOUS
10
5.68996
20
-3.06339
11
5.625
21
-3.06339
0
LINE
8
BLACK
6
CONTINUOUS
10
5.625
20
-3.06339
11
5.62274
21
-3.06294
0
LINE
8
BLACK
6
CONTINUOUS
10
5.62274
20
-3.06294
11
5.62082
21
-3.06166
0
LINE
8
BLACK
6
CONTINUOUS
10
5.62082
20
-3.06166
11
5.61954
21
-3.05974
0
LINE
8
BLACK
6
CONTINUOUS
10
5.61954
20
-3.05974
11
5.61909
21
-3.05748
0
LINE
8
BLACK
6
CONTINUOUS
10
5.61909
20
-3.05748
11
5.61909
21
-3.04567
0
LINE
8
BLACK
6
CONTINUOUS
10
5.61909
20
-3.04567
11
5.61954
21
-3.04341
0
LINE
8
BLACK
6
CONTINUOUS
10
5.61954
20
-3.04341
11
5.62082
21
-3.04149
0
LINE
8
BLACK
6
CONTINUOUS
10
5.62082
20
-3.04149
11
5.62274
21
-3.04021
0
LINE
8
BLACK
6
CONTINUOUS
10
5.62274
20
-3.04021
11
5.625
21
-3.03976
0
LINE
8
BLACK
6
CONTINUOUS
10
5.625
20
-3.03976
11
5.68996
21
-3.03976
0
LINE
8
BLACK
6
CONTINUOUS
10
5.68996
20
-3.03976
11
5.69222
21
-3.04021
0
LINE
8
BLACK
6
CONTINUOUS
10
4.53376
20
-3.01364
11
4.53567
21
-3.01492
0
LINE
8
BLACK
6
CONTINUOUS
10
4.53567
20
-3.01492
11
4.53695
21
-3.01683
0
LINE
8
BLACK
6
CONTINUOUS
10
4.53695
20
-3.01683
11
4.5374
21
-3.01909
0
LINE
8
BLACK
6
CONTINUOUS
10
4.5374
20
-3.01909
11
4.5374
21
-3.03091
0
LINE
8
BLACK
6
CONTINUOUS
10
4.5374
20
-3.03091
11
4.53695
21
-3.03317
0
LINE
8
BLACK
6
CONTINUOUS
10
4.53695
20
-3.03317
11
4.53567
21
-3.03508
0
LINE
8
BLACK
6
CONTINUOUS
10
4.53567
20
-3.03508
11
4.53376
21
-3.03636
0
LINE
8
BLACK
6
CONTINUOUS
10
4.53376
20
-3.03636
11
4.5315
21
-3.03681
0
LINE
8
BLACK
6
CONTINUOUS
10
4.5315
20
-3.03681
11
4.46654
21
-3.03681
0
LINE
8
BLACK
6
CONTINUOUS
10
4.46654
20
-3.03681
11
4.46428
21
-3.03636
0
LINE
8
BLACK
6
CONTINUOUS
10
4.46428
20
-3.03636
11
4.46236
21
-3.03508
0
LINE
8
BLACK
6
CONTINUOUS
10
4.46236
20
-3.03508
11
4.46108
21
-3.03317
0
LINE
8
BLACK
6
CONTINUOUS
10
4.46108
20
-3.03317
11
4.46063
21
-3.03091
0
LINE
8
BLACK
6
CONTINUOUS
10
4.46063
20
-3.03091
11
4.46063
21
-3.01909
0
LINE
8
BLACK
6
CONTINUOUS
10
4.46063
20
-3.01909
11
4.46108
21
-3.01683
0
LINE
8
BLACK
6
CONTINUOUS
10
4.46108
20
-3.01683
11
4.46236
21
-3.01492
0
LINE
8
BLACK
6
CONTINUOUS
10
4.46236
20
-3.01492
11
4.46428
21
-3.01364
0
LINE
8
BLACK
6
CONTINUOUS
10
4.46428
20
-3.01364
11
4.46654
21
-3.01319
0
LINE
8
BLACK
6
CONTINUOUS
10
4.46654
20
-3.01319
11
4.5315
21
-3.01319
0
LINE
8
BLACK
6
CONTINUOUS
10
4.5315
20
-3.01319
11
4.53376
21
-3.01364
0
LINE
8
BLACK
6
CONTINUOUS
10
4.33887
20
-3.01364
11
4.34079
21
-3.01492
0
LINE
8
BLACK
6
CONTINUOUS
10
4.34079
20
-3.01492
11
4.34207
21
-3.01683
0
LINE
8
BLACK
6
CONTINUOUS
10
4.34207
20
-3.01683
11
4.34252
21
-3.01909
0
LINE
8
BLACK
6
CONTINUOUS
10
4.34252
20
-3.01909
11
4.34252
21
-3.03091
0
LINE
8
BLACK
6
CONTINUOUS
10
4.34252
20
-3.03091
11
4.34207
21
-3.03317
0
LINE
8
BLACK
6
CONTINUOUS
10
4.34207
20
-3.03317
11
4.34079
21
-3.03508
0
LINE
8
BLACK
6
CONTINUOUS
10
4.34079
20
-3.03508
11
4.33887
21
-3.03636
0
LINE
8
BLACK
6
CONTINUOUS
10
4.33887
20
-3.03636
11
4.33661
21
-3.03681
0
LINE
8
BLACK
6
CONTINUOUS
10
4.33661
20
-3.03681
11
4.27165
21
-3.03681
0
LINE
8
BLACK
6
CONTINUOUS
10
4.27165
20
-3.03681
11
4.26939
21
-3.03636
0
LINE
8
BLACK
6
CONTINUOUS
10
4.26939
20
-3.03636
11
4.26748
21
-3.03508
0
LINE
8
BLACK
6
CONTINUOUS
10
4.26748
20
-3.03508
11
4.2662
21
-3.03317
0
LINE
8
BLACK
6
CONTINUOUS
10
4.2662
20
-3.03317
11
4.26575
21
-3.03091
0
LINE
8
BLACK
6
CONTINUOUS
10
4.26575
20
-3.03091
11
4.26575
21
-3.01909
0
LINE
8
BLACK
6
CONTINUOUS
10
4.26575
20
-3.01909
11
4.2662
21
-3.01683
0
LINE
8
BLACK
6
CONTINUOUS
10
4.2662
20
-3.01683
11
4.26748
21
-3.01492
0
LINE
8
BLACK
6
CONTINUOUS
10
4.26748
20
-3.01492
11
4.26939
21
-3.01364
0
LINE
8
BLACK
6
CONTINUOUS
10
4.26939
20
-3.01364
11
4.27165
21
-3.01319
0
LINE
8
BLACK
6
CONTINUOUS
10
4.27165
20
-3.01319
11
4.33661
21
-3.01319
0
LINE
8
BLACK
6
CONTINUOUS
10
4.33661
20
-3.01319
11
4.33887
21
-3.01364
0
LINE
8
BLACK
6
CONTINUOUS
10
3.77701
20
-2.99772
11
3.77989
21
-2.99964
0
LINE
8
BLACK
6
CONTINUOUS
10
3.77989
20
-2.99964
11
3.78181
21
-3.00252
0
LINE
8
BLACK
6
CONTINUOUS
10
3.78181
20
-3.00252
11
3.78248
21
-3.00591
0
LINE
8
BLACK
6
CONTINUOUS
10
3.78248
20
-3.00591
11
3.78248
21
-3.02362
0
LINE
8
BLACK
6
CONTINUOUS
10
3.78248
20
-3.02362
11
3.78181
21
-3.02701
0
LINE
8
BLACK
6
CONTINUOUS
10
3.78181
20
-3.02701
11
3.77989
21
-3.02989
0
LINE
8
BLACK
6
CONTINUOUS
10
3.77989
20
-3.02989
11
3.77701
21
-3.03181
0
LINE
8
BLACK
6
CONTINUOUS
10
3.77701
20
-3.03181
11
3.77362
21
-3.03248
0
LINE
8
BLACK
6
CONTINUOUS
10
3.77362
20
-3.03248
11
3.75394
21
-3.03248
0
LINE
8
BLACK
6
CONTINUOUS
10
3.75394
20
-3.03248
11
3.75055
21
-3.03181
0
LINE
8
BLACK
6
CONTINUOUS
10
3.75055
20
-3.03181
11
3.74767
21
-3.02989
0
LINE
8
BLACK
6
CONTINUOUS
10
3.74767
20
-3.02989
11
3.74575
21
-3.02701
0
LINE
8
BLACK
6
CONTINUOUS
10
3.74575
20
-3.02701
11
3.74508
21
-3.02362
0
LINE
8
BLACK
6
CONTINUOUS
10
3.74508
20
-3.02362
11
3.74508
21
-3.00591
0
LINE
8
BLACK
6
CONTINUOUS
10
3.74508
20
-3.00591
11
3.74575
21
-3.00252
0
LINE
8
BLACK
6
CONTINUOUS
10
3.74575
20
-3.00252
11
3.74767
21
-2.99964
0
LINE
8
BLACK
6
CONTINUOUS
10
3.74767
20
-2.99964
11
3.75055
21
-2.99772
0
LINE
8
BLACK
6
CONTINUOUS
10
3.75055
20
-2.99772
11
3.75394
21
-2.99705
0
LINE
8
BLACK
6
CONTINUOUS
10
3.75394
20
-2.99705
11
3.77362
21
-2.99705
0
LINE
8
BLACK
6
CONTINUOUS
10
3.77362
20
-2.99705
11
3.77701
21
-2.99772
0
LINE
8
BLACK
6
CONTINUOUS
10
5.49734
20
-2.99021
11
5.49925
21
-2.99149
0
LINE
8
BLACK
6
CONTINUOUS
10
5.49925
20
-2.99149
11
5.50053
21
-2.99341
0
LINE
8
BLACK
6
CONTINUOUS
10
5.50053
20
-2.99341
11
5.50098
21
-2.99567
0
LINE
8
BLACK
6
CONTINUOUS
10
5.50098
20
-2.99567
11
5.50098
21
-3.00748
0
LINE
8
BLACK
6
CONTINUOUS
10
5.50098
20
-3.00748
11
5.50053
21
-3.00974
0
LINE
8
BLACK
6
CONTINUOUS
10
5.50053
20
-3.00974
11
5.49925
21
-3.01166
0
LINE
8
BLACK
6
CONTINUOUS
10
5.49925
20
-3.01166
11
5.49734
21
-3.01294
0
LINE
8
BLACK
6
CONTINUOUS
10
5.49734
20
-3.01294
11
5.49508
21
-3.01339
0
LINE
8
BLACK
6
CONTINUOUS
10
5.49508
20
-3.01339
11
5.43012
21
-3.01339
0
LINE
8
BLACK
6
CONTINUOUS
10
5.43012
20
-3.01339
11
5.42786
21
-3.01294
0
LINE
8
BLACK
6
CONTINUOUS
10
5.42786
20
-3.01294
11
5.42594
21
-3.01166
0
LINE
8
BLACK
6
CONTINUOUS
10
5.42594
20
-3.01166
11
5.42466
21
-3.00974
0
LINE
8
BLACK
6
CONTINUOUS
10
5.42466
20
-3.00974
11
5.42421
21
-3.00748
0
LINE
8
BLACK
6
CONTINUOUS
10
5.42421
20
-3.00748
11
5.42421
21
-2.99567
0
LINE
8
BLACK
6
CONTINUOUS
10
5.42421
20
-2.99567
11
5.42466
21
-2.99341
0
LINE
8
BLACK
6
CONTINUOUS
10
5.42466
20
-2.99341
11
5.42594
21
-2.99149
0
LINE
8
BLACK
6
CONTINUOUS
10
5.42594
20
-2.99149
11
5.42786
21
-2.99021
0
LINE
8
BLACK
6
CONTINUOUS
10
5.42786
20
-2.99021
11
5.43012
21
-2.98976
0
LINE
8
BLACK
6
CONTINUOUS
10
5.43012
20
-2.98976
11
5.49508
21
-2.98976
0
LINE
8
BLACK
6
CONTINUOUS
10
5.49508
20
-2.98976
11
5.49734
21
-2.99021
0
LINE
8
BLACK
6
CONTINUOUS
10
5.69222
20
-2.99021
11
5.69414
21
-2.99149
0
LINE
8
BLACK
6
CONTINUOUS
10
5.69414
20
-2.99149
11
5.69542
21
-2.99341
0
LINE
8
BLACK
6
CONTINUOUS
10
5.69542
20
-2.99341
11
5.69587
21
-2.99567
0
LINE
8
BLACK
6
CONTINUOUS
10
5.69587
20
-2.99567
11
5.69587
21
-3.00748
0
LINE
8
BLACK
6
CONTINUOUS
10
5.69587
20
-3.00748
11
5.69542
21
-3.00974
0
LINE
8
BLACK
6
CONTINUOUS
10
5.69542
20
-3.00974
11
5.69414
21
-3.01166
0
LINE
8
BLACK
6
CONTINUOUS
10
5.69414
20
-3.01166
11
5.69222
21
-3.01294
0
LINE
8
BLACK
6
CONTINUOUS
10
5.69222
20
-3.01294
11
5.68996
21
-3.01339
0
LINE
8
BLACK
6
CONTINUOUS
10
5.68996
20
-3.01339
11
5.625
21
-3.01339
0
LINE
8
BLACK
6
CONTINUOUS
10
5.625
20
-3.01339
11
5.62274
21
-3.01294
0
LINE
8
BLACK
6
CONTINUOUS
10
5.62274
20
-3.01294
11
5.62082
21
-3.01166
0
LINE
8
BLACK
6
CONTINUOUS
10
5.62082
20
-3.01166
11
5.61954
21
-3.00974
0
LINE
8
BLACK
6
CONTINUOUS
10
5.61954
20
-3.00974
11
5.61909
21
-3.00748
0
LINE
8
BLACK
6
CONTINUOUS
10
5.61909
20
-3.00748
11
5.61909
21
-2.99567
0
LINE
8
BLACK
6
CONTINUOUS
10
5.61909
20
-2.99567
11
5.61954
21
-2.99341
0
LINE
8
BLACK
6
CONTINUOUS
10
5.61954
20
-2.99341
11
5.62082
21
-2.99149
0
LINE
8
BLACK
6
CONTINUOUS
10
5.62082
20
-2.99149
11
5.62274
21
-2.99021
0
LINE
8
BLACK
6
CONTINUOUS
10
5.62274
20
-2.99021
11
5.625
21
-2.98976
0
LINE
8
BLACK
6
CONTINUOUS
10
5.625
20
-2.98976
11
5.68996
21
-2.98976
0
LINE
8
BLACK
6
CONTINUOUS
10
5.68996
20
-2.98976
11
5.69222
21
-2.99021
0
LINE
8
BLACK
6
CONTINUOUS
10
4.53376
20
-2.96364
11
4.53567
21
-2.96492
0
LINE
8
BLACK
6
CONTINUOUS
10
4.53567
20
-2.96492
11
4.53695
21
-2.96683
0
LINE
8
BLACK
6
CONTINUOUS
10
4.53695
20
-2.96683
11
4.5374
21
-2.96909
0
LINE
8
BLACK
6
CONTINUOUS
10
4.5374
20
-2.96909
11
4.5374
21
-2.98091
0
LINE
8
BLACK
6
CONTINUOUS
10
4.5374
20
-2.98091
11
4.53695
21
-2.98317
0
LINE
8
BLACK
6
CONTINUOUS
10
4.53695
20
-2.98317
11
4.53567
21
-2.98508
0
LINE
8
BLACK
6
CONTINUOUS
10
4.53567
20
-2.98508
11
4.53376
21
-2.98636
0
LINE
8
BLACK
6
CONTINUOUS
10
4.53376
20
-2.98636
11
4.5315
21
-2.98681
0
LINE
8
BLACK
6
CONTINUOUS
10
4.5315
20
-2.98681
11
4.46654
21
-2.98681
0
LINE
8
BLACK
6
CONTINUOUS
10
4.46654
20
-2.98681
11
4.46428
21
-2.98636
0
LINE
8
BLACK
6
CONTINUOUS
10
4.46428
20
-2.98636
11
4.46236
21
-2.98508
0
LINE
8
BLACK
6
CONTINUOUS
10
4.46236
20
-2.98508
11
4.46108
21
-2.98317
0
LINE
8
BLACK
6
CONTINUOUS
10
4.46108
20
-2.98317
11
4.46063
21
-2.98091
0
LINE
8
BLACK
6
CONTINUOUS
10
4.46063
20
-2.98091
11
4.46063
21
-2.96909
0
LINE
8
BLACK
6
CONTINUOUS
10
4.46063
20
-2.96909
11
4.46108
21
-2.96683
0
LINE
8
BLACK
6
CONTINUOUS
10
4.46108
20
-2.96683
11
4.46236
21
-2.96492
0
LINE
8
BLACK
6
CONTINUOUS
10
4.46236
20
-2.96492
11
4.46428
21
-2.96364
0
LINE
8
BLACK
6
CONTINUOUS
10
4.46428
20
-2.96364
11
4.46654
21
-2.96319
0
LINE
8
BLACK
6
CONTINUOUS
10
4.46654
20
-2.96319
11
4.5315
21
-2.96319
0
LINE
8
BLACK
6
CONTINUOUS
10
4.5315
20
-2.96319
11
4.53376
21
-2.96364
0
LINE
8
BLACK
6
CONTINUOUS
10
4.33887
20
-2.96364
11
4.34079
21
-2.96492
0
LINE
8
BLACK
6
CONTINUOUS
10
4.34079
20
-2.96492
11
4.34207
21
-2.96683
0
LINE
8
BLACK
6
CONTINUOUS
10
4.34207
20
-2.96683
11
4.34252
21
-2.96909
0
LINE
8
BLACK
6
CONTINUOUS
10
4.34252
20
-2.96909
11
4.34252
21
-2.98091
0
LINE
8
BLACK
6
CONTINUOUS
10
4.34252
20
-2.98091
11
4.34207
21
-2.98317
0
LINE
8
BLACK
6
CONTINUOUS
10
4.34207
20
-2.98317
11
4.34079
21
-2.98508
0
LINE
8
BLACK
6
CONTINUOUS
10
4.34079
20
-2.98508
11
4.33887
21
-2.98636
0
LINE
8
BLACK
6
CONTINUOUS
10
4.33887
20
-2.98636
11
4.33661
21
-2.98681
0
LINE
8
BLACK
6
CONTINUOUS
10
4.33661
20
-2.98681
11
4.27165
21
-2.98681
0
LINE
8
BLACK
6
CONTINUOUS
10
4.27165
20
-2.98681
11
4.26939
21
-2.98636
0
LINE
8
BLACK
6
CONTINUOUS
10
4.26939
20
-2.98636
11
4.26748
21
-2.98508
0
LINE
8
BLACK
6
CONTINUOUS
10
4.26748
20
-2.98508
11
4.2662
21
-2.98317
0
LINE
8
BLACK
6
CONTINUOUS
10
4.2662
20
-2.98317
11
4.26575
21
-2.98091
0
LINE
8
BLACK
6
CONTINUOUS
10
4.26575
20
-2.98091
11
4.26575
21
-2.96909
0
LINE
8
BLACK
6
CONTINUOUS
10
4.26575
20
-2.96909
11
4.2662
21
-2.96683
0
LINE
8
BLACK
6
CONTINUOUS
10
4.2662
20
-2.96683
11
4.26748
21
-2.96492
0
LINE
8
BLACK
6
CONTINUOUS
10
4.26748
20
-2.96492
11
4.26939
21
-2.96364
0
LINE
8
BLACK
6
CONTINUOUS
10
4.26939
20
-2.96364
11
4.27165
21
-2.96319
0
LINE
8
BLACK
6
CONTINUOUS
10
4.27165
20
-2.96319
11
4.33661
21
-2.96319
0
LINE
8
BLACK
6
CONTINUOUS
10
4.33661
20
-2.96319
11
4.33887
21
-2.96364
0
LINE
8
BLACK
6
CONTINUOUS
10
3.77701
20
-2.9367
11
3.77989
21
-2.93862
0
LINE
8
BLACK
6
CONTINUOUS
10
3.77989
20
-2.93862
11
3.78181
21
-2.94149
0
LINE
8
BLACK
6
CONTINUOUS
10
3.78181
20
-2.94149
11
3.78248
21
-2.94488
0
LINE
8
BLACK
6
CONTINUOUS
10
3.78248
20
-2.94488
11
3.78248
21
-2.9626
0
LINE
8
BLACK
6
CONTINUOUS
10
3.78248
20
-2.9626
11
3.78181
21
-2.96599
0
LINE
8
BLACK
6
CONTINUOUS
10
3.78181
20
-2.96599
11
3.77989
21
-2.96886
0
LINE
8
BLACK
6
CONTINUOUS
10
3.77989
20
-2.96886
11
3.77701
21
-2.97078
0
LINE
8
BLACK
6
CONTINUOUS
10
3.77701
20
-2.97078
11
3.77362
21
-2.97146
0
LINE
8
BLACK
6
CONTINUOUS
10
3.77362
20
-2.97146
11
3.75394
21
-2.97146
0
LINE
8
BLACK
6
CONTINUOUS
10
3.75394
20
-2.97146
11
3.75055
21
-2.97078
0
LINE
8
BLACK
6
CONTINUOUS
10
3.75055
20
-2.97078
11
3.74767
21
-2.96886
0
LINE
8
BLACK
6
CONTINUOUS
10
3.74767
20
-2.96886
11
3.74575
21
-2.96599
0
LINE
8
BLACK
6
CONTINUOUS
10
3.74575
20
-2.96599
11
3.74508
21
-2.9626
0
LINE
8
BLACK
6
CONTINUOUS
10
3.74508
20
-2.9626
11
3.74508
21
-2.94488
0
LINE
8
BLACK
6
CONTINUOUS
10
3.74508
20
-2.94488
11
3.74575
21
-2.94149
0
LINE
8
BLACK
6
CONTINUOUS
10
3.74575
20
-2.94149
11
3.74767
21
-2.93862
0
LINE
8
BLACK
6
CONTINUOUS
10
3.74767
20
-2.93862
11
3.75055
21
-2.9367
0
LINE
8
BLACK
6
CONTINUOUS
10
3.75055
20
-2.9367
11
3.75394
21
-2.93602
0
LINE
8
BLACK
6
CONTINUOUS
10
3.75394
20
-2.93602
11
3.77362
21
-2.93602
0
LINE
8
BLACK
6
CONTINUOUS
10
3.77362
20
-2.93602
11
3.77701
21
-2.9367
0
LINE
8
BLACK
6
CONTINUOUS
10
5.49734
20
-2.94021
11
5.49925
21
-2.94149
0
LINE
8
BLACK
6
CONTINUOUS
10
5.49925
20
-2.94149
11
5.50053
21
-2.94341
0
LINE
8
BLACK
6
CONTINUOUS
10
5.50053
20
-2.94341
11
5.50098
21
-2.94567
0
LINE
8
BLACK
6
CONTINUOUS
10
5.50098
20
-2.94567
11
5.50098
21
-2.95748
0
LINE
8
BLACK
6
CONTINUOUS
10
5.50098
20
-2.95748
11
5.50053
21
-2.95974
0
LINE
8
BLACK
6
CONTINUOUS
10
5.50053
20
-2.95974
11
5.49925
21
-2.96166
0
LINE
8
BLACK
6
CONTINUOUS
10
5.49925
20
-2.96166
11
5.49734
21
-2.96294
0
LINE
8
BLACK
6
CONTINUOUS
10
5.49734
20
-2.96294
11
5.49508
21
-2.96339
0
LINE
8
BLACK
6
CONTINUOUS
10
5.49508
20
-2.96339
11
5.43012
21
-2.96339
0
LINE
8
BLACK
6
CONTINUOUS
10
5.43012
20
-2.96339
11
5.42786
21
-2.96294
0
LINE
8
BLACK
6
CONTINUOUS
10
5.42786
20
-2.96294
11
5.42594
21
-2.96166
0
LINE
8
BLACK
6
CONTINUOUS
10
5.42594
20
-2.96166
11
5.42466
21
-2.95974
0
LINE
8
BLACK
6
CONTINUOUS
10
5.42466
20
-2.95974
11
5.42421
21
-2.95748
0
LINE
8
BLACK
6
CONTINUOUS
10
5.42421
20
-2.95748
11
5.42421
21
-2.94567
0
LINE
8
BLACK
6
CONTINUOUS
10
5.42421
20
-2.94567
11
5.42466
21
-2.94341
0
LINE
8
BLACK
6
CONTINUOUS
10
5.42466
20
-2.94341
11
5.42594
21
-2.94149
0
LINE
8
BLACK
6
CONTINUOUS
10
5.42594
20
-2.94149
11
5.42786
21
-2.94021
0
LINE
8
BLACK
6
CONTINUOUS
10
5.42786
20
-2.94021
11
5.43012
21
-2.93976
0
LINE
8
BLACK
6
CONTINUOUS
10
5.43012
20
-2.93976
11
5.49508
21
-2.93976
0
LINE
8
BLACK
6
CONTINUOUS
10
5.49508
20
-2.93976
11
5.49734
21
-2.94021
0
LINE
8
BLACK
6
CONTINUOUS
10
5.69222
20
-2.94021
11
5.69414
21
-2.94149
0
LINE
8
BLACK
6
CONTINUOUS
10
5.69414
20
-2.94149
11
5.69542
21
-2.94341
0
LINE
8
BLACK
6
CONTINUOUS
10
5.69542
20
-2.94341
11
5.69587
21
-2.94567
0
LINE
8
BLACK
6
CONTINUOUS
10
5.69587
20
-2.94567
11
5.69587
21
-2.95748
0
LINE
8
BLACK
6
CONTINUOUS
10
5.69587
20
-2.95748
11
5.69542
21
-2.95974
0
LINE
8
BLACK
6
CONTINUOUS
10
5.69542
20
-2.95974
11
5.69414
21
-2.96166
0
LINE
8
BLACK
6
CONTINUOUS
10
5.69414
20
-2.96166
11
5.69222
21
-2.96294
0
LINE
8
BLACK
6
CONTINUOUS
10
5.69222
20
-2.96294
11
5.68996
21
-2.96339
0
LINE
8
BLACK
6
CONTINUOUS
10
5.68996
20
-2.96339
11
5.625
21
-2.96339
0
LINE
8
BLACK
6
CONTINUOUS
10
5.625
20
-2.96339
11
5.62274
21
-2.96294
0
LINE
8
BLACK
6
CONTINUOUS
10
5.62274
20
-2.96294
11
5.62082
21
-2.96166
0
LINE
8
BLACK
6
CONTINUOUS
10
5.62082
20
-2.96166
11
5.61954
21
-2.95974
0
LINE
8
BLACK
6
CONTINUOUS
10
5.61954
20
-2.95974
11
5.61909
21
-2.95748
0
LINE
8
BLACK
6
CONTINUOUS
10
5.61909
20
-2.95748
11
5.61909
21
-2.94567
0
LINE
8
BLACK
6
CONTINUOUS
10
5.61909
20
-2.94567
11
5.61954
21
-2.94341
0
LINE
8
BLACK
6
CONTINUOUS
10
5.61954
20
-2.94341
11
5.62082
21
-2.94149
0
LINE
8
BLACK
6
CONTINUOUS
10
5.62082
20
-2.94149
11
5.62274
21
-2.94021
0
LINE
8
BLACK
6
CONTINUOUS
10
5.62274
20
-2.94021
11
5.625
21
-2.93976
0
LINE
8
BLACK
6
CONTINUOUS
10
5.625
20
-2.93976
11
5.68996
21
-2.93976
0
LINE
8
BLACK
6
CONTINUOUS
10
5.68996
20
-2.93976
11
5.69222
21
-2.94021
0
LINE
8
BLACK
6
CONTINUOUS
10
4.53376
20
-2.91364
11
4.53567
21
-2.91492
0
LINE
8
BLACK
6
CONTINUOUS
10
4.53567
20
-2.91492
11
4.53695
21
-2.91683
0
LINE
8
BLACK
6
CONTINUOUS
10
4.53695
20
-2.91683
11
4.5374
21
-2.91909
0
LINE
8
BLACK
6
CONTINUOUS
10
4.5374
20
-2.91909
11
4.5374
21
-2.93091
0
LINE
8
BLACK
6
CONTINUOUS
10
4.5374
20
-2.93091
11
4.53695
21
-2.93317
0
LINE
8
BLACK
6
CONTINUOUS
10
4.53695
20
-2.93317
11
4.53567
21
-2.93508
0
LINE
8
BLACK
6
CONTINUOUS
10
4.53567
20
-2.93508
11
4.53376
21
-2.93636
0
LINE
8
BLACK
6
CONTINUOUS
10
4.53376
20
-2.93636
11
4.5315
21
-2.93681
0
LINE
8
BLACK
6
CONTINUOUS
10
4.5315
20
-2.93681
11
4.46654
21
-2.93681
0
LINE
8
BLACK
6
CONTINUOUS
10
4.46654
20
-2.93681
11
4.46428
21
-2.93636
0
LINE
8
BLACK
6
CONTINUOUS
10
4.46428
20
-2.93636
11
4.46236
21
-2.93508
0
LINE
8
BLACK
6
CONTINUOUS
10
4.46236
20
-2.93508
11
4.46108
21
-2.93317
0
LINE
8
BLACK
6
CONTINUOUS
10
4.46108
20
-2.93317
11
4.46063
21
-2.93091
0
LINE
8
BLACK
6
CONTINUOUS
10
4.46063
20
-2.93091
11
4.46063
21
-2.91909
0
LINE
8
BLACK
6
CONTINUOUS
10
4.46063
20
-2.91909
11
4.46108
21
-2.91683
0
LINE
8
BLACK
6
CONTINUOUS
10
4.46108
20
-2.91683
11
4.46236
21
-2.91492
0
LINE
8
BLACK
6
CONTINUOUS
10
4.46236
20
-2.91492
11
4.46428
21
-2.91364
0
LINE
8
BLACK
6
CONTINUOUS
10
4.46428
20
-2.91364
11
4.46654
21
-2.91319
0
LINE
8
BLACK
6
CONTINUOUS
10
4.46654
20
-2.91319
11
4.5315
21
-2.91319
0
LINE
8
BLACK
6
CONTINUOUS
10
4.5315
20
-2.91319
11
4.53376
21
-2.91364
0
LINE
8
BLACK
6
CONTINUOUS
10
4.33887
20
-2.91364
11
4.34079
21
-2.91492
0
LINE
8
BLACK
6
CONTINUOUS
10
4.34079
20
-2.91492
11
4.34207
21
-2.91683
0
LINE
8
BLACK
6
CONTINUOUS
10
4.34207
20
-2.91683
11
4.34252
21
-2.91909
0
LINE
8
BLACK
6
CONTINUOUS
10
4.34252
20
-2.91909
11
4.34252
21
-2.93091
0
LINE
8
BLACK
6
CONTINUOUS
10
4.34252
20
-2.93091
11
4.34207
21
-2.93317
0
LINE
8
BLACK
6
CONTINUOUS
10
4.34207
20
-2.93317
11
4.34079
21
-2.93508
0
LINE
8
BLACK
6
CONTINUOUS
10
4.34079
20
-2.93508
11
4.33887
21
-2.93636
0
LINE
8
BLACK
6
CONTINUOUS
10
4.33887
20
-2.93636
11
4.33661
21
-2.93681
0
LINE
8
BLACK
6
CONTINUOUS
10
4.33661
20
-2.93681
11
4.27165
21
-2.93681
0
LINE
8
BLACK
6
CONTINUOUS
10
4.27165
20
-2.93681
11
4.26939
21
-2.93636
0
LINE
8
BLACK
6
CONTINUOUS
10
4.26939
20
-2.93636
11
4.26748
21
-2.93508
0
LINE
8
BLACK
6
CONTINUOUS
10
4.26748
20
-2.93508
11
4.2662
21
-2.93317
0
LINE
8
BLACK
6
CONTINUOUS
10
4.2662
20
-2.93317
11
4.26575
21
-2.93091
0
LINE
8
BLACK
6
CONTINUOUS
10
4.26575
20
-2.93091
11
4.26575
21
-2.91909
0
LINE
8
BLACK
6
CONTINUOUS
10
4.26575
20
-2.91909
11
4.2662
21
-2.91683
0
LINE
8
BLACK
6
CONTINUOUS
10
4.2662
20
-2.91683
11
4.26748
21
-2.91492
0
LINE
8
BLACK
6
CONTINUOUS
10
4.26748
20
-2.91492
11
4.26939
21
-2.91364
0
LINE
8
BLACK
6
CONTINUOUS
10
4.26939
20
-2.91364
11
4.27165
21
-2.91319
0
LINE
8
BLACK
6
CONTINUOUS
10
4.27165
20
-2.91319
11
4.33661
21
-2.91319
0
LINE
8
BLACK
6
CONTINUOUS
10
4.33661
20
-2.91319
11
4.33887
21
-2.91364
0
LINE
8
BLACK
6
CONTINUOUS
10
5.69222
20
-2.89021
11
5.69414
21
-2.89149
0
LINE
8
BLACK
6
CONTINUOUS
10
5.69414
20
-2.89149
11
5.69542
21
-2.89341
0
LINE
8
BLACK
6
CONTINUOUS
10
5.69542
20
-2.89341
11
5.69587
21
-2.89567
0
LINE
8
BLACK
6
CONTINUOUS
10
5.69587
20
-2.89567
11
5.69587
21
-2.90748
0
LINE
8
BLACK
6
CONTINUOUS
10
5.69587
20
-2.90748
11
5.69542
21
-2.90974
0
LINE
8
BLACK
6
CONTINUOUS
10
5.69542
20
-2.90974
11
5.69414
21
-2.91166
0
LINE
8
BLACK
6
CONTINUOUS
10
5.69414
20
-2.91166
11
5.69222
21
-2.91294
0
LINE
8
BLACK
6
CONTINUOUS
10
5.69222
20
-2.91294
11
5.68996
21
-2.91339
0
LINE
8
BLACK
6
CONTINUOUS
10
5.68996
20
-2.91339
11
5.625
21
-2.91339
0
LINE
8
BLACK
6
CONTINUOUS
10
5.625
20
-2.91339
11
5.62274
21
-2.91294
0
LINE
8
BLACK
6
CONTINUOUS
10
5.62274
20
-2.91294
11
5.62082
21
-2.91166
0
LINE
8
BLACK
6
CONTINUOUS
10
5.62082
20
-2.91166
11
5.61954
21
-2.90974
0
LINE
8
BLACK
6
CONTINUOUS
10
5.61954
20
-2.90974
11
5.61909
21
-2.90748
0
LINE
8
BLACK
6
CONTINUOUS
10
5.61909
20
-2.90748
11
5.61909
21
-2.89567
0
LINE
8
BLACK
6
CONTINUOUS
10
5.61909
20
-2.89567
11
5.61954
21
-2.89341
0
LINE
8
BLACK
6
CONTINUOUS
10
5.61954
20
-2.89341
11
5.62082
21
-2.89149
0
LINE
8
BLACK
6
CONTINUOUS
10
5.62082
20
-2.89149
11
5.62274
21
-2.89021
0
LINE
8
BLACK
6
CONTINUOUS
10
5.62274
20
-2.89021
11
5.625
21
-2.88976
0
LINE
8
BLACK
6
CONTINUOUS
10
5.625
20
-2.88976
11
5.68996
21
-2.88976
0
LINE
8
BLACK
6
CONTINUOUS
10
5.68996
20
-2.88976
11
5.69222
21
-2.89021
0
LINE
8
BLACK
6
CONTINUOUS
10
5.49734
20
-2.89021
11
5.49925
21
-2.89149
0
LINE
8
BLACK
6
CONTINUOUS
10
5.49925
20
-2.89149
11
5.50053
21
-2.89341
0
LINE
8
BLACK
6
CONTINUOUS
10
5.50053
20
-2.89341
11
5.50098
21
-2.89567
0
LINE
8
BLACK
6
CONTINUOUS
10
5.50098
20
-2.89567
11
5.50098
21
-2.90748
0
LINE
8
BLACK
6
CONTINUOUS
10
5.50098
20
-2.90748
11
5.50053
21
-2.90974
0
LINE
8
BLACK
6
CONTINUOUS
10
5.50053
20
-2.90974
11
5.49925
21
-2.91166
0
LINE
8
BLACK
6
CONTINUOUS
10
5.49925
20
-2.91166
11
5.49734
21
-2.91294
0
LINE
8
BLACK
6
CONTINUOUS
10
5.49734
20
-2.91294
11
5.49508
21
-2.91339
0
LINE
8
BLACK
6
CONTINUOUS
10
5.49508
20
-2.91339
11
5.43012
21
-2.91339
0
LINE
8
BLACK
6
CONTINUOUS
10
5.43012
20
-2.91339
11
5.42786
21
-2.91294
0
LINE
8
BLACK
6
CONTINUOUS
10
5.42786
20
-2.91294
11
5.42594
21
-2.91166
0
LINE
8
BLACK
6
CONTINUOUS
10
5.42594
20
-2.91166
11
5.42466
21
-2.90974
0
LINE
8
BLACK
6
CONTINUOUS
10
5.42466
20
-2.90974
11
5.42421
21
-2.90748
0
LINE
8
BLACK
6
CONTINUOUS
10
5.42421
20
-2.90748
11
5.42421
21
-2.89567
0
LINE
8
BLACK
6
CONTINUOUS
10
5.42421
20
-2.89567
11
5.42466
21
-2.89341
0
LINE
8
BLACK
6
CONTINUOUS
10
5.42466
20
-2.89341
11
5.42594
21
-2.89149
0
LINE
8
BLACK
6
CONTINUOUS
10
5.42594
20
-2.89149
11
5.42786
21
-2.89021
0
LINE
8
BLACK
6
CONTINUOUS
10
5.42786
20
-2.89021
11
5.43012
21
-2.88976
0
LINE
8
BLACK
6
CONTINUOUS
10
5.43012
20
-2.88976
11
5.49508
21
-2.88976
0
LINE
8
BLACK
6
CONTINUOUS
10
5.49508
20
-2.88976
11
5.49734
21
-2.89021
0
LINE
8
BLACK
6
CONTINUOUS
10
3.77701
20
-2.87174
11
3.77989
21
-2.87366
0
LINE
8
BLACK
6
CONTINUOUS
10
3.77989
20
-2.87366
11
3.78181
21
-2.87653
0
LINE
8
BLACK
6
CONTINUOUS
10
3.78181
20
-2.87653
11
3.78248
21
-2.87992
0
LINE
8
BLACK
6
CONTINUOUS
10
3.78248
20
-2.87992
11
3.78248
21
-2.89764
0
LINE
8
BLACK
6
CONTINUOUS
10
3.78248
20
-2.89764
11
3.78181
21
-2.90103
0
LINE
8
BLACK
6
CONTINUOUS
10
3.78181
20
-2.90103
11
3.77989
21
-2.9039
0
LINE
8
BLACK
6
CONTINUOUS
10
3.77989
20
-2.9039
11
3.77701
21
-2.90582
0
LINE
8
BLACK
6
CONTINUOUS
10
3.77701
20
-2.90582
11
3.77362
21
-2.9065
0
LINE
8
BLACK
6
CONTINUOUS
10
3.77362
20
-2.9065
11
3.75394
21
-2.9065
0
LINE
8
BLACK
6
CONTINUOUS
10
3.75394
20
-2.9065
11
3.75055
21
-2.90582
0
LINE
8
BLACK
6
CONTINUOUS
10
3.75055
20
-2.90582
11
3.74767
21
-2.9039
0
LINE
8
BLACK
6
CONTINUOUS
10
3.74767
20
-2.9039
11
3.74575
21
-2.90103
0
LINE
8
BLACK
6
CONTINUOUS
10
3.74575
20
-2.90103
11
3.74508
21
-2.89764
0
LINE
8
BLACK
6
CONTINUOUS
10
3.74508
20
-2.89764
11
3.74508
21
-2.87992
0
LINE
8
BLACK
6
CONTINUOUS
10
3.74508
20
-2.87992
11
3.74575
21
-2.87653
0
LINE
8
BLACK
6
CONTINUOUS
10
3.74575
20
-2.87653
11
3.74767
21
-2.87366
0
LINE
8
BLACK
6
CONTINUOUS
10
3.74767
20
-2.87366
11
3.75055
21
-2.87174
0
LINE
8
BLACK
6
CONTINUOUS
10
3.75055
20
-2.87174
11
3.75394
21
-2.87106
0
LINE
8
BLACK
6
CONTINUOUS
10
3.75394
20
-2.87106
11
3.77362
21
-2.87106
0
LINE
8
BLACK
6
CONTINUOUS
10
3.77362
20
-2.87106
11
3.77701
21
-2.87174
0
LINE
8
BLACK
6
CONTINUOUS
10
4.53376
20
-2.86364
11
4.53567
21
-2.86492
0
LINE
8
BLACK
6
CONTINUOUS
10
4.53567
20
-2.86492
11
4.53695
21
-2.86683
0
LINE
8
BLACK
6
CONTINUOUS
10
4.53695
20
-2.86683
11
4.5374
21
-2.86909
0
LINE
8
BLACK
6
CONTINUOUS
10
4.5374
20
-2.86909
11
4.5374
21
-2.88091
0
LINE
8
BLACK
6
CONTINUOUS
10
4.5374
20
-2.88091
11
4.53695
21
-2.88317
0
LINE
8
BLACK
6
CONTINUOUS
10
4.53695
20
-2.88317
11
4.53567
21
-2.88508
0
LINE
8
BLACK
6
CONTINUOUS
10
4.53567
20
-2.88508
11
4.53376
21
-2.88636
0
LINE
8
BLACK
6
CONTINUOUS
10
4.53376
20
-2.88636
11
4.5315
21
-2.88681
0
LINE
8
BLACK
6
CONTINUOUS
10
4.5315
20
-2.88681
11
4.46654
21
-2.88681
0
LINE
8
BLACK
6
CONTINUOUS
10
4.46654
20
-2.88681
11
4.46428
21
-2.88636
0
LINE
8
BLACK
6
CONTINUOUS
10
4.46428
20
-2.88636
11
4.46236
21
-2.88508
0
LINE
8
BLACK
6
CONTINUOUS
10
4.46236
20
-2.88508
11
4.46108
21
-2.88317
0
LINE
8
BLACK
6
CONTINUOUS
10
4.46108
20
-2.88317
11
4.46063
21
-2.88091
0
LINE
8
BLACK
6
CONTINUOUS
10
4.46063
20
-2.88091
11
4.46063
21
-2.86909
0
LINE
8
BLACK
6
CONTINUOUS
10
4.46063
20
-2.86909
11
4.46108
21
-2.86683
0
LINE
8
BLACK
6
CONTINUOUS
10
4.46108
20
-2.86683
11
4.46236
21
-2.86492
0
LINE
8
BLACK
6
CONTINUOUS
10
4.46236
20
-2.86492
11
4.46428
21
-2.86364
0
LINE
8
BLACK
6
CONTINUOUS
10
4.46428
20
-2.86364
11
4.46654
21
-2.86319
0
LINE
8
BLACK
6
CONTINUOUS
10
4.46654
20
-2.86319
11
4.5315
21
-2.86319
0
LINE
8
BLACK
6
CONTINUOUS
10
4.5315
20
-2.86319
11
4.53376
21
-2.86364
0
LINE
8
BLACK
6
CONTINUOUS
10
4.33887
20
-2.86364
11
4.34079
21
-2.86492
0
LINE
8
BLACK
6
CONTINUOUS
10
4.34079
20
-2.86492
11
4.34207
21
-2.86683
0
LINE
8
BLACK
6
CONTINUOUS
10
4.34207
20
-2.86683
11
4.34252
21
-2.86909
0
LINE
8
BLACK
6
CONTINUOUS
10
4.34252
20
-2.86909
11
4.34252
21
-2.88091
0
LINE
8
BLACK
6
CONTINUOUS
10
4.34252
20
-2.88091
11
4.34207
21
-2.88317
0
LINE
8
BLACK
6
CONTINUOUS
10
4.34207
20
-2.88317
11
4.34079
21
-2.88508
0
LINE
8
BLACK
6
CONTINUOUS
10
4.34079
20
-2.88508
11
4.33887
21
-2.88636
0
LINE
8
BLACK
6
CONTINUOUS
10
4.33887
20
-2.88636
11
4.33661
21
-2.88681
0
LINE
8
BLACK
6
CONTINUOUS
10
4.33661
20
-2.88681
11
4.27165
21
-2.88681
0
LINE
8
BLACK
6
CONTINUOUS
10
4.27165
20
-2.88681
11
4.26939
21
-2.88636
0
LINE
8
BLACK
6
CONTINUOUS
10
4.26939
20
-2.88636
11
4.26748
21
-2.88508
0
LINE
8
BLACK
6
CONTINUOUS
10
4.26748
20
-2.88508
11
4.2662
21
-2.88317
0
LINE
8
BLACK
6
CONTINUOUS
10
4.2662
20
-2.88317
11
4.26575
21
-2.88091
0
LINE
8
BLACK
6
CONTINUOUS
10
4.26575
20
-2.88091
11
4.26575
21
-2.86909
0
LINE
8
BLACK
6
CONTINUOUS
10
4.26575
20
-2.86909
11
4.2662
21
-2.86683
0
LINE
8
BLACK
6
CONTINUOUS
10
4.2662
20
-2.86683
11
4.26748
21
-2.86492
0
LINE
8
BLACK
6
CONTINUOUS
10
4.26748
20
-2.86492
11
4.26939
21
-2.86364
0
LINE
8
BLACK
6
CONTINUOUS
10
4.26939
20
-2.86364
11
4.27165
21
-2.86319
0
LINE
8
BLACK
6
CONTINUOUS
10
4.27165
20
-2.86319
11
4.33661
21
-2.86319
0
LINE
8
BLACK
6
CONTINUOUS
10
4.33661
20
-2.86319
11
4.33887
21
-2.86364
0
LINE
8
BLACK
6
CONTINUOUS
10
5.69222
20
-2.84021
11
5.69414
21
-2.84149
0
LINE
8
BLACK
6
CONTINUOUS
10
5.69414
20
-2.84149
11
5.69542
21
-2.84341
0
LINE
8
BLACK
6
CONTINUOUS
10
5.69542
20
-2.84341
11
5.69587
21
-2.84567
0
LINE
8
BLACK
6
CONTINUOUS
10
5.69587
20
-2.84567
11
5.69587
21
-2.85748
0
LINE
8
BLACK
6
CONTINUOUS
10
5.69587
20
-2.85748
11
5.69542
21
-2.85974
0
LINE
8
BLACK
6
CONTINUOUS
10
5.69542
20
-2.85974
11
5.69414
21
-2.86166
0
LINE
8
BLACK
6
CONTINUOUS
10
5.69414
20
-2.86166
11
5.69222
21
-2.86294
0
LINE
8
BLACK
6
CONTINUOUS
10
5.69222
20
-2.86294
11
5.68996
21
-2.86339
0
LINE
8
BLACK
6
CONTINUOUS
10
5.68996
20
-2.86339
11
5.625
21
-2.86339
0
LINE
8
BLACK
6
CONTINUOUS
10
5.625
20
-2.86339
11
5.62274
21
-2.86294
0
LINE
8
BLACK
6
CONTINUOUS
10
5.62274
20
-2.86294
11
5.62082
21
-2.86166
0
LINE
8
BLACK
6
CONTINUOUS
10
5.62082
20
-2.86166
11
5.61954
21
-2.85974
0
LINE
8
BLACK
6
CONTINUOUS
10
5.61954
20
-2.85974
11
5.61909
21
-2.85748
0
LINE
8
BLACK
6
CONTINUOUS
10
5.61909
20
-2.85748
11
5.61909
21
-2.84567
0
LINE
8
BLACK
6
CONTINUOUS
10
5.61909
20
-2.84567
11
5.61954
21
-2.84341
0
LINE
8
BLACK
6
CONTINUOUS
10
5.61954
20
-2.84341
11
5.62082
21
-2.84149
0
LINE
8
BLACK
6
CONTINUOUS
10
5.62082
20
-2.84149
11
5.62274
21
-2.84021
0
LINE
8
BLACK
6
CONTINUOUS
10
5.62274
20
-2.84021
11
5.625
21
-2.83976
0
LINE
8
BLACK
6
CONTINUOUS
10
5.625
20
-2.83976
11
5.68996
21
-2.83976
0
LINE
8
BLACK
6
CONTINUOUS
10
5.68996
20
-2.83976
11
5.69222
21
-2.84021
0
LINE
8
BLACK
6
CONTINUOUS
10
5.49734
20
-2.84021
11
5.49925
21
-2.84149
0
LINE
8
BLACK
6
CONTINUOUS
10
5.49925
20
-2.84149
11
5.50053
21
-2.84341
0
LINE
8
BLACK
6
CONTINUOUS
10
5.50053
20
-2.84341
11
5.50098
21
-2.84567
0
LINE
8
BLACK
6
CONTINUOUS
10
5.50098
20
-2.84567
11
5.50098
21
-2.85748
0
LINE
8
BLACK
6
CONTINUOUS
10
5.50098
20
-2.85748
11
5.50053
21
-2.85974
0
LINE
8
BLACK
6
CONTINUOUS
10
5.50053
20
-2.85974
11
5.49925
21
-2.86166
0
LINE
8
BLACK
6
CONTINUOUS
10
5.49925
20
-2.86166
11
5.49734
21
-2.86294
0
LINE
8
BLACK
6
CONTINUOUS
10
5.49734
20
-2.86294
11
5.49508
21
-2.86339
0
LINE
8
BLACK
6
CONTINUOUS
10
5.49508
20
-2.86339
11
5.43012
21
-2.86339
0
LINE
8
BLACK
6
CONTINUOUS
10
5.43012
20
-2.86339
11
5.42786
21
-2.86294
0
LINE
8
BLACK
6
CONTINUOUS
10
5.42786
20
-2.86294
11
5.42594
21
-2.86166
0
LINE
8
BLACK
6
CONTINUOUS
10
5.42594
20
-2.86166
11
5.42466
21
-2.85974
0
LINE
8
BLACK
6
CONTINUOUS
10
5.42466
20
-2.85974
11
5.42421
21
-2.85748
0
LINE
8
BLACK
6
CONTINUOUS
10
5.42421
20
-2.85748
11
5.42421
21
-2.84567
0
LINE
8
BLACK
6
CONTINUOUS
10
5.42421
20
-2.84567
11
5.42466
21
-2.84341
0
LINE
8
BLACK
6
CONTINUOUS
10
5.42466
20
-2.84341
11
5.42594
21
-2.84149
0
LINE
8
BLACK
6
CONTINUOUS
10
5.42594
20
-2.84149
11
5.42786
21
-2.84021
0
LINE
8
BLACK
6
CONTINUOUS
10
5.42786
20
-2.84021
11
5.43012
21
-2.83976
0
LINE
8
BLACK
6
CONTINUOUS
10
5.43012
20
-2.83976
11
5.49508
21
-2.83976
0
LINE
8
BLACK
6
CONTINUOUS
10
5.49508
20
-2.83976
11
5.49734
21
-2.84021
0
LINE
8
BLACK
6
CONTINUOUS
10
3.77701
20
-2.81071
11
3.77989
21
-2.81263
0
LINE
8
BLACK
6
CONTINUOUS
10
3.77989
20
-2.81263
11
3.78181
21
-2.81551
0
LINE
8
BLACK
6
CONTINUOUS
10
3.78181
20
-2.81551
11
3.78248
21
-2.8189
0
LINE
8
BLACK
6
CONTINUOUS
10
3.78248
20
-2.8189
11
3.78248
21
-2.83661
0
LINE
8
BLACK
6
CONTINUOUS
10
3.78248
20
-2.83661
11
3.78181
21
-2.84
0
LINE
8
BLACK
6
CONTINUOUS
10
3.78181
20
-2.84
11
3.77989
21
-2.84288
0
LINE
8
BLACK
6
CONTINUOUS
10
3.77989
20
-2.84288
11
3.77701
21
-2.8448
0
LINE
8
BLACK
6
CONTINUOUS
10
3.77701
20
-2.8448
11
3.77362
21
-2.84547
0
LINE
8
BLACK
6
CONTINUOUS
10
3.77362
20
-2.84547
11
3.75394
21
-2.84547
0
LINE
8
BLACK
6
CONTINUOUS
10
3.75394
20
-2.84547
11
3.75055
21
-2.8448
0
LINE
8
BLACK
6
CONTINUOUS
10
3.75055
20
-2.8448
11
3.74767
21
-2.84288
0
LINE
8
BLACK
6
CONTINUOUS
10
3.74767
20
-2.84288
11
3.74575
21
-2.84
0
LINE
8
BLACK
6
CONTINUOUS
10
3.74575
20
-2.84
11
3.74508
21
-2.83661
0
LINE
8
BLACK
6
CONTINUOUS
10
3.74508
20
-2.83661
11
3.74508
21
-2.8189
0
LINE
8
BLACK
6
CONTINUOUS
10
3.74508
20
-2.8189
11
3.74575
21
-2.81551
0
LINE
8
BLACK
6
CONTINUOUS
10
3.74575
20
-2.81551
11
3.74767
21
-2.81263
0
LINE
8
BLACK
6
CONTINUOUS
10
3.74767
20
-2.81263
11
3.75055
21
-2.81071
0
LINE
8
BLACK
6
CONTINUOUS
10
3.75055
20
-2.81071
11
3.75394
21
-2.81004
0
LINE
8
BLACK
6
CONTINUOUS
10
3.75394
20
-2.81004
11
3.77362
21
-2.81004
0
LINE
8
BLACK
6
CONTINUOUS
10
3.77362
20
-2.81004
11
3.77701
21
-2.81071
0
LINE
8
BLACK
6
CONTINUOUS
10
4.33887
20
-2.81364
11
4.34079
21
-2.81492
0
LINE
8
BLACK
6
CONTINUOUS
10
4.34079
20
-2.81492
11
4.34207
21
-2.81683
0
LINE
8
BLACK
6
CONTINUOUS
10
4.34207
20
-2.81683
11
4.34252
21
-2.81909
0
LINE
8
BLACK
6
CONTINUOUS
10
4.34252
20
-2.81909
11
4.34252
21
-2.83091
0
LINE
8
BLACK
6
CONTINUOUS
10
4.34252
20
-2.83091
11
4.34207
21
-2.83317
0
LINE
8
BLACK
6
CONTINUOUS
10
4.34207
20
-2.83317
11
4.34079
21
-2.83508
0
LINE
8
BLACK
6
CONTINUOUS
10
4.34079
20
-2.83508
11
4.33887
21
-2.83636
0
LINE
8
BLACK
6
CONTINUOUS
10
4.33887
20
-2.83636
11
4.33661
21
-2.83681
0
LINE
8
BLACK
6
CONTINUOUS
10
4.33661
20
-2.83681
11
4.27165
21
-2.83681
0
LINE
8
BLACK
6
CONTINUOUS
10
4.27165
20
-2.83681
11
4.26939
21
-2.83636
0
LINE
8
BLACK
6
CONTINUOUS
10
4.26939
20
-2.83636
11
4.26748
21
-2.83508
0
LINE
8
BLACK
6
CONTINUOUS
10
4.26748
20
-2.83508
11
4.2662
21
-2.83317
0
LINE
8
BLACK
6
CONTINUOUS
10
4.2662
20
-2.83317
11
4.26575
21
-2.83091
0
LINE
8
BLACK
6
CONTINUOUS
10
4.26575
20
-2.83091
11
4.26575
21
-2.81909
0
LINE
8
BLACK
6
CONTINUOUS
10
4.26575
20
-2.81909
11
4.2662
21
-2.81683
0
LINE
8
BLACK
6
CONTINUOUS
10
4.2662
20
-2.81683
11
4.26748
21
-2.81492
0
LINE
8
BLACK
6
CONTINUOUS
10
4.26748
20
-2.81492
11
4.26939
21
-2.81364
0
LINE
8
BLACK
6
CONTINUOUS
10
4.26939
20
-2.81364
11
4.27165
21
-2.81319
0
LINE
8
BLACK
6
CONTINUOUS
10
4.27165
20
-2.81319
11
4.33661
21
-2.81319
0
LINE
8
BLACK
6
CONTINUOUS
10
4.33661
20
-2.81319
11
4.33887
21
-2.81364
0
LINE
8
BLACK
6
CONTINUOUS
10
4.53376
20
-2.81364
11
4.53567
21
-2.81492
0
LINE
8
BLACK
6
CONTINUOUS
10
4.53567
20
-2.81492
11
4.53695
21
-2.81683
0
LINE
8
BLACK
6
CONTINUOUS
10
4.53695
20
-2.81683
11
4.5374
21
-2.81909
0
LINE
8
BLACK
6
CONTINUOUS
10
4.5374
20
-2.81909
11
4.5374
21
-2.83091
0
LINE
8
BLACK
6
CONTINUOUS
10
4.5374
20
-2.83091
11
4.53695
21
-2.83317
0
LINE
8
BLACK
6
CONTINUOUS
10
4.53695
20
-2.83317
11
4.53567
21
-2.83508
0
LINE
8
BLACK
6
CONTINUOUS
10
4.53567
20
-2.83508
11
4.53376
21
-2.83636
0
LINE
8
BLACK
6
CONTINUOUS
10
4.53376
20
-2.83636
11
4.5315
21
-2.83681
0
LINE
8
BLACK
6
CONTINUOUS
10
4.5315
20
-2.83681
11
4.46654
21
-2.83681
0
LINE
8
BLACK
6
CONTINUOUS
10
4.46654
20
-2.83681
11
4.46428
21
-2.83636
0
LINE
8
BLACK
6
CONTINUOUS
10
4.46428
20
-2.83636
11
4.46236
21
-2.83508
0
LINE
8
BLACK
6
CONTINUOUS
10
4.46236
20
-2.83508
11
4.46108
21
-2.83317
0
LINE
8
BLACK
6
CONTINUOUS
10
4.46108
20
-2.83317
11
4.46063
21
-2.83091
0
LINE
8
BLACK
6
CONTINUOUS
10
4.46063
20
-2.83091
11
4.46063
21
-2.81909
0
LINE
8
BLACK
6
CONTINUOUS
10
4.46063
20
-2.81909
11
4.46108
21
-2.81683
0
LINE
8
BLACK
6
CONTINUOUS
10
4.46108
20
-2.81683
11
4.46236
21
-2.81492
0
LINE
8
BLACK
6
CONTINUOUS
10
4.46236
20
-2.81492
11
4.46428
21
-2.81364
0
LINE
8
BLACK
6
CONTINUOUS
10
4.46428
20
-2.81364
11
4.46654
21
-2.81319
0
LINE
8
BLACK
6
CONTINUOUS
10
4.46654
20
-2.81319
11
4.5315
21
-2.81319
0
LINE
8
BLACK
6
CONTINUOUS
10
4.5315
20
-2.81319
11
4.53376
21
-2.81364
0
LINE
8
BLACK
6
CONTINUOUS
10
5.57782
20
-2.77619
11
5.58037
21
-2.7779
0
LINE
8
BLACK
6
CONTINUOUS
10
5.58037
20
-2.7779
11
5.58208
21
-2.78045
0
LINE
8
BLACK
6
CONTINUOUS
10
5.58208
20
-2.78045
11
5.58268
21
-2.78346
0
LINE
8
BLACK
6
CONTINUOUS
10
5.58268
20
-2.78346
11
5.58268
21
-2.79921
0
LINE
8
BLACK
6
CONTINUOUS
10
5.58268
20
-2.79921
11
5.58208
21
-2.80223
0
LINE
8
BLACK
6
CONTINUOUS
10
5.58208
20
-2.80223
11
5.58037
21
-2.80478
0
LINE
8
BLACK
6
CONTINUOUS
10
5.58037
20
-2.80478
11
5.57782
21
-2.80649
0
LINE
8
BLACK
6
CONTINUOUS
10
5.57782
20
-2.80649
11
5.5748
21
-2.80709
0
LINE
8
BLACK
6
CONTINUOUS
10
5.5748
20
-2.80709
11
5.55315
21
-2.80709
0
LINE
8
BLACK
6
CONTINUOUS
10
5.55315
20
-2.80709
11
5.55014
21
-2.80649
0
LINE
8
BLACK
6
CONTINUOUS
10
5.55014
20
-2.80649
11
5.54758
21
-2.80478
0
LINE
8
BLACK
6
CONTINUOUS
10
5.54758
20
-2.80478
11
5.54587
21
-2.80223
0
LINE
8
BLACK
6
CONTINUOUS
10
5.54587
20
-2.80223
11
5.54528
21
-2.79921
0
LINE
8
BLACK
6
CONTINUOUS
10
5.54528
20
-2.79921
11
5.54528
21
-2.78346
0
LINE
8
BLACK
6
CONTINUOUS
10
5.54528
20
-2.78346
11
5.54587
21
-2.78045
0
LINE
8
BLACK
6
CONTINUOUS
10
5.54587
20
-2.78045
11
5.54758
21
-2.7779
0
LINE
8
BLACK
6
CONTINUOUS
10
5.54758
20
-2.7779
11
5.55014
21
-2.77619
0
LINE
8
BLACK
6
CONTINUOUS
10
5.55014
20
-2.77619
11
5.55315
21
-2.77559
0
LINE
8
BLACK
6
CONTINUOUS
10
5.55315
20
-2.77559
11
5.5748
21
-2.77559
0
LINE
8
BLACK
6
CONTINUOUS
10
5.5748
20
-2.77559
11
5.57782
21
-2.77619
0
LINE
8
BLACK
6
CONTINUOUS
10
5.67959
20
-2.77363
11
5.68214
21
-2.77534
0
LINE
8
BLACK
6
CONTINUOUS
10
5.68214
20
-2.77534
11
5.68385
21
-2.77789
0
LINE
8
BLACK
6
CONTINUOUS
10
5.68385
20
-2.77789
11
5.68445
21
-2.78091
0
LINE
8
BLACK
6
CONTINUOUS
10
5.68445
20
-2.78091
11
5.68445
21
-2.79665
0
LINE
8
BLACK
6
CONTINUOUS
10
5.68445
20
-2.79665
11
5.68385
21
-2.79967
0
LINE
8
BLACK
6
CONTINUOUS
10
5.68385
20
-2.79967
11
5.68214
21
-2.80222
0
LINE
8
BLACK
6
CONTINUOUS
10
5.68214
20
-2.80222
11
5.67959
21
-2.80393
0
LINE
8
BLACK
6
CONTINUOUS
10
5.67959
20
-2.80393
11
5.67657
21
-2.80453
0
LINE
8
BLACK
6
CONTINUOUS
10
5.67657
20
-2.80453
11
5.65492
21
-2.80453
0
LINE
8
BLACK
6
CONTINUOUS
10
5.65492
20
-2.80453
11
5.65191
21
-2.80393
0
LINE
8
BLACK
6
CONTINUOUS
10
5.65191
20
-2.80393
11
5.64935
21
-2.80222
0
LINE
8
BLACK
6
CONTINUOUS
10
5.64935
20
-2.80222
11
5.64765
21
-2.79967
0
LINE
8
BLACK
6
CONTINUOUS
10
5.64765
20
-2.79967
11
5.64705
21
-2.79665
0
LINE
8
BLACK
6
CONTINUOUS
10
5.64705
20
-2.79665
11
5.64705
21
-2.78091
0
LINE
8
BLACK
6
CONTINUOUS
10
5.64705
20
-2.78091
11
5.64765
21
-2.77789
0
LINE
8
BLACK
6
CONTINUOUS
10
5.64765
20
-2.77789
11
5.64935
21
-2.77534
0
LINE
8
BLACK
6
CONTINUOUS
10
5.64935
20
-2.77534
11
5.65191
21
-2.77363
0
LINE
8
BLACK
6
CONTINUOUS
10
5.65191
20
-2.77363
11
5.65492
21
-2.77303
0
LINE
8
BLACK
6
CONTINUOUS
10
5.65492
20
-2.77303
11
5.67657
21
-2.77303
0
LINE
8
BLACK
6
CONTINUOUS
10
5.67657
20
-2.77303
11
5.67959
21
-2.77363
0
LINE
8
BLACK
6
CONTINUOUS
10
5.47545
20
-2.77363
11
5.47801
21
-2.77534
0
LINE
8
BLACK
6
CONTINUOUS
10
5.47801
20
-2.77534
11
5.47972
21
-2.77789
0
LINE
8
BLACK
6
CONTINUOUS
10
5.47972
20
-2.77789
11
5.48031
21
-2.78091
0
LINE
8
BLACK
6
CONTINUOUS
10
5.48031
20
-2.78091
11
5.48031
21
-2.79665
0
LINE
8
BLACK
6
CONTINUOUS
10
5.48031
20
-2.79665
11
5.47972
21
-2.79967
0
LINE
8
BLACK
6
CONTINUOUS
10
5.47972
20
-2.79967
11
5.47801
21
-2.80222
0
LINE
8
BLACK
6
CONTINUOUS
10
5.47801
20
-2.80222
11
5.47545
21
-2.80393
0
LINE
8
BLACK
6
CONTINUOUS
10
5.47545
20
-2.80393
11
5.47244
21
-2.80453
0
LINE
8
BLACK
6
CONTINUOUS
10
5.47244
20
-2.80453
11
5.45079
21
-2.80453
0
LINE
8
BLACK
6
CONTINUOUS
10
5.45079
20
-2.80453
11
5.44777
21
-2.80393
0
LINE
8
BLACK
6
CONTINUOUS
10
5.44777
20
-2.80393
11
5.44522
21
-2.80222
0
LINE
8
BLACK
6
CONTINUOUS
10
5.44522
20
-2.80222
11
5.44351
21
-2.79967
0
LINE
8
BLACK
6
CONTINUOUS
10
5.44351
20
-2.79967
11
5.44291
21
-2.79665
0
LINE
8
BLACK
6
CONTINUOUS
10
5.44291
20
-2.79665
11
5.44291
21
-2.78091
0
LINE
8
BLACK
6
CONTINUOUS
10
5.44291
20
-2.78091
11
5.44351
21
-2.77789
0
LINE
8
BLACK
6
CONTINUOUS
10
5.44351
20
-2.77789
11
5.44522
21
-2.77534
0
LINE
8
BLACK
6
CONTINUOUS
10
5.44522
20
-2.77534
11
5.44777
21
-2.77363
0
LINE
8
BLACK
6
CONTINUOUS
10
5.44777
20
-2.77363
11
5.45079
21
-2.77303
0
LINE
8
BLACK
6
CONTINUOUS
10
5.45079
20
-2.77303
11
5.47244
21
-2.77303
0
LINE
8
BLACK
6
CONTINUOUS
10
5.47244
20
-2.77303
11
5.47545
21
-2.77363
0
LINE
8
BLACK
6
CONTINUOUS
10
5.57782
20
-2.71123
11
5.58037
21
-2.71294
0
LINE
8
BLACK
6
CONTINUOUS
10
5.58037
20
-2.71294
11
5.58208
21
-2.71549
0
LINE
8
BLACK
6
CONTINUOUS
10
5.58208
20
-2.71549
11
5.58268
21
-2.7185
0
LINE
8
BLACK
6
CONTINUOUS
10
5.58268
20
-2.7185
11
5.58268
21
-2.73425
0
LINE
8
BLACK
6
CONTINUOUS
10
5.58268
20
-2.73425
11
5.58208
21
-2.73727
0
LINE
8
BLACK
6
CONTINUOUS
10
5.58208
20
-2.73727
11
5.58037
21
-2.73982
0
LINE
8
BLACK
6
CONTINUOUS
10
5.58037
20
-2.73982
11
5.57782
21
-2.74153
0
LINE
8
BLACK
6
CONTINUOUS
10
5.57782
20
-2.74153
11
5.5748
21
-2.74213
0
LINE
8
BLACK
6
CONTINUOUS
10
5.5748
20
-2.74213
11
5.55315
21
-2.74213
0
LINE
8
BLACK
6
CONTINUOUS
10
5.55315
20
-2.74213
11
5.55014
21
-2.74153
0
LINE
8
BLACK
6
CONTINUOUS
10
5.55014
20
-2.74153
11
5.54758
21
-2.73982
0
LINE
8
BLACK
6
CONTINUOUS
10
5.54758
20
-2.73982
11
5.54587
21
-2.73727
0
LINE
8
BLACK
6
CONTINUOUS
10
5.54587
20
-2.73727
11
5.54528
21
-2.73425
0
LINE
8
BLACK
6
CONTINUOUS
10
5.54528
20
-2.73425
11
5.54528
21
-2.7185
0
LINE
8
BLACK
6
CONTINUOUS
10
5.54528
20
-2.7185
11
5.54587
21
-2.71549
0
LINE
8
BLACK
6
CONTINUOUS
10
5.54587
20
-2.71549
11
5.54758
21
-2.71294
0
LINE
8
BLACK
6
CONTINUOUS
10
5.54758
20
-2.71294
11
5.55014
21
-2.71123
0
LINE
8
BLACK
6
CONTINUOUS
10
5.55014
20
-2.71123
11
5.55315
21
-2.71063
0
LINE
8
BLACK
6
CONTINUOUS
10
5.55315
20
-2.71063
11
5.5748
21
-2.71063
0
LINE
8
BLACK
6
CONTINUOUS
10
5.5748
20
-2.71063
11
5.57782
21
-2.71123
0
LINE
8
BLACK
6
CONTINUOUS
10
5.67959
20
-2.70867
11
5.68214
21
-2.71038
0
LINE
8
BLACK
6
CONTINUOUS
10
5.68214
20
-2.71038
11
5.68385
21
-2.71293
0
LINE
8
BLACK
6
CONTINUOUS
10
5.68385
20
-2.71293
11
5.68445
21
-2.71594
0
LINE
8
BLACK
6
CONTINUOUS
10
5.68445
20
-2.71594
11
5.68445
21
-2.73169
0
LINE
8
BLACK
6
CONTINUOUS
10
5.68445
20
-2.73169
11
5.68385
21
-2.73471
0
LINE
8
BLACK
6
CONTINUOUS
10
5.68385
20
-2.73471
11
5.68214
21
-2.73726
0
LINE
8
BLACK
6
CONTINUOUS
10
5.68214
20
-2.73726
11
5.67959
21
-2.73897
0
LINE
8
BLACK
6
CONTINUOUS
10
5.67959
20
-2.73897
11
5.67657
21
-2.73957
0
LINE
8
BLACK
6
CONTINUOUS
10
5.67657
20
-2.73957
11
5.65492
21
-2.73957
0
LINE
8
BLACK
6
CONTINUOUS
10
5.65492
20
-2.73957
11
5.65191
21
-2.73897
0
LINE
8
BLACK
6
CONTINUOUS
10
5.65191
20
-2.73897
11
5.64935
21
-2.73726
0
LINE
8
BLACK
6
CONTINUOUS
10
5.64935
20
-2.73726
11
5.64765
21
-2.73471
0
LINE
8
BLACK
6
CONTINUOUS
10
5.64765
20
-2.73471
11
5.64705
21
-2.73169
0
LINE
8
BLACK
6
CONTINUOUS
10
5.64705
20
-2.73169
11
5.64705
21
-2.71594
0
LINE
8
BLACK
6
CONTINUOUS
10
5.64705
20
-2.71594
11
5.64765
21
-2.71293
0
LINE
8
BLACK
6
CONTINUOUS
10
5.64765
20
-2.71293
11
5.64935
21
-2.71038
0
LINE
8
BLACK
6
CONTINUOUS
10
5.64935
20
-2.71038
11
5.65191
21
-2.70867
0
LINE
8
BLACK
6
CONTINUOUS
10
5.65191
20
-2.70867
11
5.65492
21
-2.70807
0
LINE
8
BLACK
6
CONTINUOUS
10
5.65492
20
-2.70807
11
5.67657
21
-2.70807
0
LINE
8
BLACK
6
CONTINUOUS
10
5.67657
20
-2.70807
11
5.67959
21
-2.70867
0
LINE
8
BLACK
6
CONTINUOUS
10
5.47545
20
-2.70867
11
5.47801
21
-2.71038
0
LINE
8
BLACK
6
CONTINUOUS
10
5.47801
20
-2.71038
11
5.47972
21
-2.71293
0
LINE
8
BLACK
6
CONTINUOUS
10
5.47972
20
-2.71293
11
5.48031
21
-2.71594
0
LINE
8
BLACK
6
CONTINUOUS
10
5.48031
20
-2.71594
11
5.48031
21
-2.73169
0
LINE
8
BLACK
6
CONTINUOUS
10
5.48031
20
-2.73169
11
5.47972
21
-2.73471
0
LINE
8
BLACK
6
CONTINUOUS
10
5.47972
20
-2.73471
11
5.47801
21
-2.73726
0
LINE
8
BLACK
6
CONTINUOUS
10
5.47801
20
-2.73726
11
5.47545
21
-2.73897
0
LINE
8
BLACK
6
CONTINUOUS
10
5.47545
20
-2.73897
11
5.47244
21
-2.73957
0
LINE
8
BLACK
6
CONTINUOUS
10
5.47244
20
-2.73957
11
5.45079
21
-2.73957
0
LINE
8
BLACK
6
CONTINUOUS
10
5.45079
20
-2.73957
11
5.44777
21
-2.73897
0
LINE
8
BLACK
6
CONTINUOUS
10
5.44777
20
-2.73897
11
5.44522
21
-2.73726
0
LINE
8
BLACK
6
CONTINUOUS
10
5.44522
20
-2.73726
11
5.44351
21
-2.73471
0
LINE
8
BLACK
6
CONTINUOUS
10
5.44351
20
-2.73471
11
5.44291
21
-2.73169
0
LINE
8
BLACK
6
CONTINUOUS
10
5.44291
20
-2.73169
11
5.44291
21
-2.71594
0
LINE
8
BLACK
6
CONTINUOUS
10
5.44291
20
-2.71594
11
5.44351
21
-2.71293
0
LINE
8
BLACK
6
CONTINUOUS
10
5.44351
20
-2.71293
11
5.44522
21
-2.71038
0
LINE
8
BLACK
6
CONTINUOUS
10
5.44522
20
-2.71038
11
5.44777
21
-2.70867
0
LINE
8
BLACK
6
CONTINUOUS
10
5.44777
20
-2.70867
11
5.45079
21
-2.70807
0
LINE
8
BLACK
6
CONTINUOUS
10
5.45079
20
-2.70807
11
5.47244
21
-2.70807
0
LINE
8
BLACK
6
CONTINUOUS
10
5.47244
20
-2.70807
11
5.47545
21
-2.70867
0
LINE
8
BLACK
6
CONTINUOUS
10
4.22441
20
-2.66929
11
4.15748
21
-2.66929
0
LINE
8
BLACK
6
CONTINUOUS
10
4.15748
20
-2.66929
11
4.15748
21
-2.61811
0
LINE
8
BLACK
6
CONTINUOUS
10
4.15748
20
-2.61811
11
4.22441
21
-2.61811
0
LINE
8
BLACK
6
CONTINUOUS
10
4.22441
20
-2.61811
11
4.22441
21
-2.66929
0
LINE
8
BLACK
6
CONTINUOUS
10
4.32903
20
-2.60084
11
4.33095
21
-2.60212
0
LINE
8
BLACK
6
CONTINUOUS
10
4.33095
20
-2.60212
11
4.33223
21
-2.60404
0
LINE
8
BLACK
6
CONTINUOUS
10
4.33223
20
-2.60404
11
4.33268
21
-2.6063
0
LINE
8
BLACK
6
CONTINUOUS
10
4.33268
20
-2.6063
11
4.33268
21
-2.61811
0
LINE
8
BLACK
6
CONTINUOUS
10
4.33268
20
-2.61811
11
4.33223
21
-2.62037
0
LINE
8
BLACK
6
CONTINUOUS
10
4.33223
20
-2.62037
11
4.33095
21
-2.62229
0
LINE
8
BLACK
6
CONTINUOUS
10
4.33095
20
-2.62229
11
4.32903
21
-2.62357
0
LINE
8
BLACK
6
CONTINUOUS
10
4.32903
20
-2.62357
11
4.32677
21
-2.62402
0
LINE
8
BLACK
6
CONTINUOUS
10
4.32677
20
-2.62402
11
4.28051
21
-2.62402
0
LINE
8
BLACK
6
CONTINUOUS
10
4.28051
20
-2.62402
11
4.27825
21
-2.62357
0
LINE
8
BLACK
6
CONTINUOUS
10
4.27825
20
-2.62357
11
4.27634
21
-2.62229
0
LINE
8
BLACK
6
CONTINUOUS
10
4.27634
20
-2.62229
11
4.27506
21
-2.62037
0
LINE
8
BLACK
6
CONTINUOUS
10
4.27506
20
-2.62037
11
4.27461
21
-2.61811
0
LINE
8
BLACK
6
CONTINUOUS
10
4.27461
20
-2.61811
11
4.27461
21
-2.6063
0
LINE
8
BLACK
6
CONTINUOUS
10
4.27461
20
-2.6063
11
4.27506
21
-2.60404
0
LINE
8
BLACK
6
CONTINUOUS
10
4.27506
20
-2.60404
11
4.27634
21
-2.60212
0
LINE
8
BLACK
6
CONTINUOUS
10
4.27634
20
-2.60212
11
4.27825
21
-2.60084
0
LINE
8
BLACK
6
CONTINUOUS
10
4.27825
20
-2.60084
11
4.28051
21
-2.60039
0
LINE
8
BLACK
6
CONTINUOUS
10
4.28051
20
-2.60039
11
4.32677
21
-2.60039
0
LINE
8
BLACK
6
CONTINUOUS
10
4.32677
20
-2.60039
11
4.32903
21
-2.60084
0
LINE
8
BLACK
6
CONTINUOUS
10
4.48999
20
-2.54898
11
4.49318
21
-2.55111
0
LINE
8
BLACK
6
CONTINUOUS
10
4.49318
20
-2.55111
11
4.49531
21
-2.5543
0
LINE
8
BLACK
6
CONTINUOUS
10
4.49531
20
-2.5543
11
4.49606
21
-2.55807
0
LINE
8
BLACK
6
CONTINUOUS
10
4.49606
20
-2.55807
11
4.49606
21
-2.59154
0
LINE
8
BLACK
6
CONTINUOUS
10
4.49606
20
-2.59154
11
4.49531
21
-2.5953
0
LINE
8
BLACK
6
CONTINUOUS
10
4.49531
20
-2.5953
11
4.49318
21
-2.5985
0
LINE
8
BLACK
6
CONTINUOUS
10
4.49318
20
-2.5985
11
4.48999
21
-2.60063
0
LINE
8
BLACK
6
CONTINUOUS
10
4.48999
20
-2.60063
11
4.48622
21
-2.60138
0
LINE
8
BLACK
6
CONTINUOUS
10
4.48622
20
-2.60138
11
4.45079
21
-2.60138
0
LINE
8
BLACK
6
CONTINUOUS
10
4.45079
20
-2.60138
11
4.44702
21
-2.60063
0
LINE
8
BLACK
6
CONTINUOUS
10
4.44702
20
-2.60063
11
4.44383
21
-2.5985
0
LINE
8
BLACK
6
CONTINUOUS
10
4.44383
20
-2.5985
11
4.44169
21
-2.5953
0
LINE
8
BLACK
6
CONTINUOUS
10
4.44169
20
-2.5953
11
4.44094
21
-2.59154
0
LINE
8
BLACK
6
CONTINUOUS
10
4.44094
20
-2.59154
11
4.44094
21
-2.55807
0
LINE
8
BLACK
6
CONTINUOUS
10
4.44094
20
-2.55807
11
4.44169
21
-2.5543
0
LINE
8
BLACK
6
CONTINUOUS
10
4.44169
20
-2.5543
11
4.44383
21
-2.55111
0
LINE
8
BLACK
6
CONTINUOUS
10
4.44383
20
-2.55111
11
4.44702
21
-2.54898
0
LINE
8
BLACK
6
CONTINUOUS
10
4.44702
20
-2.54898
11
4.45079
21
-2.54823
0
LINE
8
BLACK
6
CONTINUOUS
10
4.45079
20
-2.54823
11
4.48622
21
-2.54823
0
LINE
8
BLACK
6
CONTINUOUS
10
4.48622
20
-2.54823
11
4.48999
21
-2.54898
0
LINE
8
BLACK
6
CONTINUOUS
10
4.59629
20
-2.54898
11
4.59948
21
-2.55111
0
LINE
8
BLACK
6
CONTINUOUS
10
4.59948
20
-2.55111
11
4.60161
21
-2.5543
0
LINE
8
BLACK
6
CONTINUOUS
10
4.60161
20
-2.5543
11
4.60236
21
-2.55807
0
LINE
8
BLACK
6
CONTINUOUS
10
4.60236
20
-2.55807
11
4.60236
21
-2.59154
0
LINE
8
BLACK
6
CONTINUOUS
10
4.60236
20
-2.59154
11
4.60161
21
-2.5953
0
LINE
8
BLACK
6
CONTINUOUS
10
4.60161
20
-2.5953
11
4.59948
21
-2.5985
0
LINE
8
BLACK
6
CONTINUOUS
10
4.59948
20
-2.5985
11
4.59629
21
-2.60063
0
LINE
8
BLACK
6
CONTINUOUS
10
4.59629
20
-2.60063
11
4.59252
21
-2.60138
0
LINE
8
BLACK
6
CONTINUOUS
10
4.59252
20
-2.60138
11
4.55709
21
-2.60138
0
LINE
8
BLACK
6
CONTINUOUS
10
4.55709
20
-2.60138
11
4.55332
21
-2.60063
0
LINE
8
BLACK
6
CONTINUOUS
10
4.55332
20
-2.60063
11
4.55013
21
-2.5985
0
LINE
8
BLACK
6
CONTINUOUS
10
4.55013
20
-2.5985
11
4.54799
21
-2.5953
0
LINE
8
BLACK
6
CONTINUOUS
10
4.54799
20
-2.5953
11
4.54724
21
-2.59154
0
LINE
8
BLACK
6
CONTINUOUS
10
4.54724
20
-2.59154
11
4.54724
21
-2.55807
0
LINE
8
BLACK
6
CONTINUOUS
10
4.54724
20
-2.55807
11
4.54799
21
-2.5543
0
LINE
8
BLACK
6
CONTINUOUS
10
4.54799
20
-2.5543
11
4.55013
21
-2.55111
0
LINE
8
BLACK
6
CONTINUOUS
10
4.55013
20
-2.55111
11
4.55332
21
-2.54898
0
LINE
8
BLACK
6
CONTINUOUS
10
4.55332
20
-2.54898
11
4.55709
21
-2.54823
0
LINE
8
BLACK
6
CONTINUOUS
10
4.55709
20
-2.54823
11
4.59252
21
-2.54823
0
LINE
8
BLACK
6
CONTINUOUS
10
4.59252
20
-2.54823
11
4.59629
21
-2.54898
0
LINE
8
BLACK
6
CONTINUOUS
10
4.40285
20
-2.56344
11
4.40477
21
-2.56472
0
LINE
8
BLACK
6
CONTINUOUS
10
4.40477
20
-2.56472
11
4.40605
21
-2.56664
0
LINE
8
BLACK
6
CONTINUOUS
10
4.40605
20
-2.56664
11
4.4065
21
-2.5689
0
LINE
8
BLACK
6
CONTINUOUS
10
4.4065
20
-2.5689
11
4.4065
21
-2.58071
0
LINE
8
BLACK
6
CONTINUOUS
10
4.4065
20
-2.58071
11
4.40605
21
-2.58297
0
LINE
8
BLACK
6
CONTINUOUS
10
4.40605
20
-2.58297
11
4.40477
21
-2.58488
0
LINE
8
BLACK
6
CONTINUOUS
10
4.40477
20
-2.58488
11
4.40285
21
-2.58616
0
LINE
8
BLACK
6
CONTINUOUS
10
4.40285
20
-2.58616
11
4.40059
21
-2.58661
0
LINE
8
BLACK
6
CONTINUOUS
10
4.40059
20
-2.58661
11
4.35433
21
-2.58661
0
LINE
8
BLACK
6
CONTINUOUS
10
4.35433
20
-2.58661
11
4.35207
21
-2.58616
0
LINE
8
BLACK
6
CONTINUOUS
10
4.35207
20
-2.58616
11
4.35015
21
-2.58488
0
LINE
8
BLACK
6
CONTINUOUS
10
4.35015
20
-2.58488
11
4.34887
21
-2.58297
0
LINE
8
BLACK
6
CONTINUOUS
10
4.34887
20
-2.58297
11
4.34843
21
-2.58071
0
LINE
8
BLACK
6
CONTINUOUS
10
4.34843
20
-2.58071
11
4.34843
21
-2.5689
0
LINE
8
BLACK
6
CONTINUOUS
10
4.34843
20
-2.5689
11
4.34887
21
-2.56664
0
LINE
8
BLACK
6
CONTINUOUS
10
4.34887
20
-2.56664
11
4.35015
21
-2.56472
0
LINE
8
BLACK
6
CONTINUOUS
10
4.35015
20
-2.56472
11
4.35207
21
-2.56344
0
LINE
8
BLACK
6
CONTINUOUS
10
4.35207
20
-2.56344
11
4.35433
21
-2.56299
0
LINE
8
BLACK
6
CONTINUOUS
10
4.35433
20
-2.56299
11
4.40059
21
-2.56299
0
LINE
8
BLACK
6
CONTINUOUS
10
4.40059
20
-2.56299
11
4.40285
21
-2.56344
0
LINE
8
BLACK
6
CONTINUOUS
10
4.32903
20
-2.52604
11
4.33095
21
-2.52732
0
LINE
8
BLACK
6
CONTINUOUS
10
4.33095
20
-2.52732
11
4.33223
21
-2.52924
0
LINE
8
BLACK
6
CONTINUOUS
10
4.33223
20
-2.52924
11
4.33268
21
-2.5315
0
LINE
8
BLACK
6
CONTINUOUS
10
4.33268
20
-2.5315
11
4.33268
21
-2.54331
0
LINE
8
BLACK
6
CONTINUOUS
10
4.33268
20
-2.54331
11
4.33223
21
-2.54557
0
LINE
8
BLACK
6
CONTINUOUS
10
4.33223
20
-2.54557
11
4.33095
21
-2.54748
0
LINE
8
BLACK
6
CONTINUOUS
10
4.33095
20
-2.54748
11
4.32903
21
-2.54876
0
LINE
8
BLACK
6
CONTINUOUS
10
4.32903
20
-2.54876
11
4.32677
21
-2.54921
0
LINE
8
BLACK
6
CONTINUOUS
10
4.32677
20
-2.54921
11
4.28051
21
-2.54921
0
LINE
8
BLACK
6
CONTINUOUS
10
4.28051
20
-2.54921
11
4.27825
21
-2.54876
0
LINE
8
BLACK
6
CONTINUOUS
10
4.27825
20
-2.54876
11
4.27634
21
-2.54748
0
LINE
8
BLACK
6
CONTINUOUS
10
4.27634
20
-2.54748
11
4.27506
21
-2.54557
0
LINE
8
BLACK
6
CONTINUOUS
10
4.27506
20
-2.54557
11
4.27461
21
-2.54331
0
LINE
8
BLACK
6
CONTINUOUS
10
4.27461
20
-2.54331
11
4.27461
21
-2.5315
0
LINE
8
BLACK
6
CONTINUOUS
10
4.27461
20
-2.5315
11
4.27506
21
-2.52924
0
LINE
8
BLACK
6
CONTINUOUS
10
4.27506
20
-2.52924
11
4.27634
21
-2.52732
0
LINE
8
BLACK
6
CONTINUOUS
10
4.27634
20
-2.52732
11
4.27825
21
-2.52604
0
LINE
8
BLACK
6
CONTINUOUS
10
4.27825
20
-2.52604
11
4.28051
21
-2.52559
0
LINE
8
BLACK
6
CONTINUOUS
10
4.28051
20
-2.52559
11
4.32677
21
-2.52559
0
LINE
8
BLACK
6
CONTINUOUS
10
4.32677
20
-2.52559
11
4.32903
21
-2.52604
0
LINE
8
BLACK
6
CONTINUOUS
10
4.22441
20
-2.5315
11
4.15748
21
-2.5315
0
LINE
8
BLACK
6
CONTINUOUS
10
4.15748
20
-2.5315
11
4.15748
21
-2.48031
0
LINE
8
BLACK
6
CONTINUOUS
10
4.15748
20
-2.48031
11
4.22441
21
-2.48031
0
LINE
8
BLACK
6
CONTINUOUS
10
4.22441
20
-2.48031
11
4.22441
21
-2.5315
0
LINE
8
BLACK
6
CONTINUOUS
10
4.10242
20
-2.48977
11
4.10498
21
-2.49148
0
LINE
8
BLACK
6
CONTINUOUS
10
4.10498
20
-2.49148
11
4.10668
21
-2.49403
0
LINE
8
BLACK
6
CONTINUOUS
10
4.10668
20
-2.49403
11
4.10728
21
-2.49705
0
LINE
8
BLACK
6
CONTINUOUS
10
4.10728
20
-2.49705
11
4.10728
21
-2.5128
0
LINE
8
BLACK
6
CONTINUOUS
10
4.10728
20
-2.5128
11
4.10668
21
-2.51581
0
LINE
8
BLACK
6
CONTINUOUS
10
4.10668
20
-2.51581
11
4.10498
21
-2.51836
0
LINE
8
BLACK
6
CONTINUOUS
10
4.10498
20
-2.51836
11
4.10242
21
-2.52007
0
LINE
8
BLACK
6
CONTINUOUS
10
4.10242
20
-2.52007
11
4.09941
21
-2.52067
0
LINE
8
BLACK
6
CONTINUOUS
10
4.09941
20
-2.52067
11
4.07776
21
-2.52067
0
LINE
8
BLACK
6
CONTINUOUS
10
4.07776
20
-2.52067
11
4.07474
21
-2.52007
0
LINE
8
BLACK
6
CONTINUOUS
10
4.07474
20
-2.52007
11
4.07219
21
-2.51836
0
LINE
8
BLACK
6
CONTINUOUS
10
4.07219
20
-2.51836
11
4.07048
21
-2.51581
0
LINE
8
BLACK
6
CONTINUOUS
10
4.07048
20
-2.51581
11
4.06988
21
-2.5128
0
LINE
8
BLACK
6
CONTINUOUS
10
4.06988
20
-2.5128
11
4.06988
21
-2.49705
0
LINE
8
BLACK
6
CONTINUOUS
10
4.06988
20
-2.49705
11
4.07048
21
-2.49403
0
LINE
8
BLACK
6
CONTINUOUS
10
4.07048
20
-2.49403
11
4.07219
21
-2.49148
0
LINE
8
BLACK
6
CONTINUOUS
10
4.07219
20
-2.49148
11
4.07474
21
-2.48977
0
LINE
8
BLACK
6
CONTINUOUS
10
4.07474
20
-2.48977
11
4.07776
21
-2.48917
0
LINE
8
BLACK
6
CONTINUOUS
10
4.07776
20
-2.48917
11
4.09941
21
-2.48917
0
LINE
8
BLACK
6
CONTINUOUS
10
4.09941
20
-2.48917
11
4.10242
21
-2.48977
0
LINE
8
BLACK
6
CONTINUOUS
10
4.47977
20
-2.47902
11
4.48264
21
-2.48094
0
LINE
8
BLACK
6
CONTINUOUS
10
4.48264
20
-2.48094
11
4.48456
21
-2.48381
0
LINE
8
BLACK
6
CONTINUOUS
10
4.48456
20
-2.48381
11
4.48524
21
-2.4872
0
LINE
8
BLACK
6
CONTINUOUS
10
4.48524
20
-2.4872
11
4.48524
21
-2.50492
0
LINE
8
BLACK
6
CONTINUOUS
10
4.48524
20
-2.50492
11
4.48456
21
-2.50831
0
LINE
8
BLACK
6
CONTINUOUS
10
4.48456
20
-2.50831
11
4.48264
21
-2.51118
0
LINE
8
BLACK
6
CONTINUOUS
10
4.48264
20
-2.51118
11
4.47977
21
-2.51311
0
LINE
8
BLACK
6
CONTINUOUS
10
4.47977
20
-2.51311
11
4.47638
21
-2.51378
0
LINE
8
BLACK
6
CONTINUOUS
10
4.47638
20
-2.51378
11
4.45669
21
-2.51378
0
LINE
8
BLACK
6
CONTINUOUS
10
4.45669
20
-2.51378
11
4.4533
21
-2.51311
0
LINE
8
BLACK
6
CONTINUOUS
10
4.4533
20
-2.51311
11
4.45043
21
-2.51118
0
LINE
8
BLACK
6
CONTINUOUS
10
4.45043
20
-2.51118
11
4.44851
21
-2.50831
0
LINE
8
BLACK
6
CONTINUOUS
10
4.44851
20
-2.50831
11
4.44783
21
-2.50492
0
LINE
8
BLACK
6
CONTINUOUS
10
4.44783
20
-2.50492
11
4.44783
21
-2.4872
0
LINE
8
BLACK
6
CONTINUOUS
10
4.44783
20
-2.4872
11
4.44851
21
-2.48381
0
LINE
8
BLACK
6
CONTINUOUS
10
4.44851
20
-2.48381
11
4.45043
21
-2.48094
0
LINE
8
BLACK
6
CONTINUOUS
10
4.45043
20
-2.48094
11
4.4533
21
-2.47902
0
LINE
8
BLACK
6
CONTINUOUS
10
4.4533
20
-2.47902
11
4.45669
21
-2.47835
0
LINE
8
BLACK
6
CONTINUOUS
10
4.45669
20
-2.47835
11
4.47638
21
-2.47835
0
LINE
8
BLACK
6
CONTINUOUS
10
4.47638
20
-2.47835
11
4.47977
21
-2.47902
0
LINE
8
BLACK
6
CONTINUOUS
10
4.10242
20
-2.42481
11
4.10498
21
-2.42652
0
LINE
8
BLACK
6
CONTINUOUS
10
4.10498
20
-2.42652
11
4.10668
21
-2.42907
0
LINE
8
BLACK
6
CONTINUOUS
10
4.10668
20
-2.42907
11
4.10728
21
-2.43209
0
LINE
8
BLACK
6
CONTINUOUS
10
4.10728
20
-2.43209
11
4.10728
21
-2.44783
0
LINE
8
BLACK
6
CONTINUOUS
10
4.10728
20
-2.44783
11
4.10668
21
-2.45085
0
LINE
8
BLACK
6
CONTINUOUS
10
4.10668
20
-2.45085
11
4.10498
21
-2.4534
0
LINE
8
BLACK
6
CONTINUOUS
10
4.10498
20
-2.4534
11
4.10242
21
-2.45511
0
LINE
8
BLACK
6
CONTINUOUS
10
4.10242
20
-2.45511
11
4.09941
21
-2.45571
0
LINE
8
BLACK
6
CONTINUOUS
10
4.09941
20
-2.45571
11
4.07776
21
-2.45571
0
LINE
8
BLACK
6
CONTINUOUS
10
4.07776
20
-2.45571
11
4.07474
21
-2.45511
0
LINE
8
BLACK
6
CONTINUOUS
10
4.07474
20
-2.45511
11
4.07219
21
-2.4534
0
LINE
8
BLACK
6
CONTINUOUS
10
4.07219
20
-2.4534
11
4.07048
21
-2.45085
0
LINE
8
BLACK
6
CONTINUOUS
10
4.07048
20
-2.45085
11
4.06988
21
-2.44783
0
LINE
8
BLACK
6
CONTINUOUS
10
4.06988
20
-2.44783
11
4.06988
21
-2.43209
0
LINE
8
BLACK
6
CONTINUOUS
10
4.06988
20
-2.43209
11
4.07048
21
-2.42907
0
LINE
8
BLACK
6
CONTINUOUS
10
4.07048
20
-2.42907
11
4.07219
21
-2.42652
0
LINE
8
BLACK
6
CONTINUOUS
10
4.07219
20
-2.42652
11
4.07474
21
-2.42481
0
LINE
8
BLACK
6
CONTINUOUS
10
4.07474
20
-2.42481
11
4.07776
21
-2.42421
0
LINE
8
BLACK
6
CONTINUOUS
10
4.07776
20
-2.42421
11
4.09941
21
-2.42421
0
LINE
8
BLACK
6
CONTINUOUS
10
4.09941
20
-2.42421
11
4.10242
21
-2.42481
0
LINE
8
BLACK
6
CONTINUOUS
10
4.47977
20
-2.418
11
4.48264
21
-2.41992
0
LINE
8
BLACK
6
CONTINUOUS
10
4.48264
20
-2.41992
11
4.48456
21
-2.42279
0
LINE
8
BLACK
6
CONTINUOUS
10
4.48456
20
-2.42279
11
4.48524
21
-2.42618
0
LINE
8
BLACK
6
CONTINUOUS
10
4.48524
20
-2.42618
11
4.48524
21
-2.4439
0
LINE
8
BLACK
6
CONTINUOUS
10
4.48524
20
-2.4439
11
4.48456
21
-2.44729
0
LINE
8
BLACK
6
CONTINUOUS
10
4.48456
20
-2.44729
11
4.48264
21
-2.45016
0
LINE
8
BLACK
6
CONTINUOUS
10
4.48264
20
-2.45016
11
4.47977
21
-2.45208
0
LINE
8
BLACK
6
CONTINUOUS
10
4.47977
20
-2.45208
11
4.47638
21
-2.45276
0
LINE
8
BLACK
6
CONTINUOUS
10
4.47638
20
-2.45276
11
4.45669
21
-2.45276
0
LINE
8
BLACK
6
CONTINUOUS
10
4.45669
20
-2.45276
11
4.4533
21
-2.45208
0
LINE
8
BLACK
6
CONTINUOUS
10
4.4533
20
-2.45208
11
4.45043
21
-2.45016
0
LINE
8
BLACK
6
CONTINUOUS
10
4.45043
20
-2.45016
11
4.44851
21
-2.44729
0
LINE
8
BLACK
6
CONTINUOUS
10
4.44851
20
-2.44729
11
4.44783
21
-2.4439
0
LINE
8
BLACK
6
CONTINUOUS
10
4.44783
20
-2.4439
11
4.44783
21
-2.42618
0
LINE
8
BLACK
6
CONTINUOUS
10
4.44783
20
-2.42618
11
4.44851
21
-2.42279
0
LINE
8
BLACK
6
CONTINUOUS
10
4.44851
20
-2.42279
11
4.45043
21
-2.41992
0
LINE
8
BLACK
6
CONTINUOUS
10
4.45043
20
-2.41992
11
4.4533
21
-2.418
0
LINE
8
BLACK
6
CONTINUOUS
10
4.4533
20
-2.418
11
4.45669
21
-2.41732
0
LINE
8
BLACK
6
CONTINUOUS
10
4.45669
20
-2.41732
11
4.47638
21
-2.41732
0
LINE
8
BLACK
6
CONTINUOUS
10
4.47638
20
-2.41732
11
4.47977
21
-2.418
  0
ENDSEC
  0
EOF
