%TF.GenerationSoftware,KiCad,Pcbnew,(6.0.8-1)-1*%
%TF.CreationDate,2022-11-22T09:59:05-05:00*%
%TF.ProjectId,encoder_driver,656e636f-6465-4725-9f64-72697665722e,rev?*%
%TF.SameCoordinates,Original*%
%TF.FileFunction,Profile,NP*%
%FSLAX46Y46*%
G04 Gerber Fmt 4.6, Leading zero omitted, Abs format (unit mm)*
G04 Created by KiCad (PCBNEW (6.0.8-1)-1) date 2022-11-22 09:59:05*
%MOMM*%
%LPD*%
G01*
G04 APERTURE LIST*
%TA.AperFunction,Profile*%
%ADD10C,0.200000*%
%TD*%
G04 APERTURE END LIST*
D10*
X155927406Y-94020411D02*
X156462838Y-93485233D01*
X127567436Y-64838580D02*
X126925070Y-64041274D01*
X134945120Y-69693399D02*
X134409688Y-70228831D01*
X80806544Y-95031814D02*
X81301844Y-95927672D01*
X133326124Y-79605632D02*
X133260592Y-78894686D01*
X86693756Y-61298582D02*
X85949282Y-62001400D01*
X134409688Y-79603854D02*
X134403846Y-79617824D01*
X96861884Y-108527850D02*
X97841308Y-108826300D01*
X86371430Y-102323900D02*
X87130636Y-103010716D01*
X131777740Y-91422728D02*
X132106924Y-90453464D01*
X132961634Y-76869290D02*
X132756656Y-75866244D01*
X131014216Y-93322394D02*
X131413504Y-92379546D01*
X115913916Y-107879388D02*
X116856510Y-107480100D01*
X94939358Y-107824270D02*
X95894144Y-108193840D01*
X91274138Y-106004868D02*
X92164916Y-106510074D01*
X99257866Y-54730396D02*
X98264472Y-54977030D01*
X79311500Y-72222614D02*
X78972156Y-73188830D01*
X82066130Y-66745866D02*
X81524348Y-67614292D01*
X79685896Y-71269860D02*
X79311500Y-72222614D01*
X80344010Y-94118176D02*
X80806544Y-95031814D01*
X132515102Y-74871580D02*
X132237226Y-73886060D01*
X133331712Y-79617824D02*
X133329172Y-79611728D01*
X134409688Y-70228831D02*
X134409688Y-79603854D01*
X133332728Y-79618332D02*
X133331712Y-79617824D01*
X77590396Y-83275932D02*
X77657452Y-84297774D01*
X121317004Y-104982264D02*
X122149870Y-104386888D01*
X77817726Y-78168754D02*
X77697330Y-79185770D01*
X129831846Y-68247006D02*
X129312924Y-67364102D01*
X93467936Y-56746394D02*
X92552266Y-57204102D01*
X133283706Y-84766912D02*
X133287008Y-84761070D01*
X131413504Y-92379546D02*
X131777740Y-91422728D01*
X121676414Y-59189620D02*
X120831356Y-58612024D01*
X90402918Y-105467658D02*
X91274138Y-106004868D01*
X122500136Y-59797696D02*
X121676414Y-59189620D01*
X133209030Y-85461348D02*
X133283706Y-84766912D01*
X93998796Y-107420156D02*
X94939358Y-107824270D01*
X111445294Y-54666388D02*
X110441232Y-54466490D01*
X87463630Y-60623450D02*
X86693756Y-61298582D01*
X83601814Y-99311968D02*
X84252308Y-100102670D01*
X104909366Y-109889036D02*
X105933240Y-109891830D01*
X113987580Y-108572808D02*
X114956844Y-108243624D01*
X134389876Y-84749132D02*
X134403846Y-84754974D01*
X78837536Y-90313764D02*
X79161640Y-91285060D01*
X96307402Y-55579010D02*
X95347028Y-55933340D01*
X130317748Y-69147690D02*
X129831846Y-68247006D01*
X97841308Y-108826300D02*
X98830892Y-109088682D01*
X78972156Y-73188830D02*
X78668626Y-74166476D01*
X119080280Y-57551320D02*
X118176548Y-57069990D01*
X126925070Y-64041274D02*
X126254256Y-63268098D01*
X131923282Y-72911462D02*
X131574032Y-71949056D01*
X132400294Y-89472516D02*
X132657596Y-88481408D01*
X81301844Y-95927672D02*
X81830164Y-96804734D01*
X114956844Y-108243624D02*
X115913916Y-107879388D01*
X101268784Y-54346602D02*
X100259896Y-54519830D01*
X117784118Y-107046522D02*
X118694962Y-106579162D01*
X77569060Y-81228946D02*
X77560932Y-82252820D01*
X84931504Y-100868480D02*
X85638132Y-101609398D01*
X125957838Y-100976176D02*
X126640844Y-100213414D01*
X93073474Y-106981752D02*
X93998796Y-107420156D01*
X91653614Y-57694830D02*
X90774012Y-58218578D01*
X106371898Y-54039008D02*
X105348024Y-54025546D01*
X108414312Y-54178200D02*
X107394502Y-54089808D01*
X98830892Y-109088682D02*
X99829366Y-109314742D01*
X120462802Y-105546398D02*
X121317004Y-104982264D01*
X130580638Y-94249748D02*
X131014216Y-93322394D01*
X85230970Y-62730888D02*
X84539836Y-63486538D01*
X155927406Y-69693399D02*
X134945120Y-69693399D01*
X125247400Y-101713284D02*
X125957838Y-100976176D01*
X89913714Y-58773822D02*
X89074498Y-59360054D01*
X132106924Y-90453464D02*
X132400294Y-89472516D01*
X129080768Y-96928686D02*
X129613406Y-96054164D01*
X133291072Y-84753450D02*
X133297676Y-84751672D01*
X77761592Y-85316060D02*
X77903324Y-86330282D01*
X133329172Y-79611728D02*
X133326124Y-79605632D01*
X98264472Y-54977030D02*
X97280222Y-55259986D01*
X80537812Y-69408294D02*
X80094836Y-70331584D01*
X90774012Y-58218578D02*
X89913714Y-58773822D01*
X129312924Y-67364102D02*
X128761998Y-66501010D01*
X128179830Y-65659000D02*
X127567436Y-64838580D01*
X78169770Y-76151994D02*
X77975460Y-77157326D01*
X118176548Y-57069990D02*
X117256052Y-56621934D01*
X84252308Y-100102670D02*
X84931504Y-100868480D01*
X85638132Y-101609398D02*
X86371430Y-102323900D01*
X77903324Y-86330282D02*
X78081886Y-87338408D01*
X132756656Y-75866244D02*
X132515102Y-74871580D01*
X85949282Y-62001400D02*
X85230970Y-62730888D01*
X88257634Y-59977274D02*
X87463630Y-60623450D01*
X89551510Y-104898952D02*
X90402918Y-105467658D01*
X102865682Y-109771180D02*
X103886508Y-109848904D01*
X92552266Y-57204102D02*
X91653614Y-57694830D01*
X79915258Y-93188536D02*
X80344010Y-94118176D01*
X116856510Y-107480100D02*
X117784118Y-107046522D01*
X102283514Y-54210204D02*
X101268784Y-54346602D01*
X113006632Y-108866178D02*
X113987580Y-108572808D01*
X103302562Y-54111144D02*
X102283514Y-54210204D01*
X81830164Y-96804734D02*
X82389726Y-97661984D01*
X133297676Y-84751672D02*
X133303772Y-84749132D01*
X78081886Y-87338408D02*
X78297532Y-88339168D01*
X77614526Y-80206088D02*
X77569060Y-81228946D01*
X131574032Y-71949056D02*
X131189730Y-71000366D01*
X83243420Y-65070482D02*
X82639408Y-65897252D01*
X112441482Y-54902862D02*
X111445294Y-54666388D01*
X80094836Y-70331584D02*
X79685896Y-71269860D01*
X78549500Y-89331546D02*
X78837536Y-90313764D01*
X124829570Y-61797946D02*
X124077730Y-61103002D01*
X113428272Y-55175404D02*
X112441482Y-54902862D01*
X134403846Y-84754974D02*
X134409688Y-84768944D01*
X88721438Y-104299512D02*
X89551510Y-104898952D01*
X133260592Y-78894686D02*
X133129528Y-77879194D01*
X81524348Y-67614292D02*
X81014570Y-68502530D01*
X89074498Y-59360054D02*
X88257634Y-59977274D01*
X133129528Y-77879194D02*
X132961634Y-76869290D01*
X101847904Y-109656372D02*
X102865682Y-109771180D01*
X131189730Y-71000366D02*
X130770630Y-70065900D01*
X133303772Y-84749132D02*
X134389876Y-84749132D01*
X133345936Y-79623920D02*
X133339586Y-79621126D01*
X127921004Y-98615754D02*
X128516380Y-97782634D01*
X116319808Y-56207914D02*
X115368578Y-55828438D01*
X106956352Y-109856778D02*
X107977686Y-109784388D01*
X126254256Y-63268098D02*
X125555248Y-62519814D01*
X133290564Y-84754466D02*
X133291072Y-84753450D01*
X87130636Y-103010716D02*
X87914480Y-103669846D01*
X105933240Y-109891830D02*
X106956352Y-109856778D01*
X117256052Y-56621934D02*
X116319808Y-56207914D01*
X112015778Y-109123226D02*
X113006632Y-108866178D01*
X118694962Y-106579162D02*
X119588280Y-106079290D01*
X82980784Y-98497898D02*
X83601814Y-99311968D01*
X133061964Y-86474554D02*
X133209030Y-85461348D01*
X133289548Y-84754974D02*
X133290564Y-84754466D01*
X108995464Y-109674914D02*
X110008670Y-109527848D01*
X134945120Y-94020411D02*
X155927406Y-94020411D01*
X110441232Y-54466490D02*
X109430312Y-54303930D01*
X77697330Y-79185770D02*
X77614526Y-80206088D01*
X120831356Y-58612024D02*
X119965470Y-58065416D01*
X94399862Y-56322722D02*
X93467936Y-56746394D01*
X109430312Y-54303930D02*
X108414312Y-54178200D01*
X133333236Y-79619094D02*
X133332728Y-79618332D01*
X132878322Y-87481664D02*
X133061964Y-86474554D01*
X132657596Y-88481408D02*
X132878322Y-87481664D01*
X134409688Y-93485233D02*
X134945120Y-94020411D01*
X78297532Y-88339168D02*
X78549500Y-89331546D01*
X95347028Y-55933340D02*
X94399862Y-56322722D01*
X78400910Y-75154790D02*
X78169770Y-76151994D01*
X132237226Y-73886060D02*
X131923282Y-72911462D01*
X82389726Y-97661984D02*
X82980784Y-98497898D01*
X122960638Y-103761286D02*
X123747784Y-103106728D01*
X134403846Y-79617824D02*
X134389876Y-79623920D01*
X100835714Y-109503972D02*
X101847904Y-109656372D01*
X83877150Y-64266826D02*
X83243420Y-65070482D01*
X79521050Y-92243656D02*
X79915258Y-93188536D01*
X110008670Y-109527848D02*
X111016034Y-109344206D01*
X81014570Y-68502530D02*
X80537812Y-69408294D01*
X77657452Y-84297774D02*
X77761592Y-85316060D01*
X107977686Y-109784388D02*
X108995464Y-109674914D01*
X84539836Y-63486538D02*
X83877150Y-64266826D01*
X119965470Y-58065416D02*
X119080280Y-57551320D01*
X97280222Y-55259986D02*
X96307402Y-55579010D01*
X104324404Y-54049422D02*
X103302562Y-54111144D01*
X87914480Y-103669846D02*
X88721438Y-104299512D01*
X92164916Y-106510074D02*
X93073474Y-106981752D01*
X95894144Y-108193840D02*
X96861884Y-108527850D01*
X99829366Y-109314742D02*
X100835714Y-109503972D01*
X111016034Y-109344206D02*
X112015778Y-109123226D01*
X128516380Y-97782634D02*
X129080768Y-96928686D01*
X114404394Y-55484014D02*
X113428272Y-55175404D01*
X78668626Y-74166476D02*
X78400910Y-75154790D01*
X125555248Y-62519814D02*
X124829570Y-61797946D01*
X128761998Y-66501010D02*
X128179830Y-65659000D01*
X133339586Y-79621126D02*
X133333236Y-79619094D01*
X130770630Y-70065900D02*
X130317748Y-69147690D01*
X79161640Y-91285060D02*
X79521050Y-92243656D01*
X107394502Y-54089808D02*
X106371898Y-54039008D01*
X134409688Y-84768944D02*
X134409688Y-93485233D01*
X156462838Y-93485233D02*
X156462838Y-70228831D01*
X122149870Y-104386888D02*
X122960638Y-103761286D01*
X77975460Y-77157326D02*
X77817726Y-78168754D01*
X123747784Y-103106728D02*
X124510292Y-102423722D01*
X119588280Y-106079290D02*
X120462802Y-105546398D01*
X127295656Y-99426522D02*
X127921004Y-98615754D01*
X126640844Y-100213414D02*
X127295656Y-99426522D01*
X124510292Y-102423722D02*
X125247400Y-101713284D01*
X133287008Y-84761070D02*
X133289548Y-84754974D01*
X123300744Y-60435744D02*
X122500136Y-59797696D01*
X156462838Y-70228831D02*
X155927406Y-69693399D01*
X130113532Y-95160846D02*
X130580638Y-94249748D01*
X115368578Y-55828438D02*
X114404394Y-55484014D01*
X82639408Y-65897252D02*
X82066130Y-66745866D01*
X134389876Y-79623920D02*
X133345936Y-79623920D01*
X100259896Y-54519830D02*
X99257866Y-54730396D01*
X103886508Y-109848904D02*
X104909366Y-109889036D01*
X124077730Y-61103002D02*
X123300744Y-60435744D01*
X77560932Y-82252820D02*
X77590396Y-83275932D01*
X105348024Y-54025546D02*
X104324404Y-54049422D01*
X129613406Y-96054164D02*
X130113532Y-95160846D01*
M02*
