M48
; DRILL file {KiCad (6.0.8-1)-1} date Tuesday, November 22, 2022 at 09:58:46 AM
; FORMAT={-:-/ absolute / inch / decimal}
; #@! TF.CreationDate,2022-11-22T09:58:46-05:00
; #@! TF.GenerationSoftware,Kicad,Pcbnew,(6.0.8-1)-1
; #@! TF.FileFunction,Plated,1,4,PTH
FMAT,2
INCH
; #@! TA.AperFunction,Plated,PTH,ViaDrill
T1C0.0157
; #@! TA.AperFunction,Plated,PTH,ComponentDrill
T2C0.0315
; #@! TA.AperFunction,Plated,PTH,ComponentDrill
T3C0.0394
%
G90
G05
T1
X3.9626Y-3.1811
X3.9882Y-3.2441
X4.0236Y-3.378
X4.1024Y-3.378
X4.1811Y-3.378
X4.203Y-2.847
X4.3307Y-3.1496
X4.3307Y-3.2283
X4.3307Y-3.2913
X4.6713Y-2.6535
X4.7264Y-2.7244
X5.3937Y-3.6646
X5.4537Y-3.4254
X5.4646Y-2.8614
X5.4646Y-3.0819
X5.4724Y-2.7827
X5.5596Y-3.2425
X5.6252Y-3.126
X5.6811Y-3.1055
X5.6812Y-3.1595
X5.6831Y-3.0563
X5.7136Y-3.3045
X5.78Y-3.0241
X5.7835Y-2.8752
X5.7953Y-2.9402
X5.8396Y-3.3205
X5.847Y-3.277
X5.8583Y-3.2039
X5.8661Y-3.2472
X5.8791Y-3.0528
X5.8858Y-2.8713
X5.8898Y-2.9638
X5.8933Y-2.7759
X6.0079Y-2.9402
X6.0089Y-2.8762
X6.0157Y-3.1055
X6.0177Y-2.9776
X6.0669Y-2.9165
T2
X6.0787Y-2.9874
X6.0787Y-3.0661
X6.0787Y-3.1449
X6.0787Y-3.2236
X6.0787Y-3.3024
X6.0787Y-3.3811
X6.0787Y-3.4598
T3
X3.7272Y-3.8205
X3.8272Y-3.8205
X3.9272Y-3.8205
X4.0272Y-3.8205
X4.1272Y-3.8205
X4.2272Y-3.8205
X4.3272Y-3.8205
X4.4272Y-3.8205
X4.4587Y-3.6083
X4.5587Y-3.6083
X4.7972Y-2.9134
X4.7972Y-3.0134
X4.7972Y-3.1134
X4.7972Y-3.2134
X4.7972Y-3.3134
X4.7972Y-3.4134
X4.7972Y-3.5134
X4.7972Y-3.6134
X5.3622Y-2.8585
X5.3622Y-2.9585
X5.3622Y-3.0585
X5.3622Y-3.1585
X5.3622Y-3.2585
X5.3622Y-3.3585
X5.3622Y-3.4585
X5.3622Y-3.5585
T0
M30
