%TF.GenerationSoftware,KiCad,Pcbnew,(6.0.8-1)-1*%
%TF.CreationDate,2022-11-22T09:59:05-05:00*%
%TF.ProjectId,encoder_driver,656e636f-6465-4725-9f64-72697665722e,rev?*%
%TF.SameCoordinates,Original*%
%TF.FileFunction,Legend,Top*%
%TF.FilePolarity,Positive*%
%FSLAX46Y46*%
G04 Gerber Fmt 4.6, Leading zero omitted, Abs format (unit mm)*
G04 Created by KiCad (PCBNEW (6.0.8-1)-1) date 2022-11-22 09:59:05*
%MOMM*%
%LPD*%
G01*
G04 APERTURE LIST*
%ADD10C,0.150000*%
%ADD11C,0.120000*%
%ADD12C,0.200000*%
%ADD13C,0.050000*%
%ADD14C,0.300000*%
%ADD15C,0.152000*%
%ADD16C,0.254000*%
G04 APERTURE END LIST*
D10*
X108508800Y-72263000D02*
X108508800Y-71628000D01*
X108508800Y-71628000D02*
X109016800Y-70866000D01*
X139319000Y-75819000D02*
G75*
G03*
X139319000Y-75819000I-179605J0D01*
G01*
X109016800Y-70866000D02*
X108000800Y-70866000D01*
X147173854Y-75133200D02*
G75*
G03*
X147173854Y-75133200I-209454J0D01*
G01*
X109016800Y-71628000D02*
X108000800Y-71628000D01*
X108508800Y-70866000D02*
X108508800Y-70231000D01*
X152501600Y-75590400D02*
G75*
G03*
X152501600Y-75590400I-254000J0D01*
G01*
X151282400Y-82499200D02*
G75*
G03*
X151282400Y-82499200I-254000J0D01*
G01*
X108000800Y-70866000D02*
X108508800Y-71628000D01*
X134874047Y-92146428D02*
X135635952Y-92146428D01*
X135255000Y-92527380D02*
X135255000Y-91765476D01*
X100262380Y-100623571D02*
X99262380Y-100623571D01*
X99738571Y-99814047D02*
X99738571Y-100147380D01*
X100262380Y-100147380D02*
X99262380Y-100147380D01*
X99262380Y-99671190D01*
X100167142Y-98718809D02*
X100214761Y-98766428D01*
X100262380Y-98909285D01*
X100262380Y-99004523D01*
X100214761Y-99147380D01*
X100119523Y-99242619D01*
X100024285Y-99290238D01*
X99833809Y-99337857D01*
X99690952Y-99337857D01*
X99500476Y-99290238D01*
X99405238Y-99242619D01*
X99310000Y-99147380D01*
X99262380Y-99004523D01*
X99262380Y-98909285D01*
X99310000Y-98766428D01*
X99357619Y-98718809D01*
X97722380Y-100647380D02*
X96722380Y-100647380D01*
X97198571Y-99837856D02*
X97198571Y-100171189D01*
X97722380Y-100171189D02*
X96722380Y-100171189D01*
X96722380Y-99694999D01*
X97198571Y-98980713D02*
X97246190Y-98837856D01*
X97293809Y-98790237D01*
X97389047Y-98742618D01*
X97531904Y-98742618D01*
X97627142Y-98790237D01*
X97674761Y-98837856D01*
X97722380Y-98933094D01*
X97722380Y-99314047D01*
X96722380Y-99314047D01*
X96722380Y-98980713D01*
X96770000Y-98885475D01*
X96817619Y-98837856D01*
X96912857Y-98790237D01*
X97008095Y-98790237D01*
X97103333Y-98837856D01*
X97150952Y-98885475D01*
X97198571Y-98980713D01*
X97198571Y-99314047D01*
X111847380Y-100687142D02*
X112847380Y-100353808D01*
X111847380Y-100020475D01*
X112847380Y-99687142D02*
X111847380Y-99687142D01*
X112847380Y-99210951D02*
X111847380Y-99210951D01*
X112847380Y-98639523D01*
X111847380Y-98639523D01*
X135961595Y-96728380D02*
X135961595Y-95728380D01*
X136533023Y-96728380D01*
X136533023Y-95728380D01*
X137152071Y-96728380D02*
X137056833Y-96680761D01*
X137009214Y-96633142D01*
X136961595Y-96537904D01*
X136961595Y-96252190D01*
X137009214Y-96156952D01*
X137056833Y-96109333D01*
X137152071Y-96061714D01*
X137294928Y-96061714D01*
X137390166Y-96109333D01*
X137437785Y-96156952D01*
X137485404Y-96252190D01*
X137485404Y-96537904D01*
X137437785Y-96633142D01*
X137390166Y-96680761D01*
X137294928Y-96728380D01*
X137152071Y-96728380D01*
X137771119Y-96061714D02*
X138152071Y-96061714D01*
X137913976Y-95728380D02*
X137913976Y-96585523D01*
X137961595Y-96680761D01*
X138056833Y-96728380D01*
X138152071Y-96728380D01*
X138866357Y-96680761D02*
X138771119Y-96728380D01*
X138580642Y-96728380D01*
X138485404Y-96680761D01*
X138437785Y-96585523D01*
X138437785Y-96204571D01*
X138485404Y-96109333D01*
X138580642Y-96061714D01*
X138771119Y-96061714D01*
X138866357Y-96109333D01*
X138913976Y-96204571D01*
X138913976Y-96299809D01*
X138437785Y-96395047D01*
X139294928Y-96680761D02*
X139390166Y-96728380D01*
X139580642Y-96728380D01*
X139675880Y-96680761D01*
X139723500Y-96585523D01*
X139723500Y-96537904D01*
X139675880Y-96442666D01*
X139580642Y-96395047D01*
X139437785Y-96395047D01*
X139342547Y-96347428D01*
X139294928Y-96252190D01*
X139294928Y-96204571D01*
X139342547Y-96109333D01*
X139437785Y-96061714D01*
X139580642Y-96061714D01*
X139675880Y-96109333D01*
X140152071Y-96633142D02*
X140199690Y-96680761D01*
X140152071Y-96728380D01*
X140104452Y-96680761D01*
X140152071Y-96633142D01*
X140152071Y-96728380D01*
X140152071Y-96109333D02*
X140199690Y-96156952D01*
X140152071Y-96204571D01*
X140104452Y-96156952D01*
X140152071Y-96109333D01*
X140152071Y-96204571D01*
X136104452Y-97338380D02*
X136104452Y-97576476D01*
X135866357Y-97481238D02*
X136104452Y-97576476D01*
X136342547Y-97481238D01*
X135961595Y-97766952D02*
X136104452Y-97576476D01*
X136247309Y-97766952D01*
X137485404Y-98338380D02*
X137485404Y-97671714D01*
X137485404Y-97338380D02*
X137437785Y-97386000D01*
X137485404Y-97433619D01*
X137533023Y-97386000D01*
X137485404Y-97338380D01*
X137485404Y-97433619D01*
X137913976Y-98290761D02*
X138009214Y-98338380D01*
X138199690Y-98338380D01*
X138294928Y-98290761D01*
X138342547Y-98195523D01*
X138342547Y-98147904D01*
X138294928Y-98052666D01*
X138199690Y-98005047D01*
X138056833Y-98005047D01*
X137961595Y-97957428D01*
X137913976Y-97862190D01*
X137913976Y-97814571D01*
X137961595Y-97719333D01*
X138056833Y-97671714D01*
X138199690Y-97671714D01*
X138294928Y-97719333D01*
X138913976Y-98338380D02*
X138818738Y-98290761D01*
X138771119Y-98243142D01*
X138723500Y-98147904D01*
X138723500Y-97862190D01*
X138771119Y-97766952D01*
X138818738Y-97719333D01*
X138913976Y-97671714D01*
X139056833Y-97671714D01*
X139152071Y-97719333D01*
X139199690Y-97766952D01*
X139247309Y-97862190D01*
X139247309Y-98147904D01*
X139199690Y-98243142D01*
X139152071Y-98290761D01*
X139056833Y-98338380D01*
X138913976Y-98338380D01*
X139818738Y-98338380D02*
X139723500Y-98290761D01*
X139675880Y-98195523D01*
X139675880Y-97338380D01*
X140628261Y-98338380D02*
X140628261Y-97814571D01*
X140580642Y-97719333D01*
X140485404Y-97671714D01*
X140294928Y-97671714D01*
X140199690Y-97719333D01*
X140628261Y-98290761D02*
X140533023Y-98338380D01*
X140294928Y-98338380D01*
X140199690Y-98290761D01*
X140152071Y-98195523D01*
X140152071Y-98100285D01*
X140199690Y-98005047D01*
X140294928Y-97957428D01*
X140533023Y-97957428D01*
X140628261Y-97909809D01*
X140961595Y-97671714D02*
X141342547Y-97671714D01*
X141104452Y-97338380D02*
X141104452Y-98195523D01*
X141152071Y-98290761D01*
X141247309Y-98338380D01*
X141342547Y-98338380D01*
X141818738Y-98338380D02*
X141723500Y-98290761D01*
X141675880Y-98243142D01*
X141628261Y-98147904D01*
X141628261Y-97862190D01*
X141675880Y-97766952D01*
X141723500Y-97719333D01*
X141818738Y-97671714D01*
X141961595Y-97671714D01*
X142056833Y-97719333D01*
X142104452Y-97766952D01*
X142152071Y-97862190D01*
X142152071Y-98147904D01*
X142104452Y-98243142D01*
X142056833Y-98290761D01*
X141961595Y-98338380D01*
X141818738Y-98338380D01*
X142580642Y-98338380D02*
X142580642Y-97671714D01*
X142580642Y-97862190D02*
X142628261Y-97766952D01*
X142675880Y-97719333D01*
X142771119Y-97671714D01*
X142866357Y-97671714D01*
X143961595Y-98338380D02*
X143961595Y-97338380D01*
X143961595Y-97719333D02*
X144056833Y-97671714D01*
X144247309Y-97671714D01*
X144342547Y-97719333D01*
X144390166Y-97766952D01*
X144437785Y-97862190D01*
X144437785Y-98147904D01*
X144390166Y-98243142D01*
X144342547Y-98290761D01*
X144247309Y-98338380D01*
X144056833Y-98338380D01*
X143961595Y-98290761D01*
X145009214Y-98338380D02*
X144913976Y-98290761D01*
X144866357Y-98243142D01*
X144818738Y-98147904D01*
X144818738Y-97862190D01*
X144866357Y-97766952D01*
X144913976Y-97719333D01*
X145009214Y-97671714D01*
X145152071Y-97671714D01*
X145247309Y-97719333D01*
X145294928Y-97766952D01*
X145342547Y-97862190D01*
X145342547Y-98147904D01*
X145294928Y-98243142D01*
X145247309Y-98290761D01*
X145152071Y-98338380D01*
X145009214Y-98338380D01*
X146199690Y-98338380D02*
X146199690Y-97814571D01*
X146152071Y-97719333D01*
X146056833Y-97671714D01*
X145866357Y-97671714D01*
X145771119Y-97719333D01*
X146199690Y-98290761D02*
X146104452Y-98338380D01*
X145866357Y-98338380D01*
X145771119Y-98290761D01*
X145723500Y-98195523D01*
X145723500Y-98100285D01*
X145771119Y-98005047D01*
X145866357Y-97957428D01*
X146104452Y-97957428D01*
X146199690Y-97909809D01*
X146675880Y-98338380D02*
X146675880Y-97671714D01*
X146675880Y-97862190D02*
X146723500Y-97766952D01*
X146771119Y-97719333D01*
X146866357Y-97671714D01*
X146961595Y-97671714D01*
X147723500Y-98338380D02*
X147723500Y-97338380D01*
X147723500Y-98290761D02*
X147628261Y-98338380D01*
X147437785Y-98338380D01*
X147342547Y-98290761D01*
X147294928Y-98243142D01*
X147247309Y-98147904D01*
X147247309Y-97862190D01*
X147294928Y-97766952D01*
X147342547Y-97719333D01*
X147437785Y-97671714D01*
X147628261Y-97671714D01*
X147723500Y-97719333D01*
X148866357Y-97671714D02*
X149056833Y-98338380D01*
X149247309Y-97862190D01*
X149437785Y-98338380D01*
X149628261Y-97671714D01*
X150009214Y-98338380D02*
X150009214Y-97671714D01*
X150009214Y-97338380D02*
X149961595Y-97386000D01*
X150009214Y-97433619D01*
X150056833Y-97386000D01*
X150009214Y-97338380D01*
X150009214Y-97433619D01*
X150628261Y-98338380D02*
X150533023Y-98290761D01*
X150485404Y-98195523D01*
X150485404Y-97338380D01*
X151152071Y-98338380D02*
X151056833Y-98290761D01*
X151009214Y-98195523D01*
X151009214Y-97338380D01*
X152294928Y-97671714D02*
X152294928Y-98338380D01*
X152294928Y-97766952D02*
X152342547Y-97719333D01*
X152437785Y-97671714D01*
X152580642Y-97671714D01*
X152675880Y-97719333D01*
X152723500Y-97814571D01*
X152723500Y-98338380D01*
X153342547Y-98338380D02*
X153247309Y-98290761D01*
X153199690Y-98243142D01*
X153152071Y-98147904D01*
X153152071Y-97862190D01*
X153199690Y-97766952D01*
X153247309Y-97719333D01*
X153342547Y-97671714D01*
X153485404Y-97671714D01*
X153580642Y-97719333D01*
X153628261Y-97766952D01*
X153675880Y-97862190D01*
X153675880Y-98147904D01*
X153628261Y-98243142D01*
X153580642Y-98290761D01*
X153485404Y-98338380D01*
X153342547Y-98338380D01*
X153961595Y-97671714D02*
X154342547Y-97671714D01*
X154104452Y-97338380D02*
X154104452Y-98195523D01*
X154152071Y-98290761D01*
X154247309Y-98338380D01*
X154342547Y-98338380D01*
X155390166Y-98290761D02*
X155485404Y-98338380D01*
X155675880Y-98338380D01*
X155771119Y-98290761D01*
X155818738Y-98195523D01*
X155818738Y-98147904D01*
X155771119Y-98052666D01*
X155675880Y-98005047D01*
X155533023Y-98005047D01*
X155437785Y-97957428D01*
X155390166Y-97862190D01*
X155390166Y-97814571D01*
X155437785Y-97719333D01*
X155533023Y-97671714D01*
X155675880Y-97671714D01*
X155771119Y-97719333D01*
X156675880Y-97671714D02*
X156675880Y-98338380D01*
X156247309Y-97671714D02*
X156247309Y-98195523D01*
X156294928Y-98290761D01*
X156390166Y-98338380D01*
X156533023Y-98338380D01*
X156628261Y-98290761D01*
X156675880Y-98243142D01*
X157152071Y-97671714D02*
X157152071Y-98671714D01*
X157152071Y-97719333D02*
X157247309Y-97671714D01*
X157437785Y-97671714D01*
X157533023Y-97719333D01*
X157580642Y-97766952D01*
X157628261Y-97862190D01*
X157628261Y-98147904D01*
X157580642Y-98243142D01*
X157533023Y-98290761D01*
X157437785Y-98338380D01*
X157247309Y-98338380D01*
X157152071Y-98290761D01*
X158056833Y-97671714D02*
X158056833Y-98671714D01*
X158056833Y-97719333D02*
X158152071Y-97671714D01*
X158342547Y-97671714D01*
X158437785Y-97719333D01*
X158485404Y-97766952D01*
X158533023Y-97862190D01*
X158533023Y-98147904D01*
X158485404Y-98243142D01*
X158437785Y-98290761D01*
X158342547Y-98338380D01*
X158152071Y-98338380D01*
X158056833Y-98290761D01*
X159104452Y-98338380D02*
X159009214Y-98290761D01*
X158961595Y-98243142D01*
X158913976Y-98147904D01*
X158913976Y-97862190D01*
X158961595Y-97766952D01*
X159009214Y-97719333D01*
X159104452Y-97671714D01*
X159247309Y-97671714D01*
X159342547Y-97719333D01*
X159390166Y-97766952D01*
X159437785Y-97862190D01*
X159437785Y-98147904D01*
X159390166Y-98243142D01*
X159342547Y-98290761D01*
X159247309Y-98338380D01*
X159104452Y-98338380D01*
X159866357Y-98338380D02*
X159866357Y-97671714D01*
X159866357Y-97862190D02*
X159913976Y-97766952D01*
X159961595Y-97719333D01*
X160056833Y-97671714D01*
X160152071Y-97671714D01*
X160342547Y-97671714D02*
X160723500Y-97671714D01*
X160485404Y-97338380D02*
X160485404Y-98195523D01*
X160533023Y-98290761D01*
X160628261Y-98338380D01*
X160723500Y-98338380D01*
X161723500Y-97338380D02*
X162342547Y-97338380D01*
X162009214Y-97719333D01*
X162152071Y-97719333D01*
X162247309Y-97766952D01*
X162294928Y-97814571D01*
X162342547Y-97909809D01*
X162342547Y-98147904D01*
X162294928Y-98243142D01*
X162247309Y-98290761D01*
X162152071Y-98338380D01*
X161866357Y-98338380D01*
X161771119Y-98290761D01*
X161723500Y-98243142D01*
X162628261Y-97338380D02*
X162961595Y-98338380D01*
X163294928Y-97338380D01*
X163533023Y-97338380D02*
X164152071Y-97338380D01*
X163818738Y-97719333D01*
X163961595Y-97719333D01*
X164056833Y-97766952D01*
X164104452Y-97814571D01*
X164152071Y-97909809D01*
X164152071Y-98147904D01*
X164104452Y-98243142D01*
X164056833Y-98290761D01*
X163961595Y-98338380D01*
X163675880Y-98338380D01*
X163580642Y-98290761D01*
X163533023Y-98243142D01*
X165342547Y-98338380D02*
X165342547Y-97671714D01*
X165342547Y-97338380D02*
X165294928Y-97386000D01*
X165342547Y-97433619D01*
X165390166Y-97386000D01*
X165342547Y-97338380D01*
X165342547Y-97433619D01*
X165818738Y-97671714D02*
X165818738Y-98338380D01*
X165818738Y-97766952D02*
X165866357Y-97719333D01*
X165961595Y-97671714D01*
X166104452Y-97671714D01*
X166199690Y-97719333D01*
X166247309Y-97814571D01*
X166247309Y-98338380D01*
X166723500Y-97671714D02*
X166723500Y-98671714D01*
X166723500Y-97719333D02*
X166818738Y-97671714D01*
X167009214Y-97671714D01*
X167104452Y-97719333D01*
X167152071Y-97766952D01*
X167199690Y-97862190D01*
X167199690Y-98147904D01*
X167152071Y-98243142D01*
X167104452Y-98290761D01*
X167009214Y-98338380D01*
X166818738Y-98338380D01*
X166723500Y-98290761D01*
X168056833Y-97671714D02*
X168056833Y-98338380D01*
X167628261Y-97671714D02*
X167628261Y-98195523D01*
X167675880Y-98290761D01*
X167771119Y-98338380D01*
X167913976Y-98338380D01*
X168009214Y-98290761D01*
X168056833Y-98243142D01*
X168390166Y-97671714D02*
X168771119Y-97671714D01*
X168533023Y-97338380D02*
X168533023Y-98195523D01*
X168580642Y-98290761D01*
X168675880Y-98338380D01*
X168771119Y-98338380D01*
X136104452Y-98948380D02*
X136104452Y-99186476D01*
X135866357Y-99091238D02*
X136104452Y-99186476D01*
X136342547Y-99091238D01*
X135961595Y-99376952D02*
X136104452Y-99186476D01*
X136247309Y-99376952D01*
X137866357Y-99900761D02*
X137771119Y-99948380D01*
X137580642Y-99948380D01*
X137485404Y-99900761D01*
X137437785Y-99805523D01*
X137437785Y-99424571D01*
X137485404Y-99329333D01*
X137580642Y-99281714D01*
X137771119Y-99281714D01*
X137866357Y-99329333D01*
X137913976Y-99424571D01*
X137913976Y-99519809D01*
X137437785Y-99615047D01*
X138247309Y-99281714D02*
X138485404Y-99948380D01*
X138723500Y-99281714D01*
X139485404Y-99900761D02*
X139390166Y-99948380D01*
X139199690Y-99948380D01*
X139104452Y-99900761D01*
X139056833Y-99805523D01*
X139056833Y-99424571D01*
X139104452Y-99329333D01*
X139199690Y-99281714D01*
X139390166Y-99281714D01*
X139485404Y-99329333D01*
X139533023Y-99424571D01*
X139533023Y-99519809D01*
X139056833Y-99615047D01*
X139961595Y-99948380D02*
X139961595Y-99281714D01*
X139961595Y-99472190D02*
X140009214Y-99376952D01*
X140056833Y-99329333D01*
X140152071Y-99281714D01*
X140247309Y-99281714D01*
X140485404Y-99281714D02*
X140723500Y-99948380D01*
X140961595Y-99281714D02*
X140723500Y-99948380D01*
X140628261Y-100186476D01*
X140580642Y-100234095D01*
X140485404Y-100281714D01*
X141199690Y-99281714D02*
X141580642Y-99281714D01*
X141342547Y-98948380D02*
X141342547Y-99805523D01*
X141390166Y-99900761D01*
X141485404Y-99948380D01*
X141580642Y-99948380D01*
X141913976Y-99948380D02*
X141913976Y-98948380D01*
X142342547Y-99948380D02*
X142342547Y-99424571D01*
X142294928Y-99329333D01*
X142199690Y-99281714D01*
X142056833Y-99281714D01*
X141961595Y-99329333D01*
X141913976Y-99376952D01*
X142818738Y-99948380D02*
X142818738Y-99281714D01*
X142818738Y-98948380D02*
X142771119Y-98996000D01*
X142818738Y-99043619D01*
X142866357Y-98996000D01*
X142818738Y-98948380D01*
X142818738Y-99043619D01*
X143294928Y-99281714D02*
X143294928Y-99948380D01*
X143294928Y-99376952D02*
X143342547Y-99329333D01*
X143437785Y-99281714D01*
X143580642Y-99281714D01*
X143675880Y-99329333D01*
X143723500Y-99424571D01*
X143723500Y-99948380D01*
X144628261Y-99281714D02*
X144628261Y-100091238D01*
X144580642Y-100186476D01*
X144533023Y-100234095D01*
X144437785Y-100281714D01*
X144294928Y-100281714D01*
X144199690Y-100234095D01*
X144628261Y-99900761D02*
X144533023Y-99948380D01*
X144342547Y-99948380D01*
X144247309Y-99900761D01*
X144199690Y-99853142D01*
X144152071Y-99757904D01*
X144152071Y-99472190D01*
X144199690Y-99376952D01*
X144247309Y-99329333D01*
X144342547Y-99281714D01*
X144533023Y-99281714D01*
X144628261Y-99329333D01*
X145866357Y-99948380D02*
X145866357Y-99281714D01*
X145866357Y-98948380D02*
X145818738Y-98996000D01*
X145866357Y-99043619D01*
X145913976Y-98996000D01*
X145866357Y-98948380D01*
X145866357Y-99043619D01*
X146294928Y-99900761D02*
X146390166Y-99948380D01*
X146580642Y-99948380D01*
X146675880Y-99900761D01*
X146723500Y-99805523D01*
X146723500Y-99757904D01*
X146675880Y-99662666D01*
X146580642Y-99615047D01*
X146437785Y-99615047D01*
X146342547Y-99567428D01*
X146294928Y-99472190D01*
X146294928Y-99424571D01*
X146342547Y-99329333D01*
X146437785Y-99281714D01*
X146580642Y-99281714D01*
X146675880Y-99329333D01*
X147913976Y-99948380D02*
X147913976Y-99281714D01*
X147913976Y-98948380D02*
X147866357Y-98996000D01*
X147913976Y-99043619D01*
X147961595Y-98996000D01*
X147913976Y-98948380D01*
X147913976Y-99043619D01*
X148342547Y-99900761D02*
X148437785Y-99948380D01*
X148628261Y-99948380D01*
X148723500Y-99900761D01*
X148771119Y-99805523D01*
X148771119Y-99757904D01*
X148723500Y-99662666D01*
X148628261Y-99615047D01*
X148485404Y-99615047D01*
X148390166Y-99567428D01*
X148342547Y-99472190D01*
X148342547Y-99424571D01*
X148390166Y-99329333D01*
X148485404Y-99281714D01*
X148628261Y-99281714D01*
X148723500Y-99329333D01*
X149342547Y-99948380D02*
X149247309Y-99900761D01*
X149199690Y-99853142D01*
X149152071Y-99757904D01*
X149152071Y-99472190D01*
X149199690Y-99376952D01*
X149247309Y-99329333D01*
X149342547Y-99281714D01*
X149485404Y-99281714D01*
X149580642Y-99329333D01*
X149628261Y-99376952D01*
X149675880Y-99472190D01*
X149675880Y-99757904D01*
X149628261Y-99853142D01*
X149580642Y-99900761D01*
X149485404Y-99948380D01*
X149342547Y-99948380D01*
X150247309Y-99948380D02*
X150152071Y-99900761D01*
X150104452Y-99805523D01*
X150104452Y-98948380D01*
X151056833Y-99948380D02*
X151056833Y-99424571D01*
X151009214Y-99329333D01*
X150913976Y-99281714D01*
X150723500Y-99281714D01*
X150628261Y-99329333D01*
X151056833Y-99900761D02*
X150961595Y-99948380D01*
X150723500Y-99948380D01*
X150628261Y-99900761D01*
X150580642Y-99805523D01*
X150580642Y-99710285D01*
X150628261Y-99615047D01*
X150723500Y-99567428D01*
X150961595Y-99567428D01*
X151056833Y-99519809D01*
X151390166Y-99281714D02*
X151771119Y-99281714D01*
X151533023Y-98948380D02*
X151533023Y-99805523D01*
X151580642Y-99900761D01*
X151675880Y-99948380D01*
X151771119Y-99948380D01*
X152485404Y-99900761D02*
X152390166Y-99948380D01*
X152199690Y-99948380D01*
X152104452Y-99900761D01*
X152056833Y-99805523D01*
X152056833Y-99424571D01*
X152104452Y-99329333D01*
X152199690Y-99281714D01*
X152390166Y-99281714D01*
X152485404Y-99329333D01*
X152533023Y-99424571D01*
X152533023Y-99519809D01*
X152056833Y-99615047D01*
X153390166Y-99948380D02*
X153390166Y-98948380D01*
X153390166Y-99900761D02*
X153294928Y-99948380D01*
X153104452Y-99948380D01*
X153009214Y-99900761D01*
X152961595Y-99853142D01*
X152913976Y-99757904D01*
X152913976Y-99472190D01*
X152961595Y-99376952D01*
X153009214Y-99329333D01*
X153104452Y-99281714D01*
X153294928Y-99281714D01*
X153390166Y-99329333D01*
X154628261Y-99948380D02*
X154628261Y-98948380D01*
X154628261Y-99329333D02*
X154723500Y-99281714D01*
X154913976Y-99281714D01*
X155009214Y-99329333D01*
X155056833Y-99376952D01*
X155104452Y-99472190D01*
X155104452Y-99757904D01*
X155056833Y-99853142D01*
X155009214Y-99900761D01*
X154913976Y-99948380D01*
X154723500Y-99948380D01*
X154628261Y-99900761D01*
X155437785Y-99281714D02*
X155675880Y-99948380D01*
X155913976Y-99281714D02*
X155675880Y-99948380D01*
X155580642Y-100186476D01*
X155533023Y-100234095D01*
X155437785Y-100281714D01*
X157485404Y-99948380D02*
X157485404Y-99424571D01*
X157437785Y-99329333D01*
X157342547Y-99281714D01*
X157152071Y-99281714D01*
X157056833Y-99329333D01*
X157485404Y-99900761D02*
X157390166Y-99948380D01*
X157152071Y-99948380D01*
X157056833Y-99900761D01*
X157009214Y-99805523D01*
X157009214Y-99710285D01*
X157056833Y-99615047D01*
X157152071Y-99567428D01*
X157390166Y-99567428D01*
X157485404Y-99519809D01*
X158723500Y-99948380D02*
X158723500Y-98948380D01*
X158961595Y-98948380D01*
X159104452Y-98996000D01*
X159199690Y-99091238D01*
X159247309Y-99186476D01*
X159294928Y-99376952D01*
X159294928Y-99519809D01*
X159247309Y-99710285D01*
X159199690Y-99805523D01*
X159104452Y-99900761D01*
X158961595Y-99948380D01*
X158723500Y-99948380D01*
X159723500Y-99948380D02*
X159723500Y-98948380D01*
X160056833Y-99662666D01*
X160390166Y-98948380D01*
X160390166Y-99948380D01*
X160771119Y-98948380D02*
X161437785Y-98948380D01*
X160771119Y-99948380D01*
X161437785Y-99948380D01*
X162961595Y-99900761D02*
X162866357Y-99948380D01*
X162675880Y-99948380D01*
X162580642Y-99900761D01*
X162533023Y-99805523D01*
X162533023Y-99424571D01*
X162580642Y-99329333D01*
X162675880Y-99281714D01*
X162866357Y-99281714D01*
X162961595Y-99329333D01*
X163009214Y-99424571D01*
X163009214Y-99519809D01*
X162533023Y-99615047D01*
X163342547Y-99948380D02*
X163866357Y-99281714D01*
X163342547Y-99281714D02*
X163866357Y-99948380D01*
X164675880Y-99900761D02*
X164580642Y-99948380D01*
X164390166Y-99948380D01*
X164294928Y-99900761D01*
X164247309Y-99853142D01*
X164199690Y-99757904D01*
X164199690Y-99472190D01*
X164247309Y-99376952D01*
X164294928Y-99329333D01*
X164390166Y-99281714D01*
X164580642Y-99281714D01*
X164675880Y-99329333D01*
X165485404Y-99900761D02*
X165390166Y-99948380D01*
X165199690Y-99948380D01*
X165104452Y-99900761D01*
X165056833Y-99805523D01*
X165056833Y-99424571D01*
X165104452Y-99329333D01*
X165199690Y-99281714D01*
X165390166Y-99281714D01*
X165485404Y-99329333D01*
X165533023Y-99424571D01*
X165533023Y-99519809D01*
X165056833Y-99615047D01*
X165961595Y-99281714D02*
X165961595Y-100281714D01*
X165961595Y-99329333D02*
X166056833Y-99281714D01*
X166247309Y-99281714D01*
X166342547Y-99329333D01*
X166390166Y-99376952D01*
X166437785Y-99472190D01*
X166437785Y-99757904D01*
X166390166Y-99853142D01*
X166342547Y-99900761D01*
X166247309Y-99948380D01*
X166056833Y-99948380D01*
X165961595Y-99900761D01*
X166723500Y-99281714D02*
X167104452Y-99281714D01*
X166866357Y-98948380D02*
X166866357Y-99805523D01*
X166913976Y-99900761D01*
X167009214Y-99948380D01*
X167104452Y-99948380D01*
X168152071Y-99662666D02*
X168628261Y-99662666D01*
X168056833Y-99948380D02*
X168390166Y-98948380D01*
X168723500Y-99948380D01*
X168913976Y-98948380D02*
X169485404Y-98948380D01*
X169199690Y-99948380D02*
X169199690Y-98948380D01*
X170390166Y-99948380D02*
X170056833Y-99472190D01*
X169818738Y-99948380D02*
X169818738Y-98948380D01*
X170199690Y-98948380D01*
X170294928Y-98996000D01*
X170342547Y-99043619D01*
X170390166Y-99138857D01*
X170390166Y-99281714D01*
X170342547Y-99376952D01*
X170294928Y-99424571D01*
X170199690Y-99472190D01*
X169818738Y-99472190D01*
X170818738Y-99948380D02*
X170818738Y-98948380D01*
X171152071Y-99662666D01*
X171485404Y-98948380D01*
X171485404Y-99948380D01*
X172485404Y-99948380D02*
X171913976Y-99948380D01*
X172199690Y-99948380D02*
X172199690Y-98948380D01*
X172104452Y-99091238D01*
X172009214Y-99186476D01*
X171913976Y-99234095D01*
X173628261Y-98900761D02*
X172771119Y-100186476D01*
X173913976Y-99043619D02*
X173961595Y-98996000D01*
X174056833Y-98948380D01*
X174294928Y-98948380D01*
X174390166Y-98996000D01*
X174437785Y-99043619D01*
X174485404Y-99138857D01*
X174485404Y-99234095D01*
X174437785Y-99376952D01*
X173866357Y-99948380D01*
X174485404Y-99948380D01*
X136104452Y-100558380D02*
X136104452Y-100796476D01*
X135866357Y-100701238D02*
X136104452Y-100796476D01*
X136342547Y-100701238D01*
X135961595Y-100986952D02*
X136104452Y-100796476D01*
X136247309Y-100986952D01*
X137485404Y-100891714D02*
X137485404Y-101558380D01*
X137485404Y-100986952D02*
X137533023Y-100939333D01*
X137628261Y-100891714D01*
X137771119Y-100891714D01*
X137866357Y-100939333D01*
X137913976Y-101034571D01*
X137913976Y-101558380D01*
X138533023Y-101558380D02*
X138437785Y-101510761D01*
X138390166Y-101463142D01*
X138342547Y-101367904D01*
X138342547Y-101082190D01*
X138390166Y-100986952D01*
X138437785Y-100939333D01*
X138533023Y-100891714D01*
X138675880Y-100891714D01*
X138771119Y-100939333D01*
X138818738Y-100986952D01*
X138866357Y-101082190D01*
X138866357Y-101367904D01*
X138818738Y-101463142D01*
X138771119Y-101510761D01*
X138675880Y-101558380D01*
X138533023Y-101558380D01*
X140485404Y-101510761D02*
X140390166Y-101558380D01*
X140199690Y-101558380D01*
X140104452Y-101510761D01*
X140056833Y-101463142D01*
X140009214Y-101367904D01*
X140009214Y-101082190D01*
X140056833Y-100986952D01*
X140104452Y-100939333D01*
X140199690Y-100891714D01*
X140390166Y-100891714D01*
X140485404Y-100939333D01*
X141056833Y-101558380D02*
X140961595Y-101510761D01*
X140913976Y-101463142D01*
X140866357Y-101367904D01*
X140866357Y-101082190D01*
X140913976Y-100986952D01*
X140961595Y-100939333D01*
X141056833Y-100891714D01*
X141199690Y-100891714D01*
X141294928Y-100939333D01*
X141342547Y-100986952D01*
X141390166Y-101082190D01*
X141390166Y-101367904D01*
X141342547Y-101463142D01*
X141294928Y-101510761D01*
X141199690Y-101558380D01*
X141056833Y-101558380D01*
X141818738Y-100891714D02*
X141818738Y-101891714D01*
X141818738Y-100939333D02*
X141913976Y-100891714D01*
X142104452Y-100891714D01*
X142199690Y-100939333D01*
X142247309Y-100986952D01*
X142294928Y-101082190D01*
X142294928Y-101367904D01*
X142247309Y-101463142D01*
X142199690Y-101510761D01*
X142104452Y-101558380D01*
X141913976Y-101558380D01*
X141818738Y-101510761D01*
X142723500Y-100891714D02*
X142723500Y-101891714D01*
X142723500Y-100939333D02*
X142818738Y-100891714D01*
X143009214Y-100891714D01*
X143104452Y-100939333D01*
X143152071Y-100986952D01*
X143199690Y-101082190D01*
X143199690Y-101367904D01*
X143152071Y-101463142D01*
X143104452Y-101510761D01*
X143009214Y-101558380D01*
X142818738Y-101558380D01*
X142723500Y-101510761D01*
X144009214Y-101510761D02*
X143913976Y-101558380D01*
X143723500Y-101558380D01*
X143628261Y-101510761D01*
X143580642Y-101415523D01*
X143580642Y-101034571D01*
X143628261Y-100939333D01*
X143723500Y-100891714D01*
X143913976Y-100891714D01*
X144009214Y-100939333D01*
X144056833Y-101034571D01*
X144056833Y-101129809D01*
X143580642Y-101225047D01*
X144485404Y-101558380D02*
X144485404Y-100891714D01*
X144485404Y-101082190D02*
X144533023Y-100986952D01*
X144580642Y-100939333D01*
X144675880Y-100891714D01*
X144771119Y-100891714D01*
X145723500Y-100891714D02*
X146104452Y-100891714D01*
X145866357Y-101558380D02*
X145866357Y-100701238D01*
X145913976Y-100606000D01*
X146009214Y-100558380D01*
X146104452Y-100558380D01*
X146437785Y-101558380D02*
X146437785Y-100891714D01*
X146437785Y-100558380D02*
X146390166Y-100606000D01*
X146437785Y-100653619D01*
X146485404Y-100606000D01*
X146437785Y-100558380D01*
X146437785Y-100653619D01*
X147056833Y-101558380D02*
X146961595Y-101510761D01*
X146913976Y-101415523D01*
X146913976Y-100558380D01*
X147580642Y-101558380D02*
X147485404Y-101510761D01*
X147437785Y-101415523D01*
X147437785Y-100558380D01*
X148866357Y-101558380D02*
X148771119Y-101510761D01*
X148723500Y-101463142D01*
X148675880Y-101367904D01*
X148675880Y-101082190D01*
X148723500Y-100986952D01*
X148771119Y-100939333D01*
X148866357Y-100891714D01*
X149009214Y-100891714D01*
X149104452Y-100939333D01*
X149152071Y-100986952D01*
X149199690Y-101082190D01*
X149199690Y-101367904D01*
X149152071Y-101463142D01*
X149104452Y-101510761D01*
X149009214Y-101558380D01*
X148866357Y-101558380D01*
X149628261Y-100891714D02*
X149628261Y-101558380D01*
X149628261Y-100986952D02*
X149675880Y-100939333D01*
X149771119Y-100891714D01*
X149913976Y-100891714D01*
X150009214Y-100939333D01*
X150056833Y-101034571D01*
X150056833Y-101558380D01*
X151152071Y-100891714D02*
X151533023Y-100891714D01*
X151294928Y-100558380D02*
X151294928Y-101415523D01*
X151342547Y-101510761D01*
X151437785Y-101558380D01*
X151533023Y-101558380D01*
X152009214Y-101558380D02*
X151913976Y-101510761D01*
X151866357Y-101463142D01*
X151818738Y-101367904D01*
X151818738Y-101082190D01*
X151866357Y-100986952D01*
X151913976Y-100939333D01*
X152009214Y-100891714D01*
X152152071Y-100891714D01*
X152247309Y-100939333D01*
X152294928Y-100986952D01*
X152342547Y-101082190D01*
X152342547Y-101367904D01*
X152294928Y-101463142D01*
X152247309Y-101510761D01*
X152152071Y-101558380D01*
X152009214Y-101558380D01*
X152771119Y-100891714D02*
X152771119Y-101891714D01*
X152771119Y-100939333D02*
X152866357Y-100891714D01*
X153056833Y-100891714D01*
X153152071Y-100939333D01*
X153199690Y-100986952D01*
X153247309Y-101082190D01*
X153247309Y-101367904D01*
X153199690Y-101463142D01*
X153152071Y-101510761D01*
X153056833Y-101558380D01*
X152866357Y-101558380D01*
X152771119Y-101510761D01*
X154580642Y-101558380D02*
X154485404Y-101510761D01*
X154437785Y-101415523D01*
X154437785Y-100558380D01*
X155342547Y-101510761D02*
X155247309Y-101558380D01*
X155056833Y-101558380D01*
X154961595Y-101510761D01*
X154913976Y-101415523D01*
X154913976Y-101034571D01*
X154961595Y-100939333D01*
X155056833Y-100891714D01*
X155247309Y-100891714D01*
X155342547Y-100939333D01*
X155390166Y-101034571D01*
X155390166Y-101129809D01*
X154913976Y-101225047D01*
X155723500Y-100891714D02*
X155961595Y-101558380D01*
X156199690Y-100891714D01*
X156961595Y-101510761D02*
X156866357Y-101558380D01*
X156675880Y-101558380D01*
X156580642Y-101510761D01*
X156533023Y-101415523D01*
X156533023Y-101034571D01*
X156580642Y-100939333D01*
X156675880Y-100891714D01*
X156866357Y-100891714D01*
X156961595Y-100939333D01*
X157009214Y-101034571D01*
X157009214Y-101129809D01*
X156533023Y-101225047D01*
X157580642Y-101558380D02*
X157485404Y-101510761D01*
X157437785Y-101415523D01*
X157437785Y-100558380D01*
X157961595Y-101463142D02*
X158009214Y-101510761D01*
X157961595Y-101558380D01*
X157913976Y-101510761D01*
X157961595Y-101463142D01*
X157961595Y-101558380D01*
X159199690Y-100891714D02*
X159199690Y-101558380D01*
X159199690Y-100986952D02*
X159247309Y-100939333D01*
X159342547Y-100891714D01*
X159485404Y-100891714D01*
X159580642Y-100939333D01*
X159628261Y-101034571D01*
X159628261Y-101558380D01*
X160247309Y-101558380D02*
X160152071Y-101510761D01*
X160104452Y-101463142D01*
X160056833Y-101367904D01*
X160056833Y-101082190D01*
X160104452Y-100986952D01*
X160152071Y-100939333D01*
X160247309Y-100891714D01*
X160390166Y-100891714D01*
X160485404Y-100939333D01*
X160533023Y-100986952D01*
X160580642Y-101082190D01*
X160580642Y-101367904D01*
X160533023Y-101463142D01*
X160485404Y-101510761D01*
X160390166Y-101558380D01*
X160247309Y-101558380D01*
X160866357Y-100891714D02*
X161247309Y-100891714D01*
X161009214Y-100558380D02*
X161009214Y-101415523D01*
X161056833Y-101510761D01*
X161152071Y-101558380D01*
X161247309Y-101558380D01*
X162342547Y-100891714D02*
X162342547Y-101558380D01*
X162342547Y-100986952D02*
X162390166Y-100939333D01*
X162485404Y-100891714D01*
X162628261Y-100891714D01*
X162723500Y-100939333D01*
X162771119Y-101034571D01*
X162771119Y-101558380D01*
X163628261Y-101510761D02*
X163533023Y-101558380D01*
X163342547Y-101558380D01*
X163247309Y-101510761D01*
X163199690Y-101415523D01*
X163199690Y-101034571D01*
X163247309Y-100939333D01*
X163342547Y-100891714D01*
X163533023Y-100891714D01*
X163628261Y-100939333D01*
X163675880Y-101034571D01*
X163675880Y-101129809D01*
X163199690Y-101225047D01*
X164485404Y-101510761D02*
X164390166Y-101558380D01*
X164199690Y-101558380D01*
X164104452Y-101510761D01*
X164056833Y-101415523D01*
X164056833Y-101034571D01*
X164104452Y-100939333D01*
X164199690Y-100891714D01*
X164390166Y-100891714D01*
X164485404Y-100939333D01*
X164533023Y-101034571D01*
X164533023Y-101129809D01*
X164056833Y-101225047D01*
X165390166Y-101558380D02*
X165390166Y-100558380D01*
X165390166Y-101510761D02*
X165294928Y-101558380D01*
X165104452Y-101558380D01*
X165009214Y-101510761D01*
X164961595Y-101463142D01*
X164913976Y-101367904D01*
X164913976Y-101082190D01*
X164961595Y-100986952D01*
X165009214Y-100939333D01*
X165104452Y-100891714D01*
X165294928Y-100891714D01*
X165390166Y-100939333D01*
X166247309Y-101510761D02*
X166152071Y-101558380D01*
X165961595Y-101558380D01*
X165866357Y-101510761D01*
X165818738Y-101415523D01*
X165818738Y-101034571D01*
X165866357Y-100939333D01*
X165961595Y-100891714D01*
X166152071Y-100891714D01*
X166247309Y-100939333D01*
X166294928Y-101034571D01*
X166294928Y-101129809D01*
X165818738Y-101225047D01*
X167152071Y-101558380D02*
X167152071Y-100558380D01*
X167152071Y-101510761D02*
X167056833Y-101558380D01*
X166866357Y-101558380D01*
X166771119Y-101510761D01*
X166723500Y-101463142D01*
X166675880Y-101367904D01*
X166675880Y-101082190D01*
X166723500Y-100986952D01*
X166771119Y-100939333D01*
X166866357Y-100891714D01*
X167056833Y-100891714D01*
X167152071Y-100939333D01*
X123896666Y-90892380D02*
X124230000Y-91892380D01*
X124563333Y-90892380D01*
X124896666Y-91892380D02*
X124896666Y-90892380D01*
X125372857Y-91892380D02*
X125372857Y-90892380D01*
X125944285Y-91892380D01*
X125944285Y-90892380D01*
X124563333Y-88400000D02*
X124468095Y-88352380D01*
X124325238Y-88352380D01*
X124182380Y-88400000D01*
X124087142Y-88495238D01*
X124039523Y-88590476D01*
X123991904Y-88780952D01*
X123991904Y-88923809D01*
X124039523Y-89114285D01*
X124087142Y-89209523D01*
X124182380Y-89304761D01*
X124325238Y-89352380D01*
X124420476Y-89352380D01*
X124563333Y-89304761D01*
X124610952Y-89257142D01*
X124610952Y-88923809D01*
X124420476Y-88923809D01*
X125039523Y-89352380D02*
X125039523Y-88352380D01*
X125610952Y-89352380D01*
X125610952Y-88352380D01*
X126087142Y-89352380D02*
X126087142Y-88352380D01*
X126325238Y-88352380D01*
X126468095Y-88400000D01*
X126563333Y-88495238D01*
X126610952Y-88590476D01*
X126658571Y-88780952D01*
X126658571Y-88923809D01*
X126610952Y-89114285D01*
X126563333Y-89209523D01*
X126468095Y-89304761D01*
X126325238Y-89352380D01*
X126087142Y-89352380D01*
X104227380Y-102163333D02*
X104227380Y-101591904D01*
X105227380Y-101877619D02*
X104227380Y-101877619D01*
X105227380Y-100687142D02*
X104751190Y-101020476D01*
X105227380Y-101258571D02*
X104227380Y-101258571D01*
X104227380Y-100877619D01*
X104275000Y-100782380D01*
X104322619Y-100734761D01*
X104417857Y-100687142D01*
X104560714Y-100687142D01*
X104655952Y-100734761D01*
X104703571Y-100782380D01*
X104751190Y-100877619D01*
X104751190Y-101258571D01*
X105227380Y-100258571D02*
X104227380Y-100258571D01*
X104941666Y-99925238D01*
X104227380Y-99591904D01*
X105227380Y-99591904D01*
X105227380Y-98591904D02*
X105227380Y-99163333D01*
X105227380Y-98877619D02*
X104227380Y-98877619D01*
X104370238Y-98972857D01*
X104465476Y-99068095D01*
X104513095Y-99163333D01*
D11*
X111233333Y-88923066D02*
X111633333Y-88923066D01*
X111433333Y-89623066D02*
X111433333Y-88923066D01*
X111866666Y-89623066D02*
X111866666Y-88923066D01*
X111866666Y-89256400D02*
X112266666Y-89256400D01*
X112266666Y-89623066D02*
X112266666Y-88923066D01*
X112600000Y-89256400D02*
X112833333Y-89256400D01*
X112933333Y-89623066D02*
X112600000Y-89623066D01*
X112600000Y-88923066D01*
X112933333Y-88923066D01*
X113633333Y-89623066D02*
X113400000Y-89289733D01*
X113233333Y-89623066D02*
X113233333Y-88923066D01*
X113500000Y-88923066D01*
X113566666Y-88956400D01*
X113600000Y-88989733D01*
X113633333Y-89056400D01*
X113633333Y-89156400D01*
X113600000Y-89223066D01*
X113566666Y-89256400D01*
X113500000Y-89289733D01*
X113233333Y-89289733D01*
X113933333Y-89623066D02*
X113933333Y-88923066D01*
X114166666Y-89423066D01*
X114400000Y-88923066D01*
X114400000Y-89623066D01*
X114733333Y-89623066D02*
X114733333Y-88923066D01*
X115033333Y-89589733D02*
X115133333Y-89623066D01*
X115300000Y-89623066D01*
X115366666Y-89589733D01*
X115400000Y-89556400D01*
X115433333Y-89489733D01*
X115433333Y-89423066D01*
X115400000Y-89356400D01*
X115366666Y-89323066D01*
X115300000Y-89289733D01*
X115166666Y-89256400D01*
X115100000Y-89223066D01*
X115066666Y-89189733D01*
X115033333Y-89123066D01*
X115033333Y-89056400D01*
X115066666Y-88989733D01*
X115100000Y-88956400D01*
X115166666Y-88923066D01*
X115333333Y-88923066D01*
X115433333Y-88956400D01*
X115633333Y-88923066D02*
X116033333Y-88923066D01*
X115833333Y-89623066D02*
X115833333Y-88923066D01*
X116266666Y-89256400D02*
X116500000Y-89256400D01*
X116600000Y-89623066D02*
X116266666Y-89623066D01*
X116266666Y-88923066D01*
X116600000Y-88923066D01*
X117300000Y-89623066D02*
X117066666Y-89289733D01*
X116900000Y-89623066D02*
X116900000Y-88923066D01*
X117166666Y-88923066D01*
X117233333Y-88956400D01*
X117266666Y-88989733D01*
X117300000Y-89056400D01*
X117300000Y-89156400D01*
X117266666Y-89223066D01*
X117233333Y-89256400D01*
X117166666Y-89289733D01*
X116900000Y-89289733D01*
D10*
X124610952Y-76557142D02*
X124563333Y-76604761D01*
X124420476Y-76652380D01*
X124325238Y-76652380D01*
X124182381Y-76604761D01*
X124087143Y-76509523D01*
X124039524Y-76414285D01*
X123991905Y-76223809D01*
X123991905Y-76080952D01*
X124039524Y-75890476D01*
X124087143Y-75795238D01*
X124182381Y-75700000D01*
X124325238Y-75652380D01*
X124420476Y-75652380D01*
X124563333Y-75700000D01*
X124610952Y-75747619D01*
X124991905Y-76604761D02*
X125134762Y-76652380D01*
X125372857Y-76652380D01*
X125468095Y-76604761D01*
X125515714Y-76557142D01*
X125563333Y-76461904D01*
X125563333Y-76366666D01*
X125515714Y-76271428D01*
X125468095Y-76223809D01*
X125372857Y-76176190D01*
X125182381Y-76128571D01*
X125087143Y-76080952D01*
X125039524Y-76033333D01*
X124991905Y-75938095D01*
X124991905Y-75842857D01*
X125039524Y-75747619D01*
X125087143Y-75700000D01*
X125182381Y-75652380D01*
X125420476Y-75652380D01*
X125563333Y-75700000D01*
X126658571Y-76747619D02*
X126563333Y-76700000D01*
X126468095Y-76604761D01*
X126325238Y-76461904D01*
X126230000Y-76414285D01*
X126134762Y-76414285D01*
X126182381Y-76652380D02*
X126087143Y-76604761D01*
X125991905Y-76509523D01*
X125944286Y-76319047D01*
X125944286Y-75985714D01*
X125991905Y-75795238D01*
X126087143Y-75700000D01*
X126182381Y-75652380D01*
X126372857Y-75652380D01*
X126468095Y-75700000D01*
X126563333Y-75795238D01*
X126610952Y-75985714D01*
X126610952Y-76319047D01*
X126563333Y-76509523D01*
X126468095Y-76604761D01*
X126372857Y-76652380D01*
X126182381Y-76652380D01*
X123991904Y-74584761D02*
X124134761Y-74632380D01*
X124372857Y-74632380D01*
X124468095Y-74584761D01*
X124515714Y-74537142D01*
X124563333Y-74441904D01*
X124563333Y-74346666D01*
X124515714Y-74251428D01*
X124468095Y-74203809D01*
X124372857Y-74156190D01*
X124182380Y-74108571D01*
X124087142Y-74060952D01*
X124039523Y-74013333D01*
X123991904Y-73918095D01*
X123991904Y-73822857D01*
X124039523Y-73727619D01*
X124087142Y-73680000D01*
X124182380Y-73632380D01*
X124420476Y-73632380D01*
X124563333Y-73680000D01*
X125563333Y-74537142D02*
X125515714Y-74584761D01*
X125372857Y-74632380D01*
X125277619Y-74632380D01*
X125134761Y-74584761D01*
X125039523Y-74489523D01*
X124991904Y-74394285D01*
X124944285Y-74203809D01*
X124944285Y-74060952D01*
X124991904Y-73870476D01*
X125039523Y-73775238D01*
X125134761Y-73680000D01*
X125277619Y-73632380D01*
X125372857Y-73632380D01*
X125515714Y-73680000D01*
X125563333Y-73727619D01*
X125991904Y-74632380D02*
X125991904Y-73632380D01*
X126563333Y-74632380D02*
X126134761Y-74060952D01*
X126563333Y-73632380D02*
X125991904Y-74203809D01*
X109355000Y-100687142D02*
X109307380Y-100782380D01*
X109307380Y-100925238D01*
X109355000Y-101068095D01*
X109450238Y-101163333D01*
X109545476Y-101210952D01*
X109735952Y-101258571D01*
X109878809Y-101258571D01*
X110069285Y-101210952D01*
X110164523Y-101163333D01*
X110259761Y-101068095D01*
X110307380Y-100925238D01*
X110307380Y-100829999D01*
X110259761Y-100687142D01*
X110212142Y-100639523D01*
X109878809Y-100639523D01*
X109878809Y-100829999D01*
X110307380Y-100210952D02*
X109307380Y-100210952D01*
X110307380Y-99639523D01*
X109307380Y-99639523D01*
X110307380Y-99163333D02*
X109307380Y-99163333D01*
X109307380Y-98925238D01*
X109355000Y-98782380D01*
X109450238Y-98687142D01*
X109545476Y-98639523D01*
X109735952Y-98591904D01*
X109878809Y-98591904D01*
X110069285Y-98639523D01*
X110164523Y-98687142D01*
X110259761Y-98782380D01*
X110307380Y-98925238D01*
X110307380Y-99163333D01*
X123896666Y-83272380D02*
X124468095Y-83272380D01*
X124182380Y-84272380D02*
X124182380Y-83272380D01*
X125372857Y-84272380D02*
X125039523Y-83796190D01*
X124801428Y-84272380D02*
X124801428Y-83272380D01*
X125182380Y-83272380D01*
X125277619Y-83320000D01*
X125325238Y-83367619D01*
X125372857Y-83462857D01*
X125372857Y-83605714D01*
X125325238Y-83700952D01*
X125277619Y-83748571D01*
X125182380Y-83796190D01*
X124801428Y-83796190D01*
X125801428Y-84272380D02*
X125801428Y-83272380D01*
X126134761Y-83986666D01*
X126468095Y-83272380D01*
X126468095Y-84272380D01*
X127468095Y-84272380D02*
X126896666Y-84272380D01*
X127182380Y-84272380D02*
X127182380Y-83272380D01*
X127087142Y-83415238D01*
X126991904Y-83510476D01*
X126896666Y-83558095D01*
X123896666Y-85812380D02*
X124468095Y-85812380D01*
X124182380Y-86812380D02*
X124182380Y-85812380D01*
X125372857Y-86812380D02*
X125039523Y-86336190D01*
X124801428Y-86812380D02*
X124801428Y-85812380D01*
X125182380Y-85812380D01*
X125277619Y-85860000D01*
X125325238Y-85907619D01*
X125372857Y-86002857D01*
X125372857Y-86145714D01*
X125325238Y-86240952D01*
X125277619Y-86288571D01*
X125182380Y-86336190D01*
X124801428Y-86336190D01*
X125801428Y-86812380D02*
X125801428Y-85812380D01*
X126134761Y-86526666D01*
X126468095Y-85812380D01*
X126468095Y-86812380D01*
X126896666Y-85907619D02*
X126944285Y-85860000D01*
X127039523Y-85812380D01*
X127277619Y-85812380D01*
X127372857Y-85860000D01*
X127420476Y-85907619D01*
X127468095Y-86002857D01*
X127468095Y-86098095D01*
X127420476Y-86240952D01*
X126849047Y-86812380D01*
X127468095Y-86812380D01*
X124039524Y-79192380D02*
X124039524Y-78192380D01*
X124372857Y-78906666D01*
X124706191Y-78192380D01*
X124706191Y-79192380D01*
X125372857Y-78192380D02*
X125563333Y-78192380D01*
X125658572Y-78240000D01*
X125753810Y-78335238D01*
X125801429Y-78525714D01*
X125801429Y-78859047D01*
X125753810Y-79049523D01*
X125658572Y-79144761D01*
X125563333Y-79192380D01*
X125372857Y-79192380D01*
X125277619Y-79144761D01*
X125182381Y-79049523D01*
X125134762Y-78859047D01*
X125134762Y-78525714D01*
X125182381Y-78335238D01*
X125277619Y-78240000D01*
X125372857Y-78192380D01*
X126182381Y-79144761D02*
X126325238Y-79192380D01*
X126563333Y-79192380D01*
X126658572Y-79144761D01*
X126706191Y-79097142D01*
X126753810Y-79001904D01*
X126753810Y-78906666D01*
X126706191Y-78811428D01*
X126658572Y-78763809D01*
X126563333Y-78716190D01*
X126372857Y-78668571D01*
X126277619Y-78620952D01*
X126230000Y-78573333D01*
X126182381Y-78478095D01*
X126182381Y-78382857D01*
X126230000Y-78287619D01*
X126277619Y-78240000D01*
X126372857Y-78192380D01*
X126610953Y-78192380D01*
X126753810Y-78240000D01*
X127182381Y-79192380D02*
X127182381Y-78192380D01*
D12*
X89190742Y-87822114D02*
X89133600Y-87936400D01*
X89019314Y-88050685D01*
X88847885Y-88222114D01*
X88790742Y-88336400D01*
X88790742Y-88450685D01*
X89076457Y-88393542D02*
X89019314Y-88507828D01*
X88905028Y-88622114D01*
X88676457Y-88679257D01*
X88276457Y-88679257D01*
X88047885Y-88622114D01*
X87933600Y-88507828D01*
X87876457Y-88393542D01*
X87876457Y-88164971D01*
X87933600Y-88050685D01*
X88047885Y-87936400D01*
X88276457Y-87879257D01*
X88676457Y-87879257D01*
X88905028Y-87936400D01*
X89019314Y-88050685D01*
X89076457Y-88164971D01*
X89076457Y-88393542D01*
X89019314Y-87422114D02*
X89076457Y-87250685D01*
X89076457Y-86964971D01*
X89019314Y-86850685D01*
X88962171Y-86793542D01*
X88847885Y-86736400D01*
X88733600Y-86736400D01*
X88619314Y-86793542D01*
X88562171Y-86850685D01*
X88505028Y-86964971D01*
X88447885Y-87193542D01*
X88390742Y-87307828D01*
X88333600Y-87364971D01*
X88219314Y-87422114D01*
X88105028Y-87422114D01*
X87990742Y-87364971D01*
X87933600Y-87307828D01*
X87876457Y-87193542D01*
X87876457Y-86907828D01*
X87933600Y-86736400D01*
X89076457Y-85593542D02*
X89076457Y-86279257D01*
X89076457Y-85936400D02*
X87876457Y-85936400D01*
X88047885Y-86050685D01*
X88162171Y-86164971D01*
X88219314Y-86279257D01*
X87876457Y-84564971D02*
X87876457Y-84793542D01*
X87933600Y-84907828D01*
X87990742Y-84964971D01*
X88162171Y-85079257D01*
X88390742Y-85136400D01*
X88847885Y-85136400D01*
X88962171Y-85079257D01*
X89019314Y-85022114D01*
X89076457Y-84907828D01*
X89076457Y-84679257D01*
X89019314Y-84564971D01*
X88962171Y-84507828D01*
X88847885Y-84450685D01*
X88562171Y-84450685D01*
X88447885Y-84507828D01*
X88390742Y-84564971D01*
X88333600Y-84679257D01*
X88333600Y-84907828D01*
X88390742Y-85022114D01*
X88447885Y-85079257D01*
X88562171Y-85136400D01*
X87876457Y-83364971D02*
X87876457Y-83936400D01*
X88447885Y-83993542D01*
X88390742Y-83936400D01*
X88333600Y-83822114D01*
X88333600Y-83536400D01*
X88390742Y-83422114D01*
X88447885Y-83364971D01*
X88562171Y-83307828D01*
X88847885Y-83307828D01*
X88962171Y-83364971D01*
X89019314Y-83422114D01*
X89076457Y-83536400D01*
X89076457Y-83822114D01*
X89019314Y-83936400D01*
X88962171Y-83993542D01*
X88447885Y-81879257D02*
X88447885Y-81479257D01*
X89076457Y-81307828D02*
X89076457Y-81879257D01*
X87876457Y-81879257D01*
X87876457Y-81307828D01*
X89076457Y-80793542D02*
X87876457Y-80793542D01*
X89076457Y-80107828D01*
X87876457Y-80107828D01*
X88962171Y-78850685D02*
X89019314Y-78907828D01*
X89076457Y-79079257D01*
X89076457Y-79193542D01*
X89019314Y-79364971D01*
X88905028Y-79479257D01*
X88790742Y-79536400D01*
X88562171Y-79593542D01*
X88390742Y-79593542D01*
X88162171Y-79536400D01*
X88047885Y-79479257D01*
X87933600Y-79364971D01*
X87876457Y-79193542D01*
X87876457Y-79079257D01*
X87933600Y-78907828D01*
X87990742Y-78850685D01*
X87876457Y-78107828D02*
X87876457Y-77879257D01*
X87933600Y-77764971D01*
X88047885Y-77650685D01*
X88276457Y-77593542D01*
X88676457Y-77593542D01*
X88905028Y-77650685D01*
X89019314Y-77764971D01*
X89076457Y-77879257D01*
X89076457Y-78107828D01*
X89019314Y-78222114D01*
X88905028Y-78336400D01*
X88676457Y-78393542D01*
X88276457Y-78393542D01*
X88047885Y-78336400D01*
X87933600Y-78222114D01*
X87876457Y-78107828D01*
X89076457Y-77079257D02*
X87876457Y-77079257D01*
X87876457Y-76793542D01*
X87933600Y-76622114D01*
X88047885Y-76507828D01*
X88162171Y-76450685D01*
X88390742Y-76393542D01*
X88562171Y-76393542D01*
X88790742Y-76450685D01*
X88905028Y-76507828D01*
X89019314Y-76622114D01*
X89076457Y-76793542D01*
X89076457Y-77079257D01*
X88447885Y-75879257D02*
X88447885Y-75479257D01*
X89076457Y-75307828D02*
X89076457Y-75879257D01*
X87876457Y-75879257D01*
X87876457Y-75307828D01*
X89076457Y-74107828D02*
X88505028Y-74507828D01*
X89076457Y-74793542D02*
X87876457Y-74793542D01*
X87876457Y-74336400D01*
X87933600Y-74222114D01*
X87990742Y-74164971D01*
X88105028Y-74107828D01*
X88276457Y-74107828D01*
X88390742Y-74164971D01*
X88447885Y-74222114D01*
X88505028Y-74336400D01*
X88505028Y-74793542D01*
X89808457Y-90993542D02*
X89808457Y-90307828D01*
X91008457Y-90650685D02*
X89808457Y-90650685D01*
X91008457Y-89336400D02*
X91008457Y-89907828D01*
X89808457Y-89907828D01*
X90379885Y-88936400D02*
X90379885Y-88536400D01*
X91008457Y-88364971D02*
X91008457Y-88936400D01*
X89808457Y-88936400D01*
X89808457Y-88364971D01*
X89808457Y-87279257D02*
X89808457Y-87850685D01*
X90379885Y-87907828D01*
X90322742Y-87850685D01*
X90265600Y-87736400D01*
X90265600Y-87450685D01*
X90322742Y-87336400D01*
X90379885Y-87279257D01*
X90494171Y-87222114D01*
X90779885Y-87222114D01*
X90894171Y-87279257D01*
X90951314Y-87336400D01*
X91008457Y-87450685D01*
X91008457Y-87736400D01*
X90951314Y-87850685D01*
X90894171Y-87907828D01*
X89808457Y-86479257D02*
X89808457Y-86364971D01*
X89865600Y-86250685D01*
X89922742Y-86193542D01*
X90037028Y-86136400D01*
X90265600Y-86079257D01*
X90551314Y-86079257D01*
X90779885Y-86136400D01*
X90894171Y-86193542D01*
X90951314Y-86250685D01*
X91008457Y-86364971D01*
X91008457Y-86479257D01*
X90951314Y-86593542D01*
X90894171Y-86650685D01*
X90779885Y-86707828D01*
X90551314Y-86764971D01*
X90265600Y-86764971D01*
X90037028Y-86707828D01*
X89922742Y-86650685D01*
X89865600Y-86593542D01*
X89808457Y-86479257D01*
X91008457Y-84936400D02*
X91008457Y-85622114D01*
X91008457Y-85279257D02*
X89808457Y-85279257D01*
X89979885Y-85393542D01*
X90094171Y-85507828D01*
X90151314Y-85622114D01*
X89922742Y-84479257D02*
X89865600Y-84422114D01*
X89808457Y-84307828D01*
X89808457Y-84022114D01*
X89865600Y-83907828D01*
X89922742Y-83850685D01*
X90037028Y-83793542D01*
X90151314Y-83793542D01*
X90322742Y-83850685D01*
X91008457Y-84536400D01*
X91008457Y-83793542D01*
X90951314Y-82422114D02*
X91008457Y-82250685D01*
X91008457Y-81964971D01*
X90951314Y-81850685D01*
X90894171Y-81793542D01*
X90779885Y-81736400D01*
X90665600Y-81736400D01*
X90551314Y-81793542D01*
X90494171Y-81850685D01*
X90437028Y-81964971D01*
X90379885Y-82193542D01*
X90322742Y-82307828D01*
X90265600Y-82364971D01*
X90151314Y-82422114D01*
X90037028Y-82422114D01*
X89922742Y-82364971D01*
X89865600Y-82307828D01*
X89808457Y-82193542D01*
X89808457Y-81907828D01*
X89865600Y-81736400D01*
X90379885Y-81222114D02*
X90379885Y-80822114D01*
X91008457Y-80650685D02*
X91008457Y-81222114D01*
X89808457Y-81222114D01*
X89808457Y-80650685D01*
X91008457Y-80136400D02*
X89808457Y-80136400D01*
X91008457Y-79450685D01*
X89808457Y-79450685D01*
X90951314Y-78936400D02*
X91008457Y-78764971D01*
X91008457Y-78479257D01*
X90951314Y-78364971D01*
X90894171Y-78307828D01*
X90779885Y-78250685D01*
X90665600Y-78250685D01*
X90551314Y-78307828D01*
X90494171Y-78364971D01*
X90437028Y-78479257D01*
X90379885Y-78707828D01*
X90322742Y-78822114D01*
X90265600Y-78879257D01*
X90151314Y-78936400D01*
X90037028Y-78936400D01*
X89922742Y-78879257D01*
X89865600Y-78822114D01*
X89808457Y-78707828D01*
X89808457Y-78422114D01*
X89865600Y-78250685D01*
X89808457Y-77507828D02*
X89808457Y-77279257D01*
X89865600Y-77164971D01*
X89979885Y-77050685D01*
X90208457Y-76993542D01*
X90608457Y-76993542D01*
X90837028Y-77050685D01*
X90951314Y-77164971D01*
X91008457Y-77279257D01*
X91008457Y-77507828D01*
X90951314Y-77622114D01*
X90837028Y-77736400D01*
X90608457Y-77793542D01*
X90208457Y-77793542D01*
X89979885Y-77736400D01*
X89865600Y-77622114D01*
X89808457Y-77507828D01*
X91008457Y-75793542D02*
X90437028Y-76193542D01*
X91008457Y-76479257D02*
X89808457Y-76479257D01*
X89808457Y-76022114D01*
X89865600Y-75907828D01*
X89922742Y-75850685D01*
X90037028Y-75793542D01*
X90208457Y-75793542D01*
X90322742Y-75850685D01*
X90379885Y-75907828D01*
X90437028Y-76022114D01*
X90437028Y-76479257D01*
X89808457Y-74536400D02*
X91008457Y-74136400D01*
X89808457Y-73736400D01*
X91008457Y-72707828D02*
X91008457Y-73393542D01*
X91008457Y-73050685D02*
X89808457Y-73050685D01*
X89979885Y-73164971D01*
X90094171Y-73279257D01*
X90151314Y-73393542D01*
X90894171Y-72193542D02*
X90951314Y-72136400D01*
X91008457Y-72193542D01*
X90951314Y-72250685D01*
X90894171Y-72193542D01*
X91008457Y-72193542D01*
X89808457Y-71393542D02*
X89808457Y-71279257D01*
X89865600Y-71164971D01*
X89922742Y-71107828D01*
X90037028Y-71050685D01*
X90265600Y-70993542D01*
X90551314Y-70993542D01*
X90779885Y-71050685D01*
X90894171Y-71107828D01*
X90951314Y-71164971D01*
X91008457Y-71279257D01*
X91008457Y-71393542D01*
X90951314Y-71507828D01*
X90894171Y-71564971D01*
X90779885Y-71622114D01*
X90551314Y-71679257D01*
X90265600Y-71679257D01*
X90037028Y-71622114D01*
X89922742Y-71564971D01*
X89865600Y-71507828D01*
X89808457Y-71393542D01*
D13*
X79987566Y-114019446D02*
X80058994Y-114043256D01*
X80082804Y-114067065D01*
X80106613Y-114114684D01*
X80106613Y-114186113D01*
X80082804Y-114233732D01*
X80058994Y-114257541D01*
X80011375Y-114281351D01*
X79820899Y-114281351D01*
X79820899Y-113781351D01*
X79987566Y-113781351D01*
X80035185Y-113805161D01*
X80058994Y-113828970D01*
X80082804Y-113876589D01*
X80082804Y-113924208D01*
X80058994Y-113971827D01*
X80035185Y-113995637D01*
X79987566Y-114019446D01*
X79820899Y-114019446D01*
X80511375Y-114257541D02*
X80463756Y-114281351D01*
X80368518Y-114281351D01*
X80320899Y-114257541D01*
X80297090Y-114209922D01*
X80297090Y-114019446D01*
X80320899Y-113971827D01*
X80368518Y-113948018D01*
X80463756Y-113948018D01*
X80511375Y-113971827D01*
X80535185Y-114019446D01*
X80535185Y-114067065D01*
X80297090Y-114114684D01*
X81106613Y-114257541D02*
X81154232Y-114281351D01*
X81249471Y-114281351D01*
X81297090Y-114257541D01*
X81320899Y-114209922D01*
X81320899Y-114186113D01*
X81297090Y-114138494D01*
X81249471Y-114114684D01*
X81178042Y-114114684D01*
X81130423Y-114090875D01*
X81106613Y-114043256D01*
X81106613Y-114019446D01*
X81130423Y-113971827D01*
X81178042Y-113948018D01*
X81249471Y-113948018D01*
X81297090Y-113971827D01*
X81749471Y-113948018D02*
X81749471Y-114281351D01*
X81535185Y-113948018D02*
X81535185Y-114209922D01*
X81558994Y-114257541D01*
X81606613Y-114281351D01*
X81678042Y-114281351D01*
X81725661Y-114257541D01*
X81749471Y-114233732D01*
X81987566Y-114281351D02*
X81987566Y-113948018D01*
X81987566Y-114043256D02*
X82011375Y-113995637D01*
X82035185Y-113971827D01*
X82082804Y-113948018D01*
X82130423Y-113948018D01*
X82487566Y-114257541D02*
X82439947Y-114281351D01*
X82344709Y-114281351D01*
X82297090Y-114257541D01*
X82273280Y-114209922D01*
X82273280Y-114019446D01*
X82297090Y-113971827D01*
X82344709Y-113948018D01*
X82439947Y-113948018D01*
X82487566Y-113971827D01*
X82511375Y-114019446D01*
X82511375Y-114067065D01*
X82273280Y-114114684D01*
X83035185Y-113948018D02*
X83225661Y-113948018D01*
X83106613Y-113781351D02*
X83106613Y-114209922D01*
X83130423Y-114257541D01*
X83178042Y-114281351D01*
X83225661Y-114281351D01*
X83463756Y-114281351D02*
X83416137Y-114257541D01*
X83392328Y-114233732D01*
X83368518Y-114186113D01*
X83368518Y-114043256D01*
X83392328Y-113995637D01*
X83416137Y-113971827D01*
X83463756Y-113948018D01*
X83535185Y-113948018D01*
X83582804Y-113971827D01*
X83606613Y-113995637D01*
X83630423Y-114043256D01*
X83630423Y-114186113D01*
X83606613Y-114233732D01*
X83582804Y-114257541D01*
X83535185Y-114281351D01*
X83463756Y-114281351D01*
X84201852Y-114257541D02*
X84249471Y-114281351D01*
X84344709Y-114281351D01*
X84392328Y-114257541D01*
X84416137Y-114209922D01*
X84416137Y-114186113D01*
X84392328Y-114138494D01*
X84344709Y-114114684D01*
X84273280Y-114114684D01*
X84225661Y-114090875D01*
X84201852Y-114043256D01*
X84201852Y-114019446D01*
X84225661Y-113971827D01*
X84273280Y-113948018D01*
X84344709Y-113948018D01*
X84392328Y-113971827D01*
X84820899Y-114257541D02*
X84773280Y-114281351D01*
X84678042Y-114281351D01*
X84630423Y-114257541D01*
X84606613Y-114209922D01*
X84606613Y-114019446D01*
X84630423Y-113971827D01*
X84678042Y-113948018D01*
X84773280Y-113948018D01*
X84820899Y-113971827D01*
X84844709Y-114019446D01*
X84844709Y-114067065D01*
X84606613Y-114114684D01*
X84987566Y-113948018D02*
X85178042Y-113948018D01*
X85058994Y-113781351D02*
X85058994Y-114209922D01*
X85082804Y-114257541D01*
X85130423Y-114281351D01*
X85178042Y-114281351D01*
X85344709Y-114233732D02*
X85368518Y-114257541D01*
X85344709Y-114281351D01*
X85320899Y-114257541D01*
X85344709Y-114233732D01*
X85344709Y-114281351D01*
X85344709Y-113971827D02*
X85368518Y-113995637D01*
X85344709Y-114019446D01*
X85320899Y-113995637D01*
X85344709Y-113971827D01*
X85344709Y-114019446D01*
X79820899Y-115086351D02*
X79820899Y-114586351D01*
X80011375Y-114586351D01*
X80058994Y-114610161D01*
X80082804Y-114633970D01*
X80106613Y-114681589D01*
X80106613Y-114753018D01*
X80082804Y-114800637D01*
X80058994Y-114824446D01*
X80011375Y-114848256D01*
X79820899Y-114848256D01*
X80320899Y-115086351D02*
X80320899Y-114753018D01*
X80320899Y-114848256D02*
X80344709Y-114800637D01*
X80368518Y-114776827D01*
X80416137Y-114753018D01*
X80463756Y-114753018D01*
X80820899Y-115062541D02*
X80773280Y-115086351D01*
X80678042Y-115086351D01*
X80630423Y-115062541D01*
X80606613Y-115014922D01*
X80606613Y-114824446D01*
X80630423Y-114776827D01*
X80678042Y-114753018D01*
X80773280Y-114753018D01*
X80820899Y-114776827D01*
X80844709Y-114824446D01*
X80844709Y-114872065D01*
X80606613Y-114919684D01*
X80987566Y-114753018D02*
X81178042Y-114753018D01*
X81058994Y-115086351D02*
X81058994Y-114657780D01*
X81082804Y-114610161D01*
X81130423Y-114586351D01*
X81178042Y-114586351D01*
X81535185Y-115062541D02*
X81487566Y-115086351D01*
X81392328Y-115086351D01*
X81344709Y-115062541D01*
X81320899Y-115014922D01*
X81320899Y-114824446D01*
X81344709Y-114776827D01*
X81392328Y-114753018D01*
X81487566Y-114753018D01*
X81535185Y-114776827D01*
X81558994Y-114824446D01*
X81558994Y-114872065D01*
X81320899Y-114919684D01*
X81773280Y-115086351D02*
X81773280Y-114753018D01*
X81773280Y-114848256D02*
X81797090Y-114800637D01*
X81820899Y-114776827D01*
X81868518Y-114753018D01*
X81916137Y-114753018D01*
X82273280Y-115062541D02*
X82225661Y-115086351D01*
X82130423Y-115086351D01*
X82082804Y-115062541D01*
X82058994Y-115014922D01*
X82058994Y-114824446D01*
X82082804Y-114776827D01*
X82130423Y-114753018D01*
X82225661Y-114753018D01*
X82273280Y-114776827D01*
X82297090Y-114824446D01*
X82297090Y-114872065D01*
X82058994Y-114919684D01*
X82511375Y-114753018D02*
X82511375Y-115086351D01*
X82511375Y-114800637D02*
X82535185Y-114776827D01*
X82582804Y-114753018D01*
X82654232Y-114753018D01*
X82701852Y-114776827D01*
X82725661Y-114824446D01*
X82725661Y-115086351D01*
X83178042Y-115062541D02*
X83130423Y-115086351D01*
X83035185Y-115086351D01*
X82987566Y-115062541D01*
X82963756Y-115038732D01*
X82939947Y-114991113D01*
X82939947Y-114848256D01*
X82963756Y-114800637D01*
X82987566Y-114776827D01*
X83035185Y-114753018D01*
X83130423Y-114753018D01*
X83178042Y-114776827D01*
X83582804Y-115062541D02*
X83535185Y-115086351D01*
X83439947Y-115086351D01*
X83392328Y-115062541D01*
X83368518Y-115014922D01*
X83368518Y-114824446D01*
X83392328Y-114776827D01*
X83439947Y-114753018D01*
X83535185Y-114753018D01*
X83582804Y-114776827D01*
X83606613Y-114824446D01*
X83606613Y-114872065D01*
X83368518Y-114919684D01*
X83797090Y-115062541D02*
X83844709Y-115086351D01*
X83939947Y-115086351D01*
X83987566Y-115062541D01*
X84011375Y-115014922D01*
X84011375Y-114991113D01*
X83987566Y-114943494D01*
X83939947Y-114919684D01*
X83868518Y-114919684D01*
X83820899Y-114895875D01*
X83797090Y-114848256D01*
X83797090Y-114824446D01*
X83820899Y-114776827D01*
X83868518Y-114753018D01*
X83939947Y-114753018D01*
X83987566Y-114776827D01*
X84606613Y-114895875D02*
X84987566Y-114895875D01*
X85225661Y-114895875D02*
X85606613Y-114895875D01*
X85844709Y-114753018D02*
X86225661Y-114895875D01*
X85844709Y-115038732D01*
X86939947Y-114586351D02*
X87035185Y-114586351D01*
X87082804Y-114610161D01*
X87130423Y-114657780D01*
X87154232Y-114753018D01*
X87154232Y-114919684D01*
X87130423Y-115014922D01*
X87082804Y-115062541D01*
X87035185Y-115086351D01*
X86939947Y-115086351D01*
X86892328Y-115062541D01*
X86844709Y-115014922D01*
X86820899Y-114919684D01*
X86820899Y-114753018D01*
X86844709Y-114657780D01*
X86892328Y-114610161D01*
X86939947Y-114586351D01*
X87368518Y-115086351D02*
X87368518Y-114753018D01*
X87368518Y-114848256D02*
X87392328Y-114800637D01*
X87416137Y-114776827D01*
X87463756Y-114753018D01*
X87511375Y-114753018D01*
X87678042Y-115086351D02*
X87678042Y-114753018D01*
X87678042Y-114586351D02*
X87654232Y-114610161D01*
X87678042Y-114633970D01*
X87701852Y-114610161D01*
X87678042Y-114586351D01*
X87678042Y-114633970D01*
X88130423Y-114753018D02*
X88130423Y-115157780D01*
X88106613Y-115205399D01*
X88082804Y-115229208D01*
X88035185Y-115253018D01*
X87963756Y-115253018D01*
X87916137Y-115229208D01*
X88130423Y-115062541D02*
X88082804Y-115086351D01*
X87987566Y-115086351D01*
X87939947Y-115062541D01*
X87916137Y-115038732D01*
X87892328Y-114991113D01*
X87892328Y-114848256D01*
X87916137Y-114800637D01*
X87939947Y-114776827D01*
X87987566Y-114753018D01*
X88082804Y-114753018D01*
X88130423Y-114776827D01*
X88368518Y-115086351D02*
X88368518Y-114753018D01*
X88368518Y-114586351D02*
X88344709Y-114610161D01*
X88368518Y-114633970D01*
X88392328Y-114610161D01*
X88368518Y-114586351D01*
X88368518Y-114633970D01*
X88606613Y-114753018D02*
X88606613Y-115086351D01*
X88606613Y-114800637D02*
X88630423Y-114776827D01*
X88678042Y-114753018D01*
X88749471Y-114753018D01*
X88797090Y-114776827D01*
X88820899Y-114824446D01*
X88820899Y-115086351D01*
X89035185Y-115062541D02*
X89082804Y-115086351D01*
X89178042Y-115086351D01*
X89225661Y-115062541D01*
X89249471Y-115014922D01*
X89249471Y-114991113D01*
X89225661Y-114943494D01*
X89178042Y-114919684D01*
X89106613Y-114919684D01*
X89058994Y-114895875D01*
X89035185Y-114848256D01*
X89035185Y-114824446D01*
X89058994Y-114776827D01*
X89106613Y-114753018D01*
X89178042Y-114753018D01*
X89225661Y-114776827D01*
X90249471Y-115086351D02*
X90225661Y-115086351D01*
X90178042Y-115062541D01*
X90106613Y-114991113D01*
X89987566Y-114848256D01*
X89939947Y-114776827D01*
X89916137Y-114705399D01*
X89916137Y-114657780D01*
X89939947Y-114610161D01*
X89987566Y-114586351D01*
X90011375Y-114586351D01*
X90058994Y-114610161D01*
X90082804Y-114657780D01*
X90082804Y-114681589D01*
X90058994Y-114729208D01*
X90035185Y-114753018D01*
X89892328Y-114848256D01*
X89868518Y-114872065D01*
X89844709Y-114919684D01*
X89844709Y-114991113D01*
X89868518Y-115038732D01*
X89892328Y-115062541D01*
X89939947Y-115086351D01*
X90011375Y-115086351D01*
X90058994Y-115062541D01*
X90082804Y-115038732D01*
X90154232Y-114943494D01*
X90178042Y-114872065D01*
X90178042Y-114824446D01*
X90820899Y-114943494D02*
X91058994Y-114943494D01*
X90773280Y-115086351D02*
X90939947Y-114586351D01*
X91106613Y-115086351D01*
X91225661Y-115086351D02*
X91487566Y-114753018D01*
X91225661Y-114753018D02*
X91487566Y-115086351D01*
X91868518Y-115062541D02*
X91820899Y-115086351D01*
X91725661Y-115086351D01*
X91678042Y-115062541D01*
X91654232Y-115014922D01*
X91654232Y-114824446D01*
X91678042Y-114776827D01*
X91725661Y-114753018D01*
X91820899Y-114753018D01*
X91868518Y-114776827D01*
X91892328Y-114824446D01*
X91892328Y-114872065D01*
X91654232Y-114919684D01*
X92082804Y-115062541D02*
X92130423Y-115086351D01*
X92225661Y-115086351D01*
X92273280Y-115062541D01*
X92297090Y-115014922D01*
X92297090Y-114991113D01*
X92273280Y-114943494D01*
X92225661Y-114919684D01*
X92154232Y-114919684D01*
X92106613Y-114895875D01*
X92082804Y-114848256D01*
X92082804Y-114824446D01*
X92106613Y-114776827D01*
X92154232Y-114753018D01*
X92225661Y-114753018D01*
X92273280Y-114776827D01*
X92892328Y-114895875D02*
X93273280Y-114895875D01*
X93511375Y-114895875D02*
X93892328Y-114895875D01*
X94130423Y-114753018D02*
X94511375Y-114895875D01*
X94130423Y-115038732D01*
X95058994Y-114753018D02*
X95249471Y-114753018D01*
X95130423Y-114586351D02*
X95130423Y-115014922D01*
X95154232Y-115062541D01*
X95201852Y-115086351D01*
X95249471Y-115086351D01*
X95487566Y-115086351D02*
X95439947Y-115062541D01*
X95416137Y-115038732D01*
X95392328Y-114991113D01*
X95392328Y-114848256D01*
X95416137Y-114800637D01*
X95439947Y-114776827D01*
X95487566Y-114753018D01*
X95558994Y-114753018D01*
X95606613Y-114776827D01*
X95630423Y-114800637D01*
X95654232Y-114848256D01*
X95654232Y-114991113D01*
X95630423Y-115038732D01*
X95606613Y-115062541D01*
X95558994Y-115086351D01*
X95487566Y-115086351D01*
X96082804Y-114753018D02*
X96082804Y-115157780D01*
X96058994Y-115205399D01*
X96035185Y-115229208D01*
X95987566Y-115253018D01*
X95916137Y-115253018D01*
X95868518Y-115229208D01*
X96082804Y-115062541D02*
X96035185Y-115086351D01*
X95939947Y-115086351D01*
X95892328Y-115062541D01*
X95868518Y-115038732D01*
X95844709Y-114991113D01*
X95844709Y-114848256D01*
X95868518Y-114800637D01*
X95892328Y-114776827D01*
X95939947Y-114753018D01*
X96035185Y-114753018D01*
X96082804Y-114776827D01*
X96535185Y-114753018D02*
X96535185Y-115157780D01*
X96511375Y-115205399D01*
X96487566Y-115229208D01*
X96439947Y-115253018D01*
X96368518Y-115253018D01*
X96320899Y-115229208D01*
X96535185Y-115062541D02*
X96487566Y-115086351D01*
X96392328Y-115086351D01*
X96344709Y-115062541D01*
X96320899Y-115038732D01*
X96297090Y-114991113D01*
X96297090Y-114848256D01*
X96320899Y-114800637D01*
X96344709Y-114776827D01*
X96392328Y-114753018D01*
X96487566Y-114753018D01*
X96535185Y-114776827D01*
X96844709Y-115086351D02*
X96797090Y-115062541D01*
X96773280Y-115014922D01*
X96773280Y-114586351D01*
X97225661Y-115062541D02*
X97178042Y-115086351D01*
X97082804Y-115086351D01*
X97035185Y-115062541D01*
X97011375Y-115014922D01*
X97011375Y-114824446D01*
X97035185Y-114776827D01*
X97082804Y-114753018D01*
X97178042Y-114753018D01*
X97225661Y-114776827D01*
X97249471Y-114824446D01*
X97249471Y-114872065D01*
X97011375Y-114919684D01*
X97844709Y-115086351D02*
X97844709Y-114586351D01*
X97963756Y-114586351D01*
X98035185Y-114610161D01*
X98082804Y-114657780D01*
X98106613Y-114705399D01*
X98130423Y-114800637D01*
X98130423Y-114872065D01*
X98106613Y-114967303D01*
X98082804Y-115014922D01*
X98035185Y-115062541D01*
X97963756Y-115086351D01*
X97844709Y-115086351D01*
X98344709Y-115086351D02*
X98344709Y-114753018D01*
X98344709Y-114586351D02*
X98320899Y-114610161D01*
X98344709Y-114633970D01*
X98368518Y-114610161D01*
X98344709Y-114586351D01*
X98344709Y-114633970D01*
X98558994Y-115062541D02*
X98606613Y-115086351D01*
X98701852Y-115086351D01*
X98749471Y-115062541D01*
X98773280Y-115014922D01*
X98773280Y-114991113D01*
X98749471Y-114943494D01*
X98701852Y-114919684D01*
X98630423Y-114919684D01*
X98582804Y-114895875D01*
X98558994Y-114848256D01*
X98558994Y-114824446D01*
X98582804Y-114776827D01*
X98630423Y-114753018D01*
X98701852Y-114753018D01*
X98749471Y-114776827D01*
X98987566Y-114753018D02*
X98987566Y-115253018D01*
X98987566Y-114776827D02*
X99035185Y-114753018D01*
X99130423Y-114753018D01*
X99178042Y-114776827D01*
X99201852Y-114800637D01*
X99225661Y-114848256D01*
X99225661Y-114991113D01*
X99201852Y-115038732D01*
X99178042Y-115062541D01*
X99130423Y-115086351D01*
X99035185Y-115086351D01*
X98987566Y-115062541D01*
X99511375Y-115086351D02*
X99463756Y-115062541D01*
X99439947Y-115014922D01*
X99439947Y-114586351D01*
X99916137Y-115086351D02*
X99916137Y-114824446D01*
X99892328Y-114776827D01*
X99844709Y-114753018D01*
X99749471Y-114753018D01*
X99701852Y-114776827D01*
X99916137Y-115062541D02*
X99868518Y-115086351D01*
X99749471Y-115086351D01*
X99701852Y-115062541D01*
X99678042Y-115014922D01*
X99678042Y-114967303D01*
X99701852Y-114919684D01*
X99749471Y-114895875D01*
X99868518Y-114895875D01*
X99916137Y-114872065D01*
X100106613Y-114753018D02*
X100225661Y-115086351D01*
X100344709Y-114753018D02*
X100225661Y-115086351D01*
X100178042Y-115205399D01*
X100154232Y-115229208D01*
X100106613Y-115253018D01*
X100987566Y-115086351D02*
X100939947Y-115062541D01*
X100916137Y-115038732D01*
X100892328Y-114991113D01*
X100892328Y-114848256D01*
X100916137Y-114800637D01*
X100939947Y-114776827D01*
X100987566Y-114753018D01*
X101058994Y-114753018D01*
X101106613Y-114776827D01*
X101130423Y-114800637D01*
X101154232Y-114848256D01*
X101154232Y-114991113D01*
X101130423Y-115038732D01*
X101106613Y-115062541D01*
X101058994Y-115086351D01*
X100987566Y-115086351D01*
X101368518Y-115086351D02*
X101368518Y-114753018D01*
X101368518Y-114848256D02*
X101392328Y-114800637D01*
X101416137Y-114776827D01*
X101463756Y-114753018D01*
X101511375Y-114753018D01*
X101678042Y-115086351D02*
X101678042Y-114753018D01*
X101678042Y-114586351D02*
X101654232Y-114610161D01*
X101678042Y-114633970D01*
X101701852Y-114610161D01*
X101678042Y-114586351D01*
X101678042Y-114633970D01*
X102130423Y-114753018D02*
X102130423Y-115157780D01*
X102106613Y-115205399D01*
X102082804Y-115229208D01*
X102035185Y-115253018D01*
X101963756Y-115253018D01*
X101916137Y-115229208D01*
X102130423Y-115062541D02*
X102082804Y-115086351D01*
X101987566Y-115086351D01*
X101939947Y-115062541D01*
X101916137Y-115038732D01*
X101892328Y-114991113D01*
X101892328Y-114848256D01*
X101916137Y-114800637D01*
X101939947Y-114776827D01*
X101987566Y-114753018D01*
X102082804Y-114753018D01*
X102130423Y-114776827D01*
X102368518Y-115086351D02*
X102368518Y-114753018D01*
X102368518Y-114586351D02*
X102344709Y-114610161D01*
X102368518Y-114633970D01*
X102392328Y-114610161D01*
X102368518Y-114586351D01*
X102368518Y-114633970D01*
X102606613Y-114753018D02*
X102606613Y-115086351D01*
X102606613Y-114800637D02*
X102630423Y-114776827D01*
X102678042Y-114753018D01*
X102749471Y-114753018D01*
X102797090Y-114776827D01*
X102820899Y-114824446D01*
X102820899Y-115086351D01*
X103368518Y-114753018D02*
X103558994Y-114753018D01*
X103439947Y-114586351D02*
X103439947Y-115014922D01*
X103463756Y-115062541D01*
X103511375Y-115086351D01*
X103558994Y-115086351D01*
X103797090Y-115086351D02*
X103749471Y-115062541D01*
X103725661Y-115038732D01*
X103701852Y-114991113D01*
X103701852Y-114848256D01*
X103725661Y-114800637D01*
X103749471Y-114776827D01*
X103797090Y-114753018D01*
X103868518Y-114753018D01*
X103916137Y-114776827D01*
X103939947Y-114800637D01*
X103963756Y-114848256D01*
X103963756Y-114991113D01*
X103939947Y-115038732D01*
X103916137Y-115062541D01*
X103868518Y-115086351D01*
X103797090Y-115086351D01*
X104535185Y-114586351D02*
X104535185Y-114681589D01*
X104725661Y-114586351D02*
X104725661Y-114681589D01*
X105201852Y-114610161D02*
X105154232Y-114586351D01*
X105082804Y-114586351D01*
X105011375Y-114610161D01*
X104963756Y-114657780D01*
X104939947Y-114705399D01*
X104916137Y-114800637D01*
X104916137Y-114872065D01*
X104939947Y-114967303D01*
X104963756Y-115014922D01*
X105011375Y-115062541D01*
X105082804Y-115086351D01*
X105130423Y-115086351D01*
X105201852Y-115062541D01*
X105225661Y-115038732D01*
X105225661Y-114872065D01*
X105130423Y-114872065D01*
X105439947Y-115086351D02*
X105439947Y-114753018D01*
X105439947Y-114848256D02*
X105463756Y-114800637D01*
X105487566Y-114776827D01*
X105535185Y-114753018D01*
X105582804Y-114753018D01*
X105749471Y-115086351D02*
X105749471Y-114753018D01*
X105749471Y-114586351D02*
X105725661Y-114610161D01*
X105749471Y-114633970D01*
X105773280Y-114610161D01*
X105749471Y-114586351D01*
X105749471Y-114633970D01*
X106201852Y-115086351D02*
X106201852Y-114586351D01*
X106201852Y-115062541D02*
X106154232Y-115086351D01*
X106058994Y-115086351D01*
X106011375Y-115062541D01*
X105987566Y-115038732D01*
X105963756Y-114991113D01*
X105963756Y-114848256D01*
X105987566Y-114800637D01*
X106011375Y-114776827D01*
X106058994Y-114753018D01*
X106154232Y-114753018D01*
X106201852Y-114776827D01*
X106892328Y-115086351D02*
X106844709Y-115062541D01*
X106820899Y-115038732D01*
X106797090Y-114991113D01*
X106797090Y-114848256D01*
X106820899Y-114800637D01*
X106844709Y-114776827D01*
X106892328Y-114753018D01*
X106963756Y-114753018D01*
X107011375Y-114776827D01*
X107035185Y-114800637D01*
X107058994Y-114848256D01*
X107058994Y-114991113D01*
X107035185Y-115038732D01*
X107011375Y-115062541D01*
X106963756Y-115086351D01*
X106892328Y-115086351D01*
X107273280Y-115086351D02*
X107273280Y-114753018D01*
X107273280Y-114848256D02*
X107297090Y-114800637D01*
X107320899Y-114776827D01*
X107368518Y-114753018D01*
X107416137Y-114753018D01*
X107582804Y-115086351D02*
X107582804Y-114753018D01*
X107582804Y-114586351D02*
X107558994Y-114610161D01*
X107582804Y-114633970D01*
X107606613Y-114610161D01*
X107582804Y-114586351D01*
X107582804Y-114633970D01*
X108035185Y-114753018D02*
X108035185Y-115157780D01*
X108011375Y-115205399D01*
X107987566Y-115229208D01*
X107939947Y-115253018D01*
X107868518Y-115253018D01*
X107820899Y-115229208D01*
X108035185Y-115062541D02*
X107987566Y-115086351D01*
X107892328Y-115086351D01*
X107844709Y-115062541D01*
X107820899Y-115038732D01*
X107797090Y-114991113D01*
X107797090Y-114848256D01*
X107820899Y-114800637D01*
X107844709Y-114776827D01*
X107892328Y-114753018D01*
X107987566Y-114753018D01*
X108035185Y-114776827D01*
X108273280Y-115086351D02*
X108273280Y-114753018D01*
X108273280Y-114586351D02*
X108249471Y-114610161D01*
X108273280Y-114633970D01*
X108297090Y-114610161D01*
X108273280Y-114586351D01*
X108273280Y-114633970D01*
X108511375Y-114753018D02*
X108511375Y-115086351D01*
X108511375Y-114800637D02*
X108535185Y-114776827D01*
X108582804Y-114753018D01*
X108654232Y-114753018D01*
X108701852Y-114776827D01*
X108725661Y-114824446D01*
X108725661Y-115086351D01*
X108939947Y-114586351D02*
X108939947Y-114681589D01*
X109130423Y-114586351D02*
X109130423Y-114681589D01*
X79773280Y-115558018D02*
X79868518Y-115891351D01*
X79963756Y-115653256D01*
X80058994Y-115891351D01*
X80154232Y-115558018D01*
X80344709Y-115891351D02*
X80344709Y-115391351D01*
X80558994Y-115891351D02*
X80558994Y-115629446D01*
X80535185Y-115581827D01*
X80487566Y-115558018D01*
X80416137Y-115558018D01*
X80368518Y-115581827D01*
X80344709Y-115605637D01*
X80987566Y-115867541D02*
X80939947Y-115891351D01*
X80844709Y-115891351D01*
X80797090Y-115867541D01*
X80773280Y-115819922D01*
X80773280Y-115629446D01*
X80797090Y-115581827D01*
X80844709Y-115558018D01*
X80939947Y-115558018D01*
X80987566Y-115581827D01*
X81011375Y-115629446D01*
X81011375Y-115677065D01*
X80773280Y-115724684D01*
X81225661Y-115558018D02*
X81225661Y-115891351D01*
X81225661Y-115605637D02*
X81249471Y-115581827D01*
X81297090Y-115558018D01*
X81368518Y-115558018D01*
X81416137Y-115581827D01*
X81439947Y-115629446D01*
X81439947Y-115891351D01*
X82058994Y-115891351D02*
X82058994Y-115558018D01*
X82058994Y-115605637D02*
X82082804Y-115581827D01*
X82130423Y-115558018D01*
X82201852Y-115558018D01*
X82249471Y-115581827D01*
X82273280Y-115629446D01*
X82273280Y-115891351D01*
X82273280Y-115629446D02*
X82297090Y-115581827D01*
X82344709Y-115558018D01*
X82416137Y-115558018D01*
X82463756Y-115581827D01*
X82487566Y-115629446D01*
X82487566Y-115891351D01*
X82797090Y-115891351D02*
X82749471Y-115867541D01*
X82725661Y-115843732D01*
X82701852Y-115796113D01*
X82701852Y-115653256D01*
X82725661Y-115605637D01*
X82749471Y-115581827D01*
X82797090Y-115558018D01*
X82868518Y-115558018D01*
X82916137Y-115581827D01*
X82939947Y-115605637D01*
X82963756Y-115653256D01*
X82963756Y-115796113D01*
X82939947Y-115843732D01*
X82916137Y-115867541D01*
X82868518Y-115891351D01*
X82797090Y-115891351D01*
X83130423Y-115558018D02*
X83249471Y-115891351D01*
X83368518Y-115558018D01*
X83558994Y-115891351D02*
X83558994Y-115558018D01*
X83558994Y-115391351D02*
X83535185Y-115415161D01*
X83558994Y-115438970D01*
X83582804Y-115415161D01*
X83558994Y-115391351D01*
X83558994Y-115438970D01*
X83797090Y-115558018D02*
X83797090Y-115891351D01*
X83797090Y-115605637D02*
X83820899Y-115581827D01*
X83868518Y-115558018D01*
X83939947Y-115558018D01*
X83987566Y-115581827D01*
X84011375Y-115629446D01*
X84011375Y-115891351D01*
X84463756Y-115558018D02*
X84463756Y-115962780D01*
X84439947Y-116010399D01*
X84416137Y-116034208D01*
X84368518Y-116058018D01*
X84297090Y-116058018D01*
X84249471Y-116034208D01*
X84463756Y-115867541D02*
X84416137Y-115891351D01*
X84320899Y-115891351D01*
X84273280Y-115867541D01*
X84249471Y-115843732D01*
X84225661Y-115796113D01*
X84225661Y-115653256D01*
X84249471Y-115605637D01*
X84273280Y-115581827D01*
X84320899Y-115558018D01*
X84416137Y-115558018D01*
X84463756Y-115581827D01*
X85273280Y-115867541D02*
X85225661Y-115891351D01*
X85130423Y-115891351D01*
X85082804Y-115867541D01*
X85058994Y-115819922D01*
X85058994Y-115629446D01*
X85082804Y-115581827D01*
X85130423Y-115558018D01*
X85225661Y-115558018D01*
X85273280Y-115581827D01*
X85297090Y-115629446D01*
X85297090Y-115677065D01*
X85058994Y-115724684D01*
X85511375Y-115558018D02*
X85511375Y-115891351D01*
X85511375Y-115605637D02*
X85535185Y-115581827D01*
X85582804Y-115558018D01*
X85654232Y-115558018D01*
X85701852Y-115581827D01*
X85725661Y-115629446D01*
X85725661Y-115891351D01*
X86178042Y-115867541D02*
X86130423Y-115891351D01*
X86035185Y-115891351D01*
X85987566Y-115867541D01*
X85963756Y-115843732D01*
X85939947Y-115796113D01*
X85939947Y-115653256D01*
X85963756Y-115605637D01*
X85987566Y-115581827D01*
X86035185Y-115558018D01*
X86130423Y-115558018D01*
X86178042Y-115581827D01*
X86463756Y-115891351D02*
X86416137Y-115867541D01*
X86392328Y-115843732D01*
X86368518Y-115796113D01*
X86368518Y-115653256D01*
X86392328Y-115605637D01*
X86416137Y-115581827D01*
X86463756Y-115558018D01*
X86535185Y-115558018D01*
X86582804Y-115581827D01*
X86606613Y-115605637D01*
X86630423Y-115653256D01*
X86630423Y-115796113D01*
X86606613Y-115843732D01*
X86582804Y-115867541D01*
X86535185Y-115891351D01*
X86463756Y-115891351D01*
X87058994Y-115891351D02*
X87058994Y-115391351D01*
X87058994Y-115867541D02*
X87011375Y-115891351D01*
X86916137Y-115891351D01*
X86868518Y-115867541D01*
X86844709Y-115843732D01*
X86820899Y-115796113D01*
X86820899Y-115653256D01*
X86844709Y-115605637D01*
X86868518Y-115581827D01*
X86916137Y-115558018D01*
X87011375Y-115558018D01*
X87058994Y-115581827D01*
X87487566Y-115867541D02*
X87439947Y-115891351D01*
X87344709Y-115891351D01*
X87297090Y-115867541D01*
X87273280Y-115819922D01*
X87273280Y-115629446D01*
X87297090Y-115581827D01*
X87344709Y-115558018D01*
X87439947Y-115558018D01*
X87487566Y-115581827D01*
X87511375Y-115629446D01*
X87511375Y-115677065D01*
X87273280Y-115724684D01*
X87725661Y-115891351D02*
X87725661Y-115558018D01*
X87725661Y-115653256D02*
X87749471Y-115605637D01*
X87773280Y-115581827D01*
X87820899Y-115558018D01*
X87868518Y-115558018D01*
X88487566Y-115891351D02*
X88439947Y-115867541D01*
X88416137Y-115843732D01*
X88392328Y-115796113D01*
X88392328Y-115653256D01*
X88416137Y-115605637D01*
X88439947Y-115581827D01*
X88487566Y-115558018D01*
X88558994Y-115558018D01*
X88606613Y-115581827D01*
X88630423Y-115605637D01*
X88654232Y-115653256D01*
X88654232Y-115796113D01*
X88630423Y-115843732D01*
X88606613Y-115867541D01*
X88558994Y-115891351D01*
X88487566Y-115891351D01*
X88868518Y-115891351D02*
X88868518Y-115558018D01*
X88868518Y-115653256D02*
X88892328Y-115605637D01*
X88916137Y-115581827D01*
X88963756Y-115558018D01*
X89011375Y-115558018D01*
X89558994Y-115891351D02*
X89558994Y-115391351D01*
X89558994Y-115581827D02*
X89606613Y-115558018D01*
X89701852Y-115558018D01*
X89749471Y-115581827D01*
X89773280Y-115605637D01*
X89797090Y-115653256D01*
X89797090Y-115796113D01*
X89773280Y-115843732D01*
X89749471Y-115867541D01*
X89701852Y-115891351D01*
X89606613Y-115891351D01*
X89558994Y-115867541D01*
X90082804Y-115891351D02*
X90035185Y-115867541D01*
X90011375Y-115843732D01*
X89987566Y-115796113D01*
X89987566Y-115653256D01*
X90011375Y-115605637D01*
X90035185Y-115581827D01*
X90082804Y-115558018D01*
X90154232Y-115558018D01*
X90201852Y-115581827D01*
X90225661Y-115605637D01*
X90249471Y-115653256D01*
X90249471Y-115796113D01*
X90225661Y-115843732D01*
X90201852Y-115867541D01*
X90154232Y-115891351D01*
X90082804Y-115891351D01*
X90678042Y-115891351D02*
X90678042Y-115629446D01*
X90654232Y-115581827D01*
X90606613Y-115558018D01*
X90511375Y-115558018D01*
X90463756Y-115581827D01*
X90678042Y-115867541D02*
X90630423Y-115891351D01*
X90511375Y-115891351D01*
X90463756Y-115867541D01*
X90439947Y-115819922D01*
X90439947Y-115772303D01*
X90463756Y-115724684D01*
X90511375Y-115700875D01*
X90630423Y-115700875D01*
X90678042Y-115677065D01*
X90916137Y-115891351D02*
X90916137Y-115558018D01*
X90916137Y-115653256D02*
X90939947Y-115605637D01*
X90963756Y-115581827D01*
X91011375Y-115558018D01*
X91058994Y-115558018D01*
X91439947Y-115891351D02*
X91439947Y-115391351D01*
X91439947Y-115867541D02*
X91392328Y-115891351D01*
X91297090Y-115891351D01*
X91249471Y-115867541D01*
X91225661Y-115843732D01*
X91201852Y-115796113D01*
X91201852Y-115653256D01*
X91225661Y-115605637D01*
X91249471Y-115581827D01*
X91297090Y-115558018D01*
X91392328Y-115558018D01*
X91439947Y-115581827D01*
X92249471Y-115867541D02*
X92201852Y-115891351D01*
X92106613Y-115891351D01*
X92058994Y-115867541D01*
X92035185Y-115819922D01*
X92035185Y-115629446D01*
X92058994Y-115581827D01*
X92106613Y-115558018D01*
X92201852Y-115558018D01*
X92249471Y-115581827D01*
X92273280Y-115629446D01*
X92273280Y-115677065D01*
X92035185Y-115724684D01*
X92701852Y-115891351D02*
X92701852Y-115391351D01*
X92701852Y-115867541D02*
X92654232Y-115891351D01*
X92558994Y-115891351D01*
X92511375Y-115867541D01*
X92487566Y-115843732D01*
X92463756Y-115796113D01*
X92463756Y-115653256D01*
X92487566Y-115605637D01*
X92511375Y-115581827D01*
X92558994Y-115558018D01*
X92654232Y-115558018D01*
X92701852Y-115581827D01*
X93154232Y-115558018D02*
X93154232Y-115962780D01*
X93130423Y-116010399D01*
X93106613Y-116034208D01*
X93058994Y-116058018D01*
X92987566Y-116058018D01*
X92939947Y-116034208D01*
X93154232Y-115867541D02*
X93106613Y-115891351D01*
X93011375Y-115891351D01*
X92963756Y-115867541D01*
X92939947Y-115843732D01*
X92916137Y-115796113D01*
X92916137Y-115653256D01*
X92939947Y-115605637D01*
X92963756Y-115581827D01*
X93011375Y-115558018D01*
X93106613Y-115558018D01*
X93154232Y-115581827D01*
X93582804Y-115867541D02*
X93535185Y-115891351D01*
X93439947Y-115891351D01*
X93392328Y-115867541D01*
X93368518Y-115819922D01*
X93368518Y-115629446D01*
X93392328Y-115581827D01*
X93439947Y-115558018D01*
X93535185Y-115558018D01*
X93582804Y-115581827D01*
X93606613Y-115629446D01*
X93606613Y-115677065D01*
X93368518Y-115724684D01*
X93797090Y-115867541D02*
X93844709Y-115891351D01*
X93939947Y-115891351D01*
X93987566Y-115867541D01*
X94011375Y-115819922D01*
X94011375Y-115796113D01*
X93987566Y-115748494D01*
X93939947Y-115724684D01*
X93868518Y-115724684D01*
X93820899Y-115700875D01*
X93797090Y-115653256D01*
X93797090Y-115629446D01*
X93820899Y-115581827D01*
X93868518Y-115558018D01*
X93939947Y-115558018D01*
X93987566Y-115581827D01*
D10*
X95067380Y-100552142D02*
X94067380Y-100552142D01*
X94543571Y-99742619D02*
X94543571Y-100075952D01*
X95067380Y-100075952D02*
X94067380Y-100075952D01*
X94067380Y-99599761D01*
X94781666Y-99266428D02*
X94781666Y-98790238D01*
X95067380Y-99361666D02*
X94067380Y-99028333D01*
X95067380Y-98695000D01*
X102802380Y-100814047D02*
X101802380Y-100814047D01*
X102802380Y-100242618D01*
X101802380Y-100242618D01*
X102707142Y-99194999D02*
X102754761Y-99242618D01*
X102802380Y-99385475D01*
X102802380Y-99480713D01*
X102754761Y-99623571D01*
X102659523Y-99718809D01*
X102564285Y-99766428D01*
X102373809Y-99814047D01*
X102230952Y-99814047D01*
X102040476Y-99766428D01*
X101945238Y-99718809D01*
X101850000Y-99623571D01*
X101802380Y-99480713D01*
X101802380Y-99385475D01*
X101850000Y-99242618D01*
X101897619Y-99194999D01*
D14*
X80071428Y-113015714D02*
X80000000Y-113087142D01*
X79785714Y-113158571D01*
X79642857Y-113158571D01*
X79428571Y-113087142D01*
X79285714Y-112944285D01*
X79214285Y-112801428D01*
X79142857Y-112515714D01*
X79142857Y-112301428D01*
X79214285Y-112015714D01*
X79285714Y-111872857D01*
X79428571Y-111730000D01*
X79642857Y-111658571D01*
X79785714Y-111658571D01*
X80000000Y-111730000D01*
X80071428Y-111801428D01*
X80714285Y-113158571D02*
X80714285Y-111658571D01*
X80714285Y-112372857D02*
X81571428Y-112372857D01*
X81571428Y-113158571D02*
X81571428Y-111658571D01*
X82285714Y-112372857D02*
X82785714Y-112372857D01*
X83000000Y-113158571D02*
X82285714Y-113158571D01*
X82285714Y-111658571D01*
X83000000Y-111658571D01*
X84500000Y-113015714D02*
X84428571Y-113087142D01*
X84214285Y-113158571D01*
X84071428Y-113158571D01*
X83857142Y-113087142D01*
X83714285Y-112944285D01*
X83642857Y-112801428D01*
X83571428Y-112515714D01*
X83571428Y-112301428D01*
X83642857Y-112015714D01*
X83714285Y-111872857D01*
X83857142Y-111730000D01*
X84071428Y-111658571D01*
X84214285Y-111658571D01*
X84428571Y-111730000D01*
X84500000Y-111801428D01*
X85142857Y-113158571D02*
X85142857Y-111658571D01*
X86000000Y-113158571D02*
X85357142Y-112301428D01*
X86000000Y-111658571D02*
X85142857Y-112515714D01*
X87785714Y-113158571D02*
X87785714Y-111658571D01*
X89000000Y-112372857D02*
X88500000Y-112372857D01*
X88500000Y-113158571D02*
X88500000Y-111658571D01*
X89214285Y-111658571D01*
X90714285Y-111658571D02*
X91571428Y-111658571D01*
X91142857Y-113158571D02*
X91142857Y-111658571D01*
X92071428Y-113158571D02*
X92071428Y-111658571D01*
X92071428Y-112372857D02*
X92928571Y-112372857D01*
X92928571Y-113158571D02*
X92928571Y-111658571D01*
X93642857Y-113158571D02*
X93642857Y-111658571D01*
X94285714Y-113087142D02*
X94499999Y-113158571D01*
X94857142Y-113158571D01*
X94999999Y-113087142D01*
X95071428Y-113015714D01*
X95142857Y-112872857D01*
X95142857Y-112730000D01*
X95071428Y-112587142D01*
X94999999Y-112515714D01*
X94857142Y-112444285D01*
X94571428Y-112372857D01*
X94428571Y-112301428D01*
X94357142Y-112230000D01*
X94285714Y-112087142D01*
X94285714Y-111944285D01*
X94357142Y-111801428D01*
X94428571Y-111730000D01*
X94571428Y-111658571D01*
X94928571Y-111658571D01*
X95142857Y-111730000D01*
X97785714Y-113015714D02*
X97714285Y-113087142D01*
X97500000Y-113158571D01*
X97357142Y-113158571D01*
X97142857Y-113087142D01*
X97000000Y-112944285D01*
X96928571Y-112801428D01*
X96857142Y-112515714D01*
X96857142Y-112301428D01*
X96928571Y-112015714D01*
X97000000Y-111872857D01*
X97142857Y-111730000D01*
X97357142Y-111658571D01*
X97500000Y-111658571D01*
X97714285Y-111730000D01*
X97785714Y-111801428D01*
X98714285Y-111658571D02*
X99000000Y-111658571D01*
X99142857Y-111730000D01*
X99285714Y-111872857D01*
X99357142Y-112158571D01*
X99357142Y-112658571D01*
X99285714Y-112944285D01*
X99142857Y-113087142D01*
X99000000Y-113158571D01*
X98714285Y-113158571D01*
X98571428Y-113087142D01*
X98428571Y-112944285D01*
X98357142Y-112658571D01*
X98357142Y-112158571D01*
X98428571Y-111872857D01*
X98571428Y-111730000D01*
X98714285Y-111658571D01*
X100000000Y-113158571D02*
X100000000Y-111658571D01*
X100857142Y-113158571D01*
X100857142Y-111658571D01*
X102071428Y-112372857D02*
X101571428Y-112372857D01*
X101571428Y-113158571D02*
X101571428Y-111658571D01*
X102285714Y-111658571D01*
X103571428Y-113158571D02*
X102857142Y-113158571D01*
X102857142Y-111658571D01*
X104071428Y-113158571D02*
X104071428Y-111658571D01*
X105642857Y-113015714D02*
X105571428Y-113087142D01*
X105357142Y-113158571D01*
X105214285Y-113158571D01*
X104999999Y-113087142D01*
X104857142Y-112944285D01*
X104785714Y-112801428D01*
X104714285Y-112515714D01*
X104714285Y-112301428D01*
X104785714Y-112015714D01*
X104857142Y-111872857D01*
X104999999Y-111730000D01*
X105214285Y-111658571D01*
X105357142Y-111658571D01*
X105571428Y-111730000D01*
X105642857Y-111801428D01*
X106071428Y-111658571D02*
X106928571Y-111658571D01*
X106499999Y-113158571D02*
X106499999Y-111658571D01*
X107357142Y-113087142D02*
X107571428Y-113158571D01*
X107928571Y-113158571D01*
X108071428Y-113087142D01*
X108142857Y-113015714D01*
X108214285Y-112872857D01*
X108214285Y-112730000D01*
X108142857Y-112587142D01*
X108071428Y-112515714D01*
X107928571Y-112444285D01*
X107642857Y-112372857D01*
X107499999Y-112301428D01*
X107428571Y-112230000D01*
X107357142Y-112087142D01*
X107357142Y-111944285D01*
X107428571Y-111801428D01*
X107499999Y-111730000D01*
X107642857Y-111658571D01*
X107999999Y-111658571D01*
X108214285Y-111730000D01*
X109857142Y-111658571D02*
X110214285Y-113158571D01*
X110499999Y-112087142D01*
X110785714Y-113158571D01*
X111142857Y-111658571D01*
X111714285Y-113158571D02*
X111714285Y-111658571D01*
X112214285Y-111658571D02*
X113071428Y-111658571D01*
X112642857Y-113158571D02*
X112642857Y-111658571D01*
X113571428Y-113158571D02*
X113571428Y-111658571D01*
X113571428Y-112372857D02*
X114428571Y-112372857D01*
X114428571Y-113158571D02*
X114428571Y-111658571D01*
X116285714Y-113158571D02*
X116285714Y-111658571D01*
X116857142Y-111658571D01*
X117000000Y-111730000D01*
X117071428Y-111801428D01*
X117142857Y-111944285D01*
X117142857Y-112158571D01*
X117071428Y-112301428D01*
X117000000Y-112372857D01*
X116857142Y-112444285D01*
X116285714Y-112444285D01*
X117785714Y-113158571D02*
X117785714Y-111658571D01*
X117785714Y-112372857D02*
X118642857Y-112372857D01*
X118642857Y-113158571D02*
X118642857Y-111658571D01*
X119642857Y-112444285D02*
X119642857Y-113158571D01*
X119142857Y-111658571D02*
X119642857Y-112444285D01*
X120142857Y-111658571D01*
X120571428Y-113087142D02*
X120785714Y-113158571D01*
X121142857Y-113158571D01*
X121285714Y-113087142D01*
X121357142Y-113015714D01*
X121428571Y-112872857D01*
X121428571Y-112730000D01*
X121357142Y-112587142D01*
X121285714Y-112515714D01*
X121142857Y-112444285D01*
X120857142Y-112372857D01*
X120714285Y-112301428D01*
X120642857Y-112230000D01*
X120571428Y-112087142D01*
X120571428Y-111944285D01*
X120642857Y-111801428D01*
X120714285Y-111730000D01*
X120857142Y-111658571D01*
X121214285Y-111658571D01*
X121428571Y-111730000D01*
X122071428Y-113158571D02*
X122071428Y-111658571D01*
X123642857Y-113015714D02*
X123571428Y-113087142D01*
X123357142Y-113158571D01*
X123214285Y-113158571D01*
X123000000Y-113087142D01*
X122857142Y-112944285D01*
X122785714Y-112801428D01*
X122714285Y-112515714D01*
X122714285Y-112301428D01*
X122785714Y-112015714D01*
X122857142Y-111872857D01*
X123000000Y-111730000D01*
X123214285Y-111658571D01*
X123357142Y-111658571D01*
X123571428Y-111730000D01*
X123642857Y-111801428D01*
X124214285Y-112730000D02*
X124928571Y-112730000D01*
X124071428Y-113158571D02*
X124571428Y-111658571D01*
X125071428Y-113158571D01*
X126285714Y-113158571D02*
X125571428Y-113158571D01*
X125571428Y-111658571D01*
X127928571Y-113158571D02*
X127928571Y-111658571D01*
X128428571Y-112730000D01*
X128928571Y-111658571D01*
X128928571Y-113158571D01*
X129928571Y-111658571D02*
X130214285Y-111658571D01*
X130357142Y-111730000D01*
X130500000Y-111872857D01*
X130571428Y-112158571D01*
X130571428Y-112658571D01*
X130500000Y-112944285D01*
X130357142Y-113087142D01*
X130214285Y-113158571D01*
X129928571Y-113158571D01*
X129785714Y-113087142D01*
X129642857Y-112944285D01*
X129571428Y-112658571D01*
X129571428Y-112158571D01*
X129642857Y-111872857D01*
X129785714Y-111730000D01*
X129928571Y-111658571D01*
X131214285Y-111658571D02*
X131214285Y-112872857D01*
X131285714Y-113015714D01*
X131357142Y-113087142D01*
X131500000Y-113158571D01*
X131785714Y-113158571D01*
X131928571Y-113087142D01*
X132000000Y-113015714D01*
X132071428Y-112872857D01*
X132071428Y-111658571D01*
X132785714Y-113158571D02*
X132785714Y-111658571D01*
X133642857Y-113158571D01*
X133642857Y-111658571D01*
X134142857Y-111658571D02*
X135000000Y-111658571D01*
X134571428Y-113158571D02*
X134571428Y-111658571D01*
D10*
X106767380Y-102163333D02*
X106767380Y-101591904D01*
X107767380Y-101877619D02*
X106767380Y-101877619D01*
X107767380Y-100687142D02*
X107291190Y-101020476D01*
X107767380Y-101258571D02*
X106767380Y-101258571D01*
X106767380Y-100877619D01*
X106815000Y-100782380D01*
X106862619Y-100734761D01*
X106957857Y-100687142D01*
X107100714Y-100687142D01*
X107195952Y-100734761D01*
X107243571Y-100782380D01*
X107291190Y-100877619D01*
X107291190Y-101258571D01*
X107767380Y-100258571D02*
X106767380Y-100258571D01*
X107481666Y-99925238D01*
X106767380Y-99591904D01*
X107767380Y-99591904D01*
X106862619Y-99163333D02*
X106815000Y-99115714D01*
X106767380Y-99020476D01*
X106767380Y-98782380D01*
X106815000Y-98687142D01*
X106862619Y-98639523D01*
X106957857Y-98591904D01*
X107053095Y-98591904D01*
X107195952Y-98639523D01*
X107767380Y-99210952D01*
X107767380Y-98591904D01*
X124039524Y-81732380D02*
X124039524Y-80732380D01*
X124372857Y-81446666D01*
X124706191Y-80732380D01*
X124706191Y-81732380D01*
X125182381Y-81732380D02*
X125182381Y-80732380D01*
X125610953Y-81684761D02*
X125753810Y-81732380D01*
X125991905Y-81732380D01*
X126087143Y-81684761D01*
X126134762Y-81637142D01*
X126182381Y-81541904D01*
X126182381Y-81446666D01*
X126134762Y-81351428D01*
X126087143Y-81303809D01*
X125991905Y-81256190D01*
X125801429Y-81208571D01*
X125706191Y-81160952D01*
X125658572Y-81113333D01*
X125610953Y-81018095D01*
X125610953Y-80922857D01*
X125658572Y-80827619D01*
X125706191Y-80780000D01*
X125801429Y-80732380D01*
X126039524Y-80732380D01*
X126182381Y-80780000D01*
X126801429Y-80732380D02*
X126991905Y-80732380D01*
X127087143Y-80780000D01*
X127182381Y-80875238D01*
X127230000Y-81065714D01*
X127230000Y-81399047D01*
X127182381Y-81589523D01*
X127087143Y-81684761D01*
X126991905Y-81732380D01*
X126801429Y-81732380D01*
X126706191Y-81684761D01*
X126610953Y-81589523D01*
X126563333Y-81399047D01*
X126563333Y-81065714D01*
X126610953Y-80875238D01*
X126706191Y-80780000D01*
X126801429Y-80732380D01*
%TO.C,R6*%
X114838095Y-83385714D02*
X114838095Y-84052380D01*
X114600000Y-83004761D02*
X114361904Y-83719047D01*
X114980952Y-83719047D01*
X115266666Y-83052380D02*
X115933333Y-83052380D01*
X115504761Y-84052380D01*
X116504761Y-83052380D02*
X116600000Y-83052380D01*
X116695238Y-83100000D01*
X116742857Y-83147619D01*
X116790476Y-83242857D01*
X116838095Y-83433333D01*
X116838095Y-83671428D01*
X116790476Y-83861904D01*
X116742857Y-83957142D01*
X116695238Y-84004761D01*
X116600000Y-84052380D01*
X116504761Y-84052380D01*
X116409523Y-84004761D01*
X116361904Y-83957142D01*
X116314285Y-83861904D01*
X116266666Y-83671428D01*
X116266666Y-83433333D01*
X116314285Y-83242857D01*
X116361904Y-83147619D01*
X116409523Y-83100000D01*
X116504761Y-83052380D01*
%TO.C,J2*%
X91197180Y-98275733D02*
X91911466Y-98275733D01*
X92054323Y-98323352D01*
X92149561Y-98418590D01*
X92197180Y-98561447D01*
X92197180Y-98656685D01*
X91292419Y-97847161D02*
X91244800Y-97799542D01*
X91197180Y-97704304D01*
X91197180Y-97466209D01*
X91244800Y-97370971D01*
X91292419Y-97323352D01*
X91387657Y-97275733D01*
X91482895Y-97275733D01*
X91625752Y-97323352D01*
X92197180Y-97894780D01*
X92197180Y-97275733D01*
%TO.C,C2*%
X116152380Y-69119047D02*
X116152380Y-69690476D01*
X116152380Y-69404761D02*
X115152380Y-69404761D01*
X115295238Y-69500000D01*
X115390476Y-69595238D01*
X115438095Y-69690476D01*
X115152380Y-68500000D02*
X115152380Y-68404761D01*
X115200000Y-68309523D01*
X115247619Y-68261904D01*
X115342857Y-68214285D01*
X115533333Y-68166666D01*
X115771428Y-68166666D01*
X115961904Y-68214285D01*
X116057142Y-68261904D01*
X116104761Y-68309523D01*
X116152380Y-68404761D01*
X116152380Y-68500000D01*
X116104761Y-68595238D01*
X116057142Y-68642857D01*
X115961904Y-68690476D01*
X115771428Y-68738095D01*
X115533333Y-68738095D01*
X115342857Y-68690476D01*
X115247619Y-68642857D01*
X115200000Y-68595238D01*
X115152380Y-68500000D01*
X115152380Y-67547619D02*
X115152380Y-67452380D01*
X115200000Y-67357142D01*
X115247619Y-67309523D01*
X115342857Y-67261904D01*
X115533333Y-67214285D01*
X115771428Y-67214285D01*
X115961904Y-67261904D01*
X116057142Y-67309523D01*
X116104761Y-67357142D01*
X116152380Y-67452380D01*
X116152380Y-67547619D01*
X116104761Y-67642857D01*
X116057142Y-67690476D01*
X115961904Y-67738095D01*
X115771428Y-67785714D01*
X115533333Y-67785714D01*
X115342857Y-67738095D01*
X115247619Y-67690476D01*
X115200000Y-67642857D01*
X115152380Y-67547619D01*
X115485714Y-66785714D02*
X116152380Y-66785714D01*
X115580952Y-66785714D02*
X115533333Y-66738095D01*
X115485714Y-66642857D01*
X115485714Y-66500000D01*
X115533333Y-66404761D01*
X115628571Y-66357142D01*
X116152380Y-66357142D01*
%TO.C,J1*%
X122704266Y-71105780D02*
X122704266Y-71820066D01*
X122656647Y-71962923D01*
X122561409Y-72058161D01*
X122418552Y-72105780D01*
X122323314Y-72105780D01*
X123704266Y-72105780D02*
X123132838Y-72105780D01*
X123418552Y-72105780D02*
X123418552Y-71105780D01*
X123323314Y-71248638D01*
X123228076Y-71343876D01*
X123132838Y-71391495D01*
%TO.C,U6*%
X142438095Y-76823380D02*
X142438095Y-77632904D01*
X142485714Y-77728142D01*
X142533333Y-77775761D01*
X142628571Y-77823380D01*
X142819047Y-77823380D01*
X142914285Y-77775761D01*
X142961904Y-77728142D01*
X143009523Y-77632904D01*
X143009523Y-76823380D01*
X143914285Y-76823380D02*
X143723809Y-76823380D01*
X143628571Y-76871000D01*
X143580952Y-76918619D01*
X143485714Y-77061476D01*
X143438095Y-77251952D01*
X143438095Y-77632904D01*
X143485714Y-77728142D01*
X143533333Y-77775761D01*
X143628571Y-77823380D01*
X143819047Y-77823380D01*
X143914285Y-77775761D01*
X143961904Y-77728142D01*
X144009523Y-77632904D01*
X144009523Y-77394809D01*
X143961904Y-77299571D01*
X143914285Y-77251952D01*
X143819047Y-77204333D01*
X143628571Y-77204333D01*
X143533333Y-77251952D01*
X143485714Y-77299571D01*
X143438095Y-77394809D01*
%TO.C,R4*%
X114838095Y-79885714D02*
X114838095Y-80552380D01*
X114600000Y-79504761D02*
X114361904Y-80219047D01*
X114980952Y-80219047D01*
X115266666Y-79552380D02*
X115933333Y-79552380D01*
X115504761Y-80552380D01*
X116504761Y-79552380D02*
X116600000Y-79552380D01*
X116695238Y-79600000D01*
X116742857Y-79647619D01*
X116790476Y-79742857D01*
X116838095Y-79933333D01*
X116838095Y-80171428D01*
X116790476Y-80361904D01*
X116742857Y-80457142D01*
X116695238Y-80504761D01*
X116600000Y-80552380D01*
X116504761Y-80552380D01*
X116409523Y-80504761D01*
X116361904Y-80457142D01*
X116314285Y-80361904D01*
X116266666Y-80171428D01*
X116266666Y-79933333D01*
X116314285Y-79742857D01*
X116361904Y-79647619D01*
X116409523Y-79600000D01*
X116504761Y-79552380D01*
%TO.C,U5*%
X142438095Y-73832380D02*
X142438095Y-74641904D01*
X142485714Y-74737142D01*
X142533333Y-74784761D01*
X142628571Y-74832380D01*
X142819047Y-74832380D01*
X142914285Y-74784761D01*
X142961904Y-74737142D01*
X143009523Y-74641904D01*
X143009523Y-73832380D01*
X143961904Y-73832380D02*
X143485714Y-73832380D01*
X143438095Y-74308571D01*
X143485714Y-74260952D01*
X143580952Y-74213333D01*
X143819047Y-74213333D01*
X143914285Y-74260952D01*
X143961904Y-74308571D01*
X144009523Y-74403809D01*
X144009523Y-74641904D01*
X143961904Y-74737142D01*
X143914285Y-74784761D01*
X143819047Y-74832380D01*
X143580952Y-74832380D01*
X143485714Y-74784761D01*
X143438095Y-74737142D01*
%TO.C,Q1*%
X114194761Y-74219619D02*
X114099523Y-74172000D01*
X114004285Y-74076761D01*
X113861428Y-73933904D01*
X113766190Y-73886285D01*
X113670952Y-73886285D01*
X113718571Y-74124380D02*
X113623333Y-74076761D01*
X113528095Y-73981523D01*
X113480476Y-73791047D01*
X113480476Y-73457714D01*
X113528095Y-73267238D01*
X113623333Y-73172000D01*
X113718571Y-73124380D01*
X113909047Y-73124380D01*
X114004285Y-73172000D01*
X114099523Y-73267238D01*
X114147142Y-73457714D01*
X114147142Y-73791047D01*
X114099523Y-73981523D01*
X114004285Y-74076761D01*
X113909047Y-74124380D01*
X113718571Y-74124380D01*
X115099523Y-74124380D02*
X114528095Y-74124380D01*
X114813809Y-74124380D02*
X114813809Y-73124380D01*
X114718571Y-73267238D01*
X114623333Y-73362476D01*
X114528095Y-73410095D01*
%TO.C,R2*%
X104210714Y-92361904D02*
X104877380Y-92361904D01*
X103829761Y-92600000D02*
X104544047Y-92838095D01*
X104544047Y-92219047D01*
X103877380Y-91933333D02*
X103877380Y-91266666D01*
X104877380Y-91695238D01*
X103877380Y-90695238D02*
X103877380Y-90600000D01*
X103925000Y-90504761D01*
X103972619Y-90457142D01*
X104067857Y-90409523D01*
X104258333Y-90361904D01*
X104496428Y-90361904D01*
X104686904Y-90409523D01*
X104782142Y-90457142D01*
X104829761Y-90504761D01*
X104877380Y-90600000D01*
X104877380Y-90695238D01*
X104829761Y-90790476D01*
X104782142Y-90838095D01*
X104686904Y-90885714D01*
X104496428Y-90933333D01*
X104258333Y-90933333D01*
X104067857Y-90885714D01*
X103972619Y-90838095D01*
X103925000Y-90790476D01*
X103877380Y-90695238D01*
%TO.C,U2*%
X150452380Y-79104404D02*
X151261904Y-79104404D01*
X151357142Y-79056785D01*
X151404761Y-79009166D01*
X151452380Y-78913928D01*
X151452380Y-78723452D01*
X151404761Y-78628214D01*
X151357142Y-78580595D01*
X151261904Y-78532976D01*
X150452380Y-78532976D01*
X150547619Y-78104404D02*
X150500000Y-78056785D01*
X150452380Y-77961547D01*
X150452380Y-77723452D01*
X150500000Y-77628214D01*
X150547619Y-77580595D01*
X150642857Y-77532976D01*
X150738095Y-77532976D01*
X150880952Y-77580595D01*
X151452380Y-78152023D01*
X151452380Y-77532976D01*
%TO.C,D1*%
X109396304Y-74874380D02*
X109396304Y-73874380D01*
X109634400Y-73874380D01*
X109777257Y-73922000D01*
X109872495Y-74017238D01*
X109920114Y-74112476D01*
X109967733Y-74302952D01*
X109967733Y-74445809D01*
X109920114Y-74636285D01*
X109872495Y-74731523D01*
X109777257Y-74826761D01*
X109634400Y-74874380D01*
X109396304Y-74874380D01*
X110920114Y-74874380D02*
X110348685Y-74874380D01*
X110634400Y-74874380D02*
X110634400Y-73874380D01*
X110539161Y-74017238D01*
X110443923Y-74112476D01*
X110348685Y-74160095D01*
%TO.C,C1*%
X99077142Y-81716666D02*
X99124761Y-81764285D01*
X99172380Y-81907142D01*
X99172380Y-82002380D01*
X99124761Y-82145238D01*
X99029523Y-82240476D01*
X98934285Y-82288095D01*
X98743809Y-82335714D01*
X98600952Y-82335714D01*
X98410476Y-82288095D01*
X98315238Y-82240476D01*
X98220000Y-82145238D01*
X98172380Y-82002380D01*
X98172380Y-81907142D01*
X98220000Y-81764285D01*
X98267619Y-81716666D01*
X99172380Y-80764285D02*
X99172380Y-81335714D01*
X99172380Y-81050000D02*
X98172380Y-81050000D01*
X98315238Y-81145238D01*
X98410476Y-81240476D01*
X98458095Y-81335714D01*
D15*
%TO.C,U4*%
X143087342Y-87354071D02*
X143087342Y-88279357D01*
X143141771Y-88388214D01*
X143196200Y-88442642D01*
X143305057Y-88497071D01*
X143522771Y-88497071D01*
X143631628Y-88442642D01*
X143686057Y-88388214D01*
X143740485Y-88279357D01*
X143740485Y-87354071D01*
X144774628Y-87735071D02*
X144774628Y-88497071D01*
X144502485Y-87299642D02*
X144230342Y-88116071D01*
X144937914Y-88116071D01*
D10*
%TO.C,R3*%
X106010714Y-92361904D02*
X106677380Y-92361904D01*
X105629761Y-92600000D02*
X106344047Y-92838095D01*
X106344047Y-92219047D01*
X105677380Y-91933333D02*
X105677380Y-91266666D01*
X106677380Y-91695238D01*
X105677380Y-90695238D02*
X105677380Y-90600000D01*
X105725000Y-90504761D01*
X105772619Y-90457142D01*
X105867857Y-90409523D01*
X106058333Y-90361904D01*
X106296428Y-90361904D01*
X106486904Y-90409523D01*
X106582142Y-90457142D01*
X106629761Y-90504761D01*
X106677380Y-90600000D01*
X106677380Y-90695238D01*
X106629761Y-90790476D01*
X106582142Y-90838095D01*
X106486904Y-90885714D01*
X106296428Y-90933333D01*
X106058333Y-90933333D01*
X105867857Y-90885714D01*
X105772619Y-90838095D01*
X105725000Y-90790476D01*
X105677380Y-90695238D01*
%TO.C,R7*%
X114838095Y-85285714D02*
X114838095Y-85952380D01*
X114600000Y-84904761D02*
X114361904Y-85619047D01*
X114980952Y-85619047D01*
X115266666Y-84952380D02*
X115933333Y-84952380D01*
X115504761Y-85952380D01*
X116504761Y-84952380D02*
X116600000Y-84952380D01*
X116695238Y-85000000D01*
X116742857Y-85047619D01*
X116790476Y-85142857D01*
X116838095Y-85333333D01*
X116838095Y-85571428D01*
X116790476Y-85761904D01*
X116742857Y-85857142D01*
X116695238Y-85904761D01*
X116600000Y-85952380D01*
X116504761Y-85952380D01*
X116409523Y-85904761D01*
X116361904Y-85857142D01*
X116314285Y-85761904D01*
X116266666Y-85571428D01*
X116266666Y-85333333D01*
X116314285Y-85142857D01*
X116361904Y-85047619D01*
X116409523Y-85000000D01*
X116504761Y-84952380D01*
%TO.C,R5*%
X114838095Y-81785714D02*
X114838095Y-82452380D01*
X114600000Y-81404761D02*
X114361904Y-82119047D01*
X114980952Y-82119047D01*
X115266666Y-81452380D02*
X115933333Y-81452380D01*
X115504761Y-82452380D01*
X116504761Y-81452380D02*
X116600000Y-81452380D01*
X116695238Y-81500000D01*
X116742857Y-81547619D01*
X116790476Y-81642857D01*
X116838095Y-81833333D01*
X116838095Y-82071428D01*
X116790476Y-82261904D01*
X116742857Y-82357142D01*
X116695238Y-82404761D01*
X116600000Y-82452380D01*
X116504761Y-82452380D01*
X116409523Y-82404761D01*
X116361904Y-82357142D01*
X116314285Y-82261904D01*
X116266666Y-82071428D01*
X116266666Y-81833333D01*
X116314285Y-81642857D01*
X116361904Y-81547619D01*
X116409523Y-81500000D01*
X116504761Y-81452380D01*
%TO.C,C3*%
X117890990Y-72785314D02*
X117890990Y-73451980D01*
X117652895Y-72404361D02*
X117414800Y-73118647D01*
X118033847Y-73118647D01*
X118414800Y-73356742D02*
X118462419Y-73404361D01*
X118414800Y-73451980D01*
X118367180Y-73404361D01*
X118414800Y-73356742D01*
X118414800Y-73451980D01*
X118795752Y-72451980D02*
X119462419Y-72451980D01*
X119033847Y-73451980D01*
%TO.C,R1*%
X102285714Y-92461904D02*
X102952380Y-92461904D01*
X101904761Y-92700000D02*
X102619047Y-92938095D01*
X102619047Y-92319047D01*
X101952380Y-92033333D02*
X101952380Y-91366666D01*
X102952380Y-91795238D01*
X101952380Y-90795238D02*
X101952380Y-90700000D01*
X102000000Y-90604761D01*
X102047619Y-90557142D01*
X102142857Y-90509523D01*
X102333333Y-90461904D01*
X102571428Y-90461904D01*
X102761904Y-90509523D01*
X102857142Y-90557142D01*
X102904761Y-90604761D01*
X102952380Y-90700000D01*
X102952380Y-90795238D01*
X102904761Y-90890476D01*
X102857142Y-90938095D01*
X102761904Y-90985714D01*
X102571428Y-91033333D01*
X102333333Y-91033333D01*
X102142857Y-90985714D01*
X102047619Y-90938095D01*
X102000000Y-90890476D01*
X101952380Y-90795238D01*
%TO.C,R8*%
X105628332Y-71514989D02*
X105628332Y-72086418D01*
X105628332Y-71800703D02*
X104628332Y-71800703D01*
X104771190Y-71895941D01*
X104866428Y-71991180D01*
X104914047Y-72086418D01*
X104628332Y-70895941D02*
X104628332Y-70800703D01*
X104675952Y-70705465D01*
X104723571Y-70657846D01*
X104818809Y-70610227D01*
X105009285Y-70562608D01*
X105247380Y-70562608D01*
X105437856Y-70610227D01*
X105533094Y-70657846D01*
X105580713Y-70705465D01*
X105628332Y-70800703D01*
X105628332Y-70895941D01*
X105580713Y-70991180D01*
X105533094Y-71038799D01*
X105437856Y-71086418D01*
X105247380Y-71134037D01*
X105009285Y-71134037D01*
X104818809Y-71086418D01*
X104723571Y-71038799D01*
X104675952Y-70991180D01*
X104628332Y-70895941D01*
X104628332Y-69943561D02*
X104628332Y-69848322D01*
X104675952Y-69753084D01*
X104723571Y-69705465D01*
X104818809Y-69657846D01*
X105009285Y-69610227D01*
X105247380Y-69610227D01*
X105437856Y-69657846D01*
X105533094Y-69705465D01*
X105580713Y-69753084D01*
X105628332Y-69848322D01*
X105628332Y-69943561D01*
X105580713Y-70038799D01*
X105533094Y-70086418D01*
X105437856Y-70134037D01*
X105247380Y-70181656D01*
X105009285Y-70181656D01*
X104818809Y-70134037D01*
X104723571Y-70086418D01*
X104675952Y-70038799D01*
X104628332Y-69943561D01*
X105628332Y-69181656D02*
X104628332Y-69181656D01*
X105247380Y-69086418D02*
X105628332Y-68800703D01*
X104961666Y-68800703D02*
X105342618Y-69181656D01*
D11*
%TO.C,C4*%
X145570980Y-81696400D02*
X145289820Y-81696400D01*
X145570980Y-82716400D02*
X145289820Y-82716400D01*
%TO.C,C15*%
X153960000Y-72139420D02*
X153960000Y-72420580D01*
X152940000Y-72139420D02*
X152940000Y-72420580D01*
%TO.C,R6*%
X112737258Y-83077500D02*
X112262742Y-83077500D01*
X112737258Y-84122500D02*
X112262742Y-84122500D01*
%TO.C,C5*%
X139160000Y-74187836D02*
X139160000Y-73972164D01*
X138440000Y-74187836D02*
X138440000Y-73972164D01*
%TO.C,C10*%
X138190000Y-89445580D02*
X138190000Y-89164420D01*
X139210000Y-89445580D02*
X139210000Y-89164420D01*
%TO.C,R15*%
X151740500Y-81847258D02*
X151740500Y-81372742D01*
X152785500Y-81847258D02*
X152785500Y-81372742D01*
%TO.C,R11*%
X148980000Y-79816359D02*
X148980000Y-80123641D01*
X148220000Y-79816359D02*
X148220000Y-80123641D01*
%TO.C,J2*%
X95940000Y-98370000D02*
X95940000Y-95710000D01*
X93340000Y-95710000D02*
X94670000Y-95710000D01*
X95940000Y-98370000D02*
X113780000Y-98370000D01*
X95940000Y-95710000D02*
X113780000Y-95710000D01*
X93340000Y-97040000D02*
X93340000Y-95710000D01*
X113780000Y-98370000D02*
X113780000Y-95710000D01*
%TO.C,R12*%
X150663641Y-79900000D02*
X150356359Y-79900000D01*
X150663641Y-80660000D02*
X150356359Y-80660000D01*
%TO.C,C16*%
X148659420Y-74590000D02*
X148940580Y-74590000D01*
X148659420Y-73570000D02*
X148940580Y-73570000D01*
%TO.C,C2*%
X116740000Y-68365580D02*
X116740000Y-68084420D01*
X117760000Y-68365580D02*
X117760000Y-68084420D01*
%TO.C,J5*%
X134870000Y-73875000D02*
X134870000Y-91715000D01*
X134870000Y-72605000D02*
X134870000Y-71275000D01*
X134870000Y-91715000D02*
X137530000Y-91715000D01*
X134870000Y-73875000D02*
X137530000Y-73875000D01*
X134870000Y-71275000D02*
X136200000Y-71275000D01*
X137530000Y-73875000D02*
X137530000Y-91715000D01*
%TO.C,J1*%
X121847906Y-72669302D02*
X123177906Y-72669302D01*
X120517906Y-93109302D02*
X123177906Y-93109302D01*
X120517906Y-75269302D02*
X123177906Y-75269302D01*
X123177906Y-75269302D02*
X123177906Y-93109302D01*
X123177906Y-72669302D02*
X123177906Y-73999302D01*
X120517906Y-75269302D02*
X120517906Y-93109302D01*
%TO.C,C6*%
X139160000Y-76852164D02*
X139160000Y-77067836D01*
X138440000Y-76852164D02*
X138440000Y-77067836D01*
%TO.C,U6*%
X143200000Y-75811000D02*
X139750000Y-75811000D01*
X143200000Y-80931000D02*
X141250000Y-80931000D01*
X143200000Y-75811000D02*
X145150000Y-75811000D01*
X143200000Y-80931000D02*
X145150000Y-80931000D01*
%TO.C,R4*%
X112837258Y-80522500D02*
X112362742Y-80522500D01*
X112837258Y-79477500D02*
X112362742Y-79477500D01*
%TO.C,J4*%
X153340000Y-88940000D02*
X155460000Y-88940000D01*
X153340000Y-76880000D02*
X153340000Y-88940000D01*
X153340000Y-76880000D02*
X155460000Y-76880000D01*
X155460000Y-74820000D02*
X155460000Y-75880000D01*
X154400000Y-74820000D02*
X155460000Y-74820000D01*
X155460000Y-76880000D02*
X155460000Y-88940000D01*
%TO.C,J3*%
X111920000Y-92980000D02*
X111920000Y-91650000D01*
X113250000Y-92980000D02*
X111920000Y-92980000D01*
X114520000Y-92980000D02*
X114520000Y-90320000D01*
X114520000Y-90320000D02*
X117120000Y-90320000D01*
X117120000Y-92980000D02*
X117120000Y-90320000D01*
X114520000Y-92980000D02*
X117120000Y-92980000D01*
%TO.C,R14*%
X147980000Y-77826359D02*
X147980000Y-78133641D01*
X147220000Y-77826359D02*
X147220000Y-78133641D01*
%TO.C,C9*%
X138190000Y-92239420D02*
X138190000Y-92520580D01*
X139210000Y-92239420D02*
X139210000Y-92520580D01*
%TO.C,U5*%
X143200000Y-70320000D02*
X145150000Y-70320000D01*
X143200000Y-70320000D02*
X141250000Y-70320000D01*
X143200000Y-75440000D02*
X141250000Y-75440000D01*
X143200000Y-75440000D02*
X146650000Y-75440000D01*
%TO.C,R13*%
X147220000Y-80123641D02*
X147220000Y-79816359D01*
X147980000Y-80123641D02*
X147980000Y-79816359D01*
%TO.C,Q1*%
X114190000Y-69450000D02*
X112515000Y-69450000D01*
X114190000Y-72570000D02*
X113540000Y-72570000D01*
X114190000Y-72570000D02*
X114840000Y-72570000D01*
X114190000Y-69450000D02*
X114840000Y-69450000D01*
%TO.C,R2*%
X103777500Y-88162742D02*
X103777500Y-88637258D01*
X104822500Y-88162742D02*
X104822500Y-88637258D01*
%TO.C,U3*%
X149137500Y-72990000D02*
X149787500Y-72990000D01*
X149137500Y-72990000D02*
X148487500Y-72990000D01*
X149137500Y-69870000D02*
X147462500Y-69870000D01*
X149137500Y-69870000D02*
X149787500Y-69870000D01*
%TO.C,U2*%
X149440000Y-77680000D02*
X149440000Y-78480000D01*
X152560000Y-77680000D02*
X152560000Y-75880000D01*
X149440000Y-77680000D02*
X149440000Y-76880000D01*
X152560000Y-77680000D02*
X152560000Y-78480000D01*
%TO.C,D1*%
X109250000Y-73550000D02*
X111250000Y-73550000D01*
X109250000Y-69250000D02*
X109250000Y-73550000D01*
X111250000Y-73550000D02*
X111250000Y-69250000D01*
%TO.C,C1*%
X99640000Y-81690580D02*
X99640000Y-81409420D01*
X100660000Y-81690580D02*
X100660000Y-81409420D01*
D16*
%TO.C,U4*%
X143121000Y-91925000D02*
X149279000Y-91925000D01*
X152677000Y-84051000D02*
X152677000Y-86489000D01*
X146739000Y-83340000D02*
X143121000Y-83340000D01*
X152677000Y-91925000D02*
X152677000Y-91028000D01*
X152677000Y-83340000D02*
X150741000Y-83340000D01*
X152677000Y-91028000D02*
X152677000Y-88547000D01*
X139723000Y-91925000D02*
X141659000Y-91925000D01*
X150741000Y-91925000D02*
X152677000Y-91925000D01*
X149279000Y-83340000D02*
X148201000Y-83340000D01*
X152677000Y-84051000D02*
X152677000Y-83340000D01*
X141659000Y-83340000D02*
X139723000Y-83340000D01*
X139723000Y-83340000D02*
X139723000Y-91925000D01*
X152677000Y-86515000D02*
G75*
G03*
X152677000Y-88547000I0J-1016000D01*
G01*
D11*
%TO.C,C17*%
X151340000Y-72139420D02*
X151340000Y-72420580D01*
X152360000Y-72139420D02*
X152360000Y-72420580D01*
%TO.C,R9*%
X148220000Y-77826359D02*
X148220000Y-78133641D01*
X148980000Y-77826359D02*
X148980000Y-78133641D01*
%TO.C,R3*%
X105677500Y-88162742D02*
X105677500Y-88637258D01*
X106722500Y-88162742D02*
X106722500Y-88637258D01*
%TO.C,R10*%
X151246359Y-74300000D02*
X151553641Y-74300000D01*
X151246359Y-75060000D02*
X151553641Y-75060000D01*
%TO.C,C11*%
X147892164Y-75920000D02*
X148107836Y-75920000D01*
X147892164Y-76640000D02*
X148107836Y-76640000D01*
%TO.C,R7*%
X112737258Y-84977500D02*
X112262742Y-84977500D01*
X112737258Y-86022500D02*
X112262742Y-86022500D01*
%TO.C,R5*%
X112737258Y-81377500D02*
X112262742Y-81377500D01*
X112737258Y-82422500D02*
X112262742Y-82422500D01*
%TO.C,C3*%
X120250000Y-70065000D02*
X116340000Y-70065000D01*
X116340000Y-70065000D02*
X116340000Y-71935000D01*
X116340000Y-71935000D02*
X120250000Y-71935000D01*
%TO.C,R1*%
X102922500Y-88162742D02*
X102922500Y-88637258D01*
X101877500Y-88162742D02*
X101877500Y-88637258D01*
%TO.C,C8*%
X147892164Y-75640000D02*
X148107836Y-75640000D01*
X147892164Y-74920000D02*
X148107836Y-74920000D01*
%TO.C,R8*%
X106309100Y-69901142D02*
X106309100Y-70375658D01*
X107354100Y-69901142D02*
X107354100Y-70375658D01*
%TD*%
M02*
