%TF.GenerationSoftware,KiCad,Pcbnew,(6.0.8-1)-1*%
%TF.CreationDate,2022-11-22T09:59:05-05:00*%
%TF.ProjectId,encoder_driver,656e636f-6465-4725-9f64-72697665722e,rev?*%
%TF.SameCoordinates,Original*%
%TF.FileFunction,Soldermask,Bot*%
%TF.FilePolarity,Negative*%
%FSLAX46Y46*%
G04 Gerber Fmt 4.6, Leading zero omitted, Abs format (unit mm)*
G04 Created by KiCad (PCBNEW (6.0.8-1)-1) date 2022-11-22 09:59:05*
%MOMM*%
%LPD*%
G01*
G04 APERTURE LIST*
G04 Aperture macros list*
%AMRoundRect*
0 Rectangle with rounded corners*
0 $1 Rounding radius*
0 $2 $3 $4 $5 $6 $7 $8 $9 X,Y pos of 4 corners*
0 Add a 4 corners polygon primitive as box body*
4,1,4,$2,$3,$4,$5,$6,$7,$8,$9,$2,$3,0*
0 Add four circle primitives for the rounded corners*
1,1,$1+$1,$2,$3*
1,1,$1+$1,$4,$5*
1,1,$1+$1,$6,$7*
1,1,$1+$1,$8,$9*
0 Add four rect primitives between the rounded corners*
20,1,$1+$1,$2,$3,$4,$5,0*
20,1,$1+$1,$4,$5,$6,$7,0*
20,1,$1+$1,$6,$7,$8,$9,0*
20,1,$1+$1,$8,$9,$2,$3,0*%
G04 Aperture macros list end*
%ADD10C,0.150000*%
%ADD11C,4.300000*%
%ADD12R,1.700000X1.700000*%
%ADD13O,1.700000X1.700000*%
%ADD14R,1.350000X1.350000*%
%ADD15O,1.350000X1.350000*%
%ADD16RoundRect,0.150000X0.675000X0.150000X-0.675000X0.150000X-0.675000X-0.150000X0.675000X-0.150000X0*%
G04 APERTURE END LIST*
D10*
X110002815Y-78498000D02*
G75*
G03*
X110002815Y-78498000I-538815J0D01*
G01*
D11*
%TO.C,REF\u002A\u002A*%
X117490000Y-102744000D03*
%TD*%
%TO.C,REF\u002A\u002A*%
X117490000Y-61176000D03*
%TD*%
%TO.C,REF\u002A\u002A*%
X81500000Y-82120000D03*
%TD*%
D12*
%TO.C,J2*%
X94670000Y-97040000D03*
D13*
X97210000Y-97040000D03*
X99750000Y-97040000D03*
X102290000Y-97040000D03*
X104830000Y-97040000D03*
X107370000Y-97040000D03*
X109910000Y-97040000D03*
X112450000Y-97040000D03*
%TD*%
D12*
%TO.C,J5*%
X136200000Y-72605000D03*
D13*
X136200000Y-75145000D03*
X136200000Y-77685000D03*
X136200000Y-80225000D03*
X136200000Y-82765000D03*
X136200000Y-85305000D03*
X136200000Y-87845000D03*
X136200000Y-90385000D03*
%TD*%
D12*
%TO.C,J1*%
X121847906Y-73999302D03*
D13*
X121847906Y-76539302D03*
X121847906Y-79079302D03*
X121847906Y-81619302D03*
X121847906Y-84159302D03*
X121847906Y-86699302D03*
X121847906Y-89239302D03*
X121847906Y-91779302D03*
%TD*%
D14*
%TO.C,J4*%
X154400000Y-75880000D03*
D15*
X154400000Y-77880000D03*
X154400000Y-79880000D03*
X154400000Y-81880000D03*
X154400000Y-83880000D03*
X154400000Y-85880000D03*
X154400000Y-87880000D03*
%TD*%
D12*
%TO.C,J3*%
X113250000Y-91650000D03*
D13*
X115790000Y-91650000D03*
%TD*%
D16*
%TO.C,U1*%
X108025000Y-79895000D03*
X108025000Y-81165000D03*
X108025000Y-82435000D03*
X108025000Y-83705000D03*
X102775000Y-83705000D03*
X102775000Y-82435000D03*
X102775000Y-81165000D03*
X102775000Y-79895000D03*
%TD*%
M02*
